<svg version="1.1"
xmlns="http://www.w3.org/2000/svg"
xmlns:xlink="http://www.w3.org/1999/xlink"
width="2232" height="100" viewBox = "0 0 2232 100"
onclick="mouseclick(evt)">

<script type="text/ecmascript">

<![CDATA[
    function mouseover(evt, target) { 
    var gv = document.getElementById("globalVariable");
    var previoustarget = gv.firstChild.nodeValue;
    if (previoustarget != "none") 
    {
        	document.getElementById(gv.firstChild.nodeValue).setAttributeNS(null, "visibility", "hidden");
    }
    document.getElementById(target).setAttributeNS(null, "visibility", "visible");
    gv.firstChild.nodeValue = target;
        }

    function mouseclick(evt) { 
    var gv = document.getElementById("globalVariable");
    var previoustarget = gv.firstChild.nodeValue;
    if (previoustarget != "none") {
        	document.getElementById(gv.firstChild.nodeValue).setAttributeNS(null, "visibility", "hidden");
        }
    }
]]>
  </script>
<style type="text/css" >

<![CDATA[
    rect.anc_exon {
              stroke-width:3;
                  }

    rect.non_anc_exon {
              stroke: black; stroke-width:3; stroke-dasharray: 5,5;
                    }

    text {
              font-size: 18px;
              font-family: Courier New;
          }
                    ]]>
</style>

<defs>
    <text x="150" y="40" id="globalVariable">none</text>
</defs>

  <rect class="anc_exon" x="0" y="35.0" width="0" height="30" style="fill:#87bcbc;fill-opacity:1.00" />
  <rect class="anc_exon" x="0" y="35.0" width="358.40000000000003" height="30" style="fill:#87bcbc;fill-opacity:1.00" />
  <line x1="358.40000000000003" y1="50.0" x2="377.40000000000003" y2="50.0" style="stroke:#999; stroke-width:3;" />
  <line x1="377.40000000000003" y1="50.0" x2="377.40000000000003" y2="50.0" style="stroke:#999; stroke-width:3;" />
  <line x1="377.40000000000003" y1="50.0" x2="377.40000000000003" y2="50.0" style="stroke:#999; stroke-width:3;" />
  <line x1="377.40000000000003" y1="50.0" x2="398.0" y2="50.0" style="stroke:#999; stroke-width:3;" />
  <rect class="anc_exon" x="398" y="35.0" width="160" height="30" style="fill:#87bcbc;fill-opacity:1.00" />
  <line x1="558" y1="50.0" x2="578" y2="50.0" style="stroke:#999; stroke-width:3;" />
  <line x1="578" y1="50.0" x2="578" y2="50.0" style="stroke:#999; stroke-width:3;" />
  <line x1="578" y1="50.0" x2="578" y2="50.0" style="stroke:#999; stroke-width:3;" />
  <line x1="578" y1="50.0" x2="598" y2="50.0" style="stroke:#999; stroke-width:3;" />
  <rect class="anc_exon" x="598" y="35.0" width="162" height="30" style="fill:#87bcbc;fill-opacity:1.00" />
  <line x1="760" y1="50.0" x2="780" y2="50.0" style="stroke:#999; stroke-width:3;" />
  <line x1="780" y1="50.0" x2="780" y2="50.0" style="stroke:#999; stroke-width:3;" />
  <line x1="780" y1="50.0" x2="780" y2="50.0" style="stroke:#999; stroke-width:3;" />
  <line x1="780" y1="50.0" x2="800" y2="50.0" style="stroke:#999; stroke-width:3;" />
  <rect class="anc_exon" x="800" y="35.0" width="108" height="30" style="fill:#87bcbc;fill-opacity:1.00" />
  <line x1="908" y1="50.0" x2="948" y2="50.0" style="stroke:#999; stroke-width:3;" />
  <rect class="anc_exon" x="948" y="35.0" width="117" height="30" style="fill:#87bcbc;fill-opacity:1.00" />
  <line x1="1065" y1="50.0" x2="1105" y2="50.0" style="stroke:#999; stroke-width:3;" />
  <rect class="anc_exon" x="1105" y="35.0" width="108" height="30" style="fill:#87bcbc;fill-opacity:1.00" />
  <line x1="1213" y1="50.0" x2="1233" y2="50.0" style="stroke:#999; stroke-width:3;" />
  <line x1="1233" y1="50.0" x2="1233" y2="50.0" style="stroke:#999; stroke-width:3;" />
  <line x1="1233" y1="50.0" x2="1233" y2="50.0" style="stroke:#999; stroke-width:3;" />
  <line x1="1233" y1="50.0" x2="1253" y2="50.0" style="stroke:#999; stroke-width:3;" />
  <rect class="anc_exon" x="1253" y="35.0" width="76" height="30" style="fill:#87bcbc;fill-opacity:1.00" />
  <line x1="1329" y1="50.0" x2="1369" y2="50.0" style="stroke:#999; stroke-width:3;" />
  <rect class="anc_exon" x="1369" y="35.0" width="168" height="30" style="fill:#87bcbc;fill-opacity:1.00" />
  <line x1="1537" y1="50.0" x2="1557" y2="50.0" style="stroke:#999; stroke-width:3;" />
  <line x1="1557" y1="50.0" x2="1557" y2="50.0" style="stroke:#999; stroke-width:3;" />
  <line x1="1557" y1="50.0" x2="1557" y2="50.0" style="stroke:#999; stroke-width:3;" />
  <line x1="1557" y1="50.0" x2="1577" y2="50.0" style="stroke:#999; stroke-width:3;" />
  <rect class="anc_exon" x="1577" y="35.0" width="64" height="30" style="fill:#87bcbc;fill-opacity:1.00" />
  <line x1="1641" y1="50.0" x2="1661" y2="50.0" style="stroke:#999; stroke-width:3;" />
  <line x1="1661" y1="50.0" x2="1661" y2="50.0" style="stroke:#999; stroke-width:3;" />
  <line x1="1661" y1="50.0" x2="1661" y2="50.0" style="stroke:#999; stroke-width:3;" />
  <line x1="1661" y1="50.0" x2="1681" y2="50.0" style="stroke:#999; stroke-width:3;" />
  <rect class="anc_exon" x="1681" y="35.0" width="144" height="30" style="fill:#87bcbc;fill-opacity:1.00" />
  <line x1="1825" y1="50.0" x2="1845" y2="50.0" style="stroke:#999; stroke-width:3;" />
  <line x1="1845" y1="50.0" x2="1845" y2="50.0" style="stroke:#999; stroke-width:3;" />
  <line x1="1845" y1="50.0" x2="1845" y2="50.0" style="stroke:#999; stroke-width:3;" />
  <line x1="1845" y1="50.0" x2="1865" y2="50.0" style="stroke:#999; stroke-width:3;" />
  <rect class="anc_exon" x="1865" y="35.0" width="35" height="30" style="fill:#87bcbc;fill-opacity:1.00" />
  <line x1="1900" y1="50.0" x2="1940" y2="50.0" style="stroke:#999; stroke-width:3;" />
  <rect class="anc_exon" x="1940" y="35.0" width="28" height="30" style="fill:#87bcbc;fill-opacity:1.00" />
  <line x1="1968" y1="50.0" x2="2008" y2="50.0" style="stroke:#999; stroke-width:3;" />
  <rect class="anc_exon" x="2008" y="35.0" width="188" height="30" style="fill:#87bcbc;fill-opacity:1.00" />
  <rect class="anc_exon" x="2196" y="35.0" width="0" height="30" style="fill:#87bcbc;fill-opacity:1.00" />
  <text style="" >
<tspan x="0" y="83.0" style="font-size:18px;" >SP XM_031966895_1.1</tspan>  </text>



<script type="text/ecmascript">
<![CDATA[
function draw_bbox(text_id)
{
    var text_elem = document.getElementById(text_id);
    var offset_px = 2;
    var offset_py = 0;
    bbox = text_elem.getBBox();
    var box = document.createElementNS(document.rootElement.namespaceURI,'rect');
    box.setAttribute('x', bbox.x - offset_px);
    box.setAttribute('y', bbox.y - offset_py);
    box.setAttribute('width', bbox.width + offset_px * 2);
    box.setAttribute('height', bbox.height + offset_py * 2);
    box.setAttribute('style','fill: white;'+'stroke: black;'+'stroke-width: 1px;');
    text_elem.insertBefore(box,text_elem.childNodes[0]);

    var svg = text_elem.parentNode;
    svg.appendChild(text_elem);
}

for (var i=1; i < 1; i++)
{
draw_bbox("Mouseover" + i);
}
]]> 
</script>
</svg>
