<svg version="1.1"
xmlns="http://www.w3.org/2000/svg"
xmlns:xlink="http://www.w3.org/1999/xlink"
width="4550" height="100" viewBox = "0 0 4550 100"
onclick="mouseclick(evt)">

<script type="text/ecmascript">

<![CDATA[
    function mouseover(evt, target) { 
    var gv = document.getElementById("globalVariable");
    var previoustarget = gv.firstChild.nodeValue;
    if (previoustarget != "none") 
    {
        	document.getElementById(gv.firstChild.nodeValue).setAttributeNS(null, "visibility", "hidden");
    }
    document.getElementById(target).setAttributeNS(null, "visibility", "visible");
    gv.firstChild.nodeValue = target;
        }

    function mouseclick(evt) { 
    var gv = document.getElementById("globalVariable");
    var previoustarget = gv.firstChild.nodeValue;
    if (previoustarget != "none") {
        	document.getElementById(gv.firstChild.nodeValue).setAttributeNS(null, "visibility", "hidden");
        }
    }
]]>
  </script>
<style type="text/css" >

<![CDATA[
    rect.anc_exon {
              stroke-width:3;
                  }

    rect.non_anc_exon {
              stroke: black; stroke-width:3; stroke-dasharray: 5,5;
                    }

    text {
              font-size: 18px;
              font-family: Courier New;
          }
                    ]]>
</style>

<defs>
    <text x="150" y="40" id="globalVariable">none</text>
</defs>

  <rect class="anc_exon" x="0" y="35.0" width="0" height="30" style="fill:#87bcbc;fill-opacity:1.00" />
  <rect class="anc_exon" x="0" y="35.0" width="50.400000000000006" height="30" style="fill:#87bcbc;fill-opacity:1.00" />
  <line x1="50.400000000000006" y1="50.0" x2="69.4" y2="50.0" style="stroke:#999; stroke-width:3;" />
  <line x1="69.4" y1="50.0" x2="69.4" y2="50.0" style="stroke:#999; stroke-width:3;" />
  <line x1="69.4" y1="50.0" x2="69.4" y2="50.0" style="stroke:#999; stroke-width:3;" />
  <line x1="69.4" y1="50.0" x2="90.0" y2="50.0" style="stroke:#999; stroke-width:3;" />
  <rect class="anc_exon" x="90" y="35.0" width="129" height="30" style="fill:#87bcbc;fill-opacity:1.00" />
  <line x1="219" y1="50.0" x2="239" y2="50.0" style="stroke:#999; stroke-width:3;" />
  <line x1="239" y1="50.0" x2="239" y2="50.0" style="stroke:#999; stroke-width:3;" />
  <line x1="239" y1="50.0" x2="239" y2="50.0" style="stroke:#999; stroke-width:3;" />
  <line x1="239" y1="50.0" x2="259" y2="50.0" style="stroke:#999; stroke-width:3;" />
  <rect class="anc_exon" x="259" y="35.0" width="20" height="30" style="fill:#87bcbc;fill-opacity:1.00" />
  <line x1="279" y1="50.0" x2="299" y2="50.0" style="stroke:#999; stroke-width:3;" />
  <line x1="299" y1="50.0" x2="299" y2="50.0" style="stroke:#999; stroke-width:3;" />
  <line x1="299" y1="50.0" x2="299" y2="50.0" style="stroke:#999; stroke-width:3;" />
  <line x1="299" y1="50.0" x2="319" y2="50.0" style="stroke:#999; stroke-width:3;" />
  <rect class="anc_exon" x="319" y="35.0" width="76" height="30" style="fill:#87bcbc;fill-opacity:1.00" />
  <line x1="395" y1="50.0" x2="435" y2="50.0" style="stroke:#999; stroke-width:3;" />
  <rect class="anc_exon" x="435" y="35.0" width="63" height="30" style="fill:#87bcbc;fill-opacity:1.00" />
  <line x1="498" y1="50.0" x2="538" y2="50.0" style="stroke:#999; stroke-width:3;" />
  <rect class="anc_exon" x="538" y="35.0" width="44" height="30" style="fill:#87bcbc;fill-opacity:1.00" />
  <line x1="582" y1="50.0" x2="602" y2="50.0" style="stroke:#999; stroke-width:3;" />
  <line x1="602" y1="50.0" x2="602" y2="50.0" style="stroke:#999; stroke-width:3;" />
  <line x1="602" y1="50.0" x2="602" y2="50.0" style="stroke:#999; stroke-width:3;" />
  <line x1="602" y1="50.0" x2="622" y2="50.0" style="stroke:#999; stroke-width:3;" />
  <rect class="anc_exon" x="622" y="35.0" width="929" height="30" style="fill:#87bcbc;fill-opacity:1.00" />
  <line x1="1551" y1="50.0" x2="1591" y2="50.0" style="stroke:#999; stroke-width:3;" />
  <rect class="anc_exon" x="1591" y="35.0" width="124" height="30" style="fill:#87bcbc;fill-opacity:1.00" />
  <line x1="1715" y1="50.0" x2="1755" y2="50.0" style="stroke:#999; stroke-width:3;" />
  <rect class="anc_exon" x="1755" y="35.0" width="89" height="30" style="fill:#87bcbc;fill-opacity:1.00" />
  <line x1="1844" y1="50.0" x2="1884" y2="50.0" style="stroke:#999; stroke-width:3;" />
  <rect class="anc_exon" x="1884" y="35.0" width="58" height="30" style="fill:#87bcbc;fill-opacity:1.00" />
  <line x1="1942" y1="50.0" x2="1982" y2="50.0" style="stroke:#999; stroke-width:3;" />
  <rect class="anc_exon" x="1982" y="35.0" width="110" height="30" style="fill:#87bcbc;fill-opacity:1.00" />
  <line x1="2092" y1="50.0" x2="2112" y2="50.0" style="stroke:#999; stroke-width:3;" />
  <line x1="2112" y1="50.0" x2="2112" y2="50.0" style="stroke:#999; stroke-width:3;" />
  <line x1="2112" y1="50.0" x2="2112" y2="50.0" style="stroke:#999; stroke-width:3;" />
  <line x1="2112" y1="50.0" x2="2132" y2="50.0" style="stroke:#999; stroke-width:3;" />
  <rect class="anc_exon" x="2132" y="35.0" width="240" height="30" style="fill:#87bcbc;fill-opacity:1.00" />
  <line x1="2372" y1="50.0" x2="2412" y2="50.0" style="stroke:#999; stroke-width:3;" />
  <rect class="anc_exon" x="2412" y="35.0" width="49" height="30" style="fill:#87bcbc;fill-opacity:1.00" />
  <line x1="2461" y1="50.0" x2="2501" y2="50.0" style="stroke:#999; stroke-width:3;" />
  <rect class="anc_exon" x="2501" y="35.0" width="104" height="30" style="fill:#87bcbc;fill-opacity:1.00" />
  <line x1="2605" y1="50.0" x2="2645" y2="50.0" style="stroke:#999; stroke-width:3;" />
  <rect class="anc_exon" x="2645" y="35.0" width="97" height="30" style="fill:#878787;fill-opacity:1.00" />
  <line x1="2742" y1="50.0" x2="2782" y2="50.0" style="stroke:#999; stroke-width:3;" />
  <rect class="anc_exon" x="2782" y="35.0" width="124" height="30" style="fill:#87bcbc;fill-opacity:1.00" />
  <line x1="2906" y1="50.0" x2="2926" y2="50.0" style="stroke:#999; stroke-width:3;" />
  <line x1="2926" y1="50.0" x2="2926" y2="50.0" style="stroke:#999; stroke-width:3;" />
  <line x1="2926" y1="50.0" x2="2926" y2="50.0" style="stroke:#999; stroke-width:3;" />
  <line x1="2926" y1="50.0" x2="2946" y2="50.0" style="stroke:#999; stroke-width:3;" />
  <rect class="anc_exon" x="2946" y="35.0" width="63" height="30" style="fill:#87bcbc;fill-opacity:1.00" />
  <line x1="3009" y1="50.0" x2="3049" y2="50.0" style="stroke:#999; stroke-width:3;" />
  <rect class="anc_exon" x="3049" y="35.0" width="59" height="30" style="fill:#87bcbc;fill-opacity:1.00" />
  <line x1="3108" y1="50.0" x2="3148" y2="50.0" style="stroke:#999; stroke-width:3;" />
  <rect class="anc_exon" x="3148" y="35.0" width="72" height="30" style="fill:#87bcbc;fill-opacity:1.00" />
  <line x1="3220" y1="50.0" x2="3260" y2="50.0" style="stroke:#999; stroke-width:3;" />
  <rect class="anc_exon" x="3260" y="35.0" width="100" height="30" style="fill:#87bcbc;fill-opacity:1.00" />
  <line x1="3360" y1="50.0" x2="3380" y2="50.0" style="stroke:#999; stroke-width:3;" />
  <line x1="3380" y1="50.0" x2="3380" y2="50.0" style="stroke:#999; stroke-width:3;" />
  <line x1="3380" y1="50.0" x2="3380" y2="50.0" style="stroke:#999; stroke-width:3;" />
  <line x1="3380" y1="50.0" x2="3400" y2="50.0" style="stroke:#999; stroke-width:3;" />
  <rect class="anc_exon" x="3400" y="35.0" width="33" height="30" style="fill:#87bcbc;fill-opacity:1.00" />
  <line x1="3433" y1="50.0" x2="3473" y2="50.0" style="stroke:#999; stroke-width:3;" />
  <rect class="anc_exon" x="3473" y="35.0" width="77" height="30" style="fill:#87bcbc;fill-opacity:1.00" />
  <line x1="3550" y1="50.0" x2="3570" y2="50.0" style="stroke:#999; stroke-width:3;" />
  <line x1="3570" y1="50.0" x2="3570" y2="50.0" style="stroke:#999; stroke-width:3;" />
  <line x1="3570" y1="50.0" x2="3570" y2="50.0" style="stroke:#999; stroke-width:3;" />
  <line x1="3570" y1="50.0" x2="3590" y2="50.0" style="stroke:#999; stroke-width:3;" />
  <rect class="anc_exon" x="3590" y="35.0" width="25" height="30" style="fill:#87bcbc;fill-opacity:1.00" />
  <line x1="3615" y1="50.0" x2="3635" y2="50.0" style="stroke:#999; stroke-width:3;" />
  <line x1="3635" y1="50.0" x2="3635" y2="50.0" style="stroke:#999; stroke-width:3;" />
  <line x1="3635" y1="50.0" x2="3635" y2="50.0" style="stroke:#999; stroke-width:3;" />
  <line x1="3635" y1="50.0" x2="3655" y2="50.0" style="stroke:#999; stroke-width:3;" />
  <rect class="anc_exon" x="3655" y="35.0" width="859" height="30" style="fill:#87bcbc;fill-opacity:1.00" />
  <rect class="anc_exon" x="4514" y="35.0" width="0" height="30" style="fill:#87bcbc;fill-opacity:1.00" />
  <text style="" >
<tspan x="0" y="83.0" style="font-size:18px;" >SP XM_031966139_1.1</tspan>  </text>



<script type="text/ecmascript">
<![CDATA[
function draw_bbox(text_id)
{
    var text_elem = document.getElementById(text_id);
    var offset_px = 2;
    var offset_py = 0;
    bbox = text_elem.getBBox();
    var box = document.createElementNS(document.rootElement.namespaceURI,'rect');
    box.setAttribute('x', bbox.x - offset_px);
    box.setAttribute('y', bbox.y - offset_py);
    box.setAttribute('width', bbox.width + offset_px * 2);
    box.setAttribute('height', bbox.height + offset_py * 2);
    box.setAttribute('style','fill: white;'+'stroke: black;'+'stroke-width: 1px;');
    text_elem.insertBefore(box,text_elem.childNodes[0]);

    var svg = text_elem.parentNode;
    svg.appendChild(text_elem);
}

for (var i=1; i < 1; i++)
{
draw_bbox("Mouseover" + i);
}
]]> 
</script>
</svg>
