<svg version="1.1"
xmlns="http://www.w3.org/2000/svg"
xmlns:xlink="http://www.w3.org/1999/xlink"
width="3684" height="100" viewBox = "0 0 3684 100"
onclick="mouseclick(evt)">

<script type="text/ecmascript">

<![CDATA[
    function mouseover(evt, target) { 
    var gv = document.getElementById("globalVariable");
    var previoustarget = gv.firstChild.nodeValue;
    if (previoustarget != "none") 
    {
        	document.getElementById(gv.firstChild.nodeValue).setAttributeNS(null, "visibility", "hidden");
    }
    document.getElementById(target).setAttributeNS(null, "visibility", "visible");
    gv.firstChild.nodeValue = target;
        }

    function mouseclick(evt) { 
    var gv = document.getElementById("globalVariable");
    var previoustarget = gv.firstChild.nodeValue;
    if (previoustarget != "none") {
        	document.getElementById(gv.firstChild.nodeValue).setAttributeNS(null, "visibility", "hidden");
        }
    }
]]>
  </script>
<style type="text/css" >

<![CDATA[
    rect.anc_exon {
              stroke-width:3;
                  }

    rect.non_anc_exon {
              stroke: black; stroke-width:3; stroke-dasharray: 5,5;
                    }

    text {
              font-size: 18px;
              font-family: Courier New;
          }
                    ]]>
</style>

<defs>
    <text x="150" y="40" id="globalVariable">none</text>
</defs>

  <rect class="anc_exon" x="0" y="35.0" width="0" height="30" style="fill:#87bcbc;fill-opacity:1.00" />
  <rect class="anc_exon" x="0" y="35.0" width="120.80000000000001" height="30" style="fill:#87bcbc;fill-opacity:1.00" />
  <line x1="120.80000000000001" y1="50.0" x2="139.8" y2="50.0" style="stroke:#999; stroke-width:3;" />
  <line x1="139.8" y1="50.0" x2="139.8" y2="50.0" style="stroke:#999; stroke-width:3;" />
  <line x1="139.8" y1="50.0" x2="139.8" y2="50.0" style="stroke:#999; stroke-width:3;" />
  <line x1="139.8" y1="50.0" x2="160.0" y2="50.0" style="stroke:#999; stroke-width:3;" />
  <rect class="anc_exon" x="160" y="35.0" width="212" height="30" style="fill:#87bcbc;fill-opacity:1.00" />
  <line x1="372" y1="50.0" x2="412" y2="50.0" style="stroke:#999; stroke-width:3;" />
  <rect class="anc_exon" x="412" y="35.0" width="116" height="30" style="fill:#87bcbc;fill-opacity:1.00" />
  <line x1="528" y1="50.0" x2="568" y2="50.0" style="stroke:#999; stroke-width:3;" />
  <rect class="anc_exon" x="568" y="35.0" width="92" height="30" style="fill:#87bcbc;fill-opacity:1.00" />
  <line x1="660" y1="50.0" x2="700" y2="50.0" style="stroke:#999; stroke-width:3;" />
  <rect class="anc_exon" x="700" y="35.0" width="104" height="30" style="fill:#87bcbc;fill-opacity:1.00" />
  <line x1="804" y1="50.0" x2="844" y2="50.0" style="stroke:#999; stroke-width:3;" />
  <rect class="anc_exon" x="844" y="35.0" width="105" height="30" style="fill:#87bcbc;fill-opacity:1.00" />
  <line x1="949" y1="50.0" x2="989" y2="50.0" style="stroke:#999; stroke-width:3;" />
  <rect class="anc_exon" x="989" y="35.0" width="90" height="30" style="fill:#87bcbc;fill-opacity:1.00" />
  <line x1="1079" y1="50.0" x2="1119" y2="50.0" style="stroke:#999; stroke-width:3;" />
  <rect class="anc_exon" x="1119" y="35.0" width="105" height="30" style="fill:#87bcbc;fill-opacity:1.00" />
  <line x1="1224" y1="50.0" x2="1264" y2="50.0" style="stroke:#999; stroke-width:3;" />
  <rect class="anc_exon" x="1264" y="35.0" width="178" height="30" style="fill:#87bcbc;fill-opacity:1.00" />
  <line x1="1442" y1="50.0" x2="1482" y2="50.0" style="stroke:#999; stroke-width:3;" />
  <rect class="anc_exon" x="1482" y="35.0" width="169" height="30" style="fill:#87bcbc;fill-opacity:1.00" />
  <line x1="1651" y1="50.0" x2="1691" y2="50.0" style="stroke:#999; stroke-width:3;" />
  <rect class="anc_exon" x="1691" y="35.0" width="223" height="30" style="fill:#87bcbc;fill-opacity:1.00" />
  <line x1="1914" y1="50.0" x2="1954" y2="50.0" style="stroke:#999; stroke-width:3;" />
  <rect class="anc_exon" x="1954" y="35.0" width="132" height="30" style="fill:#87bcbc;fill-opacity:1.00" />
  <line x1="2086" y1="50.0" x2="2126" y2="50.0" style="stroke:#999; stroke-width:3;" />
  <rect class="anc_exon" x="2126" y="35.0" width="107" height="30" style="fill:#87bcbc;fill-opacity:1.00" />
  <line x1="2233" y1="50.0" x2="2273" y2="50.0" style="stroke:#999; stroke-width:3;" />
  <rect class="anc_exon" x="2273" y="35.0" width="96" height="30" style="fill:#87bcbc;fill-opacity:1.00" />
  <line x1="2369" y1="50.0" x2="2409" y2="50.0" style="stroke:#999; stroke-width:3;" />
  <rect class="anc_exon" x="2409" y="35.0" width="40" height="30" style="fill:#87bcbc;fill-opacity:1.00" />
  <line x1="2449" y1="50.0" x2="2489" y2="50.0" style="stroke:#999; stroke-width:3;" />
  <rect class="anc_exon" x="2489" y="35.0" width="86" height="30" style="fill:#87bcbc;fill-opacity:1.00" />
  <line x1="2575" y1="50.0" x2="2615" y2="50.0" style="stroke:#999; stroke-width:3;" />
  <rect class="anc_exon" x="2615" y="35.0" width="44" height="30" style="fill:#87bcbc;fill-opacity:1.00" />
  <line x1="2659" y1="50.0" x2="2699" y2="50.0" style="stroke:#999; stroke-width:3;" />
  <rect class="anc_exon" x="2699" y="35.0" width="70" height="30" style="fill:#87bcbc;fill-opacity:1.00" />
  <line x1="2769" y1="50.0" x2="2809" y2="50.0" style="stroke:#999; stroke-width:3;" />
  <rect class="anc_exon" x="2809" y="35.0" width="96" height="30" style="fill:#87bcbc;fill-opacity:1.00" />
  <line x1="2905" y1="50.0" x2="2945" y2="50.0" style="stroke:#999; stroke-width:3;" />
  <rect class="anc_exon" x="2945" y="35.0" width="78" height="30" style="fill:#87bcbc;fill-opacity:1.00" />
  <line x1="3023" y1="50.0" x2="3063" y2="50.0" style="stroke:#999; stroke-width:3;" />
  <rect class="anc_exon" x="3063" y="35.0" width="95" height="30" style="fill:#87bcbc;fill-opacity:1.00" />
  <line x1="3158" y1="50.0" x2="3198" y2="50.0" style="stroke:#999; stroke-width:3;" />
  <rect class="anc_exon" x="3198" y="35.0" width="107" height="30" style="fill:#87bcbc;fill-opacity:1.00" />
  <line x1="3305" y1="50.0" x2="3345" y2="50.0" style="stroke:#999; stroke-width:3;" />
  <rect class="anc_exon" x="3345" y="35.0" width="68" height="30" style="fill:#87bcbc;fill-opacity:1.00" />
  <line x1="3413" y1="50.0" x2="3453" y2="50.0" style="stroke:#999; stroke-width:3;" />
  <rect class="anc_exon" x="3453" y="35.0" width="123" height="30" style="fill:#87bcbc;fill-opacity:1.00" />
  <line x1="3576" y1="50.0" x2="3616" y2="50.0" style="stroke:#999; stroke-width:3;" />
  <rect class="anc_exon" x="3616" y="35.0" width="32" height="30" style="fill:#87bcbc;fill-opacity:1.00" />
  <rect class="anc_exon" x="3648" y="35.0" width="0" height="30" style="fill:#87bcbc;fill-opacity:1.00" />
  <text style="" >
<tspan x="0" y="83.0" style="font-size:18px;" >SP XM_031966035_1.1</tspan>  </text>



<script type="text/ecmascript">
<![CDATA[
function draw_bbox(text_id)
{
    var text_elem = document.getElementById(text_id);
    var offset_px = 2;
    var offset_py = 0;
    bbox = text_elem.getBBox();
    var box = document.createElementNS(document.rootElement.namespaceURI,'rect');
    box.setAttribute('x', bbox.x - offset_px);
    box.setAttribute('y', bbox.y - offset_py);
    box.setAttribute('width', bbox.width + offset_px * 2);
    box.setAttribute('height', bbox.height + offset_py * 2);
    box.setAttribute('style','fill: white;'+'stroke: black;'+'stroke-width: 1px;');
    text_elem.insertBefore(box,text_elem.childNodes[0]);

    var svg = text_elem.parentNode;
    svg.appendChild(text_elem);
}

for (var i=1; i < 1; i++)
{
draw_bbox("Mouseover" + i);
}
]]> 
</script>
</svg>
