<svg version="1.1"
xmlns="http://www.w3.org/2000/svg"
xmlns:xlink="http://www.w3.org/1999/xlink"
width="2058" height="100" viewBox = "0 0 2058 100"
onclick="mouseclick(evt)">

<script type="text/ecmascript">

<![CDATA[
    function mouseover(evt, target) { 
    var gv = document.getElementById("globalVariable");
    var previoustarget = gv.firstChild.nodeValue;
    if (previoustarget != "none") 
    {
        	document.getElementById(gv.firstChild.nodeValue).setAttributeNS(null, "visibility", "hidden");
    }
    document.getElementById(target).setAttributeNS(null, "visibility", "visible");
    gv.firstChild.nodeValue = target;
        }

    function mouseclick(evt) { 
    var gv = document.getElementById("globalVariable");
    var previoustarget = gv.firstChild.nodeValue;
    if (previoustarget != "none") {
        	document.getElementById(gv.firstChild.nodeValue).setAttributeNS(null, "visibility", "hidden");
        }
    }
]]>
  </script>
<style type="text/css" >

<![CDATA[
    rect.anc_exon {
              stroke-width:3;
                  }

    rect.non_anc_exon {
              stroke: black; stroke-width:3; stroke-dasharray: 5,5;
                    }

    text {
              font-size: 18px;
              font-family: Courier New;
          }
                    ]]>
</style>

<defs>
    <text x="150" y="40" id="globalVariable">none</text>
</defs>

  <rect class="anc_exon" x="0" y="35.0" width="0" height="30" style="fill:#87bcbc;fill-opacity:1.00" />
  <rect class="anc_exon" x="0" y="35.0" width="44.800000000000004" height="30" style="fill:#87bcbc;fill-opacity:1.00" />
  <line x1="44.800000000000004" y1="50.0" x2="84.0" y2="50.0" style="stroke:#999; stroke-width:3;" />
  <rect class="anc_exon" x="84" y="35.0" width="104" height="30" style="fill:#87bcbc;fill-opacity:1.00" />
  <line x1="188" y1="50.0" x2="208" y2="50.0" style="stroke:#999; stroke-width:3;" />
  <line x1="208" y1="50.0" x2="208" y2="50.0" style="stroke:#999; stroke-width:3;" />
  <line x1="208" y1="50.0" x2="208" y2="50.0" style="stroke:#999; stroke-width:3;" />
  <line x1="208" y1="50.0" x2="228" y2="50.0" style="stroke:#999; stroke-width:3;" />
  <rect class="anc_exon" x="228" y="35.0" width="168" height="30" style="fill:#87bcbc;fill-opacity:1.00" />
  <line x1="396" y1="50.0" x2="436" y2="50.0" style="stroke:#999; stroke-width:3;" />
  <rect class="anc_exon" x="436" y="35.0" width="97" height="30" style="fill:#87bcbc;fill-opacity:1.00" />
  <line x1="533" y1="50.0" x2="553" y2="50.0" style="stroke:#999; stroke-width:3;" />
  <line x1="553" y1="50.0" x2="553" y2="50.0" style="stroke:#999; stroke-width:3;" />
  <line x1="553" y1="50.0" x2="553" y2="50.0" style="stroke:#999; stroke-width:3;" />
  <line x1="553" y1="50.0" x2="573" y2="50.0" style="stroke:#999; stroke-width:3;" />
  <rect class="anc_exon" x="573" y="35.0" width="84" height="30" style="fill:#878787;fill-opacity:1.00" />
  <line x1="657" y1="50.0" x2="677" y2="50.0" style="stroke:#999; stroke-width:3;" />
  <line x1="677" y1="50.0" x2="677" y2="50.0" style="stroke:#999; stroke-width:3;" />
  <line x1="677" y1="50.0" x2="677" y2="50.0" style="stroke:#999; stroke-width:3;" />
  <line x1="677" y1="50.0" x2="697" y2="50.0" style="stroke:#999; stroke-width:3;" />
  <rect class="anc_exon" x="697" y="35.0" width="153" height="30" style="fill:#87bcbc;fill-opacity:1.00" />
  <line x1="850" y1="50.0" x2="870" y2="50.0" style="stroke:#999; stroke-width:3;" />
  <line x1="870" y1="50.0" x2="870" y2="50.0" style="stroke:#999; stroke-width:3;" />
  <line x1="870" y1="50.0" x2="870" y2="50.0" style="stroke:#999; stroke-width:3;" />
  <line x1="870" y1="50.0" x2="890" y2="50.0" style="stroke:#999; stroke-width:3;" />
  <rect class="anc_exon" x="890" y="35.0" width="158" height="30" style="fill:#87bcbc;fill-opacity:1.00" />
  <line x1="1048" y1="50.0" x2="1068" y2="50.0" style="stroke:#999; stroke-width:3;" />
  <line x1="1068" y1="50.0" x2="1068" y2="50.0" style="stroke:#999; stroke-width:3;" />
  <line x1="1068" y1="50.0" x2="1068" y2="50.0" style="stroke:#999; stroke-width:3;" />
  <line x1="1068" y1="50.0" x2="1088" y2="50.0" style="stroke:#999; stroke-width:3;" />
  <rect class="anc_exon" x="1088" y="35.0" width="83" height="30" style="fill:#87bcbc;fill-opacity:1.00" />
  <line x1="1171" y1="50.0" x2="1191" y2="50.0" style="stroke:#999; stroke-width:3;" />
  <line x1="1191" y1="50.0" x2="1191" y2="50.0" style="stroke:#999; stroke-width:3;" />
  <line x1="1191" y1="50.0" x2="1191" y2="50.0" style="stroke:#999; stroke-width:3;" />
  <line x1="1191" y1="50.0" x2="1211" y2="50.0" style="stroke:#999; stroke-width:3;" />
  <rect class="anc_exon" x="1211" y="35.0" width="109" height="30" style="fill:#87bcbc;fill-opacity:1.00" />
  <line x1="1320" y1="50.0" x2="1340" y2="50.0" style="stroke:#999; stroke-width:3;" />
  <line x1="1340" y1="50.0" x2="1340" y2="50.0" style="stroke:#999; stroke-width:3;" />
  <line x1="1340" y1="50.0" x2="1340" y2="50.0" style="stroke:#999; stroke-width:3;" />
  <line x1="1340" y1="50.0" x2="1360" y2="50.0" style="stroke:#999; stroke-width:3;" />
  <rect class="anc_exon" x="1360" y="35.0" width="76" height="30" style="fill:#87bcbc;fill-opacity:1.00" />
  <line x1="1436" y1="50.0" x2="1456" y2="50.0" style="stroke:#999; stroke-width:3;" />
  <line x1="1456" y1="50.0" x2="1456" y2="50.0" style="stroke:#999; stroke-width:3;" />
  <line x1="1456" y1="50.0" x2="1456" y2="50.0" style="stroke:#999; stroke-width:3;" />
  <line x1="1456" y1="50.0" x2="1476" y2="50.0" style="stroke:#999; stroke-width:3;" />
  <rect class="anc_exon" x="1476" y="35.0" width="105" height="30" style="fill:#87bcbc;fill-opacity:1.00" />
  <line x1="1581" y1="50.0" x2="1601" y2="50.0" style="stroke:#999; stroke-width:3;" />
  <line x1="1601" y1="50.0" x2="1601" y2="50.0" style="stroke:#999; stroke-width:3;" />
  <line x1="1601" y1="50.0" x2="1601" y2="50.0" style="stroke:#999; stroke-width:3;" />
  <line x1="1601" y1="50.0" x2="1621" y2="50.0" style="stroke:#999; stroke-width:3;" />
  <rect class="anc_exon" x="1621" y="35.0" width="125" height="30" style="fill:#87bcbc;fill-opacity:1.00" />
  <line x1="1746" y1="50.0" x2="1766" y2="50.0" style="stroke:#999; stroke-width:3;" />
  <line x1="1766" y1="50.0" x2="1766" y2="50.0" style="stroke:#999; stroke-width:3;" />
  <line x1="1766" y1="50.0" x2="1766" y2="50.0" style="stroke:#999; stroke-width:3;" />
  <line x1="1766" y1="50.0" x2="1786" y2="50.0" style="stroke:#999; stroke-width:3;" />
  <rect class="anc_exon" x="1786" y="35.0" width="236" height="30" style="fill:#87bcbc;fill-opacity:1.00" />
  <rect class="anc_exon" x="2022" y="35.0" width="0" height="30" style="fill:#87bcbc;fill-opacity:1.00" />
  <text style="" >
<tspan x="0" y="83.0" style="font-size:18px;" >SP XM_031964471_1.1</tspan>  </text>



<script type="text/ecmascript">
<![CDATA[
function draw_bbox(text_id)
{
    var text_elem = document.getElementById(text_id);
    var offset_px = 2;
    var offset_py = 0;
    bbox = text_elem.getBBox();
    var box = document.createElementNS(document.rootElement.namespaceURI,'rect');
    box.setAttribute('x', bbox.x - offset_px);
    box.setAttribute('y', bbox.y - offset_py);
    box.setAttribute('width', bbox.width + offset_px * 2);
    box.setAttribute('height', bbox.height + offset_py * 2);
    box.setAttribute('style','fill: white;'+'stroke: black;'+'stroke-width: 1px;');
    text_elem.insertBefore(box,text_elem.childNodes[0]);

    var svg = text_elem.parentNode;
    svg.appendChild(text_elem);
}

for (var i=1; i < 1; i++)
{
draw_bbox("Mouseover" + i);
}
]]> 
</script>
</svg>
