<svg version="1.1"
xmlns="http://www.w3.org/2000/svg"
xmlns:xlink="http://www.w3.org/1999/xlink"
width="2731" height="100" viewBox = "0 0 2731 100"
onclick="mouseclick(evt)">

<script type="text/ecmascript">

<![CDATA[
    function mouseover(evt, target) { 
    var gv = document.getElementById("globalVariable");
    var previoustarget = gv.firstChild.nodeValue;
    if (previoustarget != "none") 
    {
        	document.getElementById(gv.firstChild.nodeValue).setAttributeNS(null, "visibility", "hidden");
    }
    document.getElementById(target).setAttributeNS(null, "visibility", "visible");
    gv.firstChild.nodeValue = target;
        }

    function mouseclick(evt) { 
    var gv = document.getElementById("globalVariable");
    var previoustarget = gv.firstChild.nodeValue;
    if (previoustarget != "none") {
        	document.getElementById(gv.firstChild.nodeValue).setAttributeNS(null, "visibility", "hidden");
        }
    }
]]>
  </script>
<style type="text/css" >

<![CDATA[
    rect.anc_exon {
              stroke-width:3;
                  }

    rect.non_anc_exon {
              stroke: black; stroke-width:3; stroke-dasharray: 5,5;
                    }

    text {
              font-size: 18px;
              font-family: Courier New;
          }
                    ]]>
</style>

<defs>
    <text x="150" y="40" id="globalVariable">none</text>
</defs>

  <rect class="anc_exon" x="0" y="35.0" width="0" height="30" style="fill:#87bcbc;fill-opacity:1.00" />
  <rect class="anc_exon" x="0" y="35.0" width="21.6" height="30" style="fill:#87bcbc;fill-opacity:1.00" />
  <line x1="21.6" y1="50.0" x2="40.6" y2="50.0" style="stroke:#999; stroke-width:3;" />
  <line x1="40.6" y1="50.0" x2="40.6" y2="50.0" style="stroke:#999; stroke-width:3;" />
  <line x1="40.6" y1="50.0" x2="40.6" y2="50.0" style="stroke:#999; stroke-width:3;" />
  <line x1="40.6" y1="50.0" x2="61.0" y2="50.0" style="stroke:#999; stroke-width:3;" />
  <rect class="anc_exon" x="61" y="35.0" width="60" height="30" style="fill:#87bcbc;fill-opacity:1.00" />
  <line x1="121" y1="50.0" x2="141" y2="50.0" style="stroke:#999; stroke-width:3;" />
  <line x1="141" y1="50.0" x2="141" y2="50.0" style="stroke:#999; stroke-width:3;" />
  <line x1="141" y1="50.0" x2="141" y2="50.0" style="stroke:#999; stroke-width:3;" />
  <line x1="141" y1="50.0" x2="161" y2="50.0" style="stroke:#999; stroke-width:3;" />
  <rect class="anc_exon" x="161" y="35.0" width="118" height="30" style="fill:#87bcbc;fill-opacity:1.00" />
  <line x1="279" y1="50.0" x2="299" y2="50.0" style="stroke:#999; stroke-width:3;" />
  <line x1="299" y1="50.0" x2="299" y2="50.0" style="stroke:#999; stroke-width:3;" />
  <line x1="299" y1="50.0" x2="299" y2="50.0" style="stroke:#999; stroke-width:3;" />
  <line x1="299" y1="50.0" x2="319" y2="50.0" style="stroke:#999; stroke-width:3;" />
  <rect class="anc_exon" x="319" y="35.0" width="100" height="30" style="fill:#87bcbc;fill-opacity:1.00" />
  <line x1="419" y1="50.0" x2="439" y2="50.0" style="stroke:#999; stroke-width:3;" />
  <line x1="439" y1="50.0" x2="439" y2="50.0" style="stroke:#999; stroke-width:3;" />
  <line x1="439" y1="50.0" x2="439" y2="50.0" style="stroke:#999; stroke-width:3;" />
  <line x1="439" y1="50.0" x2="459" y2="50.0" style="stroke:#999; stroke-width:3;" />
  <rect class="anc_exon" x="459" y="35.0" width="78" height="30" style="fill:#87bcbc;fill-opacity:1.00" />
  <line x1="537" y1="50.0" x2="577" y2="50.0" style="stroke:#999; stroke-width:3;" />
  <rect class="anc_exon" x="577" y="35.0" width="124" height="30" style="fill:#87bcbc;fill-opacity:1.00" />
  <line x1="701" y1="50.0" x2="741" y2="50.0" style="stroke:#999; stroke-width:3;" />
  <rect class="anc_exon" x="741" y="35.0" width="169" height="30" style="fill:#87bcbc;fill-opacity:1.00" />
  <line x1="910" y1="50.0" x2="950" y2="50.0" style="stroke:#999; stroke-width:3;" />
  <rect class="anc_exon" x="950" y="35.0" width="92" height="30" style="fill:#87bcbc;fill-opacity:1.00" />
  <line x1="1042" y1="50.0" x2="1062" y2="50.0" style="stroke:#999; stroke-width:3;" />
  <line x1="1062" y1="50.0" x2="1062" y2="50.0" style="stroke:#999; stroke-width:3;" />
  <line x1="1062" y1="50.0" x2="1062" y2="50.0" style="stroke:#999; stroke-width:3;" />
  <line x1="1062" y1="50.0" x2="1082" y2="50.0" style="stroke:#999; stroke-width:3;" />
  <rect class="anc_exon" x="1082" y="35.0" width="92" height="30" style="fill:#87bcbc;fill-opacity:1.00" />
  <line x1="1174" y1="50.0" x2="1194" y2="50.0" style="stroke:#999; stroke-width:3;" />
  <line x1="1194" y1="50.0" x2="1194" y2="50.0" style="stroke:#999; stroke-width:3;" />
  <line x1="1194" y1="50.0" x2="1194" y2="50.0" style="stroke:#999; stroke-width:3;" />
  <line x1="1194" y1="50.0" x2="1214" y2="50.0" style="stroke:#999; stroke-width:3;" />
  <rect class="anc_exon" x="1214" y="35.0" width="80" height="30" style="fill:#87bcbc;fill-opacity:1.00" />
  <line x1="1294" y1="50.0" x2="1334" y2="50.0" style="stroke:#999; stroke-width:3;" />
  <rect class="anc_exon" x="1334" y="35.0" width="166" height="30" style="fill:#87bcbc;fill-opacity:1.00" />
  <line x1="1500" y1="50.0" x2="1540" y2="50.0" style="stroke:#999; stroke-width:3;" />
  <rect class="anc_exon" x="1540" y="35.0" width="138" height="30" style="fill:#87bcbc;fill-opacity:1.00" />
  <line x1="1678" y1="50.0" x2="1698" y2="50.0" style="stroke:#999; stroke-width:3;" />
  <line x1="1698" y1="50.0" x2="1698" y2="50.0" style="stroke:#999; stroke-width:3;" />
  <line x1="1698" y1="50.0" x2="1698" y2="50.0" style="stroke:#999; stroke-width:3;" />
  <line x1="1698" y1="50.0" x2="1718" y2="50.0" style="stroke:#999; stroke-width:3;" />
  <rect class="anc_exon" x="1718" y="35.0" width="122" height="30" style="fill:#87bcbc;fill-opacity:1.00" />
  <line x1="1840" y1="50.0" x2="1880" y2="50.0" style="stroke:#999; stroke-width:3;" />
  <rect class="anc_exon" x="1880" y="35.0" width="167" height="30" style="fill:#87bcbc;fill-opacity:1.00" />
  <line x1="2047" y1="50.0" x2="2087" y2="50.0" style="stroke:#999; stroke-width:3;" />
  <rect class="anc_exon" x="2087" y="35.0" width="94" height="30" style="fill:#87bcbc;fill-opacity:1.00" />
  <line x1="2181" y1="50.0" x2="2221" y2="50.0" style="stroke:#999; stroke-width:3;" />
  <rect class="anc_exon" x="2221" y="35.0" width="103" height="30" style="fill:#87bcbc;fill-opacity:1.00" />
  <line x1="2324" y1="50.0" x2="2344" y2="50.0" style="stroke:#999; stroke-width:3;" />
  <line x1="2344" y1="50.0" x2="2344" y2="50.0" style="stroke:#999; stroke-width:3;" />
  <line x1="2344" y1="50.0" x2="2344" y2="50.0" style="stroke:#999; stroke-width:3;" />
  <line x1="2344" y1="50.0" x2="2364" y2="50.0" style="stroke:#999; stroke-width:3;" />
  <rect class="anc_exon" x="2364" y="35.0" width="60" height="30" style="fill:#87bcbc;fill-opacity:1.00" />
  <line x1="2424" y1="50.0" x2="2444" y2="50.0" style="stroke:#999; stroke-width:3;" />
  <line x1="2444" y1="50.0" x2="2444" y2="50.0" style="stroke:#999; stroke-width:3;" />
  <line x1="2444" y1="50.0" x2="2444" y2="50.0" style="stroke:#999; stroke-width:3;" />
  <line x1="2444" y1="50.0" x2="2464" y2="50.0" style="stroke:#999; stroke-width:3;" />
  <rect class="anc_exon" x="2464" y="35.0" width="125" height="30" style="fill:#87bcbc;fill-opacity:1.00" />
  <line x1="2589" y1="50.0" x2="2609" y2="50.0" style="stroke:#999; stroke-width:3;" />
  <line x1="2609" y1="50.0" x2="2609" y2="50.0" style="stroke:#999; stroke-width:3;" />
  <line x1="2609" y1="50.0" x2="2609" y2="50.0" style="stroke:#999; stroke-width:3;" />
  <line x1="2609" y1="50.0" x2="2629" y2="50.0" style="stroke:#999; stroke-width:3;" />
  <rect class="anc_exon" x="2629" y="35.0" width="66" height="30" style="fill:#87bcbc;fill-opacity:1.00" />
  <rect class="anc_exon" x="2695" y="35.0" width="0" height="30" style="fill:#87bcbc;fill-opacity:1.00" />
  <text style="" >
<tspan x="0" y="83.0" style="font-size:18px;" >SP XM_031965942_1.1</tspan>  </text>



<script type="text/ecmascript">
<![CDATA[
function draw_bbox(text_id)
{
    var text_elem = document.getElementById(text_id);
    var offset_px = 2;
    var offset_py = 0;
    bbox = text_elem.getBBox();
    var box = document.createElementNS(document.rootElement.namespaceURI,'rect');
    box.setAttribute('x', bbox.x - offset_px);
    box.setAttribute('y', bbox.y - offset_py);
    box.setAttribute('width', bbox.width + offset_px * 2);
    box.setAttribute('height', bbox.height + offset_py * 2);
    box.setAttribute('style','fill: white;'+'stroke: black;'+'stroke-width: 1px;');
    text_elem.insertBefore(box,text_elem.childNodes[0]);

    var svg = text_elem.parentNode;
    svg.appendChild(text_elem);
}

for (var i=1; i < 1; i++)
{
draw_bbox("Mouseover" + i);
}
]]> 
</script>
</svg>
