<svg version="1.1"
xmlns="http://www.w3.org/2000/svg"
xmlns:xlink="http://www.w3.org/1999/xlink"
width="3733" height="100" viewBox = "0 0 3733 100"
onclick="mouseclick(evt)">

<script type="text/ecmascript">

<![CDATA[
    function mouseover(evt, target) { 
    var gv = document.getElementById("globalVariable");
    var previoustarget = gv.firstChild.nodeValue;
    if (previoustarget != "none") 
    {
        	document.getElementById(gv.firstChild.nodeValue).setAttributeNS(null, "visibility", "hidden");
    }
    document.getElementById(target).setAttributeNS(null, "visibility", "visible");
    gv.firstChild.nodeValue = target;
        }

    function mouseclick(evt) { 
    var gv = document.getElementById("globalVariable");
    var previoustarget = gv.firstChild.nodeValue;
    if (previoustarget != "none") {
        	document.getElementById(gv.firstChild.nodeValue).setAttributeNS(null, "visibility", "hidden");
        }
    }
]]>
  </script>
<style type="text/css" >

<![CDATA[
    rect.anc_exon {
              stroke-width:3;
                  }

    rect.non_anc_exon {
              stroke: black; stroke-width:3; stroke-dasharray: 5,5;
                    }

    text {
              font-size: 18px;
              font-family: Courier New;
          }
                    ]]>
</style>

<defs>
    <text x="150" y="40" id="globalVariable">none</text>
</defs>

  <rect class="anc_exon" x="0" y="35.0" width="0" height="30" style="fill:#87bcbc;fill-opacity:1.00" />
  <rect class="anc_exon" x="0" y="35.0" width="68.8" height="30" style="fill:#87bcbc;fill-opacity:1.00" />
  <line x1="68.8" y1="50.0" x2="87.8" y2="50.0" style="stroke:#999; stroke-width:3;" />
  <line x1="87.8" y1="50.0" x2="87.8" y2="50.0" style="stroke:#999; stroke-width:3;" />
  <line x1="87.8" y1="50.0" x2="87.8" y2="50.0" style="stroke:#999; stroke-width:3;" />
  <line x1="87.8" y1="50.0" x2="108.0" y2="50.0" style="stroke:#999; stroke-width:3;" />
  <rect class="anc_exon" x="108" y="35.0" width="32" height="30" style="fill:#87bcbc;fill-opacity:1.00" />
  <line x1="140" y1="50.0" x2="160" y2="50.0" style="stroke:#999; stroke-width:3;" />
  <line x1="160" y1="50.0" x2="160" y2="50.0" style="stroke:#999; stroke-width:3;" />
  <line x1="160" y1="50.0" x2="160" y2="50.0" style="stroke:#999; stroke-width:3;" />
  <line x1="160" y1="50.0" x2="180" y2="50.0" style="stroke:#999; stroke-width:3;" />
  <rect class="anc_exon" x="180" y="35.0" width="95" height="30" style="fill:#87bcbc;fill-opacity:1.00" />
  <line x1="275" y1="50.0" x2="295" y2="50.0" style="stroke:#999; stroke-width:3;" />
  <line x1="295" y1="50.0" x2="295" y2="50.0" style="stroke:#999; stroke-width:3;" />
  <line x1="295" y1="50.0" x2="295" y2="50.0" style="stroke:#999; stroke-width:3;" />
  <line x1="295" y1="50.0" x2="315" y2="50.0" style="stroke:#999; stroke-width:3;" />
  <rect class="anc_exon" x="315" y="35.0" width="104" height="30" style="fill:#87bcbc;fill-opacity:1.00" />
  <line x1="419" y1="50.0" x2="439" y2="50.0" style="stroke:#999; stroke-width:3;" />
  <line x1="439" y1="50.0" x2="439" y2="50.0" style="stroke:#999; stroke-width:3;" />
  <line x1="439" y1="50.0" x2="439" y2="50.0" style="stroke:#999; stroke-width:3;" />
  <line x1="439" y1="50.0" x2="459" y2="50.0" style="stroke:#999; stroke-width:3;" />
  <rect class="anc_exon" x="459" y="35.0" width="84" height="30" style="fill:#87bcbc;fill-opacity:1.00" />
  <line x1="543" y1="50.0" x2="583" y2="50.0" style="stroke:#999; stroke-width:3;" />
  <rect class="anc_exon" x="583" y="35.0" width="89" height="30" style="fill:#87bcbc;fill-opacity:1.00" />
  <line x1="672" y1="50.0" x2="692" y2="50.0" style="stroke:#999; stroke-width:3;" />
  <line x1="692" y1="50.0" x2="692" y2="50.0" style="stroke:#999; stroke-width:3;" />
  <line x1="692" y1="50.0" x2="692" y2="50.0" style="stroke:#999; stroke-width:3;" />
  <line x1="692" y1="50.0" x2="712" y2="50.0" style="stroke:#999; stroke-width:3;" />
  <rect class="anc_exon" x="712" y="35.0" width="62" height="30" style="fill:#87bcbc;fill-opacity:1.00" />
  <line x1="774" y1="50.0" x2="794" y2="50.0" style="stroke:#999; stroke-width:3;" />
  <line x1="794" y1="50.0" x2="794" y2="50.0" style="stroke:#999; stroke-width:3;" />
  <line x1="794" y1="50.0" x2="794" y2="50.0" style="stroke:#999; stroke-width:3;" />
  <line x1="794" y1="50.0" x2="814" y2="50.0" style="stroke:#999; stroke-width:3;" />
  <rect class="anc_exon" x="814" y="35.0" width="157" height="30" style="fill:#87bcbc;fill-opacity:1.00" />
  <line x1="971" y1="50.0" x2="1011" y2="50.0" style="stroke:#999; stroke-width:3;" />
  <rect class="anc_exon" x="1011" y="35.0" width="199" height="30" style="fill:#87bcbc;fill-opacity:1.00" />
  <line x1="1210" y1="50.0" x2="1250" y2="50.0" style="stroke:#999; stroke-width:3;" />
  <rect class="anc_exon" x="1250" y="35.0" width="107" height="30" style="fill:#87bcbc;fill-opacity:1.00" />
  <line x1="1357" y1="50.0" x2="1377" y2="50.0" style="stroke:#999; stroke-width:3;" />
  <line x1="1377" y1="50.0" x2="1377" y2="50.0" style="stroke:#999; stroke-width:3;" />
  <line x1="1377" y1="50.0" x2="1377" y2="50.0" style="stroke:#999; stroke-width:3;" />
  <line x1="1377" y1="50.0" x2="1397" y2="50.0" style="stroke:#999; stroke-width:3;" />
  <rect class="anc_exon" x="1397" y="35.0" width="92" height="30" style="fill:#87bcbc;fill-opacity:1.00" />
  <line x1="1489" y1="50.0" x2="1529" y2="50.0" style="stroke:#999; stroke-width:3;" />
  <rect class="anc_exon" x="1529" y="35.0" width="50" height="30" style="fill:#87bcbc;fill-opacity:1.00" />
  <line x1="1579" y1="50.0" x2="1599" y2="50.0" style="stroke:#999; stroke-width:3;" />
  <line x1="1599" y1="50.0" x2="1599" y2="50.0" style="stroke:#999; stroke-width:3;" />
  <line x1="1599" y1="50.0" x2="1599" y2="50.0" style="stroke:#999; stroke-width:3;" />
  <line x1="1599" y1="50.0" x2="1619" y2="50.0" style="stroke:#999; stroke-width:3;" />
  <rect class="anc_exon" x="1619" y="35.0" width="765" height="30" style="fill:#87bcbc;fill-opacity:1.00" />
  <line x1="2384" y1="50.0" x2="2404" y2="50.0" style="stroke:#999; stroke-width:3;" />
  <line x1="2404" y1="50.0" x2="2404" y2="50.0" style="stroke:#999; stroke-width:3;" />
  <line x1="2404" y1="50.0" x2="2404" y2="50.0" style="stroke:#999; stroke-width:3;" />
  <line x1="2404" y1="50.0" x2="2424" y2="50.0" style="stroke:#999; stroke-width:3;" />
  <rect class="anc_exon" x="2424" y="35.0" width="470" height="30" style="fill:#87bcbc;fill-opacity:1.00" />
  <line x1="2894" y1="50.0" x2="2934" y2="50.0" style="stroke:#999; stroke-width:3;" />
  <rect class="anc_exon" x="2934" y="35.0" width="131" height="30" style="fill:#87bcbc;fill-opacity:1.00" />
  <line x1="3065" y1="50.0" x2="3085" y2="50.0" style="stroke:#999; stroke-width:3;" />
  <line x1="3085" y1="50.0" x2="3085" y2="50.0" style="stroke:#999; stroke-width:3;" />
  <line x1="3085" y1="50.0" x2="3085" y2="50.0" style="stroke:#999; stroke-width:3;" />
  <line x1="3085" y1="50.0" x2="3105" y2="50.0" style="stroke:#999; stroke-width:3;" />
  <rect class="anc_exon" x="3105" y="35.0" width="43" height="30" style="fill:#87bcbc;fill-opacity:1.00" />
  <line x1="3148" y1="50.0" x2="3188" y2="50.0" style="stroke:#999; stroke-width:3;" />
  <rect class="anc_exon" x="3188" y="35.0" width="77" height="30" style="fill:#87bcbc;fill-opacity:1.00" />
  <line x1="3265" y1="50.0" x2="3305" y2="50.0" style="stroke:#999; stroke-width:3;" />
  <rect class="anc_exon" x="3305" y="35.0" width="119" height="30" style="fill:#87bcbc;fill-opacity:1.00" />
  <line x1="3424" y1="50.0" x2="3444" y2="50.0" style="stroke:#999; stroke-width:3;" />
  <line x1="3444" y1="50.0" x2="3444" y2="50.0" style="stroke:#999; stroke-width:3;" />
  <line x1="3444" y1="50.0" x2="3444" y2="50.0" style="stroke:#999; stroke-width:3;" />
  <line x1="3444" y1="50.0" x2="3464" y2="50.0" style="stroke:#999; stroke-width:3;" />
  <rect class="anc_exon" x="3464" y="35.0" width="88" height="30" style="fill:#87bcbc;fill-opacity:1.00" />
  <line x1="3552" y1="50.0" x2="3592" y2="50.0" style="stroke:#999; stroke-width:3;" />
  <rect class="anc_exon" x="3592" y="35.0" width="105" height="30" style="fill:#87bcbc;fill-opacity:1.00" />
  <rect class="anc_exon" x="3697" y="35.0" width="0" height="30" style="fill:#87bcbc;fill-opacity:1.00" />
  <text style="" >
<tspan x="0" y="83.0" style="font-size:18px;" >SP XM_031966569_1.1</tspan>  </text>



<script type="text/ecmascript">
<![CDATA[
function draw_bbox(text_id)
{
    var text_elem = document.getElementById(text_id);
    var offset_px = 2;
    var offset_py = 0;
    bbox = text_elem.getBBox();
    var box = document.createElementNS(document.rootElement.namespaceURI,'rect');
    box.setAttribute('x', bbox.x - offset_px);
    box.setAttribute('y', bbox.y - offset_py);
    box.setAttribute('width', bbox.width + offset_px * 2);
    box.setAttribute('height', bbox.height + offset_py * 2);
    box.setAttribute('style','fill: white;'+'stroke: black;'+'stroke-width: 1px;');
    text_elem.insertBefore(box,text_elem.childNodes[0]);

    var svg = text_elem.parentNode;
    svg.appendChild(text_elem);
}

for (var i=1; i < 1; i++)
{
draw_bbox("Mouseover" + i);
}
]]> 
</script>
</svg>
