<svg version="1.1"
xmlns="http://www.w3.org/2000/svg"
xmlns:xlink="http://www.w3.org/1999/xlink"
width="5739" height="100" viewBox = "0 0 5739 100"
onclick="mouseclick(evt)">

<script type="text/ecmascript">

<![CDATA[
    function mouseover(evt, target) { 
    var gv = document.getElementById("globalVariable");
    var previoustarget = gv.firstChild.nodeValue;
    if (previoustarget != "none") 
    {
        	document.getElementById(gv.firstChild.nodeValue).setAttributeNS(null, "visibility", "hidden");
    }
    document.getElementById(target).setAttributeNS(null, "visibility", "visible");
    gv.firstChild.nodeValue = target;
        }

    function mouseclick(evt) { 
    var gv = document.getElementById("globalVariable");
    var previoustarget = gv.firstChild.nodeValue;
    if (previoustarget != "none") {
        	document.getElementById(gv.firstChild.nodeValue).setAttributeNS(null, "visibility", "hidden");
        }
    }
]]>
  </script>
<style type="text/css" >

<![CDATA[
    rect.anc_exon {
              stroke-width:3;
                  }

    rect.non_anc_exon {
              stroke: black; stroke-width:3; stroke-dasharray: 5,5;
                    }

    text {
              font-size: 18px;
              font-family: Courier New;
          }
                    ]]>
</style>

<defs>
    <text x="150" y="40" id="globalVariable">none</text>
</defs>

  <rect class="anc_exon" x="0" y="35.0" width="0" height="30" style="fill:#87bcbc;fill-opacity:1.00" />
  <rect class="anc_exon" x="0" y="35.0" width="66.4" height="30" style="fill:#87bcbc;fill-opacity:1.00" />
  <line x1="66.4" y1="50.0" x2="85.4" y2="50.0" style="stroke:#999; stroke-width:3;" />
  <line x1="85.4" y1="50.0" x2="85.4" y2="50.0" style="stroke:#999; stroke-width:3;" />
  <line x1="85.4" y1="50.0" x2="85.4" y2="50.0" style="stroke:#999; stroke-width:3;" />
  <line x1="85.4" y1="50.0" x2="106.0" y2="50.0" style="stroke:#999; stroke-width:3;" />
  <rect class="anc_exon" x="106" y="35.0" width="80" height="30" style="fill:#87bcbc;fill-opacity:1.00" />
  <line x1="186" y1="50.0" x2="206" y2="50.0" style="stroke:#999; stroke-width:3;" />
  <line x1="206" y1="50.0" x2="206" y2="50.0" style="stroke:#999; stroke-width:3;" />
  <line x1="206" y1="50.0" x2="206" y2="50.0" style="stroke:#999; stroke-width:3;" />
  <line x1="206" y1="50.0" x2="226" y2="50.0" style="stroke:#999; stroke-width:3;" />
  <rect class="anc_exon" x="226" y="35.0" width="124" height="30" style="fill:#87bcbc;fill-opacity:1.00" />
  <line x1="350" y1="50.0" x2="390" y2="50.0" style="stroke:#999; stroke-width:3;" />
  <rect class="anc_exon" x="390" y="35.0" width="101" height="30" style="fill:#87bcbc;fill-opacity:1.00" />
  <line x1="491" y1="50.0" x2="511" y2="50.0" style="stroke:#999; stroke-width:3;" />
  <line x1="511" y1="50.0" x2="511" y2="50.0" style="stroke:#999; stroke-width:3;" />
  <line x1="511" y1="50.0" x2="511" y2="50.0" style="stroke:#999; stroke-width:3;" />
  <line x1="511" y1="50.0" x2="531" y2="50.0" style="stroke:#999; stroke-width:3;" />
  <rect class="anc_exon" x="531" y="35.0" width="100" height="30" style="fill:#87bcbc;fill-opacity:1.00" />
  <line x1="631" y1="50.0" x2="671" y2="50.0" style="stroke:#999; stroke-width:3;" />
  <rect class="anc_exon" x="671" y="35.0" width="31" height="30" style="fill:#87bcbc;fill-opacity:1.00" />
  <line x1="702" y1="50.0" x2="742" y2="50.0" style="stroke:#999; stroke-width:3;" />
  <rect class="anc_exon" x="742" y="35.0" width="129" height="30" style="fill:#87bcbc;fill-opacity:1.00" />
  <line x1="871" y1="50.0" x2="911" y2="50.0" style="stroke:#999; stroke-width:3;" />
  <rect class="anc_exon" x="911" y="35.0" width="86" height="30" style="fill:#87bcbc;fill-opacity:1.00" />
  <line x1="997" y1="50.0" x2="1017" y2="50.0" style="stroke:#999; stroke-width:3;" />
  <line x1="1017" y1="50.0" x2="1017" y2="50.0" style="stroke:#999; stroke-width:3;" />
  <line x1="1017" y1="50.0" x2="1017" y2="50.0" style="stroke:#999; stroke-width:3;" />
  <line x1="1017" y1="50.0" x2="1037" y2="50.0" style="stroke:#999; stroke-width:3;" />
  <rect class="anc_exon" x="1037" y="35.0" width="76" height="30" style="fill:#87bcbc;fill-opacity:1.00" />
  <line x1="1113" y1="50.0" x2="1153" y2="50.0" style="stroke:#999; stroke-width:3;" />
  <rect class="anc_exon" x="1153" y="35.0" width="100" height="30" style="fill:#87bcbc;fill-opacity:1.00" />
  <line x1="1253" y1="50.0" x2="1293" y2="50.0" style="stroke:#999; stroke-width:3;" />
  <rect class="anc_exon" x="1293" y="35.0" width="117" height="30" style="fill:#87bcbc;fill-opacity:1.00" />
  <line x1="1410" y1="50.0" x2="1450" y2="50.0" style="stroke:#999; stroke-width:3;" />
  <rect class="anc_exon" x="1450" y="35.0" width="124" height="30" style="fill:#87bcbc;fill-opacity:1.00" />
  <line x1="1574" y1="50.0" x2="1614" y2="50.0" style="stroke:#999; stroke-width:3;" />
  <rect class="anc_exon" x="1614" y="35.0" width="78" height="30" style="fill:#87bcbc;fill-opacity:1.00" />
  <line x1="1692" y1="50.0" x2="1732" y2="50.0" style="stroke:#999; stroke-width:3;" />
  <rect class="anc_exon" x="1732" y="35.0" width="138" height="30" style="fill:#87bcbc;fill-opacity:1.00" />
  <line x1="1870" y1="50.0" x2="1890" y2="50.0" style="stroke:#999; stroke-width:3;" />
  <line x1="1890" y1="50.0" x2="1890" y2="50.0" style="stroke:#999; stroke-width:3;" />
  <line x1="1890" y1="50.0" x2="1890" y2="50.0" style="stroke:#999; stroke-width:3;" />
  <line x1="1890" y1="50.0" x2="1910" y2="50.0" style="stroke:#999; stroke-width:3;" />
  <rect class="anc_exon" x="1910" y="35.0" width="143" height="30" style="fill:#87bcbc;fill-opacity:1.00" />
  <line x1="2053" y1="50.0" x2="2093" y2="50.0" style="stroke:#999; stroke-width:3;" />
  <rect class="anc_exon" x="2093" y="35.0" width="111" height="30" style="fill:#87bcbc;fill-opacity:1.00" />
  <line x1="2204" y1="50.0" x2="2244" y2="50.0" style="stroke:#999; stroke-width:3;" />
  <rect class="anc_exon" x="2244" y="35.0" width="155" height="30" style="fill:#87bcbc;fill-opacity:1.00" />
  <line x1="2399" y1="50.0" x2="2439" y2="50.0" style="stroke:#999; stroke-width:3;" />
  <rect class="anc_exon" x="2439" y="35.0" width="120" height="30" style="fill:#87bcbc;fill-opacity:1.00" />
  <line x1="2559" y1="50.0" x2="2599" y2="50.0" style="stroke:#999; stroke-width:3;" />
  <rect class="anc_exon" x="2599" y="35.0" width="67" height="30" style="fill:#87bcbc;fill-opacity:1.00" />
  <line x1="2666" y1="50.0" x2="2706" y2="50.0" style="stroke:#999; stroke-width:3;" />
  <rect class="anc_exon" x="2706" y="35.0" width="88" height="30" style="fill:#87bcbc;fill-opacity:1.00" />
  <line x1="2794" y1="50.0" x2="2834" y2="50.0" style="stroke:#999; stroke-width:3;" />
  <rect class="anc_exon" x="2834" y="35.0" width="74" height="30" style="fill:#87bcbc;fill-opacity:1.00" />
  <line x1="2908" y1="50.0" x2="2948" y2="50.0" style="stroke:#999; stroke-width:3;" />
  <rect class="anc_exon" x="2948" y="35.0" width="2755" height="30" style="fill:#878787;fill-opacity:1.00" />
  <rect class="anc_exon" x="5703" y="35.0" width="0" height="30" style="fill:#87bcbc;fill-opacity:1.00" />
  <text style="" >
<tspan x="0" y="83.0" style="font-size:18px;" >SP XM_003768512_4.1</tspan>  </text>



<script type="text/ecmascript">
<![CDATA[
function draw_bbox(text_id)
{
    var text_elem = document.getElementById(text_id);
    var offset_px = 2;
    var offset_py = 0;
    bbox = text_elem.getBBox();
    var box = document.createElementNS(document.rootElement.namespaceURI,'rect');
    box.setAttribute('x', bbox.x - offset_px);
    box.setAttribute('y', bbox.y - offset_py);
    box.setAttribute('width', bbox.width + offset_px * 2);
    box.setAttribute('height', bbox.height + offset_py * 2);
    box.setAttribute('style','fill: white;'+'stroke: black;'+'stroke-width: 1px;');
    text_elem.insertBefore(box,text_elem.childNodes[0]);

    var svg = text_elem.parentNode;
    svg.appendChild(text_elem);
}

for (var i=1; i < 1; i++)
{
draw_bbox("Mouseover" + i);
}
]]> 
</script>
</svg>
