<svg version="1.1"
xmlns="http://www.w3.org/2000/svg"
xmlns:xlink="http://www.w3.org/1999/xlink"
width="5210" height="100" viewBox = "0 0 5210 100"
onclick="mouseclick(evt)">

<script type="text/ecmascript">

<![CDATA[
    function mouseover(evt, target) { 
    var gv = document.getElementById("globalVariable");
    var previoustarget = gv.firstChild.nodeValue;
    if (previoustarget != "none") 
    {
        	document.getElementById(gv.firstChild.nodeValue).setAttributeNS(null, "visibility", "hidden");
    }
    document.getElementById(target).setAttributeNS(null, "visibility", "visible");
    gv.firstChild.nodeValue = target;
        }

    function mouseclick(evt) { 
    var gv = document.getElementById("globalVariable");
    var previoustarget = gv.firstChild.nodeValue;
    if (previoustarget != "none") {
        	document.getElementById(gv.firstChild.nodeValue).setAttributeNS(null, "visibility", "hidden");
        }
    }
]]>
  </script>
<style type="text/css" >

<![CDATA[
    rect.anc_exon {
              stroke-width:3;
                  }

    rect.non_anc_exon {
              stroke: black; stroke-width:3; stroke-dasharray: 5,5;
                    }

    text {
              font-size: 18px;
              font-family: Courier New;
          }
                    ]]>
</style>

<defs>
    <text x="150" y="40" id="globalVariable">none</text>
</defs>

  <rect class="anc_exon" x="0" y="35.0" width="0" height="30" style="fill:#87bcbc;fill-opacity:1.00" />
  <rect class="anc_exon" x="0" y="35.0" width="113.60000000000001" height="30" style="fill:#87bcbc;fill-opacity:1.00" />
  <line x1="113.60000000000001" y1="50.0" x2="153.0" y2="50.0" style="stroke:#999; stroke-width:3;" />
  <rect class="anc_exon" x="153" y="35.0" width="1397" height="30" style="fill:#87bcbc;fill-opacity:1.00" />
  <line x1="1550" y1="50.0" x2="1570" y2="50.0" style="stroke:#999; stroke-width:3;" />
  <line x1="1570" y1="50.0" x2="1570" y2="50.0" style="stroke:#999; stroke-width:3;" />
  <line x1="1570" y1="50.0" x2="1570" y2="50.0" style="stroke:#999; stroke-width:3;" />
  <line x1="1570" y1="50.0" x2="1590" y2="50.0" style="stroke:#999; stroke-width:3;" />
  <rect class="anc_exon" x="1590" y="35.0" width="248" height="30" style="fill:#87bcbc;fill-opacity:1.00" />
  <line x1="1838" y1="50.0" x2="1858" y2="50.0" style="stroke:#999; stroke-width:3;" />
  <line x1="1858" y1="50.0" x2="1858" y2="50.0" style="stroke:#999; stroke-width:3;" />
  <line x1="1858" y1="50.0" x2="1858" y2="50.0" style="stroke:#999; stroke-width:3;" />
  <line x1="1858" y1="50.0" x2="1878" y2="50.0" style="stroke:#999; stroke-width:3;" />
  <rect class="anc_exon" x="1878" y="35.0" width="147" height="30" style="fill:#87bcbc;fill-opacity:1.00" />
  <line x1="2025" y1="50.0" x2="2045" y2="50.0" style="stroke:#999; stroke-width:3;" />
  <line x1="2045" y1="50.0" x2="2045" y2="50.0" style="stroke:#999; stroke-width:3;" />
  <line x1="2045" y1="50.0" x2="2045" y2="50.0" style="stroke:#999; stroke-width:3;" />
  <line x1="2045" y1="50.0" x2="2065" y2="50.0" style="stroke:#999; stroke-width:3;" />
  <rect class="anc_exon" x="2065" y="35.0" width="120" height="30" style="fill:#87bcbc;fill-opacity:1.00" />
  <line x1="2185" y1="50.0" x2="2225" y2="50.0" style="stroke:#999; stroke-width:3;" />
  <rect class="anc_exon" x="2225" y="35.0" width="125" height="30" style="fill:#87bcbc;fill-opacity:1.00" />
  <line x1="2350" y1="50.0" x2="2370" y2="50.0" style="stroke:#999; stroke-width:3;" />
  <line x1="2370" y1="50.0" x2="2370" y2="50.0" style="stroke:#999; stroke-width:3;" />
  <line x1="2370" y1="50.0" x2="2370" y2="50.0" style="stroke:#999; stroke-width:3;" />
  <line x1="2370" y1="50.0" x2="2390" y2="50.0" style="stroke:#999; stroke-width:3;" />
  <rect class="anc_exon" x="2390" y="35.0" width="93" height="30" style="fill:#87bcbc;fill-opacity:1.00" />
  <line x1="2483" y1="50.0" x2="2523" y2="50.0" style="stroke:#999; stroke-width:3;" />
  <rect class="anc_exon" x="2523" y="35.0" width="105" height="30" style="fill:#87bcbc;fill-opacity:1.00" />
  <line x1="2628" y1="50.0" x2="2668" y2="50.0" style="stroke:#999; stroke-width:3;" />
  <rect class="anc_exon" x="2668" y="35.0" width="104" height="30" style="fill:#87bcbc;fill-opacity:1.00" />
  <line x1="2772" y1="50.0" x2="2812" y2="50.0" style="stroke:#999; stroke-width:3;" />
  <rect class="anc_exon" x="2812" y="35.0" width="156" height="30" style="fill:#87bcbc;fill-opacity:1.00" />
  <line x1="2968" y1="50.0" x2="3008" y2="50.0" style="stroke:#999; stroke-width:3;" />
  <rect class="anc_exon" x="3008" y="35.0" width="118" height="30" style="fill:#87bcbc;fill-opacity:1.00" />
  <line x1="3126" y1="50.0" x2="3146" y2="50.0" style="stroke:#999; stroke-width:3;" />
  <line x1="3146" y1="50.0" x2="3146" y2="50.0" style="stroke:#999; stroke-width:3;" />
  <line x1="3146" y1="50.0" x2="3146" y2="50.0" style="stroke:#999; stroke-width:3;" />
  <line x1="3146" y1="50.0" x2="3166" y2="50.0" style="stroke:#999; stroke-width:3;" />
  <rect class="anc_exon" x="3166" y="35.0" width="72" height="30" style="fill:#87bcbc;fill-opacity:1.00" />
  <line x1="3238" y1="50.0" x2="3258" y2="50.0" style="stroke:#999; stroke-width:3;" />
  <line x1="3258" y1="50.0" x2="3258" y2="50.0" style="stroke:#999; stroke-width:3;" />
  <line x1="3258" y1="50.0" x2="3258" y2="50.0" style="stroke:#999; stroke-width:3;" />
  <line x1="3258" y1="50.0" x2="3278" y2="50.0" style="stroke:#999; stroke-width:3;" />
  <rect class="anc_exon" x="3278" y="35.0" width="156" height="30" style="fill:#87bcbc;fill-opacity:1.00" />
  <line x1="3434" y1="50.0" x2="3474" y2="50.0" style="stroke:#999; stroke-width:3;" />
  <rect class="anc_exon" x="3474" y="35.0" width="1700" height="30" style="fill:#87bcbc;fill-opacity:1.00" />
  <rect class="anc_exon" x="5174" y="35.0" width="0" height="30" style="fill:#87bcbc;fill-opacity:1.00" />
  <text style="" >
<tspan x="0" y="83.0" style="font-size:18px;" >SP XM_031964679_1.1</tspan>  </text>



<script type="text/ecmascript">
<![CDATA[
function draw_bbox(text_id)
{
    var text_elem = document.getElementById(text_id);
    var offset_px = 2;
    var offset_py = 0;
    bbox = text_elem.getBBox();
    var box = document.createElementNS(document.rootElement.namespaceURI,'rect');
    box.setAttribute('x', bbox.x - offset_px);
    box.setAttribute('y', bbox.y - offset_py);
    box.setAttribute('width', bbox.width + offset_px * 2);
    box.setAttribute('height', bbox.height + offset_py * 2);
    box.setAttribute('style','fill: white;'+'stroke: black;'+'stroke-width: 1px;');
    text_elem.insertBefore(box,text_elem.childNodes[0]);

    var svg = text_elem.parentNode;
    svg.appendChild(text_elem);
}

for (var i=1; i < 1; i++)
{
draw_bbox("Mouseover" + i);
}
]]> 
</script>
</svg>
