<svg version="1.1"
xmlns="http://www.w3.org/2000/svg"
xmlns:xlink="http://www.w3.org/1999/xlink"
width="2166" height="100" viewBox = "0 0 2166 100"
onclick="mouseclick(evt)">

<script type="text/ecmascript">

<![CDATA[
    function mouseover(evt, target) { 
    var gv = document.getElementById("globalVariable");
    var previoustarget = gv.firstChild.nodeValue;
    if (previoustarget != "none") 
    {
        	document.getElementById(gv.firstChild.nodeValue).setAttributeNS(null, "visibility", "hidden");
    }
    document.getElementById(target).setAttributeNS(null, "visibility", "visible");
    gv.firstChild.nodeValue = target;
        }

    function mouseclick(evt) { 
    var gv = document.getElementById("globalVariable");
    var previoustarget = gv.firstChild.nodeValue;
    if (previoustarget != "none") {
        	document.getElementById(gv.firstChild.nodeValue).setAttributeNS(null, "visibility", "hidden");
        }
    }
]]>
  </script>
<style type="text/css" >

<![CDATA[
    rect.anc_exon {
              stroke-width:3;
                  }

    rect.non_anc_exon {
              stroke: black; stroke-width:3; stroke-dasharray: 5,5;
                    }

    text {
              font-size: 18px;
              font-family: Courier New;
          }
                    ]]>
</style>

<defs>
    <text x="150" y="40" id="globalVariable">none</text>
</defs>

  <rect class="anc_exon" x="0" y="35.0" width="0" height="30" style="fill:#87bcbc;fill-opacity:1.00" />
  <rect class="anc_exon" x="0" y="35.0" width="76.0" height="30" style="fill:#87bcbc;fill-opacity:1.00" />
  <line x1="76.0" y1="50.0" x2="96.0" y2="50.0" style="stroke:#999; stroke-width:3;" />
  <line x1="96.0" y1="50.0" x2="96.0" y2="50.0" style="stroke:#999; stroke-width:3;" />
  <line x1="96.0" y1="50.0" x2="96.0" y2="50.0" style="stroke:#999; stroke-width:3;" />
  <line x1="96.0" y1="50.0" x2="116.0" y2="50.0" style="stroke:#999; stroke-width:3;" />
  <rect class="anc_exon" x="116" y="35.0" width="32" height="30" style="fill:#87bcbc;fill-opacity:1.00" />
  <line x1="148" y1="50.0" x2="168" y2="50.0" style="stroke:#999; stroke-width:3;" />
  <line x1="168" y1="50.0" x2="168" y2="50.0" style="stroke:#999; stroke-width:3;" />
  <line x1="168" y1="50.0" x2="168" y2="50.0" style="stroke:#999; stroke-width:3;" />
  <line x1="168" y1="50.0" x2="188" y2="50.0" style="stroke:#999; stroke-width:3;" />
  <rect class="anc_exon" x="188" y="35.0" width="37" height="30" style="fill:#87bcbc;fill-opacity:1.00" />
  <line x1="225" y1="50.0" x2="245" y2="50.0" style="stroke:#999; stroke-width:3;" />
  <line x1="245" y1="50.0" x2="245" y2="50.0" style="stroke:#999; stroke-width:3;" />
  <line x1="245" y1="50.0" x2="245" y2="50.0" style="stroke:#999; stroke-width:3;" />
  <line x1="245" y1="50.0" x2="265" y2="50.0" style="stroke:#999; stroke-width:3;" />
  <rect class="anc_exon" x="265" y="35.0" width="83" height="30" style="fill:#87bcbc;fill-opacity:1.00" />
  <line x1="348" y1="50.0" x2="368" y2="50.0" style="stroke:#999; stroke-width:3;" />
  <line x1="368" y1="50.0" x2="368" y2="50.0" style="stroke:#999; stroke-width:3;" />
  <line x1="368" y1="50.0" x2="368" y2="50.0" style="stroke:#999; stroke-width:3;" />
  <line x1="368" y1="50.0" x2="388" y2="50.0" style="stroke:#999; stroke-width:3;" />
  <rect class="anc_exon" x="388" y="35.0" width="32" height="30" style="fill:#87bcbc;fill-opacity:1.00" />
  <line x1="420" y1="50.0" x2="440" y2="50.0" style="stroke:#999; stroke-width:3;" />
  <line x1="440" y1="50.0" x2="440" y2="50.0" style="stroke:#999; stroke-width:3;" />
  <line x1="440" y1="50.0" x2="440" y2="50.0" style="stroke:#999; stroke-width:3;" />
  <line x1="440" y1="50.0" x2="460" y2="50.0" style="stroke:#999; stroke-width:3;" />
  <rect class="anc_exon" x="460" y="35.0" width="61" height="30" style="fill:#87bcbc;fill-opacity:1.00" />
  <line x1="521" y1="50.0" x2="541" y2="50.0" style="stroke:#999; stroke-width:3;" />
  <line x1="541" y1="50.0" x2="541" y2="50.0" style="stroke:#999; stroke-width:3;" />
  <line x1="541" y1="50.0" x2="541" y2="50.0" style="stroke:#999; stroke-width:3;" />
  <line x1="541" y1="50.0" x2="561" y2="50.0" style="stroke:#999; stroke-width:3;" />
  <rect class="anc_exon" x="561" y="35.0" width="51" height="30" style="fill:#87bcbc;fill-opacity:1.00" />
  <line x1="612" y1="50.0" x2="632" y2="50.0" style="stroke:#999; stroke-width:3;" />
  <line x1="632" y1="50.0" x2="632" y2="50.0" style="stroke:#999; stroke-width:3;" />
  <line x1="632" y1="50.0" x2="632" y2="50.0" style="stroke:#999; stroke-width:3;" />
  <line x1="632" y1="50.0" x2="652" y2="50.0" style="stroke:#999; stroke-width:3;" />
  <rect class="anc_exon" x="652" y="35.0" width="83" height="30" style="fill:#87bcbc;fill-opacity:1.00" />
  <line x1="735" y1="50.0" x2="755" y2="50.0" style="stroke:#999; stroke-width:3;" />
  <line x1="755" y1="50.0" x2="755" y2="50.0" style="stroke:#999; stroke-width:3;" />
  <line x1="755" y1="50.0" x2="755" y2="50.0" style="stroke:#999; stroke-width:3;" />
  <line x1="755" y1="50.0" x2="775" y2="50.0" style="stroke:#999; stroke-width:3;" />
  <rect class="anc_exon" x="775" y="35.0" width="84" height="30" style="fill:#87bcbc;fill-opacity:1.00" />
  <line x1="859" y1="50.0" x2="879" y2="50.0" style="stroke:#999; stroke-width:3;" />
  <line x1="879" y1="50.0" x2="879" y2="50.0" style="stroke:#999; stroke-width:3;" />
  <line x1="879" y1="50.0" x2="879" y2="50.0" style="stroke:#999; stroke-width:3;" />
  <line x1="879" y1="50.0" x2="899" y2="50.0" style="stroke:#999; stroke-width:3;" />
  <rect class="anc_exon" x="899" y="35.0" width="33" height="30" style="fill:#87bcbc;fill-opacity:1.00" />
  <line x1="932" y1="50.0" x2="952" y2="50.0" style="stroke:#999; stroke-width:3;" />
  <line x1="952" y1="50.0" x2="952" y2="50.0" style="stroke:#999; stroke-width:3;" />
  <line x1="952" y1="50.0" x2="952" y2="50.0" style="stroke:#999; stroke-width:3;" />
  <line x1="952" y1="50.0" x2="972" y2="50.0" style="stroke:#999; stroke-width:3;" />
  <rect class="anc_exon" x="972" y="35.0" width="60" height="30" style="fill:#87bcbc;fill-opacity:1.00" />
  <line x1="1032" y1="50.0" x2="1052" y2="50.0" style="stroke:#999; stroke-width:3;" />
  <line x1="1052" y1="50.0" x2="1052" y2="50.0" style="stroke:#999; stroke-width:3;" />
  <line x1="1052" y1="50.0" x2="1052" y2="50.0" style="stroke:#999; stroke-width:3;" />
  <line x1="1052" y1="50.0" x2="1072" y2="50.0" style="stroke:#999; stroke-width:3;" />
  <rect class="anc_exon" x="1072" y="35.0" width="43" height="30" style="fill:#87bcbc;fill-opacity:1.00" />
  <line x1="1115" y1="50.0" x2="1135" y2="50.0" style="stroke:#999; stroke-width:3;" />
  <line x1="1135" y1="50.0" x2="1135" y2="50.0" style="stroke:#999; stroke-width:3;" />
  <line x1="1135" y1="50.0" x2="1135" y2="50.0" style="stroke:#999; stroke-width:3;" />
  <line x1="1135" y1="50.0" x2="1155" y2="50.0" style="stroke:#999; stroke-width:3;" />
  <rect class="anc_exon" x="1155" y="35.0" width="49" height="30" style="fill:#87bcbc;fill-opacity:1.00" />
  <line x1="1204" y1="50.0" x2="1224" y2="50.0" style="stroke:#999; stroke-width:3;" />
  <line x1="1224" y1="50.0" x2="1224" y2="50.0" style="stroke:#999; stroke-width:3;" />
  <line x1="1224" y1="50.0" x2="1224" y2="50.0" style="stroke:#999; stroke-width:3;" />
  <line x1="1224" y1="50.0" x2="1244" y2="50.0" style="stroke:#999; stroke-width:3;" />
  <rect class="anc_exon" x="1244" y="35.0" width="37" height="30" style="fill:#87bcbc;fill-opacity:1.00" />
  <line x1="1281" y1="50.0" x2="1301" y2="50.0" style="stroke:#999; stroke-width:3;" />
  <line x1="1301" y1="50.0" x2="1301" y2="50.0" style="stroke:#999; stroke-width:3;" />
  <line x1="1301" y1="50.0" x2="1301" y2="50.0" style="stroke:#999; stroke-width:3;" />
  <line x1="1301" y1="50.0" x2="1321" y2="50.0" style="stroke:#999; stroke-width:3;" />
  <rect class="anc_exon" x="1321" y="35.0" width="145" height="30" style="fill:#87bcbc;fill-opacity:1.00" />
  <line x1="1466" y1="50.0" x2="1486" y2="50.0" style="stroke:#999; stroke-width:3;" />
  <line x1="1486" y1="50.0" x2="1486" y2="50.0" style="stroke:#999; stroke-width:3;" />
  <line x1="1486" y1="50.0" x2="1486" y2="50.0" style="stroke:#999; stroke-width:3;" />
  <line x1="1486" y1="50.0" x2="1506" y2="50.0" style="stroke:#999; stroke-width:3;" />
  <rect class="anc_exon" x="1506" y="35.0" width="102" height="30" style="fill:#87bcbc;fill-opacity:1.00" />
  <line x1="1608" y1="50.0" x2="1648" y2="50.0" style="stroke:#999; stroke-width:3;" />
  <rect class="anc_exon" x="1648" y="35.0" width="82" height="30" style="fill:#87bcbc;fill-opacity:1.00" />
  <line x1="1730" y1="50.0" x2="1770" y2="50.0" style="stroke:#999; stroke-width:3;" />
  <rect class="anc_exon" x="1770" y="35.0" width="46" height="30" style="fill:#87bcbc;fill-opacity:1.00" />
  <line x1="1816" y1="50.0" x2="1836" y2="50.0" style="stroke:#999; stroke-width:3;" />
  <line x1="1836" y1="50.0" x2="1836" y2="50.0" style="stroke:#999; stroke-width:3;" />
  <line x1="1836" y1="50.0" x2="1836" y2="50.0" style="stroke:#999; stroke-width:3;" />
  <line x1="1836" y1="50.0" x2="1856" y2="50.0" style="stroke:#999; stroke-width:3;" />
  <rect class="anc_exon" x="1856" y="35.0" width="59" height="30" style="fill:#87bcbc;fill-opacity:1.00" />
  <line x1="1915" y1="50.0" x2="1955" y2="50.0" style="stroke:#999; stroke-width:3;" />
  <rect class="anc_exon" x="1955" y="35.0" width="175" height="30" style="fill:#87bcbc;fill-opacity:1.00" />
  <rect class="anc_exon" x="2130" y="35.0" width="0" height="30" style="fill:#87bcbc;fill-opacity:1.00" />
  <text style="" >
<tspan x="0" y="83.0" style="font-size:18px;" >SP XM_031964966_1.1</tspan>  </text>



<script type="text/ecmascript">
<![CDATA[
function draw_bbox(text_id)
{
    var text_elem = document.getElementById(text_id);
    var offset_px = 2;
    var offset_py = 0;
    bbox = text_elem.getBBox();
    var box = document.createElementNS(document.rootElement.namespaceURI,'rect');
    box.setAttribute('x', bbox.x - offset_px);
    box.setAttribute('y', bbox.y - offset_py);
    box.setAttribute('width', bbox.width + offset_px * 2);
    box.setAttribute('height', bbox.height + offset_py * 2);
    box.setAttribute('style','fill: white;'+'stroke: black;'+'stroke-width: 1px;');
    text_elem.insertBefore(box,text_elem.childNodes[0]);

    var svg = text_elem.parentNode;
    svg.appendChild(text_elem);
}

for (var i=1; i < 1; i++)
{
draw_bbox("Mouseover" + i);
}
]]> 
</script>
</svg>
