<svg version="1.1"
xmlns="http://www.w3.org/2000/svg"
xmlns:xlink="http://www.w3.org/1999/xlink"
width="5133" height="100" viewBox = "0 0 5133 100"
onclick="mouseclick(evt)">

<script type="text/ecmascript">

<![CDATA[
    function mouseover(evt, target) { 
    var gv = document.getElementById("globalVariable");
    var previoustarget = gv.firstChild.nodeValue;
    if (previoustarget != "none") 
    {
        	document.getElementById(gv.firstChild.nodeValue).setAttributeNS(null, "visibility", "hidden");
    }
    document.getElementById(target).setAttributeNS(null, "visibility", "visible");
    gv.firstChild.nodeValue = target;
        }

    function mouseclick(evt) { 
    var gv = document.getElementById("globalVariable");
    var previoustarget = gv.firstChild.nodeValue;
    if (previoustarget != "none") {
        	document.getElementById(gv.firstChild.nodeValue).setAttributeNS(null, "visibility", "hidden");
        }
    }
]]>
  </script>
<style type="text/css" >

<![CDATA[
    rect.anc_exon {
              stroke-width:3;
                  }

    rect.non_anc_exon {
              stroke: black; stroke-width:3; stroke-dasharray: 5,5;
                    }

    text {
              font-size: 18px;
              font-family: Courier New;
          }
                    ]]>
</style>

<defs>
    <text x="150" y="40" id="globalVariable">none</text>
</defs>

  <rect class="anc_exon" x="0" y="35.0" width="0" height="30" style="fill:#87bcbc;fill-opacity:1.00" />
  <rect class="anc_exon" x="0" y="35.0" width="957.6" height="30" style="fill:#87bcbc;fill-opacity:1.00" />
  <line x1="957.6" y1="50.0" x2="976.6" y2="50.0" style="stroke:#999; stroke-width:3;" />
  <line x1="976.6" y1="50.0" x2="976.6" y2="50.0" style="stroke:#999; stroke-width:3;" />
  <line x1="976.6" y1="50.0" x2="976.6" y2="50.0" style="stroke:#999; stroke-width:3;" />
  <line x1="976.6" y1="50.0" x2="997.0" y2="50.0" style="stroke:#999; stroke-width:3;" />
  <rect class="anc_exon" x="997" y="35.0" width="348" height="30" style="fill:#87bcbc;fill-opacity:1.00" />
  <line x1="1345" y1="50.0" x2="1365" y2="50.0" style="stroke:#999; stroke-width:3;" />
  <line x1="1365" y1="50.0" x2="1365" y2="50.0" style="stroke:#999; stroke-width:3;" />
  <line x1="1365" y1="50.0" x2="1365" y2="50.0" style="stroke:#999; stroke-width:3;" />
  <line x1="1365" y1="50.0" x2="1385" y2="50.0" style="stroke:#999; stroke-width:3;" />
  <rect class="anc_exon" x="1385" y="35.0" width="138" height="30" style="fill:#87bcbc;fill-opacity:1.00" />
  <line x1="1523" y1="50.0" x2="1563" y2="50.0" style="stroke:#999; stroke-width:3;" />
  <rect class="anc_exon" x="1563" y="35.0" width="180" height="30" style="fill:#87bcbc;fill-opacity:1.00" />
  <line x1="1743" y1="50.0" x2="1763" y2="50.0" style="stroke:#999; stroke-width:3;" />
  <line x1="1763" y1="50.0" x2="1763" y2="50.0" style="stroke:#999; stroke-width:3;" />
  <line x1="1763" y1="50.0" x2="1763" y2="50.0" style="stroke:#999; stroke-width:3;" />
  <line x1="1763" y1="50.0" x2="1783" y2="50.0" style="stroke:#999; stroke-width:3;" />
  <rect class="anc_exon" x="1783" y="35.0" width="148" height="30" style="fill:#87bcbc;fill-opacity:1.00" />
  <line x1="1931" y1="50.0" x2="1971" y2="50.0" style="stroke:#999; stroke-width:3;" />
  <rect class="anc_exon" x="1971" y="35.0" width="117" height="30" style="fill:#87bcbc;fill-opacity:1.00" />
  <line x1="2088" y1="50.0" x2="2128" y2="50.0" style="stroke:#999; stroke-width:3;" />
  <rect class="anc_exon" x="2128" y="35.0" width="57" height="30" style="fill:#87bcbc;fill-opacity:1.00" />
  <line x1="2185" y1="50.0" x2="2205" y2="50.0" style="stroke:#999; stroke-width:3;" />
  <line x1="2205" y1="50.0" x2="2205" y2="50.0" style="stroke:#999; stroke-width:3;" />
  <line x1="2205" y1="50.0" x2="2205" y2="50.0" style="stroke:#999; stroke-width:3;" />
  <line x1="2205" y1="50.0" x2="2225" y2="50.0" style="stroke:#999; stroke-width:3;" />
  <rect class="anc_exon" x="2225" y="35.0" width="129" height="30" style="fill:#87bcbc;fill-opacity:1.00" />
  <line x1="2354" y1="50.0" x2="2374" y2="50.0" style="stroke:#999; stroke-width:3;" />
  <line x1="2374" y1="50.0" x2="2374" y2="50.0" style="stroke:#999; stroke-width:3;" />
  <line x1="2374" y1="50.0" x2="2374" y2="50.0" style="stroke:#999; stroke-width:3;" />
  <line x1="2374" y1="50.0" x2="2394" y2="50.0" style="stroke:#999; stroke-width:3;" />
  <rect class="anc_exon" x="2394" y="35.0" width="84" height="30" style="fill:#87bcbc;fill-opacity:1.00" />
  <line x1="2478" y1="50.0" x2="2518" y2="50.0" style="stroke:#999; stroke-width:3;" />
  <rect class="anc_exon" x="2518" y="35.0" width="63" height="30" style="fill:#87bcbc;fill-opacity:1.00" />
  <line x1="2581" y1="50.0" x2="2601" y2="50.0" style="stroke:#999; stroke-width:3;" />
  <line x1="2601" y1="50.0" x2="2601" y2="50.0" style="stroke:#999; stroke-width:3;" />
  <line x1="2601" y1="50.0" x2="2601" y2="50.0" style="stroke:#999; stroke-width:3;" />
  <line x1="2601" y1="50.0" x2="2621" y2="50.0" style="stroke:#999; stroke-width:3;" />
  <rect class="anc_exon" x="2621" y="35.0" width="74" height="30" style="fill:#87bcbc;fill-opacity:1.00" />
  <line x1="2695" y1="50.0" x2="2735" y2="50.0" style="stroke:#999; stroke-width:3;" />
  <rect class="anc_exon" x="2735" y="35.0" width="208" height="30" style="fill:#87bcbc;fill-opacity:1.00" />
  <line x1="2943" y1="50.0" x2="2963" y2="50.0" style="stroke:#999; stroke-width:3;" />
  <line x1="2963" y1="50.0" x2="2963" y2="50.0" style="stroke:#999; stroke-width:3;" />
  <line x1="2963" y1="50.0" x2="2963" y2="50.0" style="stroke:#999; stroke-width:3;" />
  <line x1="2963" y1="50.0" x2="2983" y2="50.0" style="stroke:#999; stroke-width:3;" />
  <rect class="anc_exon" x="2983" y="35.0" width="83" height="30" style="fill:#87bcbc;fill-opacity:1.00" />
  <line x1="3066" y1="50.0" x2="3086" y2="50.0" style="stroke:#999; stroke-width:3;" />
  <line x1="3086" y1="50.0" x2="3086" y2="50.0" style="stroke:#999; stroke-width:3;" />
  <line x1="3086" y1="50.0" x2="3086" y2="50.0" style="stroke:#999; stroke-width:3;" />
  <line x1="3086" y1="50.0" x2="3106" y2="50.0" style="stroke:#999; stroke-width:3;" />
  <rect class="anc_exon" x="3106" y="35.0" width="148" height="30" style="fill:#87bcbc;fill-opacity:1.00" />
  <line x1="3254" y1="50.0" x2="3274" y2="50.0" style="stroke:#999; stroke-width:3;" />
  <line x1="3274" y1="50.0" x2="3274" y2="50.0" style="stroke:#999; stroke-width:3;" />
  <line x1="3274" y1="50.0" x2="3274" y2="50.0" style="stroke:#999; stroke-width:3;" />
  <line x1="3274" y1="50.0" x2="3294" y2="50.0" style="stroke:#999; stroke-width:3;" />
  <rect class="anc_exon" x="3294" y="35.0" width="55" height="30" style="fill:#87bcbc;fill-opacity:1.00" />
  <line x1="3349" y1="50.0" x2="3389" y2="50.0" style="stroke:#999; stroke-width:3;" />
  <rect class="anc_exon" x="3389" y="35.0" width="100" height="30" style="fill:#87bcbc;fill-opacity:1.00" />
  <line x1="3489" y1="50.0" x2="3529" y2="50.0" style="stroke:#999; stroke-width:3;" />
  <rect class="anc_exon" x="3529" y="35.0" width="87" height="30" style="fill:#87bcbc;fill-opacity:1.00" />
  <line x1="3616" y1="50.0" x2="3656" y2="50.0" style="stroke:#999; stroke-width:3;" />
  <rect class="anc_exon" x="3656" y="35.0" width="144" height="30" style="fill:#87bcbc;fill-opacity:1.00" />
  <line x1="3800" y1="50.0" x2="3840" y2="50.0" style="stroke:#999; stroke-width:3;" />
  <rect class="anc_exon" x="3840" y="35.0" width="95" height="30" style="fill:#87bcbc;fill-opacity:1.00" />
  <line x1="3935" y1="50.0" x2="3955" y2="50.0" style="stroke:#999; stroke-width:3;" />
  <line x1="3955" y1="50.0" x2="3955" y2="50.0" style="stroke:#999; stroke-width:3;" />
  <line x1="3955" y1="50.0" x2="3955" y2="50.0" style="stroke:#999; stroke-width:3;" />
  <line x1="3955" y1="50.0" x2="3975" y2="50.0" style="stroke:#999; stroke-width:3;" />
  <rect class="anc_exon" x="3975" y="35.0" width="87" height="30" style="fill:#87bcbc;fill-opacity:1.00" />
  <line x1="4062" y1="50.0" x2="4102" y2="50.0" style="stroke:#999; stroke-width:3;" />
  <rect class="anc_exon" x="4102" y="35.0" width="47" height="30" style="fill:#87bcbc;fill-opacity:1.00" />
  <line x1="4149" y1="50.0" x2="4169" y2="50.0" style="stroke:#999; stroke-width:3;" />
  <line x1="4169" y1="50.0" x2="4169" y2="50.0" style="stroke:#999; stroke-width:3;" />
  <line x1="4169" y1="50.0" x2="4169" y2="50.0" style="stroke:#999; stroke-width:3;" />
  <line x1="4169" y1="50.0" x2="4189" y2="50.0" style="stroke:#999; stroke-width:3;" />
  <rect class="anc_exon" x="4189" y="35.0" width="84" height="30" style="fill:#87bcbc;fill-opacity:1.00" />
  <line x1="4273" y1="50.0" x2="4313" y2="50.0" style="stroke:#999; stroke-width:3;" />
  <rect class="anc_exon" x="4313" y="35.0" width="70" height="30" style="fill:#87bcbc;fill-opacity:1.00" />
  <line x1="4383" y1="50.0" x2="4423" y2="50.0" style="stroke:#999; stroke-width:3;" />
  <rect class="anc_exon" x="4423" y="35.0" width="124" height="30" style="fill:#87bcbc;fill-opacity:1.00" />
  <line x1="4547" y1="50.0" x2="4567" y2="50.0" style="stroke:#999; stroke-width:3;" />
  <line x1="4567" y1="50.0" x2="4567" y2="50.0" style="stroke:#999; stroke-width:3;" />
  <line x1="4567" y1="50.0" x2="4567" y2="50.0" style="stroke:#999; stroke-width:3;" />
  <line x1="4567" y1="50.0" x2="4587" y2="50.0" style="stroke:#999; stroke-width:3;" />
  <rect class="anc_exon" x="4587" y="35.0" width="510" height="30" style="fill:#87bcbc;fill-opacity:1.00" />
  <rect class="anc_exon" x="5097" y="35.0" width="0" height="30" style="fill:#87bcbc;fill-opacity:1.00" />
  <text style="" >
<tspan x="0" y="83.0" style="font-size:18px;" >SP XM_031937584_1.1</tspan>  </text>



<script type="text/ecmascript">
<![CDATA[
function draw_bbox(text_id)
{
    var text_elem = document.getElementById(text_id);
    var offset_px = 2;
    var offset_py = 0;
    bbox = text_elem.getBBox();
    var box = document.createElementNS(document.rootElement.namespaceURI,'rect');
    box.setAttribute('x', bbox.x - offset_px);
    box.setAttribute('y', bbox.y - offset_py);
    box.setAttribute('width', bbox.width + offset_px * 2);
    box.setAttribute('height', bbox.height + offset_py * 2);
    box.setAttribute('style','fill: white;'+'stroke: black;'+'stroke-width: 1px;');
    text_elem.insertBefore(box,text_elem.childNodes[0]);

    var svg = text_elem.parentNode;
    svg.appendChild(text_elem);
}

for (var i=1; i < 1; i++)
{
draw_bbox("Mouseover" + i);
}
]]> 
</script>
</svg>
