<svg version="1.1"
xmlns="http://www.w3.org/2000/svg"
xmlns:xlink="http://www.w3.org/1999/xlink"
width="1573" height="100" viewBox = "0 0 1573 100"
onclick="mouseclick(evt)">

<script type="text/ecmascript">

<![CDATA[
    function mouseover(evt, target) { 
    var gv = document.getElementById("globalVariable");
    var previoustarget = gv.firstChild.nodeValue;
    if (previoustarget != "none") 
    {
        	document.getElementById(gv.firstChild.nodeValue).setAttributeNS(null, "visibility", "hidden");
    }
    document.getElementById(target).setAttributeNS(null, "visibility", "visible");
    gv.firstChild.nodeValue = target;
        }

    function mouseclick(evt) { 
    var gv = document.getElementById("globalVariable");
    var previoustarget = gv.firstChild.nodeValue;
    if (previoustarget != "none") {
        	document.getElementById(gv.firstChild.nodeValue).setAttributeNS(null, "visibility", "hidden");
        }
    }
]]>
  </script>
<style type="text/css" >

<![CDATA[
    rect.anc_exon {
              stroke-width:3;
                  }

    rect.non_anc_exon {
              stroke: black; stroke-width:3; stroke-dasharray: 5,5;
                    }

    text {
              font-size: 18px;
              font-family: Courier New;
          }
                    ]]>
</style>

<defs>
    <text x="150" y="40" id="globalVariable">none</text>
</defs>

  <rect class="anc_exon" x="0" y="35.0" width="0" height="30" style="fill:#87bcbc;fill-opacity:1.00" />
  <rect class="anc_exon" x="0" y="35.0" width="10.4" height="30" style="fill:#878787;fill-opacity:1.00" />
  <line x1="10.4" y1="50.0" x2="50.0" y2="50.0" style="stroke:#999; stroke-width:3;" />
  <rect class="anc_exon" x="50" y="35.0" width="172" height="30" style="fill:#87bcbc;fill-opacity:1.00" />
  <line x1="222" y1="50.0" x2="242" y2="50.0" style="stroke:#999; stroke-width:3;" />
  <line x1="242" y1="50.0" x2="242" y2="50.0" style="stroke:#999; stroke-width:3;" />
  <line x1="242" y1="50.0" x2="242" y2="50.0" style="stroke:#999; stroke-width:3;" />
  <line x1="242" y1="50.0" x2="262" y2="50.0" style="stroke:#999; stroke-width:3;" />
  <rect class="anc_exon" x="262" y="35.0" width="88" height="30" style="fill:#87bcbc;fill-opacity:1.00" />
  <line x1="350" y1="50.0" x2="390" y2="50.0" style="stroke:#999; stroke-width:3;" />
  <rect class="anc_exon" x="390" y="35.0" width="108" height="30" style="fill:#87bcbc;fill-opacity:1.00" />
  <line x1="498" y1="50.0" x2="518" y2="50.0" style="stroke:#999; stroke-width:3;" />
  <line x1="518" y1="50.0" x2="518" y2="50.0" style="stroke:#999; stroke-width:3;" />
  <line x1="518" y1="50.0" x2="518" y2="50.0" style="stroke:#999; stroke-width:3;" />
  <line x1="518" y1="50.0" x2="538" y2="50.0" style="stroke:#999; stroke-width:3;" />
  <rect class="anc_exon" x="538" y="35.0" width="71" height="30" style="fill:#87bcbc;fill-opacity:1.00" />
  <line x1="609" y1="50.0" x2="649" y2="50.0" style="stroke:#999; stroke-width:3;" />
  <rect class="anc_exon" x="649" y="35.0" width="74" height="30" style="fill:#87bcbc;fill-opacity:1.00" />
  <line x1="723" y1="50.0" x2="743" y2="50.0" style="stroke:#999; stroke-width:3;" />
  <line x1="743" y1="50.0" x2="743" y2="50.0" style="stroke:#999; stroke-width:3;" />
  <line x1="743" y1="50.0" x2="743" y2="50.0" style="stroke:#999; stroke-width:3;" />
  <line x1="743" y1="50.0" x2="763" y2="50.0" style="stroke:#999; stroke-width:3;" />
  <rect class="anc_exon" x="763" y="35.0" width="124" height="30" style="fill:#87bcbc;fill-opacity:1.00" />
  <line x1="887" y1="50.0" x2="927" y2="50.0" style="stroke:#999; stroke-width:3;" />
  <rect class="anc_exon" x="927" y="35.0" width="127" height="30" style="fill:#87bcbc;fill-opacity:1.00" />
  <line x1="1054" y1="50.0" x2="1094" y2="50.0" style="stroke:#999; stroke-width:3;" />
  <rect class="anc_exon" x="1094" y="35.0" width="54" height="30" style="fill:#87bcbc;fill-opacity:1.00" />
  <line x1="1148" y1="50.0" x2="1188" y2="50.0" style="stroke:#999; stroke-width:3;" />
  <rect class="anc_exon" x="1188" y="35.0" width="92" height="30" style="fill:#87bcbc;fill-opacity:1.00" />
  <line x1="1280" y1="50.0" x2="1300" y2="50.0" style="stroke:#999; stroke-width:3;" />
  <line x1="1300" y1="50.0" x2="1300" y2="50.0" style="stroke:#999; stroke-width:3;" />
  <line x1="1300" y1="50.0" x2="1300" y2="50.0" style="stroke:#999; stroke-width:3;" />
  <line x1="1300" y1="50.0" x2="1320" y2="50.0" style="stroke:#999; stroke-width:3;" />
  <rect class="anc_exon" x="1320" y="35.0" width="56" height="30" style="fill:#87bcbc;fill-opacity:1.00" />
  <line x1="1376" y1="50.0" x2="1396" y2="50.0" style="stroke:#999; stroke-width:3;" />
  <line x1="1396" y1="50.0" x2="1396" y2="50.0" style="stroke:#999; stroke-width:3;" />
  <line x1="1396" y1="50.0" x2="1396" y2="50.0" style="stroke:#999; stroke-width:3;" />
  <line x1="1396" y1="50.0" x2="1416" y2="50.0" style="stroke:#999; stroke-width:3;" />
  <rect class="anc_exon" x="1416" y="35.0" width="121" height="30" style="fill:#87bcbc;fill-opacity:1.00" />
  <rect class="anc_exon" x="1537" y="35.0" width="0" height="30" style="fill:#87bcbc;fill-opacity:1.00" />
  <text style="" >
<tspan x="0" y="83.0" style="font-size:18px;" >SP XM_031967740_1.1</tspan>  </text>



<script type="text/ecmascript">
<![CDATA[
function draw_bbox(text_id)
{
    var text_elem = document.getElementById(text_id);
    var offset_px = 2;
    var offset_py = 0;
    bbox = text_elem.getBBox();
    var box = document.createElementNS(document.rootElement.namespaceURI,'rect');
    box.setAttribute('x', bbox.x - offset_px);
    box.setAttribute('y', bbox.y - offset_py);
    box.setAttribute('width', bbox.width + offset_px * 2);
    box.setAttribute('height', bbox.height + offset_py * 2);
    box.setAttribute('style','fill: white;'+'stroke: black;'+'stroke-width: 1px;');
    text_elem.insertBefore(box,text_elem.childNodes[0]);

    var svg = text_elem.parentNode;
    svg.appendChild(text_elem);
}

for (var i=1; i < 1; i++)
{
draw_bbox("Mouseover" + i);
}
]]> 
</script>
</svg>
