<svg version="1.1"
xmlns="http://www.w3.org/2000/svg"
xmlns:xlink="http://www.w3.org/1999/xlink"
width="3851" height="100" viewBox = "0 0 3851 100"
onclick="mouseclick(evt)">

<script type="text/ecmascript">

<![CDATA[
    function mouseover(evt, target) { 
    var gv = document.getElementById("globalVariable");
    var previoustarget = gv.firstChild.nodeValue;
    if (previoustarget != "none") 
    {
        	document.getElementById(gv.firstChild.nodeValue).setAttributeNS(null, "visibility", "hidden");
    }
    document.getElementById(target).setAttributeNS(null, "visibility", "visible");
    gv.firstChild.nodeValue = target;
        }

    function mouseclick(evt) { 
    var gv = document.getElementById("globalVariable");
    var previoustarget = gv.firstChild.nodeValue;
    if (previoustarget != "none") {
        	document.getElementById(gv.firstChild.nodeValue).setAttributeNS(null, "visibility", "hidden");
        }
    }
]]>
  </script>
<style type="text/css" >

<![CDATA[
    rect.anc_exon {
              stroke-width:3;
                  }

    rect.non_anc_exon {
              stroke: black; stroke-width:3; stroke-dasharray: 5,5;
                    }

    text {
              font-size: 18px;
              font-family: Courier New;
          }
                    ]]>
</style>

<defs>
    <text x="150" y="40" id="globalVariable">none</text>
</defs>

  <rect class="anc_exon" x="0" y="35.0" width="0" height="30" style="fill:#87bcbc;fill-opacity:1.00" />
  <rect class="anc_exon" x="0" y="35.0" width="74.4" height="30" style="fill:#87bcbc;fill-opacity:1.00" />
  <line x1="74.4" y1="50.0" x2="114.0" y2="50.0" style="stroke:#999; stroke-width:3;" />
  <rect class="anc_exon" x="114" y="35.0" width="89" height="30" style="fill:#87bcbc;fill-opacity:1.00" />
  <line x1="203" y1="50.0" x2="243" y2="50.0" style="stroke:#999; stroke-width:3;" />
  <rect class="anc_exon" x="243" y="35.0" width="144" height="30" style="fill:#87bcbc;fill-opacity:1.00" />
  <line x1="387" y1="50.0" x2="407" y2="50.0" style="stroke:#999; stroke-width:3;" />
  <line x1="407" y1="50.0" x2="407" y2="50.0" style="stroke:#999; stroke-width:3;" />
  <line x1="407" y1="50.0" x2="407" y2="50.0" style="stroke:#999; stroke-width:3;" />
  <line x1="407" y1="50.0" x2="427" y2="50.0" style="stroke:#999; stroke-width:3;" />
  <rect class="anc_exon" x="427" y="35.0" width="104" height="30" style="fill:#87bcbc;fill-opacity:1.00" />
  <line x1="531" y1="50.0" x2="551" y2="50.0" style="stroke:#999; stroke-width:3;" />
  <line x1="551" y1="50.0" x2="551" y2="50.0" style="stroke:#999; stroke-width:3;" />
  <line x1="551" y1="50.0" x2="551" y2="50.0" style="stroke:#999; stroke-width:3;" />
  <line x1="551" y1="50.0" x2="571" y2="50.0" style="stroke:#999; stroke-width:3;" />
  <rect class="anc_exon" x="571" y="35.0" width="96" height="30" style="fill:#87bcbc;fill-opacity:1.00" />
  <line x1="667" y1="50.0" x2="687" y2="50.0" style="stroke:#999; stroke-width:3;" />
  <line x1="687" y1="50.0" x2="687" y2="50.0" style="stroke:#999; stroke-width:3;" />
  <line x1="687" y1="50.0" x2="687" y2="50.0" style="stroke:#999; stroke-width:3;" />
  <line x1="687" y1="50.0" x2="707" y2="50.0" style="stroke:#999; stroke-width:3;" />
  <rect class="anc_exon" x="707" y="35.0" width="232" height="30" style="fill:#87bcbc;fill-opacity:1.00" />
  <line x1="939" y1="50.0" x2="959" y2="50.0" style="stroke:#999; stroke-width:3;" />
  <line x1="959" y1="50.0" x2="959" y2="50.0" style="stroke:#999; stroke-width:3;" />
  <line x1="959" y1="50.0" x2="959" y2="50.0" style="stroke:#999; stroke-width:3;" />
  <line x1="959" y1="50.0" x2="979" y2="50.0" style="stroke:#999; stroke-width:3;" />
  <rect class="anc_exon" x="979" y="35.0" width="177" height="30" style="fill:#87bcbc;fill-opacity:1.00" />
  <line x1="1156" y1="50.0" x2="1196" y2="50.0" style="stroke:#999; stroke-width:3;" />
  <rect class="anc_exon" x="1196" y="35.0" width="160" height="30" style="fill:#87bcbc;fill-opacity:1.00" />
  <line x1="1356" y1="50.0" x2="1396" y2="50.0" style="stroke:#999; stroke-width:3;" />
  <rect class="anc_exon" x="1396" y="35.0" width="106" height="30" style="fill:#87bcbc;fill-opacity:1.00" />
  <line x1="1502" y1="50.0" x2="1542" y2="50.0" style="stroke:#999; stroke-width:3;" />
  <rect class="anc_exon" x="1542" y="35.0" width="124" height="30" style="fill:#87bcbc;fill-opacity:1.00" />
  <line x1="1666" y1="50.0" x2="1686" y2="50.0" style="stroke:#999; stroke-width:3;" />
  <line x1="1686" y1="50.0" x2="1686" y2="50.0" style="stroke:#999; stroke-width:3;" />
  <line x1="1686" y1="50.0" x2="1686" y2="50.0" style="stroke:#999; stroke-width:3;" />
  <line x1="1686" y1="50.0" x2="1706" y2="50.0" style="stroke:#999; stroke-width:3;" />
  <rect class="anc_exon" x="1706" y="35.0" width="132" height="30" style="fill:#87bcbc;fill-opacity:1.00" />
  <line x1="1838" y1="50.0" x2="1878" y2="50.0" style="stroke:#999; stroke-width:3;" />
  <rect class="anc_exon" x="1878" y="35.0" width="112" height="30" style="fill:#87bcbc;fill-opacity:1.00" />
  <line x1="1990" y1="50.0" x2="2010" y2="50.0" style="stroke:#999; stroke-width:3;" />
  <line x1="2010" y1="50.0" x2="2010" y2="50.0" style="stroke:#999; stroke-width:3;" />
  <line x1="2010" y1="50.0" x2="2010" y2="50.0" style="stroke:#999; stroke-width:3;" />
  <line x1="2010" y1="50.0" x2="2030" y2="50.0" style="stroke:#999; stroke-width:3;" />
  <rect class="anc_exon" x="2030" y="35.0" width="129" height="30" style="fill:#87bcbc;fill-opacity:1.00" />
  <line x1="2159" y1="50.0" x2="2179" y2="50.0" style="stroke:#999; stroke-width:3;" />
  <line x1="2179" y1="50.0" x2="2179" y2="50.0" style="stroke:#999; stroke-width:3;" />
  <line x1="2179" y1="50.0" x2="2179" y2="50.0" style="stroke:#999; stroke-width:3;" />
  <line x1="2179" y1="50.0" x2="2199" y2="50.0" style="stroke:#999; stroke-width:3;" />
  <rect class="anc_exon" x="2199" y="35.0" width="128" height="30" style="fill:#87bcbc;fill-opacity:1.00" />
  <line x1="2327" y1="50.0" x2="2347" y2="50.0" style="stroke:#999; stroke-width:3;" />
  <line x1="2347" y1="50.0" x2="2347" y2="50.0" style="stroke:#999; stroke-width:3;" />
  <line x1="2347" y1="50.0" x2="2347" y2="50.0" style="stroke:#999; stroke-width:3;" />
  <line x1="2347" y1="50.0" x2="2367" y2="50.0" style="stroke:#999; stroke-width:3;" />
  <rect class="anc_exon" x="2367" y="35.0" width="97" height="30" style="fill:#87bcbc;fill-opacity:1.00" />
  <line x1="2464" y1="50.0" x2="2484" y2="50.0" style="stroke:#999; stroke-width:3;" />
  <line x1="2484" y1="50.0" x2="2484" y2="50.0" style="stroke:#999; stroke-width:3;" />
  <line x1="2484" y1="50.0" x2="2484" y2="50.0" style="stroke:#999; stroke-width:3;" />
  <line x1="2484" y1="50.0" x2="2504" y2="50.0" style="stroke:#999; stroke-width:3;" />
  <rect class="anc_exon" x="2504" y="35.0" width="88" height="30" style="fill:#87bcbc;fill-opacity:1.00" />
  <line x1="2592" y1="50.0" x2="2612" y2="50.0" style="stroke:#999; stroke-width:3;" />
  <line x1="2612" y1="50.0" x2="2612" y2="50.0" style="stroke:#999; stroke-width:3;" />
  <line x1="2612" y1="50.0" x2="2612" y2="50.0" style="stroke:#999; stroke-width:3;" />
  <line x1="2612" y1="50.0" x2="2632" y2="50.0" style="stroke:#999; stroke-width:3;" />
  <rect class="anc_exon" x="2632" y="35.0" width="66" height="30" style="fill:#87bcbc;fill-opacity:1.00" />
  <line x1="2698" y1="50.0" x2="2718" y2="50.0" style="stroke:#999; stroke-width:3;" />
  <line x1="2718" y1="50.0" x2="2718" y2="50.0" style="stroke:#999; stroke-width:3;" />
  <line x1="2718" y1="50.0" x2="2718" y2="50.0" style="stroke:#999; stroke-width:3;" />
  <line x1="2718" y1="50.0" x2="2738" y2="50.0" style="stroke:#999; stroke-width:3;" />
  <rect class="anc_exon" x="2738" y="35.0" width="259" height="30" style="fill:#87bcbc;fill-opacity:1.00" />
  <line x1="2997" y1="50.0" x2="3017" y2="50.0" style="stroke:#999; stroke-width:3;" />
  <line x1="3017" y1="50.0" x2="3017" y2="50.0" style="stroke:#999; stroke-width:3;" />
  <line x1="3017" y1="50.0" x2="3017" y2="50.0" style="stroke:#999; stroke-width:3;" />
  <line x1="3017" y1="50.0" x2="3037" y2="50.0" style="stroke:#999; stroke-width:3;" />
  <rect class="anc_exon" x="3037" y="35.0" width="609" height="30" style="fill:#87bcbc;fill-opacity:1.00" />
  <line x1="3646" y1="50.0" x2="3666" y2="50.0" style="stroke:#999; stroke-width:3;" />
  <line x1="3666" y1="50.0" x2="3666" y2="50.0" style="stroke:#999; stroke-width:3;" />
  <line x1="3666" y1="50.0" x2="3666" y2="50.0" style="stroke:#999; stroke-width:3;" />
  <line x1="3666" y1="50.0" x2="3686" y2="50.0" style="stroke:#999; stroke-width:3;" />
  <rect class="anc_exon" x="3686" y="35.0" width="73" height="30" style="fill:#87bcbc;fill-opacity:1.00" />
  <line x1="3759" y1="50.0" x2="3799" y2="50.0" style="stroke:#999; stroke-width:3;" />
  <rect class="anc_exon" x="3799" y="35.0" width="16" height="30" style="fill:#87bcbc;fill-opacity:1.00" />
  <rect class="anc_exon" x="3815" y="35.0" width="0" height="30" style="fill:#87bcbc;fill-opacity:1.00" />
  <text style="" >
<tspan x="0" y="83.0" style="font-size:18px;" >SP XM_031966525_1.1</tspan>  </text>



<script type="text/ecmascript">
<![CDATA[
function draw_bbox(text_id)
{
    var text_elem = document.getElementById(text_id);
    var offset_px = 2;
    var offset_py = 0;
    bbox = text_elem.getBBox();
    var box = document.createElementNS(document.rootElement.namespaceURI,'rect');
    box.setAttribute('x', bbox.x - offset_px);
    box.setAttribute('y', bbox.y - offset_py);
    box.setAttribute('width', bbox.width + offset_px * 2);
    box.setAttribute('height', bbox.height + offset_py * 2);
    box.setAttribute('style','fill: white;'+'stroke: black;'+'stroke-width: 1px;');
    text_elem.insertBefore(box,text_elem.childNodes[0]);

    var svg = text_elem.parentNode;
    svg.appendChild(text_elem);
}

for (var i=1; i < 1; i++)
{
draw_bbox("Mouseover" + i);
}
]]> 
</script>
</svg>
