<svg version="1.1"
xmlns="http://www.w3.org/2000/svg"
xmlns:xlink="http://www.w3.org/1999/xlink"
width="2715" height="100" viewBox = "0 0 2715 100"
onclick="mouseclick(evt)">

<script type="text/ecmascript">

<![CDATA[
    function mouseover(evt, target) { 
    var gv = document.getElementById("globalVariable");
    var previoustarget = gv.firstChild.nodeValue;
    if (previoustarget != "none") 
    {
        	document.getElementById(gv.firstChild.nodeValue).setAttributeNS(null, "visibility", "hidden");
    }
    document.getElementById(target).setAttributeNS(null, "visibility", "visible");
    gv.firstChild.nodeValue = target;
        }

    function mouseclick(evt) { 
    var gv = document.getElementById("globalVariable");
    var previoustarget = gv.firstChild.nodeValue;
    if (previoustarget != "none") {
        	document.getElementById(gv.firstChild.nodeValue).setAttributeNS(null, "visibility", "hidden");
        }
    }
]]>
  </script>
<style type="text/css" >

<![CDATA[
    rect.anc_exon {
              stroke-width:3;
                  }

    rect.non_anc_exon {
              stroke: black; stroke-width:3; stroke-dasharray: 5,5;
                    }

    text {
              font-size: 18px;
              font-family: Courier New;
          }
                    ]]>
</style>

<defs>
    <text x="150" y="40" id="globalVariable">none</text>
</defs>

  <rect class="anc_exon" x="0" y="35.0" width="0" height="30" style="fill:#87bcbc;fill-opacity:1.00" />
  <rect class="anc_exon" x="0" y="35.0" width="42.400000000000006" height="30" style="fill:#87bcbc;fill-opacity:1.00" />
  <line x1="42.400000000000006" y1="50.0" x2="82.0" y2="50.0" style="stroke:#999; stroke-width:3;" />
  <rect class="anc_exon" x="82" y="35.0" width="123" height="30" style="fill:#87bcbc;fill-opacity:1.00" />
  <line x1="205" y1="50.0" x2="245" y2="50.0" style="stroke:#999; stroke-width:3;" />
  <rect class="anc_exon" x="245" y="35.0" width="96" height="30" style="fill:#87bcbc;fill-opacity:1.00" />
  <line x1="341" y1="50.0" x2="381" y2="50.0" style="stroke:#999; stroke-width:3;" />
  <rect class="anc_exon" x="381" y="35.0" width="43" height="30" style="fill:#87bcbc;fill-opacity:1.00" />
  <line x1="424" y1="50.0" x2="464" y2="50.0" style="stroke:#999; stroke-width:3;" />
  <rect class="anc_exon" x="464" y="35.0" width="47" height="30" style="fill:#87bcbc;fill-opacity:1.00" />
  <line x1="511" y1="50.0" x2="551" y2="50.0" style="stroke:#999; stroke-width:3;" />
  <rect class="anc_exon" x="551" y="35.0" width="147" height="30" style="fill:#87bcbc;fill-opacity:1.00" />
  <line x1="698" y1="50.0" x2="738" y2="50.0" style="stroke:#999; stroke-width:3;" />
  <rect class="anc_exon" x="738" y="35.0" width="36" height="30" style="fill:#87bcbc;fill-opacity:1.00" />
  <line x1="774" y1="50.0" x2="814" y2="50.0" style="stroke:#999; stroke-width:3;" />
  <rect class="anc_exon" x="814" y="35.0" width="76" height="30" style="fill:#87bcbc;fill-opacity:1.00" />
  <line x1="890" y1="50.0" x2="930" y2="50.0" style="stroke:#999; stroke-width:3;" />
  <rect class="anc_exon" x="930" y="35.0" width="60" height="30" style="fill:#87bcbc;fill-opacity:1.00" />
  <line x1="990" y1="50.0" x2="1030" y2="50.0" style="stroke:#999; stroke-width:3;" />
  <rect class="anc_exon" x="1030" y="35.0" width="88" height="30" style="fill:#87bcbc;fill-opacity:1.00" />
  <line x1="1118" y1="50.0" x2="1158" y2="50.0" style="stroke:#999; stroke-width:3;" />
  <rect class="anc_exon" x="1158" y="35.0" width="41" height="30" style="fill:#87bcbc;fill-opacity:1.00" />
  <line x1="1199" y1="50.0" x2="1239" y2="50.0" style="stroke:#999; stroke-width:3;" />
  <rect class="anc_exon" x="1239" y="35.0" width="80" height="30" style="fill:#87bcbc;fill-opacity:1.00" />
  <line x1="1319" y1="50.0" x2="1359" y2="50.0" style="stroke:#999; stroke-width:3;" />
  <rect class="anc_exon" x="1359" y="35.0" width="94" height="30" style="fill:#87bcbc;fill-opacity:1.00" />
  <line x1="1453" y1="50.0" x2="1493" y2="50.0" style="stroke:#999; stroke-width:3;" />
  <rect class="anc_exon" x="1493" y="35.0" width="164" height="30" style="fill:#87bcbc;fill-opacity:1.00" />
  <line x1="1657" y1="50.0" x2="1697" y2="50.0" style="stroke:#999; stroke-width:3;" />
  <rect class="anc_exon" x="1697" y="35.0" width="56" height="30" style="fill:#87bcbc;fill-opacity:1.00" />
  <line x1="1753" y1="50.0" x2="1793" y2="50.0" style="stroke:#999; stroke-width:3;" />
  <rect class="anc_exon" x="1793" y="35.0" width="76" height="30" style="fill:#87bcbc;fill-opacity:1.00" />
  <line x1="1869" y1="50.0" x2="1909" y2="50.0" style="stroke:#999; stroke-width:3;" />
  <rect class="anc_exon" x="1909" y="35.0" width="136" height="30" style="fill:#87bcbc;fill-opacity:1.00" />
  <line x1="2045" y1="50.0" x2="2085" y2="50.0" style="stroke:#999; stroke-width:3;" />
  <rect class="anc_exon" x="2085" y="35.0" width="138" height="30" style="fill:#87bcbc;fill-opacity:1.00" />
  <line x1="2223" y1="50.0" x2="2243" y2="50.0" style="stroke:#999; stroke-width:3;" />
  <line x1="2243" y1="50.0" x2="2243" y2="50.0" style="stroke:#999; stroke-width:3;" />
  <line x1="2243" y1="50.0" x2="2243" y2="50.0" style="stroke:#999; stroke-width:3;" />
  <line x1="2243" y1="50.0" x2="2263" y2="50.0" style="stroke:#999; stroke-width:3;" />
  <rect class="anc_exon" x="2263" y="35.0" width="88" height="30" style="fill:#87bcbc;fill-opacity:1.00" />
  <line x1="2351" y1="50.0" x2="2391" y2="50.0" style="stroke:#999; stroke-width:3;" />
  <rect class="anc_exon" x="2391" y="35.0" width="88" height="30" style="fill:#87bcbc;fill-opacity:1.00" />
  <line x1="2479" y1="50.0" x2="2519" y2="50.0" style="stroke:#999; stroke-width:3;" />
  <rect class="anc_exon" x="2519" y="35.0" width="40" height="30" style="fill:#87bcbc;fill-opacity:1.00" />
  <line x1="2559" y1="50.0" x2="2599" y2="50.0" style="stroke:#999; stroke-width:3;" />
  <rect class="anc_exon" x="2599" y="35.0" width="80" height="30" style="fill:#87bcbc;fill-opacity:1.00" />
  <rect class="anc_exon" x="2679" y="35.0" width="0" height="30" style="fill:#87bcbc;fill-opacity:1.00" />
  <text style="" >
<tspan x="0" y="83.0" style="font-size:18px;" >SP XM_031965419_1.1</tspan>  </text>



<script type="text/ecmascript">
<![CDATA[
function draw_bbox(text_id)
{
    var text_elem = document.getElementById(text_id);
    var offset_px = 2;
    var offset_py = 0;
    bbox = text_elem.getBBox();
    var box = document.createElementNS(document.rootElement.namespaceURI,'rect');
    box.setAttribute('x', bbox.x - offset_px);
    box.setAttribute('y', bbox.y - offset_py);
    box.setAttribute('width', bbox.width + offset_px * 2);
    box.setAttribute('height', bbox.height + offset_py * 2);
    box.setAttribute('style','fill: white;'+'stroke: black;'+'stroke-width: 1px;');
    text_elem.insertBefore(box,text_elem.childNodes[0]);

    var svg = text_elem.parentNode;
    svg.appendChild(text_elem);
}

for (var i=1; i < 1; i++)
{
draw_bbox("Mouseover" + i);
}
]]> 
</script>
</svg>
