<svg version="1.1"
xmlns="http://www.w3.org/2000/svg"
xmlns:xlink="http://www.w3.org/1999/xlink"
width="3213" height="100" viewBox = "0 0 3213 100"
onclick="mouseclick(evt)">

<script type="text/ecmascript">

<![CDATA[
    function mouseover(evt, target) { 
    var gv = document.getElementById("globalVariable");
    var previoustarget = gv.firstChild.nodeValue;
    if (previoustarget != "none") 
    {
        	document.getElementById(gv.firstChild.nodeValue).setAttributeNS(null, "visibility", "hidden");
    }
    document.getElementById(target).setAttributeNS(null, "visibility", "visible");
    gv.firstChild.nodeValue = target;
        }

    function mouseclick(evt) { 
    var gv = document.getElementById("globalVariable");
    var previoustarget = gv.firstChild.nodeValue;
    if (previoustarget != "none") {
        	document.getElementById(gv.firstChild.nodeValue).setAttributeNS(null, "visibility", "hidden");
        }
    }
]]>
  </script>
<style type="text/css" >

<![CDATA[
    rect.anc_exon {
              stroke-width:3;
                  }

    rect.non_anc_exon {
              stroke: black; stroke-width:3; stroke-dasharray: 5,5;
                    }

    text {
              font-size: 18px;
              font-family: Courier New;
          }
                    ]]>
</style>

<defs>
    <text x="150" y="40" id="globalVariable">none</text>
</defs>

  <rect class="anc_exon" x="0" y="35.0" width="0" height="30" style="fill:#87bcbc;fill-opacity:1.00" />
  <rect class="anc_exon" x="0" y="35.0" width="40.800000000000004" height="30" style="fill:#87bcbc;fill-opacity:1.00" />
  <line x1="40.800000000000004" y1="50.0" x2="59.800000000000004" y2="50.0" style="stroke:#999; stroke-width:3;" />
  <line x1="59.800000000000004" y1="50.0" x2="59.800000000000004" y2="50.0" style="stroke:#999; stroke-width:3;" />
  <line x1="59.800000000000004" y1="50.0" x2="59.800000000000004" y2="50.0" style="stroke:#999; stroke-width:3;" />
  <line x1="59.800000000000004" y1="50.0" x2="80.0" y2="50.0" style="stroke:#999; stroke-width:3;" />
  <rect class="anc_exon" x="80" y="35.0" width="138" height="30" style="fill:#87bcbc;fill-opacity:1.00" />
  <line x1="218" y1="50.0" x2="238" y2="50.0" style="stroke:#999; stroke-width:3;" />
  <line x1="238" y1="50.0" x2="238" y2="50.0" style="stroke:#999; stroke-width:3;" />
  <line x1="238" y1="50.0" x2="238" y2="50.0" style="stroke:#999; stroke-width:3;" />
  <line x1="238" y1="50.0" x2="258" y2="50.0" style="stroke:#999; stroke-width:3;" />
  <rect class="anc_exon" x="258" y="35.0" width="125" height="30" style="fill:#87bcbc;fill-opacity:1.00" />
  <line x1="383" y1="50.0" x2="403" y2="50.0" style="stroke:#999; stroke-width:3;" />
  <line x1="403" y1="50.0" x2="403" y2="50.0" style="stroke:#999; stroke-width:3;" />
  <line x1="403" y1="50.0" x2="403" y2="50.0" style="stroke:#999; stroke-width:3;" />
  <line x1="403" y1="50.0" x2="423" y2="50.0" style="stroke:#999; stroke-width:3;" />
  <rect class="anc_exon" x="423" y="35.0" width="104" height="30" style="fill:#87bcbc;fill-opacity:1.00" />
  <line x1="527" y1="50.0" x2="547" y2="50.0" style="stroke:#999; stroke-width:3;" />
  <line x1="547" y1="50.0" x2="547" y2="50.0" style="stroke:#999; stroke-width:3;" />
  <line x1="547" y1="50.0" x2="547" y2="50.0" style="stroke:#999; stroke-width:3;" />
  <line x1="547" y1="50.0" x2="567" y2="50.0" style="stroke:#999; stroke-width:3;" />
  <rect class="anc_exon" x="567" y="35.0" width="215" height="30" style="fill:#87bcbc;fill-opacity:1.00" />
  <line x1="782" y1="50.0" x2="802" y2="50.0" style="stroke:#999; stroke-width:3;" />
  <line x1="802" y1="50.0" x2="802" y2="50.0" style="stroke:#999; stroke-width:3;" />
  <line x1="802" y1="50.0" x2="802" y2="50.0" style="stroke:#999; stroke-width:3;" />
  <line x1="802" y1="50.0" x2="822" y2="50.0" style="stroke:#999; stroke-width:3;" />
  <rect class="anc_exon" x="822" y="35.0" width="117" height="30" style="fill:#87bcbc;fill-opacity:1.00" />
  <line x1="939" y1="50.0" x2="959" y2="50.0" style="stroke:#999; stroke-width:3;" />
  <line x1="959" y1="50.0" x2="959" y2="50.0" style="stroke:#999; stroke-width:3;" />
  <line x1="959" y1="50.0" x2="959" y2="50.0" style="stroke:#999; stroke-width:3;" />
  <line x1="959" y1="50.0" x2="979" y2="50.0" style="stroke:#999; stroke-width:3;" />
  <rect class="anc_exon" x="979" y="35.0" width="63" height="30" style="fill:#87bcbc;fill-opacity:1.00" />
  <line x1="1042" y1="50.0" x2="1062" y2="50.0" style="stroke:#999; stroke-width:3;" />
  <line x1="1062" y1="50.0" x2="1062" y2="50.0" style="stroke:#999; stroke-width:3;" />
  <line x1="1062" y1="50.0" x2="1062" y2="50.0" style="stroke:#999; stroke-width:3;" />
  <line x1="1062" y1="50.0" x2="1082" y2="50.0" style="stroke:#999; stroke-width:3;" />
  <rect class="anc_exon" x="1082" y="35.0" width="48" height="30" style="fill:#87bcbc;fill-opacity:1.00" />
  <line x1="1130" y1="50.0" x2="1150" y2="50.0" style="stroke:#999; stroke-width:3;" />
  <line x1="1150" y1="50.0" x2="1150" y2="50.0" style="stroke:#999; stroke-width:3;" />
  <line x1="1150" y1="50.0" x2="1150" y2="50.0" style="stroke:#999; stroke-width:3;" />
  <line x1="1150" y1="50.0" x2="1170" y2="50.0" style="stroke:#999; stroke-width:3;" />
  <rect class="anc_exon" x="1170" y="35.0" width="49" height="30" style="fill:#87bcbc;fill-opacity:1.00" />
  <line x1="1219" y1="50.0" x2="1239" y2="50.0" style="stroke:#999; stroke-width:3;" />
  <line x1="1239" y1="50.0" x2="1239" y2="50.0" style="stroke:#999; stroke-width:3;" />
  <line x1="1239" y1="50.0" x2="1239" y2="50.0" style="stroke:#999; stroke-width:3;" />
  <line x1="1239" y1="50.0" x2="1259" y2="50.0" style="stroke:#999; stroke-width:3;" />
  <rect class="anc_exon" x="1259" y="35.0" width="60" height="30" style="fill:#87bcbc;fill-opacity:1.00" />
  <line x1="1319" y1="50.0" x2="1339" y2="50.0" style="stroke:#999; stroke-width:3;" />
  <line x1="1339" y1="50.0" x2="1339" y2="50.0" style="stroke:#999; stroke-width:3;" />
  <line x1="1339" y1="50.0" x2="1339" y2="50.0" style="stroke:#999; stroke-width:3;" />
  <line x1="1339" y1="50.0" x2="1359" y2="50.0" style="stroke:#999; stroke-width:3;" />
  <rect class="anc_exon" x="1359" y="35.0" width="161" height="30" style="fill:#87bcbc;fill-opacity:1.00" />
  <line x1="1520" y1="50.0" x2="1540" y2="50.0" style="stroke:#999; stroke-width:3;" />
  <line x1="1540" y1="50.0" x2="1540" y2="50.0" style="stroke:#999; stroke-width:3;" />
  <line x1="1540" y1="50.0" x2="1540" y2="50.0" style="stroke:#999; stroke-width:3;" />
  <line x1="1540" y1="50.0" x2="1560" y2="50.0" style="stroke:#999; stroke-width:3;" />
  <rect class="anc_exon" x="1560" y="35.0" width="68" height="30" style="fill:#87bcbc;fill-opacity:1.00" />
  <line x1="1628" y1="50.0" x2="1648" y2="50.0" style="stroke:#999; stroke-width:3;" />
  <line x1="1648" y1="50.0" x2="1648" y2="50.0" style="stroke:#999; stroke-width:3;" />
  <line x1="1648" y1="50.0" x2="1648" y2="50.0" style="stroke:#999; stroke-width:3;" />
  <line x1="1648" y1="50.0" x2="1668" y2="50.0" style="stroke:#999; stroke-width:3;" />
  <rect class="anc_exon" x="1668" y="35.0" width="126" height="30" style="fill:#87bcbc;fill-opacity:1.00" />
  <line x1="1794" y1="50.0" x2="1814" y2="50.0" style="stroke:#999; stroke-width:3;" />
  <line x1="1814" y1="50.0" x2="1814" y2="50.0" style="stroke:#999; stroke-width:3;" />
  <line x1="1814" y1="50.0" x2="1814" y2="50.0" style="stroke:#999; stroke-width:3;" />
  <line x1="1814" y1="50.0" x2="1834" y2="50.0" style="stroke:#999; stroke-width:3;" />
  <rect class="anc_exon" x="1834" y="35.0" width="133" height="30" style="fill:#87bcbc;fill-opacity:1.00" />
  <line x1="1967" y1="50.0" x2="1987" y2="50.0" style="stroke:#999; stroke-width:3;" />
  <line x1="1987" y1="50.0" x2="1987" y2="50.0" style="stroke:#999; stroke-width:3;" />
  <line x1="1987" y1="50.0" x2="1987" y2="50.0" style="stroke:#999; stroke-width:3;" />
  <line x1="1987" y1="50.0" x2="2007" y2="50.0" style="stroke:#999; stroke-width:3;" />
  <rect class="anc_exon" x="2007" y="35.0" width="89" height="30" style="fill:#87bcbc;fill-opacity:1.00" />
  <line x1="2096" y1="50.0" x2="2116" y2="50.0" style="stroke:#999; stroke-width:3;" />
  <line x1="2116" y1="50.0" x2="2116" y2="50.0" style="stroke:#999; stroke-width:3;" />
  <line x1="2116" y1="50.0" x2="2116" y2="50.0" style="stroke:#999; stroke-width:3;" />
  <line x1="2116" y1="50.0" x2="2136" y2="50.0" style="stroke:#999; stroke-width:3;" />
  <rect class="anc_exon" x="2136" y="35.0" width="109" height="30" style="fill:#87bcbc;fill-opacity:1.00" />
  <line x1="2245" y1="50.0" x2="2265" y2="50.0" style="stroke:#999; stroke-width:3;" />
  <line x1="2265" y1="50.0" x2="2265" y2="50.0" style="stroke:#999; stroke-width:3;" />
  <line x1="2265" y1="50.0" x2="2265" y2="50.0" style="stroke:#999; stroke-width:3;" />
  <line x1="2265" y1="50.0" x2="2285" y2="50.0" style="stroke:#999; stroke-width:3;" />
  <rect class="anc_exon" x="2285" y="35.0" width="52" height="30" style="fill:#87bcbc;fill-opacity:1.00" />
  <line x1="2337" y1="50.0" x2="2357" y2="50.0" style="stroke:#999; stroke-width:3;" />
  <line x1="2357" y1="50.0" x2="2357" y2="50.0" style="stroke:#999; stroke-width:3;" />
  <line x1="2357" y1="50.0" x2="2357" y2="50.0" style="stroke:#999; stroke-width:3;" />
  <line x1="2357" y1="50.0" x2="2377" y2="50.0" style="stroke:#999; stroke-width:3;" />
  <rect class="anc_exon" x="2377" y="35.0" width="52" height="30" style="fill:#87bcbc;fill-opacity:1.00" />
  <line x1="2429" y1="50.0" x2="2449" y2="50.0" style="stroke:#999; stroke-width:3;" />
  <line x1="2449" y1="50.0" x2="2449" y2="50.0" style="stroke:#999; stroke-width:3;" />
  <line x1="2449" y1="50.0" x2="2449" y2="50.0" style="stroke:#999; stroke-width:3;" />
  <line x1="2449" y1="50.0" x2="2469" y2="50.0" style="stroke:#999; stroke-width:3;" />
  <rect class="anc_exon" x="2469" y="35.0" width="127" height="30" style="fill:#87bcbc;fill-opacity:1.00" />
  <line x1="2596" y1="50.0" x2="2636" y2="50.0" style="stroke:#999; stroke-width:3;" />
  <rect class="anc_exon" x="2636" y="35.0" width="195" height="30" style="fill:#87bcbc;fill-opacity:1.00" />
  <line x1="2831" y1="50.0" x2="2871" y2="50.0" style="stroke:#999; stroke-width:3;" />
  <rect class="anc_exon" x="2871" y="35.0" width="87" height="30" style="fill:#87bcbc;fill-opacity:1.00" />
  <line x1="2958" y1="50.0" x2="2978" y2="50.0" style="stroke:#999; stroke-width:3;" />
  <line x1="2978" y1="50.0" x2="2978" y2="50.0" style="stroke:#999; stroke-width:3;" />
  <line x1="2978" y1="50.0" x2="2978" y2="50.0" style="stroke:#999; stroke-width:3;" />
  <line x1="2978" y1="50.0" x2="2998" y2="50.0" style="stroke:#999; stroke-width:3;" />
  <rect class="anc_exon" x="2998" y="35.0" width="74" height="30" style="fill:#87bcbc;fill-opacity:1.00" />
  <line x1="3072" y1="50.0" x2="3092" y2="50.0" style="stroke:#999; stroke-width:3;" />
  <line x1="3092" y1="50.0" x2="3092" y2="50.0" style="stroke:#999; stroke-width:3;" />
  <line x1="3092" y1="50.0" x2="3092" y2="50.0" style="stroke:#999; stroke-width:3;" />
  <line x1="3092" y1="50.0" x2="3112" y2="50.0" style="stroke:#999; stroke-width:3;" />
  <rect class="anc_exon" x="3112" y="35.0" width="18" height="30" style="fill:#87bcbc;fill-opacity:1.00" />
  <line x1="3130" y1="50.0" x2="3150" y2="50.0" style="stroke:#999; stroke-width:3;" />
  <line x1="3150" y1="50.0" x2="3150" y2="50.0" style="stroke:#999; stroke-width:3;" />
  <line x1="3150" y1="50.0" x2="3150" y2="50.0" style="stroke:#999; stroke-width:3;" />
  <line x1="3150" y1="50.0" x2="3170" y2="50.0" style="stroke:#999; stroke-width:3;" />
  <rect class="anc_exon" x="3170" y="35.0" width="7" height="30" style="fill:#87bcbc;fill-opacity:1.00" />
  <rect class="anc_exon" x="3177" y="35.0" width="0" height="30" style="fill:#87bcbc;fill-opacity:1.00" />
  <text style="" >
<tspan x="0" y="83.0" style="font-size:18px;" >SP XM_023503254_2.1</tspan>  </text>



<script type="text/ecmascript">
<![CDATA[
function draw_bbox(text_id)
{
    var text_elem = document.getElementById(text_id);
    var offset_px = 2;
    var offset_py = 0;
    bbox = text_elem.getBBox();
    var box = document.createElementNS(document.rootElement.namespaceURI,'rect');
    box.setAttribute('x', bbox.x - offset_px);
    box.setAttribute('y', bbox.y - offset_py);
    box.setAttribute('width', bbox.width + offset_px * 2);
    box.setAttribute('height', bbox.height + offset_py * 2);
    box.setAttribute('style','fill: white;'+'stroke: black;'+'stroke-width: 1px;');
    text_elem.insertBefore(box,text_elem.childNodes[0]);

    var svg = text_elem.parentNode;
    svg.appendChild(text_elem);
}

for (var i=1; i < 1; i++)
{
draw_bbox("Mouseover" + i);
}
]]> 
</script>
</svg>
