<svg version="1.1"
xmlns="http://www.w3.org/2000/svg"
xmlns:xlink="http://www.w3.org/1999/xlink"
width="5319" height="110.0" viewBox = "0 -10.0 5319 110.0"
onclick="mouseclick(evt)">

<script type="text/ecmascript">

<![CDATA[
    function mouseover(evt, target) { 
    var gv = document.getElementById("globalVariable");
    var previoustarget = gv.firstChild.nodeValue;
    if (previoustarget != "none") 
    {
        	document.getElementById(gv.firstChild.nodeValue).setAttributeNS(null, "visibility", "hidden");
    }
    document.getElementById(target).setAttributeNS(null, "visibility", "visible");
    gv.firstChild.nodeValue = target;
        }

    function mouseclick(evt) { 
    var gv = document.getElementById("globalVariable");
    var previoustarget = gv.firstChild.nodeValue;
    if (previoustarget != "none") {
        	document.getElementById(gv.firstChild.nodeValue).setAttributeNS(null, "visibility", "hidden");
        }
    }
]]>
  </script>
<style type="text/css" >

<![CDATA[
    rect.anc_exon {
              stroke-width:3;
                  }

    rect.non_anc_exon {
              stroke: black; stroke-width:3; stroke-dasharray: 5,5;
                    }

    text {
              font-size: 18px;
              font-family: Courier New;
          }
                    ]]>
</style>

<defs>
    <text x="150" y="40" id="globalVariable">none</text>
</defs>

  <rect class="anc_exon" x="0" y="35.0" width="0" height="30" style="fill:#87bcbc;fill-opacity:1.00" />
  <rect class="anc_exon" x="0" y="35.0" width="56.0" height="30" style="fill:#87bcbc;fill-opacity:1.00" />
  <line x1="56.0" y1="50.0" x2="76.0" y2="50.0" style="stroke:#999; stroke-width:3;" />
  <line x1="76.0" y1="50.0" x2="76.0" y2="50.0" style="stroke:#999; stroke-width:3;" />
  <line x1="76.0" y1="50.0" x2="76.0" y2="50.0" style="stroke:#999; stroke-width:3;" />
  <line x1="76.0" y1="50.0" x2="96.0" y2="50.0" style="stroke:#999; stroke-width:3;" />
  <rect class="anc_exon" x="96" y="35.0" width="84" height="30" style="fill:#87bcbc;fill-opacity:1.00" />
  <line x1="180" y1="50.0" x2="200" y2="50.0" style="stroke:#999; stroke-width:3;" />
  <line x1="200" y1="50.0" x2="200" y2="50.0" style="stroke:#999; stroke-width:3;" />
  <line x1="200" y1="50.0" x2="200" y2="50.0" style="stroke:#999; stroke-width:3;" />
  <line x1="200" y1="50.0" x2="220" y2="50.0" style="stroke:#999; stroke-width:3;" />
  <rect class="anc_exon" x="220" y="35.0" width="2387" height="30" style="fill:#cf232b;fill-opacity:1.00" />
  <line x1="2607" y1="50.0" x2="2647" y2="50.0" style="stroke:#999; stroke-width:3;" />
  <rect class="anc_exon" x="2647" y="35.0" width="833" height="30" style="fill:#cf232b;fill-opacity:1.00" />
  <line x1="3480" y1="50.0" x2="3520" y2="50.0" style="stroke:#999; stroke-width:3;" />
  <rect class="anc_exon" x="3520" y="35.0" width="56" height="30" style="fill:#cf232b;fill-opacity:1.00" />
  <line x1="3576" y1="50.0" x2="3616" y2="50.0" style="stroke:#999; stroke-width:3;" />
  <rect class="anc_exon" x="3616" y="35.0" width="353" height="30" style="fill:#87bcbc;fill-opacity:1.00" />
  <line x1="3638.8" y1="35.0" x2="3638.8" y2="65.0" style="stroke:#121212; stroke-width:0.8; stroke-opacity:1"/>
  <text style="" text-anchor="middle">
<tspan x="3638.4" y="26.0" style="font-size:18px;fill:#121212;" >-1</tspan>  </text>
  <line x1="3969" y1="50.0" x2="3989" y2="50.0" style="stroke:#999; stroke-width:3;" />
  <line x1="3989" y1="50.0" x2="3989" y2="50.0" style="stroke:#999; stroke-width:3;" />
  <line x1="3989" y1="50.0" x2="3989" y2="50.0" style="stroke:#999; stroke-width:3;" />
  <line x1="3989" y1="50.0" x2="4009" y2="50.0" style="stroke:#999; stroke-width:3;" />
  <rect class="anc_exon" x="4009" y="35.0" width="151" height="30" style="fill:#87bcbc;fill-opacity:1.00" />
  <line x1="4160" y1="50.0" x2="4200" y2="50.0" style="stroke:#999; stroke-width:3;" />
  <rect class="anc_exon" x="4200" y="35.0" width="104" height="30" style="fill:#87bcbc;fill-opacity:1.00" />
  <line x1="4304" y1="50.0" x2="4324" y2="50.0" style="stroke:#999; stroke-width:3;" />
  <line x1="4324" y1="50.0" x2="4324" y2="50.0" style="stroke:#999; stroke-width:3;" />
  <line x1="4324" y1="50.0" x2="4324" y2="50.0" style="stroke:#999; stroke-width:3;" />
  <line x1="4324" y1="50.0" x2="4344" y2="50.0" style="stroke:#999; stroke-width:3;" />
  <rect class="anc_exon" x="4344" y="35.0" width="47" height="30" style="fill:#87bcbc;fill-opacity:1.00" />
  <line x1="4391" y1="50.0" x2="4431" y2="50.0" style="stroke:#999; stroke-width:3;" />
  <rect class="anc_exon" x="4431" y="35.0" width="116" height="30" style="fill:#87bcbc;fill-opacity:1.00" />
  <line x1="4547" y1="50.0" x2="4587" y2="50.0" style="stroke:#999; stroke-width:3;" />
  <rect class="anc_exon" x="4587" y="35.0" width="52" height="30" style="fill:#87bcbc;fill-opacity:1.00" />
  <line x1="4639" y1="50.0" x2="4679" y2="50.0" style="stroke:#999; stroke-width:3;" />
  <rect class="anc_exon" x="4679" y="35.0" width="140" height="30" style="fill:#87bcbc;fill-opacity:1.00" />
  <line x1="4819" y1="50.0" x2="4839" y2="50.0" style="stroke:#999; stroke-width:3;" />
  <line x1="4839" y1="50.0" x2="4839" y2="50.0" style="stroke:#999; stroke-width:3;" />
  <line x1="4839" y1="50.0" x2="4839" y2="50.0" style="stroke:#999; stroke-width:3;" />
  <line x1="4839" y1="50.0" x2="4859" y2="50.0" style="stroke:#999; stroke-width:3;" />
  <rect class="anc_exon" x="4859" y="35.0" width="129" height="30" style="fill:#87bcbc;fill-opacity:1.00" />
  <line x1="4988" y1="50.0" x2="5028" y2="50.0" style="stroke:#999; stroke-width:3;" />
  <rect class="anc_exon" x="5028" y="35.0" width="78" height="30" style="fill:#87bcbc;fill-opacity:1.00" />
  <line x1="5106" y1="50.0" x2="5146" y2="50.0" style="stroke:#999; stroke-width:3;" />
  <rect class="anc_exon" x="5146" y="35.0" width="64" height="30" style="fill:#87bcbc;fill-opacity:1.00" />
  <line x1="5210" y1="50.0" x2="5250" y2="50.0" style="stroke:#999; stroke-width:3;" />
  <rect class="anc_exon" x="5250" y="35.0" width="33" height="30" style="fill:#87bcbc;fill-opacity:1.00" />
  <rect class="anc_exon" x="5283" y="35.0" width="0" height="30" style="fill:#87bcbc;fill-opacity:1.00" />
  <text style="" >
<tspan x="0" y="83.0" style="font-size:18px;" >SP XM_031968632_1.1</tspan>  </text>



<script type="text/ecmascript">
<![CDATA[
function draw_bbox(text_id)
{
    var text_elem = document.getElementById(text_id);
    var offset_px = 2;
    var offset_py = 0;
    bbox = text_elem.getBBox();
    var box = document.createElementNS(document.rootElement.namespaceURI,'rect');
    box.setAttribute('x', bbox.x - offset_px);
    box.setAttribute('y', bbox.y - offset_py);
    box.setAttribute('width', bbox.width + offset_px * 2);
    box.setAttribute('height', bbox.height + offset_py * 2);
    box.setAttribute('style','fill: white;'+'stroke: black;'+'stroke-width: 1px;');
    text_elem.insertBefore(box,text_elem.childNodes[0]);

    var svg = text_elem.parentNode;
    svg.appendChild(text_elem);
}

for (var i=1; i < 1; i++)
{
draw_bbox("Mouseover" + i);
}
]]> 
</script>
</svg>
