<svg version="1.1"
xmlns="http://www.w3.org/2000/svg"
xmlns:xlink="http://www.w3.org/1999/xlink"
width="2682" height="138.0" viewBox = "0 -38.0 2682 138.0"
onclick="mouseclick(evt)">

<script type="text/ecmascript">

<![CDATA[
    function mouseover(evt, target) { 
    var gv = document.getElementById("globalVariable");
    var previoustarget = gv.firstChild.nodeValue;
    if (previoustarget != "none") 
    {
        	document.getElementById(gv.firstChild.nodeValue).setAttributeNS(null, "visibility", "hidden");
    }
    document.getElementById(target).setAttributeNS(null, "visibility", "visible");
    gv.firstChild.nodeValue = target;
        }

    function mouseclick(evt) { 
    var gv = document.getElementById("globalVariable");
    var previoustarget = gv.firstChild.nodeValue;
    if (previoustarget != "none") {
        	document.getElementById(gv.firstChild.nodeValue).setAttributeNS(null, "visibility", "hidden");
        }
    }
]]>
  </script>
<style type="text/css" >

<![CDATA[
    rect.anc_exon {
              stroke-width:3;
                  }

    rect.non_anc_exon {
              stroke: black; stroke-width:3; stroke-dasharray: 5,5;
                    }

    text {
              font-size: 18px;
              font-family: Courier New;
          }
                    ]]>
</style>

<defs>
    <text x="150" y="40" id="globalVariable">none</text>
</defs>

  <rect class="anc_exon" x="0" y="35.0" width="0" height="30" style="fill:#87bcbc;fill-opacity:1.00" />
  <rect class="anc_exon" x="0" y="35.0" width="110.4" height="30" style="fill:#87bcbc;fill-opacity:1.00" />
  <line x1="110.4" y1="50.0" x2="129.4" y2="50.0" style="stroke:#999; stroke-width:3;" />
  <line x1="129.4" y1="50.0" x2="129.4" y2="50.0" style="stroke:#999; stroke-width:3;" />
  <line x1="129.4" y1="50.0" x2="129.4" y2="50.0" style="stroke:#999; stroke-width:3;" />
  <line x1="129.4" y1="50.0" x2="150.0" y2="50.0" style="stroke:#999; stroke-width:3;" />
  <rect class="anc_exon" x="150" y="35.0" width="448" height="30" style="fill:#87bcbc;fill-opacity:1.00" />
  <line x1="598" y1="50.0" x2="618" y2="50.0" style="stroke:#999; stroke-width:3;" />
  <line x1="618" y1="50.0" x2="618" y2="50.0" style="stroke:#999; stroke-width:3;" />
  <line x1="618" y1="50.0" x2="618" y2="50.0" style="stroke:#999; stroke-width:3;" />
  <line x1="618" y1="50.0" x2="638" y2="50.0" style="stroke:#999; stroke-width:3;" />
  <rect class="anc_exon" x="638" y="35.0" width="224" height="30" style="fill:#87bcbc;fill-opacity:1.00" />
  <polygon points="782.8,35.0 785.3,25.0 780.3,25.0" style="fill:#121212; stroke-opacity:1; fill-opacity:1"/>
  <line x1="840.8" y1="35.0" x2="840.8" y2="65.0" style="stroke:#121212; stroke-width:0.8; stroke-opacity:1"/>
  <text style="" text-anchor="middle">
<tspan x="782.8" y="16.0" style="font-size:18px;fill:#121212;" >+1</tspan>  </text>
  <text style="" text-anchor="middle">
<tspan x="840.4" y="26.0" style="font-size:18px;fill:#121212;" >-1</tspan>  </text>
  <line x1="862" y1="50.0" x2="882" y2="50.0" style="stroke:#999; stroke-width:3;" />
  <line x1="882" y1="50.0" x2="882" y2="50.0" style="stroke:#999; stroke-width:3;" />
  <line x1="882" y1="50.0" x2="882" y2="50.0" style="stroke:#999; stroke-width:3;" />
  <line x1="882" y1="50.0" x2="902" y2="50.0" style="stroke:#999; stroke-width:3;" />
  <rect class="anc_exon" x="902" y="35.0" width="177" height="30" style="fill:#878787;fill-opacity:1.00" />
  <line x1="1079" y1="50.0" x2="1099" y2="50.0" style="stroke:#999; stroke-width:3;" />
  <line x1="1099" y1="50.0" x2="1099" y2="50.0" style="stroke:#999; stroke-width:3;" />
  <line x1="1099" y1="50.0" x2="1099" y2="50.0" style="stroke:#999; stroke-width:3;" />
  <line x1="1099" y1="50.0" x2="1119" y2="50.0" style="stroke:#999; stroke-width:3;" />
  <rect class="anc_exon" x="1119" y="35.0" width="282" height="30" style="fill:#87bcbc;fill-opacity:1.00" />
  <line x1="1181.0" y1="35.0" x2="1181.0" y2="65.0" style="stroke:#121212; stroke-width:0.8; stroke-opacity:1"/>
  <polygon points="1255.0,35.0 1257.5,25.0 1252.5,25.0" style="fill:#121212; stroke-opacity:1; fill-opacity:1"/>
  <polygon points="1329.4,35.0 1331.9,25.0 1326.9,25.0" style="fill:#121212; stroke-opacity:1; fill-opacity:1"/>
  <line x1="1351.4" y1="35.0" x2="1351.4" y2="65.0" style="stroke:#121212; stroke-width:0.8; stroke-opacity:1"/>
  <line x1="1397.4" y1="35.0" x2="1397.4" y2="65.0" style="stroke:#121212;stroke-width:3;"/>
  <text style="" text-anchor="middle">
<tspan x="1180.6" y="26.0" style="font-size:18px;fill:#121212;" >-1</tspan>  </text>
  <text style="" text-anchor="middle">
<tspan x="1255.0" y="16.0" style="font-size:18px;fill:#121212;" >+1</tspan>  </text>
  <text style="" text-anchor="middle">
<tspan x="1340.2" y="16.0" style="font-size:18px;fill:#121212;" >+1</tspan><tspan x="1340.2" y="-2.0" style="font-size:18px;fill:#121212;" >-1</tspan>  </text>
  <text style="" text-anchor="middle">
<tspan x="1396.6" y="26.0" style="font-size:18px;fill:#121212;" >TAA</tspan>  </text>
  <line x1="1401" y1="50.0" x2="1441" y2="50.0" style="stroke:#999; stroke-width:3;" />
  <rect class="anc_exon" x="1441" y="35.0" width="110" height="30" style="fill:#87bcbc;fill-opacity:1.00" />
  <line x1="1551" y1="50.0" x2="1591" y2="50.0" style="stroke:#999; stroke-width:3;" />
  <rect class="anc_exon" x="1591" y="35.0" width="152" height="30" style="fill:#878787;fill-opacity:1.00" />
  <line x1="1743" y1="50.0" x2="1783" y2="50.0" style="stroke:#999; stroke-width:3;" />
  <rect class="anc_exon" x="1783" y="35.0" width="154" height="30" style="fill:#87bcbc;fill-opacity:1.00" />
  <polygon points="1800.6,35.0 1803.1,25.0 1798.1,25.0" style="fill:#121212; stroke-opacity:1; fill-opacity:1"/>
  <polygon points="1810.2,35.0 1812.7,25.0 1807.7,25.0" style="fill:#121212; stroke-opacity:1; fill-opacity:1"/>
  <polygon points="1831.8,35.0 1834.3,25.0 1829.3,25.0" style="fill:#121212; stroke-opacity:1; fill-opacity:1"/>
  <polygon points="1843.8,35.0 1846.3,25.0 1841.3,25.0" style="fill:#121212; stroke-opacity:1; fill-opacity:1"/>
  <line x1="1873.0" y1="35.0" x2="1873.0" y2="65.0" style="stroke:#121212; stroke-width:0.8; stroke-opacity:1"/>
  <polygon points="1908.6,35.0 1911.1,25.0 1906.1,25.0" style="fill:#121212; stroke-opacity:1; fill-opacity:1"/>
  <line x1="1909.4" y1="35.0" x2="1909.4" y2="65.0" style="stroke:#878787;stroke-width:3;"/>
  <line x1="1911.4" y1="35.0" x2="1911.4" y2="65.0" style="stroke:#121212; stroke-width:0.8; stroke-opacity:1"/>
  <text style="" text-anchor="middle">
<tspan x="1805.4" y="16.0" style="font-size:18px;fill:#121212;" >+1</tspan><tspan x="1805.4" y="-2.0" style="font-size:18px;fill:#121212;" >+2</tspan>  </text>
  <text style="" text-anchor="middle">
<tspan x="1837.8" y="16.0" style="font-size:18px;fill:#121212;" >+2</tspan><tspan x="1837.8" y="-2.0" style="font-size:18px;fill:#121212;" >+2</tspan>  </text>
  <text style="" text-anchor="middle">
<tspan x="1872.6" y="26.0" style="font-size:18px;fill:#121212;" >-1</tspan>  </text>
  <text style="" text-anchor="middle">
<tspan x="1909.8" y="26.0" style="font-size:18px;fill:#878787;" >TAA</tspan><tspan x="1909.8" y="8.0" style="font-size:18px;fill:#121212;" >-1</tspan>  </text>
  <line x1="1937" y1="50.0" x2="1977" y2="50.0" style="stroke:#999; stroke-width:3;" />
  <rect class="anc_exon" x="1977" y="35.0" width="56" height="30" style="fill:#87bcbc;fill-opacity:1.00" />
  <line x1="1991.8" y1="35.0" x2="1991.8" y2="65.0" style="stroke:#121212; stroke-width:0.8; stroke-opacity:1"/>
  <line x1="2030.2" y1="35.0" x2="2030.2" y2="65.0" style="stroke:#121212; stroke-width:0.8; stroke-opacity:1"/>
  <text style="" text-anchor="middle">
<tspan x="1991.4" y="26.0" style="font-size:18px;fill:#121212;" >-1</tspan>  </text>
  <text style="" text-anchor="middle">
<tspan x="2029.8" y="26.0" style="font-size:18px;fill:#121212;" >-1</tspan>  </text>
  <line x1="2033" y1="50.0" x2="2073" y2="50.0" style="stroke:#999; stroke-width:3;" />
  <rect class="anc_exon" x="2073" y="35.0" width="92" height="30" style="fill:#87bcbc;fill-opacity:1.00" />
  <line x1="2165" y1="50.0" x2="2185" y2="50.0" style="stroke:#999; stroke-width:3;" />
  <line x1="2185" y1="50.0" x2="2185" y2="50.0" style="stroke:#999; stroke-width:3;" />
  <line x1="2185" y1="50.0" x2="2185" y2="50.0" style="stroke:#999; stroke-width:3;" />
  <line x1="2185" y1="50.0" x2="2205" y2="50.0" style="stroke:#999; stroke-width:3;" />
  <rect class="anc_exon" x="2205" y="35.0" width="228" height="30" style="fill:#878787;fill-opacity:1.00" />
  <line x1="2433" y1="50.0" x2="2453" y2="50.0" style="stroke:#999; stroke-width:3;" />
  <line x1="2453" y1="50.0" x2="2453" y2="50.0" style="stroke:#999; stroke-width:3;" />
  <line x1="2453" y1="50.0" x2="2453" y2="50.0" style="stroke:#999; stroke-width:3;" />
  <line x1="2453" y1="50.0" x2="2473" y2="50.0" style="stroke:#999; stroke-width:3;" />
  <rect class="anc_exon" x="2473" y="35.0" width="173" height="30" style="fill:#87bcbc;fill-opacity:1.00" />
  <rect class="anc_exon" x="2646" y="35.0" width="0" height="30" style="fill:#87bcbc;fill-opacity:1.00" />
  <text style="" >
<tspan x="0" y="83.0" style="font-size:18px;" >SP XM_031968552_1.1</tspan>  </text>
  <text style="fill:#121212;" >
<tspan x="862" y="50.0" style="font-size:18px;fill:#121212;" >ag</tspan>  </text>
  <text style="fill:#121212;" >
<tspan x="1759.96" y="68.0" style="font-size:18px;fill:#121212;" >aa</tspan>  </text>



<script type="text/ecmascript">
<![CDATA[
function draw_bbox(text_id)
{
    var text_elem = document.getElementById(text_id);
    var offset_px = 2;
    var offset_py = 0;
    bbox = text_elem.getBBox();
    var box = document.createElementNS(document.rootElement.namespaceURI,'rect');
    box.setAttribute('x', bbox.x - offset_px);
    box.setAttribute('y', bbox.y - offset_py);
    box.setAttribute('width', bbox.width + offset_px * 2);
    box.setAttribute('height', bbox.height + offset_py * 2);
    box.setAttribute('style','fill: white;'+'stroke: black;'+'stroke-width: 1px;');
    text_elem.insertBefore(box,text_elem.childNodes[0]);

    var svg = text_elem.parentNode;
    svg.appendChild(text_elem);
}

for (var i=1; i < 1; i++)
{
draw_bbox("Mouseover" + i);
}
]]> 
</script>
</svg>
