<svg version="1.1"
xmlns="http://www.w3.org/2000/svg"
xmlns:xlink="http://www.w3.org/1999/xlink"
width="3654" height="100" viewBox = "0 0 3654 100"
onclick="mouseclick(evt)">

<script type="text/ecmascript">

<![CDATA[
    function mouseover(evt, target) { 
    var gv = document.getElementById("globalVariable");
    var previoustarget = gv.firstChild.nodeValue;
    if (previoustarget != "none") 
    {
        	document.getElementById(gv.firstChild.nodeValue).setAttributeNS(null, "visibility", "hidden");
    }
    document.getElementById(target).setAttributeNS(null, "visibility", "visible");
    gv.firstChild.nodeValue = target;
        }

    function mouseclick(evt) { 
    var gv = document.getElementById("globalVariable");
    var previoustarget = gv.firstChild.nodeValue;
    if (previoustarget != "none") {
        	document.getElementById(gv.firstChild.nodeValue).setAttributeNS(null, "visibility", "hidden");
        }
    }
]]>
  </script>
<style type="text/css" >

<![CDATA[
    rect.anc_exon {
              stroke-width:3;
                  }

    rect.non_anc_exon {
              stroke: black; stroke-width:3; stroke-dasharray: 5,5;
                    }

    text {
              font-size: 18px;
              font-family: Courier New;
          }
                    ]]>
</style>

<defs>
    <text x="150" y="40" id="globalVariable">none</text>
</defs>

  <rect class="anc_exon" x="0" y="35.0" width="0" height="30" style="fill:#87bcbc;fill-opacity:1.00" />
  <rect class="anc_exon" x="0" y="35.0" width="99.2" height="30" style="fill:#87bcbc;fill-opacity:1.00" />
  <line x1="99.2" y1="50.0" x2="118.2" y2="50.0" style="stroke:#999; stroke-width:3;" />
  <line x1="118.2" y1="50.0" x2="118.2" y2="50.0" style="stroke:#999; stroke-width:3;" />
  <line x1="118.2" y1="50.0" x2="118.2" y2="50.0" style="stroke:#999; stroke-width:3;" />
  <line x1="118.2" y1="50.0" x2="139.0" y2="50.0" style="stroke:#999; stroke-width:3;" />
  <rect class="anc_exon" x="139" y="35.0" width="241" height="30" style="fill:#878787;fill-opacity:1.00" />
  <line x1="380" y1="50.0" x2="400" y2="50.0" style="stroke:#999; stroke-width:3;" />
  <line x1="400" y1="50.0" x2="400" y2="50.0" style="stroke:#999; stroke-width:3;" />
  <line x1="400" y1="50.0" x2="400" y2="50.0" style="stroke:#999; stroke-width:3;" />
  <line x1="400" y1="50.0" x2="420" y2="50.0" style="stroke:#999; stroke-width:3;" />
  <rect class="anc_exon" x="420" y="35.0" width="19" height="30" style="fill:#87bcbc;fill-opacity:1.00" />
  <line x1="439" y1="50.0" x2="459" y2="50.0" style="stroke:#999; stroke-width:3;" />
  <line x1="459" y1="50.0" x2="459" y2="50.0" style="stroke:#999; stroke-width:3;" />
  <line x1="459" y1="50.0" x2="459" y2="50.0" style="stroke:#999; stroke-width:3;" />
  <line x1="459" y1="50.0" x2="479" y2="50.0" style="stroke:#999; stroke-width:3;" />
  <rect class="anc_exon" x="479" y="35.0" width="156" height="30" style="fill:#87bcbc;fill-opacity:1.00" />
  <line x1="635" y1="50.0" x2="675" y2="50.0" style="stroke:#999; stroke-width:3;" />
  <rect class="anc_exon" x="675" y="35.0" width="159" height="30" style="fill:#87bcbc;fill-opacity:1.00" />
  <line x1="834" y1="50.0" x2="874" y2="50.0" style="stroke:#999; stroke-width:3;" />
  <rect class="anc_exon" x="874" y="35.0" width="75" height="30" style="fill:#87bcbc;fill-opacity:1.00" />
  <line x1="949" y1="50.0" x2="969" y2="50.0" style="stroke:#999; stroke-width:3;" />
  <line x1="969" y1="50.0" x2="969" y2="50.0" style="stroke:#999; stroke-width:3;" />
  <line x1="969" y1="50.0" x2="969" y2="50.0" style="stroke:#999; stroke-width:3;" />
  <line x1="969" y1="50.0" x2="989" y2="50.0" style="stroke:#999; stroke-width:3;" />
  <rect class="anc_exon" x="989" y="35.0" width="680" height="30" style="fill:#878787;fill-opacity:1.00" />
  <line x1="1669" y1="50.0" x2="1709" y2="50.0" style="stroke:#999; stroke-width:3;" />
  <rect class="anc_exon" x="1709" y="35.0" width="74" height="30" style="fill:#87bcbc;fill-opacity:1.00" />
  <line x1="1783" y1="50.0" x2="1823" y2="50.0" style="stroke:#999; stroke-width:3;" />
  <rect class="anc_exon" x="1823" y="35.0" width="35" height="30" style="fill:#87bcbc;fill-opacity:1.00" />
  <line x1="1858" y1="50.0" x2="1898" y2="50.0" style="stroke:#999; stroke-width:3;" />
  <rect class="anc_exon" x="1898" y="35.0" width="150" height="30" style="fill:#87bcbc;fill-opacity:1.00" />
  <line x1="2048" y1="50.0" x2="2088" y2="50.0" style="stroke:#999; stroke-width:3;" />
  <rect class="anc_exon" x="2088" y="35.0" width="140" height="30" style="fill:#87bcbc;fill-opacity:1.00" />
  <line x1="2228" y1="50.0" x2="2248" y2="50.0" style="stroke:#999; stroke-width:3;" />
  <line x1="2248" y1="50.0" x2="2248" y2="50.0" style="stroke:#999; stroke-width:3;" />
  <line x1="2248" y1="50.0" x2="2248" y2="50.0" style="stroke:#999; stroke-width:3;" />
  <line x1="2248" y1="50.0" x2="2268" y2="50.0" style="stroke:#999; stroke-width:3;" />
  <rect class="anc_exon" x="2268" y="35.0" width="104" height="30" style="fill:#87bcbc;fill-opacity:1.00" />
  <line x1="2372" y1="50.0" x2="2392" y2="50.0" style="stroke:#999; stroke-width:3;" />
  <line x1="2392" y1="50.0" x2="2392" y2="50.0" style="stroke:#999; stroke-width:3;" />
  <line x1="2392" y1="50.0" x2="2392" y2="50.0" style="stroke:#999; stroke-width:3;" />
  <line x1="2392" y1="50.0" x2="2412" y2="50.0" style="stroke:#999; stroke-width:3;" />
  <rect class="anc_exon" x="2412" y="35.0" width="118" height="30" style="fill:#87bcbc;fill-opacity:1.00" />
  <line x1="2530" y1="50.0" x2="2570" y2="50.0" style="stroke:#999; stroke-width:3;" />
  <rect class="anc_exon" x="2570" y="35.0" width="197" height="30" style="fill:#87bcbc;fill-opacity:1.00" />
  <line x1="2767" y1="50.0" x2="2807" y2="50.0" style="stroke:#999; stroke-width:3;" />
  <rect class="anc_exon" x="2807" y="35.0" width="185" height="30" style="fill:#87bcbc;fill-opacity:1.00" />
  <line x1="2992" y1="50.0" x2="3032" y2="50.0" style="stroke:#999; stroke-width:3;" />
  <rect class="anc_exon" x="3032" y="35.0" width="124" height="30" style="fill:#87bcbc;fill-opacity:1.00" />
  <line x1="3156" y1="50.0" x2="3196" y2="50.0" style="stroke:#999; stroke-width:3;" />
  <rect class="anc_exon" x="3196" y="35.0" width="122" height="30" style="fill:#87bcbc;fill-opacity:1.00" />
  <line x1="3318" y1="50.0" x2="3338" y2="50.0" style="stroke:#999; stroke-width:3;" />
  <line x1="3338" y1="50.0" x2="3338" y2="50.0" style="stroke:#999; stroke-width:3;" />
  <line x1="3338" y1="50.0" x2="3338" y2="50.0" style="stroke:#999; stroke-width:3;" />
  <line x1="3338" y1="50.0" x2="3358" y2="50.0" style="stroke:#999; stroke-width:3;" />
  <rect class="anc_exon" x="3358" y="35.0" width="112" height="30" style="fill:#87bcbc;fill-opacity:1.00" />
  <line x1="3470" y1="50.0" x2="3490" y2="50.0" style="stroke:#999; stroke-width:3;" />
  <line x1="3490" y1="50.0" x2="3490" y2="50.0" style="stroke:#999; stroke-width:3;" />
  <line x1="3490" y1="50.0" x2="3490" y2="50.0" style="stroke:#999; stroke-width:3;" />
  <line x1="3490" y1="50.0" x2="3510" y2="50.0" style="stroke:#999; stroke-width:3;" />
  <rect class="anc_exon" x="3510" y="35.0" width="108" height="30" style="fill:#87bcbc;fill-opacity:1.00" />
  <rect class="anc_exon" x="3618" y="35.0" width="0" height="30" style="fill:#87bcbc;fill-opacity:1.00" />
  <text style="" >
<tspan x="0" y="83.0" style="font-size:18px;" >SP XM_031966152_1.1</tspan>  </text>
  <text style="fill:#121212;" >
<tspan x="3172.96" y="68.0" style="font-size:18px;fill:#121212;" >nn</tspan>  </text>



<script type="text/ecmascript">
<![CDATA[
function draw_bbox(text_id)
{
    var text_elem = document.getElementById(text_id);
    var offset_px = 2;
    var offset_py = 0;
    bbox = text_elem.getBBox();
    var box = document.createElementNS(document.rootElement.namespaceURI,'rect');
    box.setAttribute('x', bbox.x - offset_px);
    box.setAttribute('y', bbox.y - offset_py);
    box.setAttribute('width', bbox.width + offset_px * 2);
    box.setAttribute('height', bbox.height + offset_py * 2);
    box.setAttribute('style','fill: white;'+'stroke: black;'+'stroke-width: 1px;');
    text_elem.insertBefore(box,text_elem.childNodes[0]);

    var svg = text_elem.parentNode;
    svg.appendChild(text_elem);
}

for (var i=1; i < 1; i++)
{
draw_bbox("Mouseover" + i);
}
]]> 
</script>
</svg>
