<svg version="1.1"
xmlns="http://www.w3.org/2000/svg"
xmlns:xlink="http://www.w3.org/1999/xlink"
width="3109" height="100" viewBox = "0 0 3109 100"
onclick="mouseclick(evt)">

<script type="text/ecmascript">

<![CDATA[
    function mouseover(evt, target) { 
    var gv = document.getElementById("globalVariable");
    var previoustarget = gv.firstChild.nodeValue;
    if (previoustarget != "none") 
    {
        	document.getElementById(gv.firstChild.nodeValue).setAttributeNS(null, "visibility", "hidden");
    }
    document.getElementById(target).setAttributeNS(null, "visibility", "visible");
    gv.firstChild.nodeValue = target;
        }

    function mouseclick(evt) { 
    var gv = document.getElementById("globalVariable");
    var previoustarget = gv.firstChild.nodeValue;
    if (previoustarget != "none") {
        	document.getElementById(gv.firstChild.nodeValue).setAttributeNS(null, "visibility", "hidden");
        }
    }
]]>
  </script>
<style type="text/css" >

<![CDATA[
    rect.anc_exon {
              stroke-width:3;
                  }

    rect.non_anc_exon {
              stroke: black; stroke-width:3; stroke-dasharray: 5,5;
                    }

    text {
              font-size: 18px;
              font-family: Courier New;
          }
                    ]]>
</style>

<defs>
    <text x="150" y="40" id="globalVariable">none</text>
</defs>

  <rect class="anc_exon" x="0" y="35.0" width="0" height="30" style="fill:#87bcbc;fill-opacity:1.00" />
  <rect class="anc_exon" x="0" y="35.0" width="76.80000000000001" height="30" style="fill:#87bcbc;fill-opacity:1.00" />
  <line x1="76.80000000000001" y1="50.0" x2="95.80000000000001" y2="50.0" style="stroke:#999; stroke-width:3;" />
  <line x1="95.80000000000001" y1="50.0" x2="95.80000000000001" y2="50.0" style="stroke:#999; stroke-width:3;" />
  <line x1="95.80000000000001" y1="50.0" x2="95.80000000000001" y2="50.0" style="stroke:#999; stroke-width:3;" />
  <line x1="95.80000000000001" y1="50.0" x2="116.0" y2="50.0" style="stroke:#999; stroke-width:3;" />
  <rect class="anc_exon" x="116" y="35.0" width="589" height="30" style="fill:#87bcbc;fill-opacity:1.00" />
  <line x1="705" y1="50.0" x2="725" y2="50.0" style="stroke:#999; stroke-width:3;" />
  <line x1="725" y1="50.0" x2="725" y2="50.0" style="stroke:#999; stroke-width:3;" />
  <line x1="725" y1="50.0" x2="725" y2="50.0" style="stroke:#999; stroke-width:3;" />
  <line x1="725" y1="50.0" x2="745" y2="50.0" style="stroke:#999; stroke-width:3;" />
  <rect class="anc_exon" x="745" y="35.0" width="112" height="30" style="fill:#87bcbc;fill-opacity:1.00" />
  <line x1="857" y1="50.0" x2="877" y2="50.0" style="stroke:#999; stroke-width:3;" />
  <line x1="877" y1="50.0" x2="877" y2="50.0" style="stroke:#999; stroke-width:3;" />
  <line x1="877" y1="50.0" x2="877" y2="50.0" style="stroke:#999; stroke-width:3;" />
  <line x1="877" y1="50.0" x2="897" y2="50.0" style="stroke:#999; stroke-width:3;" />
  <rect class="anc_exon" x="897" y="35.0" width="113" height="30" style="fill:#87bcbc;fill-opacity:1.00" />
  <line x1="1010" y1="50.0" x2="1050" y2="50.0" style="stroke:#999; stroke-width:3;" />
  <rect class="anc_exon" x="1050" y="35.0" width="133" height="30" style="fill:#87bcbc;fill-opacity:1.00" />
  <line x1="1183" y1="50.0" x2="1223" y2="50.0" style="stroke:#999; stroke-width:3;" />
  <rect class="anc_exon" x="1223" y="35.0" width="96" height="30" style="fill:#87bcbc;fill-opacity:1.00" />
  <line x1="1319" y1="50.0" x2="1359" y2="50.0" style="stroke:#999; stroke-width:3;" />
  <rect class="anc_exon" x="1359" y="35.0" width="118" height="30" style="fill:#87bcbc;fill-opacity:1.00" />
  <line x1="1477" y1="50.0" x2="1517" y2="50.0" style="stroke:#999; stroke-width:3;" />
  <rect class="anc_exon" x="1517" y="35.0" width="145" height="30" style="fill:#87bcbc;fill-opacity:1.00" />
  <line x1="1662" y1="50.0" x2="1702" y2="50.0" style="stroke:#999; stroke-width:3;" />
  <rect class="anc_exon" x="1702" y="35.0" width="21" height="30" style="fill:#87bcbc;fill-opacity:1.00" />
  <line x1="1723" y1="50.0" x2="1763" y2="50.0" style="stroke:#999; stroke-width:3;" />
  <rect class="anc_exon" x="1763" y="35.0" width="108" height="30" style="fill:#878787;fill-opacity:1.00" />
  <line x1="1871" y1="50.0" x2="1911" y2="50.0" style="stroke:#999; stroke-width:3;" />
  <rect class="anc_exon" x="1911" y="35.0" width="115" height="30" style="fill:#878787;fill-opacity:1.00" />
  <line x1="2026" y1="50.0" x2="2066" y2="50.0" style="stroke:#999; stroke-width:3;" />
  <rect class="anc_exon" x="2066" y="35.0" width="64" height="30" style="fill:#87bcbc;fill-opacity:1.00" />
  <line x1="2130" y1="50.0" x2="2150" y2="50.0" style="stroke:#999; stroke-width:3;" />
  <line x1="2150" y1="50.0" x2="2150" y2="50.0" style="stroke:#999; stroke-width:3;" />
  <line x1="2150" y1="50.0" x2="2150" y2="50.0" style="stroke:#999; stroke-width:3;" />
  <line x1="2150" y1="50.0" x2="2170" y2="50.0" style="stroke:#999; stroke-width:3;" />
  <rect class="anc_exon" x="2170" y="35.0" width="110" height="30" style="fill:#87bcbc;fill-opacity:1.00" />
  <line x1="2280" y1="50.0" x2="2320" y2="50.0" style="stroke:#999; stroke-width:3;" />
  <rect class="anc_exon" x="2320" y="35.0" width="77" height="30" style="fill:#87bcbc;fill-opacity:1.00" />
  <line x1="2397" y1="50.0" x2="2417" y2="50.0" style="stroke:#999; stroke-width:3;" />
  <line x1="2417" y1="50.0" x2="2417" y2="50.0" style="stroke:#999; stroke-width:3;" />
  <line x1="2417" y1="50.0" x2="2417" y2="50.0" style="stroke:#999; stroke-width:3;" />
  <line x1="2417" y1="50.0" x2="2437" y2="50.0" style="stroke:#999; stroke-width:3;" />
  <rect class="anc_exon" x="2437" y="35.0" width="42" height="30" style="fill:#87bcbc;fill-opacity:1.00" />
  <line x1="2479" y1="50.0" x2="2519" y2="50.0" style="stroke:#999; stroke-width:3;" />
  <rect class="anc_exon" x="2519" y="35.0" width="53" height="30" style="fill:#87bcbc;fill-opacity:1.00" />
  <line x1="2572" y1="50.0" x2="2612" y2="50.0" style="stroke:#999; stroke-width:3;" />
  <rect class="anc_exon" x="2612" y="35.0" width="47" height="30" style="fill:#87bcbc;fill-opacity:1.00" />
  <line x1="2659" y1="50.0" x2="2679" y2="50.0" style="stroke:#999; stroke-width:3;" />
  <line x1="2679" y1="50.0" x2="2679" y2="50.0" style="stroke:#999; stroke-width:3;" />
  <line x1="2679" y1="50.0" x2="2679" y2="50.0" style="stroke:#999; stroke-width:3;" />
  <line x1="2679" y1="50.0" x2="2699" y2="50.0" style="stroke:#999; stroke-width:3;" />
  <rect class="anc_exon" x="2699" y="35.0" width="72" height="30" style="fill:#87bcbc;fill-opacity:1.00" />
  <line x1="2771" y1="50.0" x2="2811" y2="50.0" style="stroke:#999; stroke-width:3;" />
  <rect class="anc_exon" x="2811" y="35.0" width="145" height="30" style="fill:#87bcbc;fill-opacity:1.00" />
  <line x1="2956" y1="50.0" x2="2996" y2="50.0" style="stroke:#999; stroke-width:3;" />
  <rect class="anc_exon" x="2996" y="35.0" width="77" height="30" style="fill:#87bcbc;fill-opacity:1.00" />
  <rect class="anc_exon" x="3073" y="35.0" width="0" height="30" style="fill:#87bcbc;fill-opacity:1.00" />
  <text style="" >
<tspan x="0" y="83.0" style="font-size:18px;" >SP XM_031969261_1.1</tspan>  </text>



<script type="text/ecmascript">
<![CDATA[
function draw_bbox(text_id)
{
    var text_elem = document.getElementById(text_id);
    var offset_px = 2;
    var offset_py = 0;
    bbox = text_elem.getBBox();
    var box = document.createElementNS(document.rootElement.namespaceURI,'rect');
    box.setAttribute('x', bbox.x - offset_px);
    box.setAttribute('y', bbox.y - offset_py);
    box.setAttribute('width', bbox.width + offset_px * 2);
    box.setAttribute('height', bbox.height + offset_py * 2);
    box.setAttribute('style','fill: white;'+'stroke: black;'+'stroke-width: 1px;');
    text_elem.insertBefore(box,text_elem.childNodes[0]);

    var svg = text_elem.parentNode;
    svg.appendChild(text_elem);
}

for (var i=1; i < 1; i++)
{
draw_bbox("Mouseover" + i);
}
]]> 
</script>
</svg>
