<svg version="1.1"
xmlns="http://www.w3.org/2000/svg"
xmlns:xlink="http://www.w3.org/1999/xlink"
width="3253" height="100" viewBox = "0 0 3253 100"
onclick="mouseclick(evt)">

<script type="text/ecmascript">

<![CDATA[
    function mouseover(evt, target) { 
    var gv = document.getElementById("globalVariable");
    var previoustarget = gv.firstChild.nodeValue;
    if (previoustarget != "none") 
    {
        	document.getElementById(gv.firstChild.nodeValue).setAttributeNS(null, "visibility", "hidden");
    }
    document.getElementById(target).setAttributeNS(null, "visibility", "visible");
    gv.firstChild.nodeValue = target;
        }

    function mouseclick(evt) { 
    var gv = document.getElementById("globalVariable");
    var previoustarget = gv.firstChild.nodeValue;
    if (previoustarget != "none") {
        	document.getElementById(gv.firstChild.nodeValue).setAttributeNS(null, "visibility", "hidden");
        }
    }
]]>
  </script>
<style type="text/css" >

<![CDATA[
    rect.anc_exon {
              stroke-width:3;
                  }

    rect.non_anc_exon {
              stroke: black; stroke-width:3; stroke-dasharray: 5,5;
                    }

    text {
              font-size: 18px;
              font-family: Courier New;
          }
                    ]]>
</style>

<defs>
    <text x="150" y="40" id="globalVariable">none</text>
</defs>

  <rect class="anc_exon" x="0" y="35.0" width="0" height="30" style="fill:#87bcbc;fill-opacity:1.00" />
  <rect class="anc_exon" x="0" y="35.0" width="48.0" height="30" style="fill:#87bcbc;fill-opacity:1.00" />
  <line x1="48.0" y1="50.0" x2="68.0" y2="50.0" style="stroke:#999; stroke-width:3;" />
  <line x1="68.0" y1="50.0" x2="68.0" y2="50.0" style="stroke:#999; stroke-width:3;" />
  <line x1="68.0" y1="50.0" x2="68.0" y2="50.0" style="stroke:#999; stroke-width:3;" />
  <line x1="68.0" y1="50.0" x2="88.0" y2="50.0" style="stroke:#999; stroke-width:3;" />
  <rect class="anc_exon" x="88" y="35.0" width="116" height="30" style="fill:#87bcbc;fill-opacity:1.00" />
  <line x1="204" y1="50.0" x2="224" y2="50.0" style="stroke:#999; stroke-width:3;" />
  <line x1="224" y1="50.0" x2="224" y2="50.0" style="stroke:#999; stroke-width:3;" />
  <line x1="224" y1="50.0" x2="224" y2="50.0" style="stroke:#999; stroke-width:3;" />
  <line x1="224" y1="50.0" x2="244" y2="50.0" style="stroke:#999; stroke-width:3;" />
  <rect class="anc_exon" x="244" y="35.0" width="54" height="30" style="fill:#87bcbc;fill-opacity:1.00" />
  <line x1="298" y1="50.0" x2="338" y2="50.0" style="stroke:#999; stroke-width:3;" />
  <rect class="anc_exon" x="338" y="35.0" width="51" height="30" style="fill:#87bcbc;fill-opacity:1.00" />
  <line x1="389" y1="50.0" x2="429" y2="50.0" style="stroke:#999; stroke-width:3;" />
  <rect class="anc_exon" x="429" y="35.0" width="104" height="30" style="fill:#87bcbc;fill-opacity:1.00" />
  <line x1="533" y1="50.0" x2="573" y2="50.0" style="stroke:#999; stroke-width:3;" />
  <rect class="anc_exon" x="573" y="35.0" width="88" height="30" style="fill:#87bcbc;fill-opacity:1.00" />
  <line x1="661" y1="50.0" x2="701" y2="50.0" style="stroke:#999; stroke-width:3;" />
  <rect class="anc_exon" x="701" y="35.0" width="117" height="30" style="fill:#87bcbc;fill-opacity:1.00" />
  <line x1="818" y1="50.0" x2="858" y2="50.0" style="stroke:#999; stroke-width:3;" />
  <rect class="anc_exon" x="858" y="35.0" width="200" height="30" style="fill:#87bcbc;fill-opacity:1.00" />
  <line x1="1058" y1="50.0" x2="1098" y2="50.0" style="stroke:#999; stroke-width:3;" />
  <rect class="anc_exon" x="1098" y="35.0" width="100" height="30" style="fill:#87bcbc;fill-opacity:1.00" />
  <line x1="1198" y1="50.0" x2="1238" y2="50.0" style="stroke:#999; stroke-width:3;" />
  <rect class="anc_exon" x="1238" y="35.0" width="94" height="30" style="fill:#87bcbc;fill-opacity:1.00" />
  <line x1="1332" y1="50.0" x2="1372" y2="50.0" style="stroke:#999; stroke-width:3;" />
  <rect class="anc_exon" x="1372" y="35.0" width="199" height="30" style="fill:#87bcbc;fill-opacity:1.00" />
  <line x1="1571" y1="50.0" x2="1611" y2="50.0" style="stroke:#999; stroke-width:3;" />
  <rect class="anc_exon" x="1611" y="35.0" width="61" height="30" style="fill:#87bcbc;fill-opacity:1.00" />
  <line x1="1672" y1="50.0" x2="1712" y2="50.0" style="stroke:#999; stroke-width:3;" />
  <rect class="anc_exon" x="1712" y="35.0" width="136" height="30" style="fill:#87bcbc;fill-opacity:1.00" />
  <line x1="1848" y1="50.0" x2="1888" y2="50.0" style="stroke:#999; stroke-width:3;" />
  <rect class="anc_exon" x="1888" y="35.0" width="54" height="30" style="fill:#87bcbc;fill-opacity:1.00" />
  <line x1="1942" y1="50.0" x2="1982" y2="50.0" style="stroke:#999; stroke-width:3;" />
  <rect class="anc_exon" x="1982" y="35.0" width="160" height="30" style="fill:#87bcbc;fill-opacity:1.00" />
  <line x1="2142" y1="50.0" x2="2182" y2="50.0" style="stroke:#999; stroke-width:3;" />
  <rect class="anc_exon" x="2182" y="35.0" width="96" height="30" style="fill:#87bcbc;fill-opacity:1.00" />
  <line x1="2278" y1="50.0" x2="2318" y2="50.0" style="stroke:#999; stroke-width:3;" />
  <rect class="anc_exon" x="2318" y="35.0" width="54" height="30" style="fill:#87bcbc;fill-opacity:1.00" />
  <line x1="2372" y1="50.0" x2="2412" y2="50.0" style="stroke:#999; stroke-width:3;" />
  <rect class="anc_exon" x="2412" y="35.0" width="28" height="30" style="fill:#87bcbc;fill-opacity:1.00" />
  <line x1="2440" y1="50.0" x2="2480" y2="50.0" style="stroke:#999; stroke-width:3;" />
  <rect class="anc_exon" x="2480" y="35.0" width="40" height="30" style="fill:#87bcbc;fill-opacity:1.00" />
  <line x1="2520" y1="50.0" x2="2560" y2="50.0" style="stroke:#999; stroke-width:3;" />
  <rect class="anc_exon" x="2560" y="35.0" width="362" height="30" style="fill:#87bcbc;fill-opacity:1.00" />
  <line x1="2922" y1="50.0" x2="2962" y2="50.0" style="stroke:#999; stroke-width:3;" />
  <rect class="anc_exon" x="2962" y="35.0" width="156" height="30" style="fill:#87bcbc;fill-opacity:1.00" />
  <line x1="3118" y1="50.0" x2="3158" y2="50.0" style="stroke:#999; stroke-width:3;" />
  <rect class="anc_exon" x="3158" y="35.0" width="59" height="30" style="fill:#87bcbc;fill-opacity:1.00" />
  <rect class="anc_exon" x="3217" y="35.0" width="0" height="30" style="fill:#87bcbc;fill-opacity:1.00" />
  <text style="" >
<tspan x="0" y="83.0" style="font-size:18px;" >SP XM_031966747_1.1</tspan>  </text>



<script type="text/ecmascript">
<![CDATA[
function draw_bbox(text_id)
{
    var text_elem = document.getElementById(text_id);
    var offset_px = 2;
    var offset_py = 0;
    bbox = text_elem.getBBox();
    var box = document.createElementNS(document.rootElement.namespaceURI,'rect');
    box.setAttribute('x', bbox.x - offset_px);
    box.setAttribute('y', bbox.y - offset_py);
    box.setAttribute('width', bbox.width + offset_px * 2);
    box.setAttribute('height', bbox.height + offset_py * 2);
    box.setAttribute('style','fill: white;'+'stroke: black;'+'stroke-width: 1px;');
    text_elem.insertBefore(box,text_elem.childNodes[0]);

    var svg = text_elem.parentNode;
    svg.appendChild(text_elem);
}

for (var i=1; i < 1; i++)
{
draw_bbox("Mouseover" + i);
}
]]> 
</script>
</svg>
