<svg version="1.1"
xmlns="http://www.w3.org/2000/svg"
xmlns:xlink="http://www.w3.org/1999/xlink"
width="4340" height="100" viewBox = "0 0 4340 100"
onclick="mouseclick(evt)">

<script type="text/ecmascript">

<![CDATA[
    function mouseover(evt, target) { 
    var gv = document.getElementById("globalVariable");
    var previoustarget = gv.firstChild.nodeValue;
    if (previoustarget != "none") 
    {
        	document.getElementById(gv.firstChild.nodeValue).setAttributeNS(null, "visibility", "hidden");
    }
    document.getElementById(target).setAttributeNS(null, "visibility", "visible");
    gv.firstChild.nodeValue = target;
        }

    function mouseclick(evt) { 
    var gv = document.getElementById("globalVariable");
    var previoustarget = gv.firstChild.nodeValue;
    if (previoustarget != "none") {
        	document.getElementById(gv.firstChild.nodeValue).setAttributeNS(null, "visibility", "hidden");
        }
    }
]]>
  </script>
<style type="text/css" >

<![CDATA[
    rect.anc_exon {
              stroke-width:3;
                  }

    rect.non_anc_exon {
              stroke: black; stroke-width:3; stroke-dasharray: 5,5;
                    }

    text {
              font-size: 18px;
              font-family: Courier New;
          }
                    ]]>
</style>

<defs>
    <text x="150" y="40" id="globalVariable">none</text>
</defs>

  <rect class="anc_exon" x="0" y="35.0" width="0" height="30" style="fill:#87bcbc;fill-opacity:1.00" />
  <rect class="anc_exon" x="0" y="35.0" width="109.60000000000001" height="30" style="fill:#87bcbc;fill-opacity:1.00" />
  <line x1="109.60000000000001" y1="50.0" x2="128.60000000000002" y2="50.0" style="stroke:#999; stroke-width:3;" />
  <line x1="128.60000000000002" y1="50.0" x2="128.60000000000002" y2="50.0" style="stroke:#999; stroke-width:3;" />
  <line x1="128.60000000000002" y1="50.0" x2="128.60000000000002" y2="50.0" style="stroke:#999; stroke-width:3;" />
  <line x1="128.60000000000002" y1="50.0" x2="149.0" y2="50.0" style="stroke:#999; stroke-width:3;" />
  <rect class="anc_exon" x="149" y="35.0" width="152" height="30" style="fill:#87bcbc;fill-opacity:1.00" />
  <line x1="301" y1="50.0" x2="321" y2="50.0" style="stroke:#999; stroke-width:3;" />
  <line x1="321" y1="50.0" x2="321" y2="50.0" style="stroke:#999; stroke-width:3;" />
  <line x1="321" y1="50.0" x2="321" y2="50.0" style="stroke:#999; stroke-width:3;" />
  <line x1="321" y1="50.0" x2="341" y2="50.0" style="stroke:#999; stroke-width:3;" />
  <rect class="anc_exon" x="341" y="35.0" width="1091" height="30" style="fill:#87bcbc;fill-opacity:1.00" />
  <line x1="1432" y1="50.0" x2="1452" y2="50.0" style="stroke:#999; stroke-width:3;" />
  <line x1="1452" y1="50.0" x2="1452" y2="50.0" style="stroke:#999; stroke-width:3;" />
  <line x1="1452" y1="50.0" x2="1452" y2="50.0" style="stroke:#999; stroke-width:3;" />
  <line x1="1452" y1="50.0" x2="1472" y2="50.0" style="stroke:#999; stroke-width:3;" />
  <rect class="anc_exon" x="1472" y="35.0" width="194" height="30" style="fill:#87bcbc;fill-opacity:1.00" />
  <line x1="1666" y1="50.0" x2="1686" y2="50.0" style="stroke:#999; stroke-width:3;" />
  <line x1="1686" y1="50.0" x2="1686" y2="50.0" style="stroke:#999; stroke-width:3;" />
  <line x1="1686" y1="50.0" x2="1686" y2="50.0" style="stroke:#999; stroke-width:3;" />
  <line x1="1686" y1="50.0" x2="1706" y2="50.0" style="stroke:#999; stroke-width:3;" />
  <rect class="anc_exon" x="1706" y="35.0" width="117" height="30" style="fill:#87bcbc;fill-opacity:1.00" />
  <line x1="1823" y1="50.0" x2="1843" y2="50.0" style="stroke:#999; stroke-width:3;" />
  <line x1="1843" y1="50.0" x2="1843" y2="50.0" style="stroke:#999; stroke-width:3;" />
  <line x1="1843" y1="50.0" x2="1843" y2="50.0" style="stroke:#999; stroke-width:3;" />
  <line x1="1843" y1="50.0" x2="1863" y2="50.0" style="stroke:#999; stroke-width:3;" />
  <rect class="anc_exon" x="1863" y="35.0" width="126" height="30" style="fill:#87bcbc;fill-opacity:1.00" />
  <line x1="1989" y1="50.0" x2="2029" y2="50.0" style="stroke:#999; stroke-width:3;" />
  <rect class="anc_exon" x="2029" y="35.0" width="93" height="30" style="fill:#87bcbc;fill-opacity:1.00" />
  <line x1="2122" y1="50.0" x2="2162" y2="50.0" style="stroke:#999; stroke-width:3;" />
  <rect class="anc_exon" x="2162" y="35.0" width="80" height="30" style="fill:#87bcbc;fill-opacity:1.00" />
  <line x1="2242" y1="50.0" x2="2282" y2="50.0" style="stroke:#999; stroke-width:3;" />
  <rect class="anc_exon" x="2282" y="35.0" width="67" height="30" style="fill:#87bcbc;fill-opacity:1.00" />
  <line x1="2349" y1="50.0" x2="2369" y2="50.0" style="stroke:#999; stroke-width:3;" />
  <line x1="2369" y1="50.0" x2="2369" y2="50.0" style="stroke:#999; stroke-width:3;" />
  <line x1="2369" y1="50.0" x2="2369" y2="50.0" style="stroke:#999; stroke-width:3;" />
  <line x1="2369" y1="50.0" x2="2389" y2="50.0" style="stroke:#999; stroke-width:3;" />
  <rect class="anc_exon" x="2389" y="35.0" width="213" height="30" style="fill:#87bcbc;fill-opacity:1.00" />
  <line x1="2602" y1="50.0" x2="2622" y2="50.0" style="stroke:#999; stroke-width:3;" />
  <line x1="2622" y1="50.0" x2="2622" y2="50.0" style="stroke:#999; stroke-width:3;" />
  <line x1="2622" y1="50.0" x2="2622" y2="50.0" style="stroke:#999; stroke-width:3;" />
  <line x1="2622" y1="50.0" x2="2642" y2="50.0" style="stroke:#999; stroke-width:3;" />
  <rect class="anc_exon" x="2642" y="35.0" width="120" height="30" style="fill:#87bcbc;fill-opacity:1.00" />
  <line x1="2762" y1="50.0" x2="2802" y2="50.0" style="stroke:#999; stroke-width:3;" />
  <rect class="anc_exon" x="2802" y="35.0" width="129" height="30" style="fill:#87bcbc;fill-opacity:1.00" />
  <line x1="2931" y1="50.0" x2="2951" y2="50.0" style="stroke:#999; stroke-width:3;" />
  <line x1="2951" y1="50.0" x2="2951" y2="50.0" style="stroke:#999; stroke-width:3;" />
  <line x1="2951" y1="50.0" x2="2951" y2="50.0" style="stroke:#999; stroke-width:3;" />
  <line x1="2951" y1="50.0" x2="2971" y2="50.0" style="stroke:#999; stroke-width:3;" />
  <rect class="anc_exon" x="2971" y="35.0" width="107" height="30" style="fill:#87bcbc;fill-opacity:1.00" />
  <line x1="3078" y1="50.0" x2="3118" y2="50.0" style="stroke:#999; stroke-width:3;" />
  <rect class="anc_exon" x="3118" y="35.0" width="63" height="30" style="fill:#87bcbc;fill-opacity:1.00" />
  <line x1="3181" y1="50.0" x2="3221" y2="50.0" style="stroke:#999; stroke-width:3;" />
  <rect class="anc_exon" x="3221" y="35.0" width="63" height="30" style="fill:#87bcbc;fill-opacity:1.00" />
  <line x1="3284" y1="50.0" x2="3304" y2="50.0" style="stroke:#999; stroke-width:3;" />
  <line x1="3304" y1="50.0" x2="3304" y2="50.0" style="stroke:#999; stroke-width:3;" />
  <line x1="3304" y1="50.0" x2="3304" y2="50.0" style="stroke:#999; stroke-width:3;" />
  <line x1="3304" y1="50.0" x2="3324" y2="50.0" style="stroke:#999; stroke-width:3;" />
  <rect class="anc_exon" x="3324" y="35.0" width="80" height="30" style="fill:#87bcbc;fill-opacity:1.00" />
  <line x1="3404" y1="50.0" x2="3444" y2="50.0" style="stroke:#999; stroke-width:3;" />
  <rect class="anc_exon" x="3444" y="35.0" width="93" height="30" style="fill:#87bcbc;fill-opacity:1.00" />
  <line x1="3537" y1="50.0" x2="3557" y2="50.0" style="stroke:#999; stroke-width:3;" />
  <line x1="3557" y1="50.0" x2="3557" y2="50.0" style="stroke:#999; stroke-width:3;" />
  <line x1="3557" y1="50.0" x2="3557" y2="50.0" style="stroke:#999; stroke-width:3;" />
  <line x1="3557" y1="50.0" x2="3577" y2="50.0" style="stroke:#999; stroke-width:3;" />
  <rect class="anc_exon" x="3577" y="35.0" width="80" height="30" style="fill:#87bcbc;fill-opacity:1.00" />
  <line x1="3657" y1="50.0" x2="3697" y2="50.0" style="stroke:#999; stroke-width:3;" />
  <rect class="anc_exon" x="3697" y="35.0" width="64" height="30" style="fill:#87bcbc;fill-opacity:1.00" />
  <line x1="3761" y1="50.0" x2="3781" y2="50.0" style="stroke:#999; stroke-width:3;" />
  <line x1="3781" y1="50.0" x2="3781" y2="50.0" style="stroke:#999; stroke-width:3;" />
  <line x1="3781" y1="50.0" x2="3781" y2="50.0" style="stroke:#999; stroke-width:3;" />
  <line x1="3781" y1="50.0" x2="3801" y2="50.0" style="stroke:#999; stroke-width:3;" />
  <rect class="anc_exon" x="3801" y="35.0" width="153" height="30" style="fill:#87bcbc;fill-opacity:1.00" />
  <line x1="3954" y1="50.0" x2="3994" y2="50.0" style="stroke:#999; stroke-width:3;" />
  <rect class="anc_exon" x="3994" y="35.0" width="56" height="30" style="fill:#87bcbc;fill-opacity:1.00" />
  <line x1="4050" y1="50.0" x2="4090" y2="50.0" style="stroke:#999; stroke-width:3;" />
  <rect class="anc_exon" x="4090" y="35.0" width="93" height="30" style="fill:#87bcbc;fill-opacity:1.00" />
  <line x1="4183" y1="50.0" x2="4223" y2="50.0" style="stroke:#999; stroke-width:3;" />
  <rect class="anc_exon" x="4223" y="35.0" width="81" height="30" style="fill:#87bcbc;fill-opacity:1.00" />
  <rect class="anc_exon" x="4304" y="35.0" width="0" height="30" style="fill:#87bcbc;fill-opacity:1.00" />
  <text style="" >
<tspan x="0" y="83.0" style="font-size:18px;" >SP XM_031937528_1.1</tspan>  </text>



<script type="text/ecmascript">
<![CDATA[
function draw_bbox(text_id)
{
    var text_elem = document.getElementById(text_id);
    var offset_px = 2;
    var offset_py = 0;
    bbox = text_elem.getBBox();
    var box = document.createElementNS(document.rootElement.namespaceURI,'rect');
    box.setAttribute('x', bbox.x - offset_px);
    box.setAttribute('y', bbox.y - offset_py);
    box.setAttribute('width', bbox.width + offset_px * 2);
    box.setAttribute('height', bbox.height + offset_py * 2);
    box.setAttribute('style','fill: white;'+'stroke: black;'+'stroke-width: 1px;');
    text_elem.insertBefore(box,text_elem.childNodes[0]);

    var svg = text_elem.parentNode;
    svg.appendChild(text_elem);
}

for (var i=1; i < 1; i++)
{
draw_bbox("Mouseover" + i);
}
]]> 
</script>
</svg>
