<svg version="1.1"
xmlns="http://www.w3.org/2000/svg"
xmlns:xlink="http://www.w3.org/1999/xlink"
width="5389" height="100" viewBox = "0 0 5389 100"
onclick="mouseclick(evt)">

<script type="text/ecmascript">

<![CDATA[
    function mouseover(evt, target) { 
    var gv = document.getElementById("globalVariable");
    var previoustarget = gv.firstChild.nodeValue;
    if (previoustarget != "none") 
    {
        	document.getElementById(gv.firstChild.nodeValue).setAttributeNS(null, "visibility", "hidden");
    }
    document.getElementById(target).setAttributeNS(null, "visibility", "visible");
    gv.firstChild.nodeValue = target;
        }

    function mouseclick(evt) { 
    var gv = document.getElementById("globalVariable");
    var previoustarget = gv.firstChild.nodeValue;
    if (previoustarget != "none") {
        	document.getElementById(gv.firstChild.nodeValue).setAttributeNS(null, "visibility", "hidden");
        }
    }
]]>
  </script>
<style type="text/css" >

<![CDATA[
    rect.anc_exon {
              stroke-width:3;
                  }

    rect.non_anc_exon {
              stroke: black; stroke-width:3; stroke-dasharray: 5,5;
                    }

    text {
              font-size: 18px;
              font-family: Courier New;
          }
                    ]]>
</style>

<defs>
    <text x="150" y="40" id="globalVariable">none</text>
</defs>

  <rect class="anc_exon" x="0" y="35.0" width="0" height="30" style="fill:#87bcbc;fill-opacity:1.00" />
  <rect class="anc_exon" x="0" y="35.0" width="25.6" height="30" style="fill:#87bcbc;fill-opacity:1.00" />
  <line x1="25.6" y1="50.0" x2="44.6" y2="50.0" style="stroke:#999; stroke-width:3;" />
  <line x1="44.6" y1="50.0" x2="44.6" y2="50.0" style="stroke:#999; stroke-width:3;" />
  <line x1="44.6" y1="50.0" x2="44.6" y2="50.0" style="stroke:#999; stroke-width:3;" />
  <line x1="44.6" y1="50.0" x2="65.0" y2="50.0" style="stroke:#999; stroke-width:3;" />
  <rect class="anc_exon" x="65" y="35.0" width="26" height="30" style="fill:#87bcbc;fill-opacity:1.00" />
  <line x1="91" y1="50.0" x2="131" y2="50.0" style="stroke:#999; stroke-width:3;" />
  <rect class="anc_exon" x="131" y="35.0" width="73" height="30" style="fill:#87bcbc;fill-opacity:1.00" />
  <line x1="204" y1="50.0" x2="244" y2="50.0" style="stroke:#999; stroke-width:3;" />
  <rect class="anc_exon" x="244" y="35.0" width="79" height="30" style="fill:#87bcbc;fill-opacity:1.00" />
  <line x1="323" y1="50.0" x2="343" y2="50.0" style="stroke:#999; stroke-width:3;" />
  <line x1="343" y1="50.0" x2="343" y2="50.0" style="stroke:#999; stroke-width:3;" />
  <line x1="343" y1="50.0" x2="343" y2="50.0" style="stroke:#999; stroke-width:3;" />
  <line x1="343" y1="50.0" x2="363" y2="50.0" style="stroke:#999; stroke-width:3;" />
  <rect class="anc_exon" x="363" y="35.0" width="40" height="30" style="fill:#87bcbc;fill-opacity:1.00" />
  <line x1="403" y1="50.0" x2="443" y2="50.0" style="stroke:#999; stroke-width:3;" />
  <rect class="anc_exon" x="443" y="35.0" width="46" height="30" style="fill:#87bcbc;fill-opacity:1.00" />
  <line x1="489" y1="50.0" x2="529" y2="50.0" style="stroke:#999; stroke-width:3;" />
  <rect class="anc_exon" x="529" y="35.0" width="143" height="30" style="fill:#87bcbc;fill-opacity:1.00" />
  <line x1="672" y1="50.0" x2="712" y2="50.0" style="stroke:#999; stroke-width:3;" />
  <rect class="anc_exon" x="712" y="35.0" width="57" height="30" style="fill:#87bcbc;fill-opacity:1.00" />
  <line x1="769" y1="50.0" x2="789" y2="50.0" style="stroke:#999; stroke-width:3;" />
  <line x1="789" y1="50.0" x2="789" y2="50.0" style="stroke:#999; stroke-width:3;" />
  <line x1="789" y1="50.0" x2="789" y2="50.0" style="stroke:#999; stroke-width:3;" />
  <line x1="789" y1="50.0" x2="809" y2="50.0" style="stroke:#999; stroke-width:3;" />
  <rect class="anc_exon" x="809" y="35.0" width="98" height="30" style="fill:#87bcbc;fill-opacity:1.00" />
  <line x1="907" y1="50.0" x2="927" y2="50.0" style="stroke:#999; stroke-width:3;" />
  <line x1="927" y1="50.0" x2="927" y2="50.0" style="stroke:#999; stroke-width:3;" />
  <line x1="927" y1="50.0" x2="927" y2="50.0" style="stroke:#999; stroke-width:3;" />
  <line x1="927" y1="50.0" x2="947" y2="50.0" style="stroke:#999; stroke-width:3;" />
  <rect class="anc_exon" x="947" y="35.0" width="41" height="30" style="fill:#87bcbc;fill-opacity:1.00" />
  <line x1="988" y1="50.0" x2="1028" y2="50.0" style="stroke:#999; stroke-width:3;" />
  <rect class="anc_exon" x="1028" y="35.0" width="61" height="30" style="fill:#87bcbc;fill-opacity:1.00" />
  <line x1="1089" y1="50.0" x2="1129" y2="50.0" style="stroke:#999; stroke-width:3;" />
  <rect class="anc_exon" x="1129" y="35.0" width="110" height="30" style="fill:#87bcbc;fill-opacity:1.00" />
  <line x1="1239" y1="50.0" x2="1259" y2="50.0" style="stroke:#999; stroke-width:3;" />
  <line x1="1259" y1="50.0" x2="1259" y2="50.0" style="stroke:#999; stroke-width:3;" />
  <line x1="1259" y1="50.0" x2="1259" y2="50.0" style="stroke:#999; stroke-width:3;" />
  <line x1="1259" y1="50.0" x2="1279" y2="50.0" style="stroke:#999; stroke-width:3;" />
  <rect class="anc_exon" x="1279" y="35.0" width="60" height="30" style="fill:#87bcbc;fill-opacity:1.00" />
  <line x1="1339" y1="50.0" x2="1379" y2="50.0" style="stroke:#999; stroke-width:3;" />
  <rect class="anc_exon" x="1379" y="35.0" width="81" height="30" style="fill:#87bcbc;fill-opacity:1.00" />
  <line x1="1460" y1="50.0" x2="1500" y2="50.0" style="stroke:#999; stroke-width:3;" />
  <rect class="anc_exon" x="1500" y="35.0" width="79" height="30" style="fill:#87bcbc;fill-opacity:1.00" />
  <line x1="1579" y1="50.0" x2="1599" y2="50.0" style="stroke:#999; stroke-width:3;" />
  <line x1="1599" y1="50.0" x2="1599" y2="50.0" style="stroke:#999; stroke-width:3;" />
  <line x1="1599" y1="50.0" x2="1599" y2="50.0" style="stroke:#999; stroke-width:3;" />
  <line x1="1599" y1="50.0" x2="1619" y2="50.0" style="stroke:#999; stroke-width:3;" />
  <rect class="anc_exon" x="1619" y="35.0" width="34" height="30" style="fill:#87bcbc;fill-opacity:1.00" />
  <line x1="1653" y1="50.0" x2="1673" y2="50.0" style="stroke:#999; stroke-width:3;" />
  <line x1="1673" y1="50.0" x2="1673" y2="50.0" style="stroke:#999; stroke-width:3;" />
  <line x1="1673" y1="50.0" x2="1673" y2="50.0" style="stroke:#999; stroke-width:3;" />
  <line x1="1673" y1="50.0" x2="1693" y2="50.0" style="stroke:#999; stroke-width:3;" />
  <rect class="anc_exon" x="1693" y="35.0" width="77" height="30" style="fill:#87bcbc;fill-opacity:1.00" />
  <line x1="1770" y1="50.0" x2="1810" y2="50.0" style="stroke:#999; stroke-width:3;" />
  <rect class="anc_exon" x="1810" y="35.0" width="98" height="30" style="fill:#87bcbc;fill-opacity:1.00" />
  <line x1="1908" y1="50.0" x2="1948" y2="50.0" style="stroke:#999; stroke-width:3;" />
  <rect class="anc_exon" x="1948" y="35.0" width="19" height="30" style="fill:#87bcbc;fill-opacity:1.00" />
  <line x1="1967" y1="50.0" x2="2007" y2="50.0" style="stroke:#999; stroke-width:3;" />
  <rect class="anc_exon" x="2007" y="35.0" width="113" height="30" style="fill:#87bcbc;fill-opacity:1.00" />
  <line x1="2120" y1="50.0" x2="2140" y2="50.0" style="stroke:#999; stroke-width:3;" />
  <line x1="2140" y1="50.0" x2="2140" y2="50.0" style="stroke:#999; stroke-width:3;" />
  <line x1="2140" y1="50.0" x2="2140" y2="50.0" style="stroke:#999; stroke-width:3;" />
  <line x1="2140" y1="50.0" x2="2160" y2="50.0" style="stroke:#999; stroke-width:3;" />
  <rect class="anc_exon" x="2160" y="35.0" width="80" height="30" style="fill:#87bcbc;fill-opacity:1.00" />
  <line x1="2240" y1="50.0" x2="2260" y2="50.0" style="stroke:#999; stroke-width:3;" />
  <line x1="2260" y1="50.0" x2="2260" y2="50.0" style="stroke:#999; stroke-width:3;" />
  <line x1="2260" y1="50.0" x2="2260" y2="50.0" style="stroke:#999; stroke-width:3;" />
  <line x1="2260" y1="50.0" x2="2280" y2="50.0" style="stroke:#999; stroke-width:3;" />
  <rect class="anc_exon" x="2280" y="35.0" width="104" height="30" style="fill:#87bcbc;fill-opacity:1.00" />
  <line x1="2384" y1="50.0" x2="2404" y2="50.0" style="stroke:#999; stroke-width:3;" />
  <line x1="2404" y1="50.0" x2="2404" y2="50.0" style="stroke:#999; stroke-width:3;" />
  <line x1="2404" y1="50.0" x2="2404" y2="50.0" style="stroke:#999; stroke-width:3;" />
  <line x1="2404" y1="50.0" x2="2424" y2="50.0" style="stroke:#999; stroke-width:3;" />
  <rect class="anc_exon" x="2424" y="35.0" width="144" height="30" style="fill:#87bcbc;fill-opacity:1.00" />
  <line x1="2568" y1="50.0" x2="2608" y2="50.0" style="stroke:#999; stroke-width:3;" />
  <rect class="anc_exon" x="2608" y="35.0" width="38" height="30" style="fill:#87bcbc;fill-opacity:1.00" />
  <line x1="2646" y1="50.0" x2="2686" y2="50.0" style="stroke:#999; stroke-width:3;" />
  <rect class="anc_exon" x="2686" y="35.0" width="150" height="30" style="fill:#87bcbc;fill-opacity:1.00" />
  <line x1="2836" y1="50.0" x2="2876" y2="50.0" style="stroke:#999; stroke-width:3;" />
  <rect class="anc_exon" x="2876" y="35.0" width="117" height="30" style="fill:#87bcbc;fill-opacity:1.00" />
  <line x1="2993" y1="50.0" x2="3033" y2="50.0" style="stroke:#999; stroke-width:3;" />
  <rect class="anc_exon" x="3033" y="35.0" width="64" height="30" style="fill:#87bcbc;fill-opacity:1.00" />
  <line x1="3097" y1="50.0" x2="3137" y2="50.0" style="stroke:#999; stroke-width:3;" />
  <rect class="anc_exon" x="3137" y="35.0" width="100" height="30" style="fill:#87bcbc;fill-opacity:1.00" />
  <line x1="3237" y1="50.0" x2="3277" y2="50.0" style="stroke:#999; stroke-width:3;" />
  <rect class="anc_exon" x="3277" y="35.0" width="94" height="30" style="fill:#87bcbc;fill-opacity:1.00" />
  <line x1="3371" y1="50.0" x2="3411" y2="50.0" style="stroke:#999; stroke-width:3;" />
  <rect class="anc_exon" x="3411" y="35.0" width="145" height="30" style="fill:#87bcbc;fill-opacity:1.00" />
  <line x1="3556" y1="50.0" x2="3596" y2="50.0" style="stroke:#999; stroke-width:3;" />
  <rect class="anc_exon" x="3596" y="35.0" width="60" height="30" style="fill:#87bcbc;fill-opacity:1.00" />
  <line x1="3656" y1="50.0" x2="3696" y2="50.0" style="stroke:#999; stroke-width:3;" />
  <rect class="anc_exon" x="3696" y="35.0" width="134" height="30" style="fill:#87bcbc;fill-opacity:1.00" />
  <line x1="3830" y1="50.0" x2="3870" y2="50.0" style="stroke:#999; stroke-width:3;" />
  <rect class="anc_exon" x="3870" y="35.0" width="72" height="30" style="fill:#87bcbc;fill-opacity:1.00" />
  <line x1="3942" y1="50.0" x2="3982" y2="50.0" style="stroke:#999; stroke-width:3;" />
  <rect class="anc_exon" x="3982" y="35.0" width="100" height="30" style="fill:#87bcbc;fill-opacity:1.00" />
  <line x1="4082" y1="50.0" x2="4122" y2="50.0" style="stroke:#999; stroke-width:3;" />
  <rect class="anc_exon" x="4122" y="35.0" width="56" height="30" style="fill:#87bcbc;fill-opacity:1.00" />
  <line x1="4178" y1="50.0" x2="4218" y2="50.0" style="stroke:#999; stroke-width:3;" />
  <rect class="anc_exon" x="4218" y="35.0" width="168" height="30" style="fill:#87bcbc;fill-opacity:1.00" />
  <line x1="4386" y1="50.0" x2="4426" y2="50.0" style="stroke:#999; stroke-width:3;" />
  <rect class="anc_exon" x="4426" y="35.0" width="302" height="30" style="fill:#87bcbc;fill-opacity:1.00" />
  <line x1="4728" y1="50.0" x2="4768" y2="50.0" style="stroke:#999; stroke-width:3;" />
  <rect class="anc_exon" x="4768" y="35.0" width="76" height="30" style="fill:#87bcbc;fill-opacity:1.00" />
  <line x1="4844" y1="50.0" x2="4884" y2="50.0" style="stroke:#999; stroke-width:3;" />
  <rect class="anc_exon" x="4884" y="35.0" width="193" height="30" style="fill:#87bcbc;fill-opacity:1.00" />
  <line x1="5077" y1="50.0" x2="5117" y2="50.0" style="stroke:#999; stroke-width:3;" />
  <rect class="anc_exon" x="5117" y="35.0" width="152" height="30" style="fill:#878787;fill-opacity:1.00" />
  <line x1="5269" y1="50.0" x2="5309" y2="50.0" style="stroke:#999; stroke-width:3;" />
  <rect class="anc_exon" x="5309" y="35.0" width="44" height="30" style="fill:#87bcbc;fill-opacity:1.00" />
  <rect class="anc_exon" x="5353" y="35.0" width="0" height="30" style="fill:#87bcbc;fill-opacity:1.00" />
  <text style="" >
<tspan x="0" y="83.0" style="font-size:18px;" >SP XM_031966808_1.1</tspan>  </text>



<script type="text/ecmascript">
<![CDATA[
function draw_bbox(text_id)
{
    var text_elem = document.getElementById(text_id);
    var offset_px = 2;
    var offset_py = 0;
    bbox = text_elem.getBBox();
    var box = document.createElementNS(document.rootElement.namespaceURI,'rect');
    box.setAttribute('x', bbox.x - offset_px);
    box.setAttribute('y', bbox.y - offset_py);
    box.setAttribute('width', bbox.width + offset_px * 2);
    box.setAttribute('height', bbox.height + offset_py * 2);
    box.setAttribute('style','fill: white;'+'stroke: black;'+'stroke-width: 1px;');
    text_elem.insertBefore(box,text_elem.childNodes[0]);

    var svg = text_elem.parentNode;
    svg.appendChild(text_elem);
}

for (var i=1; i < 1; i++)
{
draw_bbox("Mouseover" + i);
}
]]> 
</script>
</svg>
