<svg version="1.1"
xmlns="http://www.w3.org/2000/svg"
xmlns:xlink="http://www.w3.org/1999/xlink"
width="2332" height="100" viewBox = "0 0 2332 100"
onclick="mouseclick(evt)">

<script type="text/ecmascript">

<![CDATA[
    function mouseover(evt, target) { 
    var gv = document.getElementById("globalVariable");
    var previoustarget = gv.firstChild.nodeValue;
    if (previoustarget != "none") 
    {
        	document.getElementById(gv.firstChild.nodeValue).setAttributeNS(null, "visibility", "hidden");
    }
    document.getElementById(target).setAttributeNS(null, "visibility", "visible");
    gv.firstChild.nodeValue = target;
        }

    function mouseclick(evt) { 
    var gv = document.getElementById("globalVariable");
    var previoustarget = gv.firstChild.nodeValue;
    if (previoustarget != "none") {
        	document.getElementById(gv.firstChild.nodeValue).setAttributeNS(null, "visibility", "hidden");
        }
    }
]]>
  </script>
<style type="text/css" >

<![CDATA[
    rect.anc_exon {
              stroke-width:3;
                  }

    rect.non_anc_exon {
              stroke: black; stroke-width:3; stroke-dasharray: 5,5;
                    }

    text {
              font-size: 18px;
              font-family: Courier New;
          }
                    ]]>
</style>

<defs>
    <text x="150" y="40" id="globalVariable">none</text>
</defs>

  <rect class="anc_exon" x="0" y="35.0" width="0" height="30" style="fill:#87bcbc;fill-opacity:1.00" />
  <rect class="anc_exon" x="0" y="35.0" width="53.6" height="30" style="fill:#87bcbc;fill-opacity:1.00" />
  <line x1="53.6" y1="50.0" x2="93.0" y2="50.0" style="stroke:#999; stroke-width:3;" />
  <rect class="anc_exon" x="93" y="35.0" width="45" height="30" style="fill:#87bcbc;fill-opacity:1.00" />
  <line x1="138" y1="50.0" x2="158" y2="50.0" style="stroke:#999; stroke-width:3;" />
  <line x1="158" y1="50.0" x2="158" y2="50.0" style="stroke:#999; stroke-width:3;" />
  <line x1="158" y1="50.0" x2="158" y2="50.0" style="stroke:#999; stroke-width:3;" />
  <line x1="158" y1="50.0" x2="178" y2="50.0" style="stroke:#999; stroke-width:3;" />
  <rect class="anc_exon" x="178" y="35.0" width="9" height="30" style="fill:#87bcbc;fill-opacity:1.00" />
  <line x1="187" y1="50.0" x2="227" y2="50.0" style="stroke:#999; stroke-width:3;" />
  <rect class="anc_exon" x="227" y="35.0" width="68" height="30" style="fill:#87bcbc;fill-opacity:1.00" />
  <line x1="295" y1="50.0" x2="315" y2="50.0" style="stroke:#999; stroke-width:3;" />
  <line x1="315" y1="50.0" x2="315" y2="50.0" style="stroke:#999; stroke-width:3;" />
  <line x1="315" y1="50.0" x2="315" y2="50.0" style="stroke:#999; stroke-width:3;" />
  <line x1="315" y1="50.0" x2="335" y2="50.0" style="stroke:#999; stroke-width:3;" />
  <rect class="anc_exon" x="335" y="35.0" width="224" height="30" style="fill:#87bcbc;fill-opacity:1.00" />
  <line x1="559" y1="50.0" x2="599" y2="50.0" style="stroke:#999; stroke-width:3;" />
  <rect class="anc_exon" x="599" y="35.0" width="648" height="30" style="fill:#87bcbc;fill-opacity:1.00" />
  <line x1="1247" y1="50.0" x2="1267" y2="50.0" style="stroke:#999; stroke-width:3;" />
  <line x1="1267" y1="50.0" x2="1267" y2="50.0" style="stroke:#999; stroke-width:3;" />
  <line x1="1267" y1="50.0" x2="1267" y2="50.0" style="stroke:#999; stroke-width:3;" />
  <line x1="1267" y1="50.0" x2="1287" y2="50.0" style="stroke:#999; stroke-width:3;" />
  <rect class="anc_exon" x="1287" y="35.0" width="246" height="30" style="fill:#878787;fill-opacity:1.00" />
  <line x1="1533" y1="50.0" x2="1573" y2="50.0" style="stroke:#999; stroke-width:3;" />
  <rect class="anc_exon" x="1573" y="35.0" width="116" height="30" style="fill:#87bcbc;fill-opacity:1.00" />
  <line x1="1689" y1="50.0" x2="1729" y2="50.0" style="stroke:#999; stroke-width:3;" />
  <rect class="anc_exon" x="1729" y="35.0" width="46" height="30" style="fill:#87bcbc;fill-opacity:1.00" />
  <line x1="1775" y1="50.0" x2="1815" y2="50.0" style="stroke:#999; stroke-width:3;" />
  <rect class="anc_exon" x="1815" y="35.0" width="39" height="30" style="fill:#87bcbc;fill-opacity:1.00" />
  <line x1="1854" y1="50.0" x2="1894" y2="50.0" style="stroke:#999; stroke-width:3;" />
  <rect class="anc_exon" x="1894" y="35.0" width="53" height="30" style="fill:#87bcbc;fill-opacity:1.00" />
  <line x1="1947" y1="50.0" x2="1967" y2="50.0" style="stroke:#999; stroke-width:3;" />
  <line x1="1967" y1="50.0" x2="1967" y2="50.0" style="stroke:#999; stroke-width:3;" />
  <line x1="1967" y1="50.0" x2="1967" y2="50.0" style="stroke:#999; stroke-width:3;" />
  <line x1="1967" y1="50.0" x2="1987" y2="50.0" style="stroke:#999; stroke-width:3;" />
  <rect class="anc_exon" x="1987" y="35.0" width="50" height="30" style="fill:#87bcbc;fill-opacity:1.00" />
  <line x1="2037" y1="50.0" x2="2057" y2="50.0" style="stroke:#999; stroke-width:3;" />
  <line x1="2057" y1="50.0" x2="2057" y2="50.0" style="stroke:#999; stroke-width:3;" />
  <line x1="2057" y1="50.0" x2="2057" y2="50.0" style="stroke:#999; stroke-width:3;" />
  <line x1="2057" y1="50.0" x2="2077" y2="50.0" style="stroke:#999; stroke-width:3;" />
  <rect class="anc_exon" x="2077" y="35.0" width="63" height="30" style="fill:#87bcbc;fill-opacity:1.00" />
  <line x1="2140" y1="50.0" x2="2180" y2="50.0" style="stroke:#999; stroke-width:3;" />
  <rect class="anc_exon" x="2180" y="35.0" width="46" height="30" style="fill:#87bcbc;fill-opacity:1.00" />
  <line x1="2226" y1="50.0" x2="2266" y2="50.0" style="stroke:#999; stroke-width:3;" />
  <rect class="anc_exon" x="2266" y="35.0" width="30" height="30" style="fill:#87bcbc;fill-opacity:1.00" />
  <rect class="anc_exon" x="2296" y="35.0" width="0" height="30" style="fill:#87bcbc;fill-opacity:1.00" />
  <text style="" >
<tspan x="0" y="83.0" style="font-size:18px;" >SP XM_031967043_1.1</tspan>  </text>



<script type="text/ecmascript">
<![CDATA[
function draw_bbox(text_id)
{
    var text_elem = document.getElementById(text_id);
    var offset_px = 2;
    var offset_py = 0;
    bbox = text_elem.getBBox();
    var box = document.createElementNS(document.rootElement.namespaceURI,'rect');
    box.setAttribute('x', bbox.x - offset_px);
    box.setAttribute('y', bbox.y - offset_py);
    box.setAttribute('width', bbox.width + offset_px * 2);
    box.setAttribute('height', bbox.height + offset_py * 2);
    box.setAttribute('style','fill: white;'+'stroke: black;'+'stroke-width: 1px;');
    text_elem.insertBefore(box,text_elem.childNodes[0]);

    var svg = text_elem.parentNode;
    svg.appendChild(text_elem);
}

for (var i=1; i < 1; i++)
{
draw_bbox("Mouseover" + i);
}
]]> 
</script>
</svg>
