<svg version="1.1"
xmlns="http://www.w3.org/2000/svg"
xmlns:xlink="http://www.w3.org/1999/xlink"
width="3581" height="100" viewBox = "0 0 3581 100"
onclick="mouseclick(evt)">

<script type="text/ecmascript">

<![CDATA[
    function mouseover(evt, target) { 
    var gv = document.getElementById("globalVariable");
    var previoustarget = gv.firstChild.nodeValue;
    if (previoustarget != "none") 
    {
        	document.getElementById(gv.firstChild.nodeValue).setAttributeNS(null, "visibility", "hidden");
    }
    document.getElementById(target).setAttributeNS(null, "visibility", "visible");
    gv.firstChild.nodeValue = target;
        }

    function mouseclick(evt) { 
    var gv = document.getElementById("globalVariable");
    var previoustarget = gv.firstChild.nodeValue;
    if (previoustarget != "none") {
        	document.getElementById(gv.firstChild.nodeValue).setAttributeNS(null, "visibility", "hidden");
        }
    }
]]>
  </script>
<style type="text/css" >

<![CDATA[
    rect.anc_exon {
              stroke-width:3;
                  }

    rect.non_anc_exon {
              stroke: black; stroke-width:3; stroke-dasharray: 5,5;
                    }

    text {
              font-size: 18px;
              font-family: Courier New;
          }
                    ]]>
</style>

<defs>
    <text x="150" y="40" id="globalVariable">none</text>
</defs>

  <rect class="anc_exon" x="0" y="35.0" width="0" height="30" style="fill:#87bcbc;fill-opacity:1.00" />
  <rect class="anc_exon" x="0" y="35.0" width="17.6" height="30" style="fill:#87bcbc;fill-opacity:1.00" />
  <line x1="17.6" y1="50.0" x2="36.6" y2="50.0" style="stroke:#999; stroke-width:3;" />
  <line x1="36.6" y1="50.0" x2="36.6" y2="50.0" style="stroke:#999; stroke-width:3;" />
  <line x1="36.6" y1="50.0" x2="36.6" y2="50.0" style="stroke:#999; stroke-width:3;" />
  <line x1="36.6" y1="50.0" x2="57.0" y2="50.0" style="stroke:#999; stroke-width:3;" />
  <rect class="anc_exon" x="57" y="35.0" width="212" height="30" style="fill:#87bcbc;fill-opacity:1.00" />
  <line x1="269" y1="50.0" x2="309" y2="50.0" style="stroke:#999; stroke-width:3;" />
  <rect class="anc_exon" x="309" y="35.0" width="116" height="30" style="fill:#87bcbc;fill-opacity:1.00" />
  <line x1="425" y1="50.0" x2="465" y2="50.0" style="stroke:#999; stroke-width:3;" />
  <rect class="anc_exon" x="465" y="35.0" width="92" height="30" style="fill:#87bcbc;fill-opacity:1.00" />
  <line x1="557" y1="50.0" x2="597" y2="50.0" style="stroke:#999; stroke-width:3;" />
  <rect class="anc_exon" x="597" y="35.0" width="104" height="30" style="fill:#87bcbc;fill-opacity:1.00" />
  <line x1="701" y1="50.0" x2="741" y2="50.0" style="stroke:#999; stroke-width:3;" />
  <rect class="anc_exon" x="741" y="35.0" width="105" height="30" style="fill:#87bcbc;fill-opacity:1.00" />
  <line x1="846" y1="50.0" x2="886" y2="50.0" style="stroke:#999; stroke-width:3;" />
  <rect class="anc_exon" x="886" y="35.0" width="90" height="30" style="fill:#87bcbc;fill-opacity:1.00" />
  <line x1="976" y1="50.0" x2="1016" y2="50.0" style="stroke:#999; stroke-width:3;" />
  <rect class="anc_exon" x="1016" y="35.0" width="105" height="30" style="fill:#87bcbc;fill-opacity:1.00" />
  <line x1="1121" y1="50.0" x2="1161" y2="50.0" style="stroke:#999; stroke-width:3;" />
  <rect class="anc_exon" x="1161" y="35.0" width="178" height="30" style="fill:#87bcbc;fill-opacity:1.00" />
  <line x1="1339" y1="50.0" x2="1379" y2="50.0" style="stroke:#999; stroke-width:3;" />
  <rect class="anc_exon" x="1379" y="35.0" width="169" height="30" style="fill:#87bcbc;fill-opacity:1.00" />
  <line x1="1548" y1="50.0" x2="1588" y2="50.0" style="stroke:#999; stroke-width:3;" />
  <rect class="anc_exon" x="1588" y="35.0" width="223" height="30" style="fill:#87bcbc;fill-opacity:1.00" />
  <line x1="1811" y1="50.0" x2="1851" y2="50.0" style="stroke:#999; stroke-width:3;" />
  <rect class="anc_exon" x="1851" y="35.0" width="132" height="30" style="fill:#87bcbc;fill-opacity:1.00" />
  <line x1="1983" y1="50.0" x2="2023" y2="50.0" style="stroke:#999; stroke-width:3;" />
  <rect class="anc_exon" x="2023" y="35.0" width="107" height="30" style="fill:#87bcbc;fill-opacity:1.00" />
  <line x1="2130" y1="50.0" x2="2170" y2="50.0" style="stroke:#999; stroke-width:3;" />
  <rect class="anc_exon" x="2170" y="35.0" width="96" height="30" style="fill:#87bcbc;fill-opacity:1.00" />
  <line x1="2266" y1="50.0" x2="2306" y2="50.0" style="stroke:#999; stroke-width:3;" />
  <rect class="anc_exon" x="2306" y="35.0" width="40" height="30" style="fill:#87bcbc;fill-opacity:1.00" />
  <line x1="2346" y1="50.0" x2="2386" y2="50.0" style="stroke:#999; stroke-width:3;" />
  <rect class="anc_exon" x="2386" y="35.0" width="86" height="30" style="fill:#87bcbc;fill-opacity:1.00" />
  <line x1="2472" y1="50.0" x2="2512" y2="50.0" style="stroke:#999; stroke-width:3;" />
  <rect class="anc_exon" x="2512" y="35.0" width="44" height="30" style="fill:#87bcbc;fill-opacity:1.00" />
  <line x1="2556" y1="50.0" x2="2596" y2="50.0" style="stroke:#999; stroke-width:3;" />
  <rect class="anc_exon" x="2596" y="35.0" width="70" height="30" style="fill:#87bcbc;fill-opacity:1.00" />
  <line x1="2666" y1="50.0" x2="2706" y2="50.0" style="stroke:#999; stroke-width:3;" />
  <rect class="anc_exon" x="2706" y="35.0" width="96" height="30" style="fill:#87bcbc;fill-opacity:1.00" />
  <line x1="2802" y1="50.0" x2="2842" y2="50.0" style="stroke:#999; stroke-width:3;" />
  <rect class="anc_exon" x="2842" y="35.0" width="78" height="30" style="fill:#87bcbc;fill-opacity:1.00" />
  <line x1="2920" y1="50.0" x2="2960" y2="50.0" style="stroke:#999; stroke-width:3;" />
  <rect class="anc_exon" x="2960" y="35.0" width="95" height="30" style="fill:#87bcbc;fill-opacity:1.00" />
  <line x1="3055" y1="50.0" x2="3095" y2="50.0" style="stroke:#999; stroke-width:3;" />
  <rect class="anc_exon" x="3095" y="35.0" width="107" height="30" style="fill:#87bcbc;fill-opacity:1.00" />
  <line x1="3202" y1="50.0" x2="3242" y2="50.0" style="stroke:#999; stroke-width:3;" />
  <rect class="anc_exon" x="3242" y="35.0" width="68" height="30" style="fill:#87bcbc;fill-opacity:1.00" />
  <line x1="3310" y1="50.0" x2="3350" y2="50.0" style="stroke:#999; stroke-width:3;" />
  <rect class="anc_exon" x="3350" y="35.0" width="123" height="30" style="fill:#87bcbc;fill-opacity:1.00" />
  <line x1="3473" y1="50.0" x2="3513" y2="50.0" style="stroke:#999; stroke-width:3;" />
  <rect class="anc_exon" x="3513" y="35.0" width="32" height="30" style="fill:#87bcbc;fill-opacity:1.00" />
  <rect class="anc_exon" x="3545" y="35.0" width="0" height="30" style="fill:#87bcbc;fill-opacity:1.00" />
  <text style="" >
<tspan x="0" y="83.0" style="font-size:18px;" >SP XM_031966039_1.1</tspan>  </text>



<script type="text/ecmascript">
<![CDATA[
function draw_bbox(text_id)
{
    var text_elem = document.getElementById(text_id);
    var offset_px = 2;
    var offset_py = 0;
    bbox = text_elem.getBBox();
    var box = document.createElementNS(document.rootElement.namespaceURI,'rect');
    box.setAttribute('x', bbox.x - offset_px);
    box.setAttribute('y', bbox.y - offset_py);
    box.setAttribute('width', bbox.width + offset_px * 2);
    box.setAttribute('height', bbox.height + offset_py * 2);
    box.setAttribute('style','fill: white;'+'stroke: black;'+'stroke-width: 1px;');
    text_elem.insertBefore(box,text_elem.childNodes[0]);

    var svg = text_elem.parentNode;
    svg.appendChild(text_elem);
}

for (var i=1; i < 1; i++)
{
draw_bbox("Mouseover" + i);
}
]]> 
</script>
</svg>
