<svg version="1.1"
xmlns="http://www.w3.org/2000/svg"
xmlns:xlink="http://www.w3.org/1999/xlink"
width="2131" height="100" viewBox = "0 0 2131 100"
onclick="mouseclick(evt)">

<script type="text/ecmascript">

<![CDATA[
    function mouseover(evt, target) { 
    var gv = document.getElementById("globalVariable");
    var previoustarget = gv.firstChild.nodeValue;
    if (previoustarget != "none") 
    {
        	document.getElementById(gv.firstChild.nodeValue).setAttributeNS(null, "visibility", "hidden");
    }
    document.getElementById(target).setAttributeNS(null, "visibility", "visible");
    gv.firstChild.nodeValue = target;
        }

    function mouseclick(evt) { 
    var gv = document.getElementById("globalVariable");
    var previoustarget = gv.firstChild.nodeValue;
    if (previoustarget != "none") {
        	document.getElementById(gv.firstChild.nodeValue).setAttributeNS(null, "visibility", "hidden");
        }
    }
]]>
  </script>
<style type="text/css" >

<![CDATA[
    rect.anc_exon {
              stroke-width:3;
                  }

    rect.non_anc_exon {
              stroke: black; stroke-width:3; stroke-dasharray: 5,5;
                    }

    text {
              font-size: 18px;
              font-family: Courier New;
          }
                    ]]>
</style>

<defs>
    <text x="150" y="40" id="globalVariable">none</text>
</defs>

  <rect class="anc_exon" x="0" y="35.0" width="0" height="30" style="fill:#87bcbc;fill-opacity:1.00" />
  <rect class="anc_exon" x="0" y="35.0" width="84.0" height="30" style="fill:#87bcbc;fill-opacity:1.00" />
  <line x1="84.0" y1="50.0" x2="104.0" y2="50.0" style="stroke:#999; stroke-width:3;" />
  <line x1="104.0" y1="50.0" x2="104.0" y2="50.0" style="stroke:#999; stroke-width:3;" />
  <line x1="104.0" y1="50.0" x2="104.0" y2="50.0" style="stroke:#999; stroke-width:3;" />
  <line x1="104.0" y1="50.0" x2="124.0" y2="50.0" style="stroke:#999; stroke-width:3;" />
  <rect class="anc_exon" x="124" y="35.0" width="57" height="30" style="fill:#87bcbc;fill-opacity:1.00" />
  <line x1="181" y1="50.0" x2="201" y2="50.0" style="stroke:#999; stroke-width:3;" />
  <line x1="201" y1="50.0" x2="201" y2="50.0" style="stroke:#999; stroke-width:3;" />
  <line x1="201" y1="50.0" x2="201" y2="50.0" style="stroke:#999; stroke-width:3;" />
  <line x1="201" y1="50.0" x2="221" y2="50.0" style="stroke:#999; stroke-width:3;" />
  <rect class="anc_exon" x="221" y="35.0" width="74" height="30" style="fill:#87bcbc;fill-opacity:1.00" />
  <line x1="295" y1="50.0" x2="315" y2="50.0" style="stroke:#999; stroke-width:3;" />
  <line x1="315" y1="50.0" x2="315" y2="50.0" style="stroke:#999; stroke-width:3;" />
  <line x1="315" y1="50.0" x2="315" y2="50.0" style="stroke:#999; stroke-width:3;" />
  <line x1="315" y1="50.0" x2="335" y2="50.0" style="stroke:#999; stroke-width:3;" />
  <rect class="anc_exon" x="335" y="35.0" width="47" height="30" style="fill:#87bcbc;fill-opacity:1.00" />
  <line x1="382" y1="50.0" x2="402" y2="50.0" style="stroke:#999; stroke-width:3;" />
  <line x1="402" y1="50.0" x2="402" y2="50.0" style="stroke:#999; stroke-width:3;" />
  <line x1="402" y1="50.0" x2="402" y2="50.0" style="stroke:#999; stroke-width:3;" />
  <line x1="402" y1="50.0" x2="422" y2="50.0" style="stroke:#999; stroke-width:3;" />
  <rect class="anc_exon" x="422" y="35.0" width="87" height="30" style="fill:#87bcbc;fill-opacity:1.00" />
  <line x1="509" y1="50.0" x2="529" y2="50.0" style="stroke:#999; stroke-width:3;" />
  <line x1="529" y1="50.0" x2="529" y2="50.0" style="stroke:#999; stroke-width:3;" />
  <line x1="529" y1="50.0" x2="529" y2="50.0" style="stroke:#999; stroke-width:3;" />
  <line x1="529" y1="50.0" x2="549" y2="50.0" style="stroke:#999; stroke-width:3;" />
  <rect class="anc_exon" x="549" y="35.0" width="113" height="30" style="fill:#87bcbc;fill-opacity:1.00" />
  <line x1="662" y1="50.0" x2="682" y2="50.0" style="stroke:#999; stroke-width:3;" />
  <line x1="682" y1="50.0" x2="682" y2="50.0" style="stroke:#999; stroke-width:3;" />
  <line x1="682" y1="50.0" x2="682" y2="50.0" style="stroke:#999; stroke-width:3;" />
  <line x1="682" y1="50.0" x2="702" y2="50.0" style="stroke:#999; stroke-width:3;" />
  <rect class="anc_exon" x="702" y="35.0" width="133" height="30" style="fill:#87bcbc;fill-opacity:1.00" />
  <line x1="835" y1="50.0" x2="855" y2="50.0" style="stroke:#999; stroke-width:3;" />
  <line x1="855" y1="50.0" x2="855" y2="50.0" style="stroke:#999; stroke-width:3;" />
  <line x1="855" y1="50.0" x2="855" y2="50.0" style="stroke:#999; stroke-width:3;" />
  <line x1="855" y1="50.0" x2="875" y2="50.0" style="stroke:#999; stroke-width:3;" />
  <rect class="anc_exon" x="875" y="35.0" width="136" height="30" style="fill:#87bcbc;fill-opacity:1.00" />
  <line x1="1011" y1="50.0" x2="1031" y2="50.0" style="stroke:#999; stroke-width:3;" />
  <line x1="1031" y1="50.0" x2="1031" y2="50.0" style="stroke:#999; stroke-width:3;" />
  <line x1="1031" y1="50.0" x2="1031" y2="50.0" style="stroke:#999; stroke-width:3;" />
  <line x1="1031" y1="50.0" x2="1051" y2="50.0" style="stroke:#999; stroke-width:3;" />
  <rect class="anc_exon" x="1051" y="35.0" width="132" height="30" style="fill:#87bcbc;fill-opacity:1.00" />
  <line x1="1183" y1="50.0" x2="1203" y2="50.0" style="stroke:#999; stroke-width:3;" />
  <line x1="1203" y1="50.0" x2="1203" y2="50.0" style="stroke:#999; stroke-width:3;" />
  <line x1="1203" y1="50.0" x2="1203" y2="50.0" style="stroke:#999; stroke-width:3;" />
  <line x1="1203" y1="50.0" x2="1223" y2="50.0" style="stroke:#999; stroke-width:3;" />
  <rect class="anc_exon" x="1223" y="35.0" width="122" height="30" style="fill:#87bcbc;fill-opacity:1.00" />
  <line x1="1345" y1="50.0" x2="1365" y2="50.0" style="stroke:#999; stroke-width:3;" />
  <line x1="1365" y1="50.0" x2="1365" y2="50.0" style="stroke:#999; stroke-width:3;" />
  <line x1="1365" y1="50.0" x2="1365" y2="50.0" style="stroke:#999; stroke-width:3;" />
  <line x1="1365" y1="50.0" x2="1385" y2="50.0" style="stroke:#999; stroke-width:3;" />
  <rect class="anc_exon" x="1385" y="35.0" width="264" height="30" style="fill:#87bcbc;fill-opacity:1.00" />
  <line x1="1649" y1="50.0" x2="1669" y2="50.0" style="stroke:#999; stroke-width:3;" />
  <line x1="1669" y1="50.0" x2="1669" y2="50.0" style="stroke:#999; stroke-width:3;" />
  <line x1="1669" y1="50.0" x2="1669" y2="50.0" style="stroke:#999; stroke-width:3;" />
  <line x1="1669" y1="50.0" x2="1689" y2="50.0" style="stroke:#999; stroke-width:3;" />
  <rect class="anc_exon" x="1689" y="35.0" width="406" height="30" style="fill:#87bcbc;fill-opacity:1.00" />
  <rect class="anc_exon" x="2095" y="35.0" width="0" height="30" style="fill:#87bcbc;fill-opacity:1.00" />
  <text style="" >
<tspan x="0" y="83.0" style="font-size:18px;" >SP XM_023501743_2.1</tspan>  </text>



<script type="text/ecmascript">
<![CDATA[
function draw_bbox(text_id)
{
    var text_elem = document.getElementById(text_id);
    var offset_px = 2;
    var offset_py = 0;
    bbox = text_elem.getBBox();
    var box = document.createElementNS(document.rootElement.namespaceURI,'rect');
    box.setAttribute('x', bbox.x - offset_px);
    box.setAttribute('y', bbox.y - offset_py);
    box.setAttribute('width', bbox.width + offset_px * 2);
    box.setAttribute('height', bbox.height + offset_py * 2);
    box.setAttribute('style','fill: white;'+'stroke: black;'+'stroke-width: 1px;');
    text_elem.insertBefore(box,text_elem.childNodes[0]);

    var svg = text_elem.parentNode;
    svg.appendChild(text_elem);
}

for (var i=1; i < 1; i++)
{
draw_bbox("Mouseover" + i);
}
]]> 
</script>
</svg>
