<svg version="1.1"
xmlns="http://www.w3.org/2000/svg"
xmlns:xlink="http://www.w3.org/1999/xlink"
width="8494" height="100" viewBox = "0 0 8494 100"
onclick="mouseclick(evt)">

<script type="text/ecmascript">

<![CDATA[
    function mouseover(evt, target) { 
    var gv = document.getElementById("globalVariable");
    var previoustarget = gv.firstChild.nodeValue;
    if (previoustarget != "none") 
    {
        	document.getElementById(gv.firstChild.nodeValue).setAttributeNS(null, "visibility", "hidden");
    }
    document.getElementById(target).setAttributeNS(null, "visibility", "visible");
    gv.firstChild.nodeValue = target;
        }

    function mouseclick(evt) { 
    var gv = document.getElementById("globalVariable");
    var previoustarget = gv.firstChild.nodeValue;
    if (previoustarget != "none") {
        	document.getElementById(gv.firstChild.nodeValue).setAttributeNS(null, "visibility", "hidden");
        }
    }
]]>
  </script>
<style type="text/css" >

<![CDATA[
    rect.anc_exon {
              stroke-width:3;
                  }

    rect.non_anc_exon {
              stroke: black; stroke-width:3; stroke-dasharray: 5,5;
                    }

    text {
              font-size: 18px;
              font-family: Courier New;
          }
                    ]]>
</style>

<defs>
    <text x="150" y="40" id="globalVariable">none</text>
</defs>

  <rect class="anc_exon" x="0" y="35.0" width="0" height="30" style="fill:#87bcbc;fill-opacity:1.00" />
  <rect class="anc_exon" x="0" y="35.0" width="79.2" height="30" style="fill:#87bcbc;fill-opacity:1.00" />
  <line x1="79.2" y1="50.0" x2="98.2" y2="50.0" style="stroke:#999; stroke-width:3;" />
  <line x1="98.2" y1="50.0" x2="98.2" y2="50.0" style="stroke:#999; stroke-width:3;" />
  <line x1="98.2" y1="50.0" x2="98.2" y2="50.0" style="stroke:#999; stroke-width:3;" />
  <line x1="98.2" y1="50.0" x2="119.0" y2="50.0" style="stroke:#999; stroke-width:3;" />
  <rect class="anc_exon" x="119" y="35.0" width="69" height="30" style="fill:#87bcbc;fill-opacity:1.00" />
  <line x1="188" y1="50.0" x2="228" y2="50.0" style="stroke:#999; stroke-width:3;" />
  <rect class="anc_exon" x="228" y="35.0" width="127" height="30" style="fill:#87bcbc;fill-opacity:1.00" />
  <line x1="355" y1="50.0" x2="395" y2="50.0" style="stroke:#999; stroke-width:3;" />
  <rect class="anc_exon" x="395" y="35.0" width="79" height="30" style="fill:#87bcbc;fill-opacity:1.00" />
  <line x1="474" y1="50.0" x2="514" y2="50.0" style="stroke:#999; stroke-width:3;" />
  <rect class="anc_exon" x="514" y="35.0" width="67" height="30" style="fill:#87bcbc;fill-opacity:1.00" />
  <line x1="581" y1="50.0" x2="601" y2="50.0" style="stroke:#999; stroke-width:3;" />
  <line x1="601" y1="50.0" x2="601" y2="50.0" style="stroke:#999; stroke-width:3;" />
  <line x1="601" y1="50.0" x2="601" y2="50.0" style="stroke:#999; stroke-width:3;" />
  <line x1="601" y1="50.0" x2="621" y2="50.0" style="stroke:#999; stroke-width:3;" />
  <rect class="anc_exon" x="621" y="35.0" width="117" height="30" style="fill:#87bcbc;fill-opacity:1.00" />
  <line x1="738" y1="50.0" x2="778" y2="50.0" style="stroke:#999; stroke-width:3;" />
  <rect class="anc_exon" x="778" y="35.0" width="76" height="30" style="fill:#87bcbc;fill-opacity:1.00" />
  <line x1="854" y1="50.0" x2="894" y2="50.0" style="stroke:#999; stroke-width:3;" />
  <rect class="anc_exon" x="894" y="35.0" width="40" height="30" style="fill:#87bcbc;fill-opacity:1.00" />
  <line x1="934" y1="50.0" x2="974" y2="50.0" style="stroke:#999; stroke-width:3;" />
  <rect class="anc_exon" x="974" y="35.0" width="114" height="30" style="fill:#87bcbc;fill-opacity:1.00" />
  <line x1="1088" y1="50.0" x2="1128" y2="50.0" style="stroke:#999; stroke-width:3;" />
  <rect class="anc_exon" x="1128" y="35.0" width="80" height="30" style="fill:#87bcbc;fill-opacity:1.00" />
  <line x1="1208" y1="50.0" x2="1248" y2="50.0" style="stroke:#999; stroke-width:3;" />
  <rect class="anc_exon" x="1248" y="35.0" width="128" height="30" style="fill:#87bcbc;fill-opacity:1.00" />
  <line x1="1376" y1="50.0" x2="1416" y2="50.0" style="stroke:#999; stroke-width:3;" />
  <rect class="anc_exon" x="1416" y="35.0" width="113" height="30" style="fill:#87bcbc;fill-opacity:1.00" />
  <line x1="1529" y1="50.0" x2="1569" y2="50.0" style="stroke:#999; stroke-width:3;" />
  <rect class="anc_exon" x="1569" y="35.0" width="129" height="30" style="fill:#87bcbc;fill-opacity:1.00" />
  <line x1="1698" y1="50.0" x2="1738" y2="50.0" style="stroke:#999; stroke-width:3;" />
  <rect class="anc_exon" x="1738" y="35.0" width="138" height="30" style="fill:#87bcbc;fill-opacity:1.00" />
  <line x1="1876" y1="50.0" x2="1916" y2="50.0" style="stroke:#999; stroke-width:3;" />
  <rect class="anc_exon" x="1916" y="35.0" width="96" height="30" style="fill:#87bcbc;fill-opacity:1.00" />
  <line x1="2012" y1="50.0" x2="2052" y2="50.0" style="stroke:#999; stroke-width:3;" />
  <rect class="anc_exon" x="2052" y="35.0" width="146" height="30" style="fill:#87bcbc;fill-opacity:1.00" />
  <line x1="2198" y1="50.0" x2="2218" y2="50.0" style="stroke:#999; stroke-width:3;" />
  <line x1="2218" y1="50.0" x2="2218" y2="50.0" style="stroke:#999; stroke-width:3;" />
  <line x1="2218" y1="50.0" x2="2218" y2="50.0" style="stroke:#999; stroke-width:3;" />
  <line x1="2218" y1="50.0" x2="2238" y2="50.0" style="stroke:#999; stroke-width:3;" />
  <rect class="anc_exon" x="2238" y="35.0" width="201" height="30" style="fill:#87bcbc;fill-opacity:1.00" />
  <line x1="2439" y1="50.0" x2="2479" y2="50.0" style="stroke:#999; stroke-width:3;" />
  <rect class="anc_exon" x="2479" y="35.0" width="116" height="30" style="fill:#87bcbc;fill-opacity:1.00" />
  <line x1="2595" y1="50.0" x2="2615" y2="50.0" style="stroke:#999; stroke-width:3;" />
  <line x1="2615" y1="50.0" x2="2615" y2="50.0" style="stroke:#999; stroke-width:3;" />
  <line x1="2615" y1="50.0" x2="2615" y2="50.0" style="stroke:#999; stroke-width:3;" />
  <line x1="2615" y1="50.0" x2="2635" y2="50.0" style="stroke:#999; stroke-width:3;" />
  <rect class="anc_exon" x="2635" y="35.0" width="116" height="30" style="fill:#87bcbc;fill-opacity:1.00" />
  <line x1="2751" y1="50.0" x2="2771" y2="50.0" style="stroke:#999; stroke-width:3;" />
  <line x1="2771" y1="50.0" x2="2771" y2="50.0" style="stroke:#999; stroke-width:3;" />
  <line x1="2771" y1="50.0" x2="2771" y2="50.0" style="stroke:#999; stroke-width:3;" />
  <line x1="2771" y1="50.0" x2="2791" y2="50.0" style="stroke:#999; stroke-width:3;" />
  <rect class="anc_exon" x="2791" y="35.0" width="157" height="30" style="fill:#87bcbc;fill-opacity:1.00" />
  <line x1="2948" y1="50.0" x2="2988" y2="50.0" style="stroke:#999; stroke-width:3;" />
  <rect class="anc_exon" x="2988" y="35.0" width="104" height="30" style="fill:#87bcbc;fill-opacity:1.00" />
  <line x1="3092" y1="50.0" x2="3132" y2="50.0" style="stroke:#999; stroke-width:3;" />
  <rect class="anc_exon" x="3132" y="35.0" width="46" height="30" style="fill:#87bcbc;fill-opacity:1.00" />
  <line x1="3178" y1="50.0" x2="3218" y2="50.0" style="stroke:#999; stroke-width:3;" />
  <rect class="anc_exon" x="3218" y="35.0" width="132" height="30" style="fill:#87bcbc;fill-opacity:1.00" />
  <line x1="3350" y1="50.0" x2="3390" y2="50.0" style="stroke:#999; stroke-width:3;" />
  <rect class="anc_exon" x="3390" y="35.0" width="127" height="30" style="fill:#87bcbc;fill-opacity:1.00" />
  <line x1="3517" y1="50.0" x2="3557" y2="50.0" style="stroke:#999; stroke-width:3;" />
  <rect class="anc_exon" x="3557" y="35.0" width="60" height="30" style="fill:#87bcbc;fill-opacity:1.00" />
  <line x1="3617" y1="50.0" x2="3657" y2="50.0" style="stroke:#999; stroke-width:3;" />
  <rect class="anc_exon" x="3657" y="35.0" width="100" height="30" style="fill:#87bcbc;fill-opacity:1.00" />
  <line x1="3757" y1="50.0" x2="3797" y2="50.0" style="stroke:#999; stroke-width:3;" />
  <rect class="anc_exon" x="3797" y="35.0" width="98" height="30" style="fill:#87bcbc;fill-opacity:1.00" />
  <line x1="3895" y1="50.0" x2="3935" y2="50.0" style="stroke:#999; stroke-width:3;" />
  <rect class="anc_exon" x="3935" y="35.0" width="160" height="30" style="fill:#87bcbc;fill-opacity:1.00" />
  <line x1="4095" y1="50.0" x2="4115" y2="50.0" style="stroke:#999; stroke-width:3;" />
  <line x1="4115" y1="50.0" x2="4115" y2="50.0" style="stroke:#999; stroke-width:3;" />
  <line x1="4115" y1="50.0" x2="4115" y2="50.0" style="stroke:#999; stroke-width:3;" />
  <line x1="4115" y1="50.0" x2="4135" y2="50.0" style="stroke:#999; stroke-width:3;" />
  <rect class="anc_exon" x="4135" y="35.0" width="201" height="30" style="fill:#87bcbc;fill-opacity:1.00" />
  <line x1="4336" y1="50.0" x2="4376" y2="50.0" style="stroke:#999; stroke-width:3;" />
  <rect class="anc_exon" x="4376" y="35.0" width="100" height="30" style="fill:#87bcbc;fill-opacity:1.00" />
  <line x1="4476" y1="50.0" x2="4516" y2="50.0" style="stroke:#999; stroke-width:3;" />
  <rect class="anc_exon" x="4516" y="35.0" width="100" height="30" style="fill:#87bcbc;fill-opacity:1.00" />
  <line x1="4616" y1="50.0" x2="4656" y2="50.0" style="stroke:#999; stroke-width:3;" />
  <rect class="anc_exon" x="4656" y="35.0" width="96" height="30" style="fill:#87bcbc;fill-opacity:1.00" />
  <line x1="4752" y1="50.0" x2="4792" y2="50.0" style="stroke:#999; stroke-width:3;" />
  <rect class="anc_exon" x="4792" y="35.0" width="148" height="30" style="fill:#87bcbc;fill-opacity:1.00" />
  <line x1="4940" y1="50.0" x2="4980" y2="50.0" style="stroke:#999; stroke-width:3;" />
  <rect class="anc_exon" x="4980" y="35.0" width="119" height="30" style="fill:#87bcbc;fill-opacity:1.00" />
  <line x1="5099" y1="50.0" x2="5139" y2="50.0" style="stroke:#999; stroke-width:3;" />
  <rect class="anc_exon" x="5139" y="35.0" width="87" height="30" style="fill:#87bcbc;fill-opacity:1.00" />
  <line x1="5226" y1="50.0" x2="5246" y2="50.0" style="stroke:#999; stroke-width:3;" />
  <line x1="5246" y1="50.0" x2="5246" y2="50.0" style="stroke:#999; stroke-width:3;" />
  <line x1="5246" y1="50.0" x2="5246" y2="50.0" style="stroke:#999; stroke-width:3;" />
  <line x1="5246" y1="50.0" x2="5266" y2="50.0" style="stroke:#999; stroke-width:3;" />
  <rect class="anc_exon" x="5266" y="35.0" width="72" height="30" style="fill:#87bcbc;fill-opacity:1.00" />
  <line x1="5338" y1="50.0" x2="5378" y2="50.0" style="stroke:#999; stroke-width:3;" />
  <rect class="anc_exon" x="5378" y="35.0" width="136" height="30" style="fill:#87bcbc;fill-opacity:1.00" />
  <line x1="5514" y1="50.0" x2="5554" y2="50.0" style="stroke:#999; stroke-width:3;" />
  <rect class="anc_exon" x="5554" y="35.0" width="140" height="30" style="fill:#87bcbc;fill-opacity:1.00" />
  <line x1="5694" y1="50.0" x2="5734" y2="50.0" style="stroke:#999; stroke-width:3;" />
  <rect class="anc_exon" x="5734" y="35.0" width="148" height="30" style="fill:#87bcbc;fill-opacity:1.00" />
  <line x1="5882" y1="50.0" x2="5922" y2="50.0" style="stroke:#999; stroke-width:3;" />
  <rect class="anc_exon" x="5922" y="35.0" width="160" height="30" style="fill:#87bcbc;fill-opacity:1.00" />
  <line x1="6082" y1="50.0" x2="6122" y2="50.0" style="stroke:#999; stroke-width:3;" />
  <rect class="anc_exon" x="6122" y="35.0" width="88" height="30" style="fill:#87bcbc;fill-opacity:1.00" />
  <line x1="6210" y1="50.0" x2="6250" y2="50.0" style="stroke:#999; stroke-width:3;" />
  <rect class="anc_exon" x="6250" y="35.0" width="76" height="30" style="fill:#87bcbc;fill-opacity:1.00" />
  <line x1="6326" y1="50.0" x2="6366" y2="50.0" style="stroke:#999; stroke-width:3;" />
  <rect class="anc_exon" x="6366" y="35.0" width="81" height="30" style="fill:#87bcbc;fill-opacity:1.00" />
  <line x1="6447" y1="50.0" x2="6487" y2="50.0" style="stroke:#999; stroke-width:3;" />
  <rect class="anc_exon" x="6487" y="35.0" width="69" height="30" style="fill:#87bcbc;fill-opacity:1.00" />
  <line x1="6556" y1="50.0" x2="6596" y2="50.0" style="stroke:#999; stroke-width:3;" />
  <rect class="anc_exon" x="6596" y="35.0" width="88" height="30" style="fill:#87bcbc;fill-opacity:1.00" />
  <line x1="6684" y1="50.0" x2="6724" y2="50.0" style="stroke:#999; stroke-width:3;" />
  <rect class="anc_exon" x="6724" y="35.0" width="154" height="30" style="fill:#87bcbc;fill-opacity:1.00" />
  <line x1="6878" y1="50.0" x2="6918" y2="50.0" style="stroke:#999; stroke-width:3;" />
  <rect class="anc_exon" x="6918" y="35.0" width="100" height="30" style="fill:#87bcbc;fill-opacity:1.00" />
  <line x1="7018" y1="50.0" x2="7058" y2="50.0" style="stroke:#999; stroke-width:3;" />
  <rect class="anc_exon" x="7058" y="35.0" width="138" height="30" style="fill:#87bcbc;fill-opacity:1.00" />
  <line x1="7196" y1="50.0" x2="7216" y2="50.0" style="stroke:#999; stroke-width:3;" />
  <line x1="7216" y1="50.0" x2="7216" y2="50.0" style="stroke:#999; stroke-width:3;" />
  <line x1="7216" y1="50.0" x2="7216" y2="50.0" style="stroke:#999; stroke-width:3;" />
  <line x1="7216" y1="50.0" x2="7236" y2="50.0" style="stroke:#999; stroke-width:3;" />
  <rect class="anc_exon" x="7236" y="35.0" width="132" height="30" style="fill:#87bcbc;fill-opacity:1.00" />
  <line x1="7368" y1="50.0" x2="7408" y2="50.0" style="stroke:#999; stroke-width:3;" />
  <rect class="anc_exon" x="7408" y="35.0" width="154" height="30" style="fill:#87bcbc;fill-opacity:1.00" />
  <line x1="7562" y1="50.0" x2="7602" y2="50.0" style="stroke:#999; stroke-width:3;" />
  <rect class="anc_exon" x="7602" y="35.0" width="84" height="30" style="fill:#87bcbc;fill-opacity:1.00" />
  <line x1="7686" y1="50.0" x2="7726" y2="50.0" style="stroke:#999; stroke-width:3;" />
  <rect class="anc_exon" x="7726" y="35.0" width="128" height="30" style="fill:#87bcbc;fill-opacity:1.00" />
  <line x1="7854" y1="50.0" x2="7874" y2="50.0" style="stroke:#999; stroke-width:3;" />
  <line x1="7874" y1="50.0" x2="7874" y2="50.0" style="stroke:#999; stroke-width:3;" />
  <line x1="7874" y1="50.0" x2="7874" y2="50.0" style="stroke:#999; stroke-width:3;" />
  <line x1="7874" y1="50.0" x2="7894" y2="50.0" style="stroke:#999; stroke-width:3;" />
  <rect class="anc_exon" x="7894" y="35.0" width="132" height="30" style="fill:#87bcbc;fill-opacity:1.00" />
  <line x1="8026" y1="50.0" x2="8066" y2="50.0" style="stroke:#999; stroke-width:3;" />
  <rect class="anc_exon" x="8066" y="35.0" width="128" height="30" style="fill:#87bcbc;fill-opacity:1.00" />
  <line x1="8194" y1="50.0" x2="8234" y2="50.0" style="stroke:#999; stroke-width:3;" />
  <rect class="anc_exon" x="8234" y="35.0" width="129" height="30" style="fill:#87bcbc;fill-opacity:1.00" />
  <line x1="8363" y1="50.0" x2="8403" y2="50.0" style="stroke:#999; stroke-width:3;" />
  <rect class="anc_exon" x="8403" y="35.0" width="55" height="30" style="fill:#87bcbc;fill-opacity:1.00" />
  <rect class="anc_exon" x="8458" y="35.0" width="0" height="30" style="fill:#87bcbc;fill-opacity:1.00" />
  <text style="" >
<tspan x="0" y="83.0" style="font-size:18px;" >SP XM_031965057_1.1</tspan>  </text>



<script type="text/ecmascript">
<![CDATA[
function draw_bbox(text_id)
{
    var text_elem = document.getElementById(text_id);
    var offset_px = 2;
    var offset_py = 0;
    bbox = text_elem.getBBox();
    var box = document.createElementNS(document.rootElement.namespaceURI,'rect');
    box.setAttribute('x', bbox.x - offset_px);
    box.setAttribute('y', bbox.y - offset_py);
    box.setAttribute('width', bbox.width + offset_px * 2);
    box.setAttribute('height', bbox.height + offset_py * 2);
    box.setAttribute('style','fill: white;'+'stroke: black;'+'stroke-width: 1px;');
    text_elem.insertBefore(box,text_elem.childNodes[0]);

    var svg = text_elem.parentNode;
    svg.appendChild(text_elem);
}

for (var i=1; i < 1; i++)
{
draw_bbox("Mouseover" + i);
}
]]> 
</script>
</svg>
