<svg version="1.1"
xmlns="http://www.w3.org/2000/svg"
xmlns:xlink="http://www.w3.org/1999/xlink"
width="3526" height="100" viewBox = "0 0 3526 100"
onclick="mouseclick(evt)">

<script type="text/ecmascript">

<![CDATA[
    function mouseover(evt, target) { 
    var gv = document.getElementById("globalVariable");
    var previoustarget = gv.firstChild.nodeValue;
    if (previoustarget != "none") 
    {
        	document.getElementById(gv.firstChild.nodeValue).setAttributeNS(null, "visibility", "hidden");
    }
    document.getElementById(target).setAttributeNS(null, "visibility", "visible");
    gv.firstChild.nodeValue = target;
        }

    function mouseclick(evt) { 
    var gv = document.getElementById("globalVariable");
    var previoustarget = gv.firstChild.nodeValue;
    if (previoustarget != "none") {
        	document.getElementById(gv.firstChild.nodeValue).setAttributeNS(null, "visibility", "hidden");
        }
    }
]]>
  </script>
<style type="text/css" >

<![CDATA[
    rect.anc_exon {
              stroke-width:3;
                  }

    rect.non_anc_exon {
              stroke: black; stroke-width:3; stroke-dasharray: 5,5;
                    }

    text {
              font-size: 18px;
              font-family: Courier New;
          }
                    ]]>
</style>

<defs>
    <text x="150" y="40" id="globalVariable">none</text>
</defs>

  <rect class="anc_exon" x="0" y="35.0" width="0" height="30" style="fill:#87bcbc;fill-opacity:1.00" />
  <rect class="anc_exon" x="0" y="35.0" width="557.6" height="30" style="fill:#87bcbc;fill-opacity:1.00" />
  <line x1="557.6" y1="50.0" x2="576.6" y2="50.0" style="stroke:#999; stroke-width:3;" />
  <line x1="576.6" y1="50.0" x2="576.6" y2="50.0" style="stroke:#999; stroke-width:3;" />
  <line x1="576.6" y1="50.0" x2="576.6" y2="50.0" style="stroke:#999; stroke-width:3;" />
  <line x1="576.6" y1="50.0" x2="597.0" y2="50.0" style="stroke:#999; stroke-width:3;" />
  <rect class="anc_exon" x="597" y="35.0" width="110" height="30" style="fill:#87bcbc;fill-opacity:1.00" />
  <line x1="707" y1="50.0" x2="747" y2="50.0" style="stroke:#999; stroke-width:3;" />
  <rect class="anc_exon" x="747" y="35.0" width="128" height="30" style="fill:#87bcbc;fill-opacity:1.00" />
  <line x1="875" y1="50.0" x2="895" y2="50.0" style="stroke:#999; stroke-width:3;" />
  <line x1="895" y1="50.0" x2="895" y2="50.0" style="stroke:#999; stroke-width:3;" />
  <line x1="895" y1="50.0" x2="895" y2="50.0" style="stroke:#999; stroke-width:3;" />
  <line x1="895" y1="50.0" x2="915" y2="50.0" style="stroke:#999; stroke-width:3;" />
  <rect class="anc_exon" x="915" y="35.0" width="43" height="30" style="fill:#87bcbc;fill-opacity:1.00" />
  <line x1="958" y1="50.0" x2="978" y2="50.0" style="stroke:#999; stroke-width:3;" />
  <line x1="978" y1="50.0" x2="978" y2="50.0" style="stroke:#999; stroke-width:3;" />
  <line x1="978" y1="50.0" x2="978" y2="50.0" style="stroke:#999; stroke-width:3;" />
  <line x1="978" y1="50.0" x2="998" y2="50.0" style="stroke:#999; stroke-width:3;" />
  <rect class="anc_exon" x="998" y="35.0" width="81" height="30" style="fill:#87bcbc;fill-opacity:1.00" />
  <line x1="1079" y1="50.0" x2="1099" y2="50.0" style="stroke:#999; stroke-width:3;" />
  <line x1="1099" y1="50.0" x2="1099" y2="50.0" style="stroke:#999; stroke-width:3;" />
  <line x1="1099" y1="50.0" x2="1099" y2="50.0" style="stroke:#999; stroke-width:3;" />
  <line x1="1099" y1="50.0" x2="1119" y2="50.0" style="stroke:#999; stroke-width:3;" />
  <rect class="anc_exon" x="1119" y="35.0" width="164" height="30" style="fill:#87bcbc;fill-opacity:1.00" />
  <line x1="1283" y1="50.0" x2="1303" y2="50.0" style="stroke:#999; stroke-width:3;" />
  <line x1="1303" y1="50.0" x2="1303" y2="50.0" style="stroke:#999; stroke-width:3;" />
  <line x1="1303" y1="50.0" x2="1303" y2="50.0" style="stroke:#999; stroke-width:3;" />
  <line x1="1303" y1="50.0" x2="1323" y2="50.0" style="stroke:#999; stroke-width:3;" />
  <rect class="anc_exon" x="1323" y="35.0" width="71" height="30" style="fill:#87bcbc;fill-opacity:1.00" />
  <line x1="1394" y1="50.0" x2="1434" y2="50.0" style="stroke:#999; stroke-width:3;" />
  <rect class="anc_exon" x="1434" y="35.0" width="198" height="30" style="fill:#87bcbc;fill-opacity:1.00" />
  <line x1="1632" y1="50.0" x2="1652" y2="50.0" style="stroke:#999; stroke-width:3;" />
  <line x1="1652" y1="50.0" x2="1652" y2="50.0" style="stroke:#999; stroke-width:3;" />
  <line x1="1652" y1="50.0" x2="1652" y2="50.0" style="stroke:#999; stroke-width:3;" />
  <line x1="1652" y1="50.0" x2="1672" y2="50.0" style="stroke:#999; stroke-width:3;" />
  <rect class="anc_exon" x="1672" y="35.0" width="139" height="30" style="fill:#87bcbc;fill-opacity:1.00" />
  <line x1="1811" y1="50.0" x2="1831" y2="50.0" style="stroke:#999; stroke-width:3;" />
  <line x1="1831" y1="50.0" x2="1831" y2="50.0" style="stroke:#999; stroke-width:3;" />
  <line x1="1831" y1="50.0" x2="1831" y2="50.0" style="stroke:#999; stroke-width:3;" />
  <line x1="1831" y1="50.0" x2="1851" y2="50.0" style="stroke:#999; stroke-width:3;" />
  <rect class="anc_exon" x="1851" y="35.0" width="64" height="30" style="fill:#878787;fill-opacity:1.00" />
  <line x1="1915" y1="50.0" x2="1935" y2="50.0" style="stroke:#999; stroke-width:3;" />
  <line x1="1935" y1="50.0" x2="1935" y2="50.0" style="stroke:#999; stroke-width:3;" />
  <line x1="1935" y1="50.0" x2="1935" y2="50.0" style="stroke:#999; stroke-width:3;" />
  <line x1="1935" y1="50.0" x2="1955" y2="50.0" style="stroke:#999; stroke-width:3;" />
  <rect class="anc_exon" x="1955" y="35.0" width="90" height="30" style="fill:#87bcbc;fill-opacity:1.00" />
  <line x1="2045" y1="50.0" x2="2065" y2="50.0" style="stroke:#999; stroke-width:3;" />
  <line x1="2065" y1="50.0" x2="2065" y2="50.0" style="stroke:#999; stroke-width:3;" />
  <line x1="2065" y1="50.0" x2="2065" y2="50.0" style="stroke:#999; stroke-width:3;" />
  <line x1="2065" y1="50.0" x2="2085" y2="50.0" style="stroke:#999; stroke-width:3;" />
  <rect class="anc_exon" x="2085" y="35.0" width="86" height="30" style="fill:#878787;fill-opacity:1.00" />
  <line x1="2171" y1="50.0" x2="2191" y2="50.0" style="stroke:#999; stroke-width:3;" />
  <line x1="2191" y1="50.0" x2="2191" y2="50.0" style="stroke:#999; stroke-width:3;" />
  <line x1="2191" y1="50.0" x2="2191" y2="50.0" style="stroke:#999; stroke-width:3;" />
  <line x1="2191" y1="50.0" x2="2211" y2="50.0" style="stroke:#999; stroke-width:3;" />
  <rect class="anc_exon" x="2211" y="35.0" width="187" height="30" style="fill:#87bcbc;fill-opacity:1.00" />
  <line x1="2398" y1="50.0" x2="2418" y2="50.0" style="stroke:#999; stroke-width:3;" />
  <line x1="2418" y1="50.0" x2="2418" y2="50.0" style="stroke:#999; stroke-width:3;" />
  <line x1="2418" y1="50.0" x2="2418" y2="50.0" style="stroke:#999; stroke-width:3;" />
  <line x1="2418" y1="50.0" x2="2438" y2="50.0" style="stroke:#999; stroke-width:3;" />
  <rect class="anc_exon" x="2438" y="35.0" width="64" height="30" style="fill:#87bcbc;fill-opacity:1.00" />
  <line x1="2502" y1="50.0" x2="2522" y2="50.0" style="stroke:#999; stroke-width:3;" />
  <line x1="2522" y1="50.0" x2="2522" y2="50.0" style="stroke:#999; stroke-width:3;" />
  <line x1="2522" y1="50.0" x2="2522" y2="50.0" style="stroke:#999; stroke-width:3;" />
  <line x1="2522" y1="50.0" x2="2542" y2="50.0" style="stroke:#999; stroke-width:3;" />
  <rect class="anc_exon" x="2542" y="35.0" width="147" height="30" style="fill:#878787;fill-opacity:1.00" />
  <line x1="2689" y1="50.0" x2="2729" y2="50.0" style="stroke:#999; stroke-width:3;" />
  <rect class="anc_exon" x="2729" y="35.0" width="69" height="30" style="fill:#878787;fill-opacity:1.00" />
  <line x1="2798" y1="50.0" x2="2838" y2="50.0" style="stroke:#999; stroke-width:3;" />
  <rect class="anc_exon" x="2838" y="35.0" width="118" height="30" style="fill:#878787;fill-opacity:1.00" />
  <line x1="2956" y1="50.0" x2="2996" y2="50.0" style="stroke:#999; stroke-width:3;" />
  <rect class="anc_exon" x="2996" y="35.0" width="104" height="30" style="fill:#87bcbc;fill-opacity:1.00" />
  <line x1="3100" y1="50.0" x2="3140" y2="50.0" style="stroke:#999; stroke-width:3;" />
  <rect class="anc_exon" x="3140" y="35.0" width="84" height="30" style="fill:#87bcbc;fill-opacity:1.00" />
  <line x1="3224" y1="50.0" x2="3264" y2="50.0" style="stroke:#999; stroke-width:3;" />
  <rect class="anc_exon" x="3264" y="35.0" width="81" height="30" style="fill:#87bcbc;fill-opacity:1.00" />
  <line x1="3345" y1="50.0" x2="3385" y2="50.0" style="stroke:#999; stroke-width:3;" />
  <rect class="anc_exon" x="3385" y="35.0" width="105" height="30" style="fill:#87bcbc;fill-opacity:1.00" />
  <rect class="anc_exon" x="3490" y="35.0" width="0" height="30" style="fill:#87bcbc;fill-opacity:1.00" />
  <text style="" >
<tspan x="0" y="83.0" style="font-size:18px;" >SP XM_031968143_1.1</tspan>  </text>



<script type="text/ecmascript">
<![CDATA[
function draw_bbox(text_id)
{
    var text_elem = document.getElementById(text_id);
    var offset_px = 2;
    var offset_py = 0;
    bbox = text_elem.getBBox();
    var box = document.createElementNS(document.rootElement.namespaceURI,'rect');
    box.setAttribute('x', bbox.x - offset_px);
    box.setAttribute('y', bbox.y - offset_py);
    box.setAttribute('width', bbox.width + offset_px * 2);
    box.setAttribute('height', bbox.height + offset_py * 2);
    box.setAttribute('style','fill: white;'+'stroke: black;'+'stroke-width: 1px;');
    text_elem.insertBefore(box,text_elem.childNodes[0]);

    var svg = text_elem.parentNode;
    svg.appendChild(text_elem);
}

for (var i=1; i < 1; i++)
{
draw_bbox("Mouseover" + i);
}
]]> 
</script>
</svg>
