<svg version="1.1"
xmlns="http://www.w3.org/2000/svg"
xmlns:xlink="http://www.w3.org/1999/xlink"
width="1776" height="100" viewBox = "0 0 1776 100"
onclick="mouseclick(evt)">

<script type="text/ecmascript">

<![CDATA[
    function mouseover(evt, target) { 
    var gv = document.getElementById("globalVariable");
    var previoustarget = gv.firstChild.nodeValue;
    if (previoustarget != "none") 
    {
        	document.getElementById(gv.firstChild.nodeValue).setAttributeNS(null, "visibility", "hidden");
    }
    document.getElementById(target).setAttributeNS(null, "visibility", "visible");
    gv.firstChild.nodeValue = target;
        }

    function mouseclick(evt) { 
    var gv = document.getElementById("globalVariable");
    var previoustarget = gv.firstChild.nodeValue;
    if (previoustarget != "none") {
        	document.getElementById(gv.firstChild.nodeValue).setAttributeNS(null, "visibility", "hidden");
        }
    }
]]>
  </script>
<style type="text/css" >

<![CDATA[
    rect.anc_exon {
              stroke-width:3;
                  }

    rect.non_anc_exon {
              stroke: black; stroke-width:3; stroke-dasharray: 5,5;
                    }

    text {
              font-size: 18px;
              font-family: Courier New;
          }
                    ]]>
</style>

<defs>
    <text x="150" y="40" id="globalVariable">none</text>
</defs>

  <rect class="anc_exon" x="0" y="35.0" width="0" height="30" style="fill:#87bcbc;fill-opacity:1.00" />
  <rect class="anc_exon" x="0" y="35.0" width="597.6" height="30" style="fill:#87bcbc;fill-opacity:1.00" />
  <line x1="597.6" y1="50.0" x2="616.6" y2="50.0" style="stroke:#999; stroke-width:3;" />
  <line x1="616.6" y1="50.0" x2="616.6" y2="50.0" style="stroke:#999; stroke-width:3;" />
  <line x1="616.6" y1="50.0" x2="616.6" y2="50.0" style="stroke:#999; stroke-width:3;" />
  <line x1="616.6" y1="50.0" x2="637.0" y2="50.0" style="stroke:#999; stroke-width:3;" />
  <rect class="anc_exon" x="637" y="35.0" width="120" height="30" style="fill:#87bcbc;fill-opacity:1.00" />
  <line x1="757" y1="50.0" x2="777" y2="50.0" style="stroke:#999; stroke-width:3;" />
  <line x1="777" y1="50.0" x2="777" y2="50.0" style="stroke:#999; stroke-width:3;" />
  <line x1="777" y1="50.0" x2="777" y2="50.0" style="stroke:#999; stroke-width:3;" />
  <line x1="777" y1="50.0" x2="797" y2="50.0" style="stroke:#999; stroke-width:3;" />
  <rect class="anc_exon" x="797" y="35.0" width="102" height="30" style="fill:#87bcbc;fill-opacity:1.00" />
  <line x1="899" y1="50.0" x2="919" y2="50.0" style="stroke:#999; stroke-width:3;" />
  <line x1="919" y1="50.0" x2="919" y2="50.0" style="stroke:#999; stroke-width:3;" />
  <line x1="919" y1="50.0" x2="919" y2="50.0" style="stroke:#999; stroke-width:3;" />
  <line x1="919" y1="50.0" x2="939" y2="50.0" style="stroke:#999; stroke-width:3;" />
  <rect class="anc_exon" x="939" y="35.0" width="120" height="30" style="fill:#87bcbc;fill-opacity:1.00" />
  <line x1="1059" y1="50.0" x2="1099" y2="50.0" style="stroke:#999; stroke-width:3;" />
  <rect class="anc_exon" x="1099" y="35.0" width="45" height="30" style="fill:#87bcbc;fill-opacity:1.00" />
  <line x1="1144" y1="50.0" x2="1164" y2="50.0" style="stroke:#999; stroke-width:3;" />
  <line x1="1164" y1="50.0" x2="1164" y2="50.0" style="stroke:#999; stroke-width:3;" />
  <line x1="1164" y1="50.0" x2="1164" y2="50.0" style="stroke:#999; stroke-width:3;" />
  <line x1="1164" y1="50.0" x2="1184" y2="50.0" style="stroke:#999; stroke-width:3;" />
  <rect class="anc_exon" x="1184" y="35.0" width="123" height="30" style="fill:#87bcbc;fill-opacity:1.00" />
  <line x1="1307" y1="50.0" x2="1347" y2="50.0" style="stroke:#999; stroke-width:3;" />
  <rect class="anc_exon" x="1347" y="35.0" width="73" height="30" style="fill:#87bcbc;fill-opacity:1.00" />
  <line x1="1420" y1="50.0" x2="1440" y2="50.0" style="stroke:#999; stroke-width:3;" />
  <line x1="1440" y1="50.0" x2="1440" y2="50.0" style="stroke:#999; stroke-width:3;" />
  <line x1="1440" y1="50.0" x2="1440" y2="50.0" style="stroke:#999; stroke-width:3;" />
  <line x1="1440" y1="50.0" x2="1460" y2="50.0" style="stroke:#999; stroke-width:3;" />
  <rect class="anc_exon" x="1460" y="35.0" width="64" height="30" style="fill:#87bcbc;fill-opacity:1.00" />
  <line x1="1524" y1="50.0" x2="1564" y2="50.0" style="stroke:#999; stroke-width:3;" />
  <rect class="anc_exon" x="1564" y="35.0" width="55" height="30" style="fill:#87bcbc;fill-opacity:1.00" />
  <line x1="1619" y1="50.0" x2="1639" y2="50.0" style="stroke:#999; stroke-width:3;" />
  <line x1="1639" y1="50.0" x2="1639" y2="50.0" style="stroke:#999; stroke-width:3;" />
  <line x1="1639" y1="50.0" x2="1639" y2="50.0" style="stroke:#999; stroke-width:3;" />
  <line x1="1639" y1="50.0" x2="1659" y2="50.0" style="stroke:#999; stroke-width:3;" />
  <rect class="anc_exon" x="1659" y="35.0" width="81" height="30" style="fill:#87bcbc;fill-opacity:1.00" />
  <rect class="anc_exon" x="1740" y="35.0" width="0" height="30" style="fill:#87bcbc;fill-opacity:1.00" />
  <text style="" >
<tspan x="0" y="83.0" style="font-size:18px;" >SP XM_031967604_1.1</tspan>  </text>



<script type="text/ecmascript">
<![CDATA[
function draw_bbox(text_id)
{
    var text_elem = document.getElementById(text_id);
    var offset_px = 2;
    var offset_py = 0;
    bbox = text_elem.getBBox();
    var box = document.createElementNS(document.rootElement.namespaceURI,'rect');
    box.setAttribute('x', bbox.x - offset_px);
    box.setAttribute('y', bbox.y - offset_py);
    box.setAttribute('width', bbox.width + offset_px * 2);
    box.setAttribute('height', bbox.height + offset_py * 2);
    box.setAttribute('style','fill: white;'+'stroke: black;'+'stroke-width: 1px;');
    text_elem.insertBefore(box,text_elem.childNodes[0]);

    var svg = text_elem.parentNode;
    svg.appendChild(text_elem);
}

for (var i=1; i < 1; i++)
{
draw_bbox("Mouseover" + i);
}
]]> 
</script>
</svg>
