<svg version="1.1"
xmlns="http://www.w3.org/2000/svg"
xmlns:xlink="http://www.w3.org/1999/xlink"
width="3176" height="100" viewBox = "0 0 3176 100"
onclick="mouseclick(evt)">

<script type="text/ecmascript">

<![CDATA[
    function mouseover(evt, target) { 
    var gv = document.getElementById("globalVariable");
    var previoustarget = gv.firstChild.nodeValue;
    if (previoustarget != "none") 
    {
        	document.getElementById(gv.firstChild.nodeValue).setAttributeNS(null, "visibility", "hidden");
    }
    document.getElementById(target).setAttributeNS(null, "visibility", "visible");
    gv.firstChild.nodeValue = target;
        }

    function mouseclick(evt) { 
    var gv = document.getElementById("globalVariable");
    var previoustarget = gv.firstChild.nodeValue;
    if (previoustarget != "none") {
        	document.getElementById(gv.firstChild.nodeValue).setAttributeNS(null, "visibility", "hidden");
        }
    }
]]>
  </script>
<style type="text/css" >

<![CDATA[
    rect.anc_exon {
              stroke-width:3;
                  }

    rect.non_anc_exon {
              stroke: black; stroke-width:3; stroke-dasharray: 5,5;
                    }

    text {
              font-size: 18px;
              font-family: Courier New;
          }
                    ]]>
</style>

<defs>
    <text x="150" y="40" id="globalVariable">none</text>
</defs>

  <rect class="anc_exon" x="0" y="35.0" width="0" height="30" style="fill:#87bcbc;fill-opacity:1.00" />
  <rect class="anc_exon" x="0" y="35.0" width="36.0" height="30" style="fill:#87bcbc;fill-opacity:1.00" />
  <line x1="36.0" y1="50.0" x2="76.0" y2="50.0" style="stroke:#999; stroke-width:3;" />
  <rect class="anc_exon" x="76" y="35.0" width="62" height="30" style="fill:#87bcbc;fill-opacity:1.00" />
  <line x1="138" y1="50.0" x2="158" y2="50.0" style="stroke:#999; stroke-width:3;" />
  <line x1="158" y1="50.0" x2="158" y2="50.0" style="stroke:#999; stroke-width:3;" />
  <line x1="158" y1="50.0" x2="158" y2="50.0" style="stroke:#999; stroke-width:3;" />
  <line x1="158" y1="50.0" x2="178" y2="50.0" style="stroke:#999; stroke-width:3;" />
  <rect class="anc_exon" x="178" y="35.0" width="64" height="30" style="fill:#87bcbc;fill-opacity:1.00" />
  <line x1="242" y1="50.0" x2="262" y2="50.0" style="stroke:#999; stroke-width:3;" />
  <line x1="262" y1="50.0" x2="262" y2="50.0" style="stroke:#999; stroke-width:3;" />
  <line x1="262" y1="50.0" x2="262" y2="50.0" style="stroke:#999; stroke-width:3;" />
  <line x1="262" y1="50.0" x2="282" y2="50.0" style="stroke:#999; stroke-width:3;" />
  <rect class="anc_exon" x="282" y="35.0" width="100" height="30" style="fill:#87bcbc;fill-opacity:1.00" />
  <line x1="382" y1="50.0" x2="402" y2="50.0" style="stroke:#999; stroke-width:3;" />
  <line x1="402" y1="50.0" x2="402" y2="50.0" style="stroke:#999; stroke-width:3;" />
  <line x1="402" y1="50.0" x2="402" y2="50.0" style="stroke:#999; stroke-width:3;" />
  <line x1="402" y1="50.0" x2="422" y2="50.0" style="stroke:#999; stroke-width:3;" />
  <rect class="anc_exon" x="422" y="35.0" width="89" height="30" style="fill:#87bcbc;fill-opacity:1.00" />
  <line x1="511" y1="50.0" x2="531" y2="50.0" style="stroke:#999; stroke-width:3;" />
  <line x1="531" y1="50.0" x2="531" y2="50.0" style="stroke:#999; stroke-width:3;" />
  <line x1="531" y1="50.0" x2="531" y2="50.0" style="stroke:#999; stroke-width:3;" />
  <line x1="531" y1="50.0" x2="551" y2="50.0" style="stroke:#999; stroke-width:3;" />
  <rect class="anc_exon" x="551" y="35.0" width="120" height="30" style="fill:#87bcbc;fill-opacity:1.00" />
  <line x1="671" y1="50.0" x2="711" y2="50.0" style="stroke:#999; stroke-width:3;" />
  <rect class="anc_exon" x="711" y="35.0" width="101" height="30" style="fill:#87bcbc;fill-opacity:1.00" />
  <line x1="812" y1="50.0" x2="832" y2="50.0" style="stroke:#999; stroke-width:3;" />
  <line x1="832" y1="50.0" x2="832" y2="50.0" style="stroke:#999; stroke-width:3;" />
  <line x1="832" y1="50.0" x2="832" y2="50.0" style="stroke:#999; stroke-width:3;" />
  <line x1="832" y1="50.0" x2="852" y2="50.0" style="stroke:#999; stroke-width:3;" />
  <rect class="anc_exon" x="852" y="35.0" width="123" height="30" style="fill:#87bcbc;fill-opacity:1.00" />
  <line x1="975" y1="50.0" x2="1015" y2="50.0" style="stroke:#999; stroke-width:3;" />
  <rect class="anc_exon" x="1015" y="35.0" width="116" height="30" style="fill:#87bcbc;fill-opacity:1.00" />
  <line x1="1131" y1="50.0" x2="1151" y2="50.0" style="stroke:#999; stroke-width:3;" />
  <line x1="1151" y1="50.0" x2="1151" y2="50.0" style="stroke:#999; stroke-width:3;" />
  <line x1="1151" y1="50.0" x2="1151" y2="50.0" style="stroke:#999; stroke-width:3;" />
  <line x1="1151" y1="50.0" x2="1171" y2="50.0" style="stroke:#999; stroke-width:3;" />
  <rect class="anc_exon" x="1171" y="35.0" width="1302" height="30" style="fill:#87bcbc;fill-opacity:1.00" />
  <line x1="2473" y1="50.0" x2="2513" y2="50.0" style="stroke:#999; stroke-width:3;" />
  <rect class="anc_exon" x="2513" y="35.0" width="115" height="30" style="fill:#87bcbc;fill-opacity:1.00" />
  <line x1="2628" y1="50.0" x2="2648" y2="50.0" style="stroke:#999; stroke-width:3;" />
  <line x1="2648" y1="50.0" x2="2648" y2="50.0" style="stroke:#999; stroke-width:3;" />
  <line x1="2648" y1="50.0" x2="2648" y2="50.0" style="stroke:#999; stroke-width:3;" />
  <line x1="2648" y1="50.0" x2="2668" y2="50.0" style="stroke:#999; stroke-width:3;" />
  <rect class="anc_exon" x="2668" y="35.0" width="104" height="30" style="fill:#87bcbc;fill-opacity:1.00" />
  <line x1="2772" y1="50.0" x2="2792" y2="50.0" style="stroke:#999; stroke-width:3;" />
  <line x1="2792" y1="50.0" x2="2792" y2="50.0" style="stroke:#999; stroke-width:3;" />
  <line x1="2792" y1="50.0" x2="2792" y2="50.0" style="stroke:#999; stroke-width:3;" />
  <line x1="2792" y1="50.0" x2="2812" y2="50.0" style="stroke:#999; stroke-width:3;" />
  <rect class="anc_exon" x="2812" y="35.0" width="149" height="30" style="fill:#87bcbc;fill-opacity:1.00" />
  <line x1="2961" y1="50.0" x2="2981" y2="50.0" style="stroke:#999; stroke-width:3;" />
  <line x1="2981" y1="50.0" x2="2981" y2="50.0" style="stroke:#999; stroke-width:3;" />
  <line x1="2981" y1="50.0" x2="2981" y2="50.0" style="stroke:#999; stroke-width:3;" />
  <line x1="2981" y1="50.0" x2="3001" y2="50.0" style="stroke:#999; stroke-width:3;" />
  <rect class="anc_exon" x="3001" y="35.0" width="62" height="30" style="fill:#87bcbc;fill-opacity:1.00" />
  <line x1="3063" y1="50.0" x2="3083" y2="50.0" style="stroke:#999; stroke-width:3;" />
  <line x1="3083" y1="50.0" x2="3083" y2="50.0" style="stroke:#999; stroke-width:3;" />
  <line x1="3083" y1="50.0" x2="3083" y2="50.0" style="stroke:#999; stroke-width:3;" />
  <line x1="3083" y1="50.0" x2="3103" y2="50.0" style="stroke:#999; stroke-width:3;" />
  <rect class="anc_exon" x="3103" y="35.0" width="37" height="30" style="fill:#87bcbc;fill-opacity:1.00" />
  <rect class="anc_exon" x="3140" y="35.0" width="0" height="30" style="fill:#87bcbc;fill-opacity:1.00" />
  <text style="" >
<tspan x="0" y="83.0" style="font-size:18px;" >SP XM_031964697_1.1</tspan>  </text>



<script type="text/ecmascript">
<![CDATA[
function draw_bbox(text_id)
{
    var text_elem = document.getElementById(text_id);
    var offset_px = 2;
    var offset_py = 0;
    bbox = text_elem.getBBox();
    var box = document.createElementNS(document.rootElement.namespaceURI,'rect');
    box.setAttribute('x', bbox.x - offset_px);
    box.setAttribute('y', bbox.y - offset_py);
    box.setAttribute('width', bbox.width + offset_px * 2);
    box.setAttribute('height', bbox.height + offset_py * 2);
    box.setAttribute('style','fill: white;'+'stroke: black;'+'stroke-width: 1px;');
    text_elem.insertBefore(box,text_elem.childNodes[0]);

    var svg = text_elem.parentNode;
    svg.appendChild(text_elem);
}

for (var i=1; i < 1; i++)
{
draw_bbox("Mouseover" + i);
}
]]> 
</script>
</svg>
