<svg version="1.1"
xmlns="http://www.w3.org/2000/svg"
xmlns:xlink="http://www.w3.org/1999/xlink"
width="2534" height="100" viewBox = "0 0 2534 100"
onclick="mouseclick(evt)">

<script type="text/ecmascript">

<![CDATA[
    function mouseover(evt, target) { 
    var gv = document.getElementById("globalVariable");
    var previoustarget = gv.firstChild.nodeValue;
    if (previoustarget != "none") 
    {
        	document.getElementById(gv.firstChild.nodeValue).setAttributeNS(null, "visibility", "hidden");
    }
    document.getElementById(target).setAttributeNS(null, "visibility", "visible");
    gv.firstChild.nodeValue = target;
        }

    function mouseclick(evt) { 
    var gv = document.getElementById("globalVariable");
    var previoustarget = gv.firstChild.nodeValue;
    if (previoustarget != "none") {
        	document.getElementById(gv.firstChild.nodeValue).setAttributeNS(null, "visibility", "hidden");
        }
    }
]]>
  </script>
<style type="text/css" >

<![CDATA[
    rect.anc_exon {
              stroke-width:3;
                  }

    rect.non_anc_exon {
              stroke: black; stroke-width:3; stroke-dasharray: 5,5;
                    }

    text {
              font-size: 18px;
              font-family: Courier New;
          }
                    ]]>
</style>

<defs>
    <text x="150" y="40" id="globalVariable">none</text>
</defs>

  <rect class="anc_exon" x="0" y="35.0" width="0" height="30" style="fill:#87bcbc;fill-opacity:1.00" />
  <rect class="anc_exon" x="0" y="35.0" width="22.400000000000002" height="30" style="fill:#87bcbc;fill-opacity:1.00" />
  <line x1="22.400000000000002" y1="50.0" x2="62.0" y2="50.0" style="stroke:#999; stroke-width:3;" />
  <rect class="anc_exon" x="62" y="35.0" width="39" height="30" style="fill:#87bcbc;fill-opacity:1.00" />
  <line x1="101" y1="50.0" x2="141" y2="50.0" style="stroke:#999; stroke-width:3;" />
  <rect class="anc_exon" x="141" y="35.0" width="59" height="30" style="fill:#87bcbc;fill-opacity:1.00" />
  <line x1="200" y1="50.0" x2="240" y2="50.0" style="stroke:#999; stroke-width:3;" />
  <rect class="anc_exon" x="240" y="35.0" width="63" height="30" style="fill:#87bcbc;fill-opacity:1.00" />
  <line x1="303" y1="50.0" x2="343" y2="50.0" style="stroke:#999; stroke-width:3;" />
  <rect class="anc_exon" x="343" y="35.0" width="80" height="30" style="fill:#87bcbc;fill-opacity:1.00" />
  <line x1="423" y1="50.0" x2="463" y2="50.0" style="stroke:#999; stroke-width:3;" />
  <rect class="anc_exon" x="463" y="35.0" width="98" height="30" style="fill:#87bcbc;fill-opacity:1.00" />
  <line x1="561" y1="50.0" x2="601" y2="50.0" style="stroke:#999; stroke-width:3;" />
  <rect class="anc_exon" x="601" y="35.0" width="48" height="30" style="fill:#87bcbc;fill-opacity:1.00" />
  <line x1="649" y1="50.0" x2="689" y2="50.0" style="stroke:#999; stroke-width:3;" />
  <rect class="anc_exon" x="689" y="35.0" width="65" height="30" style="fill:#87bcbc;fill-opacity:1.00" />
  <line x1="754" y1="50.0" x2="794" y2="50.0" style="stroke:#999; stroke-width:3;" />
  <rect class="anc_exon" x="794" y="35.0" width="67" height="30" style="fill:#87bcbc;fill-opacity:1.00" />
  <line x1="861" y1="50.0" x2="901" y2="50.0" style="stroke:#999; stroke-width:3;" />
  <rect class="anc_exon" x="901" y="35.0" width="188" height="30" style="fill:#87bcbc;fill-opacity:1.00" />
  <line x1="1089" y1="50.0" x2="1129" y2="50.0" style="stroke:#999; stroke-width:3;" />
  <rect class="anc_exon" x="1129" y="35.0" width="80" height="30" style="fill:#87bcbc;fill-opacity:1.00" />
  <line x1="1209" y1="50.0" x2="1249" y2="50.0" style="stroke:#999; stroke-width:3;" />
  <rect class="anc_exon" x="1249" y="35.0" width="74" height="30" style="fill:#87bcbc;fill-opacity:1.00" />
  <line x1="1323" y1="50.0" x2="1363" y2="50.0" style="stroke:#999; stroke-width:3;" />
  <rect class="anc_exon" x="1363" y="35.0" width="80" height="30" style="fill:#87bcbc;fill-opacity:1.00" />
  <line x1="1443" y1="50.0" x2="1483" y2="50.0" style="stroke:#999; stroke-width:3;" />
  <rect class="anc_exon" x="1483" y="35.0" width="217" height="30" style="fill:#87bcbc;fill-opacity:1.00" />
  <line x1="1700" y1="50.0" x2="1740" y2="50.0" style="stroke:#999; stroke-width:3;" />
  <rect class="anc_exon" x="1740" y="35.0" width="76" height="30" style="fill:#87bcbc;fill-opacity:1.00" />
  <line x1="1816" y1="50.0" x2="1856" y2="50.0" style="stroke:#999; stroke-width:3;" />
  <rect class="anc_exon" x="1856" y="35.0" width="83" height="30" style="fill:#87bcbc;fill-opacity:1.00" />
  <line x1="1939" y1="50.0" x2="1979" y2="50.0" style="stroke:#999; stroke-width:3;" />
  <rect class="anc_exon" x="1979" y="35.0" width="59" height="30" style="fill:#87bcbc;fill-opacity:1.00" />
  <line x1="2038" y1="50.0" x2="2078" y2="50.0" style="stroke:#999; stroke-width:3;" />
  <rect class="anc_exon" x="2078" y="35.0" width="56" height="30" style="fill:#87bcbc;fill-opacity:1.00" />
  <line x1="2134" y1="50.0" x2="2174" y2="50.0" style="stroke:#999; stroke-width:3;" />
  <rect class="anc_exon" x="2174" y="35.0" width="76" height="30" style="fill:#87bcbc;fill-opacity:1.00" />
  <line x1="2250" y1="50.0" x2="2290" y2="50.0" style="stroke:#999; stroke-width:3;" />
  <rect class="anc_exon" x="2290" y="35.0" width="68" height="30" style="fill:#87bcbc;fill-opacity:1.00" />
  <line x1="2358" y1="50.0" x2="2378" y2="50.0" style="stroke:#999; stroke-width:3;" />
  <line x1="2378" y1="50.0" x2="2378" y2="50.0" style="stroke:#999; stroke-width:3;" />
  <line x1="2378" y1="50.0" x2="2378" y2="50.0" style="stroke:#999; stroke-width:3;" />
  <line x1="2378" y1="50.0" x2="2398" y2="50.0" style="stroke:#999; stroke-width:3;" />
  <rect class="anc_exon" x="2398" y="35.0" width="100" height="30" style="fill:#87bcbc;fill-opacity:1.00" />
  <rect class="anc_exon" x="2498" y="35.0" width="0" height="30" style="fill:#87bcbc;fill-opacity:1.00" />
  <text style="" >
<tspan x="0" y="83.0" style="font-size:18px;" >SP XM_012548946_2.1</tspan>  </text>
  <text style="fill:#121212;" >
<tspan x="1339.96" y="68.0" style="font-size:18px;fill:#121212;" >ac</tspan>  </text>



<script type="text/ecmascript">
<![CDATA[
function draw_bbox(text_id)
{
    var text_elem = document.getElementById(text_id);
    var offset_px = 2;
    var offset_py = 0;
    bbox = text_elem.getBBox();
    var box = document.createElementNS(document.rootElement.namespaceURI,'rect');
    box.setAttribute('x', bbox.x - offset_px);
    box.setAttribute('y', bbox.y - offset_py);
    box.setAttribute('width', bbox.width + offset_px * 2);
    box.setAttribute('height', bbox.height + offset_py * 2);
    box.setAttribute('style','fill: white;'+'stroke: black;'+'stroke-width: 1px;');
    text_elem.insertBefore(box,text_elem.childNodes[0]);

    var svg = text_elem.parentNode;
    svg.appendChild(text_elem);
}

for (var i=1; i < 1; i++)
{
draw_bbox("Mouseover" + i);
}
]]> 
</script>
</svg>
