<svg version="1.1"
xmlns="http://www.w3.org/2000/svg"
xmlns:xlink="http://www.w3.org/1999/xlink"
width="2422" height="100" viewBox = "0 0 2422 100"
onclick="mouseclick(evt)">

<script type="text/ecmascript">

<![CDATA[
    function mouseover(evt, target) { 
    var gv = document.getElementById("globalVariable");
    var previoustarget = gv.firstChild.nodeValue;
    if (previoustarget != "none") 
    {
        	document.getElementById(gv.firstChild.nodeValue).setAttributeNS(null, "visibility", "hidden");
    }
    document.getElementById(target).setAttributeNS(null, "visibility", "visible");
    gv.firstChild.nodeValue = target;
        }

    function mouseclick(evt) { 
    var gv = document.getElementById("globalVariable");
    var previoustarget = gv.firstChild.nodeValue;
    if (previoustarget != "none") {
        	document.getElementById(gv.firstChild.nodeValue).setAttributeNS(null, "visibility", "hidden");
        }
    }
]]>
  </script>
<style type="text/css" >

<![CDATA[
    rect.anc_exon {
              stroke-width:3;
                  }

    rect.non_anc_exon {
              stroke: black; stroke-width:3; stroke-dasharray: 5,5;
                    }

    text {
              font-size: 18px;
              font-family: Courier New;
          }
                    ]]>
</style>

<defs>
    <text x="150" y="40" id="globalVariable">none</text>
</defs>

  <rect class="anc_exon" x="0" y="35.0" width="0" height="30" style="fill:#87bcbc;fill-opacity:1.00" />
  <rect class="anc_exon" x="0" y="35.0" width="67.2" height="30" style="fill:#87bcbc;fill-opacity:1.00" />
  <line x1="67.2" y1="50.0" x2="107.0" y2="50.0" style="stroke:#999; stroke-width:3;" />
  <rect class="anc_exon" x="107" y="35.0" width="45" height="30" style="fill:#87bcbc;fill-opacity:1.00" />
  <line x1="152" y1="50.0" x2="172" y2="50.0" style="stroke:#999; stroke-width:3;" />
  <line x1="172" y1="50.0" x2="172" y2="50.0" style="stroke:#999; stroke-width:3;" />
  <line x1="172" y1="50.0" x2="172" y2="50.0" style="stroke:#999; stroke-width:3;" />
  <line x1="172" y1="50.0" x2="192" y2="50.0" style="stroke:#999; stroke-width:3;" />
  <rect class="anc_exon" x="192" y="35.0" width="56" height="30" style="fill:#87bcbc;fill-opacity:1.00" />
  <line x1="248" y1="50.0" x2="288" y2="50.0" style="stroke:#999; stroke-width:3;" />
  <rect class="anc_exon" x="288" y="35.0" width="127" height="30" style="fill:#87bcbc;fill-opacity:1.00" />
  <line x1="415" y1="50.0" x2="455" y2="50.0" style="stroke:#999; stroke-width:3;" />
  <rect class="anc_exon" x="455" y="35.0" width="125" height="30" style="fill:#87bcbc;fill-opacity:1.00" />
  <line x1="580" y1="50.0" x2="600" y2="50.0" style="stroke:#999; stroke-width:3;" />
  <line x1="600" y1="50.0" x2="600" y2="50.0" style="stroke:#999; stroke-width:3;" />
  <line x1="600" y1="50.0" x2="600" y2="50.0" style="stroke:#999; stroke-width:3;" />
  <line x1="600" y1="50.0" x2="620" y2="50.0" style="stroke:#999; stroke-width:3;" />
  <rect class="anc_exon" x="620" y="35.0" width="128" height="30" style="fill:#87bcbc;fill-opacity:1.00" />
  <line x1="748" y1="50.0" x2="788" y2="50.0" style="stroke:#999; stroke-width:3;" />
  <rect class="anc_exon" x="788" y="35.0" width="141" height="30" style="fill:#87bcbc;fill-opacity:1.00" />
  <line x1="929" y1="50.0" x2="969" y2="50.0" style="stroke:#999; stroke-width:3;" />
  <rect class="anc_exon" x="969" y="35.0" width="74" height="30" style="fill:#87bcbc;fill-opacity:1.00" />
  <line x1="1043" y1="50.0" x2="1063" y2="50.0" style="stroke:#999; stroke-width:3;" />
  <line x1="1063" y1="50.0" x2="1063" y2="50.0" style="stroke:#999; stroke-width:3;" />
  <line x1="1063" y1="50.0" x2="1063" y2="50.0" style="stroke:#999; stroke-width:3;" />
  <line x1="1063" y1="50.0" x2="1083" y2="50.0" style="stroke:#999; stroke-width:3;" />
  <rect class="anc_exon" x="1083" y="35.0" width="172" height="30" style="fill:#87bcbc;fill-opacity:1.00" />
  <line x1="1255" y1="50.0" x2="1275" y2="50.0" style="stroke:#999; stroke-width:3;" />
  <line x1="1275" y1="50.0" x2="1275" y2="50.0" style="stroke:#999; stroke-width:3;" />
  <line x1="1275" y1="50.0" x2="1275" y2="50.0" style="stroke:#999; stroke-width:3;" />
  <line x1="1275" y1="50.0" x2="1295" y2="50.0" style="stroke:#999; stroke-width:3;" />
  <rect class="anc_exon" x="1295" y="35.0" width="103" height="30" style="fill:#87bcbc;fill-opacity:1.00" />
  <line x1="1398" y1="50.0" x2="1418" y2="50.0" style="stroke:#999; stroke-width:3;" />
  <line x1="1418" y1="50.0" x2="1418" y2="50.0" style="stroke:#999; stroke-width:3;" />
  <line x1="1418" y1="50.0" x2="1418" y2="50.0" style="stroke:#999; stroke-width:3;" />
  <line x1="1418" y1="50.0" x2="1438" y2="50.0" style="stroke:#999; stroke-width:3;" />
  <rect class="anc_exon" x="1438" y="35.0" width="218" height="30" style="fill:#87bcbc;fill-opacity:1.00" />
  <line x1="1656" y1="50.0" x2="1696" y2="50.0" style="stroke:#999; stroke-width:3;" />
  <rect class="anc_exon" x="1696" y="35.0" width="105" height="30" style="fill:#87bcbc;fill-opacity:1.00" />
  <line x1="1801" y1="50.0" x2="1841" y2="50.0" style="stroke:#999; stroke-width:3;" />
  <rect class="anc_exon" x="1841" y="35.0" width="69" height="30" style="fill:#87bcbc;fill-opacity:1.00" />
  <line x1="1910" y1="50.0" x2="1950" y2="50.0" style="stroke:#999; stroke-width:3;" />
  <rect class="anc_exon" x="1950" y="35.0" width="124" height="30" style="fill:#87bcbc;fill-opacity:1.00" />
  <line x1="2074" y1="50.0" x2="2094" y2="50.0" style="stroke:#999; stroke-width:3;" />
  <line x1="2094" y1="50.0" x2="2094" y2="50.0" style="stroke:#999; stroke-width:3;" />
  <line x1="2094" y1="50.0" x2="2094" y2="50.0" style="stroke:#999; stroke-width:3;" />
  <line x1="2094" y1="50.0" x2="2114" y2="50.0" style="stroke:#999; stroke-width:3;" />
  <rect class="anc_exon" x="2114" y="35.0" width="76" height="30" style="fill:#87bcbc;fill-opacity:1.00" />
  <line x1="2190" y1="50.0" x2="2210" y2="50.0" style="stroke:#999; stroke-width:3;" />
  <line x1="2210" y1="50.0" x2="2210" y2="50.0" style="stroke:#999; stroke-width:3;" />
  <line x1="2210" y1="50.0" x2="2210" y2="50.0" style="stroke:#999; stroke-width:3;" />
  <line x1="2210" y1="50.0" x2="2230" y2="50.0" style="stroke:#999; stroke-width:3;" />
  <rect class="anc_exon" x="2230" y="35.0" width="100" height="30" style="fill:#87bcbc;fill-opacity:1.00" />
  <line x1="2330" y1="50.0" x2="2370" y2="50.0" style="stroke:#999; stroke-width:3;" />
  <rect class="anc_exon" x="2370" y="35.0" width="16" height="30" style="fill:#87bcbc;fill-opacity:1.00" />
  <rect class="anc_exon" x="2386" y="35.0" width="0" height="30" style="fill:#87bcbc;fill-opacity:1.00" />
  <text style="" >
<tspan x="0" y="83.0" style="font-size:18px;" >SP XM_031967320_1.1</tspan>  </text>



<script type="text/ecmascript">
<![CDATA[
function draw_bbox(text_id)
{
    var text_elem = document.getElementById(text_id);
    var offset_px = 2;
    var offset_py = 0;
    bbox = text_elem.getBBox();
    var box = document.createElementNS(document.rootElement.namespaceURI,'rect');
    box.setAttribute('x', bbox.x - offset_px);
    box.setAttribute('y', bbox.y - offset_py);
    box.setAttribute('width', bbox.width + offset_px * 2);
    box.setAttribute('height', bbox.height + offset_py * 2);
    box.setAttribute('style','fill: white;'+'stroke: black;'+'stroke-width: 1px;');
    text_elem.insertBefore(box,text_elem.childNodes[0]);

    var svg = text_elem.parentNode;
    svg.appendChild(text_elem);
}

for (var i=1; i < 1; i++)
{
draw_bbox("Mouseover" + i);
}
]]> 
</script>
</svg>
