<svg version="1.1"
xmlns="http://www.w3.org/2000/svg"
xmlns:xlink="http://www.w3.org/1999/xlink"
width="2761" height="100" viewBox = "0 0 2761 100"
onclick="mouseclick(evt)">

<script type="text/ecmascript">

<![CDATA[
    function mouseover(evt, target) { 
    var gv = document.getElementById("globalVariable");
    var previoustarget = gv.firstChild.nodeValue;
    if (previoustarget != "none") 
    {
        	document.getElementById(gv.firstChild.nodeValue).setAttributeNS(null, "visibility", "hidden");
    }
    document.getElementById(target).setAttributeNS(null, "visibility", "visible");
    gv.firstChild.nodeValue = target;
        }

    function mouseclick(evt) { 
    var gv = document.getElementById("globalVariable");
    var previoustarget = gv.firstChild.nodeValue;
    if (previoustarget != "none") {
        	document.getElementById(gv.firstChild.nodeValue).setAttributeNS(null, "visibility", "hidden");
        }
    }
]]>
  </script>
<style type="text/css" >

<![CDATA[
    rect.anc_exon {
              stroke-width:3;
                  }

    rect.non_anc_exon {
              stroke: black; stroke-width:3; stroke-dasharray: 5,5;
                    }

    text {
              font-size: 18px;
              font-family: Courier New;
          }
                    ]]>
</style>

<defs>
    <text x="150" y="40" id="globalVariable">none</text>
</defs>

  <rect class="anc_exon" x="0" y="35.0" width="0" height="30" style="fill:#87bcbc;fill-opacity:1.00" />
  <rect class="anc_exon" x="0" y="35.0" width="102.4" height="30" style="fill:#87bcbc;fill-opacity:1.00" />
  <line x1="102.4" y1="50.0" x2="121.4" y2="50.0" style="stroke:#999; stroke-width:3;" />
  <line x1="121.4" y1="50.0" x2="121.4" y2="50.0" style="stroke:#999; stroke-width:3;" />
  <line x1="121.4" y1="50.0" x2="121.4" y2="50.0" style="stroke:#999; stroke-width:3;" />
  <line x1="121.4" y1="50.0" x2="142.0" y2="50.0" style="stroke:#999; stroke-width:3;" />
  <rect class="anc_exon" x="142" y="35.0" width="116" height="30" style="fill:#87bcbc;fill-opacity:1.00" />
  <line x1="258" y1="50.0" x2="298" y2="50.0" style="stroke:#999; stroke-width:3;" />
  <rect class="anc_exon" x="298" y="35.0" width="79" height="30" style="fill:#87bcbc;fill-opacity:1.00" />
  <line x1="377" y1="50.0" x2="417" y2="50.0" style="stroke:#999; stroke-width:3;" />
  <rect class="anc_exon" x="417" y="35.0" width="76" height="30" style="fill:#87bcbc;fill-opacity:1.00" />
  <line x1="493" y1="50.0" x2="533" y2="50.0" style="stroke:#999; stroke-width:3;" />
  <rect class="anc_exon" x="533" y="35.0" width="65" height="30" style="fill:#87bcbc;fill-opacity:1.00" />
  <line x1="598" y1="50.0" x2="638" y2="50.0" style="stroke:#999; stroke-width:3;" />
  <rect class="anc_exon" x="638" y="35.0" width="76" height="30" style="fill:#87bcbc;fill-opacity:1.00" />
  <line x1="714" y1="50.0" x2="754" y2="50.0" style="stroke:#999; stroke-width:3;" />
  <rect class="anc_exon" x="754" y="35.0" width="121" height="30" style="fill:#87bcbc;fill-opacity:1.00" />
  <line x1="875" y1="50.0" x2="915" y2="50.0" style="stroke:#999; stroke-width:3;" />
  <rect class="anc_exon" x="915" y="35.0" width="127" height="30" style="fill:#87bcbc;fill-opacity:1.00" />
  <line x1="1042" y1="50.0" x2="1082" y2="50.0" style="stroke:#999; stroke-width:3;" />
  <rect class="anc_exon" x="1082" y="35.0" width="74" height="30" style="fill:#87bcbc;fill-opacity:1.00" />
  <line x1="1156" y1="50.0" x2="1196" y2="50.0" style="stroke:#999; stroke-width:3;" />
  <rect class="anc_exon" x="1196" y="35.0" width="48" height="30" style="fill:#87bcbc;fill-opacity:1.00" />
  <line x1="1244" y1="50.0" x2="1284" y2="50.0" style="stroke:#999; stroke-width:3;" />
  <rect class="anc_exon" x="1284" y="35.0" width="24" height="30" style="fill:#87bcbc;fill-opacity:1.00" />
  <line x1="1308" y1="50.0" x2="1348" y2="50.0" style="stroke:#999; stroke-width:3;" />
  <rect class="anc_exon" x="1348" y="35.0" width="75" height="30" style="fill:#87bcbc;fill-opacity:1.00" />
  <line x1="1423" y1="50.0" x2="1463" y2="50.0" style="stroke:#999; stroke-width:3;" />
  <rect class="anc_exon" x="1463" y="35.0" width="38" height="30" style="fill:#87bcbc;fill-opacity:1.00" />
  <line x1="1501" y1="50.0" x2="1541" y2="50.0" style="stroke:#999; stroke-width:3;" />
  <rect class="anc_exon" x="1541" y="35.0" width="67" height="30" style="fill:#87bcbc;fill-opacity:1.00" />
  <line x1="1608" y1="50.0" x2="1648" y2="50.0" style="stroke:#999; stroke-width:3;" />
  <rect class="anc_exon" x="1648" y="35.0" width="79" height="30" style="fill:#87bcbc;fill-opacity:1.00" />
  <line x1="1727" y1="50.0" x2="1767" y2="50.0" style="stroke:#999; stroke-width:3;" />
  <rect class="anc_exon" x="1767" y="35.0" width="108" height="30" style="fill:#87bcbc;fill-opacity:1.00" />
  <line x1="1875" y1="50.0" x2="1915" y2="50.0" style="stroke:#999; stroke-width:3;" />
  <rect class="anc_exon" x="1915" y="35.0" width="42" height="30" style="fill:#87bcbc;fill-opacity:1.00" />
  <line x1="1957" y1="50.0" x2="1997" y2="50.0" style="stroke:#999; stroke-width:3;" />
  <rect class="anc_exon" x="1997" y="35.0" width="76" height="30" style="fill:#87bcbc;fill-opacity:1.00" />
  <line x1="2073" y1="50.0" x2="2113" y2="50.0" style="stroke:#999; stroke-width:3;" />
  <rect class="anc_exon" x="2113" y="35.0" width="112" height="30" style="fill:#87bcbc;fill-opacity:1.00" />
  <line x1="2225" y1="50.0" x2="2265" y2="50.0" style="stroke:#999; stroke-width:3;" />
  <rect class="anc_exon" x="2265" y="35.0" width="170" height="30" style="fill:#87bcbc;fill-opacity:1.00" />
  <line x1="2435" y1="50.0" x2="2455" y2="50.0" style="stroke:#999; stroke-width:3;" />
  <line x1="2455" y1="50.0" x2="2455" y2="50.0" style="stroke:#999; stroke-width:3;" />
  <line x1="2455" y1="50.0" x2="2455" y2="50.0" style="stroke:#999; stroke-width:3;" />
  <line x1="2455" y1="50.0" x2="2475" y2="50.0" style="stroke:#999; stroke-width:3;" />
  <rect class="anc_exon" x="2475" y="35.0" width="34" height="30" style="fill:#87bcbc;fill-opacity:1.00" />
  <line x1="2509" y1="50.0" x2="2549" y2="50.0" style="stroke:#999; stroke-width:3;" />
  <rect class="anc_exon" x="2549" y="35.0" width="92" height="30" style="fill:#87bcbc;fill-opacity:1.00" />
  <line x1="2641" y1="50.0" x2="2681" y2="50.0" style="stroke:#999; stroke-width:3;" />
  <rect class="anc_exon" x="2681" y="35.0" width="44" height="30" style="fill:#87bcbc;fill-opacity:1.00" />
  <rect class="anc_exon" x="2725" y="35.0" width="0" height="30" style="fill:#87bcbc;fill-opacity:1.00" />
  <text style="" >
<tspan x="0" y="83.0" style="font-size:18px;" >SP XM_023502314_2.1</tspan>  </text>



<script type="text/ecmascript">
<![CDATA[
function draw_bbox(text_id)
{
    var text_elem = document.getElementById(text_id);
    var offset_px = 2;
    var offset_py = 0;
    bbox = text_elem.getBBox();
    var box = document.createElementNS(document.rootElement.namespaceURI,'rect');
    box.setAttribute('x', bbox.x - offset_px);
    box.setAttribute('y', bbox.y - offset_py);
    box.setAttribute('width', bbox.width + offset_px * 2);
    box.setAttribute('height', bbox.height + offset_py * 2);
    box.setAttribute('style','fill: white;'+'stroke: black;'+'stroke-width: 1px;');
    text_elem.insertBefore(box,text_elem.childNodes[0]);

    var svg = text_elem.parentNode;
    svg.appendChild(text_elem);
}

for (var i=1; i < 1; i++)
{
draw_bbox("Mouseover" + i);
}
]]> 
</script>
</svg>
