<svg version="1.1"
xmlns="http://www.w3.org/2000/svg"
xmlns:xlink="http://www.w3.org/1999/xlink"
width="1086" height="100" viewBox = "0 0 1086 100"
onclick="mouseclick(evt)">

<script type="text/ecmascript">

<![CDATA[
    function mouseover(evt, target) { 
    var gv = document.getElementById("globalVariable");
    var previoustarget = gv.firstChild.nodeValue;
    if (previoustarget != "none") 
    {
        	document.getElementById(gv.firstChild.nodeValue).setAttributeNS(null, "visibility", "hidden");
    }
    document.getElementById(target).setAttributeNS(null, "visibility", "visible");
    gv.firstChild.nodeValue = target;
        }

    function mouseclick(evt) { 
    var gv = document.getElementById("globalVariable");
    var previoustarget = gv.firstChild.nodeValue;
    if (previoustarget != "none") {
        	document.getElementById(gv.firstChild.nodeValue).setAttributeNS(null, "visibility", "hidden");
        }
    }
]]>
  </script>
<style type="text/css" >

<![CDATA[
    rect.anc_exon {
              stroke-width:3;
                  }

    rect.non_anc_exon {
              stroke: black; stroke-width:3; stroke-dasharray: 5,5;
                    }

    text {
              font-size: 18px;
              font-family: Courier New;
          }
                    ]]>
</style>

<defs>
    <text x="150" y="40" id="globalVariable">none</text>
</defs>

  <rect class="anc_exon" x="0" y="35.0" width="0" height="30" style="fill:#87bcbc;fill-opacity:1.00" />
  <rect class="anc_exon" x="0" y="35.0" width="81.60000000000001" height="30" style="fill:#87bcbc;fill-opacity:1.00" />
  <line x1="81.60000000000001" y1="50.0" x2="100.60000000000001" y2="50.0" style="stroke:#999; stroke-width:3;" />
  <line x1="100.60000000000001" y1="50.0" x2="100.60000000000001" y2="50.0" style="stroke:#999; stroke-width:3;" />
  <line x1="100.60000000000001" y1="50.0" x2="100.60000000000001" y2="50.0" style="stroke:#999; stroke-width:3;" />
  <line x1="100.60000000000001" y1="50.0" x2="121.0" y2="50.0" style="stroke:#999; stroke-width:3;" />
  <rect class="anc_exon" x="121" y="35.0" width="47" height="30" style="fill:#87bcbc;fill-opacity:1.00" />
  <line x1="168" y1="50.0" x2="188" y2="50.0" style="stroke:#999; stroke-width:3;" />
  <line x1="188" y1="50.0" x2="188" y2="50.0" style="stroke:#999; stroke-width:3;" />
  <line x1="188" y1="50.0" x2="188" y2="50.0" style="stroke:#999; stroke-width:3;" />
  <line x1="188" y1="50.0" x2="208" y2="50.0" style="stroke:#999; stroke-width:3;" />
  <rect class="anc_exon" x="208" y="35.0" width="46" height="30" style="fill:#87bcbc;fill-opacity:1.00" />
  <line x1="254" y1="50.0" x2="274" y2="50.0" style="stroke:#999; stroke-width:3;" />
  <line x1="274" y1="50.0" x2="274" y2="50.0" style="stroke:#999; stroke-width:3;" />
  <line x1="274" y1="50.0" x2="274" y2="50.0" style="stroke:#999; stroke-width:3;" />
  <line x1="274" y1="50.0" x2="294" y2="50.0" style="stroke:#999; stroke-width:3;" />
  <rect class="anc_exon" x="294" y="35.0" width="169" height="30" style="fill:#87bcbc;fill-opacity:1.00" />
  <line x1="463" y1="50.0" x2="483" y2="50.0" style="stroke:#999; stroke-width:3;" />
  <line x1="483" y1="50.0" x2="483" y2="50.0" style="stroke:#999; stroke-width:3;" />
  <line x1="483" y1="50.0" x2="483" y2="50.0" style="stroke:#999; stroke-width:3;" />
  <line x1="483" y1="50.0" x2="503" y2="50.0" style="stroke:#999; stroke-width:3;" />
  <rect class="anc_exon" x="503" y="35.0" width="57" height="30" style="fill:#87bcbc;fill-opacity:1.00" />
  <line x1="560" y1="50.0" x2="600" y2="50.0" style="stroke:#999; stroke-width:3;" />
  <rect class="anc_exon" x="600" y="35.0" width="58" height="30" style="fill:#87bcbc;fill-opacity:1.00" />
  <line x1="658" y1="50.0" x2="698" y2="50.0" style="stroke:#999; stroke-width:3;" />
  <rect class="anc_exon" x="698" y="35.0" width="75" height="30" style="fill:#87bcbc;fill-opacity:1.00" />
  <line x1="773" y1="50.0" x2="793" y2="50.0" style="stroke:#999; stroke-width:3;" />
  <line x1="793" y1="50.0" x2="793" y2="50.0" style="stroke:#999; stroke-width:3;" />
  <line x1="793" y1="50.0" x2="793" y2="50.0" style="stroke:#999; stroke-width:3;" />
  <line x1="793" y1="50.0" x2="813" y2="50.0" style="stroke:#999; stroke-width:3;" />
  <rect class="anc_exon" x="813" y="35.0" width="92" height="30" style="fill:#87bcbc;fill-opacity:1.00" />
  <line x1="905" y1="50.0" x2="945" y2="50.0" style="stroke:#999; stroke-width:3;" />
  <rect class="anc_exon" x="945" y="35.0" width="105" height="30" style="fill:#87bcbc;fill-opacity:1.00" />
  <rect class="anc_exon" x="1050" y="35.0" width="0" height="30" style="fill:#87bcbc;fill-opacity:1.00" />
  <text style="" >
<tspan x="0" y="83.0" style="font-size:18px;" >SP XM_031967419_1.1</tspan>  </text>



<script type="text/ecmascript">
<![CDATA[
function draw_bbox(text_id)
{
    var text_elem = document.getElementById(text_id);
    var offset_px = 2;
    var offset_py = 0;
    bbox = text_elem.getBBox();
    var box = document.createElementNS(document.rootElement.namespaceURI,'rect');
    box.setAttribute('x', bbox.x - offset_px);
    box.setAttribute('y', bbox.y - offset_py);
    box.setAttribute('width', bbox.width + offset_px * 2);
    box.setAttribute('height', bbox.height + offset_py * 2);
    box.setAttribute('style','fill: white;'+'stroke: black;'+'stroke-width: 1px;');
    text_elem.insertBefore(box,text_elem.childNodes[0]);

    var svg = text_elem.parentNode;
    svg.appendChild(text_elem);
}

for (var i=1; i < 1; i++)
{
draw_bbox("Mouseover" + i);
}
]]> 
</script>
</svg>
