<svg version="1.1"
xmlns="http://www.w3.org/2000/svg"
xmlns:xlink="http://www.w3.org/1999/xlink"
width="2803" height="100" viewBox = "0 0 2803 100"
onclick="mouseclick(evt)">

<script type="text/ecmascript">

<![CDATA[
    function mouseover(evt, target) { 
    var gv = document.getElementById("globalVariable");
    var previoustarget = gv.firstChild.nodeValue;
    if (previoustarget != "none") 
    {
        	document.getElementById(gv.firstChild.nodeValue).setAttributeNS(null, "visibility", "hidden");
    }
    document.getElementById(target).setAttributeNS(null, "visibility", "visible");
    gv.firstChild.nodeValue = target;
        }

    function mouseclick(evt) { 
    var gv = document.getElementById("globalVariable");
    var previoustarget = gv.firstChild.nodeValue;
    if (previoustarget != "none") {
        	document.getElementById(gv.firstChild.nodeValue).setAttributeNS(null, "visibility", "hidden");
        }
    }
]]>
  </script>
<style type="text/css" >

<![CDATA[
    rect.anc_exon {
              stroke-width:3;
                  }

    rect.non_anc_exon {
              stroke: black; stroke-width:3; stroke-dasharray: 5,5;
                    }

    text {
              font-size: 18px;
              font-family: Courier New;
          }
                    ]]>
</style>

<defs>
    <text x="150" y="40" id="globalVariable">none</text>
</defs>

  <rect class="anc_exon" x="0" y="35.0" width="0" height="30" style="fill:#87bcbc;fill-opacity:1.00" />
  <rect class="anc_exon" x="0" y="35.0" width="254.4" height="30" style="fill:#87bcbc;fill-opacity:1.00" />
  <line x1="254.4" y1="50.0" x2="273.4" y2="50.0" style="stroke:#999; stroke-width:3;" />
  <line x1="273.4" y1="50.0" x2="273.4" y2="50.0" style="stroke:#999; stroke-width:3;" />
  <line x1="273.4" y1="50.0" x2="273.4" y2="50.0" style="stroke:#999; stroke-width:3;" />
  <line x1="273.4" y1="50.0" x2="294.0" y2="50.0" style="stroke:#999; stroke-width:3;" />
  <rect class="anc_exon" x="294" y="35.0" width="48" height="30" style="fill:#87bcbc;fill-opacity:1.00" />
  <line x1="342" y1="50.0" x2="382" y2="50.0" style="stroke:#999; stroke-width:3;" />
  <rect class="anc_exon" x="382" y="35.0" width="59" height="30" style="fill:#87bcbc;fill-opacity:1.00" />
  <line x1="441" y1="50.0" x2="461" y2="50.0" style="stroke:#999; stroke-width:3;" />
  <line x1="461" y1="50.0" x2="461" y2="50.0" style="stroke:#999; stroke-width:3;" />
  <line x1="461" y1="50.0" x2="461" y2="50.0" style="stroke:#999; stroke-width:3;" />
  <line x1="461" y1="50.0" x2="481" y2="50.0" style="stroke:#999; stroke-width:3;" />
  <rect class="anc_exon" x="481" y="35.0" width="82" height="30" style="fill:#87bcbc;fill-opacity:1.00" />
  <line x1="563" y1="50.0" x2="603" y2="50.0" style="stroke:#999; stroke-width:3;" />
  <rect class="anc_exon" x="603" y="35.0" width="132" height="30" style="fill:#87bcbc;fill-opacity:1.00" />
  <line x1="735" y1="50.0" x2="755" y2="50.0" style="stroke:#999; stroke-width:3;" />
  <line x1="755" y1="50.0" x2="755" y2="50.0" style="stroke:#999; stroke-width:3;" />
  <line x1="755" y1="50.0" x2="755" y2="50.0" style="stroke:#999; stroke-width:3;" />
  <line x1="755" y1="50.0" x2="775" y2="50.0" style="stroke:#999; stroke-width:3;" />
  <rect class="anc_exon" x="775" y="35.0" width="59" height="30" style="fill:#87bcbc;fill-opacity:1.00" />
  <line x1="834" y1="50.0" x2="854" y2="50.0" style="stroke:#999; stroke-width:3;" />
  <line x1="854" y1="50.0" x2="854" y2="50.0" style="stroke:#999; stroke-width:3;" />
  <line x1="854" y1="50.0" x2="854" y2="50.0" style="stroke:#999; stroke-width:3;" />
  <line x1="854" y1="50.0" x2="874" y2="50.0" style="stroke:#999; stroke-width:3;" />
  <rect class="anc_exon" x="874" y="35.0" width="40" height="30" style="fill:#87bcbc;fill-opacity:1.00" />
  <line x1="914" y1="50.0" x2="934" y2="50.0" style="stroke:#999; stroke-width:3;" />
  <line x1="934" y1="50.0" x2="934" y2="50.0" style="stroke:#999; stroke-width:3;" />
  <line x1="934" y1="50.0" x2="934" y2="50.0" style="stroke:#999; stroke-width:3;" />
  <line x1="934" y1="50.0" x2="954" y2="50.0" style="stroke:#999; stroke-width:3;" />
  <rect class="anc_exon" x="954" y="35.0" width="102" height="30" style="fill:#87bcbc;fill-opacity:1.00" />
  <line x1="1056" y1="50.0" x2="1076" y2="50.0" style="stroke:#999; stroke-width:3;" />
  <line x1="1076" y1="50.0" x2="1076" y2="50.0" style="stroke:#999; stroke-width:3;" />
  <line x1="1076" y1="50.0" x2="1076" y2="50.0" style="stroke:#999; stroke-width:3;" />
  <line x1="1076" y1="50.0" x2="1096" y2="50.0" style="stroke:#999; stroke-width:3;" />
  <rect class="anc_exon" x="1096" y="35.0" width="116" height="30" style="fill:#87bcbc;fill-opacity:1.00" />
  <line x1="1212" y1="50.0" x2="1252" y2="50.0" style="stroke:#999; stroke-width:3;" />
  <rect class="anc_exon" x="1252" y="35.0" width="124" height="30" style="fill:#87bcbc;fill-opacity:1.00" />
  <line x1="1376" y1="50.0" x2="1396" y2="50.0" style="stroke:#999; stroke-width:3;" />
  <line x1="1396" y1="50.0" x2="1396" y2="50.0" style="stroke:#999; stroke-width:3;" />
  <line x1="1396" y1="50.0" x2="1396" y2="50.0" style="stroke:#999; stroke-width:3;" />
  <line x1="1396" y1="50.0" x2="1416" y2="50.0" style="stroke:#999; stroke-width:3;" />
  <rect class="anc_exon" x="1416" y="35.0" width="85" height="30" style="fill:#87bcbc;fill-opacity:1.00" />
  <line x1="1501" y1="50.0" x2="1541" y2="50.0" style="stroke:#999; stroke-width:3;" />
  <rect class="anc_exon" x="1541" y="35.0" width="82" height="30" style="fill:#87bcbc;fill-opacity:1.00" />
  <line x1="1623" y1="50.0" x2="1663" y2="50.0" style="stroke:#999; stroke-width:3;" />
  <rect class="anc_exon" x="1663" y="35.0" width="135" height="30" style="fill:#87bcbc;fill-opacity:1.00" />
  <line x1="1798" y1="50.0" x2="1838" y2="50.0" style="stroke:#999; stroke-width:3;" />
  <rect class="anc_exon" x="1838" y="35.0" width="152" height="30" style="fill:#87bcbc;fill-opacity:1.00" />
  <line x1="1990" y1="50.0" x2="2030" y2="50.0" style="stroke:#999; stroke-width:3;" />
  <rect class="anc_exon" x="2030" y="35.0" width="152" height="30" style="fill:#87bcbc;fill-opacity:1.00" />
  <line x1="2182" y1="50.0" x2="2222" y2="50.0" style="stroke:#999; stroke-width:3;" />
  <rect class="anc_exon" x="2222" y="35.0" width="93" height="30" style="fill:#87bcbc;fill-opacity:1.00" />
  <line x1="2315" y1="50.0" x2="2355" y2="50.0" style="stroke:#999; stroke-width:3;" />
  <rect class="anc_exon" x="2355" y="35.0" width="96" height="30" style="fill:#87bcbc;fill-opacity:1.00" />
  <line x1="2451" y1="50.0" x2="2491" y2="50.0" style="stroke:#999; stroke-width:3;" />
  <rect class="anc_exon" x="2491" y="35.0" width="85" height="30" style="fill:#87bcbc;fill-opacity:1.00" />
  <line x1="2576" y1="50.0" x2="2616" y2="50.0" style="stroke:#999; stroke-width:3;" />
  <rect class="anc_exon" x="2616" y="35.0" width="99" height="30" style="fill:#87bcbc;fill-opacity:1.00" />
  <line x1="2715" y1="50.0" x2="2755" y2="50.0" style="stroke:#999; stroke-width:3;" />
  <rect class="anc_exon" x="2755" y="35.0" width="12" height="30" style="fill:#87bcbc;fill-opacity:1.00" />
  <rect class="anc_exon" x="2767" y="35.0" width="0" height="30" style="fill:#87bcbc;fill-opacity:1.00" />
  <text style="" >
<tspan x="0" y="83.0" style="font-size:18px;" >SP XM_031967213_1.1</tspan>  </text>



<script type="text/ecmascript">
<![CDATA[
function draw_bbox(text_id)
{
    var text_elem = document.getElementById(text_id);
    var offset_px = 2;
    var offset_py = 0;
    bbox = text_elem.getBBox();
    var box = document.createElementNS(document.rootElement.namespaceURI,'rect');
    box.setAttribute('x', bbox.x - offset_px);
    box.setAttribute('y', bbox.y - offset_py);
    box.setAttribute('width', bbox.width + offset_px * 2);
    box.setAttribute('height', bbox.height + offset_py * 2);
    box.setAttribute('style','fill: white;'+'stroke: black;'+'stroke-width: 1px;');
    text_elem.insertBefore(box,text_elem.childNodes[0]);

    var svg = text_elem.parentNode;
    svg.appendChild(text_elem);
}

for (var i=1; i < 1; i++)
{
draw_bbox("Mouseover" + i);
}
]]> 
</script>
</svg>
