<svg version="1.1"
xmlns="http://www.w3.org/2000/svg"
xmlns:xlink="http://www.w3.org/1999/xlink"
width="2186" height="100" viewBox = "0 0 2186 100"
onclick="mouseclick(evt)">

<script type="text/ecmascript">

<![CDATA[
    function mouseover(evt, target) { 
    var gv = document.getElementById("globalVariable");
    var previoustarget = gv.firstChild.nodeValue;
    if (previoustarget != "none") 
    {
        	document.getElementById(gv.firstChild.nodeValue).setAttributeNS(null, "visibility", "hidden");
    }
    document.getElementById(target).setAttributeNS(null, "visibility", "visible");
    gv.firstChild.nodeValue = target;
        }

    function mouseclick(evt) { 
    var gv = document.getElementById("globalVariable");
    var previoustarget = gv.firstChild.nodeValue;
    if (previoustarget != "none") {
        	document.getElementById(gv.firstChild.nodeValue).setAttributeNS(null, "visibility", "hidden");
        }
    }
]]>
  </script>
<style type="text/css" >

<![CDATA[
    rect.anc_exon {
              stroke-width:3;
                  }

    rect.non_anc_exon {
              stroke: black; stroke-width:3; stroke-dasharray: 5,5;
                    }

    text {
              font-size: 18px;
              font-family: Courier New;
          }
                    ]]>
</style>

<defs>
    <text x="150" y="40" id="globalVariable">none</text>
</defs>

  <rect class="anc_exon" x="0" y="35.0" width="0" height="30" style="fill:#87bcbc;fill-opacity:1.00" />
  <rect class="anc_exon" x="0" y="35.0" width="420.8" height="30" style="fill:#878787;fill-opacity:1.00" />
  <line x1="420.8" y1="50.0" x2="439.8" y2="50.0" style="stroke:#999; stroke-width:3;" />
  <line x1="439.8" y1="50.0" x2="439.8" y2="50.0" style="stroke:#999; stroke-width:3;" />
  <line x1="439.8" y1="50.0" x2="439.8" y2="50.0" style="stroke:#999; stroke-width:3;" />
  <line x1="439.8" y1="50.0" x2="460.0" y2="50.0" style="stroke:#999; stroke-width:3;" />
  <rect class="anc_exon" x="460" y="35.0" width="63" height="30" style="fill:#87bcbc;fill-opacity:1.00" />
  <line x1="523" y1="50.0" x2="563" y2="50.0" style="stroke:#999; stroke-width:3;" />
  <rect class="anc_exon" x="563" y="35.0" width="108" height="30" style="fill:#87bcbc;fill-opacity:1.00" />
  <line x1="671" y1="50.0" x2="711" y2="50.0" style="stroke:#999; stroke-width:3;" />
  <rect class="anc_exon" x="711" y="35.0" width="78" height="30" style="fill:#87bcbc;fill-opacity:1.00" />
  <line x1="789" y1="50.0" x2="829" y2="50.0" style="stroke:#999; stroke-width:3;" />
  <rect class="anc_exon" x="829" y="35.0" width="90" height="30" style="fill:#87bcbc;fill-opacity:1.00" />
  <line x1="919" y1="50.0" x2="959" y2="50.0" style="stroke:#999; stroke-width:3;" />
  <rect class="anc_exon" x="959" y="35.0" width="134" height="30" style="fill:#87bcbc;fill-opacity:1.00" />
  <line x1="1093" y1="50.0" x2="1113" y2="50.0" style="stroke:#999; stroke-width:3;" />
  <line x1="1113" y1="50.0" x2="1113" y2="50.0" style="stroke:#999; stroke-width:3;" />
  <line x1="1113" y1="50.0" x2="1113" y2="50.0" style="stroke:#999; stroke-width:3;" />
  <line x1="1113" y1="50.0" x2="1133" y2="50.0" style="stroke:#999; stroke-width:3;" />
  <rect class="anc_exon" x="1133" y="35.0" width="78" height="30" style="fill:#87bcbc;fill-opacity:1.00" />
  <line x1="1211" y1="50.0" x2="1251" y2="50.0" style="stroke:#999; stroke-width:3;" />
  <rect class="anc_exon" x="1251" y="35.0" width="98" height="30" style="fill:#87bcbc;fill-opacity:1.00" />
  <line x1="1349" y1="50.0" x2="1389" y2="50.0" style="stroke:#999; stroke-width:3;" />
  <rect class="anc_exon" x="1389" y="35.0" width="143" height="30" style="fill:#87bcbc;fill-opacity:1.00" />
  <line x1="1532" y1="50.0" x2="1572" y2="50.0" style="stroke:#999; stroke-width:3;" />
  <rect class="anc_exon" x="1572" y="35.0" width="72" height="30" style="fill:#87bcbc;fill-opacity:1.00" />
  <line x1="1644" y1="50.0" x2="1684" y2="50.0" style="stroke:#999; stroke-width:3;" />
  <rect class="anc_exon" x="1684" y="35.0" width="40" height="30" style="fill:#87bcbc;fill-opacity:1.00" />
  <line x1="1724" y1="50.0" x2="1764" y2="50.0" style="stroke:#999; stroke-width:3;" />
  <rect class="anc_exon" x="1764" y="35.0" width="70" height="30" style="fill:#87bcbc;fill-opacity:1.00" />
  <line x1="1834" y1="50.0" x2="1874" y2="50.0" style="stroke:#999; stroke-width:3;" />
  <rect class="anc_exon" x="1874" y="35.0" width="52" height="30" style="fill:#87bcbc;fill-opacity:1.00" />
  <line x1="1926" y1="50.0" x2="1966" y2="50.0" style="stroke:#999; stroke-width:3;" />
  <rect class="anc_exon" x="1966" y="35.0" width="44" height="30" style="fill:#87bcbc;fill-opacity:1.00" />
  <line x1="2010" y1="50.0" x2="2050" y2="50.0" style="stroke:#999; stroke-width:3;" />
  <rect class="anc_exon" x="2050" y="35.0" width="100" height="30" style="fill:#87bcbc;fill-opacity:1.00" />
  <rect class="anc_exon" x="2150" y="35.0" width="0" height="30" style="fill:#87bcbc;fill-opacity:1.00" />
  <text style="" >
<tspan x="0" y="83.0" style="font-size:18px;" >SP XM_031966223_1.1</tspan>  </text>
  <text style="fill:#121212;" >
<tspan x="523" y="50.0" style="font-size:18px;fill:#121212;" >at</tspan>  </text>



<script type="text/ecmascript">
<![CDATA[
function draw_bbox(text_id)
{
    var text_elem = document.getElementById(text_id);
    var offset_px = 2;
    var offset_py = 0;
    bbox = text_elem.getBBox();
    var box = document.createElementNS(document.rootElement.namespaceURI,'rect');
    box.setAttribute('x', bbox.x - offset_px);
    box.setAttribute('y', bbox.y - offset_py);
    box.setAttribute('width', bbox.width + offset_px * 2);
    box.setAttribute('height', bbox.height + offset_py * 2);
    box.setAttribute('style','fill: white;'+'stroke: black;'+'stroke-width: 1px;');
    text_elem.insertBefore(box,text_elem.childNodes[0]);

    var svg = text_elem.parentNode;
    svg.appendChild(text_elem);
}

for (var i=1; i < 1; i++)
{
draw_bbox("Mouseover" + i);
}
]]> 
</script>
</svg>
