<svg version="1.1"
xmlns="http://www.w3.org/2000/svg"
xmlns:xlink="http://www.w3.org/1999/xlink"
width="1995" height="100" viewBox = "0 0 1995 100"
onclick="mouseclick(evt)">

<script type="text/ecmascript">

<![CDATA[
    function mouseover(evt, target) { 
    var gv = document.getElementById("globalVariable");
    var previoustarget = gv.firstChild.nodeValue;
    if (previoustarget != "none") 
    {
        	document.getElementById(gv.firstChild.nodeValue).setAttributeNS(null, "visibility", "hidden");
    }
    document.getElementById(target).setAttributeNS(null, "visibility", "visible");
    gv.firstChild.nodeValue = target;
        }

    function mouseclick(evt) { 
    var gv = document.getElementById("globalVariable");
    var previoustarget = gv.firstChild.nodeValue;
    if (previoustarget != "none") {
        	document.getElementById(gv.firstChild.nodeValue).setAttributeNS(null, "visibility", "hidden");
        }
    }
]]>
  </script>
<style type="text/css" >

<![CDATA[
    rect.anc_exon {
              stroke-width:3;
                  }

    rect.non_anc_exon {
              stroke: black; stroke-width:3; stroke-dasharray: 5,5;
                    }

    text {
              font-size: 18px;
              font-family: Courier New;
          }
                    ]]>
</style>

<defs>
    <text x="150" y="40" id="globalVariable">none</text>
</defs>

  <rect class="anc_exon" x="0" y="35.0" width="0" height="30" style="fill:#87bcbc;fill-opacity:1.00" />
  <rect class="anc_exon" x="0" y="35.0" width="67.2" height="30" style="fill:#878787;fill-opacity:1.00" />
  <line x1="67.2" y1="50.0" x2="86.2" y2="50.0" style="stroke:#999; stroke-width:3;" />
  <line x1="86.2" y1="50.0" x2="86.2" y2="50.0" style="stroke:#999; stroke-width:3;" />
  <line x1="86.2" y1="50.0" x2="86.2" y2="50.0" style="stroke:#999; stroke-width:3;" />
  <line x1="86.2" y1="50.0" x2="107.0" y2="50.0" style="stroke:#999; stroke-width:3;" />
  <rect class="anc_exon" x="107" y="35.0" width="72" height="30" style="fill:#87bcbc;fill-opacity:1.00" />
  <line x1="179" y1="50.0" x2="199" y2="50.0" style="stroke:#999; stroke-width:3;" />
  <line x1="199" y1="50.0" x2="199" y2="50.0" style="stroke:#999; stroke-width:3;" />
  <line x1="199" y1="50.0" x2="199" y2="50.0" style="stroke:#999; stroke-width:3;" />
  <line x1="199" y1="50.0" x2="219" y2="50.0" style="stroke:#999; stroke-width:3;" />
  <rect class="anc_exon" x="219" y="35.0" width="96" height="30" style="fill:#87bcbc;fill-opacity:1.00" />
  <line x1="315" y1="50.0" x2="355" y2="50.0" style="stroke:#999; stroke-width:3;" />
  <rect class="anc_exon" x="355" y="35.0" width="98" height="30" style="fill:#87bcbc;fill-opacity:1.00" />
  <line x1="453" y1="50.0" x2="493" y2="50.0" style="stroke:#999; stroke-width:3;" />
  <rect class="anc_exon" x="493" y="35.0" width="109" height="30" style="fill:#87bcbc;fill-opacity:1.00" />
  <line x1="602" y1="50.0" x2="642" y2="50.0" style="stroke:#999; stroke-width:3;" />
  <rect class="anc_exon" x="642" y="35.0" width="61" height="30" style="fill:#87bcbc;fill-opacity:1.00" />
  <line x1="703" y1="50.0" x2="743" y2="50.0" style="stroke:#999; stroke-width:3;" />
  <rect class="anc_exon" x="743" y="35.0" width="16" height="30" style="fill:#87bcbc;fill-opacity:1.00" />
  <line x1="759" y1="50.0" x2="799" y2="50.0" style="stroke:#999; stroke-width:3;" />
  <rect class="anc_exon" x="799" y="35.0" width="64" height="30" style="fill:#87bcbc;fill-opacity:1.00" />
  <line x1="863" y1="50.0" x2="903" y2="50.0" style="stroke:#999; stroke-width:3;" />
  <rect class="anc_exon" x="903" y="35.0" width="47" height="30" style="fill:#87bcbc;fill-opacity:1.00" />
  <line x1="950" y1="50.0" x2="990" y2="50.0" style="stroke:#999; stroke-width:3;" />
  <rect class="anc_exon" x="990" y="35.0" width="88" height="30" style="fill:#87bcbc;fill-opacity:1.00" />
  <line x1="1078" y1="50.0" x2="1118" y2="50.0" style="stroke:#999; stroke-width:3;" />
  <rect class="anc_exon" x="1118" y="35.0" width="121" height="30" style="fill:#87bcbc;fill-opacity:1.00" />
  <line x1="1239" y1="50.0" x2="1279" y2="50.0" style="stroke:#999; stroke-width:3;" />
  <rect class="anc_exon" x="1279" y="35.0" width="76" height="30" style="fill:#87bcbc;fill-opacity:1.00" />
  <line x1="1355" y1="50.0" x2="1395" y2="50.0" style="stroke:#999; stroke-width:3;" />
  <rect class="anc_exon" x="1395" y="35.0" width="148" height="30" style="fill:#87bcbc;fill-opacity:1.00" />
  <line x1="1543" y1="50.0" x2="1563" y2="50.0" style="stroke:#999; stroke-width:3;" />
  <line x1="1563" y1="50.0" x2="1563" y2="50.0" style="stroke:#999; stroke-width:3;" />
  <line x1="1563" y1="50.0" x2="1563" y2="50.0" style="stroke:#999; stroke-width:3;" />
  <line x1="1563" y1="50.0" x2="1583" y2="50.0" style="stroke:#999; stroke-width:3;" />
  <rect class="anc_exon" x="1583" y="35.0" width="376" height="30" style="fill:#87bcbc;fill-opacity:1.00" />
  <rect class="anc_exon" x="1959" y="35.0" width="0" height="30" style="fill:#87bcbc;fill-opacity:1.00" />
  <text style="" >
<tspan x="0" y="83.0" style="font-size:18px;" >SP XM_031966171_1.1</tspan>  </text>



<script type="text/ecmascript">
<![CDATA[
function draw_bbox(text_id)
{
    var text_elem = document.getElementById(text_id);
    var offset_px = 2;
    var offset_py = 0;
    bbox = text_elem.getBBox();
    var box = document.createElementNS(document.rootElement.namespaceURI,'rect');
    box.setAttribute('x', bbox.x - offset_px);
    box.setAttribute('y', bbox.y - offset_py);
    box.setAttribute('width', bbox.width + offset_px * 2);
    box.setAttribute('height', bbox.height + offset_py * 2);
    box.setAttribute('style','fill: white;'+'stroke: black;'+'stroke-width: 1px;');
    text_elem.insertBefore(box,text_elem.childNodes[0]);

    var svg = text_elem.parentNode;
    svg.appendChild(text_elem);
}

for (var i=1; i < 1; i++)
{
draw_bbox("Mouseover" + i);
}
]]> 
</script>
</svg>
