<svg version="1.1"
xmlns="http://www.w3.org/2000/svg"
xmlns:xlink="http://www.w3.org/1999/xlink"
width="3176" height="100" viewBox = "0 0 3176 100"
onclick="mouseclick(evt)">

<script type="text/ecmascript">

<![CDATA[
    function mouseover(evt, target) { 
    var gv = document.getElementById("globalVariable");
    var previoustarget = gv.firstChild.nodeValue;
    if (previoustarget != "none") 
    {
        	document.getElementById(gv.firstChild.nodeValue).setAttributeNS(null, "visibility", "hidden");
    }
    document.getElementById(target).setAttributeNS(null, "visibility", "visible");
    gv.firstChild.nodeValue = target;
        }

    function mouseclick(evt) { 
    var gv = document.getElementById("globalVariable");
    var previoustarget = gv.firstChild.nodeValue;
    if (previoustarget != "none") {
        	document.getElementById(gv.firstChild.nodeValue).setAttributeNS(null, "visibility", "hidden");
        }
    }
]]>
  </script>
<style type="text/css" >

<![CDATA[
    rect.anc_exon {
              stroke-width:3;
                  }

    rect.non_anc_exon {
              stroke: black; stroke-width:3; stroke-dasharray: 5,5;
                    }

    text {
              font-size: 18px;
              font-family: Courier New;
          }
                    ]]>
</style>

<defs>
    <text x="150" y="40" id="globalVariable">none</text>
</defs>

  <rect class="anc_exon" x="0" y="35.0" width="0" height="30" style="fill:#87bcbc;fill-opacity:1.00" />
  <rect class="anc_exon" x="0" y="35.0" width="69.60000000000001" height="30" style="fill:#87bcbc;fill-opacity:1.00" />
  <line x1="69.60000000000001" y1="50.0" x2="88.60000000000001" y2="50.0" style="stroke:#999; stroke-width:3;" />
  <line x1="88.60000000000001" y1="50.0" x2="88.60000000000001" y2="50.0" style="stroke:#999; stroke-width:3;" />
  <line x1="88.60000000000001" y1="50.0" x2="88.60000000000001" y2="50.0" style="stroke:#999; stroke-width:3;" />
  <line x1="88.60000000000001" y1="50.0" x2="109.0" y2="50.0" style="stroke:#999; stroke-width:3;" />
  <rect class="anc_exon" x="109" y="35.0" width="104" height="30" style="fill:#87bcbc;fill-opacity:1.00" />
  <line x1="213" y1="50.0" x2="253" y2="50.0" style="stroke:#999; stroke-width:3;" />
  <rect class="anc_exon" x="253" y="35.0" width="137" height="30" style="fill:#87bcbc;fill-opacity:1.00" />
  <line x1="390" y1="50.0" x2="430" y2="50.0" style="stroke:#999; stroke-width:3;" />
  <rect class="anc_exon" x="430" y="35.0" width="123" height="30" style="fill:#87bcbc;fill-opacity:1.00" />
  <line x1="553" y1="50.0" x2="573" y2="50.0" style="stroke:#999; stroke-width:3;" />
  <line x1="573" y1="50.0" x2="573" y2="50.0" style="stroke:#999; stroke-width:3;" />
  <line x1="573" y1="50.0" x2="573" y2="50.0" style="stroke:#999; stroke-width:3;" />
  <line x1="573" y1="50.0" x2="593" y2="50.0" style="stroke:#999; stroke-width:3;" />
  <rect class="anc_exon" x="593" y="35.0" width="57" height="30" style="fill:#87bcbc;fill-opacity:1.00" />
  <line x1="650" y1="50.0" x2="670" y2="50.0" style="stroke:#999; stroke-width:3;" />
  <line x1="670" y1="50.0" x2="670" y2="50.0" style="stroke:#999; stroke-width:3;" />
  <line x1="670" y1="50.0" x2="670" y2="50.0" style="stroke:#999; stroke-width:3;" />
  <line x1="670" y1="50.0" x2="690" y2="50.0" style="stroke:#999; stroke-width:3;" />
  <rect class="anc_exon" x="690" y="35.0" width="125" height="30" style="fill:#87bcbc;fill-opacity:1.00" />
  <line x1="815" y1="50.0" x2="855" y2="50.0" style="stroke:#999; stroke-width:3;" />
  <rect class="anc_exon" x="855" y="35.0" width="100" height="30" style="fill:#87bcbc;fill-opacity:1.00" />
  <line x1="955" y1="50.0" x2="975" y2="50.0" style="stroke:#999; stroke-width:3;" />
  <line x1="975" y1="50.0" x2="975" y2="50.0" style="stroke:#999; stroke-width:3;" />
  <line x1="975" y1="50.0" x2="975" y2="50.0" style="stroke:#999; stroke-width:3;" />
  <line x1="975" y1="50.0" x2="995" y2="50.0" style="stroke:#999; stroke-width:3;" />
  <rect class="anc_exon" x="995" y="35.0" width="50" height="30" style="fill:#87bcbc;fill-opacity:1.00" />
  <line x1="1045" y1="50.0" x2="1065" y2="50.0" style="stroke:#999; stroke-width:3;" />
  <line x1="1065" y1="50.0" x2="1065" y2="50.0" style="stroke:#999; stroke-width:3;" />
  <line x1="1065" y1="50.0" x2="1065" y2="50.0" style="stroke:#999; stroke-width:3;" />
  <line x1="1065" y1="50.0" x2="1085" y2="50.0" style="stroke:#999; stroke-width:3;" />
  <rect class="anc_exon" x="1085" y="35.0" width="62" height="30" style="fill:#87bcbc;fill-opacity:1.00" />
  <line x1="1147" y1="50.0" x2="1187" y2="50.0" style="stroke:#999; stroke-width:3;" />
  <rect class="anc_exon" x="1187" y="35.0" width="72" height="30" style="fill:#87bcbc;fill-opacity:1.00" />
  <line x1="1259" y1="50.0" x2="1279" y2="50.0" style="stroke:#999; stroke-width:3;" />
  <line x1="1279" y1="50.0" x2="1279" y2="50.0" style="stroke:#999; stroke-width:3;" />
  <line x1="1279" y1="50.0" x2="1279" y2="50.0" style="stroke:#999; stroke-width:3;" />
  <line x1="1279" y1="50.0" x2="1299" y2="50.0" style="stroke:#999; stroke-width:3;" />
  <rect class="anc_exon" x="1299" y="35.0" width="64" height="30" style="fill:#87bcbc;fill-opacity:1.00" />
  <line x1="1363" y1="50.0" x2="1383" y2="50.0" style="stroke:#999; stroke-width:3;" />
  <line x1="1383" y1="50.0" x2="1383" y2="50.0" style="stroke:#999; stroke-width:3;" />
  <line x1="1383" y1="50.0" x2="1383" y2="50.0" style="stroke:#999; stroke-width:3;" />
  <line x1="1383" y1="50.0" x2="1403" y2="50.0" style="stroke:#999; stroke-width:3;" />
  <rect class="anc_exon" x="1403" y="35.0" width="57" height="30" style="fill:#87bcbc;fill-opacity:1.00" />
  <line x1="1460" y1="50.0" x2="1480" y2="50.0" style="stroke:#999; stroke-width:3;" />
  <line x1="1480" y1="50.0" x2="1480" y2="50.0" style="stroke:#999; stroke-width:3;" />
  <line x1="1480" y1="50.0" x2="1480" y2="50.0" style="stroke:#999; stroke-width:3;" />
  <line x1="1480" y1="50.0" x2="1500" y2="50.0" style="stroke:#999; stroke-width:3;" />
  <rect class="anc_exon" x="1500" y="35.0" width="146" height="30" style="fill:#87bcbc;fill-opacity:1.00" />
  <line x1="1646" y1="50.0" x2="1686" y2="50.0" style="stroke:#999; stroke-width:3;" />
  <rect class="anc_exon" x="1686" y="35.0" width="90" height="30" style="fill:#87bcbc;fill-opacity:1.00" />
  <line x1="1776" y1="50.0" x2="1796" y2="50.0" style="stroke:#999; stroke-width:3;" />
  <line x1="1796" y1="50.0" x2="1796" y2="50.0" style="stroke:#999; stroke-width:3;" />
  <line x1="1796" y1="50.0" x2="1796" y2="50.0" style="stroke:#999; stroke-width:3;" />
  <line x1="1796" y1="50.0" x2="1816" y2="50.0" style="stroke:#999; stroke-width:3;" />
  <rect class="anc_exon" x="1816" y="35.0" width="24" height="30" style="fill:#87bcbc;fill-opacity:1.00" />
  <line x1="1840" y1="50.0" x2="1860" y2="50.0" style="stroke:#999; stroke-width:3;" />
  <line x1="1860" y1="50.0" x2="1860" y2="50.0" style="stroke:#999; stroke-width:3;" />
  <line x1="1860" y1="50.0" x2="1860" y2="50.0" style="stroke:#999; stroke-width:3;" />
  <line x1="1860" y1="50.0" x2="1880" y2="50.0" style="stroke:#999; stroke-width:3;" />
  <rect class="anc_exon" x="1880" y="35.0" width="90" height="30" style="fill:#87bcbc;fill-opacity:1.00" />
  <line x1="1970" y1="50.0" x2="1990" y2="50.0" style="stroke:#999; stroke-width:3;" />
  <line x1="1990" y1="50.0" x2="1990" y2="50.0" style="stroke:#999; stroke-width:3;" />
  <line x1="1990" y1="50.0" x2="1990" y2="50.0" style="stroke:#999; stroke-width:3;" />
  <line x1="1990" y1="50.0" x2="2010" y2="50.0" style="stroke:#999; stroke-width:3;" />
  <rect class="anc_exon" x="2010" y="35.0" width="133" height="30" style="fill:#87bcbc;fill-opacity:1.00" />
  <line x1="2143" y1="50.0" x2="2163" y2="50.0" style="stroke:#999; stroke-width:3;" />
  <line x1="2163" y1="50.0" x2="2163" y2="50.0" style="stroke:#999; stroke-width:3;" />
  <line x1="2163" y1="50.0" x2="2163" y2="50.0" style="stroke:#999; stroke-width:3;" />
  <line x1="2163" y1="50.0" x2="2183" y2="50.0" style="stroke:#999; stroke-width:3;" />
  <rect class="anc_exon" x="2183" y="35.0" width="188" height="30" style="fill:#87bcbc;fill-opacity:1.00" />
  <line x1="2371" y1="50.0" x2="2391" y2="50.0" style="stroke:#999; stroke-width:3;" />
  <line x1="2391" y1="50.0" x2="2391" y2="50.0" style="stroke:#999; stroke-width:3;" />
  <line x1="2391" y1="50.0" x2="2391" y2="50.0" style="stroke:#999; stroke-width:3;" />
  <line x1="2391" y1="50.0" x2="2411" y2="50.0" style="stroke:#999; stroke-width:3;" />
  <rect class="anc_exon" x="2411" y="35.0" width="111" height="30" style="fill:#87bcbc;fill-opacity:1.00" />
  <line x1="2522" y1="50.0" x2="2542" y2="50.0" style="stroke:#999; stroke-width:3;" />
  <line x1="2542" y1="50.0" x2="2542" y2="50.0" style="stroke:#999; stroke-width:3;" />
  <line x1="2542" y1="50.0" x2="2542" y2="50.0" style="stroke:#999; stroke-width:3;" />
  <line x1="2542" y1="50.0" x2="2562" y2="50.0" style="stroke:#999; stroke-width:3;" />
  <rect class="anc_exon" x="2562" y="35.0" width="90" height="30" style="fill:#87bcbc;fill-opacity:1.00" />
  <line x1="2652" y1="50.0" x2="2692" y2="50.0" style="stroke:#999; stroke-width:3;" />
  <rect class="anc_exon" x="2692" y="35.0" width="81" height="30" style="fill:#87bcbc;fill-opacity:1.00" />
  <line x1="2773" y1="50.0" x2="2813" y2="50.0" style="stroke:#999; stroke-width:3;" />
  <rect class="anc_exon" x="2813" y="35.0" width="112" height="30" style="fill:#87bcbc;fill-opacity:1.00" />
  <line x1="2925" y1="50.0" x2="2945" y2="50.0" style="stroke:#999; stroke-width:3;" />
  <line x1="2945" y1="50.0" x2="2945" y2="50.0" style="stroke:#999; stroke-width:3;" />
  <line x1="2945" y1="50.0" x2="2945" y2="50.0" style="stroke:#999; stroke-width:3;" />
  <line x1="2945" y1="50.0" x2="2965" y2="50.0" style="stroke:#999; stroke-width:3;" />
  <rect class="anc_exon" x="2965" y="35.0" width="175" height="30" style="fill:#87bcbc;fill-opacity:1.00" />
  <rect class="anc_exon" x="3140" y="35.0" width="0" height="30" style="fill:#87bcbc;fill-opacity:1.00" />
  <text style="" >
<tspan x="0" y="83.0" style="font-size:18px;" >SP XM_031964650_1.1</tspan>  </text>



<script type="text/ecmascript">
<![CDATA[
function draw_bbox(text_id)
{
    var text_elem = document.getElementById(text_id);
    var offset_px = 2;
    var offset_py = 0;
    bbox = text_elem.getBBox();
    var box = document.createElementNS(document.rootElement.namespaceURI,'rect');
    box.setAttribute('x', bbox.x - offset_px);
    box.setAttribute('y', bbox.y - offset_py);
    box.setAttribute('width', bbox.width + offset_px * 2);
    box.setAttribute('height', bbox.height + offset_py * 2);
    box.setAttribute('style','fill: white;'+'stroke: black;'+'stroke-width: 1px;');
    text_elem.insertBefore(box,text_elem.childNodes[0]);

    var svg = text_elem.parentNode;
    svg.appendChild(text_elem);
}

for (var i=1; i < 1; i++)
{
draw_bbox("Mouseover" + i);
}
]]> 
</script>
</svg>
