<svg version="1.1"
xmlns="http://www.w3.org/2000/svg"
xmlns:xlink="http://www.w3.org/1999/xlink"
width="3406" height="100" viewBox = "0 0 3406 100"
onclick="mouseclick(evt)">

<script type="text/ecmascript">

<![CDATA[
    function mouseover(evt, target) { 
    var gv = document.getElementById("globalVariable");
    var previoustarget = gv.firstChild.nodeValue;
    if (previoustarget != "none") 
    {
        	document.getElementById(gv.firstChild.nodeValue).setAttributeNS(null, "visibility", "hidden");
    }
    document.getElementById(target).setAttributeNS(null, "visibility", "visible");
    gv.firstChild.nodeValue = target;
        }

    function mouseclick(evt) { 
    var gv = document.getElementById("globalVariable");
    var previoustarget = gv.firstChild.nodeValue;
    if (previoustarget != "none") {
        	document.getElementById(gv.firstChild.nodeValue).setAttributeNS(null, "visibility", "hidden");
        }
    }
]]>
  </script>
<style type="text/css" >

<![CDATA[
    rect.anc_exon {
              stroke-width:3;
                  }

    rect.non_anc_exon {
              stroke: black; stroke-width:3; stroke-dasharray: 5,5;
                    }

    text {
              font-size: 18px;
              font-family: Courier New;
          }
                    ]]>
</style>

<defs>
    <text x="150" y="40" id="globalVariable">none</text>
</defs>

  <rect class="anc_exon" x="0" y="35.0" width="0" height="30" style="fill:#87bcbc;fill-opacity:1.00" />
  <rect class="anc_exon" x="0" y="35.0" width="38.400000000000006" height="30" style="fill:#878787;fill-opacity:1.00" />
  <line x1="38.400000000000006" y1="50.0" x2="57.400000000000006" y2="50.0" style="stroke:#999; stroke-width:3;" />
  <line x1="57.400000000000006" y1="50.0" x2="57.400000000000006" y2="50.0" style="stroke:#999; stroke-width:3;" />
  <line x1="57.400000000000006" y1="50.0" x2="57.400000000000006" y2="50.0" style="stroke:#999; stroke-width:3;" />
  <line x1="57.400000000000006" y1="50.0" x2="78.0" y2="50.0" style="stroke:#999; stroke-width:3;" />
  <rect class="anc_exon" x="78" y="35.0" width="81" height="30" style="fill:#87bcbc;fill-opacity:1.00" />
  <line x1="159" y1="50.0" x2="179" y2="50.0" style="stroke:#999; stroke-width:3;" />
  <line x1="179" y1="50.0" x2="179" y2="50.0" style="stroke:#999; stroke-width:3;" />
  <line x1="179" y1="50.0" x2="179" y2="50.0" style="stroke:#999; stroke-width:3;" />
  <line x1="179" y1="50.0" x2="199" y2="50.0" style="stroke:#999; stroke-width:3;" />
  <rect class="anc_exon" x="199" y="35.0" width="28" height="30" style="fill:#87bcbc;fill-opacity:1.00" />
  <line x1="227" y1="50.0" x2="247" y2="50.0" style="stroke:#999; stroke-width:3;" />
  <line x1="247" y1="50.0" x2="247" y2="50.0" style="stroke:#999; stroke-width:3;" />
  <line x1="247" y1="50.0" x2="247" y2="50.0" style="stroke:#999; stroke-width:3;" />
  <line x1="247" y1="50.0" x2="267" y2="50.0" style="stroke:#999; stroke-width:3;" />
  <rect class="anc_exon" x="267" y="35.0" width="24" height="30" style="fill:#87bcbc;fill-opacity:1.00" />
  <line x1="291" y1="50.0" x2="311" y2="50.0" style="stroke:#999; stroke-width:3;" />
  <line x1="311" y1="50.0" x2="311" y2="50.0" style="stroke:#999; stroke-width:3;" />
  <line x1="311" y1="50.0" x2="311" y2="50.0" style="stroke:#999; stroke-width:3;" />
  <line x1="311" y1="50.0" x2="331" y2="50.0" style="stroke:#999; stroke-width:3;" />
  <rect class="anc_exon" x="331" y="35.0" width="39" height="30" style="fill:#87bcbc;fill-opacity:1.00" />
  <line x1="370" y1="50.0" x2="390" y2="50.0" style="stroke:#999; stroke-width:3;" />
  <line x1="390" y1="50.0" x2="390" y2="50.0" style="stroke:#999; stroke-width:3;" />
  <line x1="390" y1="50.0" x2="390" y2="50.0" style="stroke:#999; stroke-width:3;" />
  <line x1="390" y1="50.0" x2="410" y2="50.0" style="stroke:#999; stroke-width:3;" />
  <rect class="anc_exon" x="410" y="35.0" width="368" height="30" style="fill:#87bcbc;fill-opacity:1.00" />
  <line x1="778" y1="50.0" x2="798" y2="50.0" style="stroke:#999; stroke-width:3;" />
  <line x1="798" y1="50.0" x2="798" y2="50.0" style="stroke:#999; stroke-width:3;" />
  <line x1="798" y1="50.0" x2="798" y2="50.0" style="stroke:#999; stroke-width:3;" />
  <line x1="798" y1="50.0" x2="818" y2="50.0" style="stroke:#999; stroke-width:3;" />
  <rect class="anc_exon" x="818" y="35.0" width="203" height="30" style="fill:#878787;fill-opacity:1.00" />
  <line x1="1021" y1="50.0" x2="1061" y2="50.0" style="stroke:#999; stroke-width:3;" />
  <rect class="anc_exon" x="1061" y="35.0" width="193" height="30" style="fill:#87bcbc;fill-opacity:1.00" />
  <line x1="1254" y1="50.0" x2="1274" y2="50.0" style="stroke:#999; stroke-width:3;" />
  <line x1="1274" y1="50.0" x2="1274" y2="50.0" style="stroke:#999; stroke-width:3;" />
  <line x1="1274" y1="50.0" x2="1274" y2="50.0" style="stroke:#999; stroke-width:3;" />
  <line x1="1274" y1="50.0" x2="1294" y2="50.0" style="stroke:#999; stroke-width:3;" />
  <rect class="anc_exon" x="1294" y="35.0" width="36" height="30" style="fill:#87bcbc;fill-opacity:1.00" />
  <line x1="1330" y1="50.0" x2="1350" y2="50.0" style="stroke:#999; stroke-width:3;" />
  <line x1="1350" y1="50.0" x2="1350" y2="50.0" style="stroke:#999; stroke-width:3;" />
  <line x1="1350" y1="50.0" x2="1350" y2="50.0" style="stroke:#999; stroke-width:3;" />
  <line x1="1350" y1="50.0" x2="1370" y2="50.0" style="stroke:#999; stroke-width:3;" />
  <rect class="anc_exon" x="1370" y="35.0" width="76" height="30" style="fill:#87bcbc;fill-opacity:1.00" />
  <line x1="1446" y1="50.0" x2="1466" y2="50.0" style="stroke:#999; stroke-width:3;" />
  <line x1="1466" y1="50.0" x2="1466" y2="50.0" style="stroke:#999; stroke-width:3;" />
  <line x1="1466" y1="50.0" x2="1466" y2="50.0" style="stroke:#999; stroke-width:3;" />
  <line x1="1466" y1="50.0" x2="1486" y2="50.0" style="stroke:#999; stroke-width:3;" />
  <rect class="anc_exon" x="1486" y="35.0" width="57" height="30" style="fill:#87bcbc;fill-opacity:1.00" />
  <line x1="1543" y1="50.0" x2="1583" y2="50.0" style="stroke:#999; stroke-width:3;" />
  <rect class="anc_exon" x="1583" y="35.0" width="24" height="30" style="fill:#87bcbc;fill-opacity:1.00" />
  <line x1="1607" y1="50.0" x2="1627" y2="50.0" style="stroke:#999; stroke-width:3;" />
  <line x1="1627" y1="50.0" x2="1627" y2="50.0" style="stroke:#999; stroke-width:3;" />
  <line x1="1627" y1="50.0" x2="1627" y2="50.0" style="stroke:#999; stroke-width:3;" />
  <line x1="1627" y1="50.0" x2="1647" y2="50.0" style="stroke:#999; stroke-width:3;" />
  <rect class="anc_exon" x="1647" y="35.0" width="57" height="30" style="fill:#87bcbc;fill-opacity:1.00" />
  <line x1="1704" y1="50.0" x2="1724" y2="50.0" style="stroke:#999; stroke-width:3;" />
  <line x1="1724" y1="50.0" x2="1724" y2="50.0" style="stroke:#999; stroke-width:3;" />
  <line x1="1724" y1="50.0" x2="1724" y2="50.0" style="stroke:#999; stroke-width:3;" />
  <line x1="1724" y1="50.0" x2="1744" y2="50.0" style="stroke:#999; stroke-width:3;" />
  <rect class="anc_exon" x="1744" y="35.0" width="113" height="30" style="fill:#87bcbc;fill-opacity:1.00" />
  <line x1="1857" y1="50.0" x2="1877" y2="50.0" style="stroke:#999; stroke-width:3;" />
  <line x1="1877" y1="50.0" x2="1877" y2="50.0" style="stroke:#999; stroke-width:3;" />
  <line x1="1877" y1="50.0" x2="1877" y2="50.0" style="stroke:#999; stroke-width:3;" />
  <line x1="1877" y1="50.0" x2="1897" y2="50.0" style="stroke:#999; stroke-width:3;" />
  <rect class="anc_exon" x="1897" y="35.0" width="62" height="30" style="fill:#87bcbc;fill-opacity:1.00" />
  <line x1="1959" y1="50.0" x2="1979" y2="50.0" style="stroke:#999; stroke-width:3;" />
  <line x1="1979" y1="50.0" x2="1979" y2="50.0" style="stroke:#999; stroke-width:3;" />
  <line x1="1979" y1="50.0" x2="1979" y2="50.0" style="stroke:#999; stroke-width:3;" />
  <line x1="1979" y1="50.0" x2="1999" y2="50.0" style="stroke:#999; stroke-width:3;" />
  <rect class="anc_exon" x="1999" y="35.0" width="67" height="30" style="fill:#87bcbc;fill-opacity:1.00" />
  <line x1="2066" y1="50.0" x2="2086" y2="50.0" style="stroke:#999; stroke-width:3;" />
  <line x1="2086" y1="50.0" x2="2086" y2="50.0" style="stroke:#999; stroke-width:3;" />
  <line x1="2086" y1="50.0" x2="2086" y2="50.0" style="stroke:#999; stroke-width:3;" />
  <line x1="2086" y1="50.0" x2="2106" y2="50.0" style="stroke:#999; stroke-width:3;" />
  <rect class="anc_exon" x="2106" y="35.0" width="178" height="30" style="fill:#87bcbc;fill-opacity:1.00" />
  <line x1="2284" y1="50.0" x2="2304" y2="50.0" style="stroke:#999; stroke-width:3;" />
  <line x1="2304" y1="50.0" x2="2304" y2="50.0" style="stroke:#999; stroke-width:3;" />
  <line x1="2304" y1="50.0" x2="2304" y2="50.0" style="stroke:#999; stroke-width:3;" />
  <line x1="2304" y1="50.0" x2="2324" y2="50.0" style="stroke:#999; stroke-width:3;" />
  <rect class="anc_exon" x="2324" y="35.0" width="986" height="30" style="fill:#878787;fill-opacity:1.00" />
  <line x1="3310" y1="50.0" x2="3350" y2="50.0" style="stroke:#999; stroke-width:3;" />
  <rect class="anc_exon" x="3350" y="35.0" width="20" height="30" style="fill:#87bcbc;fill-opacity:1.00" />
  <rect class="anc_exon" x="3370" y="35.0" width="0" height="30" style="fill:#87bcbc;fill-opacity:1.00" />
  <text style="" >
<tspan x="0" y="83.0" style="font-size:18px;" >SP XM_031968790_1.1</tspan>  </text>



<script type="text/ecmascript">
<![CDATA[
function draw_bbox(text_id)
{
    var text_elem = document.getElementById(text_id);
    var offset_px = 2;
    var offset_py = 0;
    bbox = text_elem.getBBox();
    var box = document.createElementNS(document.rootElement.namespaceURI,'rect');
    box.setAttribute('x', bbox.x - offset_px);
    box.setAttribute('y', bbox.y - offset_py);
    box.setAttribute('width', bbox.width + offset_px * 2);
    box.setAttribute('height', bbox.height + offset_py * 2);
    box.setAttribute('style','fill: white;'+'stroke: black;'+'stroke-width: 1px;');
    text_elem.insertBefore(box,text_elem.childNodes[0]);

    var svg = text_elem.parentNode;
    svg.appendChild(text_elem);
}

for (var i=1; i < 1; i++)
{
draw_bbox("Mouseover" + i);
}
]]> 
</script>
</svg>
