<svg version="1.1"
xmlns="http://www.w3.org/2000/svg"
xmlns:xlink="http://www.w3.org/1999/xlink"
width="9208" height="100" viewBox = "0 0 9208 100"
onclick="mouseclick(evt)">

<script type="text/ecmascript">

<![CDATA[
    function mouseover(evt, target) { 
    var gv = document.getElementById("globalVariable");
    var previoustarget = gv.firstChild.nodeValue;
    if (previoustarget != "none") 
    {
        	document.getElementById(gv.firstChild.nodeValue).setAttributeNS(null, "visibility", "hidden");
    }
    document.getElementById(target).setAttributeNS(null, "visibility", "visible");
    gv.firstChild.nodeValue = target;
        }

    function mouseclick(evt) { 
    var gv = document.getElementById("globalVariable");
    var previoustarget = gv.firstChild.nodeValue;
    if (previoustarget != "none") {
        	document.getElementById(gv.firstChild.nodeValue).setAttributeNS(null, "visibility", "hidden");
        }
    }
]]>
  </script>
<style type="text/css" >

<![CDATA[
    rect.anc_exon {
              stroke-width:3;
                  }

    rect.non_anc_exon {
              stroke: black; stroke-width:3; stroke-dasharray: 5,5;
                    }

    text {
              font-size: 18px;
              font-family: Courier New;
          }
                    ]]>
</style>

<defs>
    <text x="150" y="40" id="globalVariable">none</text>
</defs>

  <rect class="anc_exon" x="0" y="35.0" width="0" height="30" style="fill:#87bcbc;fill-opacity:1.00" />
  <rect class="anc_exon" x="0" y="35.0" width="28.8" height="30" style="fill:#878787;fill-opacity:1.00" />
  <line x1="28.8" y1="50.0" x2="47.8" y2="50.0" style="stroke:#999; stroke-width:3;" />
  <line x1="47.8" y1="50.0" x2="47.8" y2="50.0" style="stroke:#999; stroke-width:3;" />
  <line x1="47.8" y1="50.0" x2="47.8" y2="50.0" style="stroke:#999; stroke-width:3;" />
  <line x1="47.8" y1="50.0" x2="68.0" y2="50.0" style="stroke:#999; stroke-width:3;" />
  <rect class="anc_exon" x="68" y="35.0" width="115" height="30" style="fill:#87bcbc;fill-opacity:1.00" />
  <line x1="183" y1="50.0" x2="223" y2="50.0" style="stroke:#999; stroke-width:3;" />
  <rect class="anc_exon" x="223" y="35.0" width="76" height="30" style="fill:#87bcbc;fill-opacity:1.00" />
  <line x1="299" y1="50.0" x2="319" y2="50.0" style="stroke:#999; stroke-width:3;" />
  <line x1="319" y1="50.0" x2="319" y2="50.0" style="stroke:#999; stroke-width:3;" />
  <line x1="319" y1="50.0" x2="319" y2="50.0" style="stroke:#999; stroke-width:3;" />
  <line x1="319" y1="50.0" x2="339" y2="50.0" style="stroke:#999; stroke-width:3;" />
  <rect class="anc_exon" x="339" y="35.0" width="152" height="30" style="fill:#87bcbc;fill-opacity:1.00" />
  <line x1="491" y1="50.0" x2="511" y2="50.0" style="stroke:#999; stroke-width:3;" />
  <line x1="511" y1="50.0" x2="511" y2="50.0" style="stroke:#999; stroke-width:3;" />
  <line x1="511" y1="50.0" x2="511" y2="50.0" style="stroke:#999; stroke-width:3;" />
  <line x1="511" y1="50.0" x2="531" y2="50.0" style="stroke:#999; stroke-width:3;" />
  <rect class="anc_exon" x="531" y="35.0" width="85" height="30" style="fill:#87bcbc;fill-opacity:1.00" />
  <line x1="616" y1="50.0" x2="636" y2="50.0" style="stroke:#999; stroke-width:3;" />
  <line x1="636" y1="50.0" x2="636" y2="50.0" style="stroke:#999; stroke-width:3;" />
  <line x1="636" y1="50.0" x2="636" y2="50.0" style="stroke:#999; stroke-width:3;" />
  <line x1="636" y1="50.0" x2="656" y2="50.0" style="stroke:#999; stroke-width:3;" />
  <rect class="anc_exon" x="656" y="35.0" width="54" height="30" style="fill:#87bcbc;fill-opacity:1.00" />
  <line x1="710" y1="50.0" x2="750" y2="50.0" style="stroke:#999; stroke-width:3;" />
  <rect class="anc_exon" x="750" y="35.0" width="60" height="30" style="fill:#87bcbc;fill-opacity:1.00" />
  <line x1="810" y1="50.0" x2="850" y2="50.0" style="stroke:#999; stroke-width:3;" />
  <rect class="anc_exon" x="850" y="35.0" width="126" height="30" style="fill:#87bcbc;fill-opacity:1.00" />
  <line x1="976" y1="50.0" x2="996" y2="50.0" style="stroke:#999; stroke-width:3;" />
  <line x1="996" y1="50.0" x2="996" y2="50.0" style="stroke:#999; stroke-width:3;" />
  <line x1="996" y1="50.0" x2="996" y2="50.0" style="stroke:#999; stroke-width:3;" />
  <line x1="996" y1="50.0" x2="1016" y2="50.0" style="stroke:#999; stroke-width:3;" />
  <rect class="anc_exon" x="1016" y="35.0" width="88" height="30" style="fill:#87bcbc;fill-opacity:1.00" />
  <line x1="1104" y1="50.0" x2="1124" y2="50.0" style="stroke:#999; stroke-width:3;" />
  <line x1="1124" y1="50.0" x2="1124" y2="50.0" style="stroke:#999; stroke-width:3;" />
  <line x1="1124" y1="50.0" x2="1124" y2="50.0" style="stroke:#999; stroke-width:3;" />
  <line x1="1124" y1="50.0" x2="1144" y2="50.0" style="stroke:#999; stroke-width:3;" />
  <rect class="anc_exon" x="1144" y="35.0" width="139" height="30" style="fill:#87bcbc;fill-opacity:1.00" />
  <line x1="1283" y1="50.0" x2="1323" y2="50.0" style="stroke:#999; stroke-width:3;" />
  <rect class="anc_exon" x="1323" y="35.0" width="98" height="30" style="fill:#87bcbc;fill-opacity:1.00" />
  <line x1="1421" y1="50.0" x2="1461" y2="50.0" style="stroke:#999; stroke-width:3;" />
  <rect class="anc_exon" x="1461" y="35.0" width="60" height="30" style="fill:#87bcbc;fill-opacity:1.00" />
  <line x1="1521" y1="50.0" x2="1561" y2="50.0" style="stroke:#999; stroke-width:3;" />
  <rect class="anc_exon" x="1561" y="35.0" width="24" height="30" style="fill:#87bcbc;fill-opacity:1.00" />
  <line x1="1585" y1="50.0" x2="1605" y2="50.0" style="stroke:#999; stroke-width:3;" />
  <line x1="1605" y1="50.0" x2="1605" y2="50.0" style="stroke:#999; stroke-width:3;" />
  <line x1="1605" y1="50.0" x2="1605" y2="50.0" style="stroke:#999; stroke-width:3;" />
  <line x1="1605" y1="50.0" x2="1625" y2="50.0" style="stroke:#999; stroke-width:3;" />
  <rect class="anc_exon" x="1625" y="35.0" width="105" height="30" style="fill:#87bcbc;fill-opacity:1.00" />
  <line x1="1730" y1="50.0" x2="1750" y2="50.0" style="stroke:#999; stroke-width:3;" />
  <line x1="1750" y1="50.0" x2="1750" y2="50.0" style="stroke:#999; stroke-width:3;" />
  <line x1="1750" y1="50.0" x2="1750" y2="50.0" style="stroke:#999; stroke-width:3;" />
  <line x1="1750" y1="50.0" x2="1770" y2="50.0" style="stroke:#999; stroke-width:3;" />
  <rect class="anc_exon" x="1770" y="35.0" width="108" height="30" style="fill:#87bcbc;fill-opacity:1.00" />
  <line x1="1878" y1="50.0" x2="1898" y2="50.0" style="stroke:#999; stroke-width:3;" />
  <line x1="1898" y1="50.0" x2="1898" y2="50.0" style="stroke:#999; stroke-width:3;" />
  <line x1="1898" y1="50.0" x2="1898" y2="50.0" style="stroke:#999; stroke-width:3;" />
  <line x1="1898" y1="50.0" x2="1918" y2="50.0" style="stroke:#999; stroke-width:3;" />
  <rect class="anc_exon" x="1918" y="35.0" width="91" height="30" style="fill:#87bcbc;fill-opacity:1.00" />
  <line x1="2009" y1="50.0" x2="2029" y2="50.0" style="stroke:#999; stroke-width:3;" />
  <line x1="2029" y1="50.0" x2="2029" y2="50.0" style="stroke:#999; stroke-width:3;" />
  <line x1="2029" y1="50.0" x2="2029" y2="50.0" style="stroke:#999; stroke-width:3;" />
  <line x1="2029" y1="50.0" x2="2049" y2="50.0" style="stroke:#999; stroke-width:3;" />
  <rect class="anc_exon" x="2049" y="35.0" width="64" height="30" style="fill:#87bcbc;fill-opacity:1.00" />
  <line x1="2113" y1="50.0" x2="2153" y2="50.0" style="stroke:#999; stroke-width:3;" />
  <rect class="anc_exon" x="2153" y="35.0" width="99" height="30" style="fill:#87bcbc;fill-opacity:1.00" />
  <line x1="2252" y1="50.0" x2="2272" y2="50.0" style="stroke:#999; stroke-width:3;" />
  <line x1="2272" y1="50.0" x2="2272" y2="50.0" style="stroke:#999; stroke-width:3;" />
  <line x1="2272" y1="50.0" x2="2272" y2="50.0" style="stroke:#999; stroke-width:3;" />
  <line x1="2272" y1="50.0" x2="2292" y2="50.0" style="stroke:#999; stroke-width:3;" />
  <rect class="anc_exon" x="2292" y="35.0" width="129" height="30" style="fill:#87bcbc;fill-opacity:1.00" />
  <line x1="2421" y1="50.0" x2="2441" y2="50.0" style="stroke:#999; stroke-width:3;" />
  <line x1="2441" y1="50.0" x2="2441" y2="50.0" style="stroke:#999; stroke-width:3;" />
  <line x1="2441" y1="50.0" x2="2441" y2="50.0" style="stroke:#999; stroke-width:3;" />
  <line x1="2441" y1="50.0" x2="2461" y2="50.0" style="stroke:#999; stroke-width:3;" />
  <rect class="anc_exon" x="2461" y="35.0" width="197" height="30" style="fill:#87bcbc;fill-opacity:1.00" />
  <line x1="2658" y1="50.0" x2="2698" y2="50.0" style="stroke:#999; stroke-width:3;" />
  <rect class="anc_exon" x="2698" y="35.0" width="59" height="30" style="fill:#87bcbc;fill-opacity:1.00" />
  <line x1="2757" y1="50.0" x2="2797" y2="50.0" style="stroke:#999; stroke-width:3;" />
  <rect class="anc_exon" x="2797" y="35.0" width="67" height="30" style="fill:#87bcbc;fill-opacity:1.00" />
  <line x1="2864" y1="50.0" x2="2904" y2="50.0" style="stroke:#999; stroke-width:3;" />
  <rect class="anc_exon" x="2904" y="35.0" width="352" height="30" style="fill:#87bcbc;fill-opacity:1.00" />
  <line x1="3256" y1="50.0" x2="3296" y2="50.0" style="stroke:#999; stroke-width:3;" />
  <rect class="anc_exon" x="3296" y="35.0" width="112" height="30" style="fill:#87bcbc;fill-opacity:1.00" />
  <line x1="3408" y1="50.0" x2="3448" y2="50.0" style="stroke:#999; stroke-width:3;" />
  <rect class="anc_exon" x="3448" y="35.0" width="98" height="30" style="fill:#87bcbc;fill-opacity:1.00" />
  <line x1="3546" y1="50.0" x2="3586" y2="50.0" style="stroke:#999; stroke-width:3;" />
  <rect class="anc_exon" x="3586" y="35.0" width="67" height="30" style="fill:#87bcbc;fill-opacity:1.00" />
  <line x1="3653" y1="50.0" x2="3693" y2="50.0" style="stroke:#999; stroke-width:3;" />
  <rect class="anc_exon" x="3693" y="35.0" width="93" height="30" style="fill:#87bcbc;fill-opacity:1.00" />
  <line x1="3786" y1="50.0" x2="3826" y2="50.0" style="stroke:#999; stroke-width:3;" />
  <rect class="anc_exon" x="3826" y="35.0" width="145" height="30" style="fill:#87bcbc;fill-opacity:1.00" />
  <line x1="3971" y1="50.0" x2="4011" y2="50.0" style="stroke:#999; stroke-width:3;" />
  <rect class="anc_exon" x="4011" y="35.0" width="174" height="30" style="fill:#87bcbc;fill-opacity:1.00" />
  <line x1="4185" y1="50.0" x2="4205" y2="50.0" style="stroke:#999; stroke-width:3;" />
  <line x1="4205" y1="50.0" x2="4205" y2="50.0" style="stroke:#999; stroke-width:3;" />
  <line x1="4205" y1="50.0" x2="4205" y2="50.0" style="stroke:#999; stroke-width:3;" />
  <line x1="4205" y1="50.0" x2="4225" y2="50.0" style="stroke:#999; stroke-width:3;" />
  <rect class="anc_exon" x="4225" y="35.0" width="129" height="30" style="fill:#87bcbc;fill-opacity:1.00" />
  <line x1="4354" y1="50.0" x2="4394" y2="50.0" style="stroke:#999; stroke-width:3;" />
  <rect class="anc_exon" x="4394" y="35.0" width="83" height="30" style="fill:#87bcbc;fill-opacity:1.00" />
  <line x1="4477" y1="50.0" x2="4497" y2="50.0" style="stroke:#999; stroke-width:3;" />
  <line x1="4497" y1="50.0" x2="4497" y2="50.0" style="stroke:#999; stroke-width:3;" />
  <line x1="4497" y1="50.0" x2="4497" y2="50.0" style="stroke:#999; stroke-width:3;" />
  <line x1="4497" y1="50.0" x2="4517" y2="50.0" style="stroke:#999; stroke-width:3;" />
  <rect class="anc_exon" x="4517" y="35.0" width="108" height="30" style="fill:#87bcbc;fill-opacity:1.00" />
  <line x1="4625" y1="50.0" x2="4645" y2="50.0" style="stroke:#999; stroke-width:3;" />
  <line x1="4645" y1="50.0" x2="4645" y2="50.0" style="stroke:#999; stroke-width:3;" />
  <line x1="4645" y1="50.0" x2="4645" y2="50.0" style="stroke:#999; stroke-width:3;" />
  <line x1="4645" y1="50.0" x2="4665" y2="50.0" style="stroke:#999; stroke-width:3;" />
  <rect class="anc_exon" x="4665" y="35.0" width="127" height="30" style="fill:#87bcbc;fill-opacity:1.00" />
  <line x1="4792" y1="50.0" x2="4832" y2="50.0" style="stroke:#999; stroke-width:3;" />
  <rect class="anc_exon" x="4832" y="35.0" width="78" height="30" style="fill:#87bcbc;fill-opacity:1.00" />
  <line x1="4910" y1="50.0" x2="4950" y2="50.0" style="stroke:#999; stroke-width:3;" />
  <rect class="anc_exon" x="4950" y="35.0" width="117" height="30" style="fill:#87bcbc;fill-opacity:1.00" />
  <line x1="5067" y1="50.0" x2="5107" y2="50.0" style="stroke:#999; stroke-width:3;" />
  <rect class="anc_exon" x="5107" y="35.0" width="117" height="30" style="fill:#87bcbc;fill-opacity:1.00" />
  <line x1="5224" y1="50.0" x2="5244" y2="50.0" style="stroke:#999; stroke-width:3;" />
  <line x1="5244" y1="50.0" x2="5244" y2="50.0" style="stroke:#999; stroke-width:3;" />
  <line x1="5244" y1="50.0" x2="5244" y2="50.0" style="stroke:#999; stroke-width:3;" />
  <line x1="5244" y1="50.0" x2="5264" y2="50.0" style="stroke:#999; stroke-width:3;" />
  <rect class="anc_exon" x="5264" y="35.0" width="88" height="30" style="fill:#87bcbc;fill-opacity:1.00" />
  <line x1="5352" y1="50.0" x2="5372" y2="50.0" style="stroke:#999; stroke-width:3;" />
  <line x1="5372" y1="50.0" x2="5372" y2="50.0" style="stroke:#999; stroke-width:3;" />
  <line x1="5372" y1="50.0" x2="5372" y2="50.0" style="stroke:#999; stroke-width:3;" />
  <line x1="5372" y1="50.0" x2="5392" y2="50.0" style="stroke:#999; stroke-width:3;" />
  <rect class="anc_exon" x="5392" y="35.0" width="346" height="30" style="fill:#87bcbc;fill-opacity:1.00" />
  <line x1="5738" y1="50.0" x2="5778" y2="50.0" style="stroke:#999; stroke-width:3;" />
  <rect class="anc_exon" x="5778" y="35.0" width="272" height="30" style="fill:#87bcbc;fill-opacity:1.00" />
  <line x1="6050" y1="50.0" x2="6070" y2="50.0" style="stroke:#999; stroke-width:3;" />
  <line x1="6070" y1="50.0" x2="6070" y2="50.0" style="stroke:#999; stroke-width:3;" />
  <line x1="6070" y1="50.0" x2="6070" y2="50.0" style="stroke:#999; stroke-width:3;" />
  <line x1="6070" y1="50.0" x2="6090" y2="50.0" style="stroke:#999; stroke-width:3;" />
  <rect class="anc_exon" x="6090" y="35.0" width="162" height="30" style="fill:#87bcbc;fill-opacity:1.00" />
  <line x1="6252" y1="50.0" x2="6292" y2="50.0" style="stroke:#999; stroke-width:3;" />
  <rect class="anc_exon" x="6292" y="35.0" width="155" height="30" style="fill:#87bcbc;fill-opacity:1.00" />
  <line x1="6447" y1="50.0" x2="6487" y2="50.0" style="stroke:#999; stroke-width:3;" />
  <rect class="anc_exon" x="6487" y="35.0" width="112" height="30" style="fill:#87bcbc;fill-opacity:1.00" />
  <line x1="6599" y1="50.0" x2="6639" y2="50.0" style="stroke:#999; stroke-width:3;" />
  <rect class="anc_exon" x="6639" y="35.0" width="224" height="30" style="fill:#87bcbc;fill-opacity:1.00" />
  <line x1="6863" y1="50.0" x2="6903" y2="50.0" style="stroke:#999; stroke-width:3;" />
  <rect class="anc_exon" x="6903" y="35.0" width="172" height="30" style="fill:#87bcbc;fill-opacity:1.00" />
  <line x1="7075" y1="50.0" x2="7115" y2="50.0" style="stroke:#999; stroke-width:3;" />
  <rect class="anc_exon" x="7115" y="35.0" width="49" height="30" style="fill:#87bcbc;fill-opacity:1.00" />
  <line x1="7164" y1="50.0" x2="7204" y2="50.0" style="stroke:#999; stroke-width:3;" />
  <rect class="anc_exon" x="7204" y="35.0" width="92" height="30" style="fill:#87bcbc;fill-opacity:1.00" />
  <line x1="7296" y1="50.0" x2="7336" y2="50.0" style="stroke:#999; stroke-width:3;" />
  <rect class="anc_exon" x="7336" y="35.0" width="81" height="30" style="fill:#87bcbc;fill-opacity:1.00" />
  <line x1="7417" y1="50.0" x2="7457" y2="50.0" style="stroke:#999; stroke-width:3;" />
  <rect class="anc_exon" x="7457" y="35.0" width="117" height="30" style="fill:#878787;fill-opacity:1.00" />
  <line x1="7574" y1="50.0" x2="7614" y2="50.0" style="stroke:#999; stroke-width:3;" />
  <rect class="anc_exon" x="7614" y="35.0" width="101" height="30" style="fill:#87bcbc;fill-opacity:1.00" />
  <line x1="7715" y1="50.0" x2="7755" y2="50.0" style="stroke:#999; stroke-width:3;" />
  <rect class="anc_exon" x="7755" y="35.0" width="105" height="30" style="fill:#87bcbc;fill-opacity:1.00" />
  <line x1="7860" y1="50.0" x2="7900" y2="50.0" style="stroke:#999; stroke-width:3;" />
  <rect class="anc_exon" x="7900" y="35.0" width="108" height="30" style="fill:#87bcbc;fill-opacity:1.00" />
  <line x1="8008" y1="50.0" x2="8048" y2="50.0" style="stroke:#999; stroke-width:3;" />
  <rect class="anc_exon" x="8048" y="35.0" width="126" height="30" style="fill:#87bcbc;fill-opacity:1.00" />
  <line x1="8174" y1="50.0" x2="8194" y2="50.0" style="stroke:#999; stroke-width:3;" />
  <line x1="8194" y1="50.0" x2="8194" y2="50.0" style="stroke:#999; stroke-width:3;" />
  <line x1="8194" y1="50.0" x2="8194" y2="50.0" style="stroke:#999; stroke-width:3;" />
  <line x1="8194" y1="50.0" x2="8214" y2="50.0" style="stroke:#999; stroke-width:3;" />
  <rect class="anc_exon" x="8214" y="35.0" width="98" height="30" style="fill:#87bcbc;fill-opacity:1.00" />
  <line x1="8312" y1="50.0" x2="8352" y2="50.0" style="stroke:#999; stroke-width:3;" />
  <rect class="anc_exon" x="8352" y="35.0" width="102" height="30" style="fill:#87bcbc;fill-opacity:1.00" />
  <line x1="8454" y1="50.0" x2="8494" y2="50.0" style="stroke:#999; stroke-width:3;" />
  <rect class="anc_exon" x="8494" y="35.0" width="80" height="30" style="fill:#87bcbc;fill-opacity:1.00" />
  <line x1="8574" y1="50.0" x2="8614" y2="50.0" style="stroke:#999; stroke-width:3;" />
  <rect class="anc_exon" x="8614" y="35.0" width="114" height="30" style="fill:#87bcbc;fill-opacity:1.00" />
  <line x1="8728" y1="50.0" x2="8768" y2="50.0" style="stroke:#999; stroke-width:3;" />
  <rect class="anc_exon" x="8768" y="35.0" width="37" height="30" style="fill:#87bcbc;fill-opacity:1.00" />
  <line x1="8805" y1="50.0" x2="8825" y2="50.0" style="stroke:#999; stroke-width:3;" />
  <line x1="8825" y1="50.0" x2="8825" y2="50.0" style="stroke:#999; stroke-width:3;" />
  <line x1="8825" y1="50.0" x2="8825" y2="50.0" style="stroke:#999; stroke-width:3;" />
  <line x1="8825" y1="50.0" x2="8845" y2="50.0" style="stroke:#999; stroke-width:3;" />
  <rect class="anc_exon" x="8845" y="35.0" width="173" height="30" style="fill:#87bcbc;fill-opacity:1.00" />
  <line x1="9018" y1="50.0" x2="9038" y2="50.0" style="stroke:#999; stroke-width:3;" />
  <line x1="9038" y1="50.0" x2="9038" y2="50.0" style="stroke:#999; stroke-width:3;" />
  <line x1="9038" y1="50.0" x2="9038" y2="50.0" style="stroke:#999; stroke-width:3;" />
  <line x1="9038" y1="50.0" x2="9058" y2="50.0" style="stroke:#999; stroke-width:3;" />
  <rect class="anc_exon" x="9058" y="35.0" width="114" height="30" style="fill:#878787;fill-opacity:1.00" />
  <rect class="anc_exon" x="9172" y="35.0" width="0" height="30" style="fill:#87bcbc;fill-opacity:1.00" />
  <text style="" >
<tspan x="0" y="83.0" style="font-size:18px;" >SP XM_031967649_1.1</tspan>  </text>
  <text style="fill:#121212;" >
<tspan x="3987.96" y="68.0" style="font-size:18px;fill:#121212;" >tt</tspan>  </text>



<script type="text/ecmascript">
<![CDATA[
function draw_bbox(text_id)
{
    var text_elem = document.getElementById(text_id);
    var offset_px = 2;
    var offset_py = 0;
    bbox = text_elem.getBBox();
    var box = document.createElementNS(document.rootElement.namespaceURI,'rect');
    box.setAttribute('x', bbox.x - offset_px);
    box.setAttribute('y', bbox.y - offset_py);
    box.setAttribute('width', bbox.width + offset_px * 2);
    box.setAttribute('height', bbox.height + offset_py * 2);
    box.setAttribute('style','fill: white;'+'stroke: black;'+'stroke-width: 1px;');
    text_elem.insertBefore(box,text_elem.childNodes[0]);

    var svg = text_elem.parentNode;
    svg.appendChild(text_elem);
}

for (var i=1; i < 1; i++)
{
draw_bbox("Mouseover" + i);
}
]]> 
</script>
</svg>
