<svg version="1.1"
xmlns="http://www.w3.org/2000/svg"
xmlns:xlink="http://www.w3.org/1999/xlink"
width="1752" height="120.0" viewBox = "0 -20.0 1752 120.0"
onclick="mouseclick(evt)">

<script type="text/ecmascript">

<![CDATA[
    function mouseover(evt, target) { 
    var gv = document.getElementById("globalVariable");
    var previoustarget = gv.firstChild.nodeValue;
    if (previoustarget != "none") 
    {
        	document.getElementById(gv.firstChild.nodeValue).setAttributeNS(null, "visibility", "hidden");
    }
    document.getElementById(target).setAttributeNS(null, "visibility", "visible");
    gv.firstChild.nodeValue = target;
        }

    function mouseclick(evt) { 
    var gv = document.getElementById("globalVariable");
    var previoustarget = gv.firstChild.nodeValue;
    if (previoustarget != "none") {
        	document.getElementById(gv.firstChild.nodeValue).setAttributeNS(null, "visibility", "hidden");
        }
    }
]]>
  </script>
<style type="text/css" >

<![CDATA[
    rect.anc_exon {
              stroke-width:3;
                  }

    rect.non_anc_exon {
              stroke: black; stroke-width:3; stroke-dasharray: 5,5;
                    }

    text {
              font-size: 18px;
              font-family: Courier New;
          }
                    ]]>
</style>

<defs>
    <text x="150" y="40" id="globalVariable">none</text>
</defs>

  <rect class="anc_exon" x="0" y="35.0" width="0" height="30" style="fill:#87bcbc;fill-opacity:1.00" />
  <rect class="anc_exon" x="0" y="35.0" width="202.4" height="30" style="fill:#87bcbc;fill-opacity:1.00" />
  <line x1="4.0" y1="35.0" x2="4.0" y2="65.0" style="stroke:#121212; stroke-width:1.6; stroke-opacity:1"/>
  <polygon points="63.2,35.0 65.7,25.0 60.7,25.0" style="fill:#121212; stroke-opacity:1; fill-opacity:1"/>
  <text style="" text-anchor="middle">
<tspan x="3.2" y="26.0" style="font-size:18px;fill:#121212;" >-2</tspan>  </text>
  <text style="" text-anchor="middle">
<tspan x="63.2" y="16.0" style="font-size:18px;fill:#121212;" >+2</tspan>  </text>
  <line x1="202.4" y1="50.0" x2="242.0" y2="50.0" style="stroke:#999; stroke-width:3;" />
  <rect class="anc_exon" x="242" y="35.0" width="154" height="30" style="fill:#87bcbc;fill-opacity:1.00" />
  <line x1="396" y1="50.0" x2="416" y2="50.0" style="stroke:#999; stroke-width:3;" />
  <line x1="416" y1="50.0" x2="416" y2="50.0" style="stroke:#999; stroke-width:3;" />
  <line x1="416" y1="50.0" x2="416" y2="50.0" style="stroke:#999; stroke-width:3;" />
  <line x1="416" y1="50.0" x2="436" y2="50.0" style="stroke:#999; stroke-width:3;" />
  <rect class="anc_exon" x="436" y="35.0" width="64" height="30" style="fill:#87bcbc;fill-opacity:1.00" />
  <line x1="500" y1="50.0" x2="520" y2="50.0" style="stroke:#999; stroke-width:3;" />
  <line x1="520" y1="50.0" x2="520" y2="50.0" style="stroke:#999; stroke-width:3;" />
  <line x1="520" y1="50.0" x2="520" y2="50.0" style="stroke:#999; stroke-width:3;" />
  <line x1="520" y1="50.0" x2="540" y2="50.0" style="stroke:#999; stroke-width:3;" />
  <rect class="anc_exon" x="540" y="35.0" width="146" height="30" style="fill:#87bcbc;fill-opacity:1.00" />
  <line x1="686" y1="50.0" x2="726" y2="50.0" style="stroke:#999; stroke-width:3;" />
  <rect class="anc_exon" x="726" y="35.0" width="68" height="30" style="fill:#87bcbc;fill-opacity:1.00" />
  <line x1="794" y1="50.0" x2="814" y2="50.0" style="stroke:#999; stroke-width:3;" />
  <line x1="814" y1="50.0" x2="814" y2="50.0" style="stroke:#999; stroke-width:3;" />
  <line x1="814" y1="50.0" x2="814" y2="50.0" style="stroke:#999; stroke-width:3;" />
  <line x1="814" y1="50.0" x2="834" y2="50.0" style="stroke:#999; stroke-width:3;" />
  <rect class="anc_exon" x="834" y="35.0" width="134" height="30" style="fill:#87bcbc;fill-opacity:1.00" />
  <line x1="968" y1="50.0" x2="988" y2="50.0" style="stroke:#999; stroke-width:3;" />
  <line x1="988" y1="50.0" x2="988" y2="50.0" style="stroke:#999; stroke-width:3;" />
  <line x1="988" y1="50.0" x2="988" y2="50.0" style="stroke:#999; stroke-width:3;" />
  <line x1="988" y1="50.0" x2="1008" y2="50.0" style="stroke:#999; stroke-width:3;" />
  <rect class="anc_exon" x="1008" y="35.0" width="160" height="30" style="fill:#87bcbc;fill-opacity:1.00" />
  <line x1="1168" y1="50.0" x2="1188" y2="50.0" style="stroke:#999; stroke-width:3;" />
  <line x1="1188" y1="50.0" x2="1188" y2="50.0" style="stroke:#999; stroke-width:3;" />
  <line x1="1188" y1="50.0" x2="1188" y2="50.0" style="stroke:#999; stroke-width:3;" />
  <line x1="1188" y1="50.0" x2="1208" y2="50.0" style="stroke:#999; stroke-width:3;" />
  <rect class="anc_exon" x="1208" y="35.0" width="137" height="30" style="fill:#87bcbc;fill-opacity:1.00" />
  <line x1="1345" y1="50.0" x2="1385" y2="50.0" style="stroke:#999; stroke-width:3;" />
  <rect class="anc_exon" x="1385" y="35.0" width="66" height="30" style="fill:#87bcbc;fill-opacity:1.00" />
  <line x1="1451" y1="50.0" x2="1491" y2="50.0" style="stroke:#999; stroke-width:3;" />
  <rect class="anc_exon" x="1491" y="35.0" width="225" height="30" style="fill:#87bcbc;fill-opacity:1.00" />
  <rect class="anc_exon" x="1716" y="35.0" width="0" height="30" style="fill:#87bcbc;fill-opacity:1.00" />
  <text style="" >
<tspan x="0" y="83.0" style="font-size:18px;" >SP XM_031964283_1.1</tspan>  </text>



<script type="text/ecmascript">
<![CDATA[
function draw_bbox(text_id)
{
    var text_elem = document.getElementById(text_id);
    var offset_px = 2;
    var offset_py = 0;
    bbox = text_elem.getBBox();
    var box = document.createElementNS(document.rootElement.namespaceURI,'rect');
    box.setAttribute('x', bbox.x - offset_px);
    box.setAttribute('y', bbox.y - offset_py);
    box.setAttribute('width', bbox.width + offset_px * 2);
    box.setAttribute('height', bbox.height + offset_py * 2);
    box.setAttribute('style','fill: white;'+'stroke: black;'+'stroke-width: 1px;');
    text_elem.insertBefore(box,text_elem.childNodes[0]);

    var svg = text_elem.parentNode;
    svg.appendChild(text_elem);
}

for (var i=1; i < 1; i++)
{
draw_bbox("Mouseover" + i);
}
]]> 
</script>
</svg>
