<svg version="1.1"
xmlns="http://www.w3.org/2000/svg"
xmlns:xlink="http://www.w3.org/1999/xlink"
width="2547" height="100" viewBox = "0 0 2547 100"
onclick="mouseclick(evt)">

<script type="text/ecmascript">

<![CDATA[
    function mouseover(evt, target) { 
    var gv = document.getElementById("globalVariable");
    var previoustarget = gv.firstChild.nodeValue;
    if (previoustarget != "none") 
    {
        	document.getElementById(gv.firstChild.nodeValue).setAttributeNS(null, "visibility", "hidden");
    }
    document.getElementById(target).setAttributeNS(null, "visibility", "visible");
    gv.firstChild.nodeValue = target;
        }

    function mouseclick(evt) { 
    var gv = document.getElementById("globalVariable");
    var previoustarget = gv.firstChild.nodeValue;
    if (previoustarget != "none") {
        	document.getElementById(gv.firstChild.nodeValue).setAttributeNS(null, "visibility", "hidden");
        }
    }
]]>
  </script>
<style type="text/css" >

<![CDATA[
    rect.anc_exon {
              stroke-width:3;
                  }

    rect.non_anc_exon {
              stroke: black; stroke-width:3; stroke-dasharray: 5,5;
                    }

    text {
              font-size: 18px;
              font-family: Courier New;
          }
                    ]]>
</style>

<defs>
    <text x="150" y="40" id="globalVariable">none</text>
</defs>

  <rect class="anc_exon" x="0" y="35.0" width="0" height="30" style="fill:#87bcbc;fill-opacity:1.00" />
  <rect class="anc_exon" x="0" y="35.0" width="4.0" height="30" style="fill:#87bcbc;fill-opacity:1.00" />
  <line x1="4.0" y1="50.0" x2="24.0" y2="50.0" style="stroke:#999; stroke-width:3;" />
  <line x1="24.0" y1="50.0" x2="24.0" y2="50.0" style="stroke:#999; stroke-width:3;" />
  <line x1="24.0" y1="50.0" x2="24.0" y2="50.0" style="stroke:#999; stroke-width:3;" />
  <line x1="24.0" y1="50.0" x2="44.0" y2="50.0" style="stroke:#999; stroke-width:3;" />
  <rect class="anc_exon" x="44" y="35.0" width="132" height="30" style="fill:#87bcbc;fill-opacity:1.00" />
  <line x1="176" y1="50.0" x2="196" y2="50.0" style="stroke:#999; stroke-width:3;" />
  <line x1="196" y1="50.0" x2="196" y2="50.0" style="stroke:#999; stroke-width:3;" />
  <line x1="196" y1="50.0" x2="196" y2="50.0" style="stroke:#999; stroke-width:3;" />
  <line x1="196" y1="50.0" x2="216" y2="50.0" style="stroke:#999; stroke-width:3;" />
  <rect class="anc_exon" x="216" y="35.0" width="142" height="30" style="fill:#87bcbc;fill-opacity:1.00" />
  <line x1="358" y1="50.0" x2="378" y2="50.0" style="stroke:#999; stroke-width:3;" />
  <line x1="378" y1="50.0" x2="378" y2="50.0" style="stroke:#999; stroke-width:3;" />
  <line x1="378" y1="50.0" x2="378" y2="50.0" style="stroke:#999; stroke-width:3;" />
  <line x1="378" y1="50.0" x2="398" y2="50.0" style="stroke:#999; stroke-width:3;" />
  <rect class="anc_exon" x="398" y="35.0" width="45" height="30" style="fill:#87bcbc;fill-opacity:1.00" />
  <line x1="443" y1="50.0" x2="463" y2="50.0" style="stroke:#999; stroke-width:3;" />
  <line x1="463" y1="50.0" x2="463" y2="50.0" style="stroke:#999; stroke-width:3;" />
  <line x1="463" y1="50.0" x2="463" y2="50.0" style="stroke:#999; stroke-width:3;" />
  <line x1="463" y1="50.0" x2="483" y2="50.0" style="stroke:#999; stroke-width:3;" />
  <rect class="anc_exon" x="483" y="35.0" width="9" height="30" style="fill:#87bcbc;fill-opacity:1.00" />
  <line x1="492" y1="50.0" x2="532" y2="50.0" style="stroke:#999; stroke-width:3;" />
  <rect class="anc_exon" x="532" y="35.0" width="68" height="30" style="fill:#87bcbc;fill-opacity:1.00" />
  <line x1="600" y1="50.0" x2="620" y2="50.0" style="stroke:#999; stroke-width:3;" />
  <line x1="620" y1="50.0" x2="620" y2="50.0" style="stroke:#999; stroke-width:3;" />
  <line x1="620" y1="50.0" x2="620" y2="50.0" style="stroke:#999; stroke-width:3;" />
  <line x1="620" y1="50.0" x2="640" y2="50.0" style="stroke:#999; stroke-width:3;" />
  <rect class="anc_exon" x="640" y="35.0" width="224" height="30" style="fill:#87bcbc;fill-opacity:1.00" />
  <line x1="864" y1="50.0" x2="904" y2="50.0" style="stroke:#999; stroke-width:3;" />
  <rect class="anc_exon" x="904" y="35.0" width="648" height="30" style="fill:#87bcbc;fill-opacity:1.00" />
  <line x1="1552" y1="50.0" x2="1572" y2="50.0" style="stroke:#999; stroke-width:3;" />
  <line x1="1572" y1="50.0" x2="1572" y2="50.0" style="stroke:#999; stroke-width:3;" />
  <line x1="1572" y1="50.0" x2="1572" y2="50.0" style="stroke:#999; stroke-width:3;" />
  <line x1="1572" y1="50.0" x2="1592" y2="50.0" style="stroke:#999; stroke-width:3;" />
  <rect class="anc_exon" x="1592" y="35.0" width="246" height="30" style="fill:#878787;fill-opacity:1.00" />
  <line x1="1838" y1="50.0" x2="1878" y2="50.0" style="stroke:#999; stroke-width:3;" />
  <rect class="anc_exon" x="1878" y="35.0" width="116" height="30" style="fill:#87bcbc;fill-opacity:1.00" />
  <line x1="1994" y1="50.0" x2="2034" y2="50.0" style="stroke:#999; stroke-width:3;" />
  <rect class="anc_exon" x="2034" y="35.0" width="46" height="30" style="fill:#87bcbc;fill-opacity:1.00" />
  <line x1="2080" y1="50.0" x2="2120" y2="50.0" style="stroke:#999; stroke-width:3;" />
  <rect class="anc_exon" x="2120" y="35.0" width="39" height="30" style="fill:#87bcbc;fill-opacity:1.00" />
  <line x1="2159" y1="50.0" x2="2199" y2="50.0" style="stroke:#999; stroke-width:3;" />
  <rect class="anc_exon" x="2199" y="35.0" width="53" height="30" style="fill:#87bcbc;fill-opacity:1.00" />
  <line x1="2252" y1="50.0" x2="2272" y2="50.0" style="stroke:#999; stroke-width:3;" />
  <line x1="2272" y1="50.0" x2="2272" y2="50.0" style="stroke:#999; stroke-width:3;" />
  <line x1="2272" y1="50.0" x2="2272" y2="50.0" style="stroke:#999; stroke-width:3;" />
  <line x1="2272" y1="50.0" x2="2292" y2="50.0" style="stroke:#999; stroke-width:3;" />
  <rect class="anc_exon" x="2292" y="35.0" width="63" height="30" style="fill:#87bcbc;fill-opacity:1.00" />
  <line x1="2355" y1="50.0" x2="2395" y2="50.0" style="stroke:#999; stroke-width:3;" />
  <rect class="anc_exon" x="2395" y="35.0" width="46" height="30" style="fill:#87bcbc;fill-opacity:1.00" />
  <line x1="2441" y1="50.0" x2="2481" y2="50.0" style="stroke:#999; stroke-width:3;" />
  <rect class="anc_exon" x="2481" y="35.0" width="30" height="30" style="fill:#87bcbc;fill-opacity:1.00" />
  <rect class="anc_exon" x="2511" y="35.0" width="0" height="30" style="fill:#87bcbc;fill-opacity:1.00" />
  <text style="" >
<tspan x="0" y="83.0" style="font-size:18px;" >SP XM_031967035_1.1</tspan>  </text>



<script type="text/ecmascript">
<![CDATA[
function draw_bbox(text_id)
{
    var text_elem = document.getElementById(text_id);
    var offset_px = 2;
    var offset_py = 0;
    bbox = text_elem.getBBox();
    var box = document.createElementNS(document.rootElement.namespaceURI,'rect');
    box.setAttribute('x', bbox.x - offset_px);
    box.setAttribute('y', bbox.y - offset_py);
    box.setAttribute('width', bbox.width + offset_px * 2);
    box.setAttribute('height', bbox.height + offset_py * 2);
    box.setAttribute('style','fill: white;'+'stroke: black;'+'stroke-width: 1px;');
    text_elem.insertBefore(box,text_elem.childNodes[0]);

    var svg = text_elem.parentNode;
    svg.appendChild(text_elem);
}

for (var i=1; i < 1; i++)
{
draw_bbox("Mouseover" + i);
}
]]> 
</script>
</svg>
