<svg version="1.1"
xmlns="http://www.w3.org/2000/svg"
xmlns:xlink="http://www.w3.org/1999/xlink"
width="6482" height="100" viewBox = "0 0 6482 100"
onclick="mouseclick(evt)">

<script type="text/ecmascript">

<![CDATA[
    function mouseover(evt, target) { 
    var gv = document.getElementById("globalVariable");
    var previoustarget = gv.firstChild.nodeValue;
    if (previoustarget != "none") 
    {
        	document.getElementById(gv.firstChild.nodeValue).setAttributeNS(null, "visibility", "hidden");
    }
    document.getElementById(target).setAttributeNS(null, "visibility", "visible");
    gv.firstChild.nodeValue = target;
        }

    function mouseclick(evt) { 
    var gv = document.getElementById("globalVariable");
    var previoustarget = gv.firstChild.nodeValue;
    if (previoustarget != "none") {
        	document.getElementById(gv.firstChild.nodeValue).setAttributeNS(null, "visibility", "hidden");
        }
    }
]]>
  </script>
<style type="text/css" >

<![CDATA[
    rect.anc_exon {
              stroke-width:3;
                  }

    rect.non_anc_exon {
              stroke: black; stroke-width:3; stroke-dasharray: 5,5;
                    }

    text {
              font-size: 18px;
              font-family: Courier New;
          }
                    ]]>
</style>

<defs>
    <text x="150" y="40" id="globalVariable">none</text>
</defs>

  <rect class="anc_exon" x="0" y="35.0" width="0" height="30" style="fill:#87bcbc;fill-opacity:1.00" />
  <rect class="anc_exon" x="0" y="35.0" width="276.0" height="30" style="fill:#87bcbc;fill-opacity:1.00" />
  <line x1="276.0" y1="50.0" x2="296.0" y2="50.0" style="stroke:#999; stroke-width:3;" />
  <line x1="296.0" y1="50.0" x2="296.0" y2="50.0" style="stroke:#999; stroke-width:3;" />
  <line x1="296.0" y1="50.0" x2="296.0" y2="50.0" style="stroke:#999; stroke-width:3;" />
  <line x1="296.0" y1="50.0" x2="316.0" y2="50.0" style="stroke:#999; stroke-width:3;" />
  <rect class="anc_exon" x="316" y="35.0" width="125" height="30" style="fill:#87bcbc;fill-opacity:1.00" />
  <line x1="441" y1="50.0" x2="461" y2="50.0" style="stroke:#999; stroke-width:3;" />
  <line x1="461" y1="50.0" x2="461" y2="50.0" style="stroke:#999; stroke-width:3;" />
  <line x1="461" y1="50.0" x2="461" y2="50.0" style="stroke:#999; stroke-width:3;" />
  <line x1="461" y1="50.0" x2="481" y2="50.0" style="stroke:#999; stroke-width:3;" />
  <rect class="anc_exon" x="481" y="35.0" width="22" height="30" style="fill:#87bcbc;fill-opacity:1.00" />
  <line x1="503" y1="50.0" x2="523" y2="50.0" style="stroke:#999; stroke-width:3;" />
  <line x1="523" y1="50.0" x2="523" y2="50.0" style="stroke:#999; stroke-width:3;" />
  <line x1="523" y1="50.0" x2="523" y2="50.0" style="stroke:#999; stroke-width:3;" />
  <line x1="523" y1="50.0" x2="543" y2="50.0" style="stroke:#999; stroke-width:3;" />
  <rect class="anc_exon" x="543" y="35.0" width="82" height="30" style="fill:#87bcbc;fill-opacity:1.00" />
  <line x1="625" y1="50.0" x2="665" y2="50.0" style="stroke:#999; stroke-width:3;" />
  <rect class="anc_exon" x="665" y="35.0" width="24" height="30" style="fill:#87bcbc;fill-opacity:1.00" />
  <line x1="689" y1="50.0" x2="709" y2="50.0" style="stroke:#999; stroke-width:3;" />
  <line x1="709" y1="50.0" x2="709" y2="50.0" style="stroke:#999; stroke-width:3;" />
  <line x1="709" y1="50.0" x2="709" y2="50.0" style="stroke:#999; stroke-width:3;" />
  <line x1="709" y1="50.0" x2="729" y2="50.0" style="stroke:#999; stroke-width:3;" />
  <rect class="anc_exon" x="729" y="35.0" width="74" height="30" style="fill:#87bcbc;fill-opacity:1.00" />
  <line x1="803" y1="50.0" x2="823" y2="50.0" style="stroke:#999; stroke-width:3;" />
  <line x1="823" y1="50.0" x2="823" y2="50.0" style="stroke:#999; stroke-width:3;" />
  <line x1="823" y1="50.0" x2="823" y2="50.0" style="stroke:#999; stroke-width:3;" />
  <line x1="823" y1="50.0" x2="843" y2="50.0" style="stroke:#999; stroke-width:3;" />
  <rect class="anc_exon" x="843" y="35.0" width="51" height="30" style="fill:#87bcbc;fill-opacity:1.00" />
  <line x1="894" y1="50.0" x2="914" y2="50.0" style="stroke:#999; stroke-width:3;" />
  <line x1="914" y1="50.0" x2="914" y2="50.0" style="stroke:#999; stroke-width:3;" />
  <line x1="914" y1="50.0" x2="914" y2="50.0" style="stroke:#999; stroke-width:3;" />
  <line x1="914" y1="50.0" x2="934" y2="50.0" style="stroke:#999; stroke-width:3;" />
  <rect class="anc_exon" x="934" y="35.0" width="79" height="30" style="fill:#87bcbc;fill-opacity:1.00" />
  <line x1="1013" y1="50.0" x2="1053" y2="50.0" style="stroke:#999; stroke-width:3;" />
  <rect class="anc_exon" x="1053" y="35.0" width="115" height="30" style="fill:#87bcbc;fill-opacity:1.00" />
  <line x1="1168" y1="50.0" x2="1208" y2="50.0" style="stroke:#999; stroke-width:3;" />
  <rect class="anc_exon" x="1208" y="35.0" width="76" height="30" style="fill:#87bcbc;fill-opacity:1.00" />
  <line x1="1284" y1="50.0" x2="1304" y2="50.0" style="stroke:#999; stroke-width:3;" />
  <line x1="1304" y1="50.0" x2="1304" y2="50.0" style="stroke:#999; stroke-width:3;" />
  <line x1="1304" y1="50.0" x2="1304" y2="50.0" style="stroke:#999; stroke-width:3;" />
  <line x1="1304" y1="50.0" x2="1324" y2="50.0" style="stroke:#999; stroke-width:3;" />
  <rect class="anc_exon" x="1324" y="35.0" width="95" height="30" style="fill:#87bcbc;fill-opacity:1.00" />
  <line x1="1419" y1="50.0" x2="1459" y2="50.0" style="stroke:#999; stroke-width:3;" />
  <rect class="anc_exon" x="1459" y="35.0" width="122" height="30" style="fill:#87bcbc;fill-opacity:1.00" />
  <line x1="1581" y1="50.0" x2="1621" y2="50.0" style="stroke:#999; stroke-width:3;" />
  <rect class="anc_exon" x="1621" y="35.0" width="139" height="30" style="fill:#87bcbc;fill-opacity:1.00" />
  <line x1="1760" y1="50.0" x2="1780" y2="50.0" style="stroke:#999; stroke-width:3;" />
  <line x1="1780" y1="50.0" x2="1780" y2="50.0" style="stroke:#999; stroke-width:3;" />
  <line x1="1780" y1="50.0" x2="1780" y2="50.0" style="stroke:#999; stroke-width:3;" />
  <line x1="1780" y1="50.0" x2="1800" y2="50.0" style="stroke:#999; stroke-width:3;" />
  <rect class="anc_exon" x="1800" y="35.0" width="139" height="30" style="fill:#87bcbc;fill-opacity:1.00" />
  <line x1="1939" y1="50.0" x2="1979" y2="50.0" style="stroke:#999; stroke-width:3;" />
  <rect class="anc_exon" x="1979" y="35.0" width="92" height="30" style="fill:#87bcbc;fill-opacity:1.00" />
  <line x1="2071" y1="50.0" x2="2091" y2="50.0" style="stroke:#999; stroke-width:3;" />
  <line x1="2091" y1="50.0" x2="2091" y2="50.0" style="stroke:#999; stroke-width:3;" />
  <line x1="2091" y1="50.0" x2="2091" y2="50.0" style="stroke:#999; stroke-width:3;" />
  <line x1="2091" y1="50.0" x2="2111" y2="50.0" style="stroke:#999; stroke-width:3;" />
  <rect class="anc_exon" x="2111" y="35.0" width="50" height="30" style="fill:#87bcbc;fill-opacity:1.00" />
  <line x1="2161" y1="50.0" x2="2181" y2="50.0" style="stroke:#999; stroke-width:3;" />
  <line x1="2181" y1="50.0" x2="2181" y2="50.0" style="stroke:#999; stroke-width:3;" />
  <line x1="2181" y1="50.0" x2="2181" y2="50.0" style="stroke:#999; stroke-width:3;" />
  <line x1="2181" y1="50.0" x2="2201" y2="50.0" style="stroke:#999; stroke-width:3;" />
  <rect class="anc_exon" x="2201" y="35.0" width="155" height="30" style="fill:#87bcbc;fill-opacity:1.00" />
  <line x1="2356" y1="50.0" x2="2396" y2="50.0" style="stroke:#999; stroke-width:3;" />
  <rect class="anc_exon" x="2396" y="35.0" width="97" height="30" style="fill:#87bcbc;fill-opacity:1.00" />
  <line x1="2493" y1="50.0" x2="2513" y2="50.0" style="stroke:#999; stroke-width:3;" />
  <line x1="2513" y1="50.0" x2="2513" y2="50.0" style="stroke:#999; stroke-width:3;" />
  <line x1="2513" y1="50.0" x2="2513" y2="50.0" style="stroke:#999; stroke-width:3;" />
  <line x1="2513" y1="50.0" x2="2533" y2="50.0" style="stroke:#999; stroke-width:3;" />
  <rect class="anc_exon" x="2533" y="35.0" width="56" height="30" style="fill:#87bcbc;fill-opacity:1.00" />
  <line x1="2589" y1="50.0" x2="2629" y2="50.0" style="stroke:#999; stroke-width:3;" />
  <rect class="anc_exon" x="2629" y="35.0" width="128" height="30" style="fill:#87bcbc;fill-opacity:1.00" />
  <line x1="2757" y1="50.0" x2="2777" y2="50.0" style="stroke:#999; stroke-width:3;" />
  <line x1="2777" y1="50.0" x2="2777" y2="50.0" style="stroke:#999; stroke-width:3;" />
  <line x1="2777" y1="50.0" x2="2777" y2="50.0" style="stroke:#999; stroke-width:3;" />
  <line x1="2777" y1="50.0" x2="2797" y2="50.0" style="stroke:#999; stroke-width:3;" />
  <rect class="anc_exon" x="2797" y="35.0" width="87" height="30" style="fill:#87bcbc;fill-opacity:1.00" />
  <line x1="2884" y1="50.0" x2="2924" y2="50.0" style="stroke:#999; stroke-width:3;" />
  <rect class="anc_exon" x="2924" y="35.0" width="105" height="30" style="fill:#87bcbc;fill-opacity:1.00" />
  <line x1="3029" y1="50.0" x2="3069" y2="50.0" style="stroke:#999; stroke-width:3;" />
  <rect class="anc_exon" x="3069" y="35.0" width="165" height="30" style="fill:#87bcbc;fill-opacity:1.00" />
  <line x1="3234" y1="50.0" x2="3254" y2="50.0" style="stroke:#999; stroke-width:3;" />
  <line x1="3254" y1="50.0" x2="3254" y2="50.0" style="stroke:#999; stroke-width:3;" />
  <line x1="3254" y1="50.0" x2="3254" y2="50.0" style="stroke:#999; stroke-width:3;" />
  <line x1="3254" y1="50.0" x2="3274" y2="50.0" style="stroke:#999; stroke-width:3;" />
  <rect class="anc_exon" x="3274" y="35.0" width="110" height="30" style="fill:#87bcbc;fill-opacity:1.00" />
  <line x1="3384" y1="50.0" x2="3424" y2="50.0" style="stroke:#999; stroke-width:3;" />
  <rect class="anc_exon" x="3424" y="35.0" width="99" height="30" style="fill:#87bcbc;fill-opacity:1.00" />
  <line x1="3523" y1="50.0" x2="3543" y2="50.0" style="stroke:#999; stroke-width:3;" />
  <line x1="3543" y1="50.0" x2="3543" y2="50.0" style="stroke:#999; stroke-width:3;" />
  <line x1="3543" y1="50.0" x2="3543" y2="50.0" style="stroke:#999; stroke-width:3;" />
  <line x1="3543" y1="50.0" x2="3563" y2="50.0" style="stroke:#999; stroke-width:3;" />
  <rect class="anc_exon" x="3563" y="35.0" width="137" height="30" style="fill:#87bcbc;fill-opacity:1.00" />
  <line x1="3700" y1="50.0" x2="3720" y2="50.0" style="stroke:#999; stroke-width:3;" />
  <line x1="3720" y1="50.0" x2="3720" y2="50.0" style="stroke:#999; stroke-width:3;" />
  <line x1="3720" y1="50.0" x2="3720" y2="50.0" style="stroke:#999; stroke-width:3;" />
  <line x1="3720" y1="50.0" x2="3740" y2="50.0" style="stroke:#999; stroke-width:3;" />
  <rect class="anc_exon" x="3740" y="35.0" width="170" height="30" style="fill:#87bcbc;fill-opacity:1.00" />
  <line x1="3910" y1="50.0" x2="3930" y2="50.0" style="stroke:#999; stroke-width:3;" />
  <line x1="3930" y1="50.0" x2="3930" y2="50.0" style="stroke:#999; stroke-width:3;" />
  <line x1="3930" y1="50.0" x2="3930" y2="50.0" style="stroke:#999; stroke-width:3;" />
  <line x1="3930" y1="50.0" x2="3950" y2="50.0" style="stroke:#999; stroke-width:3;" />
  <rect class="anc_exon" x="3950" y="35.0" width="116" height="30" style="fill:#87bcbc;fill-opacity:1.00" />
  <line x1="4066" y1="50.0" x2="4106" y2="50.0" style="stroke:#999; stroke-width:3;" />
  <rect class="anc_exon" x="4106" y="35.0" width="165" height="30" style="fill:#87bcbc;fill-opacity:1.00" />
  <line x1="4271" y1="50.0" x2="4311" y2="50.0" style="stroke:#999; stroke-width:3;" />
  <rect class="anc_exon" x="4311" y="35.0" width="84" height="30" style="fill:#87bcbc;fill-opacity:1.00" />
  <line x1="4395" y1="50.0" x2="4435" y2="50.0" style="stroke:#999; stroke-width:3;" />
  <rect class="anc_exon" x="4435" y="35.0" width="122" height="30" style="fill:#87bcbc;fill-opacity:1.00" />
  <line x1="4557" y1="50.0" x2="4597" y2="50.0" style="stroke:#999; stroke-width:3;" />
  <rect class="anc_exon" x="4597" y="35.0" width="199" height="30" style="fill:#87bcbc;fill-opacity:1.00" />
  <line x1="4796" y1="50.0" x2="4836" y2="50.0" style="stroke:#999; stroke-width:3;" />
  <rect class="anc_exon" x="4836" y="35.0" width="170" height="30" style="fill:#87bcbc;fill-opacity:1.00" />
  <line x1="5006" y1="50.0" x2="5026" y2="50.0" style="stroke:#999; stroke-width:3;" />
  <line x1="5026" y1="50.0" x2="5026" y2="50.0" style="stroke:#999; stroke-width:3;" />
  <line x1="5026" y1="50.0" x2="5026" y2="50.0" style="stroke:#999; stroke-width:3;" />
  <line x1="5026" y1="50.0" x2="5046" y2="50.0" style="stroke:#999; stroke-width:3;" />
  <rect class="anc_exon" x="5046" y="35.0" width="170" height="30" style="fill:#87bcbc;fill-opacity:1.00" />
  <line x1="5216" y1="50.0" x2="5256" y2="50.0" style="stroke:#999; stroke-width:3;" />
  <rect class="anc_exon" x="5256" y="35.0" width="129" height="30" style="fill:#87bcbc;fill-opacity:1.00" />
  <line x1="5385" y1="50.0" x2="5425" y2="50.0" style="stroke:#999; stroke-width:3;" />
  <rect class="anc_exon" x="5425" y="35.0" width="103" height="30" style="fill:#87bcbc;fill-opacity:1.00" />
  <line x1="5528" y1="50.0" x2="5568" y2="50.0" style="stroke:#999; stroke-width:3;" />
  <rect class="anc_exon" x="5568" y="35.0" width="71" height="30" style="fill:#87bcbc;fill-opacity:1.00" />
  <line x1="5639" y1="50.0" x2="5679" y2="50.0" style="stroke:#999; stroke-width:3;" />
  <rect class="anc_exon" x="5679" y="35.0" width="99" height="30" style="fill:#87bcbc;fill-opacity:1.00" />
  <line x1="5778" y1="50.0" x2="5818" y2="50.0" style="stroke:#999; stroke-width:3;" />
  <rect class="anc_exon" x="5818" y="35.0" width="167" height="30" style="fill:#87bcbc;fill-opacity:1.00" />
  <line x1="5985" y1="50.0" x2="6025" y2="50.0" style="stroke:#999; stroke-width:3;" />
  <rect class="anc_exon" x="6025" y="35.0" width="87" height="30" style="fill:#87bcbc;fill-opacity:1.00" />
  <line x1="6112" y1="50.0" x2="6132" y2="50.0" style="stroke:#999; stroke-width:3;" />
  <line x1="6132" y1="50.0" x2="6132" y2="50.0" style="stroke:#999; stroke-width:3;" />
  <line x1="6132" y1="50.0" x2="6132" y2="50.0" style="stroke:#999; stroke-width:3;" />
  <line x1="6132" y1="50.0" x2="6152" y2="50.0" style="stroke:#999; stroke-width:3;" />
  <rect class="anc_exon" x="6152" y="35.0" width="138" height="30" style="fill:#87bcbc;fill-opacity:1.00" />
  <line x1="6290" y1="50.0" x2="6310" y2="50.0" style="stroke:#999; stroke-width:3;" />
  <line x1="6310" y1="50.0" x2="6310" y2="50.0" style="stroke:#999; stroke-width:3;" />
  <line x1="6310" y1="50.0" x2="6310" y2="50.0" style="stroke:#999; stroke-width:3;" />
  <line x1="6310" y1="50.0" x2="6330" y2="50.0" style="stroke:#999; stroke-width:3;" />
  <rect class="anc_exon" x="6330" y="35.0" width="116" height="30" style="fill:#87bcbc;fill-opacity:1.00" />
  <rect class="anc_exon" x="6446" y="35.0" width="0" height="30" style="fill:#87bcbc;fill-opacity:1.00" />
  <text style="" >
<tspan x="0" y="83.0" style="font-size:18px;" >SP XM_031965494_1.1</tspan>  </text>



<script type="text/ecmascript">
<![CDATA[
function draw_bbox(text_id)
{
    var text_elem = document.getElementById(text_id);
    var offset_px = 2;
    var offset_py = 0;
    bbox = text_elem.getBBox();
    var box = document.createElementNS(document.rootElement.namespaceURI,'rect');
    box.setAttribute('x', bbox.x - offset_px);
    box.setAttribute('y', bbox.y - offset_py);
    box.setAttribute('width', bbox.width + offset_px * 2);
    box.setAttribute('height', bbox.height + offset_py * 2);
    box.setAttribute('style','fill: white;'+'stroke: black;'+'stroke-width: 1px;');
    text_elem.insertBefore(box,text_elem.childNodes[0]);

    var svg = text_elem.parentNode;
    svg.appendChild(text_elem);
}

for (var i=1; i < 1; i++)
{
draw_bbox("Mouseover" + i);
}
]]> 
</script>
</svg>
