<svg version="1.1"
xmlns="http://www.w3.org/2000/svg"
xmlns:xlink="http://www.w3.org/1999/xlink"
width="1660" height="120.0" viewBox = "0 -20.0 1660 120.0"
onclick="mouseclick(evt)">

<script type="text/ecmascript">

<![CDATA[
    function mouseover(evt, target) { 
    var gv = document.getElementById("globalVariable");
    var previoustarget = gv.firstChild.nodeValue;
    if (previoustarget != "none") 
    {
        	document.getElementById(gv.firstChild.nodeValue).setAttributeNS(null, "visibility", "hidden");
    }
    document.getElementById(target).setAttributeNS(null, "visibility", "visible");
    gv.firstChild.nodeValue = target;
        }

    function mouseclick(evt) { 
    var gv = document.getElementById("globalVariable");
    var previoustarget = gv.firstChild.nodeValue;
    if (previoustarget != "none") {
        	document.getElementById(gv.firstChild.nodeValue).setAttributeNS(null, "visibility", "hidden");
        }
    }
]]>
  </script>
<style type="text/css" >

<![CDATA[
    rect.anc_exon {
              stroke-width:3;
                  }

    rect.non_anc_exon {
              stroke: black; stroke-width:3; stroke-dasharray: 5,5;
                    }

    text {
              font-size: 18px;
              font-family: Courier New;
          }
                    ]]>
</style>

<defs>
    <text x="150" y="40" id="globalVariable">none</text>
</defs>

  <rect class="anc_exon" x="0" y="35.0" width="0" height="30" style="fill:#87bcbc;fill-opacity:1.00" />
  <rect class="anc_exon" x="0" y="35.0" width="27.200000000000003" height="30" style="fill:#87bcbc;fill-opacity:1.00" />
  <line x1="27.200000000000003" y1="50.0" x2="67.0" y2="50.0" style="stroke:#999; stroke-width:3;" />
  <rect class="anc_exon" x="67" y="35.0" width="80" height="30" style="fill:#87bcbc;fill-opacity:1.00" />
  <line x1="147" y1="50.0" x2="167" y2="50.0" style="stroke:#999; stroke-width:3;" />
  <line x1="167" y1="50.0" x2="167" y2="50.0" style="stroke:#999; stroke-width:3;" />
  <line x1="167" y1="50.0" x2="167" y2="50.0" style="stroke:#999; stroke-width:3;" />
  <line x1="167" y1="50.0" x2="187" y2="50.0" style="stroke:#999; stroke-width:3;" />
  <rect class="anc_exon" x="187" y="35.0" width="20" height="30" style="fill:#87bcbc;fill-opacity:1.00" />
  <line x1="207" y1="50.0" x2="227" y2="50.0" style="stroke:#999; stroke-width:3;" />
  <line x1="227" y1="50.0" x2="227" y2="50.0" style="stroke:#999; stroke-width:3;" />
  <line x1="227" y1="50.0" x2="227" y2="50.0" style="stroke:#999; stroke-width:3;" />
  <line x1="227" y1="50.0" x2="247" y2="50.0" style="stroke:#999; stroke-width:3;" />
  <rect class="anc_exon" x="247" y="35.0" width="116" height="30" style="fill:#87bcbc;fill-opacity:1.00" />
  <line x1="363" y1="50.0" x2="383" y2="50.0" style="stroke:#999; stroke-width:3;" />
  <line x1="383" y1="50.0" x2="383" y2="50.0" style="stroke:#999; stroke-width:3;" />
  <line x1="383" y1="50.0" x2="383" y2="50.0" style="stroke:#999; stroke-width:3;" />
  <line x1="383" y1="50.0" x2="403" y2="50.0" style="stroke:#999; stroke-width:3;" />
  <rect class="anc_exon" x="403" y="35.0" width="127" height="30" style="fill:#87bcbc;fill-opacity:1.00" />
  <line x1="530" y1="50.0" x2="550" y2="50.0" style="stroke:#999; stroke-width:3;" />
  <line x1="550" y1="50.0" x2="550" y2="50.0" style="stroke:#999; stroke-width:3;" />
  <line x1="550" y1="50.0" x2="550" y2="50.0" style="stroke:#999; stroke-width:3;" />
  <line x1="550" y1="50.0" x2="570" y2="50.0" style="stroke:#999; stroke-width:3;" />
  <rect class="anc_exon" x="570" y="35.0" width="104" height="30" style="fill:#87bcbc;fill-opacity:1.00" />
  <line x1="674" y1="50.0" x2="714" y2="50.0" style="stroke:#999; stroke-width:3;" />
  <rect class="anc_exon" x="714" y="35.0" width="52" height="30" style="fill:#87bcbc;fill-opacity:1.00" />
  <line x1="766" y1="50.0" x2="786" y2="50.0" style="stroke:#999; stroke-width:3;" />
  <line x1="786" y1="50.0" x2="786" y2="50.0" style="stroke:#999; stroke-width:3;" />
  <line x1="786" y1="50.0" x2="786" y2="50.0" style="stroke:#999; stroke-width:3;" />
  <line x1="786" y1="50.0" x2="806" y2="50.0" style="stroke:#999; stroke-width:3;" />
  <rect class="anc_exon" x="806" y="35.0" width="58" height="30" style="fill:#87bcbc;fill-opacity:1.00" />
  <line x1="864" y1="50.0" x2="884" y2="50.0" style="stroke:#999; stroke-width:3;" />
  <line x1="884" y1="50.0" x2="884" y2="50.0" style="stroke:#999; stroke-width:3;" />
  <line x1="884" y1="50.0" x2="884" y2="50.0" style="stroke:#999; stroke-width:3;" />
  <line x1="884" y1="50.0" x2="904" y2="50.0" style="stroke:#999; stroke-width:3;" />
  <rect class="anc_exon" x="904" y="35.0" width="121" height="30" style="fill:#87bcbc;fill-opacity:1.00" />
  <line x1="1025" y1="50.0" x2="1045" y2="50.0" style="stroke:#999; stroke-width:3;" />
  <line x1="1045" y1="50.0" x2="1045" y2="50.0" style="stroke:#999; stroke-width:3;" />
  <line x1="1045" y1="50.0" x2="1045" y2="50.0" style="stroke:#999; stroke-width:3;" />
  <line x1="1045" y1="50.0" x2="1065" y2="50.0" style="stroke:#999; stroke-width:3;" />
  <rect class="anc_exon" x="1065" y="35.0" width="65" height="30" style="fill:#87bcbc;fill-opacity:1.00" />
  <line x1="1130" y1="50.0" x2="1170" y2="50.0" style="stroke:#999; stroke-width:3;" />
  <rect class="anc_exon" x="1170" y="35.0" width="76" height="30" style="fill:#87bcbc;fill-opacity:1.00" />
  <line x1="1246" y1="50.0" x2="1266" y2="50.0" style="stroke:#999; stroke-width:3;" />
  <line x1="1266" y1="50.0" x2="1266" y2="50.0" style="stroke:#999; stroke-width:3;" />
  <line x1="1266" y1="50.0" x2="1266" y2="50.0" style="stroke:#999; stroke-width:3;" />
  <line x1="1266" y1="50.0" x2="1286" y2="50.0" style="stroke:#999; stroke-width:3;" />
  <rect class="anc_exon" x="1286" y="35.0" width="102" height="30" style="fill:#87bcbc;fill-opacity:1.00" />
  <line x1="1388" y1="50.0" x2="1408" y2="50.0" style="stroke:#999; stroke-width:3;" />
  <line x1="1408" y1="50.0" x2="1408" y2="50.0" style="stroke:#999; stroke-width:3;" />
  <line x1="1408" y1="50.0" x2="1408" y2="50.0" style="stroke:#999; stroke-width:3;" />
  <line x1="1408" y1="50.0" x2="1428" y2="50.0" style="stroke:#999; stroke-width:3;" />
  <rect class="anc_exon" x="1428" y="35.0" width="58" height="30" style="fill:#87bcbc;fill-opacity:1.00" />
  <polygon points="1451.2,35.0 1453.7,25.0 1448.7,25.0" style="fill:#121212; stroke-opacity:1; fill-opacity:1"/>
  <text style="" text-anchor="middle">
<tspan x="1451.2" y="16.0" style="font-size:18px;fill:#121212;" >+4</tspan>  </text>
  <line x1="1486" y1="50.0" x2="1526" y2="50.0" style="stroke:#999; stroke-width:3;" />
  <rect class="anc_exon" x="1526" y="35.0" width="98" height="30" style="fill:#87bcbc;fill-opacity:1.00" />
  <line x1="1566.0" y1="35.0" x2="1566.0" y2="65.0" style="stroke:#878787;stroke-width:3;"/>
  <text style="" text-anchor="middle">
<tspan x="1565.2" y="26.0" style="font-size:18px;fill:#878787;" >TAG</tspan>  </text>
  <rect class="anc_exon" x="1624" y="35.0" width="0" height="30" style="fill:#87bcbc;fill-opacity:1.00" />
  <text style="" >
<tspan x="0" y="83.0" style="font-size:18px;" >SP XM_031968925_1.1</tspan>  </text>



<script type="text/ecmascript">
<![CDATA[
function draw_bbox(text_id)
{
    var text_elem = document.getElementById(text_id);
    var offset_px = 2;
    var offset_py = 0;
    bbox = text_elem.getBBox();
    var box = document.createElementNS(document.rootElement.namespaceURI,'rect');
    box.setAttribute('x', bbox.x - offset_px);
    box.setAttribute('y', bbox.y - offset_py);
    box.setAttribute('width', bbox.width + offset_px * 2);
    box.setAttribute('height', bbox.height + offset_py * 2);
    box.setAttribute('style','fill: white;'+'stroke: black;'+'stroke-width: 1px;');
    text_elem.insertBefore(box,text_elem.childNodes[0]);

    var svg = text_elem.parentNode;
    svg.appendChild(text_elem);
}

for (var i=1; i < 1; i++)
{
draw_bbox("Mouseover" + i);
}
]]> 
</script>
</svg>
