<svg version="1.1"
xmlns="http://www.w3.org/2000/svg"
xmlns:xlink="http://www.w3.org/1999/xlink"
width="1431" height="100" viewBox = "0 0 1431 100"
onclick="mouseclick(evt)">

<script type="text/ecmascript">

<![CDATA[
    function mouseover(evt, target) { 
    var gv = document.getElementById("globalVariable");
    var previoustarget = gv.firstChild.nodeValue;
    if (previoustarget != "none") 
    {
        	document.getElementById(gv.firstChild.nodeValue).setAttributeNS(null, "visibility", "hidden");
    }
    document.getElementById(target).setAttributeNS(null, "visibility", "visible");
    gv.firstChild.nodeValue = target;
        }

    function mouseclick(evt) { 
    var gv = document.getElementById("globalVariable");
    var previoustarget = gv.firstChild.nodeValue;
    if (previoustarget != "none") {
        	document.getElementById(gv.firstChild.nodeValue).setAttributeNS(null, "visibility", "hidden");
        }
    }
]]>
  </script>
<style type="text/css" >

<![CDATA[
    rect.anc_exon {
              stroke-width:3;
                  }

    rect.non_anc_exon {
              stroke: black; stroke-width:3; stroke-dasharray: 5,5;
                    }

    text {
              font-size: 18px;
              font-family: Courier New;
          }
                    ]]>
</style>

<defs>
    <text x="150" y="40" id="globalVariable">none</text>
</defs>

  <rect class="anc_exon" x="0" y="35.0" width="0" height="30" style="fill:#87bcbc;fill-opacity:1.00" />
  <rect class="anc_exon" x="0" y="35.0" width="40.0" height="30" style="fill:#87bcbc;fill-opacity:1.00" />
  <line x1="40.0" y1="50.0" x2="60.0" y2="50.0" style="stroke:#999; stroke-width:3;" />
  <line x1="60.0" y1="50.0" x2="60.0" y2="50.0" style="stroke:#999; stroke-width:3;" />
  <line x1="60.0" y1="50.0" x2="60.0" y2="50.0" style="stroke:#999; stroke-width:3;" />
  <line x1="60.0" y1="50.0" x2="80.0" y2="50.0" style="stroke:#999; stroke-width:3;" />
  <rect class="anc_exon" x="80" y="35.0" width="135" height="30" style="fill:#87bcbc;fill-opacity:1.00" />
  <line x1="215" y1="50.0" x2="235" y2="50.0" style="stroke:#999; stroke-width:3;" />
  <line x1="235" y1="50.0" x2="235" y2="50.0" style="stroke:#999; stroke-width:3;" />
  <line x1="235" y1="50.0" x2="235" y2="50.0" style="stroke:#999; stroke-width:3;" />
  <line x1="235" y1="50.0" x2="255" y2="50.0" style="stroke:#999; stroke-width:3;" />
  <rect class="anc_exon" x="255" y="35.0" width="89" height="30" style="fill:#87bcbc;fill-opacity:1.00" />
  <line x1="344" y1="50.0" x2="364" y2="50.0" style="stroke:#999; stroke-width:3;" />
  <line x1="364" y1="50.0" x2="364" y2="50.0" style="stroke:#999; stroke-width:3;" />
  <line x1="364" y1="50.0" x2="364" y2="50.0" style="stroke:#999; stroke-width:3;" />
  <line x1="364" y1="50.0" x2="384" y2="50.0" style="stroke:#999; stroke-width:3;" />
  <rect class="anc_exon" x="384" y="35.0" width="102" height="30" style="fill:#87bcbc;fill-opacity:1.00" />
  <line x1="486" y1="50.0" x2="506" y2="50.0" style="stroke:#999; stroke-width:3;" />
  <line x1="506" y1="50.0" x2="506" y2="50.0" style="stroke:#999; stroke-width:3;" />
  <line x1="506" y1="50.0" x2="506" y2="50.0" style="stroke:#999; stroke-width:3;" />
  <line x1="506" y1="50.0" x2="526" y2="50.0" style="stroke:#999; stroke-width:3;" />
  <rect class="anc_exon" x="526" y="35.0" width="158" height="30" style="fill:#87bcbc;fill-opacity:1.00" />
  <line x1="684" y1="50.0" x2="704" y2="50.0" style="stroke:#999; stroke-width:3;" />
  <line x1="704" y1="50.0" x2="704" y2="50.0" style="stroke:#999; stroke-width:3;" />
  <line x1="704" y1="50.0" x2="704" y2="50.0" style="stroke:#999; stroke-width:3;" />
  <line x1="704" y1="50.0" x2="724" y2="50.0" style="stroke:#999; stroke-width:3;" />
  <rect class="anc_exon" x="724" y="35.0" width="109" height="30" style="fill:#87bcbc;fill-opacity:1.00" />
  <line x1="833" y1="50.0" x2="853" y2="50.0" style="stroke:#999; stroke-width:3;" />
  <line x1="853" y1="50.0" x2="853" y2="50.0" style="stroke:#999; stroke-width:3;" />
  <line x1="853" y1="50.0" x2="853" y2="50.0" style="stroke:#999; stroke-width:3;" />
  <line x1="853" y1="50.0" x2="873" y2="50.0" style="stroke:#999; stroke-width:3;" />
  <rect class="anc_exon" x="873" y="35.0" width="135" height="30" style="fill:#87bcbc;fill-opacity:1.00" />
  <line x1="1008" y1="50.0" x2="1028" y2="50.0" style="stroke:#999; stroke-width:3;" />
  <line x1="1028" y1="50.0" x2="1028" y2="50.0" style="stroke:#999; stroke-width:3;" />
  <line x1="1028" y1="50.0" x2="1028" y2="50.0" style="stroke:#999; stroke-width:3;" />
  <line x1="1028" y1="50.0" x2="1048" y2="50.0" style="stroke:#999; stroke-width:3;" />
  <rect class="anc_exon" x="1048" y="35.0" width="92" height="30" style="fill:#87bcbc;fill-opacity:1.00" />
  <line x1="1140" y1="50.0" x2="1160" y2="50.0" style="stroke:#999; stroke-width:3;" />
  <line x1="1160" y1="50.0" x2="1160" y2="50.0" style="stroke:#999; stroke-width:3;" />
  <line x1="1160" y1="50.0" x2="1160" y2="50.0" style="stroke:#999; stroke-width:3;" />
  <line x1="1160" y1="50.0" x2="1180" y2="50.0" style="stroke:#999; stroke-width:3;" />
  <rect class="anc_exon" x="1180" y="35.0" width="215" height="30" style="fill:#87bcbc;fill-opacity:1.00" />
  <rect class="anc_exon" x="1395" y="35.0" width="0" height="30" style="fill:#87bcbc;fill-opacity:1.00" />
  <text style="" >
<tspan x="0" y="83.0" style="font-size:18px;" >SP XM_031966971_1.1</tspan>  </text>



<script type="text/ecmascript">
<![CDATA[
function draw_bbox(text_id)
{
    var text_elem = document.getElementById(text_id);
    var offset_px = 2;
    var offset_py = 0;
    bbox = text_elem.getBBox();
    var box = document.createElementNS(document.rootElement.namespaceURI,'rect');
    box.setAttribute('x', bbox.x - offset_px);
    box.setAttribute('y', bbox.y - offset_py);
    box.setAttribute('width', bbox.width + offset_px * 2);
    box.setAttribute('height', bbox.height + offset_py * 2);
    box.setAttribute('style','fill: white;'+'stroke: black;'+'stroke-width: 1px;');
    text_elem.insertBefore(box,text_elem.childNodes[0]);

    var svg = text_elem.parentNode;
    svg.appendChild(text_elem);
}

for (var i=1; i < 1; i++)
{
draw_bbox("Mouseover" + i);
}
]]> 
</script>
</svg>
