<svg version="1.1"
xmlns="http://www.w3.org/2000/svg"
xmlns:xlink="http://www.w3.org/1999/xlink"
width="2397" height="100" viewBox = "0 0 2397 100"
onclick="mouseclick(evt)">

<script type="text/ecmascript">

<![CDATA[
    function mouseover(evt, target) { 
    var gv = document.getElementById("globalVariable");
    var previoustarget = gv.firstChild.nodeValue;
    if (previoustarget != "none") 
    {
        	document.getElementById(gv.firstChild.nodeValue).setAttributeNS(null, "visibility", "hidden");
    }
    document.getElementById(target).setAttributeNS(null, "visibility", "visible");
    gv.firstChild.nodeValue = target;
        }

    function mouseclick(evt) { 
    var gv = document.getElementById("globalVariable");
    var previoustarget = gv.firstChild.nodeValue;
    if (previoustarget != "none") {
        	document.getElementById(gv.firstChild.nodeValue).setAttributeNS(null, "visibility", "hidden");
        }
    }
]]>
  </script>
<style type="text/css" >

<![CDATA[
    rect.anc_exon {
              stroke-width:3;
                  }

    rect.non_anc_exon {
              stroke: black; stroke-width:3; stroke-dasharray: 5,5;
                    }

    text {
              font-size: 18px;
              font-family: Courier New;
          }
                    ]]>
</style>

<defs>
    <text x="150" y="40" id="globalVariable">none</text>
</defs>

  <rect class="anc_exon" x="0" y="35.0" width="0" height="30" style="fill:#87bcbc;fill-opacity:1.00" />
  <rect class="anc_exon" x="0" y="35.0" width="70.4" height="30" style="fill:#87bcbc;fill-opacity:1.00" />
  <line x1="70.4" y1="50.0" x2="89.4" y2="50.0" style="stroke:#999; stroke-width:3;" />
  <line x1="89.4" y1="50.0" x2="89.4" y2="50.0" style="stroke:#999; stroke-width:3;" />
  <line x1="89.4" y1="50.0" x2="89.4" y2="50.0" style="stroke:#999; stroke-width:3;" />
  <line x1="89.4" y1="50.0" x2="110.0" y2="50.0" style="stroke:#999; stroke-width:3;" />
  <rect class="anc_exon" x="110" y="35.0" width="95" height="30" style="fill:#87bcbc;fill-opacity:1.00" />
  <line x1="205" y1="50.0" x2="225" y2="50.0" style="stroke:#999; stroke-width:3;" />
  <line x1="225" y1="50.0" x2="225" y2="50.0" style="stroke:#999; stroke-width:3;" />
  <line x1="225" y1="50.0" x2="225" y2="50.0" style="stroke:#999; stroke-width:3;" />
  <line x1="225" y1="50.0" x2="245" y2="50.0" style="stroke:#999; stroke-width:3;" />
  <rect class="anc_exon" x="245" y="35.0" width="71" height="30" style="fill:#87bcbc;fill-opacity:1.00" />
  <line x1="316" y1="50.0" x2="336" y2="50.0" style="stroke:#999; stroke-width:3;" />
  <line x1="336" y1="50.0" x2="336" y2="50.0" style="stroke:#999; stroke-width:3;" />
  <line x1="336" y1="50.0" x2="336" y2="50.0" style="stroke:#999; stroke-width:3;" />
  <line x1="336" y1="50.0" x2="356" y2="50.0" style="stroke:#999; stroke-width:3;" />
  <rect class="anc_exon" x="356" y="35.0" width="117" height="30" style="fill:#87bcbc;fill-opacity:1.00" />
  <line x1="473" y1="50.0" x2="513" y2="50.0" style="stroke:#999; stroke-width:3;" />
  <rect class="anc_exon" x="513" y="35.0" width="94" height="30" style="fill:#87bcbc;fill-opacity:1.00" />
  <line x1="607" y1="50.0" x2="627" y2="50.0" style="stroke:#999; stroke-width:3;" />
  <line x1="627" y1="50.0" x2="627" y2="50.0" style="stroke:#999; stroke-width:3;" />
  <line x1="627" y1="50.0" x2="627" y2="50.0" style="stroke:#999; stroke-width:3;" />
  <line x1="627" y1="50.0" x2="647" y2="50.0" style="stroke:#999; stroke-width:3;" />
  <rect class="anc_exon" x="647" y="35.0" width="53" height="30" style="fill:#87bcbc;fill-opacity:1.00" />
  <line x1="700" y1="50.0" x2="740" y2="50.0" style="stroke:#999; stroke-width:3;" />
  <rect class="anc_exon" x="740" y="35.0" width="35" height="30" style="fill:#87bcbc;fill-opacity:1.00" />
  <line x1="775" y1="50.0" x2="815" y2="50.0" style="stroke:#999; stroke-width:3;" />
  <rect class="anc_exon" x="815" y="35.0" width="38" height="30" style="fill:#87bcbc;fill-opacity:1.00" />
  <line x1="853" y1="50.0" x2="893" y2="50.0" style="stroke:#999; stroke-width:3;" />
  <rect class="anc_exon" x="893" y="35.0" width="57" height="30" style="fill:#87bcbc;fill-opacity:1.00" />
  <line x1="950" y1="50.0" x2="990" y2="50.0" style="stroke:#999; stroke-width:3;" />
  <rect class="anc_exon" x="990" y="35.0" width="128" height="30" style="fill:#87bcbc;fill-opacity:1.00" />
  <line x1="1118" y1="50.0" x2="1158" y2="50.0" style="stroke:#999; stroke-width:3;" />
  <rect class="anc_exon" x="1158" y="35.0" width="90" height="30" style="fill:#87bcbc;fill-opacity:1.00" />
  <line x1="1248" y1="50.0" x2="1288" y2="50.0" style="stroke:#999; stroke-width:3;" />
  <rect class="anc_exon" x="1288" y="35.0" width="191" height="30" style="fill:#87bcbc;fill-opacity:1.00" />
  <line x1="1479" y1="50.0" x2="1519" y2="50.0" style="stroke:#999; stroke-width:3;" />
  <rect class="anc_exon" x="1519" y="35.0" width="87" height="30" style="fill:#87bcbc;fill-opacity:1.00" />
  <line x1="1606" y1="50.0" x2="1646" y2="50.0" style="stroke:#999; stroke-width:3;" />
  <rect class="anc_exon" x="1646" y="35.0" width="89" height="30" style="fill:#87bcbc;fill-opacity:1.00" />
  <line x1="1735" y1="50.0" x2="1775" y2="50.0" style="stroke:#999; stroke-width:3;" />
  <rect class="anc_exon" x="1775" y="35.0" width="150" height="30" style="fill:#87bcbc;fill-opacity:1.00" />
  <line x1="1925" y1="50.0" x2="1965" y2="50.0" style="stroke:#999; stroke-width:3;" />
  <rect class="anc_exon" x="1965" y="35.0" width="52" height="30" style="fill:#87bcbc;fill-opacity:1.00" />
  <line x1="2017" y1="50.0" x2="2057" y2="50.0" style="stroke:#999; stroke-width:3;" />
  <rect class="anc_exon" x="2057" y="35.0" width="39" height="30" style="fill:#87bcbc;fill-opacity:1.00" />
  <line x1="2096" y1="50.0" x2="2136" y2="50.0" style="stroke:#999; stroke-width:3;" />
  <rect class="anc_exon" x="2136" y="35.0" width="88" height="30" style="fill:#87bcbc;fill-opacity:1.00" />
  <line x1="2224" y1="50.0" x2="2244" y2="50.0" style="stroke:#999; stroke-width:3;" />
  <line x1="2244" y1="50.0" x2="2244" y2="50.0" style="stroke:#999; stroke-width:3;" />
  <line x1="2244" y1="50.0" x2="2244" y2="50.0" style="stroke:#999; stroke-width:3;" />
  <line x1="2244" y1="50.0" x2="2264" y2="50.0" style="stroke:#999; stroke-width:3;" />
  <rect class="anc_exon" x="2264" y="35.0" width="97" height="30" style="fill:#87bcbc;fill-opacity:1.00" />
  <rect class="anc_exon" x="2361" y="35.0" width="0" height="30" style="fill:#87bcbc;fill-opacity:1.00" />
  <text style="" >
<tspan x="0" y="83.0" style="font-size:18px;" >SP XM_031965859_1.1</tspan>  </text>



<script type="text/ecmascript">
<![CDATA[
function draw_bbox(text_id)
{
    var text_elem = document.getElementById(text_id);
    var offset_px = 2;
    var offset_py = 0;
    bbox = text_elem.getBBox();
    var box = document.createElementNS(document.rootElement.namespaceURI,'rect');
    box.setAttribute('x', bbox.x - offset_px);
    box.setAttribute('y', bbox.y - offset_py);
    box.setAttribute('width', bbox.width + offset_px * 2);
    box.setAttribute('height', bbox.height + offset_py * 2);
    box.setAttribute('style','fill: white;'+'stroke: black;'+'stroke-width: 1px;');
    text_elem.insertBefore(box,text_elem.childNodes[0]);

    var svg = text_elem.parentNode;
    svg.appendChild(text_elem);
}

for (var i=1; i < 1; i++)
{
draw_bbox("Mouseover" + i);
}
]]> 
</script>
</svg>
