<svg version="1.1"
xmlns="http://www.w3.org/2000/svg"
xmlns:xlink="http://www.w3.org/1999/xlink"
width="4313" height="100" viewBox = "0 0 4313 100"
onclick="mouseclick(evt)">

<script type="text/ecmascript">

<![CDATA[
    function mouseover(evt, target) { 
    var gv = document.getElementById("globalVariable");
    var previoustarget = gv.firstChild.nodeValue;
    if (previoustarget != "none") 
    {
        	document.getElementById(gv.firstChild.nodeValue).setAttributeNS(null, "visibility", "hidden");
    }
    document.getElementById(target).setAttributeNS(null, "visibility", "visible");
    gv.firstChild.nodeValue = target;
        }

    function mouseclick(evt) { 
    var gv = document.getElementById("globalVariable");
    var previoustarget = gv.firstChild.nodeValue;
    if (previoustarget != "none") {
        	document.getElementById(gv.firstChild.nodeValue).setAttributeNS(null, "visibility", "hidden");
        }
    }
]]>
  </script>
<style type="text/css" >

<![CDATA[
    rect.anc_exon {
              stroke-width:3;
                  }

    rect.non_anc_exon {
              stroke: black; stroke-width:3; stroke-dasharray: 5,5;
                    }

    text {
              font-size: 18px;
              font-family: Courier New;
          }
                    ]]>
</style>

<defs>
    <text x="150" y="40" id="globalVariable">none</text>
</defs>

  <rect class="anc_exon" x="0" y="35.0" width="0" height="30" style="fill:#87bcbc;fill-opacity:1.00" />
  <rect class="anc_exon" x="0" y="35.0" width="58.400000000000006" height="30" style="fill:#87bcbc;fill-opacity:1.00" />
  <line x1="58.400000000000006" y1="50.0" x2="77.4" y2="50.0" style="stroke:#999; stroke-width:3;" />
  <line x1="77.4" y1="50.0" x2="77.4" y2="50.0" style="stroke:#999; stroke-width:3;" />
  <line x1="77.4" y1="50.0" x2="77.4" y2="50.0" style="stroke:#999; stroke-width:3;" />
  <line x1="77.4" y1="50.0" x2="98.0" y2="50.0" style="stroke:#999; stroke-width:3;" />
  <rect class="anc_exon" x="98" y="35.0" width="171" height="30" style="fill:#87bcbc;fill-opacity:1.00" />
  <line x1="269" y1="50.0" x2="289" y2="50.0" style="stroke:#999; stroke-width:3;" />
  <line x1="289" y1="50.0" x2="289" y2="50.0" style="stroke:#999; stroke-width:3;" />
  <line x1="289" y1="50.0" x2="289" y2="50.0" style="stroke:#999; stroke-width:3;" />
  <line x1="289" y1="50.0" x2="309" y2="50.0" style="stroke:#999; stroke-width:3;" />
  <rect class="anc_exon" x="309" y="35.0" width="88" height="30" style="fill:#87bcbc;fill-opacity:1.00" />
  <line x1="397" y1="50.0" x2="417" y2="50.0" style="stroke:#999; stroke-width:3;" />
  <line x1="417" y1="50.0" x2="417" y2="50.0" style="stroke:#999; stroke-width:3;" />
  <line x1="417" y1="50.0" x2="417" y2="50.0" style="stroke:#999; stroke-width:3;" />
  <line x1="417" y1="50.0" x2="437" y2="50.0" style="stroke:#999; stroke-width:3;" />
  <rect class="anc_exon" x="437" y="35.0" width="12" height="30" style="fill:#87bcbc;fill-opacity:1.00" />
  <line x1="449" y1="50.0" x2="489" y2="50.0" style="stroke:#999; stroke-width:3;" />
  <rect class="anc_exon" x="489" y="35.0" width="640" height="30" style="fill:#87bcbc;fill-opacity:1.00" />
  <line x1="1129" y1="50.0" x2="1149" y2="50.0" style="stroke:#999; stroke-width:3;" />
  <line x1="1149" y1="50.0" x2="1149" y2="50.0" style="stroke:#999; stroke-width:3;" />
  <line x1="1149" y1="50.0" x2="1149" y2="50.0" style="stroke:#999; stroke-width:3;" />
  <line x1="1149" y1="50.0" x2="1169" y2="50.0" style="stroke:#999; stroke-width:3;" />
  <rect class="anc_exon" x="1169" y="35.0" width="237" height="30" style="fill:#87bcbc;fill-opacity:1.00" />
  <line x1="1406" y1="50.0" x2="1446" y2="50.0" style="stroke:#999; stroke-width:3;" />
  <rect class="anc_exon" x="1446" y="35.0" width="83" height="30" style="fill:#87bcbc;fill-opacity:1.00" />
  <line x1="1529" y1="50.0" x2="1569" y2="50.0" style="stroke:#999; stroke-width:3;" />
  <rect class="anc_exon" x="1569" y="35.0" width="148" height="30" style="fill:#87bcbc;fill-opacity:1.00" />
  <line x1="1717" y1="50.0" x2="1737" y2="50.0" style="stroke:#999; stroke-width:3;" />
  <line x1="1737" y1="50.0" x2="1737" y2="50.0" style="stroke:#999; stroke-width:3;" />
  <line x1="1737" y1="50.0" x2="1737" y2="50.0" style="stroke:#999; stroke-width:3;" />
  <line x1="1737" y1="50.0" x2="1757" y2="50.0" style="stroke:#999; stroke-width:3;" />
  <rect class="anc_exon" x="1757" y="35.0" width="147" height="30" style="fill:#87bcbc;fill-opacity:1.00" />
  <line x1="1904" y1="50.0" x2="1924" y2="50.0" style="stroke:#999; stroke-width:3;" />
  <line x1="1924" y1="50.0" x2="1924" y2="50.0" style="stroke:#999; stroke-width:3;" />
  <line x1="1924" y1="50.0" x2="1924" y2="50.0" style="stroke:#999; stroke-width:3;" />
  <line x1="1924" y1="50.0" x2="1944" y2="50.0" style="stroke:#999; stroke-width:3;" />
  <rect class="anc_exon" x="1944" y="35.0" width="98" height="30" style="fill:#87bcbc;fill-opacity:1.00" />
  <line x1="2042" y1="50.0" x2="2082" y2="50.0" style="stroke:#999; stroke-width:3;" />
  <rect class="anc_exon" x="2082" y="35.0" width="164" height="30" style="fill:#87bcbc;fill-opacity:1.00" />
  <line x1="2246" y1="50.0" x2="2286" y2="50.0" style="stroke:#999; stroke-width:3;" />
  <rect class="anc_exon" x="2286" y="35.0" width="139" height="30" style="fill:#87bcbc;fill-opacity:1.00" />
  <line x1="2425" y1="50.0" x2="2465" y2="50.0" style="stroke:#999; stroke-width:3;" />
  <rect class="anc_exon" x="2465" y="35.0" width="168" height="30" style="fill:#87bcbc;fill-opacity:1.00" />
  <line x1="2633" y1="50.0" x2="2673" y2="50.0" style="stroke:#999; stroke-width:3;" />
  <rect class="anc_exon" x="2673" y="35.0" width="176" height="30" style="fill:#87bcbc;fill-opacity:1.00" />
  <line x1="2849" y1="50.0" x2="2889" y2="50.0" style="stroke:#999; stroke-width:3;" />
  <rect class="anc_exon" x="2889" y="35.0" width="53" height="30" style="fill:#87bcbc;fill-opacity:1.00" />
  <line x1="2942" y1="50.0" x2="2962" y2="50.0" style="stroke:#999; stroke-width:3;" />
  <line x1="2962" y1="50.0" x2="2962" y2="50.0" style="stroke:#999; stroke-width:3;" />
  <line x1="2962" y1="50.0" x2="2962" y2="50.0" style="stroke:#999; stroke-width:3;" />
  <line x1="2962" y1="50.0" x2="2982" y2="50.0" style="stroke:#999; stroke-width:3;" />
  <rect class="anc_exon" x="2982" y="35.0" width="73" height="30" style="fill:#87bcbc;fill-opacity:1.00" />
  <line x1="3055" y1="50.0" x2="3095" y2="50.0" style="stroke:#999; stroke-width:3;" />
  <rect class="anc_exon" x="3095" y="35.0" width="135" height="30" style="fill:#87bcbc;fill-opacity:1.00" />
  <line x1="3230" y1="50.0" x2="3250" y2="50.0" style="stroke:#999; stroke-width:3;" />
  <line x1="3250" y1="50.0" x2="3250" y2="50.0" style="stroke:#999; stroke-width:3;" />
  <line x1="3250" y1="50.0" x2="3250" y2="50.0" style="stroke:#999; stroke-width:3;" />
  <line x1="3250" y1="50.0" x2="3270" y2="50.0" style="stroke:#999; stroke-width:3;" />
  <rect class="anc_exon" x="3270" y="35.0" width="103" height="30" style="fill:#87bcbc;fill-opacity:1.00" />
  <line x1="3373" y1="50.0" x2="3413" y2="50.0" style="stroke:#999; stroke-width:3;" />
  <rect class="anc_exon" x="3413" y="35.0" width="77" height="30" style="fill:#87bcbc;fill-opacity:1.00" />
  <line x1="3490" y1="50.0" x2="3510" y2="50.0" style="stroke:#999; stroke-width:3;" />
  <line x1="3510" y1="50.0" x2="3510" y2="50.0" style="stroke:#999; stroke-width:3;" />
  <line x1="3510" y1="50.0" x2="3510" y2="50.0" style="stroke:#999; stroke-width:3;" />
  <line x1="3510" y1="50.0" x2="3530" y2="50.0" style="stroke:#999; stroke-width:3;" />
  <rect class="anc_exon" x="3530" y="35.0" width="103" height="30" style="fill:#87bcbc;fill-opacity:1.00" />
  <line x1="3633" y1="50.0" x2="3653" y2="50.0" style="stroke:#999; stroke-width:3;" />
  <line x1="3653" y1="50.0" x2="3653" y2="50.0" style="stroke:#999; stroke-width:3;" />
  <line x1="3653" y1="50.0" x2="3653" y2="50.0" style="stroke:#999; stroke-width:3;" />
  <line x1="3653" y1="50.0" x2="3673" y2="50.0" style="stroke:#999; stroke-width:3;" />
  <rect class="anc_exon" x="3673" y="35.0" width="604" height="30" style="fill:#87bcbc;fill-opacity:1.00" />
  <rect class="anc_exon" x="4277" y="35.0" width="0" height="30" style="fill:#87bcbc;fill-opacity:1.00" />
  <text style="" >
<tspan x="0" y="83.0" style="font-size:18px;" >SP XM_031936766_1.1</tspan>  </text>



<script type="text/ecmascript">
<![CDATA[
function draw_bbox(text_id)
{
    var text_elem = document.getElementById(text_id);
    var offset_px = 2;
    var offset_py = 0;
    bbox = text_elem.getBBox();
    var box = document.createElementNS(document.rootElement.namespaceURI,'rect');
    box.setAttribute('x', bbox.x - offset_px);
    box.setAttribute('y', bbox.y - offset_py);
    box.setAttribute('width', bbox.width + offset_px * 2);
    box.setAttribute('height', bbox.height + offset_py * 2);
    box.setAttribute('style','fill: white;'+'stroke: black;'+'stroke-width: 1px;');
    text_elem.insertBefore(box,text_elem.childNodes[0]);

    var svg = text_elem.parentNode;
    svg.appendChild(text_elem);
}

for (var i=1; i < 1; i++)
{
draw_bbox("Mouseover" + i);
}
]]> 
</script>
</svg>
