<svg version="1.1"
xmlns="http://www.w3.org/2000/svg"
xmlns:xlink="http://www.w3.org/1999/xlink"
width="4261" height="100" viewBox = "0 0 4261 100"
onclick="mouseclick(evt)">

<script type="text/ecmascript">

<![CDATA[
    function mouseover(evt, target) { 
    var gv = document.getElementById("globalVariable");
    var previoustarget = gv.firstChild.nodeValue;
    if (previoustarget != "none") 
    {
        	document.getElementById(gv.firstChild.nodeValue).setAttributeNS(null, "visibility", "hidden");
    }
    document.getElementById(target).setAttributeNS(null, "visibility", "visible");
    gv.firstChild.nodeValue = target;
        }

    function mouseclick(evt) { 
    var gv = document.getElementById("globalVariable");
    var previoustarget = gv.firstChild.nodeValue;
    if (previoustarget != "none") {
        	document.getElementById(gv.firstChild.nodeValue).setAttributeNS(null, "visibility", "hidden");
        }
    }
]]>
  </script>
<style type="text/css" >

<![CDATA[
    rect.anc_exon {
              stroke-width:3;
                  }

    rect.non_anc_exon {
              stroke: black; stroke-width:3; stroke-dasharray: 5,5;
                    }

    text {
              font-size: 18px;
              font-family: Courier New;
          }
                    ]]>
</style>

<defs>
    <text x="150" y="40" id="globalVariable">none</text>
</defs>

  <rect class="anc_exon" x="0" y="35.0" width="0" height="30" style="fill:#87bcbc;fill-opacity:1.00" />
  <rect class="anc_exon" x="0" y="35.0" width="58.400000000000006" height="30" style="fill:#87bcbc;fill-opacity:1.00" />
  <line x1="58.400000000000006" y1="50.0" x2="77.4" y2="50.0" style="stroke:#999; stroke-width:3;" />
  <line x1="77.4" y1="50.0" x2="77.4" y2="50.0" style="stroke:#999; stroke-width:3;" />
  <line x1="77.4" y1="50.0" x2="77.4" y2="50.0" style="stroke:#999; stroke-width:3;" />
  <line x1="77.4" y1="50.0" x2="98.0" y2="50.0" style="stroke:#999; stroke-width:3;" />
  <rect class="anc_exon" x="98" y="35.0" width="171" height="30" style="fill:#87bcbc;fill-opacity:1.00" />
  <line x1="269" y1="50.0" x2="289" y2="50.0" style="stroke:#999; stroke-width:3;" />
  <line x1="289" y1="50.0" x2="289" y2="50.0" style="stroke:#999; stroke-width:3;" />
  <line x1="289" y1="50.0" x2="289" y2="50.0" style="stroke:#999; stroke-width:3;" />
  <line x1="289" y1="50.0" x2="309" y2="50.0" style="stroke:#999; stroke-width:3;" />
  <rect class="anc_exon" x="309" y="35.0" width="88" height="30" style="fill:#87bcbc;fill-opacity:1.00" />
  <line x1="397" y1="50.0" x2="417" y2="50.0" style="stroke:#999; stroke-width:3;" />
  <line x1="417" y1="50.0" x2="417" y2="50.0" style="stroke:#999; stroke-width:3;" />
  <line x1="417" y1="50.0" x2="417" y2="50.0" style="stroke:#999; stroke-width:3;" />
  <line x1="417" y1="50.0" x2="437" y2="50.0" style="stroke:#999; stroke-width:3;" />
  <rect class="anc_exon" x="437" y="35.0" width="640" height="30" style="fill:#87bcbc;fill-opacity:1.00" />
  <line x1="1077" y1="50.0" x2="1097" y2="50.0" style="stroke:#999; stroke-width:3;" />
  <line x1="1097" y1="50.0" x2="1097" y2="50.0" style="stroke:#999; stroke-width:3;" />
  <line x1="1097" y1="50.0" x2="1097" y2="50.0" style="stroke:#999; stroke-width:3;" />
  <line x1="1097" y1="50.0" x2="1117" y2="50.0" style="stroke:#999; stroke-width:3;" />
  <rect class="anc_exon" x="1117" y="35.0" width="237" height="30" style="fill:#87bcbc;fill-opacity:1.00" />
  <line x1="1354" y1="50.0" x2="1394" y2="50.0" style="stroke:#999; stroke-width:3;" />
  <rect class="anc_exon" x="1394" y="35.0" width="83" height="30" style="fill:#87bcbc;fill-opacity:1.00" />
  <line x1="1477" y1="50.0" x2="1517" y2="50.0" style="stroke:#999; stroke-width:3;" />
  <rect class="anc_exon" x="1517" y="35.0" width="148" height="30" style="fill:#87bcbc;fill-opacity:1.00" />
  <line x1="1665" y1="50.0" x2="1685" y2="50.0" style="stroke:#999; stroke-width:3;" />
  <line x1="1685" y1="50.0" x2="1685" y2="50.0" style="stroke:#999; stroke-width:3;" />
  <line x1="1685" y1="50.0" x2="1685" y2="50.0" style="stroke:#999; stroke-width:3;" />
  <line x1="1685" y1="50.0" x2="1705" y2="50.0" style="stroke:#999; stroke-width:3;" />
  <rect class="anc_exon" x="1705" y="35.0" width="147" height="30" style="fill:#87bcbc;fill-opacity:1.00" />
  <line x1="1852" y1="50.0" x2="1872" y2="50.0" style="stroke:#999; stroke-width:3;" />
  <line x1="1872" y1="50.0" x2="1872" y2="50.0" style="stroke:#999; stroke-width:3;" />
  <line x1="1872" y1="50.0" x2="1872" y2="50.0" style="stroke:#999; stroke-width:3;" />
  <line x1="1872" y1="50.0" x2="1892" y2="50.0" style="stroke:#999; stroke-width:3;" />
  <rect class="anc_exon" x="1892" y="35.0" width="98" height="30" style="fill:#87bcbc;fill-opacity:1.00" />
  <line x1="1990" y1="50.0" x2="2030" y2="50.0" style="stroke:#999; stroke-width:3;" />
  <rect class="anc_exon" x="2030" y="35.0" width="164" height="30" style="fill:#87bcbc;fill-opacity:1.00" />
  <line x1="2194" y1="50.0" x2="2234" y2="50.0" style="stroke:#999; stroke-width:3;" />
  <rect class="anc_exon" x="2234" y="35.0" width="139" height="30" style="fill:#87bcbc;fill-opacity:1.00" />
  <line x1="2373" y1="50.0" x2="2413" y2="50.0" style="stroke:#999; stroke-width:3;" />
  <rect class="anc_exon" x="2413" y="35.0" width="168" height="30" style="fill:#87bcbc;fill-opacity:1.00" />
  <line x1="2581" y1="50.0" x2="2621" y2="50.0" style="stroke:#999; stroke-width:3;" />
  <rect class="anc_exon" x="2621" y="35.0" width="176" height="30" style="fill:#87bcbc;fill-opacity:1.00" />
  <line x1="2797" y1="50.0" x2="2837" y2="50.0" style="stroke:#999; stroke-width:3;" />
  <rect class="anc_exon" x="2837" y="35.0" width="53" height="30" style="fill:#87bcbc;fill-opacity:1.00" />
  <line x1="2890" y1="50.0" x2="2910" y2="50.0" style="stroke:#999; stroke-width:3;" />
  <line x1="2910" y1="50.0" x2="2910" y2="50.0" style="stroke:#999; stroke-width:3;" />
  <line x1="2910" y1="50.0" x2="2910" y2="50.0" style="stroke:#999; stroke-width:3;" />
  <line x1="2910" y1="50.0" x2="2930" y2="50.0" style="stroke:#999; stroke-width:3;" />
  <rect class="anc_exon" x="2930" y="35.0" width="73" height="30" style="fill:#87bcbc;fill-opacity:1.00" />
  <line x1="3003" y1="50.0" x2="3043" y2="50.0" style="stroke:#999; stroke-width:3;" />
  <rect class="anc_exon" x="3043" y="35.0" width="135" height="30" style="fill:#87bcbc;fill-opacity:1.00" />
  <line x1="3178" y1="50.0" x2="3198" y2="50.0" style="stroke:#999; stroke-width:3;" />
  <line x1="3198" y1="50.0" x2="3198" y2="50.0" style="stroke:#999; stroke-width:3;" />
  <line x1="3198" y1="50.0" x2="3198" y2="50.0" style="stroke:#999; stroke-width:3;" />
  <line x1="3198" y1="50.0" x2="3218" y2="50.0" style="stroke:#999; stroke-width:3;" />
  <rect class="anc_exon" x="3218" y="35.0" width="103" height="30" style="fill:#87bcbc;fill-opacity:1.00" />
  <line x1="3321" y1="50.0" x2="3361" y2="50.0" style="stroke:#999; stroke-width:3;" />
  <rect class="anc_exon" x="3361" y="35.0" width="77" height="30" style="fill:#87bcbc;fill-opacity:1.00" />
  <line x1="3438" y1="50.0" x2="3458" y2="50.0" style="stroke:#999; stroke-width:3;" />
  <line x1="3458" y1="50.0" x2="3458" y2="50.0" style="stroke:#999; stroke-width:3;" />
  <line x1="3458" y1="50.0" x2="3458" y2="50.0" style="stroke:#999; stroke-width:3;" />
  <line x1="3458" y1="50.0" x2="3478" y2="50.0" style="stroke:#999; stroke-width:3;" />
  <rect class="anc_exon" x="3478" y="35.0" width="103" height="30" style="fill:#87bcbc;fill-opacity:1.00" />
  <line x1="3581" y1="50.0" x2="3601" y2="50.0" style="stroke:#999; stroke-width:3;" />
  <line x1="3601" y1="50.0" x2="3601" y2="50.0" style="stroke:#999; stroke-width:3;" />
  <line x1="3601" y1="50.0" x2="3601" y2="50.0" style="stroke:#999; stroke-width:3;" />
  <line x1="3601" y1="50.0" x2="3621" y2="50.0" style="stroke:#999; stroke-width:3;" />
  <rect class="anc_exon" x="3621" y="35.0" width="604" height="30" style="fill:#87bcbc;fill-opacity:1.00" />
  <rect class="anc_exon" x="4225" y="35.0" width="0" height="30" style="fill:#87bcbc;fill-opacity:1.00" />
  <text style="" >
<tspan x="0" y="83.0" style="font-size:18px;" >SP XM_031936768_1.1</tspan>  </text>



<script type="text/ecmascript">
<![CDATA[
function draw_bbox(text_id)
{
    var text_elem = document.getElementById(text_id);
    var offset_px = 2;
    var offset_py = 0;
    bbox = text_elem.getBBox();
    var box = document.createElementNS(document.rootElement.namespaceURI,'rect');
    box.setAttribute('x', bbox.x - offset_px);
    box.setAttribute('y', bbox.y - offset_py);
    box.setAttribute('width', bbox.width + offset_px * 2);
    box.setAttribute('height', bbox.height + offset_py * 2);
    box.setAttribute('style','fill: white;'+'stroke: black;'+'stroke-width: 1px;');
    text_elem.insertBefore(box,text_elem.childNodes[0]);

    var svg = text_elem.parentNode;
    svg.appendChild(text_elem);
}

for (var i=1; i < 1; i++)
{
draw_bbox("Mouseover" + i);
}
]]> 
</script>
</svg>
