<svg version="1.1"
xmlns="http://www.w3.org/2000/svg"
xmlns:xlink="http://www.w3.org/1999/xlink"
width="1558" height="110.0" viewBox = "0 -10.0 1558 110.0"
onclick="mouseclick(evt)">

<script type="text/ecmascript">

<![CDATA[
    function mouseover(evt, target) { 
    var gv = document.getElementById("globalVariable");
    var previoustarget = gv.firstChild.nodeValue;
    if (previoustarget != "none") 
    {
        	document.getElementById(gv.firstChild.nodeValue).setAttributeNS(null, "visibility", "hidden");
    }
    document.getElementById(target).setAttributeNS(null, "visibility", "visible");
    gv.firstChild.nodeValue = target;
        }

    function mouseclick(evt) { 
    var gv = document.getElementById("globalVariable");
    var previoustarget = gv.firstChild.nodeValue;
    if (previoustarget != "none") {
        	document.getElementById(gv.firstChild.nodeValue).setAttributeNS(null, "visibility", "hidden");
        }
    }
]]>
  </script>
<style type="text/css" >

<![CDATA[
    rect.anc_exon {
              stroke-width:3;
                  }

    rect.non_anc_exon {
              stroke: black; stroke-width:3; stroke-dasharray: 5,5;
                    }

    text {
              font-size: 18px;
              font-family: Courier New;
          }
                    ]]>
</style>

<defs>
    <text x="150" y="40" id="globalVariable">none</text>
</defs>

  <rect class="anc_exon" x="0" y="35.0" width="0" height="30" style="fill:#87bcbc;fill-opacity:1.00" />
  <rect class="anc_exon" x="0" y="35.0" width="112.0" height="30" style="fill:#87bcbc;fill-opacity:1.00" />
  <line x1="112.0" y1="50.0" x2="132.0" y2="50.0" style="stroke:#999; stroke-width:3;" />
  <line x1="132.0" y1="50.0" x2="132.0" y2="50.0" style="stroke:#999; stroke-width:3;" />
  <line x1="132.0" y1="50.0" x2="132.0" y2="50.0" style="stroke:#999; stroke-width:3;" />
  <line x1="132.0" y1="50.0" x2="152.0" y2="50.0" style="stroke:#999; stroke-width:3;" />
  <rect class="anc_exon" x="152" y="35.0" width="77" height="30" style="fill:#87bcbc;fill-opacity:1.00" />
  <line x1="190.4" y1="35.0" x2="190.4" y2="65.0" style="stroke:#121212; stroke-width:1.6; stroke-opacity:1"/>
  <text style="" text-anchor="middle">
<tspan x="189.6" y="26.0" style="font-size:18px;fill:#121212;" >-2</tspan>  </text>
  <line x1="229" y1="50.0" x2="269" y2="50.0" style="stroke:#999; stroke-width:3;" />
  <rect class="anc_exon" x="269" y="35.0" width="86" height="30" style="fill:#87bcbc;fill-opacity:1.00" />
  <line x1="355" y1="50.0" x2="375" y2="50.0" style="stroke:#999; stroke-width:3;" />
  <line x1="375" y1="50.0" x2="375" y2="50.0" style="stroke:#999; stroke-width:3;" />
  <line x1="375" y1="50.0" x2="375" y2="50.0" style="stroke:#999; stroke-width:3;" />
  <line x1="375" y1="50.0" x2="395" y2="50.0" style="stroke:#999; stroke-width:3;" />
  <rect class="anc_exon" x="395" y="35.0" width="57" height="30" style="fill:#87bcbc;fill-opacity:1.00" />
  <line x1="452" y1="50.0" x2="472" y2="50.0" style="stroke:#999; stroke-width:3;" />
  <line x1="472" y1="50.0" x2="472" y2="50.0" style="stroke:#999; stroke-width:3;" />
  <line x1="472" y1="50.0" x2="472" y2="50.0" style="stroke:#999; stroke-width:3;" />
  <line x1="472" y1="50.0" x2="492" y2="50.0" style="stroke:#999; stroke-width:3;" />
  <rect class="anc_exon" x="492" y="35.0" width="116" height="30" style="fill:#87bcbc;fill-opacity:1.00" />
  <line x1="608" y1="50.0" x2="648" y2="50.0" style="stroke:#999; stroke-width:3;" />
  <rect class="anc_exon" x="648" y="35.0" width="117" height="30" style="fill:#87bcbc;fill-opacity:1.00" />
  <line x1="765" y1="50.0" x2="805" y2="50.0" style="stroke:#999; stroke-width:3;" />
  <rect class="anc_exon" x="805" y="35.0" width="118" height="30" style="fill:#87bcbc;fill-opacity:1.00" />
  <line x1="923" y1="50.0" x2="963" y2="50.0" style="stroke:#999; stroke-width:3;" />
  <rect class="anc_exon" x="963" y="35.0" width="64" height="30" style="fill:#87bcbc;fill-opacity:1.00" />
  <line x1="1027" y1="50.0" x2="1067" y2="50.0" style="stroke:#999; stroke-width:3;" />
  <rect class="anc_exon" x="1067" y="35.0" width="108" height="30" style="fill:#87bcbc;fill-opacity:1.00" />
  <line x1="1175" y1="50.0" x2="1215" y2="50.0" style="stroke:#999; stroke-width:3;" />
  <rect class="anc_exon" x="1215" y="35.0" width="119" height="30" style="fill:#87bcbc;fill-opacity:1.00" />
  <line x1="1334" y1="50.0" x2="1354" y2="50.0" style="stroke:#999; stroke-width:3;" />
  <line x1="1354" y1="50.0" x2="1354" y2="50.0" style="stroke:#999; stroke-width:3;" />
  <line x1="1354" y1="50.0" x2="1354" y2="50.0" style="stroke:#999; stroke-width:3;" />
  <line x1="1354" y1="50.0" x2="1374" y2="50.0" style="stroke:#999; stroke-width:3;" />
  <rect class="anc_exon" x="1374" y="35.0" width="148" height="30" style="fill:#87bcbc;fill-opacity:1.00" />
  <rect class="anc_exon" x="1522" y="35.0" width="0" height="30" style="fill:#87bcbc;fill-opacity:1.00" />
  <text style="" >
<tspan x="0" y="83.0" style="font-size:18px;" >SP XM_031937245_1.1</tspan>  </text>



<script type="text/ecmascript">
<![CDATA[
function draw_bbox(text_id)
{
    var text_elem = document.getElementById(text_id);
    var offset_px = 2;
    var offset_py = 0;
    bbox = text_elem.getBBox();
    var box = document.createElementNS(document.rootElement.namespaceURI,'rect');
    box.setAttribute('x', bbox.x - offset_px);
    box.setAttribute('y', bbox.y - offset_py);
    box.setAttribute('width', bbox.width + offset_px * 2);
    box.setAttribute('height', bbox.height + offset_py * 2);
    box.setAttribute('style','fill: white;'+'stroke: black;'+'stroke-width: 1px;');
    text_elem.insertBefore(box,text_elem.childNodes[0]);

    var svg = text_elem.parentNode;
    svg.appendChild(text_elem);
}

for (var i=1; i < 1; i++)
{
draw_bbox("Mouseover" + i);
}
]]> 
</script>
</svg>
