<svg version="1.1"
xmlns="http://www.w3.org/2000/svg"
xmlns:xlink="http://www.w3.org/1999/xlink"
width="1768" height="100" viewBox = "0 0 1768 100"
onclick="mouseclick(evt)">

<script type="text/ecmascript">

<![CDATA[
    function mouseover(evt, target) { 
    var gv = document.getElementById("globalVariable");
    var previoustarget = gv.firstChild.nodeValue;
    if (previoustarget != "none") 
    {
        	document.getElementById(gv.firstChild.nodeValue).setAttributeNS(null, "visibility", "hidden");
    }
    document.getElementById(target).setAttributeNS(null, "visibility", "visible");
    gv.firstChild.nodeValue = target;
        }

    function mouseclick(evt) { 
    var gv = document.getElementById("globalVariable");
    var previoustarget = gv.firstChild.nodeValue;
    if (previoustarget != "none") {
        	document.getElementById(gv.firstChild.nodeValue).setAttributeNS(null, "visibility", "hidden");
        }
    }
]]>
  </script>
<style type="text/css" >

<![CDATA[
    rect.anc_exon {
              stroke-width:3;
                  }

    rect.non_anc_exon {
              stroke: black; stroke-width:3; stroke-dasharray: 5,5;
                    }

    text {
              font-size: 18px;
              font-family: Courier New;
          }
                    ]]>
</style>

<defs>
    <text x="150" y="40" id="globalVariable">none</text>
</defs>

  <rect class="anc_exon" x="0" y="35.0" width="0" height="30" style="fill:#87bcbc;fill-opacity:1.00" />
  <rect class="anc_exon" x="0" y="35.0" width="27.200000000000003" height="30" style="fill:#87bcbc;fill-opacity:1.00" />
  <line x1="27.200000000000003" y1="50.0" x2="46.2" y2="50.0" style="stroke:#999; stroke-width:3;" />
  <line x1="46.2" y1="50.0" x2="46.2" y2="50.0" style="stroke:#999; stroke-width:3;" />
  <line x1="46.2" y1="50.0" x2="46.2" y2="50.0" style="stroke:#999; stroke-width:3;" />
  <line x1="46.2" y1="50.0" x2="67.0" y2="50.0" style="stroke:#999; stroke-width:3;" />
  <rect class="anc_exon" x="67" y="35.0" width="98" height="30" style="fill:#87bcbc;fill-opacity:1.00" />
  <line x1="165" y1="50.0" x2="185" y2="50.0" style="stroke:#999; stroke-width:3;" />
  <line x1="185" y1="50.0" x2="185" y2="50.0" style="stroke:#999; stroke-width:3;" />
  <line x1="185" y1="50.0" x2="185" y2="50.0" style="stroke:#999; stroke-width:3;" />
  <line x1="185" y1="50.0" x2="205" y2="50.0" style="stroke:#999; stroke-width:3;" />
  <rect class="anc_exon" x="205" y="35.0" width="100" height="30" style="fill:#87bcbc;fill-opacity:1.00" />
  <line x1="305" y1="50.0" x2="325" y2="50.0" style="stroke:#999; stroke-width:3;" />
  <line x1="325" y1="50.0" x2="325" y2="50.0" style="stroke:#999; stroke-width:3;" />
  <line x1="325" y1="50.0" x2="325" y2="50.0" style="stroke:#999; stroke-width:3;" />
  <line x1="325" y1="50.0" x2="345" y2="50.0" style="stroke:#999; stroke-width:3;" />
  <rect class="anc_exon" x="345" y="35.0" width="76" height="30" style="fill:#87bcbc;fill-opacity:1.00" />
  <line x1="421" y1="50.0" x2="441" y2="50.0" style="stroke:#999; stroke-width:3;" />
  <line x1="441" y1="50.0" x2="441" y2="50.0" style="stroke:#999; stroke-width:3;" />
  <line x1="441" y1="50.0" x2="441" y2="50.0" style="stroke:#999; stroke-width:3;" />
  <line x1="441" y1="50.0" x2="461" y2="50.0" style="stroke:#999; stroke-width:3;" />
  <rect class="anc_exon" x="461" y="35.0" width="173" height="30" style="fill:#87bcbc;fill-opacity:1.00" />
  <line x1="634" y1="50.0" x2="654" y2="50.0" style="stroke:#999; stroke-width:3;" />
  <line x1="654" y1="50.0" x2="654" y2="50.0" style="stroke:#999; stroke-width:3;" />
  <line x1="654" y1="50.0" x2="654" y2="50.0" style="stroke:#999; stroke-width:3;" />
  <line x1="654" y1="50.0" x2="674" y2="50.0" style="stroke:#999; stroke-width:3;" />
  <rect class="anc_exon" x="674" y="35.0" width="32" height="30" style="fill:#878787;fill-opacity:1.00" />
  <line x1="706" y1="50.0" x2="726" y2="50.0" style="stroke:#999; stroke-width:3;" />
  <line x1="726" y1="50.0" x2="726" y2="50.0" style="stroke:#999; stroke-width:3;" />
  <line x1="726" y1="50.0" x2="726" y2="50.0" style="stroke:#999; stroke-width:3;" />
  <line x1="726" y1="50.0" x2="746" y2="50.0" style="stroke:#999; stroke-width:3;" />
  <rect class="anc_exon" x="746" y="35.0" width="107" height="30" style="fill:#878787;fill-opacity:1.00" />
  <line x1="853" y1="50.0" x2="893" y2="50.0" style="stroke:#999; stroke-width:3;" />
  <rect class="anc_exon" x="893" y="35.0" width="303" height="30" style="fill:#87bcbc;fill-opacity:1.00" />
  <line x1="1196" y1="50.0" x2="1216" y2="50.0" style="stroke:#999; stroke-width:3;" />
  <line x1="1216" y1="50.0" x2="1216" y2="50.0" style="stroke:#999; stroke-width:3;" />
  <line x1="1216" y1="50.0" x2="1216" y2="50.0" style="stroke:#999; stroke-width:3;" />
  <line x1="1216" y1="50.0" x2="1236" y2="50.0" style="stroke:#999; stroke-width:3;" />
  <rect class="anc_exon" x="1236" y="35.0" width="119" height="30" style="fill:#87bcbc;fill-opacity:1.00" />
  <line x1="1355" y1="50.0" x2="1375" y2="50.0" style="stroke:#999; stroke-width:3;" />
  <line x1="1375" y1="50.0" x2="1375" y2="50.0" style="stroke:#999; stroke-width:3;" />
  <line x1="1375" y1="50.0" x2="1375" y2="50.0" style="stroke:#999; stroke-width:3;" />
  <line x1="1375" y1="50.0" x2="1395" y2="50.0" style="stroke:#999; stroke-width:3;" />
  <rect class="anc_exon" x="1395" y="35.0" width="171" height="30" style="fill:#878787;fill-opacity:1.00" />
  <line x1="1566" y1="50.0" x2="1586" y2="50.0" style="stroke:#999; stroke-width:3;" />
  <line x1="1586" y1="50.0" x2="1586" y2="50.0" style="stroke:#999; stroke-width:3;" />
  <line x1="1586" y1="50.0" x2="1586" y2="50.0" style="stroke:#999; stroke-width:3;" />
  <line x1="1586" y1="50.0" x2="1606" y2="50.0" style="stroke:#999; stroke-width:3;" />
  <rect class="anc_exon" x="1606" y="35.0" width="126" height="30" style="fill:#878787;fill-opacity:1.00" />
  <rect class="anc_exon" x="1732" y="35.0" width="0" height="30" style="fill:#87bcbc;fill-opacity:1.00" />
  <text style="" >
<tspan x="0" y="83.0" style="font-size:18px;" >SP XM_031969153_1.1</tspan>  </text>



<script type="text/ecmascript">
<![CDATA[
function draw_bbox(text_id)
{
    var text_elem = document.getElementById(text_id);
    var offset_px = 2;
    var offset_py = 0;
    bbox = text_elem.getBBox();
    var box = document.createElementNS(document.rootElement.namespaceURI,'rect');
    box.setAttribute('x', bbox.x - offset_px);
    box.setAttribute('y', bbox.y - offset_py);
    box.setAttribute('width', bbox.width + offset_px * 2);
    box.setAttribute('height', bbox.height + offset_py * 2);
    box.setAttribute('style','fill: white;'+'stroke: black;'+'stroke-width: 1px;');
    text_elem.insertBefore(box,text_elem.childNodes[0]);

    var svg = text_elem.parentNode;
    svg.appendChild(text_elem);
}

for (var i=1; i < 1; i++)
{
draw_bbox("Mouseover" + i);
}
]]> 
</script>
</svg>
