<svg version="1.1"
xmlns="http://www.w3.org/2000/svg"
xmlns:xlink="http://www.w3.org/1999/xlink"
width="3301" height="100" viewBox = "0 0 3301 100"
onclick="mouseclick(evt)">

<script type="text/ecmascript">

<![CDATA[
    function mouseover(evt, target) { 
    var gv = document.getElementById("globalVariable");
    var previoustarget = gv.firstChild.nodeValue;
    if (previoustarget != "none") 
    {
        	document.getElementById(gv.firstChild.nodeValue).setAttributeNS(null, "visibility", "hidden");
    }
    document.getElementById(target).setAttributeNS(null, "visibility", "visible");
    gv.firstChild.nodeValue = target;
        }

    function mouseclick(evt) { 
    var gv = document.getElementById("globalVariable");
    var previoustarget = gv.firstChild.nodeValue;
    if (previoustarget != "none") {
        	document.getElementById(gv.firstChild.nodeValue).setAttributeNS(null, "visibility", "hidden");
        }
    }
]]>
  </script>
<style type="text/css" >

<![CDATA[
    rect.anc_exon {
              stroke-width:3;
                  }

    rect.non_anc_exon {
              stroke: black; stroke-width:3; stroke-dasharray: 5,5;
                    }

    text {
              font-size: 18px;
              font-family: Courier New;
          }
                    ]]>
</style>

<defs>
    <text x="150" y="40" id="globalVariable">none</text>
</defs>

  <rect class="anc_exon" x="0" y="35.0" width="0" height="30" style="fill:#87bcbc;fill-opacity:1.00" />
  <rect class="anc_exon" x="0" y="35.0" width="32.0" height="30" style="fill:#87bcbc;fill-opacity:1.00" />
  <line x1="32.0" y1="50.0" x2="72.0" y2="50.0" style="stroke:#999; stroke-width:3;" />
  <rect class="anc_exon" x="72" y="35.0" width="86" height="30" style="fill:#87bcbc;fill-opacity:1.00" />
  <line x1="158" y1="50.0" x2="198" y2="50.0" style="stroke:#999; stroke-width:3;" />
  <rect class="anc_exon" x="198" y="35.0" width="165" height="30" style="fill:#87bcbc;fill-opacity:1.00" />
  <line x1="363" y1="50.0" x2="403" y2="50.0" style="stroke:#999; stroke-width:3;" />
  <rect class="anc_exon" x="403" y="35.0" width="205" height="30" style="fill:#87bcbc;fill-opacity:1.00" />
  <line x1="608" y1="50.0" x2="648" y2="50.0" style="stroke:#999; stroke-width:3;" />
  <rect class="anc_exon" x="648" y="35.0" width="84" height="30" style="fill:#87bcbc;fill-opacity:1.00" />
  <line x1="732" y1="50.0" x2="772" y2="50.0" style="stroke:#999; stroke-width:3;" />
  <rect class="anc_exon" x="772" y="35.0" width="21" height="30" style="fill:#87bcbc;fill-opacity:1.00" />
  <line x1="793" y1="50.0" x2="833" y2="50.0" style="stroke:#999; stroke-width:3;" />
  <rect class="anc_exon" x="833" y="35.0" width="66" height="30" style="fill:#87bcbc;fill-opacity:1.00" />
  <line x1="899" y1="50.0" x2="939" y2="50.0" style="stroke:#999; stroke-width:3;" />
  <rect class="anc_exon" x="939" y="35.0" width="41" height="30" style="fill:#87bcbc;fill-opacity:1.00" />
  <line x1="980" y1="50.0" x2="1020" y2="50.0" style="stroke:#999; stroke-width:3;" />
  <rect class="anc_exon" x="1020" y="35.0" width="119" height="30" style="fill:#87bcbc;fill-opacity:1.00" />
  <line x1="1139" y1="50.0" x2="1179" y2="50.0" style="stroke:#999; stroke-width:3;" />
  <rect class="anc_exon" x="1179" y="35.0" width="112" height="30" style="fill:#87bcbc;fill-opacity:1.00" />
  <line x1="1291" y1="50.0" x2="1331" y2="50.0" style="stroke:#999; stroke-width:3;" />
  <rect class="anc_exon" x="1331" y="35.0" width="62" height="30" style="fill:#87bcbc;fill-opacity:1.00" />
  <line x1="1393" y1="50.0" x2="1433" y2="50.0" style="stroke:#999; stroke-width:3;" />
  <rect class="anc_exon" x="1433" y="35.0" width="122" height="30" style="fill:#87bcbc;fill-opacity:1.00" />
  <line x1="1555" y1="50.0" x2="1595" y2="50.0" style="stroke:#999; stroke-width:3;" />
  <rect class="anc_exon" x="1595" y="35.0" width="88" height="30" style="fill:#87bcbc;fill-opacity:1.00" />
  <line x1="1683" y1="50.0" x2="1723" y2="50.0" style="stroke:#999; stroke-width:3;" />
  <rect class="anc_exon" x="1723" y="35.0" width="86" height="30" style="fill:#87bcbc;fill-opacity:1.00" />
  <line x1="1809" y1="50.0" x2="1849" y2="50.0" style="stroke:#999; stroke-width:3;" />
  <rect class="anc_exon" x="1849" y="35.0" width="128" height="30" style="fill:#87bcbc;fill-opacity:1.00" />
  <line x1="1977" y1="50.0" x2="2017" y2="50.0" style="stroke:#999; stroke-width:3;" />
  <rect class="anc_exon" x="2017" y="35.0" width="95" height="30" style="fill:#87bcbc;fill-opacity:1.00" />
  <line x1="2112" y1="50.0" x2="2152" y2="50.0" style="stroke:#999; stroke-width:3;" />
  <rect class="anc_exon" x="2152" y="35.0" width="42" height="30" style="fill:#87bcbc;fill-opacity:1.00" />
  <line x1="2194" y1="50.0" x2="2234" y2="50.0" style="stroke:#999; stroke-width:3;" />
  <rect class="anc_exon" x="2234" y="35.0" width="155" height="30" style="fill:#87bcbc;fill-opacity:1.00" />
  <line x1="2389" y1="50.0" x2="2429" y2="50.0" style="stroke:#999; stroke-width:3;" />
  <rect class="anc_exon" x="2429" y="35.0" width="143" height="30" style="fill:#87bcbc;fill-opacity:1.00" />
  <line x1="2572" y1="50.0" x2="2612" y2="50.0" style="stroke:#999; stroke-width:3;" />
  <rect class="anc_exon" x="2612" y="35.0" width="39" height="30" style="fill:#87bcbc;fill-opacity:1.00" />
  <line x1="2651" y1="50.0" x2="2691" y2="50.0" style="stroke:#999; stroke-width:3;" />
  <rect class="anc_exon" x="2691" y="35.0" width="157" height="30" style="fill:#87bcbc;fill-opacity:1.00" />
  <line x1="2848" y1="50.0" x2="2888" y2="50.0" style="stroke:#999; stroke-width:3;" />
  <rect class="anc_exon" x="2888" y="35.0" width="138" height="30" style="fill:#87bcbc;fill-opacity:1.00" />
  <line x1="3026" y1="50.0" x2="3066" y2="50.0" style="stroke:#999; stroke-width:3;" />
  <rect class="anc_exon" x="3066" y="35.0" width="112" height="30" style="fill:#87bcbc;fill-opacity:1.00" />
  <line x1="3178" y1="50.0" x2="3218" y2="50.0" style="stroke:#999; stroke-width:3;" />
  <rect class="anc_exon" x="3218" y="35.0" width="47" height="30" style="fill:#87bcbc;fill-opacity:1.00" />
  <rect class="anc_exon" x="3265" y="35.0" width="0" height="30" style="fill:#87bcbc;fill-opacity:1.00" />
  <text style="" >
<tspan x="0" y="83.0" style="font-size:18px;" >SP XM_012548179_3.1</tspan>  </text>
  <text style="fill:#121212;" >
<tspan x="32.0" y="50.0" style="font-size:18px;fill:#121212;" >aa</tspan>  </text>



<script type="text/ecmascript">
<![CDATA[
function draw_bbox(text_id)
{
    var text_elem = document.getElementById(text_id);
    var offset_px = 2;
    var offset_py = 0;
    bbox = text_elem.getBBox();
    var box = document.createElementNS(document.rootElement.namespaceURI,'rect');
    box.setAttribute('x', bbox.x - offset_px);
    box.setAttribute('y', bbox.y - offset_py);
    box.setAttribute('width', bbox.width + offset_px * 2);
    box.setAttribute('height', bbox.height + offset_py * 2);
    box.setAttribute('style','fill: white;'+'stroke: black;'+'stroke-width: 1px;');
    text_elem.insertBefore(box,text_elem.childNodes[0]);

    var svg = text_elem.parentNode;
    svg.appendChild(text_elem);
}

for (var i=1; i < 1; i++)
{
draw_bbox("Mouseover" + i);
}
]]> 
</script>
</svg>
