<svg version="1.1"
xmlns="http://www.w3.org/2000/svg"
xmlns:xlink="http://www.w3.org/1999/xlink"
width="5404" height="100" viewBox = "0 0 5404 100"
onclick="mouseclick(evt)">

<script type="text/ecmascript">

<![CDATA[
    function mouseover(evt, target) { 
    var gv = document.getElementById("globalVariable");
    var previoustarget = gv.firstChild.nodeValue;
    if (previoustarget != "none") 
    {
        	document.getElementById(gv.firstChild.nodeValue).setAttributeNS(null, "visibility", "hidden");
    }
    document.getElementById(target).setAttributeNS(null, "visibility", "visible");
    gv.firstChild.nodeValue = target;
        }

    function mouseclick(evt) { 
    var gv = document.getElementById("globalVariable");
    var previoustarget = gv.firstChild.nodeValue;
    if (previoustarget != "none") {
        	document.getElementById(gv.firstChild.nodeValue).setAttributeNS(null, "visibility", "hidden");
        }
    }
]]>
  </script>
<style type="text/css" >

<![CDATA[
    rect.anc_exon {
              stroke-width:3;
                  }

    rect.non_anc_exon {
              stroke: black; stroke-width:3; stroke-dasharray: 5,5;
                    }

    text {
              font-size: 18px;
              font-family: Courier New;
          }
                    ]]>
</style>

<defs>
    <text x="150" y="40" id="globalVariable">none</text>
</defs>

  <rect class="anc_exon" x="0" y="35.0" width="0" height="30" style="fill:#87bcbc;fill-opacity:1.00" />
  <rect class="anc_exon" x="0" y="35.0" width="136.0" height="30" style="fill:#87bcbc;fill-opacity:1.00" />
  <line x1="136.0" y1="50.0" x2="156.0" y2="50.0" style="stroke:#999; stroke-width:3;" />
  <line x1="156.0" y1="50.0" x2="156.0" y2="50.0" style="stroke:#999; stroke-width:3;" />
  <line x1="156.0" y1="50.0" x2="156.0" y2="50.0" style="stroke:#999; stroke-width:3;" />
  <line x1="156.0" y1="50.0" x2="176.0" y2="50.0" style="stroke:#999; stroke-width:3;" />
  <rect class="anc_exon" x="176" y="35.0" width="64" height="30" style="fill:#87bcbc;fill-opacity:1.00" />
  <line x1="240" y1="50.0" x2="260" y2="50.0" style="stroke:#999; stroke-width:3;" />
  <line x1="260" y1="50.0" x2="260" y2="50.0" style="stroke:#999; stroke-width:3;" />
  <line x1="260" y1="50.0" x2="260" y2="50.0" style="stroke:#999; stroke-width:3;" />
  <line x1="260" y1="50.0" x2="280" y2="50.0" style="stroke:#999; stroke-width:3;" />
  <rect class="anc_exon" x="280" y="35.0" width="171" height="30" style="fill:#87bcbc;fill-opacity:1.00" />
  <line x1="451" y1="50.0" x2="471" y2="50.0" style="stroke:#999; stroke-width:3;" />
  <line x1="471" y1="50.0" x2="471" y2="50.0" style="stroke:#999; stroke-width:3;" />
  <line x1="471" y1="50.0" x2="471" y2="50.0" style="stroke:#999; stroke-width:3;" />
  <line x1="471" y1="50.0" x2="491" y2="50.0" style="stroke:#999; stroke-width:3;" />
  <rect class="anc_exon" x="491" y="35.0" width="9" height="30" style="fill:#87bcbc;fill-opacity:1.00" />
  <line x1="500" y1="50.0" x2="520" y2="50.0" style="stroke:#999; stroke-width:3;" />
  <line x1="520" y1="50.0" x2="520" y2="50.0" style="stroke:#999; stroke-width:3;" />
  <line x1="520" y1="50.0" x2="520" y2="50.0" style="stroke:#999; stroke-width:3;" />
  <line x1="520" y1="50.0" x2="540" y2="50.0" style="stroke:#999; stroke-width:3;" />
  <rect class="anc_exon" x="540" y="35.0" width="270" height="30" style="fill:#87bcbc;fill-opacity:1.00" />
  <line x1="810" y1="50.0" x2="830" y2="50.0" style="stroke:#999; stroke-width:3;" />
  <line x1="830" y1="50.0" x2="830" y2="50.0" style="stroke:#999; stroke-width:3;" />
  <line x1="830" y1="50.0" x2="830" y2="50.0" style="stroke:#999; stroke-width:3;" />
  <line x1="830" y1="50.0" x2="850" y2="50.0" style="stroke:#999; stroke-width:3;" />
  <rect class="anc_exon" x="850" y="35.0" width="692" height="30" style="fill:#87bcbc;fill-opacity:1.00" />
  <line x1="1542" y1="50.0" x2="1562" y2="50.0" style="stroke:#999; stroke-width:3;" />
  <line x1="1562" y1="50.0" x2="1562" y2="50.0" style="stroke:#999; stroke-width:3;" />
  <line x1="1562" y1="50.0" x2="1562" y2="50.0" style="stroke:#999; stroke-width:3;" />
  <line x1="1562" y1="50.0" x2="1582" y2="50.0" style="stroke:#999; stroke-width:3;" />
  <rect class="anc_exon" x="1582" y="35.0" width="54" height="30" style="fill:#87bcbc;fill-opacity:1.00" />
  <line x1="1636" y1="50.0" x2="1676" y2="50.0" style="stroke:#999; stroke-width:3;" />
  <rect class="anc_exon" x="1676" y="35.0" width="88" height="30" style="fill:#87bcbc;fill-opacity:1.00" />
  <line x1="1764" y1="50.0" x2="1784" y2="50.0" style="stroke:#999; stroke-width:3;" />
  <line x1="1784" y1="50.0" x2="1784" y2="50.0" style="stroke:#999; stroke-width:3;" />
  <line x1="1784" y1="50.0" x2="1784" y2="50.0" style="stroke:#999; stroke-width:3;" />
  <line x1="1784" y1="50.0" x2="1804" y2="50.0" style="stroke:#999; stroke-width:3;" />
  <rect class="anc_exon" x="1804" y="35.0" width="80" height="30" style="fill:#87bcbc;fill-opacity:1.00" />
  <line x1="1884" y1="50.0" x2="1904" y2="50.0" style="stroke:#999; stroke-width:3;" />
  <line x1="1904" y1="50.0" x2="1904" y2="50.0" style="stroke:#999; stroke-width:3;" />
  <line x1="1904" y1="50.0" x2="1904" y2="50.0" style="stroke:#999; stroke-width:3;" />
  <line x1="1904" y1="50.0" x2="1924" y2="50.0" style="stroke:#999; stroke-width:3;" />
  <rect class="anc_exon" x="1924" y="35.0" width="99" height="30" style="fill:#87bcbc;fill-opacity:1.00" />
  <line x1="2023" y1="50.0" x2="2043" y2="50.0" style="stroke:#999; stroke-width:3;" />
  <line x1="2043" y1="50.0" x2="2043" y2="50.0" style="stroke:#999; stroke-width:3;" />
  <line x1="2043" y1="50.0" x2="2043" y2="50.0" style="stroke:#999; stroke-width:3;" />
  <line x1="2043" y1="50.0" x2="2063" y2="50.0" style="stroke:#999; stroke-width:3;" />
  <rect class="anc_exon" x="2063" y="35.0" width="37" height="30" style="fill:#87bcbc;fill-opacity:1.00" />
  <line x1="2100" y1="50.0" x2="2120" y2="50.0" style="stroke:#999; stroke-width:3;" />
  <line x1="2120" y1="50.0" x2="2120" y2="50.0" style="stroke:#999; stroke-width:3;" />
  <line x1="2120" y1="50.0" x2="2120" y2="50.0" style="stroke:#999; stroke-width:3;" />
  <line x1="2120" y1="50.0" x2="2140" y2="50.0" style="stroke:#999; stroke-width:3;" />
  <rect class="anc_exon" x="2140" y="35.0" width="90" height="30" style="fill:#87bcbc;fill-opacity:1.00" />
  <line x1="2230" y1="50.0" x2="2250" y2="50.0" style="stroke:#999; stroke-width:3;" />
  <line x1="2250" y1="50.0" x2="2250" y2="50.0" style="stroke:#999; stroke-width:3;" />
  <line x1="2250" y1="50.0" x2="2250" y2="50.0" style="stroke:#999; stroke-width:3;" />
  <line x1="2250" y1="50.0" x2="2270" y2="50.0" style="stroke:#999; stroke-width:3;" />
  <rect class="anc_exon" x="2270" y="35.0" width="104" height="30" style="fill:#87bcbc;fill-opacity:1.00" />
  <line x1="2374" y1="50.0" x2="2414" y2="50.0" style="stroke:#999; stroke-width:3;" />
  <rect class="anc_exon" x="2414" y="35.0" width="137" height="30" style="fill:#87bcbc;fill-opacity:1.00" />
  <line x1="2551" y1="50.0" x2="2591" y2="50.0" style="stroke:#999; stroke-width:3;" />
  <rect class="anc_exon" x="2591" y="35.0" width="123" height="30" style="fill:#87bcbc;fill-opacity:1.00" />
  <line x1="2714" y1="50.0" x2="2734" y2="50.0" style="stroke:#999; stroke-width:3;" />
  <line x1="2734" y1="50.0" x2="2734" y2="50.0" style="stroke:#999; stroke-width:3;" />
  <line x1="2734" y1="50.0" x2="2734" y2="50.0" style="stroke:#999; stroke-width:3;" />
  <line x1="2734" y1="50.0" x2="2754" y2="50.0" style="stroke:#999; stroke-width:3;" />
  <rect class="anc_exon" x="2754" y="35.0" width="57" height="30" style="fill:#87bcbc;fill-opacity:1.00" />
  <line x1="2811" y1="50.0" x2="2831" y2="50.0" style="stroke:#999; stroke-width:3;" />
  <line x1="2831" y1="50.0" x2="2831" y2="50.0" style="stroke:#999; stroke-width:3;" />
  <line x1="2831" y1="50.0" x2="2831" y2="50.0" style="stroke:#999; stroke-width:3;" />
  <line x1="2831" y1="50.0" x2="2851" y2="50.0" style="stroke:#999; stroke-width:3;" />
  <rect class="anc_exon" x="2851" y="35.0" width="125" height="30" style="fill:#87bcbc;fill-opacity:1.00" />
  <line x1="2976" y1="50.0" x2="3016" y2="50.0" style="stroke:#999; stroke-width:3;" />
  <rect class="anc_exon" x="3016" y="35.0" width="100" height="30" style="fill:#87bcbc;fill-opacity:1.00" />
  <line x1="3116" y1="50.0" x2="3136" y2="50.0" style="stroke:#999; stroke-width:3;" />
  <line x1="3136" y1="50.0" x2="3136" y2="50.0" style="stroke:#999; stroke-width:3;" />
  <line x1="3136" y1="50.0" x2="3136" y2="50.0" style="stroke:#999; stroke-width:3;" />
  <line x1="3136" y1="50.0" x2="3156" y2="50.0" style="stroke:#999; stroke-width:3;" />
  <rect class="anc_exon" x="3156" y="35.0" width="50" height="30" style="fill:#87bcbc;fill-opacity:1.00" />
  <line x1="3206" y1="50.0" x2="3226" y2="50.0" style="stroke:#999; stroke-width:3;" />
  <line x1="3226" y1="50.0" x2="3226" y2="50.0" style="stroke:#999; stroke-width:3;" />
  <line x1="3226" y1="50.0" x2="3226" y2="50.0" style="stroke:#999; stroke-width:3;" />
  <line x1="3226" y1="50.0" x2="3246" y2="50.0" style="stroke:#999; stroke-width:3;" />
  <rect class="anc_exon" x="3246" y="35.0" width="62" height="30" style="fill:#87bcbc;fill-opacity:1.00" />
  <line x1="3308" y1="50.0" x2="3348" y2="50.0" style="stroke:#999; stroke-width:3;" />
  <rect class="anc_exon" x="3348" y="35.0" width="88" height="30" style="fill:#87bcbc;fill-opacity:1.00" />
  <line x1="3436" y1="50.0" x2="3476" y2="50.0" style="stroke:#999; stroke-width:3;" />
  <rect class="anc_exon" x="3476" y="35.0" width="72" height="30" style="fill:#87bcbc;fill-opacity:1.00" />
  <line x1="3548" y1="50.0" x2="3568" y2="50.0" style="stroke:#999; stroke-width:3;" />
  <line x1="3568" y1="50.0" x2="3568" y2="50.0" style="stroke:#999; stroke-width:3;" />
  <line x1="3568" y1="50.0" x2="3568" y2="50.0" style="stroke:#999; stroke-width:3;" />
  <line x1="3568" y1="50.0" x2="3588" y2="50.0" style="stroke:#999; stroke-width:3;" />
  <rect class="anc_exon" x="3588" y="35.0" width="67" height="30" style="fill:#87bcbc;fill-opacity:1.00" />
  <line x1="3655" y1="50.0" x2="3675" y2="50.0" style="stroke:#999; stroke-width:3;" />
  <line x1="3675" y1="50.0" x2="3675" y2="50.0" style="stroke:#999; stroke-width:3;" />
  <line x1="3675" y1="50.0" x2="3675" y2="50.0" style="stroke:#999; stroke-width:3;" />
  <line x1="3675" y1="50.0" x2="3695" y2="50.0" style="stroke:#999; stroke-width:3;" />
  <rect class="anc_exon" x="3695" y="35.0" width="57" height="30" style="fill:#87bcbc;fill-opacity:1.00" />
  <line x1="3752" y1="50.0" x2="3772" y2="50.0" style="stroke:#999; stroke-width:3;" />
  <line x1="3772" y1="50.0" x2="3772" y2="50.0" style="stroke:#999; stroke-width:3;" />
  <line x1="3772" y1="50.0" x2="3772" y2="50.0" style="stroke:#999; stroke-width:3;" />
  <line x1="3772" y1="50.0" x2="3792" y2="50.0" style="stroke:#999; stroke-width:3;" />
  <rect class="anc_exon" x="3792" y="35.0" width="146" height="30" style="fill:#87bcbc;fill-opacity:1.00" />
  <line x1="3938" y1="50.0" x2="3978" y2="50.0" style="stroke:#999; stroke-width:3;" />
  <rect class="anc_exon" x="3978" y="35.0" width="90" height="30" style="fill:#87bcbc;fill-opacity:1.00" />
  <line x1="4068" y1="50.0" x2="4088" y2="50.0" style="stroke:#999; stroke-width:3;" />
  <line x1="4088" y1="50.0" x2="4088" y2="50.0" style="stroke:#999; stroke-width:3;" />
  <line x1="4088" y1="50.0" x2="4088" y2="50.0" style="stroke:#999; stroke-width:3;" />
  <line x1="4088" y1="50.0" x2="4108" y2="50.0" style="stroke:#999; stroke-width:3;" />
  <rect class="anc_exon" x="4108" y="35.0" width="90" height="30" style="fill:#87bcbc;fill-opacity:1.00" />
  <line x1="4198" y1="50.0" x2="4218" y2="50.0" style="stroke:#999; stroke-width:3;" />
  <line x1="4218" y1="50.0" x2="4218" y2="50.0" style="stroke:#999; stroke-width:3;" />
  <line x1="4218" y1="50.0" x2="4218" y2="50.0" style="stroke:#999; stroke-width:3;" />
  <line x1="4218" y1="50.0" x2="4238" y2="50.0" style="stroke:#999; stroke-width:3;" />
  <rect class="anc_exon" x="4238" y="35.0" width="133" height="30" style="fill:#87bcbc;fill-opacity:1.00" />
  <line x1="4371" y1="50.0" x2="4391" y2="50.0" style="stroke:#999; stroke-width:3;" />
  <line x1="4391" y1="50.0" x2="4391" y2="50.0" style="stroke:#999; stroke-width:3;" />
  <line x1="4391" y1="50.0" x2="4391" y2="50.0" style="stroke:#999; stroke-width:3;" />
  <line x1="4391" y1="50.0" x2="4411" y2="50.0" style="stroke:#999; stroke-width:3;" />
  <rect class="anc_exon" x="4411" y="35.0" width="188" height="30" style="fill:#87bcbc;fill-opacity:1.00" />
  <line x1="4599" y1="50.0" x2="4619" y2="50.0" style="stroke:#999; stroke-width:3;" />
  <line x1="4619" y1="50.0" x2="4619" y2="50.0" style="stroke:#999; stroke-width:3;" />
  <line x1="4619" y1="50.0" x2="4619" y2="50.0" style="stroke:#999; stroke-width:3;" />
  <line x1="4619" y1="50.0" x2="4639" y2="50.0" style="stroke:#999; stroke-width:3;" />
  <rect class="anc_exon" x="4639" y="35.0" width="111" height="30" style="fill:#87bcbc;fill-opacity:1.00" />
  <line x1="4750" y1="50.0" x2="4770" y2="50.0" style="stroke:#999; stroke-width:3;" />
  <line x1="4770" y1="50.0" x2="4770" y2="50.0" style="stroke:#999; stroke-width:3;" />
  <line x1="4770" y1="50.0" x2="4770" y2="50.0" style="stroke:#999; stroke-width:3;" />
  <line x1="4770" y1="50.0" x2="4790" y2="50.0" style="stroke:#999; stroke-width:3;" />
  <rect class="anc_exon" x="4790" y="35.0" width="90" height="30" style="fill:#87bcbc;fill-opacity:1.00" />
  <line x1="4880" y1="50.0" x2="4920" y2="50.0" style="stroke:#999; stroke-width:3;" />
  <rect class="anc_exon" x="4920" y="35.0" width="81" height="30" style="fill:#87bcbc;fill-opacity:1.00" />
  <line x1="5001" y1="50.0" x2="5041" y2="50.0" style="stroke:#999; stroke-width:3;" />
  <rect class="anc_exon" x="5041" y="35.0" width="112" height="30" style="fill:#87bcbc;fill-opacity:1.00" />
  <line x1="5153" y1="50.0" x2="5173" y2="50.0" style="stroke:#999; stroke-width:3;" />
  <line x1="5173" y1="50.0" x2="5173" y2="50.0" style="stroke:#999; stroke-width:3;" />
  <line x1="5173" y1="50.0" x2="5173" y2="50.0" style="stroke:#999; stroke-width:3;" />
  <line x1="5173" y1="50.0" x2="5193" y2="50.0" style="stroke:#999; stroke-width:3;" />
  <rect class="anc_exon" x="5193" y="35.0" width="175" height="30" style="fill:#87bcbc;fill-opacity:1.00" />
  <rect class="anc_exon" x="5368" y="35.0" width="0" height="30" style="fill:#87bcbc;fill-opacity:1.00" />
  <text style="" >
<tspan x="0" y="83.0" style="font-size:18px;" >SP XM_031964659_1.1</tspan>  </text>



<script type="text/ecmascript">
<![CDATA[
function draw_bbox(text_id)
{
    var text_elem = document.getElementById(text_id);
    var offset_px = 2;
    var offset_py = 0;
    bbox = text_elem.getBBox();
    var box = document.createElementNS(document.rootElement.namespaceURI,'rect');
    box.setAttribute('x', bbox.x - offset_px);
    box.setAttribute('y', bbox.y - offset_py);
    box.setAttribute('width', bbox.width + offset_px * 2);
    box.setAttribute('height', bbox.height + offset_py * 2);
    box.setAttribute('style','fill: white;'+'stroke: black;'+'stroke-width: 1px;');
    text_elem.insertBefore(box,text_elem.childNodes[0]);

    var svg = text_elem.parentNode;
    svg.appendChild(text_elem);
}

for (var i=1; i < 1; i++)
{
draw_bbox("Mouseover" + i);
}
]]> 
</script>
</svg>
