<svg version="1.1"
xmlns="http://www.w3.org/2000/svg"
xmlns:xlink="http://www.w3.org/1999/xlink"
width="3746" height="110.0" viewBox = "0 -10.0 3746 110.0"
onclick="mouseclick(evt)">

<script type="text/ecmascript">

<![CDATA[
    function mouseover(evt, target) { 
    var gv = document.getElementById("globalVariable");
    var previoustarget = gv.firstChild.nodeValue;
    if (previoustarget != "none") 
    {
        	document.getElementById(gv.firstChild.nodeValue).setAttributeNS(null, "visibility", "hidden");
    }
    document.getElementById(target).setAttributeNS(null, "visibility", "visible");
    gv.firstChild.nodeValue = target;
        }

    function mouseclick(evt) { 
    var gv = document.getElementById("globalVariable");
    var previoustarget = gv.firstChild.nodeValue;
    if (previoustarget != "none") {
        	document.getElementById(gv.firstChild.nodeValue).setAttributeNS(null, "visibility", "hidden");
        }
    }
]]>
  </script>
<style type="text/css" >

<![CDATA[
    rect.anc_exon {
              stroke-width:3;
                  }

    rect.non_anc_exon {
              stroke: black; stroke-width:3; stroke-dasharray: 5,5;
                    }

    text {
              font-size: 18px;
              font-family: Courier New;
          }
                    ]]>
</style>

<defs>
    <text x="150" y="40" id="globalVariable">none</text>
</defs>

  <rect class="anc_exon" x="0" y="35.0" width="0" height="30" style="fill:#87bcbc;fill-opacity:1.00" />
  <rect class="anc_exon" x="0" y="35.0" width="48.800000000000004" height="30" style="fill:#87bcbc;fill-opacity:1.00" />
  <line x1="48.800000000000004" y1="50.0" x2="67.80000000000001" y2="50.0" style="stroke:#999; stroke-width:3;" />
  <line x1="67.80000000000001" y1="50.0" x2="67.80000000000001" y2="50.0" style="stroke:#999; stroke-width:3;" />
  <line x1="67.80000000000001" y1="50.0" x2="67.80000000000001" y2="50.0" style="stroke:#999; stroke-width:3;" />
  <line x1="67.80000000000001" y1="50.0" x2="88.0" y2="50.0" style="stroke:#999; stroke-width:3;" />
  <rect class="anc_exon" x="88" y="35.0" width="75" height="30" style="fill:#87bcbc;fill-opacity:1.00" />
  <line x1="163" y1="50.0" x2="183" y2="50.0" style="stroke:#999; stroke-width:3;" />
  <line x1="183" y1="50.0" x2="183" y2="50.0" style="stroke:#999; stroke-width:3;" />
  <line x1="183" y1="50.0" x2="183" y2="50.0" style="stroke:#999; stroke-width:3;" />
  <line x1="183" y1="50.0" x2="203" y2="50.0" style="stroke:#999; stroke-width:3;" />
  <rect class="anc_exon" x="203" y="35.0" width="48" height="30" style="fill:#87bcbc;fill-opacity:1.00" />
  <line x1="251" y1="50.0" x2="271" y2="50.0" style="stroke:#999; stroke-width:3;" />
  <line x1="271" y1="50.0" x2="271" y2="50.0" style="stroke:#999; stroke-width:3;" />
  <line x1="271" y1="50.0" x2="271" y2="50.0" style="stroke:#999; stroke-width:3;" />
  <line x1="271" y1="50.0" x2="291" y2="50.0" style="stroke:#999; stroke-width:3;" />
  <rect class="anc_exon" x="291" y="35.0" width="116" height="30" style="fill:#87bcbc;fill-opacity:1.00" />
  <line x1="407" y1="50.0" x2="447" y2="50.0" style="stroke:#999; stroke-width:3;" />
  <rect class="anc_exon" x="447" y="35.0" width="84" height="30" style="fill:#87bcbc;fill-opacity:1.00" />
  <line x1="531" y1="50.0" x2="551" y2="50.0" style="stroke:#999; stroke-width:3;" />
  <line x1="551" y1="50.0" x2="551" y2="50.0" style="stroke:#999; stroke-width:3;" />
  <line x1="551" y1="50.0" x2="551" y2="50.0" style="stroke:#999; stroke-width:3;" />
  <line x1="551" y1="50.0" x2="571" y2="50.0" style="stroke:#999; stroke-width:3;" />
  <rect class="anc_exon" x="571" y="35.0" width="16" height="30" style="fill:#87bcbc;fill-opacity:1.00" />
  <line x1="587" y1="50.0" x2="607" y2="50.0" style="stroke:#999; stroke-width:3;" />
  <line x1="607" y1="50.0" x2="607" y2="50.0" style="stroke:#999; stroke-width:3;" />
  <line x1="607" y1="50.0" x2="607" y2="50.0" style="stroke:#999; stroke-width:3;" />
  <line x1="607" y1="50.0" x2="627" y2="50.0" style="stroke:#999; stroke-width:3;" />
  <rect class="anc_exon" x="627" y="35.0" width="56" height="30" style="fill:#87bcbc;fill-opacity:1.00" />
  <line x1="683" y1="50.0" x2="703" y2="50.0" style="stroke:#999; stroke-width:3;" />
  <line x1="703" y1="50.0" x2="703" y2="50.0" style="stroke:#999; stroke-width:3;" />
  <line x1="703" y1="50.0" x2="703" y2="50.0" style="stroke:#999; stroke-width:3;" />
  <line x1="703" y1="50.0" x2="723" y2="50.0" style="stroke:#999; stroke-width:3;" />
  <rect class="anc_exon" x="723" y="35.0" width="116" height="30" style="fill:#87bcbc;fill-opacity:1.00" />
  <line x1="839" y1="50.0" x2="859" y2="50.0" style="stroke:#999; stroke-width:3;" />
  <line x1="859" y1="50.0" x2="859" y2="50.0" style="stroke:#999; stroke-width:3;" />
  <line x1="859" y1="50.0" x2="859" y2="50.0" style="stroke:#999; stroke-width:3;" />
  <line x1="859" y1="50.0" x2="879" y2="50.0" style="stroke:#999; stroke-width:3;" />
  <rect class="anc_exon" x="879" y="35.0" width="305" height="30" style="fill:#87bcbc;fill-opacity:1.00" />
  <line x1="1184" y1="50.0" x2="1204" y2="50.0" style="stroke:#999; stroke-width:3;" />
  <line x1="1204" y1="50.0" x2="1204" y2="50.0" style="stroke:#999; stroke-width:3;" />
  <line x1="1204" y1="50.0" x2="1204" y2="50.0" style="stroke:#999; stroke-width:3;" />
  <line x1="1204" y1="50.0" x2="1224" y2="50.0" style="stroke:#999; stroke-width:3;" />
  <rect class="anc_exon" x="1224" y="35.0" width="186" height="30" style="fill:#87bcbc;fill-opacity:1.00" />
  <line x1="1410" y1="50.0" x2="1450" y2="50.0" style="stroke:#999; stroke-width:3;" />
  <rect class="anc_exon" x="1450" y="35.0" width="136" height="30" style="fill:#87bcbc;fill-opacity:1.00" />
  <line x1="1586" y1="50.0" x2="1606" y2="50.0" style="stroke:#999; stroke-width:3;" />
  <line x1="1606" y1="50.0" x2="1606" y2="50.0" style="stroke:#999; stroke-width:3;" />
  <line x1="1606" y1="50.0" x2="1606" y2="50.0" style="stroke:#999; stroke-width:3;" />
  <line x1="1606" y1="50.0" x2="1626" y2="50.0" style="stroke:#999; stroke-width:3;" />
  <rect class="anc_exon" x="1626" y="35.0" width="24" height="30" style="fill:#87bcbc;fill-opacity:1.00" />
  <line x1="1641.6" y1="35.0" x2="1641.6" y2="65.0" style="stroke:#121212; stroke-width:0.8; stroke-opacity:1"/>
  <text style="" text-anchor="middle">
<tspan x="1641.2" y="26.0" style="font-size:18px;fill:#121212;" >-1</tspan>  </text>
  <line x1="1650" y1="50.0" x2="1670" y2="50.0" style="stroke:#999; stroke-width:3;" />
  <line x1="1670" y1="50.0" x2="1670" y2="50.0" style="stroke:#999; stroke-width:3;" />
  <line x1="1670" y1="50.0" x2="1670" y2="50.0" style="stroke:#999; stroke-width:3;" />
  <line x1="1670" y1="50.0" x2="1690" y2="50.0" style="stroke:#999; stroke-width:3;" />
  <rect class="anc_exon" x="1690" y="35.0" width="27" height="30" style="fill:#87bcbc;fill-opacity:1.00" />
  <line x1="1717" y1="50.0" x2="1757" y2="50.0" style="stroke:#999; stroke-width:3;" />
  <rect class="anc_exon" x="1757" y="35.0" width="151" height="30" style="fill:#87bcbc;fill-opacity:1.00" />
  <line x1="1908" y1="50.0" x2="1948" y2="50.0" style="stroke:#999; stroke-width:3;" />
  <rect class="anc_exon" x="1948" y="35.0" width="181" height="30" style="fill:#87bcbc;fill-opacity:1.00" />
  <line x1="2129" y1="50.0" x2="2169" y2="50.0" style="stroke:#999; stroke-width:3;" />
  <rect class="anc_exon" x="2169" y="35.0" width="90" height="30" style="fill:#87bcbc;fill-opacity:1.00" />
  <line x1="2259" y1="50.0" x2="2299" y2="50.0" style="stroke:#999; stroke-width:3;" />
  <rect class="anc_exon" x="2299" y="35.0" width="93" height="30" style="fill:#87bcbc;fill-opacity:1.00" />
  <line x1="2392" y1="50.0" x2="2432" y2="50.0" style="stroke:#999; stroke-width:3;" />
  <rect class="anc_exon" x="2432" y="35.0" width="98" height="30" style="fill:#87bcbc;fill-opacity:1.00" />
  <line x1="2530" y1="50.0" x2="2570" y2="50.0" style="stroke:#999; stroke-width:3;" />
  <rect class="anc_exon" x="2570" y="35.0" width="74" height="30" style="fill:#87bcbc;fill-opacity:1.00" />
  <line x1="2644" y1="50.0" x2="2684" y2="50.0" style="stroke:#999; stroke-width:3;" />
  <rect class="anc_exon" x="2684" y="35.0" width="330" height="30" style="fill:#87bcbc;fill-opacity:1.00" />
  <line x1="3014" y1="50.0" x2="3034" y2="50.0" style="stroke:#999; stroke-width:3;" />
  <line x1="3034" y1="50.0" x2="3034" y2="50.0" style="stroke:#999; stroke-width:3;" />
  <line x1="3034" y1="50.0" x2="3034" y2="50.0" style="stroke:#999; stroke-width:3;" />
  <line x1="3034" y1="50.0" x2="3054" y2="50.0" style="stroke:#999; stroke-width:3;" />
  <rect class="anc_exon" x="3054" y="35.0" width="85" height="30" style="fill:#87bcbc;fill-opacity:1.00" />
  <line x1="3139" y1="50.0" x2="3179" y2="50.0" style="stroke:#999; stroke-width:3;" />
  <rect class="anc_exon" x="3179" y="35.0" width="68" height="30" style="fill:#87bcbc;fill-opacity:1.00" />
  <line x1="3247" y1="50.0" x2="3267" y2="50.0" style="stroke:#999; stroke-width:3;" />
  <line x1="3267" y1="50.0" x2="3267" y2="50.0" style="stroke:#999; stroke-width:3;" />
  <line x1="3267" y1="50.0" x2="3267" y2="50.0" style="stroke:#999; stroke-width:3;" />
  <line x1="3267" y1="50.0" x2="3287" y2="50.0" style="stroke:#999; stroke-width:3;" />
  <rect class="anc_exon" x="3287" y="35.0" width="55" height="30" style="fill:#87bcbc;fill-opacity:1.00" />
  <line x1="3342" y1="50.0" x2="3382" y2="50.0" style="stroke:#999; stroke-width:3;" />
  <rect class="anc_exon" x="3382" y="35.0" width="120" height="30" style="fill:#87bcbc;fill-opacity:1.00" />
  <line x1="3502" y1="50.0" x2="3542" y2="50.0" style="stroke:#999; stroke-width:3;" />
  <rect class="anc_exon" x="3542" y="35.0" width="168" height="30" style="fill:#87bcbc;fill-opacity:1.00" />
  <rect class="anc_exon" x="3710" y="35.0" width="0" height="30" style="fill:#87bcbc;fill-opacity:1.00" />
  <text style="" >
<tspan x="0" y="83.0" style="font-size:18px;" >SP XM_012549165_3.1</tspan>  </text>



<script type="text/ecmascript">
<![CDATA[
function draw_bbox(text_id)
{
    var text_elem = document.getElementById(text_id);
    var offset_px = 2;
    var offset_py = 0;
    bbox = text_elem.getBBox();
    var box = document.createElementNS(document.rootElement.namespaceURI,'rect');
    box.setAttribute('x', bbox.x - offset_px);
    box.setAttribute('y', bbox.y - offset_py);
    box.setAttribute('width', bbox.width + offset_px * 2);
    box.setAttribute('height', bbox.height + offset_py * 2);
    box.setAttribute('style','fill: white;'+'stroke: black;'+'stroke-width: 1px;');
    text_elem.insertBefore(box,text_elem.childNodes[0]);

    var svg = text_elem.parentNode;
    svg.appendChild(text_elem);
}

for (var i=1; i < 1; i++)
{
draw_bbox("Mouseover" + i);
}
]]> 
</script>
</svg>
