<svg version="1.1"
xmlns="http://www.w3.org/2000/svg"
xmlns:xlink="http://www.w3.org/1999/xlink"
width="1573" height="100" viewBox = "0 0 1573 100"
onclick="mouseclick(evt)">

<script type="text/ecmascript">

<![CDATA[
    function mouseover(evt, target) { 
    var gv = document.getElementById("globalVariable");
    var previoustarget = gv.firstChild.nodeValue;
    if (previoustarget != "none") 
    {
        	document.getElementById(gv.firstChild.nodeValue).setAttributeNS(null, "visibility", "hidden");
    }
    document.getElementById(target).setAttributeNS(null, "visibility", "visible");
    gv.firstChild.nodeValue = target;
        }

    function mouseclick(evt) { 
    var gv = document.getElementById("globalVariable");
    var previoustarget = gv.firstChild.nodeValue;
    if (previoustarget != "none") {
        	document.getElementById(gv.firstChild.nodeValue).setAttributeNS(null, "visibility", "hidden");
        }
    }
]]>
  </script>
<style type="text/css" >

<![CDATA[
    rect.anc_exon {
              stroke-width:3;
                  }

    rect.non_anc_exon {
              stroke: black; stroke-width:3; stroke-dasharray: 5,5;
                    }

    text {
              font-size: 18px;
              font-family: Courier New;
          }
                    ]]>
</style>

<defs>
    <text x="150" y="40" id="globalVariable">none</text>
</defs>

  <rect class="anc_exon" x="0" y="35.0" width="0" height="30" style="fill:#87bcbc;fill-opacity:1.00" />
  <rect class="anc_exon" x="0" y="35.0" width="143.20000000000002" height="30" style="fill:#87bcbc;fill-opacity:1.00" />
  <line x1="143.20000000000002" y1="50.0" x2="183.0" y2="50.0" style="stroke:#999; stroke-width:3;" />
  <rect class="anc_exon" x="183" y="35.0" width="70" height="30" style="fill:#87bcbc;fill-opacity:1.00" />
  <line x1="253" y1="50.0" x2="273" y2="50.0" style="stroke:#999; stroke-width:3;" />
  <line x1="273" y1="50.0" x2="273" y2="50.0" style="stroke:#999; stroke-width:3;" />
  <line x1="273" y1="50.0" x2="273" y2="50.0" style="stroke:#999; stroke-width:3;" />
  <line x1="273" y1="50.0" x2="293" y2="50.0" style="stroke:#999; stroke-width:3;" />
  <rect class="anc_exon" x="293" y="35.0" width="33" height="30" style="fill:#87bcbc;fill-opacity:1.00" />
  <line x1="326" y1="50.0" x2="366" y2="50.0" style="stroke:#999; stroke-width:3;" />
  <rect class="anc_exon" x="366" y="35.0" width="96" height="30" style="fill:#87bcbc;fill-opacity:1.00" />
  <line x1="462" y1="50.0" x2="482" y2="50.0" style="stroke:#999; stroke-width:3;" />
  <line x1="482" y1="50.0" x2="482" y2="50.0" style="stroke:#999; stroke-width:3;" />
  <line x1="482" y1="50.0" x2="482" y2="50.0" style="stroke:#999; stroke-width:3;" />
  <line x1="482" y1="50.0" x2="502" y2="50.0" style="stroke:#999; stroke-width:3;" />
  <rect class="anc_exon" x="502" y="35.0" width="48" height="30" style="fill:#87bcbc;fill-opacity:1.00" />
  <line x1="550" y1="50.0" x2="570" y2="50.0" style="stroke:#999; stroke-width:3;" />
  <line x1="570" y1="50.0" x2="570" y2="50.0" style="stroke:#999; stroke-width:3;" />
  <line x1="570" y1="50.0" x2="570" y2="50.0" style="stroke:#999; stroke-width:3;" />
  <line x1="570" y1="50.0" x2="590" y2="50.0" style="stroke:#999; stroke-width:3;" />
  <rect class="anc_exon" x="590" y="35.0" width="55" height="30" style="fill:#87bcbc;fill-opacity:1.00" />
  <line x1="645" y1="50.0" x2="685" y2="50.0" style="stroke:#999; stroke-width:3;" />
  <rect class="anc_exon" x="685" y="35.0" width="117" height="30" style="fill:#87bcbc;fill-opacity:1.00" />
  <line x1="802" y1="50.0" x2="822" y2="50.0" style="stroke:#999; stroke-width:3;" />
  <line x1="822" y1="50.0" x2="822" y2="50.0" style="stroke:#999; stroke-width:3;" />
  <line x1="822" y1="50.0" x2="822" y2="50.0" style="stroke:#999; stroke-width:3;" />
  <line x1="822" y1="50.0" x2="842" y2="50.0" style="stroke:#999; stroke-width:3;" />
  <rect class="anc_exon" x="842" y="35.0" width="100" height="30" style="fill:#87bcbc;fill-opacity:1.00" />
  <line x1="942" y1="50.0" x2="962" y2="50.0" style="stroke:#999; stroke-width:3;" />
  <line x1="962" y1="50.0" x2="962" y2="50.0" style="stroke:#999; stroke-width:3;" />
  <line x1="962" y1="50.0" x2="962" y2="50.0" style="stroke:#999; stroke-width:3;" />
  <line x1="962" y1="50.0" x2="982" y2="50.0" style="stroke:#999; stroke-width:3;" />
  <rect class="anc_exon" x="982" y="35.0" width="167" height="30" style="fill:#87bcbc;fill-opacity:1.00" />
  <line x1="1149" y1="50.0" x2="1189" y2="50.0" style="stroke:#999; stroke-width:3;" />
  <rect class="anc_exon" x="1189" y="35.0" width="72" height="30" style="fill:#87bcbc;fill-opacity:1.00" />
  <line x1="1261" y1="50.0" x2="1301" y2="50.0" style="stroke:#999; stroke-width:3;" />
  <rect class="anc_exon" x="1301" y="35.0" width="236" height="30" style="fill:#87bcbc;fill-opacity:1.00" />
  <rect class="anc_exon" x="1537" y="35.0" width="0" height="30" style="fill:#87bcbc;fill-opacity:1.00" />
  <text style="" >
<tspan x="0" y="83.0" style="font-size:18px;" >SP XM_031937587_1.1</tspan>  </text>



<script type="text/ecmascript">
<![CDATA[
function draw_bbox(text_id)
{
    var text_elem = document.getElementById(text_id);
    var offset_px = 2;
    var offset_py = 0;
    bbox = text_elem.getBBox();
    var box = document.createElementNS(document.rootElement.namespaceURI,'rect');
    box.setAttribute('x', bbox.x - offset_px);
    box.setAttribute('y', bbox.y - offset_py);
    box.setAttribute('width', bbox.width + offset_px * 2);
    box.setAttribute('height', bbox.height + offset_py * 2);
    box.setAttribute('style','fill: white;'+'stroke: black;'+'stroke-width: 1px;');
    text_elem.insertBefore(box,text_elem.childNodes[0]);

    var svg = text_elem.parentNode;
    svg.appendChild(text_elem);
}

for (var i=1; i < 1; i++)
{
draw_bbox("Mouseover" + i);
}
]]> 
</script>
</svg>
