<svg version="1.1"
xmlns="http://www.w3.org/2000/svg"
xmlns:xlink="http://www.w3.org/1999/xlink"
width="5861" height="100" viewBox = "0 0 5861 100"
onclick="mouseclick(evt)">

<script type="text/ecmascript">

<![CDATA[
    function mouseover(evt, target) { 
    var gv = document.getElementById("globalVariable");
    var previoustarget = gv.firstChild.nodeValue;
    if (previoustarget != "none") 
    {
        	document.getElementById(gv.firstChild.nodeValue).setAttributeNS(null, "visibility", "hidden");
    }
    document.getElementById(target).setAttributeNS(null, "visibility", "visible");
    gv.firstChild.nodeValue = target;
        }

    function mouseclick(evt) { 
    var gv = document.getElementById("globalVariable");
    var previoustarget = gv.firstChild.nodeValue;
    if (previoustarget != "none") {
        	document.getElementById(gv.firstChild.nodeValue).setAttributeNS(null, "visibility", "hidden");
        }
    }
]]>
  </script>
<style type="text/css" >

<![CDATA[
    rect.anc_exon {
              stroke-width:3;
                  }

    rect.non_anc_exon {
              stroke: black; stroke-width:3; stroke-dasharray: 5,5;
                    }

    text {
              font-size: 18px;
              font-family: Courier New;
          }
                    ]]>
</style>

<defs>
    <text x="150" y="40" id="globalVariable">none</text>
</defs>

  <rect class="anc_exon" x="0" y="35.0" width="0" height="30" style="fill:#87bcbc;fill-opacity:1.00" />
  <rect class="anc_exon" x="0" y="35.0" width="156.0" height="30" style="fill:#87bcbc;fill-opacity:1.00" />
  <line x1="156.0" y1="50.0" x2="176.0" y2="50.0" style="stroke:#999; stroke-width:3;" />
  <line x1="176.0" y1="50.0" x2="176.0" y2="50.0" style="stroke:#999; stroke-width:3;" />
  <line x1="176.0" y1="50.0" x2="176.0" y2="50.0" style="stroke:#999; stroke-width:3;" />
  <line x1="176.0" y1="50.0" x2="196.0" y2="50.0" style="stroke:#999; stroke-width:3;" />
  <rect class="anc_exon" x="196" y="35.0" width="81" height="30" style="fill:#87bcbc;fill-opacity:1.00" />
  <line x1="277" y1="50.0" x2="297" y2="50.0" style="stroke:#999; stroke-width:3;" />
  <line x1="297" y1="50.0" x2="297" y2="50.0" style="stroke:#999; stroke-width:3;" />
  <line x1="297" y1="50.0" x2="297" y2="50.0" style="stroke:#999; stroke-width:3;" />
  <line x1="297" y1="50.0" x2="317" y2="50.0" style="stroke:#999; stroke-width:3;" />
  <rect class="anc_exon" x="317" y="35.0" width="100" height="30" style="fill:#87bcbc;fill-opacity:1.00" />
  <line x1="417" y1="50.0" x2="437" y2="50.0" style="stroke:#999; stroke-width:3;" />
  <line x1="437" y1="50.0" x2="437" y2="50.0" style="stroke:#999; stroke-width:3;" />
  <line x1="437" y1="50.0" x2="437" y2="50.0" style="stroke:#999; stroke-width:3;" />
  <line x1="437" y1="50.0" x2="457" y2="50.0" style="stroke:#999; stroke-width:3;" />
  <rect class="anc_exon" x="457" y="35.0" width="64" height="30" style="fill:#87bcbc;fill-opacity:1.00" />
  <line x1="521" y1="50.0" x2="541" y2="50.0" style="stroke:#999; stroke-width:3;" />
  <line x1="541" y1="50.0" x2="541" y2="50.0" style="stroke:#999; stroke-width:3;" />
  <line x1="541" y1="50.0" x2="541" y2="50.0" style="stroke:#999; stroke-width:3;" />
  <line x1="541" y1="50.0" x2="561" y2="50.0" style="stroke:#999; stroke-width:3;" />
  <rect class="anc_exon" x="561" y="35.0" width="172" height="30" style="fill:#87bcbc;fill-opacity:1.00" />
  <line x1="733" y1="50.0" x2="753" y2="50.0" style="stroke:#999; stroke-width:3;" />
  <line x1="753" y1="50.0" x2="753" y2="50.0" style="stroke:#999; stroke-width:3;" />
  <line x1="753" y1="50.0" x2="753" y2="50.0" style="stroke:#999; stroke-width:3;" />
  <line x1="753" y1="50.0" x2="773" y2="50.0" style="stroke:#999; stroke-width:3;" />
  <rect class="anc_exon" x="773" y="35.0" width="60" height="30" style="fill:#87bcbc;fill-opacity:1.00" />
  <line x1="833" y1="50.0" x2="853" y2="50.0" style="stroke:#999; stroke-width:3;" />
  <line x1="853" y1="50.0" x2="853" y2="50.0" style="stroke:#999; stroke-width:3;" />
  <line x1="853" y1="50.0" x2="853" y2="50.0" style="stroke:#999; stroke-width:3;" />
  <line x1="853" y1="50.0" x2="873" y2="50.0" style="stroke:#999; stroke-width:3;" />
  <rect class="anc_exon" x="873" y="35.0" width="121" height="30" style="fill:#87bcbc;fill-opacity:1.00" />
  <line x1="994" y1="50.0" x2="1034" y2="50.0" style="stroke:#999; stroke-width:3;" />
  <rect class="anc_exon" x="1034" y="35.0" width="88" height="30" style="fill:#87bcbc;fill-opacity:1.00" />
  <line x1="1122" y1="50.0" x2="1142" y2="50.0" style="stroke:#999; stroke-width:3;" />
  <line x1="1142" y1="50.0" x2="1142" y2="50.0" style="stroke:#999; stroke-width:3;" />
  <line x1="1142" y1="50.0" x2="1142" y2="50.0" style="stroke:#999; stroke-width:3;" />
  <line x1="1142" y1="50.0" x2="1162" y2="50.0" style="stroke:#999; stroke-width:3;" />
  <rect class="anc_exon" x="1162" y="35.0" width="89" height="30" style="fill:#87bcbc;fill-opacity:1.00" />
  <line x1="1251" y1="50.0" x2="1271" y2="50.0" style="stroke:#999; stroke-width:3;" />
  <line x1="1271" y1="50.0" x2="1271" y2="50.0" style="stroke:#999; stroke-width:3;" />
  <line x1="1271" y1="50.0" x2="1271" y2="50.0" style="stroke:#999; stroke-width:3;" />
  <line x1="1271" y1="50.0" x2="1291" y2="50.0" style="stroke:#999; stroke-width:3;" />
  <rect class="anc_exon" x="1291" y="35.0" width="134" height="30" style="fill:#87bcbc;fill-opacity:1.00" />
  <line x1="1425" y1="50.0" x2="1445" y2="50.0" style="stroke:#999; stroke-width:3;" />
  <line x1="1445" y1="50.0" x2="1445" y2="50.0" style="stroke:#999; stroke-width:3;" />
  <line x1="1445" y1="50.0" x2="1445" y2="50.0" style="stroke:#999; stroke-width:3;" />
  <line x1="1445" y1="50.0" x2="1465" y2="50.0" style="stroke:#999; stroke-width:3;" />
  <rect class="anc_exon" x="1465" y="35.0" width="155" height="30" style="fill:#87bcbc;fill-opacity:1.00" />
  <line x1="1620" y1="50.0" x2="1640" y2="50.0" style="stroke:#999; stroke-width:3;" />
  <line x1="1640" y1="50.0" x2="1640" y2="50.0" style="stroke:#999; stroke-width:3;" />
  <line x1="1640" y1="50.0" x2="1640" y2="50.0" style="stroke:#999; stroke-width:3;" />
  <line x1="1640" y1="50.0" x2="1660" y2="50.0" style="stroke:#999; stroke-width:3;" />
  <rect class="anc_exon" x="1660" y="35.0" width="93" height="30" style="fill:#87bcbc;fill-opacity:1.00" />
  <line x1="1753" y1="50.0" x2="1793" y2="50.0" style="stroke:#999; stroke-width:3;" />
  <rect class="anc_exon" x="1793" y="35.0" width="119" height="30" style="fill:#87bcbc;fill-opacity:1.00" />
  <line x1="1912" y1="50.0" x2="1932" y2="50.0" style="stroke:#999; stroke-width:3;" />
  <line x1="1932" y1="50.0" x2="1932" y2="50.0" style="stroke:#999; stroke-width:3;" />
  <line x1="1932" y1="50.0" x2="1932" y2="50.0" style="stroke:#999; stroke-width:3;" />
  <line x1="1932" y1="50.0" x2="1952" y2="50.0" style="stroke:#999; stroke-width:3;" />
  <rect class="anc_exon" x="1952" y="35.0" width="113" height="30" style="fill:#87bcbc;fill-opacity:1.00" />
  <line x1="2065" y1="50.0" x2="2105" y2="50.0" style="stroke:#999; stroke-width:3;" />
  <rect class="anc_exon" x="2105" y="35.0" width="77" height="30" style="fill:#87bcbc;fill-opacity:1.00" />
  <line x1="2182" y1="50.0" x2="2202" y2="50.0" style="stroke:#999; stroke-width:3;" />
  <line x1="2202" y1="50.0" x2="2202" y2="50.0" style="stroke:#999; stroke-width:3;" />
  <line x1="2202" y1="50.0" x2="2202" y2="50.0" style="stroke:#999; stroke-width:3;" />
  <line x1="2202" y1="50.0" x2="2222" y2="50.0" style="stroke:#999; stroke-width:3;" />
  <rect class="anc_exon" x="2222" y="35.0" width="93" height="30" style="fill:#87bcbc;fill-opacity:1.00" />
  <line x1="2315" y1="50.0" x2="2355" y2="50.0" style="stroke:#999; stroke-width:3;" />
  <rect class="anc_exon" x="2355" y="35.0" width="144" height="30" style="fill:#87bcbc;fill-opacity:1.00" />
  <line x1="2499" y1="50.0" x2="2539" y2="50.0" style="stroke:#999; stroke-width:3;" />
  <rect class="anc_exon" x="2539" y="35.0" width="112" height="30" style="fill:#87bcbc;fill-opacity:1.00" />
  <line x1="2651" y1="50.0" x2="2691" y2="50.0" style="stroke:#999; stroke-width:3;" />
  <rect class="anc_exon" x="2691" y="35.0" width="139" height="30" style="fill:#87bcbc;fill-opacity:1.00" />
  <line x1="2830" y1="50.0" x2="2870" y2="50.0" style="stroke:#999; stroke-width:3;" />
  <rect class="anc_exon" x="2870" y="35.0" width="116" height="30" style="fill:#87bcbc;fill-opacity:1.00" />
  <line x1="2986" y1="50.0" x2="3026" y2="50.0" style="stroke:#999; stroke-width:3;" />
  <rect class="anc_exon" x="3026" y="35.0" width="130" height="30" style="fill:#87bcbc;fill-opacity:1.00" />
  <line x1="3156" y1="50.0" x2="3176" y2="50.0" style="stroke:#999; stroke-width:3;" />
  <line x1="3176" y1="50.0" x2="3176" y2="50.0" style="stroke:#999; stroke-width:3;" />
  <line x1="3176" y1="50.0" x2="3176" y2="50.0" style="stroke:#999; stroke-width:3;" />
  <line x1="3176" y1="50.0" x2="3196" y2="50.0" style="stroke:#999; stroke-width:3;" />
  <rect class="anc_exon" x="3196" y="35.0" width="107" height="30" style="fill:#87bcbc;fill-opacity:1.00" />
  <line x1="3303" y1="50.0" x2="3343" y2="50.0" style="stroke:#999; stroke-width:3;" />
  <rect class="anc_exon" x="3343" y="35.0" width="137" height="30" style="fill:#87bcbc;fill-opacity:1.00" />
  <line x1="3480" y1="50.0" x2="3520" y2="50.0" style="stroke:#999; stroke-width:3;" />
  <rect class="anc_exon" x="3520" y="35.0" width="105" height="30" style="fill:#87bcbc;fill-opacity:1.00" />
  <line x1="3625" y1="50.0" x2="3665" y2="50.0" style="stroke:#999; stroke-width:3;" />
  <rect class="anc_exon" x="3665" y="35.0" width="114" height="30" style="fill:#87bcbc;fill-opacity:1.00" />
  <line x1="3779" y1="50.0" x2="3799" y2="50.0" style="stroke:#999; stroke-width:3;" />
  <line x1="3799" y1="50.0" x2="3799" y2="50.0" style="stroke:#999; stroke-width:3;" />
  <line x1="3799" y1="50.0" x2="3799" y2="50.0" style="stroke:#999; stroke-width:3;" />
  <line x1="3799" y1="50.0" x2="3819" y2="50.0" style="stroke:#999; stroke-width:3;" />
  <rect class="anc_exon" x="3819" y="35.0" width="111" height="30" style="fill:#87bcbc;fill-opacity:1.00" />
  <line x1="3930" y1="50.0" x2="3950" y2="50.0" style="stroke:#999; stroke-width:3;" />
  <line x1="3950" y1="50.0" x2="3950" y2="50.0" style="stroke:#999; stroke-width:3;" />
  <line x1="3950" y1="50.0" x2="3950" y2="50.0" style="stroke:#999; stroke-width:3;" />
  <line x1="3950" y1="50.0" x2="3970" y2="50.0" style="stroke:#999; stroke-width:3;" />
  <rect class="anc_exon" x="3970" y="35.0" width="110" height="30" style="fill:#87bcbc;fill-opacity:1.00" />
  <line x1="4080" y1="50.0" x2="4100" y2="50.0" style="stroke:#999; stroke-width:3;" />
  <line x1="4100" y1="50.0" x2="4100" y2="50.0" style="stroke:#999; stroke-width:3;" />
  <line x1="4100" y1="50.0" x2="4100" y2="50.0" style="stroke:#999; stroke-width:3;" />
  <line x1="4100" y1="50.0" x2="4120" y2="50.0" style="stroke:#999; stroke-width:3;" />
  <rect class="anc_exon" x="4120" y="35.0" width="107" height="30" style="fill:#87bcbc;fill-opacity:1.00" />
  <line x1="4227" y1="50.0" x2="4267" y2="50.0" style="stroke:#999; stroke-width:3;" />
  <rect class="anc_exon" x="4267" y="35.0" width="132" height="30" style="fill:#87bcbc;fill-opacity:1.00" />
  <line x1="4399" y1="50.0" x2="4439" y2="50.0" style="stroke:#999; stroke-width:3;" />
  <rect class="anc_exon" x="4439" y="35.0" width="123" height="30" style="fill:#87bcbc;fill-opacity:1.00" />
  <line x1="4562" y1="50.0" x2="4582" y2="50.0" style="stroke:#999; stroke-width:3;" />
  <line x1="4582" y1="50.0" x2="4582" y2="50.0" style="stroke:#999; stroke-width:3;" />
  <line x1="4582" y1="50.0" x2="4582" y2="50.0" style="stroke:#999; stroke-width:3;" />
  <line x1="4582" y1="50.0" x2="4602" y2="50.0" style="stroke:#999; stroke-width:3;" />
  <rect class="anc_exon" x="4602" y="35.0" width="148" height="30" style="fill:#87bcbc;fill-opacity:1.00" />
  <line x1="4750" y1="50.0" x2="4790" y2="50.0" style="stroke:#999; stroke-width:3;" />
  <rect class="anc_exon" x="4790" y="35.0" width="152" height="30" style="fill:#87bcbc;fill-opacity:1.00" />
  <line x1="4942" y1="50.0" x2="4962" y2="50.0" style="stroke:#999; stroke-width:3;" />
  <line x1="4962" y1="50.0" x2="4962" y2="50.0" style="stroke:#999; stroke-width:3;" />
  <line x1="4962" y1="50.0" x2="4962" y2="50.0" style="stroke:#999; stroke-width:3;" />
  <line x1="4962" y1="50.0" x2="4982" y2="50.0" style="stroke:#999; stroke-width:3;" />
  <rect class="anc_exon" x="4982" y="35.0" width="124" height="30" style="fill:#87bcbc;fill-opacity:1.00" />
  <line x1="5106" y1="50.0" x2="5146" y2="50.0" style="stroke:#999; stroke-width:3;" />
  <rect class="anc_exon" x="5146" y="35.0" width="128" height="30" style="fill:#87bcbc;fill-opacity:1.00" />
  <line x1="5274" y1="50.0" x2="5294" y2="50.0" style="stroke:#999; stroke-width:3;" />
  <line x1="5294" y1="50.0" x2="5294" y2="50.0" style="stroke:#999; stroke-width:3;" />
  <line x1="5294" y1="50.0" x2="5294" y2="50.0" style="stroke:#999; stroke-width:3;" />
  <line x1="5294" y1="50.0" x2="5314" y2="50.0" style="stroke:#999; stroke-width:3;" />
  <rect class="anc_exon" x="5314" y="35.0" width="104" height="30" style="fill:#87bcbc;fill-opacity:1.00" />
  <line x1="5418" y1="50.0" x2="5458" y2="50.0" style="stroke:#999; stroke-width:3;" />
  <rect class="anc_exon" x="5458" y="35.0" width="75" height="30" style="fill:#87bcbc;fill-opacity:1.00" />
  <line x1="5533" y1="50.0" x2="5573" y2="50.0" style="stroke:#999; stroke-width:3;" />
  <rect class="anc_exon" x="5573" y="35.0" width="96" height="30" style="fill:#87bcbc;fill-opacity:1.00" />
  <line x1="5669" y1="50.0" x2="5689" y2="50.0" style="stroke:#999; stroke-width:3;" />
  <line x1="5689" y1="50.0" x2="5689" y2="50.0" style="stroke:#999; stroke-width:3;" />
  <line x1="5689" y1="50.0" x2="5689" y2="50.0" style="stroke:#999; stroke-width:3;" />
  <line x1="5689" y1="50.0" x2="5709" y2="50.0" style="stroke:#999; stroke-width:3;" />
  <rect class="anc_exon" x="5709" y="35.0" width="116" height="30" style="fill:#87bcbc;fill-opacity:1.00" />
  <rect class="anc_exon" x="5825" y="35.0" width="0" height="30" style="fill:#87bcbc;fill-opacity:1.00" />
  <text style="" >
<tspan x="0" y="83.0" style="font-size:18px;" >SP XM_031964387_1.1</tspan>  </text>



<script type="text/ecmascript">
<![CDATA[
function draw_bbox(text_id)
{
    var text_elem = document.getElementById(text_id);
    var offset_px = 2;
    var offset_py = 0;
    bbox = text_elem.getBBox();
    var box = document.createElementNS(document.rootElement.namespaceURI,'rect');
    box.setAttribute('x', bbox.x - offset_px);
    box.setAttribute('y', bbox.y - offset_py);
    box.setAttribute('width', bbox.width + offset_px * 2);
    box.setAttribute('height', bbox.height + offset_py * 2);
    box.setAttribute('style','fill: white;'+'stroke: black;'+'stroke-width: 1px;');
    text_elem.insertBefore(box,text_elem.childNodes[0]);

    var svg = text_elem.parentNode;
    svg.appendChild(text_elem);
}

for (var i=1; i < 1; i++)
{
draw_bbox("Mouseover" + i);
}
]]> 
</script>
</svg>
