<svg version="1.1"
xmlns="http://www.w3.org/2000/svg"
xmlns:xlink="http://www.w3.org/1999/xlink"
width="2497" height="100" viewBox = "0 0 2497 100"
onclick="mouseclick(evt)">

<script type="text/ecmascript">

<![CDATA[
    function mouseover(evt, target) { 
    var gv = document.getElementById("globalVariable");
    var previoustarget = gv.firstChild.nodeValue;
    if (previoustarget != "none") 
    {
        	document.getElementById(gv.firstChild.nodeValue).setAttributeNS(null, "visibility", "hidden");
    }
    document.getElementById(target).setAttributeNS(null, "visibility", "visible");
    gv.firstChild.nodeValue = target;
        }

    function mouseclick(evt) { 
    var gv = document.getElementById("globalVariable");
    var previoustarget = gv.firstChild.nodeValue;
    if (previoustarget != "none") {
        	document.getElementById(gv.firstChild.nodeValue).setAttributeNS(null, "visibility", "hidden");
        }
    }
]]>
  </script>
<style type="text/css" >

<![CDATA[
    rect.anc_exon {
              stroke-width:3;
                  }

    rect.non_anc_exon {
              stroke: black; stroke-width:3; stroke-dasharray: 5,5;
                    }

    text {
              font-size: 18px;
              font-family: Courier New;
          }
                    ]]>
</style>

<defs>
    <text x="150" y="40" id="globalVariable">none</text>
</defs>

  <rect class="anc_exon" x="0" y="35.0" width="0" height="30" style="fill:#87bcbc;fill-opacity:1.00" />
  <rect class="anc_exon" x="0" y="35.0" width="581.6" height="30" style="fill:#878787;fill-opacity:1.00" />
  <line x1="581.6" y1="50.0" x2="600.6" y2="50.0" style="stroke:#999; stroke-width:3;" />
  <line x1="600.6" y1="50.0" x2="600.6" y2="50.0" style="stroke:#999; stroke-width:3;" />
  <line x1="600.6" y1="50.0" x2="600.6" y2="50.0" style="stroke:#999; stroke-width:3;" />
  <line x1="600.6" y1="50.0" x2="621.0" y2="50.0" style="stroke:#999; stroke-width:3;" />
  <rect class="anc_exon" x="621" y="35.0" width="145" height="30" style="fill:#87bcbc;fill-opacity:1.00" />
  <line x1="766" y1="50.0" x2="806" y2="50.0" style="stroke:#999; stroke-width:3;" />
  <rect class="anc_exon" x="806" y="35.0" width="59" height="30" style="fill:#87bcbc;fill-opacity:1.00" />
  <line x1="865" y1="50.0" x2="885" y2="50.0" style="stroke:#999; stroke-width:3;" />
  <line x1="885" y1="50.0" x2="885" y2="50.0" style="stroke:#999; stroke-width:3;" />
  <line x1="885" y1="50.0" x2="885" y2="50.0" style="stroke:#999; stroke-width:3;" />
  <line x1="885" y1="50.0" x2="905" y2="50.0" style="stroke:#999; stroke-width:3;" />
  <rect class="anc_exon" x="905" y="35.0" width="104" height="30" style="fill:#87bcbc;fill-opacity:1.00" />
  <line x1="1009" y1="50.0" x2="1049" y2="50.0" style="stroke:#999; stroke-width:3;" />
  <rect class="anc_exon" x="1049" y="35.0" width="99" height="30" style="fill:#87bcbc;fill-opacity:1.00" />
  <line x1="1148" y1="50.0" x2="1168" y2="50.0" style="stroke:#999; stroke-width:3;" />
  <line x1="1168" y1="50.0" x2="1168" y2="50.0" style="stroke:#999; stroke-width:3;" />
  <line x1="1168" y1="50.0" x2="1168" y2="50.0" style="stroke:#999; stroke-width:3;" />
  <line x1="1168" y1="50.0" x2="1188" y2="50.0" style="stroke:#999; stroke-width:3;" />
  <rect class="anc_exon" x="1188" y="35.0" width="114" height="30" style="fill:#87bcbc;fill-opacity:1.00" />
  <line x1="1302" y1="50.0" x2="1342" y2="50.0" style="stroke:#999; stroke-width:3;" />
  <rect class="anc_exon" x="1342" y="35.0" width="138" height="30" style="fill:#87bcbc;fill-opacity:1.00" />
  <line x1="1480" y1="50.0" x2="1500" y2="50.0" style="stroke:#999; stroke-width:3;" />
  <line x1="1500" y1="50.0" x2="1500" y2="50.0" style="stroke:#999; stroke-width:3;" />
  <line x1="1500" y1="50.0" x2="1500" y2="50.0" style="stroke:#999; stroke-width:3;" />
  <line x1="1500" y1="50.0" x2="1520" y2="50.0" style="stroke:#999; stroke-width:3;" />
  <rect class="anc_exon" x="1520" y="35.0" width="72" height="30" style="fill:#87bcbc;fill-opacity:1.00" />
  <line x1="1592" y1="50.0" x2="1632" y2="50.0" style="stroke:#999; stroke-width:3;" />
  <rect class="anc_exon" x="1632" y="35.0" width="36" height="30" style="fill:#87bcbc;fill-opacity:1.00" />
  <line x1="1668" y1="50.0" x2="1688" y2="50.0" style="stroke:#999; stroke-width:3;" />
  <line x1="1688" y1="50.0" x2="1688" y2="50.0" style="stroke:#999; stroke-width:3;" />
  <line x1="1688" y1="50.0" x2="1688" y2="50.0" style="stroke:#999; stroke-width:3;" />
  <line x1="1688" y1="50.0" x2="1708" y2="50.0" style="stroke:#999; stroke-width:3;" />
  <rect class="anc_exon" x="1708" y="35.0" width="87" height="30" style="fill:#87bcbc;fill-opacity:1.00" />
  <line x1="1795" y1="50.0" x2="1815" y2="50.0" style="stroke:#999; stroke-width:3;" />
  <line x1="1815" y1="50.0" x2="1815" y2="50.0" style="stroke:#999; stroke-width:3;" />
  <line x1="1815" y1="50.0" x2="1815" y2="50.0" style="stroke:#999; stroke-width:3;" />
  <line x1="1815" y1="50.0" x2="1835" y2="50.0" style="stroke:#999; stroke-width:3;" />
  <rect class="anc_exon" x="1835" y="35.0" width="86" height="30" style="fill:#87bcbc;fill-opacity:1.00" />
  <line x1="1921" y1="50.0" x2="1961" y2="50.0" style="stroke:#999; stroke-width:3;" />
  <rect class="anc_exon" x="1961" y="35.0" width="86" height="30" style="fill:#87bcbc;fill-opacity:1.00" />
  <line x1="2047" y1="50.0" x2="2087" y2="50.0" style="stroke:#999; stroke-width:3;" />
  <rect class="anc_exon" x="2087" y="35.0" width="62" height="30" style="fill:#87bcbc;fill-opacity:1.00" />
  <line x1="2149" y1="50.0" x2="2169" y2="50.0" style="stroke:#999; stroke-width:3;" />
  <line x1="2169" y1="50.0" x2="2169" y2="50.0" style="stroke:#999; stroke-width:3;" />
  <line x1="2169" y1="50.0" x2="2169" y2="50.0" style="stroke:#999; stroke-width:3;" />
  <line x1="2169" y1="50.0" x2="2189" y2="50.0" style="stroke:#999; stroke-width:3;" />
  <rect class="anc_exon" x="2189" y="35.0" width="148" height="30" style="fill:#87bcbc;fill-opacity:1.00" />
  <line x1="2337" y1="50.0" x2="2377" y2="50.0" style="stroke:#999; stroke-width:3;" />
  <rect class="anc_exon" x="2377" y="35.0" width="84" height="30" style="fill:#87bcbc;fill-opacity:1.00" />
  <rect class="anc_exon" x="2461" y="35.0" width="0" height="30" style="fill:#87bcbc;fill-opacity:1.00" />
  <text style="" >
<tspan x="0" y="83.0" style="font-size:18px;" >SP XM_031968878_1.1</tspan>  </text>



<script type="text/ecmascript">
<![CDATA[
function draw_bbox(text_id)
{
    var text_elem = document.getElementById(text_id);
    var offset_px = 2;
    var offset_py = 0;
    bbox = text_elem.getBBox();
    var box = document.createElementNS(document.rootElement.namespaceURI,'rect');
    box.setAttribute('x', bbox.x - offset_px);
    box.setAttribute('y', bbox.y - offset_py);
    box.setAttribute('width', bbox.width + offset_px * 2);
    box.setAttribute('height', bbox.height + offset_py * 2);
    box.setAttribute('style','fill: white;'+'stroke: black;'+'stroke-width: 1px;');
    text_elem.insertBefore(box,text_elem.childNodes[0]);

    var svg = text_elem.parentNode;
    svg.appendChild(text_elem);
}

for (var i=1; i < 1; i++)
{
draw_bbox("Mouseover" + i);
}
]]> 
</script>
</svg>
