<svg version="1.1"
xmlns="http://www.w3.org/2000/svg"
xmlns:xlink="http://www.w3.org/1999/xlink"
width="4367" height="100" viewBox = "0 0 4367 100"
onclick="mouseclick(evt)">

<script type="text/ecmascript">

<![CDATA[
    function mouseover(evt, target) { 
    var gv = document.getElementById("globalVariable");
    var previoustarget = gv.firstChild.nodeValue;
    if (previoustarget != "none") 
    {
        	document.getElementById(gv.firstChild.nodeValue).setAttributeNS(null, "visibility", "hidden");
    }
    document.getElementById(target).setAttributeNS(null, "visibility", "visible");
    gv.firstChild.nodeValue = target;
        }

    function mouseclick(evt) { 
    var gv = document.getElementById("globalVariable");
    var previoustarget = gv.firstChild.nodeValue;
    if (previoustarget != "none") {
        	document.getElementById(gv.firstChild.nodeValue).setAttributeNS(null, "visibility", "hidden");
        }
    }
]]>
  </script>
<style type="text/css" >

<![CDATA[
    rect.anc_exon {
              stroke-width:3;
                  }

    rect.non_anc_exon {
              stroke: black; stroke-width:3; stroke-dasharray: 5,5;
                    }

    text {
              font-size: 18px;
              font-family: Courier New;
          }
                    ]]>
</style>

<defs>
    <text x="150" y="40" id="globalVariable">none</text>
</defs>

  <rect class="anc_exon" x="0" y="35.0" width="0" height="30" style="fill:#87bcbc;fill-opacity:1.00" />
  <rect class="anc_exon" x="0" y="35.0" width="252.8" height="30" style="fill:#87bcbc;fill-opacity:1.00" />
  <line x1="252.8" y1="50.0" x2="271.8" y2="50.0" style="stroke:#999; stroke-width:3;" />
  <line x1="271.8" y1="50.0" x2="271.8" y2="50.0" style="stroke:#999; stroke-width:3;" />
  <line x1="271.8" y1="50.0" x2="271.8" y2="50.0" style="stroke:#999; stroke-width:3;" />
  <line x1="271.8" y1="50.0" x2="292.0" y2="50.0" style="stroke:#999; stroke-width:3;" />
  <rect class="anc_exon" x="292" y="35.0" width="93" height="30" style="fill:#87bcbc;fill-opacity:1.00" />
  <line x1="385" y1="50.0" x2="405" y2="50.0" style="stroke:#999; stroke-width:3;" />
  <line x1="405" y1="50.0" x2="405" y2="50.0" style="stroke:#999; stroke-width:3;" />
  <line x1="405" y1="50.0" x2="405" y2="50.0" style="stroke:#999; stroke-width:3;" />
  <line x1="405" y1="50.0" x2="425" y2="50.0" style="stroke:#999; stroke-width:3;" />
  <rect class="anc_exon" x="425" y="35.0" width="96" height="30" style="fill:#87bcbc;fill-opacity:1.00" />
  <line x1="521" y1="50.0" x2="541" y2="50.0" style="stroke:#999; stroke-width:3;" />
  <line x1="541" y1="50.0" x2="541" y2="50.0" style="stroke:#999; stroke-width:3;" />
  <line x1="541" y1="50.0" x2="541" y2="50.0" style="stroke:#999; stroke-width:3;" />
  <line x1="541" y1="50.0" x2="561" y2="50.0" style="stroke:#999; stroke-width:3;" />
  <rect class="anc_exon" x="561" y="35.0" width="168" height="30" style="fill:#87bcbc;fill-opacity:1.00" />
  <line x1="729" y1="50.0" x2="749" y2="50.0" style="stroke:#999; stroke-width:3;" />
  <line x1="749" y1="50.0" x2="749" y2="50.0" style="stroke:#999; stroke-width:3;" />
  <line x1="749" y1="50.0" x2="749" y2="50.0" style="stroke:#999; stroke-width:3;" />
  <line x1="749" y1="50.0" x2="769" y2="50.0" style="stroke:#999; stroke-width:3;" />
  <rect class="anc_exon" x="769" y="35.0" width="140" height="30" style="fill:#87bcbc;fill-opacity:1.00" />
  <line x1="909" y1="50.0" x2="929" y2="50.0" style="stroke:#999; stroke-width:3;" />
  <line x1="929" y1="50.0" x2="929" y2="50.0" style="stroke:#999; stroke-width:3;" />
  <line x1="929" y1="50.0" x2="929" y2="50.0" style="stroke:#999; stroke-width:3;" />
  <line x1="929" y1="50.0" x2="949" y2="50.0" style="stroke:#999; stroke-width:3;" />
  <rect class="anc_exon" x="949" y="35.0" width="64" height="30" style="fill:#87bcbc;fill-opacity:1.00" />
  <line x1="1013" y1="50.0" x2="1033" y2="50.0" style="stroke:#999; stroke-width:3;" />
  <line x1="1033" y1="50.0" x2="1033" y2="50.0" style="stroke:#999; stroke-width:3;" />
  <line x1="1033" y1="50.0" x2="1033" y2="50.0" style="stroke:#999; stroke-width:3;" />
  <line x1="1033" y1="50.0" x2="1053" y2="50.0" style="stroke:#999; stroke-width:3;" />
  <rect class="anc_exon" x="1053" y="35.0" width="46" height="30" style="fill:#87bcbc;fill-opacity:1.00" />
  <line x1="1099" y1="50.0" x2="1119" y2="50.0" style="stroke:#999; stroke-width:3;" />
  <line x1="1119" y1="50.0" x2="1119" y2="50.0" style="stroke:#999; stroke-width:3;" />
  <line x1="1119" y1="50.0" x2="1119" y2="50.0" style="stroke:#999; stroke-width:3;" />
  <line x1="1119" y1="50.0" x2="1139" y2="50.0" style="stroke:#999; stroke-width:3;" />
  <rect class="anc_exon" x="1139" y="35.0" width="76" height="30" style="fill:#87bcbc;fill-opacity:1.00" />
  <line x1="1215" y1="50.0" x2="1235" y2="50.0" style="stroke:#999; stroke-width:3;" />
  <line x1="1235" y1="50.0" x2="1235" y2="50.0" style="stroke:#999; stroke-width:3;" />
  <line x1="1235" y1="50.0" x2="1235" y2="50.0" style="stroke:#999; stroke-width:3;" />
  <line x1="1235" y1="50.0" x2="1255" y2="50.0" style="stroke:#999; stroke-width:3;" />
  <rect class="anc_exon" x="1255" y="35.0" width="151" height="30" style="fill:#87bcbc;fill-opacity:1.00" />
  <line x1="1406" y1="50.0" x2="1426" y2="50.0" style="stroke:#999; stroke-width:3;" />
  <line x1="1426" y1="50.0" x2="1426" y2="50.0" style="stroke:#999; stroke-width:3;" />
  <line x1="1426" y1="50.0" x2="1426" y2="50.0" style="stroke:#999; stroke-width:3;" />
  <line x1="1426" y1="50.0" x2="1446" y2="50.0" style="stroke:#999; stroke-width:3;" />
  <rect class="anc_exon" x="1446" y="35.0" width="487" height="30" style="fill:#87bcbc;fill-opacity:1.00" />
  <line x1="1933" y1="50.0" x2="1973" y2="50.0" style="stroke:#999; stroke-width:3;" />
  <rect class="anc_exon" x="1973" y="35.0" width="25" height="30" style="fill:#87bcbc;fill-opacity:1.00" />
  <line x1="1998" y1="50.0" x2="2018" y2="50.0" style="stroke:#999; stroke-width:3;" />
  <line x1="2018" y1="50.0" x2="2018" y2="50.0" style="stroke:#999; stroke-width:3;" />
  <line x1="2018" y1="50.0" x2="2018" y2="50.0" style="stroke:#999; stroke-width:3;" />
  <line x1="2018" y1="50.0" x2="2038" y2="50.0" style="stroke:#999; stroke-width:3;" />
  <rect class="anc_exon" x="2038" y="35.0" width="123" height="30" style="fill:#87bcbc;fill-opacity:1.00" />
  <line x1="2161" y1="50.0" x2="2181" y2="50.0" style="stroke:#999; stroke-width:3;" />
  <line x1="2181" y1="50.0" x2="2181" y2="50.0" style="stroke:#999; stroke-width:3;" />
  <line x1="2181" y1="50.0" x2="2181" y2="50.0" style="stroke:#999; stroke-width:3;" />
  <line x1="2181" y1="50.0" x2="2201" y2="50.0" style="stroke:#999; stroke-width:3;" />
  <rect class="anc_exon" x="2201" y="35.0" width="73" height="30" style="fill:#87bcbc;fill-opacity:1.00" />
  <line x1="2274" y1="50.0" x2="2314" y2="50.0" style="stroke:#999; stroke-width:3;" />
  <rect class="anc_exon" x="2314" y="35.0" width="154" height="30" style="fill:#87bcbc;fill-opacity:1.00" />
  <line x1="2468" y1="50.0" x2="2488" y2="50.0" style="stroke:#999; stroke-width:3;" />
  <line x1="2488" y1="50.0" x2="2488" y2="50.0" style="stroke:#999; stroke-width:3;" />
  <line x1="2488" y1="50.0" x2="2488" y2="50.0" style="stroke:#999; stroke-width:3;" />
  <line x1="2488" y1="50.0" x2="2508" y2="50.0" style="stroke:#999; stroke-width:3;" />
  <rect class="anc_exon" x="2508" y="35.0" width="146" height="30" style="fill:#87bcbc;fill-opacity:1.00" />
  <line x1="2654" y1="50.0" x2="2674" y2="50.0" style="stroke:#999; stroke-width:3;" />
  <line x1="2674" y1="50.0" x2="2674" y2="50.0" style="stroke:#999; stroke-width:3;" />
  <line x1="2674" y1="50.0" x2="2674" y2="50.0" style="stroke:#999; stroke-width:3;" />
  <line x1="2674" y1="50.0" x2="2694" y2="50.0" style="stroke:#999; stroke-width:3;" />
  <rect class="anc_exon" x="2694" y="35.0" width="148" height="30" style="fill:#87bcbc;fill-opacity:1.00" />
  <line x1="2842" y1="50.0" x2="2862" y2="50.0" style="stroke:#999; stroke-width:3;" />
  <line x1="2862" y1="50.0" x2="2862" y2="50.0" style="stroke:#999; stroke-width:3;" />
  <line x1="2862" y1="50.0" x2="2862" y2="50.0" style="stroke:#999; stroke-width:3;" />
  <line x1="2862" y1="50.0" x2="2882" y2="50.0" style="stroke:#999; stroke-width:3;" />
  <rect class="anc_exon" x="2882" y="35.0" width="82" height="30" style="fill:#87bcbc;fill-opacity:1.00" />
  <line x1="2964" y1="50.0" x2="3004" y2="50.0" style="stroke:#999; stroke-width:3;" />
  <rect class="anc_exon" x="3004" y="35.0" width="101" height="30" style="fill:#87bcbc;fill-opacity:1.00" />
  <line x1="3105" y1="50.0" x2="3145" y2="50.0" style="stroke:#999; stroke-width:3;" />
  <rect class="anc_exon" x="3145" y="35.0" width="115" height="30" style="fill:#87bcbc;fill-opacity:1.00" />
  <line x1="3260" y1="50.0" x2="3280" y2="50.0" style="stroke:#999; stroke-width:3;" />
  <line x1="3280" y1="50.0" x2="3280" y2="50.0" style="stroke:#999; stroke-width:3;" />
  <line x1="3280" y1="50.0" x2="3280" y2="50.0" style="stroke:#999; stroke-width:3;" />
  <line x1="3280" y1="50.0" x2="3300" y2="50.0" style="stroke:#999; stroke-width:3;" />
  <rect class="anc_exon" x="3300" y="35.0" width="111" height="30" style="fill:#87bcbc;fill-opacity:1.00" />
  <line x1="3411" y1="50.0" x2="3451" y2="50.0" style="stroke:#999; stroke-width:3;" />
  <rect class="anc_exon" x="3451" y="35.0" width="880" height="30" style="fill:#87bcbc;fill-opacity:1.00" />
  <rect class="anc_exon" x="4331" y="35.0" width="0" height="30" style="fill:#87bcbc;fill-opacity:1.00" />
  <text style="" >
<tspan x="0" y="83.0" style="font-size:18px;" >SP XM_023503474_2.1</tspan>  </text>



<script type="text/ecmascript">
<![CDATA[
function draw_bbox(text_id)
{
    var text_elem = document.getElementById(text_id);
    var offset_px = 2;
    var offset_py = 0;
    bbox = text_elem.getBBox();
    var box = document.createElementNS(document.rootElement.namespaceURI,'rect');
    box.setAttribute('x', bbox.x - offset_px);
    box.setAttribute('y', bbox.y - offset_py);
    box.setAttribute('width', bbox.width + offset_px * 2);
    box.setAttribute('height', bbox.height + offset_py * 2);
    box.setAttribute('style','fill: white;'+'stroke: black;'+'stroke-width: 1px;');
    text_elem.insertBefore(box,text_elem.childNodes[0]);

    var svg = text_elem.parentNode;
    svg.appendChild(text_elem);
}

for (var i=1; i < 1; i++)
{
draw_bbox("Mouseover" + i);
}
]]> 
</script>
</svg>
