<svg version="1.1"
xmlns="http://www.w3.org/2000/svg"
xmlns:xlink="http://www.w3.org/1999/xlink"
width="1729" height="100" viewBox = "0 0 1729 100"
onclick="mouseclick(evt)">

<script type="text/ecmascript">

<![CDATA[
    function mouseover(evt, target) { 
    var gv = document.getElementById("globalVariable");
    var previoustarget = gv.firstChild.nodeValue;
    if (previoustarget != "none") 
    {
        	document.getElementById(gv.firstChild.nodeValue).setAttributeNS(null, "visibility", "hidden");
    }
    document.getElementById(target).setAttributeNS(null, "visibility", "visible");
    gv.firstChild.nodeValue = target;
        }

    function mouseclick(evt) { 
    var gv = document.getElementById("globalVariable");
    var previoustarget = gv.firstChild.nodeValue;
    if (previoustarget != "none") {
        	document.getElementById(gv.firstChild.nodeValue).setAttributeNS(null, "visibility", "hidden");
        }
    }
]]>
  </script>
<style type="text/css" >

<![CDATA[
    rect.anc_exon {
              stroke-width:3;
                  }

    rect.non_anc_exon {
              stroke: black; stroke-width:3; stroke-dasharray: 5,5;
                    }

    text {
              font-size: 18px;
              font-family: Courier New;
          }
                    ]]>
</style>

<defs>
    <text x="150" y="40" id="globalVariable">none</text>
</defs>

  <rect class="anc_exon" x="0" y="35.0" width="0" height="30" style="fill:#87bcbc;fill-opacity:1.00" />
  <rect class="anc_exon" x="0" y="35.0" width="102.4" height="30" style="fill:#87bcbc;fill-opacity:1.00" />
  <line x1="102.4" y1="50.0" x2="121.4" y2="50.0" style="stroke:#999; stroke-width:3;" />
  <line x1="121.4" y1="50.0" x2="121.4" y2="50.0" style="stroke:#999; stroke-width:3;" />
  <line x1="121.4" y1="50.0" x2="121.4" y2="50.0" style="stroke:#999; stroke-width:3;" />
  <line x1="121.4" y1="50.0" x2="142.0" y2="50.0" style="stroke:#999; stroke-width:3;" />
  <rect class="anc_exon" x="142" y="35.0" width="60" height="30" style="fill:#87bcbc;fill-opacity:1.00" />
  <line x1="202" y1="50.0" x2="222" y2="50.0" style="stroke:#999; stroke-width:3;" />
  <line x1="222" y1="50.0" x2="222" y2="50.0" style="stroke:#999; stroke-width:3;" />
  <line x1="222" y1="50.0" x2="222" y2="50.0" style="stroke:#999; stroke-width:3;" />
  <line x1="222" y1="50.0" x2="242" y2="50.0" style="stroke:#999; stroke-width:3;" />
  <rect class="anc_exon" x="242" y="35.0" width="88" height="30" style="fill:#87bcbc;fill-opacity:1.00" />
  <line x1="330" y1="50.0" x2="350" y2="50.0" style="stroke:#999; stroke-width:3;" />
  <line x1="350" y1="50.0" x2="350" y2="50.0" style="stroke:#999; stroke-width:3;" />
  <line x1="350" y1="50.0" x2="350" y2="50.0" style="stroke:#999; stroke-width:3;" />
  <line x1="350" y1="50.0" x2="370" y2="50.0" style="stroke:#999; stroke-width:3;" />
  <rect class="anc_exon" x="370" y="35.0" width="112" height="30" style="fill:#87bcbc;fill-opacity:1.00" />
  <line x1="482" y1="50.0" x2="502" y2="50.0" style="stroke:#999; stroke-width:3;" />
  <line x1="502" y1="50.0" x2="502" y2="50.0" style="stroke:#999; stroke-width:3;" />
  <line x1="502" y1="50.0" x2="502" y2="50.0" style="stroke:#999; stroke-width:3;" />
  <line x1="502" y1="50.0" x2="522" y2="50.0" style="stroke:#999; stroke-width:3;" />
  <rect class="anc_exon" x="522" y="35.0" width="46" height="30" style="fill:#87bcbc;fill-opacity:1.00" />
  <line x1="568" y1="50.0" x2="588" y2="50.0" style="stroke:#999; stroke-width:3;" />
  <line x1="588" y1="50.0" x2="588" y2="50.0" style="stroke:#999; stroke-width:3;" />
  <line x1="588" y1="50.0" x2="588" y2="50.0" style="stroke:#999; stroke-width:3;" />
  <line x1="588" y1="50.0" x2="608" y2="50.0" style="stroke:#999; stroke-width:3;" />
  <rect class="anc_exon" x="608" y="35.0" width="105" height="30" style="fill:#87bcbc;fill-opacity:1.00" />
  <line x1="713" y1="50.0" x2="733" y2="50.0" style="stroke:#999; stroke-width:3;" />
  <line x1="733" y1="50.0" x2="733" y2="50.0" style="stroke:#999; stroke-width:3;" />
  <line x1="733" y1="50.0" x2="733" y2="50.0" style="stroke:#999; stroke-width:3;" />
  <line x1="733" y1="50.0" x2="753" y2="50.0" style="stroke:#999; stroke-width:3;" />
  <rect class="anc_exon" x="753" y="35.0" width="115" height="30" style="fill:#87bcbc;fill-opacity:1.00" />
  <line x1="868" y1="50.0" x2="908" y2="50.0" style="stroke:#999; stroke-width:3;" />
  <rect class="anc_exon" x="908" y="35.0" width="56" height="30" style="fill:#87bcbc;fill-opacity:1.00" />
  <line x1="964" y1="50.0" x2="984" y2="50.0" style="stroke:#999; stroke-width:3;" />
  <line x1="984" y1="50.0" x2="984" y2="50.0" style="stroke:#999; stroke-width:3;" />
  <line x1="984" y1="50.0" x2="984" y2="50.0" style="stroke:#999; stroke-width:3;" />
  <line x1="984" y1="50.0" x2="1004" y2="50.0" style="stroke:#999; stroke-width:3;" />
  <rect class="anc_exon" x="1004" y="35.0" width="58" height="30" style="fill:#87bcbc;fill-opacity:1.00" />
  <line x1="1062" y1="50.0" x2="1082" y2="50.0" style="stroke:#999; stroke-width:3;" />
  <line x1="1082" y1="50.0" x2="1082" y2="50.0" style="stroke:#999; stroke-width:3;" />
  <line x1="1082" y1="50.0" x2="1082" y2="50.0" style="stroke:#999; stroke-width:3;" />
  <line x1="1082" y1="50.0" x2="1102" y2="50.0" style="stroke:#999; stroke-width:3;" />
  <rect class="anc_exon" x="1102" y="35.0" width="78" height="30" style="fill:#87bcbc;fill-opacity:1.00" />
  <line x1="1180" y1="50.0" x2="1220" y2="50.0" style="stroke:#999; stroke-width:3;" />
  <rect class="anc_exon" x="1220" y="35.0" width="63" height="30" style="fill:#87bcbc;fill-opacity:1.00" />
  <line x1="1283" y1="50.0" x2="1303" y2="50.0" style="stroke:#999; stroke-width:3;" />
  <line x1="1303" y1="50.0" x2="1303" y2="50.0" style="stroke:#999; stroke-width:3;" />
  <line x1="1303" y1="50.0" x2="1303" y2="50.0" style="stroke:#999; stroke-width:3;" />
  <line x1="1303" y1="50.0" x2="1323" y2="50.0" style="stroke:#999; stroke-width:3;" />
  <rect class="anc_exon" x="1323" y="35.0" width="225" height="30" style="fill:#87bcbc;fill-opacity:1.00" />
  <line x1="1548" y1="50.0" x2="1568" y2="50.0" style="stroke:#999; stroke-width:3;" />
  <line x1="1568" y1="50.0" x2="1568" y2="50.0" style="stroke:#999; stroke-width:3;" />
  <line x1="1568" y1="50.0" x2="1568" y2="50.0" style="stroke:#999; stroke-width:3;" />
  <line x1="1568" y1="50.0" x2="1588" y2="50.0" style="stroke:#999; stroke-width:3;" />
  <rect class="anc_exon" x="1588" y="35.0" width="105" height="30" style="fill:#87bcbc;fill-opacity:1.00" />
  <rect class="anc_exon" x="1693" y="35.0" width="0" height="30" style="fill:#87bcbc;fill-opacity:1.00" />
  <text style="" >
<tspan x="0" y="83.0" style="font-size:18px;" >SP XM_031964405_1.1</tspan>  </text>



<script type="text/ecmascript">
<![CDATA[
function draw_bbox(text_id)
{
    var text_elem = document.getElementById(text_id);
    var offset_px = 2;
    var offset_py = 0;
    bbox = text_elem.getBBox();
    var box = document.createElementNS(document.rootElement.namespaceURI,'rect');
    box.setAttribute('x', bbox.x - offset_px);
    box.setAttribute('y', bbox.y - offset_py);
    box.setAttribute('width', bbox.width + offset_px * 2);
    box.setAttribute('height', bbox.height + offset_py * 2);
    box.setAttribute('style','fill: white;'+'stroke: black;'+'stroke-width: 1px;');
    text_elem.insertBefore(box,text_elem.childNodes[0]);

    var svg = text_elem.parentNode;
    svg.appendChild(text_elem);
}

for (var i=1; i < 1; i++)
{
draw_bbox("Mouseover" + i);
}
]]> 
</script>
</svg>
