<svg version="1.1"
xmlns="http://www.w3.org/2000/svg"
xmlns:xlink="http://www.w3.org/1999/xlink"
width="1906" height="100" viewBox = "0 0 1906 100"
onclick="mouseclick(evt)">

<script type="text/ecmascript">

<![CDATA[
    function mouseover(evt, target) { 
    var gv = document.getElementById("globalVariable");
    var previoustarget = gv.firstChild.nodeValue;
    if (previoustarget != "none") 
    {
        	document.getElementById(gv.firstChild.nodeValue).setAttributeNS(null, "visibility", "hidden");
    }
    document.getElementById(target).setAttributeNS(null, "visibility", "visible");
    gv.firstChild.nodeValue = target;
        }

    function mouseclick(evt) { 
    var gv = document.getElementById("globalVariable");
    var previoustarget = gv.firstChild.nodeValue;
    if (previoustarget != "none") {
        	document.getElementById(gv.firstChild.nodeValue).setAttributeNS(null, "visibility", "hidden");
        }
    }
]]>
  </script>
<style type="text/css" >

<![CDATA[
    rect.anc_exon {
              stroke-width:3;
                  }

    rect.non_anc_exon {
              stroke: black; stroke-width:3; stroke-dasharray: 5,5;
                    }

    text {
              font-size: 18px;
              font-family: Courier New;
          }
                    ]]>
</style>

<defs>
    <text x="150" y="40" id="globalVariable">none</text>
</defs>

  <rect class="anc_exon" x="0" y="35.0" width="0" height="30" style="fill:#87bcbc;fill-opacity:1.00" />
  <rect class="anc_exon" x="0" y="35.0" width="56.0" height="30" style="fill:#87bcbc;fill-opacity:1.00" />
  <line x1="56.0" y1="50.0" x2="76.0" y2="50.0" style="stroke:#999; stroke-width:3;" />
  <line x1="76.0" y1="50.0" x2="76.0" y2="50.0" style="stroke:#999; stroke-width:3;" />
  <line x1="76.0" y1="50.0" x2="76.0" y2="50.0" style="stroke:#999; stroke-width:3;" />
  <line x1="76.0" y1="50.0" x2="96.0" y2="50.0" style="stroke:#999; stroke-width:3;" />
  <rect class="anc_exon" x="96" y="35.0" width="32" height="30" style="fill:#87bcbc;fill-opacity:1.00" />
  <line x1="128" y1="50.0" x2="168" y2="50.0" style="stroke:#999; stroke-width:3;" />
  <rect class="anc_exon" x="168" y="35.0" width="62" height="30" style="fill:#87bcbc;fill-opacity:1.00" />
  <line x1="230" y1="50.0" x2="270" y2="50.0" style="stroke:#999; stroke-width:3;" />
  <rect class="anc_exon" x="270" y="35.0" width="104" height="30" style="fill:#87bcbc;fill-opacity:1.00" />
  <line x1="374" y1="50.0" x2="414" y2="50.0" style="stroke:#999; stroke-width:3;" />
  <rect class="anc_exon" x="414" y="35.0" width="94" height="30" style="fill:#87bcbc;fill-opacity:1.00" />
  <line x1="508" y1="50.0" x2="548" y2="50.0" style="stroke:#999; stroke-width:3;" />
  <rect class="anc_exon" x="548" y="35.0" width="122" height="30" style="fill:#87bcbc;fill-opacity:1.00" />
  <line x1="670" y1="50.0" x2="710" y2="50.0" style="stroke:#999; stroke-width:3;" />
  <rect class="anc_exon" x="710" y="35.0" width="240" height="30" style="fill:#87bcbc;fill-opacity:1.00" />
  <line x1="950" y1="50.0" x2="990" y2="50.0" style="stroke:#999; stroke-width:3;" />
  <rect class="anc_exon" x="990" y="35.0" width="164" height="30" style="fill:#87bcbc;fill-opacity:1.00" />
  <line x1="1154" y1="50.0" x2="1194" y2="50.0" style="stroke:#999; stroke-width:3;" />
  <rect class="anc_exon" x="1194" y="35.0" width="67" height="30" style="fill:#87bcbc;fill-opacity:1.00" />
  <line x1="1261" y1="50.0" x2="1301" y2="50.0" style="stroke:#999; stroke-width:3;" />
  <rect class="anc_exon" x="1301" y="35.0" width="39" height="30" style="fill:#87bcbc;fill-opacity:1.00" />
  <line x1="1340" y1="50.0" x2="1380" y2="50.0" style="stroke:#999; stroke-width:3;" />
  <rect class="anc_exon" x="1380" y="35.0" width="68" height="30" style="fill:#87bcbc;fill-opacity:1.00" />
  <line x1="1448" y1="50.0" x2="1488" y2="50.0" style="stroke:#999; stroke-width:3;" />
  <rect class="anc_exon" x="1488" y="35.0" width="120" height="30" style="fill:#87bcbc;fill-opacity:1.00" />
  <line x1="1608" y1="50.0" x2="1648" y2="50.0" style="stroke:#999; stroke-width:3;" />
  <rect class="anc_exon" x="1648" y="35.0" width="101" height="30" style="fill:#87bcbc;fill-opacity:1.00" />
  <line x1="1749" y1="50.0" x2="1789" y2="50.0" style="stroke:#999; stroke-width:3;" />
  <rect class="anc_exon" x="1789" y="35.0" width="39" height="30" style="fill:#87bcbc;fill-opacity:1.00" />
  <line x1="1828" y1="50.0" x2="1868" y2="50.0" style="stroke:#999; stroke-width:3;" />
  <rect class="anc_exon" x="1868" y="35.0" width="2" height="30" style="fill:#87bcbc;fill-opacity:1.00" />
  <rect class="anc_exon" x="1870" y="35.0" width="0" height="30" style="fill:#87bcbc;fill-opacity:1.00" />
  <text style="" >
<tspan x="0" y="83.0" style="font-size:18px;" >SP XM_012549745_3.1</tspan>  </text>



<script type="text/ecmascript">
<![CDATA[
function draw_bbox(text_id)
{
    var text_elem = document.getElementById(text_id);
    var offset_px = 2;
    var offset_py = 0;
    bbox = text_elem.getBBox();
    var box = document.createElementNS(document.rootElement.namespaceURI,'rect');
    box.setAttribute('x', bbox.x - offset_px);
    box.setAttribute('y', bbox.y - offset_py);
    box.setAttribute('width', bbox.width + offset_px * 2);
    box.setAttribute('height', bbox.height + offset_py * 2);
    box.setAttribute('style','fill: white;'+'stroke: black;'+'stroke-width: 1px;');
    text_elem.insertBefore(box,text_elem.childNodes[0]);

    var svg = text_elem.parentNode;
    svg.appendChild(text_elem);
}

for (var i=1; i < 1; i++)
{
draw_bbox("Mouseover" + i);
}
]]> 
</script>
</svg>
