<svg version="1.1"
xmlns="http://www.w3.org/2000/svg"
xmlns:xlink="http://www.w3.org/1999/xlink"
width="2387" height="120.0" viewBox = "0 -20.0 2387 120.0"
onclick="mouseclick(evt)">

<script type="text/ecmascript">

<![CDATA[
    function mouseover(evt, target) { 
    var gv = document.getElementById("globalVariable");
    var previoustarget = gv.firstChild.nodeValue;
    if (previoustarget != "none") 
    {
        	document.getElementById(gv.firstChild.nodeValue).setAttributeNS(null, "visibility", "hidden");
    }
    document.getElementById(target).setAttributeNS(null, "visibility", "visible");
    gv.firstChild.nodeValue = target;
        }

    function mouseclick(evt) { 
    var gv = document.getElementById("globalVariable");
    var previoustarget = gv.firstChild.nodeValue;
    if (previoustarget != "none") {
        	document.getElementById(gv.firstChild.nodeValue).setAttributeNS(null, "visibility", "hidden");
        }
    }
]]>
  </script>
<style type="text/css" >

<![CDATA[
    rect.anc_exon {
              stroke-width:3;
                  }

    rect.non_anc_exon {
              stroke: black; stroke-width:3; stroke-dasharray: 5,5;
                    }

    text {
              font-size: 18px;
              font-family: Courier New;
          }
                    ]]>
</style>

<defs>
    <text x="150" y="40" id="globalVariable">none</text>
</defs>

  <rect class="anc_exon" x="0" y="35.0" width="0" height="30" style="fill:#87bcbc;fill-opacity:1.00" />
  <rect class="anc_exon" x="0" y="35.0" width="208.0" height="30" style="fill:#87bcbc;fill-opacity:1.00" />
  <line x1="49.2" y1="35.0" x2="49.2" y2="65.0" style="stroke:#121212; stroke-width:0.8; stroke-opacity:1"/>
  <line x1="121.60000000000001" y1="35.0" x2="121.60000000000001" y2="65.0" style="stroke:#121212; stroke-width:1.6; stroke-opacity:1"/>
  <polygon points="149.6,35.0 152.1,25.0 147.1,25.0" style="fill:#121212; stroke-opacity:1; fill-opacity:1"/>
  <text style="" text-anchor="middle">
<tspan x="48.800000000000004" y="26.0" style="font-size:18px;fill:#121212;" >-1</tspan>  </text>
  <text style="" text-anchor="middle">
<tspan x="120.80000000000001" y="26.0" style="font-size:18px;fill:#121212;" >-2</tspan>  </text>
  <text style="" text-anchor="middle">
<tspan x="149.6" y="16.0" style="font-size:18px;fill:#121212;" >+1</tspan>  </text>
  <line x1="208.0" y1="50.0" x2="228.0" y2="50.0" style="stroke:#999; stroke-width:3;" />
  <line x1="228.0" y1="50.0" x2="228.0" y2="50.0" style="stroke:#999; stroke-width:3;" />
  <line x1="228.0" y1="50.0" x2="228.0" y2="50.0" style="stroke:#999; stroke-width:3;" />
  <line x1="228.0" y1="50.0" x2="248.0" y2="50.0" style="stroke:#999; stroke-width:3;" />
  <rect class="anc_exon" x="248" y="35.0" width="48" height="30" style="fill:#87bcbc;fill-opacity:1.00" />
  <line x1="296" y1="50.0" x2="316" y2="50.0" style="stroke:#999; stroke-width:3;" />
  <line x1="316" y1="50.0" x2="316" y2="50.0" style="stroke:#999; stroke-width:3;" />
  <line x1="316" y1="50.0" x2="316" y2="50.0" style="stroke:#999; stroke-width:3;" />
  <line x1="316" y1="50.0" x2="336" y2="50.0" style="stroke:#999; stroke-width:3;" />
  <rect class="anc_exon" x="336" y="35.0" width="64" height="30" style="fill:#87bcbc;fill-opacity:1.00" />
  <line x1="400" y1="50.0" x2="440" y2="50.0" style="stroke:#999; stroke-width:3;" />
  <rect class="anc_exon" x="440" y="35.0" width="84" height="30" style="fill:#87bcbc;fill-opacity:1.00" />
  <line x1="524" y1="50.0" x2="564" y2="50.0" style="stroke:#999; stroke-width:3;" />
  <rect class="anc_exon" x="564" y="35.0" width="137" height="30" style="fill:#87bcbc;fill-opacity:1.00" />
  <line x1="701" y1="50.0" x2="741" y2="50.0" style="stroke:#999; stroke-width:3;" />
  <rect class="anc_exon" x="741" y="35.0" width="52" height="30" style="fill:#87bcbc;fill-opacity:1.00" />
  <line x1="793" y1="50.0" x2="813" y2="50.0" style="stroke:#999; stroke-width:3;" />
  <line x1="813" y1="50.0" x2="813" y2="50.0" style="stroke:#999; stroke-width:3;" />
  <line x1="813" y1="50.0" x2="813" y2="50.0" style="stroke:#999; stroke-width:3;" />
  <line x1="813" y1="50.0" x2="833" y2="50.0" style="stroke:#999; stroke-width:3;" />
  <rect class="anc_exon" x="833" y="35.0" width="96" height="30" style="fill:#87bcbc;fill-opacity:1.00" />
  <line x1="929" y1="50.0" x2="969" y2="50.0" style="stroke:#999; stroke-width:3;" />
  <rect class="anc_exon" x="969" y="35.0" width="153" height="30" style="fill:#87bcbc;fill-opacity:1.00" />
  <line x1="1122" y1="50.0" x2="1162" y2="50.0" style="stroke:#999; stroke-width:3;" />
  <rect class="anc_exon" x="1162" y="35.0" width="156" height="30" style="fill:#87bcbc;fill-opacity:1.00" />
  <line x1="1318" y1="50.0" x2="1358" y2="50.0" style="stroke:#999; stroke-width:3;" />
  <rect class="anc_exon" x="1358" y="35.0" width="72" height="30" style="fill:#87bcbc;fill-opacity:1.00" />
  <line x1="1430" y1="50.0" x2="1470" y2="50.0" style="stroke:#999; stroke-width:3;" />
  <rect class="anc_exon" x="1470" y="35.0" width="144" height="30" style="fill:#87bcbc;fill-opacity:1.00" />
  <line x1="1614" y1="50.0" x2="1654" y2="50.0" style="stroke:#999; stroke-width:3;" />
  <rect class="anc_exon" x="1654" y="35.0" width="65" height="30" style="fill:#87bcbc;fill-opacity:1.00" />
  <line x1="1719" y1="50.0" x2="1759" y2="50.0" style="stroke:#999; stroke-width:3;" />
  <rect class="anc_exon" x="1759" y="35.0" width="109" height="30" style="fill:#87bcbc;fill-opacity:1.00" />
  <line x1="1868" y1="50.0" x2="1888" y2="50.0" style="stroke:#999; stroke-width:3;" />
  <line x1="1888" y1="50.0" x2="1888" y2="50.0" style="stroke:#999; stroke-width:3;" />
  <line x1="1888" y1="50.0" x2="1888" y2="50.0" style="stroke:#999; stroke-width:3;" />
  <line x1="1888" y1="50.0" x2="1908" y2="50.0" style="stroke:#999; stroke-width:3;" />
  <rect class="anc_exon" x="1908" y="35.0" width="103" height="30" style="fill:#87bcbc;fill-opacity:1.00" />
  <line x1="2011" y1="50.0" x2="2031" y2="50.0" style="stroke:#999; stroke-width:3;" />
  <line x1="2031" y1="50.0" x2="2031" y2="50.0" style="stroke:#999; stroke-width:3;" />
  <line x1="2031" y1="50.0" x2="2031" y2="50.0" style="stroke:#999; stroke-width:3;" />
  <line x1="2031" y1="50.0" x2="2051" y2="50.0" style="stroke:#999; stroke-width:3;" />
  <rect class="anc_exon" x="2051" y="35.0" width="66" height="30" style="fill:#87bcbc;fill-opacity:1.00" />
  <line x1="2117" y1="50.0" x2="2137" y2="50.0" style="stroke:#999; stroke-width:3;" />
  <line x1="2137" y1="50.0" x2="2137" y2="50.0" style="stroke:#999; stroke-width:3;" />
  <line x1="2137" y1="50.0" x2="2137" y2="50.0" style="stroke:#999; stroke-width:3;" />
  <line x1="2137" y1="50.0" x2="2157" y2="50.0" style="stroke:#999; stroke-width:3;" />
  <rect class="anc_exon" x="2157" y="35.0" width="76" height="30" style="fill:#87bcbc;fill-opacity:1.00" />
  <line x1="2233" y1="50.0" x2="2273" y2="50.0" style="stroke:#999; stroke-width:3;" />
  <rect class="anc_exon" x="2273" y="35.0" width="78" height="30" style="fill:#87bcbc;fill-opacity:1.00" />
  <rect class="anc_exon" x="2351" y="35.0" width="0" height="30" style="fill:#87bcbc;fill-opacity:1.00" />
  <text style="" >
<tspan x="0" y="83.0" style="font-size:18px;" >SP XM_031967142_1.1</tspan>  </text>



<script type="text/ecmascript">
<![CDATA[
function draw_bbox(text_id)
{
    var text_elem = document.getElementById(text_id);
    var offset_px = 2;
    var offset_py = 0;
    bbox = text_elem.getBBox();
    var box = document.createElementNS(document.rootElement.namespaceURI,'rect');
    box.setAttribute('x', bbox.x - offset_px);
    box.setAttribute('y', bbox.y - offset_py);
    box.setAttribute('width', bbox.width + offset_px * 2);
    box.setAttribute('height', bbox.height + offset_py * 2);
    box.setAttribute('style','fill: white;'+'stroke: black;'+'stroke-width: 1px;');
    text_elem.insertBefore(box,text_elem.childNodes[0]);

    var svg = text_elem.parentNode;
    svg.appendChild(text_elem);
}

for (var i=1; i < 1; i++)
{
draw_bbox("Mouseover" + i);
}
]]> 
</script>
</svg>
