<svg version="1.1"
xmlns="http://www.w3.org/2000/svg"
xmlns:xlink="http://www.w3.org/1999/xlink"
width="2526" height="110.0" viewBox = "0 -10.0 2526 110.0"
onclick="mouseclick(evt)">

<script type="text/ecmascript">

<![CDATA[
    function mouseover(evt, target) { 
    var gv = document.getElementById("globalVariable");
    var previoustarget = gv.firstChild.nodeValue;
    if (previoustarget != "none") 
    {
        	document.getElementById(gv.firstChild.nodeValue).setAttributeNS(null, "visibility", "hidden");
    }
    document.getElementById(target).setAttributeNS(null, "visibility", "visible");
    gv.firstChild.nodeValue = target;
        }

    function mouseclick(evt) { 
    var gv = document.getElementById("globalVariable");
    var previoustarget = gv.firstChild.nodeValue;
    if (previoustarget != "none") {
        	document.getElementById(gv.firstChild.nodeValue).setAttributeNS(null, "visibility", "hidden");
        }
    }
]]>
  </script>
<style type="text/css" >

<![CDATA[
    rect.anc_exon {
              stroke-width:3;
                  }

    rect.non_anc_exon {
              stroke: black; stroke-width:3; stroke-dasharray: 5,5;
                    }

    text {
              font-size: 18px;
              font-family: Courier New;
          }
                    ]]>
</style>

<defs>
    <text x="150" y="40" id="globalVariable">none</text>
</defs>

  <rect class="anc_exon" x="0" y="35.0" width="0" height="30" style="fill:#87bcbc;fill-opacity:1.00" />
  <rect class="anc_exon" x="0" y="35.0" width="62.400000000000006" height="30" style="fill:#87bcbc;fill-opacity:1.00" />
  <line x1="13.600000000000001" y1="35.0" x2="13.600000000000001" y2="65.0" style="stroke:#878787;stroke-width:3;"/>
  <text style="" text-anchor="middle">
<tspan x="12.8" y="26.0" style="font-size:18px;fill:#878787;" >TAG</tspan>  </text>
  <line x1="62.400000000000006" y1="50.0" x2="81.4" y2="50.0" style="stroke:#999; stroke-width:3;" />
  <line x1="81.4" y1="50.0" x2="81.4" y2="50.0" style="stroke:#999; stroke-width:3;" />
  <line x1="81.4" y1="50.0" x2="81.4" y2="50.0" style="stroke:#999; stroke-width:3;" />
  <line x1="81.4" y1="50.0" x2="102.0" y2="50.0" style="stroke:#999; stroke-width:3;" />
  <rect class="anc_exon" x="102" y="35.0" width="120" height="30" style="fill:#87bcbc;fill-opacity:1.00" />
  <line x1="222" y1="50.0" x2="262" y2="50.0" style="stroke:#999; stroke-width:3;" />
  <rect class="anc_exon" x="262" y="35.0" width="70" height="30" style="fill:#87bcbc;fill-opacity:1.00" />
  <line x1="332" y1="50.0" x2="352" y2="50.0" style="stroke:#999; stroke-width:3;" />
  <line x1="352" y1="50.0" x2="352" y2="50.0" style="stroke:#999; stroke-width:3;" />
  <line x1="352" y1="50.0" x2="352" y2="50.0" style="stroke:#999; stroke-width:3;" />
  <line x1="352" y1="50.0" x2="372" y2="50.0" style="stroke:#999; stroke-width:3;" />
  <rect class="anc_exon" x="372" y="35.0" width="32" height="30" style="fill:#87bcbc;fill-opacity:1.00" />
  <line x1="404" y1="50.0" x2="444" y2="50.0" style="stroke:#999; stroke-width:3;" />
  <rect class="anc_exon" x="444" y="35.0" width="60" height="30" style="fill:#87bcbc;fill-opacity:1.00" />
  <line x1="504" y1="50.0" x2="524" y2="50.0" style="stroke:#999; stroke-width:3;" />
  <line x1="524" y1="50.0" x2="524" y2="50.0" style="stroke:#999; stroke-width:3;" />
  <line x1="524" y1="50.0" x2="524" y2="50.0" style="stroke:#999; stroke-width:3;" />
  <line x1="524" y1="50.0" x2="544" y2="50.0" style="stroke:#999; stroke-width:3;" />
  <rect class="anc_exon" x="544" y="35.0" width="94" height="30" style="fill:#87bcbc;fill-opacity:1.00" />
  <line x1="638" y1="50.0" x2="678" y2="50.0" style="stroke:#999; stroke-width:3;" />
  <rect class="anc_exon" x="678" y="35.0" width="140" height="30" style="fill:#87bcbc;fill-opacity:1.00" />
  <line x1="818" y1="50.0" x2="838" y2="50.0" style="stroke:#999; stroke-width:3;" />
  <line x1="838" y1="50.0" x2="838" y2="50.0" style="stroke:#999; stroke-width:3;" />
  <line x1="838" y1="50.0" x2="838" y2="50.0" style="stroke:#999; stroke-width:3;" />
  <line x1="838" y1="50.0" x2="858" y2="50.0" style="stroke:#999; stroke-width:3;" />
  <rect class="anc_exon" x="858" y="35.0" width="177" height="30" style="fill:#87bcbc;fill-opacity:1.00" />
  <line x1="1035" y1="50.0" x2="1075" y2="50.0" style="stroke:#999; stroke-width:3;" />
  <rect class="anc_exon" x="1075" y="35.0" width="120" height="30" style="fill:#87bcbc;fill-opacity:1.00" />
  <line x1="1195" y1="50.0" x2="1215" y2="50.0" style="stroke:#999; stroke-width:3;" />
  <line x1="1215" y1="50.0" x2="1215" y2="50.0" style="stroke:#999; stroke-width:3;" />
  <line x1="1215" y1="50.0" x2="1215" y2="50.0" style="stroke:#999; stroke-width:3;" />
  <line x1="1215" y1="50.0" x2="1235" y2="50.0" style="stroke:#999; stroke-width:3;" />
  <rect class="anc_exon" x="1235" y="35.0" width="172" height="30" style="fill:#87bcbc;fill-opacity:1.00" />
  <line x1="1407" y1="50.0" x2="1427" y2="50.0" style="stroke:#999; stroke-width:3;" />
  <line x1="1427" y1="50.0" x2="1427" y2="50.0" style="stroke:#999; stroke-width:3;" />
  <line x1="1427" y1="50.0" x2="1427" y2="50.0" style="stroke:#999; stroke-width:3;" />
  <line x1="1427" y1="50.0" x2="1447" y2="50.0" style="stroke:#999; stroke-width:3;" />
  <rect class="anc_exon" x="1447" y="35.0" width="379" height="30" style="fill:#87bcbc;fill-opacity:1.00" />
  <line x1="1826" y1="50.0" x2="1866" y2="50.0" style="stroke:#999; stroke-width:3;" />
  <rect class="anc_exon" x="1866" y="35.0" width="139" height="30" style="fill:#87bcbc;fill-opacity:1.00" />
  <line x1="2005" y1="50.0" x2="2025" y2="50.0" style="stroke:#999; stroke-width:3;" />
  <line x1="2025" y1="50.0" x2="2025" y2="50.0" style="stroke:#999; stroke-width:3;" />
  <line x1="2025" y1="50.0" x2="2025" y2="50.0" style="stroke:#999; stroke-width:3;" />
  <line x1="2025" y1="50.0" x2="2045" y2="50.0" style="stroke:#999; stroke-width:3;" />
  <rect class="anc_exon" x="2045" y="35.0" width="226" height="30" style="fill:#87bcbc;fill-opacity:1.00" />
  <line x1="2271" y1="50.0" x2="2291" y2="50.0" style="stroke:#999; stroke-width:3;" />
  <line x1="2291" y1="50.0" x2="2291" y2="50.0" style="stroke:#999; stroke-width:3;" />
  <line x1="2291" y1="50.0" x2="2291" y2="50.0" style="stroke:#999; stroke-width:3;" />
  <line x1="2291" y1="50.0" x2="2311" y2="50.0" style="stroke:#999; stroke-width:3;" />
  <rect class="anc_exon" x="2311" y="35.0" width="122" height="30" style="fill:#87bcbc;fill-opacity:1.00" />
  <line x1="2433" y1="50.0" x2="2453" y2="50.0" style="stroke:#999; stroke-width:3;" />
  <line x1="2453" y1="50.0" x2="2453" y2="50.0" style="stroke:#999; stroke-width:3;" />
  <line x1="2453" y1="50.0" x2="2453" y2="50.0" style="stroke:#999; stroke-width:3;" />
  <line x1="2453" y1="50.0" x2="2473" y2="50.0" style="stroke:#999; stroke-width:3;" />
  <rect class="anc_exon" x="2473" y="35.0" width="17" height="30" style="fill:#87bcbc;fill-opacity:1.00" />
  <rect class="anc_exon" x="2490" y="35.0" width="0" height="30" style="fill:#87bcbc;fill-opacity:1.00" />
  <text style="" >
<tspan x="0" y="83.0" style="font-size:18px;" >SP XM_012549101_2.1</tspan>  </text>
  <text style="fill:#121212;" >
<tspan x="222" y="50.0" style="font-size:18px;fill:#121212;" >--</tspan>  </text>
  <text style="fill:#121212;" >
<tspan x="238.96" y="68.0" style="font-size:18px;fill:#121212;" >--</tspan>  </text>
  <text style="fill:#121212;" >
<tspan x="2433" y="50.0" style="font-size:18px;fill:#121212;" >ac</tspan>  </text>



<script type="text/ecmascript">
<![CDATA[
function draw_bbox(text_id)
{
    var text_elem = document.getElementById(text_id);
    var offset_px = 2;
    var offset_py = 0;
    bbox = text_elem.getBBox();
    var box = document.createElementNS(document.rootElement.namespaceURI,'rect');
    box.setAttribute('x', bbox.x - offset_px);
    box.setAttribute('y', bbox.y - offset_py);
    box.setAttribute('width', bbox.width + offset_px * 2);
    box.setAttribute('height', bbox.height + offset_py * 2);
    box.setAttribute('style','fill: white;'+'stroke: black;'+'stroke-width: 1px;');
    text_elem.insertBefore(box,text_elem.childNodes[0]);

    var svg = text_elem.parentNode;
    svg.appendChild(text_elem);
}

for (var i=1; i < 1; i++)
{
draw_bbox("Mouseover" + i);
}
]]> 
</script>
</svg>
