<svg version="1.1"
xmlns="http://www.w3.org/2000/svg"
xmlns:xlink="http://www.w3.org/1999/xlink"
width="5173" height="100" viewBox = "0 0 5173 100"
onclick="mouseclick(evt)">

<script type="text/ecmascript">

<![CDATA[
    function mouseover(evt, target) { 
    var gv = document.getElementById("globalVariable");
    var previoustarget = gv.firstChild.nodeValue;
    if (previoustarget != "none") 
    {
        	document.getElementById(gv.firstChild.nodeValue).setAttributeNS(null, "visibility", "hidden");
    }
    document.getElementById(target).setAttributeNS(null, "visibility", "visible");
    gv.firstChild.nodeValue = target;
        }

    function mouseclick(evt) { 
    var gv = document.getElementById("globalVariable");
    var previoustarget = gv.firstChild.nodeValue;
    if (previoustarget != "none") {
        	document.getElementById(gv.firstChild.nodeValue).setAttributeNS(null, "visibility", "hidden");
        }
    }
]]>
  </script>
<style type="text/css" >

<![CDATA[
    rect.anc_exon {
              stroke-width:3;
                  }

    rect.non_anc_exon {
              stroke: black; stroke-width:3; stroke-dasharray: 5,5;
                    }

    text {
              font-size: 18px;
              font-family: Courier New;
          }
                    ]]>
</style>

<defs>
    <text x="150" y="40" id="globalVariable">none</text>
</defs>

  <rect class="anc_exon" x="0" y="35.0" width="0" height="30" style="fill:#87bcbc;fill-opacity:1.00" />
  <rect class="anc_exon" x="0" y="35.0" width="36.800000000000004" height="30" style="fill:#87bcbc;fill-opacity:1.00" />
  <line x1="36.800000000000004" y1="50.0" x2="55.800000000000004" y2="50.0" style="stroke:#999; stroke-width:3;" />
  <line x1="55.800000000000004" y1="50.0" x2="55.800000000000004" y2="50.0" style="stroke:#999; stroke-width:3;" />
  <line x1="55.800000000000004" y1="50.0" x2="55.800000000000004" y2="50.0" style="stroke:#999; stroke-width:3;" />
  <line x1="55.800000000000004" y1="50.0" x2="76.0" y2="50.0" style="stroke:#999; stroke-width:3;" />
  <rect class="anc_exon" x="76" y="35.0" width="68" height="30" style="fill:#87bcbc;fill-opacity:1.00" />
  <line x1="144" y1="50.0" x2="164" y2="50.0" style="stroke:#999; stroke-width:3;" />
  <line x1="164" y1="50.0" x2="164" y2="50.0" style="stroke:#999; stroke-width:3;" />
  <line x1="164" y1="50.0" x2="164" y2="50.0" style="stroke:#999; stroke-width:3;" />
  <line x1="164" y1="50.0" x2="184" y2="50.0" style="stroke:#999; stroke-width:3;" />
  <rect class="anc_exon" x="184" y="35.0" width="80" height="30" style="fill:#87bcbc;fill-opacity:1.00" />
  <line x1="264" y1="50.0" x2="304" y2="50.0" style="stroke:#999; stroke-width:3;" />
  <rect class="anc_exon" x="304" y="35.0" width="125" height="30" style="fill:#87bcbc;fill-opacity:1.00" />
  <line x1="429" y1="50.0" x2="449" y2="50.0" style="stroke:#999; stroke-width:3;" />
  <line x1="449" y1="50.0" x2="449" y2="50.0" style="stroke:#999; stroke-width:3;" />
  <line x1="449" y1="50.0" x2="449" y2="50.0" style="stroke:#999; stroke-width:3;" />
  <line x1="449" y1="50.0" x2="469" y2="50.0" style="stroke:#999; stroke-width:3;" />
  <rect class="anc_exon" x="469" y="35.0" width="112" height="30" style="fill:#87bcbc;fill-opacity:1.00" />
  <line x1="581" y1="50.0" x2="621" y2="50.0" style="stroke:#999; stroke-width:3;" />
  <rect class="anc_exon" x="621" y="35.0" width="76" height="30" style="fill:#87bcbc;fill-opacity:1.00" />
  <line x1="697" y1="50.0" x2="737" y2="50.0" style="stroke:#999; stroke-width:3;" />
  <rect class="anc_exon" x="737" y="35.0" width="101" height="30" style="fill:#87bcbc;fill-opacity:1.00" />
  <line x1="838" y1="50.0" x2="858" y2="50.0" style="stroke:#999; stroke-width:3;" />
  <line x1="858" y1="50.0" x2="858" y2="50.0" style="stroke:#999; stroke-width:3;" />
  <line x1="858" y1="50.0" x2="858" y2="50.0" style="stroke:#999; stroke-width:3;" />
  <line x1="858" y1="50.0" x2="878" y2="50.0" style="stroke:#999; stroke-width:3;" />
  <rect class="anc_exon" x="878" y="35.0" width="154" height="30" style="fill:#87bcbc;fill-opacity:1.00" />
  <line x1="1032" y1="50.0" x2="1072" y2="50.0" style="stroke:#999; stroke-width:3;" />
  <rect class="anc_exon" x="1072" y="35.0" width="137" height="30" style="fill:#87bcbc;fill-opacity:1.00" />
  <line x1="1209" y1="50.0" x2="1249" y2="50.0" style="stroke:#999; stroke-width:3;" />
  <rect class="anc_exon" x="1249" y="35.0" width="187" height="30" style="fill:#87bcbc;fill-opacity:1.00" />
  <line x1="1436" y1="50.0" x2="1456" y2="50.0" style="stroke:#999; stroke-width:3;" />
  <line x1="1456" y1="50.0" x2="1456" y2="50.0" style="stroke:#999; stroke-width:3;" />
  <line x1="1456" y1="50.0" x2="1456" y2="50.0" style="stroke:#999; stroke-width:3;" />
  <line x1="1456" y1="50.0" x2="1476" y2="50.0" style="stroke:#999; stroke-width:3;" />
  <rect class="anc_exon" x="1476" y="35.0" width="68" height="30" style="fill:#87bcbc;fill-opacity:1.00" />
  <line x1="1544" y1="50.0" x2="1584" y2="50.0" style="stroke:#999; stroke-width:3;" />
  <rect class="anc_exon" x="1584" y="35.0" width="48" height="30" style="fill:#87bcbc;fill-opacity:1.00" />
  <line x1="1632" y1="50.0" x2="1672" y2="50.0" style="stroke:#999; stroke-width:3;" />
  <rect class="anc_exon" x="1672" y="35.0" width="16" height="30" style="fill:#87bcbc;fill-opacity:1.00" />
  <line x1="1688" y1="50.0" x2="1708" y2="50.0" style="stroke:#999; stroke-width:3;" />
  <line x1="1708" y1="50.0" x2="1708" y2="50.0" style="stroke:#999; stroke-width:3;" />
  <line x1="1708" y1="50.0" x2="1708" y2="50.0" style="stroke:#999; stroke-width:3;" />
  <line x1="1708" y1="50.0" x2="1728" y2="50.0" style="stroke:#999; stroke-width:3;" />
  <rect class="anc_exon" x="1728" y="35.0" width="88" height="30" style="fill:#87bcbc;fill-opacity:1.00" />
  <line x1="1816" y1="50.0" x2="1836" y2="50.0" style="stroke:#999; stroke-width:3;" />
  <line x1="1836" y1="50.0" x2="1836" y2="50.0" style="stroke:#999; stroke-width:3;" />
  <line x1="1836" y1="50.0" x2="1836" y2="50.0" style="stroke:#999; stroke-width:3;" />
  <line x1="1836" y1="50.0" x2="1856" y2="50.0" style="stroke:#999; stroke-width:3;" />
  <rect class="anc_exon" x="1856" y="35.0" width="109" height="30" style="fill:#87bcbc;fill-opacity:1.00" />
  <line x1="1965" y1="50.0" x2="2005" y2="50.0" style="stroke:#999; stroke-width:3;" />
  <rect class="anc_exon" x="2005" y="35.0" width="166" height="30" style="fill:#87bcbc;fill-opacity:1.00" />
  <line x1="2171" y1="50.0" x2="2211" y2="50.0" style="stroke:#999; stroke-width:3;" />
  <rect class="anc_exon" x="2211" y="35.0" width="90" height="30" style="fill:#87bcbc;fill-opacity:1.00" />
  <line x1="2301" y1="50.0" x2="2321" y2="50.0" style="stroke:#999; stroke-width:3;" />
  <line x1="2321" y1="50.0" x2="2321" y2="50.0" style="stroke:#999; stroke-width:3;" />
  <line x1="2321" y1="50.0" x2="2321" y2="50.0" style="stroke:#999; stroke-width:3;" />
  <line x1="2321" y1="50.0" x2="2341" y2="50.0" style="stroke:#999; stroke-width:3;" />
  <rect class="anc_exon" x="2341" y="35.0" width="87" height="30" style="fill:#87bcbc;fill-opacity:1.00" />
  <line x1="2428" y1="50.0" x2="2468" y2="50.0" style="stroke:#999; stroke-width:3;" />
  <rect class="anc_exon" x="2468" y="35.0" width="285" height="30" style="fill:#87bcbc;fill-opacity:1.00" />
  <line x1="2753" y1="50.0" x2="2773" y2="50.0" style="stroke:#999; stroke-width:3;" />
  <line x1="2773" y1="50.0" x2="2773" y2="50.0" style="stroke:#999; stroke-width:3;" />
  <line x1="2773" y1="50.0" x2="2773" y2="50.0" style="stroke:#999; stroke-width:3;" />
  <line x1="2773" y1="50.0" x2="2793" y2="50.0" style="stroke:#999; stroke-width:3;" />
  <rect class="anc_exon" x="2793" y="35.0" width="194" height="30" style="fill:#87bcbc;fill-opacity:1.00" />
  <line x1="2987" y1="50.0" x2="3027" y2="50.0" style="stroke:#999; stroke-width:3;" />
  <rect class="anc_exon" x="3027" y="35.0" width="184" height="30" style="fill:#87bcbc;fill-opacity:1.00" />
  <line x1="3211" y1="50.0" x2="3251" y2="50.0" style="stroke:#999; stroke-width:3;" />
  <rect class="anc_exon" x="3251" y="35.0" width="210" height="30" style="fill:#878787;fill-opacity:1.00" />
  <line x1="3461" y1="50.0" x2="3501" y2="50.0" style="stroke:#999; stroke-width:3;" />
  <rect class="anc_exon" x="3501" y="35.0" width="41" height="30" style="fill:#87bcbc;fill-opacity:1.00" />
  <line x1="3542" y1="50.0" x2="3582" y2="50.0" style="stroke:#999; stroke-width:3;" />
  <rect class="anc_exon" x="3582" y="35.0" width="168" height="30" style="fill:#87bcbc;fill-opacity:1.00" />
  <line x1="3750" y1="50.0" x2="3770" y2="50.0" style="stroke:#999; stroke-width:3;" />
  <line x1="3770" y1="50.0" x2="3770" y2="50.0" style="stroke:#999; stroke-width:3;" />
  <line x1="3770" y1="50.0" x2="3770" y2="50.0" style="stroke:#999; stroke-width:3;" />
  <line x1="3770" y1="50.0" x2="3790" y2="50.0" style="stroke:#999; stroke-width:3;" />
  <rect class="anc_exon" x="3790" y="35.0" width="58" height="30" style="fill:#87bcbc;fill-opacity:1.00" />
  <line x1="3848" y1="50.0" x2="3888" y2="50.0" style="stroke:#999; stroke-width:3;" />
  <rect class="anc_exon" x="3888" y="35.0" width="64" height="30" style="fill:#87bcbc;fill-opacity:1.00" />
  <line x1="3952" y1="50.0" x2="3992" y2="50.0" style="stroke:#999; stroke-width:3;" />
  <rect class="anc_exon" x="3992" y="35.0" width="81" height="30" style="fill:#87bcbc;fill-opacity:1.00" />
  <line x1="4073" y1="50.0" x2="4113" y2="50.0" style="stroke:#999; stroke-width:3;" />
  <rect class="anc_exon" x="4113" y="35.0" width="124" height="30" style="fill:#87bcbc;fill-opacity:1.00" />
  <line x1="4237" y1="50.0" x2="4277" y2="50.0" style="stroke:#999; stroke-width:3;" />
  <rect class="anc_exon" x="4277" y="35.0" width="158" height="30" style="fill:#87bcbc;fill-opacity:1.00" />
  <line x1="4435" y1="50.0" x2="4475" y2="50.0" style="stroke:#999; stroke-width:3;" />
  <rect class="anc_exon" x="4475" y="35.0" width="139" height="30" style="fill:#87bcbc;fill-opacity:1.00" />
  <line x1="4614" y1="50.0" x2="4634" y2="50.0" style="stroke:#999; stroke-width:3;" />
  <line x1="4634" y1="50.0" x2="4634" y2="50.0" style="stroke:#999; stroke-width:3;" />
  <line x1="4634" y1="50.0" x2="4634" y2="50.0" style="stroke:#999; stroke-width:3;" />
  <line x1="4634" y1="50.0" x2="4654" y2="50.0" style="stroke:#999; stroke-width:3;" />
  <rect class="anc_exon" x="4654" y="35.0" width="128" height="30" style="fill:#87bcbc;fill-opacity:1.00" />
  <line x1="4782" y1="50.0" x2="4822" y2="50.0" style="stroke:#999; stroke-width:3;" />
  <rect class="anc_exon" x="4822" y="35.0" width="63" height="30" style="fill:#87bcbc;fill-opacity:1.00" />
  <line x1="4885" y1="50.0" x2="4905" y2="50.0" style="stroke:#999; stroke-width:3;" />
  <line x1="4905" y1="50.0" x2="4905" y2="50.0" style="stroke:#999; stroke-width:3;" />
  <line x1="4905" y1="50.0" x2="4905" y2="50.0" style="stroke:#999; stroke-width:3;" />
  <line x1="4905" y1="50.0" x2="4925" y2="50.0" style="stroke:#999; stroke-width:3;" />
  <rect class="anc_exon" x="4925" y="35.0" width="52" height="30" style="fill:#87bcbc;fill-opacity:1.00" />
  <line x1="4977" y1="50.0" x2="5017" y2="50.0" style="stroke:#999; stroke-width:3;" />
  <rect class="anc_exon" x="5017" y="35.0" width="120" height="30" style="fill:#87bcbc;fill-opacity:1.00" />
  <rect class="anc_exon" x="5137" y="35.0" width="0" height="30" style="fill:#87bcbc;fill-opacity:1.00" />
  <text style="" >
<tspan x="0" y="83.0" style="font-size:18px;" >SP XM_031937389_1.1</tspan>  </text>



<script type="text/ecmascript">
<![CDATA[
function draw_bbox(text_id)
{
    var text_elem = document.getElementById(text_id);
    var offset_px = 2;
    var offset_py = 0;
    bbox = text_elem.getBBox();
    var box = document.createElementNS(document.rootElement.namespaceURI,'rect');
    box.setAttribute('x', bbox.x - offset_px);
    box.setAttribute('y', bbox.y - offset_py);
    box.setAttribute('width', bbox.width + offset_px * 2);
    box.setAttribute('height', bbox.height + offset_py * 2);
    box.setAttribute('style','fill: white;'+'stroke: black;'+'stroke-width: 1px;');
    text_elem.insertBefore(box,text_elem.childNodes[0]);

    var svg = text_elem.parentNode;
    svg.appendChild(text_elem);
}

for (var i=1; i < 1; i++)
{
draw_bbox("Mouseover" + i);
}
]]> 
</script>
</svg>
