<svg version="1.1"
xmlns="http://www.w3.org/2000/svg"
xmlns:xlink="http://www.w3.org/1999/xlink"
width="2074" height="120.0" viewBox = "0 -20.0 2074 120.0"
onclick="mouseclick(evt)">

<script type="text/ecmascript">

<![CDATA[
    function mouseover(evt, target) { 
    var gv = document.getElementById("globalVariable");
    var previoustarget = gv.firstChild.nodeValue;
    if (previoustarget != "none") 
    {
        	document.getElementById(gv.firstChild.nodeValue).setAttributeNS(null, "visibility", "hidden");
    }
    document.getElementById(target).setAttributeNS(null, "visibility", "visible");
    gv.firstChild.nodeValue = target;
        }

    function mouseclick(evt) { 
    var gv = document.getElementById("globalVariable");
    var previoustarget = gv.firstChild.nodeValue;
    if (previoustarget != "none") {
        	document.getElementById(gv.firstChild.nodeValue).setAttributeNS(null, "visibility", "hidden");
        }
    }
]]>
  </script>
<style type="text/css" >

<![CDATA[
    rect.anc_exon {
              stroke-width:3;
                  }

    rect.non_anc_exon {
              stroke: black; stroke-width:3; stroke-dasharray: 5,5;
                    }

    text {
              font-size: 18px;
              font-family: Courier New;
          }
                    ]]>
</style>

<defs>
    <text x="150" y="40" id="globalVariable">none</text>
</defs>

  <rect class="anc_exon" x="0" y="35.0" width="0" height="30" style="fill:#87bcbc;fill-opacity:1.00" />
  <rect class="anc_exon" x="0" y="35.0" width="147.20000000000002" height="30" style="fill:#87bcbc;fill-opacity:1.00" />
  <line x1="82.80000000000001" y1="35.0" x2="82.80000000000001" y2="65.0" style="stroke:#121212; stroke-width:0.8; stroke-opacity:1"/>
  <text style="" text-anchor="middle">
<tspan x="82.4" y="26.0" style="font-size:18px;fill:#121212;" >-1</tspan>  </text>
  <line x1="147.20000000000002" y1="50.0" x2="187.0" y2="50.0" style="stroke:#999; stroke-width:3;" />
  <rect class="anc_exon" x="187" y="35.0" width="91" height="30" style="fill:#87bcbc;fill-opacity:1.00" />
  <line x1="278" y1="50.0" x2="318" y2="50.0" style="stroke:#999; stroke-width:3;" />
  <rect class="anc_exon" x="318" y="35.0" width="105" height="30" style="fill:#87bcbc;fill-opacity:1.00" />
  <line x1="423" y1="50.0" x2="463" y2="50.0" style="stroke:#999; stroke-width:3;" />
  <rect class="anc_exon" x="463" y="35.0" width="209" height="30" style="fill:#87bcbc;fill-opacity:1.00" />
  <line x1="516.6" y1="35.0" x2="516.6" y2="65.0" style="stroke:#121212;stroke-width:3;"/>
  <polygon points="592.6,35.0 595.1,25.0 590.1,25.0" style="fill:#121212; stroke-opacity:1; fill-opacity:1"/>
  <text style="" text-anchor="middle">
<tspan x="515.8" y="26.0" style="font-size:18px;fill:#121212;" >TAG</tspan>  </text>
  <text style="" text-anchor="middle">
<tspan x="592.6" y="16.0" style="font-size:18px;fill:#121212;" >+1</tspan>  </text>
  <line x1="672" y1="50.0" x2="712" y2="50.0" style="stroke:#999; stroke-width:3;" />
  <rect class="anc_exon" x="712" y="35.0" width="62" height="30" style="fill:#87bcbc;fill-opacity:1.00" />
  <line x1="774" y1="50.0" x2="794" y2="50.0" style="stroke:#999; stroke-width:3;" />
  <line x1="794" y1="50.0" x2="794" y2="50.0" style="stroke:#999; stroke-width:3;" />
  <line x1="794" y1="50.0" x2="794" y2="50.0" style="stroke:#999; stroke-width:3;" />
  <line x1="794" y1="50.0" x2="814" y2="50.0" style="stroke:#999; stroke-width:3;" />
  <rect class="anc_exon" x="814" y="35.0" width="55" height="30" style="fill:#87bcbc;fill-opacity:1.00" />
  <line x1="869" y1="50.0" x2="909" y2="50.0" style="stroke:#999; stroke-width:3;" />
  <rect class="anc_exon" x="909" y="35.0" width="128" height="30" style="fill:#87bcbc;fill-opacity:1.00" />
  <line x1="1037" y1="50.0" x2="1077" y2="50.0" style="stroke:#999; stroke-width:3;" />
  <rect class="anc_exon" x="1077" y="35.0" width="67" height="30" style="fill:#87bcbc;fill-opacity:1.00" />
  <line x1="1144" y1="50.0" x2="1184" y2="50.0" style="stroke:#999; stroke-width:3;" />
  <rect class="anc_exon" x="1184" y="35.0" width="81" height="30" style="fill:#87bcbc;fill-opacity:1.00" />
  <line x1="1265" y1="50.0" x2="1305" y2="50.0" style="stroke:#999; stroke-width:3;" />
  <rect class="anc_exon" x="1305" y="35.0" width="98" height="30" style="fill:#87bcbc;fill-opacity:1.00" />
  <line x1="1403" y1="50.0" x2="1443" y2="50.0" style="stroke:#999; stroke-width:3;" />
  <rect class="anc_exon" x="1443" y="35.0" width="75" height="30" style="fill:#87bcbc;fill-opacity:1.00" />
  <line x1="1518" y1="50.0" x2="1558" y2="50.0" style="stroke:#999; stroke-width:3;" />
  <rect class="anc_exon" x="1558" y="35.0" width="83" height="30" style="fill:#87bcbc;fill-opacity:1.00" />
  <line x1="1641" y1="50.0" x2="1681" y2="50.0" style="stroke:#999; stroke-width:3;" />
  <rect class="anc_exon" x="1681" y="35.0" width="89" height="30" style="fill:#87bcbc;fill-opacity:1.00" />
  <line x1="1770" y1="50.0" x2="1810" y2="50.0" style="stroke:#999; stroke-width:3;" />
  <rect class="anc_exon" x="1810" y="35.0" width="97" height="30" style="fill:#87bcbc;fill-opacity:1.00" />
  <line x1="1907" y1="50.0" x2="1947" y2="50.0" style="stroke:#999; stroke-width:3;" />
  <rect class="anc_exon" x="1947" y="35.0" width="91" height="30" style="fill:#87bcbc;fill-opacity:1.00" />
  <rect class="anc_exon" x="2038" y="35.0" width="0" height="30" style="fill:#87bcbc;fill-opacity:1.00" />
  <text style="" >
<tspan x="0" y="83.0" style="font-size:18px;" >SP XM_031966813_1.1</tspan>  </text>



<script type="text/ecmascript">
<![CDATA[
function draw_bbox(text_id)
{
    var text_elem = document.getElementById(text_id);
    var offset_px = 2;
    var offset_py = 0;
    bbox = text_elem.getBBox();
    var box = document.createElementNS(document.rootElement.namespaceURI,'rect');
    box.setAttribute('x', bbox.x - offset_px);
    box.setAttribute('y', bbox.y - offset_py);
    box.setAttribute('width', bbox.width + offset_px * 2);
    box.setAttribute('height', bbox.height + offset_py * 2);
    box.setAttribute('style','fill: white;'+'stroke: black;'+'stroke-width: 1px;');
    text_elem.insertBefore(box,text_elem.childNodes[0]);

    var svg = text_elem.parentNode;
    svg.appendChild(text_elem);
}

for (var i=1; i < 1; i++)
{
draw_bbox("Mouseover" + i);
}
]]> 
</script>
</svg>
