<svg version="1.1"
xmlns="http://www.w3.org/2000/svg"
xmlns:xlink="http://www.w3.org/1999/xlink"
width="3351" height="100" viewBox = "0 0 3351 100"
onclick="mouseclick(evt)">

<script type="text/ecmascript">

<![CDATA[
    function mouseover(evt, target) { 
    var gv = document.getElementById("globalVariable");
    var previoustarget = gv.firstChild.nodeValue;
    if (previoustarget != "none") 
    {
        	document.getElementById(gv.firstChild.nodeValue).setAttributeNS(null, "visibility", "hidden");
    }
    document.getElementById(target).setAttributeNS(null, "visibility", "visible");
    gv.firstChild.nodeValue = target;
        }

    function mouseclick(evt) { 
    var gv = document.getElementById("globalVariable");
    var previoustarget = gv.firstChild.nodeValue;
    if (previoustarget != "none") {
        	document.getElementById(gv.firstChild.nodeValue).setAttributeNS(null, "visibility", "hidden");
        }
    }
]]>
  </script>
<style type="text/css" >

<![CDATA[
    rect.anc_exon {
              stroke-width:3;
                  }

    rect.non_anc_exon {
              stroke: black; stroke-width:3; stroke-dasharray: 5,5;
                    }

    text {
              font-size: 18px;
              font-family: Courier New;
          }
                    ]]>
</style>

<defs>
    <text x="150" y="40" id="globalVariable">none</text>
</defs>

  <rect class="anc_exon" x="0" y="35.0" width="0" height="30" style="fill:#87bcbc;fill-opacity:1.00" />
  <rect class="anc_exon" x="0" y="35.0" width="98.4" height="30" style="fill:#87bcbc;fill-opacity:1.00" />
  <line x1="98.4" y1="50.0" x2="117.4" y2="50.0" style="stroke:#999; stroke-width:3;" />
  <line x1="117.4" y1="50.0" x2="117.4" y2="50.0" style="stroke:#999; stroke-width:3;" />
  <line x1="117.4" y1="50.0" x2="117.4" y2="50.0" style="stroke:#999; stroke-width:3;" />
  <line x1="117.4" y1="50.0" x2="138.0" y2="50.0" style="stroke:#999; stroke-width:3;" />
  <rect class="anc_exon" x="138" y="35.0" width="113" height="30" style="fill:#87bcbc;fill-opacity:1.00" />
  <line x1="251" y1="50.0" x2="271" y2="50.0" style="stroke:#999; stroke-width:3;" />
  <line x1="271" y1="50.0" x2="271" y2="50.0" style="stroke:#999; stroke-width:3;" />
  <line x1="271" y1="50.0" x2="271" y2="50.0" style="stroke:#999; stroke-width:3;" />
  <line x1="271" y1="50.0" x2="291" y2="50.0" style="stroke:#999; stroke-width:3;" />
  <rect class="anc_exon" x="291" y="35.0" width="117" height="30" style="fill:#87bcbc;fill-opacity:1.00" />
  <line x1="408" y1="50.0" x2="428" y2="50.0" style="stroke:#999; stroke-width:3;" />
  <line x1="428" y1="50.0" x2="428" y2="50.0" style="stroke:#999; stroke-width:3;" />
  <line x1="428" y1="50.0" x2="428" y2="50.0" style="stroke:#999; stroke-width:3;" />
  <line x1="428" y1="50.0" x2="448" y2="50.0" style="stroke:#999; stroke-width:3;" />
  <rect class="anc_exon" x="448" y="35.0" width="147" height="30" style="fill:#87bcbc;fill-opacity:1.00" />
  <line x1="595" y1="50.0" x2="635" y2="50.0" style="stroke:#999; stroke-width:3;" />
  <rect class="anc_exon" x="635" y="35.0" width="222" height="30" style="fill:#87bcbc;fill-opacity:1.00" />
  <line x1="857" y1="50.0" x2="877" y2="50.0" style="stroke:#999; stroke-width:3;" />
  <line x1="877" y1="50.0" x2="877" y2="50.0" style="stroke:#999; stroke-width:3;" />
  <line x1="877" y1="50.0" x2="877" y2="50.0" style="stroke:#999; stroke-width:3;" />
  <line x1="877" y1="50.0" x2="897" y2="50.0" style="stroke:#999; stroke-width:3;" />
  <rect class="anc_exon" x="897" y="35.0" width="72" height="30" style="fill:#87bcbc;fill-opacity:1.00" />
  <line x1="969" y1="50.0" x2="989" y2="50.0" style="stroke:#999; stroke-width:3;" />
  <line x1="989" y1="50.0" x2="989" y2="50.0" style="stroke:#999; stroke-width:3;" />
  <line x1="989" y1="50.0" x2="989" y2="50.0" style="stroke:#999; stroke-width:3;" />
  <line x1="989" y1="50.0" x2="1009" y2="50.0" style="stroke:#999; stroke-width:3;" />
  <rect class="anc_exon" x="1009" y="35.0" width="67" height="30" style="fill:#87bcbc;fill-opacity:1.00" />
  <line x1="1076" y1="50.0" x2="1096" y2="50.0" style="stroke:#999; stroke-width:3;" />
  <line x1="1096" y1="50.0" x2="1096" y2="50.0" style="stroke:#999; stroke-width:3;" />
  <line x1="1096" y1="50.0" x2="1096" y2="50.0" style="stroke:#999; stroke-width:3;" />
  <line x1="1096" y1="50.0" x2="1116" y2="50.0" style="stroke:#999; stroke-width:3;" />
  <rect class="anc_exon" x="1116" y="35.0" width="147" height="30" style="fill:#87bcbc;fill-opacity:1.00" />
  <line x1="1263" y1="50.0" x2="1283" y2="50.0" style="stroke:#999; stroke-width:3;" />
  <line x1="1283" y1="50.0" x2="1283" y2="50.0" style="stroke:#999; stroke-width:3;" />
  <line x1="1283" y1="50.0" x2="1283" y2="50.0" style="stroke:#999; stroke-width:3;" />
  <line x1="1283" y1="50.0" x2="1303" y2="50.0" style="stroke:#999; stroke-width:3;" />
  <rect class="anc_exon" x="1303" y="35.0" width="20" height="30" style="fill:#87bcbc;fill-opacity:1.00" />
  <line x1="1323" y1="50.0" x2="1363" y2="50.0" style="stroke:#999; stroke-width:3;" />
  <rect class="anc_exon" x="1363" y="35.0" width="92" height="30" style="fill:#878787;fill-opacity:1.00" />
  <line x1="1455" y1="50.0" x2="1475" y2="50.0" style="stroke:#999; stroke-width:3;" />
  <line x1="1475" y1="50.0" x2="1475" y2="50.0" style="stroke:#999; stroke-width:3;" />
  <line x1="1475" y1="50.0" x2="1475" y2="50.0" style="stroke:#999; stroke-width:3;" />
  <line x1="1475" y1="50.0" x2="1495" y2="50.0" style="stroke:#999; stroke-width:3;" />
  <rect class="anc_exon" x="1495" y="35.0" width="30" height="30" style="fill:#87bcbc;fill-opacity:1.00" />
  <line x1="1525" y1="50.0" x2="1565" y2="50.0" style="stroke:#999; stroke-width:3;" />
  <rect class="anc_exon" x="1565" y="35.0" width="64" height="30" style="fill:#87bcbc;fill-opacity:1.00" />
  <line x1="1629" y1="50.0" x2="1669" y2="50.0" style="stroke:#999; stroke-width:3;" />
  <rect class="anc_exon" x="1669" y="35.0" width="72" height="30" style="fill:#87bcbc;fill-opacity:1.00" />
  <line x1="1741" y1="50.0" x2="1761" y2="50.0" style="stroke:#999; stroke-width:3;" />
  <line x1="1761" y1="50.0" x2="1761" y2="50.0" style="stroke:#999; stroke-width:3;" />
  <line x1="1761" y1="50.0" x2="1761" y2="50.0" style="stroke:#999; stroke-width:3;" />
  <line x1="1761" y1="50.0" x2="1781" y2="50.0" style="stroke:#999; stroke-width:3;" />
  <rect class="anc_exon" x="1781" y="35.0" width="38" height="30" style="fill:#87bcbc;fill-opacity:1.00" />
  <line x1="1819" y1="50.0" x2="1839" y2="50.0" style="stroke:#999; stroke-width:3;" />
  <line x1="1839" y1="50.0" x2="1839" y2="50.0" style="stroke:#999; stroke-width:3;" />
  <line x1="1839" y1="50.0" x2="1839" y2="50.0" style="stroke:#999; stroke-width:3;" />
  <line x1="1839" y1="50.0" x2="1859" y2="50.0" style="stroke:#999; stroke-width:3;" />
  <rect class="anc_exon" x="1859" y="35.0" width="52" height="30" style="fill:#87bcbc;fill-opacity:1.00" />
  <line x1="1911" y1="50.0" x2="1951" y2="50.0" style="stroke:#999; stroke-width:3;" />
  <rect class="anc_exon" x="1951" y="35.0" width="147" height="30" style="fill:#87bcbc;fill-opacity:1.00" />
  <line x1="2098" y1="50.0" x2="2138" y2="50.0" style="stroke:#999; stroke-width:3;" />
  <rect class="anc_exon" x="2138" y="35.0" width="47" height="30" style="fill:#87bcbc;fill-opacity:1.00" />
  <line x1="2185" y1="50.0" x2="2225" y2="50.0" style="stroke:#999; stroke-width:3;" />
  <rect class="anc_exon" x="2225" y="35.0" width="45" height="30" style="fill:#87bcbc;fill-opacity:1.00" />
  <line x1="2270" y1="50.0" x2="2290" y2="50.0" style="stroke:#999; stroke-width:3;" />
  <line x1="2290" y1="50.0" x2="2290" y2="50.0" style="stroke:#999; stroke-width:3;" />
  <line x1="2290" y1="50.0" x2="2290" y2="50.0" style="stroke:#999; stroke-width:3;" />
  <line x1="2290" y1="50.0" x2="2310" y2="50.0" style="stroke:#999; stroke-width:3;" />
  <rect class="anc_exon" x="2310" y="35.0" width="67" height="30" style="fill:#87bcbc;fill-opacity:1.00" />
  <line x1="2377" y1="50.0" x2="2397" y2="50.0" style="stroke:#999; stroke-width:3;" />
  <line x1="2397" y1="50.0" x2="2397" y2="50.0" style="stroke:#999; stroke-width:3;" />
  <line x1="2397" y1="50.0" x2="2397" y2="50.0" style="stroke:#999; stroke-width:3;" />
  <line x1="2397" y1="50.0" x2="2417" y2="50.0" style="stroke:#999; stroke-width:3;" />
  <rect class="anc_exon" x="2417" y="35.0" width="147" height="30" style="fill:#87bcbc;fill-opacity:1.00" />
  <line x1="2564" y1="50.0" x2="2604" y2="50.0" style="stroke:#999; stroke-width:3;" />
  <rect class="anc_exon" x="2604" y="35.0" width="23" height="30" style="fill:#87bcbc;fill-opacity:1.00" />
  <line x1="2627" y1="50.0" x2="2647" y2="50.0" style="stroke:#999; stroke-width:3;" />
  <line x1="2647" y1="50.0" x2="2647" y2="50.0" style="stroke:#999; stroke-width:3;" />
  <line x1="2647" y1="50.0" x2="2647" y2="50.0" style="stroke:#999; stroke-width:3;" />
  <line x1="2647" y1="50.0" x2="2667" y2="50.0" style="stroke:#999; stroke-width:3;" />
  <rect class="anc_exon" x="2667" y="35.0" width="38" height="30" style="fill:#878787;fill-opacity:1.00" />
  <line x1="2705" y1="50.0" x2="2725" y2="50.0" style="stroke:#999; stroke-width:3;" />
  <line x1="2725" y1="50.0" x2="2725" y2="50.0" style="stroke:#999; stroke-width:3;" />
  <line x1="2725" y1="50.0" x2="2725" y2="50.0" style="stroke:#999; stroke-width:3;" />
  <line x1="2725" y1="50.0" x2="2745" y2="50.0" style="stroke:#999; stroke-width:3;" />
  <rect class="anc_exon" x="2745" y="35.0" width="62" height="30" style="fill:#878787;fill-opacity:1.00" />
  <line x1="2807" y1="50.0" x2="2827" y2="50.0" style="stroke:#999; stroke-width:3;" />
  <line x1="2827" y1="50.0" x2="2827" y2="50.0" style="stroke:#999; stroke-width:3;" />
  <line x1="2827" y1="50.0" x2="2827" y2="50.0" style="stroke:#999; stroke-width:3;" />
  <line x1="2827" y1="50.0" x2="2847" y2="50.0" style="stroke:#999; stroke-width:3;" />
  <rect class="anc_exon" x="2847" y="35.0" width="154" height="30" style="fill:#87bcbc;fill-opacity:1.00" />
  <line x1="3001" y1="50.0" x2="3021" y2="50.0" style="stroke:#999; stroke-width:3;" />
  <line x1="3021" y1="50.0" x2="3021" y2="50.0" style="stroke:#999; stroke-width:3;" />
  <line x1="3021" y1="50.0" x2="3021" y2="50.0" style="stroke:#999; stroke-width:3;" />
  <line x1="3021" y1="50.0" x2="3041" y2="50.0" style="stroke:#999; stroke-width:3;" />
  <rect class="anc_exon" x="3041" y="35.0" width="30" height="30" style="fill:#878787;fill-opacity:1.00" />
  <line x1="3071" y1="50.0" x2="3111" y2="50.0" style="stroke:#999; stroke-width:3;" />
  <rect class="anc_exon" x="3111" y="35.0" width="109" height="30" style="fill:#878787;fill-opacity:1.00" />
  <line x1="3220" y1="50.0" x2="3240" y2="50.0" style="stroke:#999; stroke-width:3;" />
  <line x1="3240" y1="50.0" x2="3240" y2="50.0" style="stroke:#999; stroke-width:3;" />
  <line x1="3240" y1="50.0" x2="3240" y2="50.0" style="stroke:#999; stroke-width:3;" />
  <line x1="3240" y1="50.0" x2="3260" y2="50.0" style="stroke:#999; stroke-width:3;" />
  <rect class="anc_exon" x="3260" y="35.0" width="55" height="30" style="fill:#87bcbc;fill-opacity:1.00" />
  <rect class="anc_exon" x="3315" y="35.0" width="0" height="30" style="fill:#87bcbc;fill-opacity:1.00" />
  <text style="" >
<tspan x="0" y="83.0" style="font-size:18px;" >SP XM_031967931_1.1</tspan>  </text>



<script type="text/ecmascript">
<![CDATA[
function draw_bbox(text_id)
{
    var text_elem = document.getElementById(text_id);
    var offset_px = 2;
    var offset_py = 0;
    bbox = text_elem.getBBox();
    var box = document.createElementNS(document.rootElement.namespaceURI,'rect');
    box.setAttribute('x', bbox.x - offset_px);
    box.setAttribute('y', bbox.y - offset_py);
    box.setAttribute('width', bbox.width + offset_px * 2);
    box.setAttribute('height', bbox.height + offset_py * 2);
    box.setAttribute('style','fill: white;'+'stroke: black;'+'stroke-width: 1px;');
    text_elem.insertBefore(box,text_elem.childNodes[0]);

    var svg = text_elem.parentNode;
    svg.appendChild(text_elem);
}

for (var i=1; i < 1; i++)
{
draw_bbox("Mouseover" + i);
}
]]> 
</script>
</svg>
