<svg version="1.1"
xmlns="http://www.w3.org/2000/svg"
xmlns:xlink="http://www.w3.org/1999/xlink"
width="3708" height="100" viewBox = "0 0 3708 100"
onclick="mouseclick(evt)">

<script type="text/ecmascript">

<![CDATA[
    function mouseover(evt, target) { 
    var gv = document.getElementById("globalVariable");
    var previoustarget = gv.firstChild.nodeValue;
    if (previoustarget != "none") 
    {
        	document.getElementById(gv.firstChild.nodeValue).setAttributeNS(null, "visibility", "hidden");
    }
    document.getElementById(target).setAttributeNS(null, "visibility", "visible");
    gv.firstChild.nodeValue = target;
        }

    function mouseclick(evt) { 
    var gv = document.getElementById("globalVariable");
    var previoustarget = gv.firstChild.nodeValue;
    if (previoustarget != "none") {
        	document.getElementById(gv.firstChild.nodeValue).setAttributeNS(null, "visibility", "hidden");
        }
    }
]]>
  </script>
<style type="text/css" >

<![CDATA[
    rect.anc_exon {
              stroke-width:3;
                  }

    rect.non_anc_exon {
              stroke: black; stroke-width:3; stroke-dasharray: 5,5;
                    }

    text {
              font-size: 18px;
              font-family: Courier New;
          }
                    ]]>
</style>

<defs>
    <text x="150" y="40" id="globalVariable">none</text>
</defs>

  <rect class="anc_exon" x="0" y="35.0" width="0" height="30" style="fill:#87bcbc;fill-opacity:1.00" />
  <rect class="anc_exon" x="0" y="35.0" width="103.2" height="30" style="fill:#878787;fill-opacity:1.00" />
  <line x1="103.2" y1="50.0" x2="122.2" y2="50.0" style="stroke:#999; stroke-width:3;" />
  <line x1="122.2" y1="50.0" x2="122.2" y2="50.0" style="stroke:#999; stroke-width:3;" />
  <line x1="122.2" y1="50.0" x2="122.2" y2="50.0" style="stroke:#999; stroke-width:3;" />
  <line x1="122.2" y1="50.0" x2="143.0" y2="50.0" style="stroke:#999; stroke-width:3;" />
  <rect class="anc_exon" x="143" y="35.0" width="67" height="30" style="fill:#87bcbc;fill-opacity:1.00" />
  <line x1="210" y1="50.0" x2="230" y2="50.0" style="stroke:#999; stroke-width:3;" />
  <line x1="230" y1="50.0" x2="230" y2="50.0" style="stroke:#999; stroke-width:3;" />
  <line x1="230" y1="50.0" x2="230" y2="50.0" style="stroke:#999; stroke-width:3;" />
  <line x1="230" y1="50.0" x2="250" y2="50.0" style="stroke:#999; stroke-width:3;" />
  <rect class="anc_exon" x="250" y="35.0" width="67" height="30" style="fill:#87bcbc;fill-opacity:1.00" />
  <line x1="317" y1="50.0" x2="357" y2="50.0" style="stroke:#999; stroke-width:3;" />
  <rect class="anc_exon" x="357" y="35.0" width="59" height="30" style="fill:#87bcbc;fill-opacity:1.00" />
  <line x1="416" y1="50.0" x2="456" y2="50.0" style="stroke:#999; stroke-width:3;" />
  <rect class="anc_exon" x="456" y="35.0" width="67" height="30" style="fill:#87bcbc;fill-opacity:1.00" />
  <line x1="523" y1="50.0" x2="563" y2="50.0" style="stroke:#999; stroke-width:3;" />
  <rect class="anc_exon" x="563" y="35.0" width="120" height="30" style="fill:#87bcbc;fill-opacity:1.00" />
  <line x1="683" y1="50.0" x2="723" y2="50.0" style="stroke:#999; stroke-width:3;" />
  <rect class="anc_exon" x="723" y="35.0" width="87" height="30" style="fill:#87bcbc;fill-opacity:1.00" />
  <line x1="810" y1="50.0" x2="830" y2="50.0" style="stroke:#999; stroke-width:3;" />
  <line x1="830" y1="50.0" x2="830" y2="50.0" style="stroke:#999; stroke-width:3;" />
  <line x1="830" y1="50.0" x2="830" y2="50.0" style="stroke:#999; stroke-width:3;" />
  <line x1="830" y1="50.0" x2="850" y2="50.0" style="stroke:#999; stroke-width:3;" />
  <rect class="anc_exon" x="850" y="35.0" width="61" height="30" style="fill:#87bcbc;fill-opacity:1.00" />
  <line x1="911" y1="50.0" x2="951" y2="50.0" style="stroke:#999; stroke-width:3;" />
  <rect class="anc_exon" x="951" y="35.0" width="75" height="30" style="fill:#87bcbc;fill-opacity:1.00" />
  <line x1="1026" y1="50.0" x2="1046" y2="50.0" style="stroke:#999; stroke-width:3;" />
  <line x1="1046" y1="50.0" x2="1046" y2="50.0" style="stroke:#999; stroke-width:3;" />
  <line x1="1046" y1="50.0" x2="1046" y2="50.0" style="stroke:#999; stroke-width:3;" />
  <line x1="1046" y1="50.0" x2="1066" y2="50.0" style="stroke:#999; stroke-width:3;" />
  <rect class="anc_exon" x="1066" y="35.0" width="60" height="30" style="fill:#87bcbc;fill-opacity:1.00" />
  <line x1="1126" y1="50.0" x2="1166" y2="50.0" style="stroke:#999; stroke-width:3;" />
  <rect class="anc_exon" x="1166" y="35.0" width="88" height="30" style="fill:#87bcbc;fill-opacity:1.00" />
  <line x1="1254" y1="50.0" x2="1294" y2="50.0" style="stroke:#999; stroke-width:3;" />
  <rect class="anc_exon" x="1294" y="35.0" width="120" height="30" style="fill:#87bcbc;fill-opacity:1.00" />
  <line x1="1414" y1="50.0" x2="1454" y2="50.0" style="stroke:#999; stroke-width:3;" />
  <rect class="anc_exon" x="1454" y="35.0" width="81" height="30" style="fill:#87bcbc;fill-opacity:1.00" />
  <line x1="1535" y1="50.0" x2="1575" y2="50.0" style="stroke:#999; stroke-width:3;" />
  <rect class="anc_exon" x="1575" y="35.0" width="216" height="30" style="fill:#87bcbc;fill-opacity:1.00" />
  <line x1="1791" y1="50.0" x2="1831" y2="50.0" style="stroke:#999; stroke-width:3;" />
  <rect class="anc_exon" x="1831" y="35.0" width="256" height="30" style="fill:#878787;fill-opacity:1.00" />
  <line x1="2087" y1="50.0" x2="2127" y2="50.0" style="stroke:#999; stroke-width:3;" />
  <rect class="anc_exon" x="2127" y="35.0" width="97" height="30" style="fill:#87bcbc;fill-opacity:1.00" />
  <line x1="2224" y1="50.0" x2="2264" y2="50.0" style="stroke:#999; stroke-width:3;" />
  <rect class="anc_exon" x="2264" y="35.0" width="162" height="30" style="fill:#87bcbc;fill-opacity:1.00" />
  <line x1="2426" y1="50.0" x2="2466" y2="50.0" style="stroke:#999; stroke-width:3;" />
  <rect class="anc_exon" x="2466" y="35.0" width="188" height="30" style="fill:#87bcbc;fill-opacity:1.00" />
  <line x1="2654" y1="50.0" x2="2694" y2="50.0" style="stroke:#999; stroke-width:3;" />
  <rect class="anc_exon" x="2694" y="35.0" width="55" height="30" style="fill:#87bcbc;fill-opacity:1.00" />
  <line x1="2749" y1="50.0" x2="2789" y2="50.0" style="stroke:#999; stroke-width:3;" />
  <rect class="anc_exon" x="2789" y="35.0" width="64" height="30" style="fill:#87bcbc;fill-opacity:1.00" />
  <line x1="2853" y1="50.0" x2="2893" y2="50.0" style="stroke:#999; stroke-width:3;" />
  <rect class="anc_exon" x="2893" y="35.0" width="104" height="30" style="fill:#87bcbc;fill-opacity:1.00" />
  <line x1="2997" y1="50.0" x2="3037" y2="50.0" style="stroke:#999; stroke-width:3;" />
  <rect class="anc_exon" x="3037" y="35.0" width="131" height="30" style="fill:#87bcbc;fill-opacity:1.00" />
  <line x1="3168" y1="50.0" x2="3208" y2="50.0" style="stroke:#999; stroke-width:3;" />
  <rect class="anc_exon" x="3208" y="35.0" width="81" height="30" style="fill:#87bcbc;fill-opacity:1.00" />
  <line x1="3289" y1="50.0" x2="3329" y2="50.0" style="stroke:#999; stroke-width:3;" />
  <rect class="anc_exon" x="3329" y="35.0" width="79" height="30" style="fill:#87bcbc;fill-opacity:1.00" />
  <line x1="3408" y1="50.0" x2="3448" y2="50.0" style="stroke:#999; stroke-width:3;" />
  <rect class="anc_exon" x="3448" y="35.0" width="101" height="30" style="fill:#878787;fill-opacity:1.00" />
  <line x1="3549" y1="50.0" x2="3589" y2="50.0" style="stroke:#999; stroke-width:3;" />
  <rect class="anc_exon" x="3589" y="35.0" width="83" height="30" style="fill:#878787;fill-opacity:1.00" />
  <rect class="anc_exon" x="3672" y="35.0" width="0" height="30" style="fill:#87bcbc;fill-opacity:1.00" />
  <text style="" >
<tspan x="0" y="83.0" style="font-size:18px;" >SP XM_031965985_1.1</tspan>  </text>



<script type="text/ecmascript">
<![CDATA[
function draw_bbox(text_id)
{
    var text_elem = document.getElementById(text_id);
    var offset_px = 2;
    var offset_py = 0;
    bbox = text_elem.getBBox();
    var box = document.createElementNS(document.rootElement.namespaceURI,'rect');
    box.setAttribute('x', bbox.x - offset_px);
    box.setAttribute('y', bbox.y - offset_py);
    box.setAttribute('width', bbox.width + offset_px * 2);
    box.setAttribute('height', bbox.height + offset_py * 2);
    box.setAttribute('style','fill: white;'+'stroke: black;'+'stroke-width: 1px;');
    text_elem.insertBefore(box,text_elem.childNodes[0]);

    var svg = text_elem.parentNode;
    svg.appendChild(text_elem);
}

for (var i=1; i < 1; i++)
{
draw_bbox("Mouseover" + i);
}
]]> 
</script>
</svg>
