<svg version="1.1"
xmlns="http://www.w3.org/2000/svg"
xmlns:xlink="http://www.w3.org/1999/xlink"
width="3240" height="100" viewBox = "0 0 3240 100"
onclick="mouseclick(evt)">

<script type="text/ecmascript">

<![CDATA[
    function mouseover(evt, target) { 
    var gv = document.getElementById("globalVariable");
    var previoustarget = gv.firstChild.nodeValue;
    if (previoustarget != "none") 
    {
        	document.getElementById(gv.firstChild.nodeValue).setAttributeNS(null, "visibility", "hidden");
    }
    document.getElementById(target).setAttributeNS(null, "visibility", "visible");
    gv.firstChild.nodeValue = target;
        }

    function mouseclick(evt) { 
    var gv = document.getElementById("globalVariable");
    var previoustarget = gv.firstChild.nodeValue;
    if (previoustarget != "none") {
        	document.getElementById(gv.firstChild.nodeValue).setAttributeNS(null, "visibility", "hidden");
        }
    }
]]>
  </script>
<style type="text/css" >

<![CDATA[
    rect.anc_exon {
              stroke-width:3;
                  }

    rect.non_anc_exon {
              stroke: black; stroke-width:3; stroke-dasharray: 5,5;
                    }

    text {
              font-size: 18px;
              font-family: Courier New;
          }
                    ]]>
</style>

<defs>
    <text x="150" y="40" id="globalVariable">none</text>
</defs>

  <rect class="anc_exon" x="0" y="35.0" width="0" height="30" style="fill:#87bcbc;fill-opacity:1.00" />
  <rect class="anc_exon" x="0" y="35.0" width="60.800000000000004" height="30" style="fill:#87bcbc;fill-opacity:1.00" />
  <line x1="60.800000000000004" y1="50.0" x2="79.80000000000001" y2="50.0" style="stroke:#999; stroke-width:3;" />
  <line x1="79.80000000000001" y1="50.0" x2="79.80000000000001" y2="50.0" style="stroke:#999; stroke-width:3;" />
  <line x1="79.80000000000001" y1="50.0" x2="79.80000000000001" y2="50.0" style="stroke:#999; stroke-width:3;" />
  <line x1="79.80000000000001" y1="50.0" x2="100.0" y2="50.0" style="stroke:#999; stroke-width:3;" />
  <rect class="anc_exon" x="100" y="35.0" width="72" height="30" style="fill:#87bcbc;fill-opacity:1.00" />
  <line x1="172" y1="50.0" x2="192" y2="50.0" style="stroke:#999; stroke-width:3;" />
  <line x1="192" y1="50.0" x2="192" y2="50.0" style="stroke:#999; stroke-width:3;" />
  <line x1="192" y1="50.0" x2="192" y2="50.0" style="stroke:#999; stroke-width:3;" />
  <line x1="192" y1="50.0" x2="212" y2="50.0" style="stroke:#999; stroke-width:3;" />
  <rect class="anc_exon" x="212" y="35.0" width="36" height="30" style="fill:#87bcbc;fill-opacity:1.00" />
  <line x1="248" y1="50.0" x2="268" y2="50.0" style="stroke:#999; stroke-width:3;" />
  <line x1="268" y1="50.0" x2="268" y2="50.0" style="stroke:#999; stroke-width:3;" />
  <line x1="268" y1="50.0" x2="268" y2="50.0" style="stroke:#999; stroke-width:3;" />
  <line x1="268" y1="50.0" x2="288" y2="50.0" style="stroke:#999; stroke-width:3;" />
  <rect class="anc_exon" x="288" y="35.0" width="51" height="30" style="fill:#87bcbc;fill-opacity:1.00" />
  <line x1="339" y1="50.0" x2="359" y2="50.0" style="stroke:#999; stroke-width:3;" />
  <line x1="359" y1="50.0" x2="359" y2="50.0" style="stroke:#999; stroke-width:3;" />
  <line x1="359" y1="50.0" x2="359" y2="50.0" style="stroke:#999; stroke-width:3;" />
  <line x1="359" y1="50.0" x2="379" y2="50.0" style="stroke:#999; stroke-width:3;" />
  <rect class="anc_exon" x="379" y="35.0" width="20" height="30" style="fill:#87bcbc;fill-opacity:1.00" />
  <line x1="399" y1="50.0" x2="439" y2="50.0" style="stroke:#999; stroke-width:3;" />
  <rect class="anc_exon" x="439" y="35.0" width="67" height="30" style="fill:#87bcbc;fill-opacity:1.00" />
  <line x1="506" y1="50.0" x2="526" y2="50.0" style="stroke:#999; stroke-width:3;" />
  <line x1="526" y1="50.0" x2="526" y2="50.0" style="stroke:#999; stroke-width:3;" />
  <line x1="526" y1="50.0" x2="526" y2="50.0" style="stroke:#999; stroke-width:3;" />
  <line x1="526" y1="50.0" x2="546" y2="50.0" style="stroke:#999; stroke-width:3;" />
  <rect class="anc_exon" x="546" y="35.0" width="57" height="30" style="fill:#87bcbc;fill-opacity:1.00" />
  <line x1="603" y1="50.0" x2="623" y2="50.0" style="stroke:#999; stroke-width:3;" />
  <line x1="623" y1="50.0" x2="623" y2="50.0" style="stroke:#999; stroke-width:3;" />
  <line x1="623" y1="50.0" x2="623" y2="50.0" style="stroke:#999; stroke-width:3;" />
  <line x1="623" y1="50.0" x2="643" y2="50.0" style="stroke:#999; stroke-width:3;" />
  <rect class="anc_exon" x="643" y="35.0" width="45" height="30" style="fill:#87bcbc;fill-opacity:1.00" />
  <line x1="688" y1="50.0" x2="708" y2="50.0" style="stroke:#999; stroke-width:3;" />
  <line x1="708" y1="50.0" x2="708" y2="50.0" style="stroke:#999; stroke-width:3;" />
  <line x1="708" y1="50.0" x2="708" y2="50.0" style="stroke:#999; stroke-width:3;" />
  <line x1="708" y1="50.0" x2="728" y2="50.0" style="stroke:#999; stroke-width:3;" />
  <rect class="anc_exon" x="728" y="35.0" width="44" height="30" style="fill:#87bcbc;fill-opacity:1.00" />
  <line x1="772" y1="50.0" x2="812" y2="50.0" style="stroke:#999; stroke-width:3;" />
  <rect class="anc_exon" x="812" y="35.0" width="140" height="30" style="fill:#87bcbc;fill-opacity:1.00" />
  <line x1="952" y1="50.0" x2="972" y2="50.0" style="stroke:#999; stroke-width:3;" />
  <line x1="972" y1="50.0" x2="972" y2="50.0" style="stroke:#999; stroke-width:3;" />
  <line x1="972" y1="50.0" x2="972" y2="50.0" style="stroke:#999; stroke-width:3;" />
  <line x1="972" y1="50.0" x2="992" y2="50.0" style="stroke:#999; stroke-width:3;" />
  <rect class="anc_exon" x="992" y="35.0" width="9" height="30" style="fill:#87bcbc;fill-opacity:1.00" />
  <line x1="1001" y1="50.0" x2="1021" y2="50.0" style="stroke:#999; stroke-width:3;" />
  <line x1="1021" y1="50.0" x2="1021" y2="50.0" style="stroke:#999; stroke-width:3;" />
  <line x1="1021" y1="50.0" x2="1021" y2="50.0" style="stroke:#999; stroke-width:3;" />
  <line x1="1021" y1="50.0" x2="1041" y2="50.0" style="stroke:#999; stroke-width:3;" />
  <rect class="anc_exon" x="1041" y="35.0" width="20" height="30" style="fill:#87bcbc;fill-opacity:1.00" />
  <line x1="1061" y1="50.0" x2="1101" y2="50.0" style="stroke:#999; stroke-width:3;" />
  <rect class="anc_exon" x="1101" y="35.0" width="41" height="30" style="fill:#87bcbc;fill-opacity:1.00" />
  <line x1="1142" y1="50.0" x2="1162" y2="50.0" style="stroke:#999; stroke-width:3;" />
  <line x1="1162" y1="50.0" x2="1162" y2="50.0" style="stroke:#999; stroke-width:3;" />
  <line x1="1162" y1="50.0" x2="1162" y2="50.0" style="stroke:#999; stroke-width:3;" />
  <line x1="1162" y1="50.0" x2="1182" y2="50.0" style="stroke:#999; stroke-width:3;" />
  <rect class="anc_exon" x="1182" y="35.0" width="68" height="30" style="fill:#87bcbc;fill-opacity:1.00" />
  <line x1="1250" y1="50.0" x2="1270" y2="50.0" style="stroke:#999; stroke-width:3;" />
  <line x1="1270" y1="50.0" x2="1270" y2="50.0" style="stroke:#999; stroke-width:3;" />
  <line x1="1270" y1="50.0" x2="1270" y2="50.0" style="stroke:#999; stroke-width:3;" />
  <line x1="1270" y1="50.0" x2="1290" y2="50.0" style="stroke:#999; stroke-width:3;" />
  <rect class="anc_exon" x="1290" y="35.0" width="74" height="30" style="fill:#87bcbc;fill-opacity:1.00" />
  <line x1="1364" y1="50.0" x2="1384" y2="50.0" style="stroke:#999; stroke-width:3;" />
  <line x1="1384" y1="50.0" x2="1384" y2="50.0" style="stroke:#999; stroke-width:3;" />
  <line x1="1384" y1="50.0" x2="1384" y2="50.0" style="stroke:#999; stroke-width:3;" />
  <line x1="1384" y1="50.0" x2="1404" y2="50.0" style="stroke:#999; stroke-width:3;" />
  <rect class="anc_exon" x="1404" y="35.0" width="60" height="30" style="fill:#87bcbc;fill-opacity:1.00" />
  <line x1="1464" y1="50.0" x2="1484" y2="50.0" style="stroke:#999; stroke-width:3;" />
  <line x1="1484" y1="50.0" x2="1484" y2="50.0" style="stroke:#999; stroke-width:3;" />
  <line x1="1484" y1="50.0" x2="1484" y2="50.0" style="stroke:#999; stroke-width:3;" />
  <line x1="1484" y1="50.0" x2="1504" y2="50.0" style="stroke:#999; stroke-width:3;" />
  <rect class="anc_exon" x="1504" y="35.0" width="364" height="30" style="fill:#87bcbc;fill-opacity:1.00" />
  <line x1="1868" y1="50.0" x2="1888" y2="50.0" style="stroke:#999; stroke-width:3;" />
  <line x1="1888" y1="50.0" x2="1888" y2="50.0" style="stroke:#999; stroke-width:3;" />
  <line x1="1888" y1="50.0" x2="1888" y2="50.0" style="stroke:#999; stroke-width:3;" />
  <line x1="1888" y1="50.0" x2="1908" y2="50.0" style="stroke:#999; stroke-width:3;" />
  <rect class="anc_exon" x="1908" y="35.0" width="104" height="30" style="fill:#87bcbc;fill-opacity:1.00" />
  <line x1="2012" y1="50.0" x2="2032" y2="50.0" style="stroke:#999; stroke-width:3;" />
  <line x1="2032" y1="50.0" x2="2032" y2="50.0" style="stroke:#999; stroke-width:3;" />
  <line x1="2032" y1="50.0" x2="2032" y2="50.0" style="stroke:#999; stroke-width:3;" />
  <line x1="2032" y1="50.0" x2="2052" y2="50.0" style="stroke:#999; stroke-width:3;" />
  <rect class="anc_exon" x="2052" y="35.0" width="101" height="30" style="fill:#87bcbc;fill-opacity:1.00" />
  <line x1="2153" y1="50.0" x2="2173" y2="50.0" style="stroke:#999; stroke-width:3;" />
  <line x1="2173" y1="50.0" x2="2173" y2="50.0" style="stroke:#999; stroke-width:3;" />
  <line x1="2173" y1="50.0" x2="2173" y2="50.0" style="stroke:#999; stroke-width:3;" />
  <line x1="2173" y1="50.0" x2="2193" y2="50.0" style="stroke:#999; stroke-width:3;" />
  <rect class="anc_exon" x="2193" y="35.0" width="48" height="30" style="fill:#87bcbc;fill-opacity:1.00" />
  <line x1="2241" y1="50.0" x2="2261" y2="50.0" style="stroke:#999; stroke-width:3;" />
  <line x1="2261" y1="50.0" x2="2261" y2="50.0" style="stroke:#999; stroke-width:3;" />
  <line x1="2261" y1="50.0" x2="2261" y2="50.0" style="stroke:#999; stroke-width:3;" />
  <line x1="2261" y1="50.0" x2="2281" y2="50.0" style="stroke:#999; stroke-width:3;" />
  <rect class="anc_exon" x="2281" y="35.0" width="89" height="30" style="fill:#87bcbc;fill-opacity:1.00" />
  <line x1="2370" y1="50.0" x2="2390" y2="50.0" style="stroke:#999; stroke-width:3;" />
  <line x1="2390" y1="50.0" x2="2390" y2="50.0" style="stroke:#999; stroke-width:3;" />
  <line x1="2390" y1="50.0" x2="2390" y2="50.0" style="stroke:#999; stroke-width:3;" />
  <line x1="2390" y1="50.0" x2="2410" y2="50.0" style="stroke:#999; stroke-width:3;" />
  <rect class="anc_exon" x="2410" y="35.0" width="124" height="30" style="fill:#87bcbc;fill-opacity:1.00" />
  <line x1="2534" y1="50.0" x2="2554" y2="50.0" style="stroke:#999; stroke-width:3;" />
  <line x1="2554" y1="50.0" x2="2554" y2="50.0" style="stroke:#999; stroke-width:3;" />
  <line x1="2554" y1="50.0" x2="2554" y2="50.0" style="stroke:#999; stroke-width:3;" />
  <line x1="2554" y1="50.0" x2="2574" y2="50.0" style="stroke:#999; stroke-width:3;" />
  <rect class="anc_exon" x="2574" y="35.0" width="106" height="30" style="fill:#87bcbc;fill-opacity:1.00" />
  <line x1="2680" y1="50.0" x2="2720" y2="50.0" style="stroke:#999; stroke-width:3;" />
  <rect class="anc_exon" x="2720" y="35.0" width="162" height="30" style="fill:#87bcbc;fill-opacity:1.00" />
  <line x1="2882" y1="50.0" x2="2922" y2="50.0" style="stroke:#999; stroke-width:3;" />
  <rect class="anc_exon" x="2922" y="35.0" width="52" height="30" style="fill:#87bcbc;fill-opacity:1.00" />
  <line x1="2974" y1="50.0" x2="3014" y2="50.0" style="stroke:#999; stroke-width:3;" />
  <rect class="anc_exon" x="3014" y="35.0" width="132" height="30" style="fill:#87bcbc;fill-opacity:1.00" />
  <line x1="3146" y1="50.0" x2="3166" y2="50.0" style="stroke:#999; stroke-width:3;" />
  <line x1="3166" y1="50.0" x2="3166" y2="50.0" style="stroke:#999; stroke-width:3;" />
  <line x1="3166" y1="50.0" x2="3166" y2="50.0" style="stroke:#999; stroke-width:3;" />
  <line x1="3166" y1="50.0" x2="3186" y2="50.0" style="stroke:#999; stroke-width:3;" />
  <rect class="anc_exon" x="3186" y="35.0" width="18" height="30" style="fill:#87bcbc;fill-opacity:1.00" />
  <rect class="anc_exon" x="3204" y="35.0" width="0" height="30" style="fill:#87bcbc;fill-opacity:1.00" />
  <text style="" >
<tspan x="0" y="83.0" style="font-size:18px;" >SP XM_031968936_1.1</tspan>  </text>
  <text style="fill:#121212;" >
<tspan x="772" y="50.0" style="font-size:18px;fill:#121212;" >at</tspan>  </text>
  <text style="fill:#121212;" >
<tspan x="788.96" y="68.0" style="font-size:18px;fill:#121212;" >ac</tspan>  </text>



<script type="text/ecmascript">
<![CDATA[
function draw_bbox(text_id)
{
    var text_elem = document.getElementById(text_id);
    var offset_px = 2;
    var offset_py = 0;
    bbox = text_elem.getBBox();
    var box = document.createElementNS(document.rootElement.namespaceURI,'rect');
    box.setAttribute('x', bbox.x - offset_px);
    box.setAttribute('y', bbox.y - offset_py);
    box.setAttribute('width', bbox.width + offset_px * 2);
    box.setAttribute('height', bbox.height + offset_py * 2);
    box.setAttribute('style','fill: white;'+'stroke: black;'+'stroke-width: 1px;');
    text_elem.insertBefore(box,text_elem.childNodes[0]);

    var svg = text_elem.parentNode;
    svg.appendChild(text_elem);
}

for (var i=1; i < 1; i++)
{
draw_bbox("Mouseover" + i);
}
]]> 
</script>
</svg>
