<svg version="1.1"
xmlns="http://www.w3.org/2000/svg"
xmlns:xlink="http://www.w3.org/1999/xlink"
width="3776" height="100" viewBox = "0 0 3776 100"
onclick="mouseclick(evt)">

<script type="text/ecmascript">

<![CDATA[
    function mouseover(evt, target) { 
    var gv = document.getElementById("globalVariable");
    var previoustarget = gv.firstChild.nodeValue;
    if (previoustarget != "none") 
    {
        	document.getElementById(gv.firstChild.nodeValue).setAttributeNS(null, "visibility", "hidden");
    }
    document.getElementById(target).setAttributeNS(null, "visibility", "visible");
    gv.firstChild.nodeValue = target;
        }

    function mouseclick(evt) { 
    var gv = document.getElementById("globalVariable");
    var previoustarget = gv.firstChild.nodeValue;
    if (previoustarget != "none") {
        	document.getElementById(gv.firstChild.nodeValue).setAttributeNS(null, "visibility", "hidden");
        }
    }
]]>
  </script>
<style type="text/css" >

<![CDATA[
    rect.anc_exon {
              stroke-width:3;
                  }

    rect.non_anc_exon {
              stroke: black; stroke-width:3; stroke-dasharray: 5,5;
                    }

    text {
              font-size: 18px;
              font-family: Courier New;
          }
                    ]]>
</style>

<defs>
    <text x="150" y="40" id="globalVariable">none</text>
</defs>

  <rect class="anc_exon" x="0" y="35.0" width="0" height="30" style="fill:#87bcbc;fill-opacity:1.00" />
  <rect class="anc_exon" x="0" y="35.0" width="103.2" height="30" style="fill:#878787;fill-opacity:1.00" />
  <line x1="103.2" y1="50.0" x2="122.2" y2="50.0" style="stroke:#999; stroke-width:3;" />
  <line x1="122.2" y1="50.0" x2="122.2" y2="50.0" style="stroke:#999; stroke-width:3;" />
  <line x1="122.2" y1="50.0" x2="122.2" y2="50.0" style="stroke:#999; stroke-width:3;" />
  <line x1="122.2" y1="50.0" x2="143.0" y2="50.0" style="stroke:#999; stroke-width:3;" />
  <rect class="anc_exon" x="143" y="35.0" width="67" height="30" style="fill:#87bcbc;fill-opacity:1.00" />
  <line x1="210" y1="50.0" x2="230" y2="50.0" style="stroke:#999; stroke-width:3;" />
  <line x1="230" y1="50.0" x2="230" y2="50.0" style="stroke:#999; stroke-width:3;" />
  <line x1="230" y1="50.0" x2="230" y2="50.0" style="stroke:#999; stroke-width:3;" />
  <line x1="230" y1="50.0" x2="250" y2="50.0" style="stroke:#999; stroke-width:3;" />
  <rect class="anc_exon" x="250" y="35.0" width="91" height="30" style="fill:#87bcbc;fill-opacity:1.00" />
  <line x1="341" y1="50.0" x2="381" y2="50.0" style="stroke:#999; stroke-width:3;" />
  <rect class="anc_exon" x="381" y="35.0" width="59" height="30" style="fill:#87bcbc;fill-opacity:1.00" />
  <line x1="440" y1="50.0" x2="480" y2="50.0" style="stroke:#999; stroke-width:3;" />
  <rect class="anc_exon" x="480" y="35.0" width="67" height="30" style="fill:#87bcbc;fill-opacity:1.00" />
  <line x1="547" y1="50.0" x2="587" y2="50.0" style="stroke:#999; stroke-width:3;" />
  <rect class="anc_exon" x="587" y="35.0" width="120" height="30" style="fill:#87bcbc;fill-opacity:1.00" />
  <line x1="707" y1="50.0" x2="747" y2="50.0" style="stroke:#999; stroke-width:3;" />
  <rect class="anc_exon" x="747" y="35.0" width="14" height="30" style="fill:#87bcbc;fill-opacity:1.00" />
  <line x1="761" y1="50.0" x2="801" y2="50.0" style="stroke:#999; stroke-width:3;" />
  <rect class="anc_exon" x="801" y="35.0" width="87" height="30" style="fill:#87bcbc;fill-opacity:1.00" />
  <line x1="888" y1="50.0" x2="908" y2="50.0" style="stroke:#999; stroke-width:3;" />
  <line x1="908" y1="50.0" x2="908" y2="50.0" style="stroke:#999; stroke-width:3;" />
  <line x1="908" y1="50.0" x2="908" y2="50.0" style="stroke:#999; stroke-width:3;" />
  <line x1="908" y1="50.0" x2="928" y2="50.0" style="stroke:#999; stroke-width:3;" />
  <rect class="anc_exon" x="928" y="35.0" width="61" height="30" style="fill:#87bcbc;fill-opacity:1.00" />
  <line x1="989" y1="50.0" x2="1029" y2="50.0" style="stroke:#999; stroke-width:3;" />
  <rect class="anc_exon" x="1029" y="35.0" width="75" height="30" style="fill:#87bcbc;fill-opacity:1.00" />
  <line x1="1104" y1="50.0" x2="1124" y2="50.0" style="stroke:#999; stroke-width:3;" />
  <line x1="1124" y1="50.0" x2="1124" y2="50.0" style="stroke:#999; stroke-width:3;" />
  <line x1="1124" y1="50.0" x2="1124" y2="50.0" style="stroke:#999; stroke-width:3;" />
  <line x1="1124" y1="50.0" x2="1144" y2="50.0" style="stroke:#999; stroke-width:3;" />
  <rect class="anc_exon" x="1144" y="35.0" width="60" height="30" style="fill:#87bcbc;fill-opacity:1.00" />
  <line x1="1204" y1="50.0" x2="1244" y2="50.0" style="stroke:#999; stroke-width:3;" />
  <rect class="anc_exon" x="1244" y="35.0" width="88" height="30" style="fill:#87bcbc;fill-opacity:1.00" />
  <line x1="1332" y1="50.0" x2="1372" y2="50.0" style="stroke:#999; stroke-width:3;" />
  <rect class="anc_exon" x="1372" y="35.0" width="120" height="30" style="fill:#87bcbc;fill-opacity:1.00" />
  <line x1="1492" y1="50.0" x2="1532" y2="50.0" style="stroke:#999; stroke-width:3;" />
  <rect class="anc_exon" x="1532" y="35.0" width="81" height="30" style="fill:#87bcbc;fill-opacity:1.00" />
  <line x1="1613" y1="50.0" x2="1653" y2="50.0" style="stroke:#999; stroke-width:3;" />
  <rect class="anc_exon" x="1653" y="35.0" width="216" height="30" style="fill:#87bcbc;fill-opacity:1.00" />
  <line x1="1869" y1="50.0" x2="1909" y2="50.0" style="stroke:#999; stroke-width:3;" />
  <rect class="anc_exon" x="1909" y="35.0" width="256" height="30" style="fill:#878787;fill-opacity:1.00" />
  <line x1="2165" y1="50.0" x2="2205" y2="50.0" style="stroke:#999; stroke-width:3;" />
  <rect class="anc_exon" x="2205" y="35.0" width="97" height="30" style="fill:#87bcbc;fill-opacity:1.00" />
  <line x1="2302" y1="50.0" x2="2342" y2="50.0" style="stroke:#999; stroke-width:3;" />
  <rect class="anc_exon" x="2342" y="35.0" width="162" height="30" style="fill:#87bcbc;fill-opacity:1.00" />
  <line x1="2504" y1="50.0" x2="2544" y2="50.0" style="stroke:#999; stroke-width:3;" />
  <rect class="anc_exon" x="2544" y="35.0" width="188" height="30" style="fill:#87bcbc;fill-opacity:1.00" />
  <line x1="2732" y1="50.0" x2="2772" y2="50.0" style="stroke:#999; stroke-width:3;" />
  <rect class="anc_exon" x="2772" y="35.0" width="55" height="30" style="fill:#87bcbc;fill-opacity:1.00" />
  <line x1="2827" y1="50.0" x2="2867" y2="50.0" style="stroke:#999; stroke-width:3;" />
  <rect class="anc_exon" x="2867" y="35.0" width="64" height="30" style="fill:#87bcbc;fill-opacity:1.00" />
  <line x1="2931" y1="50.0" x2="2971" y2="50.0" style="stroke:#999; stroke-width:3;" />
  <rect class="anc_exon" x="2971" y="35.0" width="104" height="30" style="fill:#87bcbc;fill-opacity:1.00" />
  <line x1="3075" y1="50.0" x2="3115" y2="50.0" style="stroke:#999; stroke-width:3;" />
  <rect class="anc_exon" x="3115" y="35.0" width="131" height="30" style="fill:#87bcbc;fill-opacity:1.00" />
  <line x1="3246" y1="50.0" x2="3286" y2="50.0" style="stroke:#999; stroke-width:3;" />
  <rect class="anc_exon" x="3286" y="35.0" width="81" height="30" style="fill:#87bcbc;fill-opacity:1.00" />
  <line x1="3367" y1="50.0" x2="3407" y2="50.0" style="stroke:#999; stroke-width:3;" />
  <rect class="anc_exon" x="3407" y="35.0" width="79" height="30" style="fill:#87bcbc;fill-opacity:1.00" />
  <line x1="3486" y1="50.0" x2="3526" y2="50.0" style="stroke:#999; stroke-width:3;" />
  <rect class="anc_exon" x="3526" y="35.0" width="101" height="30" style="fill:#878787;fill-opacity:1.00" />
  <line x1="3627" y1="50.0" x2="3667" y2="50.0" style="stroke:#999; stroke-width:3;" />
  <rect class="anc_exon" x="3667" y="35.0" width="73" height="30" style="fill:#878787;fill-opacity:1.00" />
  <rect class="anc_exon" x="3740" y="35.0" width="0" height="30" style="fill:#87bcbc;fill-opacity:1.00" />
  <text style="" >
<tspan x="0" y="83.0" style="font-size:18px;" >SP XM_031965982_1.1</tspan>  </text>



<script type="text/ecmascript">
<![CDATA[
function draw_bbox(text_id)
{
    var text_elem = document.getElementById(text_id);
    var offset_px = 2;
    var offset_py = 0;
    bbox = text_elem.getBBox();
    var box = document.createElementNS(document.rootElement.namespaceURI,'rect');
    box.setAttribute('x', bbox.x - offset_px);
    box.setAttribute('y', bbox.y - offset_py);
    box.setAttribute('width', bbox.width + offset_px * 2);
    box.setAttribute('height', bbox.height + offset_py * 2);
    box.setAttribute('style','fill: white;'+'stroke: black;'+'stroke-width: 1px;');
    text_elem.insertBefore(box,text_elem.childNodes[0]);

    var svg = text_elem.parentNode;
    svg.appendChild(text_elem);
}

for (var i=1; i < 1; i++)
{
draw_bbox("Mouseover" + i);
}
]]> 
</script>
</svg>
