<svg version="1.1"
xmlns="http://www.w3.org/2000/svg"
xmlns:xlink="http://www.w3.org/1999/xlink"
width="3058" height="100" viewBox = "0 0 3058 100"
onclick="mouseclick(evt)">

<script type="text/ecmascript">

<![CDATA[
    function mouseover(evt, target) { 
    var gv = document.getElementById("globalVariable");
    var previoustarget = gv.firstChild.nodeValue;
    if (previoustarget != "none") 
    {
        	document.getElementById(gv.firstChild.nodeValue).setAttributeNS(null, "visibility", "hidden");
    }
    document.getElementById(target).setAttributeNS(null, "visibility", "visible");
    gv.firstChild.nodeValue = target;
        }

    function mouseclick(evt) { 
    var gv = document.getElementById("globalVariable");
    var previoustarget = gv.firstChild.nodeValue;
    if (previoustarget != "none") {
        	document.getElementById(gv.firstChild.nodeValue).setAttributeNS(null, "visibility", "hidden");
        }
    }
]]>
  </script>
<style type="text/css" >

<![CDATA[
    rect.anc_exon {
              stroke-width:3;
                  }

    rect.non_anc_exon {
              stroke: black; stroke-width:3; stroke-dasharray: 5,5;
                    }

    text {
              font-size: 18px;
              font-family: Courier New;
          }
                    ]]>
</style>

<defs>
    <text x="150" y="40" id="globalVariable">none</text>
</defs>

  <rect class="anc_exon" x="0" y="35.0" width="0" height="30" style="fill:#87bcbc;fill-opacity:1.00" />
  <rect class="anc_exon" x="0" y="35.0" width="26.400000000000002" height="30" style="fill:#87bcbc;fill-opacity:1.00" />
  <line x1="26.400000000000002" y1="50.0" x2="45.400000000000006" y2="50.0" style="stroke:#999; stroke-width:3;" />
  <line x1="45.400000000000006" y1="50.0" x2="45.400000000000006" y2="50.0" style="stroke:#999; stroke-width:3;" />
  <line x1="45.400000000000006" y1="50.0" x2="45.400000000000006" y2="50.0" style="stroke:#999; stroke-width:3;" />
  <line x1="45.400000000000006" y1="50.0" x2="66.0" y2="50.0" style="stroke:#999; stroke-width:3;" />
  <rect class="anc_exon" x="66" y="35.0" width="33" height="30" style="fill:#87bcbc;fill-opacity:1.00" />
  <line x1="99" y1="50.0" x2="119" y2="50.0" style="stroke:#999; stroke-width:3;" />
  <line x1="119" y1="50.0" x2="119" y2="50.0" style="stroke:#999; stroke-width:3;" />
  <line x1="119" y1="50.0" x2="119" y2="50.0" style="stroke:#999; stroke-width:3;" />
  <line x1="119" y1="50.0" x2="139" y2="50.0" style="stroke:#999; stroke-width:3;" />
  <rect class="anc_exon" x="139" y="35.0" width="72" height="30" style="fill:#87bcbc;fill-opacity:1.00" />
  <line x1="211" y1="50.0" x2="231" y2="50.0" style="stroke:#999; stroke-width:3;" />
  <line x1="231" y1="50.0" x2="231" y2="50.0" style="stroke:#999; stroke-width:3;" />
  <line x1="231" y1="50.0" x2="231" y2="50.0" style="stroke:#999; stroke-width:3;" />
  <line x1="231" y1="50.0" x2="251" y2="50.0" style="stroke:#999; stroke-width:3;" />
  <rect class="anc_exon" x="251" y="35.0" width="38" height="30" style="fill:#87bcbc;fill-opacity:1.00" />
  <line x1="289" y1="50.0" x2="309" y2="50.0" style="stroke:#999; stroke-width:3;" />
  <line x1="309" y1="50.0" x2="309" y2="50.0" style="stroke:#999; stroke-width:3;" />
  <line x1="309" y1="50.0" x2="309" y2="50.0" style="stroke:#999; stroke-width:3;" />
  <line x1="309" y1="50.0" x2="329" y2="50.0" style="stroke:#999; stroke-width:3;" />
  <rect class="anc_exon" x="329" y="35.0" width="52" height="30" style="fill:#87bcbc;fill-opacity:1.00" />
  <line x1="381" y1="50.0" x2="401" y2="50.0" style="stroke:#999; stroke-width:3;" />
  <line x1="401" y1="50.0" x2="401" y2="50.0" style="stroke:#999; stroke-width:3;" />
  <line x1="401" y1="50.0" x2="401" y2="50.0" style="stroke:#999; stroke-width:3;" />
  <line x1="401" y1="50.0" x2="421" y2="50.0" style="stroke:#999; stroke-width:3;" />
  <rect class="anc_exon" x="421" y="35.0" width="100" height="30" style="fill:#87bcbc;fill-opacity:1.00" />
  <line x1="521" y1="50.0" x2="561" y2="50.0" style="stroke:#999; stroke-width:3;" />
  <rect class="anc_exon" x="561" y="35.0" width="48" height="30" style="fill:#87bcbc;fill-opacity:1.00" />
  <line x1="609" y1="50.0" x2="629" y2="50.0" style="stroke:#999; stroke-width:3;" />
  <line x1="629" y1="50.0" x2="629" y2="50.0" style="stroke:#999; stroke-width:3;" />
  <line x1="629" y1="50.0" x2="629" y2="50.0" style="stroke:#999; stroke-width:3;" />
  <line x1="629" y1="50.0" x2="649" y2="50.0" style="stroke:#999; stroke-width:3;" />
  <rect class="anc_exon" x="649" y="35.0" width="158" height="30" style="fill:#87bcbc;fill-opacity:1.00" />
  <line x1="807" y1="50.0" x2="847" y2="50.0" style="stroke:#999; stroke-width:3;" />
  <rect class="anc_exon" x="847" y="35.0" width="116" height="30" style="fill:#87bcbc;fill-opacity:1.00" />
  <line x1="963" y1="50.0" x2="983" y2="50.0" style="stroke:#999; stroke-width:3;" />
  <line x1="983" y1="50.0" x2="983" y2="50.0" style="stroke:#999; stroke-width:3;" />
  <line x1="983" y1="50.0" x2="983" y2="50.0" style="stroke:#999; stroke-width:3;" />
  <line x1="983" y1="50.0" x2="1003" y2="50.0" style="stroke:#999; stroke-width:3;" />
  <rect class="anc_exon" x="1003" y="35.0" width="125" height="30" style="fill:#87bcbc;fill-opacity:1.00" />
  <line x1="1128" y1="50.0" x2="1148" y2="50.0" style="stroke:#999; stroke-width:3;" />
  <line x1="1148" y1="50.0" x2="1148" y2="50.0" style="stroke:#999; stroke-width:3;" />
  <line x1="1148" y1="50.0" x2="1148" y2="50.0" style="stroke:#999; stroke-width:3;" />
  <line x1="1148" y1="50.0" x2="1168" y2="50.0" style="stroke:#999; stroke-width:3;" />
  <rect class="anc_exon" x="1168" y="35.0" width="68" height="30" style="fill:#87bcbc;fill-opacity:1.00" />
  <line x1="1236" y1="50.0" x2="1256" y2="50.0" style="stroke:#999; stroke-width:3;" />
  <line x1="1256" y1="50.0" x2="1256" y2="50.0" style="stroke:#999; stroke-width:3;" />
  <line x1="1256" y1="50.0" x2="1256" y2="50.0" style="stroke:#999; stroke-width:3;" />
  <line x1="1256" y1="50.0" x2="1276" y2="50.0" style="stroke:#999; stroke-width:3;" />
  <rect class="anc_exon" x="1276" y="35.0" width="58" height="30" style="fill:#87bcbc;fill-opacity:1.00" />
  <line x1="1334" y1="50.0" x2="1354" y2="50.0" style="stroke:#999; stroke-width:3;" />
  <line x1="1354" y1="50.0" x2="1354" y2="50.0" style="stroke:#999; stroke-width:3;" />
  <line x1="1354" y1="50.0" x2="1354" y2="50.0" style="stroke:#999; stroke-width:3;" />
  <line x1="1354" y1="50.0" x2="1374" y2="50.0" style="stroke:#999; stroke-width:3;" />
  <rect class="anc_exon" x="1374" y="35.0" width="129" height="30" style="fill:#87bcbc;fill-opacity:1.00" />
  <line x1="1503" y1="50.0" x2="1543" y2="50.0" style="stroke:#999; stroke-width:3;" />
  <rect class="anc_exon" x="1543" y="35.0" width="158" height="30" style="fill:#87bcbc;fill-opacity:1.00" />
  <line x1="1701" y1="50.0" x2="1741" y2="50.0" style="stroke:#999; stroke-width:3;" />
  <rect class="anc_exon" x="1741" y="35.0" width="163" height="30" style="fill:#87bcbc;fill-opacity:1.00" />
  <line x1="1904" y1="50.0" x2="1944" y2="50.0" style="stroke:#999; stroke-width:3;" />
  <rect class="anc_exon" x="1944" y="35.0" width="62" height="30" style="fill:#878787;fill-opacity:1.00" />
  <line x1="2006" y1="50.0" x2="2046" y2="50.0" style="stroke:#999; stroke-width:3;" />
  <rect class="anc_exon" x="2046" y="35.0" width="72" height="30" style="fill:#87bcbc;fill-opacity:1.00" />
  <line x1="2118" y1="50.0" x2="2158" y2="50.0" style="stroke:#999; stroke-width:3;" />
  <rect class="anc_exon" x="2158" y="35.0" width="28" height="30" style="fill:#878787;fill-opacity:1.00" />
  <line x1="2186" y1="50.0" x2="2206" y2="50.0" style="stroke:#999; stroke-width:3;" />
  <line x1="2206" y1="50.0" x2="2206" y2="50.0" style="stroke:#999; stroke-width:3;" />
  <line x1="2206" y1="50.0" x2="2206" y2="50.0" style="stroke:#999; stroke-width:3;" />
  <line x1="2206" y1="50.0" x2="2226" y2="50.0" style="stroke:#999; stroke-width:3;" />
  <rect class="anc_exon" x="2226" y="35.0" width="109" height="30" style="fill:#87bcbc;fill-opacity:1.00" />
  <line x1="2335" y1="50.0" x2="2355" y2="50.0" style="stroke:#999; stroke-width:3;" />
  <line x1="2355" y1="50.0" x2="2355" y2="50.0" style="stroke:#999; stroke-width:3;" />
  <line x1="2355" y1="50.0" x2="2355" y2="50.0" style="stroke:#999; stroke-width:3;" />
  <line x1="2355" y1="50.0" x2="2375" y2="50.0" style="stroke:#999; stroke-width:3;" />
  <rect class="anc_exon" x="2375" y="35.0" width="56" height="30" style="fill:#87bcbc;fill-opacity:1.00" />
  <line x1="2431" y1="50.0" x2="2451" y2="50.0" style="stroke:#999; stroke-width:3;" />
  <line x1="2451" y1="50.0" x2="2451" y2="50.0" style="stroke:#999; stroke-width:3;" />
  <line x1="2451" y1="50.0" x2="2451" y2="50.0" style="stroke:#999; stroke-width:3;" />
  <line x1="2451" y1="50.0" x2="2471" y2="50.0" style="stroke:#999; stroke-width:3;" />
  <rect class="anc_exon" x="2471" y="35.0" width="61" height="30" style="fill:#87bcbc;fill-opacity:1.00" />
  <line x1="2532" y1="50.0" x2="2572" y2="50.0" style="stroke:#999; stroke-width:3;" />
  <rect class="anc_exon" x="2572" y="35.0" width="132" height="30" style="fill:#87bcbc;fill-opacity:1.00" />
  <line x1="2704" y1="50.0" x2="2744" y2="50.0" style="stroke:#999; stroke-width:3;" />
  <rect class="anc_exon" x="2744" y="35.0" width="121" height="30" style="fill:#878787;fill-opacity:1.00" />
  <line x1="2865" y1="50.0" x2="2905" y2="50.0" style="stroke:#999; stroke-width:3;" />
  <rect class="anc_exon" x="2905" y="35.0" width="117" height="30" style="fill:#87bcbc;fill-opacity:1.00" />
  <rect class="anc_exon" x="3022" y="35.0" width="0" height="30" style="fill:#87bcbc;fill-opacity:1.00" />
  <text style="" >
<tspan x="0" y="83.0" style="font-size:18px;" >SP XM_031969137_1.1</tspan>  </text>



<script type="text/ecmascript">
<![CDATA[
function draw_bbox(text_id)
{
    var text_elem = document.getElementById(text_id);
    var offset_px = 2;
    var offset_py = 0;
    bbox = text_elem.getBBox();
    var box = document.createElementNS(document.rootElement.namespaceURI,'rect');
    box.setAttribute('x', bbox.x - offset_px);
    box.setAttribute('y', bbox.y - offset_py);
    box.setAttribute('width', bbox.width + offset_px * 2);
    box.setAttribute('height', bbox.height + offset_py * 2);
    box.setAttribute('style','fill: white;'+'stroke: black;'+'stroke-width: 1px;');
    text_elem.insertBefore(box,text_elem.childNodes[0]);

    var svg = text_elem.parentNode;
    svg.appendChild(text_elem);
}

for (var i=1; i < 1; i++)
{
draw_bbox("Mouseover" + i);
}
]]> 
</script>
</svg>
