<svg version="1.1"
xmlns="http://www.w3.org/2000/svg"
xmlns:xlink="http://www.w3.org/1999/xlink"
width="4159" height="110.0" viewBox = "0 -10.0 4159 110.0"
onclick="mouseclick(evt)">

<script type="text/ecmascript">

<![CDATA[
    function mouseover(evt, target) { 
    var gv = document.getElementById("globalVariable");
    var previoustarget = gv.firstChild.nodeValue;
    if (previoustarget != "none") 
    {
        	document.getElementById(gv.firstChild.nodeValue).setAttributeNS(null, "visibility", "hidden");
    }
    document.getElementById(target).setAttributeNS(null, "visibility", "visible");
    gv.firstChild.nodeValue = target;
        }

    function mouseclick(evt) { 
    var gv = document.getElementById("globalVariable");
    var previoustarget = gv.firstChild.nodeValue;
    if (previoustarget != "none") {
        	document.getElementById(gv.firstChild.nodeValue).setAttributeNS(null, "visibility", "hidden");
        }
    }
]]>
  </script>
<style type="text/css" >

<![CDATA[
    rect.anc_exon {
              stroke-width:3;
                  }

    rect.non_anc_exon {
              stroke: black; stroke-width:3; stroke-dasharray: 5,5;
                    }

    text {
              font-size: 18px;
              font-family: Courier New;
          }
                    ]]>
</style>

<defs>
    <text x="150" y="40" id="globalVariable">none</text>
</defs>

  <rect class="anc_exon" x="0" y="35.0" width="0" height="30" style="fill:#87bcbc;fill-opacity:1.00" />
  <rect class="anc_exon" x="0" y="35.0" width="70.4" height="30" style="fill:#87bcbc;fill-opacity:1.00" />
  <line x1="70.4" y1="50.0" x2="89.4" y2="50.0" style="stroke:#999; stroke-width:3;" />
  <line x1="89.4" y1="50.0" x2="89.4" y2="50.0" style="stroke:#999; stroke-width:3;" />
  <line x1="89.4" y1="50.0" x2="89.4" y2="50.0" style="stroke:#999; stroke-width:3;" />
  <line x1="89.4" y1="50.0" x2="110.0" y2="50.0" style="stroke:#999; stroke-width:3;" />
  <rect class="anc_exon" x="110" y="35.0" width="107" height="30" style="fill:#87bcbc;fill-opacity:1.00" />
  <line x1="217" y1="50.0" x2="237" y2="50.0" style="stroke:#999; stroke-width:3;" />
  <line x1="237" y1="50.0" x2="237" y2="50.0" style="stroke:#999; stroke-width:3;" />
  <line x1="237" y1="50.0" x2="237" y2="50.0" style="stroke:#999; stroke-width:3;" />
  <line x1="237" y1="50.0" x2="257" y2="50.0" style="stroke:#999; stroke-width:3;" />
  <rect class="anc_exon" x="257" y="35.0" width="113" height="30" style="fill:#87bcbc;fill-opacity:1.00" />
  <line x1="370" y1="50.0" x2="390" y2="50.0" style="stroke:#999; stroke-width:3;" />
  <line x1="390" y1="50.0" x2="390" y2="50.0" style="stroke:#999; stroke-width:3;" />
  <line x1="390" y1="50.0" x2="390" y2="50.0" style="stroke:#999; stroke-width:3;" />
  <line x1="390" y1="50.0" x2="410" y2="50.0" style="stroke:#999; stroke-width:3;" />
  <rect class="anc_exon" x="410" y="35.0" width="64" height="30" style="fill:#87bcbc;fill-opacity:1.00" />
  <line x1="474" y1="50.0" x2="514" y2="50.0" style="stroke:#999; stroke-width:3;" />
  <rect class="anc_exon" x="514" y="35.0" width="95" height="30" style="fill:#87bcbc;fill-opacity:1.00" />
  <line x1="609" y1="50.0" x2="649" y2="50.0" style="stroke:#999; stroke-width:3;" />
  <rect class="anc_exon" x="649" y="35.0" width="70" height="30" style="fill:#87bcbc;fill-opacity:1.00" />
  <line x1="719" y1="50.0" x2="739" y2="50.0" style="stroke:#999; stroke-width:3;" />
  <line x1="739" y1="50.0" x2="739" y2="50.0" style="stroke:#999; stroke-width:3;" />
  <line x1="739" y1="50.0" x2="739" y2="50.0" style="stroke:#999; stroke-width:3;" />
  <line x1="739" y1="50.0" x2="759" y2="50.0" style="stroke:#999; stroke-width:3;" />
  <rect class="anc_exon" x="759" y="35.0" width="107" height="30" style="fill:#87bcbc;fill-opacity:1.00" />
  <line x1="866" y1="50.0" x2="886" y2="50.0" style="stroke:#999; stroke-width:3;" />
  <line x1="886" y1="50.0" x2="886" y2="50.0" style="stroke:#999; stroke-width:3;" />
  <line x1="886" y1="50.0" x2="886" y2="50.0" style="stroke:#999; stroke-width:3;" />
  <line x1="886" y1="50.0" x2="906" y2="50.0" style="stroke:#999; stroke-width:3;" />
  <rect class="anc_exon" x="906" y="35.0" width="68" height="30" style="fill:#87bcbc;fill-opacity:1.00" />
  <line x1="974" y1="50.0" x2="1014" y2="50.0" style="stroke:#999; stroke-width:3;" />
  <rect class="anc_exon" x="1014" y="35.0" width="97" height="30" style="fill:#87bcbc;fill-opacity:1.00" />
  <line x1="1111" y1="50.0" x2="1131" y2="50.0" style="stroke:#999; stroke-width:3;" />
  <line x1="1131" y1="50.0" x2="1131" y2="50.0" style="stroke:#999; stroke-width:3;" />
  <line x1="1131" y1="50.0" x2="1131" y2="50.0" style="stroke:#999; stroke-width:3;" />
  <line x1="1131" y1="50.0" x2="1151" y2="50.0" style="stroke:#999; stroke-width:3;" />
  <rect class="anc_exon" x="1151" y="35.0" width="120" height="30" style="fill:#87bcbc;fill-opacity:1.00" />
  <line x1="1271" y1="50.0" x2="1311" y2="50.0" style="stroke:#999; stroke-width:3;" />
  <rect class="anc_exon" x="1311" y="35.0" width="2319" height="30" style="fill:#878787;fill-opacity:1.00" />
  <line x1="3630" y1="50.0" x2="3670" y2="50.0" style="stroke:#999; stroke-width:3;" />
  <rect class="anc_exon" x="3670" y="35.0" width="128" height="30" style="fill:#87bcbc;fill-opacity:1.00" />
  <line x1="3798" y1="50.0" x2="3838" y2="50.0" style="stroke:#999; stroke-width:3;" />
  <rect class="anc_exon" x="3838" y="35.0" width="177" height="30" style="fill:#87bcbc;fill-opacity:1.00" />
  <line x1="4015" y1="50.0" x2="4055" y2="50.0" style="stroke:#999; stroke-width:3;" />
  <rect class="anc_exon" x="4055" y="35.0" width="68" height="30" style="fill:#87bcbc;fill-opacity:1.00" />
  <line x1="4063.0" y1="35.0" x2="4063.0" y2="65.0" style="stroke:#121212; stroke-width:1.6; stroke-opacity:1"/>
  <text style="" text-anchor="middle">
<tspan x="4062.2" y="26.0" style="font-size:18px;fill:#121212;" >-2</tspan>  </text>
  <rect class="anc_exon" x="4123" y="35.0" width="0" height="30" style="fill:#87bcbc;fill-opacity:1.00" />
  <text style="" >
<tspan x="0" y="83.0" style="font-size:18px;" >SP XM_031965606_1.1</tspan>  </text>



<script type="text/ecmascript">
<![CDATA[
function draw_bbox(text_id)
{
    var text_elem = document.getElementById(text_id);
    var offset_px = 2;
    var offset_py = 0;
    bbox = text_elem.getBBox();
    var box = document.createElementNS(document.rootElement.namespaceURI,'rect');
    box.setAttribute('x', bbox.x - offset_px);
    box.setAttribute('y', bbox.y - offset_py);
    box.setAttribute('width', bbox.width + offset_px * 2);
    box.setAttribute('height', bbox.height + offset_py * 2);
    box.setAttribute('style','fill: white;'+'stroke: black;'+'stroke-width: 1px;');
    text_elem.insertBefore(box,text_elem.childNodes[0]);

    var svg = text_elem.parentNode;
    svg.appendChild(text_elem);
}

for (var i=1; i < 1; i++)
{
draw_bbox("Mouseover" + i);
}
]]> 
</script>
</svg>
