<svg version="1.1"
xmlns="http://www.w3.org/2000/svg"
xmlns:xlink="http://www.w3.org/1999/xlink"
width="2369" height="100" viewBox = "0 0 2369 100"
onclick="mouseclick(evt)">

<script type="text/ecmascript">

<![CDATA[
    function mouseover(evt, target) { 
    var gv = document.getElementById("globalVariable");
    var previoustarget = gv.firstChild.nodeValue;
    if (previoustarget != "none") 
    {
        	document.getElementById(gv.firstChild.nodeValue).setAttributeNS(null, "visibility", "hidden");
    }
    document.getElementById(target).setAttributeNS(null, "visibility", "visible");
    gv.firstChild.nodeValue = target;
        }

    function mouseclick(evt) { 
    var gv = document.getElementById("globalVariable");
    var previoustarget = gv.firstChild.nodeValue;
    if (previoustarget != "none") {
        	document.getElementById(gv.firstChild.nodeValue).setAttributeNS(null, "visibility", "hidden");
        }
    }
]]>
  </script>
<style type="text/css" >

<![CDATA[
    rect.anc_exon {
              stroke-width:3;
                  }

    rect.non_anc_exon {
              stroke: black; stroke-width:3; stroke-dasharray: 5,5;
                    }

    text {
              font-size: 18px;
              font-family: Courier New;
          }
                    ]]>
</style>

<defs>
    <text x="150" y="40" id="globalVariable">none</text>
</defs>

  <rect class="anc_exon" x="0" y="35.0" width="0" height="30" style="fill:#87bcbc;fill-opacity:1.00" />
  <rect class="anc_exon" x="0" y="35.0" width="235.20000000000002" height="30" style="fill:#87bcbc;fill-opacity:1.00" />
  <line x1="235.20000000000002" y1="50.0" x2="254.20000000000002" y2="50.0" style="stroke:#999; stroke-width:3;" />
  <line x1="254.20000000000002" y1="50.0" x2="254.20000000000002" y2="50.0" style="stroke:#999; stroke-width:3;" />
  <line x1="254.20000000000002" y1="50.0" x2="254.20000000000002" y2="50.0" style="stroke:#999; stroke-width:3;" />
  <line x1="254.20000000000002" y1="50.0" x2="275.0" y2="50.0" style="stroke:#999; stroke-width:3;" />
  <rect class="anc_exon" x="275" y="35.0" width="79" height="30" style="fill:#87bcbc;fill-opacity:1.00" />
  <line x1="354" y1="50.0" x2="374" y2="50.0" style="stroke:#999; stroke-width:3;" />
  <line x1="374" y1="50.0" x2="374" y2="50.0" style="stroke:#999; stroke-width:3;" />
  <line x1="374" y1="50.0" x2="374" y2="50.0" style="stroke:#999; stroke-width:3;" />
  <line x1="374" y1="50.0" x2="394" y2="50.0" style="stroke:#999; stroke-width:3;" />
  <rect class="anc_exon" x="394" y="35.0" width="79" height="30" style="fill:#87bcbc;fill-opacity:1.00" />
  <line x1="473" y1="50.0" x2="493" y2="50.0" style="stroke:#999; stroke-width:3;" />
  <line x1="493" y1="50.0" x2="493" y2="50.0" style="stroke:#999; stroke-width:3;" />
  <line x1="493" y1="50.0" x2="493" y2="50.0" style="stroke:#999; stroke-width:3;" />
  <line x1="493" y1="50.0" x2="513" y2="50.0" style="stroke:#999; stroke-width:3;" />
  <rect class="anc_exon" x="513" y="35.0" width="79" height="30" style="fill:#87bcbc;fill-opacity:1.00" />
  <line x1="592" y1="50.0" x2="632" y2="50.0" style="stroke:#999; stroke-width:3;" />
  <rect class="anc_exon" x="632" y="35.0" width="79" height="30" style="fill:#87bcbc;fill-opacity:1.00" />
  <line x1="711" y1="50.0" x2="731" y2="50.0" style="stroke:#999; stroke-width:3;" />
  <line x1="731" y1="50.0" x2="731" y2="50.0" style="stroke:#999; stroke-width:3;" />
  <line x1="731" y1="50.0" x2="731" y2="50.0" style="stroke:#999; stroke-width:3;" />
  <line x1="731" y1="50.0" x2="751" y2="50.0" style="stroke:#999; stroke-width:3;" />
  <rect class="anc_exon" x="751" y="35.0" width="79" height="30" style="fill:#87bcbc;fill-opacity:1.00" />
  <line x1="830" y1="50.0" x2="850" y2="50.0" style="stroke:#999; stroke-width:3;" />
  <line x1="850" y1="50.0" x2="850" y2="50.0" style="stroke:#999; stroke-width:3;" />
  <line x1="850" y1="50.0" x2="850" y2="50.0" style="stroke:#999; stroke-width:3;" />
  <line x1="850" y1="50.0" x2="870" y2="50.0" style="stroke:#999; stroke-width:3;" />
  <rect class="anc_exon" x="870" y="35.0" width="62" height="30" style="fill:#87bcbc;fill-opacity:1.00" />
  <line x1="932" y1="50.0" x2="952" y2="50.0" style="stroke:#999; stroke-width:3;" />
  <line x1="952" y1="50.0" x2="952" y2="50.0" style="stroke:#999; stroke-width:3;" />
  <line x1="952" y1="50.0" x2="952" y2="50.0" style="stroke:#999; stroke-width:3;" />
  <line x1="952" y1="50.0" x2="972" y2="50.0" style="stroke:#999; stroke-width:3;" />
  <rect class="anc_exon" x="972" y="35.0" width="84" height="30" style="fill:#87bcbc;fill-opacity:1.00" />
  <line x1="1056" y1="50.0" x2="1076" y2="50.0" style="stroke:#999; stroke-width:3;" />
  <line x1="1076" y1="50.0" x2="1076" y2="50.0" style="stroke:#999; stroke-width:3;" />
  <line x1="1076" y1="50.0" x2="1076" y2="50.0" style="stroke:#999; stroke-width:3;" />
  <line x1="1076" y1="50.0" x2="1096" y2="50.0" style="stroke:#999; stroke-width:3;" />
  <rect class="anc_exon" x="1096" y="35.0" width="108" height="30" style="fill:#87bcbc;fill-opacity:1.00" />
  <line x1="1204" y1="50.0" x2="1244" y2="50.0" style="stroke:#999; stroke-width:3;" />
  <rect class="anc_exon" x="1244" y="35.0" width="148" height="30" style="fill:#87bcbc;fill-opacity:1.00" />
  <line x1="1392" y1="50.0" x2="1432" y2="50.0" style="stroke:#999; stroke-width:3;" />
  <rect class="anc_exon" x="1432" y="35.0" width="122" height="30" style="fill:#87bcbc;fill-opacity:1.00" />
  <line x1="1554" y1="50.0" x2="1594" y2="50.0" style="stroke:#999; stroke-width:3;" />
  <rect class="anc_exon" x="1594" y="35.0" width="91" height="30" style="fill:#87bcbc;fill-opacity:1.00" />
  <line x1="1685" y1="50.0" x2="1705" y2="50.0" style="stroke:#999; stroke-width:3;" />
  <line x1="1705" y1="50.0" x2="1705" y2="50.0" style="stroke:#999; stroke-width:3;" />
  <line x1="1705" y1="50.0" x2="1705" y2="50.0" style="stroke:#999; stroke-width:3;" />
  <line x1="1705" y1="50.0" x2="1725" y2="50.0" style="stroke:#999; stroke-width:3;" />
  <rect class="anc_exon" x="1725" y="35.0" width="101" height="30" style="fill:#87bcbc;fill-opacity:1.00" />
  <line x1="1826" y1="50.0" x2="1866" y2="50.0" style="stroke:#999; stroke-width:3;" />
  <rect class="anc_exon" x="1866" y="35.0" width="467" height="30" style="fill:#87bcbc;fill-opacity:1.00" />
  <rect class="anc_exon" x="2333" y="35.0" width="0" height="30" style="fill:#87bcbc;fill-opacity:1.00" />
  <text style="" >
<tspan x="0" y="83.0" style="font-size:18px;" >SP XM_031964523_1.1</tspan>  </text>



<script type="text/ecmascript">
<![CDATA[
function draw_bbox(text_id)
{
    var text_elem = document.getElementById(text_id);
    var offset_px = 2;
    var offset_py = 0;
    bbox = text_elem.getBBox();
    var box = document.createElementNS(document.rootElement.namespaceURI,'rect');
    box.setAttribute('x', bbox.x - offset_px);
    box.setAttribute('y', bbox.y - offset_py);
    box.setAttribute('width', bbox.width + offset_px * 2);
    box.setAttribute('height', bbox.height + offset_py * 2);
    box.setAttribute('style','fill: white;'+'stroke: black;'+'stroke-width: 1px;');
    text_elem.insertBefore(box,text_elem.childNodes[0]);

    var svg = text_elem.parentNode;
    svg.appendChild(text_elem);
}

for (var i=1; i < 1; i++)
{
draw_bbox("Mouseover" + i);
}
]]> 
</script>
</svg>
