<svg version="1.1"
xmlns="http://www.w3.org/2000/svg"
xmlns:xlink="http://www.w3.org/1999/xlink"
width="2254" height="100" viewBox = "0 0 2254 100"
onclick="mouseclick(evt)">

<script type="text/ecmascript">

<![CDATA[
    function mouseover(evt, target) { 
    var gv = document.getElementById("globalVariable");
    var previoustarget = gv.firstChild.nodeValue;
    if (previoustarget != "none") 
    {
        	document.getElementById(gv.firstChild.nodeValue).setAttributeNS(null, "visibility", "hidden");
    }
    document.getElementById(target).setAttributeNS(null, "visibility", "visible");
    gv.firstChild.nodeValue = target;
        }

    function mouseclick(evt) { 
    var gv = document.getElementById("globalVariable");
    var previoustarget = gv.firstChild.nodeValue;
    if (previoustarget != "none") {
        	document.getElementById(gv.firstChild.nodeValue).setAttributeNS(null, "visibility", "hidden");
        }
    }
]]>
  </script>
<style type="text/css" >

<![CDATA[
    rect.anc_exon {
              stroke-width:3;
                  }

    rect.non_anc_exon {
              stroke: black; stroke-width:3; stroke-dasharray: 5,5;
                    }

    text {
              font-size: 18px;
              font-family: Courier New;
          }
                    ]]>
</style>

<defs>
    <text x="150" y="40" id="globalVariable">none</text>
</defs>

  <rect class="anc_exon" x="0" y="35.0" width="0" height="30" style="fill:#87bcbc;fill-opacity:1.00" />
  <rect class="anc_exon" x="0" y="35.0" width="76.0" height="30" style="fill:#87bcbc;fill-opacity:1.00" />
  <line x1="76.0" y1="50.0" x2="96.0" y2="50.0" style="stroke:#999; stroke-width:3;" />
  <line x1="96.0" y1="50.0" x2="96.0" y2="50.0" style="stroke:#999; stroke-width:3;" />
  <line x1="96.0" y1="50.0" x2="96.0" y2="50.0" style="stroke:#999; stroke-width:3;" />
  <line x1="96.0" y1="50.0" x2="116.0" y2="50.0" style="stroke:#999; stroke-width:3;" />
  <rect class="anc_exon" x="116" y="35.0" width="32" height="30" style="fill:#87bcbc;fill-opacity:1.00" />
  <line x1="148" y1="50.0" x2="168" y2="50.0" style="stroke:#999; stroke-width:3;" />
  <line x1="168" y1="50.0" x2="168" y2="50.0" style="stroke:#999; stroke-width:3;" />
  <line x1="168" y1="50.0" x2="168" y2="50.0" style="stroke:#999; stroke-width:3;" />
  <line x1="168" y1="50.0" x2="188" y2="50.0" style="stroke:#999; stroke-width:3;" />
  <rect class="anc_exon" x="188" y="35.0" width="37" height="30" style="fill:#87bcbc;fill-opacity:1.00" />
  <line x1="225" y1="50.0" x2="245" y2="50.0" style="stroke:#999; stroke-width:3;" />
  <line x1="245" y1="50.0" x2="245" y2="50.0" style="stroke:#999; stroke-width:3;" />
  <line x1="245" y1="50.0" x2="245" y2="50.0" style="stroke:#999; stroke-width:3;" />
  <line x1="245" y1="50.0" x2="265" y2="50.0" style="stroke:#999; stroke-width:3;" />
  <rect class="anc_exon" x="265" y="35.0" width="83" height="30" style="fill:#87bcbc;fill-opacity:1.00" />
  <line x1="348" y1="50.0" x2="368" y2="50.0" style="stroke:#999; stroke-width:3;" />
  <line x1="368" y1="50.0" x2="368" y2="50.0" style="stroke:#999; stroke-width:3;" />
  <line x1="368" y1="50.0" x2="368" y2="50.0" style="stroke:#999; stroke-width:3;" />
  <line x1="368" y1="50.0" x2="388" y2="50.0" style="stroke:#999; stroke-width:3;" />
  <rect class="anc_exon" x="388" y="35.0" width="32" height="30" style="fill:#87bcbc;fill-opacity:1.00" />
  <line x1="420" y1="50.0" x2="440" y2="50.0" style="stroke:#999; stroke-width:3;" />
  <line x1="440" y1="50.0" x2="440" y2="50.0" style="stroke:#999; stroke-width:3;" />
  <line x1="440" y1="50.0" x2="440" y2="50.0" style="stroke:#999; stroke-width:3;" />
  <line x1="440" y1="50.0" x2="460" y2="50.0" style="stroke:#999; stroke-width:3;" />
  <rect class="anc_exon" x="460" y="35.0" width="61" height="30" style="fill:#87bcbc;fill-opacity:1.00" />
  <line x1="521" y1="50.0" x2="541" y2="50.0" style="stroke:#999; stroke-width:3;" />
  <line x1="541" y1="50.0" x2="541" y2="50.0" style="stroke:#999; stroke-width:3;" />
  <line x1="541" y1="50.0" x2="541" y2="50.0" style="stroke:#999; stroke-width:3;" />
  <line x1="541" y1="50.0" x2="561" y2="50.0" style="stroke:#999; stroke-width:3;" />
  <rect class="anc_exon" x="561" y="35.0" width="48" height="30" style="fill:#87bcbc;fill-opacity:1.00" />
  <line x1="609" y1="50.0" x2="629" y2="50.0" style="stroke:#999; stroke-width:3;" />
  <line x1="629" y1="50.0" x2="629" y2="50.0" style="stroke:#999; stroke-width:3;" />
  <line x1="629" y1="50.0" x2="629" y2="50.0" style="stroke:#999; stroke-width:3;" />
  <line x1="629" y1="50.0" x2="649" y2="50.0" style="stroke:#999; stroke-width:3;" />
  <rect class="anc_exon" x="649" y="35.0" width="51" height="30" style="fill:#87bcbc;fill-opacity:1.00" />
  <line x1="700" y1="50.0" x2="720" y2="50.0" style="stroke:#999; stroke-width:3;" />
  <line x1="720" y1="50.0" x2="720" y2="50.0" style="stroke:#999; stroke-width:3;" />
  <line x1="720" y1="50.0" x2="720" y2="50.0" style="stroke:#999; stroke-width:3;" />
  <line x1="720" y1="50.0" x2="740" y2="50.0" style="stroke:#999; stroke-width:3;" />
  <rect class="anc_exon" x="740" y="35.0" width="83" height="30" style="fill:#87bcbc;fill-opacity:1.00" />
  <line x1="823" y1="50.0" x2="843" y2="50.0" style="stroke:#999; stroke-width:3;" />
  <line x1="843" y1="50.0" x2="843" y2="50.0" style="stroke:#999; stroke-width:3;" />
  <line x1="843" y1="50.0" x2="843" y2="50.0" style="stroke:#999; stroke-width:3;" />
  <line x1="843" y1="50.0" x2="863" y2="50.0" style="stroke:#999; stroke-width:3;" />
  <rect class="anc_exon" x="863" y="35.0" width="84" height="30" style="fill:#87bcbc;fill-opacity:1.00" />
  <line x1="947" y1="50.0" x2="967" y2="50.0" style="stroke:#999; stroke-width:3;" />
  <line x1="967" y1="50.0" x2="967" y2="50.0" style="stroke:#999; stroke-width:3;" />
  <line x1="967" y1="50.0" x2="967" y2="50.0" style="stroke:#999; stroke-width:3;" />
  <line x1="967" y1="50.0" x2="987" y2="50.0" style="stroke:#999; stroke-width:3;" />
  <rect class="anc_exon" x="987" y="35.0" width="33" height="30" style="fill:#87bcbc;fill-opacity:1.00" />
  <line x1="1020" y1="50.0" x2="1040" y2="50.0" style="stroke:#999; stroke-width:3;" />
  <line x1="1040" y1="50.0" x2="1040" y2="50.0" style="stroke:#999; stroke-width:3;" />
  <line x1="1040" y1="50.0" x2="1040" y2="50.0" style="stroke:#999; stroke-width:3;" />
  <line x1="1040" y1="50.0" x2="1060" y2="50.0" style="stroke:#999; stroke-width:3;" />
  <rect class="anc_exon" x="1060" y="35.0" width="60" height="30" style="fill:#87bcbc;fill-opacity:1.00" />
  <line x1="1120" y1="50.0" x2="1140" y2="50.0" style="stroke:#999; stroke-width:3;" />
  <line x1="1140" y1="50.0" x2="1140" y2="50.0" style="stroke:#999; stroke-width:3;" />
  <line x1="1140" y1="50.0" x2="1140" y2="50.0" style="stroke:#999; stroke-width:3;" />
  <line x1="1140" y1="50.0" x2="1160" y2="50.0" style="stroke:#999; stroke-width:3;" />
  <rect class="anc_exon" x="1160" y="35.0" width="43" height="30" style="fill:#87bcbc;fill-opacity:1.00" />
  <line x1="1203" y1="50.0" x2="1223" y2="50.0" style="stroke:#999; stroke-width:3;" />
  <line x1="1223" y1="50.0" x2="1223" y2="50.0" style="stroke:#999; stroke-width:3;" />
  <line x1="1223" y1="50.0" x2="1223" y2="50.0" style="stroke:#999; stroke-width:3;" />
  <line x1="1223" y1="50.0" x2="1243" y2="50.0" style="stroke:#999; stroke-width:3;" />
  <rect class="anc_exon" x="1243" y="35.0" width="49" height="30" style="fill:#87bcbc;fill-opacity:1.00" />
  <line x1="1292" y1="50.0" x2="1312" y2="50.0" style="stroke:#999; stroke-width:3;" />
  <line x1="1312" y1="50.0" x2="1312" y2="50.0" style="stroke:#999; stroke-width:3;" />
  <line x1="1312" y1="50.0" x2="1312" y2="50.0" style="stroke:#999; stroke-width:3;" />
  <line x1="1312" y1="50.0" x2="1332" y2="50.0" style="stroke:#999; stroke-width:3;" />
  <rect class="anc_exon" x="1332" y="35.0" width="37" height="30" style="fill:#87bcbc;fill-opacity:1.00" />
  <line x1="1369" y1="50.0" x2="1389" y2="50.0" style="stroke:#999; stroke-width:3;" />
  <line x1="1389" y1="50.0" x2="1389" y2="50.0" style="stroke:#999; stroke-width:3;" />
  <line x1="1389" y1="50.0" x2="1389" y2="50.0" style="stroke:#999; stroke-width:3;" />
  <line x1="1389" y1="50.0" x2="1409" y2="50.0" style="stroke:#999; stroke-width:3;" />
  <rect class="anc_exon" x="1409" y="35.0" width="145" height="30" style="fill:#87bcbc;fill-opacity:1.00" />
  <line x1="1554" y1="50.0" x2="1574" y2="50.0" style="stroke:#999; stroke-width:3;" />
  <line x1="1574" y1="50.0" x2="1574" y2="50.0" style="stroke:#999; stroke-width:3;" />
  <line x1="1574" y1="50.0" x2="1574" y2="50.0" style="stroke:#999; stroke-width:3;" />
  <line x1="1574" y1="50.0" x2="1594" y2="50.0" style="stroke:#999; stroke-width:3;" />
  <rect class="anc_exon" x="1594" y="35.0" width="102" height="30" style="fill:#87bcbc;fill-opacity:1.00" />
  <line x1="1696" y1="50.0" x2="1736" y2="50.0" style="stroke:#999; stroke-width:3;" />
  <rect class="anc_exon" x="1736" y="35.0" width="82" height="30" style="fill:#87bcbc;fill-opacity:1.00" />
  <line x1="1818" y1="50.0" x2="1858" y2="50.0" style="stroke:#999; stroke-width:3;" />
  <rect class="anc_exon" x="1858" y="35.0" width="46" height="30" style="fill:#87bcbc;fill-opacity:1.00" />
  <line x1="1904" y1="50.0" x2="1924" y2="50.0" style="stroke:#999; stroke-width:3;" />
  <line x1="1924" y1="50.0" x2="1924" y2="50.0" style="stroke:#999; stroke-width:3;" />
  <line x1="1924" y1="50.0" x2="1924" y2="50.0" style="stroke:#999; stroke-width:3;" />
  <line x1="1924" y1="50.0" x2="1944" y2="50.0" style="stroke:#999; stroke-width:3;" />
  <rect class="anc_exon" x="1944" y="35.0" width="59" height="30" style="fill:#87bcbc;fill-opacity:1.00" />
  <line x1="2003" y1="50.0" x2="2043" y2="50.0" style="stroke:#999; stroke-width:3;" />
  <rect class="anc_exon" x="2043" y="35.0" width="175" height="30" style="fill:#87bcbc;fill-opacity:1.00" />
  <rect class="anc_exon" x="2218" y="35.0" width="0" height="30" style="fill:#87bcbc;fill-opacity:1.00" />
  <text style="" >
<tspan x="0" y="83.0" style="font-size:18px;" >SP XM_031964965_1.1</tspan>  </text>



<script type="text/ecmascript">
<![CDATA[
function draw_bbox(text_id)
{
    var text_elem = document.getElementById(text_id);
    var offset_px = 2;
    var offset_py = 0;
    bbox = text_elem.getBBox();
    var box = document.createElementNS(document.rootElement.namespaceURI,'rect');
    box.setAttribute('x', bbox.x - offset_px);
    box.setAttribute('y', bbox.y - offset_py);
    box.setAttribute('width', bbox.width + offset_px * 2);
    box.setAttribute('height', bbox.height + offset_py * 2);
    box.setAttribute('style','fill: white;'+'stroke: black;'+'stroke-width: 1px;');
    text_elem.insertBefore(box,text_elem.childNodes[0]);

    var svg = text_elem.parentNode;
    svg.appendChild(text_elem);
}

for (var i=1; i < 1; i++)
{
draw_bbox("Mouseover" + i);
}
]]> 
</script>
</svg>
