<svg version="1.1"
xmlns="http://www.w3.org/2000/svg"
xmlns:xlink="http://www.w3.org/1999/xlink"
width="3878" height="100" viewBox = "0 0 3878 100"
onclick="mouseclick(evt)">

<script type="text/ecmascript">

<![CDATA[
    function mouseover(evt, target) { 
    var gv = document.getElementById("globalVariable");
    var previoustarget = gv.firstChild.nodeValue;
    if (previoustarget != "none") 
    {
        	document.getElementById(gv.firstChild.nodeValue).setAttributeNS(null, "visibility", "hidden");
    }
    document.getElementById(target).setAttributeNS(null, "visibility", "visible");
    gv.firstChild.nodeValue = target;
        }

    function mouseclick(evt) { 
    var gv = document.getElementById("globalVariable");
    var previoustarget = gv.firstChild.nodeValue;
    if (previoustarget != "none") {
        	document.getElementById(gv.firstChild.nodeValue).setAttributeNS(null, "visibility", "hidden");
        }
    }
]]>
  </script>
<style type="text/css" >

<![CDATA[
    rect.anc_exon {
              stroke-width:3;
                  }

    rect.non_anc_exon {
              stroke: black; stroke-width:3; stroke-dasharray: 5,5;
                    }

    text {
              font-size: 18px;
              font-family: Courier New;
          }
                    ]]>
</style>

<defs>
    <text x="150" y="40" id="globalVariable">none</text>
</defs>

  <rect class="anc_exon" x="0" y="35.0" width="0" height="30" style="fill:#87bcbc;fill-opacity:1.00" />
  <rect class="anc_exon" x="0" y="35.0" width="15.200000000000001" height="30" style="fill:#87bcbc;fill-opacity:1.00" />
  <line x1="15.200000000000001" y1="50.0" x2="34.2" y2="50.0" style="stroke:#999; stroke-width:3;" />
  <line x1="34.2" y1="50.0" x2="34.2" y2="50.0" style="stroke:#999; stroke-width:3;" />
  <line x1="34.2" y1="50.0" x2="34.2" y2="50.0" style="stroke:#999; stroke-width:3;" />
  <line x1="34.2" y1="50.0" x2="55.0" y2="50.0" style="stroke:#999; stroke-width:3;" />
  <rect class="anc_exon" x="55" y="35.0" width="33" height="30" style="fill:#87bcbc;fill-opacity:1.00" />
  <line x1="88" y1="50.0" x2="128" y2="50.0" style="stroke:#999; stroke-width:3;" />
  <rect class="anc_exon" x="128" y="35.0" width="72" height="30" style="fill:#87bcbc;fill-opacity:1.00" />
  <line x1="200" y1="50.0" x2="240" y2="50.0" style="stroke:#999; stroke-width:3;" />
  <rect class="anc_exon" x="240" y="35.0" width="48" height="30" style="fill:#87bcbc;fill-opacity:1.00" />
  <line x1="288" y1="50.0" x2="328" y2="50.0" style="stroke:#999; stroke-width:3;" />
  <rect class="anc_exon" x="328" y="35.0" width="40" height="30" style="fill:#87bcbc;fill-opacity:1.00" />
  <line x1="368" y1="50.0" x2="408" y2="50.0" style="stroke:#999; stroke-width:3;" />
  <rect class="anc_exon" x="408" y="35.0" width="116" height="30" style="fill:#87bcbc;fill-opacity:1.00" />
  <line x1="524" y1="50.0" x2="564" y2="50.0" style="stroke:#999; stroke-width:3;" />
  <rect class="anc_exon" x="564" y="35.0" width="62" height="30" style="fill:#87bcbc;fill-opacity:1.00" />
  <line x1="626" y1="50.0" x2="666" y2="50.0" style="stroke:#999; stroke-width:3;" />
  <rect class="anc_exon" x="666" y="35.0" width="96" height="30" style="fill:#87bcbc;fill-opacity:1.00" />
  <line x1="762" y1="50.0" x2="802" y2="50.0" style="stroke:#999; stroke-width:3;" />
  <rect class="anc_exon" x="802" y="35.0" width="113" height="30" style="fill:#87bcbc;fill-opacity:1.00" />
  <line x1="915" y1="50.0" x2="955" y2="50.0" style="stroke:#999; stroke-width:3;" />
  <rect class="anc_exon" x="955" y="35.0" width="107" height="30" style="fill:#87bcbc;fill-opacity:1.00" />
  <line x1="1062" y1="50.0" x2="1102" y2="50.0" style="stroke:#999; stroke-width:3;" />
  <rect class="anc_exon" x="1102" y="35.0" width="82" height="30" style="fill:#87bcbc;fill-opacity:1.00" />
  <line x1="1184" y1="50.0" x2="1224" y2="50.0" style="stroke:#999; stroke-width:3;" />
  <rect class="anc_exon" x="1224" y="35.0" width="364" height="30" style="fill:#87bcbc;fill-opacity:1.00" />
  <line x1="1588" y1="50.0" x2="1628" y2="50.0" style="stroke:#999; stroke-width:3;" />
  <rect class="anc_exon" x="1628" y="35.0" width="79" height="30" style="fill:#87bcbc;fill-opacity:1.00" />
  <line x1="1707" y1="50.0" x2="1747" y2="50.0" style="stroke:#999; stroke-width:3;" />
  <rect class="anc_exon" x="1747" y="35.0" width="80" height="30" style="fill:#87bcbc;fill-opacity:1.00" />
  <line x1="1827" y1="50.0" x2="1867" y2="50.0" style="stroke:#999; stroke-width:3;" />
  <rect class="anc_exon" x="1867" y="35.0" width="47" height="30" style="fill:#87bcbc;fill-opacity:1.00" />
  <line x1="1914" y1="50.0" x2="1954" y2="50.0" style="stroke:#999; stroke-width:3;" />
  <rect class="anc_exon" x="1954" y="35.0" width="124" height="30" style="fill:#87bcbc;fill-opacity:1.00" />
  <line x1="2078" y1="50.0" x2="2118" y2="50.0" style="stroke:#999; stroke-width:3;" />
  <rect class="anc_exon" x="2118" y="35.0" width="80" height="30" style="fill:#87bcbc;fill-opacity:1.00" />
  <line x1="2198" y1="50.0" x2="2238" y2="50.0" style="stroke:#999; stroke-width:3;" />
  <rect class="anc_exon" x="2238" y="35.0" width="165" height="30" style="fill:#87bcbc;fill-opacity:1.00" />
  <line x1="2403" y1="50.0" x2="2443" y2="50.0" style="stroke:#999; stroke-width:3;" />
  <rect class="anc_exon" x="2443" y="35.0" width="86" height="30" style="fill:#87bcbc;fill-opacity:1.00" />
  <line x1="2529" y1="50.0" x2="2569" y2="50.0" style="stroke:#999; stroke-width:3;" />
  <rect class="anc_exon" x="2569" y="35.0" width="112" height="30" style="fill:#87bcbc;fill-opacity:1.00" />
  <line x1="2681" y1="50.0" x2="2721" y2="50.0" style="stroke:#999; stroke-width:3;" />
  <rect class="anc_exon" x="2721" y="35.0" width="95" height="30" style="fill:#87bcbc;fill-opacity:1.00" />
  <line x1="2816" y1="50.0" x2="2856" y2="50.0" style="stroke:#999; stroke-width:3;" />
  <rect class="anc_exon" x="2856" y="35.0" width="98" height="30" style="fill:#87bcbc;fill-opacity:1.00" />
  <line x1="2954" y1="50.0" x2="2994" y2="50.0" style="stroke:#999; stroke-width:3;" />
  <rect class="anc_exon" x="2994" y="35.0" width="148" height="30" style="fill:#87bcbc;fill-opacity:1.00" />
  <line x1="3142" y1="50.0" x2="3182" y2="50.0" style="stroke:#999; stroke-width:3;" />
  <rect class="anc_exon" x="3182" y="35.0" width="141" height="30" style="fill:#87bcbc;fill-opacity:1.00" />
  <line x1="3323" y1="50.0" x2="3363" y2="50.0" style="stroke:#999; stroke-width:3;" />
  <rect class="anc_exon" x="3363" y="35.0" width="110" height="30" style="fill:#87bcbc;fill-opacity:1.00" />
  <line x1="3473" y1="50.0" x2="3513" y2="50.0" style="stroke:#999; stroke-width:3;" />
  <rect class="anc_exon" x="3513" y="35.0" width="94" height="30" style="fill:#87bcbc;fill-opacity:1.00" />
  <line x1="3607" y1="50.0" x2="3647" y2="50.0" style="stroke:#999; stroke-width:3;" />
  <rect class="anc_exon" x="3647" y="35.0" width="88" height="30" style="fill:#87bcbc;fill-opacity:1.00" />
  <line x1="3735" y1="50.0" x2="3775" y2="50.0" style="stroke:#999; stroke-width:3;" />
  <rect class="anc_exon" x="3775" y="35.0" width="67" height="30" style="fill:#87bcbc;fill-opacity:1.00" />
  <rect class="anc_exon" x="3842" y="35.0" width="0" height="30" style="fill:#87bcbc;fill-opacity:1.00" />
  <text style="" >
<tspan x="0" y="83.0" style="font-size:18px;" >SP XM_023502528_2.1</tspan>  </text>



<script type="text/ecmascript">
<![CDATA[
function draw_bbox(text_id)
{
    var text_elem = document.getElementById(text_id);
    var offset_px = 2;
    var offset_py = 0;
    bbox = text_elem.getBBox();
    var box = document.createElementNS(document.rootElement.namespaceURI,'rect');
    box.setAttribute('x', bbox.x - offset_px);
    box.setAttribute('y', bbox.y - offset_py);
    box.setAttribute('width', bbox.width + offset_px * 2);
    box.setAttribute('height', bbox.height + offset_py * 2);
    box.setAttribute('style','fill: white;'+'stroke: black;'+'stroke-width: 1px;');
    text_elem.insertBefore(box,text_elem.childNodes[0]);

    var svg = text_elem.parentNode;
    svg.appendChild(text_elem);
}

for (var i=1; i < 1; i++)
{
draw_bbox("Mouseover" + i);
}
]]> 
</script>
</svg>
