<svg version="1.1"
xmlns="http://www.w3.org/2000/svg"
xmlns:xlink="http://www.w3.org/1999/xlink"
width="7835" height="100" viewBox = "0 0 7835 100"
onclick="mouseclick(evt)">

<script type="text/ecmascript">

<![CDATA[
    function mouseover(evt, target) { 
    var gv = document.getElementById("globalVariable");
    var previoustarget = gv.firstChild.nodeValue;
    if (previoustarget != "none") 
    {
        	document.getElementById(gv.firstChild.nodeValue).setAttributeNS(null, "visibility", "hidden");
    }
    document.getElementById(target).setAttributeNS(null, "visibility", "visible");
    gv.firstChild.nodeValue = target;
        }

    function mouseclick(evt) { 
    var gv = document.getElementById("globalVariable");
    var previoustarget = gv.firstChild.nodeValue;
    if (previoustarget != "none") {
        	document.getElementById(gv.firstChild.nodeValue).setAttributeNS(null, "visibility", "hidden");
        }
    }
]]>
  </script>
<style type="text/css" >

<![CDATA[
    rect.anc_exon {
              stroke-width:3;
                  }

    rect.non_anc_exon {
              stroke: black; stroke-width:3; stroke-dasharray: 5,5;
                    }

    text {
              font-size: 18px;
              font-family: Courier New;
          }
                    ]]>
</style>

<defs>
    <text x="150" y="40" id="globalVariable">none</text>
</defs>

  <rect class="anc_exon" x="0" y="35.0" width="0" height="30" style="fill:#87bcbc;fill-opacity:1.00" />
  <rect class="anc_exon" x="0" y="35.0" width="373.6" height="30" style="fill:#87bcbc;fill-opacity:1.00" />
  <line x1="373.6" y1="50.0" x2="392.6" y2="50.0" style="stroke:#999; stroke-width:3;" />
  <line x1="392.6" y1="50.0" x2="392.6" y2="50.0" style="stroke:#999; stroke-width:3;" />
  <line x1="392.6" y1="50.0" x2="392.6" y2="50.0" style="stroke:#999; stroke-width:3;" />
  <line x1="392.6" y1="50.0" x2="413.0" y2="50.0" style="stroke:#999; stroke-width:3;" />
  <rect class="anc_exon" x="413" y="35.0" width="213" height="30" style="fill:#87bcbc;fill-opacity:1.00" />
  <line x1="626" y1="50.0" x2="646" y2="50.0" style="stroke:#999; stroke-width:3;" />
  <line x1="646" y1="50.0" x2="646" y2="50.0" style="stroke:#999; stroke-width:3;" />
  <line x1="646" y1="50.0" x2="646" y2="50.0" style="stroke:#999; stroke-width:3;" />
  <line x1="646" y1="50.0" x2="666" y2="50.0" style="stroke:#999; stroke-width:3;" />
  <rect class="anc_exon" x="666" y="35.0" width="84" height="30" style="fill:#87bcbc;fill-opacity:1.00" />
  <line x1="750" y1="50.0" x2="790" y2="50.0" style="stroke:#999; stroke-width:3;" />
  <rect class="anc_exon" x="790" y="35.0" width="112" height="30" style="fill:#87bcbc;fill-opacity:1.00" />
  <line x1="902" y1="50.0" x2="922" y2="50.0" style="stroke:#999; stroke-width:3;" />
  <line x1="922" y1="50.0" x2="922" y2="50.0" style="stroke:#999; stroke-width:3;" />
  <line x1="922" y1="50.0" x2="922" y2="50.0" style="stroke:#999; stroke-width:3;" />
  <line x1="922" y1="50.0" x2="942" y2="50.0" style="stroke:#999; stroke-width:3;" />
  <rect class="anc_exon" x="942" y="35.0" width="83" height="30" style="fill:#87bcbc;fill-opacity:1.00" />
  <line x1="1025" y1="50.0" x2="1065" y2="50.0" style="stroke:#999; stroke-width:3;" />
  <rect class="anc_exon" x="1065" y="35.0" width="122" height="30" style="fill:#87bcbc;fill-opacity:1.00" />
  <line x1="1187" y1="50.0" x2="1227" y2="50.0" style="stroke:#999; stroke-width:3;" />
  <rect class="anc_exon" x="1227" y="35.0" width="145" height="30" style="fill:#87bcbc;fill-opacity:1.00" />
  <line x1="1372" y1="50.0" x2="1392" y2="50.0" style="stroke:#999; stroke-width:3;" />
  <line x1="1392" y1="50.0" x2="1392" y2="50.0" style="stroke:#999; stroke-width:3;" />
  <line x1="1392" y1="50.0" x2="1392" y2="50.0" style="stroke:#999; stroke-width:3;" />
  <line x1="1392" y1="50.0" x2="1412" y2="50.0" style="stroke:#999; stroke-width:3;" />
  <rect class="anc_exon" x="1412" y="35.0" width="83" height="30" style="fill:#87bcbc;fill-opacity:1.00" />
  <line x1="1495" y1="50.0" x2="1515" y2="50.0" style="stroke:#999; stroke-width:3;" />
  <line x1="1515" y1="50.0" x2="1515" y2="50.0" style="stroke:#999; stroke-width:3;" />
  <line x1="1515" y1="50.0" x2="1515" y2="50.0" style="stroke:#999; stroke-width:3;" />
  <line x1="1515" y1="50.0" x2="1535" y2="50.0" style="stroke:#999; stroke-width:3;" />
  <rect class="anc_exon" x="1535" y="35.0" width="92" height="30" style="fill:#87bcbc;fill-opacity:1.00" />
  <line x1="1627" y1="50.0" x2="1647" y2="50.0" style="stroke:#999; stroke-width:3;" />
  <line x1="1647" y1="50.0" x2="1647" y2="50.0" style="stroke:#999; stroke-width:3;" />
  <line x1="1647" y1="50.0" x2="1647" y2="50.0" style="stroke:#999; stroke-width:3;" />
  <line x1="1647" y1="50.0" x2="1667" y2="50.0" style="stroke:#999; stroke-width:3;" />
  <rect class="anc_exon" x="1667" y="35.0" width="43" height="30" style="fill:#87bcbc;fill-opacity:1.00" />
  <line x1="1710" y1="50.0" x2="1750" y2="50.0" style="stroke:#999; stroke-width:3;" />
  <rect class="anc_exon" x="1750" y="35.0" width="72" height="30" style="fill:#87bcbc;fill-opacity:1.00" />
  <line x1="1822" y1="50.0" x2="1842" y2="50.0" style="stroke:#999; stroke-width:3;" />
  <line x1="1842" y1="50.0" x2="1842" y2="50.0" style="stroke:#999; stroke-width:3;" />
  <line x1="1842" y1="50.0" x2="1842" y2="50.0" style="stroke:#999; stroke-width:3;" />
  <line x1="1842" y1="50.0" x2="1862" y2="50.0" style="stroke:#999; stroke-width:3;" />
  <rect class="anc_exon" x="1862" y="35.0" width="168" height="30" style="fill:#87bcbc;fill-opacity:1.00" />
  <line x1="2030" y1="50.0" x2="2070" y2="50.0" style="stroke:#999; stroke-width:3;" />
  <rect class="anc_exon" x="2070" y="35.0" width="90" height="30" style="fill:#87bcbc;fill-opacity:1.00" />
  <line x1="2160" y1="50.0" x2="2180" y2="50.0" style="stroke:#999; stroke-width:3;" />
  <line x1="2180" y1="50.0" x2="2180" y2="50.0" style="stroke:#999; stroke-width:3;" />
  <line x1="2180" y1="50.0" x2="2180" y2="50.0" style="stroke:#999; stroke-width:3;" />
  <line x1="2180" y1="50.0" x2="2200" y2="50.0" style="stroke:#999; stroke-width:3;" />
  <rect class="anc_exon" x="2200" y="35.0" width="90" height="30" style="fill:#87bcbc;fill-opacity:1.00" />
  <line x1="2290" y1="50.0" x2="2330" y2="50.0" style="stroke:#999; stroke-width:3;" />
  <rect class="anc_exon" x="2330" y="35.0" width="105" height="30" style="fill:#87bcbc;fill-opacity:1.00" />
  <line x1="2435" y1="50.0" x2="2475" y2="50.0" style="stroke:#999; stroke-width:3;" />
  <rect class="anc_exon" x="2475" y="35.0" width="58" height="30" style="fill:#87bcbc;fill-opacity:1.00" />
  <line x1="2533" y1="50.0" x2="2573" y2="50.0" style="stroke:#999; stroke-width:3;" />
  <rect class="anc_exon" x="2573" y="35.0" width="94" height="30" style="fill:#87bcbc;fill-opacity:1.00" />
  <line x1="2667" y1="50.0" x2="2707" y2="50.0" style="stroke:#999; stroke-width:3;" />
  <rect class="anc_exon" x="2707" y="35.0" width="54" height="30" style="fill:#87bcbc;fill-opacity:1.00" />
  <line x1="2761" y1="50.0" x2="2781" y2="50.0" style="stroke:#999; stroke-width:3;" />
  <line x1="2781" y1="50.0" x2="2781" y2="50.0" style="stroke:#999; stroke-width:3;" />
  <line x1="2781" y1="50.0" x2="2781" y2="50.0" style="stroke:#999; stroke-width:3;" />
  <line x1="2781" y1="50.0" x2="2801" y2="50.0" style="stroke:#999; stroke-width:3;" />
  <rect class="anc_exon" x="2801" y="35.0" width="78" height="30" style="fill:#87bcbc;fill-opacity:1.00" />
  <line x1="2879" y1="50.0" x2="2899" y2="50.0" style="stroke:#999; stroke-width:3;" />
  <line x1="2899" y1="50.0" x2="2899" y2="50.0" style="stroke:#999; stroke-width:3;" />
  <line x1="2899" y1="50.0" x2="2899" y2="50.0" style="stroke:#999; stroke-width:3;" />
  <line x1="2899" y1="50.0" x2="2919" y2="50.0" style="stroke:#999; stroke-width:3;" />
  <rect class="anc_exon" x="2919" y="35.0" width="45" height="30" style="fill:#87bcbc;fill-opacity:1.00" />
  <line x1="2964" y1="50.0" x2="3004" y2="50.0" style="stroke:#999; stroke-width:3;" />
  <rect class="anc_exon" x="3004" y="35.0" width="499" height="30" style="fill:#878787;fill-opacity:1.00" />
  <line x1="3503" y1="50.0" x2="3523" y2="50.0" style="stroke:#999; stroke-width:3;" />
  <line x1="3523" y1="50.0" x2="3523" y2="50.0" style="stroke:#999; stroke-width:3;" />
  <line x1="3523" y1="50.0" x2="3523" y2="50.0" style="stroke:#999; stroke-width:3;" />
  <line x1="3523" y1="50.0" x2="3543" y2="50.0" style="stroke:#999; stroke-width:3;" />
  <rect class="anc_exon" x="3543" y="35.0" width="248" height="30" style="fill:#87bcbc;fill-opacity:1.00" />
  <line x1="3791" y1="50.0" x2="3811" y2="50.0" style="stroke:#999; stroke-width:3;" />
  <line x1="3811" y1="50.0" x2="3811" y2="50.0" style="stroke:#999; stroke-width:3;" />
  <line x1="3811" y1="50.0" x2="3811" y2="50.0" style="stroke:#999; stroke-width:3;" />
  <line x1="3811" y1="50.0" x2="3831" y2="50.0" style="stroke:#999; stroke-width:3;" />
  <rect class="anc_exon" x="3831" y="35.0" width="128" height="30" style="fill:#87bcbc;fill-opacity:1.00" />
  <line x1="3959" y1="50.0" x2="3999" y2="50.0" style="stroke:#999; stroke-width:3;" />
  <rect class="anc_exon" x="3999" y="35.0" width="104" height="30" style="fill:#87bcbc;fill-opacity:1.00" />
  <line x1="4103" y1="50.0" x2="4123" y2="50.0" style="stroke:#999; stroke-width:3;" />
  <line x1="4123" y1="50.0" x2="4123" y2="50.0" style="stroke:#999; stroke-width:3;" />
  <line x1="4123" y1="50.0" x2="4123" y2="50.0" style="stroke:#999; stroke-width:3;" />
  <line x1="4123" y1="50.0" x2="4143" y2="50.0" style="stroke:#999; stroke-width:3;" />
  <rect class="anc_exon" x="4143" y="35.0" width="48" height="30" style="fill:#87bcbc;fill-opacity:1.00" />
  <line x1="4191" y1="50.0" x2="4231" y2="50.0" style="stroke:#999; stroke-width:3;" />
  <rect class="anc_exon" x="4231" y="35.0" width="85" height="30" style="fill:#87bcbc;fill-opacity:1.00" />
  <line x1="4316" y1="50.0" x2="4336" y2="50.0" style="stroke:#999; stroke-width:3;" />
  <line x1="4336" y1="50.0" x2="4336" y2="50.0" style="stroke:#999; stroke-width:3;" />
  <line x1="4336" y1="50.0" x2="4336" y2="50.0" style="stroke:#999; stroke-width:3;" />
  <line x1="4336" y1="50.0" x2="4356" y2="50.0" style="stroke:#999; stroke-width:3;" />
  <rect class="anc_exon" x="4356" y="35.0" width="9" height="30" style="fill:#87bcbc;fill-opacity:1.00" />
  <line x1="4365" y1="50.0" x2="4385" y2="50.0" style="stroke:#999; stroke-width:3;" />
  <line x1="4385" y1="50.0" x2="4385" y2="50.0" style="stroke:#999; stroke-width:3;" />
  <line x1="4385" y1="50.0" x2="4385" y2="50.0" style="stroke:#999; stroke-width:3;" />
  <line x1="4385" y1="50.0" x2="4405" y2="50.0" style="stroke:#999; stroke-width:3;" />
  <rect class="anc_exon" x="4405" y="35.0" width="77" height="30" style="fill:#87bcbc;fill-opacity:1.00" />
  <line x1="4482" y1="50.0" x2="4502" y2="50.0" style="stroke:#999; stroke-width:3;" />
  <line x1="4502" y1="50.0" x2="4502" y2="50.0" style="stroke:#999; stroke-width:3;" />
  <line x1="4502" y1="50.0" x2="4502" y2="50.0" style="stroke:#999; stroke-width:3;" />
  <line x1="4502" y1="50.0" x2="4522" y2="50.0" style="stroke:#999; stroke-width:3;" />
  <rect class="anc_exon" x="4522" y="35.0" width="128" height="30" style="fill:#87bcbc;fill-opacity:1.00" />
  <line x1="4650" y1="50.0" x2="4690" y2="50.0" style="stroke:#999; stroke-width:3;" />
  <rect class="anc_exon" x="4690" y="35.0" width="110" height="30" style="fill:#87bcbc;fill-opacity:1.00" />
  <line x1="4800" y1="50.0" x2="4820" y2="50.0" style="stroke:#999; stroke-width:3;" />
  <line x1="4820" y1="50.0" x2="4820" y2="50.0" style="stroke:#999; stroke-width:3;" />
  <line x1="4820" y1="50.0" x2="4820" y2="50.0" style="stroke:#999; stroke-width:3;" />
  <line x1="4820" y1="50.0" x2="4840" y2="50.0" style="stroke:#999; stroke-width:3;" />
  <rect class="anc_exon" x="4840" y="35.0" width="161" height="30" style="fill:#87bcbc;fill-opacity:1.00" />
  <line x1="5001" y1="50.0" x2="5041" y2="50.0" style="stroke:#999; stroke-width:3;" />
  <rect class="anc_exon" x="5041" y="35.0" width="132" height="30" style="fill:#87bcbc;fill-opacity:1.00" />
  <line x1="5173" y1="50.0" x2="5213" y2="50.0" style="stroke:#999; stroke-width:3;" />
  <rect class="anc_exon" x="5213" y="35.0" width="88" height="30" style="fill:#87bcbc;fill-opacity:1.00" />
  <line x1="5301" y1="50.0" x2="5321" y2="50.0" style="stroke:#999; stroke-width:3;" />
  <line x1="5321" y1="50.0" x2="5321" y2="50.0" style="stroke:#999; stroke-width:3;" />
  <line x1="5321" y1="50.0" x2="5321" y2="50.0" style="stroke:#999; stroke-width:3;" />
  <line x1="5321" y1="50.0" x2="5341" y2="50.0" style="stroke:#999; stroke-width:3;" />
  <rect class="anc_exon" x="5341" y="35.0" width="67" height="30" style="fill:#87bcbc;fill-opacity:1.00" />
  <line x1="5408" y1="50.0" x2="5428" y2="50.0" style="stroke:#999; stroke-width:3;" />
  <line x1="5428" y1="50.0" x2="5428" y2="50.0" style="stroke:#999; stroke-width:3;" />
  <line x1="5428" y1="50.0" x2="5428" y2="50.0" style="stroke:#999; stroke-width:3;" />
  <line x1="5428" y1="50.0" x2="5448" y2="50.0" style="stroke:#999; stroke-width:3;" />
  <rect class="anc_exon" x="5448" y="35.0" width="100" height="30" style="fill:#87bcbc;fill-opacity:1.00" />
  <line x1="5548" y1="50.0" x2="5568" y2="50.0" style="stroke:#999; stroke-width:3;" />
  <line x1="5568" y1="50.0" x2="5568" y2="50.0" style="stroke:#999; stroke-width:3;" />
  <line x1="5568" y1="50.0" x2="5568" y2="50.0" style="stroke:#999; stroke-width:3;" />
  <line x1="5568" y1="50.0" x2="5588" y2="50.0" style="stroke:#999; stroke-width:3;" />
  <rect class="anc_exon" x="5588" y="35.0" width="52" height="30" style="fill:#87bcbc;fill-opacity:1.00" />
  <line x1="5640" y1="50.0" x2="5660" y2="50.0" style="stroke:#999; stroke-width:3;" />
  <line x1="5660" y1="50.0" x2="5660" y2="50.0" style="stroke:#999; stroke-width:3;" />
  <line x1="5660" y1="50.0" x2="5660" y2="50.0" style="stroke:#999; stroke-width:3;" />
  <line x1="5660" y1="50.0" x2="5680" y2="50.0" style="stroke:#999; stroke-width:3;" />
  <rect class="anc_exon" x="5680" y="35.0" width="73" height="30" style="fill:#87bcbc;fill-opacity:1.00" />
  <line x1="5753" y1="50.0" x2="5793" y2="50.0" style="stroke:#999; stroke-width:3;" />
  <rect class="anc_exon" x="5793" y="35.0" width="132" height="30" style="fill:#87bcbc;fill-opacity:1.00" />
  <line x1="5925" y1="50.0" x2="5945" y2="50.0" style="stroke:#999; stroke-width:3;" />
  <line x1="5945" y1="50.0" x2="5945" y2="50.0" style="stroke:#999; stroke-width:3;" />
  <line x1="5945" y1="50.0" x2="5945" y2="50.0" style="stroke:#999; stroke-width:3;" />
  <line x1="5945" y1="50.0" x2="5965" y2="50.0" style="stroke:#999; stroke-width:3;" />
  <rect class="anc_exon" x="5965" y="35.0" width="102" height="30" style="fill:#87bcbc;fill-opacity:1.00" />
  <line x1="6067" y1="50.0" x2="6087" y2="50.0" style="stroke:#999; stroke-width:3;" />
  <line x1="6087" y1="50.0" x2="6087" y2="50.0" style="stroke:#999; stroke-width:3;" />
  <line x1="6087" y1="50.0" x2="6087" y2="50.0" style="stroke:#999; stroke-width:3;" />
  <line x1="6087" y1="50.0" x2="6107" y2="50.0" style="stroke:#999; stroke-width:3;" />
  <rect class="anc_exon" x="6107" y="35.0" width="77" height="30" style="fill:#87bcbc;fill-opacity:1.00" />
  <line x1="6184" y1="50.0" x2="6204" y2="50.0" style="stroke:#999; stroke-width:3;" />
  <line x1="6204" y1="50.0" x2="6204" y2="50.0" style="stroke:#999; stroke-width:3;" />
  <line x1="6204" y1="50.0" x2="6204" y2="50.0" style="stroke:#999; stroke-width:3;" />
  <line x1="6204" y1="50.0" x2="6224" y2="50.0" style="stroke:#999; stroke-width:3;" />
  <rect class="anc_exon" x="6224" y="35.0" width="84" height="30" style="fill:#87bcbc;fill-opacity:1.00" />
  <line x1="6308" y1="50.0" x2="6348" y2="50.0" style="stroke:#999; stroke-width:3;" />
  <rect class="anc_exon" x="6348" y="35.0" width="86" height="30" style="fill:#87bcbc;fill-opacity:1.00" />
  <line x1="6434" y1="50.0" x2="6474" y2="50.0" style="stroke:#999; stroke-width:3;" />
  <rect class="anc_exon" x="6474" y="35.0" width="80" height="30" style="fill:#87bcbc;fill-opacity:1.00" />
  <line x1="6554" y1="50.0" x2="6594" y2="50.0" style="stroke:#999; stroke-width:3;" />
  <rect class="anc_exon" x="6594" y="35.0" width="85" height="30" style="fill:#87bcbc;fill-opacity:1.00" />
  <line x1="6679" y1="50.0" x2="6699" y2="50.0" style="stroke:#999; stroke-width:3;" />
  <line x1="6699" y1="50.0" x2="6699" y2="50.0" style="stroke:#999; stroke-width:3;" />
  <line x1="6699" y1="50.0" x2="6699" y2="50.0" style="stroke:#999; stroke-width:3;" />
  <line x1="6699" y1="50.0" x2="6719" y2="50.0" style="stroke:#999; stroke-width:3;" />
  <rect class="anc_exon" x="6719" y="35.0" width="87" height="30" style="fill:#87bcbc;fill-opacity:1.00" />
  <line x1="6806" y1="50.0" x2="6826" y2="50.0" style="stroke:#999; stroke-width:3;" />
  <line x1="6826" y1="50.0" x2="6826" y2="50.0" style="stroke:#999; stroke-width:3;" />
  <line x1="6826" y1="50.0" x2="6826" y2="50.0" style="stroke:#999; stroke-width:3;" />
  <line x1="6826" y1="50.0" x2="6846" y2="50.0" style="stroke:#999; stroke-width:3;" />
  <rect class="anc_exon" x="6846" y="35.0" width="103" height="30" style="fill:#87bcbc;fill-opacity:1.00" />
  <line x1="6949" y1="50.0" x2="6989" y2="50.0" style="stroke:#999; stroke-width:3;" />
  <rect class="anc_exon" x="6989" y="35.0" width="144" height="30" style="fill:#87bcbc;fill-opacity:1.00" />
  <line x1="7133" y1="50.0" x2="7153" y2="50.0" style="stroke:#999; stroke-width:3;" />
  <line x1="7153" y1="50.0" x2="7153" y2="50.0" style="stroke:#999; stroke-width:3;" />
  <line x1="7153" y1="50.0" x2="7153" y2="50.0" style="stroke:#999; stroke-width:3;" />
  <line x1="7153" y1="50.0" x2="7173" y2="50.0" style="stroke:#999; stroke-width:3;" />
  <rect class="anc_exon" x="7173" y="35.0" width="152" height="30" style="fill:#87bcbc;fill-opacity:1.00" />
  <line x1="7325" y1="50.0" x2="7365" y2="50.0" style="stroke:#999; stroke-width:3;" />
  <rect class="anc_exon" x="7365" y="35.0" width="434" height="30" style="fill:#87bcbc;fill-opacity:1.00" />
  <rect class="anc_exon" x="7799" y="35.0" width="0" height="30" style="fill:#87bcbc;fill-opacity:1.00" />
  <text style="" >
<tspan x="0" y="83.0" style="font-size:18px;" >SP XM_031936988_1.1</tspan>  </text>
  <text style="fill:#121212;" >
<tspan x="626" y="50.0" style="font-size:18px;fill:#121212;" >at</tspan>  </text>
  <text style="fill:#121212;" >
<tspan x="642.96" y="68.0" style="font-size:18px;fill:#121212;" >tc</tspan>  </text>



<script type="text/ecmascript">
<![CDATA[
function draw_bbox(text_id)
{
    var text_elem = document.getElementById(text_id);
    var offset_px = 2;
    var offset_py = 0;
    bbox = text_elem.getBBox();
    var box = document.createElementNS(document.rootElement.namespaceURI,'rect');
    box.setAttribute('x', bbox.x - offset_px);
    box.setAttribute('y', bbox.y - offset_py);
    box.setAttribute('width', bbox.width + offset_px * 2);
    box.setAttribute('height', bbox.height + offset_py * 2);
    box.setAttribute('style','fill: white;'+'stroke: black;'+'stroke-width: 1px;');
    text_elem.insertBefore(box,text_elem.childNodes[0]);

    var svg = text_elem.parentNode;
    svg.appendChild(text_elem);
}

for (var i=1; i < 1; i++)
{
draw_bbox("Mouseover" + i);
}
]]> 
</script>
</svg>
