<svg version="1.1"
xmlns="http://www.w3.org/2000/svg"
xmlns:xlink="http://www.w3.org/1999/xlink"
width="2045" height="100" viewBox = "0 0 2045 100"
onclick="mouseclick(evt)">

<script type="text/ecmascript">

<![CDATA[
    function mouseover(evt, target) { 
    var gv = document.getElementById("globalVariable");
    var previoustarget = gv.firstChild.nodeValue;
    if (previoustarget != "none") 
    {
        	document.getElementById(gv.firstChild.nodeValue).setAttributeNS(null, "visibility", "hidden");
    }
    document.getElementById(target).setAttributeNS(null, "visibility", "visible");
    gv.firstChild.nodeValue = target;
        }

    function mouseclick(evt) { 
    var gv = document.getElementById("globalVariable");
    var previoustarget = gv.firstChild.nodeValue;
    if (previoustarget != "none") {
        	document.getElementById(gv.firstChild.nodeValue).setAttributeNS(null, "visibility", "hidden");
        }
    }
]]>
  </script>
<style type="text/css" >

<![CDATA[
    rect.anc_exon {
              stroke-width:3;
                  }

    rect.non_anc_exon {
              stroke: black; stroke-width:3; stroke-dasharray: 5,5;
                    }

    text {
              font-size: 18px;
              font-family: Courier New;
          }
                    ]]>
</style>

<defs>
    <text x="150" y="40" id="globalVariable">none</text>
</defs>

  <rect class="anc_exon" x="0" y="35.0" width="0" height="30" style="fill:#87bcbc;fill-opacity:1.00" />
  <rect class="anc_exon" x="0" y="35.0" width="36.800000000000004" height="30" style="fill:#87bcbc;fill-opacity:1.00" />
  <line x1="36.800000000000004" y1="50.0" x2="55.800000000000004" y2="50.0" style="stroke:#999; stroke-width:3;" />
  <line x1="55.800000000000004" y1="50.0" x2="55.800000000000004" y2="50.0" style="stroke:#999; stroke-width:3;" />
  <line x1="55.800000000000004" y1="50.0" x2="55.800000000000004" y2="50.0" style="stroke:#999; stroke-width:3;" />
  <line x1="55.800000000000004" y1="50.0" x2="76.0" y2="50.0" style="stroke:#999; stroke-width:3;" />
  <rect class="anc_exon" x="76" y="35.0" width="134" height="30" style="fill:#87bcbc;fill-opacity:1.00" />
  <line x1="210" y1="50.0" x2="230" y2="50.0" style="stroke:#999; stroke-width:3;" />
  <line x1="230" y1="50.0" x2="230" y2="50.0" style="stroke:#999; stroke-width:3;" />
  <line x1="230" y1="50.0" x2="230" y2="50.0" style="stroke:#999; stroke-width:3;" />
  <line x1="230" y1="50.0" x2="250" y2="50.0" style="stroke:#999; stroke-width:3;" />
  <rect class="anc_exon" x="250" y="35.0" width="64" height="30" style="fill:#87bcbc;fill-opacity:1.00" />
  <line x1="314" y1="50.0" x2="334" y2="50.0" style="stroke:#999; stroke-width:3;" />
  <line x1="334" y1="50.0" x2="334" y2="50.0" style="stroke:#999; stroke-width:3;" />
  <line x1="334" y1="50.0" x2="334" y2="50.0" style="stroke:#999; stroke-width:3;" />
  <line x1="334" y1="50.0" x2="354" y2="50.0" style="stroke:#999; stroke-width:3;" />
  <rect class="anc_exon" x="354" y="35.0" width="127" height="30" style="fill:#87bcbc;fill-opacity:1.00" />
  <line x1="481" y1="50.0" x2="501" y2="50.0" style="stroke:#999; stroke-width:3;" />
  <line x1="501" y1="50.0" x2="501" y2="50.0" style="stroke:#999; stroke-width:3;" />
  <line x1="501" y1="50.0" x2="501" y2="50.0" style="stroke:#999; stroke-width:3;" />
  <line x1="501" y1="50.0" x2="521" y2="50.0" style="stroke:#999; stroke-width:3;" />
  <rect class="anc_exon" x="521" y="35.0" width="180" height="30" style="fill:#87bcbc;fill-opacity:1.00" />
  <line x1="701" y1="50.0" x2="721" y2="50.0" style="stroke:#999; stroke-width:3;" />
  <line x1="721" y1="50.0" x2="721" y2="50.0" style="stroke:#999; stroke-width:3;" />
  <line x1="721" y1="50.0" x2="721" y2="50.0" style="stroke:#999; stroke-width:3;" />
  <line x1="721" y1="50.0" x2="741" y2="50.0" style="stroke:#999; stroke-width:3;" />
  <rect class="anc_exon" x="741" y="35.0" width="425" height="30" style="fill:#87bcbc;fill-opacity:1.00" />
  <line x1="1166" y1="50.0" x2="1186" y2="50.0" style="stroke:#999; stroke-width:3;" />
  <line x1="1186" y1="50.0" x2="1186" y2="50.0" style="stroke:#999; stroke-width:3;" />
  <line x1="1186" y1="50.0" x2="1186" y2="50.0" style="stroke:#999; stroke-width:3;" />
  <line x1="1186" y1="50.0" x2="1206" y2="50.0" style="stroke:#999; stroke-width:3;" />
  <rect class="anc_exon" x="1206" y="35.0" width="162" height="30" style="fill:#87bcbc;fill-opacity:1.00" />
  <line x1="1368" y1="50.0" x2="1408" y2="50.0" style="stroke:#999; stroke-width:3;" />
  <rect class="anc_exon" x="1408" y="35.0" width="125" height="30" style="fill:#87bcbc;fill-opacity:1.00" />
  <line x1="1533" y1="50.0" x2="1553" y2="50.0" style="stroke:#999; stroke-width:3;" />
  <line x1="1553" y1="50.0" x2="1553" y2="50.0" style="stroke:#999; stroke-width:3;" />
  <line x1="1553" y1="50.0" x2="1553" y2="50.0" style="stroke:#999; stroke-width:3;" />
  <line x1="1553" y1="50.0" x2="1573" y2="50.0" style="stroke:#999; stroke-width:3;" />
  <rect class="anc_exon" x="1573" y="35.0" width="44" height="30" style="fill:#87bcbc;fill-opacity:1.00" />
  <line x1="1617" y1="50.0" x2="1637" y2="50.0" style="stroke:#999; stroke-width:3;" />
  <line x1="1637" y1="50.0" x2="1637" y2="50.0" style="stroke:#999; stroke-width:3;" />
  <line x1="1637" y1="50.0" x2="1637" y2="50.0" style="stroke:#999; stroke-width:3;" />
  <line x1="1637" y1="50.0" x2="1657" y2="50.0" style="stroke:#999; stroke-width:3;" />
  <rect class="anc_exon" x="1657" y="35.0" width="49" height="30" style="fill:#87bcbc;fill-opacity:1.00" />
  <line x1="1706" y1="50.0" x2="1726" y2="50.0" style="stroke:#999; stroke-width:3;" />
  <line x1="1726" y1="50.0" x2="1726" y2="50.0" style="stroke:#999; stroke-width:3;" />
  <line x1="1726" y1="50.0" x2="1726" y2="50.0" style="stroke:#999; stroke-width:3;" />
  <line x1="1726" y1="50.0" x2="1746" y2="50.0" style="stroke:#999; stroke-width:3;" />
  <rect class="anc_exon" x="1746" y="35.0" width="110" height="30" style="fill:#87bcbc;fill-opacity:1.00" />
  <line x1="1856" y1="50.0" x2="1876" y2="50.0" style="stroke:#999; stroke-width:3;" />
  <line x1="1876" y1="50.0" x2="1876" y2="50.0" style="stroke:#999; stroke-width:3;" />
  <line x1="1876" y1="50.0" x2="1876" y2="50.0" style="stroke:#999; stroke-width:3;" />
  <line x1="1876" y1="50.0" x2="1896" y2="50.0" style="stroke:#999; stroke-width:3;" />
  <rect class="anc_exon" x="1896" y="35.0" width="61" height="30" style="fill:#87bcbc;fill-opacity:1.00" />
  <line x1="1957" y1="50.0" x2="1977" y2="50.0" style="stroke:#999; stroke-width:3;" />
  <line x1="1977" y1="50.0" x2="1977" y2="50.0" style="stroke:#999; stroke-width:3;" />
  <line x1="1977" y1="50.0" x2="1977" y2="50.0" style="stroke:#999; stroke-width:3;" />
  <line x1="1977" y1="50.0" x2="1997" y2="50.0" style="stroke:#999; stroke-width:3;" />
  <rect class="anc_exon" x="1997" y="35.0" width="12" height="30" style="fill:#87bcbc;fill-opacity:1.00" />
  <rect class="anc_exon" x="2009" y="35.0" width="0" height="30" style="fill:#87bcbc;fill-opacity:1.00" />
  <text style="" >
<tspan x="0" y="83.0" style="font-size:18px;" >SP XM_031937681_1.1</tspan>  </text>



<script type="text/ecmascript">
<![CDATA[
function draw_bbox(text_id)
{
    var text_elem = document.getElementById(text_id);
    var offset_px = 2;
    var offset_py = 0;
    bbox = text_elem.getBBox();
    var box = document.createElementNS(document.rootElement.namespaceURI,'rect');
    box.setAttribute('x', bbox.x - offset_px);
    box.setAttribute('y', bbox.y - offset_py);
    box.setAttribute('width', bbox.width + offset_px * 2);
    box.setAttribute('height', bbox.height + offset_py * 2);
    box.setAttribute('style','fill: white;'+'stroke: black;'+'stroke-width: 1px;');
    text_elem.insertBefore(box,text_elem.childNodes[0]);

    var svg = text_elem.parentNode;
    svg.appendChild(text_elem);
}

for (var i=1; i < 1; i++)
{
draw_bbox("Mouseover" + i);
}
]]> 
</script>
</svg>
