<svg version="1.1"
xmlns="http://www.w3.org/2000/svg"
xmlns:xlink="http://www.w3.org/1999/xlink"
width="2669" height="100" viewBox = "0 0 2669 100"
onclick="mouseclick(evt)">

<script type="text/ecmascript">

<![CDATA[
    function mouseover(evt, target) { 
    var gv = document.getElementById("globalVariable");
    var previoustarget = gv.firstChild.nodeValue;
    if (previoustarget != "none") 
    {
        	document.getElementById(gv.firstChild.nodeValue).setAttributeNS(null, "visibility", "hidden");
    }
    document.getElementById(target).setAttributeNS(null, "visibility", "visible");
    gv.firstChild.nodeValue = target;
        }

    function mouseclick(evt) { 
    var gv = document.getElementById("globalVariable");
    var previoustarget = gv.firstChild.nodeValue;
    if (previoustarget != "none") {
        	document.getElementById(gv.firstChild.nodeValue).setAttributeNS(null, "visibility", "hidden");
        }
    }
]]>
  </script>
<style type="text/css" >

<![CDATA[
    rect.anc_exon {
              stroke-width:3;
                  }

    rect.non_anc_exon {
              stroke: black; stroke-width:3; stroke-dasharray: 5,5;
                    }

    text {
              font-size: 18px;
              font-family: Courier New;
          }
                    ]]>
</style>

<defs>
    <text x="150" y="40" id="globalVariable">none</text>
</defs>

  <rect class="anc_exon" x="0" y="35.0" width="0" height="30" style="fill:#87bcbc;fill-opacity:1.00" />
  <rect class="anc_exon" x="0" y="35.0" width="81.60000000000001" height="30" style="fill:#87bcbc;fill-opacity:1.00" />
  <line x1="81.60000000000001" y1="50.0" x2="121.0" y2="50.0" style="stroke:#999; stroke-width:3;" />
  <rect class="anc_exon" x="121" y="35.0" width="53" height="30" style="fill:#87bcbc;fill-opacity:1.00" />
  <line x1="174" y1="50.0" x2="214" y2="50.0" style="stroke:#999; stroke-width:3;" />
  <rect class="anc_exon" x="214" y="35.0" width="173" height="30" style="fill:#87bcbc;fill-opacity:1.00" />
  <line x1="387" y1="50.0" x2="427" y2="50.0" style="stroke:#999; stroke-width:3;" />
  <rect class="anc_exon" x="427" y="35.0" width="243" height="30" style="fill:#87bcbc;fill-opacity:1.00" />
  <line x1="670" y1="50.0" x2="690" y2="50.0" style="stroke:#999; stroke-width:3;" />
  <line x1="690" y1="50.0" x2="690" y2="50.0" style="stroke:#999; stroke-width:3;" />
  <line x1="690" y1="50.0" x2="690" y2="50.0" style="stroke:#999; stroke-width:3;" />
  <line x1="690" y1="50.0" x2="710" y2="50.0" style="stroke:#999; stroke-width:3;" />
  <rect class="anc_exon" x="710" y="35.0" width="131" height="30" style="fill:#87bcbc;fill-opacity:1.00" />
  <line x1="841" y1="50.0" x2="881" y2="50.0" style="stroke:#999; stroke-width:3;" />
  <rect class="anc_exon" x="881" y="35.0" width="108" height="30" style="fill:#87bcbc;fill-opacity:1.00" />
  <line x1="989" y1="50.0" x2="1029" y2="50.0" style="stroke:#999; stroke-width:3;" />
  <rect class="anc_exon" x="1029" y="35.0" width="88" height="30" style="fill:#87bcbc;fill-opacity:1.00" />
  <line x1="1117" y1="50.0" x2="1157" y2="50.0" style="stroke:#999; stroke-width:3;" />
  <rect class="anc_exon" x="1157" y="35.0" width="120" height="30" style="fill:#87bcbc;fill-opacity:1.00" />
  <line x1="1277" y1="50.0" x2="1297" y2="50.0" style="stroke:#999; stroke-width:3;" />
  <line x1="1297" y1="50.0" x2="1297" y2="50.0" style="stroke:#999; stroke-width:3;" />
  <line x1="1297" y1="50.0" x2="1297" y2="50.0" style="stroke:#999; stroke-width:3;" />
  <line x1="1297" y1="50.0" x2="1317" y2="50.0" style="stroke:#999; stroke-width:3;" />
  <rect class="anc_exon" x="1317" y="35.0" width="88" height="30" style="fill:#87bcbc;fill-opacity:1.00" />
  <line x1="1405" y1="50.0" x2="1445" y2="50.0" style="stroke:#999; stroke-width:3;" />
  <rect class="anc_exon" x="1445" y="35.0" width="85" height="30" style="fill:#87bcbc;fill-opacity:1.00" />
  <line x1="1530" y1="50.0" x2="1570" y2="50.0" style="stroke:#999; stroke-width:3;" />
  <rect class="anc_exon" x="1570" y="35.0" width="90" height="30" style="fill:#87bcbc;fill-opacity:1.00" />
  <line x1="1660" y1="50.0" x2="1700" y2="50.0" style="stroke:#999; stroke-width:3;" />
  <rect class="anc_exon" x="1700" y="35.0" width="39" height="30" style="fill:#87bcbc;fill-opacity:1.00" />
  <line x1="1739" y1="50.0" x2="1779" y2="50.0" style="stroke:#999; stroke-width:3;" />
  <rect class="anc_exon" x="1779" y="35.0" width="107" height="30" style="fill:#87bcbc;fill-opacity:1.00" />
  <line x1="1886" y1="50.0" x2="1926" y2="50.0" style="stroke:#999; stroke-width:3;" />
  <rect class="anc_exon" x="1926" y="35.0" width="151" height="30" style="fill:#87bcbc;fill-opacity:1.00" />
  <line x1="2077" y1="50.0" x2="2117" y2="50.0" style="stroke:#999; stroke-width:3;" />
  <rect class="anc_exon" x="2117" y="35.0" width="81" height="30" style="fill:#87bcbc;fill-opacity:1.00" />
  <line x1="2198" y1="50.0" x2="2238" y2="50.0" style="stroke:#999; stroke-width:3;" />
  <rect class="anc_exon" x="2238" y="35.0" width="121" height="30" style="fill:#87bcbc;fill-opacity:1.00" />
  <line x1="2359" y1="50.0" x2="2399" y2="50.0" style="stroke:#999; stroke-width:3;" />
  <rect class="anc_exon" x="2399" y="35.0" width="99" height="30" style="fill:#87bcbc;fill-opacity:1.00" />
  <line x1="2498" y1="50.0" x2="2538" y2="50.0" style="stroke:#999; stroke-width:3;" />
  <rect class="anc_exon" x="2538" y="35.0" width="95" height="30" style="fill:#87bcbc;fill-opacity:1.00" />
  <rect class="anc_exon" x="2633" y="35.0" width="0" height="30" style="fill:#87bcbc;fill-opacity:1.00" />
  <text style="" >
<tspan x="0" y="83.0" style="font-size:18px;" >SP XM_031965191_1.1</tspan>  </text>



<script type="text/ecmascript">
<![CDATA[
function draw_bbox(text_id)
{
    var text_elem = document.getElementById(text_id);
    var offset_px = 2;
    var offset_py = 0;
    bbox = text_elem.getBBox();
    var box = document.createElementNS(document.rootElement.namespaceURI,'rect');
    box.setAttribute('x', bbox.x - offset_px);
    box.setAttribute('y', bbox.y - offset_py);
    box.setAttribute('width', bbox.width + offset_px * 2);
    box.setAttribute('height', bbox.height + offset_py * 2);
    box.setAttribute('style','fill: white;'+'stroke: black;'+'stroke-width: 1px;');
    text_elem.insertBefore(box,text_elem.childNodes[0]);

    var svg = text_elem.parentNode;
    svg.appendChild(text_elem);
}

for (var i=1; i < 1; i++)
{
draw_bbox("Mouseover" + i);
}
]]> 
</script>
</svg>
