<svg version="1.1"
xmlns="http://www.w3.org/2000/svg"
xmlns:xlink="http://www.w3.org/1999/xlink"
width="4384" height="100" viewBox = "0 0 4384 100"
onclick="mouseclick(evt)">

<script type="text/ecmascript">

<![CDATA[
    function mouseover(evt, target) { 
    var gv = document.getElementById("globalVariable");
    var previoustarget = gv.firstChild.nodeValue;
    if (previoustarget != "none") 
    {
        	document.getElementById(gv.firstChild.nodeValue).setAttributeNS(null, "visibility", "hidden");
    }
    document.getElementById(target).setAttributeNS(null, "visibility", "visible");
    gv.firstChild.nodeValue = target;
        }

    function mouseclick(evt) { 
    var gv = document.getElementById("globalVariable");
    var previoustarget = gv.firstChild.nodeValue;
    if (previoustarget != "none") {
        	document.getElementById(gv.firstChild.nodeValue).setAttributeNS(null, "visibility", "hidden");
        }
    }
]]>
  </script>
<style type="text/css" >

<![CDATA[
    rect.anc_exon {
              stroke-width:3;
                  }

    rect.non_anc_exon {
              stroke: black; stroke-width:3; stroke-dasharray: 5,5;
                    }

    text {
              font-size: 18px;
              font-family: Courier New;
          }
                    ]]>
</style>

<defs>
    <text x="150" y="40" id="globalVariable">none</text>
</defs>

  <rect class="anc_exon" x="0" y="35.0" width="0" height="30" style="fill:#87bcbc;fill-opacity:1.00" />
  <rect class="anc_exon" x="0" y="35.0" width="58.400000000000006" height="30" style="fill:#87bcbc;fill-opacity:1.00" />
  <line x1="58.400000000000006" y1="50.0" x2="77.4" y2="50.0" style="stroke:#999; stroke-width:3;" />
  <line x1="77.4" y1="50.0" x2="77.4" y2="50.0" style="stroke:#999; stroke-width:3;" />
  <line x1="77.4" y1="50.0" x2="77.4" y2="50.0" style="stroke:#999; stroke-width:3;" />
  <line x1="77.4" y1="50.0" x2="98.0" y2="50.0" style="stroke:#999; stroke-width:3;" />
  <rect class="anc_exon" x="98" y="35.0" width="171" height="30" style="fill:#87bcbc;fill-opacity:1.00" />
  <line x1="269" y1="50.0" x2="289" y2="50.0" style="stroke:#999; stroke-width:3;" />
  <line x1="289" y1="50.0" x2="289" y2="50.0" style="stroke:#999; stroke-width:3;" />
  <line x1="289" y1="50.0" x2="289" y2="50.0" style="stroke:#999; stroke-width:3;" />
  <line x1="289" y1="50.0" x2="309" y2="50.0" style="stroke:#999; stroke-width:3;" />
  <rect class="anc_exon" x="309" y="35.0" width="88" height="30" style="fill:#87bcbc;fill-opacity:1.00" />
  <line x1="397" y1="50.0" x2="417" y2="50.0" style="stroke:#999; stroke-width:3;" />
  <line x1="417" y1="50.0" x2="417" y2="50.0" style="stroke:#999; stroke-width:3;" />
  <line x1="417" y1="50.0" x2="417" y2="50.0" style="stroke:#999; stroke-width:3;" />
  <line x1="417" y1="50.0" x2="437" y2="50.0" style="stroke:#999; stroke-width:3;" />
  <rect class="anc_exon" x="437" y="35.0" width="12" height="30" style="fill:#87bcbc;fill-opacity:1.00" />
  <line x1="449" y1="50.0" x2="489" y2="50.0" style="stroke:#999; stroke-width:3;" />
  <rect class="anc_exon" x="489" y="35.0" width="640" height="30" style="fill:#87bcbc;fill-opacity:1.00" />
  <line x1="1129" y1="50.0" x2="1149" y2="50.0" style="stroke:#999; stroke-width:3;" />
  <line x1="1149" y1="50.0" x2="1149" y2="50.0" style="stroke:#999; stroke-width:3;" />
  <line x1="1149" y1="50.0" x2="1149" y2="50.0" style="stroke:#999; stroke-width:3;" />
  <line x1="1149" y1="50.0" x2="1169" y2="50.0" style="stroke:#999; stroke-width:3;" />
  <rect class="anc_exon" x="1169" y="35.0" width="237" height="30" style="fill:#87bcbc;fill-opacity:1.00" />
  <line x1="1406" y1="50.0" x2="1446" y2="50.0" style="stroke:#999; stroke-width:3;" />
  <rect class="anc_exon" x="1446" y="35.0" width="83" height="30" style="fill:#87bcbc;fill-opacity:1.00" />
  <line x1="1529" y1="50.0" x2="1569" y2="50.0" style="stroke:#999; stroke-width:3;" />
  <rect class="anc_exon" x="1569" y="35.0" width="148" height="30" style="fill:#87bcbc;fill-opacity:1.00" />
  <line x1="1717" y1="50.0" x2="1757" y2="50.0" style="stroke:#999; stroke-width:3;" />
  <rect class="anc_exon" x="1757" y="35.0" width="31" height="30" style="fill:#87bcbc;fill-opacity:1.00" />
  <line x1="1788" y1="50.0" x2="1808" y2="50.0" style="stroke:#999; stroke-width:3;" />
  <line x1="1808" y1="50.0" x2="1808" y2="50.0" style="stroke:#999; stroke-width:3;" />
  <line x1="1808" y1="50.0" x2="1808" y2="50.0" style="stroke:#999; stroke-width:3;" />
  <line x1="1808" y1="50.0" x2="1828" y2="50.0" style="stroke:#999; stroke-width:3;" />
  <rect class="anc_exon" x="1828" y="35.0" width="147" height="30" style="fill:#87bcbc;fill-opacity:1.00" />
  <line x1="1975" y1="50.0" x2="1995" y2="50.0" style="stroke:#999; stroke-width:3;" />
  <line x1="1995" y1="50.0" x2="1995" y2="50.0" style="stroke:#999; stroke-width:3;" />
  <line x1="1995" y1="50.0" x2="1995" y2="50.0" style="stroke:#999; stroke-width:3;" />
  <line x1="1995" y1="50.0" x2="2015" y2="50.0" style="stroke:#999; stroke-width:3;" />
  <rect class="anc_exon" x="2015" y="35.0" width="98" height="30" style="fill:#87bcbc;fill-opacity:1.00" />
  <line x1="2113" y1="50.0" x2="2153" y2="50.0" style="stroke:#999; stroke-width:3;" />
  <rect class="anc_exon" x="2153" y="35.0" width="164" height="30" style="fill:#87bcbc;fill-opacity:1.00" />
  <line x1="2317" y1="50.0" x2="2357" y2="50.0" style="stroke:#999; stroke-width:3;" />
  <rect class="anc_exon" x="2357" y="35.0" width="139" height="30" style="fill:#87bcbc;fill-opacity:1.00" />
  <line x1="2496" y1="50.0" x2="2536" y2="50.0" style="stroke:#999; stroke-width:3;" />
  <rect class="anc_exon" x="2536" y="35.0" width="168" height="30" style="fill:#87bcbc;fill-opacity:1.00" />
  <line x1="2704" y1="50.0" x2="2744" y2="50.0" style="stroke:#999; stroke-width:3;" />
  <rect class="anc_exon" x="2744" y="35.0" width="176" height="30" style="fill:#87bcbc;fill-opacity:1.00" />
  <line x1="2920" y1="50.0" x2="2960" y2="50.0" style="stroke:#999; stroke-width:3;" />
  <rect class="anc_exon" x="2960" y="35.0" width="53" height="30" style="fill:#87bcbc;fill-opacity:1.00" />
  <line x1="3013" y1="50.0" x2="3033" y2="50.0" style="stroke:#999; stroke-width:3;" />
  <line x1="3033" y1="50.0" x2="3033" y2="50.0" style="stroke:#999; stroke-width:3;" />
  <line x1="3033" y1="50.0" x2="3033" y2="50.0" style="stroke:#999; stroke-width:3;" />
  <line x1="3033" y1="50.0" x2="3053" y2="50.0" style="stroke:#999; stroke-width:3;" />
  <rect class="anc_exon" x="3053" y="35.0" width="73" height="30" style="fill:#87bcbc;fill-opacity:1.00" />
  <line x1="3126" y1="50.0" x2="3166" y2="50.0" style="stroke:#999; stroke-width:3;" />
  <rect class="anc_exon" x="3166" y="35.0" width="135" height="30" style="fill:#87bcbc;fill-opacity:1.00" />
  <line x1="3301" y1="50.0" x2="3321" y2="50.0" style="stroke:#999; stroke-width:3;" />
  <line x1="3321" y1="50.0" x2="3321" y2="50.0" style="stroke:#999; stroke-width:3;" />
  <line x1="3321" y1="50.0" x2="3321" y2="50.0" style="stroke:#999; stroke-width:3;" />
  <line x1="3321" y1="50.0" x2="3341" y2="50.0" style="stroke:#999; stroke-width:3;" />
  <rect class="anc_exon" x="3341" y="35.0" width="103" height="30" style="fill:#87bcbc;fill-opacity:1.00" />
  <line x1="3444" y1="50.0" x2="3484" y2="50.0" style="stroke:#999; stroke-width:3;" />
  <rect class="anc_exon" x="3484" y="35.0" width="77" height="30" style="fill:#87bcbc;fill-opacity:1.00" />
  <line x1="3561" y1="50.0" x2="3581" y2="50.0" style="stroke:#999; stroke-width:3;" />
  <line x1="3581" y1="50.0" x2="3581" y2="50.0" style="stroke:#999; stroke-width:3;" />
  <line x1="3581" y1="50.0" x2="3581" y2="50.0" style="stroke:#999; stroke-width:3;" />
  <line x1="3581" y1="50.0" x2="3601" y2="50.0" style="stroke:#999; stroke-width:3;" />
  <rect class="anc_exon" x="3601" y="35.0" width="103" height="30" style="fill:#87bcbc;fill-opacity:1.00" />
  <line x1="3704" y1="50.0" x2="3724" y2="50.0" style="stroke:#999; stroke-width:3;" />
  <line x1="3724" y1="50.0" x2="3724" y2="50.0" style="stroke:#999; stroke-width:3;" />
  <line x1="3724" y1="50.0" x2="3724" y2="50.0" style="stroke:#999; stroke-width:3;" />
  <line x1="3724" y1="50.0" x2="3744" y2="50.0" style="stroke:#999; stroke-width:3;" />
  <rect class="anc_exon" x="3744" y="35.0" width="604" height="30" style="fill:#87bcbc;fill-opacity:1.00" />
  <rect class="anc_exon" x="4348" y="35.0" width="0" height="30" style="fill:#87bcbc;fill-opacity:1.00" />
  <text style="" >
<tspan x="0" y="83.0" style="font-size:18px;" >SP XM_031936763_1.1</tspan>  </text>



<script type="text/ecmascript">
<![CDATA[
function draw_bbox(text_id)
{
    var text_elem = document.getElementById(text_id);
    var offset_px = 2;
    var offset_py = 0;
    bbox = text_elem.getBBox();
    var box = document.createElementNS(document.rootElement.namespaceURI,'rect');
    box.setAttribute('x', bbox.x - offset_px);
    box.setAttribute('y', bbox.y - offset_py);
    box.setAttribute('width', bbox.width + offset_px * 2);
    box.setAttribute('height', bbox.height + offset_py * 2);
    box.setAttribute('style','fill: white;'+'stroke: black;'+'stroke-width: 1px;');
    text_elem.insertBefore(box,text_elem.childNodes[0]);

    var svg = text_elem.parentNode;
    svg.appendChild(text_elem);
}

for (var i=1; i < 1; i++)
{
draw_bbox("Mouseover" + i);
}
]]> 
</script>
</svg>
