<svg version="1.1"
xmlns="http://www.w3.org/2000/svg"
xmlns:xlink="http://www.w3.org/1999/xlink"
width="2543" height="100" viewBox = "0 0 2543 100"
onclick="mouseclick(evt)">

<script type="text/ecmascript">

<![CDATA[
    function mouseover(evt, target) { 
    var gv = document.getElementById("globalVariable");
    var previoustarget = gv.firstChild.nodeValue;
    if (previoustarget != "none") 
    {
        	document.getElementById(gv.firstChild.nodeValue).setAttributeNS(null, "visibility", "hidden");
    }
    document.getElementById(target).setAttributeNS(null, "visibility", "visible");
    gv.firstChild.nodeValue = target;
        }

    function mouseclick(evt) { 
    var gv = document.getElementById("globalVariable");
    var previoustarget = gv.firstChild.nodeValue;
    if (previoustarget != "none") {
        	document.getElementById(gv.firstChild.nodeValue).setAttributeNS(null, "visibility", "hidden");
        }
    }
]]>
  </script>
<style type="text/css" >

<![CDATA[
    rect.anc_exon {
              stroke-width:3;
                  }

    rect.non_anc_exon {
              stroke: black; stroke-width:3; stroke-dasharray: 5,5;
                    }

    text {
              font-size: 18px;
              font-family: Courier New;
          }
                    ]]>
</style>

<defs>
    <text x="150" y="40" id="globalVariable">none</text>
</defs>

  <rect class="anc_exon" x="0" y="35.0" width="0" height="30" style="fill:#87bcbc;fill-opacity:1.00" />
  <rect class="anc_exon" x="0" y="35.0" width="48.800000000000004" height="30" style="fill:#87bcbc;fill-opacity:1.00" />
  <line x1="48.800000000000004" y1="50.0" x2="88.0" y2="50.0" style="stroke:#999; stroke-width:3;" />
  <rect class="anc_exon" x="88" y="35.0" width="173" height="30" style="fill:#87bcbc;fill-opacity:1.00" />
  <line x1="261" y1="50.0" x2="301" y2="50.0" style="stroke:#999; stroke-width:3;" />
  <rect class="anc_exon" x="301" y="35.0" width="243" height="30" style="fill:#87bcbc;fill-opacity:1.00" />
  <line x1="544" y1="50.0" x2="564" y2="50.0" style="stroke:#999; stroke-width:3;" />
  <line x1="564" y1="50.0" x2="564" y2="50.0" style="stroke:#999; stroke-width:3;" />
  <line x1="564" y1="50.0" x2="564" y2="50.0" style="stroke:#999; stroke-width:3;" />
  <line x1="564" y1="50.0" x2="584" y2="50.0" style="stroke:#999; stroke-width:3;" />
  <rect class="anc_exon" x="584" y="35.0" width="131" height="30" style="fill:#87bcbc;fill-opacity:1.00" />
  <line x1="715" y1="50.0" x2="755" y2="50.0" style="stroke:#999; stroke-width:3;" />
  <rect class="anc_exon" x="755" y="35.0" width="108" height="30" style="fill:#87bcbc;fill-opacity:1.00" />
  <line x1="863" y1="50.0" x2="903" y2="50.0" style="stroke:#999; stroke-width:3;" />
  <rect class="anc_exon" x="903" y="35.0" width="88" height="30" style="fill:#87bcbc;fill-opacity:1.00" />
  <line x1="991" y1="50.0" x2="1031" y2="50.0" style="stroke:#999; stroke-width:3;" />
  <rect class="anc_exon" x="1031" y="35.0" width="120" height="30" style="fill:#87bcbc;fill-opacity:1.00" />
  <line x1="1151" y1="50.0" x2="1171" y2="50.0" style="stroke:#999; stroke-width:3;" />
  <line x1="1171" y1="50.0" x2="1171" y2="50.0" style="stroke:#999; stroke-width:3;" />
  <line x1="1171" y1="50.0" x2="1171" y2="50.0" style="stroke:#999; stroke-width:3;" />
  <line x1="1171" y1="50.0" x2="1191" y2="50.0" style="stroke:#999; stroke-width:3;" />
  <rect class="anc_exon" x="1191" y="35.0" width="88" height="30" style="fill:#87bcbc;fill-opacity:1.00" />
  <line x1="1279" y1="50.0" x2="1319" y2="50.0" style="stroke:#999; stroke-width:3;" />
  <rect class="anc_exon" x="1319" y="35.0" width="85" height="30" style="fill:#87bcbc;fill-opacity:1.00" />
  <line x1="1404" y1="50.0" x2="1444" y2="50.0" style="stroke:#999; stroke-width:3;" />
  <rect class="anc_exon" x="1444" y="35.0" width="90" height="30" style="fill:#87bcbc;fill-opacity:1.00" />
  <line x1="1534" y1="50.0" x2="1574" y2="50.0" style="stroke:#999; stroke-width:3;" />
  <rect class="anc_exon" x="1574" y="35.0" width="39" height="30" style="fill:#87bcbc;fill-opacity:1.00" />
  <line x1="1613" y1="50.0" x2="1653" y2="50.0" style="stroke:#999; stroke-width:3;" />
  <rect class="anc_exon" x="1653" y="35.0" width="107" height="30" style="fill:#87bcbc;fill-opacity:1.00" />
  <line x1="1760" y1="50.0" x2="1800" y2="50.0" style="stroke:#999; stroke-width:3;" />
  <rect class="anc_exon" x="1800" y="35.0" width="151" height="30" style="fill:#87bcbc;fill-opacity:1.00" />
  <line x1="1951" y1="50.0" x2="1991" y2="50.0" style="stroke:#999; stroke-width:3;" />
  <rect class="anc_exon" x="1991" y="35.0" width="81" height="30" style="fill:#87bcbc;fill-opacity:1.00" />
  <line x1="2072" y1="50.0" x2="2112" y2="50.0" style="stroke:#999; stroke-width:3;" />
  <rect class="anc_exon" x="2112" y="35.0" width="121" height="30" style="fill:#87bcbc;fill-opacity:1.00" />
  <line x1="2233" y1="50.0" x2="2273" y2="50.0" style="stroke:#999; stroke-width:3;" />
  <rect class="anc_exon" x="2273" y="35.0" width="99" height="30" style="fill:#87bcbc;fill-opacity:1.00" />
  <line x1="2372" y1="50.0" x2="2412" y2="50.0" style="stroke:#999; stroke-width:3;" />
  <rect class="anc_exon" x="2412" y="35.0" width="95" height="30" style="fill:#87bcbc;fill-opacity:1.00" />
  <rect class="anc_exon" x="2507" y="35.0" width="0" height="30" style="fill:#87bcbc;fill-opacity:1.00" />
  <text style="" >
<tspan x="0" y="83.0" style="font-size:18px;" >SP XM_031965194_1.1</tspan>  </text>



<script type="text/ecmascript">
<![CDATA[
function draw_bbox(text_id)
{
    var text_elem = document.getElementById(text_id);
    var offset_px = 2;
    var offset_py = 0;
    bbox = text_elem.getBBox();
    var box = document.createElementNS(document.rootElement.namespaceURI,'rect');
    box.setAttribute('x', bbox.x - offset_px);
    box.setAttribute('y', bbox.y - offset_py);
    box.setAttribute('width', bbox.width + offset_px * 2);
    box.setAttribute('height', bbox.height + offset_py * 2);
    box.setAttribute('style','fill: white;'+'stroke: black;'+'stroke-width: 1px;');
    text_elem.insertBefore(box,text_elem.childNodes[0]);

    var svg = text_elem.parentNode;
    svg.appendChild(text_elem);
}

for (var i=1; i < 1; i++)
{
draw_bbox("Mouseover" + i);
}
]]> 
</script>
</svg>
