<svg version="1.1"
xmlns="http://www.w3.org/2000/svg"
xmlns:xlink="http://www.w3.org/1999/xlink"
width="1942" height="100" viewBox = "0 0 1942 100"
onclick="mouseclick(evt)">

<script type="text/ecmascript">

<![CDATA[
    function mouseover(evt, target) { 
    var gv = document.getElementById("globalVariable");
    var previoustarget = gv.firstChild.nodeValue;
    if (previoustarget != "none") 
    {
        	document.getElementById(gv.firstChild.nodeValue).setAttributeNS(null, "visibility", "hidden");
    }
    document.getElementById(target).setAttributeNS(null, "visibility", "visible");
    gv.firstChild.nodeValue = target;
        }

    function mouseclick(evt) { 
    var gv = document.getElementById("globalVariable");
    var previoustarget = gv.firstChild.nodeValue;
    if (previoustarget != "none") {
        	document.getElementById(gv.firstChild.nodeValue).setAttributeNS(null, "visibility", "hidden");
        }
    }
]]>
  </script>
<style type="text/css" >

<![CDATA[
    rect.anc_exon {
              stroke-width:3;
                  }

    rect.non_anc_exon {
              stroke: black; stroke-width:3; stroke-dasharray: 5,5;
                    }

    text {
              font-size: 18px;
              font-family: Courier New;
          }
                    ]]>
</style>

<defs>
    <text x="150" y="40" id="globalVariable">none</text>
</defs>

  <rect class="anc_exon" x="0" y="35.0" width="0" height="30" style="fill:#87bcbc;fill-opacity:1.00" />
  <rect class="anc_exon" x="0" y="35.0" width="146.4" height="30" style="fill:#87bcbc;fill-opacity:1.00" />
  <line x1="146.4" y1="50.0" x2="186.0" y2="50.0" style="stroke:#999; stroke-width:3;" />
  <rect class="anc_exon" x="186" y="35.0" width="129" height="30" style="fill:#87bcbc;fill-opacity:1.00" />
  <line x1="315" y1="50.0" x2="355" y2="50.0" style="stroke:#999; stroke-width:3;" />
  <rect class="anc_exon" x="355" y="35.0" width="97" height="30" style="fill:#87bcbc;fill-opacity:1.00" />
  <line x1="452" y1="50.0" x2="472" y2="50.0" style="stroke:#999; stroke-width:3;" />
  <line x1="472" y1="50.0" x2="472" y2="50.0" style="stroke:#999; stroke-width:3;" />
  <line x1="472" y1="50.0" x2="472" y2="50.0" style="stroke:#999; stroke-width:3;" />
  <line x1="472" y1="50.0" x2="492" y2="50.0" style="stroke:#999; stroke-width:3;" />
  <rect class="anc_exon" x="492" y="35.0" width="114" height="30" style="fill:#87bcbc;fill-opacity:1.00" />
  <line x1="606" y1="50.0" x2="646" y2="50.0" style="stroke:#999; stroke-width:3;" />
  <rect class="anc_exon" x="646" y="35.0" width="91" height="30" style="fill:#87bcbc;fill-opacity:1.00" />
  <line x1="737" y1="50.0" x2="757" y2="50.0" style="stroke:#999; stroke-width:3;" />
  <line x1="757" y1="50.0" x2="757" y2="50.0" style="stroke:#999; stroke-width:3;" />
  <line x1="757" y1="50.0" x2="757" y2="50.0" style="stroke:#999; stroke-width:3;" />
  <line x1="757" y1="50.0" x2="777" y2="50.0" style="stroke:#999; stroke-width:3;" />
  <rect class="anc_exon" x="777" y="35.0" width="112" height="30" style="fill:#87bcbc;fill-opacity:1.00" />
  <line x1="889" y1="50.0" x2="909" y2="50.0" style="stroke:#999; stroke-width:3;" />
  <line x1="909" y1="50.0" x2="909" y2="50.0" style="stroke:#999; stroke-width:3;" />
  <line x1="909" y1="50.0" x2="909" y2="50.0" style="stroke:#999; stroke-width:3;" />
  <line x1="909" y1="50.0" x2="929" y2="50.0" style="stroke:#999; stroke-width:3;" />
  <rect class="anc_exon" x="929" y="35.0" width="98" height="30" style="fill:#87bcbc;fill-opacity:1.00" />
  <line x1="1027" y1="50.0" x2="1047" y2="50.0" style="stroke:#999; stroke-width:3;" />
  <line x1="1047" y1="50.0" x2="1047" y2="50.0" style="stroke:#999; stroke-width:3;" />
  <line x1="1047" y1="50.0" x2="1047" y2="50.0" style="stroke:#999; stroke-width:3;" />
  <line x1="1047" y1="50.0" x2="1067" y2="50.0" style="stroke:#999; stroke-width:3;" />
  <rect class="anc_exon" x="1067" y="35.0" width="179" height="30" style="fill:#87bcbc;fill-opacity:1.00" />
  <line x1="1246" y1="50.0" x2="1266" y2="50.0" style="stroke:#999; stroke-width:3;" />
  <line x1="1266" y1="50.0" x2="1266" y2="50.0" style="stroke:#999; stroke-width:3;" />
  <line x1="1266" y1="50.0" x2="1266" y2="50.0" style="stroke:#999; stroke-width:3;" />
  <line x1="1266" y1="50.0" x2="1286" y2="50.0" style="stroke:#999; stroke-width:3;" />
  <rect class="anc_exon" x="1286" y="35.0" width="108" height="30" style="fill:#87bcbc;fill-opacity:1.00" />
  <line x1="1394" y1="50.0" x2="1414" y2="50.0" style="stroke:#999; stroke-width:3;" />
  <line x1="1414" y1="50.0" x2="1414" y2="50.0" style="stroke:#999; stroke-width:3;" />
  <line x1="1414" y1="50.0" x2="1414" y2="50.0" style="stroke:#999; stroke-width:3;" />
  <line x1="1414" y1="50.0" x2="1434" y2="50.0" style="stroke:#999; stroke-width:3;" />
  <rect class="anc_exon" x="1434" y="35.0" width="117" height="30" style="fill:#87bcbc;fill-opacity:1.00" />
  <line x1="1551" y1="50.0" x2="1571" y2="50.0" style="stroke:#999; stroke-width:3;" />
  <line x1="1571" y1="50.0" x2="1571" y2="50.0" style="stroke:#999; stroke-width:3;" />
  <line x1="1571" y1="50.0" x2="1571" y2="50.0" style="stroke:#999; stroke-width:3;" />
  <line x1="1571" y1="50.0" x2="1591" y2="50.0" style="stroke:#999; stroke-width:3;" />
  <rect class="anc_exon" x="1591" y="35.0" width="175" height="30" style="fill:#87bcbc;fill-opacity:1.00" />
  <line x1="1766" y1="50.0" x2="1786" y2="50.0" style="stroke:#999; stroke-width:3;" />
  <line x1="1786" y1="50.0" x2="1786" y2="50.0" style="stroke:#999; stroke-width:3;" />
  <line x1="1786" y1="50.0" x2="1786" y2="50.0" style="stroke:#999; stroke-width:3;" />
  <line x1="1786" y1="50.0" x2="1806" y2="50.0" style="stroke:#999; stroke-width:3;" />
  <rect class="anc_exon" x="1806" y="35.0" width="100" height="30" style="fill:#87bcbc;fill-opacity:1.00" />
  <rect class="anc_exon" x="1906" y="35.0" width="0" height="30" style="fill:#87bcbc;fill-opacity:1.00" />
  <text style="" >
<tspan x="0" y="83.0" style="font-size:18px;" >SP XM_031965747_1.1</tspan>  </text>



<script type="text/ecmascript">
<![CDATA[
function draw_bbox(text_id)
{
    var text_elem = document.getElementById(text_id);
    var offset_px = 2;
    var offset_py = 0;
    bbox = text_elem.getBBox();
    var box = document.createElementNS(document.rootElement.namespaceURI,'rect');
    box.setAttribute('x', bbox.x - offset_px);
    box.setAttribute('y', bbox.y - offset_py);
    box.setAttribute('width', bbox.width + offset_px * 2);
    box.setAttribute('height', bbox.height + offset_py * 2);
    box.setAttribute('style','fill: white;'+'stroke: black;'+'stroke-width: 1px;');
    text_elem.insertBefore(box,text_elem.childNodes[0]);

    var svg = text_elem.parentNode;
    svg.appendChild(text_elem);
}

for (var i=1; i < 1; i++)
{
draw_bbox("Mouseover" + i);
}
]]> 
</script>
</svg>
