<svg version="1.1"
xmlns="http://www.w3.org/2000/svg"
xmlns:xlink="http://www.w3.org/1999/xlink"
width="1853" height="100" viewBox = "0 0 1853 100"
onclick="mouseclick(evt)">

<script type="text/ecmascript">

<![CDATA[
    function mouseover(evt, target) { 
    var gv = document.getElementById("globalVariable");
    var previoustarget = gv.firstChild.nodeValue;
    if (previoustarget != "none") 
    {
        	document.getElementById(gv.firstChild.nodeValue).setAttributeNS(null, "visibility", "hidden");
    }
    document.getElementById(target).setAttributeNS(null, "visibility", "visible");
    gv.firstChild.nodeValue = target;
        }

    function mouseclick(evt) { 
    var gv = document.getElementById("globalVariable");
    var previoustarget = gv.firstChild.nodeValue;
    if (previoustarget != "none") {
        	document.getElementById(gv.firstChild.nodeValue).setAttributeNS(null, "visibility", "hidden");
        }
    }
]]>
  </script>
<style type="text/css" >

<![CDATA[
    rect.anc_exon {
              stroke-width:3;
                  }

    rect.non_anc_exon {
              stroke: black; stroke-width:3; stroke-dasharray: 5,5;
                    }

    text {
              font-size: 18px;
              font-family: Courier New;
          }
                    ]]>
</style>

<defs>
    <text x="150" y="40" id="globalVariable">none</text>
</defs>

  <rect class="anc_exon" x="0" y="35.0" width="0" height="30" style="fill:#87bcbc;fill-opacity:1.00" />
  <rect class="anc_exon" x="0" y="35.0" width="53.6" height="30" style="fill:#87bcbc;fill-opacity:1.00" />
  <line x1="53.6" y1="50.0" x2="72.6" y2="50.0" style="stroke:#999; stroke-width:3;" />
  <line x1="72.6" y1="50.0" x2="72.6" y2="50.0" style="stroke:#999; stroke-width:3;" />
  <line x1="72.6" y1="50.0" x2="72.6" y2="50.0" style="stroke:#999; stroke-width:3;" />
  <line x1="72.6" y1="50.0" x2="93.0" y2="50.0" style="stroke:#999; stroke-width:3;" />
  <rect class="anc_exon" x="93" y="35.0" width="112" height="30" style="fill:#87bcbc;fill-opacity:1.00" />
  <line x1="205" y1="50.0" x2="225" y2="50.0" style="stroke:#999; stroke-width:3;" />
  <line x1="225" y1="50.0" x2="225" y2="50.0" style="stroke:#999; stroke-width:3;" />
  <line x1="225" y1="50.0" x2="225" y2="50.0" style="stroke:#999; stroke-width:3;" />
  <line x1="225" y1="50.0" x2="245" y2="50.0" style="stroke:#999; stroke-width:3;" />
  <rect class="anc_exon" x="245" y="35.0" width="79" height="30" style="fill:#87bcbc;fill-opacity:1.00" />
  <line x1="324" y1="50.0" x2="344" y2="50.0" style="stroke:#999; stroke-width:3;" />
  <line x1="344" y1="50.0" x2="344" y2="50.0" style="stroke:#999; stroke-width:3;" />
  <line x1="344" y1="50.0" x2="344" y2="50.0" style="stroke:#999; stroke-width:3;" />
  <line x1="344" y1="50.0" x2="364" y2="50.0" style="stroke:#999; stroke-width:3;" />
  <rect class="anc_exon" x="364" y="35.0" width="105" height="30" style="fill:#87bcbc;fill-opacity:1.00" />
  <line x1="469" y1="50.0" x2="509" y2="50.0" style="stroke:#999; stroke-width:3;" />
  <rect class="anc_exon" x="509" y="35.0" width="96" height="30" style="fill:#87bcbc;fill-opacity:1.00" />
  <line x1="605" y1="50.0" x2="625" y2="50.0" style="stroke:#999; stroke-width:3;" />
  <line x1="625" y1="50.0" x2="625" y2="50.0" style="stroke:#999; stroke-width:3;" />
  <line x1="625" y1="50.0" x2="625" y2="50.0" style="stroke:#999; stroke-width:3;" />
  <line x1="625" y1="50.0" x2="645" y2="50.0" style="stroke:#999; stroke-width:3;" />
  <rect class="anc_exon" x="645" y="35.0" width="48" height="30" style="fill:#87bcbc;fill-opacity:1.00" />
  <line x1="693" y1="50.0" x2="713" y2="50.0" style="stroke:#999; stroke-width:3;" />
  <line x1="713" y1="50.0" x2="713" y2="50.0" style="stroke:#999; stroke-width:3;" />
  <line x1="713" y1="50.0" x2="713" y2="50.0" style="stroke:#999; stroke-width:3;" />
  <line x1="713" y1="50.0" x2="733" y2="50.0" style="stroke:#999; stroke-width:3;" />
  <rect class="anc_exon" x="733" y="35.0" width="45" height="30" style="fill:#87bcbc;fill-opacity:1.00" />
  <line x1="778" y1="50.0" x2="818" y2="50.0" style="stroke:#999; stroke-width:3;" />
  <rect class="anc_exon" x="818" y="35.0" width="40" height="30" style="fill:#87bcbc;fill-opacity:1.00" />
  <line x1="858" y1="50.0" x2="878" y2="50.0" style="stroke:#999; stroke-width:3;" />
  <line x1="878" y1="50.0" x2="878" y2="50.0" style="stroke:#999; stroke-width:3;" />
  <line x1="878" y1="50.0" x2="878" y2="50.0" style="stroke:#999; stroke-width:3;" />
  <line x1="878" y1="50.0" x2="898" y2="50.0" style="stroke:#999; stroke-width:3;" />
  <rect class="anc_exon" x="898" y="35.0" width="50" height="30" style="fill:#87bcbc;fill-opacity:1.00" />
  <line x1="948" y1="50.0" x2="968" y2="50.0" style="stroke:#999; stroke-width:3;" />
  <line x1="968" y1="50.0" x2="968" y2="50.0" style="stroke:#999; stroke-width:3;" />
  <line x1="968" y1="50.0" x2="968" y2="50.0" style="stroke:#999; stroke-width:3;" />
  <line x1="968" y1="50.0" x2="988" y2="50.0" style="stroke:#999; stroke-width:3;" />
  <rect class="anc_exon" x="988" y="35.0" width="87" height="30" style="fill:#87bcbc;fill-opacity:1.00" />
  <line x1="1075" y1="50.0" x2="1095" y2="50.0" style="stroke:#999; stroke-width:3;" />
  <line x1="1095" y1="50.0" x2="1095" y2="50.0" style="stroke:#999; stroke-width:3;" />
  <line x1="1095" y1="50.0" x2="1095" y2="50.0" style="stroke:#999; stroke-width:3;" />
  <line x1="1095" y1="50.0" x2="1115" y2="50.0" style="stroke:#999; stroke-width:3;" />
  <rect class="anc_exon" x="1115" y="35.0" width="441" height="30" style="fill:#87bcbc;fill-opacity:1.00" />
  <line x1="1556" y1="50.0" x2="1576" y2="50.0" style="stroke:#999; stroke-width:3;" />
  <line x1="1576" y1="50.0" x2="1576" y2="50.0" style="stroke:#999; stroke-width:3;" />
  <line x1="1576" y1="50.0" x2="1576" y2="50.0" style="stroke:#999; stroke-width:3;" />
  <line x1="1576" y1="50.0" x2="1596" y2="50.0" style="stroke:#999; stroke-width:3;" />
  <rect class="anc_exon" x="1596" y="35.0" width="102" height="30" style="fill:#87bcbc;fill-opacity:1.00" />
  <line x1="1698" y1="50.0" x2="1738" y2="50.0" style="stroke:#999; stroke-width:3;" />
  <rect class="anc_exon" x="1738" y="35.0" width="79" height="30" style="fill:#87bcbc;fill-opacity:1.00" />
  <rect class="anc_exon" x="1817" y="35.0" width="0" height="30" style="fill:#87bcbc;fill-opacity:1.00" />
  <text style="" >
<tspan x="0" y="83.0" style="font-size:18px;" >SP XM_031969034_1.1</tspan>  </text>



<script type="text/ecmascript">
<![CDATA[
function draw_bbox(text_id)
{
    var text_elem = document.getElementById(text_id);
    var offset_px = 2;
    var offset_py = 0;
    bbox = text_elem.getBBox();
    var box = document.createElementNS(document.rootElement.namespaceURI,'rect');
    box.setAttribute('x', bbox.x - offset_px);
    box.setAttribute('y', bbox.y - offset_py);
    box.setAttribute('width', bbox.width + offset_px * 2);
    box.setAttribute('height', bbox.height + offset_py * 2);
    box.setAttribute('style','fill: white;'+'stroke: black;'+'stroke-width: 1px;');
    text_elem.insertBefore(box,text_elem.childNodes[0]);

    var svg = text_elem.parentNode;
    svg.appendChild(text_elem);
}

for (var i=1; i < 1; i++)
{
draw_bbox("Mouseover" + i);
}
]]> 
</script>
</svg>
