<svg version="1.1"
xmlns="http://www.w3.org/2000/svg"
xmlns:xlink="http://www.w3.org/1999/xlink"
width="3498" height="100" viewBox = "0 0 3498 100"
onclick="mouseclick(evt)">

<script type="text/ecmascript">

<![CDATA[
    function mouseover(evt, target) { 
    var gv = document.getElementById("globalVariable");
    var previoustarget = gv.firstChild.nodeValue;
    if (previoustarget != "none") 
    {
        	document.getElementById(gv.firstChild.nodeValue).setAttributeNS(null, "visibility", "hidden");
    }
    document.getElementById(target).setAttributeNS(null, "visibility", "visible");
    gv.firstChild.nodeValue = target;
        }

    function mouseclick(evt) { 
    var gv = document.getElementById("globalVariable");
    var previoustarget = gv.firstChild.nodeValue;
    if (previoustarget != "none") {
        	document.getElementById(gv.firstChild.nodeValue).setAttributeNS(null, "visibility", "hidden");
        }
    }
]]>
  </script>
<style type="text/css" >

<![CDATA[
    rect.anc_exon {
              stroke-width:3;
                  }

    rect.non_anc_exon {
              stroke: black; stroke-width:3; stroke-dasharray: 5,5;
                    }

    text {
              font-size: 18px;
              font-family: Courier New;
          }
                    ]]>
</style>

<defs>
    <text x="150" y="40" id="globalVariable">none</text>
</defs>

  <rect class="anc_exon" x="0" y="35.0" width="0" height="30" style="fill:#87bcbc;fill-opacity:1.00" />
  <rect class="anc_exon" x="0" y="35.0" width="116.0" height="30" style="fill:#87bcbc;fill-opacity:1.00" />
  <line x1="116.0" y1="50.0" x2="136.0" y2="50.0" style="stroke:#999; stroke-width:3;" />
  <line x1="136.0" y1="50.0" x2="136.0" y2="50.0" style="stroke:#999; stroke-width:3;" />
  <line x1="136.0" y1="50.0" x2="136.0" y2="50.0" style="stroke:#999; stroke-width:3;" />
  <line x1="136.0" y1="50.0" x2="156.0" y2="50.0" style="stroke:#999; stroke-width:3;" />
  <rect class="anc_exon" x="156" y="35.0" width="104" height="30" style="fill:#87bcbc;fill-opacity:1.00" />
  <line x1="260" y1="50.0" x2="280" y2="50.0" style="stroke:#999; stroke-width:3;" />
  <line x1="280" y1="50.0" x2="280" y2="50.0" style="stroke:#999; stroke-width:3;" />
  <line x1="280" y1="50.0" x2="280" y2="50.0" style="stroke:#999; stroke-width:3;" />
  <line x1="280" y1="50.0" x2="300" y2="50.0" style="stroke:#999; stroke-width:3;" />
  <rect class="anc_exon" x="300" y="35.0" width="82" height="30" style="fill:#87bcbc;fill-opacity:1.00" />
  <line x1="382" y1="50.0" x2="402" y2="50.0" style="stroke:#999; stroke-width:3;" />
  <line x1="402" y1="50.0" x2="402" y2="50.0" style="stroke:#999; stroke-width:3;" />
  <line x1="402" y1="50.0" x2="402" y2="50.0" style="stroke:#999; stroke-width:3;" />
  <line x1="402" y1="50.0" x2="422" y2="50.0" style="stroke:#999; stroke-width:3;" />
  <rect class="anc_exon" x="422" y="35.0" width="83" height="30" style="fill:#87bcbc;fill-opacity:1.00" />
  <line x1="505" y1="50.0" x2="525" y2="50.0" style="stroke:#999; stroke-width:3;" />
  <line x1="525" y1="50.0" x2="525" y2="50.0" style="stroke:#999; stroke-width:3;" />
  <line x1="525" y1="50.0" x2="525" y2="50.0" style="stroke:#999; stroke-width:3;" />
  <line x1="525" y1="50.0" x2="545" y2="50.0" style="stroke:#999; stroke-width:3;" />
  <rect class="anc_exon" x="545" y="35.0" width="24" height="30" style="fill:#87bcbc;fill-opacity:1.00" />
  <line x1="569" y1="50.0" x2="589" y2="50.0" style="stroke:#999; stroke-width:3;" />
  <line x1="589" y1="50.0" x2="589" y2="50.0" style="stroke:#999; stroke-width:3;" />
  <line x1="589" y1="50.0" x2="589" y2="50.0" style="stroke:#999; stroke-width:3;" />
  <line x1="589" y1="50.0" x2="609" y2="50.0" style="stroke:#999; stroke-width:3;" />
  <rect class="anc_exon" x="609" y="35.0" width="88" height="30" style="fill:#87bcbc;fill-opacity:1.00" />
  <line x1="697" y1="50.0" x2="717" y2="50.0" style="stroke:#999; stroke-width:3;" />
  <line x1="717" y1="50.0" x2="717" y2="50.0" style="stroke:#999; stroke-width:3;" />
  <line x1="717" y1="50.0" x2="717" y2="50.0" style="stroke:#999; stroke-width:3;" />
  <line x1="717" y1="50.0" x2="737" y2="50.0" style="stroke:#999; stroke-width:3;" />
  <rect class="anc_exon" x="737" y="35.0" width="172" height="30" style="fill:#87bcbc;fill-opacity:1.00" />
  <line x1="909" y1="50.0" x2="929" y2="50.0" style="stroke:#999; stroke-width:3;" />
  <line x1="929" y1="50.0" x2="929" y2="50.0" style="stroke:#999; stroke-width:3;" />
  <line x1="929" y1="50.0" x2="929" y2="50.0" style="stroke:#999; stroke-width:3;" />
  <line x1="929" y1="50.0" x2="949" y2="50.0" style="stroke:#999; stroke-width:3;" />
  <rect class="anc_exon" x="949" y="35.0" width="108" height="30" style="fill:#87bcbc;fill-opacity:1.00" />
  <line x1="1057" y1="50.0" x2="1077" y2="50.0" style="stroke:#999; stroke-width:3;" />
  <line x1="1077" y1="50.0" x2="1077" y2="50.0" style="stroke:#999; stroke-width:3;" />
  <line x1="1077" y1="50.0" x2="1077" y2="50.0" style="stroke:#999; stroke-width:3;" />
  <line x1="1077" y1="50.0" x2="1097" y2="50.0" style="stroke:#999; stroke-width:3;" />
  <rect class="anc_exon" x="1097" y="35.0" width="64" height="30" style="fill:#87bcbc;fill-opacity:1.00" />
  <line x1="1161" y1="50.0" x2="1181" y2="50.0" style="stroke:#999; stroke-width:3;" />
  <line x1="1181" y1="50.0" x2="1181" y2="50.0" style="stroke:#999; stroke-width:3;" />
  <line x1="1181" y1="50.0" x2="1181" y2="50.0" style="stroke:#999; stroke-width:3;" />
  <line x1="1181" y1="50.0" x2="1201" y2="50.0" style="stroke:#999; stroke-width:3;" />
  <rect class="anc_exon" x="1201" y="35.0" width="112" height="30" style="fill:#87bcbc;fill-opacity:1.00" />
  <line x1="1313" y1="50.0" x2="1333" y2="50.0" style="stroke:#999; stroke-width:3;" />
  <line x1="1333" y1="50.0" x2="1333" y2="50.0" style="stroke:#999; stroke-width:3;" />
  <line x1="1333" y1="50.0" x2="1333" y2="50.0" style="stroke:#999; stroke-width:3;" />
  <line x1="1333" y1="50.0" x2="1353" y2="50.0" style="stroke:#999; stroke-width:3;" />
  <rect class="anc_exon" x="1353" y="35.0" width="101" height="30" style="fill:#87bcbc;fill-opacity:1.00" />
  <line x1="1454" y1="50.0" x2="1474" y2="50.0" style="stroke:#999; stroke-width:3;" />
  <line x1="1474" y1="50.0" x2="1474" y2="50.0" style="stroke:#999; stroke-width:3;" />
  <line x1="1474" y1="50.0" x2="1474" y2="50.0" style="stroke:#999; stroke-width:3;" />
  <line x1="1474" y1="50.0" x2="1494" y2="50.0" style="stroke:#999; stroke-width:3;" />
  <rect class="anc_exon" x="1494" y="35.0" width="119" height="30" style="fill:#87bcbc;fill-opacity:1.00" />
  <line x1="1613" y1="50.0" x2="1633" y2="50.0" style="stroke:#999; stroke-width:3;" />
  <line x1="1633" y1="50.0" x2="1633" y2="50.0" style="stroke:#999; stroke-width:3;" />
  <line x1="1633" y1="50.0" x2="1633" y2="50.0" style="stroke:#999; stroke-width:3;" />
  <line x1="1633" y1="50.0" x2="1653" y2="50.0" style="stroke:#999; stroke-width:3;" />
  <rect class="anc_exon" x="1653" y="35.0" width="99" height="30" style="fill:#87bcbc;fill-opacity:1.00" />
  <line x1="1752" y1="50.0" x2="1772" y2="50.0" style="stroke:#999; stroke-width:3;" />
  <line x1="1772" y1="50.0" x2="1772" y2="50.0" style="stroke:#999; stroke-width:3;" />
  <line x1="1772" y1="50.0" x2="1772" y2="50.0" style="stroke:#999; stroke-width:3;" />
  <line x1="1772" y1="50.0" x2="1792" y2="50.0" style="stroke:#999; stroke-width:3;" />
  <rect class="anc_exon" x="1792" y="35.0" width="140" height="30" style="fill:#87bcbc;fill-opacity:1.00" />
  <line x1="1932" y1="50.0" x2="1952" y2="50.0" style="stroke:#999; stroke-width:3;" />
  <line x1="1952" y1="50.0" x2="1952" y2="50.0" style="stroke:#999; stroke-width:3;" />
  <line x1="1952" y1="50.0" x2="1952" y2="50.0" style="stroke:#999; stroke-width:3;" />
  <line x1="1952" y1="50.0" x2="1972" y2="50.0" style="stroke:#999; stroke-width:3;" />
  <rect class="anc_exon" x="1972" y="35.0" width="144" height="30" style="fill:#87bcbc;fill-opacity:1.00" />
  <line x1="2116" y1="50.0" x2="2136" y2="50.0" style="stroke:#999; stroke-width:3;" />
  <line x1="2136" y1="50.0" x2="2136" y2="50.0" style="stroke:#999; stroke-width:3;" />
  <line x1="2136" y1="50.0" x2="2136" y2="50.0" style="stroke:#999; stroke-width:3;" />
  <line x1="2136" y1="50.0" x2="2156" y2="50.0" style="stroke:#999; stroke-width:3;" />
  <rect class="anc_exon" x="2156" y="35.0" width="104" height="30" style="fill:#87bcbc;fill-opacity:1.00" />
  <line x1="2260" y1="50.0" x2="2280" y2="50.0" style="stroke:#999; stroke-width:3;" />
  <line x1="2280" y1="50.0" x2="2280" y2="50.0" style="stroke:#999; stroke-width:3;" />
  <line x1="2280" y1="50.0" x2="2280" y2="50.0" style="stroke:#999; stroke-width:3;" />
  <line x1="2280" y1="50.0" x2="2300" y2="50.0" style="stroke:#999; stroke-width:3;" />
  <rect class="anc_exon" x="2300" y="35.0" width="81" height="30" style="fill:#87bcbc;fill-opacity:1.00" />
  <line x1="2381" y1="50.0" x2="2421" y2="50.0" style="stroke:#999; stroke-width:3;" />
  <rect class="anc_exon" x="2421" y="35.0" width="48" height="30" style="fill:#87bcbc;fill-opacity:1.00" />
  <line x1="2469" y1="50.0" x2="2489" y2="50.0" style="stroke:#999; stroke-width:3;" />
  <line x1="2489" y1="50.0" x2="2489" y2="50.0" style="stroke:#999; stroke-width:3;" />
  <line x1="2489" y1="50.0" x2="2489" y2="50.0" style="stroke:#999; stroke-width:3;" />
  <line x1="2489" y1="50.0" x2="2509" y2="50.0" style="stroke:#999; stroke-width:3;" />
  <rect class="anc_exon" x="2509" y="35.0" width="84" height="30" style="fill:#87bcbc;fill-opacity:1.00" />
  <line x1="2593" y1="50.0" x2="2633" y2="50.0" style="stroke:#999; stroke-width:3;" />
  <rect class="anc_exon" x="2633" y="35.0" width="47" height="30" style="fill:#87bcbc;fill-opacity:1.00" />
  <line x1="2680" y1="50.0" x2="2700" y2="50.0" style="stroke:#999; stroke-width:3;" />
  <line x1="2700" y1="50.0" x2="2700" y2="50.0" style="stroke:#999; stroke-width:3;" />
  <line x1="2700" y1="50.0" x2="2700" y2="50.0" style="stroke:#999; stroke-width:3;" />
  <line x1="2700" y1="50.0" x2="2720" y2="50.0" style="stroke:#999; stroke-width:3;" />
  <rect class="anc_exon" x="2720" y="35.0" width="88" height="30" style="fill:#87bcbc;fill-opacity:1.00" />
  <line x1="2808" y1="50.0" x2="2828" y2="50.0" style="stroke:#999; stroke-width:3;" />
  <line x1="2828" y1="50.0" x2="2828" y2="50.0" style="stroke:#999; stroke-width:3;" />
  <line x1="2828" y1="50.0" x2="2828" y2="50.0" style="stroke:#999; stroke-width:3;" />
  <line x1="2828" y1="50.0" x2="2848" y2="50.0" style="stroke:#999; stroke-width:3;" />
  <rect class="anc_exon" x="2848" y="35.0" width="151" height="30" style="fill:#87bcbc;fill-opacity:1.00" />
  <line x1="2999" y1="50.0" x2="3019" y2="50.0" style="stroke:#999; stroke-width:3;" />
  <line x1="3019" y1="50.0" x2="3019" y2="50.0" style="stroke:#999; stroke-width:3;" />
  <line x1="3019" y1="50.0" x2="3019" y2="50.0" style="stroke:#999; stroke-width:3;" />
  <line x1="3019" y1="50.0" x2="3039" y2="50.0" style="stroke:#999; stroke-width:3;" />
  <rect class="anc_exon" x="3039" y="35.0" width="84" height="30" style="fill:#87bcbc;fill-opacity:1.00" />
  <line x1="3123" y1="50.0" x2="3163" y2="50.0" style="stroke:#999; stroke-width:3;" />
  <rect class="anc_exon" x="3163" y="35.0" width="64" height="30" style="fill:#87bcbc;fill-opacity:1.00" />
  <line x1="3227" y1="50.0" x2="3247" y2="50.0" style="stroke:#999; stroke-width:3;" />
  <line x1="3247" y1="50.0" x2="3247" y2="50.0" style="stroke:#999; stroke-width:3;" />
  <line x1="3247" y1="50.0" x2="3247" y2="50.0" style="stroke:#999; stroke-width:3;" />
  <line x1="3247" y1="50.0" x2="3267" y2="50.0" style="stroke:#999; stroke-width:3;" />
  <rect class="anc_exon" x="3267" y="35.0" width="91" height="30" style="fill:#87bcbc;fill-opacity:1.00" />
  <line x1="3358" y1="50.0" x2="3378" y2="50.0" style="stroke:#999; stroke-width:3;" />
  <line x1="3378" y1="50.0" x2="3378" y2="50.0" style="stroke:#999; stroke-width:3;" />
  <line x1="3378" y1="50.0" x2="3378" y2="50.0" style="stroke:#999; stroke-width:3;" />
  <line x1="3378" y1="50.0" x2="3398" y2="50.0" style="stroke:#999; stroke-width:3;" />
  <rect class="anc_exon" x="3398" y="35.0" width="64" height="30" style="fill:#87bcbc;fill-opacity:1.00" />
  <rect class="anc_exon" x="3462" y="35.0" width="0" height="30" style="fill:#87bcbc;fill-opacity:1.00" />
  <text style="" >
<tspan x="0" y="83.0" style="font-size:18px;" >SP XM_031966963_1.1</tspan>  </text>



<script type="text/ecmascript">
<![CDATA[
function draw_bbox(text_id)
{
    var text_elem = document.getElementById(text_id);
    var offset_px = 2;
    var offset_py = 0;
    bbox = text_elem.getBBox();
    var box = document.createElementNS(document.rootElement.namespaceURI,'rect');
    box.setAttribute('x', bbox.x - offset_px);
    box.setAttribute('y', bbox.y - offset_py);
    box.setAttribute('width', bbox.width + offset_px * 2);
    box.setAttribute('height', bbox.height + offset_py * 2);
    box.setAttribute('style','fill: white;'+'stroke: black;'+'stroke-width: 1px;');
    text_elem.insertBefore(box,text_elem.childNodes[0]);

    var svg = text_elem.parentNode;
    svg.appendChild(text_elem);
}

for (var i=1; i < 1; i++)
{
draw_bbox("Mouseover" + i);
}
]]> 
</script>
</svg>
