<svg version="1.1"
xmlns="http://www.w3.org/2000/svg"
xmlns:xlink="http://www.w3.org/1999/xlink"
width="11238" height="100" viewBox = "0 0 11238 100"
onclick="mouseclick(evt)">

<script type="text/ecmascript">

<![CDATA[
    function mouseover(evt, target) { 
    var gv = document.getElementById("globalVariable");
    var previoustarget = gv.firstChild.nodeValue;
    if (previoustarget != "none") 
    {
        	document.getElementById(gv.firstChild.nodeValue).setAttributeNS(null, "visibility", "hidden");
    }
    document.getElementById(target).setAttributeNS(null, "visibility", "visible");
    gv.firstChild.nodeValue = target;
        }

    function mouseclick(evt) { 
    var gv = document.getElementById("globalVariable");
    var previoustarget = gv.firstChild.nodeValue;
    if (previoustarget != "none") {
        	document.getElementById(gv.firstChild.nodeValue).setAttributeNS(null, "visibility", "hidden");
        }
    }
]]>
  </script>
<style type="text/css" >

<![CDATA[
    rect.anc_exon {
              stroke-width:3;
                  }

    rect.non_anc_exon {
              stroke: black; stroke-width:3; stroke-dasharray: 5,5;
                    }

    text {
              font-size: 18px;
              font-family: Courier New;
          }
                    ]]>
</style>

<defs>
    <text x="150" y="40" id="globalVariable">none</text>
</defs>

  <rect class="anc_exon" x="0" y="35.0" width="0" height="30" style="fill:#87bcbc;fill-opacity:1.00" />
  <rect class="anc_exon" x="0" y="35.0" width="63.2" height="30" style="fill:#87bcbc;fill-opacity:1.00" />
  <line x1="63.2" y1="50.0" x2="82.2" y2="50.0" style="stroke:#999; stroke-width:3;" />
  <line x1="82.2" y1="50.0" x2="82.2" y2="50.0" style="stroke:#999; stroke-width:3;" />
  <line x1="82.2" y1="50.0" x2="82.2" y2="50.0" style="stroke:#999; stroke-width:3;" />
  <line x1="82.2" y1="50.0" x2="103.0" y2="50.0" style="stroke:#999; stroke-width:3;" />
  <rect class="anc_exon" x="103" y="35.0" width="49" height="30" style="fill:#87bcbc;fill-opacity:1.00" />
  <line x1="152" y1="50.0" x2="172" y2="50.0" style="stroke:#999; stroke-width:3;" />
  <line x1="172" y1="50.0" x2="172" y2="50.0" style="stroke:#999; stroke-width:3;" />
  <line x1="172" y1="50.0" x2="172" y2="50.0" style="stroke:#999; stroke-width:3;" />
  <line x1="172" y1="50.0" x2="192" y2="50.0" style="stroke:#999; stroke-width:3;" />
  <rect class="anc_exon" x="192" y="35.0" width="74" height="30" style="fill:#87bcbc;fill-opacity:1.00" />
  <line x1="266" y1="50.0" x2="306" y2="50.0" style="stroke:#999; stroke-width:3;" />
  <rect class="anc_exon" x="306" y="35.0" width="62" height="30" style="fill:#87bcbc;fill-opacity:1.00" />
  <line x1="368" y1="50.0" x2="408" y2="50.0" style="stroke:#999; stroke-width:3;" />
  <rect class="anc_exon" x="408" y="35.0" width="74" height="30" style="fill:#87bcbc;fill-opacity:1.00" />
  <line x1="482" y1="50.0" x2="522" y2="50.0" style="stroke:#999; stroke-width:3;" />
  <rect class="anc_exon" x="522" y="35.0" width="138" height="30" style="fill:#87bcbc;fill-opacity:1.00" />
  <line x1="660" y1="50.0" x2="680" y2="50.0" style="stroke:#999; stroke-width:3;" />
  <line x1="680" y1="50.0" x2="680" y2="50.0" style="stroke:#999; stroke-width:3;" />
  <line x1="680" y1="50.0" x2="680" y2="50.0" style="stroke:#999; stroke-width:3;" />
  <line x1="680" y1="50.0" x2="700" y2="50.0" style="stroke:#999; stroke-width:3;" />
  <rect class="anc_exon" x="700" y="35.0" width="92" height="30" style="fill:#87bcbc;fill-opacity:1.00" />
  <line x1="792" y1="50.0" x2="832" y2="50.0" style="stroke:#999; stroke-width:3;" />
  <rect class="anc_exon" x="832" y="35.0" width="128" height="30" style="fill:#87bcbc;fill-opacity:1.00" />
  <line x1="960" y1="50.0" x2="980" y2="50.0" style="stroke:#999; stroke-width:3;" />
  <line x1="980" y1="50.0" x2="980" y2="50.0" style="stroke:#999; stroke-width:3;" />
  <line x1="980" y1="50.0" x2="980" y2="50.0" style="stroke:#999; stroke-width:3;" />
  <line x1="980" y1="50.0" x2="1000" y2="50.0" style="stroke:#999; stroke-width:3;" />
  <rect class="anc_exon" x="1000" y="35.0" width="165" height="30" style="fill:#87bcbc;fill-opacity:1.00" />
  <line x1="1165" y1="50.0" x2="1205" y2="50.0" style="stroke:#999; stroke-width:3;" />
  <rect class="anc_exon" x="1205" y="35.0" width="145" height="30" style="fill:#87bcbc;fill-opacity:1.00" />
  <line x1="1350" y1="50.0" x2="1390" y2="50.0" style="stroke:#999; stroke-width:3;" />
  <rect class="anc_exon" x="1390" y="35.0" width="120" height="30" style="fill:#87bcbc;fill-opacity:1.00" />
  <line x1="1510" y1="50.0" x2="1530" y2="50.0" style="stroke:#999; stroke-width:3;" />
  <line x1="1530" y1="50.0" x2="1530" y2="50.0" style="stroke:#999; stroke-width:3;" />
  <line x1="1530" y1="50.0" x2="1530" y2="50.0" style="stroke:#999; stroke-width:3;" />
  <line x1="1530" y1="50.0" x2="1550" y2="50.0" style="stroke:#999; stroke-width:3;" />
  <rect class="anc_exon" x="1550" y="35.0" width="96" height="30" style="fill:#87bcbc;fill-opacity:1.00" />
  <line x1="1646" y1="50.0" x2="1666" y2="50.0" style="stroke:#999; stroke-width:3;" />
  <line x1="1666" y1="50.0" x2="1666" y2="50.0" style="stroke:#999; stroke-width:3;" />
  <line x1="1666" y1="50.0" x2="1666" y2="50.0" style="stroke:#999; stroke-width:3;" />
  <line x1="1666" y1="50.0" x2="1686" y2="50.0" style="stroke:#999; stroke-width:3;" />
  <rect class="anc_exon" x="1686" y="35.0" width="81" height="30" style="fill:#87bcbc;fill-opacity:1.00" />
  <line x1="1767" y1="50.0" x2="1787" y2="50.0" style="stroke:#999; stroke-width:3;" />
  <line x1="1787" y1="50.0" x2="1787" y2="50.0" style="stroke:#999; stroke-width:3;" />
  <line x1="1787" y1="50.0" x2="1787" y2="50.0" style="stroke:#999; stroke-width:3;" />
  <line x1="1787" y1="50.0" x2="1807" y2="50.0" style="stroke:#999; stroke-width:3;" />
  <rect class="anc_exon" x="1807" y="35.0" width="86" height="30" style="fill:#87bcbc;fill-opacity:1.00" />
  <line x1="1893" y1="50.0" x2="1933" y2="50.0" style="stroke:#999; stroke-width:3;" />
  <rect class="anc_exon" x="1933" y="35.0" width="144" height="30" style="fill:#87bcbc;fill-opacity:1.00" />
  <line x1="2077" y1="50.0" x2="2117" y2="50.0" style="stroke:#999; stroke-width:3;" />
  <rect class="anc_exon" x="2117" y="35.0" width="136" height="30" style="fill:#87bcbc;fill-opacity:1.00" />
  <line x1="2253" y1="50.0" x2="2273" y2="50.0" style="stroke:#999; stroke-width:3;" />
  <line x1="2273" y1="50.0" x2="2273" y2="50.0" style="stroke:#999; stroke-width:3;" />
  <line x1="2273" y1="50.0" x2="2273" y2="50.0" style="stroke:#999; stroke-width:3;" />
  <line x1="2273" y1="50.0" x2="2293" y2="50.0" style="stroke:#999; stroke-width:3;" />
  <rect class="anc_exon" x="2293" y="35.0" width="99" height="30" style="fill:#87bcbc;fill-opacity:1.00" />
  <line x1="2392" y1="50.0" x2="2412" y2="50.0" style="stroke:#999; stroke-width:3;" />
  <line x1="2412" y1="50.0" x2="2412" y2="50.0" style="stroke:#999; stroke-width:3;" />
  <line x1="2412" y1="50.0" x2="2412" y2="50.0" style="stroke:#999; stroke-width:3;" />
  <line x1="2412" y1="50.0" x2="2432" y2="50.0" style="stroke:#999; stroke-width:3;" />
  <rect class="anc_exon" x="2432" y="35.0" width="70" height="30" style="fill:#87bcbc;fill-opacity:1.00" />
  <line x1="2502" y1="50.0" x2="2522" y2="50.0" style="stroke:#999; stroke-width:3;" />
  <line x1="2522" y1="50.0" x2="2522" y2="50.0" style="stroke:#999; stroke-width:3;" />
  <line x1="2522" y1="50.0" x2="2522" y2="50.0" style="stroke:#999; stroke-width:3;" />
  <line x1="2522" y1="50.0" x2="2542" y2="50.0" style="stroke:#999; stroke-width:3;" />
  <rect class="anc_exon" x="2542" y="35.0" width="193" height="30" style="fill:#87bcbc;fill-opacity:1.00" />
  <line x1="2735" y1="50.0" x2="2775" y2="50.0" style="stroke:#999; stroke-width:3;" />
  <rect class="anc_exon" x="2775" y="35.0" width="144" height="30" style="fill:#87bcbc;fill-opacity:1.00" />
  <line x1="2919" y1="50.0" x2="2939" y2="50.0" style="stroke:#999; stroke-width:3;" />
  <line x1="2939" y1="50.0" x2="2939" y2="50.0" style="stroke:#999; stroke-width:3;" />
  <line x1="2939" y1="50.0" x2="2939" y2="50.0" style="stroke:#999; stroke-width:3;" />
  <line x1="2939" y1="50.0" x2="2959" y2="50.0" style="stroke:#999; stroke-width:3;" />
  <rect class="anc_exon" x="2959" y="35.0" width="116" height="30" style="fill:#87bcbc;fill-opacity:1.00" />
  <line x1="3075" y1="50.0" x2="3095" y2="50.0" style="stroke:#999; stroke-width:3;" />
  <line x1="3095" y1="50.0" x2="3095" y2="50.0" style="stroke:#999; stroke-width:3;" />
  <line x1="3095" y1="50.0" x2="3095" y2="50.0" style="stroke:#999; stroke-width:3;" />
  <line x1="3095" y1="50.0" x2="3115" y2="50.0" style="stroke:#999; stroke-width:3;" />
  <rect class="anc_exon" x="3115" y="35.0" width="170" height="30" style="fill:#87bcbc;fill-opacity:1.00" />
  <line x1="3285" y1="50.0" x2="3305" y2="50.0" style="stroke:#999; stroke-width:3;" />
  <line x1="3305" y1="50.0" x2="3305" y2="50.0" style="stroke:#999; stroke-width:3;" />
  <line x1="3305" y1="50.0" x2="3305" y2="50.0" style="stroke:#999; stroke-width:3;" />
  <line x1="3305" y1="50.0" x2="3325" y2="50.0" style="stroke:#999; stroke-width:3;" />
  <rect class="anc_exon" x="3325" y="35.0" width="91" height="30" style="fill:#87bcbc;fill-opacity:1.00" />
  <line x1="3416" y1="50.0" x2="3456" y2="50.0" style="stroke:#999; stroke-width:3;" />
  <rect class="anc_exon" x="3456" y="35.0" width="124" height="30" style="fill:#87bcbc;fill-opacity:1.00" />
  <line x1="3580" y1="50.0" x2="3600" y2="50.0" style="stroke:#999; stroke-width:3;" />
  <line x1="3600" y1="50.0" x2="3600" y2="50.0" style="stroke:#999; stroke-width:3;" />
  <line x1="3600" y1="50.0" x2="3600" y2="50.0" style="stroke:#999; stroke-width:3;" />
  <line x1="3600" y1="50.0" x2="3620" y2="50.0" style="stroke:#999; stroke-width:3;" />
  <rect class="anc_exon" x="3620" y="35.0" width="136" height="30" style="fill:#87bcbc;fill-opacity:1.00" />
  <line x1="3756" y1="50.0" x2="3796" y2="50.0" style="stroke:#999; stroke-width:3;" />
  <rect class="anc_exon" x="3796" y="35.0" width="144" height="30" style="fill:#87bcbc;fill-opacity:1.00" />
  <line x1="3940" y1="50.0" x2="3960" y2="50.0" style="stroke:#999; stroke-width:3;" />
  <line x1="3960" y1="50.0" x2="3960" y2="50.0" style="stroke:#999; stroke-width:3;" />
  <line x1="3960" y1="50.0" x2="3960" y2="50.0" style="stroke:#999; stroke-width:3;" />
  <line x1="3960" y1="50.0" x2="3980" y2="50.0" style="stroke:#999; stroke-width:3;" />
  <rect class="anc_exon" x="3980" y="35.0" width="108" height="30" style="fill:#87bcbc;fill-opacity:1.00" />
  <line x1="4088" y1="50.0" x2="4128" y2="50.0" style="stroke:#999; stroke-width:3;" />
  <rect class="anc_exon" x="4128" y="35.0" width="120" height="30" style="fill:#87bcbc;fill-opacity:1.00" />
  <line x1="4248" y1="50.0" x2="4268" y2="50.0" style="stroke:#999; stroke-width:3;" />
  <line x1="4268" y1="50.0" x2="4268" y2="50.0" style="stroke:#999; stroke-width:3;" />
  <line x1="4268" y1="50.0" x2="4268" y2="50.0" style="stroke:#999; stroke-width:3;" />
  <line x1="4268" y1="50.0" x2="4288" y2="50.0" style="stroke:#999; stroke-width:3;" />
  <rect class="anc_exon" x="4288" y="35.0" width="129" height="30" style="fill:#87bcbc;fill-opacity:1.00" />
  <line x1="4417" y1="50.0" x2="4457" y2="50.0" style="stroke:#999; stroke-width:3;" />
  <rect class="anc_exon" x="4457" y="35.0" width="103" height="30" style="fill:#87bcbc;fill-opacity:1.00" />
  <line x1="4560" y1="50.0" x2="4600" y2="50.0" style="stroke:#999; stroke-width:3;" />
  <rect class="anc_exon" x="4600" y="35.0" width="139" height="30" style="fill:#87bcbc;fill-opacity:1.00" />
  <line x1="4739" y1="50.0" x2="4779" y2="50.0" style="stroke:#999; stroke-width:3;" />
  <rect class="anc_exon" x="4779" y="35.0" width="124" height="30" style="fill:#87bcbc;fill-opacity:1.00" />
  <line x1="4903" y1="50.0" x2="4923" y2="50.0" style="stroke:#999; stroke-width:3;" />
  <line x1="4923" y1="50.0" x2="4923" y2="50.0" style="stroke:#999; stroke-width:3;" />
  <line x1="4923" y1="50.0" x2="4923" y2="50.0" style="stroke:#999; stroke-width:3;" />
  <line x1="4923" y1="50.0" x2="4943" y2="50.0" style="stroke:#999; stroke-width:3;" />
  <rect class="anc_exon" x="4943" y="35.0" width="136" height="30" style="fill:#87bcbc;fill-opacity:1.00" />
  <line x1="5079" y1="50.0" x2="5099" y2="50.0" style="stroke:#999; stroke-width:3;" />
  <line x1="5099" y1="50.0" x2="5099" y2="50.0" style="stroke:#999; stroke-width:3;" />
  <line x1="5099" y1="50.0" x2="5099" y2="50.0" style="stroke:#999; stroke-width:3;" />
  <line x1="5099" y1="50.0" x2="5119" y2="50.0" style="stroke:#999; stroke-width:3;" />
  <rect class="anc_exon" x="5119" y="35.0" width="144" height="30" style="fill:#87bcbc;fill-opacity:1.00" />
  <line x1="5263" y1="50.0" x2="5283" y2="50.0" style="stroke:#999; stroke-width:3;" />
  <line x1="5283" y1="50.0" x2="5283" y2="50.0" style="stroke:#999; stroke-width:3;" />
  <line x1="5283" y1="50.0" x2="5283" y2="50.0" style="stroke:#999; stroke-width:3;" />
  <line x1="5283" y1="50.0" x2="5303" y2="50.0" style="stroke:#999; stroke-width:3;" />
  <rect class="anc_exon" x="5303" y="35.0" width="103" height="30" style="fill:#87bcbc;fill-opacity:1.00" />
  <line x1="5406" y1="50.0" x2="5446" y2="50.0" style="stroke:#999; stroke-width:3;" />
  <rect class="anc_exon" x="5446" y="35.0" width="136" height="30" style="fill:#87bcbc;fill-opacity:1.00" />
  <line x1="5582" y1="50.0" x2="5602" y2="50.0" style="stroke:#999; stroke-width:3;" />
  <line x1="5602" y1="50.0" x2="5602" y2="50.0" style="stroke:#999; stroke-width:3;" />
  <line x1="5602" y1="50.0" x2="5602" y2="50.0" style="stroke:#999; stroke-width:3;" />
  <line x1="5602" y1="50.0" x2="5622" y2="50.0" style="stroke:#999; stroke-width:3;" />
  <rect class="anc_exon" x="5622" y="35.0" width="122" height="30" style="fill:#87bcbc;fill-opacity:1.00" />
  <line x1="5744" y1="50.0" x2="5784" y2="50.0" style="stroke:#999; stroke-width:3;" />
  <rect class="anc_exon" x="5784" y="35.0" width="110" height="30" style="fill:#87bcbc;fill-opacity:1.00" />
  <line x1="5894" y1="50.0" x2="5914" y2="50.0" style="stroke:#999; stroke-width:3;" />
  <line x1="5914" y1="50.0" x2="5914" y2="50.0" style="stroke:#999; stroke-width:3;" />
  <line x1="5914" y1="50.0" x2="5914" y2="50.0" style="stroke:#999; stroke-width:3;" />
  <line x1="5914" y1="50.0" x2="5934" y2="50.0" style="stroke:#999; stroke-width:3;" />
  <rect class="anc_exon" x="5934" y="35.0" width="156" height="30" style="fill:#87bcbc;fill-opacity:1.00" />
  <line x1="6090" y1="50.0" x2="6130" y2="50.0" style="stroke:#999; stroke-width:3;" />
  <rect class="anc_exon" x="6130" y="35.0" width="24" height="30" style="fill:#87bcbc;fill-opacity:1.00" />
  <line x1="6154" y1="50.0" x2="6174" y2="50.0" style="stroke:#999; stroke-width:3;" />
  <line x1="6174" y1="50.0" x2="6174" y2="50.0" style="stroke:#999; stroke-width:3;" />
  <line x1="6174" y1="50.0" x2="6174" y2="50.0" style="stroke:#999; stroke-width:3;" />
  <line x1="6174" y1="50.0" x2="6194" y2="50.0" style="stroke:#999; stroke-width:3;" />
  <rect class="anc_exon" x="6194" y="35.0" width="138" height="30" style="fill:#87bcbc;fill-opacity:1.00" />
  <line x1="6332" y1="50.0" x2="6352" y2="50.0" style="stroke:#999; stroke-width:3;" />
  <line x1="6352" y1="50.0" x2="6352" y2="50.0" style="stroke:#999; stroke-width:3;" />
  <line x1="6352" y1="50.0" x2="6352" y2="50.0" style="stroke:#999; stroke-width:3;" />
  <line x1="6352" y1="50.0" x2="6372" y2="50.0" style="stroke:#999; stroke-width:3;" />
  <rect class="anc_exon" x="6372" y="35.0" width="120" height="30" style="fill:#87bcbc;fill-opacity:1.00" />
  <line x1="6492" y1="50.0" x2="6532" y2="50.0" style="stroke:#999; stroke-width:3;" />
  <rect class="anc_exon" x="6532" y="35.0" width="140" height="30" style="fill:#87bcbc;fill-opacity:1.00" />
  <line x1="6672" y1="50.0" x2="6692" y2="50.0" style="stroke:#999; stroke-width:3;" />
  <line x1="6692" y1="50.0" x2="6692" y2="50.0" style="stroke:#999; stroke-width:3;" />
  <line x1="6692" y1="50.0" x2="6692" y2="50.0" style="stroke:#999; stroke-width:3;" />
  <line x1="6692" y1="50.0" x2="6712" y2="50.0" style="stroke:#999; stroke-width:3;" />
  <rect class="anc_exon" x="6712" y="35.0" width="108" height="30" style="fill:#87bcbc;fill-opacity:1.00" />
  <line x1="6820" y1="50.0" x2="6860" y2="50.0" style="stroke:#999; stroke-width:3;" />
  <rect class="anc_exon" x="6860" y="35.0" width="120" height="30" style="fill:#87bcbc;fill-opacity:1.00" />
  <line x1="6980" y1="50.0" x2="7000" y2="50.0" style="stroke:#999; stroke-width:3;" />
  <line x1="7000" y1="50.0" x2="7000" y2="50.0" style="stroke:#999; stroke-width:3;" />
  <line x1="7000" y1="50.0" x2="7000" y2="50.0" style="stroke:#999; stroke-width:3;" />
  <line x1="7000" y1="50.0" x2="7020" y2="50.0" style="stroke:#999; stroke-width:3;" />
  <rect class="anc_exon" x="7020" y="35.0" width="68" height="30" style="fill:#87bcbc;fill-opacity:1.00" />
  <line x1="7088" y1="50.0" x2="7108" y2="50.0" style="stroke:#999; stroke-width:3;" />
  <line x1="7108" y1="50.0" x2="7108" y2="50.0" style="stroke:#999; stroke-width:3;" />
  <line x1="7108" y1="50.0" x2="7108" y2="50.0" style="stroke:#999; stroke-width:3;" />
  <line x1="7108" y1="50.0" x2="7128" y2="50.0" style="stroke:#999; stroke-width:3;" />
  <rect class="anc_exon" x="7128" y="35.0" width="172" height="30" style="fill:#87bcbc;fill-opacity:1.00" />
  <line x1="7300" y1="50.0" x2="7340" y2="50.0" style="stroke:#999; stroke-width:3;" />
  <rect class="anc_exon" x="7340" y="35.0" width="94" height="30" style="fill:#87bcbc;fill-opacity:1.00" />
  <line x1="7434" y1="50.0" x2="7474" y2="50.0" style="stroke:#999; stroke-width:3;" />
  <rect class="anc_exon" x="7474" y="35.0" width="164" height="30" style="fill:#87bcbc;fill-opacity:1.00" />
  <line x1="7638" y1="50.0" x2="7658" y2="50.0" style="stroke:#999; stroke-width:3;" />
  <line x1="7658" y1="50.0" x2="7658" y2="50.0" style="stroke:#999; stroke-width:3;" />
  <line x1="7658" y1="50.0" x2="7658" y2="50.0" style="stroke:#999; stroke-width:3;" />
  <line x1="7658" y1="50.0" x2="7678" y2="50.0" style="stroke:#999; stroke-width:3;" />
  <rect class="anc_exon" x="7678" y="35.0" width="124" height="30" style="fill:#87bcbc;fill-opacity:1.00" />
  <line x1="7802" y1="50.0" x2="7822" y2="50.0" style="stroke:#999; stroke-width:3;" />
  <line x1="7822" y1="50.0" x2="7822" y2="50.0" style="stroke:#999; stroke-width:3;" />
  <line x1="7822" y1="50.0" x2="7822" y2="50.0" style="stroke:#999; stroke-width:3;" />
  <line x1="7822" y1="50.0" x2="7842" y2="50.0" style="stroke:#999; stroke-width:3;" />
  <rect class="anc_exon" x="7842" y="35.0" width="152" height="30" style="fill:#87bcbc;fill-opacity:1.00" />
  <line x1="7994" y1="50.0" x2="8014" y2="50.0" style="stroke:#999; stroke-width:3;" />
  <line x1="8014" y1="50.0" x2="8014" y2="50.0" style="stroke:#999; stroke-width:3;" />
  <line x1="8014" y1="50.0" x2="8014" y2="50.0" style="stroke:#999; stroke-width:3;" />
  <line x1="8014" y1="50.0" x2="8034" y2="50.0" style="stroke:#999; stroke-width:3;" />
  <rect class="anc_exon" x="8034" y="35.0" width="138" height="30" style="fill:#87bcbc;fill-opacity:1.00" />
  <line x1="8172" y1="50.0" x2="8192" y2="50.0" style="stroke:#999; stroke-width:3;" />
  <line x1="8192" y1="50.0" x2="8192" y2="50.0" style="stroke:#999; stroke-width:3;" />
  <line x1="8192" y1="50.0" x2="8192" y2="50.0" style="stroke:#999; stroke-width:3;" />
  <line x1="8192" y1="50.0" x2="8212" y2="50.0" style="stroke:#999; stroke-width:3;" />
  <rect class="anc_exon" x="8212" y="35.0" width="125" height="30" style="fill:#87bcbc;fill-opacity:1.00" />
  <line x1="8337" y1="50.0" x2="8357" y2="50.0" style="stroke:#999; stroke-width:3;" />
  <line x1="8357" y1="50.0" x2="8357" y2="50.0" style="stroke:#999; stroke-width:3;" />
  <line x1="8357" y1="50.0" x2="8357" y2="50.0" style="stroke:#999; stroke-width:3;" />
  <line x1="8357" y1="50.0" x2="8377" y2="50.0" style="stroke:#999; stroke-width:3;" />
  <rect class="anc_exon" x="8377" y="35.0" width="104" height="30" style="fill:#87bcbc;fill-opacity:1.00" />
  <line x1="8481" y1="50.0" x2="8501" y2="50.0" style="stroke:#999; stroke-width:3;" />
  <line x1="8501" y1="50.0" x2="8501" y2="50.0" style="stroke:#999; stroke-width:3;" />
  <line x1="8501" y1="50.0" x2="8501" y2="50.0" style="stroke:#999; stroke-width:3;" />
  <line x1="8501" y1="50.0" x2="8521" y2="50.0" style="stroke:#999; stroke-width:3;" />
  <rect class="anc_exon" x="8521" y="35.0" width="215" height="30" style="fill:#87bcbc;fill-opacity:1.00" />
  <line x1="8736" y1="50.0" x2="8756" y2="50.0" style="stroke:#999; stroke-width:3;" />
  <line x1="8756" y1="50.0" x2="8756" y2="50.0" style="stroke:#999; stroke-width:3;" />
  <line x1="8756" y1="50.0" x2="8756" y2="50.0" style="stroke:#999; stroke-width:3;" />
  <line x1="8756" y1="50.0" x2="8776" y2="50.0" style="stroke:#999; stroke-width:3;" />
  <rect class="anc_exon" x="8776" y="35.0" width="117" height="30" style="fill:#87bcbc;fill-opacity:1.00" />
  <line x1="8893" y1="50.0" x2="8913" y2="50.0" style="stroke:#999; stroke-width:3;" />
  <line x1="8913" y1="50.0" x2="8913" y2="50.0" style="stroke:#999; stroke-width:3;" />
  <line x1="8913" y1="50.0" x2="8913" y2="50.0" style="stroke:#999; stroke-width:3;" />
  <line x1="8913" y1="50.0" x2="8933" y2="50.0" style="stroke:#999; stroke-width:3;" />
  <rect class="anc_exon" x="8933" y="35.0" width="63" height="30" style="fill:#87bcbc;fill-opacity:1.00" />
  <line x1="8996" y1="50.0" x2="9016" y2="50.0" style="stroke:#999; stroke-width:3;" />
  <line x1="9016" y1="50.0" x2="9016" y2="50.0" style="stroke:#999; stroke-width:3;" />
  <line x1="9016" y1="50.0" x2="9016" y2="50.0" style="stroke:#999; stroke-width:3;" />
  <line x1="9016" y1="50.0" x2="9036" y2="50.0" style="stroke:#999; stroke-width:3;" />
  <rect class="anc_exon" x="9036" y="35.0" width="48" height="30" style="fill:#87bcbc;fill-opacity:1.00" />
  <line x1="9084" y1="50.0" x2="9104" y2="50.0" style="stroke:#999; stroke-width:3;" />
  <line x1="9104" y1="50.0" x2="9104" y2="50.0" style="stroke:#999; stroke-width:3;" />
  <line x1="9104" y1="50.0" x2="9104" y2="50.0" style="stroke:#999; stroke-width:3;" />
  <line x1="9104" y1="50.0" x2="9124" y2="50.0" style="stroke:#999; stroke-width:3;" />
  <rect class="anc_exon" x="9124" y="35.0" width="49" height="30" style="fill:#87bcbc;fill-opacity:1.00" />
  <line x1="9173" y1="50.0" x2="9193" y2="50.0" style="stroke:#999; stroke-width:3;" />
  <line x1="9193" y1="50.0" x2="9193" y2="50.0" style="stroke:#999; stroke-width:3;" />
  <line x1="9193" y1="50.0" x2="9193" y2="50.0" style="stroke:#999; stroke-width:3;" />
  <line x1="9193" y1="50.0" x2="9213" y2="50.0" style="stroke:#999; stroke-width:3;" />
  <rect class="anc_exon" x="9213" y="35.0" width="60" height="30" style="fill:#87bcbc;fill-opacity:1.00" />
  <line x1="9273" y1="50.0" x2="9293" y2="50.0" style="stroke:#999; stroke-width:3;" />
  <line x1="9293" y1="50.0" x2="9293" y2="50.0" style="stroke:#999; stroke-width:3;" />
  <line x1="9293" y1="50.0" x2="9293" y2="50.0" style="stroke:#999; stroke-width:3;" />
  <line x1="9293" y1="50.0" x2="9313" y2="50.0" style="stroke:#999; stroke-width:3;" />
  <rect class="anc_exon" x="9313" y="35.0" width="161" height="30" style="fill:#87bcbc;fill-opacity:1.00" />
  <line x1="9474" y1="50.0" x2="9494" y2="50.0" style="stroke:#999; stroke-width:3;" />
  <line x1="9494" y1="50.0" x2="9494" y2="50.0" style="stroke:#999; stroke-width:3;" />
  <line x1="9494" y1="50.0" x2="9494" y2="50.0" style="stroke:#999; stroke-width:3;" />
  <line x1="9494" y1="50.0" x2="9514" y2="50.0" style="stroke:#999; stroke-width:3;" />
  <rect class="anc_exon" x="9514" y="35.0" width="68" height="30" style="fill:#87bcbc;fill-opacity:1.00" />
  <line x1="9582" y1="50.0" x2="9602" y2="50.0" style="stroke:#999; stroke-width:3;" />
  <line x1="9602" y1="50.0" x2="9602" y2="50.0" style="stroke:#999; stroke-width:3;" />
  <line x1="9602" y1="50.0" x2="9602" y2="50.0" style="stroke:#999; stroke-width:3;" />
  <line x1="9602" y1="50.0" x2="9622" y2="50.0" style="stroke:#999; stroke-width:3;" />
  <rect class="anc_exon" x="9622" y="35.0" width="126" height="30" style="fill:#87bcbc;fill-opacity:1.00" />
  <line x1="9748" y1="50.0" x2="9768" y2="50.0" style="stroke:#999; stroke-width:3;" />
  <line x1="9768" y1="50.0" x2="9768" y2="50.0" style="stroke:#999; stroke-width:3;" />
  <line x1="9768" y1="50.0" x2="9768" y2="50.0" style="stroke:#999; stroke-width:3;" />
  <line x1="9768" y1="50.0" x2="9788" y2="50.0" style="stroke:#999; stroke-width:3;" />
  <rect class="anc_exon" x="9788" y="35.0" width="133" height="30" style="fill:#87bcbc;fill-opacity:1.00" />
  <line x1="9921" y1="50.0" x2="9941" y2="50.0" style="stroke:#999; stroke-width:3;" />
  <line x1="9941" y1="50.0" x2="9941" y2="50.0" style="stroke:#999; stroke-width:3;" />
  <line x1="9941" y1="50.0" x2="9941" y2="50.0" style="stroke:#999; stroke-width:3;" />
  <line x1="9941" y1="50.0" x2="9961" y2="50.0" style="stroke:#999; stroke-width:3;" />
  <rect class="anc_exon" x="9961" y="35.0" width="89" height="30" style="fill:#87bcbc;fill-opacity:1.00" />
  <line x1="10050" y1="50.0" x2="10070" y2="50.0" style="stroke:#999; stroke-width:3;" />
  <line x1="10070" y1="50.0" x2="10070" y2="50.0" style="stroke:#999; stroke-width:3;" />
  <line x1="10070" y1="50.0" x2="10070" y2="50.0" style="stroke:#999; stroke-width:3;" />
  <line x1="10070" y1="50.0" x2="10090" y2="50.0" style="stroke:#999; stroke-width:3;" />
  <rect class="anc_exon" x="10090" y="35.0" width="109" height="30" style="fill:#87bcbc;fill-opacity:1.00" />
  <line x1="10199" y1="50.0" x2="10219" y2="50.0" style="stroke:#999; stroke-width:3;" />
  <line x1="10219" y1="50.0" x2="10219" y2="50.0" style="stroke:#999; stroke-width:3;" />
  <line x1="10219" y1="50.0" x2="10219" y2="50.0" style="stroke:#999; stroke-width:3;" />
  <line x1="10219" y1="50.0" x2="10239" y2="50.0" style="stroke:#999; stroke-width:3;" />
  <rect class="anc_exon" x="10239" y="35.0" width="31" height="30" style="fill:#87bcbc;fill-opacity:1.00" />
  <line x1="10270" y1="50.0" x2="10310" y2="50.0" style="stroke:#999; stroke-width:3;" />
  <rect class="anc_exon" x="10310" y="35.0" width="52" height="30" style="fill:#87bcbc;fill-opacity:1.00" />
  <line x1="10362" y1="50.0" x2="10382" y2="50.0" style="stroke:#999; stroke-width:3;" />
  <line x1="10382" y1="50.0" x2="10382" y2="50.0" style="stroke:#999; stroke-width:3;" />
  <line x1="10382" y1="50.0" x2="10382" y2="50.0" style="stroke:#999; stroke-width:3;" />
  <line x1="10382" y1="50.0" x2="10402" y2="50.0" style="stroke:#999; stroke-width:3;" />
  <rect class="anc_exon" x="10402" y="35.0" width="52" height="30" style="fill:#87bcbc;fill-opacity:1.00" />
  <line x1="10454" y1="50.0" x2="10474" y2="50.0" style="stroke:#999; stroke-width:3;" />
  <line x1="10474" y1="50.0" x2="10474" y2="50.0" style="stroke:#999; stroke-width:3;" />
  <line x1="10474" y1="50.0" x2="10474" y2="50.0" style="stroke:#999; stroke-width:3;" />
  <line x1="10474" y1="50.0" x2="10494" y2="50.0" style="stroke:#999; stroke-width:3;" />
  <rect class="anc_exon" x="10494" y="35.0" width="127" height="30" style="fill:#87bcbc;fill-opacity:1.00" />
  <line x1="10621" y1="50.0" x2="10661" y2="50.0" style="stroke:#999; stroke-width:3;" />
  <rect class="anc_exon" x="10661" y="35.0" width="195" height="30" style="fill:#87bcbc;fill-opacity:1.00" />
  <line x1="10856" y1="50.0" x2="10896" y2="50.0" style="stroke:#999; stroke-width:3;" />
  <rect class="anc_exon" x="10896" y="35.0" width="87" height="30" style="fill:#87bcbc;fill-opacity:1.00" />
  <line x1="10983" y1="50.0" x2="11003" y2="50.0" style="stroke:#999; stroke-width:3;" />
  <line x1="11003" y1="50.0" x2="11003" y2="50.0" style="stroke:#999; stroke-width:3;" />
  <line x1="11003" y1="50.0" x2="11003" y2="50.0" style="stroke:#999; stroke-width:3;" />
  <line x1="11003" y1="50.0" x2="11023" y2="50.0" style="stroke:#999; stroke-width:3;" />
  <rect class="anc_exon" x="11023" y="35.0" width="74" height="30" style="fill:#87bcbc;fill-opacity:1.00" />
  <line x1="11097" y1="50.0" x2="11117" y2="50.0" style="stroke:#999; stroke-width:3;" />
  <line x1="11117" y1="50.0" x2="11117" y2="50.0" style="stroke:#999; stroke-width:3;" />
  <line x1="11117" y1="50.0" x2="11117" y2="50.0" style="stroke:#999; stroke-width:3;" />
  <line x1="11117" y1="50.0" x2="11137" y2="50.0" style="stroke:#999; stroke-width:3;" />
  <rect class="anc_exon" x="11137" y="35.0" width="18" height="30" style="fill:#87bcbc;fill-opacity:1.00" />
  <line x1="11155" y1="50.0" x2="11175" y2="50.0" style="stroke:#999; stroke-width:3;" />
  <line x1="11175" y1="50.0" x2="11175" y2="50.0" style="stroke:#999; stroke-width:3;" />
  <line x1="11175" y1="50.0" x2="11175" y2="50.0" style="stroke:#999; stroke-width:3;" />
  <line x1="11175" y1="50.0" x2="11195" y2="50.0" style="stroke:#999; stroke-width:3;" />
  <rect class="anc_exon" x="11195" y="35.0" width="7" height="30" style="fill:#87bcbc;fill-opacity:1.00" />
  <rect class="anc_exon" x="11202" y="35.0" width="0" height="30" style="fill:#87bcbc;fill-opacity:1.00" />
  <text style="" >
<tspan x="0" y="83.0" style="font-size:18px;" >SP XM_012549382_3.1</tspan>  </text>



<script type="text/ecmascript">
<![CDATA[
function draw_bbox(text_id)
{
    var text_elem = document.getElementById(text_id);
    var offset_px = 2;
    var offset_py = 0;
    bbox = text_elem.getBBox();
    var box = document.createElementNS(document.rootElement.namespaceURI,'rect');
    box.setAttribute('x', bbox.x - offset_px);
    box.setAttribute('y', bbox.y - offset_py);
    box.setAttribute('width', bbox.width + offset_px * 2);
    box.setAttribute('height', bbox.height + offset_py * 2);
    box.setAttribute('style','fill: white;'+'stroke: black;'+'stroke-width: 1px;');
    text_elem.insertBefore(box,text_elem.childNodes[0]);

    var svg = text_elem.parentNode;
    svg.appendChild(text_elem);
}

for (var i=1; i < 1; i++)
{
draw_bbox("Mouseover" + i);
}
]]> 
</script>
</svg>
