<svg version="1.1"
xmlns="http://www.w3.org/2000/svg"
xmlns:xlink="http://www.w3.org/1999/xlink"
width="3369" height="100" viewBox = "0 0 3369 100"
onclick="mouseclick(evt)">

<script type="text/ecmascript">

<![CDATA[
    function mouseover(evt, target) { 
    var gv = document.getElementById("globalVariable");
    var previoustarget = gv.firstChild.nodeValue;
    if (previoustarget != "none") 
    {
        	document.getElementById(gv.firstChild.nodeValue).setAttributeNS(null, "visibility", "hidden");
    }
    document.getElementById(target).setAttributeNS(null, "visibility", "visible");
    gv.firstChild.nodeValue = target;
        }

    function mouseclick(evt) { 
    var gv = document.getElementById("globalVariable");
    var previoustarget = gv.firstChild.nodeValue;
    if (previoustarget != "none") {
        	document.getElementById(gv.firstChild.nodeValue).setAttributeNS(null, "visibility", "hidden");
        }
    }
]]>
  </script>
<style type="text/css" >

<![CDATA[
    rect.anc_exon {
              stroke-width:3;
                  }

    rect.non_anc_exon {
              stroke: black; stroke-width:3; stroke-dasharray: 5,5;
                    }

    text {
              font-size: 18px;
              font-family: Courier New;
          }
                    ]]>
</style>

<defs>
    <text x="150" y="40" id="globalVariable">none</text>
</defs>

  <rect class="anc_exon" x="0" y="35.0" width="0" height="30" style="fill:#87bcbc;fill-opacity:1.00" />
  <rect class="anc_exon" x="0" y="35.0" width="52.0" height="30" style="fill:#87bcbc;fill-opacity:1.00" />
  <line x1="52.0" y1="50.0" x2="92.0" y2="50.0" style="stroke:#999; stroke-width:3;" />
  <rect class="anc_exon" x="92" y="35.0" width="160" height="30" style="fill:#87bcbc;fill-opacity:1.00" />
  <line x1="252" y1="50.0" x2="292" y2="50.0" style="stroke:#999; stroke-width:3;" />
  <rect class="anc_exon" x="292" y="35.0" width="108" height="30" style="fill:#87bcbc;fill-opacity:1.00" />
  <line x1="400" y1="50.0" x2="440" y2="50.0" style="stroke:#999; stroke-width:3;" />
  <rect class="anc_exon" x="440" y="35.0" width="716" height="30" style="fill:#878787;fill-opacity:1.00" />
  <line x1="1156" y1="50.0" x2="1196" y2="50.0" style="stroke:#999; stroke-width:3;" />
  <rect class="anc_exon" x="1196" y="35.0" width="101" height="30" style="fill:#87bcbc;fill-opacity:1.00" />
  <line x1="1297" y1="50.0" x2="1337" y2="50.0" style="stroke:#999; stroke-width:3;" />
  <rect class="anc_exon" x="1337" y="35.0" width="108" height="30" style="fill:#87bcbc;fill-opacity:1.00" />
  <line x1="1445" y1="50.0" x2="1485" y2="50.0" style="stroke:#999; stroke-width:3;" />
  <rect class="anc_exon" x="1485" y="35.0" width="92" height="30" style="fill:#87bcbc;fill-opacity:1.00" />
  <line x1="1577" y1="50.0" x2="1617" y2="50.0" style="stroke:#999; stroke-width:3;" />
  <rect class="anc_exon" x="1617" y="35.0" width="148" height="30" style="fill:#87bcbc;fill-opacity:1.00" />
  <line x1="1765" y1="50.0" x2="1805" y2="50.0" style="stroke:#999; stroke-width:3;" />
  <rect class="anc_exon" x="1805" y="35.0" width="63" height="30" style="fill:#87bcbc;fill-opacity:1.00" />
  <line x1="1868" y1="50.0" x2="1908" y2="50.0" style="stroke:#999; stroke-width:3;" />
  <rect class="anc_exon" x="1908" y="35.0" width="178" height="30" style="fill:#87bcbc;fill-opacity:1.00" />
  <line x1="2086" y1="50.0" x2="2126" y2="50.0" style="stroke:#999; stroke-width:3;" />
  <rect class="anc_exon" x="2126" y="35.0" width="258" height="30" style="fill:#87bcbc;fill-opacity:1.00" />
  <line x1="2384" y1="50.0" x2="2424" y2="50.0" style="stroke:#999; stroke-width:3;" />
  <rect class="anc_exon" x="2424" y="35.0" width="155" height="30" style="fill:#87bcbc;fill-opacity:1.00" />
  <line x1="2579" y1="50.0" x2="2619" y2="50.0" style="stroke:#999; stroke-width:3;" />
  <rect class="anc_exon" x="2619" y="35.0" width="161" height="30" style="fill:#87bcbc;fill-opacity:1.00" />
  <line x1="2780" y1="50.0" x2="2820" y2="50.0" style="stroke:#999; stroke-width:3;" />
  <rect class="anc_exon" x="2820" y="35.0" width="57" height="30" style="fill:#87bcbc;fill-opacity:1.00" />
  <line x1="2877" y1="50.0" x2="2917" y2="50.0" style="stroke:#999; stroke-width:3;" />
  <rect class="anc_exon" x="2917" y="35.0" width="16" height="30" style="fill:#87bcbc;fill-opacity:1.00" />
  <line x1="2933" y1="50.0" x2="2973" y2="50.0" style="stroke:#999; stroke-width:3;" />
  <rect class="anc_exon" x="2973" y="35.0" width="157" height="30" style="fill:#87bcbc;fill-opacity:1.00" />
  <line x1="3130" y1="50.0" x2="3170" y2="50.0" style="stroke:#999; stroke-width:3;" />
  <rect class="anc_exon" x="3170" y="35.0" width="60" height="30" style="fill:#87bcbc;fill-opacity:1.00" />
  <line x1="3230" y1="50.0" x2="3270" y2="50.0" style="stroke:#999; stroke-width:3;" />
  <rect class="anc_exon" x="3270" y="35.0" width="63" height="30" style="fill:#87bcbc;fill-opacity:1.00" />
  <rect class="anc_exon" x="3333" y="35.0" width="0" height="30" style="fill:#87bcbc;fill-opacity:1.00" />
  <text style="" >
<tspan x="0" y="83.0" style="font-size:18px;" >SP XM_031965377_1.1</tspan>  </text>
  <text style="fill:#121212;" >
<tspan x="2780" y="50.0" style="font-size:18px;fill:#121212;" >ca</tspan>  </text>



<script type="text/ecmascript">
<![CDATA[
function draw_bbox(text_id)
{
    var text_elem = document.getElementById(text_id);
    var offset_px = 2;
    var offset_py = 0;
    bbox = text_elem.getBBox();
    var box = document.createElementNS(document.rootElement.namespaceURI,'rect');
    box.setAttribute('x', bbox.x - offset_px);
    box.setAttribute('y', bbox.y - offset_py);
    box.setAttribute('width', bbox.width + offset_px * 2);
    box.setAttribute('height', bbox.height + offset_py * 2);
    box.setAttribute('style','fill: white;'+'stroke: black;'+'stroke-width: 1px;');
    text_elem.insertBefore(box,text_elem.childNodes[0]);

    var svg = text_elem.parentNode;
    svg.appendChild(text_elem);
}

for (var i=1; i < 1; i++)
{
draw_bbox("Mouseover" + i);
}
]]> 
</script>
</svg>
