<svg version="1.1"
xmlns="http://www.w3.org/2000/svg"
xmlns:xlink="http://www.w3.org/1999/xlink"
width="1684" height="100" viewBox = "0 0 1684 100"
onclick="mouseclick(evt)">

<script type="text/ecmascript">

<![CDATA[
    function mouseover(evt, target) { 
    var gv = document.getElementById("globalVariable");
    var previoustarget = gv.firstChild.nodeValue;
    if (previoustarget != "none") 
    {
        	document.getElementById(gv.firstChild.nodeValue).setAttributeNS(null, "visibility", "hidden");
    }
    document.getElementById(target).setAttributeNS(null, "visibility", "visible");
    gv.firstChild.nodeValue = target;
        }

    function mouseclick(evt) { 
    var gv = document.getElementById("globalVariable");
    var previoustarget = gv.firstChild.nodeValue;
    if (previoustarget != "none") {
        	document.getElementById(gv.firstChild.nodeValue).setAttributeNS(null, "visibility", "hidden");
        }
    }
]]>
  </script>
<style type="text/css" >

<![CDATA[
    rect.anc_exon {
              stroke-width:3;
                  }

    rect.non_anc_exon {
              stroke: black; stroke-width:3; stroke-dasharray: 5,5;
                    }

    text {
              font-size: 18px;
              font-family: Courier New;
          }
                    ]]>
</style>

<defs>
    <text x="150" y="40" id="globalVariable">none</text>
</defs>

  <rect class="anc_exon" x="0" y="35.0" width="0" height="30" style="fill:#87bcbc;fill-opacity:1.00" />
  <rect class="anc_exon" x="0" y="35.0" width="43.2" height="30" style="fill:#87bcbc;fill-opacity:1.00" />
  <line x1="43.2" y1="50.0" x2="62.2" y2="50.0" style="stroke:#999; stroke-width:3;" />
  <line x1="62.2" y1="50.0" x2="62.2" y2="50.0" style="stroke:#999; stroke-width:3;" />
  <line x1="62.2" y1="50.0" x2="62.2" y2="50.0" style="stroke:#999; stroke-width:3;" />
  <line x1="62.2" y1="50.0" x2="83.0" y2="50.0" style="stroke:#999; stroke-width:3;" />
  <rect class="anc_exon" x="83" y="35.0" width="163" height="30" style="fill:#87bcbc;fill-opacity:1.00" />
  <line x1="246" y1="50.0" x2="286" y2="50.0" style="stroke:#999; stroke-width:3;" />
  <rect class="anc_exon" x="286" y="35.0" width="108" height="30" style="fill:#87bcbc;fill-opacity:1.00" />
  <line x1="394" y1="50.0" x2="434" y2="50.0" style="stroke:#999; stroke-width:3;" />
  <rect class="anc_exon" x="434" y="35.0" width="168" height="30" style="fill:#87bcbc;fill-opacity:1.00" />
  <line x1="602" y1="50.0" x2="642" y2="50.0" style="stroke:#999; stroke-width:3;" />
  <rect class="anc_exon" x="642" y="35.0" width="45" height="30" style="fill:#87bcbc;fill-opacity:1.00" />
  <line x1="687" y1="50.0" x2="707" y2="50.0" style="stroke:#999; stroke-width:3;" />
  <line x1="707" y1="50.0" x2="707" y2="50.0" style="stroke:#999; stroke-width:3;" />
  <line x1="707" y1="50.0" x2="707" y2="50.0" style="stroke:#999; stroke-width:3;" />
  <line x1="707" y1="50.0" x2="727" y2="50.0" style="stroke:#999; stroke-width:3;" />
  <rect class="anc_exon" x="727" y="35.0" width="152" height="30" style="fill:#87bcbc;fill-opacity:1.00" />
  <line x1="879" y1="50.0" x2="919" y2="50.0" style="stroke:#999; stroke-width:3;" />
  <rect class="anc_exon" x="919" y="35.0" width="16" height="30" style="fill:#87bcbc;fill-opacity:1.00" />
  <line x1="935" y1="50.0" x2="975" y2="50.0" style="stroke:#999; stroke-width:3;" />
  <rect class="anc_exon" x="975" y="35.0" width="104" height="30" style="fill:#87bcbc;fill-opacity:1.00" />
  <line x1="1079" y1="50.0" x2="1099" y2="50.0" style="stroke:#999; stroke-width:3;" />
  <line x1="1099" y1="50.0" x2="1099" y2="50.0" style="stroke:#999; stroke-width:3;" />
  <line x1="1099" y1="50.0" x2="1099" y2="50.0" style="stroke:#999; stroke-width:3;" />
  <line x1="1099" y1="50.0" x2="1119" y2="50.0" style="stroke:#999; stroke-width:3;" />
  <rect class="anc_exon" x="1119" y="35.0" width="192" height="30" style="fill:#87bcbc;fill-opacity:1.00" />
  <line x1="1311" y1="50.0" x2="1351" y2="50.0" style="stroke:#999; stroke-width:3;" />
  <rect class="anc_exon" x="1351" y="35.0" width="248" height="30" style="fill:#87bcbc;fill-opacity:1.00" />
  <line x1="1599" y1="50.0" x2="1639" y2="50.0" style="stroke:#999; stroke-width:3;" />
  <rect class="anc_exon" x="1639" y="35.0" width="9" height="30" style="fill:#87bcbc;fill-opacity:1.00" />
  <rect class="anc_exon" x="1648" y="35.0" width="0" height="30" style="fill:#87bcbc;fill-opacity:1.00" />
  <text style="" >
<tspan x="0" y="83.0" style="font-size:18px;" >SP XM_031966774_1.1</tspan>  </text>



<script type="text/ecmascript">
<![CDATA[
function draw_bbox(text_id)
{
    var text_elem = document.getElementById(text_id);
    var offset_px = 2;
    var offset_py = 0;
    bbox = text_elem.getBBox();
    var box = document.createElementNS(document.rootElement.namespaceURI,'rect');
    box.setAttribute('x', bbox.x - offset_px);
    box.setAttribute('y', bbox.y - offset_py);
    box.setAttribute('width', bbox.width + offset_px * 2);
    box.setAttribute('height', bbox.height + offset_py * 2);
    box.setAttribute('style','fill: white;'+'stroke: black;'+'stroke-width: 1px;');
    text_elem.insertBefore(box,text_elem.childNodes[0]);

    var svg = text_elem.parentNode;
    svg.appendChild(text_elem);
}

for (var i=1; i < 1; i++)
{
draw_bbox("Mouseover" + i);
}
]]> 
</script>
</svg>
