<svg version="1.1"
xmlns="http://www.w3.org/2000/svg"
xmlns:xlink="http://www.w3.org/1999/xlink"
width="863" height="100" viewBox = "0 0 863 100"
onclick="mouseclick(evt)">

<script type="text/ecmascript">

<![CDATA[
    function mouseover(evt, target) { 
    var gv = document.getElementById("globalVariable");
    var previoustarget = gv.firstChild.nodeValue;
    if (previoustarget != "none") 
    {
        	document.getElementById(gv.firstChild.nodeValue).setAttributeNS(null, "visibility", "hidden");
    }
    document.getElementById(target).setAttributeNS(null, "visibility", "visible");
    gv.firstChild.nodeValue = target;
        }

    function mouseclick(evt) { 
    var gv = document.getElementById("globalVariable");
    var previoustarget = gv.firstChild.nodeValue;
    if (previoustarget != "none") {
        	document.getElementById(gv.firstChild.nodeValue).setAttributeNS(null, "visibility", "hidden");
        }
    }
]]>
  </script>
<style type="text/css" >

<![CDATA[
    rect.anc_exon {
              stroke-width:3;
                  }

    rect.non_anc_exon {
              stroke: black; stroke-width:3; stroke-dasharray: 5,5;
                    }

    text {
              font-size: 18px;
              font-family: Courier New;
          }
                    ]]>
</style>

<defs>
    <text x="150" y="40" id="globalVariable">none</text>
</defs>

  <rect class="anc_exon" x="0" y="35.0" width="0" height="30" style="fill:#87bcbc;fill-opacity:1.00" />
  <rect class="anc_exon" x="0" y="35.0" width="24.8" height="30" style="fill:#878787;fill-opacity:1.00" />
  <line x1="24.8" y1="50.0" x2="43.8" y2="50.0" style="stroke:#999; stroke-width:3;" />
  <line x1="43.8" y1="50.0" x2="43.8" y2="50.0" style="stroke:#999; stroke-width:3;" />
  <line x1="43.8" y1="50.0" x2="43.8" y2="50.0" style="stroke:#999; stroke-width:3;" />
  <line x1="43.8" y1="50.0" x2="64.0" y2="50.0" style="stroke:#999; stroke-width:3;" />
  <rect class="anc_exon" x="64" y="35.0" width="96" height="30" style="fill:#87bcbc;fill-opacity:1.00" />
  <line x1="160" y1="50.0" x2="180" y2="50.0" style="stroke:#999; stroke-width:3;" />
  <line x1="180" y1="50.0" x2="180" y2="50.0" style="stroke:#999; stroke-width:3;" />
  <line x1="180" y1="50.0" x2="180" y2="50.0" style="stroke:#999; stroke-width:3;" />
  <line x1="180" y1="50.0" x2="200" y2="50.0" style="stroke:#999; stroke-width:3;" />
  <rect class="anc_exon" x="200" y="35.0" width="70" height="30" style="fill:#87bcbc;fill-opacity:1.00" />
  <line x1="270" y1="50.0" x2="310" y2="50.0" style="stroke:#999; stroke-width:3;" />
  <rect class="anc_exon" x="310" y="35.0" width="86" height="30" style="fill:#87bcbc;fill-opacity:1.00" />
  <line x1="396" y1="50.0" x2="416" y2="50.0" style="stroke:#999; stroke-width:3;" />
  <line x1="416" y1="50.0" x2="416" y2="50.0" style="stroke:#999; stroke-width:3;" />
  <line x1="416" y1="50.0" x2="416" y2="50.0" style="stroke:#999; stroke-width:3;" />
  <line x1="416" y1="50.0" x2="436" y2="50.0" style="stroke:#999; stroke-width:3;" />
  <rect class="anc_exon" x="436" y="35.0" width="73" height="30" style="fill:#87bcbc;fill-opacity:1.00" />
  <line x1="509" y1="50.0" x2="529" y2="50.0" style="stroke:#999; stroke-width:3;" />
  <line x1="529" y1="50.0" x2="529" y2="50.0" style="stroke:#999; stroke-width:3;" />
  <line x1="529" y1="50.0" x2="529" y2="50.0" style="stroke:#999; stroke-width:3;" />
  <line x1="529" y1="50.0" x2="549" y2="50.0" style="stroke:#999; stroke-width:3;" />
  <rect class="anc_exon" x="549" y="35.0" width="60" height="30" style="fill:#87bcbc;fill-opacity:1.00" />
  <line x1="609" y1="50.0" x2="629" y2="50.0" style="stroke:#999; stroke-width:3;" />
  <line x1="629" y1="50.0" x2="629" y2="50.0" style="stroke:#999; stroke-width:3;" />
  <line x1="629" y1="50.0" x2="629" y2="50.0" style="stroke:#999; stroke-width:3;" />
  <line x1="629" y1="50.0" x2="649" y2="50.0" style="stroke:#999; stroke-width:3;" />
  <rect class="anc_exon" x="649" y="35.0" width="24" height="30" style="fill:#87bcbc;fill-opacity:1.00" />
  <line x1="673" y1="50.0" x2="693" y2="50.0" style="stroke:#999; stroke-width:3;" />
  <line x1="693" y1="50.0" x2="693" y2="50.0" style="stroke:#999; stroke-width:3;" />
  <line x1="693" y1="50.0" x2="693" y2="50.0" style="stroke:#999; stroke-width:3;" />
  <line x1="693" y1="50.0" x2="713" y2="50.0" style="stroke:#999; stroke-width:3;" />
  <rect class="anc_exon" x="713" y="35.0" width="66" height="30" style="fill:#87bcbc;fill-opacity:1.00" />
  <line x1="779" y1="50.0" x2="819" y2="50.0" style="stroke:#999; stroke-width:3;" />
  <rect class="anc_exon" x="819" y="35.0" width="8" height="30" style="fill:#87bcbc;fill-opacity:1.00" />
  <rect class="anc_exon" x="827" y="35.0" width="0" height="30" style="fill:#87bcbc;fill-opacity:1.00" />
  <text style="" >
<tspan x="0" y="83.0" style="font-size:18px;" >SP XM_031967750_1.1</tspan>  </text>



<script type="text/ecmascript">
<![CDATA[
function draw_bbox(text_id)
{
    var text_elem = document.getElementById(text_id);
    var offset_px = 2;
    var offset_py = 0;
    bbox = text_elem.getBBox();
    var box = document.createElementNS(document.rootElement.namespaceURI,'rect');
    box.setAttribute('x', bbox.x - offset_px);
    box.setAttribute('y', bbox.y - offset_py);
    box.setAttribute('width', bbox.width + offset_px * 2);
    box.setAttribute('height', bbox.height + offset_py * 2);
    box.setAttribute('style','fill: white;'+'stroke: black;'+'stroke-width: 1px;');
    text_elem.insertBefore(box,text_elem.childNodes[0]);

    var svg = text_elem.parentNode;
    svg.appendChild(text_elem);
}

for (var i=1; i < 1; i++)
{
draw_bbox("Mouseover" + i);
}
]]> 
</script>
</svg>
