<svg version="1.1"
xmlns="http://www.w3.org/2000/svg"
xmlns:xlink="http://www.w3.org/1999/xlink"
width="2474" height="100" viewBox = "0 0 2474 100"
onclick="mouseclick(evt)">

<script type="text/ecmascript">

<![CDATA[
    function mouseover(evt, target) { 
    var gv = document.getElementById("globalVariable");
    var previoustarget = gv.firstChild.nodeValue;
    if (previoustarget != "none") 
    {
        	document.getElementById(gv.firstChild.nodeValue).setAttributeNS(null, "visibility", "hidden");
    }
    document.getElementById(target).setAttributeNS(null, "visibility", "visible");
    gv.firstChild.nodeValue = target;
        }

    function mouseclick(evt) { 
    var gv = document.getElementById("globalVariable");
    var previoustarget = gv.firstChild.nodeValue;
    if (previoustarget != "none") {
        	document.getElementById(gv.firstChild.nodeValue).setAttributeNS(null, "visibility", "hidden");
        }
    }
]]>
  </script>
<style type="text/css" >

<![CDATA[
    rect.anc_exon {
              stroke-width:3;
                  }

    rect.non_anc_exon {
              stroke: black; stroke-width:3; stroke-dasharray: 5,5;
                    }

    text {
              font-size: 18px;
              font-family: Courier New;
          }
                    ]]>
</style>

<defs>
    <text x="150" y="40" id="globalVariable">none</text>
</defs>

  <rect class="anc_exon" x="0" y="35.0" width="0" height="30" style="fill:#87bcbc;fill-opacity:1.00" />
  <rect class="anc_exon" x="0" y="35.0" width="51.2" height="30" style="fill:#87bcbc;fill-opacity:1.00" />
  <line x1="51.2" y1="50.0" x2="70.2" y2="50.0" style="stroke:#999; stroke-width:3;" />
  <line x1="70.2" y1="50.0" x2="70.2" y2="50.0" style="stroke:#999; stroke-width:3;" />
  <line x1="70.2" y1="50.0" x2="70.2" y2="50.0" style="stroke:#999; stroke-width:3;" />
  <line x1="70.2" y1="50.0" x2="91.0" y2="50.0" style="stroke:#999; stroke-width:3;" />
  <rect class="anc_exon" x="91" y="35.0" width="68" height="30" style="fill:#87bcbc;fill-opacity:1.00" />
  <line x1="159" y1="50.0" x2="179" y2="50.0" style="stroke:#999; stroke-width:3;" />
  <line x1="179" y1="50.0" x2="179" y2="50.0" style="stroke:#999; stroke-width:3;" />
  <line x1="179" y1="50.0" x2="179" y2="50.0" style="stroke:#999; stroke-width:3;" />
  <line x1="179" y1="50.0" x2="199" y2="50.0" style="stroke:#999; stroke-width:3;" />
  <rect class="anc_exon" x="199" y="35.0" width="156" height="30" style="fill:#87bcbc;fill-opacity:1.00" />
  <line x1="355" y1="50.0" x2="375" y2="50.0" style="stroke:#999; stroke-width:3;" />
  <line x1="375" y1="50.0" x2="375" y2="50.0" style="stroke:#999; stroke-width:3;" />
  <line x1="375" y1="50.0" x2="375" y2="50.0" style="stroke:#999; stroke-width:3;" />
  <line x1="375" y1="50.0" x2="395" y2="50.0" style="stroke:#999; stroke-width:3;" />
  <rect class="anc_exon" x="395" y="35.0" width="202" height="30" style="fill:#87bcbc;fill-opacity:1.00" />
  <line x1="597" y1="50.0" x2="617" y2="50.0" style="stroke:#999; stroke-width:3;" />
  <line x1="617" y1="50.0" x2="617" y2="50.0" style="stroke:#999; stroke-width:3;" />
  <line x1="617" y1="50.0" x2="617" y2="50.0" style="stroke:#999; stroke-width:3;" />
  <line x1="617" y1="50.0" x2="637" y2="50.0" style="stroke:#999; stroke-width:3;" />
  <rect class="anc_exon" x="637" y="35.0" width="130" height="30" style="fill:#87bcbc;fill-opacity:1.00" />
  <line x1="767" y1="50.0" x2="807" y2="50.0" style="stroke:#999; stroke-width:3;" />
  <rect class="anc_exon" x="807" y="35.0" width="129" height="30" style="fill:#87bcbc;fill-opacity:1.00" />
  <line x1="936" y1="50.0" x2="976" y2="50.0" style="stroke:#999; stroke-width:3;" />
  <rect class="anc_exon" x="976" y="35.0" width="76" height="30" style="fill:#87bcbc;fill-opacity:1.00" />
  <line x1="1052" y1="50.0" x2="1072" y2="50.0" style="stroke:#999; stroke-width:3;" />
  <line x1="1072" y1="50.0" x2="1072" y2="50.0" style="stroke:#999; stroke-width:3;" />
  <line x1="1072" y1="50.0" x2="1072" y2="50.0" style="stroke:#999; stroke-width:3;" />
  <line x1="1072" y1="50.0" x2="1092" y2="50.0" style="stroke:#999; stroke-width:3;" />
  <rect class="anc_exon" x="1092" y="35.0" width="72" height="30" style="fill:#87bcbc;fill-opacity:1.00" />
  <line x1="1164" y1="50.0" x2="1204" y2="50.0" style="stroke:#999; stroke-width:3;" />
  <rect class="anc_exon" x="1204" y="35.0" width="108" height="30" style="fill:#87bcbc;fill-opacity:1.00" />
  <line x1="1312" y1="50.0" x2="1352" y2="50.0" style="stroke:#999; stroke-width:3;" />
  <rect class="anc_exon" x="1352" y="35.0" width="344" height="30" style="fill:#87bcbc;fill-opacity:1.00" />
  <line x1="1696" y1="50.0" x2="1716" y2="50.0" style="stroke:#999; stroke-width:3;" />
  <line x1="1716" y1="50.0" x2="1716" y2="50.0" style="stroke:#999; stroke-width:3;" />
  <line x1="1716" y1="50.0" x2="1716" y2="50.0" style="stroke:#999; stroke-width:3;" />
  <line x1="1716" y1="50.0" x2="1736" y2="50.0" style="stroke:#999; stroke-width:3;" />
  <rect class="anc_exon" x="1736" y="35.0" width="178" height="30" style="fill:#87bcbc;fill-opacity:1.00" />
  <line x1="1914" y1="50.0" x2="1934" y2="50.0" style="stroke:#999; stroke-width:3;" />
  <line x1="1934" y1="50.0" x2="1934" y2="50.0" style="stroke:#999; stroke-width:3;" />
  <line x1="1934" y1="50.0" x2="1934" y2="50.0" style="stroke:#999; stroke-width:3;" />
  <line x1="1934" y1="50.0" x2="1954" y2="50.0" style="stroke:#999; stroke-width:3;" />
  <rect class="anc_exon" x="1954" y="35.0" width="80" height="30" style="fill:#87bcbc;fill-opacity:1.00" />
  <line x1="2034" y1="50.0" x2="2054" y2="50.0" style="stroke:#999; stroke-width:3;" />
  <line x1="2054" y1="50.0" x2="2054" y2="50.0" style="stroke:#999; stroke-width:3;" />
  <line x1="2054" y1="50.0" x2="2054" y2="50.0" style="stroke:#999; stroke-width:3;" />
  <line x1="2054" y1="50.0" x2="2074" y2="50.0" style="stroke:#999; stroke-width:3;" />
  <rect class="anc_exon" x="2074" y="35.0" width="96" height="30" style="fill:#87bcbc;fill-opacity:1.00" />
  <line x1="2170" y1="50.0" x2="2190" y2="50.0" style="stroke:#999; stroke-width:3;" />
  <line x1="2190" y1="50.0" x2="2190" y2="50.0" style="stroke:#999; stroke-width:3;" />
  <line x1="2190" y1="50.0" x2="2190" y2="50.0" style="stroke:#999; stroke-width:3;" />
  <line x1="2190" y1="50.0" x2="2210" y2="50.0" style="stroke:#999; stroke-width:3;" />
  <rect class="anc_exon" x="2210" y="35.0" width="133" height="30" style="fill:#87bcbc;fill-opacity:1.00" />
  <line x1="2343" y1="50.0" x2="2383" y2="50.0" style="stroke:#999; stroke-width:3;" />
  <rect class="anc_exon" x="2383" y="35.0" width="55" height="30" style="fill:#87bcbc;fill-opacity:1.00" />
  <rect class="anc_exon" x="2438" y="35.0" width="0" height="30" style="fill:#87bcbc;fill-opacity:1.00" />
  <text style="" >
<tspan x="0" y="83.0" style="font-size:18px;" >SP XM_023502477_2.1</tspan>  </text>



<script type="text/ecmascript">
<![CDATA[
function draw_bbox(text_id)
{
    var text_elem = document.getElementById(text_id);
    var offset_px = 2;
    var offset_py = 0;
    bbox = text_elem.getBBox();
    var box = document.createElementNS(document.rootElement.namespaceURI,'rect');
    box.setAttribute('x', bbox.x - offset_px);
    box.setAttribute('y', bbox.y - offset_py);
    box.setAttribute('width', bbox.width + offset_px * 2);
    box.setAttribute('height', bbox.height + offset_py * 2);
    box.setAttribute('style','fill: white;'+'stroke: black;'+'stroke-width: 1px;');
    text_elem.insertBefore(box,text_elem.childNodes[0]);

    var svg = text_elem.parentNode;
    svg.appendChild(text_elem);
}

for (var i=1; i < 1; i++)
{
draw_bbox("Mouseover" + i);
}
]]> 
</script>
</svg>
