<svg version="1.1"
xmlns="http://www.w3.org/2000/svg"
xmlns:xlink="http://www.w3.org/1999/xlink"
width="2183" height="100" viewBox = "0 0 2183 100"
onclick="mouseclick(evt)">

<script type="text/ecmascript">

<![CDATA[
    function mouseover(evt, target) { 
    var gv = document.getElementById("globalVariable");
    var previoustarget = gv.firstChild.nodeValue;
    if (previoustarget != "none") 
    {
        	document.getElementById(gv.firstChild.nodeValue).setAttributeNS(null, "visibility", "hidden");
    }
    document.getElementById(target).setAttributeNS(null, "visibility", "visible");
    gv.firstChild.nodeValue = target;
        }

    function mouseclick(evt) { 
    var gv = document.getElementById("globalVariable");
    var previoustarget = gv.firstChild.nodeValue;
    if (previoustarget != "none") {
        	document.getElementById(gv.firstChild.nodeValue).setAttributeNS(null, "visibility", "hidden");
        }
    }
]]>
  </script>
<style type="text/css" >

<![CDATA[
    rect.anc_exon {
              stroke-width:3;
                  }

    rect.non_anc_exon {
              stroke: black; stroke-width:3; stroke-dasharray: 5,5;
                    }

    text {
              font-size: 18px;
              font-family: Courier New;
          }
                    ]]>
</style>

<defs>
    <text x="150" y="40" id="globalVariable">none</text>
</defs>

  <rect class="anc_exon" x="0" y="35.0" width="0" height="30" style="fill:#87bcbc;fill-opacity:1.00" />
  <rect class="anc_exon" x="0" y="35.0" width="20.8" height="30" style="fill:#87bcbc;fill-opacity:1.00" />
  <line x1="20.8" y1="50.0" x2="39.8" y2="50.0" style="stroke:#999; stroke-width:3;" />
  <line x1="39.8" y1="50.0" x2="39.8" y2="50.0" style="stroke:#999; stroke-width:3;" />
  <line x1="39.8" y1="50.0" x2="39.8" y2="50.0" style="stroke:#999; stroke-width:3;" />
  <line x1="39.8" y1="50.0" x2="60.0" y2="50.0" style="stroke:#999; stroke-width:3;" />
  <rect class="anc_exon" x="60" y="35.0" width="32" height="30" style="fill:#87bcbc;fill-opacity:1.00" />
  <line x1="92" y1="50.0" x2="112" y2="50.0" style="stroke:#999; stroke-width:3;" />
  <line x1="112" y1="50.0" x2="112" y2="50.0" style="stroke:#999; stroke-width:3;" />
  <line x1="112" y1="50.0" x2="112" y2="50.0" style="stroke:#999; stroke-width:3;" />
  <line x1="112" y1="50.0" x2="132" y2="50.0" style="stroke:#999; stroke-width:3;" />
  <rect class="anc_exon" x="132" y="35.0" width="105" height="30" style="fill:#87bcbc;fill-opacity:1.00" />
  <line x1="237" y1="50.0" x2="257" y2="50.0" style="stroke:#999; stroke-width:3;" />
  <line x1="257" y1="50.0" x2="257" y2="50.0" style="stroke:#999; stroke-width:3;" />
  <line x1="257" y1="50.0" x2="257" y2="50.0" style="stroke:#999; stroke-width:3;" />
  <line x1="257" y1="50.0" x2="277" y2="50.0" style="stroke:#999; stroke-width:3;" />
  <rect class="anc_exon" x="277" y="35.0" width="354" height="30" style="fill:#87bcbc;fill-opacity:1.00" />
  <line x1="631" y1="50.0" x2="651" y2="50.0" style="stroke:#999; stroke-width:3;" />
  <line x1="651" y1="50.0" x2="651" y2="50.0" style="stroke:#999; stroke-width:3;" />
  <line x1="651" y1="50.0" x2="651" y2="50.0" style="stroke:#999; stroke-width:3;" />
  <line x1="651" y1="50.0" x2="671" y2="50.0" style="stroke:#999; stroke-width:3;" />
  <rect class="anc_exon" x="671" y="35.0" width="83" height="30" style="fill:#87bcbc;fill-opacity:1.00" />
  <line x1="754" y1="50.0" x2="774" y2="50.0" style="stroke:#999; stroke-width:3;" />
  <line x1="774" y1="50.0" x2="774" y2="50.0" style="stroke:#999; stroke-width:3;" />
  <line x1="774" y1="50.0" x2="774" y2="50.0" style="stroke:#999; stroke-width:3;" />
  <line x1="774" y1="50.0" x2="794" y2="50.0" style="stroke:#999; stroke-width:3;" />
  <rect class="anc_exon" x="794" y="35.0" width="522" height="30" style="fill:#87bcbc;fill-opacity:1.00" />
  <line x1="1316" y1="50.0" x2="1336" y2="50.0" style="stroke:#999; stroke-width:3;" />
  <line x1="1336" y1="50.0" x2="1336" y2="50.0" style="stroke:#999; stroke-width:3;" />
  <line x1="1336" y1="50.0" x2="1336" y2="50.0" style="stroke:#999; stroke-width:3;" />
  <line x1="1336" y1="50.0" x2="1356" y2="50.0" style="stroke:#999; stroke-width:3;" />
  <rect class="anc_exon" x="1356" y="35.0" width="92" height="30" style="fill:#87bcbc;fill-opacity:1.00" />
  <line x1="1448" y1="50.0" x2="1488" y2="50.0" style="stroke:#999; stroke-width:3;" />
  <rect class="anc_exon" x="1488" y="35.0" width="137" height="30" style="fill:#87bcbc;fill-opacity:1.00" />
  <line x1="1625" y1="50.0" x2="1645" y2="50.0" style="stroke:#999; stroke-width:3;" />
  <line x1="1645" y1="50.0" x2="1645" y2="50.0" style="stroke:#999; stroke-width:3;" />
  <line x1="1645" y1="50.0" x2="1645" y2="50.0" style="stroke:#999; stroke-width:3;" />
  <line x1="1645" y1="50.0" x2="1665" y2="50.0" style="stroke:#999; stroke-width:3;" />
  <rect class="anc_exon" x="1665" y="35.0" width="89" height="30" style="fill:#87bcbc;fill-opacity:1.00" />
  <line x1="1754" y1="50.0" x2="1794" y2="50.0" style="stroke:#999; stroke-width:3;" />
  <rect class="anc_exon" x="1794" y="35.0" width="170" height="30" style="fill:#87bcbc;fill-opacity:1.00" />
  <line x1="1964" y1="50.0" x2="1984" y2="50.0" style="stroke:#999; stroke-width:3;" />
  <line x1="1984" y1="50.0" x2="1984" y2="50.0" style="stroke:#999; stroke-width:3;" />
  <line x1="1984" y1="50.0" x2="1984" y2="50.0" style="stroke:#999; stroke-width:3;" />
  <line x1="1984" y1="50.0" x2="2004" y2="50.0" style="stroke:#999; stroke-width:3;" />
  <rect class="anc_exon" x="2004" y="35.0" width="143" height="30" style="fill:#87bcbc;fill-opacity:1.00" />
  <rect class="anc_exon" x="2147" y="35.0" width="0" height="30" style="fill:#87bcbc;fill-opacity:1.00" />
  <text style="" >
<tspan x="0" y="83.0" style="font-size:18px;" >SP XM_031967099_1.1</tspan>  </text>



<script type="text/ecmascript">
<![CDATA[
function draw_bbox(text_id)
{
    var text_elem = document.getElementById(text_id);
    var offset_px = 2;
    var offset_py = 0;
    bbox = text_elem.getBBox();
    var box = document.createElementNS(document.rootElement.namespaceURI,'rect');
    box.setAttribute('x', bbox.x - offset_px);
    box.setAttribute('y', bbox.y - offset_py);
    box.setAttribute('width', bbox.width + offset_px * 2);
    box.setAttribute('height', bbox.height + offset_py * 2);
    box.setAttribute('style','fill: white;'+'stroke: black;'+'stroke-width: 1px;');
    text_elem.insertBefore(box,text_elem.childNodes[0]);

    var svg = text_elem.parentNode;
    svg.appendChild(text_elem);
}

for (var i=1; i < 1; i++)
{
draw_bbox("Mouseover" + i);
}
]]> 
</script>
</svg>
