<svg version="1.1"
xmlns="http://www.w3.org/2000/svg"
xmlns:xlink="http://www.w3.org/1999/xlink"
width="4036" height="110.0" viewBox = "0 -10.0 4036 110.0"
onclick="mouseclick(evt)">

<script type="text/ecmascript">

<![CDATA[
    function mouseover(evt, target) { 
    var gv = document.getElementById("globalVariable");
    var previoustarget = gv.firstChild.nodeValue;
    if (previoustarget != "none") 
    {
        	document.getElementById(gv.firstChild.nodeValue).setAttributeNS(null, "visibility", "hidden");
    }
    document.getElementById(target).setAttributeNS(null, "visibility", "visible");
    gv.firstChild.nodeValue = target;
        }

    function mouseclick(evt) { 
    var gv = document.getElementById("globalVariable");
    var previoustarget = gv.firstChild.nodeValue;
    if (previoustarget != "none") {
        	document.getElementById(gv.firstChild.nodeValue).setAttributeNS(null, "visibility", "hidden");
        }
    }
]]>
  </script>
<style type="text/css" >

<![CDATA[
    rect.anc_exon {
              stroke-width:3;
                  }

    rect.non_anc_exon {
              stroke: black; stroke-width:3; stroke-dasharray: 5,5;
                    }

    text {
              font-size: 18px;
              font-family: Courier New;
          }
                    ]]>
</style>

<defs>
    <text x="150" y="40" id="globalVariable">none</text>
</defs>

  <rect class="anc_exon" x="0" y="35.0" width="0" height="30" style="fill:#87bcbc;fill-opacity:1.00" />
  <rect class="anc_exon" x="0" y="35.0" width="36.0" height="30" style="fill:#87bcbc;fill-opacity:1.00" />
  <line x1="36.0" y1="50.0" x2="56.0" y2="50.0" style="stroke:#999; stroke-width:3;" />
  <line x1="56.0" y1="50.0" x2="56.0" y2="50.0" style="stroke:#999; stroke-width:3;" />
  <line x1="56.0" y1="50.0" x2="56.0" y2="50.0" style="stroke:#999; stroke-width:3;" />
  <line x1="56.0" y1="50.0" x2="76.0" y2="50.0" style="stroke:#999; stroke-width:3;" />
  <rect class="anc_exon" x="76" y="35.0" width="171" height="30" style="fill:#87bcbc;fill-opacity:1.00" />
  <line x1="247" y1="50.0" x2="267" y2="50.0" style="stroke:#999; stroke-width:3;" />
  <line x1="267" y1="50.0" x2="267" y2="50.0" style="stroke:#999; stroke-width:3;" />
  <line x1="267" y1="50.0" x2="267" y2="50.0" style="stroke:#999; stroke-width:3;" />
  <line x1="267" y1="50.0" x2="287" y2="50.0" style="stroke:#999; stroke-width:3;" />
  <rect class="anc_exon" x="287" y="35.0" width="64" height="30" style="fill:#87bcbc;fill-opacity:1.00" />
  <line x1="351" y1="50.0" x2="391" y2="50.0" style="stroke:#999; stroke-width:3;" />
  <rect class="anc_exon" x="391" y="35.0" width="95" height="30" style="fill:#87bcbc;fill-opacity:1.00" />
  <line x1="486" y1="50.0" x2="526" y2="50.0" style="stroke:#999; stroke-width:3;" />
  <rect class="anc_exon" x="526" y="35.0" width="70" height="30" style="fill:#87bcbc;fill-opacity:1.00" />
  <line x1="596" y1="50.0" x2="616" y2="50.0" style="stroke:#999; stroke-width:3;" />
  <line x1="616" y1="50.0" x2="616" y2="50.0" style="stroke:#999; stroke-width:3;" />
  <line x1="616" y1="50.0" x2="616" y2="50.0" style="stroke:#999; stroke-width:3;" />
  <line x1="616" y1="50.0" x2="636" y2="50.0" style="stroke:#999; stroke-width:3;" />
  <rect class="anc_exon" x="636" y="35.0" width="107" height="30" style="fill:#87bcbc;fill-opacity:1.00" />
  <line x1="743" y1="50.0" x2="763" y2="50.0" style="stroke:#999; stroke-width:3;" />
  <line x1="763" y1="50.0" x2="763" y2="50.0" style="stroke:#999; stroke-width:3;" />
  <line x1="763" y1="50.0" x2="763" y2="50.0" style="stroke:#999; stroke-width:3;" />
  <line x1="763" y1="50.0" x2="783" y2="50.0" style="stroke:#999; stroke-width:3;" />
  <rect class="anc_exon" x="783" y="35.0" width="68" height="30" style="fill:#87bcbc;fill-opacity:1.00" />
  <line x1="851" y1="50.0" x2="891" y2="50.0" style="stroke:#999; stroke-width:3;" />
  <rect class="anc_exon" x="891" y="35.0" width="97" height="30" style="fill:#87bcbc;fill-opacity:1.00" />
  <line x1="988" y1="50.0" x2="1008" y2="50.0" style="stroke:#999; stroke-width:3;" />
  <line x1="1008" y1="50.0" x2="1008" y2="50.0" style="stroke:#999; stroke-width:3;" />
  <line x1="1008" y1="50.0" x2="1008" y2="50.0" style="stroke:#999; stroke-width:3;" />
  <line x1="1008" y1="50.0" x2="1028" y2="50.0" style="stroke:#999; stroke-width:3;" />
  <rect class="anc_exon" x="1028" y="35.0" width="120" height="30" style="fill:#87bcbc;fill-opacity:1.00" />
  <line x1="1148" y1="50.0" x2="1188" y2="50.0" style="stroke:#999; stroke-width:3;" />
  <rect class="anc_exon" x="1188" y="35.0" width="2319" height="30" style="fill:#878787;fill-opacity:1.00" />
  <line x1="3507" y1="50.0" x2="3547" y2="50.0" style="stroke:#999; stroke-width:3;" />
  <rect class="anc_exon" x="3547" y="35.0" width="128" height="30" style="fill:#87bcbc;fill-opacity:1.00" />
  <line x1="3675" y1="50.0" x2="3715" y2="50.0" style="stroke:#999; stroke-width:3;" />
  <rect class="anc_exon" x="3715" y="35.0" width="177" height="30" style="fill:#87bcbc;fill-opacity:1.00" />
  <line x1="3892" y1="50.0" x2="3932" y2="50.0" style="stroke:#999; stroke-width:3;" />
  <rect class="anc_exon" x="3932" y="35.0" width="68" height="30" style="fill:#87bcbc;fill-opacity:1.00" />
  <line x1="3940.0" y1="35.0" x2="3940.0" y2="65.0" style="stroke:#121212; stroke-width:1.6; stroke-opacity:1"/>
  <text style="" text-anchor="middle">
<tspan x="3939.2" y="26.0" style="font-size:18px;fill:#121212;" >-2</tspan>  </text>
  <rect class="anc_exon" x="4000" y="35.0" width="0" height="30" style="fill:#87bcbc;fill-opacity:1.00" />
  <text style="" >
<tspan x="0" y="83.0" style="font-size:18px;" >SP XM_031965607_1.1</tspan>  </text>



<script type="text/ecmascript">
<![CDATA[
function draw_bbox(text_id)
{
    var text_elem = document.getElementById(text_id);
    var offset_px = 2;
    var offset_py = 0;
    bbox = text_elem.getBBox();
    var box = document.createElementNS(document.rootElement.namespaceURI,'rect');
    box.setAttribute('x', bbox.x - offset_px);
    box.setAttribute('y', bbox.y - offset_py);
    box.setAttribute('width', bbox.width + offset_px * 2);
    box.setAttribute('height', bbox.height + offset_py * 2);
    box.setAttribute('style','fill: white;'+'stroke: black;'+'stroke-width: 1px;');
    text_elem.insertBefore(box,text_elem.childNodes[0]);

    var svg = text_elem.parentNode;
    svg.appendChild(text_elem);
}

for (var i=1; i < 1; i++)
{
draw_bbox("Mouseover" + i);
}
]]> 
</script>
</svg>
