<svg version="1.1"
xmlns="http://www.w3.org/2000/svg"
xmlns:xlink="http://www.w3.org/1999/xlink"
width="4756" height="138.0" viewBox = "0 -38.0 4756 138.0"
onclick="mouseclick(evt)">

<script type="text/ecmascript">

<![CDATA[
    function mouseover(evt, target) { 
    var gv = document.getElementById("globalVariable");
    var previoustarget = gv.firstChild.nodeValue;
    if (previoustarget != "none") 
    {
        	document.getElementById(gv.firstChild.nodeValue).setAttributeNS(null, "visibility", "hidden");
    }
    document.getElementById(target).setAttributeNS(null, "visibility", "visible");
    gv.firstChild.nodeValue = target;
        }

    function mouseclick(evt) { 
    var gv = document.getElementById("globalVariable");
    var previoustarget = gv.firstChild.nodeValue;
    if (previoustarget != "none") {
        	document.getElementById(gv.firstChild.nodeValue).setAttributeNS(null, "visibility", "hidden");
        }
    }
]]>
  </script>
<style type="text/css" >

<![CDATA[
    rect.anc_exon {
              stroke-width:3;
                  }

    rect.non_anc_exon {
              stroke: black; stroke-width:3; stroke-dasharray: 5,5;
                    }

    text {
              font-size: 18px;
              font-family: Courier New;
          }
                    ]]>
</style>

<defs>
    <text x="150" y="40" id="globalVariable">none</text>
</defs>

  <rect class="anc_exon" x="0" y="35.0" width="0" height="30" style="fill:#87bcbc;fill-opacity:1.00" />
  <rect class="anc_exon" x="0" y="35.0" width="171.20000000000002" height="30" style="fill:#87bcbc;fill-opacity:1.00" />
  <line x1="171.20000000000002" y1="50.0" x2="211.0" y2="50.0" style="stroke:#999; stroke-width:3;" />
  <rect class="anc_exon" x="211" y="35.0" width="92" height="30" style="fill:#87bcbc;fill-opacity:1.00" />
  <polygon points="213.4,35.0 215.9,25.0 210.9,25.0" style="fill:#121212; stroke-opacity:1; fill-opacity:1"/>
  <polygon points="235.0,35.0 237.5,25.0 232.5,25.0" style="fill:#121212; stroke-opacity:1; fill-opacity:1"/>
  <line x1="279.0" y1="35.0" x2="279.0" y2="65.0" style="stroke:#878787;stroke-width:3;"/>
  <polygon points="278.2,35.0 280.7,25.0 275.7,25.0" style="fill:#121212; stroke-opacity:1; fill-opacity:1"/>
  <text style="" text-anchor="middle">
<tspan x="224.2" y="16.0" style="font-size:18px;fill:#121212;" >+1</tspan><tspan x="224.2" y="-2.0" style="font-size:18px;fill:#121212;" >+1</tspan>  </text>
  <text style="" text-anchor="middle">
<tspan x="278.2" y="16.0" style="font-size:18px;fill:#121212;" >+2</tspan>  </text>
  <line x1="303" y1="50.0" x2="343" y2="50.0" style="stroke:#999; stroke-width:3;" />
  <rect class="anc_exon" x="343" y="35.0" width="94" height="30" style="fill:#87bcbc;fill-opacity:1.00" />
  <line x1="437" y1="50.0" x2="457" y2="50.0" style="stroke:#999; stroke-width:3;" />
  <line x1="457" y1="50.0" x2="457" y2="50.0" style="stroke:#999; stroke-width:3;" />
  <line x1="457" y1="50.0" x2="457" y2="50.0" style="stroke:#999; stroke-width:3;" />
  <line x1="457" y1="50.0" x2="477" y2="50.0" style="stroke:#999; stroke-width:3;" />
  <rect class="anc_exon" x="477" y="35.0" width="67" height="30" style="fill:#87bcbc;fill-opacity:1.00" />
  <line x1="544" y1="50.0" x2="564" y2="50.0" style="stroke:#999; stroke-width:3;" />
  <line x1="564" y1="50.0" x2="564" y2="50.0" style="stroke:#999; stroke-width:3;" />
  <line x1="564" y1="50.0" x2="564" y2="50.0" style="stroke:#999; stroke-width:3;" />
  <line x1="564" y1="50.0" x2="584" y2="50.0" style="stroke:#999; stroke-width:3;" />
  <rect class="anc_exon" x="584" y="35.0" width="92" height="30" style="fill:#87bcbc;fill-opacity:1.00" />
  <line x1="676" y1="50.0" x2="696" y2="50.0" style="stroke:#999; stroke-width:3;" />
  <line x1="696" y1="50.0" x2="696" y2="50.0" style="stroke:#999; stroke-width:3;" />
  <line x1="696" y1="50.0" x2="696" y2="50.0" style="stroke:#999; stroke-width:3;" />
  <line x1="696" y1="50.0" x2="716" y2="50.0" style="stroke:#999; stroke-width:3;" />
  <rect class="anc_exon" x="716" y="35.0" width="72" height="30" style="fill:#87bcbc;fill-opacity:1.00" />
  <line x1="788" y1="50.0" x2="808" y2="50.0" style="stroke:#999; stroke-width:3;" />
  <line x1="808" y1="50.0" x2="808" y2="50.0" style="stroke:#999; stroke-width:3;" />
  <line x1="808" y1="50.0" x2="808" y2="50.0" style="stroke:#999; stroke-width:3;" />
  <line x1="808" y1="50.0" x2="828" y2="50.0" style="stroke:#999; stroke-width:3;" />
  <rect class="anc_exon" x="828" y="35.0" width="96" height="30" style="fill:#87bcbc;fill-opacity:1.00" />
  <line x1="924" y1="50.0" x2="944" y2="50.0" style="stroke:#999; stroke-width:3;" />
  <line x1="944" y1="50.0" x2="944" y2="50.0" style="stroke:#999; stroke-width:3;" />
  <line x1="944" y1="50.0" x2="944" y2="50.0" style="stroke:#999; stroke-width:3;" />
  <line x1="944" y1="50.0" x2="964" y2="50.0" style="stroke:#999; stroke-width:3;" />
  <rect class="anc_exon" x="964" y="35.0" width="93" height="30" style="fill:#87bcbc;fill-opacity:1.00" />
  <line x1="1057" y1="50.0" x2="1077" y2="50.0" style="stroke:#999; stroke-width:3;" />
  <line x1="1077" y1="50.0" x2="1077" y2="50.0" style="stroke:#999; stroke-width:3;" />
  <line x1="1077" y1="50.0" x2="1077" y2="50.0" style="stroke:#999; stroke-width:3;" />
  <line x1="1077" y1="50.0" x2="1097" y2="50.0" style="stroke:#999; stroke-width:3;" />
  <rect class="anc_exon" x="1097" y="35.0" width="120" height="30" style="fill:#87bcbc;fill-opacity:1.00" />
  <line x1="1217" y1="50.0" x2="1257" y2="50.0" style="stroke:#999; stroke-width:3;" />
  <rect class="anc_exon" x="1257" y="35.0" width="100" height="30" style="fill:#87bcbc;fill-opacity:1.00" />
  <line x1="1357" y1="50.0" x2="1377" y2="50.0" style="stroke:#999; stroke-width:3;" />
  <line x1="1377" y1="50.0" x2="1377" y2="50.0" style="stroke:#999; stroke-width:3;" />
  <line x1="1377" y1="50.0" x2="1377" y2="50.0" style="stroke:#999; stroke-width:3;" />
  <line x1="1377" y1="50.0" x2="1397" y2="50.0" style="stroke:#999; stroke-width:3;" />
  <rect class="anc_exon" x="1397" y="35.0" width="92" height="30" style="fill:#87bcbc;fill-opacity:1.00" />
  <line x1="1489" y1="50.0" x2="1529" y2="50.0" style="stroke:#999; stroke-width:3;" />
  <rect class="anc_exon" x="1529" y="35.0" width="96" height="30" style="fill:#87bcbc;fill-opacity:1.00" />
  <line x1="1625" y1="50.0" x2="1665" y2="50.0" style="stroke:#999; stroke-width:3;" />
  <rect class="anc_exon" x="1665" y="35.0" width="153" height="30" style="fill:#87bcbc;fill-opacity:1.00" />
  <line x1="1818" y1="50.0" x2="1838" y2="50.0" style="stroke:#999; stroke-width:3;" />
  <line x1="1838" y1="50.0" x2="1838" y2="50.0" style="stroke:#999; stroke-width:3;" />
  <line x1="1838" y1="50.0" x2="1838" y2="50.0" style="stroke:#999; stroke-width:3;" />
  <line x1="1838" y1="50.0" x2="1858" y2="50.0" style="stroke:#999; stroke-width:3;" />
  <rect class="anc_exon" x="1858" y="35.0" width="153" height="30" style="fill:#87bcbc;fill-opacity:1.00" />
  <line x1="2011" y1="50.0" x2="2031" y2="50.0" style="stroke:#999; stroke-width:3;" />
  <line x1="2031" y1="50.0" x2="2031" y2="50.0" style="stroke:#999; stroke-width:3;" />
  <line x1="2031" y1="50.0" x2="2031" y2="50.0" style="stroke:#999; stroke-width:3;" />
  <line x1="2031" y1="50.0" x2="2051" y2="50.0" style="stroke:#999; stroke-width:3;" />
  <rect class="anc_exon" x="2051" y="35.0" width="142" height="30" style="fill:#87bcbc;fill-opacity:1.00" />
  <line x1="2193" y1="50.0" x2="2213" y2="50.0" style="stroke:#999; stroke-width:3;" />
  <line x1="2213" y1="50.0" x2="2213" y2="50.0" style="stroke:#999; stroke-width:3;" />
  <line x1="2213" y1="50.0" x2="2213" y2="50.0" style="stroke:#999; stroke-width:3;" />
  <line x1="2213" y1="50.0" x2="2233" y2="50.0" style="stroke:#999; stroke-width:3;" />
  <rect class="anc_exon" x="2233" y="35.0" width="83" height="30" style="fill:#87bcbc;fill-opacity:1.00" />
  <line x1="2316" y1="50.0" x2="2336" y2="50.0" style="stroke:#999; stroke-width:3;" />
  <line x1="2336" y1="50.0" x2="2336" y2="50.0" style="stroke:#999; stroke-width:3;" />
  <line x1="2336" y1="50.0" x2="2336" y2="50.0" style="stroke:#999; stroke-width:3;" />
  <line x1="2336" y1="50.0" x2="2356" y2="50.0" style="stroke:#999; stroke-width:3;" />
  <rect class="anc_exon" x="2356" y="35.0" width="71" height="30" style="fill:#87bcbc;fill-opacity:1.00" />
  <line x1="2427" y1="50.0" x2="2447" y2="50.0" style="stroke:#999; stroke-width:3;" />
  <line x1="2447" y1="50.0" x2="2447" y2="50.0" style="stroke:#999; stroke-width:3;" />
  <line x1="2447" y1="50.0" x2="2447" y2="50.0" style="stroke:#999; stroke-width:3;" />
  <line x1="2447" y1="50.0" x2="2467" y2="50.0" style="stroke:#999; stroke-width:3;" />
  <rect class="anc_exon" x="2467" y="35.0" width="53" height="30" style="fill:#87bcbc;fill-opacity:1.00" />
  <line x1="2520" y1="50.0" x2="2540" y2="50.0" style="stroke:#999; stroke-width:3;" />
  <line x1="2540" y1="50.0" x2="2540" y2="50.0" style="stroke:#999; stroke-width:3;" />
  <line x1="2540" y1="50.0" x2="2540" y2="50.0" style="stroke:#999; stroke-width:3;" />
  <line x1="2540" y1="50.0" x2="2560" y2="50.0" style="stroke:#999; stroke-width:3;" />
  <rect class="anc_exon" x="2560" y="35.0" width="92" height="30" style="fill:#87bcbc;fill-opacity:1.00" />
  <line x1="2652" y1="50.0" x2="2672" y2="50.0" style="stroke:#999; stroke-width:3;" />
  <line x1="2672" y1="50.0" x2="2672" y2="50.0" style="stroke:#999; stroke-width:3;" />
  <line x1="2672" y1="50.0" x2="2672" y2="50.0" style="stroke:#999; stroke-width:3;" />
  <line x1="2672" y1="50.0" x2="2692" y2="50.0" style="stroke:#999; stroke-width:3;" />
  <rect class="anc_exon" x="2692" y="35.0" width="56" height="30" style="fill:#87bcbc;fill-opacity:1.00" />
  <line x1="2748" y1="50.0" x2="2768" y2="50.0" style="stroke:#999; stroke-width:3;" />
  <line x1="2768" y1="50.0" x2="2768" y2="50.0" style="stroke:#999; stroke-width:3;" />
  <line x1="2768" y1="50.0" x2="2768" y2="50.0" style="stroke:#999; stroke-width:3;" />
  <line x1="2768" y1="50.0" x2="2788" y2="50.0" style="stroke:#999; stroke-width:3;" />
  <rect class="anc_exon" x="2788" y="35.0" width="74" height="30" style="fill:#87bcbc;fill-opacity:1.00" />
  <line x1="2862" y1="50.0" x2="2882" y2="50.0" style="stroke:#999; stroke-width:3;" />
  <line x1="2882" y1="50.0" x2="2882" y2="50.0" style="stroke:#999; stroke-width:3;" />
  <line x1="2882" y1="50.0" x2="2882" y2="50.0" style="stroke:#999; stroke-width:3;" />
  <line x1="2882" y1="50.0" x2="2902" y2="50.0" style="stroke:#999; stroke-width:3;" />
  <rect class="anc_exon" x="2902" y="35.0" width="74" height="30" style="fill:#87bcbc;fill-opacity:1.00" />
  <line x1="2976" y1="50.0" x2="2996" y2="50.0" style="stroke:#999; stroke-width:3;" />
  <line x1="2996" y1="50.0" x2="2996" y2="50.0" style="stroke:#999; stroke-width:3;" />
  <line x1="2996" y1="50.0" x2="2996" y2="50.0" style="stroke:#999; stroke-width:3;" />
  <line x1="2996" y1="50.0" x2="3016" y2="50.0" style="stroke:#999; stroke-width:3;" />
  <rect class="anc_exon" x="3016" y="35.0" width="100" height="30" style="fill:#87bcbc;fill-opacity:1.00" />
  <line x1="3116" y1="50.0" x2="3136" y2="50.0" style="stroke:#999; stroke-width:3;" />
  <line x1="3136" y1="50.0" x2="3136" y2="50.0" style="stroke:#999; stroke-width:3;" />
  <line x1="3136" y1="50.0" x2="3136" y2="50.0" style="stroke:#999; stroke-width:3;" />
  <line x1="3136" y1="50.0" x2="3156" y2="50.0" style="stroke:#999; stroke-width:3;" />
  <rect class="anc_exon" x="3156" y="35.0" width="177" height="30" style="fill:#87bcbc;fill-opacity:1.00" />
  <line x1="3333" y1="50.0" x2="3353" y2="50.0" style="stroke:#999; stroke-width:3;" />
  <line x1="3353" y1="50.0" x2="3353" y2="50.0" style="stroke:#999; stroke-width:3;" />
  <line x1="3353" y1="50.0" x2="3353" y2="50.0" style="stroke:#999; stroke-width:3;" />
  <line x1="3353" y1="50.0" x2="3373" y2="50.0" style="stroke:#999; stroke-width:3;" />
  <rect class="anc_exon" x="3373" y="35.0" width="74" height="30" style="fill:#87bcbc;fill-opacity:1.00" />
  <line x1="3447" y1="50.0" x2="3487" y2="50.0" style="stroke:#999; stroke-width:3;" />
  <rect class="anc_exon" x="3487" y="35.0" width="63" height="30" style="fill:#87bcbc;fill-opacity:1.00" />
  <line x1="3550" y1="50.0" x2="3570" y2="50.0" style="stroke:#999; stroke-width:3;" />
  <line x1="3570" y1="50.0" x2="3570" y2="50.0" style="stroke:#999; stroke-width:3;" />
  <line x1="3570" y1="50.0" x2="3570" y2="50.0" style="stroke:#999; stroke-width:3;" />
  <line x1="3570" y1="50.0" x2="3590" y2="50.0" style="stroke:#999; stroke-width:3;" />
  <rect class="anc_exon" x="3590" y="35.0" width="58" height="30" style="fill:#87bcbc;fill-opacity:1.00" />
  <line x1="3648" y1="50.0" x2="3668" y2="50.0" style="stroke:#999; stroke-width:3;" />
  <line x1="3668" y1="50.0" x2="3668" y2="50.0" style="stroke:#999; stroke-width:3;" />
  <line x1="3668" y1="50.0" x2="3668" y2="50.0" style="stroke:#999; stroke-width:3;" />
  <line x1="3668" y1="50.0" x2="3688" y2="50.0" style="stroke:#999; stroke-width:3;" />
  <rect class="anc_exon" x="3688" y="35.0" width="90" height="30" style="fill:#87bcbc;fill-opacity:1.00" />
  <line x1="3778" y1="50.0" x2="3798" y2="50.0" style="stroke:#999; stroke-width:3;" />
  <line x1="3798" y1="50.0" x2="3798" y2="50.0" style="stroke:#999; stroke-width:3;" />
  <line x1="3798" y1="50.0" x2="3798" y2="50.0" style="stroke:#999; stroke-width:3;" />
  <line x1="3798" y1="50.0" x2="3818" y2="50.0" style="stroke:#999; stroke-width:3;" />
  <rect class="anc_exon" x="3818" y="35.0" width="76" height="30" style="fill:#87bcbc;fill-opacity:1.00" />
  <line x1="3894" y1="50.0" x2="3914" y2="50.0" style="stroke:#999; stroke-width:3;" />
  <line x1="3914" y1="50.0" x2="3914" y2="50.0" style="stroke:#999; stroke-width:3;" />
  <line x1="3914" y1="50.0" x2="3914" y2="50.0" style="stroke:#999; stroke-width:3;" />
  <line x1="3914" y1="50.0" x2="3934" y2="50.0" style="stroke:#999; stroke-width:3;" />
  <rect class="anc_exon" x="3934" y="35.0" width="74" height="30" style="fill:#87bcbc;fill-opacity:1.00" />
  <line x1="4008" y1="50.0" x2="4028" y2="50.0" style="stroke:#999; stroke-width:3;" />
  <line x1="4028" y1="50.0" x2="4028" y2="50.0" style="stroke:#999; stroke-width:3;" />
  <line x1="4028" y1="50.0" x2="4028" y2="50.0" style="stroke:#999; stroke-width:3;" />
  <line x1="4028" y1="50.0" x2="4048" y2="50.0" style="stroke:#999; stroke-width:3;" />
  <rect class="anc_exon" x="4048" y="35.0" width="57" height="30" style="fill:#87bcbc;fill-opacity:1.00" />
  <line x1="4105" y1="50.0" x2="4145" y2="50.0" style="stroke:#999; stroke-width:3;" />
  <rect class="anc_exon" x="4145" y="35.0" width="69" height="30" style="fill:#87bcbc;fill-opacity:1.00" />
  <line x1="4214" y1="50.0" x2="4234" y2="50.0" style="stroke:#999; stroke-width:3;" />
  <line x1="4234" y1="50.0" x2="4234" y2="50.0" style="stroke:#999; stroke-width:3;" />
  <line x1="4234" y1="50.0" x2="4234" y2="50.0" style="stroke:#999; stroke-width:3;" />
  <line x1="4234" y1="50.0" x2="4254" y2="50.0" style="stroke:#999; stroke-width:3;" />
  <rect class="anc_exon" x="4254" y="35.0" width="95" height="30" style="fill:#87bcbc;fill-opacity:1.00" />
  <line x1="4349" y1="50.0" x2="4369" y2="50.0" style="stroke:#999; stroke-width:3;" />
  <line x1="4369" y1="50.0" x2="4369" y2="50.0" style="stroke:#999; stroke-width:3;" />
  <line x1="4369" y1="50.0" x2="4369" y2="50.0" style="stroke:#999; stroke-width:3;" />
  <line x1="4369" y1="50.0" x2="4389" y2="50.0" style="stroke:#999; stroke-width:3;" />
  <rect class="anc_exon" x="4389" y="35.0" width="90" height="30" style="fill:#87bcbc;fill-opacity:1.00" />
  <line x1="4479" y1="50.0" x2="4519" y2="50.0" style="stroke:#999; stroke-width:3;" />
  <rect class="anc_exon" x="4519" y="35.0" width="83" height="30" style="fill:#87bcbc;fill-opacity:1.00" />
  <line x1="4602" y1="50.0" x2="4642" y2="50.0" style="stroke:#999; stroke-width:3;" />
  <rect class="anc_exon" x="4642" y="35.0" width="78" height="30" style="fill:#87bcbc;fill-opacity:1.00" />
  <rect class="anc_exon" x="4720" y="35.0" width="0" height="30" style="fill:#87bcbc;fill-opacity:1.00" />
  <text style="" >
<tspan x="0" y="83.0" style="font-size:18px;" >SP XM_031961125_1.1</tspan>  </text>
  <text style="fill:#121212;" >
<tspan x="171.20000000000002" y="50.0" style="font-size:18px;fill:#121212;" >ag</tspan>  </text>
  <text style="fill:#121212;" >
<tspan x="1489" y="50.0" style="font-size:18px;fill:#121212;" >tt</tspan>  </text>



<script type="text/ecmascript">
<![CDATA[
function draw_bbox(text_id)
{
    var text_elem = document.getElementById(text_id);
    var offset_px = 2;
    var offset_py = 0;
    bbox = text_elem.getBBox();
    var box = document.createElementNS(document.rootElement.namespaceURI,'rect');
    box.setAttribute('x', bbox.x - offset_px);
    box.setAttribute('y', bbox.y - offset_py);
    box.setAttribute('width', bbox.width + offset_px * 2);
    box.setAttribute('height', bbox.height + offset_py * 2);
    box.setAttribute('style','fill: white;'+'stroke: black;'+'stroke-width: 1px;');
    text_elem.insertBefore(box,text_elem.childNodes[0]);

    var svg = text_elem.parentNode;
    svg.appendChild(text_elem);
}

for (var i=1; i < 1; i++)
{
draw_bbox("Mouseover" + i);
}
]]> 
</script>
</svg>
