<svg version="1.1"
xmlns="http://www.w3.org/2000/svg"
xmlns:xlink="http://www.w3.org/1999/xlink"
width="2781" height="110.0" viewBox = "0 -10.0 2781 110.0"
onclick="mouseclick(evt)">

<script type="text/ecmascript">

<![CDATA[
    function mouseover(evt, target) { 
    var gv = document.getElementById("globalVariable");
    var previoustarget = gv.firstChild.nodeValue;
    if (previoustarget != "none") 
    {
        	document.getElementById(gv.firstChild.nodeValue).setAttributeNS(null, "visibility", "hidden");
    }
    document.getElementById(target).setAttributeNS(null, "visibility", "visible");
    gv.firstChild.nodeValue = target;
        }

    function mouseclick(evt) { 
    var gv = document.getElementById("globalVariable");
    var previoustarget = gv.firstChild.nodeValue;
    if (previoustarget != "none") {
        	document.getElementById(gv.firstChild.nodeValue).setAttributeNS(null, "visibility", "hidden");
        }
    }
]]>
  </script>
<style type="text/css" >

<![CDATA[
    rect.anc_exon {
              stroke-width:3;
                  }

    rect.non_anc_exon {
              stroke: black; stroke-width:3; stroke-dasharray: 5,5;
                    }

    text {
              font-size: 18px;
              font-family: Courier New;
          }
                    ]]>
</style>

<defs>
    <text x="150" y="40" id="globalVariable">none</text>
</defs>

  <rect class="anc_exon" x="0" y="35.0" width="0" height="30" style="fill:#87bcbc;fill-opacity:1.00" />
  <rect class="anc_exon" x="0" y="35.0" width="69.60000000000001" height="30" style="fill:#87bcbc;fill-opacity:1.00" />
  <polygon points="3.2,35.0 5.7,25.0 0.7000000000000002,25.0" style="fill:#121212; stroke-opacity:1; fill-opacity:1"/>
  <line x1="4.0" y1="35.0" x2="4.0" y2="65.0" style="stroke:#878787;stroke-width:3;"/>
  <text style="" text-anchor="middle">
<tspan x="3.2" y="26.0" style="font-size:18px;fill:#878787;" >TGA</tspan>  </text>
  <line x1="69.60000000000001" y1="50.0" x2="88.60000000000001" y2="50.0" style="stroke:#999; stroke-width:3;" />
  <line x1="88.60000000000001" y1="50.0" x2="88.60000000000001" y2="50.0" style="stroke:#999; stroke-width:3;" />
  <line x1="88.60000000000001" y1="50.0" x2="88.60000000000001" y2="50.0" style="stroke:#999; stroke-width:3;" />
  <line x1="88.60000000000001" y1="50.0" x2="109.0" y2="50.0" style="stroke:#999; stroke-width:3;" />
  <rect class="anc_exon" x="109" y="35.0" width="136" height="30" style="fill:#87bcbc;fill-opacity:1.00" />
  <line x1="245" y1="50.0" x2="265" y2="50.0" style="stroke:#999; stroke-width:3;" />
  <line x1="265" y1="50.0" x2="265" y2="50.0" style="stroke:#999; stroke-width:3;" />
  <line x1="265" y1="50.0" x2="265" y2="50.0" style="stroke:#999; stroke-width:3;" />
  <line x1="265" y1="50.0" x2="285" y2="50.0" style="stroke:#999; stroke-width:3;" />
  <rect class="anc_exon" x="285" y="35.0" width="194" height="30" style="fill:#87bcbc;fill-opacity:1.00" />
  <line x1="479" y1="50.0" x2="499" y2="50.0" style="stroke:#999; stroke-width:3;" />
  <line x1="499" y1="50.0" x2="499" y2="50.0" style="stroke:#999; stroke-width:3;" />
  <line x1="499" y1="50.0" x2="499" y2="50.0" style="stroke:#999; stroke-width:3;" />
  <line x1="499" y1="50.0" x2="519" y2="50.0" style="stroke:#999; stroke-width:3;" />
  <rect class="anc_exon" x="519" y="35.0" width="156" height="30" style="fill:#87bcbc;fill-opacity:1.00" />
  <line x1="675" y1="50.0" x2="695" y2="50.0" style="stroke:#999; stroke-width:3;" />
  <line x1="695" y1="50.0" x2="695" y2="50.0" style="stroke:#999; stroke-width:3;" />
  <line x1="695" y1="50.0" x2="695" y2="50.0" style="stroke:#999; stroke-width:3;" />
  <line x1="695" y1="50.0" x2="715" y2="50.0" style="stroke:#999; stroke-width:3;" />
  <rect class="anc_exon" x="715" y="35.0" width="54" height="30" style="fill:#87bcbc;fill-opacity:1.00" />
  <line x1="769" y1="50.0" x2="789" y2="50.0" style="stroke:#999; stroke-width:3;" />
  <line x1="789" y1="50.0" x2="789" y2="50.0" style="stroke:#999; stroke-width:3;" />
  <line x1="789" y1="50.0" x2="789" y2="50.0" style="stroke:#999; stroke-width:3;" />
  <line x1="789" y1="50.0" x2="809" y2="50.0" style="stroke:#999; stroke-width:3;" />
  <rect class="anc_exon" x="809" y="35.0" width="64" height="30" style="fill:#87bcbc;fill-opacity:1.00" />
  <line x1="873" y1="50.0" x2="893" y2="50.0" style="stroke:#999; stroke-width:3;" />
  <line x1="893" y1="50.0" x2="893" y2="50.0" style="stroke:#999; stroke-width:3;" />
  <line x1="893" y1="50.0" x2="893" y2="50.0" style="stroke:#999; stroke-width:3;" />
  <line x1="893" y1="50.0" x2="913" y2="50.0" style="stroke:#999; stroke-width:3;" />
  <rect class="anc_exon" x="913" y="35.0" width="64" height="30" style="fill:#87bcbc;fill-opacity:1.00" />
  <line x1="977" y1="50.0" x2="997" y2="50.0" style="stroke:#999; stroke-width:3;" />
  <line x1="997" y1="50.0" x2="997" y2="50.0" style="stroke:#999; stroke-width:3;" />
  <line x1="997" y1="50.0" x2="997" y2="50.0" style="stroke:#999; stroke-width:3;" />
  <line x1="997" y1="50.0" x2="1017" y2="50.0" style="stroke:#999; stroke-width:3;" />
  <rect class="anc_exon" x="1017" y="35.0" width="804" height="30" style="fill:#87bcbc;fill-opacity:1.00" />
  <line x1="1047.4" y1="35.0" x2="1047.4" y2="65.0" style="stroke:#121212;stroke-width:3;"/>
  <text style="" text-anchor="middle">
<tspan x="1046.6" y="26.0" style="font-size:18px;fill:#121212;" >TAA</tspan>  </text>
  <line x1="1821" y1="50.0" x2="1861" y2="50.0" style="stroke:#999; stroke-width:3;" />
  <rect class="anc_exon" x="1861" y="35.0" width="111" height="30" style="fill:#87bcbc;fill-opacity:1.00" />
  <line x1="1972" y1="50.0" x2="1992" y2="50.0" style="stroke:#999; stroke-width:3;" />
  <line x1="1992" y1="50.0" x2="1992" y2="50.0" style="stroke:#999; stroke-width:3;" />
  <line x1="1992" y1="50.0" x2="1992" y2="50.0" style="stroke:#999; stroke-width:3;" />
  <line x1="1992" y1="50.0" x2="2012" y2="50.0" style="stroke:#999; stroke-width:3;" />
  <rect class="anc_exon" x="2012" y="35.0" width="119" height="30" style="fill:#87bcbc;fill-opacity:1.00" />
  <line x1="2131" y1="50.0" x2="2151" y2="50.0" style="stroke:#999; stroke-width:3;" />
  <line x1="2151" y1="50.0" x2="2151" y2="50.0" style="stroke:#999; stroke-width:3;" />
  <line x1="2151" y1="50.0" x2="2151" y2="50.0" style="stroke:#999; stroke-width:3;" />
  <line x1="2151" y1="50.0" x2="2171" y2="50.0" style="stroke:#999; stroke-width:3;" />
  <rect class="anc_exon" x="2171" y="35.0" width="72" height="30" style="fill:#87bcbc;fill-opacity:1.00" />
  <line x1="2243" y1="50.0" x2="2263" y2="50.0" style="stroke:#999; stroke-width:3;" />
  <line x1="2263" y1="50.0" x2="2263" y2="50.0" style="stroke:#999; stroke-width:3;" />
  <line x1="2263" y1="50.0" x2="2263" y2="50.0" style="stroke:#999; stroke-width:3;" />
  <line x1="2263" y1="50.0" x2="2283" y2="50.0" style="stroke:#999; stroke-width:3;" />
  <rect class="anc_exon" x="2283" y="35.0" width="158" height="30" style="fill:#87bcbc;fill-opacity:1.00" />
  <line x1="2441" y1="50.0" x2="2461" y2="50.0" style="stroke:#999; stroke-width:3;" />
  <line x1="2461" y1="50.0" x2="2461" y2="50.0" style="stroke:#999; stroke-width:3;" />
  <line x1="2461" y1="50.0" x2="2461" y2="50.0" style="stroke:#999; stroke-width:3;" />
  <line x1="2461" y1="50.0" x2="2481" y2="50.0" style="stroke:#999; stroke-width:3;" />
  <rect class="anc_exon" x="2481" y="35.0" width="154" height="30" style="fill:#87bcbc;fill-opacity:1.00" />
  <line x1="2635" y1="50.0" x2="2655" y2="50.0" style="stroke:#999; stroke-width:3;" />
  <line x1="2655" y1="50.0" x2="2655" y2="50.0" style="stroke:#999; stroke-width:3;" />
  <line x1="2655" y1="50.0" x2="2655" y2="50.0" style="stroke:#999; stroke-width:3;" />
  <line x1="2655" y1="50.0" x2="2675" y2="50.0" style="stroke:#999; stroke-width:3;" />
  <rect class="anc_exon" x="2675" y="35.0" width="70" height="30" style="fill:#87bcbc;fill-opacity:1.00" />
  <rect class="anc_exon" x="2745" y="35.0" width="0" height="30" style="fill:#87bcbc;fill-opacity:1.00" />
  <text style="" >
<tspan x="0" y="83.0" style="font-size:18px;" >SP XM_031959623_1.1</tspan>  </text>



<script type="text/ecmascript">
<![CDATA[
function draw_bbox(text_id)
{
    var text_elem = document.getElementById(text_id);
    var offset_px = 2;
    var offset_py = 0;
    bbox = text_elem.getBBox();
    var box = document.createElementNS(document.rootElement.namespaceURI,'rect');
    box.setAttribute('x', bbox.x - offset_px);
    box.setAttribute('y', bbox.y - offset_py);
    box.setAttribute('width', bbox.width + offset_px * 2);
    box.setAttribute('height', bbox.height + offset_py * 2);
    box.setAttribute('style','fill: white;'+'stroke: black;'+'stroke-width: 1px;');
    text_elem.insertBefore(box,text_elem.childNodes[0]);

    var svg = text_elem.parentNode;
    svg.appendChild(text_elem);
}

for (var i=1; i < 1; i++)
{
draw_bbox("Mouseover" + i);
}
]]> 
</script>
</svg>
