<svg version="1.1"
xmlns="http://www.w3.org/2000/svg"
xmlns:xlink="http://www.w3.org/1999/xlink"
width="2005" height="100" viewBox = "0 0 2005 100"
onclick="mouseclick(evt)">

<script type="text/ecmascript">

<![CDATA[
    function mouseover(evt, target) { 
    var gv = document.getElementById("globalVariable");
    var previoustarget = gv.firstChild.nodeValue;
    if (previoustarget != "none") 
    {
        	document.getElementById(gv.firstChild.nodeValue).setAttributeNS(null, "visibility", "hidden");
    }
    document.getElementById(target).setAttributeNS(null, "visibility", "visible");
    gv.firstChild.nodeValue = target;
        }

    function mouseclick(evt) { 
    var gv = document.getElementById("globalVariable");
    var previoustarget = gv.firstChild.nodeValue;
    if (previoustarget != "none") {
        	document.getElementById(gv.firstChild.nodeValue).setAttributeNS(null, "visibility", "hidden");
        }
    }
]]>
  </script>
<style type="text/css" >

<![CDATA[
    rect.anc_exon {
              stroke-width:3;
                  }

    rect.non_anc_exon {
              stroke: black; stroke-width:3; stroke-dasharray: 5,5;
                    }

    text {
              font-size: 18px;
              font-family: Courier New;
          }
                    ]]>
</style>

<defs>
    <text x="150" y="40" id="globalVariable">none</text>
</defs>

  <rect class="anc_exon" x="0" y="35.0" width="0" height="30" style="fill:#87bcbc;fill-opacity:1.00" />
  <rect class="anc_exon" x="0" y="35.0" width="62.400000000000006" height="30" style="fill:#878787;fill-opacity:1.00" />
  <line x1="62.400000000000006" y1="50.0" x2="81.4" y2="50.0" style="stroke:#999; stroke-width:3;" />
  <line x1="81.4" y1="50.0" x2="81.4" y2="50.0" style="stroke:#999; stroke-width:3;" />
  <line x1="81.4" y1="50.0" x2="81.4" y2="50.0" style="stroke:#999; stroke-width:3;" />
  <line x1="81.4" y1="50.0" x2="102.0" y2="50.0" style="stroke:#999; stroke-width:3;" />
  <rect class="anc_exon" x="102" y="35.0" width="72" height="30" style="fill:#87bcbc;fill-opacity:1.00" />
  <line x1="174" y1="50.0" x2="194" y2="50.0" style="stroke:#999; stroke-width:3;" />
  <line x1="194" y1="50.0" x2="194" y2="50.0" style="stroke:#999; stroke-width:3;" />
  <line x1="194" y1="50.0" x2="194" y2="50.0" style="stroke:#999; stroke-width:3;" />
  <line x1="194" y1="50.0" x2="214" y2="50.0" style="stroke:#999; stroke-width:3;" />
  <rect class="anc_exon" x="214" y="35.0" width="80" height="30" style="fill:#878787;fill-opacity:1.00" />
  <line x1="294" y1="50.0" x2="334" y2="50.0" style="stroke:#999; stroke-width:3;" />
  <rect class="anc_exon" x="334" y="35.0" width="186" height="30" style="fill:#87bcbc;fill-opacity:1.00" />
  <line x1="520" y1="50.0" x2="560" y2="50.0" style="stroke:#999; stroke-width:3;" />
  <rect class="anc_exon" x="560" y="35.0" width="118" height="30" style="fill:#87bcbc;fill-opacity:1.00" />
  <line x1="678" y1="50.0" x2="718" y2="50.0" style="stroke:#999; stroke-width:3;" />
  <rect class="anc_exon" x="718" y="35.0" width="124" height="30" style="fill:#87bcbc;fill-opacity:1.00" />
  <line x1="842" y1="50.0" x2="862" y2="50.0" style="stroke:#999; stroke-width:3;" />
  <line x1="862" y1="50.0" x2="862" y2="50.0" style="stroke:#999; stroke-width:3;" />
  <line x1="862" y1="50.0" x2="862" y2="50.0" style="stroke:#999; stroke-width:3;" />
  <line x1="862" y1="50.0" x2="882" y2="50.0" style="stroke:#999; stroke-width:3;" />
  <rect class="anc_exon" x="882" y="35.0" width="92" height="30" style="fill:#87bcbc;fill-opacity:1.00" />
  <line x1="974" y1="50.0" x2="1014" y2="50.0" style="stroke:#999; stroke-width:3;" />
  <rect class="anc_exon" x="1014" y="35.0" width="56" height="30" style="fill:#87bcbc;fill-opacity:1.00" />
  <line x1="1070" y1="50.0" x2="1110" y2="50.0" style="stroke:#999; stroke-width:3;" />
  <rect class="anc_exon" x="1110" y="35.0" width="108" height="30" style="fill:#878787;fill-opacity:1.00" />
  <line x1="1218" y1="50.0" x2="1258" y2="50.0" style="stroke:#999; stroke-width:3;" />
  <rect class="anc_exon" x="1258" y="35.0" width="139" height="30" style="fill:#878787;fill-opacity:1.00" />
  <line x1="1397" y1="50.0" x2="1437" y2="50.0" style="stroke:#999; stroke-width:3;" />
  <rect class="anc_exon" x="1437" y="35.0" width="48" height="30" style="fill:#87bcbc;fill-opacity:1.00" />
  <line x1="1485" y1="50.0" x2="1525" y2="50.0" style="stroke:#999; stroke-width:3;" />
  <rect class="anc_exon" x="1525" y="35.0" width="124" height="30" style="fill:#87bcbc;fill-opacity:1.00" />
  <line x1="1649" y1="50.0" x2="1689" y2="50.0" style="stroke:#999; stroke-width:3;" />
  <rect class="anc_exon" x="1689" y="35.0" width="114" height="30" style="fill:#87bcbc;fill-opacity:1.00" />
  <line x1="1803" y1="50.0" x2="1843" y2="50.0" style="stroke:#999; stroke-width:3;" />
  <rect class="anc_exon" x="1843" y="35.0" width="73" height="30" style="fill:#878787;fill-opacity:1.00" />
  <line x1="1916" y1="50.0" x2="1956" y2="50.0" style="stroke:#999; stroke-width:3;" />
  <rect class="anc_exon" x="1956" y="35.0" width="13" height="30" style="fill:#878787;fill-opacity:1.00" />
  <rect class="anc_exon" x="1969" y="35.0" width="0" height="30" style="fill:#87bcbc;fill-opacity:1.00" />
  <text style="" >
<tspan x="0" y="83.0" style="font-size:18px;" >SP XM_031963283_1.1</tspan>  </text>



<script type="text/ecmascript">
<![CDATA[
function draw_bbox(text_id)
{
    var text_elem = document.getElementById(text_id);
    var offset_px = 2;
    var offset_py = 0;
    bbox = text_elem.getBBox();
    var box = document.createElementNS(document.rootElement.namespaceURI,'rect');
    box.setAttribute('x', bbox.x - offset_px);
    box.setAttribute('y', bbox.y - offset_py);
    box.setAttribute('width', bbox.width + offset_px * 2);
    box.setAttribute('height', bbox.height + offset_py * 2);
    box.setAttribute('style','fill: white;'+'stroke: black;'+'stroke-width: 1px;');
    text_elem.insertBefore(box,text_elem.childNodes[0]);

    var svg = text_elem.parentNode;
    svg.appendChild(text_elem);
}

for (var i=1; i < 1; i++)
{
draw_bbox("Mouseover" + i);
}
]]> 
</script>
</svg>
