<svg version="1.1"
xmlns="http://www.w3.org/2000/svg"
xmlns:xlink="http://www.w3.org/1999/xlink"
width="2501" height="100" viewBox = "0 0 2501 100"
onclick="mouseclick(evt)">

<script type="text/ecmascript">

<![CDATA[
    function mouseover(evt, target) { 
    var gv = document.getElementById("globalVariable");
    var previoustarget = gv.firstChild.nodeValue;
    if (previoustarget != "none") 
    {
        	document.getElementById(gv.firstChild.nodeValue).setAttributeNS(null, "visibility", "hidden");
    }
    document.getElementById(target).setAttributeNS(null, "visibility", "visible");
    gv.firstChild.nodeValue = target;
        }

    function mouseclick(evt) { 
    var gv = document.getElementById("globalVariable");
    var previoustarget = gv.firstChild.nodeValue;
    if (previoustarget != "none") {
        	document.getElementById(gv.firstChild.nodeValue).setAttributeNS(null, "visibility", "hidden");
        }
    }
]]>
  </script>
<style type="text/css" >

<![CDATA[
    rect.anc_exon {
              stroke-width:3;
                  }

    rect.non_anc_exon {
              stroke: black; stroke-width:3; stroke-dasharray: 5,5;
                    }

    text {
              font-size: 18px;
              font-family: Courier New;
          }
                    ]]>
</style>

<defs>
    <text x="150" y="40" id="globalVariable">none</text>
</defs>

  <rect class="anc_exon" x="0" y="35.0" width="0" height="30" style="fill:#87bcbc;fill-opacity:1.00" />
  <rect class="anc_exon" x="0" y="35.0" width="91.2" height="30" style="fill:#87bcbc;fill-opacity:1.00" />
  <line x1="91.2" y1="50.0" x2="110.2" y2="50.0" style="stroke:#999; stroke-width:3;" />
  <line x1="110.2" y1="50.0" x2="110.2" y2="50.0" style="stroke:#999; stroke-width:3;" />
  <line x1="110.2" y1="50.0" x2="110.2" y2="50.0" style="stroke:#999; stroke-width:3;" />
  <line x1="110.2" y1="50.0" x2="131.0" y2="50.0" style="stroke:#999; stroke-width:3;" />
  <rect class="anc_exon" x="131" y="35.0" width="114" height="30" style="fill:#87bcbc;fill-opacity:1.00" />
  <line x1="245" y1="50.0" x2="265" y2="50.0" style="stroke:#999; stroke-width:3;" />
  <line x1="265" y1="50.0" x2="265" y2="50.0" style="stroke:#999; stroke-width:3;" />
  <line x1="265" y1="50.0" x2="265" y2="50.0" style="stroke:#999; stroke-width:3;" />
  <line x1="265" y1="50.0" x2="285" y2="50.0" style="stroke:#999; stroke-width:3;" />
  <rect class="anc_exon" x="285" y="35.0" width="148" height="30" style="fill:#87bcbc;fill-opacity:1.00" />
  <line x1="433" y1="50.0" x2="453" y2="50.0" style="stroke:#999; stroke-width:3;" />
  <line x1="453" y1="50.0" x2="453" y2="50.0" style="stroke:#999; stroke-width:3;" />
  <line x1="453" y1="50.0" x2="453" y2="50.0" style="stroke:#999; stroke-width:3;" />
  <line x1="453" y1="50.0" x2="473" y2="50.0" style="stroke:#999; stroke-width:3;" />
  <rect class="anc_exon" x="473" y="35.0" width="76" height="30" style="fill:#87bcbc;fill-opacity:1.00" />
  <line x1="549" y1="50.0" x2="589" y2="50.0" style="stroke:#999; stroke-width:3;" />
  <rect class="anc_exon" x="589" y="35.0" width="150" height="30" style="fill:#87bcbc;fill-opacity:1.00" />
  <line x1="739" y1="50.0" x2="759" y2="50.0" style="stroke:#999; stroke-width:3;" />
  <line x1="759" y1="50.0" x2="759" y2="50.0" style="stroke:#999; stroke-width:3;" />
  <line x1="759" y1="50.0" x2="759" y2="50.0" style="stroke:#999; stroke-width:3;" />
  <line x1="759" y1="50.0" x2="779" y2="50.0" style="stroke:#999; stroke-width:3;" />
  <rect class="anc_exon" x="779" y="35.0" width="57" height="30" style="fill:#87bcbc;fill-opacity:1.00" />
  <line x1="836" y1="50.0" x2="876" y2="50.0" style="stroke:#999; stroke-width:3;" />
  <rect class="anc_exon" x="876" y="35.0" width="75" height="30" style="fill:#87bcbc;fill-opacity:1.00" />
  <line x1="951" y1="50.0" x2="971" y2="50.0" style="stroke:#999; stroke-width:3;" />
  <line x1="971" y1="50.0" x2="971" y2="50.0" style="stroke:#999; stroke-width:3;" />
  <line x1="971" y1="50.0" x2="971" y2="50.0" style="stroke:#999; stroke-width:3;" />
  <line x1="971" y1="50.0" x2="991" y2="50.0" style="stroke:#999; stroke-width:3;" />
  <rect class="anc_exon" x="991" y="35.0" width="100" height="30" style="fill:#87bcbc;fill-opacity:1.00" />
  <line x1="1091" y1="50.0" x2="1131" y2="50.0" style="stroke:#999; stroke-width:3;" />
  <rect class="anc_exon" x="1131" y="35.0" width="123" height="30" style="fill:#87bcbc;fill-opacity:1.00" />
  <line x1="1254" y1="50.0" x2="1294" y2="50.0" style="stroke:#999; stroke-width:3;" />
  <rect class="anc_exon" x="1294" y="35.0" width="140" height="30" style="fill:#87bcbc;fill-opacity:1.00" />
  <line x1="1434" y1="50.0" x2="1454" y2="50.0" style="stroke:#999; stroke-width:3;" />
  <line x1="1454" y1="50.0" x2="1454" y2="50.0" style="stroke:#999; stroke-width:3;" />
  <line x1="1454" y1="50.0" x2="1454" y2="50.0" style="stroke:#999; stroke-width:3;" />
  <line x1="1454" y1="50.0" x2="1474" y2="50.0" style="stroke:#999; stroke-width:3;" />
  <rect class="anc_exon" x="1474" y="35.0" width="71" height="30" style="fill:#87bcbc;fill-opacity:1.00" />
  <line x1="1545" y1="50.0" x2="1565" y2="50.0" style="stroke:#999; stroke-width:3;" />
  <line x1="1565" y1="50.0" x2="1565" y2="50.0" style="stroke:#999; stroke-width:3;" />
  <line x1="1565" y1="50.0" x2="1565" y2="50.0" style="stroke:#999; stroke-width:3;" />
  <line x1="1565" y1="50.0" x2="1585" y2="50.0" style="stroke:#999; stroke-width:3;" />
  <rect class="anc_exon" x="1585" y="35.0" width="98" height="30" style="fill:#87bcbc;fill-opacity:1.00" />
  <line x1="1683" y1="50.0" x2="1703" y2="50.0" style="stroke:#999; stroke-width:3;" />
  <line x1="1703" y1="50.0" x2="1703" y2="50.0" style="stroke:#999; stroke-width:3;" />
  <line x1="1703" y1="50.0" x2="1703" y2="50.0" style="stroke:#999; stroke-width:3;" />
  <line x1="1703" y1="50.0" x2="1723" y2="50.0" style="stroke:#999; stroke-width:3;" />
  <rect class="anc_exon" x="1723" y="35.0" width="21" height="30" style="fill:#87bcbc;fill-opacity:1.00" />
  <line x1="1744" y1="50.0" x2="1764" y2="50.0" style="stroke:#999; stroke-width:3;" />
  <line x1="1764" y1="50.0" x2="1764" y2="50.0" style="stroke:#999; stroke-width:3;" />
  <line x1="1764" y1="50.0" x2="1764" y2="50.0" style="stroke:#999; stroke-width:3;" />
  <line x1="1764" y1="50.0" x2="1784" y2="50.0" style="stroke:#999; stroke-width:3;" />
  <rect class="anc_exon" x="1784" y="35.0" width="115" height="30" style="fill:#87bcbc;fill-opacity:1.00" />
  <line x1="1899" y1="50.0" x2="1939" y2="50.0" style="stroke:#999; stroke-width:3;" />
  <rect class="anc_exon" x="1939" y="35.0" width="133" height="30" style="fill:#87bcbc;fill-opacity:1.00" />
  <line x1="2072" y1="50.0" x2="2092" y2="50.0" style="stroke:#999; stroke-width:3;" />
  <line x1="2092" y1="50.0" x2="2092" y2="50.0" style="stroke:#999; stroke-width:3;" />
  <line x1="2092" y1="50.0" x2="2092" y2="50.0" style="stroke:#999; stroke-width:3;" />
  <line x1="2092" y1="50.0" x2="2112" y2="50.0" style="stroke:#999; stroke-width:3;" />
  <rect class="anc_exon" x="2112" y="35.0" width="130" height="30" style="fill:#87bcbc;fill-opacity:1.00" />
  <line x1="2242" y1="50.0" x2="2262" y2="50.0" style="stroke:#999; stroke-width:3;" />
  <line x1="2262" y1="50.0" x2="2262" y2="50.0" style="stroke:#999; stroke-width:3;" />
  <line x1="2262" y1="50.0" x2="2262" y2="50.0" style="stroke:#999; stroke-width:3;" />
  <line x1="2262" y1="50.0" x2="2282" y2="50.0" style="stroke:#999; stroke-width:3;" />
  <rect class="anc_exon" x="2282" y="35.0" width="68" height="30" style="fill:#87bcbc;fill-opacity:1.00" />
  <line x1="2350" y1="50.0" x2="2390" y2="50.0" style="stroke:#999; stroke-width:3;" />
  <rect class="anc_exon" x="2390" y="35.0" width="75" height="30" style="fill:#87bcbc;fill-opacity:1.00" />
  <rect class="anc_exon" x="2465" y="35.0" width="0" height="30" style="fill:#87bcbc;fill-opacity:1.00" />
  <text style="" >
<tspan x="0" y="83.0" style="font-size:18px;" >SP XM_031957708_1.1</tspan>  </text>



<script type="text/ecmascript">
<![CDATA[
function draw_bbox(text_id)
{
    var text_elem = document.getElementById(text_id);
    var offset_px = 2;
    var offset_py = 0;
    bbox = text_elem.getBBox();
    var box = document.createElementNS(document.rootElement.namespaceURI,'rect');
    box.setAttribute('x', bbox.x - offset_px);
    box.setAttribute('y', bbox.y - offset_py);
    box.setAttribute('width', bbox.width + offset_px * 2);
    box.setAttribute('height', bbox.height + offset_py * 2);
    box.setAttribute('style','fill: white;'+'stroke: black;'+'stroke-width: 1px;');
    text_elem.insertBefore(box,text_elem.childNodes[0]);

    var svg = text_elem.parentNode;
    svg.appendChild(text_elem);
}

for (var i=1; i < 1; i++)
{
draw_bbox("Mouseover" + i);
}
]]> 
</script>
</svg>
