<svg version="1.1"
xmlns="http://www.w3.org/2000/svg"
xmlns:xlink="http://www.w3.org/1999/xlink"
width="3326" height="100" viewBox = "0 0 3326 100"
onclick="mouseclick(evt)">

<script type="text/ecmascript">

<![CDATA[
    function mouseover(evt, target) { 
    var gv = document.getElementById("globalVariable");
    var previoustarget = gv.firstChild.nodeValue;
    if (previoustarget != "none") 
    {
        	document.getElementById(gv.firstChild.nodeValue).setAttributeNS(null, "visibility", "hidden");
    }
    document.getElementById(target).setAttributeNS(null, "visibility", "visible");
    gv.firstChild.nodeValue = target;
        }

    function mouseclick(evt) { 
    var gv = document.getElementById("globalVariable");
    var previoustarget = gv.firstChild.nodeValue;
    if (previoustarget != "none") {
        	document.getElementById(gv.firstChild.nodeValue).setAttributeNS(null, "visibility", "hidden");
        }
    }
]]>
  </script>
<style type="text/css" >

<![CDATA[
    rect.anc_exon {
              stroke-width:3;
                  }

    rect.non_anc_exon {
              stroke: black; stroke-width:3; stroke-dasharray: 5,5;
                    }

    text {
              font-size: 18px;
              font-family: Courier New;
          }
                    ]]>
</style>

<defs>
    <text x="150" y="40" id="globalVariable">none</text>
</defs>

  <rect class="anc_exon" x="0" y="35.0" width="0" height="30" style="fill:#87bcbc;fill-opacity:1.00" />
  <rect class="anc_exon" x="0" y="35.0" width="24.0" height="30" style="fill:#87bcbc;fill-opacity:1.00" />
  <line x1="24.0" y1="50.0" x2="44.0" y2="50.0" style="stroke:#999; stroke-width:3;" />
  <line x1="44.0" y1="50.0" x2="44.0" y2="50.0" style="stroke:#999; stroke-width:3;" />
  <line x1="44.0" y1="50.0" x2="44.0" y2="50.0" style="stroke:#999; stroke-width:3;" />
  <line x1="44.0" y1="50.0" x2="64.0" y2="50.0" style="stroke:#999; stroke-width:3;" />
  <rect class="anc_exon" x="64" y="35.0" width="67" height="30" style="fill:#87bcbc;fill-opacity:1.00" />
  <line x1="131" y1="50.0" x2="171" y2="50.0" style="stroke:#999; stroke-width:3;" />
  <rect class="anc_exon" x="171" y="35.0" width="36" height="30" style="fill:#87bcbc;fill-opacity:1.00" />
  <line x1="207" y1="50.0" x2="227" y2="50.0" style="stroke:#999; stroke-width:3;" />
  <line x1="227" y1="50.0" x2="227" y2="50.0" style="stroke:#999; stroke-width:3;" />
  <line x1="227" y1="50.0" x2="227" y2="50.0" style="stroke:#999; stroke-width:3;" />
  <line x1="227" y1="50.0" x2="247" y2="50.0" style="stroke:#999; stroke-width:3;" />
  <rect class="anc_exon" x="247" y="35.0" width="129" height="30" style="fill:#87bcbc;fill-opacity:1.00" />
  <line x1="376" y1="50.0" x2="396" y2="50.0" style="stroke:#999; stroke-width:3;" />
  <line x1="396" y1="50.0" x2="396" y2="50.0" style="stroke:#999; stroke-width:3;" />
  <line x1="396" y1="50.0" x2="396" y2="50.0" style="stroke:#999; stroke-width:3;" />
  <line x1="396" y1="50.0" x2="416" y2="50.0" style="stroke:#999; stroke-width:3;" />
  <rect class="anc_exon" x="416" y="35.0" width="108" height="30" style="fill:#87bcbc;fill-opacity:1.00" />
  <line x1="524" y1="50.0" x2="564" y2="50.0" style="stroke:#999; stroke-width:3;" />
  <rect class="anc_exon" x="564" y="35.0" width="112" height="30" style="fill:#87bcbc;fill-opacity:1.00" />
  <line x1="676" y1="50.0" x2="716" y2="50.0" style="stroke:#999; stroke-width:3;" />
  <rect class="anc_exon" x="716" y="35.0" width="141" height="30" style="fill:#87bcbc;fill-opacity:1.00" />
  <line x1="857" y1="50.0" x2="897" y2="50.0" style="stroke:#999; stroke-width:3;" />
  <rect class="anc_exon" x="897" y="35.0" width="80" height="30" style="fill:#87bcbc;fill-opacity:1.00" />
  <line x1="977" y1="50.0" x2="1017" y2="50.0" style="stroke:#999; stroke-width:3;" />
  <rect class="anc_exon" x="1017" y="35.0" width="87" height="30" style="fill:#87bcbc;fill-opacity:1.00" />
  <line x1="1104" y1="50.0" x2="1124" y2="50.0" style="stroke:#999; stroke-width:3;" />
  <line x1="1124" y1="50.0" x2="1124" y2="50.0" style="stroke:#999; stroke-width:3;" />
  <line x1="1124" y1="50.0" x2="1124" y2="50.0" style="stroke:#999; stroke-width:3;" />
  <line x1="1124" y1="50.0" x2="1144" y2="50.0" style="stroke:#999; stroke-width:3;" />
  <rect class="anc_exon" x="1144" y="35.0" width="134" height="30" style="fill:#87bcbc;fill-opacity:1.00" />
  <line x1="1278" y1="50.0" x2="1318" y2="50.0" style="stroke:#999; stroke-width:3;" />
  <rect class="anc_exon" x="1318" y="35.0" width="68" height="30" style="fill:#87bcbc;fill-opacity:1.00" />
  <line x1="1386" y1="50.0" x2="1406" y2="50.0" style="stroke:#999; stroke-width:3;" />
  <line x1="1406" y1="50.0" x2="1406" y2="50.0" style="stroke:#999; stroke-width:3;" />
  <line x1="1406" y1="50.0" x2="1406" y2="50.0" style="stroke:#999; stroke-width:3;" />
  <line x1="1406" y1="50.0" x2="1426" y2="50.0" style="stroke:#999; stroke-width:3;" />
  <rect class="anc_exon" x="1426" y="35.0" width="152" height="30" style="fill:#87bcbc;fill-opacity:1.00" />
  <line x1="1578" y1="50.0" x2="1618" y2="50.0" style="stroke:#999; stroke-width:3;" />
  <rect class="anc_exon" x="1618" y="35.0" width="80" height="30" style="fill:#87bcbc;fill-opacity:1.00" />
  <line x1="1698" y1="50.0" x2="1718" y2="50.0" style="stroke:#999; stroke-width:3;" />
  <line x1="1718" y1="50.0" x2="1718" y2="50.0" style="stroke:#999; stroke-width:3;" />
  <line x1="1718" y1="50.0" x2="1718" y2="50.0" style="stroke:#999; stroke-width:3;" />
  <line x1="1718" y1="50.0" x2="1738" y2="50.0" style="stroke:#999; stroke-width:3;" />
  <rect class="anc_exon" x="1738" y="35.0" width="91" height="30" style="fill:#87bcbc;fill-opacity:1.00" />
  <line x1="1829" y1="50.0" x2="1869" y2="50.0" style="stroke:#999; stroke-width:3;" />
  <rect class="anc_exon" x="1869" y="35.0" width="125" height="30" style="fill:#87bcbc;fill-opacity:1.00" />
  <line x1="1994" y1="50.0" x2="2014" y2="50.0" style="stroke:#999; stroke-width:3;" />
  <line x1="2014" y1="50.0" x2="2014" y2="50.0" style="stroke:#999; stroke-width:3;" />
  <line x1="2014" y1="50.0" x2="2014" y2="50.0" style="stroke:#999; stroke-width:3;" />
  <line x1="2014" y1="50.0" x2="2034" y2="50.0" style="stroke:#999; stroke-width:3;" />
  <rect class="anc_exon" x="2034" y="35.0" width="126" height="30" style="fill:#87bcbc;fill-opacity:1.00" />
  <line x1="2160" y1="50.0" x2="2180" y2="50.0" style="stroke:#999; stroke-width:3;" />
  <line x1="2180" y1="50.0" x2="2180" y2="50.0" style="stroke:#999; stroke-width:3;" />
  <line x1="2180" y1="50.0" x2="2180" y2="50.0" style="stroke:#999; stroke-width:3;" />
  <line x1="2180" y1="50.0" x2="2200" y2="50.0" style="stroke:#999; stroke-width:3;" />
  <rect class="anc_exon" x="2200" y="35.0" width="130" height="30" style="fill:#87bcbc;fill-opacity:1.00" />
  <line x1="2330" y1="50.0" x2="2370" y2="50.0" style="stroke:#999; stroke-width:3;" />
  <rect class="anc_exon" x="2370" y="35.0" width="69" height="30" style="fill:#87bcbc;fill-opacity:1.00" />
  <line x1="2439" y1="50.0" x2="2479" y2="50.0" style="stroke:#999; stroke-width:3;" />
  <rect class="anc_exon" x="2479" y="35.0" width="86" height="30" style="fill:#87bcbc;fill-opacity:1.00" />
  <line x1="2565" y1="50.0" x2="2585" y2="50.0" style="stroke:#999; stroke-width:3;" />
  <line x1="2585" y1="50.0" x2="2585" y2="50.0" style="stroke:#999; stroke-width:3;" />
  <line x1="2585" y1="50.0" x2="2585" y2="50.0" style="stroke:#999; stroke-width:3;" />
  <line x1="2585" y1="50.0" x2="2605" y2="50.0" style="stroke:#999; stroke-width:3;" />
  <rect class="anc_exon" x="2605" y="35.0" width="685" height="30" style="fill:#87bcbc;fill-opacity:1.00" />
  <rect class="anc_exon" x="3290" y="35.0" width="0" height="30" style="fill:#87bcbc;fill-opacity:1.00" />
  <text style="" >
<tspan x="0" y="83.0" style="font-size:18px;" >SP XM_031959293_1.1</tspan>  </text>



<script type="text/ecmascript">
<![CDATA[
function draw_bbox(text_id)
{
    var text_elem = document.getElementById(text_id);
    var offset_px = 2;
    var offset_py = 0;
    bbox = text_elem.getBBox();
    var box = document.createElementNS(document.rootElement.namespaceURI,'rect');
    box.setAttribute('x', bbox.x - offset_px);
    box.setAttribute('y', bbox.y - offset_py);
    box.setAttribute('width', bbox.width + offset_px * 2);
    box.setAttribute('height', bbox.height + offset_py * 2);
    box.setAttribute('style','fill: white;'+'stroke: black;'+'stroke-width: 1px;');
    text_elem.insertBefore(box,text_elem.childNodes[0]);

    var svg = text_elem.parentNode;
    svg.appendChild(text_elem);
}

for (var i=1; i < 1; i++)
{
draw_bbox("Mouseover" + i);
}
]]> 
</script>
</svg>
