<svg version="1.1"
xmlns="http://www.w3.org/2000/svg"
xmlns:xlink="http://www.w3.org/1999/xlink"
width="2608" height="100" viewBox = "0 0 2608 100"
onclick="mouseclick(evt)">

<script type="text/ecmascript">

<![CDATA[
    function mouseover(evt, target) { 
    var gv = document.getElementById("globalVariable");
    var previoustarget = gv.firstChild.nodeValue;
    if (previoustarget != "none") 
    {
        	document.getElementById(gv.firstChild.nodeValue).setAttributeNS(null, "visibility", "hidden");
    }
    document.getElementById(target).setAttributeNS(null, "visibility", "visible");
    gv.firstChild.nodeValue = target;
        }

    function mouseclick(evt) { 
    var gv = document.getElementById("globalVariable");
    var previoustarget = gv.firstChild.nodeValue;
    if (previoustarget != "none") {
        	document.getElementById(gv.firstChild.nodeValue).setAttributeNS(null, "visibility", "hidden");
        }
    }
]]>
  </script>
<style type="text/css" >

<![CDATA[
    rect.anc_exon {
              stroke-width:3;
                  }

    rect.non_anc_exon {
              stroke: black; stroke-width:3; stroke-dasharray: 5,5;
                    }

    text {
              font-size: 18px;
              font-family: Courier New;
          }
                    ]]>
</style>

<defs>
    <text x="150" y="40" id="globalVariable">none</text>
</defs>

  <rect class="anc_exon" x="0" y="35.0" width="0" height="30" style="fill:#87bcbc;fill-opacity:1.00" />
  <rect class="anc_exon" x="0" y="35.0" width="87.2" height="30" style="fill:#87bcbc;fill-opacity:1.00" />
  <line x1="87.2" y1="50.0" x2="106.2" y2="50.0" style="stroke:#999; stroke-width:3;" />
  <line x1="106.2" y1="50.0" x2="106.2" y2="50.0" style="stroke:#999; stroke-width:3;" />
  <line x1="106.2" y1="50.0" x2="106.2" y2="50.0" style="stroke:#999; stroke-width:3;" />
  <line x1="106.2" y1="50.0" x2="127.0" y2="50.0" style="stroke:#999; stroke-width:3;" />
  <rect class="anc_exon" x="127" y="35.0" width="73" height="30" style="fill:#87bcbc;fill-opacity:1.00" />
  <line x1="200" y1="50.0" x2="220" y2="50.0" style="stroke:#999; stroke-width:3;" />
  <line x1="220" y1="50.0" x2="220" y2="50.0" style="stroke:#999; stroke-width:3;" />
  <line x1="220" y1="50.0" x2="220" y2="50.0" style="stroke:#999; stroke-width:3;" />
  <line x1="220" y1="50.0" x2="240" y2="50.0" style="stroke:#999; stroke-width:3;" />
  <rect class="anc_exon" x="240" y="35.0" width="109" height="30" style="fill:#87bcbc;fill-opacity:1.00" />
  <line x1="349" y1="50.0" x2="369" y2="50.0" style="stroke:#999; stroke-width:3;" />
  <line x1="369" y1="50.0" x2="369" y2="50.0" style="stroke:#999; stroke-width:3;" />
  <line x1="369" y1="50.0" x2="369" y2="50.0" style="stroke:#999; stroke-width:3;" />
  <line x1="369" y1="50.0" x2="389" y2="50.0" style="stroke:#999; stroke-width:3;" />
  <rect class="anc_exon" x="389" y="35.0" width="131" height="30" style="fill:#87bcbc;fill-opacity:1.00" />
  <line x1="520" y1="50.0" x2="540" y2="50.0" style="stroke:#999; stroke-width:3;" />
  <line x1="540" y1="50.0" x2="540" y2="50.0" style="stroke:#999; stroke-width:3;" />
  <line x1="540" y1="50.0" x2="540" y2="50.0" style="stroke:#999; stroke-width:3;" />
  <line x1="540" y1="50.0" x2="560" y2="50.0" style="stroke:#999; stroke-width:3;" />
  <rect class="anc_exon" x="560" y="35.0" width="90" height="30" style="fill:#87bcbc;fill-opacity:1.00" />
  <line x1="650" y1="50.0" x2="690" y2="50.0" style="stroke:#999; stroke-width:3;" />
  <rect class="anc_exon" x="690" y="35.0" width="51" height="30" style="fill:#87bcbc;fill-opacity:1.00" />
  <line x1="741" y1="50.0" x2="781" y2="50.0" style="stroke:#999; stroke-width:3;" />
  <rect class="anc_exon" x="781" y="35.0" width="78" height="30" style="fill:#87bcbc;fill-opacity:1.00" />
  <line x1="859" y1="50.0" x2="879" y2="50.0" style="stroke:#999; stroke-width:3;" />
  <line x1="879" y1="50.0" x2="879" y2="50.0" style="stroke:#999; stroke-width:3;" />
  <line x1="879" y1="50.0" x2="879" y2="50.0" style="stroke:#999; stroke-width:3;" />
  <line x1="879" y1="50.0" x2="899" y2="50.0" style="stroke:#999; stroke-width:3;" />
  <rect class="anc_exon" x="899" y="35.0" width="81" height="30" style="fill:#87bcbc;fill-opacity:1.00" />
  <line x1="980" y1="50.0" x2="1000" y2="50.0" style="stroke:#999; stroke-width:3;" />
  <line x1="1000" y1="50.0" x2="1000" y2="50.0" style="stroke:#999; stroke-width:3;" />
  <line x1="1000" y1="50.0" x2="1000" y2="50.0" style="stroke:#999; stroke-width:3;" />
  <line x1="1000" y1="50.0" x2="1020" y2="50.0" style="stroke:#999; stroke-width:3;" />
  <rect class="anc_exon" x="1020" y="35.0" width="100" height="30" style="fill:#87bcbc;fill-opacity:1.00" />
  <line x1="1120" y1="50.0" x2="1140" y2="50.0" style="stroke:#999; stroke-width:3;" />
  <line x1="1140" y1="50.0" x2="1140" y2="50.0" style="stroke:#999; stroke-width:3;" />
  <line x1="1140" y1="50.0" x2="1140" y2="50.0" style="stroke:#999; stroke-width:3;" />
  <line x1="1140" y1="50.0" x2="1160" y2="50.0" style="stroke:#999; stroke-width:3;" />
  <rect class="anc_exon" x="1160" y="35.0" width="97" height="30" style="fill:#87bcbc;fill-opacity:1.00" />
  <line x1="1257" y1="50.0" x2="1277" y2="50.0" style="stroke:#999; stroke-width:3;" />
  <line x1="1277" y1="50.0" x2="1277" y2="50.0" style="stroke:#999; stroke-width:3;" />
  <line x1="1277" y1="50.0" x2="1277" y2="50.0" style="stroke:#999; stroke-width:3;" />
  <line x1="1277" y1="50.0" x2="1297" y2="50.0" style="stroke:#999; stroke-width:3;" />
  <rect class="anc_exon" x="1297" y="35.0" width="84" height="30" style="fill:#87bcbc;fill-opacity:1.00" />
  <line x1="1381" y1="50.0" x2="1401" y2="50.0" style="stroke:#999; stroke-width:3;" />
  <line x1="1401" y1="50.0" x2="1401" y2="50.0" style="stroke:#999; stroke-width:3;" />
  <line x1="1401" y1="50.0" x2="1401" y2="50.0" style="stroke:#999; stroke-width:3;" />
  <line x1="1401" y1="50.0" x2="1421" y2="50.0" style="stroke:#999; stroke-width:3;" />
  <rect class="anc_exon" x="1421" y="35.0" width="100" height="30" style="fill:#87bcbc;fill-opacity:1.00" />
  <line x1="1521" y1="50.0" x2="1541" y2="50.0" style="stroke:#999; stroke-width:3;" />
  <line x1="1541" y1="50.0" x2="1541" y2="50.0" style="stroke:#999; stroke-width:3;" />
  <line x1="1541" y1="50.0" x2="1541" y2="50.0" style="stroke:#999; stroke-width:3;" />
  <line x1="1541" y1="50.0" x2="1561" y2="50.0" style="stroke:#999; stroke-width:3;" />
  <rect class="anc_exon" x="1561" y="35.0" width="113" height="30" style="fill:#87bcbc;fill-opacity:1.00" />
  <line x1="1674" y1="50.0" x2="1694" y2="50.0" style="stroke:#999; stroke-width:3;" />
  <line x1="1694" y1="50.0" x2="1694" y2="50.0" style="stroke:#999; stroke-width:3;" />
  <line x1="1694" y1="50.0" x2="1694" y2="50.0" style="stroke:#999; stroke-width:3;" />
  <line x1="1694" y1="50.0" x2="1714" y2="50.0" style="stroke:#999; stroke-width:3;" />
  <rect class="anc_exon" x="1714" y="35.0" width="50" height="30" style="fill:#87bcbc;fill-opacity:1.00" />
  <line x1="1764" y1="50.0" x2="1784" y2="50.0" style="stroke:#999; stroke-width:3;" />
  <line x1="1784" y1="50.0" x2="1784" y2="50.0" style="stroke:#999; stroke-width:3;" />
  <line x1="1784" y1="50.0" x2="1784" y2="50.0" style="stroke:#999; stroke-width:3;" />
  <line x1="1784" y1="50.0" x2="1804" y2="50.0" style="stroke:#999; stroke-width:3;" />
  <rect class="anc_exon" x="1804" y="35.0" width="91" height="30" style="fill:#87bcbc;fill-opacity:1.00" />
  <line x1="1895" y1="50.0" x2="1915" y2="50.0" style="stroke:#999; stroke-width:3;" />
  <line x1="1915" y1="50.0" x2="1915" y2="50.0" style="stroke:#999; stroke-width:3;" />
  <line x1="1915" y1="50.0" x2="1915" y2="50.0" style="stroke:#999; stroke-width:3;" />
  <line x1="1915" y1="50.0" x2="1935" y2="50.0" style="stroke:#999; stroke-width:3;" />
  <rect class="anc_exon" x="1935" y="35.0" width="52" height="30" style="fill:#87bcbc;fill-opacity:1.00" />
  <line x1="1987" y1="50.0" x2="2027" y2="50.0" style="stroke:#999; stroke-width:3;" />
  <rect class="anc_exon" x="2027" y="35.0" width="84" height="30" style="fill:#87bcbc;fill-opacity:1.00" />
  <line x1="2111" y1="50.0" x2="2131" y2="50.0" style="stroke:#999; stroke-width:3;" />
  <line x1="2131" y1="50.0" x2="2131" y2="50.0" style="stroke:#999; stroke-width:3;" />
  <line x1="2131" y1="50.0" x2="2131" y2="50.0" style="stroke:#999; stroke-width:3;" />
  <line x1="2131" y1="50.0" x2="2151" y2="50.0" style="stroke:#999; stroke-width:3;" />
  <rect class="anc_exon" x="2151" y="35.0" width="117" height="30" style="fill:#87bcbc;fill-opacity:1.00" />
  <line x1="2268" y1="50.0" x2="2308" y2="50.0" style="stroke:#999; stroke-width:3;" />
  <rect class="anc_exon" x="2308" y="35.0" width="100" height="30" style="fill:#87bcbc;fill-opacity:1.00" />
  <line x1="2408" y1="50.0" x2="2448" y2="50.0" style="stroke:#999; stroke-width:3;" />
  <rect class="anc_exon" x="2448" y="35.0" width="124" height="30" style="fill:#87bcbc;fill-opacity:1.00" />
  <rect class="anc_exon" x="2572" y="35.0" width="0" height="30" style="fill:#87bcbc;fill-opacity:1.00" />
  <text style="" >
<tspan x="0" y="83.0" style="font-size:18px;" >SP XM_012546500_3.1</tspan>  </text>



<script type="text/ecmascript">
<![CDATA[
function draw_bbox(text_id)
{
    var text_elem = document.getElementById(text_id);
    var offset_px = 2;
    var offset_py = 0;
    bbox = text_elem.getBBox();
    var box = document.createElementNS(document.rootElement.namespaceURI,'rect');
    box.setAttribute('x', bbox.x - offset_px);
    box.setAttribute('y', bbox.y - offset_py);
    box.setAttribute('width', bbox.width + offset_px * 2);
    box.setAttribute('height', bbox.height + offset_py * 2);
    box.setAttribute('style','fill: white;'+'stroke: black;'+'stroke-width: 1px;');
    text_elem.insertBefore(box,text_elem.childNodes[0]);

    var svg = text_elem.parentNode;
    svg.appendChild(text_elem);
}

for (var i=1; i < 1; i++)
{
draw_bbox("Mouseover" + i);
}
]]> 
</script>
</svg>
