<svg version="1.1"
xmlns="http://www.w3.org/2000/svg"
xmlns:xlink="http://www.w3.org/1999/xlink"
width="2350" height="100" viewBox = "0 0 2350 100"
onclick="mouseclick(evt)">

<script type="text/ecmascript">

<![CDATA[
    function mouseover(evt, target) { 
    var gv = document.getElementById("globalVariable");
    var previoustarget = gv.firstChild.nodeValue;
    if (previoustarget != "none") 
    {
        	document.getElementById(gv.firstChild.nodeValue).setAttributeNS(null, "visibility", "hidden");
    }
    document.getElementById(target).setAttributeNS(null, "visibility", "visible");
    gv.firstChild.nodeValue = target;
        }

    function mouseclick(evt) { 
    var gv = document.getElementById("globalVariable");
    var previoustarget = gv.firstChild.nodeValue;
    if (previoustarget != "none") {
        	document.getElementById(gv.firstChild.nodeValue).setAttributeNS(null, "visibility", "hidden");
        }
    }
]]>
  </script>
<style type="text/css" >

<![CDATA[
    rect.anc_exon {
              stroke-width:3;
                  }

    rect.non_anc_exon {
              stroke: black; stroke-width:3; stroke-dasharray: 5,5;
                    }

    text {
              font-size: 18px;
              font-family: Courier New;
          }
                    ]]>
</style>

<defs>
    <text x="150" y="40" id="globalVariable">none</text>
</defs>

  <rect class="anc_exon" x="0" y="35.0" width="0" height="30" style="fill:#87bcbc;fill-opacity:1.00" />
  <rect class="anc_exon" x="0" y="35.0" width="196.8" height="30" style="fill:#87bcbc;fill-opacity:1.00" />
  <line x1="196.8" y1="50.0" x2="215.8" y2="50.0" style="stroke:#999; stroke-width:3;" />
  <line x1="215.8" y1="50.0" x2="215.8" y2="50.0" style="stroke:#999; stroke-width:3;" />
  <line x1="215.8" y1="50.0" x2="215.8" y2="50.0" style="stroke:#999; stroke-width:3;" />
  <line x1="215.8" y1="50.0" x2="236.0" y2="50.0" style="stroke:#999; stroke-width:3;" />
  <rect class="anc_exon" x="236" y="35.0" width="48" height="30" style="fill:#87bcbc;fill-opacity:1.00" />
  <line x1="284" y1="50.0" x2="324" y2="50.0" style="stroke:#999; stroke-width:3;" />
  <rect class="anc_exon" x="324" y="35.0" width="104" height="30" style="fill:#87bcbc;fill-opacity:1.00" />
  <line x1="428" y1="50.0" x2="448" y2="50.0" style="stroke:#999; stroke-width:3;" />
  <line x1="448" y1="50.0" x2="448" y2="50.0" style="stroke:#999; stroke-width:3;" />
  <line x1="448" y1="50.0" x2="448" y2="50.0" style="stroke:#999; stroke-width:3;" />
  <line x1="448" y1="50.0" x2="468" y2="50.0" style="stroke:#999; stroke-width:3;" />
  <rect class="anc_exon" x="468" y="35.0" width="127" height="30" style="fill:#87bcbc;fill-opacity:1.00" />
  <line x1="595" y1="50.0" x2="635" y2="50.0" style="stroke:#999; stroke-width:3;" />
  <rect class="anc_exon" x="635" y="35.0" width="96" height="30" style="fill:#87bcbc;fill-opacity:1.00" />
  <line x1="731" y1="50.0" x2="771" y2="50.0" style="stroke:#999; stroke-width:3;" />
  <rect class="anc_exon" x="771" y="35.0" width="152" height="30" style="fill:#87bcbc;fill-opacity:1.00" />
  <line x1="923" y1="50.0" x2="943" y2="50.0" style="stroke:#999; stroke-width:3;" />
  <line x1="943" y1="50.0" x2="943" y2="50.0" style="stroke:#999; stroke-width:3;" />
  <line x1="943" y1="50.0" x2="943" y2="50.0" style="stroke:#999; stroke-width:3;" />
  <line x1="943" y1="50.0" x2="963" y2="50.0" style="stroke:#999; stroke-width:3;" />
  <rect class="anc_exon" x="963" y="35.0" width="101" height="30" style="fill:#87bcbc;fill-opacity:1.00" />
  <line x1="1064" y1="50.0" x2="1104" y2="50.0" style="stroke:#999; stroke-width:3;" />
  <rect class="anc_exon" x="1104" y="35.0" width="130" height="30" style="fill:#87bcbc;fill-opacity:1.00" />
  <line x1="1234" y1="50.0" x2="1274" y2="50.0" style="stroke:#999; stroke-width:3;" />
  <rect class="anc_exon" x="1274" y="35.0" width="68" height="30" style="fill:#87bcbc;fill-opacity:1.00" />
  <line x1="1342" y1="50.0" x2="1362" y2="50.0" style="stroke:#999; stroke-width:3;" />
  <line x1="1362" y1="50.0" x2="1362" y2="50.0" style="stroke:#999; stroke-width:3;" />
  <line x1="1362" y1="50.0" x2="1362" y2="50.0" style="stroke:#999; stroke-width:3;" />
  <line x1="1362" y1="50.0" x2="1382" y2="50.0" style="stroke:#999; stroke-width:3;" />
  <rect class="anc_exon" x="1382" y="35.0" width="81" height="30" style="fill:#87bcbc;fill-opacity:1.00" />
  <line x1="1463" y1="50.0" x2="1483" y2="50.0" style="stroke:#999; stroke-width:3;" />
  <line x1="1483" y1="50.0" x2="1483" y2="50.0" style="stroke:#999; stroke-width:3;" />
  <line x1="1483" y1="50.0" x2="1483" y2="50.0" style="stroke:#999; stroke-width:3;" />
  <line x1="1483" y1="50.0" x2="1503" y2="50.0" style="stroke:#999; stroke-width:3;" />
  <rect class="anc_exon" x="1503" y="35.0" width="70" height="30" style="fill:#87bcbc;fill-opacity:1.00" />
  <line x1="1573" y1="50.0" x2="1593" y2="50.0" style="stroke:#999; stroke-width:3;" />
  <line x1="1593" y1="50.0" x2="1593" y2="50.0" style="stroke:#999; stroke-width:3;" />
  <line x1="1593" y1="50.0" x2="1593" y2="50.0" style="stroke:#999; stroke-width:3;" />
  <line x1="1593" y1="50.0" x2="1613" y2="50.0" style="stroke:#999; stroke-width:3;" />
  <rect class="anc_exon" x="1613" y="35.0" width="71" height="30" style="fill:#87bcbc;fill-opacity:1.00" />
  <line x1="1684" y1="50.0" x2="1704" y2="50.0" style="stroke:#999; stroke-width:3;" />
  <line x1="1704" y1="50.0" x2="1704" y2="50.0" style="stroke:#999; stroke-width:3;" />
  <line x1="1704" y1="50.0" x2="1704" y2="50.0" style="stroke:#999; stroke-width:3;" />
  <line x1="1704" y1="50.0" x2="1724" y2="50.0" style="stroke:#999; stroke-width:3;" />
  <rect class="anc_exon" x="1724" y="35.0" width="396" height="30" style="fill:#87bcbc;fill-opacity:1.00" />
  <line x1="2120" y1="50.0" x2="2140" y2="50.0" style="stroke:#999; stroke-width:3;" />
  <line x1="2140" y1="50.0" x2="2140" y2="50.0" style="stroke:#999; stroke-width:3;" />
  <line x1="2140" y1="50.0" x2="2140" y2="50.0" style="stroke:#999; stroke-width:3;" />
  <line x1="2140" y1="50.0" x2="2160" y2="50.0" style="stroke:#999; stroke-width:3;" />
  <rect class="anc_exon" x="2160" y="35.0" width="93" height="30" style="fill:#87bcbc;fill-opacity:1.00" />
  <line x1="2253" y1="50.0" x2="2293" y2="50.0" style="stroke:#999; stroke-width:3;" />
  <rect class="anc_exon" x="2293" y="35.0" width="21" height="30" style="fill:#87bcbc;fill-opacity:1.00" />
  <rect class="anc_exon" x="2314" y="35.0" width="0" height="30" style="fill:#87bcbc;fill-opacity:1.00" />
  <text style="" >
<tspan x="0" y="83.0" style="font-size:18px;" >SP XM_031961101_1.1</tspan>  </text>



<script type="text/ecmascript">
<![CDATA[
function draw_bbox(text_id)
{
    var text_elem = document.getElementById(text_id);
    var offset_px = 2;
    var offset_py = 0;
    bbox = text_elem.getBBox();
    var box = document.createElementNS(document.rootElement.namespaceURI,'rect');
    box.setAttribute('x', bbox.x - offset_px);
    box.setAttribute('y', bbox.y - offset_py);
    box.setAttribute('width', bbox.width + offset_px * 2);
    box.setAttribute('height', bbox.height + offset_py * 2);
    box.setAttribute('style','fill: white;'+'stroke: black;'+'stroke-width: 1px;');
    text_elem.insertBefore(box,text_elem.childNodes[0]);

    var svg = text_elem.parentNode;
    svg.appendChild(text_elem);
}

for (var i=1; i < 1; i++)
{
draw_bbox("Mouseover" + i);
}
]]> 
</script>
</svg>
