<svg version="1.1"
xmlns="http://www.w3.org/2000/svg"
xmlns:xlink="http://www.w3.org/1999/xlink"
width="4954" height="100" viewBox = "0 0 4954 100"
onclick="mouseclick(evt)">

<script type="text/ecmascript">

<![CDATA[
    function mouseover(evt, target) { 
    var gv = document.getElementById("globalVariable");
    var previoustarget = gv.firstChild.nodeValue;
    if (previoustarget != "none") 
    {
        	document.getElementById(gv.firstChild.nodeValue).setAttributeNS(null, "visibility", "hidden");
    }
    document.getElementById(target).setAttributeNS(null, "visibility", "visible");
    gv.firstChild.nodeValue = target;
        }

    function mouseclick(evt) { 
    var gv = document.getElementById("globalVariable");
    var previoustarget = gv.firstChild.nodeValue;
    if (previoustarget != "none") {
        	document.getElementById(gv.firstChild.nodeValue).setAttributeNS(null, "visibility", "hidden");
        }
    }
]]>
  </script>
<style type="text/css" >

<![CDATA[
    rect.anc_exon {
              stroke-width:3;
                  }

    rect.non_anc_exon {
              stroke: black; stroke-width:3; stroke-dasharray: 5,5;
                    }

    text {
              font-size: 18px;
              font-family: Courier New;
          }
                    ]]>
</style>

<defs>
    <text x="150" y="40" id="globalVariable">none</text>
</defs>

  <rect class="anc_exon" x="0" y="35.0" width="0" height="30" style="fill:#87bcbc;fill-opacity:1.00" />
  <rect class="anc_exon" x="0" y="35.0" width="118.4" height="30" style="fill:#87bcbc;fill-opacity:1.00" />
  <line x1="118.4" y1="50.0" x2="158.0" y2="50.0" style="stroke:#999; stroke-width:3;" />
  <rect class="anc_exon" x="158" y="35.0" width="104" height="30" style="fill:#87bcbc;fill-opacity:1.00" />
  <line x1="262" y1="50.0" x2="282" y2="50.0" style="stroke:#999; stroke-width:3;" />
  <line x1="282" y1="50.0" x2="282" y2="50.0" style="stroke:#999; stroke-width:3;" />
  <line x1="282" y1="50.0" x2="282" y2="50.0" style="stroke:#999; stroke-width:3;" />
  <line x1="282" y1="50.0" x2="302" y2="50.0" style="stroke:#999; stroke-width:3;" />
  <rect class="anc_exon" x="302" y="35.0" width="86" height="30" style="fill:#87bcbc;fill-opacity:1.00" />
  <line x1="388" y1="50.0" x2="408" y2="50.0" style="stroke:#999; stroke-width:3;" />
  <line x1="408" y1="50.0" x2="408" y2="50.0" style="stroke:#999; stroke-width:3;" />
  <line x1="408" y1="50.0" x2="408" y2="50.0" style="stroke:#999; stroke-width:3;" />
  <line x1="408" y1="50.0" x2="428" y2="50.0" style="stroke:#999; stroke-width:3;" />
  <rect class="anc_exon" x="428" y="35.0" width="135" height="30" style="fill:#87bcbc;fill-opacity:1.00" />
  <line x1="563" y1="50.0" x2="603" y2="50.0" style="stroke:#999; stroke-width:3;" />
  <rect class="anc_exon" x="603" y="35.0" width="76" height="30" style="fill:#87bcbc;fill-opacity:1.00" />
  <line x1="679" y1="50.0" x2="699" y2="50.0" style="stroke:#999; stroke-width:3;" />
  <line x1="699" y1="50.0" x2="699" y2="50.0" style="stroke:#999; stroke-width:3;" />
  <line x1="699" y1="50.0" x2="699" y2="50.0" style="stroke:#999; stroke-width:3;" />
  <line x1="699" y1="50.0" x2="719" y2="50.0" style="stroke:#999; stroke-width:3;" />
  <rect class="anc_exon" x="719" y="35.0" width="351" height="30" style="fill:#87bcbc;fill-opacity:1.00" />
  <line x1="1070" y1="50.0" x2="1090" y2="50.0" style="stroke:#999; stroke-width:3;" />
  <line x1="1090" y1="50.0" x2="1090" y2="50.0" style="stroke:#999; stroke-width:3;" />
  <line x1="1090" y1="50.0" x2="1090" y2="50.0" style="stroke:#999; stroke-width:3;" />
  <line x1="1090" y1="50.0" x2="1110" y2="50.0" style="stroke:#999; stroke-width:3;" />
  <rect class="anc_exon" x="1110" y="35.0" width="124" height="30" style="fill:#87bcbc;fill-opacity:1.00" />
  <line x1="1234" y1="50.0" x2="1254" y2="50.0" style="stroke:#999; stroke-width:3;" />
  <line x1="1254" y1="50.0" x2="1254" y2="50.0" style="stroke:#999; stroke-width:3;" />
  <line x1="1254" y1="50.0" x2="1254" y2="50.0" style="stroke:#999; stroke-width:3;" />
  <line x1="1254" y1="50.0" x2="1274" y2="50.0" style="stroke:#999; stroke-width:3;" />
  <rect class="anc_exon" x="1274" y="35.0" width="101" height="30" style="fill:#87bcbc;fill-opacity:1.00" />
  <line x1="1375" y1="50.0" x2="1395" y2="50.0" style="stroke:#999; stroke-width:3;" />
  <line x1="1395" y1="50.0" x2="1395" y2="50.0" style="stroke:#999; stroke-width:3;" />
  <line x1="1395" y1="50.0" x2="1395" y2="50.0" style="stroke:#999; stroke-width:3;" />
  <line x1="1395" y1="50.0" x2="1415" y2="50.0" style="stroke:#999; stroke-width:3;" />
  <rect class="anc_exon" x="1415" y="35.0" width="102" height="30" style="fill:#87bcbc;fill-opacity:1.00" />
  <line x1="1517" y1="50.0" x2="1537" y2="50.0" style="stroke:#999; stroke-width:3;" />
  <line x1="1537" y1="50.0" x2="1537" y2="50.0" style="stroke:#999; stroke-width:3;" />
  <line x1="1537" y1="50.0" x2="1537" y2="50.0" style="stroke:#999; stroke-width:3;" />
  <line x1="1537" y1="50.0" x2="1557" y2="50.0" style="stroke:#999; stroke-width:3;" />
  <rect class="anc_exon" x="1557" y="35.0" width="49" height="30" style="fill:#87bcbc;fill-opacity:1.00" />
  <line x1="1606" y1="50.0" x2="1626" y2="50.0" style="stroke:#999; stroke-width:3;" />
  <line x1="1626" y1="50.0" x2="1626" y2="50.0" style="stroke:#999; stroke-width:3;" />
  <line x1="1626" y1="50.0" x2="1626" y2="50.0" style="stroke:#999; stroke-width:3;" />
  <line x1="1626" y1="50.0" x2="1646" y2="50.0" style="stroke:#999; stroke-width:3;" />
  <rect class="anc_exon" x="1646" y="35.0" width="52" height="30" style="fill:#87bcbc;fill-opacity:1.00" />
  <line x1="1698" y1="50.0" x2="1718" y2="50.0" style="stroke:#999; stroke-width:3;" />
  <line x1="1718" y1="50.0" x2="1718" y2="50.0" style="stroke:#999; stroke-width:3;" />
  <line x1="1718" y1="50.0" x2="1718" y2="50.0" style="stroke:#999; stroke-width:3;" />
  <line x1="1718" y1="50.0" x2="1738" y2="50.0" style="stroke:#999; stroke-width:3;" />
  <rect class="anc_exon" x="1738" y="35.0" width="87" height="30" style="fill:#87bcbc;fill-opacity:1.00" />
  <line x1="1825" y1="50.0" x2="1845" y2="50.0" style="stroke:#999; stroke-width:3;" />
  <line x1="1845" y1="50.0" x2="1845" y2="50.0" style="stroke:#999; stroke-width:3;" />
  <line x1="1845" y1="50.0" x2="1845" y2="50.0" style="stroke:#999; stroke-width:3;" />
  <line x1="1845" y1="50.0" x2="1865" y2="50.0" style="stroke:#999; stroke-width:3;" />
  <rect class="anc_exon" x="1865" y="35.0" width="133" height="30" style="fill:#87bcbc;fill-opacity:1.00" />
  <line x1="1998" y1="50.0" x2="2018" y2="50.0" style="stroke:#999; stroke-width:3;" />
  <line x1="2018" y1="50.0" x2="2018" y2="50.0" style="stroke:#999; stroke-width:3;" />
  <line x1="2018" y1="50.0" x2="2018" y2="50.0" style="stroke:#999; stroke-width:3;" />
  <line x1="2018" y1="50.0" x2="2038" y2="50.0" style="stroke:#999; stroke-width:3;" />
  <rect class="anc_exon" x="2038" y="35.0" width="100" height="30" style="fill:#87bcbc;fill-opacity:1.00" />
  <line x1="2138" y1="50.0" x2="2158" y2="50.0" style="stroke:#999; stroke-width:3;" />
  <line x1="2158" y1="50.0" x2="2158" y2="50.0" style="stroke:#999; stroke-width:3;" />
  <line x1="2158" y1="50.0" x2="2158" y2="50.0" style="stroke:#999; stroke-width:3;" />
  <line x1="2158" y1="50.0" x2="2178" y2="50.0" style="stroke:#999; stroke-width:3;" />
  <rect class="anc_exon" x="2178" y="35.0" width="115" height="30" style="fill:#87bcbc;fill-opacity:1.00" />
  <line x1="2293" y1="50.0" x2="2313" y2="50.0" style="stroke:#999; stroke-width:3;" />
  <line x1="2313" y1="50.0" x2="2313" y2="50.0" style="stroke:#999; stroke-width:3;" />
  <line x1="2313" y1="50.0" x2="2313" y2="50.0" style="stroke:#999; stroke-width:3;" />
  <line x1="2313" y1="50.0" x2="2333" y2="50.0" style="stroke:#999; stroke-width:3;" />
  <rect class="anc_exon" x="2333" y="35.0" width="109" height="30" style="fill:#87bcbc;fill-opacity:1.00" />
  <line x1="2442" y1="50.0" x2="2462" y2="50.0" style="stroke:#999; stroke-width:3;" />
  <line x1="2462" y1="50.0" x2="2462" y2="50.0" style="stroke:#999; stroke-width:3;" />
  <line x1="2462" y1="50.0" x2="2462" y2="50.0" style="stroke:#999; stroke-width:3;" />
  <line x1="2462" y1="50.0" x2="2482" y2="50.0" style="stroke:#999; stroke-width:3;" />
  <rect class="anc_exon" x="2482" y="35.0" width="94" height="30" style="fill:#87bcbc;fill-opacity:1.00" />
  <line x1="2576" y1="50.0" x2="2616" y2="50.0" style="stroke:#999; stroke-width:3;" />
  <rect class="anc_exon" x="2616" y="35.0" width="82" height="30" style="fill:#87bcbc;fill-opacity:1.00" />
  <line x1="2698" y1="50.0" x2="2718" y2="50.0" style="stroke:#999; stroke-width:3;" />
  <line x1="2718" y1="50.0" x2="2718" y2="50.0" style="stroke:#999; stroke-width:3;" />
  <line x1="2718" y1="50.0" x2="2718" y2="50.0" style="stroke:#999; stroke-width:3;" />
  <line x1="2718" y1="50.0" x2="2738" y2="50.0" style="stroke:#999; stroke-width:3;" />
  <rect class="anc_exon" x="2738" y="35.0" width="92" height="30" style="fill:#87bcbc;fill-opacity:1.00" />
  <line x1="2830" y1="50.0" x2="2850" y2="50.0" style="stroke:#999; stroke-width:3;" />
  <line x1="2850" y1="50.0" x2="2850" y2="50.0" style="stroke:#999; stroke-width:3;" />
  <line x1="2850" y1="50.0" x2="2850" y2="50.0" style="stroke:#999; stroke-width:3;" />
  <line x1="2850" y1="50.0" x2="2870" y2="50.0" style="stroke:#999; stroke-width:3;" />
  <rect class="anc_exon" x="2870" y="35.0" width="90" height="30" style="fill:#87bcbc;fill-opacity:1.00" />
  <line x1="2960" y1="50.0" x2="2980" y2="50.0" style="stroke:#999; stroke-width:3;" />
  <line x1="2980" y1="50.0" x2="2980" y2="50.0" style="stroke:#999; stroke-width:3;" />
  <line x1="2980" y1="50.0" x2="2980" y2="50.0" style="stroke:#999; stroke-width:3;" />
  <line x1="2980" y1="50.0" x2="3000" y2="50.0" style="stroke:#999; stroke-width:3;" />
  <rect class="anc_exon" x="3000" y="35.0" width="112" height="30" style="fill:#87bcbc;fill-opacity:1.00" />
  <line x1="3112" y1="50.0" x2="3132" y2="50.0" style="stroke:#999; stroke-width:3;" />
  <line x1="3132" y1="50.0" x2="3132" y2="50.0" style="stroke:#999; stroke-width:3;" />
  <line x1="3132" y1="50.0" x2="3132" y2="50.0" style="stroke:#999; stroke-width:3;" />
  <line x1="3132" y1="50.0" x2="3152" y2="50.0" style="stroke:#999; stroke-width:3;" />
  <rect class="anc_exon" x="3152" y="35.0" width="96" height="30" style="fill:#87bcbc;fill-opacity:1.00" />
  <line x1="3248" y1="50.0" x2="3268" y2="50.0" style="stroke:#999; stroke-width:3;" />
  <line x1="3268" y1="50.0" x2="3268" y2="50.0" style="stroke:#999; stroke-width:3;" />
  <line x1="3268" y1="50.0" x2="3268" y2="50.0" style="stroke:#999; stroke-width:3;" />
  <line x1="3268" y1="50.0" x2="3288" y2="50.0" style="stroke:#999; stroke-width:3;" />
  <rect class="anc_exon" x="3288" y="35.0" width="122" height="30" style="fill:#87bcbc;fill-opacity:1.00" />
  <line x1="3410" y1="50.0" x2="3430" y2="50.0" style="stroke:#999; stroke-width:3;" />
  <line x1="3430" y1="50.0" x2="3430" y2="50.0" style="stroke:#999; stroke-width:3;" />
  <line x1="3430" y1="50.0" x2="3430" y2="50.0" style="stroke:#999; stroke-width:3;" />
  <line x1="3430" y1="50.0" x2="3450" y2="50.0" style="stroke:#999; stroke-width:3;" />
  <rect class="anc_exon" x="3450" y="35.0" width="134" height="30" style="fill:#87bcbc;fill-opacity:1.00" />
  <line x1="3584" y1="50.0" x2="3604" y2="50.0" style="stroke:#999; stroke-width:3;" />
  <line x1="3604" y1="50.0" x2="3604" y2="50.0" style="stroke:#999; stroke-width:3;" />
  <line x1="3604" y1="50.0" x2="3604" y2="50.0" style="stroke:#999; stroke-width:3;" />
  <line x1="3604" y1="50.0" x2="3624" y2="50.0" style="stroke:#999; stroke-width:3;" />
  <rect class="anc_exon" x="3624" y="35.0" width="72" height="30" style="fill:#878787;fill-opacity:1.00" />
  <line x1="3696" y1="50.0" x2="3716" y2="50.0" style="stroke:#999; stroke-width:3;" />
  <line x1="3716" y1="50.0" x2="3716" y2="50.0" style="stroke:#999; stroke-width:3;" />
  <line x1="3716" y1="50.0" x2="3716" y2="50.0" style="stroke:#999; stroke-width:3;" />
  <line x1="3716" y1="50.0" x2="3736" y2="50.0" style="stroke:#999; stroke-width:3;" />
  <rect class="anc_exon" x="3736" y="35.0" width="154" height="30" style="fill:#87bcbc;fill-opacity:1.00" />
  <line x1="3890" y1="50.0" x2="3910" y2="50.0" style="stroke:#999; stroke-width:3;" />
  <line x1="3910" y1="50.0" x2="3910" y2="50.0" style="stroke:#999; stroke-width:3;" />
  <line x1="3910" y1="50.0" x2="3910" y2="50.0" style="stroke:#999; stroke-width:3;" />
  <line x1="3910" y1="50.0" x2="3930" y2="50.0" style="stroke:#999; stroke-width:3;" />
  <rect class="anc_exon" x="3930" y="35.0" width="57" height="30" style="fill:#87bcbc;fill-opacity:1.00" />
  <line x1="3987" y1="50.0" x2="4007" y2="50.0" style="stroke:#999; stroke-width:3;" />
  <line x1="4007" y1="50.0" x2="4007" y2="50.0" style="stroke:#999; stroke-width:3;" />
  <line x1="4007" y1="50.0" x2="4007" y2="50.0" style="stroke:#999; stroke-width:3;" />
  <line x1="4007" y1="50.0" x2="4027" y2="50.0" style="stroke:#999; stroke-width:3;" />
  <rect class="anc_exon" x="4027" y="35.0" width="124" height="30" style="fill:#87bcbc;fill-opacity:1.00" />
  <line x1="4151" y1="50.0" x2="4171" y2="50.0" style="stroke:#999; stroke-width:3;" />
  <line x1="4171" y1="50.0" x2="4171" y2="50.0" style="stroke:#999; stroke-width:3;" />
  <line x1="4171" y1="50.0" x2="4171" y2="50.0" style="stroke:#999; stroke-width:3;" />
  <line x1="4171" y1="50.0" x2="4191" y2="50.0" style="stroke:#999; stroke-width:3;" />
  <rect class="anc_exon" x="4191" y="35.0" width="136" height="30" style="fill:#87bcbc;fill-opacity:1.00" />
  <line x1="4327" y1="50.0" x2="4347" y2="50.0" style="stroke:#999; stroke-width:3;" />
  <line x1="4347" y1="50.0" x2="4347" y2="50.0" style="stroke:#999; stroke-width:3;" />
  <line x1="4347" y1="50.0" x2="4347" y2="50.0" style="stroke:#999; stroke-width:3;" />
  <line x1="4347" y1="50.0" x2="4367" y2="50.0" style="stroke:#999; stroke-width:3;" />
  <rect class="anc_exon" x="4367" y="35.0" width="81" height="30" style="fill:#87bcbc;fill-opacity:1.00" />
  <line x1="4448" y1="50.0" x2="4488" y2="50.0" style="stroke:#999; stroke-width:3;" />
  <rect class="anc_exon" x="4488" y="35.0" width="157" height="30" style="fill:#87bcbc;fill-opacity:1.00" />
  <line x1="4645" y1="50.0" x2="4685" y2="50.0" style="stroke:#999; stroke-width:3;" />
  <rect class="anc_exon" x="4685" y="35.0" width="121" height="30" style="fill:#87bcbc;fill-opacity:1.00" />
  <line x1="4806" y1="50.0" x2="4846" y2="50.0" style="stroke:#999; stroke-width:3;" />
  <rect class="anc_exon" x="4846" y="35.0" width="72" height="30" style="fill:#87bcbc;fill-opacity:1.00" />
  <rect class="anc_exon" x="4918" y="35.0" width="0" height="30" style="fill:#87bcbc;fill-opacity:1.00" />
  <text style="" >
<tspan x="0" y="83.0" style="font-size:18px;" >SP XM_031960709_1.1</tspan>  </text>



<script type="text/ecmascript">
<![CDATA[
function draw_bbox(text_id)
{
    var text_elem = document.getElementById(text_id);
    var offset_px = 2;
    var offset_py = 0;
    bbox = text_elem.getBBox();
    var box = document.createElementNS(document.rootElement.namespaceURI,'rect');
    box.setAttribute('x', bbox.x - offset_px);
    box.setAttribute('y', bbox.y - offset_py);
    box.setAttribute('width', bbox.width + offset_px * 2);
    box.setAttribute('height', bbox.height + offset_py * 2);
    box.setAttribute('style','fill: white;'+'stroke: black;'+'stroke-width: 1px;');
    text_elem.insertBefore(box,text_elem.childNodes[0]);

    var svg = text_elem.parentNode;
    svg.appendChild(text_elem);
}

for (var i=1; i < 1; i++)
{
draw_bbox("Mouseover" + i);
}
]]> 
</script>
</svg>
