<svg version="1.1"
xmlns="http://www.w3.org/2000/svg"
xmlns:xlink="http://www.w3.org/1999/xlink"
width="1653" height="110.0" viewBox = "0 -10.0 1653 110.0"
onclick="mouseclick(evt)">

<script type="text/ecmascript">

<![CDATA[
    function mouseover(evt, target) { 
    var gv = document.getElementById("globalVariable");
    var previoustarget = gv.firstChild.nodeValue;
    if (previoustarget != "none") 
    {
        	document.getElementById(gv.firstChild.nodeValue).setAttributeNS(null, "visibility", "hidden");
    }
    document.getElementById(target).setAttributeNS(null, "visibility", "visible");
    gv.firstChild.nodeValue = target;
        }

    function mouseclick(evt) { 
    var gv = document.getElementById("globalVariable");
    var previoustarget = gv.firstChild.nodeValue;
    if (previoustarget != "none") {
        	document.getElementById(gv.firstChild.nodeValue).setAttributeNS(null, "visibility", "hidden");
        }
    }
]]>
  </script>
<style type="text/css" >

<![CDATA[
    rect.anc_exon {
              stroke-width:3;
                  }

    rect.non_anc_exon {
              stroke: black; stroke-width:3; stroke-dasharray: 5,5;
                    }

    text {
              font-size: 18px;
              font-family: Courier New;
          }
                    ]]>
</style>

<defs>
    <text x="150" y="40" id="globalVariable">none</text>
</defs>

  <rect class="anc_exon" x="0" y="35.0" width="0" height="30" style="fill:#87bcbc;fill-opacity:1.00" />
  <rect class="anc_exon" x="0" y="35.0" width="153.60000000000002" height="30" style="fill:#87bcbc;fill-opacity:1.00" />
  <line x1="153.60000000000002" y1="50.0" x2="172.60000000000002" y2="50.0" style="stroke:#999; stroke-width:3;" />
  <line x1="172.60000000000002" y1="50.0" x2="172.60000000000002" y2="50.0" style="stroke:#999; stroke-width:3;" />
  <line x1="172.60000000000002" y1="50.0" x2="172.60000000000002" y2="50.0" style="stroke:#999; stroke-width:3;" />
  <line x1="172.60000000000002" y1="50.0" x2="193.0" y2="50.0" style="stroke:#999; stroke-width:3;" />
  <rect class="anc_exon" x="193" y="35.0" width="96" height="30" style="fill:#87bcbc;fill-opacity:1.00" />
  <line x1="289" y1="50.0" x2="329" y2="50.0" style="stroke:#999; stroke-width:3;" />
  <rect class="anc_exon" x="329" y="35.0" width="55" height="30" style="fill:#87bcbc;fill-opacity:1.00" />
  <line x1="384" y1="50.0" x2="404" y2="50.0" style="stroke:#999; stroke-width:3;" />
  <line x1="404" y1="50.0" x2="404" y2="50.0" style="stroke:#999; stroke-width:3;" />
  <line x1="404" y1="50.0" x2="404" y2="50.0" style="stroke:#999; stroke-width:3;" />
  <line x1="404" y1="50.0" x2="424" y2="50.0" style="stroke:#999; stroke-width:3;" />
  <rect class="anc_exon" x="424" y="35.0" width="45" height="30" style="fill:#87bcbc;fill-opacity:1.00" />
  <line x1="469" y1="50.0" x2="509" y2="50.0" style="stroke:#999; stroke-width:3;" />
  <rect class="anc_exon" x="509" y="35.0" width="91" height="30" style="fill:#87bcbc;fill-opacity:1.00" />
  <line x1="600" y1="50.0" x2="620" y2="50.0" style="stroke:#999; stroke-width:3;" />
  <line x1="620" y1="50.0" x2="620" y2="50.0" style="stroke:#999; stroke-width:3;" />
  <line x1="620" y1="50.0" x2="620" y2="50.0" style="stroke:#999; stroke-width:3;" />
  <line x1="620" y1="50.0" x2="640" y2="50.0" style="stroke:#999; stroke-width:3;" />
  <rect class="anc_exon" x="640" y="35.0" width="88" height="30" style="fill:#87bcbc;fill-opacity:1.00" />
  <line x1="728" y1="50.0" x2="748" y2="50.0" style="stroke:#999; stroke-width:3;" />
  <line x1="748" y1="50.0" x2="748" y2="50.0" style="stroke:#999; stroke-width:3;" />
  <line x1="748" y1="50.0" x2="748" y2="50.0" style="stroke:#999; stroke-width:3;" />
  <line x1="748" y1="50.0" x2="768" y2="50.0" style="stroke:#999; stroke-width:3;" />
  <rect class="anc_exon" x="768" y="35.0" width="87" height="30" style="fill:#87bcbc;fill-opacity:1.00" />
  <line x1="855" y1="50.0" x2="875" y2="50.0" style="stroke:#999; stroke-width:3;" />
  <line x1="875" y1="50.0" x2="875" y2="50.0" style="stroke:#999; stroke-width:3;" />
  <line x1="875" y1="50.0" x2="875" y2="50.0" style="stroke:#999; stroke-width:3;" />
  <line x1="875" y1="50.0" x2="895" y2="50.0" style="stroke:#999; stroke-width:3;" />
  <rect class="anc_exon" x="895" y="35.0" width="96" height="30" style="fill:#87bcbc;fill-opacity:1.00" />
  <line x1="991" y1="50.0" x2="1011" y2="50.0" style="stroke:#999; stroke-width:3;" />
  <line x1="1011" y1="50.0" x2="1011" y2="50.0" style="stroke:#999; stroke-width:3;" />
  <line x1="1011" y1="50.0" x2="1011" y2="50.0" style="stroke:#999; stroke-width:3;" />
  <line x1="1011" y1="50.0" x2="1031" y2="50.0" style="stroke:#999; stroke-width:3;" />
  <rect class="anc_exon" x="1031" y="35.0" width="65" height="30" style="fill:#87bcbc;fill-opacity:1.00" />
  <line x1="1096" y1="50.0" x2="1116" y2="50.0" style="stroke:#999; stroke-width:3;" />
  <line x1="1116" y1="50.0" x2="1116" y2="50.0" style="stroke:#999; stroke-width:3;" />
  <line x1="1116" y1="50.0" x2="1116" y2="50.0" style="stroke:#999; stroke-width:3;" />
  <line x1="1116" y1="50.0" x2="1136" y2="50.0" style="stroke:#999; stroke-width:3;" />
  <rect class="anc_exon" x="1136" y="35.0" width="99" height="30" style="fill:#87bcbc;fill-opacity:1.00" />
  <line x1="1235" y1="50.0" x2="1255" y2="50.0" style="stroke:#999; stroke-width:3;" />
  <line x1="1255" y1="50.0" x2="1255" y2="50.0" style="stroke:#999; stroke-width:3;" />
  <line x1="1255" y1="50.0" x2="1255" y2="50.0" style="stroke:#999; stroke-width:3;" />
  <line x1="1255" y1="50.0" x2="1275" y2="50.0" style="stroke:#999; stroke-width:3;" />
  <rect class="anc_exon" x="1275" y="35.0" width="86" height="30" style="fill:#87bcbc;fill-opacity:1.00" />
  <line x1="1361" y1="50.0" x2="1401" y2="50.0" style="stroke:#999; stroke-width:3;" />
  <rect class="anc_exon" x="1401" y="35.0" width="80" height="30" style="fill:#87bcbc;fill-opacity:1.00" />
  <line x1="1481" y1="50.0" x2="1521" y2="50.0" style="stroke:#999; stroke-width:3;" />
  <rect class="anc_exon" x="1521" y="35.0" width="96" height="30" style="fill:#87bcbc;fill-opacity:1.00" />
  <line x1="1608.6" y1="35.0" x2="1608.6" y2="65.0" style="stroke:#121212; stroke-width:0.8; stroke-opacity:1"/>
  <text style="" text-anchor="middle">
<tspan x="1608.2" y="26.0" style="font-size:18px;fill:#121212;" >-1</tspan>  </text>
  <rect class="anc_exon" x="1617" y="35.0" width="0" height="30" style="fill:#87bcbc;fill-opacity:1.00" />
  <text style="" >
<tspan x="0" y="83.0" style="font-size:18px;" >SP XM_031959782_1.1</tspan>  </text>



<script type="text/ecmascript">
<![CDATA[
function draw_bbox(text_id)
{
    var text_elem = document.getElementById(text_id);
    var offset_px = 2;
    var offset_py = 0;
    bbox = text_elem.getBBox();
    var box = document.createElementNS(document.rootElement.namespaceURI,'rect');
    box.setAttribute('x', bbox.x - offset_px);
    box.setAttribute('y', bbox.y - offset_py);
    box.setAttribute('width', bbox.width + offset_px * 2);
    box.setAttribute('height', bbox.height + offset_py * 2);
    box.setAttribute('style','fill: white;'+'stroke: black;'+'stroke-width: 1px;');
    text_elem.insertBefore(box,text_elem.childNodes[0]);

    var svg = text_elem.parentNode;
    svg.appendChild(text_elem);
}

for (var i=1; i < 1; i++)
{
draw_bbox("Mouseover" + i);
}
]]> 
</script>
</svg>
