<svg version="1.1"
xmlns="http://www.w3.org/2000/svg"
xmlns:xlink="http://www.w3.org/1999/xlink"
width="2893" height="100" viewBox = "0 0 2893 100"
onclick="mouseclick(evt)">

<script type="text/ecmascript">

<![CDATA[
    function mouseover(evt, target) { 
    var gv = document.getElementById("globalVariable");
    var previoustarget = gv.firstChild.nodeValue;
    if (previoustarget != "none") 
    {
        	document.getElementById(gv.firstChild.nodeValue).setAttributeNS(null, "visibility", "hidden");
    }
    document.getElementById(target).setAttributeNS(null, "visibility", "visible");
    gv.firstChild.nodeValue = target;
        }

    function mouseclick(evt) { 
    var gv = document.getElementById("globalVariable");
    var previoustarget = gv.firstChild.nodeValue;
    if (previoustarget != "none") {
        	document.getElementById(gv.firstChild.nodeValue).setAttributeNS(null, "visibility", "hidden");
        }
    }
]]>
  </script>
<style type="text/css" >

<![CDATA[
    rect.anc_exon {
              stroke-width:3;
                  }

    rect.non_anc_exon {
              stroke: black; stroke-width:3; stroke-dasharray: 5,5;
                    }

    text {
              font-size: 18px;
              font-family: Courier New;
          }
                    ]]>
</style>

<defs>
    <text x="150" y="40" id="globalVariable">none</text>
</defs>

  <rect class="anc_exon" x="0" y="35.0" width="0" height="30" style="fill:#87bcbc;fill-opacity:1.00" />
  <rect class="anc_exon" x="0" y="35.0" width="136.8" height="30" style="fill:#87bcbc;fill-opacity:1.00" />
  <line x1="136.8" y1="50.0" x2="155.8" y2="50.0" style="stroke:#999; stroke-width:3;" />
  <line x1="155.8" y1="50.0" x2="155.8" y2="50.0" style="stroke:#999; stroke-width:3;" />
  <line x1="155.8" y1="50.0" x2="155.8" y2="50.0" style="stroke:#999; stroke-width:3;" />
  <line x1="155.8" y1="50.0" x2="176.0" y2="50.0" style="stroke:#999; stroke-width:3;" />
  <rect class="anc_exon" x="176" y="35.0" width="117" height="30" style="fill:#87bcbc;fill-opacity:1.00" />
  <line x1="293" y1="50.0" x2="313" y2="50.0" style="stroke:#999; stroke-width:3;" />
  <line x1="313" y1="50.0" x2="313" y2="50.0" style="stroke:#999; stroke-width:3;" />
  <line x1="313" y1="50.0" x2="313" y2="50.0" style="stroke:#999; stroke-width:3;" />
  <line x1="313" y1="50.0" x2="333" y2="50.0" style="stroke:#999; stroke-width:3;" />
  <rect class="anc_exon" x="333" y="35.0" width="49" height="30" style="fill:#87bcbc;fill-opacity:1.00" />
  <line x1="382" y1="50.0" x2="402" y2="50.0" style="stroke:#999; stroke-width:3;" />
  <line x1="402" y1="50.0" x2="402" y2="50.0" style="stroke:#999; stroke-width:3;" />
  <line x1="402" y1="50.0" x2="402" y2="50.0" style="stroke:#999; stroke-width:3;" />
  <line x1="402" y1="50.0" x2="422" y2="50.0" style="stroke:#999; stroke-width:3;" />
  <rect class="anc_exon" x="422" y="35.0" width="132" height="30" style="fill:#87bcbc;fill-opacity:1.00" />
  <line x1="554" y1="50.0" x2="594" y2="50.0" style="stroke:#999; stroke-width:3;" />
  <rect class="anc_exon" x="594" y="35.0" width="60" height="30" style="fill:#87bcbc;fill-opacity:1.00" />
  <line x1="654" y1="50.0" x2="674" y2="50.0" style="stroke:#999; stroke-width:3;" />
  <line x1="674" y1="50.0" x2="674" y2="50.0" style="stroke:#999; stroke-width:3;" />
  <line x1="674" y1="50.0" x2="674" y2="50.0" style="stroke:#999; stroke-width:3;" />
  <line x1="674" y1="50.0" x2="694" y2="50.0" style="stroke:#999; stroke-width:3;" />
  <rect class="anc_exon" x="694" y="35.0" width="74" height="30" style="fill:#87bcbc;fill-opacity:1.00" />
  <line x1="768" y1="50.0" x2="808" y2="50.0" style="stroke:#999; stroke-width:3;" />
  <rect class="anc_exon" x="808" y="35.0" width="100" height="30" style="fill:#87bcbc;fill-opacity:1.00" />
  <line x1="908" y1="50.0" x2="948" y2="50.0" style="stroke:#999; stroke-width:3;" />
  <rect class="anc_exon" x="948" y="35.0" width="64" height="30" style="fill:#87bcbc;fill-opacity:1.00" />
  <line x1="1012" y1="50.0" x2="1052" y2="50.0" style="stroke:#999; stroke-width:3;" />
  <rect class="anc_exon" x="1052" y="35.0" width="35" height="30" style="fill:#87bcbc;fill-opacity:1.00" />
  <line x1="1087" y1="50.0" x2="1127" y2="50.0" style="stroke:#999; stroke-width:3;" />
  <rect class="anc_exon" x="1127" y="35.0" width="101" height="30" style="fill:#87bcbc;fill-opacity:1.00" />
  <line x1="1228" y1="50.0" x2="1268" y2="50.0" style="stroke:#999; stroke-width:3;" />
  <rect class="anc_exon" x="1268" y="35.0" width="73" height="30" style="fill:#87bcbc;fill-opacity:1.00" />
  <line x1="1341" y1="50.0" x2="1381" y2="50.0" style="stroke:#999; stroke-width:3;" />
  <rect class="anc_exon" x="1381" y="35.0" width="112" height="30" style="fill:#87bcbc;fill-opacity:1.00" />
  <line x1="1493" y1="50.0" x2="1513" y2="50.0" style="stroke:#999; stroke-width:3;" />
  <line x1="1513" y1="50.0" x2="1513" y2="50.0" style="stroke:#999; stroke-width:3;" />
  <line x1="1513" y1="50.0" x2="1513" y2="50.0" style="stroke:#999; stroke-width:3;" />
  <line x1="1513" y1="50.0" x2="1533" y2="50.0" style="stroke:#999; stroke-width:3;" />
  <rect class="anc_exon" x="1533" y="35.0" width="128" height="30" style="fill:#87bcbc;fill-opacity:1.00" />
  <line x1="1661" y1="50.0" x2="1681" y2="50.0" style="stroke:#999; stroke-width:3;" />
  <line x1="1681" y1="50.0" x2="1681" y2="50.0" style="stroke:#999; stroke-width:3;" />
  <line x1="1681" y1="50.0" x2="1681" y2="50.0" style="stroke:#999; stroke-width:3;" />
  <line x1="1681" y1="50.0" x2="1701" y2="50.0" style="stroke:#999; stroke-width:3;" />
  <rect class="anc_exon" x="1701" y="35.0" width="84" height="30" style="fill:#87bcbc;fill-opacity:1.00" />
  <line x1="1785" y1="50.0" x2="1825" y2="50.0" style="stroke:#999; stroke-width:3;" />
  <rect class="anc_exon" x="1825" y="35.0" width="100" height="30" style="fill:#87bcbc;fill-opacity:1.00" />
  <line x1="1925" y1="50.0" x2="1965" y2="50.0" style="stroke:#999; stroke-width:3;" />
  <rect class="anc_exon" x="1965" y="35.0" width="72" height="30" style="fill:#87bcbc;fill-opacity:1.00" />
  <line x1="2037" y1="50.0" x2="2057" y2="50.0" style="stroke:#999; stroke-width:3;" />
  <line x1="2057" y1="50.0" x2="2057" y2="50.0" style="stroke:#999; stroke-width:3;" />
  <line x1="2057" y1="50.0" x2="2057" y2="50.0" style="stroke:#999; stroke-width:3;" />
  <line x1="2057" y1="50.0" x2="2077" y2="50.0" style="stroke:#999; stroke-width:3;" />
  <rect class="anc_exon" x="2077" y="35.0" width="96" height="30" style="fill:#87bcbc;fill-opacity:1.00" />
  <line x1="2173" y1="50.0" x2="2193" y2="50.0" style="stroke:#999; stroke-width:3;" />
  <line x1="2193" y1="50.0" x2="2193" y2="50.0" style="stroke:#999; stroke-width:3;" />
  <line x1="2193" y1="50.0" x2="2193" y2="50.0" style="stroke:#999; stroke-width:3;" />
  <line x1="2193" y1="50.0" x2="2213" y2="50.0" style="stroke:#999; stroke-width:3;" />
  <rect class="anc_exon" x="2213" y="35.0" width="71" height="30" style="fill:#87bcbc;fill-opacity:1.00" />
  <line x1="2284" y1="50.0" x2="2324" y2="50.0" style="stroke:#999; stroke-width:3;" />
  <rect class="anc_exon" x="2324" y="35.0" width="108" height="30" style="fill:#87bcbc;fill-opacity:1.00" />
  <line x1="2432" y1="50.0" x2="2452" y2="50.0" style="stroke:#999; stroke-width:3;" />
  <line x1="2452" y1="50.0" x2="2452" y2="50.0" style="stroke:#999; stroke-width:3;" />
  <line x1="2452" y1="50.0" x2="2452" y2="50.0" style="stroke:#999; stroke-width:3;" />
  <line x1="2452" y1="50.0" x2="2472" y2="50.0" style="stroke:#999; stroke-width:3;" />
  <rect class="anc_exon" x="2472" y="35.0" width="60" height="30" style="fill:#87bcbc;fill-opacity:1.00" />
  <line x1="2532" y1="50.0" x2="2552" y2="50.0" style="stroke:#999; stroke-width:3;" />
  <line x1="2552" y1="50.0" x2="2552" y2="50.0" style="stroke:#999; stroke-width:3;" />
  <line x1="2552" y1="50.0" x2="2552" y2="50.0" style="stroke:#999; stroke-width:3;" />
  <line x1="2552" y1="50.0" x2="2572" y2="50.0" style="stroke:#999; stroke-width:3;" />
  <rect class="anc_exon" x="2572" y="35.0" width="102" height="30" style="fill:#87bcbc;fill-opacity:1.00" />
  <line x1="2674" y1="50.0" x2="2714" y2="50.0" style="stroke:#999; stroke-width:3;" />
  <rect class="anc_exon" x="2714" y="35.0" width="79" height="30" style="fill:#87bcbc;fill-opacity:1.00" />
  <line x1="2793" y1="50.0" x2="2833" y2="50.0" style="stroke:#999; stroke-width:3;" />
  <rect class="anc_exon" x="2833" y="35.0" width="24" height="30" style="fill:#87bcbc;fill-opacity:1.00" />
  <rect class="anc_exon" x="2857" y="35.0" width="0" height="30" style="fill:#87bcbc;fill-opacity:1.00" />
  <text style="" >
<tspan x="0" y="83.0" style="font-size:18px;" >SP XM_031958378_1.1</tspan>  </text>



<script type="text/ecmascript">
<![CDATA[
function draw_bbox(text_id)
{
    var text_elem = document.getElementById(text_id);
    var offset_px = 2;
    var offset_py = 0;
    bbox = text_elem.getBBox();
    var box = document.createElementNS(document.rootElement.namespaceURI,'rect');
    box.setAttribute('x', bbox.x - offset_px);
    box.setAttribute('y', bbox.y - offset_py);
    box.setAttribute('width', bbox.width + offset_px * 2);
    box.setAttribute('height', bbox.height + offset_py * 2);
    box.setAttribute('style','fill: white;'+'stroke: black;'+'stroke-width: 1px;');
    text_elem.insertBefore(box,text_elem.childNodes[0]);

    var svg = text_elem.parentNode;
    svg.appendChild(text_elem);
}

for (var i=1; i < 1; i++)
{
draw_bbox("Mouseover" + i);
}
]]> 
</script>
</svg>
