<svg version="1.1"
xmlns="http://www.w3.org/2000/svg"
xmlns:xlink="http://www.w3.org/1999/xlink"
width="3186" height="110.0" viewBox = "0 -10.0 3186 110.0"
onclick="mouseclick(evt)">

<script type="text/ecmascript">

<![CDATA[
    function mouseover(evt, target) { 
    var gv = document.getElementById("globalVariable");
    var previoustarget = gv.firstChild.nodeValue;
    if (previoustarget != "none") 
    {
        	document.getElementById(gv.firstChild.nodeValue).setAttributeNS(null, "visibility", "hidden");
    }
    document.getElementById(target).setAttributeNS(null, "visibility", "visible");
    gv.firstChild.nodeValue = target;
        }

    function mouseclick(evt) { 
    var gv = document.getElementById("globalVariable");
    var previoustarget = gv.firstChild.nodeValue;
    if (previoustarget != "none") {
        	document.getElementById(gv.firstChild.nodeValue).setAttributeNS(null, "visibility", "hidden");
        }
    }
]]>
  </script>
<style type="text/css" >

<![CDATA[
    rect.anc_exon {
              stroke-width:3;
                  }

    rect.non_anc_exon {
              stroke: black; stroke-width:3; stroke-dasharray: 5,5;
                    }

    text {
              font-size: 18px;
              font-family: Courier New;
          }
                    ]]>
</style>

<defs>
    <text x="150" y="40" id="globalVariable">none</text>
</defs>

  <rect class="anc_exon" x="0" y="35.0" width="0" height="30" style="fill:#87bcbc;fill-opacity:1.00" />
  <rect class="anc_exon" x="0" y="35.0" width="887.2" height="30" style="fill:#87bcbc;fill-opacity:1.00" />
  <line x1="887.2" y1="50.0" x2="906.2" y2="50.0" style="stroke:#999; stroke-width:3;" />
  <line x1="906.2" y1="50.0" x2="906.2" y2="50.0" style="stroke:#999; stroke-width:3;" />
  <line x1="906.2" y1="50.0" x2="906.2" y2="50.0" style="stroke:#999; stroke-width:3;" />
  <line x1="906.2" y1="50.0" x2="927.0" y2="50.0" style="stroke:#999; stroke-width:3;" />
  <rect class="anc_exon" x="927" y="35.0" width="113" height="30" style="fill:#87bcbc;fill-opacity:1.00" />
  <line x1="1040" y1="50.0" x2="1060" y2="50.0" style="stroke:#999; stroke-width:3;" />
  <line x1="1060" y1="50.0" x2="1060" y2="50.0" style="stroke:#999; stroke-width:3;" />
  <line x1="1060" y1="50.0" x2="1060" y2="50.0" style="stroke:#999; stroke-width:3;" />
  <line x1="1060" y1="50.0" x2="1080" y2="50.0" style="stroke:#999; stroke-width:3;" />
  <rect class="anc_exon" x="1080" y="35.0" width="158" height="30" style="fill:#87bcbc;fill-opacity:1.00" />
  <line x1="1238" y1="50.0" x2="1258" y2="50.0" style="stroke:#999; stroke-width:3;" />
  <line x1="1258" y1="50.0" x2="1258" y2="50.0" style="stroke:#999; stroke-width:3;" />
  <line x1="1258" y1="50.0" x2="1258" y2="50.0" style="stroke:#999; stroke-width:3;" />
  <line x1="1258" y1="50.0" x2="1278" y2="50.0" style="stroke:#999; stroke-width:3;" />
  <rect class="anc_exon" x="1278" y="35.0" width="97" height="30" style="fill:#87bcbc;fill-opacity:1.00" />
  <line x1="1375" y1="50.0" x2="1395" y2="50.0" style="stroke:#999; stroke-width:3;" />
  <line x1="1395" y1="50.0" x2="1395" y2="50.0" style="stroke:#999; stroke-width:3;" />
  <line x1="1395" y1="50.0" x2="1395" y2="50.0" style="stroke:#999; stroke-width:3;" />
  <line x1="1395" y1="50.0" x2="1415" y2="50.0" style="stroke:#999; stroke-width:3;" />
  <rect class="anc_exon" x="1415" y="35.0" width="164" height="30" style="fill:#87bcbc;fill-opacity:1.00" />
  <line x1="1579" y1="50.0" x2="1599" y2="50.0" style="stroke:#999; stroke-width:3;" />
  <line x1="1599" y1="50.0" x2="1599" y2="50.0" style="stroke:#999; stroke-width:3;" />
  <line x1="1599" y1="50.0" x2="1599" y2="50.0" style="stroke:#999; stroke-width:3;" />
  <line x1="1599" y1="50.0" x2="1619" y2="50.0" style="stroke:#999; stroke-width:3;" />
  <rect class="anc_exon" x="1619" y="35.0" width="132" height="30" style="fill:#87bcbc;fill-opacity:1.00" />
  <line x1="1751" y1="50.0" x2="1771" y2="50.0" style="stroke:#999; stroke-width:3;" />
  <line x1="1771" y1="50.0" x2="1771" y2="50.0" style="stroke:#999; stroke-width:3;" />
  <line x1="1771" y1="50.0" x2="1771" y2="50.0" style="stroke:#999; stroke-width:3;" />
  <line x1="1771" y1="50.0" x2="1791" y2="50.0" style="stroke:#999; stroke-width:3;" />
  <rect class="anc_exon" x="1791" y="35.0" width="88" height="30" style="fill:#87bcbc;fill-opacity:1.00" />
  <line x1="1879" y1="50.0" x2="1919" y2="50.0" style="stroke:#999; stroke-width:3;" />
  <rect class="anc_exon" x="1919" y="35.0" width="110" height="30" style="fill:#87bcbc;fill-opacity:1.00" />
  <line x1="2029" y1="50.0" x2="2049" y2="50.0" style="stroke:#999; stroke-width:3;" />
  <line x1="2049" y1="50.0" x2="2049" y2="50.0" style="stroke:#999; stroke-width:3;" />
  <line x1="2049" y1="50.0" x2="2049" y2="50.0" style="stroke:#999; stroke-width:3;" />
  <line x1="2049" y1="50.0" x2="2069" y2="50.0" style="stroke:#999; stroke-width:3;" />
  <rect class="anc_exon" x="2069" y="35.0" width="95" height="30" style="fill:#87bcbc;fill-opacity:1.00" />
  <line x1="2164" y1="50.0" x2="2184" y2="50.0" style="stroke:#999; stroke-width:3;" />
  <line x1="2184" y1="50.0" x2="2184" y2="50.0" style="stroke:#999; stroke-width:3;" />
  <line x1="2184" y1="50.0" x2="2184" y2="50.0" style="stroke:#999; stroke-width:3;" />
  <line x1="2184" y1="50.0" x2="2204" y2="50.0" style="stroke:#999; stroke-width:3;" />
  <rect class="anc_exon" x="2204" y="35.0" width="100" height="30" style="fill:#87bcbc;fill-opacity:1.00" />
  <line x1="2304" y1="50.0" x2="2344" y2="50.0" style="stroke:#999; stroke-width:3;" />
  <rect class="anc_exon" x="2344" y="35.0" width="41" height="30" style="fill:#87bcbc;fill-opacity:1.00" />
  <line x1="2385" y1="50.0" x2="2405" y2="50.0" style="stroke:#999; stroke-width:3;" />
  <line x1="2405" y1="50.0" x2="2405" y2="50.0" style="stroke:#999; stroke-width:3;" />
  <line x1="2405" y1="50.0" x2="2405" y2="50.0" style="stroke:#999; stroke-width:3;" />
  <line x1="2405" y1="50.0" x2="2425" y2="50.0" style="stroke:#999; stroke-width:3;" />
  <rect class="anc_exon" x="2425" y="35.0" width="90" height="30" style="fill:#87bcbc;fill-opacity:1.00" />
  <line x1="2515" y1="50.0" x2="2535" y2="50.0" style="stroke:#999; stroke-width:3;" />
  <line x1="2535" y1="50.0" x2="2535" y2="50.0" style="stroke:#999; stroke-width:3;" />
  <line x1="2535" y1="50.0" x2="2535" y2="50.0" style="stroke:#999; stroke-width:3;" />
  <line x1="2535" y1="50.0" x2="2555" y2="50.0" style="stroke:#999; stroke-width:3;" />
  <rect class="anc_exon" x="2555" y="35.0" width="158" height="30" style="fill:#87bcbc;fill-opacity:1.00" />
  <line x1="2713" y1="50.0" x2="2753" y2="50.0" style="stroke:#999; stroke-width:3;" />
  <rect class="anc_exon" x="2753" y="35.0" width="142" height="30" style="fill:#87bcbc;fill-opacity:1.00" />
  <line x1="2895" y1="50.0" x2="2935" y2="50.0" style="stroke:#999; stroke-width:3;" />
  <rect class="anc_exon" x="2935" y="35.0" width="87" height="30" style="fill:#87bcbc;fill-opacity:1.00" />
  <line x1="3022" y1="50.0" x2="3042" y2="50.0" style="stroke:#999; stroke-width:3;" />
  <line x1="3042" y1="50.0" x2="3042" y2="50.0" style="stroke:#999; stroke-width:3;" />
  <line x1="3042" y1="50.0" x2="3042" y2="50.0" style="stroke:#999; stroke-width:3;" />
  <line x1="3042" y1="50.0" x2="3062" y2="50.0" style="stroke:#999; stroke-width:3;" />
  <rect class="anc_exon" x="3062" y="35.0" width="88" height="30" style="fill:#87bcbc;fill-opacity:1.00" />
  <line x1="3134.8" y1="35.0" x2="3134.8" y2="65.0" style="stroke:#121212; stroke-width:1.6; stroke-opacity:1"/>
  <text style="" text-anchor="middle">
<tspan x="3134.0" y="26.0" style="font-size:18px;fill:#121212;" >-2</tspan>  </text>
  <rect class="anc_exon" x="3150" y="35.0" width="0" height="30" style="fill:#87bcbc;fill-opacity:1.00" />
  <text style="" >
<tspan x="0" y="83.0" style="font-size:18px;" >SP XM_031958115_1.1</tspan>  </text>



<script type="text/ecmascript">
<![CDATA[
function draw_bbox(text_id)
{
    var text_elem = document.getElementById(text_id);
    var offset_px = 2;
    var offset_py = 0;
    bbox = text_elem.getBBox();
    var box = document.createElementNS(document.rootElement.namespaceURI,'rect');
    box.setAttribute('x', bbox.x - offset_px);
    box.setAttribute('y', bbox.y - offset_py);
    box.setAttribute('width', bbox.width + offset_px * 2);
    box.setAttribute('height', bbox.height + offset_py * 2);
    box.setAttribute('style','fill: white;'+'stroke: black;'+'stroke-width: 1px;');
    text_elem.insertBefore(box,text_elem.childNodes[0]);

    var svg = text_elem.parentNode;
    svg.appendChild(text_elem);
}

for (var i=1; i < 1; i++)
{
draw_bbox("Mouseover" + i);
}
]]> 
</script>
</svg>
