<svg version="1.1"
xmlns="http://www.w3.org/2000/svg"
xmlns:xlink="http://www.w3.org/1999/xlink"
width="1879" height="100" viewBox = "0 0 1879 100"
onclick="mouseclick(evt)">

<script type="text/ecmascript">

<![CDATA[
    function mouseover(evt, target) { 
    var gv = document.getElementById("globalVariable");
    var previoustarget = gv.firstChild.nodeValue;
    if (previoustarget != "none") 
    {
        	document.getElementById(gv.firstChild.nodeValue).setAttributeNS(null, "visibility", "hidden");
    }
    document.getElementById(target).setAttributeNS(null, "visibility", "visible");
    gv.firstChild.nodeValue = target;
        }

    function mouseclick(evt) { 
    var gv = document.getElementById("globalVariable");
    var previoustarget = gv.firstChild.nodeValue;
    if (previoustarget != "none") {
        	document.getElementById(gv.firstChild.nodeValue).setAttributeNS(null, "visibility", "hidden");
        }
    }
]]>
  </script>
<style type="text/css" >

<![CDATA[
    rect.anc_exon {
              stroke-width:3;
                  }

    rect.non_anc_exon {
              stroke: black; stroke-width:3; stroke-dasharray: 5,5;
                    }

    text {
              font-size: 18px;
              font-family: Courier New;
          }
                    ]]>
</style>

<defs>
    <text x="150" y="40" id="globalVariable">none</text>
</defs>

  <rect class="anc_exon" x="0" y="35.0" width="0" height="30" style="fill:#87bcbc;fill-opacity:1.00" />
  <rect class="anc_exon" x="0" y="35.0" width="28.8" height="30" style="fill:#87bcbc;fill-opacity:1.00" />
  <line x1="28.8" y1="50.0" x2="47.8" y2="50.0" style="stroke:#999; stroke-width:3;" />
  <line x1="47.8" y1="50.0" x2="47.8" y2="50.0" style="stroke:#999; stroke-width:3;" />
  <line x1="47.8" y1="50.0" x2="47.8" y2="50.0" style="stroke:#999; stroke-width:3;" />
  <line x1="47.8" y1="50.0" x2="68.0" y2="50.0" style="stroke:#999; stroke-width:3;" />
  <rect class="anc_exon" x="68" y="35.0" width="102" height="30" style="fill:#87bcbc;fill-opacity:1.00" />
  <line x1="170" y1="50.0" x2="190" y2="50.0" style="stroke:#999; stroke-width:3;" />
  <line x1="190" y1="50.0" x2="190" y2="50.0" style="stroke:#999; stroke-width:3;" />
  <line x1="190" y1="50.0" x2="190" y2="50.0" style="stroke:#999; stroke-width:3;" />
  <line x1="190" y1="50.0" x2="210" y2="50.0" style="stroke:#999; stroke-width:3;" />
  <rect class="anc_exon" x="210" y="35.0" width="110" height="30" style="fill:#87bcbc;fill-opacity:1.00" />
  <line x1="320" y1="50.0" x2="340" y2="50.0" style="stroke:#999; stroke-width:3;" />
  <line x1="340" y1="50.0" x2="340" y2="50.0" style="stroke:#999; stroke-width:3;" />
  <line x1="340" y1="50.0" x2="340" y2="50.0" style="stroke:#999; stroke-width:3;" />
  <line x1="340" y1="50.0" x2="360" y2="50.0" style="stroke:#999; stroke-width:3;" />
  <rect class="anc_exon" x="360" y="35.0" width="86" height="30" style="fill:#87bcbc;fill-opacity:1.00" />
  <line x1="446" y1="50.0" x2="466" y2="50.0" style="stroke:#999; stroke-width:3;" />
  <line x1="466" y1="50.0" x2="466" y2="50.0" style="stroke:#999; stroke-width:3;" />
  <line x1="466" y1="50.0" x2="466" y2="50.0" style="stroke:#999; stroke-width:3;" />
  <line x1="466" y1="50.0" x2="486" y2="50.0" style="stroke:#999; stroke-width:3;" />
  <rect class="anc_exon" x="486" y="35.0" width="94" height="30" style="fill:#87bcbc;fill-opacity:1.00" />
  <line x1="580" y1="50.0" x2="600" y2="50.0" style="stroke:#999; stroke-width:3;" />
  <line x1="600" y1="50.0" x2="600" y2="50.0" style="stroke:#999; stroke-width:3;" />
  <line x1="600" y1="50.0" x2="600" y2="50.0" style="stroke:#999; stroke-width:3;" />
  <line x1="600" y1="50.0" x2="620" y2="50.0" style="stroke:#999; stroke-width:3;" />
  <rect class="anc_exon" x="620" y="35.0" width="56" height="30" style="fill:#87bcbc;fill-opacity:1.00" />
  <line x1="676" y1="50.0" x2="696" y2="50.0" style="stroke:#999; stroke-width:3;" />
  <line x1="696" y1="50.0" x2="696" y2="50.0" style="stroke:#999; stroke-width:3;" />
  <line x1="696" y1="50.0" x2="696" y2="50.0" style="stroke:#999; stroke-width:3;" />
  <line x1="696" y1="50.0" x2="716" y2="50.0" style="stroke:#999; stroke-width:3;" />
  <rect class="anc_exon" x="716" y="35.0" width="88" height="30" style="fill:#87bcbc;fill-opacity:1.00" />
  <line x1="804" y1="50.0" x2="824" y2="50.0" style="stroke:#999; stroke-width:3;" />
  <line x1="824" y1="50.0" x2="824" y2="50.0" style="stroke:#999; stroke-width:3;" />
  <line x1="824" y1="50.0" x2="824" y2="50.0" style="stroke:#999; stroke-width:3;" />
  <line x1="824" y1="50.0" x2="844" y2="50.0" style="stroke:#999; stroke-width:3;" />
  <rect class="anc_exon" x="844" y="35.0" width="102" height="30" style="fill:#87bcbc;fill-opacity:1.00" />
  <line x1="946" y1="50.0" x2="966" y2="50.0" style="stroke:#999; stroke-width:3;" />
  <line x1="966" y1="50.0" x2="966" y2="50.0" style="stroke:#999; stroke-width:3;" />
  <line x1="966" y1="50.0" x2="966" y2="50.0" style="stroke:#999; stroke-width:3;" />
  <line x1="966" y1="50.0" x2="986" y2="50.0" style="stroke:#999; stroke-width:3;" />
  <rect class="anc_exon" x="986" y="35.0" width="115" height="30" style="fill:#87bcbc;fill-opacity:1.00" />
  <line x1="1101" y1="50.0" x2="1121" y2="50.0" style="stroke:#999; stroke-width:3;" />
  <line x1="1121" y1="50.0" x2="1121" y2="50.0" style="stroke:#999; stroke-width:3;" />
  <line x1="1121" y1="50.0" x2="1121" y2="50.0" style="stroke:#999; stroke-width:3;" />
  <line x1="1121" y1="50.0" x2="1141" y2="50.0" style="stroke:#999; stroke-width:3;" />
  <rect class="anc_exon" x="1141" y="35.0" width="148" height="30" style="fill:#87bcbc;fill-opacity:1.00" />
  <line x1="1289" y1="50.0" x2="1309" y2="50.0" style="stroke:#999; stroke-width:3;" />
  <line x1="1309" y1="50.0" x2="1309" y2="50.0" style="stroke:#999; stroke-width:3;" />
  <line x1="1309" y1="50.0" x2="1309" y2="50.0" style="stroke:#999; stroke-width:3;" />
  <line x1="1309" y1="50.0" x2="1329" y2="50.0" style="stroke:#999; stroke-width:3;" />
  <rect class="anc_exon" x="1329" y="35.0" width="101" height="30" style="fill:#87bcbc;fill-opacity:1.00" />
  <line x1="1430" y1="50.0" x2="1450" y2="50.0" style="stroke:#999; stroke-width:3;" />
  <line x1="1450" y1="50.0" x2="1450" y2="50.0" style="stroke:#999; stroke-width:3;" />
  <line x1="1450" y1="50.0" x2="1450" y2="50.0" style="stroke:#999; stroke-width:3;" />
  <line x1="1450" y1="50.0" x2="1470" y2="50.0" style="stroke:#999; stroke-width:3;" />
  <rect class="anc_exon" x="1470" y="35.0" width="52" height="30" style="fill:#87bcbc;fill-opacity:1.00" />
  <line x1="1522" y1="50.0" x2="1542" y2="50.0" style="stroke:#999; stroke-width:3;" />
  <line x1="1542" y1="50.0" x2="1542" y2="50.0" style="stroke:#999; stroke-width:3;" />
  <line x1="1542" y1="50.0" x2="1542" y2="50.0" style="stroke:#999; stroke-width:3;" />
  <line x1="1542" y1="50.0" x2="1562" y2="50.0" style="stroke:#999; stroke-width:3;" />
  <rect class="anc_exon" x="1562" y="35.0" width="101" height="30" style="fill:#87bcbc;fill-opacity:1.00" />
  <line x1="1663" y1="50.0" x2="1683" y2="50.0" style="stroke:#999; stroke-width:3;" />
  <line x1="1683" y1="50.0" x2="1683" y2="50.0" style="stroke:#999; stroke-width:3;" />
  <line x1="1683" y1="50.0" x2="1683" y2="50.0" style="stroke:#999; stroke-width:3;" />
  <line x1="1683" y1="50.0" x2="1703" y2="50.0" style="stroke:#999; stroke-width:3;" />
  <rect class="anc_exon" x="1703" y="35.0" width="140" height="30" style="fill:#87bcbc;fill-opacity:1.00" />
  <rect class="anc_exon" x="1843" y="35.0" width="0" height="30" style="fill:#87bcbc;fill-opacity:1.00" />
  <text style="" >
<tspan x="0" y="83.0" style="font-size:18px;" >SP XM_031958104_1.1</tspan>  </text>



<script type="text/ecmascript">
<![CDATA[
function draw_bbox(text_id)
{
    var text_elem = document.getElementById(text_id);
    var offset_px = 2;
    var offset_py = 0;
    bbox = text_elem.getBBox();
    var box = document.createElementNS(document.rootElement.namespaceURI,'rect');
    box.setAttribute('x', bbox.x - offset_px);
    box.setAttribute('y', bbox.y - offset_py);
    box.setAttribute('width', bbox.width + offset_px * 2);
    box.setAttribute('height', bbox.height + offset_py * 2);
    box.setAttribute('style','fill: white;'+'stroke: black;'+'stroke-width: 1px;');
    text_elem.insertBefore(box,text_elem.childNodes[0]);

    var svg = text_elem.parentNode;
    svg.appendChild(text_elem);
}

for (var i=1; i < 1; i++)
{
draw_bbox("Mouseover" + i);
}
]]> 
</script>
</svg>
