<svg version="1.1"
xmlns="http://www.w3.org/2000/svg"
xmlns:xlink="http://www.w3.org/1999/xlink"
width="3599" height="138.0" viewBox = "0 -38.0 3599 138.0"
onclick="mouseclick(evt)">

<script type="text/ecmascript">

<![CDATA[
    function mouseover(evt, target) { 
    var gv = document.getElementById("globalVariable");
    var previoustarget = gv.firstChild.nodeValue;
    if (previoustarget != "none") 
    {
        	document.getElementById(gv.firstChild.nodeValue).setAttributeNS(null, "visibility", "hidden");
    }
    document.getElementById(target).setAttributeNS(null, "visibility", "visible");
    gv.firstChild.nodeValue = target;
        }

    function mouseclick(evt) { 
    var gv = document.getElementById("globalVariable");
    var previoustarget = gv.firstChild.nodeValue;
    if (previoustarget != "none") {
        	document.getElementById(gv.firstChild.nodeValue).setAttributeNS(null, "visibility", "hidden");
        }
    }
]]>
  </script>
<style type="text/css" >

<![CDATA[
    rect.anc_exon {
              stroke-width:3;
                  }

    rect.non_anc_exon {
              stroke: black; stroke-width:3; stroke-dasharray: 5,5;
                    }

    text {
              font-size: 18px;
              font-family: Courier New;
          }
                    ]]>
</style>

<defs>
    <text x="150" y="40" id="globalVariable">none</text>
</defs>

  <rect class="anc_exon" x="0" y="35.0" width="0" height="30" style="fill:#87bcbc;fill-opacity:1.00" />
  <rect class="anc_exon" x="0" y="35.0" width="574.4" height="30" style="fill:#87bcbc;fill-opacity:1.00" />
  <line x1="100.0" y1="35.0" x2="100.0" y2="65.0" style="stroke:#121212; stroke-width:1.6; stroke-opacity:1"/>
  <line x1="159.60000000000002" y1="35.0" x2="159.60000000000002" y2="65.0" style="stroke:#121212; stroke-width:0.8; stroke-opacity:1"/>
  <polygon points="245.60000000000002,35.0 248.10000000000002,25.0 243.10000000000002,25.0" style="fill:#121212; stroke-opacity:1; fill-opacity:1"/>
  <text style="" text-anchor="middle">
<tspan x="99.2" y="26.0" style="font-size:18px;fill:#121212;" >-2</tspan>  </text>
  <text style="" text-anchor="middle">
<tspan x="159.20000000000002" y="26.0" style="font-size:18px;fill:#121212;" >-1</tspan>  </text>
  <text style="" text-anchor="middle">
<tspan x="245.60000000000002" y="16.0" style="font-size:18px;fill:#121212;" >+1</tspan>  </text>
  <line x1="574.4" y1="50.0" x2="593.4" y2="50.0" style="stroke:#999; stroke-width:3;" />
  <line x1="593.4" y1="50.0" x2="593.4" y2="50.0" style="stroke:#999; stroke-width:3;" />
  <line x1="593.4" y1="50.0" x2="593.4" y2="50.0" style="stroke:#999; stroke-width:3;" />
  <line x1="593.4" y1="50.0" x2="614.0" y2="50.0" style="stroke:#999; stroke-width:3;" />
  <rect class="anc_exon" x="614" y="35.0" width="54" height="30" style="fill:#87bcbc;fill-opacity:1.00" />
  <line x1="668" y1="50.0" x2="708" y2="50.0" style="stroke:#999; stroke-width:3;" />
  <rect class="anc_exon" x="708" y="35.0" width="72" height="30" style="fill:#87bcbc;fill-opacity:1.00" />
  <line x1="780" y1="50.0" x2="820" y2="50.0" style="stroke:#999; stroke-width:3;" />
  <rect class="anc_exon" x="820" y="35.0" width="409" height="30" style="fill:#87bcbc;fill-opacity:1.00" />
  <polygon points="1171.2,35.0 1173.7,25.0 1168.7,25.0" style="fill:#121212; stroke-opacity:1; fill-opacity:1"/>
  <text style="" text-anchor="middle">
<tspan x="1171.2" y="16.0" style="font-size:18px;fill:#121212;" >+1</tspan>  </text>
  <line x1="1229" y1="50.0" x2="1249" y2="50.0" style="stroke:#999; stroke-width:3;" />
  <line x1="1249" y1="50.0" x2="1249" y2="50.0" style="stroke:#999; stroke-width:3;" />
  <line x1="1249" y1="50.0" x2="1249" y2="50.0" style="stroke:#999; stroke-width:3;" />
  <line x1="1249" y1="50.0" x2="1269" y2="50.0" style="stroke:#999; stroke-width:3;" />
  <rect class="anc_exon" x="1269" y="35.0" width="46" height="30" style="fill:#87bcbc;fill-opacity:1.00" />
  <polygon points="1277.8,35.0 1280.3,25.0 1275.3,25.0" style="fill:#121212; stroke-opacity:1; fill-opacity:1"/>
  <polygon points="1301.8,35.0 1304.3,25.0 1299.3,25.0" style="fill:#121212; stroke-opacity:1; fill-opacity:1"/>
  <text style="" text-anchor="middle">
<tspan x="1289.8" y="16.0" style="font-size:18px;fill:#121212;" >+1</tspan><tspan x="1289.8" y="-2.0" style="font-size:18px;fill:#121212;" >+1</tspan>  </text>
  <line x1="1315" y1="50.0" x2="1335" y2="50.0" style="stroke:#999; stroke-width:3;" />
  <line x1="1335" y1="50.0" x2="1335" y2="50.0" style="stroke:#999; stroke-width:3;" />
  <line x1="1335" y1="50.0" x2="1335" y2="50.0" style="stroke:#999; stroke-width:3;" />
  <line x1="1335" y1="50.0" x2="1355" y2="50.0" style="stroke:#999; stroke-width:3;" />
  <rect class="anc_exon" x="1355" y="35.0" width="135" height="30" style="fill:#87bcbc;fill-opacity:1.00" />
  <line x1="1490" y1="50.0" x2="1530" y2="50.0" style="stroke:#999; stroke-width:3;" />
  <rect class="anc_exon" x="1530" y="35.0" width="266" height="30" style="fill:#87bcbc;fill-opacity:1.00" />
  <line x1="1796" y1="50.0" x2="1836" y2="50.0" style="stroke:#999; stroke-width:3;" />
  <rect class="anc_exon" x="1836" y="35.0" width="92" height="30" style="fill:#878787;fill-opacity:1.00" />
  <line x1="1928" y1="50.0" x2="1968" y2="50.0" style="stroke:#999; stroke-width:3;" />
  <rect class="anc_exon" x="1968" y="35.0" width="123" height="30" style="fill:#87bcbc;fill-opacity:1.00" />
  <line x1="2091" y1="50.0" x2="2131" y2="50.0" style="stroke:#999; stroke-width:3;" />
  <rect class="anc_exon" x="2131" y="35.0" width="80" height="30" style="fill:#87bcbc;fill-opacity:1.00" />
  <line x1="2211" y1="50.0" x2="2251" y2="50.0" style="stroke:#999; stroke-width:3;" />
  <rect class="anc_exon" x="2251" y="35.0" width="44" height="30" style="fill:#87bcbc;fill-opacity:1.00" />
  <line x1="2295" y1="50.0" x2="2335" y2="50.0" style="stroke:#999; stroke-width:3;" />
  <rect class="anc_exon" x="2335" y="35.0" width="100" height="30" style="fill:#87bcbc;fill-opacity:1.00" />
  <line x1="2435" y1="50.0" x2="2475" y2="50.0" style="stroke:#999; stroke-width:3;" />
  <rect class="anc_exon" x="2475" y="35.0" width="148" height="30" style="fill:#87bcbc;fill-opacity:1.00" />
  <line x1="2623" y1="50.0" x2="2663" y2="50.0" style="stroke:#999; stroke-width:3;" />
  <rect class="anc_exon" x="2663" y="35.0" width="49" height="30" style="fill:#87bcbc;fill-opacity:1.00" />
  <line x1="2712" y1="50.0" x2="2752" y2="50.0" style="stroke:#999; stroke-width:3;" />
  <rect class="anc_exon" x="2752" y="35.0" width="168" height="30" style="fill:#87bcbc;fill-opacity:1.00" />
  <line x1="2920" y1="50.0" x2="2960" y2="50.0" style="stroke:#999; stroke-width:3;" />
  <rect class="anc_exon" x="2960" y="35.0" width="120" height="30" style="fill:#87bcbc;fill-opacity:1.00" />
  <line x1="3080" y1="50.0" x2="3120" y2="50.0" style="stroke:#999; stroke-width:3;" />
  <rect class="anc_exon" x="3120" y="35.0" width="155" height="30" style="fill:#87bcbc;fill-opacity:1.00" />
  <line x1="3275" y1="50.0" x2="3315" y2="50.0" style="stroke:#999; stroke-width:3;" />
  <rect class="anc_exon" x="3315" y="35.0" width="124" height="30" style="fill:#87bcbc;fill-opacity:1.00" />
  <line x1="3439" y1="50.0" x2="3459" y2="50.0" style="stroke:#999; stroke-width:3;" />
  <line x1="3459" y1="50.0" x2="3459" y2="50.0" style="stroke:#999; stroke-width:3;" />
  <line x1="3459" y1="50.0" x2="3459" y2="50.0" style="stroke:#999; stroke-width:3;" />
  <line x1="3459" y1="50.0" x2="3479" y2="50.0" style="stroke:#999; stroke-width:3;" />
  <rect class="anc_exon" x="3479" y="35.0" width="84" height="30" style="fill:#87bcbc;fill-opacity:1.00" />
  <rect class="anc_exon" x="3563" y="35.0" width="0" height="30" style="fill:#87bcbc;fill-opacity:1.00" />
  <text style="" >
<tspan x="0" y="83.0" style="font-size:18px;" >SP XM_031961549_1.1</tspan>  </text>
  <text style="fill:#121212;" >
<tspan x="574.4" y="50.0" style="font-size:18px;fill:#121212;" >aa</tspan>  </text>
  <text style="fill:#121212;" >
<tspan x="780" y="50.0" style="font-size:18px;fill:#121212;" >at</tspan>  </text>
  <text style="fill:#121212;" >
<tspan x="796.96" y="68.0" style="font-size:18px;fill:#121212;" >ca</tspan>  </text>
  <text style="fill:#121212;" >
<tspan x="1331.96" y="68.0" style="font-size:18px;fill:#121212;" >gg</tspan>  </text>



<script type="text/ecmascript">
<![CDATA[
function draw_bbox(text_id)
{
    var text_elem = document.getElementById(text_id);
    var offset_px = 2;
    var offset_py = 0;
    bbox = text_elem.getBBox();
    var box = document.createElementNS(document.rootElement.namespaceURI,'rect');
    box.setAttribute('x', bbox.x - offset_px);
    box.setAttribute('y', bbox.y - offset_py);
    box.setAttribute('width', bbox.width + offset_px * 2);
    box.setAttribute('height', bbox.height + offset_py * 2);
    box.setAttribute('style','fill: white;'+'stroke: black;'+'stroke-width: 1px;');
    text_elem.insertBefore(box,text_elem.childNodes[0]);

    var svg = text_elem.parentNode;
    svg.appendChild(text_elem);
}

for (var i=1; i < 1; i++)
{
draw_bbox("Mouseover" + i);
}
]]> 
</script>
</svg>
