<svg version="1.1"
xmlns="http://www.w3.org/2000/svg"
xmlns:xlink="http://www.w3.org/1999/xlink"
width="4950" height="100" viewBox = "0 0 4950 100"
onclick="mouseclick(evt)">

<script type="text/ecmascript">

<![CDATA[
    function mouseover(evt, target) { 
    var gv = document.getElementById("globalVariable");
    var previoustarget = gv.firstChild.nodeValue;
    if (previoustarget != "none") 
    {
        	document.getElementById(gv.firstChild.nodeValue).setAttributeNS(null, "visibility", "hidden");
    }
    document.getElementById(target).setAttributeNS(null, "visibility", "visible");
    gv.firstChild.nodeValue = target;
        }

    function mouseclick(evt) { 
    var gv = document.getElementById("globalVariable");
    var previoustarget = gv.firstChild.nodeValue;
    if (previoustarget != "none") {
        	document.getElementById(gv.firstChild.nodeValue).setAttributeNS(null, "visibility", "hidden");
        }
    }
]]>
  </script>
<style type="text/css" >

<![CDATA[
    rect.anc_exon {
              stroke-width:3;
                  }

    rect.non_anc_exon {
              stroke: black; stroke-width:3; stroke-dasharray: 5,5;
                    }

    text {
              font-size: 18px;
              font-family: Courier New;
          }
                    ]]>
</style>

<defs>
    <text x="150" y="40" id="globalVariable">none</text>
</defs>

  <rect class="anc_exon" x="0" y="35.0" width="0" height="30" style="fill:#87bcbc;fill-opacity:1.00" />
  <rect class="anc_exon" x="0" y="35.0" width="76.0" height="30" style="fill:#87bcbc;fill-opacity:1.00" />
  <line x1="76.0" y1="50.0" x2="116.0" y2="50.0" style="stroke:#999; stroke-width:3;" />
  <rect class="anc_exon" x="116" y="35.0" width="101" height="30" style="fill:#87bcbc;fill-opacity:1.00" />
  <line x1="217" y1="50.0" x2="237" y2="50.0" style="stroke:#999; stroke-width:3;" />
  <line x1="237" y1="50.0" x2="237" y2="50.0" style="stroke:#999; stroke-width:3;" />
  <line x1="237" y1="50.0" x2="237" y2="50.0" style="stroke:#999; stroke-width:3;" />
  <line x1="237" y1="50.0" x2="257" y2="50.0" style="stroke:#999; stroke-width:3;" />
  <rect class="anc_exon" x="257" y="35.0" width="163" height="30" style="fill:#87bcbc;fill-opacity:1.00" />
  <line x1="420" y1="50.0" x2="440" y2="50.0" style="stroke:#999; stroke-width:3;" />
  <line x1="440" y1="50.0" x2="440" y2="50.0" style="stroke:#999; stroke-width:3;" />
  <line x1="440" y1="50.0" x2="440" y2="50.0" style="stroke:#999; stroke-width:3;" />
  <line x1="440" y1="50.0" x2="460" y2="50.0" style="stroke:#999; stroke-width:3;" />
  <rect class="anc_exon" x="460" y="35.0" width="69" height="30" style="fill:#87bcbc;fill-opacity:1.00" />
  <line x1="529" y1="50.0" x2="569" y2="50.0" style="stroke:#999; stroke-width:3;" />
  <rect class="anc_exon" x="569" y="35.0" width="78" height="30" style="fill:#87bcbc;fill-opacity:1.00" />
  <line x1="647" y1="50.0" x2="687" y2="50.0" style="stroke:#999; stroke-width:3;" />
  <rect class="anc_exon" x="687" y="35.0" width="101" height="30" style="fill:#87bcbc;fill-opacity:1.00" />
  <line x1="788" y1="50.0" x2="808" y2="50.0" style="stroke:#999; stroke-width:3;" />
  <line x1="808" y1="50.0" x2="808" y2="50.0" style="stroke:#999; stroke-width:3;" />
  <line x1="808" y1="50.0" x2="808" y2="50.0" style="stroke:#999; stroke-width:3;" />
  <line x1="808" y1="50.0" x2="828" y2="50.0" style="stroke:#999; stroke-width:3;" />
  <rect class="anc_exon" x="828" y="35.0" width="64" height="30" style="fill:#87bcbc;fill-opacity:1.00" />
  <line x1="892" y1="50.0" x2="912" y2="50.0" style="stroke:#999; stroke-width:3;" />
  <line x1="912" y1="50.0" x2="912" y2="50.0" style="stroke:#999; stroke-width:3;" />
  <line x1="912" y1="50.0" x2="912" y2="50.0" style="stroke:#999; stroke-width:3;" />
  <line x1="912" y1="50.0" x2="932" y2="50.0" style="stroke:#999; stroke-width:3;" />
  <rect class="anc_exon" x="932" y="35.0" width="112" height="30" style="fill:#87bcbc;fill-opacity:1.00" />
  <line x1="1044" y1="50.0" x2="1064" y2="50.0" style="stroke:#999; stroke-width:3;" />
  <line x1="1064" y1="50.0" x2="1064" y2="50.0" style="stroke:#999; stroke-width:3;" />
  <line x1="1064" y1="50.0" x2="1064" y2="50.0" style="stroke:#999; stroke-width:3;" />
  <line x1="1064" y1="50.0" x2="1084" y2="50.0" style="stroke:#999; stroke-width:3;" />
  <rect class="anc_exon" x="1084" y="35.0" width="92" height="30" style="fill:#87bcbc;fill-opacity:1.00" />
  <line x1="1176" y1="50.0" x2="1196" y2="50.0" style="stroke:#999; stroke-width:3;" />
  <line x1="1196" y1="50.0" x2="1196" y2="50.0" style="stroke:#999; stroke-width:3;" />
  <line x1="1196" y1="50.0" x2="1196" y2="50.0" style="stroke:#999; stroke-width:3;" />
  <line x1="1196" y1="50.0" x2="1216" y2="50.0" style="stroke:#999; stroke-width:3;" />
  <rect class="anc_exon" x="1216" y="35.0" width="76" height="30" style="fill:#87bcbc;fill-opacity:1.00" />
  <line x1="1292" y1="50.0" x2="1312" y2="50.0" style="stroke:#999; stroke-width:3;" />
  <line x1="1312" y1="50.0" x2="1312" y2="50.0" style="stroke:#999; stroke-width:3;" />
  <line x1="1312" y1="50.0" x2="1312" y2="50.0" style="stroke:#999; stroke-width:3;" />
  <line x1="1312" y1="50.0" x2="1332" y2="50.0" style="stroke:#999; stroke-width:3;" />
  <rect class="anc_exon" x="1332" y="35.0" width="116" height="30" style="fill:#87bcbc;fill-opacity:1.00" />
  <line x1="1448" y1="50.0" x2="1468" y2="50.0" style="stroke:#999; stroke-width:3;" />
  <line x1="1468" y1="50.0" x2="1468" y2="50.0" style="stroke:#999; stroke-width:3;" />
  <line x1="1468" y1="50.0" x2="1468" y2="50.0" style="stroke:#999; stroke-width:3;" />
  <line x1="1468" y1="50.0" x2="1488" y2="50.0" style="stroke:#999; stroke-width:3;" />
  <rect class="anc_exon" x="1488" y="35.0" width="121" height="30" style="fill:#87bcbc;fill-opacity:1.00" />
  <line x1="1609" y1="50.0" x2="1649" y2="50.0" style="stroke:#999; stroke-width:3;" />
  <rect class="anc_exon" x="1649" y="35.0" width="91" height="30" style="fill:#87bcbc;fill-opacity:1.00" />
  <line x1="1740" y1="50.0" x2="1760" y2="50.0" style="stroke:#999; stroke-width:3;" />
  <line x1="1760" y1="50.0" x2="1760" y2="50.0" style="stroke:#999; stroke-width:3;" />
  <line x1="1760" y1="50.0" x2="1760" y2="50.0" style="stroke:#999; stroke-width:3;" />
  <line x1="1760" y1="50.0" x2="1780" y2="50.0" style="stroke:#999; stroke-width:3;" />
  <rect class="anc_exon" x="1780" y="35.0" width="65" height="30" style="fill:#87bcbc;fill-opacity:1.00" />
  <line x1="1845" y1="50.0" x2="1865" y2="50.0" style="stroke:#999; stroke-width:3;" />
  <line x1="1865" y1="50.0" x2="1865" y2="50.0" style="stroke:#999; stroke-width:3;" />
  <line x1="1865" y1="50.0" x2="1865" y2="50.0" style="stroke:#999; stroke-width:3;" />
  <line x1="1865" y1="50.0" x2="1885" y2="50.0" style="stroke:#999; stroke-width:3;" />
  <rect class="anc_exon" x="1885" y="35.0" width="39" height="30" style="fill:#87bcbc;fill-opacity:1.00" />
  <line x1="1924" y1="50.0" x2="1944" y2="50.0" style="stroke:#999; stroke-width:3;" />
  <line x1="1944" y1="50.0" x2="1944" y2="50.0" style="stroke:#999; stroke-width:3;" />
  <line x1="1944" y1="50.0" x2="1944" y2="50.0" style="stroke:#999; stroke-width:3;" />
  <line x1="1944" y1="50.0" x2="1964" y2="50.0" style="stroke:#999; stroke-width:3;" />
  <rect class="anc_exon" x="1964" y="35.0" width="112" height="30" style="fill:#87bcbc;fill-opacity:1.00" />
  <line x1="2076" y1="50.0" x2="2116" y2="50.0" style="stroke:#999; stroke-width:3;" />
  <rect class="anc_exon" x="2116" y="35.0" width="92" height="30" style="fill:#87bcbc;fill-opacity:1.00" />
  <line x1="2208" y1="50.0" x2="2228" y2="50.0" style="stroke:#999; stroke-width:3;" />
  <line x1="2228" y1="50.0" x2="2228" y2="50.0" style="stroke:#999; stroke-width:3;" />
  <line x1="2228" y1="50.0" x2="2228" y2="50.0" style="stroke:#999; stroke-width:3;" />
  <line x1="2228" y1="50.0" x2="2248" y2="50.0" style="stroke:#999; stroke-width:3;" />
  <rect class="anc_exon" x="2248" y="35.0" width="84" height="30" style="fill:#87bcbc;fill-opacity:1.00" />
  <line x1="2332" y1="50.0" x2="2352" y2="50.0" style="stroke:#999; stroke-width:3;" />
  <line x1="2352" y1="50.0" x2="2352" y2="50.0" style="stroke:#999; stroke-width:3;" />
  <line x1="2352" y1="50.0" x2="2352" y2="50.0" style="stroke:#999; stroke-width:3;" />
  <line x1="2352" y1="50.0" x2="2372" y2="50.0" style="stroke:#999; stroke-width:3;" />
  <rect class="anc_exon" x="2372" y="35.0" width="128" height="30" style="fill:#87bcbc;fill-opacity:1.00" />
  <line x1="2500" y1="50.0" x2="2520" y2="50.0" style="stroke:#999; stroke-width:3;" />
  <line x1="2520" y1="50.0" x2="2520" y2="50.0" style="stroke:#999; stroke-width:3;" />
  <line x1="2520" y1="50.0" x2="2520" y2="50.0" style="stroke:#999; stroke-width:3;" />
  <line x1="2520" y1="50.0" x2="2540" y2="50.0" style="stroke:#999; stroke-width:3;" />
  <rect class="anc_exon" x="2540" y="35.0" width="99" height="30" style="fill:#87bcbc;fill-opacity:1.00" />
  <line x1="2639" y1="50.0" x2="2659" y2="50.0" style="stroke:#999; stroke-width:3;" />
  <line x1="2659" y1="50.0" x2="2659" y2="50.0" style="stroke:#999; stroke-width:3;" />
  <line x1="2659" y1="50.0" x2="2659" y2="50.0" style="stroke:#999; stroke-width:3;" />
  <line x1="2659" y1="50.0" x2="2679" y2="50.0" style="stroke:#999; stroke-width:3;" />
  <rect class="anc_exon" x="2679" y="35.0" width="127" height="30" style="fill:#87bcbc;fill-opacity:1.00" />
  <line x1="2806" y1="50.0" x2="2846" y2="50.0" style="stroke:#999; stroke-width:3;" />
  <rect class="anc_exon" x="2846" y="35.0" width="55" height="30" style="fill:#87bcbc;fill-opacity:1.00" />
  <line x1="2901" y1="50.0" x2="2941" y2="50.0" style="stroke:#999; stroke-width:3;" />
  <rect class="anc_exon" x="2941" y="35.0" width="109" height="30" style="fill:#87bcbc;fill-opacity:1.00" />
  <line x1="3050" y1="50.0" x2="3070" y2="50.0" style="stroke:#999; stroke-width:3;" />
  <line x1="3070" y1="50.0" x2="3070" y2="50.0" style="stroke:#999; stroke-width:3;" />
  <line x1="3070" y1="50.0" x2="3070" y2="50.0" style="stroke:#999; stroke-width:3;" />
  <line x1="3070" y1="50.0" x2="3090" y2="50.0" style="stroke:#999; stroke-width:3;" />
  <rect class="anc_exon" x="3090" y="35.0" width="99" height="30" style="fill:#87bcbc;fill-opacity:1.00" />
  <line x1="3189" y1="50.0" x2="3209" y2="50.0" style="stroke:#999; stroke-width:3;" />
  <line x1="3209" y1="50.0" x2="3209" y2="50.0" style="stroke:#999; stroke-width:3;" />
  <line x1="3209" y1="50.0" x2="3209" y2="50.0" style="stroke:#999; stroke-width:3;" />
  <line x1="3209" y1="50.0" x2="3229" y2="50.0" style="stroke:#999; stroke-width:3;" />
  <rect class="anc_exon" x="3229" y="35.0" width="164" height="30" style="fill:#87bcbc;fill-opacity:1.00" />
  <line x1="3393" y1="50.0" x2="3413" y2="50.0" style="stroke:#999; stroke-width:3;" />
  <line x1="3413" y1="50.0" x2="3413" y2="50.0" style="stroke:#999; stroke-width:3;" />
  <line x1="3413" y1="50.0" x2="3413" y2="50.0" style="stroke:#999; stroke-width:3;" />
  <line x1="3413" y1="50.0" x2="3433" y2="50.0" style="stroke:#999; stroke-width:3;" />
  <rect class="anc_exon" x="3433" y="35.0" width="92" height="30" style="fill:#87bcbc;fill-opacity:1.00" />
  <line x1="3525" y1="50.0" x2="3565" y2="50.0" style="stroke:#999; stroke-width:3;" />
  <rect class="anc_exon" x="3565" y="35.0" width="106" height="30" style="fill:#87bcbc;fill-opacity:1.00" />
  <line x1="3671" y1="50.0" x2="3691" y2="50.0" style="stroke:#999; stroke-width:3;" />
  <line x1="3691" y1="50.0" x2="3691" y2="50.0" style="stroke:#999; stroke-width:3;" />
  <line x1="3691" y1="50.0" x2="3691" y2="50.0" style="stroke:#999; stroke-width:3;" />
  <line x1="3691" y1="50.0" x2="3711" y2="50.0" style="stroke:#999; stroke-width:3;" />
  <rect class="anc_exon" x="3711" y="35.0" width="96" height="30" style="fill:#87bcbc;fill-opacity:1.00" />
  <line x1="3807" y1="50.0" x2="3827" y2="50.0" style="stroke:#999; stroke-width:3;" />
  <line x1="3827" y1="50.0" x2="3827" y2="50.0" style="stroke:#999; stroke-width:3;" />
  <line x1="3827" y1="50.0" x2="3827" y2="50.0" style="stroke:#999; stroke-width:3;" />
  <line x1="3827" y1="50.0" x2="3847" y2="50.0" style="stroke:#999; stroke-width:3;" />
  <rect class="anc_exon" x="3847" y="35.0" width="50" height="30" style="fill:#87bcbc;fill-opacity:1.00" />
  <line x1="3897" y1="50.0" x2="3937" y2="50.0" style="stroke:#999; stroke-width:3;" />
  <rect class="anc_exon" x="3937" y="35.0" width="116" height="30" style="fill:#87bcbc;fill-opacity:1.00" />
  <line x1="4053" y1="50.0" x2="4073" y2="50.0" style="stroke:#999; stroke-width:3;" />
  <line x1="4073" y1="50.0" x2="4073" y2="50.0" style="stroke:#999; stroke-width:3;" />
  <line x1="4073" y1="50.0" x2="4073" y2="50.0" style="stroke:#999; stroke-width:3;" />
  <line x1="4073" y1="50.0" x2="4093" y2="50.0" style="stroke:#999; stroke-width:3;" />
  <rect class="anc_exon" x="4093" y="35.0" width="80" height="30" style="fill:#87bcbc;fill-opacity:1.00" />
  <line x1="4173" y1="50.0" x2="4193" y2="50.0" style="stroke:#999; stroke-width:3;" />
  <line x1="4193" y1="50.0" x2="4193" y2="50.0" style="stroke:#999; stroke-width:3;" />
  <line x1="4193" y1="50.0" x2="4193" y2="50.0" style="stroke:#999; stroke-width:3;" />
  <line x1="4193" y1="50.0" x2="4213" y2="50.0" style="stroke:#999; stroke-width:3;" />
  <rect class="anc_exon" x="4213" y="35.0" width="352" height="30" style="fill:#87bcbc;fill-opacity:1.00" />
  <line x1="4565" y1="50.0" x2="4605" y2="50.0" style="stroke:#999; stroke-width:3;" />
  <rect class="anc_exon" x="4605" y="35.0" width="88" height="30" style="fill:#87bcbc;fill-opacity:1.00" />
  <line x1="4693" y1="50.0" x2="4713" y2="50.0" style="stroke:#999; stroke-width:3;" />
  <line x1="4713" y1="50.0" x2="4713" y2="50.0" style="stroke:#999; stroke-width:3;" />
  <line x1="4713" y1="50.0" x2="4713" y2="50.0" style="stroke:#999; stroke-width:3;" />
  <line x1="4713" y1="50.0" x2="4733" y2="50.0" style="stroke:#999; stroke-width:3;" />
  <rect class="anc_exon" x="4733" y="35.0" width="113" height="30" style="fill:#87bcbc;fill-opacity:1.00" />
  <line x1="4846" y1="50.0" x2="4866" y2="50.0" style="stroke:#999; stroke-width:3;" />
  <line x1="4866" y1="50.0" x2="4866" y2="50.0" style="stroke:#999; stroke-width:3;" />
  <line x1="4866" y1="50.0" x2="4866" y2="50.0" style="stroke:#999; stroke-width:3;" />
  <line x1="4866" y1="50.0" x2="4886" y2="50.0" style="stroke:#999; stroke-width:3;" />
  <rect class="anc_exon" x="4886" y="35.0" width="28" height="30" style="fill:#87bcbc;fill-opacity:1.00" />
  <rect class="anc_exon" x="4914" y="35.0" width="0" height="30" style="fill:#87bcbc;fill-opacity:1.00" />
  <text style="" >
<tspan x="0" y="83.0" style="font-size:18px;" >SP XM_031960712_1.1</tspan>  </text>



<script type="text/ecmascript">
<![CDATA[
function draw_bbox(text_id)
{
    var text_elem = document.getElementById(text_id);
    var offset_px = 2;
    var offset_py = 0;
    bbox = text_elem.getBBox();
    var box = document.createElementNS(document.rootElement.namespaceURI,'rect');
    box.setAttribute('x', bbox.x - offset_px);
    box.setAttribute('y', bbox.y - offset_py);
    box.setAttribute('width', bbox.width + offset_px * 2);
    box.setAttribute('height', bbox.height + offset_py * 2);
    box.setAttribute('style','fill: white;'+'stroke: black;'+'stroke-width: 1px;');
    text_elem.insertBefore(box,text_elem.childNodes[0]);

    var svg = text_elem.parentNode;
    svg.appendChild(text_elem);
}

for (var i=1; i < 1; i++)
{
draw_bbox("Mouseover" + i);
}
]]> 
</script>
</svg>
