<svg version="1.1"
xmlns="http://www.w3.org/2000/svg"
xmlns:xlink="http://www.w3.org/1999/xlink"
width="5044" height="100" viewBox = "0 0 5044 100"
onclick="mouseclick(evt)">

<script type="text/ecmascript">

<![CDATA[
    function mouseover(evt, target) { 
    var gv = document.getElementById("globalVariable");
    var previoustarget = gv.firstChild.nodeValue;
    if (previoustarget != "none") 
    {
        	document.getElementById(gv.firstChild.nodeValue).setAttributeNS(null, "visibility", "hidden");
    }
    document.getElementById(target).setAttributeNS(null, "visibility", "visible");
    gv.firstChild.nodeValue = target;
        }

    function mouseclick(evt) { 
    var gv = document.getElementById("globalVariable");
    var previoustarget = gv.firstChild.nodeValue;
    if (previoustarget != "none") {
        	document.getElementById(gv.firstChild.nodeValue).setAttributeNS(null, "visibility", "hidden");
        }
    }
]]>
  </script>
<style type="text/css" >

<![CDATA[
    rect.anc_exon {
              stroke-width:3;
                  }

    rect.non_anc_exon {
              stroke: black; stroke-width:3; stroke-dasharray: 5,5;
                    }

    text {
              font-size: 18px;
              font-family: Courier New;
          }
                    ]]>
</style>

<defs>
    <text x="150" y="40" id="globalVariable">none</text>
</defs>

  <rect class="anc_exon" x="0" y="35.0" width="0" height="30" style="fill:#87bcbc;fill-opacity:1.00" />
  <rect class="anc_exon" x="0" y="35.0" width="173.60000000000002" height="30" style="fill:#87bcbc;fill-opacity:1.00" />
  <line x1="173.60000000000002" y1="50.0" x2="192.60000000000002" y2="50.0" style="stroke:#999; stroke-width:3;" />
  <line x1="192.60000000000002" y1="50.0" x2="192.60000000000002" y2="50.0" style="stroke:#999; stroke-width:3;" />
  <line x1="192.60000000000002" y1="50.0" x2="192.60000000000002" y2="50.0" style="stroke:#999; stroke-width:3;" />
  <line x1="192.60000000000002" y1="50.0" x2="213.0" y2="50.0" style="stroke:#999; stroke-width:3;" />
  <rect class="anc_exon" x="213" y="35.0" width="51" height="30" style="fill:#87bcbc;fill-opacity:1.00" />
  <line x1="264" y1="50.0" x2="284" y2="50.0" style="stroke:#999; stroke-width:3;" />
  <line x1="284" y1="50.0" x2="284" y2="50.0" style="stroke:#999; stroke-width:3;" />
  <line x1="284" y1="50.0" x2="284" y2="50.0" style="stroke:#999; stroke-width:3;" />
  <line x1="284" y1="50.0" x2="304" y2="50.0" style="stroke:#999; stroke-width:3;" />
  <rect class="anc_exon" x="304" y="35.0" width="113" height="30" style="fill:#87bcbc;fill-opacity:1.00" />
  <line x1="417" y1="50.0" x2="457" y2="50.0" style="stroke:#999; stroke-width:3;" />
  <rect class="anc_exon" x="457" y="35.0" width="165" height="30" style="fill:#87bcbc;fill-opacity:1.00" />
  <line x1="622" y1="50.0" x2="662" y2="50.0" style="stroke:#999; stroke-width:3;" />
  <rect class="anc_exon" x="662" y="35.0" width="232" height="30" style="fill:#87bcbc;fill-opacity:1.00" />
  <line x1="894" y1="50.0" x2="914" y2="50.0" style="stroke:#999; stroke-width:3;" />
  <line x1="914" y1="50.0" x2="914" y2="50.0" style="stroke:#999; stroke-width:3;" />
  <line x1="914" y1="50.0" x2="914" y2="50.0" style="stroke:#999; stroke-width:3;" />
  <line x1="914" y1="50.0" x2="934" y2="50.0" style="stroke:#999; stroke-width:3;" />
  <rect class="anc_exon" x="934" y="35.0" width="278" height="30" style="fill:#87bcbc;fill-opacity:1.00" />
  <line x1="1212" y1="50.0" x2="1232" y2="50.0" style="stroke:#999; stroke-width:3;" />
  <line x1="1232" y1="50.0" x2="1232" y2="50.0" style="stroke:#999; stroke-width:3;" />
  <line x1="1232" y1="50.0" x2="1232" y2="50.0" style="stroke:#999; stroke-width:3;" />
  <line x1="1232" y1="50.0" x2="1252" y2="50.0" style="stroke:#999; stroke-width:3;" />
  <rect class="anc_exon" x="1252" y="35.0" width="106" height="30" style="fill:#87bcbc;fill-opacity:1.00" />
  <line x1="1358" y1="50.0" x2="1378" y2="50.0" style="stroke:#999; stroke-width:3;" />
  <line x1="1378" y1="50.0" x2="1378" y2="50.0" style="stroke:#999; stroke-width:3;" />
  <line x1="1378" y1="50.0" x2="1378" y2="50.0" style="stroke:#999; stroke-width:3;" />
  <line x1="1378" y1="50.0" x2="1398" y2="50.0" style="stroke:#999; stroke-width:3;" />
  <rect class="anc_exon" x="1398" y="35.0" width="191" height="30" style="fill:#87bcbc;fill-opacity:1.00" />
  <line x1="1589" y1="50.0" x2="1609" y2="50.0" style="stroke:#999; stroke-width:3;" />
  <line x1="1609" y1="50.0" x2="1609" y2="50.0" style="stroke:#999; stroke-width:3;" />
  <line x1="1609" y1="50.0" x2="1609" y2="50.0" style="stroke:#999; stroke-width:3;" />
  <line x1="1609" y1="50.0" x2="1629" y2="50.0" style="stroke:#999; stroke-width:3;" />
  <rect class="anc_exon" x="1629" y="35.0" width="139" height="30" style="fill:#87bcbc;fill-opacity:1.00" />
  <line x1="1768" y1="50.0" x2="1788" y2="50.0" style="stroke:#999; stroke-width:3;" />
  <line x1="1788" y1="50.0" x2="1788" y2="50.0" style="stroke:#999; stroke-width:3;" />
  <line x1="1788" y1="50.0" x2="1788" y2="50.0" style="stroke:#999; stroke-width:3;" />
  <line x1="1788" y1="50.0" x2="1808" y2="50.0" style="stroke:#999; stroke-width:3;" />
  <rect class="anc_exon" x="1808" y="35.0" width="285" height="30" style="fill:#87bcbc;fill-opacity:1.00" />
  <line x1="2093" y1="50.0" x2="2133" y2="50.0" style="stroke:#999; stroke-width:3;" />
  <rect class="anc_exon" x="2133" y="35.0" width="384" height="30" style="fill:#87bcbc;fill-opacity:1.00" />
  <line x1="2517" y1="50.0" x2="2537" y2="50.0" style="stroke:#999; stroke-width:3;" />
  <line x1="2537" y1="50.0" x2="2537" y2="50.0" style="stroke:#999; stroke-width:3;" />
  <line x1="2537" y1="50.0" x2="2537" y2="50.0" style="stroke:#999; stroke-width:3;" />
  <line x1="2537" y1="50.0" x2="2557" y2="50.0" style="stroke:#999; stroke-width:3;" />
  <rect class="anc_exon" x="2557" y="35.0" width="96" height="30" style="fill:#87bcbc;fill-opacity:1.00" />
  <line x1="2653" y1="50.0" x2="2673" y2="50.0" style="stroke:#999; stroke-width:3;" />
  <line x1="2673" y1="50.0" x2="2673" y2="50.0" style="stroke:#999; stroke-width:3;" />
  <line x1="2673" y1="50.0" x2="2673" y2="50.0" style="stroke:#999; stroke-width:3;" />
  <line x1="2673" y1="50.0" x2="2693" y2="50.0" style="stroke:#999; stroke-width:3;" />
  <rect class="anc_exon" x="2693" y="35.0" width="124" height="30" style="fill:#87bcbc;fill-opacity:1.00" />
  <line x1="2817" y1="50.0" x2="2837" y2="50.0" style="stroke:#999; stroke-width:3;" />
  <line x1="2837" y1="50.0" x2="2837" y2="50.0" style="stroke:#999; stroke-width:3;" />
  <line x1="2837" y1="50.0" x2="2837" y2="50.0" style="stroke:#999; stroke-width:3;" />
  <line x1="2837" y1="50.0" x2="2857" y2="50.0" style="stroke:#999; stroke-width:3;" />
  <rect class="anc_exon" x="2857" y="35.0" width="139" height="30" style="fill:#87bcbc;fill-opacity:1.00" />
  <line x1="2996" y1="50.0" x2="3016" y2="50.0" style="stroke:#999; stroke-width:3;" />
  <line x1="3016" y1="50.0" x2="3016" y2="50.0" style="stroke:#999; stroke-width:3;" />
  <line x1="3016" y1="50.0" x2="3016" y2="50.0" style="stroke:#999; stroke-width:3;" />
  <line x1="3016" y1="50.0" x2="3036" y2="50.0" style="stroke:#999; stroke-width:3;" />
  <rect class="anc_exon" x="3036" y="35.0" width="98" height="30" style="fill:#87bcbc;fill-opacity:1.00" />
  <line x1="3134" y1="50.0" x2="3154" y2="50.0" style="stroke:#999; stroke-width:3;" />
  <line x1="3154" y1="50.0" x2="3154" y2="50.0" style="stroke:#999; stroke-width:3;" />
  <line x1="3154" y1="50.0" x2="3154" y2="50.0" style="stroke:#999; stroke-width:3;" />
  <line x1="3154" y1="50.0" x2="3174" y2="50.0" style="stroke:#999; stroke-width:3;" />
  <rect class="anc_exon" x="3174" y="35.0" width="225" height="30" style="fill:#87bcbc;fill-opacity:1.00" />
  <line x1="3399" y1="50.0" x2="3439" y2="50.0" style="stroke:#999; stroke-width:3;" />
  <rect class="anc_exon" x="3439" y="35.0" width="43" height="30" style="fill:#87bcbc;fill-opacity:1.00" />
  <line x1="3482" y1="50.0" x2="3502" y2="50.0" style="stroke:#999; stroke-width:3;" />
  <line x1="3502" y1="50.0" x2="3502" y2="50.0" style="stroke:#999; stroke-width:3;" />
  <line x1="3502" y1="50.0" x2="3502" y2="50.0" style="stroke:#999; stroke-width:3;" />
  <line x1="3502" y1="50.0" x2="3522" y2="50.0" style="stroke:#999; stroke-width:3;" />
  <rect class="anc_exon" x="3522" y="35.0" width="110" height="30" style="fill:#87bcbc;fill-opacity:1.00" />
  <line x1="3632" y1="50.0" x2="3672" y2="50.0" style="stroke:#999; stroke-width:3;" />
  <rect class="anc_exon" x="3672" y="35.0" width="84" height="30" style="fill:#87bcbc;fill-opacity:1.00" />
  <line x1="3756" y1="50.0" x2="3776" y2="50.0" style="stroke:#999; stroke-width:3;" />
  <line x1="3776" y1="50.0" x2="3776" y2="50.0" style="stroke:#999; stroke-width:3;" />
  <line x1="3776" y1="50.0" x2="3776" y2="50.0" style="stroke:#999; stroke-width:3;" />
  <line x1="3776" y1="50.0" x2="3796" y2="50.0" style="stroke:#999; stroke-width:3;" />
  <rect class="anc_exon" x="3796" y="35.0" width="216" height="30" style="fill:#87bcbc;fill-opacity:1.00" />
  <line x1="4012" y1="50.0" x2="4052" y2="50.0" style="stroke:#999; stroke-width:3;" />
  <rect class="anc_exon" x="4052" y="35.0" width="956" height="30" style="fill:#878787;fill-opacity:1.00" />
  <rect class="anc_exon" x="5008" y="35.0" width="0" height="30" style="fill:#87bcbc;fill-opacity:1.00" />
  <text style="" >
<tspan x="0" y="83.0" style="font-size:18px;" >SP XM_031960553_1.1</tspan>  </text>
  <text style="fill:#121212;" >
<tspan x="3632" y="50.0" style="font-size:18px;fill:#121212;" >at</tspan>  </text>
  <text style="fill:#121212;" >
<tspan x="3648.96" y="68.0" style="font-size:18px;fill:#121212;" >ac</tspan>  </text>



<script type="text/ecmascript">
<![CDATA[
function draw_bbox(text_id)
{
    var text_elem = document.getElementById(text_id);
    var offset_px = 2;
    var offset_py = 0;
    bbox = text_elem.getBBox();
    var box = document.createElementNS(document.rootElement.namespaceURI,'rect');
    box.setAttribute('x', bbox.x - offset_px);
    box.setAttribute('y', bbox.y - offset_py);
    box.setAttribute('width', bbox.width + offset_px * 2);
    box.setAttribute('height', bbox.height + offset_py * 2);
    box.setAttribute('style','fill: white;'+'stroke: black;'+'stroke-width: 1px;');
    text_elem.insertBefore(box,text_elem.childNodes[0]);

    var svg = text_elem.parentNode;
    svg.appendChild(text_elem);
}

for (var i=1; i < 1; i++)
{
draw_bbox("Mouseover" + i);
}
]]> 
</script>
</svg>
