<svg version="1.1"
xmlns="http://www.w3.org/2000/svg"
xmlns:xlink="http://www.w3.org/1999/xlink"
width="3039" height="100" viewBox = "0 0 3039 100"
onclick="mouseclick(evt)">

<script type="text/ecmascript">

<![CDATA[
    function mouseover(evt, target) { 
    var gv = document.getElementById("globalVariable");
    var previoustarget = gv.firstChild.nodeValue;
    if (previoustarget != "none") 
    {
        	document.getElementById(gv.firstChild.nodeValue).setAttributeNS(null, "visibility", "hidden");
    }
    document.getElementById(target).setAttributeNS(null, "visibility", "visible");
    gv.firstChild.nodeValue = target;
        }

    function mouseclick(evt) { 
    var gv = document.getElementById("globalVariable");
    var previoustarget = gv.firstChild.nodeValue;
    if (previoustarget != "none") {
        	document.getElementById(gv.firstChild.nodeValue).setAttributeNS(null, "visibility", "hidden");
        }
    }
]]>
  </script>
<style type="text/css" >

<![CDATA[
    rect.anc_exon {
              stroke-width:3;
                  }

    rect.non_anc_exon {
              stroke: black; stroke-width:3; stroke-dasharray: 5,5;
                    }

    text {
              font-size: 18px;
              font-family: Courier New;
          }
                    ]]>
</style>

<defs>
    <text x="150" y="40" id="globalVariable">none</text>
</defs>

  <rect class="anc_exon" x="0" y="35.0" width="0" height="30" style="fill:#87bcbc;fill-opacity:1.00" />
  <rect class="anc_exon" x="0" y="35.0" width="80.80000000000001" height="30" style="fill:#87bcbc;fill-opacity:1.00" />
  <line x1="80.80000000000001" y1="50.0" x2="99.80000000000001" y2="50.0" style="stroke:#999; stroke-width:3;" />
  <line x1="99.80000000000001" y1="50.0" x2="99.80000000000001" y2="50.0" style="stroke:#999; stroke-width:3;" />
  <line x1="99.80000000000001" y1="50.0" x2="99.80000000000001" y2="50.0" style="stroke:#999; stroke-width:3;" />
  <line x1="99.80000000000001" y1="50.0" x2="120.0" y2="50.0" style="stroke:#999; stroke-width:3;" />
  <rect class="anc_exon" x="120" y="35.0" width="121" height="30" style="fill:#87bcbc;fill-opacity:1.00" />
  <line x1="241" y1="50.0" x2="261" y2="50.0" style="stroke:#999; stroke-width:3;" />
  <line x1="261" y1="50.0" x2="261" y2="50.0" style="stroke:#999; stroke-width:3;" />
  <line x1="261" y1="50.0" x2="261" y2="50.0" style="stroke:#999; stroke-width:3;" />
  <line x1="261" y1="50.0" x2="281" y2="50.0" style="stroke:#999; stroke-width:3;" />
  <rect class="anc_exon" x="281" y="35.0" width="111" height="30" style="fill:#87bcbc;fill-opacity:1.00" />
  <line x1="392" y1="50.0" x2="412" y2="50.0" style="stroke:#999; stroke-width:3;" />
  <line x1="412" y1="50.0" x2="412" y2="50.0" style="stroke:#999; stroke-width:3;" />
  <line x1="412" y1="50.0" x2="412" y2="50.0" style="stroke:#999; stroke-width:3;" />
  <line x1="412" y1="50.0" x2="432" y2="50.0" style="stroke:#999; stroke-width:3;" />
  <rect class="anc_exon" x="432" y="35.0" width="65" height="30" style="fill:#87bcbc;fill-opacity:1.00" />
  <line x1="497" y1="50.0" x2="537" y2="50.0" style="stroke:#999; stroke-width:3;" />
  <rect class="anc_exon" x="537" y="35.0" width="92" height="30" style="fill:#87bcbc;fill-opacity:1.00" />
  <line x1="629" y1="50.0" x2="649" y2="50.0" style="stroke:#999; stroke-width:3;" />
  <line x1="649" y1="50.0" x2="649" y2="50.0" style="stroke:#999; stroke-width:3;" />
  <line x1="649" y1="50.0" x2="649" y2="50.0" style="stroke:#999; stroke-width:3;" />
  <line x1="649" y1="50.0" x2="669" y2="50.0" style="stroke:#999; stroke-width:3;" />
  <rect class="anc_exon" x="669" y="35.0" width="643" height="30" style="fill:#87bcbc;fill-opacity:1.00" />
  <line x1="1312" y1="50.0" x2="1332" y2="50.0" style="stroke:#999; stroke-width:3;" />
  <line x1="1332" y1="50.0" x2="1332" y2="50.0" style="stroke:#999; stroke-width:3;" />
  <line x1="1332" y1="50.0" x2="1332" y2="50.0" style="stroke:#999; stroke-width:3;" />
  <line x1="1332" y1="50.0" x2="1352" y2="50.0" style="stroke:#999; stroke-width:3;" />
  <rect class="anc_exon" x="1352" y="35.0" width="60" height="30" style="fill:#87bcbc;fill-opacity:1.00" />
  <line x1="1412" y1="50.0" x2="1432" y2="50.0" style="stroke:#999; stroke-width:3;" />
  <line x1="1432" y1="50.0" x2="1432" y2="50.0" style="stroke:#999; stroke-width:3;" />
  <line x1="1432" y1="50.0" x2="1432" y2="50.0" style="stroke:#999; stroke-width:3;" />
  <line x1="1432" y1="50.0" x2="1452" y2="50.0" style="stroke:#999; stroke-width:3;" />
  <rect class="anc_exon" x="1452" y="35.0" width="81" height="30" style="fill:#87bcbc;fill-opacity:1.00" />
  <line x1="1533" y1="50.0" x2="1573" y2="50.0" style="stroke:#999; stroke-width:3;" />
  <rect class="anc_exon" x="1573" y="35.0" width="43" height="30" style="fill:#87bcbc;fill-opacity:1.00" />
  <line x1="1616" y1="50.0" x2="1656" y2="50.0" style="stroke:#999; stroke-width:3;" />
  <rect class="anc_exon" x="1656" y="35.0" width="38" height="30" style="fill:#87bcbc;fill-opacity:1.00" />
  <line x1="1694" y1="50.0" x2="1714" y2="50.0" style="stroke:#999; stroke-width:3;" />
  <line x1="1714" y1="50.0" x2="1714" y2="50.0" style="stroke:#999; stroke-width:3;" />
  <line x1="1714" y1="50.0" x2="1714" y2="50.0" style="stroke:#999; stroke-width:3;" />
  <line x1="1714" y1="50.0" x2="1734" y2="50.0" style="stroke:#999; stroke-width:3;" />
  <rect class="anc_exon" x="1734" y="35.0" width="76" height="30" style="fill:#87bcbc;fill-opacity:1.00" />
  <line x1="1810" y1="50.0" x2="1830" y2="50.0" style="stroke:#999; stroke-width:3;" />
  <line x1="1830" y1="50.0" x2="1830" y2="50.0" style="stroke:#999; stroke-width:3;" />
  <line x1="1830" y1="50.0" x2="1830" y2="50.0" style="stroke:#999; stroke-width:3;" />
  <line x1="1830" y1="50.0" x2="1850" y2="50.0" style="stroke:#999; stroke-width:3;" />
  <rect class="anc_exon" x="1850" y="35.0" width="96" height="30" style="fill:#87bcbc;fill-opacity:1.00" />
  <line x1="1946" y1="50.0" x2="1986" y2="50.0" style="stroke:#999; stroke-width:3;" />
  <rect class="anc_exon" x="1986" y="35.0" width="136" height="30" style="fill:#87bcbc;fill-opacity:1.00" />
  <line x1="2122" y1="50.0" x2="2142" y2="50.0" style="stroke:#999; stroke-width:3;" />
  <line x1="2142" y1="50.0" x2="2142" y2="50.0" style="stroke:#999; stroke-width:3;" />
  <line x1="2142" y1="50.0" x2="2142" y2="50.0" style="stroke:#999; stroke-width:3;" />
  <line x1="2142" y1="50.0" x2="2162" y2="50.0" style="stroke:#999; stroke-width:3;" />
  <rect class="anc_exon" x="2162" y="35.0" width="82" height="30" style="fill:#87bcbc;fill-opacity:1.00" />
  <line x1="2244" y1="50.0" x2="2264" y2="50.0" style="stroke:#999; stroke-width:3;" />
  <line x1="2264" y1="50.0" x2="2264" y2="50.0" style="stroke:#999; stroke-width:3;" />
  <line x1="2264" y1="50.0" x2="2264" y2="50.0" style="stroke:#999; stroke-width:3;" />
  <line x1="2264" y1="50.0" x2="2284" y2="50.0" style="stroke:#999; stroke-width:3;" />
  <rect class="anc_exon" x="2284" y="35.0" width="136" height="30" style="fill:#87bcbc;fill-opacity:1.00" />
  <line x1="2420" y1="50.0" x2="2440" y2="50.0" style="stroke:#999; stroke-width:3;" />
  <line x1="2440" y1="50.0" x2="2440" y2="50.0" style="stroke:#999; stroke-width:3;" />
  <line x1="2440" y1="50.0" x2="2440" y2="50.0" style="stroke:#999; stroke-width:3;" />
  <line x1="2440" y1="50.0" x2="2460" y2="50.0" style="stroke:#999; stroke-width:3;" />
  <rect class="anc_exon" x="2460" y="35.0" width="63" height="30" style="fill:#87bcbc;fill-opacity:1.00" />
  <line x1="2523" y1="50.0" x2="2543" y2="50.0" style="stroke:#999; stroke-width:3;" />
  <line x1="2543" y1="50.0" x2="2543" y2="50.0" style="stroke:#999; stroke-width:3;" />
  <line x1="2543" y1="50.0" x2="2543" y2="50.0" style="stroke:#999; stroke-width:3;" />
  <line x1="2543" y1="50.0" x2="2563" y2="50.0" style="stroke:#999; stroke-width:3;" />
  <rect class="anc_exon" x="2563" y="35.0" width="80" height="30" style="fill:#87bcbc;fill-opacity:1.00" />
  <line x1="2643" y1="50.0" x2="2683" y2="50.0" style="stroke:#999; stroke-width:3;" />
  <rect class="anc_exon" x="2683" y="35.0" width="164" height="30" style="fill:#87bcbc;fill-opacity:1.00" />
  <line x1="2847" y1="50.0" x2="2867" y2="50.0" style="stroke:#999; stroke-width:3;" />
  <line x1="2867" y1="50.0" x2="2867" y2="50.0" style="stroke:#999; stroke-width:3;" />
  <line x1="2867" y1="50.0" x2="2867" y2="50.0" style="stroke:#999; stroke-width:3;" />
  <line x1="2867" y1="50.0" x2="2887" y2="50.0" style="stroke:#999; stroke-width:3;" />
  <rect class="anc_exon" x="2887" y="35.0" width="116" height="30" style="fill:#87bcbc;fill-opacity:1.00" />
  <rect class="anc_exon" x="3003" y="35.0" width="0" height="30" style="fill:#87bcbc;fill-opacity:1.00" />
  <text style="" >
<tspan x="0" y="83.0" style="font-size:18px;" >SP XM_031961867_1.1</tspan>  </text>



<script type="text/ecmascript">
<![CDATA[
function draw_bbox(text_id)
{
    var text_elem = document.getElementById(text_id);
    var offset_px = 2;
    var offset_py = 0;
    bbox = text_elem.getBBox();
    var box = document.createElementNS(document.rootElement.namespaceURI,'rect');
    box.setAttribute('x', bbox.x - offset_px);
    box.setAttribute('y', bbox.y - offset_py);
    box.setAttribute('width', bbox.width + offset_px * 2);
    box.setAttribute('height', bbox.height + offset_py * 2);
    box.setAttribute('style','fill: white;'+'stroke: black;'+'stroke-width: 1px;');
    text_elem.insertBefore(box,text_elem.childNodes[0]);

    var svg = text_elem.parentNode;
    svg.appendChild(text_elem);
}

for (var i=1; i < 1; i++)
{
draw_bbox("Mouseover" + i);
}
]]> 
</script>
</svg>
