<svg version="1.1"
xmlns="http://www.w3.org/2000/svg"
xmlns:xlink="http://www.w3.org/1999/xlink"
width="5627" height="100" viewBox = "0 0 5627 100"
onclick="mouseclick(evt)">

<script type="text/ecmascript">

<![CDATA[
    function mouseover(evt, target) { 
    var gv = document.getElementById("globalVariable");
    var previoustarget = gv.firstChild.nodeValue;
    if (previoustarget != "none") 
    {
        	document.getElementById(gv.firstChild.nodeValue).setAttributeNS(null, "visibility", "hidden");
    }
    document.getElementById(target).setAttributeNS(null, "visibility", "visible");
    gv.firstChild.nodeValue = target;
        }

    function mouseclick(evt) { 
    var gv = document.getElementById("globalVariable");
    var previoustarget = gv.firstChild.nodeValue;
    if (previoustarget != "none") {
        	document.getElementById(gv.firstChild.nodeValue).setAttributeNS(null, "visibility", "hidden");
        }
    }
]]>
  </script>
<style type="text/css" >

<![CDATA[
    rect.anc_exon {
              stroke-width:3;
                  }

    rect.non_anc_exon {
              stroke: black; stroke-width:3; stroke-dasharray: 5,5;
                    }

    text {
              font-size: 18px;
              font-family: Courier New;
          }
                    ]]>
</style>

<defs>
    <text x="150" y="40" id="globalVariable">none</text>
</defs>

  <rect class="anc_exon" x="0" y="35.0" width="0" height="30" style="fill:#87bcbc;fill-opacity:1.00" />
  <rect class="anc_exon" x="0" y="35.0" width="94.4" height="30" style="fill:#87bcbc;fill-opacity:1.00" />
  <line x1="94.4" y1="50.0" x2="113.4" y2="50.0" style="stroke:#999; stroke-width:3;" />
  <line x1="113.4" y1="50.0" x2="113.4" y2="50.0" style="stroke:#999; stroke-width:3;" />
  <line x1="113.4" y1="50.0" x2="113.4" y2="50.0" style="stroke:#999; stroke-width:3;" />
  <line x1="113.4" y1="50.0" x2="134.0" y2="50.0" style="stroke:#999; stroke-width:3;" />
  <rect class="anc_exon" x="134" y="35.0" width="125" height="30" style="fill:#87bcbc;fill-opacity:1.00" />
  <line x1="259" y1="50.0" x2="279" y2="50.0" style="stroke:#999; stroke-width:3;" />
  <line x1="279" y1="50.0" x2="279" y2="50.0" style="stroke:#999; stroke-width:3;" />
  <line x1="279" y1="50.0" x2="279" y2="50.0" style="stroke:#999; stroke-width:3;" />
  <line x1="279" y1="50.0" x2="299" y2="50.0" style="stroke:#999; stroke-width:3;" />
  <rect class="anc_exon" x="299" y="35.0" width="130" height="30" style="fill:#87bcbc;fill-opacity:1.00" />
  <line x1="429" y1="50.0" x2="449" y2="50.0" style="stroke:#999; stroke-width:3;" />
  <line x1="449" y1="50.0" x2="449" y2="50.0" style="stroke:#999; stroke-width:3;" />
  <line x1="449" y1="50.0" x2="449" y2="50.0" style="stroke:#999; stroke-width:3;" />
  <line x1="449" y1="50.0" x2="469" y2="50.0" style="stroke:#999; stroke-width:3;" />
  <rect class="anc_exon" x="469" y="35.0" width="82" height="30" style="fill:#87bcbc;fill-opacity:1.00" />
  <line x1="551" y1="50.0" x2="591" y2="50.0" style="stroke:#999; stroke-width:3;" />
  <rect class="anc_exon" x="591" y="35.0" width="173" height="30" style="fill:#87bcbc;fill-opacity:1.00" />
  <line x1="764" y1="50.0" x2="784" y2="50.0" style="stroke:#999; stroke-width:3;" />
  <line x1="784" y1="50.0" x2="784" y2="50.0" style="stroke:#999; stroke-width:3;" />
  <line x1="784" y1="50.0" x2="784" y2="50.0" style="stroke:#999; stroke-width:3;" />
  <line x1="784" y1="50.0" x2="804" y2="50.0" style="stroke:#999; stroke-width:3;" />
  <rect class="anc_exon" x="804" y="35.0" width="92" height="30" style="fill:#87bcbc;fill-opacity:1.00" />
  <line x1="896" y1="50.0" x2="916" y2="50.0" style="stroke:#999; stroke-width:3;" />
  <line x1="916" y1="50.0" x2="916" y2="50.0" style="stroke:#999; stroke-width:3;" />
  <line x1="916" y1="50.0" x2="916" y2="50.0" style="stroke:#999; stroke-width:3;" />
  <line x1="916" y1="50.0" x2="936" y2="50.0" style="stroke:#999; stroke-width:3;" />
  <rect class="anc_exon" x="936" y="35.0" width="132" height="30" style="fill:#87bcbc;fill-opacity:1.00" />
  <line x1="1068" y1="50.0" x2="1088" y2="50.0" style="stroke:#999; stroke-width:3;" />
  <line x1="1088" y1="50.0" x2="1088" y2="50.0" style="stroke:#999; stroke-width:3;" />
  <line x1="1088" y1="50.0" x2="1088" y2="50.0" style="stroke:#999; stroke-width:3;" />
  <line x1="1088" y1="50.0" x2="1108" y2="50.0" style="stroke:#999; stroke-width:3;" />
  <rect class="anc_exon" x="1108" y="35.0" width="124" height="30" style="fill:#87bcbc;fill-opacity:1.00" />
  <line x1="1232" y1="50.0" x2="1272" y2="50.0" style="stroke:#999; stroke-width:3;" />
  <rect class="anc_exon" x="1272" y="35.0" width="38" height="30" style="fill:#87bcbc;fill-opacity:1.00" />
  <line x1="1310" y1="50.0" x2="1350" y2="50.0" style="stroke:#999; stroke-width:3;" />
  <rect class="anc_exon" x="1350" y="35.0" width="80" height="30" style="fill:#87bcbc;fill-opacity:1.00" />
  <line x1="1430" y1="50.0" x2="1470" y2="50.0" style="stroke:#999; stroke-width:3;" />
  <rect class="anc_exon" x="1470" y="35.0" width="76" height="30" style="fill:#878787;fill-opacity:1.00" />
  <line x1="1546" y1="50.0" x2="1586" y2="50.0" style="stroke:#999; stroke-width:3;" />
  <rect class="anc_exon" x="1586" y="35.0" width="168" height="30" style="fill:#87bcbc;fill-opacity:1.00" />
  <line x1="1754" y1="50.0" x2="1794" y2="50.0" style="stroke:#999; stroke-width:3;" />
  <rect class="anc_exon" x="1794" y="35.0" width="88" height="30" style="fill:#87bcbc;fill-opacity:1.00" />
  <line x1="1882" y1="50.0" x2="1902" y2="50.0" style="stroke:#999; stroke-width:3;" />
  <line x1="1902" y1="50.0" x2="1902" y2="50.0" style="stroke:#999; stroke-width:3;" />
  <line x1="1902" y1="50.0" x2="1902" y2="50.0" style="stroke:#999; stroke-width:3;" />
  <line x1="1902" y1="50.0" x2="1922" y2="50.0" style="stroke:#999; stroke-width:3;" />
  <rect class="anc_exon" x="1922" y="35.0" width="122" height="30" style="fill:#87bcbc;fill-opacity:1.00" />
  <line x1="2044" y1="50.0" x2="2064" y2="50.0" style="stroke:#999; stroke-width:3;" />
  <line x1="2064" y1="50.0" x2="2064" y2="50.0" style="stroke:#999; stroke-width:3;" />
  <line x1="2064" y1="50.0" x2="2064" y2="50.0" style="stroke:#999; stroke-width:3;" />
  <line x1="2064" y1="50.0" x2="2084" y2="50.0" style="stroke:#999; stroke-width:3;" />
  <rect class="anc_exon" x="2084" y="35.0" width="206" height="30" style="fill:#87bcbc;fill-opacity:1.00" />
  <line x1="2290" y1="50.0" x2="2310" y2="50.0" style="stroke:#999; stroke-width:3;" />
  <line x1="2310" y1="50.0" x2="2310" y2="50.0" style="stroke:#999; stroke-width:3;" />
  <line x1="2310" y1="50.0" x2="2310" y2="50.0" style="stroke:#999; stroke-width:3;" />
  <line x1="2310" y1="50.0" x2="2330" y2="50.0" style="stroke:#999; stroke-width:3;" />
  <rect class="anc_exon" x="2330" y="35.0" width="114" height="30" style="fill:#87bcbc;fill-opacity:1.00" />
  <line x1="2444" y1="50.0" x2="2464" y2="50.0" style="stroke:#999; stroke-width:3;" />
  <line x1="2464" y1="50.0" x2="2464" y2="50.0" style="stroke:#999; stroke-width:3;" />
  <line x1="2464" y1="50.0" x2="2464" y2="50.0" style="stroke:#999; stroke-width:3;" />
  <line x1="2464" y1="50.0" x2="2484" y2="50.0" style="stroke:#999; stroke-width:3;" />
  <rect class="anc_exon" x="2484" y="35.0" width="216" height="30" style="fill:#87bcbc;fill-opacity:1.00" />
  <line x1="2700" y1="50.0" x2="2740" y2="50.0" style="stroke:#999; stroke-width:3;" />
  <rect class="anc_exon" x="2740" y="35.0" width="44" height="30" style="fill:#87bcbc;fill-opacity:1.00" />
  <line x1="2784" y1="50.0" x2="2824" y2="50.0" style="stroke:#999; stroke-width:3;" />
  <rect class="anc_exon" x="2824" y="35.0" width="130" height="30" style="fill:#87bcbc;fill-opacity:1.00" />
  <line x1="2954" y1="50.0" x2="2994" y2="50.0" style="stroke:#999; stroke-width:3;" />
  <rect class="anc_exon" x="2994" y="35.0" width="104" height="30" style="fill:#87bcbc;fill-opacity:1.00" />
  <line x1="3098" y1="50.0" x2="3118" y2="50.0" style="stroke:#999; stroke-width:3;" />
  <line x1="3118" y1="50.0" x2="3118" y2="50.0" style="stroke:#999; stroke-width:3;" />
  <line x1="3118" y1="50.0" x2="3118" y2="50.0" style="stroke:#999; stroke-width:3;" />
  <line x1="3118" y1="50.0" x2="3138" y2="50.0" style="stroke:#999; stroke-width:3;" />
  <rect class="anc_exon" x="3138" y="35.0" width="160" height="30" style="fill:#87bcbc;fill-opacity:1.00" />
  <line x1="3298" y1="50.0" x2="3318" y2="50.0" style="stroke:#999; stroke-width:3;" />
  <line x1="3318" y1="50.0" x2="3318" y2="50.0" style="stroke:#999; stroke-width:3;" />
  <line x1="3318" y1="50.0" x2="3318" y2="50.0" style="stroke:#999; stroke-width:3;" />
  <line x1="3318" y1="50.0" x2="3338" y2="50.0" style="stroke:#999; stroke-width:3;" />
  <rect class="anc_exon" x="3338" y="35.0" width="140" height="30" style="fill:#87bcbc;fill-opacity:1.00" />
  <line x1="3478" y1="50.0" x2="3518" y2="50.0" style="stroke:#999; stroke-width:3;" />
  <rect class="anc_exon" x="3518" y="35.0" width="142" height="30" style="fill:#87bcbc;fill-opacity:1.00" />
  <line x1="3660" y1="50.0" x2="3680" y2="50.0" style="stroke:#999; stroke-width:3;" />
  <line x1="3680" y1="50.0" x2="3680" y2="50.0" style="stroke:#999; stroke-width:3;" />
  <line x1="3680" y1="50.0" x2="3680" y2="50.0" style="stroke:#999; stroke-width:3;" />
  <line x1="3680" y1="50.0" x2="3700" y2="50.0" style="stroke:#999; stroke-width:3;" />
  <rect class="anc_exon" x="3700" y="35.0" width="398" height="30" style="fill:#87bcbc;fill-opacity:1.00" />
  <line x1="4098" y1="50.0" x2="4118" y2="50.0" style="stroke:#999; stroke-width:3;" />
  <line x1="4118" y1="50.0" x2="4118" y2="50.0" style="stroke:#999; stroke-width:3;" />
  <line x1="4118" y1="50.0" x2="4118" y2="50.0" style="stroke:#999; stroke-width:3;" />
  <line x1="4118" y1="50.0" x2="4138" y2="50.0" style="stroke:#999; stroke-width:3;" />
  <rect class="anc_exon" x="4138" y="35.0" width="163" height="30" style="fill:#87bcbc;fill-opacity:1.00" />
  <line x1="4301" y1="50.0" x2="4321" y2="50.0" style="stroke:#999; stroke-width:3;" />
  <line x1="4321" y1="50.0" x2="4321" y2="50.0" style="stroke:#999; stroke-width:3;" />
  <line x1="4321" y1="50.0" x2="4321" y2="50.0" style="stroke:#999; stroke-width:3;" />
  <line x1="4321" y1="50.0" x2="4341" y2="50.0" style="stroke:#999; stroke-width:3;" />
  <rect class="anc_exon" x="4341" y="35.0" width="156" height="30" style="fill:#87bcbc;fill-opacity:1.00" />
  <line x1="4497" y1="50.0" x2="4517" y2="50.0" style="stroke:#999; stroke-width:3;" />
  <line x1="4517" y1="50.0" x2="4517" y2="50.0" style="stroke:#999; stroke-width:3;" />
  <line x1="4517" y1="50.0" x2="4517" y2="50.0" style="stroke:#999; stroke-width:3;" />
  <line x1="4517" y1="50.0" x2="4537" y2="50.0" style="stroke:#999; stroke-width:3;" />
  <rect class="anc_exon" x="4537" y="35.0" width="88" height="30" style="fill:#87bcbc;fill-opacity:1.00" />
  <line x1="4625" y1="50.0" x2="4665" y2="50.0" style="stroke:#999; stroke-width:3;" />
  <rect class="anc_exon" x="4665" y="35.0" width="104" height="30" style="fill:#87bcbc;fill-opacity:1.00" />
  <line x1="4769" y1="50.0" x2="4809" y2="50.0" style="stroke:#999; stroke-width:3;" />
  <rect class="anc_exon" x="4809" y="35.0" width="93" height="30" style="fill:#87bcbc;fill-opacity:1.00" />
  <line x1="4902" y1="50.0" x2="4922" y2="50.0" style="stroke:#999; stroke-width:3;" />
  <line x1="4922" y1="50.0" x2="4922" y2="50.0" style="stroke:#999; stroke-width:3;" />
  <line x1="4922" y1="50.0" x2="4922" y2="50.0" style="stroke:#999; stroke-width:3;" />
  <line x1="4922" y1="50.0" x2="4942" y2="50.0" style="stroke:#999; stroke-width:3;" />
  <rect class="anc_exon" x="4942" y="35.0" width="161" height="30" style="fill:#87bcbc;fill-opacity:1.00" />
  <line x1="5103" y1="50.0" x2="5123" y2="50.0" style="stroke:#999; stroke-width:3;" />
  <line x1="5123" y1="50.0" x2="5123" y2="50.0" style="stroke:#999; stroke-width:3;" />
  <line x1="5123" y1="50.0" x2="5123" y2="50.0" style="stroke:#999; stroke-width:3;" />
  <line x1="5123" y1="50.0" x2="5143" y2="50.0" style="stroke:#999; stroke-width:3;" />
  <rect class="anc_exon" x="5143" y="35.0" width="128" height="30" style="fill:#87bcbc;fill-opacity:1.00" />
  <line x1="5271" y1="50.0" x2="5291" y2="50.0" style="stroke:#999; stroke-width:3;" />
  <line x1="5291" y1="50.0" x2="5291" y2="50.0" style="stroke:#999; stroke-width:3;" />
  <line x1="5291" y1="50.0" x2="5291" y2="50.0" style="stroke:#999; stroke-width:3;" />
  <line x1="5291" y1="50.0" x2="5311" y2="50.0" style="stroke:#999; stroke-width:3;" />
  <rect class="anc_exon" x="5311" y="35.0" width="108" height="30" style="fill:#87bcbc;fill-opacity:1.00" />
  <line x1="5419" y1="50.0" x2="5439" y2="50.0" style="stroke:#999; stroke-width:3;" />
  <line x1="5439" y1="50.0" x2="5439" y2="50.0" style="stroke:#999; stroke-width:3;" />
  <line x1="5439" y1="50.0" x2="5439" y2="50.0" style="stroke:#999; stroke-width:3;" />
  <line x1="5439" y1="50.0" x2="5459" y2="50.0" style="stroke:#999; stroke-width:3;" />
  <rect class="anc_exon" x="5459" y="35.0" width="132" height="30" style="fill:#87bcbc;fill-opacity:1.00" />
  <rect class="anc_exon" x="5591" y="35.0" width="0" height="30" style="fill:#87bcbc;fill-opacity:1.00" />
  <text style="" >
<tspan x="0" y="83.0" style="font-size:18px;" >SP XM_031959667_1.1</tspan>  </text>



<script type="text/ecmascript">
<![CDATA[
function draw_bbox(text_id)
{
    var text_elem = document.getElementById(text_id);
    var offset_px = 2;
    var offset_py = 0;
    bbox = text_elem.getBBox();
    var box = document.createElementNS(document.rootElement.namespaceURI,'rect');
    box.setAttribute('x', bbox.x - offset_px);
    box.setAttribute('y', bbox.y - offset_py);
    box.setAttribute('width', bbox.width + offset_px * 2);
    box.setAttribute('height', bbox.height + offset_py * 2);
    box.setAttribute('style','fill: white;'+'stroke: black;'+'stroke-width: 1px;');
    text_elem.insertBefore(box,text_elem.childNodes[0]);

    var svg = text_elem.parentNode;
    svg.appendChild(text_elem);
}

for (var i=1; i < 1; i++)
{
draw_bbox("Mouseover" + i);
}
]]> 
</script>
</svg>
