<svg version="1.1"
xmlns="http://www.w3.org/2000/svg"
xmlns:xlink="http://www.w3.org/1999/xlink"
width="2366" height="100" viewBox = "0 0 2366 100"
onclick="mouseclick(evt)">

<script type="text/ecmascript">

<![CDATA[
    function mouseover(evt, target) { 
    var gv = document.getElementById("globalVariable");
    var previoustarget = gv.firstChild.nodeValue;
    if (previoustarget != "none") 
    {
        	document.getElementById(gv.firstChild.nodeValue).setAttributeNS(null, "visibility", "hidden");
    }
    document.getElementById(target).setAttributeNS(null, "visibility", "visible");
    gv.firstChild.nodeValue = target;
        }

    function mouseclick(evt) { 
    var gv = document.getElementById("globalVariable");
    var previoustarget = gv.firstChild.nodeValue;
    if (previoustarget != "none") {
        	document.getElementById(gv.firstChild.nodeValue).setAttributeNS(null, "visibility", "hidden");
        }
    }
]]>
  </script>
<style type="text/css" >

<![CDATA[
    rect.anc_exon {
              stroke-width:3;
                  }

    rect.non_anc_exon {
              stroke: black; stroke-width:3; stroke-dasharray: 5,5;
                    }

    text {
              font-size: 18px;
              font-family: Courier New;
          }
                    ]]>
</style>

<defs>
    <text x="150" y="40" id="globalVariable">none</text>
</defs>

  <rect class="anc_exon" x="0" y="35.0" width="0" height="30" style="fill:#87bcbc;fill-opacity:1.00" />
  <rect class="anc_exon" x="0" y="35.0" width="88.80000000000001" height="30" style="fill:#87bcbc;fill-opacity:1.00" />
  <line x1="88.80000000000001" y1="50.0" x2="128.0" y2="50.0" style="stroke:#999; stroke-width:3;" />
  <rect class="anc_exon" x="128" y="35.0" width="182" height="30" style="fill:#87bcbc;fill-opacity:1.00" />
  <line x1="310" y1="50.0" x2="330" y2="50.0" style="stroke:#999; stroke-width:3;" />
  <line x1="330" y1="50.0" x2="330" y2="50.0" style="stroke:#999; stroke-width:3;" />
  <line x1="330" y1="50.0" x2="330" y2="50.0" style="stroke:#999; stroke-width:3;" />
  <line x1="330" y1="50.0" x2="350" y2="50.0" style="stroke:#999; stroke-width:3;" />
  <rect class="anc_exon" x="350" y="35.0" width="96" height="30" style="fill:#87bcbc;fill-opacity:1.00" />
  <line x1="446" y1="50.0" x2="486" y2="50.0" style="stroke:#999; stroke-width:3;" />
  <rect class="anc_exon" x="486" y="35.0" width="104" height="30" style="fill:#87bcbc;fill-opacity:1.00" />
  <line x1="590" y1="50.0" x2="630" y2="50.0" style="stroke:#999; stroke-width:3;" />
  <rect class="anc_exon" x="630" y="35.0" width="68" height="30" style="fill:#87bcbc;fill-opacity:1.00" />
  <line x1="698" y1="50.0" x2="718" y2="50.0" style="stroke:#999; stroke-width:3;" />
  <line x1="718" y1="50.0" x2="718" y2="50.0" style="stroke:#999; stroke-width:3;" />
  <line x1="718" y1="50.0" x2="718" y2="50.0" style="stroke:#999; stroke-width:3;" />
  <line x1="718" y1="50.0" x2="738" y2="50.0" style="stroke:#999; stroke-width:3;" />
  <rect class="anc_exon" x="738" y="35.0" width="155" height="30" style="fill:#87bcbc;fill-opacity:1.00" />
  <line x1="893" y1="50.0" x2="913" y2="50.0" style="stroke:#999; stroke-width:3;" />
  <line x1="913" y1="50.0" x2="913" y2="50.0" style="stroke:#999; stroke-width:3;" />
  <line x1="913" y1="50.0" x2="913" y2="50.0" style="stroke:#999; stroke-width:3;" />
  <line x1="913" y1="50.0" x2="933" y2="50.0" style="stroke:#999; stroke-width:3;" />
  <rect class="anc_exon" x="933" y="35.0" width="96" height="30" style="fill:#87bcbc;fill-opacity:1.00" />
  <line x1="1029" y1="50.0" x2="1069" y2="50.0" style="stroke:#999; stroke-width:3;" />
  <rect class="anc_exon" x="1069" y="35.0" width="115" height="30" style="fill:#87bcbc;fill-opacity:1.00" />
  <line x1="1184" y1="50.0" x2="1224" y2="50.0" style="stroke:#999; stroke-width:3;" />
  <rect class="anc_exon" x="1224" y="35.0" width="187" height="30" style="fill:#87bcbc;fill-opacity:1.00" />
  <line x1="1411" y1="50.0" x2="1431" y2="50.0" style="stroke:#999; stroke-width:3;" />
  <line x1="1431" y1="50.0" x2="1431" y2="50.0" style="stroke:#999; stroke-width:3;" />
  <line x1="1431" y1="50.0" x2="1431" y2="50.0" style="stroke:#999; stroke-width:3;" />
  <line x1="1431" y1="50.0" x2="1451" y2="50.0" style="stroke:#999; stroke-width:3;" />
  <rect class="anc_exon" x="1451" y="35.0" width="130" height="30" style="fill:#87bcbc;fill-opacity:1.00" />
  <line x1="1581" y1="50.0" x2="1621" y2="50.0" style="stroke:#999; stroke-width:3;" />
  <rect class="anc_exon" x="1621" y="35.0" width="60" height="30" style="fill:#87bcbc;fill-opacity:1.00" />
  <line x1="1681" y1="50.0" x2="1721" y2="50.0" style="stroke:#999; stroke-width:3;" />
  <rect class="anc_exon" x="1721" y="35.0" width="104" height="30" style="fill:#87bcbc;fill-opacity:1.00" />
  <line x1="1825" y1="50.0" x2="1865" y2="50.0" style="stroke:#999; stroke-width:3;" />
  <rect class="anc_exon" x="1865" y="35.0" width="293" height="30" style="fill:#87bcbc;fill-opacity:1.00" />
  <line x1="2158" y1="50.0" x2="2178" y2="50.0" style="stroke:#999; stroke-width:3;" />
  <line x1="2178" y1="50.0" x2="2178" y2="50.0" style="stroke:#999; stroke-width:3;" />
  <line x1="2178" y1="50.0" x2="2178" y2="50.0" style="stroke:#999; stroke-width:3;" />
  <line x1="2178" y1="50.0" x2="2198" y2="50.0" style="stroke:#999; stroke-width:3;" />
  <rect class="anc_exon" x="2198" y="35.0" width="67" height="30" style="fill:#87bcbc;fill-opacity:1.00" />
  <line x1="2265" y1="50.0" x2="2305" y2="50.0" style="stroke:#999; stroke-width:3;" />
  <rect class="anc_exon" x="2305" y="35.0" width="25" height="30" style="fill:#87bcbc;fill-opacity:1.00" />
  <rect class="anc_exon" x="2330" y="35.0" width="0" height="30" style="fill:#87bcbc;fill-opacity:1.00" />
  <text style="" >
<tspan x="0" y="83.0" style="font-size:18px;" >SP XM_031958307_1.1</tspan>  </text>
  <text style="fill:#121212;" >
<tspan x="2265" y="50.0" style="font-size:18px;fill:#121212;" >at</tspan>  </text>
  <text style="fill:#121212;" >
<tspan x="2281.96" y="68.0" style="font-size:18px;fill:#121212;" >ga</tspan>  </text>



<script type="text/ecmascript">
<![CDATA[
function draw_bbox(text_id)
{
    var text_elem = document.getElementById(text_id);
    var offset_px = 2;
    var offset_py = 0;
    bbox = text_elem.getBBox();
    var box = document.createElementNS(document.rootElement.namespaceURI,'rect');
    box.setAttribute('x', bbox.x - offset_px);
    box.setAttribute('y', bbox.y - offset_py);
    box.setAttribute('width', bbox.width + offset_px * 2);
    box.setAttribute('height', bbox.height + offset_py * 2);
    box.setAttribute('style','fill: white;'+'stroke: black;'+'stroke-width: 1px;');
    text_elem.insertBefore(box,text_elem.childNodes[0]);

    var svg = text_elem.parentNode;
    svg.appendChild(text_elem);
}

for (var i=1; i < 1; i++)
{
draw_bbox("Mouseover" + i);
}
]]> 
</script>
</svg>
