<svg version="1.1"
xmlns="http://www.w3.org/2000/svg"
xmlns:xlink="http://www.w3.org/1999/xlink"
width="3523" height="100" viewBox = "0 0 3523 100"
onclick="mouseclick(evt)">

<script type="text/ecmascript">

<![CDATA[
    function mouseover(evt, target) { 
    var gv = document.getElementById("globalVariable");
    var previoustarget = gv.firstChild.nodeValue;
    if (previoustarget != "none") 
    {
        	document.getElementById(gv.firstChild.nodeValue).setAttributeNS(null, "visibility", "hidden");
    }
    document.getElementById(target).setAttributeNS(null, "visibility", "visible");
    gv.firstChild.nodeValue = target;
        }

    function mouseclick(evt) { 
    var gv = document.getElementById("globalVariable");
    var previoustarget = gv.firstChild.nodeValue;
    if (previoustarget != "none") {
        	document.getElementById(gv.firstChild.nodeValue).setAttributeNS(null, "visibility", "hidden");
        }
    }
]]>
  </script>
<style type="text/css" >

<![CDATA[
    rect.anc_exon {
              stroke-width:3;
                  }

    rect.non_anc_exon {
              stroke: black; stroke-width:3; stroke-dasharray: 5,5;
                    }

    text {
              font-size: 18px;
              font-family: Courier New;
          }
                    ]]>
</style>

<defs>
    <text x="150" y="40" id="globalVariable">none</text>
</defs>

  <rect class="anc_exon" x="0" y="35.0" width="0" height="30" style="fill:#87bcbc;fill-opacity:1.00" />
  <rect class="anc_exon" x="0" y="35.0" width="41.6" height="30" style="fill:#87bcbc;fill-opacity:1.00" />
  <line x1="41.6" y1="50.0" x2="60.6" y2="50.0" style="stroke:#999; stroke-width:3;" />
  <line x1="60.6" y1="50.0" x2="60.6" y2="50.0" style="stroke:#999; stroke-width:3;" />
  <line x1="60.6" y1="50.0" x2="60.6" y2="50.0" style="stroke:#999; stroke-width:3;" />
  <line x1="60.6" y1="50.0" x2="81.0" y2="50.0" style="stroke:#999; stroke-width:3;" />
  <rect class="anc_exon" x="81" y="35.0" width="71" height="30" style="fill:#87bcbc;fill-opacity:1.00" />
  <line x1="152" y1="50.0" x2="172" y2="50.0" style="stroke:#999; stroke-width:3;" />
  <line x1="172" y1="50.0" x2="172" y2="50.0" style="stroke:#999; stroke-width:3;" />
  <line x1="172" y1="50.0" x2="172" y2="50.0" style="stroke:#999; stroke-width:3;" />
  <line x1="172" y1="50.0" x2="192" y2="50.0" style="stroke:#999; stroke-width:3;" />
  <rect class="anc_exon" x="192" y="35.0" width="117" height="30" style="fill:#87bcbc;fill-opacity:1.00" />
  <line x1="309" y1="50.0" x2="329" y2="50.0" style="stroke:#999; stroke-width:3;" />
  <line x1="329" y1="50.0" x2="329" y2="50.0" style="stroke:#999; stroke-width:3;" />
  <line x1="329" y1="50.0" x2="329" y2="50.0" style="stroke:#999; stroke-width:3;" />
  <line x1="329" y1="50.0" x2="349" y2="50.0" style="stroke:#999; stroke-width:3;" />
  <rect class="anc_exon" x="349" y="35.0" width="58" height="30" style="fill:#87bcbc;fill-opacity:1.00" />
  <line x1="407" y1="50.0" x2="427" y2="50.0" style="stroke:#999; stroke-width:3;" />
  <line x1="427" y1="50.0" x2="427" y2="50.0" style="stroke:#999; stroke-width:3;" />
  <line x1="427" y1="50.0" x2="427" y2="50.0" style="stroke:#999; stroke-width:3;" />
  <line x1="427" y1="50.0" x2="447" y2="50.0" style="stroke:#999; stroke-width:3;" />
  <rect class="anc_exon" x="447" y="35.0" width="52" height="30" style="fill:#87bcbc;fill-opacity:1.00" />
  <line x1="499" y1="50.0" x2="519" y2="50.0" style="stroke:#999; stroke-width:3;" />
  <line x1="519" y1="50.0" x2="519" y2="50.0" style="stroke:#999; stroke-width:3;" />
  <line x1="519" y1="50.0" x2="519" y2="50.0" style="stroke:#999; stroke-width:3;" />
  <line x1="519" y1="50.0" x2="539" y2="50.0" style="stroke:#999; stroke-width:3;" />
  <rect class="anc_exon" x="539" y="35.0" width="43" height="30" style="fill:#87bcbc;fill-opacity:1.00" />
  <line x1="582" y1="50.0" x2="622" y2="50.0" style="stroke:#999; stroke-width:3;" />
  <rect class="anc_exon" x="622" y="35.0" width="85" height="30" style="fill:#87bcbc;fill-opacity:1.00" />
  <line x1="707" y1="50.0" x2="727" y2="50.0" style="stroke:#999; stroke-width:3;" />
  <line x1="727" y1="50.0" x2="727" y2="50.0" style="stroke:#999; stroke-width:3;" />
  <line x1="727" y1="50.0" x2="727" y2="50.0" style="stroke:#999; stroke-width:3;" />
  <line x1="727" y1="50.0" x2="747" y2="50.0" style="stroke:#999; stroke-width:3;" />
  <rect class="anc_exon" x="747" y="35.0" width="97" height="30" style="fill:#87bcbc;fill-opacity:1.00" />
  <line x1="844" y1="50.0" x2="884" y2="50.0" style="stroke:#999; stroke-width:3;" />
  <rect class="anc_exon" x="884" y="35.0" width="147" height="30" style="fill:#87bcbc;fill-opacity:1.00" />
  <line x1="1031" y1="50.0" x2="1051" y2="50.0" style="stroke:#999; stroke-width:3;" />
  <line x1="1051" y1="50.0" x2="1051" y2="50.0" style="stroke:#999; stroke-width:3;" />
  <line x1="1051" y1="50.0" x2="1051" y2="50.0" style="stroke:#999; stroke-width:3;" />
  <line x1="1051" y1="50.0" x2="1071" y2="50.0" style="stroke:#999; stroke-width:3;" />
  <rect class="anc_exon" x="1071" y="35.0" width="68" height="30" style="fill:#87bcbc;fill-opacity:1.00" />
  <line x1="1139" y1="50.0" x2="1179" y2="50.0" style="stroke:#999; stroke-width:3;" />
  <rect class="anc_exon" x="1179" y="35.0" width="48" height="30" style="fill:#87bcbc;fill-opacity:1.00" />
  <line x1="1227" y1="50.0" x2="1247" y2="50.0" style="stroke:#999; stroke-width:3;" />
  <line x1="1247" y1="50.0" x2="1247" y2="50.0" style="stroke:#999; stroke-width:3;" />
  <line x1="1247" y1="50.0" x2="1247" y2="50.0" style="stroke:#999; stroke-width:3;" />
  <line x1="1247" y1="50.0" x2="1267" y2="50.0" style="stroke:#999; stroke-width:3;" />
  <rect class="anc_exon" x="1267" y="35.0" width="61" height="30" style="fill:#87bcbc;fill-opacity:1.00" />
  <line x1="1328" y1="50.0" x2="1368" y2="50.0" style="stroke:#999; stroke-width:3;" />
  <rect class="anc_exon" x="1368" y="35.0" width="117" height="30" style="fill:#87bcbc;fill-opacity:1.00" />
  <line x1="1485" y1="50.0" x2="1505" y2="50.0" style="stroke:#999; stroke-width:3;" />
  <line x1="1505" y1="50.0" x2="1505" y2="50.0" style="stroke:#999; stroke-width:3;" />
  <line x1="1505" y1="50.0" x2="1505" y2="50.0" style="stroke:#999; stroke-width:3;" />
  <line x1="1505" y1="50.0" x2="1525" y2="50.0" style="stroke:#999; stroke-width:3;" />
  <rect class="anc_exon" x="1525" y="35.0" width="92" height="30" style="fill:#87bcbc;fill-opacity:1.00" />
  <line x1="1617" y1="50.0" x2="1637" y2="50.0" style="stroke:#999; stroke-width:3;" />
  <line x1="1637" y1="50.0" x2="1637" y2="50.0" style="stroke:#999; stroke-width:3;" />
  <line x1="1637" y1="50.0" x2="1637" y2="50.0" style="stroke:#999; stroke-width:3;" />
  <line x1="1637" y1="50.0" x2="1657" y2="50.0" style="stroke:#999; stroke-width:3;" />
  <rect class="anc_exon" x="1657" y="35.0" width="71" height="30" style="fill:#87bcbc;fill-opacity:1.00" />
  <line x1="1728" y1="50.0" x2="1748" y2="50.0" style="stroke:#999; stroke-width:3;" />
  <line x1="1748" y1="50.0" x2="1748" y2="50.0" style="stroke:#999; stroke-width:3;" />
  <line x1="1748" y1="50.0" x2="1748" y2="50.0" style="stroke:#999; stroke-width:3;" />
  <line x1="1748" y1="50.0" x2="1768" y2="50.0" style="stroke:#999; stroke-width:3;" />
  <rect class="anc_exon" x="1768" y="35.0" width="63" height="30" style="fill:#87bcbc;fill-opacity:1.00" />
  <line x1="1831" y1="50.0" x2="1851" y2="50.0" style="stroke:#999; stroke-width:3;" />
  <line x1="1851" y1="50.0" x2="1851" y2="50.0" style="stroke:#999; stroke-width:3;" />
  <line x1="1851" y1="50.0" x2="1851" y2="50.0" style="stroke:#999; stroke-width:3;" />
  <line x1="1851" y1="50.0" x2="1871" y2="50.0" style="stroke:#999; stroke-width:3;" />
  <rect class="anc_exon" x="1871" y="35.0" width="120" height="30" style="fill:#87bcbc;fill-opacity:1.00" />
  <line x1="1991" y1="50.0" x2="2031" y2="50.0" style="stroke:#999; stroke-width:3;" />
  <rect class="anc_exon" x="2031" y="35.0" width="71" height="30" style="fill:#87bcbc;fill-opacity:1.00" />
  <line x1="2102" y1="50.0" x2="2142" y2="50.0" style="stroke:#999; stroke-width:3;" />
  <rect class="anc_exon" x="2142" y="35.0" width="24" height="30" style="fill:#87bcbc;fill-opacity:1.00" />
  <line x1="2166" y1="50.0" x2="2206" y2="50.0" style="stroke:#999; stroke-width:3;" />
  <rect class="anc_exon" x="2206" y="35.0" width="63" height="30" style="fill:#87bcbc;fill-opacity:1.00" />
  <line x1="2269" y1="50.0" x2="2309" y2="50.0" style="stroke:#999; stroke-width:3;" />
  <rect class="anc_exon" x="2309" y="35.0" width="117" height="30" style="fill:#87bcbc;fill-opacity:1.00" />
  <line x1="2426" y1="50.0" x2="2446" y2="50.0" style="stroke:#999; stroke-width:3;" />
  <line x1="2446" y1="50.0" x2="2446" y2="50.0" style="stroke:#999; stroke-width:3;" />
  <line x1="2446" y1="50.0" x2="2446" y2="50.0" style="stroke:#999; stroke-width:3;" />
  <line x1="2446" y1="50.0" x2="2466" y2="50.0" style="stroke:#999; stroke-width:3;" />
  <rect class="anc_exon" x="2466" y="35.0" width="78" height="30" style="fill:#87bcbc;fill-opacity:1.00" />
  <line x1="2544" y1="50.0" x2="2564" y2="50.0" style="stroke:#999; stroke-width:3;" />
  <line x1="2564" y1="50.0" x2="2564" y2="50.0" style="stroke:#999; stroke-width:3;" />
  <line x1="2564" y1="50.0" x2="2564" y2="50.0" style="stroke:#999; stroke-width:3;" />
  <line x1="2564" y1="50.0" x2="2584" y2="50.0" style="stroke:#999; stroke-width:3;" />
  <rect class="anc_exon" x="2584" y="35.0" width="100" height="30" style="fill:#87bcbc;fill-opacity:1.00" />
  <line x1="2684" y1="50.0" x2="2724" y2="50.0" style="stroke:#999; stroke-width:3;" />
  <rect class="anc_exon" x="2724" y="35.0" width="143" height="30" style="fill:#87bcbc;fill-opacity:1.00" />
  <line x1="2867" y1="50.0" x2="2887" y2="50.0" style="stroke:#999; stroke-width:3;" />
  <line x1="2887" y1="50.0" x2="2887" y2="50.0" style="stroke:#999; stroke-width:3;" />
  <line x1="2887" y1="50.0" x2="2887" y2="50.0" style="stroke:#999; stroke-width:3;" />
  <line x1="2887" y1="50.0" x2="2907" y2="50.0" style="stroke:#999; stroke-width:3;" />
  <rect class="anc_exon" x="2907" y="35.0" width="72" height="30" style="fill:#87bcbc;fill-opacity:1.00" />
  <line x1="2979" y1="50.0" x2="2999" y2="50.0" style="stroke:#999; stroke-width:3;" />
  <line x1="2999" y1="50.0" x2="2999" y2="50.0" style="stroke:#999; stroke-width:3;" />
  <line x1="2999" y1="50.0" x2="2999" y2="50.0" style="stroke:#999; stroke-width:3;" />
  <line x1="2999" y1="50.0" x2="3019" y2="50.0" style="stroke:#999; stroke-width:3;" />
  <rect class="anc_exon" x="3019" y="35.0" width="40" height="30" style="fill:#87bcbc;fill-opacity:1.00" />
  <line x1="3059" y1="50.0" x2="3099" y2="50.0" style="stroke:#999; stroke-width:3;" />
  <rect class="anc_exon" x="3099" y="35.0" width="70" height="30" style="fill:#87bcbc;fill-opacity:1.00" />
  <line x1="3169" y1="50.0" x2="3209" y2="50.0" style="stroke:#999; stroke-width:3;" />
  <rect class="anc_exon" x="3209" y="35.0" width="52" height="30" style="fill:#87bcbc;fill-opacity:1.00" />
  <line x1="3261" y1="50.0" x2="3281" y2="50.0" style="stroke:#999; stroke-width:3;" />
  <line x1="3281" y1="50.0" x2="3281" y2="50.0" style="stroke:#999; stroke-width:3;" />
  <line x1="3281" y1="50.0" x2="3281" y2="50.0" style="stroke:#999; stroke-width:3;" />
  <line x1="3281" y1="50.0" x2="3301" y2="50.0" style="stroke:#999; stroke-width:3;" />
  <rect class="anc_exon" x="3301" y="35.0" width="44" height="30" style="fill:#87bcbc;fill-opacity:1.00" />
  <line x1="3345" y1="50.0" x2="3365" y2="50.0" style="stroke:#999; stroke-width:3;" />
  <line x1="3365" y1="50.0" x2="3365" y2="50.0" style="stroke:#999; stroke-width:3;" />
  <line x1="3365" y1="50.0" x2="3365" y2="50.0" style="stroke:#999; stroke-width:3;" />
  <line x1="3365" y1="50.0" x2="3385" y2="50.0" style="stroke:#999; stroke-width:3;" />
  <rect class="anc_exon" x="3385" y="35.0" width="102" height="30" style="fill:#87bcbc;fill-opacity:1.00" />
  <rect class="anc_exon" x="3487" y="35.0" width="0" height="30" style="fill:#87bcbc;fill-opacity:1.00" />
  <text style="" >
<tspan x="0" y="83.0" style="font-size:18px;" >SP XM_031960447_1.1</tspan>  </text>
  <text style="fill:#121212;" >
<tspan x="1831" y="50.0" style="font-size:18px;fill:#121212;" >at</tspan>  </text>
  <text style="fill:#121212;" >
<tspan x="1847.96" y="68.0" style="font-size:18px;fill:#121212;" >ac</tspan>  </text>



<script type="text/ecmascript">
<![CDATA[
function draw_bbox(text_id)
{
    var text_elem = document.getElementById(text_id);
    var offset_px = 2;
    var offset_py = 0;
    bbox = text_elem.getBBox();
    var box = document.createElementNS(document.rootElement.namespaceURI,'rect');
    box.setAttribute('x', bbox.x - offset_px);
    box.setAttribute('y', bbox.y - offset_py);
    box.setAttribute('width', bbox.width + offset_px * 2);
    box.setAttribute('height', bbox.height + offset_py * 2);
    box.setAttribute('style','fill: white;'+'stroke: black;'+'stroke-width: 1px;');
    text_elem.insertBefore(box,text_elem.childNodes[0]);

    var svg = text_elem.parentNode;
    svg.appendChild(text_elem);
}

for (var i=1; i < 1; i++)
{
draw_bbox("Mouseover" + i);
}
]]> 
</script>
</svg>
