<svg version="1.1"
xmlns="http://www.w3.org/2000/svg"
xmlns:xlink="http://www.w3.org/1999/xlink"
width="1839" height="100" viewBox = "0 0 1839 100"
onclick="mouseclick(evt)">

<script type="text/ecmascript">

<![CDATA[
    function mouseover(evt, target) { 
    var gv = document.getElementById("globalVariable");
    var previoustarget = gv.firstChild.nodeValue;
    if (previoustarget != "none") 
    {
        	document.getElementById(gv.firstChild.nodeValue).setAttributeNS(null, "visibility", "hidden");
    }
    document.getElementById(target).setAttributeNS(null, "visibility", "visible");
    gv.firstChild.nodeValue = target;
        }

    function mouseclick(evt) { 
    var gv = document.getElementById("globalVariable");
    var previoustarget = gv.firstChild.nodeValue;
    if (previoustarget != "none") {
        	document.getElementById(gv.firstChild.nodeValue).setAttributeNS(null, "visibility", "hidden");
        }
    }
]]>
  </script>
<style type="text/css" >

<![CDATA[
    rect.anc_exon {
              stroke-width:3;
                  }

    rect.non_anc_exon {
              stroke: black; stroke-width:3; stroke-dasharray: 5,5;
                    }

    text {
              font-size: 18px;
              font-family: Courier New;
          }
                    ]]>
</style>

<defs>
    <text x="150" y="40" id="globalVariable">none</text>
</defs>

  <rect class="anc_exon" x="0" y="35.0" width="0" height="30" style="fill:#87bcbc;fill-opacity:1.00" />
  <rect class="anc_exon" x="0" y="35.0" width="40.800000000000004" height="30" style="fill:#87bcbc;fill-opacity:1.00" />
  <line x1="40.800000000000004" y1="50.0" x2="80.0" y2="50.0" style="stroke:#999; stroke-width:3;" />
  <rect class="anc_exon" x="80" y="35.0" width="81" height="30" style="fill:#87bcbc;fill-opacity:1.00" />
  <line x1="161" y1="50.0" x2="181" y2="50.0" style="stroke:#999; stroke-width:3;" />
  <line x1="181" y1="50.0" x2="181" y2="50.0" style="stroke:#999; stroke-width:3;" />
  <line x1="181" y1="50.0" x2="181" y2="50.0" style="stroke:#999; stroke-width:3;" />
  <line x1="181" y1="50.0" x2="201" y2="50.0" style="stroke:#999; stroke-width:3;" />
  <rect class="anc_exon" x="201" y="35.0" width="144" height="30" style="fill:#87bcbc;fill-opacity:1.00" />
  <line x1="345" y1="50.0" x2="365" y2="50.0" style="stroke:#999; stroke-width:3;" />
  <line x1="365" y1="50.0" x2="365" y2="50.0" style="stroke:#999; stroke-width:3;" />
  <line x1="365" y1="50.0" x2="365" y2="50.0" style="stroke:#999; stroke-width:3;" />
  <line x1="365" y1="50.0" x2="385" y2="50.0" style="stroke:#999; stroke-width:3;" />
  <rect class="anc_exon" x="385" y="35.0" width="64" height="30" style="fill:#87bcbc;fill-opacity:1.00" />
  <line x1="449" y1="50.0" x2="469" y2="50.0" style="stroke:#999; stroke-width:3;" />
  <line x1="469" y1="50.0" x2="469" y2="50.0" style="stroke:#999; stroke-width:3;" />
  <line x1="469" y1="50.0" x2="469" y2="50.0" style="stroke:#999; stroke-width:3;" />
  <line x1="469" y1="50.0" x2="489" y2="50.0" style="stroke:#999; stroke-width:3;" />
  <rect class="anc_exon" x="489" y="35.0" width="92" height="30" style="fill:#87bcbc;fill-opacity:1.00" />
  <line x1="581" y1="50.0" x2="621" y2="50.0" style="stroke:#999; stroke-width:3;" />
  <rect class="anc_exon" x="621" y="35.0" width="76" height="30" style="fill:#87bcbc;fill-opacity:1.00" />
  <line x1="697" y1="50.0" x2="717" y2="50.0" style="stroke:#999; stroke-width:3;" />
  <line x1="717" y1="50.0" x2="717" y2="50.0" style="stroke:#999; stroke-width:3;" />
  <line x1="717" y1="50.0" x2="717" y2="50.0" style="stroke:#999; stroke-width:3;" />
  <line x1="717" y1="50.0" x2="737" y2="50.0" style="stroke:#999; stroke-width:3;" />
  <rect class="anc_exon" x="737" y="35.0" width="93" height="30" style="fill:#87bcbc;fill-opacity:1.00" />
  <line x1="830" y1="50.0" x2="870" y2="50.0" style="stroke:#999; stroke-width:3;" />
  <rect class="anc_exon" x="870" y="35.0" width="70" height="30" style="fill:#87bcbc;fill-opacity:1.00" />
  <line x1="940" y1="50.0" x2="960" y2="50.0" style="stroke:#999; stroke-width:3;" />
  <line x1="960" y1="50.0" x2="960" y2="50.0" style="stroke:#999; stroke-width:3;" />
  <line x1="960" y1="50.0" x2="960" y2="50.0" style="stroke:#999; stroke-width:3;" />
  <line x1="960" y1="50.0" x2="980" y2="50.0" style="stroke:#999; stroke-width:3;" />
  <rect class="anc_exon" x="980" y="35.0" width="128" height="30" style="fill:#87bcbc;fill-opacity:1.00" />
  <line x1="1108" y1="50.0" x2="1148" y2="50.0" style="stroke:#999; stroke-width:3;" />
  <rect class="anc_exon" x="1148" y="35.0" width="134" height="30" style="fill:#87bcbc;fill-opacity:1.00" />
  <line x1="1282" y1="50.0" x2="1302" y2="50.0" style="stroke:#999; stroke-width:3;" />
  <line x1="1302" y1="50.0" x2="1302" y2="50.0" style="stroke:#999; stroke-width:3;" />
  <line x1="1302" y1="50.0" x2="1302" y2="50.0" style="stroke:#999; stroke-width:3;" />
  <line x1="1302" y1="50.0" x2="1322" y2="50.0" style="stroke:#999; stroke-width:3;" />
  <rect class="anc_exon" x="1322" y="35.0" width="481" height="30" style="fill:#87bcbc;fill-opacity:1.00" />
  <rect class="anc_exon" x="1803" y="35.0" width="0" height="30" style="fill:#87bcbc;fill-opacity:1.00" />
  <text style="" >
<tspan x="0" y="83.0" style="font-size:18px;" >SP XM_031958357_1.1</tspan>  </text>



<script type="text/ecmascript">
<![CDATA[
function draw_bbox(text_id)
{
    var text_elem = document.getElementById(text_id);
    var offset_px = 2;
    var offset_py = 0;
    bbox = text_elem.getBBox();
    var box = document.createElementNS(document.rootElement.namespaceURI,'rect');
    box.setAttribute('x', bbox.x - offset_px);
    box.setAttribute('y', bbox.y - offset_py);
    box.setAttribute('width', bbox.width + offset_px * 2);
    box.setAttribute('height', bbox.height + offset_py * 2);
    box.setAttribute('style','fill: white;'+'stroke: black;'+'stroke-width: 1px;');
    text_elem.insertBefore(box,text_elem.childNodes[0]);

    var svg = text_elem.parentNode;
    svg.appendChild(text_elem);
}

for (var i=1; i < 1; i++)
{
draw_bbox("Mouseover" + i);
}
]]> 
</script>
</svg>
