<svg version="1.1"
xmlns="http://www.w3.org/2000/svg"
xmlns:xlink="http://www.w3.org/1999/xlink"
width="3512" height="100" viewBox = "0 0 3512 100"
onclick="mouseclick(evt)">

<script type="text/ecmascript">

<![CDATA[
    function mouseover(evt, target) { 
    var gv = document.getElementById("globalVariable");
    var previoustarget = gv.firstChild.nodeValue;
    if (previoustarget != "none") 
    {
        	document.getElementById(gv.firstChild.nodeValue).setAttributeNS(null, "visibility", "hidden");
    }
    document.getElementById(target).setAttributeNS(null, "visibility", "visible");
    gv.firstChild.nodeValue = target;
        }

    function mouseclick(evt) { 
    var gv = document.getElementById("globalVariable");
    var previoustarget = gv.firstChild.nodeValue;
    if (previoustarget != "none") {
        	document.getElementById(gv.firstChild.nodeValue).setAttributeNS(null, "visibility", "hidden");
        }
    }
]]>
  </script>
<style type="text/css" >

<![CDATA[
    rect.anc_exon {
              stroke-width:3;
                  }

    rect.non_anc_exon {
              stroke: black; stroke-width:3; stroke-dasharray: 5,5;
                    }

    text {
              font-size: 18px;
              font-family: Courier New;
          }
                    ]]>
</style>

<defs>
    <text x="150" y="40" id="globalVariable">none</text>
</defs>

  <rect class="anc_exon" x="0" y="35.0" width="0" height="30" style="fill:#87bcbc;fill-opacity:1.00" />
  <rect class="anc_exon" x="0" y="35.0" width="60.800000000000004" height="30" style="fill:#87bcbc;fill-opacity:1.00" />
  <line x1="60.800000000000004" y1="50.0" x2="100.0" y2="50.0" style="stroke:#999; stroke-width:3;" />
  <rect class="anc_exon" x="100" y="35.0" width="218" height="30" style="fill:#87bcbc;fill-opacity:1.00" />
  <line x1="318" y1="50.0" x2="358" y2="50.0" style="stroke:#999; stroke-width:3;" />
  <rect class="anc_exon" x="358" y="35.0" width="117" height="30" style="fill:#87bcbc;fill-opacity:1.00" />
  <line x1="475" y1="50.0" x2="515" y2="50.0" style="stroke:#999; stroke-width:3;" />
  <rect class="anc_exon" x="515" y="35.0" width="115" height="30" style="fill:#87bcbc;fill-opacity:1.00" />
  <line x1="630" y1="50.0" x2="670" y2="50.0" style="stroke:#999; stroke-width:3;" />
  <rect class="anc_exon" x="670" y="35.0" width="230" height="30" style="fill:#87bcbc;fill-opacity:1.00" />
  <line x1="900" y1="50.0" x2="920" y2="50.0" style="stroke:#999; stroke-width:3;" />
  <line x1="920" y1="50.0" x2="920" y2="50.0" style="stroke:#999; stroke-width:3;" />
  <line x1="920" y1="50.0" x2="920" y2="50.0" style="stroke:#999; stroke-width:3;" />
  <line x1="920" y1="50.0" x2="940" y2="50.0" style="stroke:#999; stroke-width:3;" />
  <rect class="anc_exon" x="940" y="35.0" width="283" height="30" style="fill:#87bcbc;fill-opacity:1.00" />
  <line x1="1223" y1="50.0" x2="1243" y2="50.0" style="stroke:#999; stroke-width:3;" />
  <line x1="1243" y1="50.0" x2="1243" y2="50.0" style="stroke:#999; stroke-width:3;" />
  <line x1="1243" y1="50.0" x2="1243" y2="50.0" style="stroke:#999; stroke-width:3;" />
  <line x1="1243" y1="50.0" x2="1263" y2="50.0" style="stroke:#999; stroke-width:3;" />
  <rect class="anc_exon" x="1263" y="35.0" width="236" height="30" style="fill:#87bcbc;fill-opacity:1.00" />
  <line x1="1499" y1="50.0" x2="1539" y2="50.0" style="stroke:#999; stroke-width:3;" />
  <rect class="anc_exon" x="1539" y="35.0" width="140" height="30" style="fill:#87bcbc;fill-opacity:1.00" />
  <line x1="1679" y1="50.0" x2="1719" y2="50.0" style="stroke:#999; stroke-width:3;" />
  <rect class="anc_exon" x="1719" y="35.0" width="105" height="30" style="fill:#87bcbc;fill-opacity:1.00" />
  <line x1="1824" y1="50.0" x2="1864" y2="50.0" style="stroke:#999; stroke-width:3;" />
  <rect class="anc_exon" x="1864" y="35.0" width="163" height="30" style="fill:#87bcbc;fill-opacity:1.00" />
  <line x1="2027" y1="50.0" x2="2067" y2="50.0" style="stroke:#999; stroke-width:3;" />
  <rect class="anc_exon" x="2067" y="35.0" width="145" height="30" style="fill:#87bcbc;fill-opacity:1.00" />
  <line x1="2212" y1="50.0" x2="2252" y2="50.0" style="stroke:#999; stroke-width:3;" />
  <rect class="anc_exon" x="2252" y="35.0" width="84" height="30" style="fill:#87bcbc;fill-opacity:1.00" />
  <line x1="2336" y1="50.0" x2="2356" y2="50.0" style="stroke:#999; stroke-width:3;" />
  <line x1="2356" y1="50.0" x2="2356" y2="50.0" style="stroke:#999; stroke-width:3;" />
  <line x1="2356" y1="50.0" x2="2356" y2="50.0" style="stroke:#999; stroke-width:3;" />
  <line x1="2356" y1="50.0" x2="2376" y2="50.0" style="stroke:#999; stroke-width:3;" />
  <rect class="anc_exon" x="2376" y="35.0" width="98" height="30" style="fill:#87bcbc;fill-opacity:1.00" />
  <line x1="2474" y1="50.0" x2="2494" y2="50.0" style="stroke:#999; stroke-width:3;" />
  <line x1="2494" y1="50.0" x2="2494" y2="50.0" style="stroke:#999; stroke-width:3;" />
  <line x1="2494" y1="50.0" x2="2494" y2="50.0" style="stroke:#999; stroke-width:3;" />
  <line x1="2494" y1="50.0" x2="2514" y2="50.0" style="stroke:#999; stroke-width:3;" />
  <rect class="anc_exon" x="2514" y="35.0" width="177" height="30" style="fill:#87bcbc;fill-opacity:1.00" />
  <line x1="2691" y1="50.0" x2="2711" y2="50.0" style="stroke:#999; stroke-width:3;" />
  <line x1="2711" y1="50.0" x2="2711" y2="50.0" style="stroke:#999; stroke-width:3;" />
  <line x1="2711" y1="50.0" x2="2711" y2="50.0" style="stroke:#999; stroke-width:3;" />
  <line x1="2711" y1="50.0" x2="2731" y2="50.0" style="stroke:#999; stroke-width:3;" />
  <rect class="anc_exon" x="2731" y="35.0" width="222" height="30" style="fill:#87bcbc;fill-opacity:1.00" />
  <line x1="2953" y1="50.0" x2="2973" y2="50.0" style="stroke:#999; stroke-width:3;" />
  <line x1="2973" y1="50.0" x2="2973" y2="50.0" style="stroke:#999; stroke-width:3;" />
  <line x1="2973" y1="50.0" x2="2973" y2="50.0" style="stroke:#999; stroke-width:3;" />
  <line x1="2973" y1="50.0" x2="2993" y2="50.0" style="stroke:#999; stroke-width:3;" />
  <rect class="anc_exon" x="2993" y="35.0" width="64" height="30" style="fill:#87bcbc;fill-opacity:1.00" />
  <line x1="3057" y1="50.0" x2="3077" y2="50.0" style="stroke:#999; stroke-width:3;" />
  <line x1="3077" y1="50.0" x2="3077" y2="50.0" style="stroke:#999; stroke-width:3;" />
  <line x1="3077" y1="50.0" x2="3077" y2="50.0" style="stroke:#999; stroke-width:3;" />
  <line x1="3077" y1="50.0" x2="3097" y2="50.0" style="stroke:#999; stroke-width:3;" />
  <rect class="anc_exon" x="3097" y="35.0" width="203" height="30" style="fill:#87bcbc;fill-opacity:1.00" />
  <line x1="3300" y1="50.0" x2="3320" y2="50.0" style="stroke:#999; stroke-width:3;" />
  <line x1="3320" y1="50.0" x2="3320" y2="50.0" style="stroke:#999; stroke-width:3;" />
  <line x1="3320" y1="50.0" x2="3320" y2="50.0" style="stroke:#999; stroke-width:3;" />
  <line x1="3320" y1="50.0" x2="3340" y2="50.0" style="stroke:#999; stroke-width:3;" />
  <rect class="anc_exon" x="3340" y="35.0" width="136" height="30" style="fill:#87bcbc;fill-opacity:1.00" />
  <rect class="anc_exon" x="3476" y="35.0" width="0" height="30" style="fill:#87bcbc;fill-opacity:1.00" />
  <text style="" >
<tspan x="0" y="83.0" style="font-size:18px;" >SP XM_031960932_1.1</tspan>  </text>



<script type="text/ecmascript">
<![CDATA[
function draw_bbox(text_id)
{
    var text_elem = document.getElementById(text_id);
    var offset_px = 2;
    var offset_py = 0;
    bbox = text_elem.getBBox();
    var box = document.createElementNS(document.rootElement.namespaceURI,'rect');
    box.setAttribute('x', bbox.x - offset_px);
    box.setAttribute('y', bbox.y - offset_py);
    box.setAttribute('width', bbox.width + offset_px * 2);
    box.setAttribute('height', bbox.height + offset_py * 2);
    box.setAttribute('style','fill: white;'+'stroke: black;'+'stroke-width: 1px;');
    text_elem.insertBefore(box,text_elem.childNodes[0]);

    var svg = text_elem.parentNode;
    svg.appendChild(text_elem);
}

for (var i=1; i < 1; i++)
{
draw_bbox("Mouseover" + i);
}
]]> 
</script>
</svg>
