<svg version="1.1"
xmlns="http://www.w3.org/2000/svg"
xmlns:xlink="http://www.w3.org/1999/xlink"
width="3688" height="100" viewBox = "0 0 3688 100"
onclick="mouseclick(evt)">

<script type="text/ecmascript">

<![CDATA[
    function mouseover(evt, target) { 
    var gv = document.getElementById("globalVariable");
    var previoustarget = gv.firstChild.nodeValue;
    if (previoustarget != "none") 
    {
        	document.getElementById(gv.firstChild.nodeValue).setAttributeNS(null, "visibility", "hidden");
    }
    document.getElementById(target).setAttributeNS(null, "visibility", "visible");
    gv.firstChild.nodeValue = target;
        }

    function mouseclick(evt) { 
    var gv = document.getElementById("globalVariable");
    var previoustarget = gv.firstChild.nodeValue;
    if (previoustarget != "none") {
        	document.getElementById(gv.firstChild.nodeValue).setAttributeNS(null, "visibility", "hidden");
        }
    }
]]>
  </script>
<style type="text/css" >

<![CDATA[
    rect.anc_exon {
              stroke-width:3;
                  }

    rect.non_anc_exon {
              stroke: black; stroke-width:3; stroke-dasharray: 5,5;
                    }

    text {
              font-size: 18px;
              font-family: Courier New;
          }
                    ]]>
</style>

<defs>
    <text x="150" y="40" id="globalVariable">none</text>
</defs>

  <rect class="anc_exon" x="0" y="35.0" width="0" height="30" style="fill:#87bcbc;fill-opacity:1.00" />
  <rect class="anc_exon" x="0" y="35.0" width="52.0" height="30" style="fill:#87bcbc;fill-opacity:1.00" />
  <line x1="52.0" y1="50.0" x2="72.0" y2="50.0" style="stroke:#999; stroke-width:3;" />
  <line x1="72.0" y1="50.0" x2="72.0" y2="50.0" style="stroke:#999; stroke-width:3;" />
  <line x1="72.0" y1="50.0" x2="72.0" y2="50.0" style="stroke:#999; stroke-width:3;" />
  <line x1="72.0" y1="50.0" x2="92.0" y2="50.0" style="stroke:#999; stroke-width:3;" />
  <rect class="anc_exon" x="92" y="35.0" width="114" height="30" style="fill:#87bcbc;fill-opacity:1.00" />
  <line x1="206" y1="50.0" x2="226" y2="50.0" style="stroke:#999; stroke-width:3;" />
  <line x1="226" y1="50.0" x2="226" y2="50.0" style="stroke:#999; stroke-width:3;" />
  <line x1="226" y1="50.0" x2="226" y2="50.0" style="stroke:#999; stroke-width:3;" />
  <line x1="226" y1="50.0" x2="246" y2="50.0" style="stroke:#999; stroke-width:3;" />
  <rect class="anc_exon" x="246" y="35.0" width="71" height="30" style="fill:#87bcbc;fill-opacity:1.00" />
  <line x1="317" y1="50.0" x2="337" y2="50.0" style="stroke:#999; stroke-width:3;" />
  <line x1="337" y1="50.0" x2="337" y2="50.0" style="stroke:#999; stroke-width:3;" />
  <line x1="337" y1="50.0" x2="337" y2="50.0" style="stroke:#999; stroke-width:3;" />
  <line x1="337" y1="50.0" x2="357" y2="50.0" style="stroke:#999; stroke-width:3;" />
  <rect class="anc_exon" x="357" y="35.0" width="117" height="30" style="fill:#87bcbc;fill-opacity:1.00" />
  <line x1="474" y1="50.0" x2="494" y2="50.0" style="stroke:#999; stroke-width:3;" />
  <line x1="494" y1="50.0" x2="494" y2="50.0" style="stroke:#999; stroke-width:3;" />
  <line x1="494" y1="50.0" x2="494" y2="50.0" style="stroke:#999; stroke-width:3;" />
  <line x1="494" y1="50.0" x2="514" y2="50.0" style="stroke:#999; stroke-width:3;" />
  <rect class="anc_exon" x="514" y="35.0" width="58" height="30" style="fill:#87bcbc;fill-opacity:1.00" />
  <line x1="572" y1="50.0" x2="592" y2="50.0" style="stroke:#999; stroke-width:3;" />
  <line x1="592" y1="50.0" x2="592" y2="50.0" style="stroke:#999; stroke-width:3;" />
  <line x1="592" y1="50.0" x2="592" y2="50.0" style="stroke:#999; stroke-width:3;" />
  <line x1="592" y1="50.0" x2="612" y2="50.0" style="stroke:#999; stroke-width:3;" />
  <rect class="anc_exon" x="612" y="35.0" width="52" height="30" style="fill:#87bcbc;fill-opacity:1.00" />
  <line x1="664" y1="50.0" x2="684" y2="50.0" style="stroke:#999; stroke-width:3;" />
  <line x1="684" y1="50.0" x2="684" y2="50.0" style="stroke:#999; stroke-width:3;" />
  <line x1="684" y1="50.0" x2="684" y2="50.0" style="stroke:#999; stroke-width:3;" />
  <line x1="684" y1="50.0" x2="704" y2="50.0" style="stroke:#999; stroke-width:3;" />
  <rect class="anc_exon" x="704" y="35.0" width="43" height="30" style="fill:#87bcbc;fill-opacity:1.00" />
  <line x1="747" y1="50.0" x2="787" y2="50.0" style="stroke:#999; stroke-width:3;" />
  <rect class="anc_exon" x="787" y="35.0" width="85" height="30" style="fill:#87bcbc;fill-opacity:1.00" />
  <line x1="872" y1="50.0" x2="892" y2="50.0" style="stroke:#999; stroke-width:3;" />
  <line x1="892" y1="50.0" x2="892" y2="50.0" style="stroke:#999; stroke-width:3;" />
  <line x1="892" y1="50.0" x2="892" y2="50.0" style="stroke:#999; stroke-width:3;" />
  <line x1="892" y1="50.0" x2="912" y2="50.0" style="stroke:#999; stroke-width:3;" />
  <rect class="anc_exon" x="912" y="35.0" width="97" height="30" style="fill:#87bcbc;fill-opacity:1.00" />
  <line x1="1009" y1="50.0" x2="1049" y2="50.0" style="stroke:#999; stroke-width:3;" />
  <rect class="anc_exon" x="1049" y="35.0" width="147" height="30" style="fill:#87bcbc;fill-opacity:1.00" />
  <line x1="1196" y1="50.0" x2="1216" y2="50.0" style="stroke:#999; stroke-width:3;" />
  <line x1="1216" y1="50.0" x2="1216" y2="50.0" style="stroke:#999; stroke-width:3;" />
  <line x1="1216" y1="50.0" x2="1216" y2="50.0" style="stroke:#999; stroke-width:3;" />
  <line x1="1216" y1="50.0" x2="1236" y2="50.0" style="stroke:#999; stroke-width:3;" />
  <rect class="anc_exon" x="1236" y="35.0" width="68" height="30" style="fill:#87bcbc;fill-opacity:1.00" />
  <line x1="1304" y1="50.0" x2="1344" y2="50.0" style="stroke:#999; stroke-width:3;" />
  <rect class="anc_exon" x="1344" y="35.0" width="48" height="30" style="fill:#87bcbc;fill-opacity:1.00" />
  <line x1="1392" y1="50.0" x2="1412" y2="50.0" style="stroke:#999; stroke-width:3;" />
  <line x1="1412" y1="50.0" x2="1412" y2="50.0" style="stroke:#999; stroke-width:3;" />
  <line x1="1412" y1="50.0" x2="1412" y2="50.0" style="stroke:#999; stroke-width:3;" />
  <line x1="1412" y1="50.0" x2="1432" y2="50.0" style="stroke:#999; stroke-width:3;" />
  <rect class="anc_exon" x="1432" y="35.0" width="61" height="30" style="fill:#87bcbc;fill-opacity:1.00" />
  <line x1="1493" y1="50.0" x2="1533" y2="50.0" style="stroke:#999; stroke-width:3;" />
  <rect class="anc_exon" x="1533" y="35.0" width="117" height="30" style="fill:#87bcbc;fill-opacity:1.00" />
  <line x1="1650" y1="50.0" x2="1670" y2="50.0" style="stroke:#999; stroke-width:3;" />
  <line x1="1670" y1="50.0" x2="1670" y2="50.0" style="stroke:#999; stroke-width:3;" />
  <line x1="1670" y1="50.0" x2="1670" y2="50.0" style="stroke:#999; stroke-width:3;" />
  <line x1="1670" y1="50.0" x2="1690" y2="50.0" style="stroke:#999; stroke-width:3;" />
  <rect class="anc_exon" x="1690" y="35.0" width="92" height="30" style="fill:#87bcbc;fill-opacity:1.00" />
  <line x1="1782" y1="50.0" x2="1802" y2="50.0" style="stroke:#999; stroke-width:3;" />
  <line x1="1802" y1="50.0" x2="1802" y2="50.0" style="stroke:#999; stroke-width:3;" />
  <line x1="1802" y1="50.0" x2="1802" y2="50.0" style="stroke:#999; stroke-width:3;" />
  <line x1="1802" y1="50.0" x2="1822" y2="50.0" style="stroke:#999; stroke-width:3;" />
  <rect class="anc_exon" x="1822" y="35.0" width="71" height="30" style="fill:#87bcbc;fill-opacity:1.00" />
  <line x1="1893" y1="50.0" x2="1913" y2="50.0" style="stroke:#999; stroke-width:3;" />
  <line x1="1913" y1="50.0" x2="1913" y2="50.0" style="stroke:#999; stroke-width:3;" />
  <line x1="1913" y1="50.0" x2="1913" y2="50.0" style="stroke:#999; stroke-width:3;" />
  <line x1="1913" y1="50.0" x2="1933" y2="50.0" style="stroke:#999; stroke-width:3;" />
  <rect class="anc_exon" x="1933" y="35.0" width="63" height="30" style="fill:#87bcbc;fill-opacity:1.00" />
  <line x1="1996" y1="50.0" x2="2016" y2="50.0" style="stroke:#999; stroke-width:3;" />
  <line x1="2016" y1="50.0" x2="2016" y2="50.0" style="stroke:#999; stroke-width:3;" />
  <line x1="2016" y1="50.0" x2="2016" y2="50.0" style="stroke:#999; stroke-width:3;" />
  <line x1="2016" y1="50.0" x2="2036" y2="50.0" style="stroke:#999; stroke-width:3;" />
  <rect class="anc_exon" x="2036" y="35.0" width="120" height="30" style="fill:#87bcbc;fill-opacity:1.00" />
  <line x1="2156" y1="50.0" x2="2196" y2="50.0" style="stroke:#999; stroke-width:3;" />
  <rect class="anc_exon" x="2196" y="35.0" width="71" height="30" style="fill:#87bcbc;fill-opacity:1.00" />
  <line x1="2267" y1="50.0" x2="2307" y2="50.0" style="stroke:#999; stroke-width:3;" />
  <rect class="anc_exon" x="2307" y="35.0" width="24" height="30" style="fill:#87bcbc;fill-opacity:1.00" />
  <line x1="2331" y1="50.0" x2="2371" y2="50.0" style="stroke:#999; stroke-width:3;" />
  <rect class="anc_exon" x="2371" y="35.0" width="63" height="30" style="fill:#87bcbc;fill-opacity:1.00" />
  <line x1="2434" y1="50.0" x2="2474" y2="50.0" style="stroke:#999; stroke-width:3;" />
  <rect class="anc_exon" x="2474" y="35.0" width="117" height="30" style="fill:#87bcbc;fill-opacity:1.00" />
  <line x1="2591" y1="50.0" x2="2611" y2="50.0" style="stroke:#999; stroke-width:3;" />
  <line x1="2611" y1="50.0" x2="2611" y2="50.0" style="stroke:#999; stroke-width:3;" />
  <line x1="2611" y1="50.0" x2="2611" y2="50.0" style="stroke:#999; stroke-width:3;" />
  <line x1="2611" y1="50.0" x2="2631" y2="50.0" style="stroke:#999; stroke-width:3;" />
  <rect class="anc_exon" x="2631" y="35.0" width="78" height="30" style="fill:#87bcbc;fill-opacity:1.00" />
  <line x1="2709" y1="50.0" x2="2729" y2="50.0" style="stroke:#999; stroke-width:3;" />
  <line x1="2729" y1="50.0" x2="2729" y2="50.0" style="stroke:#999; stroke-width:3;" />
  <line x1="2729" y1="50.0" x2="2729" y2="50.0" style="stroke:#999; stroke-width:3;" />
  <line x1="2729" y1="50.0" x2="2749" y2="50.0" style="stroke:#999; stroke-width:3;" />
  <rect class="anc_exon" x="2749" y="35.0" width="100" height="30" style="fill:#87bcbc;fill-opacity:1.00" />
  <line x1="2849" y1="50.0" x2="2889" y2="50.0" style="stroke:#999; stroke-width:3;" />
  <rect class="anc_exon" x="2889" y="35.0" width="143" height="30" style="fill:#87bcbc;fill-opacity:1.00" />
  <line x1="3032" y1="50.0" x2="3052" y2="50.0" style="stroke:#999; stroke-width:3;" />
  <line x1="3052" y1="50.0" x2="3052" y2="50.0" style="stroke:#999; stroke-width:3;" />
  <line x1="3052" y1="50.0" x2="3052" y2="50.0" style="stroke:#999; stroke-width:3;" />
  <line x1="3052" y1="50.0" x2="3072" y2="50.0" style="stroke:#999; stroke-width:3;" />
  <rect class="anc_exon" x="3072" y="35.0" width="72" height="30" style="fill:#87bcbc;fill-opacity:1.00" />
  <line x1="3144" y1="50.0" x2="3164" y2="50.0" style="stroke:#999; stroke-width:3;" />
  <line x1="3164" y1="50.0" x2="3164" y2="50.0" style="stroke:#999; stroke-width:3;" />
  <line x1="3164" y1="50.0" x2="3164" y2="50.0" style="stroke:#999; stroke-width:3;" />
  <line x1="3164" y1="50.0" x2="3184" y2="50.0" style="stroke:#999; stroke-width:3;" />
  <rect class="anc_exon" x="3184" y="35.0" width="40" height="30" style="fill:#87bcbc;fill-opacity:1.00" />
  <line x1="3224" y1="50.0" x2="3264" y2="50.0" style="stroke:#999; stroke-width:3;" />
  <rect class="anc_exon" x="3264" y="35.0" width="70" height="30" style="fill:#87bcbc;fill-opacity:1.00" />
  <line x1="3334" y1="50.0" x2="3374" y2="50.0" style="stroke:#999; stroke-width:3;" />
  <rect class="anc_exon" x="3374" y="35.0" width="52" height="30" style="fill:#87bcbc;fill-opacity:1.00" />
  <line x1="3426" y1="50.0" x2="3446" y2="50.0" style="stroke:#999; stroke-width:3;" />
  <line x1="3446" y1="50.0" x2="3446" y2="50.0" style="stroke:#999; stroke-width:3;" />
  <line x1="3446" y1="50.0" x2="3446" y2="50.0" style="stroke:#999; stroke-width:3;" />
  <line x1="3446" y1="50.0" x2="3466" y2="50.0" style="stroke:#999; stroke-width:3;" />
  <rect class="anc_exon" x="3466" y="35.0" width="44" height="30" style="fill:#87bcbc;fill-opacity:1.00" />
  <line x1="3510" y1="50.0" x2="3530" y2="50.0" style="stroke:#999; stroke-width:3;" />
  <line x1="3530" y1="50.0" x2="3530" y2="50.0" style="stroke:#999; stroke-width:3;" />
  <line x1="3530" y1="50.0" x2="3530" y2="50.0" style="stroke:#999; stroke-width:3;" />
  <line x1="3530" y1="50.0" x2="3550" y2="50.0" style="stroke:#999; stroke-width:3;" />
  <rect class="anc_exon" x="3550" y="35.0" width="102" height="30" style="fill:#87bcbc;fill-opacity:1.00" />
  <rect class="anc_exon" x="3652" y="35.0" width="0" height="30" style="fill:#87bcbc;fill-opacity:1.00" />
  <text style="" >
<tspan x="0" y="83.0" style="font-size:18px;" >SP XM_031960441_1.1</tspan>  </text>
  <text style="fill:#121212;" >
<tspan x="1996" y="50.0" style="font-size:18px;fill:#121212;" >at</tspan>  </text>
  <text style="fill:#121212;" >
<tspan x="2012.96" y="68.0" style="font-size:18px;fill:#121212;" >ac</tspan>  </text>



<script type="text/ecmascript">
<![CDATA[
function draw_bbox(text_id)
{
    var text_elem = document.getElementById(text_id);
    var offset_px = 2;
    var offset_py = 0;
    bbox = text_elem.getBBox();
    var box = document.createElementNS(document.rootElement.namespaceURI,'rect');
    box.setAttribute('x', bbox.x - offset_px);
    box.setAttribute('y', bbox.y - offset_py);
    box.setAttribute('width', bbox.width + offset_px * 2);
    box.setAttribute('height', bbox.height + offset_py * 2);
    box.setAttribute('style','fill: white;'+'stroke: black;'+'stroke-width: 1px;');
    text_elem.insertBefore(box,text_elem.childNodes[0]);

    var svg = text_elem.parentNode;
    svg.appendChild(text_elem);
}

for (var i=1; i < 1; i++)
{
draw_bbox("Mouseover" + i);
}
]]> 
</script>
</svg>
