<svg version="1.1"
xmlns="http://www.w3.org/2000/svg"
xmlns:xlink="http://www.w3.org/1999/xlink"
width="2131" height="100" viewBox = "0 0 2131 100"
onclick="mouseclick(evt)">

<script type="text/ecmascript">

<![CDATA[
    function mouseover(evt, target) { 
    var gv = document.getElementById("globalVariable");
    var previoustarget = gv.firstChild.nodeValue;
    if (previoustarget != "none") 
    {
        	document.getElementById(gv.firstChild.nodeValue).setAttributeNS(null, "visibility", "hidden");
    }
    document.getElementById(target).setAttributeNS(null, "visibility", "visible");
    gv.firstChild.nodeValue = target;
        }

    function mouseclick(evt) { 
    var gv = document.getElementById("globalVariable");
    var previoustarget = gv.firstChild.nodeValue;
    if (previoustarget != "none") {
        	document.getElementById(gv.firstChild.nodeValue).setAttributeNS(null, "visibility", "hidden");
        }
    }
]]>
  </script>
<style type="text/css" >

<![CDATA[
    rect.anc_exon {
              stroke-width:3;
                  }

    rect.non_anc_exon {
              stroke: black; stroke-width:3; stroke-dasharray: 5,5;
                    }

    text {
              font-size: 18px;
              font-family: Courier New;
          }
                    ]]>
</style>

<defs>
    <text x="150" y="40" id="globalVariable">none</text>
</defs>

  <rect class="anc_exon" x="0" y="35.0" width="0" height="30" style="fill:#87bcbc;fill-opacity:1.00" />
  <rect class="anc_exon" x="0" y="35.0" width="56.800000000000004" height="30" style="fill:#87bcbc;fill-opacity:1.00" />
  <line x1="56.800000000000004" y1="50.0" x2="75.80000000000001" y2="50.0" style="stroke:#999; stroke-width:3;" />
  <line x1="75.80000000000001" y1="50.0" x2="75.80000000000001" y2="50.0" style="stroke:#999; stroke-width:3;" />
  <line x1="75.80000000000001" y1="50.0" x2="75.80000000000001" y2="50.0" style="stroke:#999; stroke-width:3;" />
  <line x1="75.80000000000001" y1="50.0" x2="96.0" y2="50.0" style="stroke:#999; stroke-width:3;" />
  <rect class="anc_exon" x="96" y="35.0" width="97" height="30" style="fill:#87bcbc;fill-opacity:1.00" />
  <line x1="193" y1="50.0" x2="213" y2="50.0" style="stroke:#999; stroke-width:3;" />
  <line x1="213" y1="50.0" x2="213" y2="50.0" style="stroke:#999; stroke-width:3;" />
  <line x1="213" y1="50.0" x2="213" y2="50.0" style="stroke:#999; stroke-width:3;" />
  <line x1="213" y1="50.0" x2="233" y2="50.0" style="stroke:#999; stroke-width:3;" />
  <rect class="anc_exon" x="233" y="35.0" width="72" height="30" style="fill:#87bcbc;fill-opacity:1.00" />
  <line x1="305" y1="50.0" x2="325" y2="50.0" style="stroke:#999; stroke-width:3;" />
  <line x1="325" y1="50.0" x2="325" y2="50.0" style="stroke:#999; stroke-width:3;" />
  <line x1="325" y1="50.0" x2="325" y2="50.0" style="stroke:#999; stroke-width:3;" />
  <line x1="325" y1="50.0" x2="345" y2="50.0" style="stroke:#999; stroke-width:3;" />
  <rect class="anc_exon" x="345" y="35.0" width="40" height="30" style="fill:#87bcbc;fill-opacity:1.00" />
  <line x1="385" y1="50.0" x2="405" y2="50.0" style="stroke:#999; stroke-width:3;" />
  <line x1="405" y1="50.0" x2="405" y2="50.0" style="stroke:#999; stroke-width:3;" />
  <line x1="405" y1="50.0" x2="405" y2="50.0" style="stroke:#999; stroke-width:3;" />
  <line x1="405" y1="50.0" x2="425" y2="50.0" style="stroke:#999; stroke-width:3;" />
  <rect class="anc_exon" x="425" y="35.0" width="68" height="30" style="fill:#87bcbc;fill-opacity:1.00" />
  <line x1="493" y1="50.0" x2="513" y2="50.0" style="stroke:#999; stroke-width:3;" />
  <line x1="513" y1="50.0" x2="513" y2="50.0" style="stroke:#999; stroke-width:3;" />
  <line x1="513" y1="50.0" x2="513" y2="50.0" style="stroke:#999; stroke-width:3;" />
  <line x1="513" y1="50.0" x2="533" y2="50.0" style="stroke:#999; stroke-width:3;" />
  <rect class="anc_exon" x="533" y="35.0" width="105" height="30" style="fill:#87bcbc;fill-opacity:1.00" />
  <line x1="638" y1="50.0" x2="658" y2="50.0" style="stroke:#999; stroke-width:3;" />
  <line x1="658" y1="50.0" x2="658" y2="50.0" style="stroke:#999; stroke-width:3;" />
  <line x1="658" y1="50.0" x2="658" y2="50.0" style="stroke:#999; stroke-width:3;" />
  <line x1="658" y1="50.0" x2="678" y2="50.0" style="stroke:#999; stroke-width:3;" />
  <rect class="anc_exon" x="678" y="35.0" width="65" height="30" style="fill:#87bcbc;fill-opacity:1.00" />
  <line x1="743" y1="50.0" x2="783" y2="50.0" style="stroke:#999; stroke-width:3;" />
  <rect class="anc_exon" x="783" y="35.0" width="42" height="30" style="fill:#87bcbc;fill-opacity:1.00" />
  <line x1="825" y1="50.0" x2="845" y2="50.0" style="stroke:#999; stroke-width:3;" />
  <line x1="845" y1="50.0" x2="845" y2="50.0" style="stroke:#999; stroke-width:3;" />
  <line x1="845" y1="50.0" x2="845" y2="50.0" style="stroke:#999; stroke-width:3;" />
  <line x1="845" y1="50.0" x2="865" y2="50.0" style="stroke:#999; stroke-width:3;" />
  <rect class="anc_exon" x="865" y="35.0" width="151" height="30" style="fill:#87bcbc;fill-opacity:1.00" />
  <line x1="1016" y1="50.0" x2="1036" y2="50.0" style="stroke:#999; stroke-width:3;" />
  <line x1="1036" y1="50.0" x2="1036" y2="50.0" style="stroke:#999; stroke-width:3;" />
  <line x1="1036" y1="50.0" x2="1036" y2="50.0" style="stroke:#999; stroke-width:3;" />
  <line x1="1036" y1="50.0" x2="1056" y2="50.0" style="stroke:#999; stroke-width:3;" />
  <rect class="anc_exon" x="1056" y="35.0" width="78" height="30" style="fill:#87bcbc;fill-opacity:1.00" />
  <line x1="1134" y1="50.0" x2="1154" y2="50.0" style="stroke:#999; stroke-width:3;" />
  <line x1="1154" y1="50.0" x2="1154" y2="50.0" style="stroke:#999; stroke-width:3;" />
  <line x1="1154" y1="50.0" x2="1154" y2="50.0" style="stroke:#999; stroke-width:3;" />
  <line x1="1154" y1="50.0" x2="1174" y2="50.0" style="stroke:#999; stroke-width:3;" />
  <rect class="anc_exon" x="1174" y="35.0" width="69" height="30" style="fill:#87bcbc;fill-opacity:1.00" />
  <line x1="1243" y1="50.0" x2="1283" y2="50.0" style="stroke:#999; stroke-width:3;" />
  <rect class="anc_exon" x="1283" y="35.0" width="108" height="30" style="fill:#87bcbc;fill-opacity:1.00" />
  <line x1="1391" y1="50.0" x2="1411" y2="50.0" style="stroke:#999; stroke-width:3;" />
  <line x1="1411" y1="50.0" x2="1411" y2="50.0" style="stroke:#999; stroke-width:3;" />
  <line x1="1411" y1="50.0" x2="1411" y2="50.0" style="stroke:#999; stroke-width:3;" />
  <line x1="1411" y1="50.0" x2="1431" y2="50.0" style="stroke:#999; stroke-width:3;" />
  <rect class="anc_exon" x="1431" y="35.0" width="70" height="30" style="fill:#87bcbc;fill-opacity:1.00" />
  <line x1="1501" y1="50.0" x2="1521" y2="50.0" style="stroke:#999; stroke-width:3;" />
  <line x1="1521" y1="50.0" x2="1521" y2="50.0" style="stroke:#999; stroke-width:3;" />
  <line x1="1521" y1="50.0" x2="1521" y2="50.0" style="stroke:#999; stroke-width:3;" />
  <line x1="1521" y1="50.0" x2="1541" y2="50.0" style="stroke:#999; stroke-width:3;" />
  <rect class="anc_exon" x="1541" y="35.0" width="96" height="30" style="fill:#87bcbc;fill-opacity:1.00" />
  <line x1="1637" y1="50.0" x2="1657" y2="50.0" style="stroke:#999; stroke-width:3;" />
  <line x1="1657" y1="50.0" x2="1657" y2="50.0" style="stroke:#999; stroke-width:3;" />
  <line x1="1657" y1="50.0" x2="1657" y2="50.0" style="stroke:#999; stroke-width:3;" />
  <line x1="1657" y1="50.0" x2="1677" y2="50.0" style="stroke:#999; stroke-width:3;" />
  <rect class="anc_exon" x="1677" y="35.0" width="64" height="30" style="fill:#87bcbc;fill-opacity:1.00" />
  <line x1="1741" y1="50.0" x2="1781" y2="50.0" style="stroke:#999; stroke-width:3;" />
  <rect class="anc_exon" x="1781" y="35.0" width="72" height="30" style="fill:#87bcbc;fill-opacity:1.00" />
  <line x1="1853" y1="50.0" x2="1873" y2="50.0" style="stroke:#999; stroke-width:3;" />
  <line x1="1873" y1="50.0" x2="1873" y2="50.0" style="stroke:#999; stroke-width:3;" />
  <line x1="1873" y1="50.0" x2="1873" y2="50.0" style="stroke:#999; stroke-width:3;" />
  <line x1="1873" y1="50.0" x2="1893" y2="50.0" style="stroke:#999; stroke-width:3;" />
  <rect class="anc_exon" x="1893" y="35.0" width="92" height="30" style="fill:#87bcbc;fill-opacity:1.00" />
  <line x1="1985" y1="50.0" x2="2025" y2="50.0" style="stroke:#999; stroke-width:3;" />
  <rect class="anc_exon" x="2025" y="35.0" width="70" height="30" style="fill:#87bcbc;fill-opacity:1.00" />
  <rect class="anc_exon" x="2095" y="35.0" width="0" height="30" style="fill:#87bcbc;fill-opacity:1.00" />
  <text style="" >
<tspan x="0" y="83.0" style="font-size:18px;" >SP XM_031963008_1.1</tspan>  </text>



<script type="text/ecmascript">
<![CDATA[
function draw_bbox(text_id)
{
    var text_elem = document.getElementById(text_id);
    var offset_px = 2;
    var offset_py = 0;
    bbox = text_elem.getBBox();
    var box = document.createElementNS(document.rootElement.namespaceURI,'rect');
    box.setAttribute('x', bbox.x - offset_px);
    box.setAttribute('y', bbox.y - offset_py);
    box.setAttribute('width', bbox.width + offset_px * 2);
    box.setAttribute('height', bbox.height + offset_py * 2);
    box.setAttribute('style','fill: white;'+'stroke: black;'+'stroke-width: 1px;');
    text_elem.insertBefore(box,text_elem.childNodes[0]);

    var svg = text_elem.parentNode;
    svg.appendChild(text_elem);
}

for (var i=1; i < 1; i++)
{
draw_bbox("Mouseover" + i);
}
]]> 
</script>
</svg>
