<svg version="1.1"
xmlns="http://www.w3.org/2000/svg"
xmlns:xlink="http://www.w3.org/1999/xlink"
width="1279" height="100" viewBox = "0 0 1279 100"
onclick="mouseclick(evt)">

<script type="text/ecmascript">

<![CDATA[
    function mouseover(evt, target) { 
    var gv = document.getElementById("globalVariable");
    var previoustarget = gv.firstChild.nodeValue;
    if (previoustarget != "none") 
    {
        	document.getElementById(gv.firstChild.nodeValue).setAttributeNS(null, "visibility", "hidden");
    }
    document.getElementById(target).setAttributeNS(null, "visibility", "visible");
    gv.firstChild.nodeValue = target;
        }

    function mouseclick(evt) { 
    var gv = document.getElementById("globalVariable");
    var previoustarget = gv.firstChild.nodeValue;
    if (previoustarget != "none") {
        	document.getElementById(gv.firstChild.nodeValue).setAttributeNS(null, "visibility", "hidden");
        }
    }
]]>
  </script>
<style type="text/css" >

<![CDATA[
    rect.anc_exon {
              stroke-width:3;
                  }

    rect.non_anc_exon {
              stroke: black; stroke-width:3; stroke-dasharray: 5,5;
                    }

    text {
              font-size: 18px;
              font-family: Courier New;
          }
                    ]]>
</style>

<defs>
    <text x="150" y="40" id="globalVariable">none</text>
</defs>

  <rect class="anc_exon" x="0" y="35.0" width="0" height="30" style="fill:#87bcbc;fill-opacity:1.00" />
  <rect class="anc_exon" x="0" y="35.0" width="31.200000000000003" height="30" style="fill:#87bcbc;fill-opacity:1.00" />
  <line x1="31.200000000000003" y1="50.0" x2="71.0" y2="50.0" style="stroke:#999; stroke-width:3;" />
  <rect class="anc_exon" x="71" y="35.0" width="26" height="30" style="fill:#87bcbc;fill-opacity:1.00" />
  <line x1="97" y1="50.0" x2="137" y2="50.0" style="stroke:#999; stroke-width:3;" />
  <rect class="anc_exon" x="137" y="35.0" width="47" height="30" style="fill:#87bcbc;fill-opacity:1.00" />
  <line x1="184" y1="50.0" x2="204" y2="50.0" style="stroke:#999; stroke-width:3;" />
  <line x1="204" y1="50.0" x2="204" y2="50.0" style="stroke:#999; stroke-width:3;" />
  <line x1="204" y1="50.0" x2="204" y2="50.0" style="stroke:#999; stroke-width:3;" />
  <line x1="204" y1="50.0" x2="224" y2="50.0" style="stroke:#999; stroke-width:3;" />
  <rect class="anc_exon" x="224" y="35.0" width="53" height="30" style="fill:#87bcbc;fill-opacity:1.00" />
  <line x1="277" y1="50.0" x2="317" y2="50.0" style="stroke:#999; stroke-width:3;" />
  <rect class="anc_exon" x="317" y="35.0" width="40" height="30" style="fill:#87bcbc;fill-opacity:1.00" />
  <line x1="357" y1="50.0" x2="397" y2="50.0" style="stroke:#999; stroke-width:3;" />
  <rect class="anc_exon" x="397" y="35.0" width="141" height="30" style="fill:#87bcbc;fill-opacity:1.00" />
  <line x1="538" y1="50.0" x2="578" y2="50.0" style="stroke:#999; stroke-width:3;" />
  <rect class="anc_exon" x="578" y="35.0" width="105" height="30" style="fill:#87bcbc;fill-opacity:1.00" />
  <line x1="683" y1="50.0" x2="723" y2="50.0" style="stroke:#999; stroke-width:3;" />
  <rect class="anc_exon" x="723" y="35.0" width="74" height="30" style="fill:#87bcbc;fill-opacity:1.00" />
  <line x1="797" y1="50.0" x2="817" y2="50.0" style="stroke:#999; stroke-width:3;" />
  <line x1="817" y1="50.0" x2="817" y2="50.0" style="stroke:#999; stroke-width:3;" />
  <line x1="817" y1="50.0" x2="817" y2="50.0" style="stroke:#999; stroke-width:3;" />
  <line x1="817" y1="50.0" x2="837" y2="50.0" style="stroke:#999; stroke-width:3;" />
  <rect class="anc_exon" x="837" y="35.0" width="49" height="30" style="fill:#87bcbc;fill-opacity:1.00" />
  <line x1="886" y1="50.0" x2="926" y2="50.0" style="stroke:#999; stroke-width:3;" />
  <rect class="anc_exon" x="926" y="35.0" width="61" height="30" style="fill:#87bcbc;fill-opacity:1.00" />
  <line x1="987" y1="50.0" x2="1027" y2="50.0" style="stroke:#999; stroke-width:3;" />
  <rect class="anc_exon" x="1027" y="35.0" width="51" height="30" style="fill:#87bcbc;fill-opacity:1.00" />
  <line x1="1078" y1="50.0" x2="1098" y2="50.0" style="stroke:#999; stroke-width:3;" />
  <line x1="1098" y1="50.0" x2="1098" y2="50.0" style="stroke:#999; stroke-width:3;" />
  <line x1="1098" y1="50.0" x2="1098" y2="50.0" style="stroke:#999; stroke-width:3;" />
  <line x1="1098" y1="50.0" x2="1118" y2="50.0" style="stroke:#999; stroke-width:3;" />
  <rect class="anc_exon" x="1118" y="35.0" width="125" height="30" style="fill:#87bcbc;fill-opacity:1.00" />
  <rect class="anc_exon" x="1243" y="35.0" width="0" height="30" style="fill:#87bcbc;fill-opacity:1.00" />
  <text style="" >
<tspan x="0" y="83.0" style="font-size:18px;" >SP XM_031960299_1.1</tspan>  </text>



<script type="text/ecmascript">
<![CDATA[
function draw_bbox(text_id)
{
    var text_elem = document.getElementById(text_id);
    var offset_px = 2;
    var offset_py = 0;
    bbox = text_elem.getBBox();
    var box = document.createElementNS(document.rootElement.namespaceURI,'rect');
    box.setAttribute('x', bbox.x - offset_px);
    box.setAttribute('y', bbox.y - offset_py);
    box.setAttribute('width', bbox.width + offset_px * 2);
    box.setAttribute('height', bbox.height + offset_py * 2);
    box.setAttribute('style','fill: white;'+'stroke: black;'+'stroke-width: 1px;');
    text_elem.insertBefore(box,text_elem.childNodes[0]);

    var svg = text_elem.parentNode;
    svg.appendChild(text_elem);
}

for (var i=1; i < 1; i++)
{
draw_bbox("Mouseover" + i);
}
]]> 
</script>
</svg>
