<svg version="1.1"
xmlns="http://www.w3.org/2000/svg"
xmlns:xlink="http://www.w3.org/1999/xlink"
width="3012" height="100" viewBox = "0 0 3012 100"
onclick="mouseclick(evt)">

<script type="text/ecmascript">

<![CDATA[
    function mouseover(evt, target) { 
    var gv = document.getElementById("globalVariable");
    var previoustarget = gv.firstChild.nodeValue;
    if (previoustarget != "none") 
    {
        	document.getElementById(gv.firstChild.nodeValue).setAttributeNS(null, "visibility", "hidden");
    }
    document.getElementById(target).setAttributeNS(null, "visibility", "visible");
    gv.firstChild.nodeValue = target;
        }

    function mouseclick(evt) { 
    var gv = document.getElementById("globalVariable");
    var previoustarget = gv.firstChild.nodeValue;
    if (previoustarget != "none") {
        	document.getElementById(gv.firstChild.nodeValue).setAttributeNS(null, "visibility", "hidden");
        }
    }
]]>
  </script>
<style type="text/css" >

<![CDATA[
    rect.anc_exon {
              stroke-width:3;
                  }

    rect.non_anc_exon {
              stroke: black; stroke-width:3; stroke-dasharray: 5,5;
                    }

    text {
              font-size: 18px;
              font-family: Courier New;
          }
                    ]]>
</style>

<defs>
    <text x="150" y="40" id="globalVariable">none</text>
</defs>

  <rect class="anc_exon" x="0" y="35.0" width="0" height="30" style="fill:#87bcbc;fill-opacity:1.00" />
  <rect class="anc_exon" x="0" y="35.0" width="81.60000000000001" height="30" style="fill:#87bcbc;fill-opacity:1.00" />
  <line x1="81.60000000000001" y1="50.0" x2="100.60000000000001" y2="50.0" style="stroke:#999; stroke-width:3;" />
  <line x1="100.60000000000001" y1="50.0" x2="100.60000000000001" y2="50.0" style="stroke:#999; stroke-width:3;" />
  <line x1="100.60000000000001" y1="50.0" x2="100.60000000000001" y2="50.0" style="stroke:#999; stroke-width:3;" />
  <line x1="100.60000000000001" y1="50.0" x2="121.0" y2="50.0" style="stroke:#999; stroke-width:3;" />
  <rect class="anc_exon" x="121" y="35.0" width="118" height="30" style="fill:#87bcbc;fill-opacity:1.00" />
  <line x1="239" y1="50.0" x2="279" y2="50.0" style="stroke:#999; stroke-width:3;" />
  <rect class="anc_exon" x="279" y="35.0" width="90" height="30" style="fill:#87bcbc;fill-opacity:1.00" />
  <line x1="369" y1="50.0" x2="389" y2="50.0" style="stroke:#999; stroke-width:3;" />
  <line x1="389" y1="50.0" x2="389" y2="50.0" style="stroke:#999; stroke-width:3;" />
  <line x1="389" y1="50.0" x2="389" y2="50.0" style="stroke:#999; stroke-width:3;" />
  <line x1="389" y1="50.0" x2="409" y2="50.0" style="stroke:#999; stroke-width:3;" />
  <rect class="anc_exon" x="409" y="35.0" width="76" height="30" style="fill:#87bcbc;fill-opacity:1.00" />
  <line x1="485" y1="50.0" x2="525" y2="50.0" style="stroke:#999; stroke-width:3;" />
  <rect class="anc_exon" x="525" y="35.0" width="77" height="30" style="fill:#87bcbc;fill-opacity:1.00" />
  <line x1="602" y1="50.0" x2="622" y2="50.0" style="stroke:#999; stroke-width:3;" />
  <line x1="622" y1="50.0" x2="622" y2="50.0" style="stroke:#999; stroke-width:3;" />
  <line x1="622" y1="50.0" x2="622" y2="50.0" style="stroke:#999; stroke-width:3;" />
  <line x1="622" y1="50.0" x2="642" y2="50.0" style="stroke:#999; stroke-width:3;" />
  <rect class="anc_exon" x="642" y="35.0" width="98" height="30" style="fill:#87bcbc;fill-opacity:1.00" />
  <line x1="740" y1="50.0" x2="780" y2="50.0" style="stroke:#999; stroke-width:3;" />
  <rect class="anc_exon" x="780" y="35.0" width="116" height="30" style="fill:#87bcbc;fill-opacity:1.00" />
  <line x1="896" y1="50.0" x2="936" y2="50.0" style="stroke:#999; stroke-width:3;" />
  <rect class="anc_exon" x="936" y="35.0" width="60" height="30" style="fill:#87bcbc;fill-opacity:1.00" />
  <line x1="996" y1="50.0" x2="1036" y2="50.0" style="stroke:#999; stroke-width:3;" />
  <rect class="anc_exon" x="1036" y="35.0" width="175" height="30" style="fill:#87bcbc;fill-opacity:1.00" />
  <line x1="1211" y1="50.0" x2="1251" y2="50.0" style="stroke:#999; stroke-width:3;" />
  <rect class="anc_exon" x="1251" y="35.0" width="128" height="30" style="fill:#87bcbc;fill-opacity:1.00" />
  <line x1="1379" y1="50.0" x2="1419" y2="50.0" style="stroke:#999; stroke-width:3;" />
  <rect class="anc_exon" x="1419" y="35.0" width="113" height="30" style="fill:#87bcbc;fill-opacity:1.00" />
  <line x1="1532" y1="50.0" x2="1572" y2="50.0" style="stroke:#999; stroke-width:3;" />
  <rect class="anc_exon" x="1572" y="35.0" width="80" height="30" style="fill:#87bcbc;fill-opacity:1.00" />
  <line x1="1652" y1="50.0" x2="1692" y2="50.0" style="stroke:#999; stroke-width:3;" />
  <rect class="anc_exon" x="1692" y="35.0" width="95" height="30" style="fill:#87bcbc;fill-opacity:1.00" />
  <line x1="1787" y1="50.0" x2="1827" y2="50.0" style="stroke:#999; stroke-width:3;" />
  <rect class="anc_exon" x="1827" y="35.0" width="159" height="30" style="fill:#87bcbc;fill-opacity:1.00" />
  <line x1="1986" y1="50.0" x2="2026" y2="50.0" style="stroke:#999; stroke-width:3;" />
  <rect class="anc_exon" x="2026" y="35.0" width="60" height="30" style="fill:#87bcbc;fill-opacity:1.00" />
  <line x1="2086" y1="50.0" x2="2126" y2="50.0" style="stroke:#999; stroke-width:3;" />
  <rect class="anc_exon" x="2126" y="35.0" width="88" height="30" style="fill:#87bcbc;fill-opacity:1.00" />
  <line x1="2214" y1="50.0" x2="2234" y2="50.0" style="stroke:#999; stroke-width:3;" />
  <line x1="2234" y1="50.0" x2="2234" y2="50.0" style="stroke:#999; stroke-width:3;" />
  <line x1="2234" y1="50.0" x2="2234" y2="50.0" style="stroke:#999; stroke-width:3;" />
  <line x1="2234" y1="50.0" x2="2254" y2="50.0" style="stroke:#999; stroke-width:3;" />
  <rect class="anc_exon" x="2254" y="35.0" width="157" height="30" style="fill:#87bcbc;fill-opacity:1.00" />
  <line x1="2411" y1="50.0" x2="2431" y2="50.0" style="stroke:#999; stroke-width:3;" />
  <line x1="2431" y1="50.0" x2="2431" y2="50.0" style="stroke:#999; stroke-width:3;" />
  <line x1="2431" y1="50.0" x2="2431" y2="50.0" style="stroke:#999; stroke-width:3;" />
  <line x1="2431" y1="50.0" x2="2451" y2="50.0" style="stroke:#999; stroke-width:3;" />
  <rect class="anc_exon" x="2451" y="35.0" width="91" height="30" style="fill:#87bcbc;fill-opacity:1.00" />
  <line x1="2542" y1="50.0" x2="2582" y2="50.0" style="stroke:#999; stroke-width:3;" />
  <rect class="anc_exon" x="2582" y="35.0" width="66" height="30" style="fill:#87bcbc;fill-opacity:1.00" />
  <line x1="2648" y1="50.0" x2="2668" y2="50.0" style="stroke:#999; stroke-width:3;" />
  <line x1="2668" y1="50.0" x2="2668" y2="50.0" style="stroke:#999; stroke-width:3;" />
  <line x1="2668" y1="50.0" x2="2668" y2="50.0" style="stroke:#999; stroke-width:3;" />
  <line x1="2668" y1="50.0" x2="2688" y2="50.0" style="stroke:#999; stroke-width:3;" />
  <rect class="anc_exon" x="2688" y="35.0" width="112" height="30" style="fill:#87bcbc;fill-opacity:1.00" />
  <line x1="2800" y1="50.0" x2="2840" y2="50.0" style="stroke:#999; stroke-width:3;" />
  <rect class="anc_exon" x="2840" y="35.0" width="136" height="30" style="fill:#87bcbc;fill-opacity:1.00" />
  <rect class="anc_exon" x="2976" y="35.0" width="0" height="30" style="fill:#87bcbc;fill-opacity:1.00" />
  <text style="" >
<tspan x="0" y="83.0" style="font-size:18px;" >SP XM_003763560_4.1</tspan>  </text>
  <text style="fill:#121212;" >
<tspan x="1379" y="50.0" style="font-size:18px;fill:#121212;" >at</tspan>  </text>
  <text style="fill:#121212;" >
<tspan x="1395.96" y="68.0" style="font-size:18px;fill:#121212;" >ac</tspan>  </text>



<script type="text/ecmascript">
<![CDATA[
function draw_bbox(text_id)
{
    var text_elem = document.getElementById(text_id);
    var offset_px = 2;
    var offset_py = 0;
    bbox = text_elem.getBBox();
    var box = document.createElementNS(document.rootElement.namespaceURI,'rect');
    box.setAttribute('x', bbox.x - offset_px);
    box.setAttribute('y', bbox.y - offset_py);
    box.setAttribute('width', bbox.width + offset_px * 2);
    box.setAttribute('height', bbox.height + offset_py * 2);
    box.setAttribute('style','fill: white;'+'stroke: black;'+'stroke-width: 1px;');
    text_elem.insertBefore(box,text_elem.childNodes[0]);

    var svg = text_elem.parentNode;
    svg.appendChild(text_elem);
}

for (var i=1; i < 1; i++)
{
draw_bbox("Mouseover" + i);
}
]]> 
</script>
</svg>
