<svg version="1.1"
xmlns="http://www.w3.org/2000/svg"
xmlns:xlink="http://www.w3.org/1999/xlink"
width="3913" height="100" viewBox = "0 0 3913 100"
onclick="mouseclick(evt)">

<script type="text/ecmascript">

<![CDATA[
    function mouseover(evt, target) { 
    var gv = document.getElementById("globalVariable");
    var previoustarget = gv.firstChild.nodeValue;
    if (previoustarget != "none") 
    {
        	document.getElementById(gv.firstChild.nodeValue).setAttributeNS(null, "visibility", "hidden");
    }
    document.getElementById(target).setAttributeNS(null, "visibility", "visible");
    gv.firstChild.nodeValue = target;
        }

    function mouseclick(evt) { 
    var gv = document.getElementById("globalVariable");
    var previoustarget = gv.firstChild.nodeValue;
    if (previoustarget != "none") {
        	document.getElementById(gv.firstChild.nodeValue).setAttributeNS(null, "visibility", "hidden");
        }
    }
]]>
  </script>
<style type="text/css" >

<![CDATA[
    rect.anc_exon {
              stroke-width:3;
                  }

    rect.non_anc_exon {
              stroke: black; stroke-width:3; stroke-dasharray: 5,5;
                    }

    text {
              font-size: 18px;
              font-family: Courier New;
          }
                    ]]>
</style>

<defs>
    <text x="150" y="40" id="globalVariable">none</text>
</defs>

  <rect class="anc_exon" x="0" y="35.0" width="0" height="30" style="fill:#87bcbc;fill-opacity:1.00" />
  <rect class="anc_exon" x="0" y="35.0" width="91.2" height="30" style="fill:#87bcbc;fill-opacity:1.00" />
  <line x1="91.2" y1="50.0" x2="131.0" y2="50.0" style="stroke:#999; stroke-width:3;" />
  <rect class="anc_exon" x="131" y="35.0" width="106" height="30" style="fill:#87bcbc;fill-opacity:1.00" />
  <line x1="237" y1="50.0" x2="257" y2="50.0" style="stroke:#999; stroke-width:3;" />
  <line x1="257" y1="50.0" x2="257" y2="50.0" style="stroke:#999; stroke-width:3;" />
  <line x1="257" y1="50.0" x2="257" y2="50.0" style="stroke:#999; stroke-width:3;" />
  <line x1="257" y1="50.0" x2="277" y2="50.0" style="stroke:#999; stroke-width:3;" />
  <rect class="anc_exon" x="277" y="35.0" width="191" height="30" style="fill:#87bcbc;fill-opacity:1.00" />
  <line x1="468" y1="50.0" x2="488" y2="50.0" style="stroke:#999; stroke-width:3;" />
  <line x1="488" y1="50.0" x2="488" y2="50.0" style="stroke:#999; stroke-width:3;" />
  <line x1="488" y1="50.0" x2="488" y2="50.0" style="stroke:#999; stroke-width:3;" />
  <line x1="488" y1="50.0" x2="508" y2="50.0" style="stroke:#999; stroke-width:3;" />
  <rect class="anc_exon" x="508" y="35.0" width="139" height="30" style="fill:#87bcbc;fill-opacity:1.00" />
  <line x1="647" y1="50.0" x2="687" y2="50.0" style="stroke:#999; stroke-width:3;" />
  <rect class="anc_exon" x="687" y="35.0" width="285" height="30" style="fill:#87bcbc;fill-opacity:1.00" />
  <line x1="972" y1="50.0" x2="992" y2="50.0" style="stroke:#999; stroke-width:3;" />
  <line x1="992" y1="50.0" x2="992" y2="50.0" style="stroke:#999; stroke-width:3;" />
  <line x1="992" y1="50.0" x2="992" y2="50.0" style="stroke:#999; stroke-width:3;" />
  <line x1="992" y1="50.0" x2="1012" y2="50.0" style="stroke:#999; stroke-width:3;" />
  <rect class="anc_exon" x="1012" y="35.0" width="381" height="30" style="fill:#87bcbc;fill-opacity:1.00" />
  <line x1="1393" y1="50.0" x2="1413" y2="50.0" style="stroke:#999; stroke-width:3;" />
  <line x1="1413" y1="50.0" x2="1413" y2="50.0" style="stroke:#999; stroke-width:3;" />
  <line x1="1413" y1="50.0" x2="1413" y2="50.0" style="stroke:#999; stroke-width:3;" />
  <line x1="1413" y1="50.0" x2="1433" y2="50.0" style="stroke:#999; stroke-width:3;" />
  <rect class="anc_exon" x="1433" y="35.0" width="96" height="30" style="fill:#87bcbc;fill-opacity:1.00" />
  <line x1="1529" y1="50.0" x2="1549" y2="50.0" style="stroke:#999; stroke-width:3;" />
  <line x1="1549" y1="50.0" x2="1549" y2="50.0" style="stroke:#999; stroke-width:3;" />
  <line x1="1549" y1="50.0" x2="1549" y2="50.0" style="stroke:#999; stroke-width:3;" />
  <line x1="1549" y1="50.0" x2="1569" y2="50.0" style="stroke:#999; stroke-width:3;" />
  <rect class="anc_exon" x="1569" y="35.0" width="124" height="30" style="fill:#87bcbc;fill-opacity:1.00" />
  <line x1="1693" y1="50.0" x2="1733" y2="50.0" style="stroke:#999; stroke-width:3;" />
  <rect class="anc_exon" x="1733" y="35.0" width="139" height="30" style="fill:#87bcbc;fill-opacity:1.00" />
  <line x1="1872" y1="50.0" x2="1892" y2="50.0" style="stroke:#999; stroke-width:3;" />
  <line x1="1892" y1="50.0" x2="1892" y2="50.0" style="stroke:#999; stroke-width:3;" />
  <line x1="1892" y1="50.0" x2="1892" y2="50.0" style="stroke:#999; stroke-width:3;" />
  <line x1="1892" y1="50.0" x2="1912" y2="50.0" style="stroke:#999; stroke-width:3;" />
  <rect class="anc_exon" x="1912" y="35.0" width="98" height="30" style="fill:#87bcbc;fill-opacity:1.00" />
  <line x1="2010" y1="50.0" x2="2030" y2="50.0" style="stroke:#999; stroke-width:3;" />
  <line x1="2030" y1="50.0" x2="2030" y2="50.0" style="stroke:#999; stroke-width:3;" />
  <line x1="2030" y1="50.0" x2="2030" y2="50.0" style="stroke:#999; stroke-width:3;" />
  <line x1="2030" y1="50.0" x2="2050" y2="50.0" style="stroke:#999; stroke-width:3;" />
  <rect class="anc_exon" x="2050" y="35.0" width="218" height="30" style="fill:#87bcbc;fill-opacity:1.00" />
  <line x1="2268" y1="50.0" x2="2288" y2="50.0" style="stroke:#999; stroke-width:3;" />
  <line x1="2288" y1="50.0" x2="2288" y2="50.0" style="stroke:#999; stroke-width:3;" />
  <line x1="2288" y1="50.0" x2="2288" y2="50.0" style="stroke:#999; stroke-width:3;" />
  <line x1="2288" y1="50.0" x2="2308" y2="50.0" style="stroke:#999; stroke-width:3;" />
  <rect class="anc_exon" x="2308" y="35.0" width="43" height="30" style="fill:#87bcbc;fill-opacity:1.00" />
  <line x1="2351" y1="50.0" x2="2391" y2="50.0" style="stroke:#999; stroke-width:3;" />
  <rect class="anc_exon" x="2391" y="35.0" width="110" height="30" style="fill:#87bcbc;fill-opacity:1.00" />
  <line x1="2501" y1="50.0" x2="2541" y2="50.0" style="stroke:#999; stroke-width:3;" />
  <rect class="anc_exon" x="2541" y="35.0" width="84" height="30" style="fill:#87bcbc;fill-opacity:1.00" />
  <line x1="2625" y1="50.0" x2="2665" y2="50.0" style="stroke:#999; stroke-width:3;" />
  <rect class="anc_exon" x="2665" y="35.0" width="216" height="30" style="fill:#87bcbc;fill-opacity:1.00" />
  <line x1="2881" y1="50.0" x2="2901" y2="50.0" style="stroke:#999; stroke-width:3;" />
  <line x1="2901" y1="50.0" x2="2901" y2="50.0" style="stroke:#999; stroke-width:3;" />
  <line x1="2901" y1="50.0" x2="2901" y2="50.0" style="stroke:#999; stroke-width:3;" />
  <line x1="2901" y1="50.0" x2="2921" y2="50.0" style="stroke:#999; stroke-width:3;" />
  <rect class="anc_exon" x="2921" y="35.0" width="956" height="30" style="fill:#878787;fill-opacity:1.00" />
  <rect class="anc_exon" x="3877" y="35.0" width="0" height="30" style="fill:#87bcbc;fill-opacity:1.00" />
  <text style="" >
<tspan x="0" y="83.0" style="font-size:18px;" >SP XM_031960555_1.1</tspan>  </text>
  <text style="fill:#121212;" >
<tspan x="2501" y="50.0" style="font-size:18px;fill:#121212;" >at</tspan>  </text>
  <text style="fill:#121212;" >
<tspan x="2517.96" y="68.0" style="font-size:18px;fill:#121212;" >ac</tspan>  </text>



<script type="text/ecmascript">
<![CDATA[
function draw_bbox(text_id)
{
    var text_elem = document.getElementById(text_id);
    var offset_px = 2;
    var offset_py = 0;
    bbox = text_elem.getBBox();
    var box = document.createElementNS(document.rootElement.namespaceURI,'rect');
    box.setAttribute('x', bbox.x - offset_px);
    box.setAttribute('y', bbox.y - offset_py);
    box.setAttribute('width', bbox.width + offset_px * 2);
    box.setAttribute('height', bbox.height + offset_py * 2);
    box.setAttribute('style','fill: white;'+'stroke: black;'+'stroke-width: 1px;');
    text_elem.insertBefore(box,text_elem.childNodes[0]);

    var svg = text_elem.parentNode;
    svg.appendChild(text_elem);
}

for (var i=1; i < 1; i++)
{
draw_bbox("Mouseover" + i);
}
]]> 
</script>
</svg>
