<svg version="1.1"
xmlns="http://www.w3.org/2000/svg"
xmlns:xlink="http://www.w3.org/1999/xlink"
width="2327" height="110.0" viewBox = "0 -10.0 2327 110.0"
onclick="mouseclick(evt)">

<script type="text/ecmascript">

<![CDATA[
    function mouseover(evt, target) { 
    var gv = document.getElementById("globalVariable");
    var previoustarget = gv.firstChild.nodeValue;
    if (previoustarget != "none") 
    {
        	document.getElementById(gv.firstChild.nodeValue).setAttributeNS(null, "visibility", "hidden");
    }
    document.getElementById(target).setAttributeNS(null, "visibility", "visible");
    gv.firstChild.nodeValue = target;
        }

    function mouseclick(evt) { 
    var gv = document.getElementById("globalVariable");
    var previoustarget = gv.firstChild.nodeValue;
    if (previoustarget != "none") {
        	document.getElementById(gv.firstChild.nodeValue).setAttributeNS(null, "visibility", "hidden");
        }
    }
]]>
  </script>
<style type="text/css" >

<![CDATA[
    rect.anc_exon {
              stroke-width:3;
                  }

    rect.non_anc_exon {
              stroke: black; stroke-width:3; stroke-dasharray: 5,5;
                    }

    text {
              font-size: 18px;
              font-family: Courier New;
          }
                    ]]>
</style>

<defs>
    <text x="150" y="40" id="globalVariable">none</text>
</defs>

  <rect class="anc_exon" x="0" y="35.0" width="0" height="30" style="fill:#87bcbc;fill-opacity:1.00" />
  <rect class="anc_exon" x="0" y="35.0" width="81.60000000000001" height="30" style="fill:#87bcbc;fill-opacity:1.00" />
  <line x1="81.60000000000001" y1="50.0" x2="100.60000000000001" y2="50.0" style="stroke:#999; stroke-width:3;" />
  <line x1="100.60000000000001" y1="50.0" x2="100.60000000000001" y2="50.0" style="stroke:#999; stroke-width:3;" />
  <line x1="100.60000000000001" y1="50.0" x2="100.60000000000001" y2="50.0" style="stroke:#999; stroke-width:3;" />
  <line x1="100.60000000000001" y1="50.0" x2="121.0" y2="50.0" style="stroke:#999; stroke-width:3;" />
  <rect class="anc_exon" x="121" y="35.0" width="139" height="30" style="fill:#87bcbc;fill-opacity:1.00" />
  <line x1="260" y1="50.0" x2="300" y2="50.0" style="stroke:#999; stroke-width:3;" />
  <rect class="anc_exon" x="300" y="35.0" width="104" height="30" style="fill:#87bcbc;fill-opacity:1.00" />
  <line x1="404" y1="50.0" x2="424" y2="50.0" style="stroke:#999; stroke-width:3;" />
  <line x1="424" y1="50.0" x2="424" y2="50.0" style="stroke:#999; stroke-width:3;" />
  <line x1="424" y1="50.0" x2="424" y2="50.0" style="stroke:#999; stroke-width:3;" />
  <line x1="424" y1="50.0" x2="444" y2="50.0" style="stroke:#999; stroke-width:3;" />
  <rect class="anc_exon" x="444" y="35.0" width="90" height="30" style="fill:#87bcbc;fill-opacity:1.00" />
  <line x1="534" y1="50.0" x2="574" y2="50.0" style="stroke:#999; stroke-width:3;" />
  <rect class="anc_exon" x="574" y="35.0" width="157" height="30" style="fill:#87bcbc;fill-opacity:1.00" />
  <line x1="731" y1="50.0" x2="771" y2="50.0" style="stroke:#999; stroke-width:3;" />
  <rect class="anc_exon" x="771" y="35.0" width="193" height="30" style="fill:#87bcbc;fill-opacity:1.00" />
  <line x1="964" y1="50.0" x2="984" y2="50.0" style="stroke:#999; stroke-width:3;" />
  <line x1="984" y1="50.0" x2="984" y2="50.0" style="stroke:#999; stroke-width:3;" />
  <line x1="984" y1="50.0" x2="984" y2="50.0" style="stroke:#999; stroke-width:3;" />
  <line x1="984" y1="50.0" x2="1004" y2="50.0" style="stroke:#999; stroke-width:3;" />
  <rect class="anc_exon" x="1004" y="35.0" width="104" height="30" style="fill:#87bcbc;fill-opacity:1.00" />
  <line x1="1108" y1="50.0" x2="1148" y2="50.0" style="stroke:#999; stroke-width:3;" />
  <rect class="anc_exon" x="1148" y="35.0" width="60" height="30" style="fill:#87bcbc;fill-opacity:1.00" />
  <line x1="1208" y1="50.0" x2="1248" y2="50.0" style="stroke:#999; stroke-width:3;" />
  <rect class="anc_exon" x="1248" y="35.0" width="127" height="30" style="fill:#87bcbc;fill-opacity:1.00" />
  <line x1="1375" y1="50.0" x2="1415" y2="50.0" style="stroke:#999; stroke-width:3;" />
  <rect class="anc_exon" x="1415" y="35.0" width="103" height="30" style="fill:#87bcbc;fill-opacity:1.00" />
  <line x1="1518" y1="50.0" x2="1538" y2="50.0" style="stroke:#999; stroke-width:3;" />
  <line x1="1538" y1="50.0" x2="1538" y2="50.0" style="stroke:#999; stroke-width:3;" />
  <line x1="1538" y1="50.0" x2="1538" y2="50.0" style="stroke:#999; stroke-width:3;" />
  <line x1="1538" y1="50.0" x2="1558" y2="50.0" style="stroke:#999; stroke-width:3;" />
  <rect class="anc_exon" x="1558" y="35.0" width="80" height="30" style="fill:#87bcbc;fill-opacity:1.00" />
  <line x1="1638" y1="50.0" x2="1678" y2="50.0" style="stroke:#999; stroke-width:3;" />
  <rect class="anc_exon" x="1678" y="35.0" width="122" height="30" style="fill:#87bcbc;fill-opacity:1.00" />
  <line x1="1772.4" y1="35.0" x2="1772.4" y2="65.0" style="stroke:#121212;stroke-width:3;"/>
  <text style="" text-anchor="middle">
<tspan x="1771.6" y="26.0" style="font-size:18px;fill:#121212;" >TAA</tspan>  </text>
  <line x1="1800" y1="50.0" x2="1820" y2="50.0" style="stroke:#999; stroke-width:3;" />
  <line x1="1820" y1="50.0" x2="1820" y2="50.0" style="stroke:#999; stroke-width:3;" />
  <line x1="1820" y1="50.0" x2="1820" y2="50.0" style="stroke:#999; stroke-width:3;" />
  <line x1="1820" y1="50.0" x2="1840" y2="50.0" style="stroke:#999; stroke-width:3;" />
  <rect class="anc_exon" x="1840" y="35.0" width="66" height="30" style="fill:#87bcbc;fill-opacity:1.00" />
  <line x1="1906" y1="50.0" x2="1946" y2="50.0" style="stroke:#999; stroke-width:3;" />
  <rect class="anc_exon" x="1946" y="35.0" width="60" height="30" style="fill:#87bcbc;fill-opacity:1.00" />
  <line x1="2006" y1="50.0" x2="2046" y2="50.0" style="stroke:#999; stroke-width:3;" />
  <rect class="anc_exon" x="2046" y="35.0" width="124" height="30" style="fill:#87bcbc;fill-opacity:1.00" />
  <line x1="2170" y1="50.0" x2="2210" y2="50.0" style="stroke:#999; stroke-width:3;" />
  <rect class="anc_exon" x="2210" y="35.0" width="81" height="30" style="fill:#87bcbc;fill-opacity:1.00" />
  <rect class="anc_exon" x="2291" y="35.0" width="0" height="30" style="fill:#87bcbc;fill-opacity:1.00" />
  <text style="" >
<tspan x="0" y="83.0" style="font-size:18px;" >SP XM_012545149_3.1</tspan>  </text>



<script type="text/ecmascript">
<![CDATA[
function draw_bbox(text_id)
{
    var text_elem = document.getElementById(text_id);
    var offset_px = 2;
    var offset_py = 0;
    bbox = text_elem.getBBox();
    var box = document.createElementNS(document.rootElement.namespaceURI,'rect');
    box.setAttribute('x', bbox.x - offset_px);
    box.setAttribute('y', bbox.y - offset_py);
    box.setAttribute('width', bbox.width + offset_px * 2);
    box.setAttribute('height', bbox.height + offset_py * 2);
    box.setAttribute('style','fill: white;'+'stroke: black;'+'stroke-width: 1px;');
    text_elem.insertBefore(box,text_elem.childNodes[0]);

    var svg = text_elem.parentNode;
    svg.appendChild(text_elem);
}

for (var i=1; i < 1; i++)
{
draw_bbox("Mouseover" + i);
}
]]> 
</script>
</svg>
