<svg version="1.1"
xmlns="http://www.w3.org/2000/svg"
xmlns:xlink="http://www.w3.org/1999/xlink"
width="2301" height="100" viewBox = "0 0 2301 100"
onclick="mouseclick(evt)">

<script type="text/ecmascript">

<![CDATA[
    function mouseover(evt, target) { 
    var gv = document.getElementById("globalVariable");
    var previoustarget = gv.firstChild.nodeValue;
    if (previoustarget != "none") 
    {
        	document.getElementById(gv.firstChild.nodeValue).setAttributeNS(null, "visibility", "hidden");
    }
    document.getElementById(target).setAttributeNS(null, "visibility", "visible");
    gv.firstChild.nodeValue = target;
        }

    function mouseclick(evt) { 
    var gv = document.getElementById("globalVariable");
    var previoustarget = gv.firstChild.nodeValue;
    if (previoustarget != "none") {
        	document.getElementById(gv.firstChild.nodeValue).setAttributeNS(null, "visibility", "hidden");
        }
    }
]]>
  </script>
<style type="text/css" >

<![CDATA[
    rect.anc_exon {
              stroke-width:3;
                  }

    rect.non_anc_exon {
              stroke: black; stroke-width:3; stroke-dasharray: 5,5;
                    }

    text {
              font-size: 18px;
              font-family: Courier New;
          }
                    ]]>
</style>

<defs>
    <text x="150" y="40" id="globalVariable">none</text>
</defs>

  <rect class="anc_exon" x="0" y="35.0" width="0" height="30" style="fill:#87bcbc;fill-opacity:1.00" />
  <rect class="anc_exon" x="0" y="35.0" width="417.6" height="30" style="fill:#87bcbc;fill-opacity:1.00" />
  <line x1="417.6" y1="50.0" x2="436.6" y2="50.0" style="stroke:#999; stroke-width:3;" />
  <line x1="436.6" y1="50.0" x2="436.6" y2="50.0" style="stroke:#999; stroke-width:3;" />
  <line x1="436.6" y1="50.0" x2="436.6" y2="50.0" style="stroke:#999; stroke-width:3;" />
  <line x1="436.6" y1="50.0" x2="457.0" y2="50.0" style="stroke:#999; stroke-width:3;" />
  <rect class="anc_exon" x="457" y="35.0" width="115" height="30" style="fill:#87bcbc;fill-opacity:1.00" />
  <line x1="572" y1="50.0" x2="612" y2="50.0" style="stroke:#999; stroke-width:3;" />
  <rect class="anc_exon" x="612" y="35.0" width="152" height="30" style="fill:#87bcbc;fill-opacity:1.00" />
  <line x1="764" y1="50.0" x2="804" y2="50.0" style="stroke:#999; stroke-width:3;" />
  <rect class="anc_exon" x="804" y="35.0" width="105" height="30" style="fill:#87bcbc;fill-opacity:1.00" />
  <line x1="909" y1="50.0" x2="929" y2="50.0" style="stroke:#999; stroke-width:3;" />
  <line x1="929" y1="50.0" x2="929" y2="50.0" style="stroke:#999; stroke-width:3;" />
  <line x1="929" y1="50.0" x2="929" y2="50.0" style="stroke:#999; stroke-width:3;" />
  <line x1="929" y1="50.0" x2="949" y2="50.0" style="stroke:#999; stroke-width:3;" />
  <rect class="anc_exon" x="949" y="35.0" width="114" height="30" style="fill:#87bcbc;fill-opacity:1.00" />
  <line x1="1063" y1="50.0" x2="1103" y2="50.0" style="stroke:#999; stroke-width:3;" />
  <rect class="anc_exon" x="1103" y="35.0" width="72" height="30" style="fill:#87bcbc;fill-opacity:1.00" />
  <line x1="1175" y1="50.0" x2="1215" y2="50.0" style="stroke:#999; stroke-width:3;" />
  <rect class="anc_exon" x="1215" y="35.0" width="32" height="30" style="fill:#87bcbc;fill-opacity:1.00" />
  <line x1="1247" y1="50.0" x2="1287" y2="50.0" style="stroke:#999; stroke-width:3;" />
  <rect class="anc_exon" x="1287" y="35.0" width="76" height="30" style="fill:#87bcbc;fill-opacity:1.00" />
  <line x1="1363" y1="50.0" x2="1383" y2="50.0" style="stroke:#999; stroke-width:3;" />
  <line x1="1383" y1="50.0" x2="1383" y2="50.0" style="stroke:#999; stroke-width:3;" />
  <line x1="1383" y1="50.0" x2="1383" y2="50.0" style="stroke:#999; stroke-width:3;" />
  <line x1="1383" y1="50.0" x2="1403" y2="50.0" style="stroke:#999; stroke-width:3;" />
  <rect class="anc_exon" x="1403" y="35.0" width="102" height="30" style="fill:#87bcbc;fill-opacity:1.00" />
  <line x1="1505" y1="50.0" x2="1545" y2="50.0" style="stroke:#999; stroke-width:3;" />
  <rect class="anc_exon" x="1545" y="35.0" width="76" height="30" style="fill:#87bcbc;fill-opacity:1.00" />
  <line x1="1621" y1="50.0" x2="1661" y2="50.0" style="stroke:#999; stroke-width:3;" />
  <rect class="anc_exon" x="1661" y="35.0" width="120" height="30" style="fill:#87bcbc;fill-opacity:1.00" />
  <line x1="1781" y1="50.0" x2="1821" y2="50.0" style="stroke:#999; stroke-width:3;" />
  <rect class="anc_exon" x="1821" y="35.0" width="92" height="30" style="fill:#87bcbc;fill-opacity:1.00" />
  <line x1="1913" y1="50.0" x2="1953" y2="50.0" style="stroke:#999; stroke-width:3;" />
  <rect class="anc_exon" x="1953" y="35.0" width="60" height="30" style="fill:#87bcbc;fill-opacity:1.00" />
  <line x1="2013" y1="50.0" x2="2033" y2="50.0" style="stroke:#999; stroke-width:3;" />
  <line x1="2033" y1="50.0" x2="2033" y2="50.0" style="stroke:#999; stroke-width:3;" />
  <line x1="2033" y1="50.0" x2="2033" y2="50.0" style="stroke:#999; stroke-width:3;" />
  <line x1="2033" y1="50.0" x2="2053" y2="50.0" style="stroke:#999; stroke-width:3;" />
  <rect class="anc_exon" x="2053" y="35.0" width="112" height="30" style="fill:#87bcbc;fill-opacity:1.00" />
  <line x1="2165" y1="50.0" x2="2185" y2="50.0" style="stroke:#999; stroke-width:3;" />
  <line x1="2185" y1="50.0" x2="2185" y2="50.0" style="stroke:#999; stroke-width:3;" />
  <line x1="2185" y1="50.0" x2="2185" y2="50.0" style="stroke:#999; stroke-width:3;" />
  <line x1="2185" y1="50.0" x2="2205" y2="50.0" style="stroke:#999; stroke-width:3;" />
  <rect class="anc_exon" x="2205" y="35.0" width="60" height="30" style="fill:#87bcbc;fill-opacity:1.00" />
  <rect class="anc_exon" x="2265" y="35.0" width="0" height="30" style="fill:#87bcbc;fill-opacity:1.00" />
  <text style="" >
<tspan x="0" y="83.0" style="font-size:18px;" >SP XM_031957429_1.1</tspan>  </text>



<script type="text/ecmascript">
<![CDATA[
function draw_bbox(text_id)
{
    var text_elem = document.getElementById(text_id);
    var offset_px = 2;
    var offset_py = 0;
    bbox = text_elem.getBBox();
    var box = document.createElementNS(document.rootElement.namespaceURI,'rect');
    box.setAttribute('x', bbox.x - offset_px);
    box.setAttribute('y', bbox.y - offset_py);
    box.setAttribute('width', bbox.width + offset_px * 2);
    box.setAttribute('height', bbox.height + offset_py * 2);
    box.setAttribute('style','fill: white;'+'stroke: black;'+'stroke-width: 1px;');
    text_elem.insertBefore(box,text_elem.childNodes[0]);

    var svg = text_elem.parentNode;
    svg.appendChild(text_elem);
}

for (var i=1; i < 1; i++)
{
draw_bbox("Mouseover" + i);
}
]]> 
</script>
</svg>
