<svg version="1.1"
xmlns="http://www.w3.org/2000/svg"
xmlns:xlink="http://www.w3.org/1999/xlink"
width="1829" height="100" viewBox = "0 0 1829 100"
onclick="mouseclick(evt)">

<script type="text/ecmascript">

<![CDATA[
    function mouseover(evt, target) { 
    var gv = document.getElementById("globalVariable");
    var previoustarget = gv.firstChild.nodeValue;
    if (previoustarget != "none") 
    {
        	document.getElementById(gv.firstChild.nodeValue).setAttributeNS(null, "visibility", "hidden");
    }
    document.getElementById(target).setAttributeNS(null, "visibility", "visible");
    gv.firstChild.nodeValue = target;
        }

    function mouseclick(evt) { 
    var gv = document.getElementById("globalVariable");
    var previoustarget = gv.firstChild.nodeValue;
    if (previoustarget != "none") {
        	document.getElementById(gv.firstChild.nodeValue).setAttributeNS(null, "visibility", "hidden");
        }
    }
]]>
  </script>
<style type="text/css" >

<![CDATA[
    rect.anc_exon {
              stroke-width:3;
                  }

    rect.non_anc_exon {
              stroke: black; stroke-width:3; stroke-dasharray: 5,5;
                    }

    text {
              font-size: 18px;
              font-family: Courier New;
          }
                    ]]>
</style>

<defs>
    <text x="150" y="40" id="globalVariable">none</text>
</defs>

  <rect class="anc_exon" x="0" y="35.0" width="0" height="30" style="fill:#87bcbc;fill-opacity:1.00" />
  <rect class="anc_exon" x="0" y="35.0" width="48.0" height="30" style="fill:#87bcbc;fill-opacity:1.00" />
  <line x1="48.0" y1="50.0" x2="68.0" y2="50.0" style="stroke:#999; stroke-width:3;" />
  <line x1="68.0" y1="50.0" x2="68.0" y2="50.0" style="stroke:#999; stroke-width:3;" />
  <line x1="68.0" y1="50.0" x2="68.0" y2="50.0" style="stroke:#999; stroke-width:3;" />
  <line x1="68.0" y1="50.0" x2="88.0" y2="50.0" style="stroke:#999; stroke-width:3;" />
  <rect class="anc_exon" x="88" y="35.0" width="46" height="30" style="fill:#87bcbc;fill-opacity:1.00" />
  <line x1="134" y1="50.0" x2="154" y2="50.0" style="stroke:#999; stroke-width:3;" />
  <line x1="154" y1="50.0" x2="154" y2="50.0" style="stroke:#999; stroke-width:3;" />
  <line x1="154" y1="50.0" x2="154" y2="50.0" style="stroke:#999; stroke-width:3;" />
  <line x1="154" y1="50.0" x2="174" y2="50.0" style="stroke:#999; stroke-width:3;" />
  <rect class="anc_exon" x="174" y="35.0" width="74" height="30" style="fill:#87bcbc;fill-opacity:1.00" />
  <line x1="248" y1="50.0" x2="268" y2="50.0" style="stroke:#999; stroke-width:3;" />
  <line x1="268" y1="50.0" x2="268" y2="50.0" style="stroke:#999; stroke-width:3;" />
  <line x1="268" y1="50.0" x2="268" y2="50.0" style="stroke:#999; stroke-width:3;" />
  <line x1="268" y1="50.0" x2="288" y2="50.0" style="stroke:#999; stroke-width:3;" />
  <rect class="anc_exon" x="288" y="35.0" width="82" height="30" style="fill:#87bcbc;fill-opacity:1.00" />
  <line x1="370" y1="50.0" x2="390" y2="50.0" style="stroke:#999; stroke-width:3;" />
  <line x1="390" y1="50.0" x2="390" y2="50.0" style="stroke:#999; stroke-width:3;" />
  <line x1="390" y1="50.0" x2="390" y2="50.0" style="stroke:#999; stroke-width:3;" />
  <line x1="390" y1="50.0" x2="410" y2="50.0" style="stroke:#999; stroke-width:3;" />
  <rect class="anc_exon" x="410" y="35.0" width="82" height="30" style="fill:#87bcbc;fill-opacity:1.00" />
  <line x1="492" y1="50.0" x2="512" y2="50.0" style="stroke:#999; stroke-width:3;" />
  <line x1="512" y1="50.0" x2="512" y2="50.0" style="stroke:#999; stroke-width:3;" />
  <line x1="512" y1="50.0" x2="512" y2="50.0" style="stroke:#999; stroke-width:3;" />
  <line x1="512" y1="50.0" x2="532" y2="50.0" style="stroke:#999; stroke-width:3;" />
  <rect class="anc_exon" x="532" y="35.0" width="64" height="30" style="fill:#87bcbc;fill-opacity:1.00" />
  <line x1="596" y1="50.0" x2="636" y2="50.0" style="stroke:#999; stroke-width:3;" />
  <rect class="anc_exon" x="636" y="35.0" width="48" height="30" style="fill:#87bcbc;fill-opacity:1.00" />
  <line x1="684" y1="50.0" x2="704" y2="50.0" style="stroke:#999; stroke-width:3;" />
  <line x1="704" y1="50.0" x2="704" y2="50.0" style="stroke:#999; stroke-width:3;" />
  <line x1="704" y1="50.0" x2="704" y2="50.0" style="stroke:#999; stroke-width:3;" />
  <line x1="704" y1="50.0" x2="724" y2="50.0" style="stroke:#999; stroke-width:3;" />
  <rect class="anc_exon" x="724" y="35.0" width="89" height="30" style="fill:#87bcbc;fill-opacity:1.00" />
  <line x1="813" y1="50.0" x2="853" y2="50.0" style="stroke:#999; stroke-width:3;" />
  <rect class="anc_exon" x="853" y="35.0" width="108" height="30" style="fill:#87bcbc;fill-opacity:1.00" />
  <line x1="961" y1="50.0" x2="981" y2="50.0" style="stroke:#999; stroke-width:3;" />
  <line x1="981" y1="50.0" x2="981" y2="50.0" style="stroke:#999; stroke-width:3;" />
  <line x1="981" y1="50.0" x2="981" y2="50.0" style="stroke:#999; stroke-width:3;" />
  <line x1="981" y1="50.0" x2="1001" y2="50.0" style="stroke:#999; stroke-width:3;" />
  <rect class="anc_exon" x="1001" y="35.0" width="118" height="30" style="fill:#87bcbc;fill-opacity:1.00" />
  <line x1="1119" y1="50.0" x2="1159" y2="50.0" style="stroke:#999; stroke-width:3;" />
  <rect class="anc_exon" x="1159" y="35.0" width="117" height="30" style="fill:#87bcbc;fill-opacity:1.00" />
  <line x1="1276" y1="50.0" x2="1296" y2="50.0" style="stroke:#999; stroke-width:3;" />
  <line x1="1296" y1="50.0" x2="1296" y2="50.0" style="stroke:#999; stroke-width:3;" />
  <line x1="1296" y1="50.0" x2="1296" y2="50.0" style="stroke:#999; stroke-width:3;" />
  <line x1="1296" y1="50.0" x2="1316" y2="50.0" style="stroke:#999; stroke-width:3;" />
  <rect class="anc_exon" x="1316" y="35.0" width="34" height="30" style="fill:#87bcbc;fill-opacity:1.00" />
  <line x1="1350" y1="50.0" x2="1390" y2="50.0" style="stroke:#999; stroke-width:3;" />
  <rect class="anc_exon" x="1390" y="35.0" width="64" height="30" style="fill:#87bcbc;fill-opacity:1.00" />
  <line x1="1454" y1="50.0" x2="1494" y2="50.0" style="stroke:#999; stroke-width:3;" />
  <rect class="anc_exon" x="1494" y="35.0" width="89" height="30" style="fill:#87bcbc;fill-opacity:1.00" />
  <line x1="1583" y1="50.0" x2="1623" y2="50.0" style="stroke:#999; stroke-width:3;" />
  <rect class="anc_exon" x="1623" y="35.0" width="57" height="30" style="fill:#87bcbc;fill-opacity:1.00" />
  <line x1="1680" y1="50.0" x2="1700" y2="50.0" style="stroke:#999; stroke-width:3;" />
  <line x1="1700" y1="50.0" x2="1700" y2="50.0" style="stroke:#999; stroke-width:3;" />
  <line x1="1700" y1="50.0" x2="1700" y2="50.0" style="stroke:#999; stroke-width:3;" />
  <line x1="1700" y1="50.0" x2="1720" y2="50.0" style="stroke:#999; stroke-width:3;" />
  <rect class="anc_exon" x="1720" y="35.0" width="73" height="30" style="fill:#87bcbc;fill-opacity:1.00" />
  <rect class="anc_exon" x="1793" y="35.0" width="0" height="30" style="fill:#87bcbc;fill-opacity:1.00" />
  <text style="" >
<tspan x="0" y="83.0" style="font-size:18px;" >SP XM_031960020_1.1</tspan>  </text>



<script type="text/ecmascript">
<![CDATA[
function draw_bbox(text_id)
{
    var text_elem = document.getElementById(text_id);
    var offset_px = 2;
    var offset_py = 0;
    bbox = text_elem.getBBox();
    var box = document.createElementNS(document.rootElement.namespaceURI,'rect');
    box.setAttribute('x', bbox.x - offset_px);
    box.setAttribute('y', bbox.y - offset_py);
    box.setAttribute('width', bbox.width + offset_px * 2);
    box.setAttribute('height', bbox.height + offset_py * 2);
    box.setAttribute('style','fill: white;'+'stroke: black;'+'stroke-width: 1px;');
    text_elem.insertBefore(box,text_elem.childNodes[0]);

    var svg = text_elem.parentNode;
    svg.appendChild(text_elem);
}

for (var i=1; i < 1; i++)
{
draw_bbox("Mouseover" + i);
}
]]> 
</script>
</svg>
