<svg version="1.1"
xmlns="http://www.w3.org/2000/svg"
xmlns:xlink="http://www.w3.org/1999/xlink"
width="4992" height="100" viewBox = "0 0 4992 100"
onclick="mouseclick(evt)">

<script type="text/ecmascript">

<![CDATA[
    function mouseover(evt, target) { 
    var gv = document.getElementById("globalVariable");
    var previoustarget = gv.firstChild.nodeValue;
    if (previoustarget != "none") 
    {
        	document.getElementById(gv.firstChild.nodeValue).setAttributeNS(null, "visibility", "hidden");
    }
    document.getElementById(target).setAttributeNS(null, "visibility", "visible");
    gv.firstChild.nodeValue = target;
        }

    function mouseclick(evt) { 
    var gv = document.getElementById("globalVariable");
    var previoustarget = gv.firstChild.nodeValue;
    if (previoustarget != "none") {
        	document.getElementById(gv.firstChild.nodeValue).setAttributeNS(null, "visibility", "hidden");
        }
    }
]]>
  </script>
<style type="text/css" >

<![CDATA[
    rect.anc_exon {
              stroke-width:3;
                  }

    rect.non_anc_exon {
              stroke: black; stroke-width:3; stroke-dasharray: 5,5;
                    }

    text {
              font-size: 18px;
              font-family: Courier New;
          }
                    ]]>
</style>

<defs>
    <text x="150" y="40" id="globalVariable">none</text>
</defs>

  <rect class="anc_exon" x="0" y="35.0" width="0" height="30" style="fill:#87bcbc;fill-opacity:1.00" />
  <rect class="anc_exon" x="0" y="35.0" width="11.200000000000001" height="30" style="fill:#87bcbc;fill-opacity:1.00" />
  <line x1="11.200000000000001" y1="50.0" x2="30.200000000000003" y2="50.0" style="stroke:#999; stroke-width:3;" />
  <line x1="30.200000000000003" y1="50.0" x2="30.200000000000003" y2="50.0" style="stroke:#999; stroke-width:3;" />
  <line x1="30.200000000000003" y1="50.0" x2="30.200000000000003" y2="50.0" style="stroke:#999; stroke-width:3;" />
  <line x1="30.200000000000003" y1="50.0" x2="51.0" y2="50.0" style="stroke:#999; stroke-width:3;" />
  <rect class="anc_exon" x="51" y="35.0" width="88" height="30" style="fill:#87bcbc;fill-opacity:1.00" />
  <line x1="139" y1="50.0" x2="159" y2="50.0" style="stroke:#999; stroke-width:3;" />
  <line x1="159" y1="50.0" x2="159" y2="50.0" style="stroke:#999; stroke-width:3;" />
  <line x1="159" y1="50.0" x2="159" y2="50.0" style="stroke:#999; stroke-width:3;" />
  <line x1="159" y1="50.0" x2="179" y2="50.0" style="stroke:#999; stroke-width:3;" />
  <rect class="anc_exon" x="179" y="35.0" width="84" height="30" style="fill:#87bcbc;fill-opacity:1.00" />
  <line x1="263" y1="50.0" x2="283" y2="50.0" style="stroke:#999; stroke-width:3;" />
  <line x1="283" y1="50.0" x2="283" y2="50.0" style="stroke:#999; stroke-width:3;" />
  <line x1="283" y1="50.0" x2="283" y2="50.0" style="stroke:#999; stroke-width:3;" />
  <line x1="283" y1="50.0" x2="303" y2="50.0" style="stroke:#999; stroke-width:3;" />
  <rect class="anc_exon" x="303" y="35.0" width="98" height="30" style="fill:#878787;fill-opacity:1.00" />
  <line x1="401" y1="50.0" x2="421" y2="50.0" style="stroke:#999; stroke-width:3;" />
  <line x1="421" y1="50.0" x2="421" y2="50.0" style="stroke:#999; stroke-width:3;" />
  <line x1="421" y1="50.0" x2="421" y2="50.0" style="stroke:#999; stroke-width:3;" />
  <line x1="421" y1="50.0" x2="441" y2="50.0" style="stroke:#999; stroke-width:3;" />
  <rect class="anc_exon" x="441" y="35.0" width="98" height="30" style="fill:#87bcbc;fill-opacity:1.00" />
  <line x1="539" y1="50.0" x2="559" y2="50.0" style="stroke:#999; stroke-width:3;" />
  <line x1="559" y1="50.0" x2="559" y2="50.0" style="stroke:#999; stroke-width:3;" />
  <line x1="559" y1="50.0" x2="559" y2="50.0" style="stroke:#999; stroke-width:3;" />
  <line x1="559" y1="50.0" x2="579" y2="50.0" style="stroke:#999; stroke-width:3;" />
  <rect class="anc_exon" x="579" y="35.0" width="98" height="30" style="fill:#87bcbc;fill-opacity:1.00" />
  <line x1="677" y1="50.0" x2="697" y2="50.0" style="stroke:#999; stroke-width:3;" />
  <line x1="697" y1="50.0" x2="697" y2="50.0" style="stroke:#999; stroke-width:3;" />
  <line x1="697" y1="50.0" x2="697" y2="50.0" style="stroke:#999; stroke-width:3;" />
  <line x1="697" y1="50.0" x2="717" y2="50.0" style="stroke:#999; stroke-width:3;" />
  <rect class="anc_exon" x="717" y="35.0" width="98" height="30" style="fill:#87bcbc;fill-opacity:1.00" />
  <line x1="815" y1="50.0" x2="855" y2="50.0" style="stroke:#999; stroke-width:3;" />
  <rect class="anc_exon" x="855" y="35.0" width="110" height="30" style="fill:#87bcbc;fill-opacity:1.00" />
  <line x1="965" y1="50.0" x2="1005" y2="50.0" style="stroke:#999; stroke-width:3;" />
  <rect class="anc_exon" x="1005" y="35.0" width="96" height="30" style="fill:#87bcbc;fill-opacity:1.00" />
  <line x1="1101" y1="50.0" x2="1141" y2="50.0" style="stroke:#999; stroke-width:3;" />
  <rect class="anc_exon" x="1141" y="35.0" width="98" height="30" style="fill:#87bcbc;fill-opacity:1.00" />
  <line x1="1239" y1="50.0" x2="1279" y2="50.0" style="stroke:#999; stroke-width:3;" />
  <rect class="anc_exon" x="1279" y="35.0" width="136" height="30" style="fill:#87bcbc;fill-opacity:1.00" />
  <line x1="1415" y1="50.0" x2="1455" y2="50.0" style="stroke:#999; stroke-width:3;" />
  <rect class="anc_exon" x="1455" y="35.0" width="105" height="30" style="fill:#87bcbc;fill-opacity:1.00" />
  <line x1="1560" y1="50.0" x2="1580" y2="50.0" style="stroke:#999; stroke-width:3;" />
  <line x1="1580" y1="50.0" x2="1580" y2="50.0" style="stroke:#999; stroke-width:3;" />
  <line x1="1580" y1="50.0" x2="1580" y2="50.0" style="stroke:#999; stroke-width:3;" />
  <line x1="1580" y1="50.0" x2="1600" y2="50.0" style="stroke:#999; stroke-width:3;" />
  <rect class="anc_exon" x="1600" y="35.0" width="103" height="30" style="fill:#87bcbc;fill-opacity:1.00" />
  <line x1="1703" y1="50.0" x2="1743" y2="50.0" style="stroke:#999; stroke-width:3;" />
  <rect class="anc_exon" x="1743" y="35.0" width="103" height="30" style="fill:#87bcbc;fill-opacity:1.00" />
  <line x1="1846" y1="50.0" x2="1886" y2="50.0" style="stroke:#999; stroke-width:3;" />
  <rect class="anc_exon" x="1886" y="35.0" width="108" height="30" style="fill:#87bcbc;fill-opacity:1.00" />
  <line x1="1994" y1="50.0" x2="2034" y2="50.0" style="stroke:#999; stroke-width:3;" />
  <rect class="anc_exon" x="2034" y="35.0" width="108" height="30" style="fill:#87bcbc;fill-opacity:1.00" />
  <line x1="2142" y1="50.0" x2="2162" y2="50.0" style="stroke:#999; stroke-width:3;" />
  <line x1="2162" y1="50.0" x2="2162" y2="50.0" style="stroke:#999; stroke-width:3;" />
  <line x1="2162" y1="50.0" x2="2162" y2="50.0" style="stroke:#999; stroke-width:3;" />
  <line x1="2162" y1="50.0" x2="2182" y2="50.0" style="stroke:#999; stroke-width:3;" />
  <rect class="anc_exon" x="2182" y="35.0" width="100" height="30" style="fill:#87bcbc;fill-opacity:1.00" />
  <line x1="2282" y1="50.0" x2="2322" y2="50.0" style="stroke:#999; stroke-width:3;" />
  <rect class="anc_exon" x="2322" y="35.0" width="105" height="30" style="fill:#87bcbc;fill-opacity:1.00" />
  <line x1="2427" y1="50.0" x2="2467" y2="50.0" style="stroke:#999; stroke-width:3;" />
  <rect class="anc_exon" x="2467" y="35.0" width="103" height="30" style="fill:#87bcbc;fill-opacity:1.00" />
  <line x1="2570" y1="50.0" x2="2610" y2="50.0" style="stroke:#999; stroke-width:3;" />
  <rect class="anc_exon" x="2610" y="35.0" width="105" height="30" style="fill:#87bcbc;fill-opacity:1.00" />
  <line x1="2715" y1="50.0" x2="2755" y2="50.0" style="stroke:#999; stroke-width:3;" />
  <rect class="anc_exon" x="2755" y="35.0" width="103" height="30" style="fill:#87bcbc;fill-opacity:1.00" />
  <line x1="2858" y1="50.0" x2="2898" y2="50.0" style="stroke:#999; stroke-width:3;" />
  <rect class="anc_exon" x="2898" y="35.0" width="103" height="30" style="fill:#87bcbc;fill-opacity:1.00" />
  <line x1="3001" y1="50.0" x2="3041" y2="50.0" style="stroke:#999; stroke-width:3;" />
  <rect class="anc_exon" x="3041" y="35.0" width="103" height="30" style="fill:#87bcbc;fill-opacity:1.00" />
  <line x1="3144" y1="50.0" x2="3184" y2="50.0" style="stroke:#999; stroke-width:3;" />
  <rect class="anc_exon" x="3184" y="35.0" width="103" height="30" style="fill:#87bcbc;fill-opacity:1.00" />
  <line x1="3287" y1="50.0" x2="3327" y2="50.0" style="stroke:#999; stroke-width:3;" />
  <rect class="anc_exon" x="3327" y="35.0" width="103" height="30" style="fill:#87bcbc;fill-opacity:1.00" />
  <line x1="3430" y1="50.0" x2="3450" y2="50.0" style="stroke:#999; stroke-width:3;" />
  <line x1="3450" y1="50.0" x2="3450" y2="50.0" style="stroke:#999; stroke-width:3;" />
  <line x1="3450" y1="50.0" x2="3450" y2="50.0" style="stroke:#999; stroke-width:3;" />
  <line x1="3450" y1="50.0" x2="3470" y2="50.0" style="stroke:#999; stroke-width:3;" />
  <rect class="anc_exon" x="3470" y="35.0" width="105" height="30" style="fill:#87bcbc;fill-opacity:1.00" />
  <line x1="3575" y1="50.0" x2="3615" y2="50.0" style="stroke:#999; stroke-width:3;" />
  <rect class="anc_exon" x="3615" y="35.0" width="103" height="30" style="fill:#87bcbc;fill-opacity:1.00" />
  <line x1="3718" y1="50.0" x2="3758" y2="50.0" style="stroke:#999; stroke-width:3;" />
  <rect class="anc_exon" x="3758" y="35.0" width="105" height="30" style="fill:#87bcbc;fill-opacity:1.00" />
  <line x1="3863" y1="50.0" x2="3903" y2="50.0" style="stroke:#999; stroke-width:3;" />
  <rect class="anc_exon" x="3903" y="35.0" width="103" height="30" style="fill:#87bcbc;fill-opacity:1.00" />
  <line x1="4006" y1="50.0" x2="4026" y2="50.0" style="stroke:#999; stroke-width:3;" />
  <line x1="4026" y1="50.0" x2="4026" y2="50.0" style="stroke:#999; stroke-width:3;" />
  <line x1="4026" y1="50.0" x2="4026" y2="50.0" style="stroke:#999; stroke-width:3;" />
  <line x1="4026" y1="50.0" x2="4046" y2="50.0" style="stroke:#999; stroke-width:3;" />
  <rect class="anc_exon" x="4046" y="35.0" width="103" height="30" style="fill:#87bcbc;fill-opacity:1.00" />
  <line x1="4149" y1="50.0" x2="4169" y2="50.0" style="stroke:#999; stroke-width:3;" />
  <line x1="4169" y1="50.0" x2="4169" y2="50.0" style="stroke:#999; stroke-width:3;" />
  <line x1="4169" y1="50.0" x2="4169" y2="50.0" style="stroke:#999; stroke-width:3;" />
  <line x1="4169" y1="50.0" x2="4189" y2="50.0" style="stroke:#999; stroke-width:3;" />
  <rect class="anc_exon" x="4189" y="35.0" width="103" height="30" style="fill:#87bcbc;fill-opacity:1.00" />
  <line x1="4292" y1="50.0" x2="4312" y2="50.0" style="stroke:#999; stroke-width:3;" />
  <line x1="4312" y1="50.0" x2="4312" y2="50.0" style="stroke:#999; stroke-width:3;" />
  <line x1="4312" y1="50.0" x2="4312" y2="50.0" style="stroke:#999; stroke-width:3;" />
  <line x1="4312" y1="50.0" x2="4332" y2="50.0" style="stroke:#999; stroke-width:3;" />
  <rect class="anc_exon" x="4332" y="35.0" width="103" height="30" style="fill:#87bcbc;fill-opacity:1.00" />
  <line x1="4435" y1="50.0" x2="4475" y2="50.0" style="stroke:#999; stroke-width:3;" />
  <rect class="anc_exon" x="4475" y="35.0" width="103" height="30" style="fill:#87bcbc;fill-opacity:1.00" />
  <line x1="4578" y1="50.0" x2="4618" y2="50.0" style="stroke:#999; stroke-width:3;" />
  <rect class="anc_exon" x="4618" y="35.0" width="103" height="30" style="fill:#87bcbc;fill-opacity:1.00" />
  <line x1="4721" y1="50.0" x2="4761" y2="50.0" style="stroke:#999; stroke-width:3;" />
  <rect class="anc_exon" x="4761" y="35.0" width="103" height="30" style="fill:#87bcbc;fill-opacity:1.00" />
  <line x1="4864" y1="50.0" x2="4884" y2="50.0" style="stroke:#999; stroke-width:3;" />
  <line x1="4884" y1="50.0" x2="4884" y2="50.0" style="stroke:#999; stroke-width:3;" />
  <line x1="4884" y1="50.0" x2="4884" y2="50.0" style="stroke:#999; stroke-width:3;" />
  <line x1="4884" y1="50.0" x2="4904" y2="50.0" style="stroke:#999; stroke-width:3;" />
  <rect class="anc_exon" x="4904" y="35.0" width="52" height="30" style="fill:#87bcbc;fill-opacity:1.00" />
  <rect class="anc_exon" x="4956" y="35.0" width="0" height="30" style="fill:#87bcbc;fill-opacity:1.00" />
  <text style="" >
<tspan x="0" y="83.0" style="font-size:18px;" >SP XM_031962977_1.1</tspan>  </text>



<script type="text/ecmascript">
<![CDATA[
function draw_bbox(text_id)
{
    var text_elem = document.getElementById(text_id);
    var offset_px = 2;
    var offset_py = 0;
    bbox = text_elem.getBBox();
    var box = document.createElementNS(document.rootElement.namespaceURI,'rect');
    box.setAttribute('x', bbox.x - offset_px);
    box.setAttribute('y', bbox.y - offset_py);
    box.setAttribute('width', bbox.width + offset_px * 2);
    box.setAttribute('height', bbox.height + offset_py * 2);
    box.setAttribute('style','fill: white;'+'stroke: black;'+'stroke-width: 1px;');
    text_elem.insertBefore(box,text_elem.childNodes[0]);

    var svg = text_elem.parentNode;
    svg.appendChild(text_elem);
}

for (var i=1; i < 1; i++)
{
draw_bbox("Mouseover" + i);
}
]]> 
</script>
</svg>
