<svg version="1.1"
xmlns="http://www.w3.org/2000/svg"
xmlns:xlink="http://www.w3.org/1999/xlink"
width="4274" height="100" viewBox = "0 0 4274 100"
onclick="mouseclick(evt)">

<script type="text/ecmascript">

<![CDATA[
    function mouseover(evt, target) { 
    var gv = document.getElementById("globalVariable");
    var previoustarget = gv.firstChild.nodeValue;
    if (previoustarget != "none") 
    {
        	document.getElementById(gv.firstChild.nodeValue).setAttributeNS(null, "visibility", "hidden");
    }
    document.getElementById(target).setAttributeNS(null, "visibility", "visible");
    gv.firstChild.nodeValue = target;
        }

    function mouseclick(evt) { 
    var gv = document.getElementById("globalVariable");
    var previoustarget = gv.firstChild.nodeValue;
    if (previoustarget != "none") {
        	document.getElementById(gv.firstChild.nodeValue).setAttributeNS(null, "visibility", "hidden");
        }
    }
]]>
  </script>
<style type="text/css" >

<![CDATA[
    rect.anc_exon {
              stroke-width:3;
                  }

    rect.non_anc_exon {
              stroke: black; stroke-width:3; stroke-dasharray: 5,5;
                    }

    text {
              font-size: 18px;
              font-family: Courier New;
          }
                    ]]>
</style>

<defs>
    <text x="150" y="40" id="globalVariable">none</text>
</defs>

  <rect class="anc_exon" x="0" y="35.0" width="0" height="30" style="fill:#87bcbc;fill-opacity:1.00" />
  <rect class="anc_exon" x="0" y="35.0" width="108.0" height="30" style="fill:#878787;fill-opacity:1.00" />
  <line x1="108.0" y1="50.0" x2="148.0" y2="50.0" style="stroke:#999; stroke-width:3;" />
  <rect class="anc_exon" x="148" y="35.0" width="122" height="30" style="fill:#87bcbc;fill-opacity:1.00" />
  <line x1="270" y1="50.0" x2="290" y2="50.0" style="stroke:#999; stroke-width:3;" />
  <line x1="290" y1="50.0" x2="290" y2="50.0" style="stroke:#999; stroke-width:3;" />
  <line x1="290" y1="50.0" x2="290" y2="50.0" style="stroke:#999; stroke-width:3;" />
  <line x1="290" y1="50.0" x2="310" y2="50.0" style="stroke:#999; stroke-width:3;" />
  <rect class="anc_exon" x="310" y="35.0" width="138" height="30" style="fill:#87bcbc;fill-opacity:1.00" />
  <line x1="448" y1="50.0" x2="488" y2="50.0" style="stroke:#999; stroke-width:3;" />
  <rect class="anc_exon" x="488" y="35.0" width="52" height="30" style="fill:#87bcbc;fill-opacity:1.00" />
  <line x1="540" y1="50.0" x2="580" y2="50.0" style="stroke:#999; stroke-width:3;" />
  <rect class="anc_exon" x="580" y="35.0" width="124" height="30" style="fill:#87bcbc;fill-opacity:1.00" />
  <line x1="704" y1="50.0" x2="724" y2="50.0" style="stroke:#999; stroke-width:3;" />
  <line x1="724" y1="50.0" x2="724" y2="50.0" style="stroke:#999; stroke-width:3;" />
  <line x1="724" y1="50.0" x2="724" y2="50.0" style="stroke:#999; stroke-width:3;" />
  <line x1="724" y1="50.0" x2="744" y2="50.0" style="stroke:#999; stroke-width:3;" />
  <rect class="anc_exon" x="744" y="35.0" width="109" height="30" style="fill:#87bcbc;fill-opacity:1.00" />
  <line x1="853" y1="50.0" x2="873" y2="50.0" style="stroke:#999; stroke-width:3;" />
  <line x1="873" y1="50.0" x2="873" y2="50.0" style="stroke:#999; stroke-width:3;" />
  <line x1="873" y1="50.0" x2="873" y2="50.0" style="stroke:#999; stroke-width:3;" />
  <line x1="873" y1="50.0" x2="893" y2="50.0" style="stroke:#999; stroke-width:3;" />
  <rect class="anc_exon" x="893" y="35.0" width="148" height="30" style="fill:#87bcbc;fill-opacity:1.00" />
  <line x1="1041" y1="50.0" x2="1061" y2="50.0" style="stroke:#999; stroke-width:3;" />
  <line x1="1061" y1="50.0" x2="1061" y2="50.0" style="stroke:#999; stroke-width:3;" />
  <line x1="1061" y1="50.0" x2="1061" y2="50.0" style="stroke:#999; stroke-width:3;" />
  <line x1="1061" y1="50.0" x2="1081" y2="50.0" style="stroke:#999; stroke-width:3;" />
  <rect class="anc_exon" x="1081" y="35.0" width="111" height="30" style="fill:#87bcbc;fill-opacity:1.00" />
  <line x1="1192" y1="50.0" x2="1212" y2="50.0" style="stroke:#999; stroke-width:3;" />
  <line x1="1212" y1="50.0" x2="1212" y2="50.0" style="stroke:#999; stroke-width:3;" />
  <line x1="1212" y1="50.0" x2="1212" y2="50.0" style="stroke:#999; stroke-width:3;" />
  <line x1="1212" y1="50.0" x2="1232" y2="50.0" style="stroke:#999; stroke-width:3;" />
  <rect class="anc_exon" x="1232" y="35.0" width="44" height="30" style="fill:#87bcbc;fill-opacity:1.00" />
  <line x1="1276" y1="50.0" x2="1296" y2="50.0" style="stroke:#999; stroke-width:3;" />
  <line x1="1296" y1="50.0" x2="1296" y2="50.0" style="stroke:#999; stroke-width:3;" />
  <line x1="1296" y1="50.0" x2="1296" y2="50.0" style="stroke:#999; stroke-width:3;" />
  <line x1="1296" y1="50.0" x2="1316" y2="50.0" style="stroke:#999; stroke-width:3;" />
  <rect class="anc_exon" x="1316" y="35.0" width="103" height="30" style="fill:#87bcbc;fill-opacity:1.00" />
  <line x1="1419" y1="50.0" x2="1459" y2="50.0" style="stroke:#999; stroke-width:3;" />
  <rect class="anc_exon" x="1459" y="35.0" width="121" height="30" style="fill:#87bcbc;fill-opacity:1.00" />
  <line x1="1580" y1="50.0" x2="1620" y2="50.0" style="stroke:#999; stroke-width:3;" />
  <rect class="anc_exon" x="1620" y="35.0" width="153" height="30" style="fill:#87bcbc;fill-opacity:1.00" />
  <line x1="1773" y1="50.0" x2="1813" y2="50.0" style="stroke:#999; stroke-width:3;" />
  <rect class="anc_exon" x="1813" y="35.0" width="150" height="30" style="fill:#87bcbc;fill-opacity:1.00" />
  <line x1="1963" y1="50.0" x2="2003" y2="50.0" style="stroke:#999; stroke-width:3;" />
  <rect class="anc_exon" x="2003" y="35.0" width="128" height="30" style="fill:#87bcbc;fill-opacity:1.00" />
  <line x1="2131" y1="50.0" x2="2171" y2="50.0" style="stroke:#999; stroke-width:3;" />
  <rect class="anc_exon" x="2171" y="35.0" width="144" height="30" style="fill:#87bcbc;fill-opacity:1.00" />
  <line x1="2315" y1="50.0" x2="2335" y2="50.0" style="stroke:#999; stroke-width:3;" />
  <line x1="2335" y1="50.0" x2="2335" y2="50.0" style="stroke:#999; stroke-width:3;" />
  <line x1="2335" y1="50.0" x2="2335" y2="50.0" style="stroke:#999; stroke-width:3;" />
  <line x1="2335" y1="50.0" x2="2355" y2="50.0" style="stroke:#999; stroke-width:3;" />
  <rect class="anc_exon" x="2355" y="35.0" width="103" height="30" style="fill:#87bcbc;fill-opacity:1.00" />
  <line x1="2458" y1="50.0" x2="2478" y2="50.0" style="stroke:#999; stroke-width:3;" />
  <line x1="2478" y1="50.0" x2="2478" y2="50.0" style="stroke:#999; stroke-width:3;" />
  <line x1="2478" y1="50.0" x2="2478" y2="50.0" style="stroke:#999; stroke-width:3;" />
  <line x1="2478" y1="50.0" x2="2498" y2="50.0" style="stroke:#999; stroke-width:3;" />
  <rect class="anc_exon" x="2498" y="35.0" width="169" height="30" style="fill:#87bcbc;fill-opacity:1.00" />
  <line x1="2667" y1="50.0" x2="2707" y2="50.0" style="stroke:#999; stroke-width:3;" />
  <rect class="anc_exon" x="2707" y="35.0" width="181" height="30" style="fill:#87bcbc;fill-opacity:1.00" />
  <line x1="2888" y1="50.0" x2="2928" y2="50.0" style="stroke:#999; stroke-width:3;" />
  <rect class="anc_exon" x="2928" y="35.0" width="149" height="30" style="fill:#87bcbc;fill-opacity:1.00" />
  <line x1="3077" y1="50.0" x2="3117" y2="50.0" style="stroke:#999; stroke-width:3;" />
  <rect class="anc_exon" x="3117" y="35.0" width="69" height="30" style="fill:#87bcbc;fill-opacity:1.00" />
  <line x1="3186" y1="50.0" x2="3206" y2="50.0" style="stroke:#999; stroke-width:3;" />
  <line x1="3206" y1="50.0" x2="3206" y2="50.0" style="stroke:#999; stroke-width:3;" />
  <line x1="3206" y1="50.0" x2="3206" y2="50.0" style="stroke:#999; stroke-width:3;" />
  <line x1="3206" y1="50.0" x2="3226" y2="50.0" style="stroke:#999; stroke-width:3;" />
  <rect class="anc_exon" x="3226" y="35.0" width="125" height="30" style="fill:#87bcbc;fill-opacity:1.00" />
  <line x1="3351" y1="50.0" x2="3391" y2="50.0" style="stroke:#999; stroke-width:3;" />
  <rect class="anc_exon" x="3391" y="35.0" width="71" height="30" style="fill:#87bcbc;fill-opacity:1.00" />
  <line x1="3462" y1="50.0" x2="3502" y2="50.0" style="stroke:#999; stroke-width:3;" />
  <rect class="anc_exon" x="3502" y="35.0" width="68" height="30" style="fill:#87bcbc;fill-opacity:1.00" />
  <line x1="3570" y1="50.0" x2="3610" y2="50.0" style="stroke:#999; stroke-width:3;" />
  <rect class="anc_exon" x="3610" y="35.0" width="137" height="30" style="fill:#87bcbc;fill-opacity:1.00" />
  <line x1="3747" y1="50.0" x2="3787" y2="50.0" style="stroke:#999; stroke-width:3;" />
  <rect class="anc_exon" x="3787" y="35.0" width="144" height="30" style="fill:#87bcbc;fill-opacity:1.00" />
  <line x1="3931" y1="50.0" x2="3951" y2="50.0" style="stroke:#999; stroke-width:3;" />
  <line x1="3951" y1="50.0" x2="3951" y2="50.0" style="stroke:#999; stroke-width:3;" />
  <line x1="3951" y1="50.0" x2="3951" y2="50.0" style="stroke:#999; stroke-width:3;" />
  <line x1="3951" y1="50.0" x2="3971" y2="50.0" style="stroke:#999; stroke-width:3;" />
  <rect class="anc_exon" x="3971" y="35.0" width="115" height="30" style="fill:#87bcbc;fill-opacity:1.00" />
  <line x1="4086" y1="50.0" x2="4126" y2="50.0" style="stroke:#999; stroke-width:3;" />
  <rect class="anc_exon" x="4126" y="35.0" width="112" height="30" style="fill:#87bcbc;fill-opacity:1.00" />
  <rect class="anc_exon" x="4238" y="35.0" width="0" height="30" style="fill:#87bcbc;fill-opacity:1.00" />
  <text style="" >
<tspan x="0" y="83.0" style="font-size:18px;" >SP XM_031963762_1.1</tspan>  </text>



<script type="text/ecmascript">
<![CDATA[
function draw_bbox(text_id)
{
    var text_elem = document.getElementById(text_id);
    var offset_px = 2;
    var offset_py = 0;
    bbox = text_elem.getBBox();
    var box = document.createElementNS(document.rootElement.namespaceURI,'rect');
    box.setAttribute('x', bbox.x - offset_px);
    box.setAttribute('y', bbox.y - offset_py);
    box.setAttribute('width', bbox.width + offset_px * 2);
    box.setAttribute('height', bbox.height + offset_py * 2);
    box.setAttribute('style','fill: white;'+'stroke: black;'+'stroke-width: 1px;');
    text_elem.insertBefore(box,text_elem.childNodes[0]);

    var svg = text_elem.parentNode;
    svg.appendChild(text_elem);
}

for (var i=1; i < 1; i++)
{
draw_bbox("Mouseover" + i);
}
]]> 
</script>
</svg>
