<svg version="1.1"
xmlns="http://www.w3.org/2000/svg"
xmlns:xlink="http://www.w3.org/1999/xlink"
width="4801" height="100" viewBox = "0 0 4801 100"
onclick="mouseclick(evt)">

<script type="text/ecmascript">

<![CDATA[
    function mouseover(evt, target) { 
    var gv = document.getElementById("globalVariable");
    var previoustarget = gv.firstChild.nodeValue;
    if (previoustarget != "none") 
    {
        	document.getElementById(gv.firstChild.nodeValue).setAttributeNS(null, "visibility", "hidden");
    }
    document.getElementById(target).setAttributeNS(null, "visibility", "visible");
    gv.firstChild.nodeValue = target;
        }

    function mouseclick(evt) { 
    var gv = document.getElementById("globalVariable");
    var previoustarget = gv.firstChild.nodeValue;
    if (previoustarget != "none") {
        	document.getElementById(gv.firstChild.nodeValue).setAttributeNS(null, "visibility", "hidden");
        }
    }
]]>
  </script>
<style type="text/css" >

<![CDATA[
    rect.anc_exon {
              stroke-width:3;
                  }

    rect.non_anc_exon {
              stroke: black; stroke-width:3; stroke-dasharray: 5,5;
                    }

    text {
              font-size: 18px;
              font-family: Courier New;
          }
                    ]]>
</style>

<defs>
    <text x="150" y="40" id="globalVariable">none</text>
</defs>

  <rect class="anc_exon" x="0" y="35.0" width="0" height="30" style="fill:#87bcbc;fill-opacity:1.00" />
  <rect class="anc_exon" x="0" y="35.0" width="132.8" height="30" style="fill:#87bcbc;fill-opacity:1.00" />
  <line x1="132.8" y1="50.0" x2="151.8" y2="50.0" style="stroke:#999; stroke-width:3;" />
  <line x1="151.8" y1="50.0" x2="151.8" y2="50.0" style="stroke:#999; stroke-width:3;" />
  <line x1="151.8" y1="50.0" x2="151.8" y2="50.0" style="stroke:#999; stroke-width:3;" />
  <line x1="151.8" y1="50.0" x2="172.0" y2="50.0" style="stroke:#999; stroke-width:3;" />
  <rect class="anc_exon" x="172" y="35.0" width="98" height="30" style="fill:#87bcbc;fill-opacity:1.00" />
  <line x1="270" y1="50.0" x2="290" y2="50.0" style="stroke:#999; stroke-width:3;" />
  <line x1="290" y1="50.0" x2="290" y2="50.0" style="stroke:#999; stroke-width:3;" />
  <line x1="290" y1="50.0" x2="290" y2="50.0" style="stroke:#999; stroke-width:3;" />
  <line x1="290" y1="50.0" x2="310" y2="50.0" style="stroke:#999; stroke-width:3;" />
  <rect class="anc_exon" x="310" y="35.0" width="98" height="30" style="fill:#87bcbc;fill-opacity:1.00" />
  <line x1="408" y1="50.0" x2="428" y2="50.0" style="stroke:#999; stroke-width:3;" />
  <line x1="428" y1="50.0" x2="428" y2="50.0" style="stroke:#999; stroke-width:3;" />
  <line x1="428" y1="50.0" x2="428" y2="50.0" style="stroke:#999; stroke-width:3;" />
  <line x1="428" y1="50.0" x2="448" y2="50.0" style="stroke:#999; stroke-width:3;" />
  <rect class="anc_exon" x="448" y="35.0" width="98" height="30" style="fill:#87bcbc;fill-opacity:1.00" />
  <line x1="546" y1="50.0" x2="586" y2="50.0" style="stroke:#999; stroke-width:3;" />
  <rect class="anc_exon" x="586" y="35.0" width="110" height="30" style="fill:#87bcbc;fill-opacity:1.00" />
  <line x1="696" y1="50.0" x2="736" y2="50.0" style="stroke:#999; stroke-width:3;" />
  <rect class="anc_exon" x="736" y="35.0" width="96" height="30" style="fill:#87bcbc;fill-opacity:1.00" />
  <line x1="832" y1="50.0" x2="872" y2="50.0" style="stroke:#999; stroke-width:3;" />
  <rect class="anc_exon" x="872" y="35.0" width="98" height="30" style="fill:#87bcbc;fill-opacity:1.00" />
  <line x1="970" y1="50.0" x2="1010" y2="50.0" style="stroke:#999; stroke-width:3;" />
  <rect class="anc_exon" x="1010" y="35.0" width="136" height="30" style="fill:#87bcbc;fill-opacity:1.00" />
  <line x1="1146" y1="50.0" x2="1186" y2="50.0" style="stroke:#999; stroke-width:3;" />
  <rect class="anc_exon" x="1186" y="35.0" width="105" height="30" style="fill:#87bcbc;fill-opacity:1.00" />
  <line x1="1291" y1="50.0" x2="1311" y2="50.0" style="stroke:#999; stroke-width:3;" />
  <line x1="1311" y1="50.0" x2="1311" y2="50.0" style="stroke:#999; stroke-width:3;" />
  <line x1="1311" y1="50.0" x2="1311" y2="50.0" style="stroke:#999; stroke-width:3;" />
  <line x1="1311" y1="50.0" x2="1331" y2="50.0" style="stroke:#999; stroke-width:3;" />
  <rect class="anc_exon" x="1331" y="35.0" width="103" height="30" style="fill:#87bcbc;fill-opacity:1.00" />
  <line x1="1434" y1="50.0" x2="1474" y2="50.0" style="stroke:#999; stroke-width:3;" />
  <rect class="anc_exon" x="1474" y="35.0" width="103" height="30" style="fill:#87bcbc;fill-opacity:1.00" />
  <line x1="1577" y1="50.0" x2="1617" y2="50.0" style="stroke:#999; stroke-width:3;" />
  <rect class="anc_exon" x="1617" y="35.0" width="108" height="30" style="fill:#87bcbc;fill-opacity:1.00" />
  <line x1="1725" y1="50.0" x2="1765" y2="50.0" style="stroke:#999; stroke-width:3;" />
  <rect class="anc_exon" x="1765" y="35.0" width="108" height="30" style="fill:#87bcbc;fill-opacity:1.00" />
  <line x1="1873" y1="50.0" x2="1893" y2="50.0" style="stroke:#999; stroke-width:3;" />
  <line x1="1893" y1="50.0" x2="1893" y2="50.0" style="stroke:#999; stroke-width:3;" />
  <line x1="1893" y1="50.0" x2="1893" y2="50.0" style="stroke:#999; stroke-width:3;" />
  <line x1="1893" y1="50.0" x2="1913" y2="50.0" style="stroke:#999; stroke-width:3;" />
  <rect class="anc_exon" x="1913" y="35.0" width="100" height="30" style="fill:#87bcbc;fill-opacity:1.00" />
  <line x1="2013" y1="50.0" x2="2053" y2="50.0" style="stroke:#999; stroke-width:3;" />
  <rect class="anc_exon" x="2053" y="35.0" width="105" height="30" style="fill:#87bcbc;fill-opacity:1.00" />
  <line x1="2158" y1="50.0" x2="2198" y2="50.0" style="stroke:#999; stroke-width:3;" />
  <rect class="anc_exon" x="2198" y="35.0" width="103" height="30" style="fill:#87bcbc;fill-opacity:1.00" />
  <line x1="2301" y1="50.0" x2="2341" y2="50.0" style="stroke:#999; stroke-width:3;" />
  <rect class="anc_exon" x="2341" y="35.0" width="105" height="30" style="fill:#87bcbc;fill-opacity:1.00" />
  <line x1="2446" y1="50.0" x2="2486" y2="50.0" style="stroke:#999; stroke-width:3;" />
  <rect class="anc_exon" x="2486" y="35.0" width="103" height="30" style="fill:#87bcbc;fill-opacity:1.00" />
  <line x1="2589" y1="50.0" x2="2629" y2="50.0" style="stroke:#999; stroke-width:3;" />
  <rect class="anc_exon" x="2629" y="35.0" width="103" height="30" style="fill:#87bcbc;fill-opacity:1.00" />
  <line x1="2732" y1="50.0" x2="2772" y2="50.0" style="stroke:#999; stroke-width:3;" />
  <rect class="anc_exon" x="2772" y="35.0" width="103" height="30" style="fill:#87bcbc;fill-opacity:1.00" />
  <line x1="2875" y1="50.0" x2="2915" y2="50.0" style="stroke:#999; stroke-width:3;" />
  <rect class="anc_exon" x="2915" y="35.0" width="103" height="30" style="fill:#87bcbc;fill-opacity:1.00" />
  <line x1="3018" y1="50.0" x2="3058" y2="50.0" style="stroke:#999; stroke-width:3;" />
  <rect class="anc_exon" x="3058" y="35.0" width="103" height="30" style="fill:#87bcbc;fill-opacity:1.00" />
  <line x1="3161" y1="50.0" x2="3181" y2="50.0" style="stroke:#999; stroke-width:3;" />
  <line x1="3181" y1="50.0" x2="3181" y2="50.0" style="stroke:#999; stroke-width:3;" />
  <line x1="3181" y1="50.0" x2="3181" y2="50.0" style="stroke:#999; stroke-width:3;" />
  <line x1="3181" y1="50.0" x2="3201" y2="50.0" style="stroke:#999; stroke-width:3;" />
  <rect class="anc_exon" x="3201" y="35.0" width="105" height="30" style="fill:#87bcbc;fill-opacity:1.00" />
  <line x1="3306" y1="50.0" x2="3346" y2="50.0" style="stroke:#999; stroke-width:3;" />
  <rect class="anc_exon" x="3346" y="35.0" width="103" height="30" style="fill:#87bcbc;fill-opacity:1.00" />
  <line x1="3449" y1="50.0" x2="3489" y2="50.0" style="stroke:#999; stroke-width:3;" />
  <rect class="anc_exon" x="3489" y="35.0" width="105" height="30" style="fill:#87bcbc;fill-opacity:1.00" />
  <line x1="3594" y1="50.0" x2="3634" y2="50.0" style="stroke:#999; stroke-width:3;" />
  <rect class="anc_exon" x="3634" y="35.0" width="103" height="30" style="fill:#87bcbc;fill-opacity:1.00" />
  <line x1="3737" y1="50.0" x2="3757" y2="50.0" style="stroke:#999; stroke-width:3;" />
  <line x1="3757" y1="50.0" x2="3757" y2="50.0" style="stroke:#999; stroke-width:3;" />
  <line x1="3757" y1="50.0" x2="3757" y2="50.0" style="stroke:#999; stroke-width:3;" />
  <line x1="3757" y1="50.0" x2="3777" y2="50.0" style="stroke:#999; stroke-width:3;" />
  <rect class="anc_exon" x="3777" y="35.0" width="103" height="30" style="fill:#87bcbc;fill-opacity:1.00" />
  <line x1="3880" y1="50.0" x2="3900" y2="50.0" style="stroke:#999; stroke-width:3;" />
  <line x1="3900" y1="50.0" x2="3900" y2="50.0" style="stroke:#999; stroke-width:3;" />
  <line x1="3900" y1="50.0" x2="3900" y2="50.0" style="stroke:#999; stroke-width:3;" />
  <line x1="3900" y1="50.0" x2="3920" y2="50.0" style="stroke:#999; stroke-width:3;" />
  <rect class="anc_exon" x="3920" y="35.0" width="103" height="30" style="fill:#87bcbc;fill-opacity:1.00" />
  <line x1="4023" y1="50.0" x2="4043" y2="50.0" style="stroke:#999; stroke-width:3;" />
  <line x1="4043" y1="50.0" x2="4043" y2="50.0" style="stroke:#999; stroke-width:3;" />
  <line x1="4043" y1="50.0" x2="4043" y2="50.0" style="stroke:#999; stroke-width:3;" />
  <line x1="4043" y1="50.0" x2="4063" y2="50.0" style="stroke:#999; stroke-width:3;" />
  <rect class="anc_exon" x="4063" y="35.0" width="103" height="30" style="fill:#87bcbc;fill-opacity:1.00" />
  <line x1="4166" y1="50.0" x2="4206" y2="50.0" style="stroke:#999; stroke-width:3;" />
  <rect class="anc_exon" x="4206" y="35.0" width="103" height="30" style="fill:#87bcbc;fill-opacity:1.00" />
  <line x1="4309" y1="50.0" x2="4349" y2="50.0" style="stroke:#999; stroke-width:3;" />
  <rect class="anc_exon" x="4349" y="35.0" width="103" height="30" style="fill:#87bcbc;fill-opacity:1.00" />
  <line x1="4452" y1="50.0" x2="4492" y2="50.0" style="stroke:#999; stroke-width:3;" />
  <rect class="anc_exon" x="4492" y="35.0" width="103" height="30" style="fill:#87bcbc;fill-opacity:1.00" />
  <line x1="4595" y1="50.0" x2="4615" y2="50.0" style="stroke:#999; stroke-width:3;" />
  <line x1="4615" y1="50.0" x2="4615" y2="50.0" style="stroke:#999; stroke-width:3;" />
  <line x1="4615" y1="50.0" x2="4615" y2="50.0" style="stroke:#999; stroke-width:3;" />
  <line x1="4615" y1="50.0" x2="4635" y2="50.0" style="stroke:#999; stroke-width:3;" />
  <rect class="anc_exon" x="4635" y="35.0" width="38" height="30" style="fill:#87bcbc;fill-opacity:1.00" />
  <line x1="4673" y1="50.0" x2="4713" y2="50.0" style="stroke:#999; stroke-width:3;" />
  <rect class="anc_exon" x="4713" y="35.0" width="52" height="30" style="fill:#87bcbc;fill-opacity:1.00" />
  <rect class="anc_exon" x="4765" y="35.0" width="0" height="30" style="fill:#87bcbc;fill-opacity:1.00" />
  <text style="" >
<tspan x="0" y="83.0" style="font-size:18px;" >SP XM_031962978_1.1</tspan>  </text>



<script type="text/ecmascript">
<![CDATA[
function draw_bbox(text_id)
{
    var text_elem = document.getElementById(text_id);
    var offset_px = 2;
    var offset_py = 0;
    bbox = text_elem.getBBox();
    var box = document.createElementNS(document.rootElement.namespaceURI,'rect');
    box.setAttribute('x', bbox.x - offset_px);
    box.setAttribute('y', bbox.y - offset_py);
    box.setAttribute('width', bbox.width + offset_px * 2);
    box.setAttribute('height', bbox.height + offset_py * 2);
    box.setAttribute('style','fill: white;'+'stroke: black;'+'stroke-width: 1px;');
    text_elem.insertBefore(box,text_elem.childNodes[0]);

    var svg = text_elem.parentNode;
    svg.appendChild(text_elem);
}

for (var i=1; i < 1; i++)
{
draw_bbox("Mouseover" + i);
}
]]> 
</script>
</svg>
