<svg version="1.1"
xmlns="http://www.w3.org/2000/svg"
xmlns:xlink="http://www.w3.org/1999/xlink"
width="10402" height="100" viewBox = "0 0 10402 100"
onclick="mouseclick(evt)">

<script type="text/ecmascript">

<![CDATA[
    function mouseover(evt, target) { 
    var gv = document.getElementById("globalVariable");
    var previoustarget = gv.firstChild.nodeValue;
    if (previoustarget != "none") 
    {
        	document.getElementById(gv.firstChild.nodeValue).setAttributeNS(null, "visibility", "hidden");
    }
    document.getElementById(target).setAttributeNS(null, "visibility", "visible");
    gv.firstChild.nodeValue = target;
        }

    function mouseclick(evt) { 
    var gv = document.getElementById("globalVariable");
    var previoustarget = gv.firstChild.nodeValue;
    if (previoustarget != "none") {
        	document.getElementById(gv.firstChild.nodeValue).setAttributeNS(null, "visibility", "hidden");
        }
    }
]]>
  </script>
<style type="text/css" >

<![CDATA[
    rect.anc_exon {
              stroke-width:3;
                  }

    rect.non_anc_exon {
              stroke: black; stroke-width:3; stroke-dasharray: 5,5;
                    }

    text {
              font-size: 18px;
              font-family: Courier New;
          }
                    ]]>
</style>

<defs>
    <text x="150" y="40" id="globalVariable">none</text>
</defs>

  <rect class="anc_exon" x="0" y="35.0" width="0" height="30" style="fill:#87bcbc;fill-opacity:1.00" />
  <rect class="anc_exon" x="0" y="35.0" width="73.60000000000001" height="30" style="fill:#87bcbc;fill-opacity:1.00" />
  <line x1="73.60000000000001" y1="50.0" x2="113.0" y2="50.0" style="stroke:#999; stroke-width:3;" />
  <rect class="anc_exon" x="113" y="35.0" width="39" height="30" style="fill:#87bcbc;fill-opacity:1.00" />
  <line x1="152" y1="50.0" x2="172" y2="50.0" style="stroke:#999; stroke-width:3;" />
  <line x1="172" y1="50.0" x2="172" y2="50.0" style="stroke:#999; stroke-width:3;" />
  <line x1="172" y1="50.0" x2="172" y2="50.0" style="stroke:#999; stroke-width:3;" />
  <line x1="172" y1="50.0" x2="192" y2="50.0" style="stroke:#999; stroke-width:3;" />
  <rect class="anc_exon" x="192" y="35.0" width="125" height="30" style="fill:#87bcbc;fill-opacity:1.00" />
  <line x1="317" y1="50.0" x2="357" y2="50.0" style="stroke:#999; stroke-width:3;" />
  <rect class="anc_exon" x="357" y="35.0" width="241" height="30" style="fill:#87bcbc;fill-opacity:1.00" />
  <line x1="598" y1="50.0" x2="618" y2="50.0" style="stroke:#999; stroke-width:3;" />
  <line x1="618" y1="50.0" x2="618" y2="50.0" style="stroke:#999; stroke-width:3;" />
  <line x1="618" y1="50.0" x2="618" y2="50.0" style="stroke:#999; stroke-width:3;" />
  <line x1="618" y1="50.0" x2="638" y2="50.0" style="stroke:#999; stroke-width:3;" />
  <rect class="anc_exon" x="638" y="35.0" width="99" height="30" style="fill:#87bcbc;fill-opacity:1.00" />
  <line x1="737" y1="50.0" x2="777" y2="50.0" style="stroke:#999; stroke-width:3;" />
  <rect class="anc_exon" x="777" y="35.0" width="59" height="30" style="fill:#87bcbc;fill-opacity:1.00" />
  <line x1="836" y1="50.0" x2="856" y2="50.0" style="stroke:#999; stroke-width:3;" />
  <line x1="856" y1="50.0" x2="856" y2="50.0" style="stroke:#999; stroke-width:3;" />
  <line x1="856" y1="50.0" x2="856" y2="50.0" style="stroke:#999; stroke-width:3;" />
  <line x1="856" y1="50.0" x2="876" y2="50.0" style="stroke:#999; stroke-width:3;" />
  <rect class="anc_exon" x="876" y="35.0" width="112" height="30" style="fill:#87bcbc;fill-opacity:1.00" />
  <line x1="988" y1="50.0" x2="1008" y2="50.0" style="stroke:#999; stroke-width:3;" />
  <line x1="1008" y1="50.0" x2="1008" y2="50.0" style="stroke:#999; stroke-width:3;" />
  <line x1="1008" y1="50.0" x2="1008" y2="50.0" style="stroke:#999; stroke-width:3;" />
  <line x1="1008" y1="50.0" x2="1028" y2="50.0" style="stroke:#999; stroke-width:3;" />
  <rect class="anc_exon" x="1028" y="35.0" width="209" height="30" style="fill:#87bcbc;fill-opacity:1.00" />
  <line x1="1237" y1="50.0" x2="1277" y2="50.0" style="stroke:#999; stroke-width:3;" />
  <rect class="anc_exon" x="1277" y="35.0" width="108" height="30" style="fill:#87bcbc;fill-opacity:1.00" />
  <line x1="1385" y1="50.0" x2="1425" y2="50.0" style="stroke:#999; stroke-width:3;" />
  <rect class="anc_exon" x="1425" y="35.0" width="178" height="30" style="fill:#87bcbc;fill-opacity:1.00" />
  <line x1="1603" y1="50.0" x2="1643" y2="50.0" style="stroke:#999; stroke-width:3;" />
  <rect class="anc_exon" x="1643" y="35.0" width="112" height="30" style="fill:#87bcbc;fill-opacity:1.00" />
  <line x1="1755" y1="50.0" x2="1775" y2="50.0" style="stroke:#999; stroke-width:3;" />
  <line x1="1775" y1="50.0" x2="1775" y2="50.0" style="stroke:#999; stroke-width:3;" />
  <line x1="1775" y1="50.0" x2="1775" y2="50.0" style="stroke:#999; stroke-width:3;" />
  <line x1="1775" y1="50.0" x2="1795" y2="50.0" style="stroke:#999; stroke-width:3;" />
  <rect class="anc_exon" x="1795" y="35.0" width="215" height="30" style="fill:#87bcbc;fill-opacity:1.00" />
  <line x1="2010" y1="50.0" x2="2030" y2="50.0" style="stroke:#999; stroke-width:3;" />
  <line x1="2030" y1="50.0" x2="2030" y2="50.0" style="stroke:#999; stroke-width:3;" />
  <line x1="2030" y1="50.0" x2="2030" y2="50.0" style="stroke:#999; stroke-width:3;" />
  <line x1="2030" y1="50.0" x2="2050" y2="50.0" style="stroke:#999; stroke-width:3;" />
  <rect class="anc_exon" x="2050" y="35.0" width="338" height="30" style="fill:#878787;fill-opacity:1.00" />
  <line x1="2388" y1="50.0" x2="2408" y2="50.0" style="stroke:#999; stroke-width:3;" />
  <line x1="2408" y1="50.0" x2="2408" y2="50.0" style="stroke:#999; stroke-width:3;" />
  <line x1="2408" y1="50.0" x2="2408" y2="50.0" style="stroke:#999; stroke-width:3;" />
  <line x1="2408" y1="50.0" x2="2428" y2="50.0" style="stroke:#999; stroke-width:3;" />
  <rect class="anc_exon" x="2428" y="35.0" width="117" height="30" style="fill:#87bcbc;fill-opacity:1.00" />
  <line x1="2545" y1="50.0" x2="2565" y2="50.0" style="stroke:#999; stroke-width:3;" />
  <line x1="2565" y1="50.0" x2="2565" y2="50.0" style="stroke:#999; stroke-width:3;" />
  <line x1="2565" y1="50.0" x2="2565" y2="50.0" style="stroke:#999; stroke-width:3;" />
  <line x1="2565" y1="50.0" x2="2585" y2="50.0" style="stroke:#999; stroke-width:3;" />
  <rect class="anc_exon" x="2585" y="35.0" width="118" height="30" style="fill:#87bcbc;fill-opacity:1.00" />
  <line x1="2703" y1="50.0" x2="2723" y2="50.0" style="stroke:#999; stroke-width:3;" />
  <line x1="2723" y1="50.0" x2="2723" y2="50.0" style="stroke:#999; stroke-width:3;" />
  <line x1="2723" y1="50.0" x2="2723" y2="50.0" style="stroke:#999; stroke-width:3;" />
  <line x1="2723" y1="50.0" x2="2743" y2="50.0" style="stroke:#999; stroke-width:3;" />
  <rect class="anc_exon" x="2743" y="35.0" width="119" height="30" style="fill:#87bcbc;fill-opacity:1.00" />
  <line x1="2862" y1="50.0" x2="2882" y2="50.0" style="stroke:#999; stroke-width:3;" />
  <line x1="2882" y1="50.0" x2="2882" y2="50.0" style="stroke:#999; stroke-width:3;" />
  <line x1="2882" y1="50.0" x2="2882" y2="50.0" style="stroke:#999; stroke-width:3;" />
  <line x1="2882" y1="50.0" x2="2902" y2="50.0" style="stroke:#999; stroke-width:3;" />
  <rect class="anc_exon" x="2902" y="35.0" width="133" height="30" style="fill:#87bcbc;fill-opacity:1.00" />
  <line x1="3035" y1="50.0" x2="3075" y2="50.0" style="stroke:#999; stroke-width:3;" />
  <rect class="anc_exon" x="3075" y="35.0" width="72" height="30" style="fill:#87bcbc;fill-opacity:1.00" />
  <line x1="3147" y1="50.0" x2="3167" y2="50.0" style="stroke:#999; stroke-width:3;" />
  <line x1="3167" y1="50.0" x2="3167" y2="50.0" style="stroke:#999; stroke-width:3;" />
  <line x1="3167" y1="50.0" x2="3167" y2="50.0" style="stroke:#999; stroke-width:3;" />
  <line x1="3167" y1="50.0" x2="3187" y2="50.0" style="stroke:#999; stroke-width:3;" />
  <rect class="anc_exon" x="3187" y="35.0" width="172" height="30" style="fill:#87bcbc;fill-opacity:1.00" />
  <line x1="3359" y1="50.0" x2="3399" y2="50.0" style="stroke:#999; stroke-width:3;" />
  <rect class="anc_exon" x="3399" y="35.0" width="85" height="30" style="fill:#87bcbc;fill-opacity:1.00" />
  <line x1="3484" y1="50.0" x2="3504" y2="50.0" style="stroke:#999; stroke-width:3;" />
  <line x1="3504" y1="50.0" x2="3504" y2="50.0" style="stroke:#999; stroke-width:3;" />
  <line x1="3504" y1="50.0" x2="3504" y2="50.0" style="stroke:#999; stroke-width:3;" />
  <line x1="3504" y1="50.0" x2="3524" y2="50.0" style="stroke:#999; stroke-width:3;" />
  <rect class="anc_exon" x="3524" y="35.0" width="77" height="30" style="fill:#87bcbc;fill-opacity:1.00" />
  <line x1="3601" y1="50.0" x2="3621" y2="50.0" style="stroke:#999; stroke-width:3;" />
  <line x1="3621" y1="50.0" x2="3621" y2="50.0" style="stroke:#999; stroke-width:3;" />
  <line x1="3621" y1="50.0" x2="3621" y2="50.0" style="stroke:#999; stroke-width:3;" />
  <line x1="3621" y1="50.0" x2="3641" y2="50.0" style="stroke:#999; stroke-width:3;" />
  <rect class="anc_exon" x="3641" y="35.0" width="138" height="30" style="fill:#87bcbc;fill-opacity:1.00" />
  <line x1="3779" y1="50.0" x2="3799" y2="50.0" style="stroke:#999; stroke-width:3;" />
  <line x1="3799" y1="50.0" x2="3799" y2="50.0" style="stroke:#999; stroke-width:3;" />
  <line x1="3799" y1="50.0" x2="3799" y2="50.0" style="stroke:#999; stroke-width:3;" />
  <line x1="3799" y1="50.0" x2="3819" y2="50.0" style="stroke:#999; stroke-width:3;" />
  <rect class="anc_exon" x="3819" y="35.0" width="170" height="30" style="fill:#87bcbc;fill-opacity:1.00" />
  <line x1="3989" y1="50.0" x2="4009" y2="50.0" style="stroke:#999; stroke-width:3;" />
  <line x1="4009" y1="50.0" x2="4009" y2="50.0" style="stroke:#999; stroke-width:3;" />
  <line x1="4009" y1="50.0" x2="4009" y2="50.0" style="stroke:#999; stroke-width:3;" />
  <line x1="4009" y1="50.0" x2="4029" y2="50.0" style="stroke:#999; stroke-width:3;" />
  <rect class="anc_exon" x="4029" y="35.0" width="108" height="30" style="fill:#87bcbc;fill-opacity:1.00" />
  <line x1="4137" y1="50.0" x2="4157" y2="50.0" style="stroke:#999; stroke-width:3;" />
  <line x1="4157" y1="50.0" x2="4157" y2="50.0" style="stroke:#999; stroke-width:3;" />
  <line x1="4157" y1="50.0" x2="4157" y2="50.0" style="stroke:#999; stroke-width:3;" />
  <line x1="4157" y1="50.0" x2="4177" y2="50.0" style="stroke:#999; stroke-width:3;" />
  <rect class="anc_exon" x="4177" y="35.0" width="107" height="30" style="fill:#87bcbc;fill-opacity:1.00" />
  <line x1="4284" y1="50.0" x2="4304" y2="50.0" style="stroke:#999; stroke-width:3;" />
  <line x1="4304" y1="50.0" x2="4304" y2="50.0" style="stroke:#999; stroke-width:3;" />
  <line x1="4304" y1="50.0" x2="4304" y2="50.0" style="stroke:#999; stroke-width:3;" />
  <line x1="4304" y1="50.0" x2="4324" y2="50.0" style="stroke:#999; stroke-width:3;" />
  <rect class="anc_exon" x="4324" y="35.0" width="132" height="30" style="fill:#87bcbc;fill-opacity:1.00" />
  <line x1="4456" y1="50.0" x2="4476" y2="50.0" style="stroke:#999; stroke-width:3;" />
  <line x1="4476" y1="50.0" x2="4476" y2="50.0" style="stroke:#999; stroke-width:3;" />
  <line x1="4476" y1="50.0" x2="4476" y2="50.0" style="stroke:#999; stroke-width:3;" />
  <line x1="4476" y1="50.0" x2="4496" y2="50.0" style="stroke:#999; stroke-width:3;" />
  <rect class="anc_exon" x="4496" y="35.0" width="80" height="30" style="fill:#87bcbc;fill-opacity:1.00" />
  <line x1="4576" y1="50.0" x2="4616" y2="50.0" style="stroke:#999; stroke-width:3;" />
  <rect class="anc_exon" x="4616" y="35.0" width="160" height="30" style="fill:#87bcbc;fill-opacity:1.00" />
  <line x1="4776" y1="50.0" x2="4796" y2="50.0" style="stroke:#999; stroke-width:3;" />
  <line x1="4796" y1="50.0" x2="4796" y2="50.0" style="stroke:#999; stroke-width:3;" />
  <line x1="4796" y1="50.0" x2="4796" y2="50.0" style="stroke:#999; stroke-width:3;" />
  <line x1="4796" y1="50.0" x2="4816" y2="50.0" style="stroke:#999; stroke-width:3;" />
  <rect class="anc_exon" x="4816" y="35.0" width="86" height="30" style="fill:#87bcbc;fill-opacity:1.00" />
  <line x1="4902" y1="50.0" x2="4922" y2="50.0" style="stroke:#999; stroke-width:3;" />
  <line x1="4922" y1="50.0" x2="4922" y2="50.0" style="stroke:#999; stroke-width:3;" />
  <line x1="4922" y1="50.0" x2="4922" y2="50.0" style="stroke:#999; stroke-width:3;" />
  <line x1="4922" y1="50.0" x2="4942" y2="50.0" style="stroke:#999; stroke-width:3;" />
  <rect class="anc_exon" x="4942" y="35.0" width="111" height="30" style="fill:#87bcbc;fill-opacity:1.00" />
  <line x1="5053" y1="50.0" x2="5073" y2="50.0" style="stroke:#999; stroke-width:3;" />
  <line x1="5073" y1="50.0" x2="5073" y2="50.0" style="stroke:#999; stroke-width:3;" />
  <line x1="5073" y1="50.0" x2="5073" y2="50.0" style="stroke:#999; stroke-width:3;" />
  <line x1="5073" y1="50.0" x2="5093" y2="50.0" style="stroke:#999; stroke-width:3;" />
  <rect class="anc_exon" x="5093" y="35.0" width="145" height="30" style="fill:#87bcbc;fill-opacity:1.00" />
  <line x1="5238" y1="50.0" x2="5258" y2="50.0" style="stroke:#999; stroke-width:3;" />
  <line x1="5258" y1="50.0" x2="5258" y2="50.0" style="stroke:#999; stroke-width:3;" />
  <line x1="5258" y1="50.0" x2="5258" y2="50.0" style="stroke:#999; stroke-width:3;" />
  <line x1="5258" y1="50.0" x2="5278" y2="50.0" style="stroke:#999; stroke-width:3;" />
  <rect class="anc_exon" x="5278" y="35.0" width="105" height="30" style="fill:#87bcbc;fill-opacity:1.00" />
  <line x1="5383" y1="50.0" x2="5423" y2="50.0" style="stroke:#999; stroke-width:3;" />
  <rect class="anc_exon" x="5423" y="35.0" width="149" height="30" style="fill:#87bcbc;fill-opacity:1.00" />
  <line x1="5572" y1="50.0" x2="5612" y2="50.0" style="stroke:#999; stroke-width:3;" />
  <rect class="anc_exon" x="5612" y="35.0" width="105" height="30" style="fill:#87bcbc;fill-opacity:1.00" />
  <line x1="5717" y1="50.0" x2="5757" y2="50.0" style="stroke:#999; stroke-width:3;" />
  <rect class="anc_exon" x="5757" y="35.0" width="115" height="30" style="fill:#87bcbc;fill-opacity:1.00" />
  <line x1="5872" y1="50.0" x2="5912" y2="50.0" style="stroke:#999; stroke-width:3;" />
  <rect class="anc_exon" x="5912" y="35.0" width="80" height="30" style="fill:#87bcbc;fill-opacity:1.00" />
  <line x1="5992" y1="50.0" x2="6012" y2="50.0" style="stroke:#999; stroke-width:3;" />
  <line x1="6012" y1="50.0" x2="6012" y2="50.0" style="stroke:#999; stroke-width:3;" />
  <line x1="6012" y1="50.0" x2="6012" y2="50.0" style="stroke:#999; stroke-width:3;" />
  <line x1="6012" y1="50.0" x2="6032" y2="50.0" style="stroke:#999; stroke-width:3;" />
  <rect class="anc_exon" x="6032" y="35.0" width="69" height="30" style="fill:#87bcbc;fill-opacity:1.00" />
  <line x1="6101" y1="50.0" x2="6141" y2="50.0" style="stroke:#999; stroke-width:3;" />
  <rect class="anc_exon" x="6141" y="35.0" width="147" height="30" style="fill:#87bcbc;fill-opacity:1.00" />
  <line x1="6288" y1="50.0" x2="6328" y2="50.0" style="stroke:#999; stroke-width:3;" />
  <rect class="anc_exon" x="6328" y="35.0" width="76" height="30" style="fill:#87bcbc;fill-opacity:1.00" />
  <line x1="6404" y1="50.0" x2="6444" y2="50.0" style="stroke:#999; stroke-width:3;" />
  <rect class="anc_exon" x="6444" y="35.0" width="72" height="30" style="fill:#87bcbc;fill-opacity:1.00" />
  <line x1="6516" y1="50.0" x2="6556" y2="50.0" style="stroke:#999; stroke-width:3;" />
  <rect class="anc_exon" x="6556" y="35.0" width="81" height="30" style="fill:#87bcbc;fill-opacity:1.00" />
  <line x1="6637" y1="50.0" x2="6657" y2="50.0" style="stroke:#999; stroke-width:3;" />
  <line x1="6657" y1="50.0" x2="6657" y2="50.0" style="stroke:#999; stroke-width:3;" />
  <line x1="6657" y1="50.0" x2="6657" y2="50.0" style="stroke:#999; stroke-width:3;" />
  <line x1="6657" y1="50.0" x2="6677" y2="50.0" style="stroke:#999; stroke-width:3;" />
  <rect class="anc_exon" x="6677" y="35.0" width="144" height="30" style="fill:#87bcbc;fill-opacity:1.00" />
  <line x1="6821" y1="50.0" x2="6861" y2="50.0" style="stroke:#999; stroke-width:3;" />
  <rect class="anc_exon" x="6861" y="35.0" width="215" height="30" style="fill:#87bcbc;fill-opacity:1.00" />
  <line x1="7076" y1="50.0" x2="7116" y2="50.0" style="stroke:#999; stroke-width:3;" />
  <rect class="anc_exon" x="7116" y="35.0" width="108" height="30" style="fill:#87bcbc;fill-opacity:1.00" />
  <line x1="7224" y1="50.0" x2="7244" y2="50.0" style="stroke:#999; stroke-width:3;" />
  <line x1="7244" y1="50.0" x2="7244" y2="50.0" style="stroke:#999; stroke-width:3;" />
  <line x1="7244" y1="50.0" x2="7244" y2="50.0" style="stroke:#999; stroke-width:3;" />
  <line x1="7244" y1="50.0" x2="7264" y2="50.0" style="stroke:#999; stroke-width:3;" />
  <rect class="anc_exon" x="7264" y="35.0" width="111" height="30" style="fill:#87bcbc;fill-opacity:1.00" />
  <line x1="7375" y1="50.0" x2="7415" y2="50.0" style="stroke:#999; stroke-width:3;" />
  <rect class="anc_exon" x="7415" y="35.0" width="77" height="30" style="fill:#87bcbc;fill-opacity:1.00" />
  <line x1="7492" y1="50.0" x2="7532" y2="50.0" style="stroke:#999; stroke-width:3;" />
  <rect class="anc_exon" x="7532" y="35.0" width="136" height="30" style="fill:#87bcbc;fill-opacity:1.00" />
  <line x1="7668" y1="50.0" x2="7708" y2="50.0" style="stroke:#999; stroke-width:3;" />
  <rect class="anc_exon" x="7708" y="35.0" width="74" height="30" style="fill:#87bcbc;fill-opacity:1.00" />
  <line x1="7782" y1="50.0" x2="7822" y2="50.0" style="stroke:#999; stroke-width:3;" />
  <rect class="anc_exon" x="7822" y="35.0" width="28" height="30" style="fill:#87bcbc;fill-opacity:1.00" />
  <line x1="7850" y1="50.0" x2="7890" y2="50.0" style="stroke:#999; stroke-width:3;" />
  <rect class="anc_exon" x="7890" y="35.0" width="175" height="30" style="fill:#87bcbc;fill-opacity:1.00" />
  <line x1="8065" y1="50.0" x2="8085" y2="50.0" style="stroke:#999; stroke-width:3;" />
  <line x1="8085" y1="50.0" x2="8085" y2="50.0" style="stroke:#999; stroke-width:3;" />
  <line x1="8085" y1="50.0" x2="8085" y2="50.0" style="stroke:#999; stroke-width:3;" />
  <line x1="8085" y1="50.0" x2="8105" y2="50.0" style="stroke:#999; stroke-width:3;" />
  <rect class="anc_exon" x="8105" y="35.0" width="160" height="30" style="fill:#87bcbc;fill-opacity:1.00" />
  <line x1="8265" y1="50.0" x2="8285" y2="50.0" style="stroke:#999; stroke-width:3;" />
  <line x1="8285" y1="50.0" x2="8285" y2="50.0" style="stroke:#999; stroke-width:3;" />
  <line x1="8285" y1="50.0" x2="8285" y2="50.0" style="stroke:#999; stroke-width:3;" />
  <line x1="8285" y1="50.0" x2="8305" y2="50.0" style="stroke:#999; stroke-width:3;" />
  <rect class="anc_exon" x="8305" y="35.0" width="99" height="30" style="fill:#87bcbc;fill-opacity:1.00" />
  <line x1="8404" y1="50.0" x2="8444" y2="50.0" style="stroke:#999; stroke-width:3;" />
  <rect class="anc_exon" x="8444" y="35.0" width="100" height="30" style="fill:#87bcbc;fill-opacity:1.00" />
  <line x1="8544" y1="50.0" x2="8584" y2="50.0" style="stroke:#999; stroke-width:3;" />
  <rect class="anc_exon" x="8584" y="35.0" width="99" height="30" style="fill:#87bcbc;fill-opacity:1.00" />
  <line x1="8683" y1="50.0" x2="8723" y2="50.0" style="stroke:#999; stroke-width:3;" />
  <rect class="anc_exon" x="8723" y="35.0" width="165" height="30" style="fill:#87bcbc;fill-opacity:1.00" />
  <line x1="8888" y1="50.0" x2="8908" y2="50.0" style="stroke:#999; stroke-width:3;" />
  <line x1="8908" y1="50.0" x2="8908" y2="50.0" style="stroke:#999; stroke-width:3;" />
  <line x1="8908" y1="50.0" x2="8908" y2="50.0" style="stroke:#999; stroke-width:3;" />
  <line x1="8908" y1="50.0" x2="8928" y2="50.0" style="stroke:#999; stroke-width:3;" />
  <rect class="anc_exon" x="8928" y="35.0" width="148" height="30" style="fill:#87bcbc;fill-opacity:1.00" />
  <line x1="9076" y1="50.0" x2="9116" y2="50.0" style="stroke:#999; stroke-width:3;" />
  <rect class="anc_exon" x="9116" y="35.0" width="132" height="30" style="fill:#87bcbc;fill-opacity:1.00" />
  <line x1="9248" y1="50.0" x2="9288" y2="50.0" style="stroke:#999; stroke-width:3;" />
  <rect class="anc_exon" x="9288" y="35.0" width="144" height="30" style="fill:#87bcbc;fill-opacity:1.00" />
  <line x1="9432" y1="50.0" x2="9452" y2="50.0" style="stroke:#999; stroke-width:3;" />
  <line x1="9452" y1="50.0" x2="9452" y2="50.0" style="stroke:#999; stroke-width:3;" />
  <line x1="9452" y1="50.0" x2="9452" y2="50.0" style="stroke:#999; stroke-width:3;" />
  <line x1="9452" y1="50.0" x2="9472" y2="50.0" style="stroke:#999; stroke-width:3;" />
  <rect class="anc_exon" x="9472" y="35.0" width="111" height="30" style="fill:#87bcbc;fill-opacity:1.00" />
  <line x1="9583" y1="50.0" x2="9603" y2="50.0" style="stroke:#999; stroke-width:3;" />
  <line x1="9603" y1="50.0" x2="9603" y2="50.0" style="stroke:#999; stroke-width:3;" />
  <line x1="9603" y1="50.0" x2="9603" y2="50.0" style="stroke:#999; stroke-width:3;" />
  <line x1="9603" y1="50.0" x2="9623" y2="50.0" style="stroke:#999; stroke-width:3;" />
  <rect class="anc_exon" x="9623" y="35.0" width="45" height="30" style="fill:#87bcbc;fill-opacity:1.00" />
  <line x1="9668" y1="50.0" x2="9688" y2="50.0" style="stroke:#999; stroke-width:3;" />
  <line x1="9688" y1="50.0" x2="9688" y2="50.0" style="stroke:#999; stroke-width:3;" />
  <line x1="9688" y1="50.0" x2="9688" y2="50.0" style="stroke:#999; stroke-width:3;" />
  <line x1="9688" y1="50.0" x2="9708" y2="50.0" style="stroke:#999; stroke-width:3;" />
  <rect class="anc_exon" x="9708" y="35.0" width="65" height="30" style="fill:#87bcbc;fill-opacity:1.00" />
  <line x1="9773" y1="50.0" x2="9813" y2="50.0" style="stroke:#999; stroke-width:3;" />
  <rect class="anc_exon" x="9813" y="35.0" width="89" height="30" style="fill:#87bcbc;fill-opacity:1.00" />
  <line x1="9902" y1="50.0" x2="9942" y2="50.0" style="stroke:#999; stroke-width:3;" />
  <rect class="anc_exon" x="9942" y="35.0" width="164" height="30" style="fill:#87bcbc;fill-opacity:1.00" />
  <line x1="10106" y1="50.0" x2="10146" y2="50.0" style="stroke:#999; stroke-width:3;" />
  <rect class="anc_exon" x="10146" y="35.0" width="220" height="30" style="fill:#87bcbc;fill-opacity:1.00" />
  <rect class="anc_exon" x="10366" y="35.0" width="0" height="30" style="fill:#87bcbc;fill-opacity:1.00" />
  <text style="" >
<tspan x="0" y="83.0" style="font-size:18px;" >SP XM_031958135_1.1</tspan>  </text>



<script type="text/ecmascript">
<![CDATA[
function draw_bbox(text_id)
{
    var text_elem = document.getElementById(text_id);
    var offset_px = 2;
    var offset_py = 0;
    bbox = text_elem.getBBox();
    var box = document.createElementNS(document.rootElement.namespaceURI,'rect');
    box.setAttribute('x', bbox.x - offset_px);
    box.setAttribute('y', bbox.y - offset_py);
    box.setAttribute('width', bbox.width + offset_px * 2);
    box.setAttribute('height', bbox.height + offset_py * 2);
    box.setAttribute('style','fill: white;'+'stroke: black;'+'stroke-width: 1px;');
    text_elem.insertBefore(box,text_elem.childNodes[0]);

    var svg = text_elem.parentNode;
    svg.appendChild(text_elem);
}

for (var i=1; i < 1; i++)
{
draw_bbox("Mouseover" + i);
}
]]> 
</script>
</svg>
