<svg version="1.1"
xmlns="http://www.w3.org/2000/svg"
xmlns:xlink="http://www.w3.org/1999/xlink"
width="4641" height="100" viewBox = "0 0 4641 100"
onclick="mouseclick(evt)">

<script type="text/ecmascript">

<![CDATA[
    function mouseover(evt, target) { 
    var gv = document.getElementById("globalVariable");
    var previoustarget = gv.firstChild.nodeValue;
    if (previoustarget != "none") 
    {
        	document.getElementById(gv.firstChild.nodeValue).setAttributeNS(null, "visibility", "hidden");
    }
    document.getElementById(target).setAttributeNS(null, "visibility", "visible");
    gv.firstChild.nodeValue = target;
        }

    function mouseclick(evt) { 
    var gv = document.getElementById("globalVariable");
    var previoustarget = gv.firstChild.nodeValue;
    if (previoustarget != "none") {
        	document.getElementById(gv.firstChild.nodeValue).setAttributeNS(null, "visibility", "hidden");
        }
    }
]]>
  </script>
<style type="text/css" >

<![CDATA[
    rect.anc_exon {
              stroke-width:3;
                  }

    rect.non_anc_exon {
              stroke: black; stroke-width:3; stroke-dasharray: 5,5;
                    }

    text {
              font-size: 18px;
              font-family: Courier New;
          }
                    ]]>
</style>

<defs>
    <text x="150" y="40" id="globalVariable">none</text>
</defs>

  <rect class="anc_exon" x="0" y="35.0" width="0" height="30" style="fill:#87bcbc;fill-opacity:1.00" />
  <rect class="anc_exon" x="0" y="35.0" width="68.8" height="30" style="fill:#87bcbc;fill-opacity:1.00" />
  <line x1="68.8" y1="50.0" x2="108.0" y2="50.0" style="stroke:#999; stroke-width:3;" />
  <rect class="anc_exon" x="108" y="35.0" width="63" height="30" style="fill:#87bcbc;fill-opacity:1.00" />
  <line x1="171" y1="50.0" x2="211" y2="50.0" style="stroke:#999; stroke-width:3;" />
  <rect class="anc_exon" x="211" y="35.0" width="2277" height="30" style="fill:#87bcbc;fill-opacity:1.00" />
  <line x1="2488" y1="50.0" x2="2528" y2="50.0" style="stroke:#999; stroke-width:3;" />
  <rect class="anc_exon" x="2528" y="35.0" width="149" height="30" style="fill:#87bcbc;fill-opacity:1.00" />
  <line x1="2677" y1="50.0" x2="2697" y2="50.0" style="stroke:#999; stroke-width:3;" />
  <line x1="2697" y1="50.0" x2="2697" y2="50.0" style="stroke:#999; stroke-width:3;" />
  <line x1="2697" y1="50.0" x2="2697" y2="50.0" style="stroke:#999; stroke-width:3;" />
  <line x1="2697" y1="50.0" x2="2717" y2="50.0" style="stroke:#999; stroke-width:3;" />
  <rect class="anc_exon" x="2717" y="35.0" width="223" height="30" style="fill:#87bcbc;fill-opacity:1.00" />
  <line x1="2940" y1="50.0" x2="2980" y2="50.0" style="stroke:#999; stroke-width:3;" />
  <rect class="anc_exon" x="2980" y="35.0" width="204" height="30" style="fill:#87bcbc;fill-opacity:1.00" />
  <line x1="3184" y1="50.0" x2="3224" y2="50.0" style="stroke:#999; stroke-width:3;" />
  <rect class="anc_exon" x="3224" y="35.0" width="263" height="30" style="fill:#87bcbc;fill-opacity:1.00" />
  <line x1="3487" y1="50.0" x2="3527" y2="50.0" style="stroke:#999; stroke-width:3;" />
  <rect class="anc_exon" x="3527" y="35.0" width="208" height="30" style="fill:#87bcbc;fill-opacity:1.00" />
  <line x1="3735" y1="50.0" x2="3755" y2="50.0" style="stroke:#999; stroke-width:3;" />
  <line x1="3755" y1="50.0" x2="3755" y2="50.0" style="stroke:#999; stroke-width:3;" />
  <line x1="3755" y1="50.0" x2="3755" y2="50.0" style="stroke:#999; stroke-width:3;" />
  <line x1="3755" y1="50.0" x2="3775" y2="50.0" style="stroke:#999; stroke-width:3;" />
  <rect class="anc_exon" x="3775" y="35.0" width="133" height="30" style="fill:#87bcbc;fill-opacity:1.00" />
  <line x1="3908" y1="50.0" x2="3928" y2="50.0" style="stroke:#999; stroke-width:3;" />
  <line x1="3928" y1="50.0" x2="3928" y2="50.0" style="stroke:#999; stroke-width:3;" />
  <line x1="3928" y1="50.0" x2="3928" y2="50.0" style="stroke:#999; stroke-width:3;" />
  <line x1="3928" y1="50.0" x2="3948" y2="50.0" style="stroke:#999; stroke-width:3;" />
  <rect class="anc_exon" x="3948" y="35.0" width="116" height="30" style="fill:#87bcbc;fill-opacity:1.00" />
  <line x1="4064" y1="50.0" x2="4104" y2="50.0" style="stroke:#999; stroke-width:3;" />
  <rect class="anc_exon" x="4104" y="35.0" width="62" height="30" style="fill:#87bcbc;fill-opacity:1.00" />
  <line x1="4166" y1="50.0" x2="4206" y2="50.0" style="stroke:#999; stroke-width:3;" />
  <rect class="anc_exon" x="4206" y="35.0" width="123" height="30" style="fill:#87bcbc;fill-opacity:1.00" />
  <line x1="4329" y1="50.0" x2="4349" y2="50.0" style="stroke:#999; stroke-width:3;" />
  <line x1="4349" y1="50.0" x2="4349" y2="50.0" style="stroke:#999; stroke-width:3;" />
  <line x1="4349" y1="50.0" x2="4349" y2="50.0" style="stroke:#999; stroke-width:3;" />
  <line x1="4349" y1="50.0" x2="4369" y2="50.0" style="stroke:#999; stroke-width:3;" />
  <rect class="anc_exon" x="4369" y="35.0" width="236" height="30" style="fill:#87bcbc;fill-opacity:1.00" />
  <rect class="anc_exon" x="4605" y="35.0" width="0" height="30" style="fill:#87bcbc;fill-opacity:1.00" />
  <text style="" >
<tspan x="0" y="83.0" style="font-size:18px;" >SP XM_031959426_1.1</tspan>  </text>



<script type="text/ecmascript">
<![CDATA[
function draw_bbox(text_id)
{
    var text_elem = document.getElementById(text_id);
    var offset_px = 2;
    var offset_py = 0;
    bbox = text_elem.getBBox();
    var box = document.createElementNS(document.rootElement.namespaceURI,'rect');
    box.setAttribute('x', bbox.x - offset_px);
    box.setAttribute('y', bbox.y - offset_py);
    box.setAttribute('width', bbox.width + offset_px * 2);
    box.setAttribute('height', bbox.height + offset_py * 2);
    box.setAttribute('style','fill: white;'+'stroke: black;'+'stroke-width: 1px;');
    text_elem.insertBefore(box,text_elem.childNodes[0]);

    var svg = text_elem.parentNode;
    svg.appendChild(text_elem);
}

for (var i=1; i < 1; i++)
{
draw_bbox("Mouseover" + i);
}
]]> 
</script>
</svg>
