<svg version="1.1"
xmlns="http://www.w3.org/2000/svg"
xmlns:xlink="http://www.w3.org/1999/xlink"
width="3736" height="100" viewBox = "0 0 3736 100"
onclick="mouseclick(evt)">

<script type="text/ecmascript">

<![CDATA[
    function mouseover(evt, target) { 
    var gv = document.getElementById("globalVariable");
    var previoustarget = gv.firstChild.nodeValue;
    if (previoustarget != "none") 
    {
        	document.getElementById(gv.firstChild.nodeValue).setAttributeNS(null, "visibility", "hidden");
    }
    document.getElementById(target).setAttributeNS(null, "visibility", "visible");
    gv.firstChild.nodeValue = target;
        }

    function mouseclick(evt) { 
    var gv = document.getElementById("globalVariable");
    var previoustarget = gv.firstChild.nodeValue;
    if (previoustarget != "none") {
        	document.getElementById(gv.firstChild.nodeValue).setAttributeNS(null, "visibility", "hidden");
        }
    }
]]>
  </script>
<style type="text/css" >

<![CDATA[
    rect.anc_exon {
              stroke-width:3;
                  }

    rect.non_anc_exon {
              stroke: black; stroke-width:3; stroke-dasharray: 5,5;
                    }

    text {
              font-size: 18px;
              font-family: Courier New;
          }
                    ]]>
</style>

<defs>
    <text x="150" y="40" id="globalVariable">none</text>
</defs>

  <rect class="anc_exon" x="0" y="35.0" width="0" height="30" style="fill:#87bcbc;fill-opacity:1.00" />
  <rect class="anc_exon" x="0" y="35.0" width="64.8" height="30" style="fill:#87bcbc;fill-opacity:1.00" />
  <line x1="64.8" y1="50.0" x2="83.8" y2="50.0" style="stroke:#999; stroke-width:3;" />
  <line x1="83.8" y1="50.0" x2="83.8" y2="50.0" style="stroke:#999; stroke-width:3;" />
  <line x1="83.8" y1="50.0" x2="83.8" y2="50.0" style="stroke:#999; stroke-width:3;" />
  <line x1="83.8" y1="50.0" x2="104.0" y2="50.0" style="stroke:#999; stroke-width:3;" />
  <rect class="anc_exon" x="104" y="35.0" width="65" height="30" style="fill:#87bcbc;fill-opacity:1.00" />
  <line x1="169" y1="50.0" x2="189" y2="50.0" style="stroke:#999; stroke-width:3;" />
  <line x1="189" y1="50.0" x2="189" y2="50.0" style="stroke:#999; stroke-width:3;" />
  <line x1="189" y1="50.0" x2="189" y2="50.0" style="stroke:#999; stroke-width:3;" />
  <line x1="189" y1="50.0" x2="209" y2="50.0" style="stroke:#999; stroke-width:3;" />
  <rect class="anc_exon" x="209" y="35.0" width="117" height="30" style="fill:#87bcbc;fill-opacity:1.00" />
  <line x1="326" y1="50.0" x2="346" y2="50.0" style="stroke:#999; stroke-width:3;" />
  <line x1="346" y1="50.0" x2="346" y2="50.0" style="stroke:#999; stroke-width:3;" />
  <line x1="346" y1="50.0" x2="346" y2="50.0" style="stroke:#999; stroke-width:3;" />
  <line x1="346" y1="50.0" x2="366" y2="50.0" style="stroke:#999; stroke-width:3;" />
  <rect class="anc_exon" x="366" y="35.0" width="111" height="30" style="fill:#87bcbc;fill-opacity:1.00" />
  <line x1="477" y1="50.0" x2="497" y2="50.0" style="stroke:#999; stroke-width:3;" />
  <line x1="497" y1="50.0" x2="497" y2="50.0" style="stroke:#999; stroke-width:3;" />
  <line x1="497" y1="50.0" x2="497" y2="50.0" style="stroke:#999; stroke-width:3;" />
  <line x1="497" y1="50.0" x2="517" y2="50.0" style="stroke:#999; stroke-width:3;" />
  <rect class="anc_exon" x="517" y="35.0" width="128" height="30" style="fill:#87bcbc;fill-opacity:1.00" />
  <line x1="645" y1="50.0" x2="665" y2="50.0" style="stroke:#999; stroke-width:3;" />
  <line x1="665" y1="50.0" x2="665" y2="50.0" style="stroke:#999; stroke-width:3;" />
  <line x1="665" y1="50.0" x2="665" y2="50.0" style="stroke:#999; stroke-width:3;" />
  <line x1="665" y1="50.0" x2="685" y2="50.0" style="stroke:#999; stroke-width:3;" />
  <rect class="anc_exon" x="685" y="35.0" width="151" height="30" style="fill:#87bcbc;fill-opacity:1.00" />
  <line x1="836" y1="50.0" x2="856" y2="50.0" style="stroke:#999; stroke-width:3;" />
  <line x1="856" y1="50.0" x2="856" y2="50.0" style="stroke:#999; stroke-width:3;" />
  <line x1="856" y1="50.0" x2="856" y2="50.0" style="stroke:#999; stroke-width:3;" />
  <line x1="856" y1="50.0" x2="876" y2="50.0" style="stroke:#999; stroke-width:3;" />
  <rect class="anc_exon" x="876" y="35.0" width="73" height="30" style="fill:#87bcbc;fill-opacity:1.00" />
  <line x1="949" y1="50.0" x2="989" y2="50.0" style="stroke:#999; stroke-width:3;" />
  <rect class="anc_exon" x="989" y="35.0" width="72" height="30" style="fill:#87bcbc;fill-opacity:1.00" />
  <line x1="1061" y1="50.0" x2="1081" y2="50.0" style="stroke:#999; stroke-width:3;" />
  <line x1="1081" y1="50.0" x2="1081" y2="50.0" style="stroke:#999; stroke-width:3;" />
  <line x1="1081" y1="50.0" x2="1081" y2="50.0" style="stroke:#999; stroke-width:3;" />
  <line x1="1081" y1="50.0" x2="1101" y2="50.0" style="stroke:#999; stroke-width:3;" />
  <rect class="anc_exon" x="1101" y="35.0" width="126" height="30" style="fill:#87bcbc;fill-opacity:1.00" />
  <line x1="1227" y1="50.0" x2="1247" y2="50.0" style="stroke:#999; stroke-width:3;" />
  <line x1="1247" y1="50.0" x2="1247" y2="50.0" style="stroke:#999; stroke-width:3;" />
  <line x1="1247" y1="50.0" x2="1247" y2="50.0" style="stroke:#999; stroke-width:3;" />
  <line x1="1247" y1="50.0" x2="1267" y2="50.0" style="stroke:#999; stroke-width:3;" />
  <rect class="anc_exon" x="1267" y="35.0" width="70" height="30" style="fill:#87bcbc;fill-opacity:1.00" />
  <line x1="1337" y1="50.0" x2="1357" y2="50.0" style="stroke:#999; stroke-width:3;" />
  <line x1="1357" y1="50.0" x2="1357" y2="50.0" style="stroke:#999; stroke-width:3;" />
  <line x1="1357" y1="50.0" x2="1357" y2="50.0" style="stroke:#999; stroke-width:3;" />
  <line x1="1357" y1="50.0" x2="1377" y2="50.0" style="stroke:#999; stroke-width:3;" />
  <rect class="anc_exon" x="1377" y="35.0" width="117" height="30" style="fill:#87bcbc;fill-opacity:1.00" />
  <line x1="1494" y1="50.0" x2="1514" y2="50.0" style="stroke:#999; stroke-width:3;" />
  <line x1="1514" y1="50.0" x2="1514" y2="50.0" style="stroke:#999; stroke-width:3;" />
  <line x1="1514" y1="50.0" x2="1514" y2="50.0" style="stroke:#999; stroke-width:3;" />
  <line x1="1514" y1="50.0" x2="1534" y2="50.0" style="stroke:#999; stroke-width:3;" />
  <rect class="anc_exon" x="1534" y="35.0" width="80" height="30" style="fill:#87bcbc;fill-opacity:1.00" />
  <line x1="1614" y1="50.0" x2="1634" y2="50.0" style="stroke:#999; stroke-width:3;" />
  <line x1="1634" y1="50.0" x2="1634" y2="50.0" style="stroke:#999; stroke-width:3;" />
  <line x1="1634" y1="50.0" x2="1634" y2="50.0" style="stroke:#999; stroke-width:3;" />
  <line x1="1634" y1="50.0" x2="1654" y2="50.0" style="stroke:#999; stroke-width:3;" />
  <rect class="anc_exon" x="1654" y="35.0" width="140" height="30" style="fill:#87bcbc;fill-opacity:1.00" />
  <line x1="1794" y1="50.0" x2="1834" y2="50.0" style="stroke:#999; stroke-width:3;" />
  <rect class="anc_exon" x="1834" y="35.0" width="107" height="30" style="fill:#87bcbc;fill-opacity:1.00" />
  <line x1="1941" y1="50.0" x2="1981" y2="50.0" style="stroke:#999; stroke-width:3;" />
  <rect class="anc_exon" x="1981" y="35.0" width="196" height="30" style="fill:#87bcbc;fill-opacity:1.00" />
  <line x1="2177" y1="50.0" x2="2197" y2="50.0" style="stroke:#999; stroke-width:3;" />
  <line x1="2197" y1="50.0" x2="2197" y2="50.0" style="stroke:#999; stroke-width:3;" />
  <line x1="2197" y1="50.0" x2="2197" y2="50.0" style="stroke:#999; stroke-width:3;" />
  <line x1="2197" y1="50.0" x2="2217" y2="50.0" style="stroke:#999; stroke-width:3;" />
  <rect class="anc_exon" x="2217" y="35.0" width="84" height="30" style="fill:#87bcbc;fill-opacity:1.00" />
  <line x1="2301" y1="50.0" x2="2321" y2="50.0" style="stroke:#999; stroke-width:3;" />
  <line x1="2321" y1="50.0" x2="2321" y2="50.0" style="stroke:#999; stroke-width:3;" />
  <line x1="2321" y1="50.0" x2="2321" y2="50.0" style="stroke:#999; stroke-width:3;" />
  <line x1="2321" y1="50.0" x2="2341" y2="50.0" style="stroke:#999; stroke-width:3;" />
  <rect class="anc_exon" x="2341" y="35.0" width="129" height="30" style="fill:#87bcbc;fill-opacity:1.00" />
  <line x1="2470" y1="50.0" x2="2490" y2="50.0" style="stroke:#999; stroke-width:3;" />
  <line x1="2490" y1="50.0" x2="2490" y2="50.0" style="stroke:#999; stroke-width:3;" />
  <line x1="2490" y1="50.0" x2="2490" y2="50.0" style="stroke:#999; stroke-width:3;" />
  <line x1="2490" y1="50.0" x2="2510" y2="50.0" style="stroke:#999; stroke-width:3;" />
  <rect class="anc_exon" x="2510" y="35.0" width="91" height="30" style="fill:#87bcbc;fill-opacity:1.00" />
  <line x1="2601" y1="50.0" x2="2641" y2="50.0" style="stroke:#999; stroke-width:3;" />
  <rect class="anc_exon" x="2641" y="35.0" width="129" height="30" style="fill:#87bcbc;fill-opacity:1.00" />
  <line x1="2770" y1="50.0" x2="2790" y2="50.0" style="stroke:#999; stroke-width:3;" />
  <line x1="2790" y1="50.0" x2="2790" y2="50.0" style="stroke:#999; stroke-width:3;" />
  <line x1="2790" y1="50.0" x2="2790" y2="50.0" style="stroke:#999; stroke-width:3;" />
  <line x1="2790" y1="50.0" x2="2810" y2="50.0" style="stroke:#999; stroke-width:3;" />
  <rect class="anc_exon" x="2810" y="35.0" width="201" height="30" style="fill:#87bcbc;fill-opacity:1.00" />
  <line x1="3011" y1="50.0" x2="3051" y2="50.0" style="stroke:#999; stroke-width:3;" />
  <rect class="anc_exon" x="3051" y="35.0" width="55" height="30" style="fill:#87bcbc;fill-opacity:1.00" />
  <line x1="3106" y1="50.0" x2="3126" y2="50.0" style="stroke:#999; stroke-width:3;" />
  <line x1="3126" y1="50.0" x2="3126" y2="50.0" style="stroke:#999; stroke-width:3;" />
  <line x1="3126" y1="50.0" x2="3126" y2="50.0" style="stroke:#999; stroke-width:3;" />
  <line x1="3126" y1="50.0" x2="3146" y2="50.0" style="stroke:#999; stroke-width:3;" />
  <rect class="anc_exon" x="3146" y="35.0" width="139" height="30" style="fill:#87bcbc;fill-opacity:1.00" />
  <line x1="3285" y1="50.0" x2="3325" y2="50.0" style="stroke:#999; stroke-width:3;" />
  <rect class="anc_exon" x="3325" y="35.0" width="98" height="30" style="fill:#87bcbc;fill-opacity:1.00" />
  <line x1="3423" y1="50.0" x2="3443" y2="50.0" style="stroke:#999; stroke-width:3;" />
  <line x1="3443" y1="50.0" x2="3443" y2="50.0" style="stroke:#999; stroke-width:3;" />
  <line x1="3443" y1="50.0" x2="3443" y2="50.0" style="stroke:#999; stroke-width:3;" />
  <line x1="3443" y1="50.0" x2="3463" y2="50.0" style="stroke:#999; stroke-width:3;" />
  <rect class="anc_exon" x="3463" y="35.0" width="54" height="30" style="fill:#87bcbc;fill-opacity:1.00" />
  <line x1="3517" y1="50.0" x2="3537" y2="50.0" style="stroke:#999; stroke-width:3;" />
  <line x1="3537" y1="50.0" x2="3537" y2="50.0" style="stroke:#999; stroke-width:3;" />
  <line x1="3537" y1="50.0" x2="3537" y2="50.0" style="stroke:#999; stroke-width:3;" />
  <line x1="3537" y1="50.0" x2="3557" y2="50.0" style="stroke:#999; stroke-width:3;" />
  <rect class="anc_exon" x="3557" y="35.0" width="93" height="30" style="fill:#87bcbc;fill-opacity:1.00" />
  <line x1="3650" y1="50.0" x2="3690" y2="50.0" style="stroke:#999; stroke-width:3;" />
  <rect class="anc_exon" x="3690" y="35.0" width="10" height="30" style="fill:#87bcbc;fill-opacity:1.00" />
  <rect class="anc_exon" x="3700" y="35.0" width="0" height="30" style="fill:#87bcbc;fill-opacity:1.00" />
  <text style="" >
<tspan x="0" y="83.0" style="font-size:18px;" >SP XM_031960580_1.1</tspan>  </text>



<script type="text/ecmascript">
<![CDATA[
function draw_bbox(text_id)
{
    var text_elem = document.getElementById(text_id);
    var offset_px = 2;
    var offset_py = 0;
    bbox = text_elem.getBBox();
    var box = document.createElementNS(document.rootElement.namespaceURI,'rect');
    box.setAttribute('x', bbox.x - offset_px);
    box.setAttribute('y', bbox.y - offset_py);
    box.setAttribute('width', bbox.width + offset_px * 2);
    box.setAttribute('height', bbox.height + offset_py * 2);
    box.setAttribute('style','fill: white;'+'stroke: black;'+'stroke-width: 1px;');
    text_elem.insertBefore(box,text_elem.childNodes[0]);

    var svg = text_elem.parentNode;
    svg.appendChild(text_elem);
}

for (var i=1; i < 1; i++)
{
draw_bbox("Mouseover" + i);
}
]]> 
</script>
</svg>
