<svg version="1.1"
xmlns="http://www.w3.org/2000/svg"
xmlns:xlink="http://www.w3.org/1999/xlink"
width="5574" height="110.0" viewBox = "0 -10.0 5574 110.0"
onclick="mouseclick(evt)">

<script type="text/ecmascript">

<![CDATA[
    function mouseover(evt, target) { 
    var gv = document.getElementById("globalVariable");
    var previoustarget = gv.firstChild.nodeValue;
    if (previoustarget != "none") 
    {
        	document.getElementById(gv.firstChild.nodeValue).setAttributeNS(null, "visibility", "hidden");
    }
    document.getElementById(target).setAttributeNS(null, "visibility", "visible");
    gv.firstChild.nodeValue = target;
        }

    function mouseclick(evt) { 
    var gv = document.getElementById("globalVariable");
    var previoustarget = gv.firstChild.nodeValue;
    if (previoustarget != "none") {
        	document.getElementById(gv.firstChild.nodeValue).setAttributeNS(null, "visibility", "hidden");
        }
    }
]]>
  </script>
<style type="text/css" >

<![CDATA[
    rect.anc_exon {
              stroke-width:3;
                  }

    rect.non_anc_exon {
              stroke: black; stroke-width:3; stroke-dasharray: 5,5;
                    }

    text {
              font-size: 18px;
              font-family: Courier New;
          }
                    ]]>
</style>

<defs>
    <text x="150" y="40" id="globalVariable">none</text>
</defs>

  <rect class="anc_exon" x="0" y="35.0" width="0" height="30" style="fill:#87bcbc;fill-opacity:1.00" />
  <rect class="anc_exon" x="0" y="35.0" width="264.8" height="30" style="fill:#87bcbc;fill-opacity:1.00" />
  <line x1="37.6" y1="35.0" x2="37.6" y2="65.0" style="stroke:#878787;stroke-width:3;"/>
  <line x1="174.0" y1="35.0" x2="174.0" y2="65.0" style="stroke:#121212; stroke-width:0.8; stroke-opacity:1"/>
  <text style="" text-anchor="middle">
<tspan x="36.800000000000004" y="26.0" style="font-size:18px;fill:#878787;" >TAG</tspan>  </text>
  <text style="" text-anchor="middle">
<tspan x="173.60000000000002" y="26.0" style="font-size:18px;fill:#121212;" >-1</tspan>  </text>
  <line x1="264.8" y1="50.0" x2="283.8" y2="50.0" style="stroke:#999; stroke-width:3;" />
  <line x1="283.8" y1="50.0" x2="283.8" y2="50.0" style="stroke:#999; stroke-width:3;" />
  <line x1="283.8" y1="50.0" x2="283.8" y2="50.0" style="stroke:#999; stroke-width:3;" />
  <line x1="283.8" y1="50.0" x2="304.0" y2="50.0" style="stroke:#999; stroke-width:3;" />
  <rect class="anc_exon" x="304" y="35.0" width="104" height="30" style="fill:#87bcbc;fill-opacity:1.00" />
  <line x1="408" y1="50.0" x2="428" y2="50.0" style="stroke:#999; stroke-width:3;" />
  <line x1="428" y1="50.0" x2="428" y2="50.0" style="stroke:#999; stroke-width:3;" />
  <line x1="428" y1="50.0" x2="428" y2="50.0" style="stroke:#999; stroke-width:3;" />
  <line x1="428" y1="50.0" x2="448" y2="50.0" style="stroke:#999; stroke-width:3;" />
  <rect class="anc_exon" x="448" y="35.0" width="66" height="30" style="fill:#87bcbc;fill-opacity:1.00" />
  <line x1="514" y1="50.0" x2="534" y2="50.0" style="stroke:#999; stroke-width:3;" />
  <line x1="534" y1="50.0" x2="534" y2="50.0" style="stroke:#999; stroke-width:3;" />
  <line x1="534" y1="50.0" x2="534" y2="50.0" style="stroke:#999; stroke-width:3;" />
  <line x1="534" y1="50.0" x2="554" y2="50.0" style="stroke:#999; stroke-width:3;" />
  <rect class="anc_exon" x="554" y="35.0" width="104" height="30" style="fill:#87bcbc;fill-opacity:1.00" />
  <line x1="658" y1="50.0" x2="698" y2="50.0" style="stroke:#999; stroke-width:3;" />
  <rect class="anc_exon" x="698" y="35.0" width="90" height="30" style="fill:#87bcbc;fill-opacity:1.00" />
  <line x1="788" y1="50.0" x2="808" y2="50.0" style="stroke:#999; stroke-width:3;" />
  <line x1="808" y1="50.0" x2="808" y2="50.0" style="stroke:#999; stroke-width:3;" />
  <line x1="808" y1="50.0" x2="808" y2="50.0" style="stroke:#999; stroke-width:3;" />
  <line x1="808" y1="50.0" x2="828" y2="50.0" style="stroke:#999; stroke-width:3;" />
  <rect class="anc_exon" x="828" y="35.0" width="140" height="30" style="fill:#87bcbc;fill-opacity:1.00" />
  <line x1="968" y1="50.0" x2="1008" y2="50.0" style="stroke:#999; stroke-width:3;" />
  <rect class="anc_exon" x="1008" y="35.0" width="77" height="30" style="fill:#87bcbc;fill-opacity:1.00" />
  <line x1="1085" y1="50.0" x2="1125" y2="50.0" style="stroke:#999; stroke-width:3;" />
  <rect class="anc_exon" x="1125" y="35.0" width="63" height="30" style="fill:#87bcbc;fill-opacity:1.00" />
  <line x1="1188" y1="50.0" x2="1228" y2="50.0" style="stroke:#999; stroke-width:3;" />
  <rect class="anc_exon" x="1228" y="35.0" width="80" height="30" style="fill:#87bcbc;fill-opacity:1.00" />
  <line x1="1308" y1="50.0" x2="1348" y2="50.0" style="stroke:#999; stroke-width:3;" />
  <rect class="anc_exon" x="1348" y="35.0" width="80" height="30" style="fill:#87bcbc;fill-opacity:1.00" />
  <line x1="1428" y1="50.0" x2="1468" y2="50.0" style="stroke:#999; stroke-width:3;" />
  <rect class="anc_exon" x="1468" y="35.0" width="48" height="30" style="fill:#87bcbc;fill-opacity:1.00" />
  <line x1="1516" y1="50.0" x2="1556" y2="50.0" style="stroke:#999; stroke-width:3;" />
  <rect class="anc_exon" x="1556" y="35.0" width="73" height="30" style="fill:#87bcbc;fill-opacity:1.00" />
  <line x1="1629" y1="50.0" x2="1669" y2="50.0" style="stroke:#999; stroke-width:3;" />
  <rect class="anc_exon" x="1669" y="35.0" width="120" height="30" style="fill:#87bcbc;fill-opacity:1.00" />
  <line x1="1789" y1="50.0" x2="1809" y2="50.0" style="stroke:#999; stroke-width:3;" />
  <line x1="1809" y1="50.0" x2="1809" y2="50.0" style="stroke:#999; stroke-width:3;" />
  <line x1="1809" y1="50.0" x2="1809" y2="50.0" style="stroke:#999; stroke-width:3;" />
  <line x1="1809" y1="50.0" x2="1829" y2="50.0" style="stroke:#999; stroke-width:3;" />
  <rect class="anc_exon" x="1829" y="35.0" width="96" height="30" style="fill:#87bcbc;fill-opacity:1.00" />
  <line x1="1925" y1="50.0" x2="1965" y2="50.0" style="stroke:#999; stroke-width:3;" />
  <rect class="anc_exon" x="1965" y="35.0" width="68" height="30" style="fill:#87bcbc;fill-opacity:1.00" />
  <line x1="2033" y1="50.0" x2="2053" y2="50.0" style="stroke:#999; stroke-width:3;" />
  <line x1="2053" y1="50.0" x2="2053" y2="50.0" style="stroke:#999; stroke-width:3;" />
  <line x1="2053" y1="50.0" x2="2053" y2="50.0" style="stroke:#999; stroke-width:3;" />
  <line x1="2053" y1="50.0" x2="2073" y2="50.0" style="stroke:#999; stroke-width:3;" />
  <rect class="anc_exon" x="2073" y="35.0" width="108" height="30" style="fill:#87bcbc;fill-opacity:1.00" />
  <line x1="2181" y1="50.0" x2="2201" y2="50.0" style="stroke:#999; stroke-width:3;" />
  <line x1="2201" y1="50.0" x2="2201" y2="50.0" style="stroke:#999; stroke-width:3;" />
  <line x1="2201" y1="50.0" x2="2201" y2="50.0" style="stroke:#999; stroke-width:3;" />
  <line x1="2201" y1="50.0" x2="2221" y2="50.0" style="stroke:#999; stroke-width:3;" />
  <rect class="anc_exon" x="2221" y="35.0" width="105" height="30" style="fill:#87bcbc;fill-opacity:1.00" />
  <line x1="2326" y1="50.0" x2="2366" y2="50.0" style="stroke:#999; stroke-width:3;" />
  <rect class="anc_exon" x="2366" y="35.0" width="132" height="30" style="fill:#87bcbc;fill-opacity:1.00" />
  <line x1="2498" y1="50.0" x2="2538" y2="50.0" style="stroke:#999; stroke-width:3;" />
  <rect class="anc_exon" x="2538" y="35.0" width="96" height="30" style="fill:#87bcbc;fill-opacity:1.00" />
  <line x1="2634" y1="50.0" x2="2654" y2="50.0" style="stroke:#999; stroke-width:3;" />
  <line x1="2654" y1="50.0" x2="2654" y2="50.0" style="stroke:#999; stroke-width:3;" />
  <line x1="2654" y1="50.0" x2="2654" y2="50.0" style="stroke:#999; stroke-width:3;" />
  <line x1="2654" y1="50.0" x2="2674" y2="50.0" style="stroke:#999; stroke-width:3;" />
  <rect class="anc_exon" x="2674" y="35.0" width="79" height="30" style="fill:#87bcbc;fill-opacity:1.00" />
  <line x1="2753" y1="50.0" x2="2793" y2="50.0" style="stroke:#999; stroke-width:3;" />
  <rect class="anc_exon" x="2793" y="35.0" width="19" height="30" style="fill:#87bcbc;fill-opacity:1.00" />
  <line x1="2812" y1="50.0" x2="2852" y2="50.0" style="stroke:#999; stroke-width:3;" />
  <rect class="anc_exon" x="2852" y="35.0" width="76" height="30" style="fill:#87bcbc;fill-opacity:1.00" />
  <line x1="2928" y1="50.0" x2="2968" y2="50.0" style="stroke:#999; stroke-width:3;" />
  <rect class="anc_exon" x="2968" y="35.0" width="165" height="30" style="fill:#87bcbc;fill-opacity:1.00" />
  <line x1="3133" y1="50.0" x2="3173" y2="50.0" style="stroke:#999; stroke-width:3;" />
  <rect class="anc_exon" x="3173" y="35.0" width="105" height="30" style="fill:#87bcbc;fill-opacity:1.00" />
  <line x1="3278" y1="50.0" x2="3318" y2="50.0" style="stroke:#999; stroke-width:3;" />
  <rect class="anc_exon" x="3318" y="35.0" width="104" height="30" style="fill:#87bcbc;fill-opacity:1.00" />
  <line x1="3422" y1="50.0" x2="3442" y2="50.0" style="stroke:#999; stroke-width:3;" />
  <line x1="3442" y1="50.0" x2="3442" y2="50.0" style="stroke:#999; stroke-width:3;" />
  <line x1="3442" y1="50.0" x2="3442" y2="50.0" style="stroke:#999; stroke-width:3;" />
  <line x1="3442" y1="50.0" x2="3462" y2="50.0" style="stroke:#999; stroke-width:3;" />
  <rect class="anc_exon" x="3462" y="35.0" width="76" height="30" style="fill:#87bcbc;fill-opacity:1.00" />
  <line x1="3538" y1="50.0" x2="3558" y2="50.0" style="stroke:#999; stroke-width:3;" />
  <line x1="3558" y1="50.0" x2="3558" y2="50.0" style="stroke:#999; stroke-width:3;" />
  <line x1="3558" y1="50.0" x2="3558" y2="50.0" style="stroke:#999; stroke-width:3;" />
  <line x1="3558" y1="50.0" x2="3578" y2="50.0" style="stroke:#999; stroke-width:3;" />
  <rect class="anc_exon" x="3578" y="35.0" width="82" height="30" style="fill:#87bcbc;fill-opacity:1.00" />
  <line x1="3660" y1="50.0" x2="3700" y2="50.0" style="stroke:#999; stroke-width:3;" />
  <rect class="anc_exon" x="3700" y="35.0" width="64" height="30" style="fill:#87bcbc;fill-opacity:1.00" />
  <line x1="3764" y1="50.0" x2="3804" y2="50.0" style="stroke:#999; stroke-width:3;" />
  <rect class="anc_exon" x="3804" y="35.0" width="152" height="30" style="fill:#87bcbc;fill-opacity:1.00" />
  <line x1="3956" y1="50.0" x2="3976" y2="50.0" style="stroke:#999; stroke-width:3;" />
  <line x1="3976" y1="50.0" x2="3976" y2="50.0" style="stroke:#999; stroke-width:3;" />
  <line x1="3976" y1="50.0" x2="3976" y2="50.0" style="stroke:#999; stroke-width:3;" />
  <line x1="3976" y1="50.0" x2="3996" y2="50.0" style="stroke:#999; stroke-width:3;" />
  <rect class="anc_exon" x="3996" y="35.0" width="127" height="30" style="fill:#87bcbc;fill-opacity:1.00" />
  <line x1="4123" y1="50.0" x2="4163" y2="50.0" style="stroke:#999; stroke-width:3;" />
  <rect class="anc_exon" x="4163" y="35.0" width="68" height="30" style="fill:#87bcbc;fill-opacity:1.00" />
  <line x1="4231" y1="50.0" x2="4251" y2="50.0" style="stroke:#999; stroke-width:3;" />
  <line x1="4251" y1="50.0" x2="4251" y2="50.0" style="stroke:#999; stroke-width:3;" />
  <line x1="4251" y1="50.0" x2="4251" y2="50.0" style="stroke:#999; stroke-width:3;" />
  <line x1="4251" y1="50.0" x2="4271" y2="50.0" style="stroke:#999; stroke-width:3;" />
  <rect class="anc_exon" x="4271" y="35.0" width="68" height="30" style="fill:#87bcbc;fill-opacity:1.00" />
  <line x1="4339" y1="50.0" x2="4379" y2="50.0" style="stroke:#999; stroke-width:3;" />
  <rect class="anc_exon" x="4379" y="35.0" width="71" height="30" style="fill:#87bcbc;fill-opacity:1.00" />
  <line x1="4450" y1="50.0" x2="4490" y2="50.0" style="stroke:#999; stroke-width:3;" />
  <rect class="anc_exon" x="4490" y="35.0" width="84" height="30" style="fill:#87bcbc;fill-opacity:1.00" />
  <line x1="4574" y1="50.0" x2="4594" y2="50.0" style="stroke:#999; stroke-width:3;" />
  <line x1="4594" y1="50.0" x2="4594" y2="50.0" style="stroke:#999; stroke-width:3;" />
  <line x1="4594" y1="50.0" x2="4594" y2="50.0" style="stroke:#999; stroke-width:3;" />
  <line x1="4594" y1="50.0" x2="4614" y2="50.0" style="stroke:#999; stroke-width:3;" />
  <rect class="anc_exon" x="4614" y="35.0" width="68" height="30" style="fill:#87bcbc;fill-opacity:1.00" />
  <line x1="4682" y1="50.0" x2="4722" y2="50.0" style="stroke:#999; stroke-width:3;" />
  <rect class="anc_exon" x="4722" y="35.0" width="146" height="30" style="fill:#87bcbc;fill-opacity:1.00" />
  <line x1="4868" y1="50.0" x2="4908" y2="50.0" style="stroke:#999; stroke-width:3;" />
  <rect class="anc_exon" x="4908" y="35.0" width="128" height="30" style="fill:#87bcbc;fill-opacity:1.00" />
  <line x1="5036" y1="50.0" x2="5076" y2="50.0" style="stroke:#999; stroke-width:3;" />
  <rect class="anc_exon" x="5076" y="35.0" width="92" height="30" style="fill:#87bcbc;fill-opacity:1.00" />
  <line x1="5168" y1="50.0" x2="5208" y2="50.0" style="stroke:#999; stroke-width:3;" />
  <rect class="anc_exon" x="5208" y="35.0" width="93" height="30" style="fill:#87bcbc;fill-opacity:1.00" />
  <line x1="5301" y1="50.0" x2="5341" y2="50.0" style="stroke:#999; stroke-width:3;" />
  <rect class="anc_exon" x="5341" y="35.0" width="137" height="30" style="fill:#87bcbc;fill-opacity:1.00" />
  <line x1="5478" y1="50.0" x2="5518" y2="50.0" style="stroke:#999; stroke-width:3;" />
  <rect class="anc_exon" x="5518" y="35.0" width="20" height="30" style="fill:#87bcbc;fill-opacity:1.00" />
  <rect class="anc_exon" x="5538" y="35.0" width="0" height="30" style="fill:#87bcbc;fill-opacity:1.00" />
  <text style="" >
<tspan x="0" y="83.0" style="font-size:18px;" >SP XM_031959851_1.1</tspan>  </text>



<script type="text/ecmascript">
<![CDATA[
function draw_bbox(text_id)
{
    var text_elem = document.getElementById(text_id);
    var offset_px = 2;
    var offset_py = 0;
    bbox = text_elem.getBBox();
    var box = document.createElementNS(document.rootElement.namespaceURI,'rect');
    box.setAttribute('x', bbox.x - offset_px);
    box.setAttribute('y', bbox.y - offset_py);
    box.setAttribute('width', bbox.width + offset_px * 2);
    box.setAttribute('height', bbox.height + offset_py * 2);
    box.setAttribute('style','fill: white;'+'stroke: black;'+'stroke-width: 1px;');
    text_elem.insertBefore(box,text_elem.childNodes[0]);

    var svg = text_elem.parentNode;
    svg.appendChild(text_elem);
}

for (var i=1; i < 1; i++)
{
draw_bbox("Mouseover" + i);
}
]]> 
</script>
</svg>
