<svg version="1.1"
xmlns="http://www.w3.org/2000/svg"
xmlns:xlink="http://www.w3.org/1999/xlink"
width="3067" height="100" viewBox = "0 0 3067 100"
onclick="mouseclick(evt)">

<script type="text/ecmascript">

<![CDATA[
    function mouseover(evt, target) { 
    var gv = document.getElementById("globalVariable");
    var previoustarget = gv.firstChild.nodeValue;
    if (previoustarget != "none") 
    {
        	document.getElementById(gv.firstChild.nodeValue).setAttributeNS(null, "visibility", "hidden");
    }
    document.getElementById(target).setAttributeNS(null, "visibility", "visible");
    gv.firstChild.nodeValue = target;
        }

    function mouseclick(evt) { 
    var gv = document.getElementById("globalVariable");
    var previoustarget = gv.firstChild.nodeValue;
    if (previoustarget != "none") {
        	document.getElementById(gv.firstChild.nodeValue).setAttributeNS(null, "visibility", "hidden");
        }
    }
]]>
  </script>
<style type="text/css" >

<![CDATA[
    rect.anc_exon {
              stroke-width:3;
                  }

    rect.non_anc_exon {
              stroke: black; stroke-width:3; stroke-dasharray: 5,5;
                    }

    text {
              font-size: 18px;
              font-family: Courier New;
          }
                    ]]>
</style>

<defs>
    <text x="150" y="40" id="globalVariable">none</text>
</defs>

  <rect class="anc_exon" x="0" y="35.0" width="0" height="30" style="fill:#87bcbc;fill-opacity:1.00" />
  <rect class="anc_exon" x="0" y="35.0" width="134.4" height="30" style="fill:#87bcbc;fill-opacity:1.00" />
  <line x1="134.4" y1="50.0" x2="153.4" y2="50.0" style="stroke:#999; stroke-width:3;" />
  <line x1="153.4" y1="50.0" x2="153.4" y2="50.0" style="stroke:#999; stroke-width:3;" />
  <line x1="153.4" y1="50.0" x2="153.4" y2="50.0" style="stroke:#999; stroke-width:3;" />
  <line x1="153.4" y1="50.0" x2="174.0" y2="50.0" style="stroke:#999; stroke-width:3;" />
  <rect class="anc_exon" x="174" y="35.0" width="200" height="30" style="fill:#87bcbc;fill-opacity:1.00" />
  <line x1="374" y1="50.0" x2="394" y2="50.0" style="stroke:#999; stroke-width:3;" />
  <line x1="394" y1="50.0" x2="394" y2="50.0" style="stroke:#999; stroke-width:3;" />
  <line x1="394" y1="50.0" x2="394" y2="50.0" style="stroke:#999; stroke-width:3;" />
  <line x1="394" y1="50.0" x2="414" y2="50.0" style="stroke:#999; stroke-width:3;" />
  <rect class="anc_exon" x="414" y="35.0" width="117" height="30" style="fill:#87bcbc;fill-opacity:1.00" />
  <line x1="531" y1="50.0" x2="551" y2="50.0" style="stroke:#999; stroke-width:3;" />
  <line x1="551" y1="50.0" x2="551" y2="50.0" style="stroke:#999; stroke-width:3;" />
  <line x1="551" y1="50.0" x2="551" y2="50.0" style="stroke:#999; stroke-width:3;" />
  <line x1="551" y1="50.0" x2="571" y2="50.0" style="stroke:#999; stroke-width:3;" />
  <rect class="anc_exon" x="571" y="35.0" width="125" height="30" style="fill:#87bcbc;fill-opacity:1.00" />
  <line x1="696" y1="50.0" x2="716" y2="50.0" style="stroke:#999; stroke-width:3;" />
  <line x1="716" y1="50.0" x2="716" y2="50.0" style="stroke:#999; stroke-width:3;" />
  <line x1="716" y1="50.0" x2="716" y2="50.0" style="stroke:#999; stroke-width:3;" />
  <line x1="716" y1="50.0" x2="736" y2="50.0" style="stroke:#999; stroke-width:3;" />
  <rect class="anc_exon" x="736" y="35.0" width="97" height="30" style="fill:#87bcbc;fill-opacity:1.00" />
  <line x1="833" y1="50.0" x2="853" y2="50.0" style="stroke:#999; stroke-width:3;" />
  <line x1="853" y1="50.0" x2="853" y2="50.0" style="stroke:#999; stroke-width:3;" />
  <line x1="853" y1="50.0" x2="853" y2="50.0" style="stroke:#999; stroke-width:3;" />
  <line x1="853" y1="50.0" x2="873" y2="50.0" style="stroke:#999; stroke-width:3;" />
  <rect class="anc_exon" x="873" y="35.0" width="110" height="30" style="fill:#87bcbc;fill-opacity:1.00" />
  <line x1="983" y1="50.0" x2="1003" y2="50.0" style="stroke:#999; stroke-width:3;" />
  <line x1="1003" y1="50.0" x2="1003" y2="50.0" style="stroke:#999; stroke-width:3;" />
  <line x1="1003" y1="50.0" x2="1003" y2="50.0" style="stroke:#999; stroke-width:3;" />
  <line x1="1003" y1="50.0" x2="1023" y2="50.0" style="stroke:#999; stroke-width:3;" />
  <rect class="anc_exon" x="1023" y="35.0" width="70" height="30" style="fill:#87bcbc;fill-opacity:1.00" />
  <line x1="1093" y1="50.0" x2="1113" y2="50.0" style="stroke:#999; stroke-width:3;" />
  <line x1="1113" y1="50.0" x2="1113" y2="50.0" style="stroke:#999; stroke-width:3;" />
  <line x1="1113" y1="50.0" x2="1113" y2="50.0" style="stroke:#999; stroke-width:3;" />
  <line x1="1113" y1="50.0" x2="1133" y2="50.0" style="stroke:#999; stroke-width:3;" />
  <rect class="anc_exon" x="1133" y="35.0" width="105" height="30" style="fill:#87bcbc;fill-opacity:1.00" />
  <line x1="1238" y1="50.0" x2="1258" y2="50.0" style="stroke:#999; stroke-width:3;" />
  <line x1="1258" y1="50.0" x2="1258" y2="50.0" style="stroke:#999; stroke-width:3;" />
  <line x1="1258" y1="50.0" x2="1258" y2="50.0" style="stroke:#999; stroke-width:3;" />
  <line x1="1258" y1="50.0" x2="1278" y2="50.0" style="stroke:#999; stroke-width:3;" />
  <rect class="anc_exon" x="1278" y="35.0" width="163" height="30" style="fill:#87bcbc;fill-opacity:1.00" />
  <line x1="1441" y1="50.0" x2="1461" y2="50.0" style="stroke:#999; stroke-width:3;" />
  <line x1="1461" y1="50.0" x2="1461" y2="50.0" style="stroke:#999; stroke-width:3;" />
  <line x1="1461" y1="50.0" x2="1461" y2="50.0" style="stroke:#999; stroke-width:3;" />
  <line x1="1461" y1="50.0" x2="1481" y2="50.0" style="stroke:#999; stroke-width:3;" />
  <rect class="anc_exon" x="1481" y="35.0" width="148" height="30" style="fill:#87bcbc;fill-opacity:1.00" />
  <line x1="1629" y1="50.0" x2="1669" y2="50.0" style="stroke:#999; stroke-width:3;" />
  <rect class="anc_exon" x="1669" y="35.0" width="290" height="30" style="fill:#87bcbc;fill-opacity:1.00" />
  <line x1="1959" y1="50.0" x2="1979" y2="50.0" style="stroke:#999; stroke-width:3;" />
  <line x1="1979" y1="50.0" x2="1979" y2="50.0" style="stroke:#999; stroke-width:3;" />
  <line x1="1979" y1="50.0" x2="1979" y2="50.0" style="stroke:#999; stroke-width:3;" />
  <line x1="1979" y1="50.0" x2="1999" y2="50.0" style="stroke:#999; stroke-width:3;" />
  <rect class="anc_exon" x="1999" y="35.0" width="76" height="30" style="fill:#87bcbc;fill-opacity:1.00" />
  <line x1="2075" y1="50.0" x2="2095" y2="50.0" style="stroke:#999; stroke-width:3;" />
  <line x1="2095" y1="50.0" x2="2095" y2="50.0" style="stroke:#999; stroke-width:3;" />
  <line x1="2095" y1="50.0" x2="2095" y2="50.0" style="stroke:#999; stroke-width:3;" />
  <line x1="2095" y1="50.0" x2="2115" y2="50.0" style="stroke:#999; stroke-width:3;" />
  <rect class="anc_exon" x="2115" y="35.0" width="117" height="30" style="fill:#87bcbc;fill-opacity:1.00" />
  <line x1="2232" y1="50.0" x2="2252" y2="50.0" style="stroke:#999; stroke-width:3;" />
  <line x1="2252" y1="50.0" x2="2252" y2="50.0" style="stroke:#999; stroke-width:3;" />
  <line x1="2252" y1="50.0" x2="2252" y2="50.0" style="stroke:#999; stroke-width:3;" />
  <line x1="2252" y1="50.0" x2="2272" y2="50.0" style="stroke:#999; stroke-width:3;" />
  <rect class="anc_exon" x="2272" y="35.0" width="78" height="30" style="fill:#87bcbc;fill-opacity:1.00" />
  <line x1="2350" y1="50.0" x2="2390" y2="50.0" style="stroke:#999; stroke-width:3;" />
  <rect class="anc_exon" x="2390" y="35.0" width="105" height="30" style="fill:#87bcbc;fill-opacity:1.00" />
  <line x1="2495" y1="50.0" x2="2515" y2="50.0" style="stroke:#999; stroke-width:3;" />
  <line x1="2515" y1="50.0" x2="2515" y2="50.0" style="stroke:#999; stroke-width:3;" />
  <line x1="2515" y1="50.0" x2="2515" y2="50.0" style="stroke:#999; stroke-width:3;" />
  <line x1="2515" y1="50.0" x2="2535" y2="50.0" style="stroke:#999; stroke-width:3;" />
  <rect class="anc_exon" x="2535" y="35.0" width="112" height="30" style="fill:#87bcbc;fill-opacity:1.00" />
  <line x1="2647" y1="50.0" x2="2667" y2="50.0" style="stroke:#999; stroke-width:3;" />
  <line x1="2667" y1="50.0" x2="2667" y2="50.0" style="stroke:#999; stroke-width:3;" />
  <line x1="2667" y1="50.0" x2="2667" y2="50.0" style="stroke:#999; stroke-width:3;" />
  <line x1="2667" y1="50.0" x2="2687" y2="50.0" style="stroke:#999; stroke-width:3;" />
  <rect class="anc_exon" x="2687" y="35.0" width="96" height="30" style="fill:#87bcbc;fill-opacity:1.00" />
  <line x1="2783" y1="50.0" x2="2803" y2="50.0" style="stroke:#999; stroke-width:3;" />
  <line x1="2803" y1="50.0" x2="2803" y2="50.0" style="stroke:#999; stroke-width:3;" />
  <line x1="2803" y1="50.0" x2="2803" y2="50.0" style="stroke:#999; stroke-width:3;" />
  <line x1="2803" y1="50.0" x2="2823" y2="50.0" style="stroke:#999; stroke-width:3;" />
  <rect class="anc_exon" x="2823" y="35.0" width="208" height="30" style="fill:#87bcbc;fill-opacity:1.00" />
  <rect class="anc_exon" x="3031" y="35.0" width="0" height="30" style="fill:#87bcbc;fill-opacity:1.00" />
  <text style="" >
<tspan x="0" y="83.0" style="font-size:18px;" >SP XM_031959620_1.1</tspan>  </text>



<script type="text/ecmascript">
<![CDATA[
function draw_bbox(text_id)
{
    var text_elem = document.getElementById(text_id);
    var offset_px = 2;
    var offset_py = 0;
    bbox = text_elem.getBBox();
    var box = document.createElementNS(document.rootElement.namespaceURI,'rect');
    box.setAttribute('x', bbox.x - offset_px);
    box.setAttribute('y', bbox.y - offset_py);
    box.setAttribute('width', bbox.width + offset_px * 2);
    box.setAttribute('height', bbox.height + offset_py * 2);
    box.setAttribute('style','fill: white;'+'stroke: black;'+'stroke-width: 1px;');
    text_elem.insertBefore(box,text_elem.childNodes[0]);

    var svg = text_elem.parentNode;
    svg.appendChild(text_elem);
}

for (var i=1; i < 1; i++)
{
draw_bbox("Mouseover" + i);
}
]]> 
</script>
</svg>
