<svg version="1.1"
xmlns="http://www.w3.org/2000/svg"
xmlns:xlink="http://www.w3.org/1999/xlink"
width="4159" height="100" viewBox = "0 0 4159 100"
onclick="mouseclick(evt)">

<script type="text/ecmascript">

<![CDATA[
    function mouseover(evt, target) { 
    var gv = document.getElementById("globalVariable");
    var previoustarget = gv.firstChild.nodeValue;
    if (previoustarget != "none") 
    {
        	document.getElementById(gv.firstChild.nodeValue).setAttributeNS(null, "visibility", "hidden");
    }
    document.getElementById(target).setAttributeNS(null, "visibility", "visible");
    gv.firstChild.nodeValue = target;
        }

    function mouseclick(evt) { 
    var gv = document.getElementById("globalVariable");
    var previoustarget = gv.firstChild.nodeValue;
    if (previoustarget != "none") {
        	document.getElementById(gv.firstChild.nodeValue).setAttributeNS(null, "visibility", "hidden");
        }
    }
]]>
  </script>
<style type="text/css" >

<![CDATA[
    rect.anc_exon {
              stroke-width:3;
                  }

    rect.non_anc_exon {
              stroke: black; stroke-width:3; stroke-dasharray: 5,5;
                    }

    text {
              font-size: 18px;
              font-family: Courier New;
          }
                    ]]>
</style>

<defs>
    <text x="150" y="40" id="globalVariable">none</text>
</defs>

  <rect class="anc_exon" x="0" y="35.0" width="0" height="30" style="fill:#87bcbc;fill-opacity:1.00" />
  <rect class="anc_exon" x="0" y="35.0" width="176.8" height="30" style="fill:#878787;fill-opacity:1.00" />
  <line x1="176.8" y1="50.0" x2="195.8" y2="50.0" style="stroke:#999; stroke-width:3;" />
  <line x1="195.8" y1="50.0" x2="195.8" y2="50.0" style="stroke:#999; stroke-width:3;" />
  <line x1="195.8" y1="50.0" x2="195.8" y2="50.0" style="stroke:#999; stroke-width:3;" />
  <line x1="195.8" y1="50.0" x2="216.0" y2="50.0" style="stroke:#999; stroke-width:3;" />
  <rect class="anc_exon" x="216" y="35.0" width="51" height="30" style="fill:#87bcbc;fill-opacity:1.00" />
  <line x1="267" y1="50.0" x2="307" y2="50.0" style="stroke:#999; stroke-width:3;" />
  <rect class="anc_exon" x="307" y="35.0" width="116" height="30" style="fill:#87bcbc;fill-opacity:1.00" />
  <line x1="423" y1="50.0" x2="463" y2="50.0" style="stroke:#999; stroke-width:3;" />
  <rect class="anc_exon" x="463" y="35.0" width="111" height="30" style="fill:#87bcbc;fill-opacity:1.00" />
  <line x1="574" y1="50.0" x2="614" y2="50.0" style="stroke:#999; stroke-width:3;" />
  <rect class="anc_exon" x="614" y="35.0" width="117" height="30" style="fill:#87bcbc;fill-opacity:1.00" />
  <line x1="731" y1="50.0" x2="751" y2="50.0" style="stroke:#999; stroke-width:3;" />
  <line x1="751" y1="50.0" x2="751" y2="50.0" style="stroke:#999; stroke-width:3;" />
  <line x1="751" y1="50.0" x2="751" y2="50.0" style="stroke:#999; stroke-width:3;" />
  <line x1="751" y1="50.0" x2="771" y2="50.0" style="stroke:#999; stroke-width:3;" />
  <rect class="anc_exon" x="771" y="35.0" width="75" height="30" style="fill:#87bcbc;fill-opacity:1.00" />
  <line x1="846" y1="50.0" x2="886" y2="50.0" style="stroke:#999; stroke-width:3;" />
  <rect class="anc_exon" x="886" y="35.0" width="72" height="30" style="fill:#87bcbc;fill-opacity:1.00" />
  <line x1="958" y1="50.0" x2="998" y2="50.0" style="stroke:#999; stroke-width:3;" />
  <rect class="anc_exon" x="998" y="35.0" width="79" height="30" style="fill:#87bcbc;fill-opacity:1.00" />
  <line x1="1077" y1="50.0" x2="1117" y2="50.0" style="stroke:#999; stroke-width:3;" />
  <rect class="anc_exon" x="1117" y="35.0" width="120" height="30" style="fill:#87bcbc;fill-opacity:1.00" />
  <line x1="1237" y1="50.0" x2="1277" y2="50.0" style="stroke:#999; stroke-width:3;" />
  <rect class="anc_exon" x="1277" y="35.0" width="85" height="30" style="fill:#87bcbc;fill-opacity:1.00" />
  <line x1="1362" y1="50.0" x2="1402" y2="50.0" style="stroke:#999; stroke-width:3;" />
  <rect class="anc_exon" x="1402" y="35.0" width="82" height="30" style="fill:#87bcbc;fill-opacity:1.00" />
  <line x1="1484" y1="50.0" x2="1524" y2="50.0" style="stroke:#999; stroke-width:3;" />
  <rect class="anc_exon" x="1524" y="35.0" width="157" height="30" style="fill:#87bcbc;fill-opacity:1.00" />
  <line x1="1681" y1="50.0" x2="1701" y2="50.0" style="stroke:#999; stroke-width:3;" />
  <line x1="1701" y1="50.0" x2="1701" y2="50.0" style="stroke:#999; stroke-width:3;" />
  <line x1="1701" y1="50.0" x2="1701" y2="50.0" style="stroke:#999; stroke-width:3;" />
  <line x1="1701" y1="50.0" x2="1721" y2="50.0" style="stroke:#999; stroke-width:3;" />
  <rect class="anc_exon" x="1721" y="35.0" width="94" height="30" style="fill:#87bcbc;fill-opacity:1.00" />
  <line x1="1815" y1="50.0" x2="1835" y2="50.0" style="stroke:#999; stroke-width:3;" />
  <line x1="1835" y1="50.0" x2="1835" y2="50.0" style="stroke:#999; stroke-width:3;" />
  <line x1="1835" y1="50.0" x2="1835" y2="50.0" style="stroke:#999; stroke-width:3;" />
  <line x1="1835" y1="50.0" x2="1855" y2="50.0" style="stroke:#999; stroke-width:3;" />
  <rect class="anc_exon" x="1855" y="35.0" width="77" height="30" style="fill:#87bcbc;fill-opacity:1.00" />
  <line x1="1932" y1="50.0" x2="1972" y2="50.0" style="stroke:#999; stroke-width:3;" />
  <rect class="anc_exon" x="1972" y="35.0" width="111" height="30" style="fill:#87bcbc;fill-opacity:1.00" />
  <line x1="2083" y1="50.0" x2="2123" y2="50.0" style="stroke:#999; stroke-width:3;" />
  <rect class="anc_exon" x="2123" y="35.0" width="80" height="30" style="fill:#87bcbc;fill-opacity:1.00" />
  <line x1="2203" y1="50.0" x2="2243" y2="50.0" style="stroke:#999; stroke-width:3;" />
  <rect class="anc_exon" x="2243" y="35.0" width="71" height="30" style="fill:#87bcbc;fill-opacity:1.00" />
  <line x1="2314" y1="50.0" x2="2354" y2="50.0" style="stroke:#999; stroke-width:3;" />
  <rect class="anc_exon" x="2354" y="35.0" width="65" height="30" style="fill:#87bcbc;fill-opacity:1.00" />
  <line x1="2419" y1="50.0" x2="2459" y2="50.0" style="stroke:#999; stroke-width:3;" />
  <rect class="anc_exon" x="2459" y="35.0" width="72" height="30" style="fill:#87bcbc;fill-opacity:1.00" />
  <line x1="2531" y1="50.0" x2="2551" y2="50.0" style="stroke:#999; stroke-width:3;" />
  <line x1="2551" y1="50.0" x2="2551" y2="50.0" style="stroke:#999; stroke-width:3;" />
  <line x1="2551" y1="50.0" x2="2551" y2="50.0" style="stroke:#999; stroke-width:3;" />
  <line x1="2551" y1="50.0" x2="2571" y2="50.0" style="stroke:#999; stroke-width:3;" />
  <rect class="anc_exon" x="2571" y="35.0" width="91" height="30" style="fill:#87bcbc;fill-opacity:1.00" />
  <line x1="2662" y1="50.0" x2="2702" y2="50.0" style="stroke:#999; stroke-width:3;" />
  <rect class="anc_exon" x="2702" y="35.0" width="71" height="30" style="fill:#87bcbc;fill-opacity:1.00" />
  <line x1="2773" y1="50.0" x2="2793" y2="50.0" style="stroke:#999; stroke-width:3;" />
  <line x1="2793" y1="50.0" x2="2793" y2="50.0" style="stroke:#999; stroke-width:3;" />
  <line x1="2793" y1="50.0" x2="2793" y2="50.0" style="stroke:#999; stroke-width:3;" />
  <line x1="2793" y1="50.0" x2="2813" y2="50.0" style="stroke:#999; stroke-width:3;" />
  <rect class="anc_exon" x="2813" y="35.0" width="70" height="30" style="fill:#87bcbc;fill-opacity:1.00" />
  <line x1="2883" y1="50.0" x2="2923" y2="50.0" style="stroke:#999; stroke-width:3;" />
  <rect class="anc_exon" x="2923" y="35.0" width="124" height="30" style="fill:#87bcbc;fill-opacity:1.00" />
  <line x1="3047" y1="50.0" x2="3087" y2="50.0" style="stroke:#999; stroke-width:3;" />
  <rect class="anc_exon" x="3087" y="35.0" width="63" height="30" style="fill:#87bcbc;fill-opacity:1.00" />
  <line x1="3150" y1="50.0" x2="3190" y2="50.0" style="stroke:#999; stroke-width:3;" />
  <rect class="anc_exon" x="3190" y="35.0" width="115" height="30" style="fill:#87bcbc;fill-opacity:1.00" />
  <line x1="3305" y1="50.0" x2="3345" y2="50.0" style="stroke:#999; stroke-width:3;" />
  <rect class="anc_exon" x="3345" y="35.0" width="519" height="30" style="fill:#878787;fill-opacity:1.00" />
  <line x1="3864" y1="50.0" x2="3904" y2="50.0" style="stroke:#999; stroke-width:3;" />
  <rect class="anc_exon" x="3904" y="35.0" width="107" height="30" style="fill:#87bcbc;fill-opacity:1.00" />
  <line x1="4011" y1="50.0" x2="4051" y2="50.0" style="stroke:#999; stroke-width:3;" />
  <rect class="anc_exon" x="4051" y="35.0" width="72" height="30" style="fill:#87bcbc;fill-opacity:1.00" />
  <rect class="anc_exon" x="4123" y="35.0" width="0" height="30" style="fill:#87bcbc;fill-opacity:1.00" />
  <text style="" >
<tspan x="0" y="83.0" style="font-size:18px;" >SP XM_031962007_1.1</tspan>  </text>



<script type="text/ecmascript">
<![CDATA[
function draw_bbox(text_id)
{
    var text_elem = document.getElementById(text_id);
    var offset_px = 2;
    var offset_py = 0;
    bbox = text_elem.getBBox();
    var box = document.createElementNS(document.rootElement.namespaceURI,'rect');
    box.setAttribute('x', bbox.x - offset_px);
    box.setAttribute('y', bbox.y - offset_py);
    box.setAttribute('width', bbox.width + offset_px * 2);
    box.setAttribute('height', bbox.height + offset_py * 2);
    box.setAttribute('style','fill: white;'+'stroke: black;'+'stroke-width: 1px;');
    text_elem.insertBefore(box,text_elem.childNodes[0]);

    var svg = text_elem.parentNode;
    svg.appendChild(text_elem);
}

for (var i=1; i < 1; i++)
{
draw_bbox("Mouseover" + i);
}
]]> 
</script>
</svg>
