<svg version="1.1"
xmlns="http://www.w3.org/2000/svg"
xmlns:xlink="http://www.w3.org/1999/xlink"
width="2523" height="100" viewBox = "0 0 2523 100"
onclick="mouseclick(evt)">

<script type="text/ecmascript">

<![CDATA[
    function mouseover(evt, target) { 
    var gv = document.getElementById("globalVariable");
    var previoustarget = gv.firstChild.nodeValue;
    if (previoustarget != "none") 
    {
        	document.getElementById(gv.firstChild.nodeValue).setAttributeNS(null, "visibility", "hidden");
    }
    document.getElementById(target).setAttributeNS(null, "visibility", "visible");
    gv.firstChild.nodeValue = target;
        }

    function mouseclick(evt) { 
    var gv = document.getElementById("globalVariable");
    var previoustarget = gv.firstChild.nodeValue;
    if (previoustarget != "none") {
        	document.getElementById(gv.firstChild.nodeValue).setAttributeNS(null, "visibility", "hidden");
        }
    }
]]>
  </script>
<style type="text/css" >

<![CDATA[
    rect.anc_exon {
              stroke-width:3;
                  }

    rect.non_anc_exon {
              stroke: black; stroke-width:3; stroke-dasharray: 5,5;
                    }

    text {
              font-size: 18px;
              font-family: Courier New;
          }
                    ]]>
</style>

<defs>
    <text x="150" y="40" id="globalVariable">none</text>
</defs>

  <rect class="anc_exon" x="0" y="35.0" width="0" height="30" style="fill:#87bcbc;fill-opacity:1.00" />
  <rect class="anc_exon" x="0" y="35.0" width="65.60000000000001" height="30" style="fill:#87bcbc;fill-opacity:1.00" />
  <line x1="65.60000000000001" y1="50.0" x2="105.0" y2="50.0" style="stroke:#999; stroke-width:3;" />
  <rect class="anc_exon" x="105" y="35.0" width="89" height="30" style="fill:#87bcbc;fill-opacity:1.00" />
  <line x1="194" y1="50.0" x2="214" y2="50.0" style="stroke:#999; stroke-width:3;" />
  <line x1="214" y1="50.0" x2="214" y2="50.0" style="stroke:#999; stroke-width:3;" />
  <line x1="214" y1="50.0" x2="214" y2="50.0" style="stroke:#999; stroke-width:3;" />
  <line x1="214" y1="50.0" x2="234" y2="50.0" style="stroke:#999; stroke-width:3;" />
  <rect class="anc_exon" x="234" y="35.0" width="149" height="30" style="fill:#87bcbc;fill-opacity:1.00" />
  <line x1="383" y1="50.0" x2="423" y2="50.0" style="stroke:#999; stroke-width:3;" />
  <rect class="anc_exon" x="423" y="35.0" width="81" height="30" style="fill:#87bcbc;fill-opacity:1.00" />
  <line x1="504" y1="50.0" x2="544" y2="50.0" style="stroke:#999; stroke-width:3;" />
  <rect class="anc_exon" x="544" y="35.0" width="100" height="30" style="fill:#87bcbc;fill-opacity:1.00" />
  <line x1="644" y1="50.0" x2="664" y2="50.0" style="stroke:#999; stroke-width:3;" />
  <line x1="664" y1="50.0" x2="664" y2="50.0" style="stroke:#999; stroke-width:3;" />
  <line x1="664" y1="50.0" x2="664" y2="50.0" style="stroke:#999; stroke-width:3;" />
  <line x1="664" y1="50.0" x2="684" y2="50.0" style="stroke:#999; stroke-width:3;" />
  <rect class="anc_exon" x="684" y="35.0" width="149" height="30" style="fill:#87bcbc;fill-opacity:1.00" />
  <line x1="833" y1="50.0" x2="853" y2="50.0" style="stroke:#999; stroke-width:3;" />
  <line x1="853" y1="50.0" x2="853" y2="50.0" style="stroke:#999; stroke-width:3;" />
  <line x1="853" y1="50.0" x2="853" y2="50.0" style="stroke:#999; stroke-width:3;" />
  <line x1="853" y1="50.0" x2="873" y2="50.0" style="stroke:#999; stroke-width:3;" />
  <rect class="anc_exon" x="873" y="35.0" width="75" height="30" style="fill:#87bcbc;fill-opacity:1.00" />
  <line x1="948" y1="50.0" x2="968" y2="50.0" style="stroke:#999; stroke-width:3;" />
  <line x1="968" y1="50.0" x2="968" y2="50.0" style="stroke:#999; stroke-width:3;" />
  <line x1="968" y1="50.0" x2="968" y2="50.0" style="stroke:#999; stroke-width:3;" />
  <line x1="968" y1="50.0" x2="988" y2="50.0" style="stroke:#999; stroke-width:3;" />
  <rect class="anc_exon" x="988" y="35.0" width="79" height="30" style="fill:#87bcbc;fill-opacity:1.00" />
  <line x1="1067" y1="50.0" x2="1087" y2="50.0" style="stroke:#999; stroke-width:3;" />
  <line x1="1087" y1="50.0" x2="1087" y2="50.0" style="stroke:#999; stroke-width:3;" />
  <line x1="1087" y1="50.0" x2="1087" y2="50.0" style="stroke:#999; stroke-width:3;" />
  <line x1="1087" y1="50.0" x2="1107" y2="50.0" style="stroke:#999; stroke-width:3;" />
  <rect class="anc_exon" x="1107" y="35.0" width="68" height="30" style="fill:#87bcbc;fill-opacity:1.00" />
  <line x1="1175" y1="50.0" x2="1215" y2="50.0" style="stroke:#999; stroke-width:3;" />
  <rect class="anc_exon" x="1215" y="35.0" width="96" height="30" style="fill:#87bcbc;fill-opacity:1.00" />
  <line x1="1311" y1="50.0" x2="1351" y2="50.0" style="stroke:#999; stroke-width:3;" />
  <rect class="anc_exon" x="1351" y="35.0" width="66" height="30" style="fill:#87bcbc;fill-opacity:1.00" />
  <line x1="1417" y1="50.0" x2="1437" y2="50.0" style="stroke:#999; stroke-width:3;" />
  <line x1="1437" y1="50.0" x2="1437" y2="50.0" style="stroke:#999; stroke-width:3;" />
  <line x1="1437" y1="50.0" x2="1437" y2="50.0" style="stroke:#999; stroke-width:3;" />
  <line x1="1437" y1="50.0" x2="1457" y2="50.0" style="stroke:#999; stroke-width:3;" />
  <rect class="anc_exon" x="1457" y="35.0" width="51" height="30" style="fill:#87bcbc;fill-opacity:1.00" />
  <line x1="1508" y1="50.0" x2="1548" y2="50.0" style="stroke:#999; stroke-width:3;" />
  <rect class="anc_exon" x="1548" y="35.0" width="54" height="30" style="fill:#87bcbc;fill-opacity:1.00" />
  <line x1="1602" y1="50.0" x2="1622" y2="50.0" style="stroke:#999; stroke-width:3;" />
  <line x1="1622" y1="50.0" x2="1622" y2="50.0" style="stroke:#999; stroke-width:3;" />
  <line x1="1622" y1="50.0" x2="1622" y2="50.0" style="stroke:#999; stroke-width:3;" />
  <line x1="1622" y1="50.0" x2="1642" y2="50.0" style="stroke:#999; stroke-width:3;" />
  <rect class="anc_exon" x="1642" y="35.0" width="73" height="30" style="fill:#87bcbc;fill-opacity:1.00" />
  <line x1="1715" y1="50.0" x2="1755" y2="50.0" style="stroke:#999; stroke-width:3;" />
  <rect class="anc_exon" x="1755" y="35.0" width="72" height="30" style="fill:#87bcbc;fill-opacity:1.00" />
  <line x1="1827" y1="50.0" x2="1847" y2="50.0" style="stroke:#999; stroke-width:3;" />
  <line x1="1847" y1="50.0" x2="1847" y2="50.0" style="stroke:#999; stroke-width:3;" />
  <line x1="1847" y1="50.0" x2="1847" y2="50.0" style="stroke:#999; stroke-width:3;" />
  <line x1="1847" y1="50.0" x2="1867" y2="50.0" style="stroke:#999; stroke-width:3;" />
  <rect class="anc_exon" x="1867" y="35.0" width="212" height="30" style="fill:#87bcbc;fill-opacity:1.00" />
  <line x1="2079" y1="50.0" x2="2099" y2="50.0" style="stroke:#999; stroke-width:3;" />
  <line x1="2099" y1="50.0" x2="2099" y2="50.0" style="stroke:#999; stroke-width:3;" />
  <line x1="2099" y1="50.0" x2="2099" y2="50.0" style="stroke:#999; stroke-width:3;" />
  <line x1="2099" y1="50.0" x2="2119" y2="50.0" style="stroke:#999; stroke-width:3;" />
  <rect class="anc_exon" x="2119" y="35.0" width="65" height="30" style="fill:#87bcbc;fill-opacity:1.00" />
  <line x1="2184" y1="50.0" x2="2224" y2="50.0" style="stroke:#999; stroke-width:3;" />
  <rect class="anc_exon" x="2224" y="35.0" width="74" height="30" style="fill:#87bcbc;fill-opacity:1.00" />
  <line x1="2298" y1="50.0" x2="2318" y2="50.0" style="stroke:#999; stroke-width:3;" />
  <line x1="2318" y1="50.0" x2="2318" y2="50.0" style="stroke:#999; stroke-width:3;" />
  <line x1="2318" y1="50.0" x2="2318" y2="50.0" style="stroke:#999; stroke-width:3;" />
  <line x1="2318" y1="50.0" x2="2338" y2="50.0" style="stroke:#999; stroke-width:3;" />
  <rect class="anc_exon" x="2338" y="35.0" width="149" height="30" style="fill:#87bcbc;fill-opacity:1.00" />
  <rect class="anc_exon" x="2487" y="35.0" width="0" height="30" style="fill:#87bcbc;fill-opacity:1.00" />
  <text style="" >
<tspan x="0" y="83.0" style="font-size:18px;" >SP XM_003764328_3.1</tspan>  </text>



<script type="text/ecmascript">
<![CDATA[
function draw_bbox(text_id)
{
    var text_elem = document.getElementById(text_id);
    var offset_px = 2;
    var offset_py = 0;
    bbox = text_elem.getBBox();
    var box = document.createElementNS(document.rootElement.namespaceURI,'rect');
    box.setAttribute('x', bbox.x - offset_px);
    box.setAttribute('y', bbox.y - offset_py);
    box.setAttribute('width', bbox.width + offset_px * 2);
    box.setAttribute('height', bbox.height + offset_py * 2);
    box.setAttribute('style','fill: white;'+'stroke: black;'+'stroke-width: 1px;');
    text_elem.insertBefore(box,text_elem.childNodes[0]);

    var svg = text_elem.parentNode;
    svg.appendChild(text_elem);
}

for (var i=1; i < 1; i++)
{
draw_bbox("Mouseover" + i);
}
]]> 
</script>
</svg>
