<svg version="1.1"
xmlns="http://www.w3.org/2000/svg"
xmlns:xlink="http://www.w3.org/1999/xlink"
width="1761" height="100" viewBox = "0 0 1761 100"
onclick="mouseclick(evt)">

<script type="text/ecmascript">

<![CDATA[
    function mouseover(evt, target) { 
    var gv = document.getElementById("globalVariable");
    var previoustarget = gv.firstChild.nodeValue;
    if (previoustarget != "none") 
    {
        	document.getElementById(gv.firstChild.nodeValue).setAttributeNS(null, "visibility", "hidden");
    }
    document.getElementById(target).setAttributeNS(null, "visibility", "visible");
    gv.firstChild.nodeValue = target;
        }

    function mouseclick(evt) { 
    var gv = document.getElementById("globalVariable");
    var previoustarget = gv.firstChild.nodeValue;
    if (previoustarget != "none") {
        	document.getElementById(gv.firstChild.nodeValue).setAttributeNS(null, "visibility", "hidden");
        }
    }
]]>
  </script>
<style type="text/css" >

<![CDATA[
    rect.anc_exon {
              stroke-width:3;
                  }

    rect.non_anc_exon {
              stroke: black; stroke-width:3; stroke-dasharray: 5,5;
                    }

    text {
              font-size: 18px;
              font-family: Courier New;
          }
                    ]]>
</style>

<defs>
    <text x="150" y="40" id="globalVariable">none</text>
</defs>

  <rect class="anc_exon" x="0" y="35.0" width="0" height="30" style="fill:#87bcbc;fill-opacity:1.00" />
  <rect class="anc_exon" x="0" y="35.0" width="74.4" height="30" style="fill:#87bcbc;fill-opacity:1.00" />
  <line x1="74.4" y1="50.0" x2="93.4" y2="50.0" style="stroke:#999; stroke-width:3;" />
  <line x1="93.4" y1="50.0" x2="93.4" y2="50.0" style="stroke:#999; stroke-width:3;" />
  <line x1="93.4" y1="50.0" x2="93.4" y2="50.0" style="stroke:#999; stroke-width:3;" />
  <line x1="93.4" y1="50.0" x2="114.0" y2="50.0" style="stroke:#999; stroke-width:3;" />
  <rect class="anc_exon" x="114" y="35.0" width="110" height="30" style="fill:#87bcbc;fill-opacity:1.00" />
  <line x1="224" y1="50.0" x2="244" y2="50.0" style="stroke:#999; stroke-width:3;" />
  <line x1="244" y1="50.0" x2="244" y2="50.0" style="stroke:#999; stroke-width:3;" />
  <line x1="244" y1="50.0" x2="244" y2="50.0" style="stroke:#999; stroke-width:3;" />
  <line x1="244" y1="50.0" x2="264" y2="50.0" style="stroke:#999; stroke-width:3;" />
  <rect class="anc_exon" x="264" y="35.0" width="84" height="30" style="fill:#87bcbc;fill-opacity:1.00" />
  <line x1="348" y1="50.0" x2="368" y2="50.0" style="stroke:#999; stroke-width:3;" />
  <line x1="368" y1="50.0" x2="368" y2="50.0" style="stroke:#999; stroke-width:3;" />
  <line x1="368" y1="50.0" x2="368" y2="50.0" style="stroke:#999; stroke-width:3;" />
  <line x1="368" y1="50.0" x2="388" y2="50.0" style="stroke:#999; stroke-width:3;" />
  <rect class="anc_exon" x="388" y="35.0" width="73" height="30" style="fill:#87bcbc;fill-opacity:1.00" />
  <line x1="461" y1="50.0" x2="481" y2="50.0" style="stroke:#999; stroke-width:3;" />
  <line x1="481" y1="50.0" x2="481" y2="50.0" style="stroke:#999; stroke-width:3;" />
  <line x1="481" y1="50.0" x2="481" y2="50.0" style="stroke:#999; stroke-width:3;" />
  <line x1="481" y1="50.0" x2="501" y2="50.0" style="stroke:#999; stroke-width:3;" />
  <rect class="anc_exon" x="501" y="35.0" width="113" height="30" style="fill:#87bcbc;fill-opacity:1.00" />
  <line x1="614" y1="50.0" x2="654" y2="50.0" style="stroke:#999; stroke-width:3;" />
  <rect class="anc_exon" x="654" y="35.0" width="120" height="30" style="fill:#87bcbc;fill-opacity:1.00" />
  <line x1="774" y1="50.0" x2="794" y2="50.0" style="stroke:#999; stroke-width:3;" />
  <line x1="794" y1="50.0" x2="794" y2="50.0" style="stroke:#999; stroke-width:3;" />
  <line x1="794" y1="50.0" x2="794" y2="50.0" style="stroke:#999; stroke-width:3;" />
  <line x1="794" y1="50.0" x2="814" y2="50.0" style="stroke:#999; stroke-width:3;" />
  <rect class="anc_exon" x="814" y="35.0" width="128" height="30" style="fill:#87bcbc;fill-opacity:1.00" />
  <line x1="942" y1="50.0" x2="962" y2="50.0" style="stroke:#999; stroke-width:3;" />
  <line x1="962" y1="50.0" x2="962" y2="50.0" style="stroke:#999; stroke-width:3;" />
  <line x1="962" y1="50.0" x2="962" y2="50.0" style="stroke:#999; stroke-width:3;" />
  <line x1="962" y1="50.0" x2="982" y2="50.0" style="stroke:#999; stroke-width:3;" />
  <rect class="anc_exon" x="982" y="35.0" width="77" height="30" style="fill:#87bcbc;fill-opacity:1.00" />
  <line x1="1059" y1="50.0" x2="1099" y2="50.0" style="stroke:#999; stroke-width:3;" />
  <rect class="anc_exon" x="1099" y="35.0" width="43" height="30" style="fill:#87bcbc;fill-opacity:1.00" />
  <line x1="1142" y1="50.0" x2="1162" y2="50.0" style="stroke:#999; stroke-width:3;" />
  <line x1="1162" y1="50.0" x2="1162" y2="50.0" style="stroke:#999; stroke-width:3;" />
  <line x1="1162" y1="50.0" x2="1162" y2="50.0" style="stroke:#999; stroke-width:3;" />
  <line x1="1162" y1="50.0" x2="1182" y2="50.0" style="stroke:#999; stroke-width:3;" />
  <rect class="anc_exon" x="1182" y="35.0" width="46" height="30" style="fill:#87bcbc;fill-opacity:1.00" />
  <line x1="1228" y1="50.0" x2="1248" y2="50.0" style="stroke:#999; stroke-width:3;" />
  <line x1="1248" y1="50.0" x2="1248" y2="50.0" style="stroke:#999; stroke-width:3;" />
  <line x1="1248" y1="50.0" x2="1248" y2="50.0" style="stroke:#999; stroke-width:3;" />
  <line x1="1248" y1="50.0" x2="1268" y2="50.0" style="stroke:#999; stroke-width:3;" />
  <rect class="anc_exon" x="1268" y="35.0" width="78" height="30" style="fill:#87bcbc;fill-opacity:1.00" />
  <line x1="1346" y1="50.0" x2="1366" y2="50.0" style="stroke:#999; stroke-width:3;" />
  <line x1="1366" y1="50.0" x2="1366" y2="50.0" style="stroke:#999; stroke-width:3;" />
  <line x1="1366" y1="50.0" x2="1366" y2="50.0" style="stroke:#999; stroke-width:3;" />
  <line x1="1366" y1="50.0" x2="1386" y2="50.0" style="stroke:#999; stroke-width:3;" />
  <rect class="anc_exon" x="1386" y="35.0" width="89" height="30" style="fill:#87bcbc;fill-opacity:1.00" />
  <line x1="1475" y1="50.0" x2="1495" y2="50.0" style="stroke:#999; stroke-width:3;" />
  <line x1="1495" y1="50.0" x2="1495" y2="50.0" style="stroke:#999; stroke-width:3;" />
  <line x1="1495" y1="50.0" x2="1495" y2="50.0" style="stroke:#999; stroke-width:3;" />
  <line x1="1495" y1="50.0" x2="1515" y2="50.0" style="stroke:#999; stroke-width:3;" />
  <rect class="anc_exon" x="1515" y="35.0" width="50" height="30" style="fill:#87bcbc;fill-opacity:1.00" />
  <line x1="1565" y1="50.0" x2="1605" y2="50.0" style="stroke:#999; stroke-width:3;" />
  <rect class="anc_exon" x="1605" y="35.0" width="120" height="30" style="fill:#87bcbc;fill-opacity:1.00" />
  <rect class="anc_exon" x="1725" y="35.0" width="0" height="30" style="fill:#87bcbc;fill-opacity:1.00" />
  <text style="" >
<tspan x="0" y="83.0" style="font-size:18px;" >SP XM_031959382_1.1</tspan>  </text>



<script type="text/ecmascript">
<![CDATA[
function draw_bbox(text_id)
{
    var text_elem = document.getElementById(text_id);
    var offset_px = 2;
    var offset_py = 0;
    bbox = text_elem.getBBox();
    var box = document.createElementNS(document.rootElement.namespaceURI,'rect');
    box.setAttribute('x', bbox.x - offset_px);
    box.setAttribute('y', bbox.y - offset_py);
    box.setAttribute('width', bbox.width + offset_px * 2);
    box.setAttribute('height', bbox.height + offset_py * 2);
    box.setAttribute('style','fill: white;'+'stroke: black;'+'stroke-width: 1px;');
    text_elem.insertBefore(box,text_elem.childNodes[0]);

    var svg = text_elem.parentNode;
    svg.appendChild(text_elem);
}

for (var i=1; i < 1; i++)
{
draw_bbox("Mouseover" + i);
}
]]> 
</script>
</svg>
