<svg version="1.1"
xmlns="http://www.w3.org/2000/svg"
xmlns:xlink="http://www.w3.org/1999/xlink"
width="3568" height="100" viewBox = "0 0 3568 100"
onclick="mouseclick(evt)">

<script type="text/ecmascript">

<![CDATA[
    function mouseover(evt, target) { 
    var gv = document.getElementById("globalVariable");
    var previoustarget = gv.firstChild.nodeValue;
    if (previoustarget != "none") 
    {
        	document.getElementById(gv.firstChild.nodeValue).setAttributeNS(null, "visibility", "hidden");
    }
    document.getElementById(target).setAttributeNS(null, "visibility", "visible");
    gv.firstChild.nodeValue = target;
        }

    function mouseclick(evt) { 
    var gv = document.getElementById("globalVariable");
    var previoustarget = gv.firstChild.nodeValue;
    if (previoustarget != "none") {
        	document.getElementById(gv.firstChild.nodeValue).setAttributeNS(null, "visibility", "hidden");
        }
    }
]]>
  </script>
<style type="text/css" >

<![CDATA[
    rect.anc_exon {
              stroke-width:3;
                  }

    rect.non_anc_exon {
              stroke: black; stroke-width:3; stroke-dasharray: 5,5;
                    }

    text {
              font-size: 18px;
              font-family: Courier New;
          }
                    ]]>
</style>

<defs>
    <text x="150" y="40" id="globalVariable">none</text>
</defs>

  <rect class="anc_exon" x="0" y="35.0" width="0" height="30" style="fill:#87bcbc;fill-opacity:1.00" />
  <rect class="anc_exon" x="0" y="35.0" width="107.2" height="30" style="fill:#87bcbc;fill-opacity:1.00" />
  <line x1="107.2" y1="50.0" x2="126.2" y2="50.0" style="stroke:#999; stroke-width:3;" />
  <line x1="126.2" y1="50.0" x2="126.2" y2="50.0" style="stroke:#999; stroke-width:3;" />
  <line x1="126.2" y1="50.0" x2="126.2" y2="50.0" style="stroke:#999; stroke-width:3;" />
  <line x1="126.2" y1="50.0" x2="147.0" y2="50.0" style="stroke:#999; stroke-width:3;" />
  <rect class="anc_exon" x="147" y="35.0" width="96" height="30" style="fill:#87bcbc;fill-opacity:1.00" />
  <line x1="243" y1="50.0" x2="263" y2="50.0" style="stroke:#999; stroke-width:3;" />
  <line x1="263" y1="50.0" x2="263" y2="50.0" style="stroke:#999; stroke-width:3;" />
  <line x1="263" y1="50.0" x2="263" y2="50.0" style="stroke:#999; stroke-width:3;" />
  <line x1="263" y1="50.0" x2="283" y2="50.0" style="stroke:#999; stroke-width:3;" />
  <rect class="anc_exon" x="283" y="35.0" width="125" height="30" style="fill:#87bcbc;fill-opacity:1.00" />
  <line x1="408" y1="50.0" x2="448" y2="50.0" style="stroke:#999; stroke-width:3;" />
  <rect class="anc_exon" x="448" y="35.0" width="102" height="30" style="fill:#87bcbc;fill-opacity:1.00" />
  <line x1="550" y1="50.0" x2="570" y2="50.0" style="stroke:#999; stroke-width:3;" />
  <line x1="570" y1="50.0" x2="570" y2="50.0" style="stroke:#999; stroke-width:3;" />
  <line x1="570" y1="50.0" x2="570" y2="50.0" style="stroke:#999; stroke-width:3;" />
  <line x1="570" y1="50.0" x2="590" y2="50.0" style="stroke:#999; stroke-width:3;" />
  <rect class="anc_exon" x="590" y="35.0" width="100" height="30" style="fill:#87bcbc;fill-opacity:1.00" />
  <line x1="690" y1="50.0" x2="730" y2="50.0" style="stroke:#999; stroke-width:3;" />
  <rect class="anc_exon" x="730" y="35.0" width="87" height="30" style="fill:#87bcbc;fill-opacity:1.00" />
  <line x1="817" y1="50.0" x2="857" y2="50.0" style="stroke:#999; stroke-width:3;" />
  <rect class="anc_exon" x="857" y="35.0" width="107" height="30" style="fill:#87bcbc;fill-opacity:1.00" />
  <line x1="964" y1="50.0" x2="1004" y2="50.0" style="stroke:#999; stroke-width:3;" />
  <rect class="anc_exon" x="1004" y="35.0" width="66" height="30" style="fill:#87bcbc;fill-opacity:1.00" />
  <line x1="1070" y1="50.0" x2="1110" y2="50.0" style="stroke:#999; stroke-width:3;" />
  <rect class="anc_exon" x="1110" y="35.0" width="144" height="30" style="fill:#87bcbc;fill-opacity:1.00" />
  <line x1="1254" y1="50.0" x2="1274" y2="50.0" style="stroke:#999; stroke-width:3;" />
  <line x1="1274" y1="50.0" x2="1274" y2="50.0" style="stroke:#999; stroke-width:3;" />
  <line x1="1274" y1="50.0" x2="1274" y2="50.0" style="stroke:#999; stroke-width:3;" />
  <line x1="1274" y1="50.0" x2="1294" y2="50.0" style="stroke:#999; stroke-width:3;" />
  <rect class="anc_exon" x="1294" y="35.0" width="103" height="30" style="fill:#87bcbc;fill-opacity:1.00" />
  <line x1="1397" y1="50.0" x2="1437" y2="50.0" style="stroke:#999; stroke-width:3;" />
  <rect class="anc_exon" x="1437" y="35.0" width="120" height="30" style="fill:#87bcbc;fill-opacity:1.00" />
  <line x1="1557" y1="50.0" x2="1577" y2="50.0" style="stroke:#999; stroke-width:3;" />
  <line x1="1577" y1="50.0" x2="1577" y2="50.0" style="stroke:#999; stroke-width:3;" />
  <line x1="1577" y1="50.0" x2="1577" y2="50.0" style="stroke:#999; stroke-width:3;" />
  <line x1="1577" y1="50.0" x2="1597" y2="50.0" style="stroke:#999; stroke-width:3;" />
  <rect class="anc_exon" x="1597" y="35.0" width="158" height="30" style="fill:#87bcbc;fill-opacity:1.00" />
  <line x1="1755" y1="50.0" x2="1795" y2="50.0" style="stroke:#999; stroke-width:3;" />
  <rect class="anc_exon" x="1795" y="35.0" width="92" height="30" style="fill:#87bcbc;fill-opacity:1.00" />
  <line x1="1887" y1="50.0" x2="1907" y2="50.0" style="stroke:#999; stroke-width:3;" />
  <line x1="1907" y1="50.0" x2="1907" y2="50.0" style="stroke:#999; stroke-width:3;" />
  <line x1="1907" y1="50.0" x2="1907" y2="50.0" style="stroke:#999; stroke-width:3;" />
  <line x1="1907" y1="50.0" x2="1927" y2="50.0" style="stroke:#999; stroke-width:3;" />
  <rect class="anc_exon" x="1927" y="35.0" width="104" height="30" style="fill:#87bcbc;fill-opacity:1.00" />
  <line x1="2031" y1="50.0" x2="2051" y2="50.0" style="stroke:#999; stroke-width:3;" />
  <line x1="2051" y1="50.0" x2="2051" y2="50.0" style="stroke:#999; stroke-width:3;" />
  <line x1="2051" y1="50.0" x2="2051" y2="50.0" style="stroke:#999; stroke-width:3;" />
  <line x1="2051" y1="50.0" x2="2071" y2="50.0" style="stroke:#999; stroke-width:3;" />
  <rect class="anc_exon" x="2071" y="35.0" width="57" height="30" style="fill:#87bcbc;fill-opacity:1.00" />
  <line x1="2128" y1="50.0" x2="2148" y2="50.0" style="stroke:#999; stroke-width:3;" />
  <line x1="2148" y1="50.0" x2="2148" y2="50.0" style="stroke:#999; stroke-width:3;" />
  <line x1="2148" y1="50.0" x2="2148" y2="50.0" style="stroke:#999; stroke-width:3;" />
  <line x1="2148" y1="50.0" x2="2168" y2="50.0" style="stroke:#999; stroke-width:3;" />
  <rect class="anc_exon" x="2168" y="35.0" width="114" height="30" style="fill:#87bcbc;fill-opacity:1.00" />
  <line x1="2282" y1="50.0" x2="2322" y2="50.0" style="stroke:#999; stroke-width:3;" />
  <rect class="anc_exon" x="2322" y="35.0" width="98" height="30" style="fill:#87bcbc;fill-opacity:1.00" />
  <line x1="2420" y1="50.0" x2="2460" y2="50.0" style="stroke:#999; stroke-width:3;" />
  <rect class="anc_exon" x="2460" y="35.0" width="49" height="30" style="fill:#87bcbc;fill-opacity:1.00" />
  <line x1="2509" y1="50.0" x2="2549" y2="50.0" style="stroke:#999; stroke-width:3;" />
  <rect class="anc_exon" x="2549" y="35.0" width="88" height="30" style="fill:#87bcbc;fill-opacity:1.00" />
  <line x1="2637" y1="50.0" x2="2657" y2="50.0" style="stroke:#999; stroke-width:3;" />
  <line x1="2657" y1="50.0" x2="2657" y2="50.0" style="stroke:#999; stroke-width:3;" />
  <line x1="2657" y1="50.0" x2="2657" y2="50.0" style="stroke:#999; stroke-width:3;" />
  <line x1="2657" y1="50.0" x2="2677" y2="50.0" style="stroke:#999; stroke-width:3;" />
  <rect class="anc_exon" x="2677" y="35.0" width="104" height="30" style="fill:#87bcbc;fill-opacity:1.00" />
  <line x1="2781" y1="50.0" x2="2821" y2="50.0" style="stroke:#999; stroke-width:3;" />
  <rect class="anc_exon" x="2821" y="35.0" width="85" height="30" style="fill:#87bcbc;fill-opacity:1.00" />
  <line x1="2906" y1="50.0" x2="2946" y2="50.0" style="stroke:#999; stroke-width:3;" />
  <rect class="anc_exon" x="2946" y="35.0" width="84" height="30" style="fill:#87bcbc;fill-opacity:1.00" />
  <line x1="3030" y1="50.0" x2="3070" y2="50.0" style="stroke:#999; stroke-width:3;" />
  <rect class="anc_exon" x="3070" y="35.0" width="124" height="30" style="fill:#87bcbc;fill-opacity:1.00" />
  <line x1="3194" y1="50.0" x2="3214" y2="50.0" style="stroke:#999; stroke-width:3;" />
  <line x1="3214" y1="50.0" x2="3214" y2="50.0" style="stroke:#999; stroke-width:3;" />
  <line x1="3214" y1="50.0" x2="3214" y2="50.0" style="stroke:#999; stroke-width:3;" />
  <line x1="3214" y1="50.0" x2="3234" y2="50.0" style="stroke:#999; stroke-width:3;" />
  <rect class="anc_exon" x="3234" y="35.0" width="100" height="30" style="fill:#87bcbc;fill-opacity:1.00" />
  <line x1="3334" y1="50.0" x2="3374" y2="50.0" style="stroke:#999; stroke-width:3;" />
  <rect class="anc_exon" x="3374" y="35.0" width="39" height="30" style="fill:#87bcbc;fill-opacity:1.00" />
  <line x1="3413" y1="50.0" x2="3453" y2="50.0" style="stroke:#999; stroke-width:3;" />
  <rect class="anc_exon" x="3453" y="35.0" width="21" height="30" style="fill:#87bcbc;fill-opacity:1.00" />
  <line x1="3474" y1="50.0" x2="3514" y2="50.0" style="stroke:#999; stroke-width:3;" />
  <rect class="anc_exon" x="3514" y="35.0" width="18" height="30" style="fill:#87bcbc;fill-opacity:1.00" />
  <rect class="anc_exon" x="3532" y="35.0" width="0" height="30" style="fill:#87bcbc;fill-opacity:1.00" />
  <text style="" >
<tspan x="0" y="83.0" style="font-size:18px;" >SP XM_031962663_1.1</tspan>  </text>



<script type="text/ecmascript">
<![CDATA[
function draw_bbox(text_id)
{
    var text_elem = document.getElementById(text_id);
    var offset_px = 2;
    var offset_py = 0;
    bbox = text_elem.getBBox();
    var box = document.createElementNS(document.rootElement.namespaceURI,'rect');
    box.setAttribute('x', bbox.x - offset_px);
    box.setAttribute('y', bbox.y - offset_py);
    box.setAttribute('width', bbox.width + offset_px * 2);
    box.setAttribute('height', bbox.height + offset_py * 2);
    box.setAttribute('style','fill: white;'+'stroke: black;'+'stroke-width: 1px;');
    text_elem.insertBefore(box,text_elem.childNodes[0]);

    var svg = text_elem.parentNode;
    svg.appendChild(text_elem);
}

for (var i=1; i < 1; i++)
{
draw_bbox("Mouseover" + i);
}
]]> 
</script>
</svg>
