<svg version="1.1"
xmlns="http://www.w3.org/2000/svg"
xmlns:xlink="http://www.w3.org/1999/xlink"
width="3066" height="100" viewBox = "0 0 3066 100"
onclick="mouseclick(evt)">

<script type="text/ecmascript">

<![CDATA[
    function mouseover(evt, target) { 
    var gv = document.getElementById("globalVariable");
    var previoustarget = gv.firstChild.nodeValue;
    if (previoustarget != "none") 
    {
        	document.getElementById(gv.firstChild.nodeValue).setAttributeNS(null, "visibility", "hidden");
    }
    document.getElementById(target).setAttributeNS(null, "visibility", "visible");
    gv.firstChild.nodeValue = target;
        }

    function mouseclick(evt) { 
    var gv = document.getElementById("globalVariable");
    var previoustarget = gv.firstChild.nodeValue;
    if (previoustarget != "none") {
        	document.getElementById(gv.firstChild.nodeValue).setAttributeNS(null, "visibility", "hidden");
        }
    }
]]>
  </script>
<style type="text/css" >

<![CDATA[
    rect.anc_exon {
              stroke-width:3;
                  }

    rect.non_anc_exon {
              stroke: black; stroke-width:3; stroke-dasharray: 5,5;
                    }

    text {
              font-size: 18px;
              font-family: Courier New;
          }
                    ]]>
</style>

<defs>
    <text x="150" y="40" id="globalVariable">none</text>
</defs>

  <rect class="anc_exon" x="0" y="35.0" width="0" height="30" style="fill:#87bcbc;fill-opacity:1.00" />
  <rect class="anc_exon" x="0" y="35.0" width="301.6" height="30" style="fill:#87bcbc;fill-opacity:1.00" />
  <line x1="301.6" y1="50.0" x2="320.6" y2="50.0" style="stroke:#999; stroke-width:3;" />
  <line x1="320.6" y1="50.0" x2="320.6" y2="50.0" style="stroke:#999; stroke-width:3;" />
  <line x1="320.6" y1="50.0" x2="320.6" y2="50.0" style="stroke:#999; stroke-width:3;" />
  <line x1="320.6" y1="50.0" x2="341.0" y2="50.0" style="stroke:#999; stroke-width:3;" />
  <rect class="anc_exon" x="341" y="35.0" width="62" height="30" style="fill:#87bcbc;fill-opacity:1.00" />
  <line x1="403" y1="50.0" x2="423" y2="50.0" style="stroke:#999; stroke-width:3;" />
  <line x1="423" y1="50.0" x2="423" y2="50.0" style="stroke:#999; stroke-width:3;" />
  <line x1="423" y1="50.0" x2="423" y2="50.0" style="stroke:#999; stroke-width:3;" />
  <line x1="423" y1="50.0" x2="443" y2="50.0" style="stroke:#999; stroke-width:3;" />
  <rect class="anc_exon" x="443" y="35.0" width="168" height="30" style="fill:#87bcbc;fill-opacity:1.00" />
  <line x1="611" y1="50.0" x2="631" y2="50.0" style="stroke:#999; stroke-width:3;" />
  <line x1="631" y1="50.0" x2="631" y2="50.0" style="stroke:#999; stroke-width:3;" />
  <line x1="631" y1="50.0" x2="631" y2="50.0" style="stroke:#999; stroke-width:3;" />
  <line x1="631" y1="50.0" x2="651" y2="50.0" style="stroke:#999; stroke-width:3;" />
  <rect class="anc_exon" x="651" y="35.0" width="16" height="30" style="fill:#87bcbc;fill-opacity:1.00" />
  <line x1="667" y1="50.0" x2="687" y2="50.0" style="stroke:#999; stroke-width:3;" />
  <line x1="687" y1="50.0" x2="687" y2="50.0" style="stroke:#999; stroke-width:3;" />
  <line x1="687" y1="50.0" x2="687" y2="50.0" style="stroke:#999; stroke-width:3;" />
  <line x1="687" y1="50.0" x2="707" y2="50.0" style="stroke:#999; stroke-width:3;" />
  <rect class="anc_exon" x="707" y="35.0" width="19" height="30" style="fill:#87bcbc;fill-opacity:1.00" />
  <line x1="726" y1="50.0" x2="746" y2="50.0" style="stroke:#999; stroke-width:3;" />
  <line x1="746" y1="50.0" x2="746" y2="50.0" style="stroke:#999; stroke-width:3;" />
  <line x1="746" y1="50.0" x2="746" y2="50.0" style="stroke:#999; stroke-width:3;" />
  <line x1="746" y1="50.0" x2="766" y2="50.0" style="stroke:#999; stroke-width:3;" />
  <rect class="anc_exon" x="766" y="35.0" width="68" height="30" style="fill:#87bcbc;fill-opacity:1.00" />
  <line x1="834" y1="50.0" x2="874" y2="50.0" style="stroke:#999; stroke-width:3;" />
  <rect class="anc_exon" x="874" y="35.0" width="83" height="30" style="fill:#87bcbc;fill-opacity:1.00" />
  <line x1="957" y1="50.0" x2="997" y2="50.0" style="stroke:#999; stroke-width:3;" />
  <rect class="anc_exon" x="997" y="35.0" width="76" height="30" style="fill:#87bcbc;fill-opacity:1.00" />
  <line x1="1073" y1="50.0" x2="1113" y2="50.0" style="stroke:#999; stroke-width:3;" />
  <rect class="anc_exon" x="1113" y="35.0" width="64" height="30" style="fill:#87bcbc;fill-opacity:1.00" />
  <line x1="1177" y1="50.0" x2="1197" y2="50.0" style="stroke:#999; stroke-width:3;" />
  <line x1="1197" y1="50.0" x2="1197" y2="50.0" style="stroke:#999; stroke-width:3;" />
  <line x1="1197" y1="50.0" x2="1197" y2="50.0" style="stroke:#999; stroke-width:3;" />
  <line x1="1197" y1="50.0" x2="1217" y2="50.0" style="stroke:#999; stroke-width:3;" />
  <rect class="anc_exon" x="1217" y="35.0" width="92" height="30" style="fill:#87bcbc;fill-opacity:1.00" />
  <line x1="1309" y1="50.0" x2="1349" y2="50.0" style="stroke:#999; stroke-width:3;" />
  <rect class="anc_exon" x="1349" y="35.0" width="125" height="30" style="fill:#87bcbc;fill-opacity:1.00" />
  <line x1="1474" y1="50.0" x2="1514" y2="50.0" style="stroke:#999; stroke-width:3;" />
  <rect class="anc_exon" x="1514" y="35.0" width="152" height="30" style="fill:#87bcbc;fill-opacity:1.00" />
  <line x1="1666" y1="50.0" x2="1706" y2="50.0" style="stroke:#999; stroke-width:3;" />
  <rect class="anc_exon" x="1706" y="35.0" width="115" height="30" style="fill:#87bcbc;fill-opacity:1.00" />
  <line x1="1821" y1="50.0" x2="1861" y2="50.0" style="stroke:#999; stroke-width:3;" />
  <rect class="anc_exon" x="1861" y="35.0" width="95" height="30" style="fill:#87bcbc;fill-opacity:1.00" />
  <line x1="1956" y1="50.0" x2="1996" y2="50.0" style="stroke:#999; stroke-width:3;" />
  <rect class="anc_exon" x="1996" y="35.0" width="114" height="30" style="fill:#87bcbc;fill-opacity:1.00" />
  <line x1="2110" y1="50.0" x2="2150" y2="50.0" style="stroke:#999; stroke-width:3;" />
  <rect class="anc_exon" x="2150" y="35.0" width="83" height="30" style="fill:#87bcbc;fill-opacity:1.00" />
  <line x1="2233" y1="50.0" x2="2273" y2="50.0" style="stroke:#999; stroke-width:3;" />
  <rect class="anc_exon" x="2273" y="35.0" width="163" height="30" style="fill:#87bcbc;fill-opacity:1.00" />
  <line x1="2436" y1="50.0" x2="2476" y2="50.0" style="stroke:#999; stroke-width:3;" />
  <rect class="anc_exon" x="2476" y="35.0" width="75" height="30" style="fill:#87bcbc;fill-opacity:1.00" />
  <line x1="2551" y1="50.0" x2="2571" y2="50.0" style="stroke:#999; stroke-width:3;" />
  <line x1="2571" y1="50.0" x2="2571" y2="50.0" style="stroke:#999; stroke-width:3;" />
  <line x1="2571" y1="50.0" x2="2571" y2="50.0" style="stroke:#999; stroke-width:3;" />
  <line x1="2571" y1="50.0" x2="2591" y2="50.0" style="stroke:#999; stroke-width:3;" />
  <rect class="anc_exon" x="2591" y="35.0" width="9" height="30" style="fill:#87bcbc;fill-opacity:1.00" />
  <line x1="2600" y1="50.0" x2="2640" y2="50.0" style="stroke:#999; stroke-width:3;" />
  <rect class="anc_exon" x="2640" y="35.0" width="86" height="30" style="fill:#87bcbc;fill-opacity:1.00" />
  <line x1="2726" y1="50.0" x2="2766" y2="50.0" style="stroke:#999; stroke-width:3;" />
  <rect class="anc_exon" x="2766" y="35.0" width="152" height="30" style="fill:#87bcbc;fill-opacity:1.00" />
  <line x1="2918" y1="50.0" x2="2938" y2="50.0" style="stroke:#999; stroke-width:3;" />
  <line x1="2938" y1="50.0" x2="2938" y2="50.0" style="stroke:#999; stroke-width:3;" />
  <line x1="2938" y1="50.0" x2="2938" y2="50.0" style="stroke:#999; stroke-width:3;" />
  <line x1="2938" y1="50.0" x2="2958" y2="50.0" style="stroke:#999; stroke-width:3;" />
  <rect class="anc_exon" x="2958" y="35.0" width="72" height="30" style="fill:#87bcbc;fill-opacity:1.00" />
  <rect class="anc_exon" x="3030" y="35.0" width="0" height="30" style="fill:#87bcbc;fill-opacity:1.00" />
  <text style="" >
<tspan x="0" y="83.0" style="font-size:18px;" >SP XM_031960186_1.1</tspan>  </text>



<script type="text/ecmascript">
<![CDATA[
function draw_bbox(text_id)
{
    var text_elem = document.getElementById(text_id);
    var offset_px = 2;
    var offset_py = 0;
    bbox = text_elem.getBBox();
    var box = document.createElementNS(document.rootElement.namespaceURI,'rect');
    box.setAttribute('x', bbox.x - offset_px);
    box.setAttribute('y', bbox.y - offset_py);
    box.setAttribute('width', bbox.width + offset_px * 2);
    box.setAttribute('height', bbox.height + offset_py * 2);
    box.setAttribute('style','fill: white;'+'stroke: black;'+'stroke-width: 1px;');
    text_elem.insertBefore(box,text_elem.childNodes[0]);

    var svg = text_elem.parentNode;
    svg.appendChild(text_elem);
}

for (var i=1; i < 1; i++)
{
draw_bbox("Mouseover" + i);
}
]]> 
</script>
</svg>
