<svg version="1.1"
xmlns="http://www.w3.org/2000/svg"
xmlns:xlink="http://www.w3.org/1999/xlink"
width="1157" height="100" viewBox = "0 0 1157 100"
onclick="mouseclick(evt)">

<script type="text/ecmascript">

<![CDATA[
    function mouseover(evt, target) { 
    var gv = document.getElementById("globalVariable");
    var previoustarget = gv.firstChild.nodeValue;
    if (previoustarget != "none") 
    {
        	document.getElementById(gv.firstChild.nodeValue).setAttributeNS(null, "visibility", "hidden");
    }
    document.getElementById(target).setAttributeNS(null, "visibility", "visible");
    gv.firstChild.nodeValue = target;
        }

    function mouseclick(evt) { 
    var gv = document.getElementById("globalVariable");
    var previoustarget = gv.firstChild.nodeValue;
    if (previoustarget != "none") {
        	document.getElementById(gv.firstChild.nodeValue).setAttributeNS(null, "visibility", "hidden");
        }
    }
]]>
  </script>
<style type="text/css" >

<![CDATA[
    rect.anc_exon {
              stroke-width:3;
                  }

    rect.non_anc_exon {
              stroke: black; stroke-width:3; stroke-dasharray: 5,5;
                    }

    text {
              font-size: 18px;
              font-family: Courier New;
          }
                    ]]>
</style>

<defs>
    <text x="150" y="40" id="globalVariable">none</text>
</defs>

  <rect class="anc_exon" x="0" y="35.0" width="0" height="30" style="fill:#87bcbc;fill-opacity:1.00" />
  <rect class="anc_exon" x="0" y="35.0" width="68.0" height="30" style="fill:#878787;fill-opacity:1.00" />
  <line x1="68.0" y1="50.0" x2="88.0" y2="50.0" style="stroke:#999; stroke-width:3;" />
  <line x1="88.0" y1="50.0" x2="88.0" y2="50.0" style="stroke:#999; stroke-width:3;" />
  <line x1="88.0" y1="50.0" x2="88.0" y2="50.0" style="stroke:#999; stroke-width:3;" />
  <line x1="88.0" y1="50.0" x2="108.0" y2="50.0" style="stroke:#999; stroke-width:3;" />
  <rect class="anc_exon" x="108" y="35.0" width="113" height="30" style="fill:#87bcbc;fill-opacity:1.00" />
  <line x1="221" y1="50.0" x2="241" y2="50.0" style="stroke:#999; stroke-width:3;" />
  <line x1="241" y1="50.0" x2="241" y2="50.0" style="stroke:#999; stroke-width:3;" />
  <line x1="241" y1="50.0" x2="241" y2="50.0" style="stroke:#999; stroke-width:3;" />
  <line x1="241" y1="50.0" x2="261" y2="50.0" style="stroke:#999; stroke-width:3;" />
  <rect class="anc_exon" x="261" y="35.0" width="79" height="30" style="fill:#87bcbc;fill-opacity:1.00" />
  <line x1="340" y1="50.0" x2="360" y2="50.0" style="stroke:#999; stroke-width:3;" />
  <line x1="360" y1="50.0" x2="360" y2="50.0" style="stroke:#999; stroke-width:3;" />
  <line x1="360" y1="50.0" x2="360" y2="50.0" style="stroke:#999; stroke-width:3;" />
  <line x1="360" y1="50.0" x2="380" y2="50.0" style="stroke:#999; stroke-width:3;" />
  <rect class="anc_exon" x="380" y="35.0" width="87" height="30" style="fill:#87bcbc;fill-opacity:1.00" />
  <line x1="467" y1="50.0" x2="487" y2="50.0" style="stroke:#999; stroke-width:3;" />
  <line x1="487" y1="50.0" x2="487" y2="50.0" style="stroke:#999; stroke-width:3;" />
  <line x1="487" y1="50.0" x2="487" y2="50.0" style="stroke:#999; stroke-width:3;" />
  <line x1="487" y1="50.0" x2="507" y2="50.0" style="stroke:#999; stroke-width:3;" />
  <rect class="anc_exon" x="507" y="35.0" width="108" height="30" style="fill:#87bcbc;fill-opacity:1.00" />
  <line x1="615" y1="50.0" x2="655" y2="50.0" style="stroke:#999; stroke-width:3;" />
  <rect class="anc_exon" x="655" y="35.0" width="132" height="30" style="fill:#87bcbc;fill-opacity:1.00" />
  <line x1="787" y1="50.0" x2="807" y2="50.0" style="stroke:#999; stroke-width:3;" />
  <line x1="807" y1="50.0" x2="807" y2="50.0" style="stroke:#999; stroke-width:3;" />
  <line x1="807" y1="50.0" x2="807" y2="50.0" style="stroke:#999; stroke-width:3;" />
  <line x1="807" y1="50.0" x2="827" y2="50.0" style="stroke:#999; stroke-width:3;" />
  <rect class="anc_exon" x="827" y="35.0" width="79" height="30" style="fill:#87bcbc;fill-opacity:1.00" />
  <line x1="906" y1="50.0" x2="926" y2="50.0" style="stroke:#999; stroke-width:3;" />
  <line x1="926" y1="50.0" x2="926" y2="50.0" style="stroke:#999; stroke-width:3;" />
  <line x1="926" y1="50.0" x2="926" y2="50.0" style="stroke:#999; stroke-width:3;" />
  <line x1="926" y1="50.0" x2="946" y2="50.0" style="stroke:#999; stroke-width:3;" />
  <rect class="anc_exon" x="946" y="35.0" width="175" height="30" style="fill:#87bcbc;fill-opacity:1.00" />
  <rect class="anc_exon" x="1121" y="35.0" width="0" height="30" style="fill:#87bcbc;fill-opacity:1.00" />
  <text style="" >
<tspan x="0" y="83.0" style="font-size:18px;" >SP XM_023500595_2.1</tspan>  </text>



<script type="text/ecmascript">
<![CDATA[
function draw_bbox(text_id)
{
    var text_elem = document.getElementById(text_id);
    var offset_px = 2;
    var offset_py = 0;
    bbox = text_elem.getBBox();
    var box = document.createElementNS(document.rootElement.namespaceURI,'rect');
    box.setAttribute('x', bbox.x - offset_px);
    box.setAttribute('y', bbox.y - offset_py);
    box.setAttribute('width', bbox.width + offset_px * 2);
    box.setAttribute('height', bbox.height + offset_py * 2);
    box.setAttribute('style','fill: white;'+'stroke: black;'+'stroke-width: 1px;');
    text_elem.insertBefore(box,text_elem.childNodes[0]);

    var svg = text_elem.parentNode;
    svg.appendChild(text_elem);
}

for (var i=1; i < 1; i++)
{
draw_bbox("Mouseover" + i);
}
]]> 
</script>
</svg>
