<svg version="1.1"
xmlns="http://www.w3.org/2000/svg"
xmlns:xlink="http://www.w3.org/1999/xlink"
width="2292" height="100" viewBox = "0 0 2292 100"
onclick="mouseclick(evt)">

<script type="text/ecmascript">

<![CDATA[
    function mouseover(evt, target) { 
    var gv = document.getElementById("globalVariable");
    var previoustarget = gv.firstChild.nodeValue;
    if (previoustarget != "none") 
    {
        	document.getElementById(gv.firstChild.nodeValue).setAttributeNS(null, "visibility", "hidden");
    }
    document.getElementById(target).setAttributeNS(null, "visibility", "visible");
    gv.firstChild.nodeValue = target;
        }

    function mouseclick(evt) { 
    var gv = document.getElementById("globalVariable");
    var previoustarget = gv.firstChild.nodeValue;
    if (previoustarget != "none") {
        	document.getElementById(gv.firstChild.nodeValue).setAttributeNS(null, "visibility", "hidden");
        }
    }
]]>
  </script>
<style type="text/css" >

<![CDATA[
    rect.anc_exon {
              stroke-width:3;
                  }

    rect.non_anc_exon {
              stroke: black; stroke-width:3; stroke-dasharray: 5,5;
                    }

    text {
              font-size: 18px;
              font-family: Courier New;
          }
                    ]]>
</style>

<defs>
    <text x="150" y="40" id="globalVariable">none</text>
</defs>

  <rect class="anc_exon" x="0" y="35.0" width="0" height="30" style="fill:#87bcbc;fill-opacity:1.00" />
  <rect class="anc_exon" x="0" y="35.0" width="14.4" height="30" style="fill:#87bcbc;fill-opacity:1.00" />
  <line x1="14.4" y1="50.0" x2="33.4" y2="50.0" style="stroke:#999; stroke-width:3;" />
  <line x1="33.4" y1="50.0" x2="33.4" y2="50.0" style="stroke:#999; stroke-width:3;" />
  <line x1="33.4" y1="50.0" x2="33.4" y2="50.0" style="stroke:#999; stroke-width:3;" />
  <line x1="33.4" y1="50.0" x2="54.0" y2="50.0" style="stroke:#999; stroke-width:3;" />
  <rect class="anc_exon" x="54" y="35.0" width="117" height="30" style="fill:#87bcbc;fill-opacity:1.00" />
  <line x1="171" y1="50.0" x2="211" y2="50.0" style="stroke:#999; stroke-width:3;" />
  <rect class="anc_exon" x="211" y="35.0" width="84" height="30" style="fill:#87bcbc;fill-opacity:1.00" />
  <line x1="295" y1="50.0" x2="315" y2="50.0" style="stroke:#999; stroke-width:3;" />
  <line x1="315" y1="50.0" x2="315" y2="50.0" style="stroke:#999; stroke-width:3;" />
  <line x1="315" y1="50.0" x2="315" y2="50.0" style="stroke:#999; stroke-width:3;" />
  <line x1="315" y1="50.0" x2="335" y2="50.0" style="stroke:#999; stroke-width:3;" />
  <rect class="anc_exon" x="335" y="35.0" width="65" height="30" style="fill:#87bcbc;fill-opacity:1.00" />
  <line x1="400" y1="50.0" x2="420" y2="50.0" style="stroke:#999; stroke-width:3;" />
  <line x1="420" y1="50.0" x2="420" y2="50.0" style="stroke:#999; stroke-width:3;" />
  <line x1="420" y1="50.0" x2="420" y2="50.0" style="stroke:#999; stroke-width:3;" />
  <line x1="420" y1="50.0" x2="440" y2="50.0" style="stroke:#999; stroke-width:3;" />
  <rect class="anc_exon" x="440" y="35.0" width="96" height="30" style="fill:#87bcbc;fill-opacity:1.00" />
  <line x1="536" y1="50.0" x2="556" y2="50.0" style="stroke:#999; stroke-width:3;" />
  <line x1="556" y1="50.0" x2="556" y2="50.0" style="stroke:#999; stroke-width:3;" />
  <line x1="556" y1="50.0" x2="556" y2="50.0" style="stroke:#999; stroke-width:3;" />
  <line x1="556" y1="50.0" x2="576" y2="50.0" style="stroke:#999; stroke-width:3;" />
  <rect class="anc_exon" x="576" y="35.0" width="52" height="30" style="fill:#87bcbc;fill-opacity:1.00" />
  <line x1="628" y1="50.0" x2="648" y2="50.0" style="stroke:#999; stroke-width:3;" />
  <line x1="648" y1="50.0" x2="648" y2="50.0" style="stroke:#999; stroke-width:3;" />
  <line x1="648" y1="50.0" x2="648" y2="50.0" style="stroke:#999; stroke-width:3;" />
  <line x1="648" y1="50.0" x2="668" y2="50.0" style="stroke:#999; stroke-width:3;" />
  <rect class="anc_exon" x="668" y="35.0" width="95" height="30" style="fill:#87bcbc;fill-opacity:1.00" />
  <line x1="763" y1="50.0" x2="783" y2="50.0" style="stroke:#999; stroke-width:3;" />
  <line x1="783" y1="50.0" x2="783" y2="50.0" style="stroke:#999; stroke-width:3;" />
  <line x1="783" y1="50.0" x2="783" y2="50.0" style="stroke:#999; stroke-width:3;" />
  <line x1="783" y1="50.0" x2="803" y2="50.0" style="stroke:#999; stroke-width:3;" />
  <rect class="anc_exon" x="803" y="35.0" width="57" height="30" style="fill:#87bcbc;fill-opacity:1.00" />
  <line x1="860" y1="50.0" x2="880" y2="50.0" style="stroke:#999; stroke-width:3;" />
  <line x1="880" y1="50.0" x2="880" y2="50.0" style="stroke:#999; stroke-width:3;" />
  <line x1="880" y1="50.0" x2="880" y2="50.0" style="stroke:#999; stroke-width:3;" />
  <line x1="880" y1="50.0" x2="900" y2="50.0" style="stroke:#999; stroke-width:3;" />
  <rect class="anc_exon" x="900" y="35.0" width="43" height="30" style="fill:#87bcbc;fill-opacity:1.00" />
  <line x1="943" y1="50.0" x2="963" y2="50.0" style="stroke:#999; stroke-width:3;" />
  <line x1="963" y1="50.0" x2="963" y2="50.0" style="stroke:#999; stroke-width:3;" />
  <line x1="963" y1="50.0" x2="963" y2="50.0" style="stroke:#999; stroke-width:3;" />
  <line x1="963" y1="50.0" x2="983" y2="50.0" style="stroke:#999; stroke-width:3;" />
  <rect class="anc_exon" x="983" y="35.0" width="44" height="30" style="fill:#87bcbc;fill-opacity:1.00" />
  <line x1="1027" y1="50.0" x2="1047" y2="50.0" style="stroke:#999; stroke-width:3;" />
  <line x1="1047" y1="50.0" x2="1047" y2="50.0" style="stroke:#999; stroke-width:3;" />
  <line x1="1047" y1="50.0" x2="1047" y2="50.0" style="stroke:#999; stroke-width:3;" />
  <line x1="1047" y1="50.0" x2="1067" y2="50.0" style="stroke:#999; stroke-width:3;" />
  <rect class="anc_exon" x="1067" y="35.0" width="64" height="30" style="fill:#87bcbc;fill-opacity:1.00" />
  <line x1="1131" y1="50.0" x2="1151" y2="50.0" style="stroke:#999; stroke-width:3;" />
  <line x1="1151" y1="50.0" x2="1151" y2="50.0" style="stroke:#999; stroke-width:3;" />
  <line x1="1151" y1="50.0" x2="1151" y2="50.0" style="stroke:#999; stroke-width:3;" />
  <line x1="1151" y1="50.0" x2="1171" y2="50.0" style="stroke:#999; stroke-width:3;" />
  <rect class="anc_exon" x="1171" y="35.0" width="102" height="30" style="fill:#87bcbc;fill-opacity:1.00" />
  <line x1="1273" y1="50.0" x2="1313" y2="50.0" style="stroke:#999; stroke-width:3;" />
  <rect class="anc_exon" x="1313" y="35.0" width="60" height="30" style="fill:#87bcbc;fill-opacity:1.00" />
  <line x1="1373" y1="50.0" x2="1413" y2="50.0" style="stroke:#999; stroke-width:3;" />
  <rect class="anc_exon" x="1413" y="35.0" width="137" height="30" style="fill:#87bcbc;fill-opacity:1.00" />
  <line x1="1550" y1="50.0" x2="1570" y2="50.0" style="stroke:#999; stroke-width:3;" />
  <line x1="1570" y1="50.0" x2="1570" y2="50.0" style="stroke:#999; stroke-width:3;" />
  <line x1="1570" y1="50.0" x2="1570" y2="50.0" style="stroke:#999; stroke-width:3;" />
  <line x1="1570" y1="50.0" x2="1590" y2="50.0" style="stroke:#999; stroke-width:3;" />
  <rect class="anc_exon" x="1590" y="35.0" width="173" height="30" style="fill:#87bcbc;fill-opacity:1.00" />
  <line x1="1763" y1="50.0" x2="1783" y2="50.0" style="stroke:#999; stroke-width:3;" />
  <line x1="1783" y1="50.0" x2="1783" y2="50.0" style="stroke:#999; stroke-width:3;" />
  <line x1="1783" y1="50.0" x2="1783" y2="50.0" style="stroke:#999; stroke-width:3;" />
  <line x1="1783" y1="50.0" x2="1803" y2="50.0" style="stroke:#999; stroke-width:3;" />
  <rect class="anc_exon" x="1803" y="35.0" width="52" height="30" style="fill:#87bcbc;fill-opacity:1.00" />
  <line x1="1855" y1="50.0" x2="1875" y2="50.0" style="stroke:#999; stroke-width:3;" />
  <line x1="1875" y1="50.0" x2="1875" y2="50.0" style="stroke:#999; stroke-width:3;" />
  <line x1="1875" y1="50.0" x2="1875" y2="50.0" style="stroke:#999; stroke-width:3;" />
  <line x1="1875" y1="50.0" x2="1895" y2="50.0" style="stroke:#999; stroke-width:3;" />
  <rect class="anc_exon" x="1895" y="35.0" width="95" height="30" style="fill:#87bcbc;fill-opacity:1.00" />
  <line x1="1990" y1="50.0" x2="2030" y2="50.0" style="stroke:#999; stroke-width:3;" />
  <rect class="anc_exon" x="2030" y="35.0" width="126" height="30" style="fill:#87bcbc;fill-opacity:1.00" />
  <line x1="2156" y1="50.0" x2="2176" y2="50.0" style="stroke:#999; stroke-width:3;" />
  <line x1="2176" y1="50.0" x2="2176" y2="50.0" style="stroke:#999; stroke-width:3;" />
  <line x1="2176" y1="50.0" x2="2176" y2="50.0" style="stroke:#999; stroke-width:3;" />
  <line x1="2176" y1="50.0" x2="2196" y2="50.0" style="stroke:#999; stroke-width:3;" />
  <rect class="anc_exon" x="2196" y="35.0" width="60" height="30" style="fill:#87bcbc;fill-opacity:1.00" />
  <rect class="anc_exon" x="2256" y="35.0" width="0" height="30" style="fill:#87bcbc;fill-opacity:1.00" />
  <text style="" >
<tspan x="0" y="83.0" style="font-size:18px;" >SP XM_012547097_3.1</tspan>  </text>



<script type="text/ecmascript">
<![CDATA[
function draw_bbox(text_id)
{
    var text_elem = document.getElementById(text_id);
    var offset_px = 2;
    var offset_py = 0;
    bbox = text_elem.getBBox();
    var box = document.createElementNS(document.rootElement.namespaceURI,'rect');
    box.setAttribute('x', bbox.x - offset_px);
    box.setAttribute('y', bbox.y - offset_py);
    box.setAttribute('width', bbox.width + offset_px * 2);
    box.setAttribute('height', bbox.height + offset_py * 2);
    box.setAttribute('style','fill: white;'+'stroke: black;'+'stroke-width: 1px;');
    text_elem.insertBefore(box,text_elem.childNodes[0]);

    var svg = text_elem.parentNode;
    svg.appendChild(text_elem);
}

for (var i=1; i < 1; i++)
{
draw_bbox("Mouseover" + i);
}
]]> 
</script>
</svg>
