<svg version="1.1"
xmlns="http://www.w3.org/2000/svg"
xmlns:xlink="http://www.w3.org/1999/xlink"
width="11759" height="100" viewBox = "0 0 11759 100"
onclick="mouseclick(evt)">

<script type="text/ecmascript">

<![CDATA[
    function mouseover(evt, target) { 
    var gv = document.getElementById("globalVariable");
    var previoustarget = gv.firstChild.nodeValue;
    if (previoustarget != "none") 
    {
        	document.getElementById(gv.firstChild.nodeValue).setAttributeNS(null, "visibility", "hidden");
    }
    document.getElementById(target).setAttributeNS(null, "visibility", "visible");
    gv.firstChild.nodeValue = target;
        }

    function mouseclick(evt) { 
    var gv = document.getElementById("globalVariable");
    var previoustarget = gv.firstChild.nodeValue;
    if (previoustarget != "none") {
        	document.getElementById(gv.firstChild.nodeValue).setAttributeNS(null, "visibility", "hidden");
        }
    }
]]>
  </script>
<style type="text/css" >

<![CDATA[
    rect.anc_exon {
              stroke-width:3;
                  }

    rect.non_anc_exon {
              stroke: black; stroke-width:3; stroke-dasharray: 5,5;
                    }

    text {
              font-size: 18px;
              font-family: Courier New;
          }
                    ]]>
</style>

<defs>
    <text x="150" y="40" id="globalVariable">none</text>
</defs>

  <rect class="anc_exon" x="0" y="35.0" width="0" height="30" style="fill:#87bcbc;fill-opacity:1.00" />
  <rect class="anc_exon" x="0" y="35.0" width="5.6000000000000005" height="30" style="fill:#87bcbc;fill-opacity:1.00" />
  <line x1="5.6000000000000005" y1="50.0" x2="24.6" y2="50.0" style="stroke:#999; stroke-width:3;" />
  <line x1="24.6" y1="50.0" x2="24.6" y2="50.0" style="stroke:#999; stroke-width:3;" />
  <line x1="24.6" y1="50.0" x2="24.6" y2="50.0" style="stroke:#999; stroke-width:3;" />
  <line x1="24.6" y1="50.0" x2="45.0" y2="50.0" style="stroke:#999; stroke-width:3;" />
  <rect class="anc_exon" x="45" y="35.0" width="49" height="30" style="fill:#87bcbc;fill-opacity:1.00" />
  <line x1="94" y1="50.0" x2="114" y2="50.0" style="stroke:#999; stroke-width:3;" />
  <line x1="114" y1="50.0" x2="114" y2="50.0" style="stroke:#999; stroke-width:3;" />
  <line x1="114" y1="50.0" x2="114" y2="50.0" style="stroke:#999; stroke-width:3;" />
  <line x1="114" y1="50.0" x2="134" y2="50.0" style="stroke:#999; stroke-width:3;" />
  <rect class="anc_exon" x="134" y="35.0" width="74" height="30" style="fill:#87bcbc;fill-opacity:1.00" />
  <line x1="208" y1="50.0" x2="228" y2="50.0" style="stroke:#999; stroke-width:3;" />
  <line x1="228" y1="50.0" x2="228" y2="50.0" style="stroke:#999; stroke-width:3;" />
  <line x1="228" y1="50.0" x2="228" y2="50.0" style="stroke:#999; stroke-width:3;" />
  <line x1="228" y1="50.0" x2="248" y2="50.0" style="stroke:#999; stroke-width:3;" />
  <rect class="anc_exon" x="248" y="35.0" width="62" height="30" style="fill:#87bcbc;fill-opacity:1.00" />
  <line x1="310" y1="50.0" x2="330" y2="50.0" style="stroke:#999; stroke-width:3;" />
  <line x1="330" y1="50.0" x2="330" y2="50.0" style="stroke:#999; stroke-width:3;" />
  <line x1="330" y1="50.0" x2="330" y2="50.0" style="stroke:#999; stroke-width:3;" />
  <line x1="330" y1="50.0" x2="350" y2="50.0" style="stroke:#999; stroke-width:3;" />
  <rect class="anc_exon" x="350" y="35.0" width="74" height="30" style="fill:#87bcbc;fill-opacity:1.00" />
  <line x1="424" y1="50.0" x2="444" y2="50.0" style="stroke:#999; stroke-width:3;" />
  <line x1="444" y1="50.0" x2="444" y2="50.0" style="stroke:#999; stroke-width:3;" />
  <line x1="444" y1="50.0" x2="444" y2="50.0" style="stroke:#999; stroke-width:3;" />
  <line x1="444" y1="50.0" x2="464" y2="50.0" style="stroke:#999; stroke-width:3;" />
  <rect class="anc_exon" x="464" y="35.0" width="138" height="30" style="fill:#87bcbc;fill-opacity:1.00" />
  <line x1="602" y1="50.0" x2="622" y2="50.0" style="stroke:#999; stroke-width:3;" />
  <line x1="622" y1="50.0" x2="622" y2="50.0" style="stroke:#999; stroke-width:3;" />
  <line x1="622" y1="50.0" x2="622" y2="50.0" style="stroke:#999; stroke-width:3;" />
  <line x1="622" y1="50.0" x2="642" y2="50.0" style="stroke:#999; stroke-width:3;" />
  <rect class="anc_exon" x="642" y="35.0" width="95" height="30" style="fill:#87bcbc;fill-opacity:1.00" />
  <line x1="737" y1="50.0" x2="757" y2="50.0" style="stroke:#999; stroke-width:3;" />
  <line x1="757" y1="50.0" x2="757" y2="50.0" style="stroke:#999; stroke-width:3;" />
  <line x1="757" y1="50.0" x2="757" y2="50.0" style="stroke:#999; stroke-width:3;" />
  <line x1="757" y1="50.0" x2="777" y2="50.0" style="stroke:#999; stroke-width:3;" />
  <rect class="anc_exon" x="777" y="35.0" width="145" height="30" style="fill:#87bcbc;fill-opacity:1.00" />
  <line x1="922" y1="50.0" x2="942" y2="50.0" style="stroke:#999; stroke-width:3;" />
  <line x1="942" y1="50.0" x2="942" y2="50.0" style="stroke:#999; stroke-width:3;" />
  <line x1="942" y1="50.0" x2="942" y2="50.0" style="stroke:#999; stroke-width:3;" />
  <line x1="942" y1="50.0" x2="962" y2="50.0" style="stroke:#999; stroke-width:3;" />
  <rect class="anc_exon" x="962" y="35.0" width="100" height="30" style="fill:#87bcbc;fill-opacity:1.00" />
  <line x1="1062" y1="50.0" x2="1082" y2="50.0" style="stroke:#999; stroke-width:3;" />
  <line x1="1082" y1="50.0" x2="1082" y2="50.0" style="stroke:#999; stroke-width:3;" />
  <line x1="1082" y1="50.0" x2="1082" y2="50.0" style="stroke:#999; stroke-width:3;" />
  <line x1="1082" y1="50.0" x2="1102" y2="50.0" style="stroke:#999; stroke-width:3;" />
  <rect class="anc_exon" x="1102" y="35.0" width="151" height="30" style="fill:#87bcbc;fill-opacity:1.00" />
  <line x1="1253" y1="50.0" x2="1293" y2="50.0" style="stroke:#999; stroke-width:3;" />
  <rect class="anc_exon" x="1293" y="35.0" width="145" height="30" style="fill:#87bcbc;fill-opacity:1.00" />
  <line x1="1438" y1="50.0" x2="1458" y2="50.0" style="stroke:#999; stroke-width:3;" />
  <line x1="1458" y1="50.0" x2="1458" y2="50.0" style="stroke:#999; stroke-width:3;" />
  <line x1="1458" y1="50.0" x2="1458" y2="50.0" style="stroke:#999; stroke-width:3;" />
  <line x1="1458" y1="50.0" x2="1478" y2="50.0" style="stroke:#999; stroke-width:3;" />
  <rect class="anc_exon" x="1478" y="35.0" width="120" height="30" style="fill:#87bcbc;fill-opacity:1.00" />
  <line x1="1598" y1="50.0" x2="1618" y2="50.0" style="stroke:#999; stroke-width:3;" />
  <line x1="1618" y1="50.0" x2="1618" y2="50.0" style="stroke:#999; stroke-width:3;" />
  <line x1="1618" y1="50.0" x2="1618" y2="50.0" style="stroke:#999; stroke-width:3;" />
  <line x1="1618" y1="50.0" x2="1638" y2="50.0" style="stroke:#999; stroke-width:3;" />
  <rect class="anc_exon" x="1638" y="35.0" width="96" height="30" style="fill:#87bcbc;fill-opacity:1.00" />
  <line x1="1734" y1="50.0" x2="1754" y2="50.0" style="stroke:#999; stroke-width:3;" />
  <line x1="1754" y1="50.0" x2="1754" y2="50.0" style="stroke:#999; stroke-width:3;" />
  <line x1="1754" y1="50.0" x2="1754" y2="50.0" style="stroke:#999; stroke-width:3;" />
  <line x1="1754" y1="50.0" x2="1774" y2="50.0" style="stroke:#999; stroke-width:3;" />
  <rect class="anc_exon" x="1774" y="35.0" width="81" height="30" style="fill:#87bcbc;fill-opacity:1.00" />
  <line x1="1855" y1="50.0" x2="1895" y2="50.0" style="stroke:#999; stroke-width:3;" />
  <rect class="anc_exon" x="1895" y="35.0" width="86" height="30" style="fill:#87bcbc;fill-opacity:1.00" />
  <line x1="1981" y1="50.0" x2="2001" y2="50.0" style="stroke:#999; stroke-width:3;" />
  <line x1="2001" y1="50.0" x2="2001" y2="50.0" style="stroke:#999; stroke-width:3;" />
  <line x1="2001" y1="50.0" x2="2001" y2="50.0" style="stroke:#999; stroke-width:3;" />
  <line x1="2001" y1="50.0" x2="2021" y2="50.0" style="stroke:#999; stroke-width:3;" />
  <rect class="anc_exon" x="2021" y="35.0" width="144" height="30" style="fill:#87bcbc;fill-opacity:1.00" />
  <line x1="2165" y1="50.0" x2="2185" y2="50.0" style="stroke:#999; stroke-width:3;" />
  <line x1="2185" y1="50.0" x2="2185" y2="50.0" style="stroke:#999; stroke-width:3;" />
  <line x1="2185" y1="50.0" x2="2185" y2="50.0" style="stroke:#999; stroke-width:3;" />
  <line x1="2185" y1="50.0" x2="2205" y2="50.0" style="stroke:#999; stroke-width:3;" />
  <rect class="anc_exon" x="2205" y="35.0" width="140" height="30" style="fill:#87bcbc;fill-opacity:1.00" />
  <line x1="2345" y1="50.0" x2="2365" y2="50.0" style="stroke:#999; stroke-width:3;" />
  <line x1="2365" y1="50.0" x2="2365" y2="50.0" style="stroke:#999; stroke-width:3;" />
  <line x1="2365" y1="50.0" x2="2365" y2="50.0" style="stroke:#999; stroke-width:3;" />
  <line x1="2365" y1="50.0" x2="2385" y2="50.0" style="stroke:#999; stroke-width:3;" />
  <rect class="anc_exon" x="2385" y="35.0" width="99" height="30" style="fill:#87bcbc;fill-opacity:1.00" />
  <line x1="2484" y1="50.0" x2="2504" y2="50.0" style="stroke:#999; stroke-width:3;" />
  <line x1="2504" y1="50.0" x2="2504" y2="50.0" style="stroke:#999; stroke-width:3;" />
  <line x1="2504" y1="50.0" x2="2504" y2="50.0" style="stroke:#999; stroke-width:3;" />
  <line x1="2504" y1="50.0" x2="2524" y2="50.0" style="stroke:#999; stroke-width:3;" />
  <rect class="anc_exon" x="2524" y="35.0" width="70" height="30" style="fill:#87bcbc;fill-opacity:1.00" />
  <line x1="2594" y1="50.0" x2="2614" y2="50.0" style="stroke:#999; stroke-width:3;" />
  <line x1="2614" y1="50.0" x2="2614" y2="50.0" style="stroke:#999; stroke-width:3;" />
  <line x1="2614" y1="50.0" x2="2614" y2="50.0" style="stroke:#999; stroke-width:3;" />
  <line x1="2614" y1="50.0" x2="2634" y2="50.0" style="stroke:#999; stroke-width:3;" />
  <rect class="anc_exon" x="2634" y="35.0" width="193" height="30" style="fill:#87bcbc;fill-opacity:1.00" />
  <line x1="2827" y1="50.0" x2="2847" y2="50.0" style="stroke:#999; stroke-width:3;" />
  <line x1="2847" y1="50.0" x2="2847" y2="50.0" style="stroke:#999; stroke-width:3;" />
  <line x1="2847" y1="50.0" x2="2847" y2="50.0" style="stroke:#999; stroke-width:3;" />
  <line x1="2847" y1="50.0" x2="2867" y2="50.0" style="stroke:#999; stroke-width:3;" />
  <rect class="anc_exon" x="2867" y="35.0" width="144" height="30" style="fill:#87bcbc;fill-opacity:1.00" />
  <line x1="3011" y1="50.0" x2="3031" y2="50.0" style="stroke:#999; stroke-width:3;" />
  <line x1="3031" y1="50.0" x2="3031" y2="50.0" style="stroke:#999; stroke-width:3;" />
  <line x1="3031" y1="50.0" x2="3031" y2="50.0" style="stroke:#999; stroke-width:3;" />
  <line x1="3031" y1="50.0" x2="3051" y2="50.0" style="stroke:#999; stroke-width:3;" />
  <rect class="anc_exon" x="3051" y="35.0" width="116" height="30" style="fill:#87bcbc;fill-opacity:1.00" />
  <line x1="3167" y1="50.0" x2="3207" y2="50.0" style="stroke:#999; stroke-width:3;" />
  <rect class="anc_exon" x="3207" y="35.0" width="170" height="30" style="fill:#87bcbc;fill-opacity:1.00" />
  <line x1="3377" y1="50.0" x2="3397" y2="50.0" style="stroke:#999; stroke-width:3;" />
  <line x1="3397" y1="50.0" x2="3397" y2="50.0" style="stroke:#999; stroke-width:3;" />
  <line x1="3397" y1="50.0" x2="3397" y2="50.0" style="stroke:#999; stroke-width:3;" />
  <line x1="3397" y1="50.0" x2="3417" y2="50.0" style="stroke:#999; stroke-width:3;" />
  <rect class="anc_exon" x="3417" y="35.0" width="91" height="30" style="fill:#87bcbc;fill-opacity:1.00" />
  <line x1="3508" y1="50.0" x2="3528" y2="50.0" style="stroke:#999; stroke-width:3;" />
  <line x1="3528" y1="50.0" x2="3528" y2="50.0" style="stroke:#999; stroke-width:3;" />
  <line x1="3528" y1="50.0" x2="3528" y2="50.0" style="stroke:#999; stroke-width:3;" />
  <line x1="3528" y1="50.0" x2="3548" y2="50.0" style="stroke:#999; stroke-width:3;" />
  <rect class="anc_exon" x="3548" y="35.0" width="124" height="30" style="fill:#87bcbc;fill-opacity:1.00" />
  <line x1="3672" y1="50.0" x2="3692" y2="50.0" style="stroke:#999; stroke-width:3;" />
  <line x1="3692" y1="50.0" x2="3692" y2="50.0" style="stroke:#999; stroke-width:3;" />
  <line x1="3692" y1="50.0" x2="3692" y2="50.0" style="stroke:#999; stroke-width:3;" />
  <line x1="3692" y1="50.0" x2="3712" y2="50.0" style="stroke:#999; stroke-width:3;" />
  <rect class="anc_exon" x="3712" y="35.0" width="136" height="30" style="fill:#87bcbc;fill-opacity:1.00" />
  <line x1="3848" y1="50.0" x2="3888" y2="50.0" style="stroke:#999; stroke-width:3;" />
  <rect class="anc_exon" x="3888" y="35.0" width="146" height="30" style="fill:#87bcbc;fill-opacity:1.00" />
  <line x1="4034" y1="50.0" x2="4054" y2="50.0" style="stroke:#999; stroke-width:3;" />
  <line x1="4054" y1="50.0" x2="4054" y2="50.0" style="stroke:#999; stroke-width:3;" />
  <line x1="4054" y1="50.0" x2="4054" y2="50.0" style="stroke:#999; stroke-width:3;" />
  <line x1="4054" y1="50.0" x2="4074" y2="50.0" style="stroke:#999; stroke-width:3;" />
  <rect class="anc_exon" x="4074" y="35.0" width="108" height="30" style="fill:#87bcbc;fill-opacity:1.00" />
  <line x1="4182" y1="50.0" x2="4202" y2="50.0" style="stroke:#999; stroke-width:3;" />
  <line x1="4202" y1="50.0" x2="4202" y2="50.0" style="stroke:#999; stroke-width:3;" />
  <line x1="4202" y1="50.0" x2="4202" y2="50.0" style="stroke:#999; stroke-width:3;" />
  <line x1="4202" y1="50.0" x2="4222" y2="50.0" style="stroke:#999; stroke-width:3;" />
  <rect class="anc_exon" x="4222" y="35.0" width="120" height="30" style="fill:#87bcbc;fill-opacity:1.00" />
  <line x1="4342" y1="50.0" x2="4362" y2="50.0" style="stroke:#999; stroke-width:3;" />
  <line x1="4362" y1="50.0" x2="4362" y2="50.0" style="stroke:#999; stroke-width:3;" />
  <line x1="4362" y1="50.0" x2="4362" y2="50.0" style="stroke:#999; stroke-width:3;" />
  <line x1="4362" y1="50.0" x2="4382" y2="50.0" style="stroke:#999; stroke-width:3;" />
  <rect class="anc_exon" x="4382" y="35.0" width="129" height="30" style="fill:#87bcbc;fill-opacity:1.00" />
  <line x1="4511" y1="50.0" x2="4531" y2="50.0" style="stroke:#999; stroke-width:3;" />
  <line x1="4531" y1="50.0" x2="4531" y2="50.0" style="stroke:#999; stroke-width:3;" />
  <line x1="4531" y1="50.0" x2="4531" y2="50.0" style="stroke:#999; stroke-width:3;" />
  <line x1="4531" y1="50.0" x2="4551" y2="50.0" style="stroke:#999; stroke-width:3;" />
  <rect class="anc_exon" x="4551" y="35.0" width="88" height="30" style="fill:#87bcbc;fill-opacity:1.00" />
  <line x1="4639" y1="50.0" x2="4659" y2="50.0" style="stroke:#999; stroke-width:3;" />
  <line x1="4659" y1="50.0" x2="4659" y2="50.0" style="stroke:#999; stroke-width:3;" />
  <line x1="4659" y1="50.0" x2="4659" y2="50.0" style="stroke:#999; stroke-width:3;" />
  <line x1="4659" y1="50.0" x2="4679" y2="50.0" style="stroke:#999; stroke-width:3;" />
  <rect class="anc_exon" x="4679" y="35.0" width="139" height="30" style="fill:#87bcbc;fill-opacity:1.00" />
  <line x1="4818" y1="50.0" x2="4838" y2="50.0" style="stroke:#999; stroke-width:3;" />
  <line x1="4838" y1="50.0" x2="4838" y2="50.0" style="stroke:#999; stroke-width:3;" />
  <line x1="4838" y1="50.0" x2="4838" y2="50.0" style="stroke:#999; stroke-width:3;" />
  <line x1="4838" y1="50.0" x2="4858" y2="50.0" style="stroke:#999; stroke-width:3;" />
  <rect class="anc_exon" x="4858" y="35.0" width="124" height="30" style="fill:#87bcbc;fill-opacity:1.00" />
  <line x1="4982" y1="50.0" x2="5002" y2="50.0" style="stroke:#999; stroke-width:3;" />
  <line x1="5002" y1="50.0" x2="5002" y2="50.0" style="stroke:#999; stroke-width:3;" />
  <line x1="5002" y1="50.0" x2="5002" y2="50.0" style="stroke:#999; stroke-width:3;" />
  <line x1="5002" y1="50.0" x2="5022" y2="50.0" style="stroke:#999; stroke-width:3;" />
  <rect class="anc_exon" x="5022" y="35.0" width="136" height="30" style="fill:#87bcbc;fill-opacity:1.00" />
  <line x1="5158" y1="50.0" x2="5178" y2="50.0" style="stroke:#999; stroke-width:3;" />
  <line x1="5178" y1="50.0" x2="5178" y2="50.0" style="stroke:#999; stroke-width:3;" />
  <line x1="5178" y1="50.0" x2="5178" y2="50.0" style="stroke:#999; stroke-width:3;" />
  <line x1="5178" y1="50.0" x2="5198" y2="50.0" style="stroke:#999; stroke-width:3;" />
  <rect class="anc_exon" x="5198" y="35.0" width="144" height="30" style="fill:#87bcbc;fill-opacity:1.00" />
  <line x1="5342" y1="50.0" x2="5382" y2="50.0" style="stroke:#999; stroke-width:3;" />
  <rect class="anc_exon" x="5382" y="35.0" width="103" height="30" style="fill:#87bcbc;fill-opacity:1.00" />
  <line x1="5485" y1="50.0" x2="5505" y2="50.0" style="stroke:#999; stroke-width:3;" />
  <line x1="5505" y1="50.0" x2="5505" y2="50.0" style="stroke:#999; stroke-width:3;" />
  <line x1="5505" y1="50.0" x2="5505" y2="50.0" style="stroke:#999; stroke-width:3;" />
  <line x1="5505" y1="50.0" x2="5525" y2="50.0" style="stroke:#999; stroke-width:3;" />
  <rect class="anc_exon" x="5525" y="35.0" width="98" height="30" style="fill:#87bcbc;fill-opacity:1.00" />
  <line x1="5623" y1="50.0" x2="5643" y2="50.0" style="stroke:#999; stroke-width:3;" />
  <line x1="5643" y1="50.0" x2="5643" y2="50.0" style="stroke:#999; stroke-width:3;" />
  <line x1="5643" y1="50.0" x2="5643" y2="50.0" style="stroke:#999; stroke-width:3;" />
  <line x1="5643" y1="50.0" x2="5663" y2="50.0" style="stroke:#999; stroke-width:3;" />
  <rect class="anc_exon" x="5663" y="35.0" width="110" height="30" style="fill:#87bcbc;fill-opacity:1.00" />
  <line x1="5773" y1="50.0" x2="5793" y2="50.0" style="stroke:#999; stroke-width:3;" />
  <line x1="5793" y1="50.0" x2="5793" y2="50.0" style="stroke:#999; stroke-width:3;" />
  <line x1="5793" y1="50.0" x2="5793" y2="50.0" style="stroke:#999; stroke-width:3;" />
  <line x1="5793" y1="50.0" x2="5813" y2="50.0" style="stroke:#999; stroke-width:3;" />
  <rect class="anc_exon" x="5813" y="35.0" width="122" height="30" style="fill:#87bcbc;fill-opacity:1.00" />
  <line x1="5935" y1="50.0" x2="5975" y2="50.0" style="stroke:#999; stroke-width:3;" />
  <rect class="anc_exon" x="5975" y="35.0" width="146" height="30" style="fill:#87bcbc;fill-opacity:1.00" />
  <line x1="6121" y1="50.0" x2="6141" y2="50.0" style="stroke:#999; stroke-width:3;" />
  <line x1="6141" y1="50.0" x2="6141" y2="50.0" style="stroke:#999; stroke-width:3;" />
  <line x1="6141" y1="50.0" x2="6141" y2="50.0" style="stroke:#999; stroke-width:3;" />
  <line x1="6141" y1="50.0" x2="6161" y2="50.0" style="stroke:#999; stroke-width:3;" />
  <rect class="anc_exon" x="6161" y="35.0" width="156" height="30" style="fill:#87bcbc;fill-opacity:1.00" />
  <line x1="6317" y1="50.0" x2="6337" y2="50.0" style="stroke:#999; stroke-width:3;" />
  <line x1="6337" y1="50.0" x2="6337" y2="50.0" style="stroke:#999; stroke-width:3;" />
  <line x1="6337" y1="50.0" x2="6337" y2="50.0" style="stroke:#999; stroke-width:3;" />
  <line x1="6337" y1="50.0" x2="6357" y2="50.0" style="stroke:#999; stroke-width:3;" />
  <rect class="anc_exon" x="6357" y="35.0" width="138" height="30" style="fill:#87bcbc;fill-opacity:1.00" />
  <line x1="6495" y1="50.0" x2="6515" y2="50.0" style="stroke:#999; stroke-width:3;" />
  <line x1="6515" y1="50.0" x2="6515" y2="50.0" style="stroke:#999; stroke-width:3;" />
  <line x1="6515" y1="50.0" x2="6515" y2="50.0" style="stroke:#999; stroke-width:3;" />
  <line x1="6515" y1="50.0" x2="6535" y2="50.0" style="stroke:#999; stroke-width:3;" />
  <rect class="anc_exon" x="6535" y="35.0" width="118" height="30" style="fill:#87bcbc;fill-opacity:1.00" />
  <line x1="6653" y1="50.0" x2="6673" y2="50.0" style="stroke:#999; stroke-width:3;" />
  <line x1="6673" y1="50.0" x2="6673" y2="50.0" style="stroke:#999; stroke-width:3;" />
  <line x1="6673" y1="50.0" x2="6673" y2="50.0" style="stroke:#999; stroke-width:3;" />
  <line x1="6673" y1="50.0" x2="6693" y2="50.0" style="stroke:#999; stroke-width:3;" />
  <rect class="anc_exon" x="6693" y="35.0" width="140" height="30" style="fill:#87bcbc;fill-opacity:1.00" />
  <line x1="6833" y1="50.0" x2="6853" y2="50.0" style="stroke:#999; stroke-width:3;" />
  <line x1="6853" y1="50.0" x2="6853" y2="50.0" style="stroke:#999; stroke-width:3;" />
  <line x1="6853" y1="50.0" x2="6853" y2="50.0" style="stroke:#999; stroke-width:3;" />
  <line x1="6853" y1="50.0" x2="6873" y2="50.0" style="stroke:#999; stroke-width:3;" />
  <rect class="anc_exon" x="6873" y="35.0" width="118" height="30" style="fill:#87bcbc;fill-opacity:1.00" />
  <line x1="6991" y1="50.0" x2="7011" y2="50.0" style="stroke:#999; stroke-width:3;" />
  <line x1="7011" y1="50.0" x2="7011" y2="50.0" style="stroke:#999; stroke-width:3;" />
  <line x1="7011" y1="50.0" x2="7011" y2="50.0" style="stroke:#999; stroke-width:3;" />
  <line x1="7011" y1="50.0" x2="7031" y2="50.0" style="stroke:#999; stroke-width:3;" />
  <rect class="anc_exon" x="7031" y="35.0" width="120" height="30" style="fill:#87bcbc;fill-opacity:1.00" />
  <line x1="7151" y1="50.0" x2="7171" y2="50.0" style="stroke:#999; stroke-width:3;" />
  <line x1="7171" y1="50.0" x2="7171" y2="50.0" style="stroke:#999; stroke-width:3;" />
  <line x1="7171" y1="50.0" x2="7171" y2="50.0" style="stroke:#999; stroke-width:3;" />
  <line x1="7171" y1="50.0" x2="7191" y2="50.0" style="stroke:#999; stroke-width:3;" />
  <rect class="anc_exon" x="7191" y="35.0" width="132" height="30" style="fill:#87bcbc;fill-opacity:1.00" />
  <line x1="7323" y1="50.0" x2="7343" y2="50.0" style="stroke:#999; stroke-width:3;" />
  <line x1="7343" y1="50.0" x2="7343" y2="50.0" style="stroke:#999; stroke-width:3;" />
  <line x1="7343" y1="50.0" x2="7343" y2="50.0" style="stroke:#999; stroke-width:3;" />
  <line x1="7343" y1="50.0" x2="7363" y2="50.0" style="stroke:#999; stroke-width:3;" />
  <rect class="anc_exon" x="7363" y="35.0" width="81" height="30" style="fill:#87bcbc;fill-opacity:1.00" />
  <line x1="7444" y1="50.0" x2="7464" y2="50.0" style="stroke:#999; stroke-width:3;" />
  <line x1="7464" y1="50.0" x2="7464" y2="50.0" style="stroke:#999; stroke-width:3;" />
  <line x1="7464" y1="50.0" x2="7464" y2="50.0" style="stroke:#999; stroke-width:3;" />
  <line x1="7464" y1="50.0" x2="7484" y2="50.0" style="stroke:#999; stroke-width:3;" />
  <rect class="anc_exon" x="7484" y="35.0" width="87" height="30" style="fill:#87bcbc;fill-opacity:1.00" />
  <line x1="7571" y1="50.0" x2="7591" y2="50.0" style="stroke:#999; stroke-width:3;" />
  <line x1="7591" y1="50.0" x2="7591" y2="50.0" style="stroke:#999; stroke-width:3;" />
  <line x1="7591" y1="50.0" x2="7591" y2="50.0" style="stroke:#999; stroke-width:3;" />
  <line x1="7591" y1="50.0" x2="7611" y2="50.0" style="stroke:#999; stroke-width:3;" />
  <rect class="anc_exon" x="7611" y="35.0" width="186" height="30" style="fill:#87bcbc;fill-opacity:1.00" />
  <line x1="7797" y1="50.0" x2="7817" y2="50.0" style="stroke:#999; stroke-width:3;" />
  <line x1="7817" y1="50.0" x2="7817" y2="50.0" style="stroke:#999; stroke-width:3;" />
  <line x1="7817" y1="50.0" x2="7817" y2="50.0" style="stroke:#999; stroke-width:3;" />
  <line x1="7817" y1="50.0" x2="7837" y2="50.0" style="stroke:#999; stroke-width:3;" />
  <rect class="anc_exon" x="7837" y="35.0" width="94" height="30" style="fill:#87bcbc;fill-opacity:1.00" />
  <line x1="7931" y1="50.0" x2="7951" y2="50.0" style="stroke:#999; stroke-width:3;" />
  <line x1="7951" y1="50.0" x2="7951" y2="50.0" style="stroke:#999; stroke-width:3;" />
  <line x1="7951" y1="50.0" x2="7951" y2="50.0" style="stroke:#999; stroke-width:3;" />
  <line x1="7951" y1="50.0" x2="7971" y2="50.0" style="stroke:#999; stroke-width:3;" />
  <rect class="anc_exon" x="7971" y="35.0" width="169" height="30" style="fill:#87bcbc;fill-opacity:1.00" />
  <line x1="8140" y1="50.0" x2="8160" y2="50.0" style="stroke:#999; stroke-width:3;" />
  <line x1="8160" y1="50.0" x2="8160" y2="50.0" style="stroke:#999; stroke-width:3;" />
  <line x1="8160" y1="50.0" x2="8160" y2="50.0" style="stroke:#999; stroke-width:3;" />
  <line x1="8160" y1="50.0" x2="8180" y2="50.0" style="stroke:#999; stroke-width:3;" />
  <rect class="anc_exon" x="8180" y="35.0" width="124" height="30" style="fill:#878787;fill-opacity:1.00" />
  <line x1="8304" y1="50.0" x2="8324" y2="50.0" style="stroke:#999; stroke-width:3;" />
  <line x1="8324" y1="50.0" x2="8324" y2="50.0" style="stroke:#999; stroke-width:3;" />
  <line x1="8324" y1="50.0" x2="8324" y2="50.0" style="stroke:#999; stroke-width:3;" />
  <line x1="8324" y1="50.0" x2="8344" y2="50.0" style="stroke:#999; stroke-width:3;" />
  <rect class="anc_exon" x="8344" y="35.0" width="152" height="30" style="fill:#87bcbc;fill-opacity:1.00" />
  <line x1="8496" y1="50.0" x2="8516" y2="50.0" style="stroke:#999; stroke-width:3;" />
  <line x1="8516" y1="50.0" x2="8516" y2="50.0" style="stroke:#999; stroke-width:3;" />
  <line x1="8516" y1="50.0" x2="8516" y2="50.0" style="stroke:#999; stroke-width:3;" />
  <line x1="8516" y1="50.0" x2="8536" y2="50.0" style="stroke:#999; stroke-width:3;" />
  <rect class="anc_exon" x="8536" y="35.0" width="138" height="30" style="fill:#87bcbc;fill-opacity:1.00" />
  <line x1="8674" y1="50.0" x2="8694" y2="50.0" style="stroke:#999; stroke-width:3;" />
  <line x1="8694" y1="50.0" x2="8694" y2="50.0" style="stroke:#999; stroke-width:3;" />
  <line x1="8694" y1="50.0" x2="8694" y2="50.0" style="stroke:#999; stroke-width:3;" />
  <line x1="8694" y1="50.0" x2="8714" y2="50.0" style="stroke:#999; stroke-width:3;" />
  <rect class="anc_exon" x="8714" y="35.0" width="125" height="30" style="fill:#87bcbc;fill-opacity:1.00" />
  <line x1="8839" y1="50.0" x2="8859" y2="50.0" style="stroke:#999; stroke-width:3;" />
  <line x1="8859" y1="50.0" x2="8859" y2="50.0" style="stroke:#999; stroke-width:3;" />
  <line x1="8859" y1="50.0" x2="8859" y2="50.0" style="stroke:#999; stroke-width:3;" />
  <line x1="8859" y1="50.0" x2="8879" y2="50.0" style="stroke:#999; stroke-width:3;" />
  <rect class="anc_exon" x="8879" y="35.0" width="96" height="30" style="fill:#87bcbc;fill-opacity:1.00" />
  <line x1="8975" y1="50.0" x2="9015" y2="50.0" style="stroke:#999; stroke-width:3;" />
  <rect class="anc_exon" x="9015" y="35.0" width="215" height="30" style="fill:#87bcbc;fill-opacity:1.00" />
  <line x1="9230" y1="50.0" x2="9250" y2="50.0" style="stroke:#999; stroke-width:3;" />
  <line x1="9250" y1="50.0" x2="9250" y2="50.0" style="stroke:#999; stroke-width:3;" />
  <line x1="9250" y1="50.0" x2="9250" y2="50.0" style="stroke:#999; stroke-width:3;" />
  <line x1="9250" y1="50.0" x2="9270" y2="50.0" style="stroke:#999; stroke-width:3;" />
  <rect class="anc_exon" x="9270" y="35.0" width="117" height="30" style="fill:#87bcbc;fill-opacity:1.00" />
  <line x1="9387" y1="50.0" x2="9407" y2="50.0" style="stroke:#999; stroke-width:3;" />
  <line x1="9407" y1="50.0" x2="9407" y2="50.0" style="stroke:#999; stroke-width:3;" />
  <line x1="9407" y1="50.0" x2="9407" y2="50.0" style="stroke:#999; stroke-width:3;" />
  <line x1="9407" y1="50.0" x2="9427" y2="50.0" style="stroke:#999; stroke-width:3;" />
  <rect class="anc_exon" x="9427" y="35.0" width="63" height="30" style="fill:#87bcbc;fill-opacity:1.00" />
  <line x1="9490" y1="50.0" x2="9510" y2="50.0" style="stroke:#999; stroke-width:3;" />
  <line x1="9510" y1="50.0" x2="9510" y2="50.0" style="stroke:#999; stroke-width:3;" />
  <line x1="9510" y1="50.0" x2="9510" y2="50.0" style="stroke:#999; stroke-width:3;" />
  <line x1="9510" y1="50.0" x2="9530" y2="50.0" style="stroke:#999; stroke-width:3;" />
  <rect class="anc_exon" x="9530" y="35.0" width="48" height="30" style="fill:#87bcbc;fill-opacity:1.00" />
  <line x1="9578" y1="50.0" x2="9598" y2="50.0" style="stroke:#999; stroke-width:3;" />
  <line x1="9598" y1="50.0" x2="9598" y2="50.0" style="stroke:#999; stroke-width:3;" />
  <line x1="9598" y1="50.0" x2="9598" y2="50.0" style="stroke:#999; stroke-width:3;" />
  <line x1="9598" y1="50.0" x2="9618" y2="50.0" style="stroke:#999; stroke-width:3;" />
  <rect class="anc_exon" x="9618" y="35.0" width="49" height="30" style="fill:#87bcbc;fill-opacity:1.00" />
  <line x1="9667" y1="50.0" x2="9687" y2="50.0" style="stroke:#999; stroke-width:3;" />
  <line x1="9687" y1="50.0" x2="9687" y2="50.0" style="stroke:#999; stroke-width:3;" />
  <line x1="9687" y1="50.0" x2="9687" y2="50.0" style="stroke:#999; stroke-width:3;" />
  <line x1="9687" y1="50.0" x2="9707" y2="50.0" style="stroke:#999; stroke-width:3;" />
  <rect class="anc_exon" x="9707" y="35.0" width="60" height="30" style="fill:#87bcbc;fill-opacity:1.00" />
  <line x1="9767" y1="50.0" x2="9787" y2="50.0" style="stroke:#999; stroke-width:3;" />
  <line x1="9787" y1="50.0" x2="9787" y2="50.0" style="stroke:#999; stroke-width:3;" />
  <line x1="9787" y1="50.0" x2="9787" y2="50.0" style="stroke:#999; stroke-width:3;" />
  <line x1="9787" y1="50.0" x2="9807" y2="50.0" style="stroke:#999; stroke-width:3;" />
  <rect class="anc_exon" x="9807" y="35.0" width="161" height="30" style="fill:#87bcbc;fill-opacity:1.00" />
  <line x1="9968" y1="50.0" x2="9988" y2="50.0" style="stroke:#999; stroke-width:3;" />
  <line x1="9988" y1="50.0" x2="9988" y2="50.0" style="stroke:#999; stroke-width:3;" />
  <line x1="9988" y1="50.0" x2="9988" y2="50.0" style="stroke:#999; stroke-width:3;" />
  <line x1="9988" y1="50.0" x2="10008" y2="50.0" style="stroke:#999; stroke-width:3;" />
  <rect class="anc_exon" x="10008" y="35.0" width="68" height="30" style="fill:#87bcbc;fill-opacity:1.00" />
  <line x1="10076" y1="50.0" x2="10096" y2="50.0" style="stroke:#999; stroke-width:3;" />
  <line x1="10096" y1="50.0" x2="10096" y2="50.0" style="stroke:#999; stroke-width:3;" />
  <line x1="10096" y1="50.0" x2="10096" y2="50.0" style="stroke:#999; stroke-width:3;" />
  <line x1="10096" y1="50.0" x2="10116" y2="50.0" style="stroke:#999; stroke-width:3;" />
  <rect class="anc_exon" x="10116" y="35.0" width="126" height="30" style="fill:#87bcbc;fill-opacity:1.00" />
  <line x1="10242" y1="50.0" x2="10262" y2="50.0" style="stroke:#999; stroke-width:3;" />
  <line x1="10262" y1="50.0" x2="10262" y2="50.0" style="stroke:#999; stroke-width:3;" />
  <line x1="10262" y1="50.0" x2="10262" y2="50.0" style="stroke:#999; stroke-width:3;" />
  <line x1="10262" y1="50.0" x2="10282" y2="50.0" style="stroke:#999; stroke-width:3;" />
  <rect class="anc_exon" x="10282" y="35.0" width="133" height="30" style="fill:#87bcbc;fill-opacity:1.00" />
  <line x1="10415" y1="50.0" x2="10435" y2="50.0" style="stroke:#999; stroke-width:3;" />
  <line x1="10435" y1="50.0" x2="10435" y2="50.0" style="stroke:#999; stroke-width:3;" />
  <line x1="10435" y1="50.0" x2="10435" y2="50.0" style="stroke:#999; stroke-width:3;" />
  <line x1="10435" y1="50.0" x2="10455" y2="50.0" style="stroke:#999; stroke-width:3;" />
  <rect class="anc_exon" x="10455" y="35.0" width="89" height="30" style="fill:#87bcbc;fill-opacity:1.00" />
  <line x1="10544" y1="50.0" x2="10584" y2="50.0" style="stroke:#999; stroke-width:3;" />
  <rect class="anc_exon" x="10584" y="35.0" width="109" height="30" style="fill:#87bcbc;fill-opacity:1.00" />
  <line x1="10693" y1="50.0" x2="10733" y2="50.0" style="stroke:#999; stroke-width:3;" />
  <rect class="anc_exon" x="10733" y="35.0" width="31" height="30" style="fill:#87bcbc;fill-opacity:1.00" />
  <line x1="10764" y1="50.0" x2="10784" y2="50.0" style="stroke:#999; stroke-width:3;" />
  <line x1="10784" y1="50.0" x2="10784" y2="50.0" style="stroke:#999; stroke-width:3;" />
  <line x1="10784" y1="50.0" x2="10784" y2="50.0" style="stroke:#999; stroke-width:3;" />
  <line x1="10784" y1="50.0" x2="10804" y2="50.0" style="stroke:#999; stroke-width:3;" />
  <rect class="anc_exon" x="10804" y="35.0" width="52" height="30" style="fill:#87bcbc;fill-opacity:1.00" />
  <line x1="10856" y1="50.0" x2="10896" y2="50.0" style="stroke:#999; stroke-width:3;" />
  <rect class="anc_exon" x="10896" y="35.0" width="52" height="30" style="fill:#87bcbc;fill-opacity:1.00" />
  <line x1="10948" y1="50.0" x2="10968" y2="50.0" style="stroke:#999; stroke-width:3;" />
  <line x1="10968" y1="50.0" x2="10968" y2="50.0" style="stroke:#999; stroke-width:3;" />
  <line x1="10968" y1="50.0" x2="10968" y2="50.0" style="stroke:#999; stroke-width:3;" />
  <line x1="10968" y1="50.0" x2="10988" y2="50.0" style="stroke:#999; stroke-width:3;" />
  <rect class="anc_exon" x="10988" y="35.0" width="127" height="30" style="fill:#87bcbc;fill-opacity:1.00" />
  <line x1="11115" y1="50.0" x2="11135" y2="50.0" style="stroke:#999; stroke-width:3;" />
  <line x1="11135" y1="50.0" x2="11135" y2="50.0" style="stroke:#999; stroke-width:3;" />
  <line x1="11135" y1="50.0" x2="11135" y2="50.0" style="stroke:#999; stroke-width:3;" />
  <line x1="11135" y1="50.0" x2="11155" y2="50.0" style="stroke:#999; stroke-width:3;" />
  <rect class="anc_exon" x="11155" y="35.0" width="195" height="30" style="fill:#87bcbc;fill-opacity:1.00" />
  <line x1="11350" y1="50.0" x2="11390" y2="50.0" style="stroke:#999; stroke-width:3;" />
  <rect class="anc_exon" x="11390" y="35.0" width="99" height="30" style="fill:#87bcbc;fill-opacity:1.00" />
  <line x1="11489" y1="50.0" x2="11509" y2="50.0" style="stroke:#999; stroke-width:3;" />
  <line x1="11509" y1="50.0" x2="11509" y2="50.0" style="stroke:#999; stroke-width:3;" />
  <line x1="11509" y1="50.0" x2="11509" y2="50.0" style="stroke:#999; stroke-width:3;" />
  <line x1="11509" y1="50.0" x2="11529" y2="50.0" style="stroke:#999; stroke-width:3;" />
  <rect class="anc_exon" x="11529" y="35.0" width="76" height="30" style="fill:#87bcbc;fill-opacity:1.00" />
  <line x1="11605" y1="50.0" x2="11625" y2="50.0" style="stroke:#999; stroke-width:3;" />
  <line x1="11625" y1="50.0" x2="11625" y2="50.0" style="stroke:#999; stroke-width:3;" />
  <line x1="11625" y1="50.0" x2="11625" y2="50.0" style="stroke:#999; stroke-width:3;" />
  <line x1="11625" y1="50.0" x2="11645" y2="50.0" style="stroke:#999; stroke-width:3;" />
  <rect class="anc_exon" x="11645" y="35.0" width="78" height="30" style="fill:#87bcbc;fill-opacity:1.00" />
  <rect class="anc_exon" x="11723" y="35.0" width="0" height="30" style="fill:#87bcbc;fill-opacity:1.00" />
  <text style="" >
<tspan x="0" y="83.0" style="font-size:18px;" >SP XM_031963636_1.1</tspan>  </text>



<script type="text/ecmascript">
<![CDATA[
function draw_bbox(text_id)
{
    var text_elem = document.getElementById(text_id);
    var offset_px = 2;
    var offset_py = 0;
    bbox = text_elem.getBBox();
    var box = document.createElementNS(document.rootElement.namespaceURI,'rect');
    box.setAttribute('x', bbox.x - offset_px);
    box.setAttribute('y', bbox.y - offset_py);
    box.setAttribute('width', bbox.width + offset_px * 2);
    box.setAttribute('height', bbox.height + offset_py * 2);
    box.setAttribute('style','fill: white;'+'stroke: black;'+'stroke-width: 1px;');
    text_elem.insertBefore(box,text_elem.childNodes[0]);

    var svg = text_elem.parentNode;
    svg.appendChild(text_elem);
}

for (var i=1; i < 1; i++)
{
draw_bbox("Mouseover" + i);
}
]]> 
</script>
</svg>
