<svg version="1.1"
xmlns="http://www.w3.org/2000/svg"
xmlns:xlink="http://www.w3.org/1999/xlink"
width="3463" height="100" viewBox = "0 0 3463 100"
onclick="mouseclick(evt)">

<script type="text/ecmascript">

<![CDATA[
    function mouseover(evt, target) { 
    var gv = document.getElementById("globalVariable");
    var previoustarget = gv.firstChild.nodeValue;
    if (previoustarget != "none") 
    {
        	document.getElementById(gv.firstChild.nodeValue).setAttributeNS(null, "visibility", "hidden");
    }
    document.getElementById(target).setAttributeNS(null, "visibility", "visible");
    gv.firstChild.nodeValue = target;
        }

    function mouseclick(evt) { 
    var gv = document.getElementById("globalVariable");
    var previoustarget = gv.firstChild.nodeValue;
    if (previoustarget != "none") {
        	document.getElementById(gv.firstChild.nodeValue).setAttributeNS(null, "visibility", "hidden");
        }
    }
]]>
  </script>
<style type="text/css" >

<![CDATA[
    rect.anc_exon {
              stroke-width:3;
                  }

    rect.non_anc_exon {
              stroke: black; stroke-width:3; stroke-dasharray: 5,5;
                    }

    text {
              font-size: 18px;
              font-family: Courier New;
          }
                    ]]>
</style>

<defs>
    <text x="150" y="40" id="globalVariable">none</text>
</defs>

  <rect class="anc_exon" x="0" y="35.0" width="0" height="30" style="fill:#87bcbc;fill-opacity:1.00" />
  <rect class="anc_exon" x="0" y="35.0" width="68.0" height="30" style="fill:#87bcbc;fill-opacity:1.00" />
  <line x1="68.0" y1="50.0" x2="88.0" y2="50.0" style="stroke:#999; stroke-width:3;" />
  <line x1="88.0" y1="50.0" x2="88.0" y2="50.0" style="stroke:#999; stroke-width:3;" />
  <line x1="88.0" y1="50.0" x2="88.0" y2="50.0" style="stroke:#999; stroke-width:3;" />
  <line x1="88.0" y1="50.0" x2="108.0" y2="50.0" style="stroke:#999; stroke-width:3;" />
  <rect class="anc_exon" x="108" y="35.0" width="273" height="30" style="fill:#87bcbc;fill-opacity:1.00" />
  <line x1="381" y1="50.0" x2="421" y2="50.0" style="stroke:#999; stroke-width:3;" />
  <rect class="anc_exon" x="421" y="35.0" width="225" height="30" style="fill:#87bcbc;fill-opacity:1.00" />
  <line x1="646" y1="50.0" x2="686" y2="50.0" style="stroke:#999; stroke-width:3;" />
  <rect class="anc_exon" x="686" y="35.0" width="80" height="30" style="fill:#87bcbc;fill-opacity:1.00" />
  <line x1="766" y1="50.0" x2="806" y2="50.0" style="stroke:#999; stroke-width:3;" />
  <rect class="anc_exon" x="806" y="35.0" width="59" height="30" style="fill:#87bcbc;fill-opacity:1.00" />
  <line x1="865" y1="50.0" x2="905" y2="50.0" style="stroke:#999; stroke-width:3;" />
  <rect class="anc_exon" x="905" y="35.0" width="56" height="30" style="fill:#87bcbc;fill-opacity:1.00" />
  <line x1="961" y1="50.0" x2="1001" y2="50.0" style="stroke:#999; stroke-width:3;" />
  <rect class="anc_exon" x="1001" y="35.0" width="10" height="30" style="fill:#87bcbc;fill-opacity:1.00" />
  <line x1="1011" y1="50.0" x2="1031" y2="50.0" style="stroke:#999; stroke-width:3;" />
  <line x1="1031" y1="50.0" x2="1031" y2="50.0" style="stroke:#999; stroke-width:3;" />
  <line x1="1031" y1="50.0" x2="1031" y2="50.0" style="stroke:#999; stroke-width:3;" />
  <line x1="1031" y1="50.0" x2="1051" y2="50.0" style="stroke:#999; stroke-width:3;" />
  <rect class="anc_exon" x="1051" y="35.0" width="92" height="30" style="fill:#87bcbc;fill-opacity:1.00" />
  <line x1="1143" y1="50.0" x2="1183" y2="50.0" style="stroke:#999; stroke-width:3;" />
  <rect class="anc_exon" x="1183" y="35.0" width="195" height="30" style="fill:#87bcbc;fill-opacity:1.00" />
  <line x1="1378" y1="50.0" x2="1418" y2="50.0" style="stroke:#999; stroke-width:3;" />
  <rect class="anc_exon" x="1418" y="35.0" width="90" height="30" style="fill:#87bcbc;fill-opacity:1.00" />
  <line x1="1508" y1="50.0" x2="1548" y2="50.0" style="stroke:#999; stroke-width:3;" />
  <rect class="anc_exon" x="1548" y="35.0" width="135" height="30" style="fill:#87bcbc;fill-opacity:1.00" />
  <line x1="1683" y1="50.0" x2="1723" y2="50.0" style="stroke:#999; stroke-width:3;" />
  <rect class="anc_exon" x="1723" y="35.0" width="144" height="30" style="fill:#87bcbc;fill-opacity:1.00" />
  <line x1="1867" y1="50.0" x2="1907" y2="50.0" style="stroke:#999; stroke-width:3;" />
  <rect class="anc_exon" x="1907" y="35.0" width="34" height="30" style="fill:#87bcbc;fill-opacity:1.00" />
  <line x1="1941" y1="50.0" x2="1981" y2="50.0" style="stroke:#999; stroke-width:3;" />
  <rect class="anc_exon" x="1981" y="35.0" width="109" height="30" style="fill:#87bcbc;fill-opacity:1.00" />
  <line x1="2090" y1="50.0" x2="2130" y2="50.0" style="stroke:#999; stroke-width:3;" />
  <rect class="anc_exon" x="2130" y="35.0" width="211" height="30" style="fill:#87bcbc;fill-opacity:1.00" />
  <line x1="2341" y1="50.0" x2="2381" y2="50.0" style="stroke:#999; stroke-width:3;" />
  <rect class="anc_exon" x="2381" y="35.0" width="88" height="30" style="fill:#87bcbc;fill-opacity:1.00" />
  <line x1="2469" y1="50.0" x2="2509" y2="50.0" style="stroke:#999; stroke-width:3;" />
  <rect class="anc_exon" x="2509" y="35.0" width="113" height="30" style="fill:#87bcbc;fill-opacity:1.00" />
  <line x1="2622" y1="50.0" x2="2662" y2="50.0" style="stroke:#999; stroke-width:3;" />
  <rect class="anc_exon" x="2662" y="35.0" width="187" height="30" style="fill:#87bcbc;fill-opacity:1.00" />
  <line x1="2849" y1="50.0" x2="2889" y2="50.0" style="stroke:#999; stroke-width:3;" />
  <rect class="anc_exon" x="2889" y="35.0" width="282" height="30" style="fill:#87bcbc;fill-opacity:1.00" />
  <line x1="3171" y1="50.0" x2="3211" y2="50.0" style="stroke:#999; stroke-width:3;" />
  <rect class="anc_exon" x="3211" y="35.0" width="170" height="30" style="fill:#87bcbc;fill-opacity:1.00" />
  <line x1="3381" y1="50.0" x2="3421" y2="50.0" style="stroke:#999; stroke-width:3;" />
  <rect class="anc_exon" x="3421" y="35.0" width="6" height="30" style="fill:#87bcbc;fill-opacity:1.00" />
  <rect class="anc_exon" x="3427" y="35.0" width="0" height="30" style="fill:#87bcbc;fill-opacity:1.00" />
  <text style="" >
<tspan x="0" y="83.0" style="font-size:18px;" >SP XM_031960950_1.1</tspan>  </text>



<script type="text/ecmascript">
<![CDATA[
function draw_bbox(text_id)
{
    var text_elem = document.getElementById(text_id);
    var offset_px = 2;
    var offset_py = 0;
    bbox = text_elem.getBBox();
    var box = document.createElementNS(document.rootElement.namespaceURI,'rect');
    box.setAttribute('x', bbox.x - offset_px);
    box.setAttribute('y', bbox.y - offset_py);
    box.setAttribute('width', bbox.width + offset_px * 2);
    box.setAttribute('height', bbox.height + offset_py * 2);
    box.setAttribute('style','fill: white;'+'stroke: black;'+'stroke-width: 1px;');
    text_elem.insertBefore(box,text_elem.childNodes[0]);

    var svg = text_elem.parentNode;
    svg.appendChild(text_elem);
}

for (var i=1; i < 1; i++)
{
draw_bbox("Mouseover" + i);
}
]]> 
</script>
</svg>
