<svg version="1.1"
xmlns="http://www.w3.org/2000/svg"
xmlns:xlink="http://www.w3.org/1999/xlink"
width="4512" height="100" viewBox = "0 0 4512 100"
onclick="mouseclick(evt)">

<script type="text/ecmascript">

<![CDATA[
    function mouseover(evt, target) { 
    var gv = document.getElementById("globalVariable");
    var previoustarget = gv.firstChild.nodeValue;
    if (previoustarget != "none") 
    {
        	document.getElementById(gv.firstChild.nodeValue).setAttributeNS(null, "visibility", "hidden");
    }
    document.getElementById(target).setAttributeNS(null, "visibility", "visible");
    gv.firstChild.nodeValue = target;
        }

    function mouseclick(evt) { 
    var gv = document.getElementById("globalVariable");
    var previoustarget = gv.firstChild.nodeValue;
    if (previoustarget != "none") {
        	document.getElementById(gv.firstChild.nodeValue).setAttributeNS(null, "visibility", "hidden");
        }
    }
]]>
  </script>
<style type="text/css" >

<![CDATA[
    rect.anc_exon {
              stroke-width:3;
                  }

    rect.non_anc_exon {
              stroke: black; stroke-width:3; stroke-dasharray: 5,5;
                    }

    text {
              font-size: 18px;
              font-family: Courier New;
          }
                    ]]>
</style>

<defs>
    <text x="150" y="40" id="globalVariable">none</text>
</defs>

  <rect class="anc_exon" x="0" y="35.0" width="0" height="30" style="fill:#87bcbc;fill-opacity:1.00" />
  <rect class="anc_exon" x="0" y="35.0" width="5.6000000000000005" height="30" style="fill:#87bcbc;fill-opacity:1.00" />
  <line x1="5.6000000000000005" y1="50.0" x2="24.6" y2="50.0" style="stroke:#999; stroke-width:3;" />
  <line x1="24.6" y1="50.0" x2="24.6" y2="50.0" style="stroke:#999; stroke-width:3;" />
  <line x1="24.6" y1="50.0" x2="24.6" y2="50.0" style="stroke:#999; stroke-width:3;" />
  <line x1="24.6" y1="50.0" x2="45.0" y2="50.0" style="stroke:#999; stroke-width:3;" />
  <rect class="anc_exon" x="45" y="35.0" width="76" height="30" style="fill:#87bcbc;fill-opacity:1.00" />
  <line x1="121" y1="50.0" x2="141" y2="50.0" style="stroke:#999; stroke-width:3;" />
  <line x1="141" y1="50.0" x2="141" y2="50.0" style="stroke:#999; stroke-width:3;" />
  <line x1="141" y1="50.0" x2="141" y2="50.0" style="stroke:#999; stroke-width:3;" />
  <line x1="141" y1="50.0" x2="161" y2="50.0" style="stroke:#999; stroke-width:3;" />
  <rect class="anc_exon" x="161" y="35.0" width="60" height="30" style="fill:#87bcbc;fill-opacity:1.00" />
  <line x1="221" y1="50.0" x2="241" y2="50.0" style="stroke:#999; stroke-width:3;" />
  <line x1="241" y1="50.0" x2="241" y2="50.0" style="stroke:#999; stroke-width:3;" />
  <line x1="241" y1="50.0" x2="241" y2="50.0" style="stroke:#999; stroke-width:3;" />
  <line x1="241" y1="50.0" x2="261" y2="50.0" style="stroke:#999; stroke-width:3;" />
  <rect class="anc_exon" x="261" y="35.0" width="136" height="30" style="fill:#87bcbc;fill-opacity:1.00" />
  <line x1="397" y1="50.0" x2="437" y2="50.0" style="stroke:#999; stroke-width:3;" />
  <rect class="anc_exon" x="437" y="35.0" width="114" height="30" style="fill:#87bcbc;fill-opacity:1.00" />
  <line x1="551" y1="50.0" x2="571" y2="50.0" style="stroke:#999; stroke-width:3;" />
  <line x1="571" y1="50.0" x2="571" y2="50.0" style="stroke:#999; stroke-width:3;" />
  <line x1="571" y1="50.0" x2="571" y2="50.0" style="stroke:#999; stroke-width:3;" />
  <line x1="571" y1="50.0" x2="591" y2="50.0" style="stroke:#999; stroke-width:3;" />
  <rect class="anc_exon" x="591" y="35.0" width="80" height="30" style="fill:#87bcbc;fill-opacity:1.00" />
  <line x1="671" y1="50.0" x2="711" y2="50.0" style="stroke:#999; stroke-width:3;" />
  <rect class="anc_exon" x="711" y="35.0" width="1068" height="30" style="fill:#87bcbc;fill-opacity:1.00" />
  <line x1="1779" y1="50.0" x2="1819" y2="50.0" style="stroke:#999; stroke-width:3;" />
  <rect class="anc_exon" x="1819" y="35.0" width="76" height="30" style="fill:#87bcbc;fill-opacity:1.00" />
  <line x1="1895" y1="50.0" x2="1915" y2="50.0" style="stroke:#999; stroke-width:3;" />
  <line x1="1915" y1="50.0" x2="1915" y2="50.0" style="stroke:#999; stroke-width:3;" />
  <line x1="1915" y1="50.0" x2="1915" y2="50.0" style="stroke:#999; stroke-width:3;" />
  <line x1="1915" y1="50.0" x2="1935" y2="50.0" style="stroke:#999; stroke-width:3;" />
  <rect class="anc_exon" x="1935" y="35.0" width="120" height="30" style="fill:#87bcbc;fill-opacity:1.00" />
  <line x1="2055" y1="50.0" x2="2095" y2="50.0" style="stroke:#999; stroke-width:3;" />
  <rect class="anc_exon" x="2095" y="35.0" width="83" height="30" style="fill:#87bcbc;fill-opacity:1.00" />
  <line x1="2178" y1="50.0" x2="2218" y2="50.0" style="stroke:#999; stroke-width:3;" />
  <rect class="anc_exon" x="2218" y="35.0" width="100" height="30" style="fill:#87bcbc;fill-opacity:1.00" />
  <line x1="2318" y1="50.0" x2="2338" y2="50.0" style="stroke:#999; stroke-width:3;" />
  <line x1="2338" y1="50.0" x2="2338" y2="50.0" style="stroke:#999; stroke-width:3;" />
  <line x1="2338" y1="50.0" x2="2338" y2="50.0" style="stroke:#999; stroke-width:3;" />
  <line x1="2338" y1="50.0" x2="2358" y2="50.0" style="stroke:#999; stroke-width:3;" />
  <rect class="anc_exon" x="2358" y="35.0" width="148" height="30" style="fill:#87bcbc;fill-opacity:1.00" />
  <line x1="2506" y1="50.0" x2="2526" y2="50.0" style="stroke:#999; stroke-width:3;" />
  <line x1="2526" y1="50.0" x2="2526" y2="50.0" style="stroke:#999; stroke-width:3;" />
  <line x1="2526" y1="50.0" x2="2526" y2="50.0" style="stroke:#999; stroke-width:3;" />
  <line x1="2526" y1="50.0" x2="2546" y2="50.0" style="stroke:#999; stroke-width:3;" />
  <rect class="anc_exon" x="2546" y="35.0" width="108" height="30" style="fill:#87bcbc;fill-opacity:1.00" />
  <line x1="2654" y1="50.0" x2="2674" y2="50.0" style="stroke:#999; stroke-width:3;" />
  <line x1="2674" y1="50.0" x2="2674" y2="50.0" style="stroke:#999; stroke-width:3;" />
  <line x1="2674" y1="50.0" x2="2674" y2="50.0" style="stroke:#999; stroke-width:3;" />
  <line x1="2674" y1="50.0" x2="2694" y2="50.0" style="stroke:#999; stroke-width:3;" />
  <rect class="anc_exon" x="2694" y="35.0" width="82" height="30" style="fill:#87bcbc;fill-opacity:1.00" />
  <line x1="2776" y1="50.0" x2="2796" y2="50.0" style="stroke:#999; stroke-width:3;" />
  <line x1="2796" y1="50.0" x2="2796" y2="50.0" style="stroke:#999; stroke-width:3;" />
  <line x1="2796" y1="50.0" x2="2796" y2="50.0" style="stroke:#999; stroke-width:3;" />
  <line x1="2796" y1="50.0" x2="2816" y2="50.0" style="stroke:#999; stroke-width:3;" />
  <rect class="anc_exon" x="2816" y="35.0" width="77" height="30" style="fill:#87bcbc;fill-opacity:1.00" />
  <line x1="2893" y1="50.0" x2="2913" y2="50.0" style="stroke:#999; stroke-width:3;" />
  <line x1="2913" y1="50.0" x2="2913" y2="50.0" style="stroke:#999; stroke-width:3;" />
  <line x1="2913" y1="50.0" x2="2913" y2="50.0" style="stroke:#999; stroke-width:3;" />
  <line x1="2913" y1="50.0" x2="2933" y2="50.0" style="stroke:#999; stroke-width:3;" />
  <rect class="anc_exon" x="2933" y="35.0" width="67" height="30" style="fill:#87bcbc;fill-opacity:1.00" />
  <line x1="3000" y1="50.0" x2="3020" y2="50.0" style="stroke:#999; stroke-width:3;" />
  <line x1="3020" y1="50.0" x2="3020" y2="50.0" style="stroke:#999; stroke-width:3;" />
  <line x1="3020" y1="50.0" x2="3020" y2="50.0" style="stroke:#999; stroke-width:3;" />
  <line x1="3020" y1="50.0" x2="3040" y2="50.0" style="stroke:#999; stroke-width:3;" />
  <rect class="anc_exon" x="3040" y="35.0" width="88" height="30" style="fill:#87bcbc;fill-opacity:1.00" />
  <line x1="3128" y1="50.0" x2="3148" y2="50.0" style="stroke:#999; stroke-width:3;" />
  <line x1="3148" y1="50.0" x2="3148" y2="50.0" style="stroke:#999; stroke-width:3;" />
  <line x1="3148" y1="50.0" x2="3148" y2="50.0" style="stroke:#999; stroke-width:3;" />
  <line x1="3148" y1="50.0" x2="3168" y2="50.0" style="stroke:#999; stroke-width:3;" />
  <rect class="anc_exon" x="3168" y="35.0" width="96" height="30" style="fill:#87bcbc;fill-opacity:1.00" />
  <line x1="3264" y1="50.0" x2="3284" y2="50.0" style="stroke:#999; stroke-width:3;" />
  <line x1="3284" y1="50.0" x2="3284" y2="50.0" style="stroke:#999; stroke-width:3;" />
  <line x1="3284" y1="50.0" x2="3284" y2="50.0" style="stroke:#999; stroke-width:3;" />
  <line x1="3284" y1="50.0" x2="3304" y2="50.0" style="stroke:#999; stroke-width:3;" />
  <rect class="anc_exon" x="3304" y="35.0" width="91" height="30" style="fill:#87bcbc;fill-opacity:1.00" />
  <line x1="3395" y1="50.0" x2="3415" y2="50.0" style="stroke:#999; stroke-width:3;" />
  <line x1="3415" y1="50.0" x2="3415" y2="50.0" style="stroke:#999; stroke-width:3;" />
  <line x1="3415" y1="50.0" x2="3415" y2="50.0" style="stroke:#999; stroke-width:3;" />
  <line x1="3415" y1="50.0" x2="3435" y2="50.0" style="stroke:#999; stroke-width:3;" />
  <rect class="anc_exon" x="3435" y="35.0" width="122" height="30" style="fill:#87bcbc;fill-opacity:1.00" />
  <line x1="3557" y1="50.0" x2="3577" y2="50.0" style="stroke:#999; stroke-width:3;" />
  <line x1="3577" y1="50.0" x2="3577" y2="50.0" style="stroke:#999; stroke-width:3;" />
  <line x1="3577" y1="50.0" x2="3577" y2="50.0" style="stroke:#999; stroke-width:3;" />
  <line x1="3577" y1="50.0" x2="3597" y2="50.0" style="stroke:#999; stroke-width:3;" />
  <rect class="anc_exon" x="3597" y="35.0" width="79" height="30" style="fill:#87bcbc;fill-opacity:1.00" />
  <line x1="3676" y1="50.0" x2="3716" y2="50.0" style="stroke:#999; stroke-width:3;" />
  <rect class="anc_exon" x="3716" y="35.0" width="104" height="30" style="fill:#87bcbc;fill-opacity:1.00" />
  <line x1="3820" y1="50.0" x2="3860" y2="50.0" style="stroke:#999; stroke-width:3;" />
  <rect class="anc_exon" x="3860" y="35.0" width="117" height="30" style="fill:#87bcbc;fill-opacity:1.00" />
  <line x1="3977" y1="50.0" x2="3997" y2="50.0" style="stroke:#999; stroke-width:3;" />
  <line x1="3997" y1="50.0" x2="3997" y2="50.0" style="stroke:#999; stroke-width:3;" />
  <line x1="3997" y1="50.0" x2="3997" y2="50.0" style="stroke:#999; stroke-width:3;" />
  <line x1="3997" y1="50.0" x2="4017" y2="50.0" style="stroke:#999; stroke-width:3;" />
  <rect class="anc_exon" x="4017" y="35.0" width="92" height="30" style="fill:#87bcbc;fill-opacity:1.00" />
  <line x1="4109" y1="50.0" x2="4129" y2="50.0" style="stroke:#999; stroke-width:3;" />
  <line x1="4129" y1="50.0" x2="4129" y2="50.0" style="stroke:#999; stroke-width:3;" />
  <line x1="4129" y1="50.0" x2="4129" y2="50.0" style="stroke:#999; stroke-width:3;" />
  <line x1="4129" y1="50.0" x2="4149" y2="50.0" style="stroke:#999; stroke-width:3;" />
  <rect class="anc_exon" x="4149" y="35.0" width="68" height="30" style="fill:#87bcbc;fill-opacity:1.00" />
  <line x1="4217" y1="50.0" x2="4257" y2="50.0" style="stroke:#999; stroke-width:3;" />
  <rect class="anc_exon" x="4257" y="35.0" width="90" height="30" style="fill:#87bcbc;fill-opacity:1.00" />
  <line x1="4347" y1="50.0" x2="4367" y2="50.0" style="stroke:#999; stroke-width:3;" />
  <line x1="4367" y1="50.0" x2="4367" y2="50.0" style="stroke:#999; stroke-width:3;" />
  <line x1="4367" y1="50.0" x2="4367" y2="50.0" style="stroke:#999; stroke-width:3;" />
  <line x1="4367" y1="50.0" x2="4387" y2="50.0" style="stroke:#999; stroke-width:3;" />
  <rect class="anc_exon" x="4387" y="35.0" width="89" height="30" style="fill:#87bcbc;fill-opacity:1.00" />
  <rect class="anc_exon" x="4476" y="35.0" width="0" height="30" style="fill:#87bcbc;fill-opacity:1.00" />
  <text style="" >
<tspan x="0" y="83.0" style="font-size:18px;" >SP XM_031960291_1.1</tspan>  </text>



<script type="text/ecmascript">
<![CDATA[
function draw_bbox(text_id)
{
    var text_elem = document.getElementById(text_id);
    var offset_px = 2;
    var offset_py = 0;
    bbox = text_elem.getBBox();
    var box = document.createElementNS(document.rootElement.namespaceURI,'rect');
    box.setAttribute('x', bbox.x - offset_px);
    box.setAttribute('y', bbox.y - offset_py);
    box.setAttribute('width', bbox.width + offset_px * 2);
    box.setAttribute('height', bbox.height + offset_py * 2);
    box.setAttribute('style','fill: white;'+'stroke: black;'+'stroke-width: 1px;');
    text_elem.insertBefore(box,text_elem.childNodes[0]);

    var svg = text_elem.parentNode;
    svg.appendChild(text_elem);
}

for (var i=1; i < 1; i++)
{
draw_bbox("Mouseover" + i);
}
]]> 
</script>
</svg>
