<svg version="1.1"
xmlns="http://www.w3.org/2000/svg"
xmlns:xlink="http://www.w3.org/1999/xlink"
width="3064" height="100" viewBox = "0 0 3064 100"
onclick="mouseclick(evt)">

<script type="text/ecmascript">

<![CDATA[
    function mouseover(evt, target) { 
    var gv = document.getElementById("globalVariable");
    var previoustarget = gv.firstChild.nodeValue;
    if (previoustarget != "none") 
    {
        	document.getElementById(gv.firstChild.nodeValue).setAttributeNS(null, "visibility", "hidden");
    }
    document.getElementById(target).setAttributeNS(null, "visibility", "visible");
    gv.firstChild.nodeValue = target;
        }

    function mouseclick(evt) { 
    var gv = document.getElementById("globalVariable");
    var previoustarget = gv.firstChild.nodeValue;
    if (previoustarget != "none") {
        	document.getElementById(gv.firstChild.nodeValue).setAttributeNS(null, "visibility", "hidden");
        }
    }
]]>
  </script>
<style type="text/css" >

<![CDATA[
    rect.anc_exon {
              stroke-width:3;
                  }

    rect.non_anc_exon {
              stroke: black; stroke-width:3; stroke-dasharray: 5,5;
                    }

    text {
              font-size: 18px;
              font-family: Courier New;
          }
                    ]]>
</style>

<defs>
    <text x="150" y="40" id="globalVariable">none</text>
</defs>

  <rect class="anc_exon" x="0" y="35.0" width="0" height="30" style="fill:#87bcbc;fill-opacity:1.00" />
  <rect class="anc_exon" x="0" y="35.0" width="301.6" height="30" style="fill:#87bcbc;fill-opacity:1.00" />
  <line x1="301.6" y1="50.0" x2="320.6" y2="50.0" style="stroke:#999; stroke-width:3;" />
  <line x1="320.6" y1="50.0" x2="320.6" y2="50.0" style="stroke:#999; stroke-width:3;" />
  <line x1="320.6" y1="50.0" x2="320.6" y2="50.0" style="stroke:#999; stroke-width:3;" />
  <line x1="320.6" y1="50.0" x2="341.0" y2="50.0" style="stroke:#999; stroke-width:3;" />
  <rect class="anc_exon" x="341" y="35.0" width="62" height="30" style="fill:#87bcbc;fill-opacity:1.00" />
  <line x1="403" y1="50.0" x2="423" y2="50.0" style="stroke:#999; stroke-width:3;" />
  <line x1="423" y1="50.0" x2="423" y2="50.0" style="stroke:#999; stroke-width:3;" />
  <line x1="423" y1="50.0" x2="423" y2="50.0" style="stroke:#999; stroke-width:3;" />
  <line x1="423" y1="50.0" x2="443" y2="50.0" style="stroke:#999; stroke-width:3;" />
  <rect class="anc_exon" x="443" y="35.0" width="168" height="30" style="fill:#87bcbc;fill-opacity:1.00" />
  <line x1="611" y1="50.0" x2="651" y2="50.0" style="stroke:#999; stroke-width:3;" />
  <rect class="anc_exon" x="651" y="35.0" width="16" height="30" style="fill:#87bcbc;fill-opacity:1.00" />
  <line x1="667" y1="50.0" x2="687" y2="50.0" style="stroke:#999; stroke-width:3;" />
  <line x1="687" y1="50.0" x2="687" y2="50.0" style="stroke:#999; stroke-width:3;" />
  <line x1="687" y1="50.0" x2="687" y2="50.0" style="stroke:#999; stroke-width:3;" />
  <line x1="687" y1="50.0" x2="707" y2="50.0" style="stroke:#999; stroke-width:3;" />
  <rect class="anc_exon" x="707" y="35.0" width="16" height="30" style="fill:#87bcbc;fill-opacity:1.00" />
  <line x1="723" y1="50.0" x2="743" y2="50.0" style="stroke:#999; stroke-width:3;" />
  <line x1="743" y1="50.0" x2="743" y2="50.0" style="stroke:#999; stroke-width:3;" />
  <line x1="743" y1="50.0" x2="743" y2="50.0" style="stroke:#999; stroke-width:3;" />
  <line x1="743" y1="50.0" x2="763" y2="50.0" style="stroke:#999; stroke-width:3;" />
  <rect class="anc_exon" x="763" y="35.0" width="19" height="30" style="fill:#87bcbc;fill-opacity:1.00" />
  <line x1="782" y1="50.0" x2="802" y2="50.0" style="stroke:#999; stroke-width:3;" />
  <line x1="802" y1="50.0" x2="802" y2="50.0" style="stroke:#999; stroke-width:3;" />
  <line x1="802" y1="50.0" x2="802" y2="50.0" style="stroke:#999; stroke-width:3;" />
  <line x1="802" y1="50.0" x2="822" y2="50.0" style="stroke:#999; stroke-width:3;" />
  <rect class="anc_exon" x="822" y="35.0" width="68" height="30" style="fill:#87bcbc;fill-opacity:1.00" />
  <line x1="890" y1="50.0" x2="930" y2="50.0" style="stroke:#999; stroke-width:3;" />
  <rect class="anc_exon" x="930" y="35.0" width="83" height="30" style="fill:#87bcbc;fill-opacity:1.00" />
  <line x1="1013" y1="50.0" x2="1053" y2="50.0" style="stroke:#999; stroke-width:3;" />
  <rect class="anc_exon" x="1053" y="35.0" width="76" height="30" style="fill:#87bcbc;fill-opacity:1.00" />
  <line x1="1129" y1="50.0" x2="1169" y2="50.0" style="stroke:#999; stroke-width:3;" />
  <rect class="anc_exon" x="1169" y="35.0" width="64" height="30" style="fill:#87bcbc;fill-opacity:1.00" />
  <line x1="1233" y1="50.0" x2="1253" y2="50.0" style="stroke:#999; stroke-width:3;" />
  <line x1="1253" y1="50.0" x2="1253" y2="50.0" style="stroke:#999; stroke-width:3;" />
  <line x1="1253" y1="50.0" x2="1253" y2="50.0" style="stroke:#999; stroke-width:3;" />
  <line x1="1253" y1="50.0" x2="1273" y2="50.0" style="stroke:#999; stroke-width:3;" />
  <rect class="anc_exon" x="1273" y="35.0" width="92" height="30" style="fill:#87bcbc;fill-opacity:1.00" />
  <line x1="1365" y1="50.0" x2="1405" y2="50.0" style="stroke:#999; stroke-width:3;" />
  <rect class="anc_exon" x="1405" y="35.0" width="125" height="30" style="fill:#87bcbc;fill-opacity:1.00" />
  <line x1="1530" y1="50.0" x2="1570" y2="50.0" style="stroke:#999; stroke-width:3;" />
  <rect class="anc_exon" x="1570" y="35.0" width="152" height="30" style="fill:#87bcbc;fill-opacity:1.00" />
  <line x1="1722" y1="50.0" x2="1762" y2="50.0" style="stroke:#999; stroke-width:3;" />
  <rect class="anc_exon" x="1762" y="35.0" width="115" height="30" style="fill:#87bcbc;fill-opacity:1.00" />
  <line x1="1877" y1="50.0" x2="1917" y2="50.0" style="stroke:#999; stroke-width:3;" />
  <rect class="anc_exon" x="1917" y="35.0" width="95" height="30" style="fill:#87bcbc;fill-opacity:1.00" />
  <line x1="2012" y1="50.0" x2="2052" y2="50.0" style="stroke:#999; stroke-width:3;" />
  <rect class="anc_exon" x="2052" y="35.0" width="114" height="30" style="fill:#87bcbc;fill-opacity:1.00" />
  <line x1="2166" y1="50.0" x2="2206" y2="50.0" style="stroke:#999; stroke-width:3;" />
  <rect class="anc_exon" x="2206" y="35.0" width="83" height="30" style="fill:#87bcbc;fill-opacity:1.00" />
  <line x1="2289" y1="50.0" x2="2329" y2="50.0" style="stroke:#999; stroke-width:3;" />
  <rect class="anc_exon" x="2329" y="35.0" width="163" height="30" style="fill:#87bcbc;fill-opacity:1.00" />
  <line x1="2492" y1="50.0" x2="2532" y2="50.0" style="stroke:#999; stroke-width:3;" />
  <rect class="anc_exon" x="2532" y="35.0" width="75" height="30" style="fill:#87bcbc;fill-opacity:1.00" />
  <line x1="2607" y1="50.0" x2="2627" y2="50.0" style="stroke:#999; stroke-width:3;" />
  <line x1="2627" y1="50.0" x2="2627" y2="50.0" style="stroke:#999; stroke-width:3;" />
  <line x1="2627" y1="50.0" x2="2627" y2="50.0" style="stroke:#999; stroke-width:3;" />
  <line x1="2627" y1="50.0" x2="2647" y2="50.0" style="stroke:#999; stroke-width:3;" />
  <rect class="anc_exon" x="2647" y="35.0" width="9" height="30" style="fill:#87bcbc;fill-opacity:1.00" />
  <line x1="2656" y1="50.0" x2="2696" y2="50.0" style="stroke:#999; stroke-width:3;" />
  <rect class="anc_exon" x="2696" y="35.0" width="86" height="30" style="fill:#87bcbc;fill-opacity:1.00" />
  <line x1="2782" y1="50.0" x2="2822" y2="50.0" style="stroke:#999; stroke-width:3;" />
  <rect class="anc_exon" x="2822" y="35.0" width="94" height="30" style="fill:#87bcbc;fill-opacity:1.00" />
  <line x1="2916" y1="50.0" x2="2936" y2="50.0" style="stroke:#999; stroke-width:3;" />
  <line x1="2936" y1="50.0" x2="2936" y2="50.0" style="stroke:#999; stroke-width:3;" />
  <line x1="2936" y1="50.0" x2="2936" y2="50.0" style="stroke:#999; stroke-width:3;" />
  <line x1="2936" y1="50.0" x2="2956" y2="50.0" style="stroke:#999; stroke-width:3;" />
  <rect class="anc_exon" x="2956" y="35.0" width="72" height="30" style="fill:#87bcbc;fill-opacity:1.00" />
  <rect class="anc_exon" x="3028" y="35.0" width="0" height="30" style="fill:#87bcbc;fill-opacity:1.00" />
  <text style="" >
<tspan x="0" y="83.0" style="font-size:18px;" >SP XM_031960190_1.1</tspan>  </text>



<script type="text/ecmascript">
<![CDATA[
function draw_bbox(text_id)
{
    var text_elem = document.getElementById(text_id);
    var offset_px = 2;
    var offset_py = 0;
    bbox = text_elem.getBBox();
    var box = document.createElementNS(document.rootElement.namespaceURI,'rect');
    box.setAttribute('x', bbox.x - offset_px);
    box.setAttribute('y', bbox.y - offset_py);
    box.setAttribute('width', bbox.width + offset_px * 2);
    box.setAttribute('height', bbox.height + offset_py * 2);
    box.setAttribute('style','fill: white;'+'stroke: black;'+'stroke-width: 1px;');
    text_elem.insertBefore(box,text_elem.childNodes[0]);

    var svg = text_elem.parentNode;
    svg.appendChild(text_elem);
}

for (var i=1; i < 1; i++)
{
draw_bbox("Mouseover" + i);
}
]]> 
</script>
</svg>
