<svg version="1.1"
xmlns="http://www.w3.org/2000/svg"
xmlns:xlink="http://www.w3.org/1999/xlink"
width="2159" height="100" viewBox = "0 0 2159 100"
onclick="mouseclick(evt)">

<script type="text/ecmascript">

<![CDATA[
    function mouseover(evt, target) { 
    var gv = document.getElementById("globalVariable");
    var previoustarget = gv.firstChild.nodeValue;
    if (previoustarget != "none") 
    {
        	document.getElementById(gv.firstChild.nodeValue).setAttributeNS(null, "visibility", "hidden");
    }
    document.getElementById(target).setAttributeNS(null, "visibility", "visible");
    gv.firstChild.nodeValue = target;
        }

    function mouseclick(evt) { 
    var gv = document.getElementById("globalVariable");
    var previoustarget = gv.firstChild.nodeValue;
    if (previoustarget != "none") {
        	document.getElementById(gv.firstChild.nodeValue).setAttributeNS(null, "visibility", "hidden");
        }
    }
]]>
  </script>
<style type="text/css" >

<![CDATA[
    rect.anc_exon {
              stroke-width:3;
                  }

    rect.non_anc_exon {
              stroke: black; stroke-width:3; stroke-dasharray: 5,5;
                    }

    text {
              font-size: 18px;
              font-family: Courier New;
          }
                    ]]>
</style>

<defs>
    <text x="150" y="40" id="globalVariable">none</text>
</defs>

  <rect class="anc_exon" x="0" y="35.0" width="0" height="30" style="fill:#87bcbc;fill-opacity:1.00" />
  <rect class="anc_exon" x="0" y="35.0" width="60.800000000000004" height="30" style="fill:#87bcbc;fill-opacity:1.00" />
  <line x1="60.800000000000004" y1="50.0" x2="79.80000000000001" y2="50.0" style="stroke:#999; stroke-width:3;" />
  <line x1="79.80000000000001" y1="50.0" x2="79.80000000000001" y2="50.0" style="stroke:#999; stroke-width:3;" />
  <line x1="79.80000000000001" y1="50.0" x2="79.80000000000001" y2="50.0" style="stroke:#999; stroke-width:3;" />
  <line x1="79.80000000000001" y1="50.0" x2="100.0" y2="50.0" style="stroke:#999; stroke-width:3;" />
  <rect class="anc_exon" x="100" y="35.0" width="131" height="30" style="fill:#87bcbc;fill-opacity:1.00" />
  <line x1="231" y1="50.0" x2="251" y2="50.0" style="stroke:#999; stroke-width:3;" />
  <line x1="251" y1="50.0" x2="251" y2="50.0" style="stroke:#999; stroke-width:3;" />
  <line x1="251" y1="50.0" x2="251" y2="50.0" style="stroke:#999; stroke-width:3;" />
  <line x1="251" y1="50.0" x2="271" y2="50.0" style="stroke:#999; stroke-width:3;" />
  <rect class="anc_exon" x="271" y="35.0" width="96" height="30" style="fill:#87bcbc;fill-opacity:1.00" />
  <line x1="367" y1="50.0" x2="387" y2="50.0" style="stroke:#999; stroke-width:3;" />
  <line x1="387" y1="50.0" x2="387" y2="50.0" style="stroke:#999; stroke-width:3;" />
  <line x1="387" y1="50.0" x2="387" y2="50.0" style="stroke:#999; stroke-width:3;" />
  <line x1="387" y1="50.0" x2="407" y2="50.0" style="stroke:#999; stroke-width:3;" />
  <rect class="anc_exon" x="407" y="35.0" width="88" height="30" style="fill:#87bcbc;fill-opacity:1.00" />
  <line x1="495" y1="50.0" x2="515" y2="50.0" style="stroke:#999; stroke-width:3;" />
  <line x1="515" y1="50.0" x2="515" y2="50.0" style="stroke:#999; stroke-width:3;" />
  <line x1="515" y1="50.0" x2="515" y2="50.0" style="stroke:#999; stroke-width:3;" />
  <line x1="515" y1="50.0" x2="535" y2="50.0" style="stroke:#999; stroke-width:3;" />
  <rect class="anc_exon" x="535" y="35.0" width="95" height="30" style="fill:#87bcbc;fill-opacity:1.00" />
  <line x1="630" y1="50.0" x2="650" y2="50.0" style="stroke:#999; stroke-width:3;" />
  <line x1="650" y1="50.0" x2="650" y2="50.0" style="stroke:#999; stroke-width:3;" />
  <line x1="650" y1="50.0" x2="650" y2="50.0" style="stroke:#999; stroke-width:3;" />
  <line x1="650" y1="50.0" x2="670" y2="50.0" style="stroke:#999; stroke-width:3;" />
  <rect class="anc_exon" x="670" y="35.0" width="97" height="30" style="fill:#87bcbc;fill-opacity:1.00" />
  <line x1="767" y1="50.0" x2="787" y2="50.0" style="stroke:#999; stroke-width:3;" />
  <line x1="787" y1="50.0" x2="787" y2="50.0" style="stroke:#999; stroke-width:3;" />
  <line x1="787" y1="50.0" x2="787" y2="50.0" style="stroke:#999; stroke-width:3;" />
  <line x1="787" y1="50.0" x2="807" y2="50.0" style="stroke:#999; stroke-width:3;" />
  <rect class="anc_exon" x="807" y="35.0" width="200" height="30" style="fill:#87bcbc;fill-opacity:1.00" />
  <line x1="1007" y1="50.0" x2="1027" y2="50.0" style="stroke:#999; stroke-width:3;" />
  <line x1="1027" y1="50.0" x2="1027" y2="50.0" style="stroke:#999; stroke-width:3;" />
  <line x1="1027" y1="50.0" x2="1027" y2="50.0" style="stroke:#999; stroke-width:3;" />
  <line x1="1027" y1="50.0" x2="1047" y2="50.0" style="stroke:#999; stroke-width:3;" />
  <rect class="anc_exon" x="1047" y="35.0" width="101" height="30" style="fill:#87bcbc;fill-opacity:1.00" />
  <line x1="1148" y1="50.0" x2="1168" y2="50.0" style="stroke:#999; stroke-width:3;" />
  <line x1="1168" y1="50.0" x2="1168" y2="50.0" style="stroke:#999; stroke-width:3;" />
  <line x1="1168" y1="50.0" x2="1168" y2="50.0" style="stroke:#999; stroke-width:3;" />
  <line x1="1168" y1="50.0" x2="1188" y2="50.0" style="stroke:#999; stroke-width:3;" />
  <rect class="anc_exon" x="1188" y="35.0" width="180" height="30" style="fill:#87bcbc;fill-opacity:1.00" />
  <line x1="1368" y1="50.0" x2="1408" y2="50.0" style="stroke:#999; stroke-width:3;" />
  <rect class="anc_exon" x="1408" y="35.0" width="84" height="30" style="fill:#87bcbc;fill-opacity:1.00" />
  <line x1="1492" y1="50.0" x2="1532" y2="50.0" style="stroke:#999; stroke-width:3;" />
  <rect class="anc_exon" x="1532" y="35.0" width="45" height="30" style="fill:#87bcbc;fill-opacity:1.00" />
  <line x1="1577" y1="50.0" x2="1617" y2="50.0" style="stroke:#999; stroke-width:3;" />
  <rect class="anc_exon" x="1617" y="35.0" width="80" height="30" style="fill:#87bcbc;fill-opacity:1.00" />
  <line x1="1697" y1="50.0" x2="1737" y2="50.0" style="stroke:#999; stroke-width:3;" />
  <rect class="anc_exon" x="1737" y="35.0" width="149" height="30" style="fill:#87bcbc;fill-opacity:1.00" />
  <line x1="1886" y1="50.0" x2="1906" y2="50.0" style="stroke:#999; stroke-width:3;" />
  <line x1="1906" y1="50.0" x2="1906" y2="50.0" style="stroke:#999; stroke-width:3;" />
  <line x1="1906" y1="50.0" x2="1906" y2="50.0" style="stroke:#999; stroke-width:3;" />
  <line x1="1906" y1="50.0" x2="1926" y2="50.0" style="stroke:#999; stroke-width:3;" />
  <rect class="anc_exon" x="1926" y="35.0" width="197" height="30" style="fill:#87bcbc;fill-opacity:1.00" />
  <rect class="anc_exon" x="2123" y="35.0" width="0" height="30" style="fill:#87bcbc;fill-opacity:1.00" />
  <text style="" >
<tspan x="0" y="83.0" style="font-size:18px;" >SP XM_031959516_1.1</tspan>  </text>



<script type="text/ecmascript">
<![CDATA[
function draw_bbox(text_id)
{
    var text_elem = document.getElementById(text_id);
    var offset_px = 2;
    var offset_py = 0;
    bbox = text_elem.getBBox();
    var box = document.createElementNS(document.rootElement.namespaceURI,'rect');
    box.setAttribute('x', bbox.x - offset_px);
    box.setAttribute('y', bbox.y - offset_py);
    box.setAttribute('width', bbox.width + offset_px * 2);
    box.setAttribute('height', bbox.height + offset_py * 2);
    box.setAttribute('style','fill: white;'+'stroke: black;'+'stroke-width: 1px;');
    text_elem.insertBefore(box,text_elem.childNodes[0]);

    var svg = text_elem.parentNode;
    svg.appendChild(text_elem);
}

for (var i=1; i < 1; i++)
{
draw_bbox("Mouseover" + i);
}
]]> 
</script>
</svg>
