<svg version="1.1"
xmlns="http://www.w3.org/2000/svg"
xmlns:xlink="http://www.w3.org/1999/xlink"
width="1439" height="100" viewBox = "0 0 1439 100"
onclick="mouseclick(evt)">

<script type="text/ecmascript">

<![CDATA[
    function mouseover(evt, target) { 
    var gv = document.getElementById("globalVariable");
    var previoustarget = gv.firstChild.nodeValue;
    if (previoustarget != "none") 
    {
        	document.getElementById(gv.firstChild.nodeValue).setAttributeNS(null, "visibility", "hidden");
    }
    document.getElementById(target).setAttributeNS(null, "visibility", "visible");
    gv.firstChild.nodeValue = target;
        }

    function mouseclick(evt) { 
    var gv = document.getElementById("globalVariable");
    var previoustarget = gv.firstChild.nodeValue;
    if (previoustarget != "none") {
        	document.getElementById(gv.firstChild.nodeValue).setAttributeNS(null, "visibility", "hidden");
        }
    }
]]>
  </script>
<style type="text/css" >

<![CDATA[
    rect.anc_exon {
              stroke-width:3;
                  }

    rect.non_anc_exon {
              stroke: black; stroke-width:3; stroke-dasharray: 5,5;
                    }

    text {
              font-size: 18px;
              font-family: Courier New;
          }
                    ]]>
</style>

<defs>
    <text x="150" y="40" id="globalVariable">none</text>
</defs>

  <rect class="anc_exon" x="0" y="35.0" width="0" height="30" style="fill:#87bcbc;fill-opacity:1.00" />
  <rect class="anc_exon" x="0" y="35.0" width="54.400000000000006" height="30" style="fill:#87bcbc;fill-opacity:1.00" />
  <line x1="54.400000000000006" y1="50.0" x2="73.4" y2="50.0" style="stroke:#999; stroke-width:3;" />
  <line x1="73.4" y1="50.0" x2="73.4" y2="50.0" style="stroke:#999; stroke-width:3;" />
  <line x1="73.4" y1="50.0" x2="73.4" y2="50.0" style="stroke:#999; stroke-width:3;" />
  <line x1="73.4" y1="50.0" x2="94.0" y2="50.0" style="stroke:#999; stroke-width:3;" />
  <rect class="anc_exon" x="94" y="35.0" width="90" height="30" style="fill:#87bcbc;fill-opacity:1.00" />
  <line x1="184" y1="50.0" x2="204" y2="50.0" style="stroke:#999; stroke-width:3;" />
  <line x1="204" y1="50.0" x2="204" y2="50.0" style="stroke:#999; stroke-width:3;" />
  <line x1="204" y1="50.0" x2="204" y2="50.0" style="stroke:#999; stroke-width:3;" />
  <line x1="204" y1="50.0" x2="224" y2="50.0" style="stroke:#999; stroke-width:3;" />
  <rect class="anc_exon" x="224" y="35.0" width="54" height="30" style="fill:#87bcbc;fill-opacity:1.00" />
  <line x1="278" y1="50.0" x2="318" y2="50.0" style="stroke:#999; stroke-width:3;" />
  <rect class="anc_exon" x="318" y="35.0" width="176" height="30" style="fill:#87bcbc;fill-opacity:1.00" />
  <line x1="494" y1="50.0" x2="514" y2="50.0" style="stroke:#999; stroke-width:3;" />
  <line x1="514" y1="50.0" x2="514" y2="50.0" style="stroke:#999; stroke-width:3;" />
  <line x1="514" y1="50.0" x2="514" y2="50.0" style="stroke:#999; stroke-width:3;" />
  <line x1="514" y1="50.0" x2="534" y2="50.0" style="stroke:#999; stroke-width:3;" />
  <rect class="anc_exon" x="534" y="35.0" width="66" height="30" style="fill:#87bcbc;fill-opacity:1.00" />
  <line x1="600" y1="50.0" x2="620" y2="50.0" style="stroke:#999; stroke-width:3;" />
  <line x1="620" y1="50.0" x2="620" y2="50.0" style="stroke:#999; stroke-width:3;" />
  <line x1="620" y1="50.0" x2="620" y2="50.0" style="stroke:#999; stroke-width:3;" />
  <line x1="620" y1="50.0" x2="640" y2="50.0" style="stroke:#999; stroke-width:3;" />
  <rect class="anc_exon" x="640" y="35.0" width="110" height="30" style="fill:#87bcbc;fill-opacity:1.00" />
  <line x1="750" y1="50.0" x2="790" y2="50.0" style="stroke:#999; stroke-width:3;" />
  <rect class="anc_exon" x="790" y="35.0" width="124" height="30" style="fill:#87bcbc;fill-opacity:1.00" />
  <line x1="914" y1="50.0" x2="954" y2="50.0" style="stroke:#999; stroke-width:3;" />
  <rect class="anc_exon" x="954" y="35.0" width="169" height="30" style="fill:#87bcbc;fill-opacity:1.00" />
  <line x1="1123" y1="50.0" x2="1143" y2="50.0" style="stroke:#999; stroke-width:3;" />
  <line x1="1143" y1="50.0" x2="1143" y2="50.0" style="stroke:#999; stroke-width:3;" />
  <line x1="1143" y1="50.0" x2="1143" y2="50.0" style="stroke:#999; stroke-width:3;" />
  <line x1="1143" y1="50.0" x2="1163" y2="50.0" style="stroke:#999; stroke-width:3;" />
  <rect class="anc_exon" x="1163" y="35.0" width="240" height="30" style="fill:#87bcbc;fill-opacity:1.00" />
  <rect class="anc_exon" x="1403" y="35.0" width="0" height="30" style="fill:#87bcbc;fill-opacity:1.00" />
  <text style="" >
<tspan x="0" y="83.0" style="font-size:18px;" >SP XM_031963012_1.1</tspan>  </text>



<script type="text/ecmascript">
<![CDATA[
function draw_bbox(text_id)
{
    var text_elem = document.getElementById(text_id);
    var offset_px = 2;
    var offset_py = 0;
    bbox = text_elem.getBBox();
    var box = document.createElementNS(document.rootElement.namespaceURI,'rect');
    box.setAttribute('x', bbox.x - offset_px);
    box.setAttribute('y', bbox.y - offset_py);
    box.setAttribute('width', bbox.width + offset_px * 2);
    box.setAttribute('height', bbox.height + offset_py * 2);
    box.setAttribute('style','fill: white;'+'stroke: black;'+'stroke-width: 1px;');
    text_elem.insertBefore(box,text_elem.childNodes[0]);

    var svg = text_elem.parentNode;
    svg.appendChild(text_elem);
}

for (var i=1; i < 1; i++)
{
draw_bbox("Mouseover" + i);
}
]]> 
</script>
</svg>
