<svg version="1.1"
xmlns="http://www.w3.org/2000/svg"
xmlns:xlink="http://www.w3.org/1999/xlink"
width="5040" height="100" viewBox = "0 0 5040 100"
onclick="mouseclick(evt)">

<script type="text/ecmascript">

<![CDATA[
    function mouseover(evt, target) { 
    var gv = document.getElementById("globalVariable");
    var previoustarget = gv.firstChild.nodeValue;
    if (previoustarget != "none") 
    {
        	document.getElementById(gv.firstChild.nodeValue).setAttributeNS(null, "visibility", "hidden");
    }
    document.getElementById(target).setAttributeNS(null, "visibility", "visible");
    gv.firstChild.nodeValue = target;
        }

    function mouseclick(evt) { 
    var gv = document.getElementById("globalVariable");
    var previoustarget = gv.firstChild.nodeValue;
    if (previoustarget != "none") {
        	document.getElementById(gv.firstChild.nodeValue).setAttributeNS(null, "visibility", "hidden");
        }
    }
]]>
  </script>
<style type="text/css" >

<![CDATA[
    rect.anc_exon {
              stroke-width:3;
                  }

    rect.non_anc_exon {
              stroke: black; stroke-width:3; stroke-dasharray: 5,5;
                    }

    text {
              font-size: 18px;
              font-family: Courier New;
          }
                    ]]>
</style>

<defs>
    <text x="150" y="40" id="globalVariable">none</text>
</defs>

  <rect class="anc_exon" x="0" y="35.0" width="0" height="30" style="fill:#87bcbc;fill-opacity:1.00" />
  <rect class="anc_exon" x="0" y="35.0" width="519.2" height="30" style="fill:#87bcbc;fill-opacity:1.00" />
  <line x1="519.2" y1="50.0" x2="538.2" y2="50.0" style="stroke:#999; stroke-width:3;" />
  <line x1="538.2" y1="50.0" x2="538.2" y2="50.0" style="stroke:#999; stroke-width:3;" />
  <line x1="538.2" y1="50.0" x2="538.2" y2="50.0" style="stroke:#999; stroke-width:3;" />
  <line x1="538.2" y1="50.0" x2="559.0" y2="50.0" style="stroke:#999; stroke-width:3;" />
  <rect class="anc_exon" x="559" y="35.0" width="71" height="30" style="fill:#87bcbc;fill-opacity:1.00" />
  <line x1="630" y1="50.0" x2="650" y2="50.0" style="stroke:#999; stroke-width:3;" />
  <line x1="650" y1="50.0" x2="650" y2="50.0" style="stroke:#999; stroke-width:3;" />
  <line x1="650" y1="50.0" x2="650" y2="50.0" style="stroke:#999; stroke-width:3;" />
  <line x1="650" y1="50.0" x2="670" y2="50.0" style="stroke:#999; stroke-width:3;" />
  <rect class="anc_exon" x="670" y="35.0" width="67" height="30" style="fill:#87bcbc;fill-opacity:1.00" />
  <line x1="737" y1="50.0" x2="757" y2="50.0" style="stroke:#999; stroke-width:3;" />
  <line x1="757" y1="50.0" x2="757" y2="50.0" style="stroke:#999; stroke-width:3;" />
  <line x1="757" y1="50.0" x2="757" y2="50.0" style="stroke:#999; stroke-width:3;" />
  <line x1="757" y1="50.0" x2="777" y2="50.0" style="stroke:#999; stroke-width:3;" />
  <rect class="anc_exon" x="777" y="35.0" width="82" height="30" style="fill:#87bcbc;fill-opacity:1.00" />
  <line x1="859" y1="50.0" x2="899" y2="50.0" style="stroke:#999; stroke-width:3;" />
  <rect class="anc_exon" x="899" y="35.0" width="72" height="30" style="fill:#87bcbc;fill-opacity:1.00" />
  <line x1="971" y1="50.0" x2="991" y2="50.0" style="stroke:#999; stroke-width:3;" />
  <line x1="991" y1="50.0" x2="991" y2="50.0" style="stroke:#999; stroke-width:3;" />
  <line x1="991" y1="50.0" x2="991" y2="50.0" style="stroke:#999; stroke-width:3;" />
  <line x1="991" y1="50.0" x2="1011" y2="50.0" style="stroke:#999; stroke-width:3;" />
  <rect class="anc_exon" x="1011" y="35.0" width="276" height="30" style="fill:#87bcbc;fill-opacity:1.00" />
  <line x1="1287" y1="50.0" x2="1307" y2="50.0" style="stroke:#999; stroke-width:3;" />
  <line x1="1307" y1="50.0" x2="1307" y2="50.0" style="stroke:#999; stroke-width:3;" />
  <line x1="1307" y1="50.0" x2="1307" y2="50.0" style="stroke:#999; stroke-width:3;" />
  <line x1="1307" y1="50.0" x2="1327" y2="50.0" style="stroke:#999; stroke-width:3;" />
  <rect class="anc_exon" x="1327" y="35.0" width="538" height="30" style="fill:#87bcbc;fill-opacity:1.00" />
  <line x1="1865" y1="50.0" x2="1905" y2="50.0" style="stroke:#999; stroke-width:3;" />
  <rect class="anc_exon" x="1905" y="35.0" width="1240" height="30" style="fill:#87bcbc;fill-opacity:1.00" />
  <line x1="3145" y1="50.0" x2="3185" y2="50.0" style="stroke:#999; stroke-width:3;" />
  <rect class="anc_exon" x="3185" y="35.0" width="215" height="30" style="fill:#87bcbc;fill-opacity:1.00" />
  <line x1="3400" y1="50.0" x2="3420" y2="50.0" style="stroke:#999; stroke-width:3;" />
  <line x1="3420" y1="50.0" x2="3420" y2="50.0" style="stroke:#999; stroke-width:3;" />
  <line x1="3420" y1="50.0" x2="3420" y2="50.0" style="stroke:#999; stroke-width:3;" />
  <line x1="3420" y1="50.0" x2="3440" y2="50.0" style="stroke:#999; stroke-width:3;" />
  <rect class="anc_exon" x="3440" y="35.0" width="232" height="30" style="fill:#87bcbc;fill-opacity:1.00" />
  <line x1="3672" y1="50.0" x2="3692" y2="50.0" style="stroke:#999; stroke-width:3;" />
  <line x1="3692" y1="50.0" x2="3692" y2="50.0" style="stroke:#999; stroke-width:3;" />
  <line x1="3692" y1="50.0" x2="3692" y2="50.0" style="stroke:#999; stroke-width:3;" />
  <line x1="3692" y1="50.0" x2="3712" y2="50.0" style="stroke:#999; stroke-width:3;" />
  <rect class="anc_exon" x="3712" y="35.0" width="159" height="30" style="fill:#87bcbc;fill-opacity:1.00" />
  <line x1="3871" y1="50.0" x2="3891" y2="50.0" style="stroke:#999; stroke-width:3;" />
  <line x1="3891" y1="50.0" x2="3891" y2="50.0" style="stroke:#999; stroke-width:3;" />
  <line x1="3891" y1="50.0" x2="3891" y2="50.0" style="stroke:#999; stroke-width:3;" />
  <line x1="3891" y1="50.0" x2="3911" y2="50.0" style="stroke:#999; stroke-width:3;" />
  <rect class="anc_exon" x="3911" y="35.0" width="162" height="30" style="fill:#87bcbc;fill-opacity:1.00" />
  <line x1="4073" y1="50.0" x2="4113" y2="50.0" style="stroke:#999; stroke-width:3;" />
  <rect class="anc_exon" x="4113" y="35.0" width="88" height="30" style="fill:#87bcbc;fill-opacity:1.00" />
  <line x1="4201" y1="50.0" x2="4241" y2="50.0" style="stroke:#999; stroke-width:3;" />
  <rect class="anc_exon" x="4241" y="35.0" width="108" height="30" style="fill:#87bcbc;fill-opacity:1.00" />
  <line x1="4349" y1="50.0" x2="4369" y2="50.0" style="stroke:#999; stroke-width:3;" />
  <line x1="4369" y1="50.0" x2="4369" y2="50.0" style="stroke:#999; stroke-width:3;" />
  <line x1="4369" y1="50.0" x2="4369" y2="50.0" style="stroke:#999; stroke-width:3;" />
  <line x1="4369" y1="50.0" x2="4389" y2="50.0" style="stroke:#999; stroke-width:3;" />
  <rect class="anc_exon" x="4389" y="35.0" width="179" height="30" style="fill:#87bcbc;fill-opacity:1.00" />
  <line x1="4568" y1="50.0" x2="4608" y2="50.0" style="stroke:#999; stroke-width:3;" />
  <rect class="anc_exon" x="4608" y="35.0" width="184" height="30" style="fill:#87bcbc;fill-opacity:1.00" />
  <line x1="4792" y1="50.0" x2="4832" y2="50.0" style="stroke:#999; stroke-width:3;" />
  <rect class="anc_exon" x="4832" y="35.0" width="172" height="30" style="fill:#87bcbc;fill-opacity:1.00" />
  <rect class="anc_exon" x="5004" y="35.0" width="0" height="30" style="fill:#87bcbc;fill-opacity:1.00" />
  <text style="" >
<tspan x="0" y="83.0" style="font-size:18px;" >SP XM_031961295_1.1</tspan>  </text>
  <text style="fill:#121212;" >
<tspan x="519.2" y="50.0" style="font-size:18px;fill:#121212;" >ga</tspan>  </text>
  <text style="fill:#121212;" >
<tspan x="535.96" y="68.0" style="font-size:18px;fill:#121212;" >tt</tspan>  </text>
  <text style="fill:#121212;" >
<tspan x="875.96" y="68.0" style="font-size:18px;fill:#121212;" >tt</tspan>  </text>
  <text style="fill:#121212;" >
<tspan x="1287" y="50.0" style="font-size:18px;fill:#121212;" >tg</tspan>  </text>
  <text style="fill:#121212;" >
<tspan x="1303.96" y="68.0" style="font-size:18px;fill:#121212;" >gc</tspan>  </text>



<script type="text/ecmascript">
<![CDATA[
function draw_bbox(text_id)
{
    var text_elem = document.getElementById(text_id);
    var offset_px = 2;
    var offset_py = 0;
    bbox = text_elem.getBBox();
    var box = document.createElementNS(document.rootElement.namespaceURI,'rect');
    box.setAttribute('x', bbox.x - offset_px);
    box.setAttribute('y', bbox.y - offset_py);
    box.setAttribute('width', bbox.width + offset_px * 2);
    box.setAttribute('height', bbox.height + offset_py * 2);
    box.setAttribute('style','fill: white;'+'stroke: black;'+'stroke-width: 1px;');
    text_elem.insertBefore(box,text_elem.childNodes[0]);

    var svg = text_elem.parentNode;
    svg.appendChild(text_elem);
}

for (var i=1; i < 1; i++)
{
draw_bbox("Mouseover" + i);
}
]]> 
</script>
</svg>
