<svg version="1.1"
xmlns="http://www.w3.org/2000/svg"
xmlns:xlink="http://www.w3.org/1999/xlink"
width="3178" height="100" viewBox = "0 0 3178 100"
onclick="mouseclick(evt)">

<script type="text/ecmascript">

<![CDATA[
    function mouseover(evt, target) { 
    var gv = document.getElementById("globalVariable");
    var previoustarget = gv.firstChild.nodeValue;
    if (previoustarget != "none") 
    {
        	document.getElementById(gv.firstChild.nodeValue).setAttributeNS(null, "visibility", "hidden");
    }
    document.getElementById(target).setAttributeNS(null, "visibility", "visible");
    gv.firstChild.nodeValue = target;
        }

    function mouseclick(evt) { 
    var gv = document.getElementById("globalVariable");
    var previoustarget = gv.firstChild.nodeValue;
    if (previoustarget != "none") {
        	document.getElementById(gv.firstChild.nodeValue).setAttributeNS(null, "visibility", "hidden");
        }
    }
]]>
  </script>
<style type="text/css" >

<![CDATA[
    rect.anc_exon {
              stroke-width:3;
                  }

    rect.non_anc_exon {
              stroke: black; stroke-width:3; stroke-dasharray: 5,5;
                    }

    text {
              font-size: 18px;
              font-family: Courier New;
          }
                    ]]>
</style>

<defs>
    <text x="150" y="40" id="globalVariable">none</text>
</defs>

  <rect class="anc_exon" x="0" y="35.0" width="0" height="30" style="fill:#87bcbc;fill-opacity:1.00" />
  <rect class="anc_exon" x="0" y="35.0" width="51.2" height="30" style="fill:#87bcbc;fill-opacity:1.00" />
  <line x1="51.2" y1="50.0" x2="91.0" y2="50.0" style="stroke:#999; stroke-width:3;" />
  <rect class="anc_exon" x="91" y="35.0" width="28" height="30" style="fill:#87bcbc;fill-opacity:1.00" />
  <line x1="119" y1="50.0" x2="139" y2="50.0" style="stroke:#999; stroke-width:3;" />
  <line x1="139" y1="50.0" x2="139" y2="50.0" style="stroke:#999; stroke-width:3;" />
  <line x1="139" y1="50.0" x2="139" y2="50.0" style="stroke:#999; stroke-width:3;" />
  <line x1="139" y1="50.0" x2="159" y2="50.0" style="stroke:#999; stroke-width:3;" />
  <rect class="anc_exon" x="159" y="35.0" width="36" height="30" style="fill:#87bcbc;fill-opacity:1.00" />
  <line x1="195" y1="50.0" x2="215" y2="50.0" style="stroke:#999; stroke-width:3;" />
  <line x1="215" y1="50.0" x2="215" y2="50.0" style="stroke:#999; stroke-width:3;" />
  <line x1="215" y1="50.0" x2="215" y2="50.0" style="stroke:#999; stroke-width:3;" />
  <line x1="215" y1="50.0" x2="235" y2="50.0" style="stroke:#999; stroke-width:3;" />
  <rect class="anc_exon" x="235" y="35.0" width="109" height="30" style="fill:#87bcbc;fill-opacity:1.00" />
  <line x1="344" y1="50.0" x2="364" y2="50.0" style="stroke:#999; stroke-width:3;" />
  <line x1="364" y1="50.0" x2="364" y2="50.0" style="stroke:#999; stroke-width:3;" />
  <line x1="364" y1="50.0" x2="364" y2="50.0" style="stroke:#999; stroke-width:3;" />
  <line x1="364" y1="50.0" x2="384" y2="50.0" style="stroke:#999; stroke-width:3;" />
  <rect class="anc_exon" x="384" y="35.0" width="96" height="30" style="fill:#87bcbc;fill-opacity:1.00" />
  <line x1="480" y1="50.0" x2="500" y2="50.0" style="stroke:#999; stroke-width:3;" />
  <line x1="500" y1="50.0" x2="500" y2="50.0" style="stroke:#999; stroke-width:3;" />
  <line x1="500" y1="50.0" x2="500" y2="50.0" style="stroke:#999; stroke-width:3;" />
  <line x1="500" y1="50.0" x2="520" y2="50.0" style="stroke:#999; stroke-width:3;" />
  <rect class="anc_exon" x="520" y="35.0" width="48" height="30" style="fill:#87bcbc;fill-opacity:1.00" />
  <line x1="568" y1="50.0" x2="588" y2="50.0" style="stroke:#999; stroke-width:3;" />
  <line x1="588" y1="50.0" x2="588" y2="50.0" style="stroke:#999; stroke-width:3;" />
  <line x1="588" y1="50.0" x2="588" y2="50.0" style="stroke:#999; stroke-width:3;" />
  <line x1="588" y1="50.0" x2="608" y2="50.0" style="stroke:#999; stroke-width:3;" />
  <rect class="anc_exon" x="608" y="35.0" width="72" height="30" style="fill:#87bcbc;fill-opacity:1.00" />
  <line x1="680" y1="50.0" x2="720" y2="50.0" style="stroke:#999; stroke-width:3;" />
  <rect class="anc_exon" x="720" y="35.0" width="152" height="30" style="fill:#87bcbc;fill-opacity:1.00" />
  <line x1="872" y1="50.0" x2="892" y2="50.0" style="stroke:#999; stroke-width:3;" />
  <line x1="892" y1="50.0" x2="892" y2="50.0" style="stroke:#999; stroke-width:3;" />
  <line x1="892" y1="50.0" x2="892" y2="50.0" style="stroke:#999; stroke-width:3;" />
  <line x1="892" y1="50.0" x2="912" y2="50.0" style="stroke:#999; stroke-width:3;" />
  <rect class="anc_exon" x="912" y="35.0" width="64" height="30" style="fill:#87bcbc;fill-opacity:1.00" />
  <line x1="976" y1="50.0" x2="996" y2="50.0" style="stroke:#999; stroke-width:3;" />
  <line x1="996" y1="50.0" x2="996" y2="50.0" style="stroke:#999; stroke-width:3;" />
  <line x1="996" y1="50.0" x2="996" y2="50.0" style="stroke:#999; stroke-width:3;" />
  <line x1="996" y1="50.0" x2="1016" y2="50.0" style="stroke:#999; stroke-width:3;" />
  <rect class="anc_exon" x="1016" y="35.0" width="128" height="30" style="fill:#87bcbc;fill-opacity:1.00" />
  <line x1="1144" y1="50.0" x2="1164" y2="50.0" style="stroke:#999; stroke-width:3;" />
  <line x1="1164" y1="50.0" x2="1164" y2="50.0" style="stroke:#999; stroke-width:3;" />
  <line x1="1164" y1="50.0" x2="1164" y2="50.0" style="stroke:#999; stroke-width:3;" />
  <line x1="1164" y1="50.0" x2="1184" y2="50.0" style="stroke:#999; stroke-width:3;" />
  <rect class="anc_exon" x="1184" y="35.0" width="828" height="30" style="fill:#87bcbc;fill-opacity:1.00" />
  <line x1="2012" y1="50.0" x2="2032" y2="50.0" style="stroke:#999; stroke-width:3;" />
  <line x1="2032" y1="50.0" x2="2032" y2="50.0" style="stroke:#999; stroke-width:3;" />
  <line x1="2032" y1="50.0" x2="2032" y2="50.0" style="stroke:#999; stroke-width:3;" />
  <line x1="2032" y1="50.0" x2="2052" y2="50.0" style="stroke:#999; stroke-width:3;" />
  <rect class="anc_exon" x="2052" y="35.0" width="81" height="30" style="fill:#87bcbc;fill-opacity:1.00" />
  <line x1="2133" y1="50.0" x2="2173" y2="50.0" style="stroke:#999; stroke-width:3;" />
  <rect class="anc_exon" x="2173" y="35.0" width="84" height="30" style="fill:#87bcbc;fill-opacity:1.00" />
  <line x1="2257" y1="50.0" x2="2277" y2="50.0" style="stroke:#999; stroke-width:3;" />
  <line x1="2277" y1="50.0" x2="2277" y2="50.0" style="stroke:#999; stroke-width:3;" />
  <line x1="2277" y1="50.0" x2="2277" y2="50.0" style="stroke:#999; stroke-width:3;" />
  <line x1="2277" y1="50.0" x2="2297" y2="50.0" style="stroke:#999; stroke-width:3;" />
  <rect class="anc_exon" x="2297" y="35.0" width="99" height="30" style="fill:#87bcbc;fill-opacity:1.00" />
  <line x1="2396" y1="50.0" x2="2416" y2="50.0" style="stroke:#999; stroke-width:3;" />
  <line x1="2416" y1="50.0" x2="2416" y2="50.0" style="stroke:#999; stroke-width:3;" />
  <line x1="2416" y1="50.0" x2="2416" y2="50.0" style="stroke:#999; stroke-width:3;" />
  <line x1="2416" y1="50.0" x2="2436" y2="50.0" style="stroke:#999; stroke-width:3;" />
  <rect class="anc_exon" x="2436" y="35.0" width="80" height="30" style="fill:#87bcbc;fill-opacity:1.00" />
  <line x1="2516" y1="50.0" x2="2536" y2="50.0" style="stroke:#999; stroke-width:3;" />
  <line x1="2536" y1="50.0" x2="2536" y2="50.0" style="stroke:#999; stroke-width:3;" />
  <line x1="2536" y1="50.0" x2="2536" y2="50.0" style="stroke:#999; stroke-width:3;" />
  <line x1="2536" y1="50.0" x2="2556" y2="50.0" style="stroke:#999; stroke-width:3;" />
  <rect class="anc_exon" x="2556" y="35.0" width="98" height="30" style="fill:#87bcbc;fill-opacity:1.00" />
  <line x1="2654" y1="50.0" x2="2694" y2="50.0" style="stroke:#999; stroke-width:3;" />
  <rect class="anc_exon" x="2694" y="35.0" width="96" height="30" style="fill:#87bcbc;fill-opacity:1.00" />
  <line x1="2790" y1="50.0" x2="2830" y2="50.0" style="stroke:#999; stroke-width:3;" />
  <rect class="anc_exon" x="2830" y="35.0" width="312" height="30" style="fill:#87bcbc;fill-opacity:1.00" />
  <rect class="anc_exon" x="3142" y="35.0" width="0" height="30" style="fill:#87bcbc;fill-opacity:1.00" />
  <text style="" >
<tspan x="0" y="83.0" style="font-size:18px;" >SP XM_031958916_1.1</tspan>  </text>



<script type="text/ecmascript">
<![CDATA[
function draw_bbox(text_id)
{
    var text_elem = document.getElementById(text_id);
    var offset_px = 2;
    var offset_py = 0;
    bbox = text_elem.getBBox();
    var box = document.createElementNS(document.rootElement.namespaceURI,'rect');
    box.setAttribute('x', bbox.x - offset_px);
    box.setAttribute('y', bbox.y - offset_py);
    box.setAttribute('width', bbox.width + offset_px * 2);
    box.setAttribute('height', bbox.height + offset_py * 2);
    box.setAttribute('style','fill: white;'+'stroke: black;'+'stroke-width: 1px;');
    text_elem.insertBefore(box,text_elem.childNodes[0]);

    var svg = text_elem.parentNode;
    svg.appendChild(text_elem);
}

for (var i=1; i < 1; i++)
{
draw_bbox("Mouseover" + i);
}
]]> 
</script>
</svg>
