<svg version="1.1"
xmlns="http://www.w3.org/2000/svg"
xmlns:xlink="http://www.w3.org/1999/xlink"
width="3516" height="100" viewBox = "0 0 3516 100"
onclick="mouseclick(evt)">

<script type="text/ecmascript">

<![CDATA[
    function mouseover(evt, target) { 
    var gv = document.getElementById("globalVariable");
    var previoustarget = gv.firstChild.nodeValue;
    if (previoustarget != "none") 
    {
        	document.getElementById(gv.firstChild.nodeValue).setAttributeNS(null, "visibility", "hidden");
    }
    document.getElementById(target).setAttributeNS(null, "visibility", "visible");
    gv.firstChild.nodeValue = target;
        }

    function mouseclick(evt) { 
    var gv = document.getElementById("globalVariable");
    var previoustarget = gv.firstChild.nodeValue;
    if (previoustarget != "none") {
        	document.getElementById(gv.firstChild.nodeValue).setAttributeNS(null, "visibility", "hidden");
        }
    }
]]>
  </script>
<style type="text/css" >

<![CDATA[
    rect.anc_exon {
              stroke-width:3;
                  }

    rect.non_anc_exon {
              stroke: black; stroke-width:3; stroke-dasharray: 5,5;
                    }

    text {
              font-size: 18px;
              font-family: Courier New;
          }
                    ]]>
</style>

<defs>
    <text x="150" y="40" id="globalVariable">none</text>
</defs>

  <rect class="anc_exon" x="0" y="35.0" width="0" height="30" style="fill:#87bcbc;fill-opacity:1.00" />
  <rect class="anc_exon" x="0" y="35.0" width="29.6" height="30" style="fill:#87bcbc;fill-opacity:1.00" />
  <line x1="29.6" y1="50.0" x2="69.0" y2="50.0" style="stroke:#999; stroke-width:3;" />
  <rect class="anc_exon" x="69" y="35.0" width="75" height="30" style="fill:#87bcbc;fill-opacity:1.00" />
  <line x1="144" y1="50.0" x2="164" y2="50.0" style="stroke:#999; stroke-width:3;" />
  <line x1="164" y1="50.0" x2="164" y2="50.0" style="stroke:#999; stroke-width:3;" />
  <line x1="164" y1="50.0" x2="164" y2="50.0" style="stroke:#999; stroke-width:3;" />
  <line x1="164" y1="50.0" x2="184" y2="50.0" style="stroke:#999; stroke-width:3;" />
  <rect class="anc_exon" x="184" y="35.0" width="123" height="30" style="fill:#87bcbc;fill-opacity:1.00" />
  <line x1="307" y1="50.0" x2="327" y2="50.0" style="stroke:#999; stroke-width:3;" />
  <line x1="327" y1="50.0" x2="327" y2="50.0" style="stroke:#999; stroke-width:3;" />
  <line x1="327" y1="50.0" x2="327" y2="50.0" style="stroke:#999; stroke-width:3;" />
  <line x1="327" y1="50.0" x2="347" y2="50.0" style="stroke:#999; stroke-width:3;" />
  <rect class="anc_exon" x="347" y="35.0" width="202" height="30" style="fill:#87bcbc;fill-opacity:1.00" />
  <line x1="549" y1="50.0" x2="569" y2="50.0" style="stroke:#999; stroke-width:3;" />
  <line x1="569" y1="50.0" x2="569" y2="50.0" style="stroke:#999; stroke-width:3;" />
  <line x1="569" y1="50.0" x2="569" y2="50.0" style="stroke:#999; stroke-width:3;" />
  <line x1="569" y1="50.0" x2="589" y2="50.0" style="stroke:#999; stroke-width:3;" />
  <rect class="anc_exon" x="589" y="35.0" width="180" height="30" style="fill:#87bcbc;fill-opacity:1.00" />
  <line x1="769" y1="50.0" x2="809" y2="50.0" style="stroke:#999; stroke-width:3;" />
  <rect class="anc_exon" x="809" y="35.0" width="106" height="30" style="fill:#87bcbc;fill-opacity:1.00" />
  <line x1="915" y1="50.0" x2="935" y2="50.0" style="stroke:#999; stroke-width:3;" />
  <line x1="935" y1="50.0" x2="935" y2="50.0" style="stroke:#999; stroke-width:3;" />
  <line x1="935" y1="50.0" x2="935" y2="50.0" style="stroke:#999; stroke-width:3;" />
  <line x1="935" y1="50.0" x2="955" y2="50.0" style="stroke:#999; stroke-width:3;" />
  <rect class="anc_exon" x="955" y="35.0" width="143" height="30" style="fill:#87bcbc;fill-opacity:1.00" />
  <line x1="1098" y1="50.0" x2="1138" y2="50.0" style="stroke:#999; stroke-width:3;" />
  <rect class="anc_exon" x="1138" y="35.0" width="76" height="30" style="fill:#87bcbc;fill-opacity:1.00" />
  <line x1="1214" y1="50.0" x2="1254" y2="50.0" style="stroke:#999; stroke-width:3;" />
  <rect class="anc_exon" x="1254" y="35.0" width="70" height="30" style="fill:#87bcbc;fill-opacity:1.00" />
  <line x1="1324" y1="50.0" x2="1344" y2="50.0" style="stroke:#999; stroke-width:3;" />
  <line x1="1344" y1="50.0" x2="1344" y2="50.0" style="stroke:#999; stroke-width:3;" />
  <line x1="1344" y1="50.0" x2="1344" y2="50.0" style="stroke:#999; stroke-width:3;" />
  <line x1="1344" y1="50.0" x2="1364" y2="50.0" style="stroke:#999; stroke-width:3;" />
  <rect class="anc_exon" x="1364" y="35.0" width="134" height="30" style="fill:#87bcbc;fill-opacity:1.00" />
  <line x1="1498" y1="50.0" x2="1518" y2="50.0" style="stroke:#999; stroke-width:3;" />
  <line x1="1518" y1="50.0" x2="1518" y2="50.0" style="stroke:#999; stroke-width:3;" />
  <line x1="1518" y1="50.0" x2="1518" y2="50.0" style="stroke:#999; stroke-width:3;" />
  <line x1="1518" y1="50.0" x2="1538" y2="50.0" style="stroke:#999; stroke-width:3;" />
  <rect class="anc_exon" x="1538" y="35.0" width="76" height="30" style="fill:#87bcbc;fill-opacity:1.00" />
  <line x1="1614" y1="50.0" x2="1634" y2="50.0" style="stroke:#999; stroke-width:3;" />
  <line x1="1634" y1="50.0" x2="1634" y2="50.0" style="stroke:#999; stroke-width:3;" />
  <line x1="1634" y1="50.0" x2="1634" y2="50.0" style="stroke:#999; stroke-width:3;" />
  <line x1="1634" y1="50.0" x2="1654" y2="50.0" style="stroke:#999; stroke-width:3;" />
  <rect class="anc_exon" x="1654" y="35.0" width="105" height="30" style="fill:#87bcbc;fill-opacity:1.00" />
  <line x1="1759" y1="50.0" x2="1779" y2="50.0" style="stroke:#999; stroke-width:3;" />
  <line x1="1779" y1="50.0" x2="1779" y2="50.0" style="stroke:#999; stroke-width:3;" />
  <line x1="1779" y1="50.0" x2="1779" y2="50.0" style="stroke:#999; stroke-width:3;" />
  <line x1="1779" y1="50.0" x2="1799" y2="50.0" style="stroke:#999; stroke-width:3;" />
  <rect class="anc_exon" x="1799" y="35.0" width="105" height="30" style="fill:#87bcbc;fill-opacity:1.00" />
  <line x1="1904" y1="50.0" x2="1944" y2="50.0" style="stroke:#999; stroke-width:3;" />
  <rect class="anc_exon" x="1944" y="35.0" width="131" height="30" style="fill:#87bcbc;fill-opacity:1.00" />
  <line x1="2075" y1="50.0" x2="2115" y2="50.0" style="stroke:#999; stroke-width:3;" />
  <rect class="anc_exon" x="2115" y="35.0" width="64" height="30" style="fill:#87bcbc;fill-opacity:1.00" />
  <line x1="2179" y1="50.0" x2="2199" y2="50.0" style="stroke:#999; stroke-width:3;" />
  <line x1="2199" y1="50.0" x2="2199" y2="50.0" style="stroke:#999; stroke-width:3;" />
  <line x1="2199" y1="50.0" x2="2199" y2="50.0" style="stroke:#999; stroke-width:3;" />
  <line x1="2199" y1="50.0" x2="2219" y2="50.0" style="stroke:#999; stroke-width:3;" />
  <rect class="anc_exon" x="2219" y="35.0" width="96" height="30" style="fill:#87bcbc;fill-opacity:1.00" />
  <line x1="2315" y1="50.0" x2="2355" y2="50.0" style="stroke:#999; stroke-width:3;" />
  <rect class="anc_exon" x="2355" y="35.0" width="105" height="30" style="fill:#87bcbc;fill-opacity:1.00" />
  <line x1="2460" y1="50.0" x2="2480" y2="50.0" style="stroke:#999; stroke-width:3;" />
  <line x1="2480" y1="50.0" x2="2480" y2="50.0" style="stroke:#999; stroke-width:3;" />
  <line x1="2480" y1="50.0" x2="2480" y2="50.0" style="stroke:#999; stroke-width:3;" />
  <line x1="2480" y1="50.0" x2="2500" y2="50.0" style="stroke:#999; stroke-width:3;" />
  <rect class="anc_exon" x="2500" y="35.0" width="67" height="30" style="fill:#87bcbc;fill-opacity:1.00" />
  <line x1="2567" y1="50.0" x2="2607" y2="50.0" style="stroke:#999; stroke-width:3;" />
  <rect class="anc_exon" x="2607" y="35.0" width="140" height="30" style="fill:#87bcbc;fill-opacity:1.00" />
  <line x1="2747" y1="50.0" x2="2767" y2="50.0" style="stroke:#999; stroke-width:3;" />
  <line x1="2767" y1="50.0" x2="2767" y2="50.0" style="stroke:#999; stroke-width:3;" />
  <line x1="2767" y1="50.0" x2="2767" y2="50.0" style="stroke:#999; stroke-width:3;" />
  <line x1="2767" y1="50.0" x2="2787" y2="50.0" style="stroke:#999; stroke-width:3;" />
  <rect class="anc_exon" x="2787" y="35.0" width="64" height="30" style="fill:#87bcbc;fill-opacity:1.00" />
  <line x1="2851" y1="50.0" x2="2891" y2="50.0" style="stroke:#999; stroke-width:3;" />
  <rect class="anc_exon" x="2891" y="35.0" width="168" height="30" style="fill:#87bcbc;fill-opacity:1.00" />
  <line x1="3059" y1="50.0" x2="3099" y2="50.0" style="stroke:#999; stroke-width:3;" />
  <rect class="anc_exon" x="3099" y="35.0" width="381" height="30" style="fill:#87bcbc;fill-opacity:1.00" />
  <rect class="anc_exon" x="3480" y="35.0" width="0" height="30" style="fill:#87bcbc;fill-opacity:1.00" />
  <text style="" >
<tspan x="0" y="83.0" style="font-size:18px;" >SP XM_031959187_1.1</tspan>  </text>



<script type="text/ecmascript">
<![CDATA[
function draw_bbox(text_id)
{
    var text_elem = document.getElementById(text_id);
    var offset_px = 2;
    var offset_py = 0;
    bbox = text_elem.getBBox();
    var box = document.createElementNS(document.rootElement.namespaceURI,'rect');
    box.setAttribute('x', bbox.x - offset_px);
    box.setAttribute('y', bbox.y - offset_py);
    box.setAttribute('width', bbox.width + offset_px * 2);
    box.setAttribute('height', bbox.height + offset_py * 2);
    box.setAttribute('style','fill: white;'+'stroke: black;'+'stroke-width: 1px;');
    text_elem.insertBefore(box,text_elem.childNodes[0]);

    var svg = text_elem.parentNode;
    svg.appendChild(text_elem);
}

for (var i=1; i < 1; i++)
{
draw_bbox("Mouseover" + i);
}
]]> 
</script>
</svg>
