<svg version="1.1"
xmlns="http://www.w3.org/2000/svg"
xmlns:xlink="http://www.w3.org/1999/xlink"
width="3248" height="100" viewBox = "0 0 3248 100"
onclick="mouseclick(evt)">

<script type="text/ecmascript">

<![CDATA[
    function mouseover(evt, target) { 
    var gv = document.getElementById("globalVariable");
    var previoustarget = gv.firstChild.nodeValue;
    if (previoustarget != "none") 
    {
        	document.getElementById(gv.firstChild.nodeValue).setAttributeNS(null, "visibility", "hidden");
    }
    document.getElementById(target).setAttributeNS(null, "visibility", "visible");
    gv.firstChild.nodeValue = target;
        }

    function mouseclick(evt) { 
    var gv = document.getElementById("globalVariable");
    var previoustarget = gv.firstChild.nodeValue;
    if (previoustarget != "none") {
        	document.getElementById(gv.firstChild.nodeValue).setAttributeNS(null, "visibility", "hidden");
        }
    }
]]>
  </script>
<style type="text/css" >

<![CDATA[
    rect.anc_exon {
              stroke-width:3;
                  }

    rect.non_anc_exon {
              stroke: black; stroke-width:3; stroke-dasharray: 5,5;
                    }

    text {
              font-size: 18px;
              font-family: Courier New;
          }
                    ]]>
</style>

<defs>
    <text x="150" y="40" id="globalVariable">none</text>
</defs>

  <rect class="anc_exon" x="0" y="35.0" width="0" height="30" style="fill:#87bcbc;fill-opacity:1.00" />
  <rect class="anc_exon" x="0" y="35.0" width="47.2" height="30" style="fill:#87bcbc;fill-opacity:1.00" />
  <line x1="47.2" y1="50.0" x2="66.2" y2="50.0" style="stroke:#999; stroke-width:3;" />
  <line x1="66.2" y1="50.0" x2="66.2" y2="50.0" style="stroke:#999; stroke-width:3;" />
  <line x1="66.2" y1="50.0" x2="66.2" y2="50.0" style="stroke:#999; stroke-width:3;" />
  <line x1="66.2" y1="50.0" x2="87.0" y2="50.0" style="stroke:#999; stroke-width:3;" />
  <rect class="anc_exon" x="87" y="35.0" width="104" height="30" style="fill:#87bcbc;fill-opacity:1.00" />
  <line x1="191" y1="50.0" x2="211" y2="50.0" style="stroke:#999; stroke-width:3;" />
  <line x1="211" y1="50.0" x2="211" y2="50.0" style="stroke:#999; stroke-width:3;" />
  <line x1="211" y1="50.0" x2="211" y2="50.0" style="stroke:#999; stroke-width:3;" />
  <line x1="211" y1="50.0" x2="231" y2="50.0" style="stroke:#999; stroke-width:3;" />
  <rect class="anc_exon" x="231" y="35.0" width="84" height="30" style="fill:#87bcbc;fill-opacity:1.00" />
  <line x1="315" y1="50.0" x2="335" y2="50.0" style="stroke:#999; stroke-width:3;" />
  <line x1="335" y1="50.0" x2="335" y2="50.0" style="stroke:#999; stroke-width:3;" />
  <line x1="335" y1="50.0" x2="335" y2="50.0" style="stroke:#999; stroke-width:3;" />
  <line x1="335" y1="50.0" x2="355" y2="50.0" style="stroke:#999; stroke-width:3;" />
  <rect class="anc_exon" x="355" y="35.0" width="62" height="30" style="fill:#87bcbc;fill-opacity:1.00" />
  <line x1="417" y1="50.0" x2="437" y2="50.0" style="stroke:#999; stroke-width:3;" />
  <line x1="437" y1="50.0" x2="437" y2="50.0" style="stroke:#999; stroke-width:3;" />
  <line x1="437" y1="50.0" x2="437" y2="50.0" style="stroke:#999; stroke-width:3;" />
  <line x1="437" y1="50.0" x2="457" y2="50.0" style="stroke:#999; stroke-width:3;" />
  <rect class="anc_exon" x="457" y="35.0" width="58" height="30" style="fill:#87bcbc;fill-opacity:1.00" />
  <line x1="515" y1="50.0" x2="535" y2="50.0" style="stroke:#999; stroke-width:3;" />
  <line x1="535" y1="50.0" x2="535" y2="50.0" style="stroke:#999; stroke-width:3;" />
  <line x1="535" y1="50.0" x2="535" y2="50.0" style="stroke:#999; stroke-width:3;" />
  <line x1="535" y1="50.0" x2="555" y2="50.0" style="stroke:#999; stroke-width:3;" />
  <rect class="anc_exon" x="555" y="35.0" width="82" height="30" style="fill:#87bcbc;fill-opacity:1.00" />
  <line x1="637" y1="50.0" x2="657" y2="50.0" style="stroke:#999; stroke-width:3;" />
  <line x1="657" y1="50.0" x2="657" y2="50.0" style="stroke:#999; stroke-width:3;" />
  <line x1="657" y1="50.0" x2="657" y2="50.0" style="stroke:#999; stroke-width:3;" />
  <line x1="657" y1="50.0" x2="677" y2="50.0" style="stroke:#999; stroke-width:3;" />
  <rect class="anc_exon" x="677" y="35.0" width="140" height="30" style="fill:#87bcbc;fill-opacity:1.00" />
  <line x1="817" y1="50.0" x2="837" y2="50.0" style="stroke:#999; stroke-width:3;" />
  <line x1="837" y1="50.0" x2="837" y2="50.0" style="stroke:#999; stroke-width:3;" />
  <line x1="837" y1="50.0" x2="837" y2="50.0" style="stroke:#999; stroke-width:3;" />
  <line x1="837" y1="50.0" x2="857" y2="50.0" style="stroke:#999; stroke-width:3;" />
  <rect class="anc_exon" x="857" y="35.0" width="98" height="30" style="fill:#87bcbc;fill-opacity:1.00" />
  <line x1="955" y1="50.0" x2="975" y2="50.0" style="stroke:#999; stroke-width:3;" />
  <line x1="975" y1="50.0" x2="975" y2="50.0" style="stroke:#999; stroke-width:3;" />
  <line x1="975" y1="50.0" x2="975" y2="50.0" style="stroke:#999; stroke-width:3;" />
  <line x1="975" y1="50.0" x2="995" y2="50.0" style="stroke:#999; stroke-width:3;" />
  <rect class="anc_exon" x="995" y="35.0" width="67" height="30" style="fill:#87bcbc;fill-opacity:1.00" />
  <line x1="1062" y1="50.0" x2="1082" y2="50.0" style="stroke:#999; stroke-width:3;" />
  <line x1="1082" y1="50.0" x2="1082" y2="50.0" style="stroke:#999; stroke-width:3;" />
  <line x1="1082" y1="50.0" x2="1082" y2="50.0" style="stroke:#999; stroke-width:3;" />
  <line x1="1082" y1="50.0" x2="1102" y2="50.0" style="stroke:#999; stroke-width:3;" />
  <rect class="anc_exon" x="1102" y="35.0" width="80" height="30" style="fill:#87bcbc;fill-opacity:1.00" />
  <line x1="1182" y1="50.0" x2="1202" y2="50.0" style="stroke:#999; stroke-width:3;" />
  <line x1="1202" y1="50.0" x2="1202" y2="50.0" style="stroke:#999; stroke-width:3;" />
  <line x1="1202" y1="50.0" x2="1202" y2="50.0" style="stroke:#999; stroke-width:3;" />
  <line x1="1202" y1="50.0" x2="1222" y2="50.0" style="stroke:#999; stroke-width:3;" />
  <rect class="anc_exon" x="1222" y="35.0" width="97" height="30" style="fill:#87bcbc;fill-opacity:1.00" />
  <line x1="1319" y1="50.0" x2="1339" y2="50.0" style="stroke:#999; stroke-width:3;" />
  <line x1="1339" y1="50.0" x2="1339" y2="50.0" style="stroke:#999; stroke-width:3;" />
  <line x1="1339" y1="50.0" x2="1339" y2="50.0" style="stroke:#999; stroke-width:3;" />
  <line x1="1339" y1="50.0" x2="1359" y2="50.0" style="stroke:#999; stroke-width:3;" />
  <rect class="anc_exon" x="1359" y="35.0" width="62" height="30" style="fill:#87bcbc;fill-opacity:1.00" />
  <line x1="1421" y1="50.0" x2="1441" y2="50.0" style="stroke:#999; stroke-width:3;" />
  <line x1="1441" y1="50.0" x2="1441" y2="50.0" style="stroke:#999; stroke-width:3;" />
  <line x1="1441" y1="50.0" x2="1441" y2="50.0" style="stroke:#999; stroke-width:3;" />
  <line x1="1441" y1="50.0" x2="1461" y2="50.0" style="stroke:#999; stroke-width:3;" />
  <rect class="anc_exon" x="1461" y="35.0" width="64" height="30" style="fill:#87bcbc;fill-opacity:1.00" />
  <line x1="1525" y1="50.0" x2="1545" y2="50.0" style="stroke:#999; stroke-width:3;" />
  <line x1="1545" y1="50.0" x2="1545" y2="50.0" style="stroke:#999; stroke-width:3;" />
  <line x1="1545" y1="50.0" x2="1545" y2="50.0" style="stroke:#999; stroke-width:3;" />
  <line x1="1545" y1="50.0" x2="1565" y2="50.0" style="stroke:#999; stroke-width:3;" />
  <rect class="anc_exon" x="1565" y="35.0" width="151" height="30" style="fill:#87bcbc;fill-opacity:1.00" />
  <line x1="1716" y1="50.0" x2="1736" y2="50.0" style="stroke:#999; stroke-width:3;" />
  <line x1="1736" y1="50.0" x2="1736" y2="50.0" style="stroke:#999; stroke-width:3;" />
  <line x1="1736" y1="50.0" x2="1736" y2="50.0" style="stroke:#999; stroke-width:3;" />
  <line x1="1736" y1="50.0" x2="1756" y2="50.0" style="stroke:#999; stroke-width:3;" />
  <rect class="anc_exon" x="1756" y="35.0" width="63" height="30" style="fill:#87bcbc;fill-opacity:1.00" />
  <line x1="1819" y1="50.0" x2="1839" y2="50.0" style="stroke:#999; stroke-width:3;" />
  <line x1="1839" y1="50.0" x2="1839" y2="50.0" style="stroke:#999; stroke-width:3;" />
  <line x1="1839" y1="50.0" x2="1839" y2="50.0" style="stroke:#999; stroke-width:3;" />
  <line x1="1839" y1="50.0" x2="1859" y2="50.0" style="stroke:#999; stroke-width:3;" />
  <rect class="anc_exon" x="1859" y="35.0" width="68" height="30" style="fill:#87bcbc;fill-opacity:1.00" />
  <line x1="1927" y1="50.0" x2="1967" y2="50.0" style="stroke:#999; stroke-width:3;" />
  <rect class="anc_exon" x="1967" y="35.0" width="55" height="30" style="fill:#87bcbc;fill-opacity:1.00" />
  <line x1="2022" y1="50.0" x2="2042" y2="50.0" style="stroke:#999; stroke-width:3;" />
  <line x1="2042" y1="50.0" x2="2042" y2="50.0" style="stroke:#999; stroke-width:3;" />
  <line x1="2042" y1="50.0" x2="2042" y2="50.0" style="stroke:#999; stroke-width:3;" />
  <line x1="2042" y1="50.0" x2="2062" y2="50.0" style="stroke:#999; stroke-width:3;" />
  <rect class="anc_exon" x="2062" y="35.0" width="55" height="30" style="fill:#87bcbc;fill-opacity:1.00" />
  <line x1="2117" y1="50.0" x2="2157" y2="50.0" style="stroke:#999; stroke-width:3;" />
  <rect class="anc_exon" x="2157" y="35.0" width="28" height="30" style="fill:#87bcbc;fill-opacity:1.00" />
  <line x1="2185" y1="50.0" x2="2205" y2="50.0" style="stroke:#999; stroke-width:3;" />
  <line x1="2205" y1="50.0" x2="2205" y2="50.0" style="stroke:#999; stroke-width:3;" />
  <line x1="2205" y1="50.0" x2="2205" y2="50.0" style="stroke:#999; stroke-width:3;" />
  <line x1="2205" y1="50.0" x2="2225" y2="50.0" style="stroke:#999; stroke-width:3;" />
  <rect class="anc_exon" x="2225" y="35.0" width="157" height="30" style="fill:#87bcbc;fill-opacity:1.00" />
  <line x1="2382" y1="50.0" x2="2402" y2="50.0" style="stroke:#999; stroke-width:3;" />
  <line x1="2402" y1="50.0" x2="2402" y2="50.0" style="stroke:#999; stroke-width:3;" />
  <line x1="2402" y1="50.0" x2="2402" y2="50.0" style="stroke:#999; stroke-width:3;" />
  <line x1="2402" y1="50.0" x2="2422" y2="50.0" style="stroke:#999; stroke-width:3;" />
  <rect class="anc_exon" x="2422" y="35.0" width="92" height="30" style="fill:#87bcbc;fill-opacity:1.00" />
  <line x1="2514" y1="50.0" x2="2534" y2="50.0" style="stroke:#999; stroke-width:3;" />
  <line x1="2534" y1="50.0" x2="2534" y2="50.0" style="stroke:#999; stroke-width:3;" />
  <line x1="2534" y1="50.0" x2="2534" y2="50.0" style="stroke:#999; stroke-width:3;" />
  <line x1="2534" y1="50.0" x2="2554" y2="50.0" style="stroke:#999; stroke-width:3;" />
  <rect class="anc_exon" x="2554" y="35.0" width="64" height="30" style="fill:#87bcbc;fill-opacity:1.00" />
  <line x1="2618" y1="50.0" x2="2658" y2="50.0" style="stroke:#999; stroke-width:3;" />
  <rect class="anc_exon" x="2658" y="35.0" width="64" height="30" style="fill:#87bcbc;fill-opacity:1.00" />
  <line x1="2722" y1="50.0" x2="2742" y2="50.0" style="stroke:#999; stroke-width:3;" />
  <line x1="2742" y1="50.0" x2="2742" y2="50.0" style="stroke:#999; stroke-width:3;" />
  <line x1="2742" y1="50.0" x2="2742" y2="50.0" style="stroke:#999; stroke-width:3;" />
  <line x1="2742" y1="50.0" x2="2762" y2="50.0" style="stroke:#999; stroke-width:3;" />
  <rect class="anc_exon" x="2762" y="35.0" width="162" height="30" style="fill:#87bcbc;fill-opacity:1.00" />
  <line x1="2924" y1="50.0" x2="2944" y2="50.0" style="stroke:#999; stroke-width:3;" />
  <line x1="2944" y1="50.0" x2="2944" y2="50.0" style="stroke:#999; stroke-width:3;" />
  <line x1="2944" y1="50.0" x2="2944" y2="50.0" style="stroke:#999; stroke-width:3;" />
  <line x1="2944" y1="50.0" x2="2964" y2="50.0" style="stroke:#999; stroke-width:3;" />
  <rect class="anc_exon" x="2964" y="35.0" width="67" height="30" style="fill:#87bcbc;fill-opacity:1.00" />
  <line x1="3031" y1="50.0" x2="3051" y2="50.0" style="stroke:#999; stroke-width:3;" />
  <line x1="3051" y1="50.0" x2="3051" y2="50.0" style="stroke:#999; stroke-width:3;" />
  <line x1="3051" y1="50.0" x2="3051" y2="50.0" style="stroke:#999; stroke-width:3;" />
  <line x1="3051" y1="50.0" x2="3071" y2="50.0" style="stroke:#999; stroke-width:3;" />
  <rect class="anc_exon" x="3071" y="35.0" width="141" height="30" style="fill:#87bcbc;fill-opacity:1.00" />
  <rect class="anc_exon" x="3212" y="35.0" width="0" height="30" style="fill:#87bcbc;fill-opacity:1.00" />
  <text style="" >
<tspan x="0" y="83.0" style="font-size:18px;" >SP XM_031959390_1.1</tspan>  </text>



<script type="text/ecmascript">
<![CDATA[
function draw_bbox(text_id)
{
    var text_elem = document.getElementById(text_id);
    var offset_px = 2;
    var offset_py = 0;
    bbox = text_elem.getBBox();
    var box = document.createElementNS(document.rootElement.namespaceURI,'rect');
    box.setAttribute('x', bbox.x - offset_px);
    box.setAttribute('y', bbox.y - offset_py);
    box.setAttribute('width', bbox.width + offset_px * 2);
    box.setAttribute('height', bbox.height + offset_py * 2);
    box.setAttribute('style','fill: white;'+'stroke: black;'+'stroke-width: 1px;');
    text_elem.insertBefore(box,text_elem.childNodes[0]);

    var svg = text_elem.parentNode;
    svg.appendChild(text_elem);
}

for (var i=1; i < 1; i++)
{
draw_bbox("Mouseover" + i);
}
]]> 
</script>
</svg>
