<svg version="1.1"
xmlns="http://www.w3.org/2000/svg"
xmlns:xlink="http://www.w3.org/1999/xlink"
width="2138" height="100" viewBox = "0 0 2138 100"
onclick="mouseclick(evt)">

<script type="text/ecmascript">

<![CDATA[
    function mouseover(evt, target) { 
    var gv = document.getElementById("globalVariable");
    var previoustarget = gv.firstChild.nodeValue;
    if (previoustarget != "none") 
    {
        	document.getElementById(gv.firstChild.nodeValue).setAttributeNS(null, "visibility", "hidden");
    }
    document.getElementById(target).setAttributeNS(null, "visibility", "visible");
    gv.firstChild.nodeValue = target;
        }

    function mouseclick(evt) { 
    var gv = document.getElementById("globalVariable");
    var previoustarget = gv.firstChild.nodeValue;
    if (previoustarget != "none") {
        	document.getElementById(gv.firstChild.nodeValue).setAttributeNS(null, "visibility", "hidden");
        }
    }
]]>
  </script>
<style type="text/css" >

<![CDATA[
    rect.anc_exon {
              stroke-width:3;
                  }

    rect.non_anc_exon {
              stroke: black; stroke-width:3; stroke-dasharray: 5,5;
                    }

    text {
              font-size: 18px;
              font-family: Courier New;
          }
                    ]]>
</style>

<defs>
    <text x="150" y="40" id="globalVariable">none</text>
</defs>

  <rect class="anc_exon" x="0" y="35.0" width="0" height="30" style="fill:#87bcbc;fill-opacity:1.00" />
  <rect class="anc_exon" x="0" y="35.0" width="140.0" height="30" style="fill:#87bcbc;fill-opacity:1.00" />
  <line x1="140.0" y1="50.0" x2="160.0" y2="50.0" style="stroke:#999; stroke-width:3;" />
  <line x1="160.0" y1="50.0" x2="160.0" y2="50.0" style="stroke:#999; stroke-width:3;" />
  <line x1="160.0" y1="50.0" x2="160.0" y2="50.0" style="stroke:#999; stroke-width:3;" />
  <line x1="160.0" y1="50.0" x2="180.0" y2="50.0" style="stroke:#999; stroke-width:3;" />
  <rect class="anc_exon" x="180" y="35.0" width="80" height="30" style="fill:#87bcbc;fill-opacity:1.00" />
  <line x1="260" y1="50.0" x2="280" y2="50.0" style="stroke:#999; stroke-width:3;" />
  <line x1="280" y1="50.0" x2="280" y2="50.0" style="stroke:#999; stroke-width:3;" />
  <line x1="280" y1="50.0" x2="280" y2="50.0" style="stroke:#999; stroke-width:3;" />
  <line x1="280" y1="50.0" x2="300" y2="50.0" style="stroke:#999; stroke-width:3;" />
  <rect class="anc_exon" x="300" y="35.0" width="84" height="30" style="fill:#87bcbc;fill-opacity:1.00" />
  <line x1="384" y1="50.0" x2="424" y2="50.0" style="stroke:#999; stroke-width:3;" />
  <rect class="anc_exon" x="424" y="35.0" width="123" height="30" style="fill:#87bcbc;fill-opacity:1.00" />
  <line x1="547" y1="50.0" x2="567" y2="50.0" style="stroke:#999; stroke-width:3;" />
  <line x1="567" y1="50.0" x2="567" y2="50.0" style="stroke:#999; stroke-width:3;" />
  <line x1="567" y1="50.0" x2="567" y2="50.0" style="stroke:#999; stroke-width:3;" />
  <line x1="567" y1="50.0" x2="587" y2="50.0" style="stroke:#999; stroke-width:3;" />
  <rect class="anc_exon" x="587" y="35.0" width="30" height="30" style="fill:#87bcbc;fill-opacity:1.00" />
  <line x1="617" y1="50.0" x2="657" y2="50.0" style="stroke:#999; stroke-width:3;" />
  <rect class="anc_exon" x="657" y="35.0" width="55" height="30" style="fill:#87bcbc;fill-opacity:1.00" />
  <line x1="712" y1="50.0" x2="752" y2="50.0" style="stroke:#999; stroke-width:3;" />
  <rect class="anc_exon" x="752" y="35.0" width="108" height="30" style="fill:#878787;fill-opacity:1.00" />
  <line x1="860" y1="50.0" x2="900" y2="50.0" style="stroke:#999; stroke-width:3;" />
  <rect class="anc_exon" x="900" y="35.0" width="130" height="30" style="fill:#878787;fill-opacity:1.00" />
  <line x1="1030" y1="50.0" x2="1070" y2="50.0" style="stroke:#999; stroke-width:3;" />
  <rect class="anc_exon" x="1070" y="35.0" width="19" height="30" style="fill:#878787;fill-opacity:1.00" />
  <line x1="1089" y1="50.0" x2="1129" y2="50.0" style="stroke:#999; stroke-width:3;" />
  <rect class="anc_exon" x="1129" y="35.0" width="51" height="30" style="fill:#87bcbc;fill-opacity:1.00" />
  <line x1="1180" y1="50.0" x2="1200" y2="50.0" style="stroke:#999; stroke-width:3;" />
  <line x1="1200" y1="50.0" x2="1200" y2="50.0" style="stroke:#999; stroke-width:3;" />
  <line x1="1200" y1="50.0" x2="1200" y2="50.0" style="stroke:#999; stroke-width:3;" />
  <line x1="1200" y1="50.0" x2="1220" y2="50.0" style="stroke:#999; stroke-width:3;" />
  <rect class="anc_exon" x="1220" y="35.0" width="39" height="30" style="fill:#87bcbc;fill-opacity:1.00" />
  <line x1="1259" y1="50.0" x2="1299" y2="50.0" style="stroke:#999; stroke-width:3;" />
  <rect class="anc_exon" x="1299" y="35.0" width="90" height="30" style="fill:#87bcbc;fill-opacity:1.00" />
  <line x1="1389" y1="50.0" x2="1409" y2="50.0" style="stroke:#999; stroke-width:3;" />
  <line x1="1409" y1="50.0" x2="1409" y2="50.0" style="stroke:#999; stroke-width:3;" />
  <line x1="1409" y1="50.0" x2="1409" y2="50.0" style="stroke:#999; stroke-width:3;" />
  <line x1="1409" y1="50.0" x2="1429" y2="50.0" style="stroke:#999; stroke-width:3;" />
  <rect class="anc_exon" x="1429" y="35.0" width="94" height="30" style="fill:#87bcbc;fill-opacity:1.00" />
  <line x1="1523" y1="50.0" x2="1563" y2="50.0" style="stroke:#999; stroke-width:3;" />
  <rect class="anc_exon" x="1563" y="35.0" width="80" height="30" style="fill:#87bcbc;fill-opacity:1.00" />
  <line x1="1643" y1="50.0" x2="1683" y2="50.0" style="stroke:#999; stroke-width:3;" />
  <rect class="anc_exon" x="1683" y="35.0" width="157" height="30" style="fill:#87bcbc;fill-opacity:1.00" />
  <line x1="1840" y1="50.0" x2="1880" y2="50.0" style="stroke:#999; stroke-width:3;" />
  <rect class="anc_exon" x="1880" y="35.0" width="110" height="30" style="fill:#87bcbc;fill-opacity:1.00" />
  <line x1="1990" y1="50.0" x2="2010" y2="50.0" style="stroke:#999; stroke-width:3;" />
  <line x1="2010" y1="50.0" x2="2010" y2="50.0" style="stroke:#999; stroke-width:3;" />
  <line x1="2010" y1="50.0" x2="2010" y2="50.0" style="stroke:#999; stroke-width:3;" />
  <line x1="2010" y1="50.0" x2="2030" y2="50.0" style="stroke:#999; stroke-width:3;" />
  <rect class="anc_exon" x="2030" y="35.0" width="72" height="30" style="fill:#87bcbc;fill-opacity:1.00" />
  <rect class="anc_exon" x="2102" y="35.0" width="0" height="30" style="fill:#87bcbc;fill-opacity:1.00" />
  <text style="" >
<tspan x="0" y="83.0" style="font-size:18px;" >SP XM_031944336_1.1</tspan>  </text>



<script type="text/ecmascript">
<![CDATA[
function draw_bbox(text_id)
{
    var text_elem = document.getElementById(text_id);
    var offset_px = 2;
    var offset_py = 0;
    bbox = text_elem.getBBox();
    var box = document.createElementNS(document.rootElement.namespaceURI,'rect');
    box.setAttribute('x', bbox.x - offset_px);
    box.setAttribute('y', bbox.y - offset_py);
    box.setAttribute('width', bbox.width + offset_px * 2);
    box.setAttribute('height', bbox.height + offset_py * 2);
    box.setAttribute('style','fill: white;'+'stroke: black;'+'stroke-width: 1px;');
    text_elem.insertBefore(box,text_elem.childNodes[0]);

    var svg = text_elem.parentNode;
    svg.appendChild(text_elem);
}

for (var i=1; i < 1; i++)
{
draw_bbox("Mouseover" + i);
}
]]> 
</script>
</svg>
