<svg version="1.1"
xmlns="http://www.w3.org/2000/svg"
xmlns:xlink="http://www.w3.org/1999/xlink"
width="1860" height="100" viewBox = "0 0 1860 100"
onclick="mouseclick(evt)">

<script type="text/ecmascript">

<![CDATA[
    function mouseover(evt, target) { 
    var gv = document.getElementById("globalVariable");
    var previoustarget = gv.firstChild.nodeValue;
    if (previoustarget != "none") 
    {
        	document.getElementById(gv.firstChild.nodeValue).setAttributeNS(null, "visibility", "hidden");
    }
    document.getElementById(target).setAttributeNS(null, "visibility", "visible");
    gv.firstChild.nodeValue = target;
        }

    function mouseclick(evt) { 
    var gv = document.getElementById("globalVariable");
    var previoustarget = gv.firstChild.nodeValue;
    if (previoustarget != "none") {
        	document.getElementById(gv.firstChild.nodeValue).setAttributeNS(null, "visibility", "hidden");
        }
    }
]]>
  </script>
<style type="text/css" >

<![CDATA[
    rect.anc_exon {
              stroke-width:3;
                  }

    rect.non_anc_exon {
              stroke: black; stroke-width:3; stroke-dasharray: 5,5;
                    }

    text {
              font-size: 18px;
              font-family: Courier New;
          }
                    ]]>
</style>

<defs>
    <text x="150" y="40" id="globalVariable">none</text>
</defs>

  <rect class="anc_exon" x="0" y="35.0" width="0" height="30" style="fill:#87bcbc;fill-opacity:1.00" />
  <rect class="anc_exon" x="0" y="35.0" width="140.0" height="30" style="fill:#87bcbc;fill-opacity:1.00" />
  <line x1="140.0" y1="50.0" x2="160.0" y2="50.0" style="stroke:#999; stroke-width:3;" />
  <line x1="160.0" y1="50.0" x2="160.0" y2="50.0" style="stroke:#999; stroke-width:3;" />
  <line x1="160.0" y1="50.0" x2="160.0" y2="50.0" style="stroke:#999; stroke-width:3;" />
  <line x1="160.0" y1="50.0" x2="180.0" y2="50.0" style="stroke:#999; stroke-width:3;" />
  <rect class="anc_exon" x="180" y="35.0" width="80" height="30" style="fill:#87bcbc;fill-opacity:1.00" />
  <line x1="260" y1="50.0" x2="280" y2="50.0" style="stroke:#999; stroke-width:3;" />
  <line x1="280" y1="50.0" x2="280" y2="50.0" style="stroke:#999; stroke-width:3;" />
  <line x1="280" y1="50.0" x2="280" y2="50.0" style="stroke:#999; stroke-width:3;" />
  <line x1="280" y1="50.0" x2="300" y2="50.0" style="stroke:#999; stroke-width:3;" />
  <rect class="anc_exon" x="300" y="35.0" width="123" height="30" style="fill:#87bcbc;fill-opacity:1.00" />
  <line x1="423" y1="50.0" x2="443" y2="50.0" style="stroke:#999; stroke-width:3;" />
  <line x1="443" y1="50.0" x2="443" y2="50.0" style="stroke:#999; stroke-width:3;" />
  <line x1="443" y1="50.0" x2="443" y2="50.0" style="stroke:#999; stroke-width:3;" />
  <line x1="443" y1="50.0" x2="463" y2="50.0" style="stroke:#999; stroke-width:3;" />
  <rect class="anc_exon" x="463" y="35.0" width="30" height="30" style="fill:#87bcbc;fill-opacity:1.00" />
  <line x1="493" y1="50.0" x2="513" y2="50.0" style="stroke:#999; stroke-width:3;" />
  <line x1="513" y1="50.0" x2="513" y2="50.0" style="stroke:#999; stroke-width:3;" />
  <line x1="513" y1="50.0" x2="513" y2="50.0" style="stroke:#999; stroke-width:3;" />
  <line x1="513" y1="50.0" x2="533" y2="50.0" style="stroke:#999; stroke-width:3;" />
  <rect class="anc_exon" x="533" y="35.0" width="108" height="30" style="fill:#878787;fill-opacity:1.00" />
  <line x1="641" y1="50.0" x2="681" y2="50.0" style="stroke:#999; stroke-width:3;" />
  <rect class="anc_exon" x="681" y="35.0" width="130" height="30" style="fill:#878787;fill-opacity:1.00" />
  <line x1="811" y1="50.0" x2="851" y2="50.0" style="stroke:#999; stroke-width:3;" />
  <rect class="anc_exon" x="851" y="35.0" width="51" height="30" style="fill:#87bcbc;fill-opacity:1.00" />
  <line x1="902" y1="50.0" x2="922" y2="50.0" style="stroke:#999; stroke-width:3;" />
  <line x1="922" y1="50.0" x2="922" y2="50.0" style="stroke:#999; stroke-width:3;" />
  <line x1="922" y1="50.0" x2="922" y2="50.0" style="stroke:#999; stroke-width:3;" />
  <line x1="922" y1="50.0" x2="942" y2="50.0" style="stroke:#999; stroke-width:3;" />
  <rect class="anc_exon" x="942" y="35.0" width="39" height="30" style="fill:#87bcbc;fill-opacity:1.00" />
  <line x1="981" y1="50.0" x2="1021" y2="50.0" style="stroke:#999; stroke-width:3;" />
  <rect class="anc_exon" x="1021" y="35.0" width="90" height="30" style="fill:#87bcbc;fill-opacity:1.00" />
  <line x1="1111" y1="50.0" x2="1131" y2="50.0" style="stroke:#999; stroke-width:3;" />
  <line x1="1131" y1="50.0" x2="1131" y2="50.0" style="stroke:#999; stroke-width:3;" />
  <line x1="1131" y1="50.0" x2="1131" y2="50.0" style="stroke:#999; stroke-width:3;" />
  <line x1="1131" y1="50.0" x2="1151" y2="50.0" style="stroke:#999; stroke-width:3;" />
  <rect class="anc_exon" x="1151" y="35.0" width="94" height="30" style="fill:#87bcbc;fill-opacity:1.00" />
  <line x1="1245" y1="50.0" x2="1285" y2="50.0" style="stroke:#999; stroke-width:3;" />
  <rect class="anc_exon" x="1285" y="35.0" width="80" height="30" style="fill:#87bcbc;fill-opacity:1.00" />
  <line x1="1365" y1="50.0" x2="1405" y2="50.0" style="stroke:#999; stroke-width:3;" />
  <rect class="anc_exon" x="1405" y="35.0" width="157" height="30" style="fill:#87bcbc;fill-opacity:1.00" />
  <line x1="1562" y1="50.0" x2="1602" y2="50.0" style="stroke:#999; stroke-width:3;" />
  <rect class="anc_exon" x="1602" y="35.0" width="110" height="30" style="fill:#87bcbc;fill-opacity:1.00" />
  <line x1="1712" y1="50.0" x2="1732" y2="50.0" style="stroke:#999; stroke-width:3;" />
  <line x1="1732" y1="50.0" x2="1732" y2="50.0" style="stroke:#999; stroke-width:3;" />
  <line x1="1732" y1="50.0" x2="1732" y2="50.0" style="stroke:#999; stroke-width:3;" />
  <line x1="1732" y1="50.0" x2="1752" y2="50.0" style="stroke:#999; stroke-width:3;" />
  <rect class="anc_exon" x="1752" y="35.0" width="72" height="30" style="fill:#87bcbc;fill-opacity:1.00" />
  <rect class="anc_exon" x="1824" y="35.0" width="0" height="30" style="fill:#87bcbc;fill-opacity:1.00" />
  <text style="" >
<tspan x="0" y="83.0" style="font-size:18px;" >SP XM_031944342_1.1</tspan>  </text>



<script type="text/ecmascript">
<![CDATA[
function draw_bbox(text_id)
{
    var text_elem = document.getElementById(text_id);
    var offset_px = 2;
    var offset_py = 0;
    bbox = text_elem.getBBox();
    var box = document.createElementNS(document.rootElement.namespaceURI,'rect');
    box.setAttribute('x', bbox.x - offset_px);
    box.setAttribute('y', bbox.y - offset_py);
    box.setAttribute('width', bbox.width + offset_px * 2);
    box.setAttribute('height', bbox.height + offset_py * 2);
    box.setAttribute('style','fill: white;'+'stroke: black;'+'stroke-width: 1px;');
    text_elem.insertBefore(box,text_elem.childNodes[0]);

    var svg = text_elem.parentNode;
    svg.appendChild(text_elem);
}

for (var i=1; i < 1; i++)
{
draw_bbox("Mouseover" + i);
}
]]> 
</script>
</svg>
