<svg version="1.1"
xmlns="http://www.w3.org/2000/svg"
xmlns:xlink="http://www.w3.org/1999/xlink"
width="2831" height="100" viewBox = "0 0 2831 100"
onclick="mouseclick(evt)">

<script type="text/ecmascript">

<![CDATA[
    function mouseover(evt, target) { 
    var gv = document.getElementById("globalVariable");
    var previoustarget = gv.firstChild.nodeValue;
    if (previoustarget != "none") 
    {
        	document.getElementById(gv.firstChild.nodeValue).setAttributeNS(null, "visibility", "hidden");
    }
    document.getElementById(target).setAttributeNS(null, "visibility", "visible");
    gv.firstChild.nodeValue = target;
        }

    function mouseclick(evt) { 
    var gv = document.getElementById("globalVariable");
    var previoustarget = gv.firstChild.nodeValue;
    if (previoustarget != "none") {
        	document.getElementById(gv.firstChild.nodeValue).setAttributeNS(null, "visibility", "hidden");
        }
    }
]]>
  </script>
<style type="text/css" >

<![CDATA[
    rect.anc_exon {
              stroke-width:3;
                  }

    rect.non_anc_exon {
              stroke: black; stroke-width:3; stroke-dasharray: 5,5;
                    }

    text {
              font-size: 18px;
              font-family: Courier New;
          }
                    ]]>
</style>

<defs>
    <text x="150" y="40" id="globalVariable">none</text>
</defs>

  <rect class="anc_exon" x="0" y="35.0" width="0" height="30" style="fill:#87bcbc;fill-opacity:1.00" />
  <rect class="anc_exon" x="0" y="35.0" width="123.2" height="30" style="fill:#87bcbc;fill-opacity:1.00" />
  <line x1="123.2" y1="50.0" x2="142.2" y2="50.0" style="stroke:#999; stroke-width:3;" />
  <line x1="142.2" y1="50.0" x2="142.2" y2="50.0" style="stroke:#999; stroke-width:3;" />
  <line x1="142.2" y1="50.0" x2="142.2" y2="50.0" style="stroke:#999; stroke-width:3;" />
  <line x1="142.2" y1="50.0" x2="163.0" y2="50.0" style="stroke:#999; stroke-width:3;" />
  <rect class="anc_exon" x="163" y="35.0" width="76" height="30" style="fill:#87bcbc;fill-opacity:1.00" />
  <line x1="239" y1="50.0" x2="259" y2="50.0" style="stroke:#999; stroke-width:3;" />
  <line x1="259" y1="50.0" x2="259" y2="50.0" style="stroke:#999; stroke-width:3;" />
  <line x1="259" y1="50.0" x2="259" y2="50.0" style="stroke:#999; stroke-width:3;" />
  <line x1="259" y1="50.0" x2="279" y2="50.0" style="stroke:#999; stroke-width:3;" />
  <rect class="anc_exon" x="279" y="35.0" width="49" height="30" style="fill:#878787;fill-opacity:1.00" />
  <line x1="328" y1="50.0" x2="348" y2="50.0" style="stroke:#999; stroke-width:3;" />
  <line x1="348" y1="50.0" x2="348" y2="50.0" style="stroke:#999; stroke-width:3;" />
  <line x1="348" y1="50.0" x2="348" y2="50.0" style="stroke:#999; stroke-width:3;" />
  <line x1="348" y1="50.0" x2="368" y2="50.0" style="stroke:#999; stroke-width:3;" />
  <rect class="anc_exon" x="368" y="35.0" width="57" height="30" style="fill:#87bcbc;fill-opacity:1.00" />
  <line x1="425" y1="50.0" x2="445" y2="50.0" style="stroke:#999; stroke-width:3;" />
  <line x1="445" y1="50.0" x2="445" y2="50.0" style="stroke:#999; stroke-width:3;" />
  <line x1="445" y1="50.0" x2="445" y2="50.0" style="stroke:#999; stroke-width:3;" />
  <line x1="445" y1="50.0" x2="465" y2="50.0" style="stroke:#999; stroke-width:3;" />
  <rect class="anc_exon" x="465" y="35.0" width="81" height="30" style="fill:#87bcbc;fill-opacity:1.00" />
  <line x1="546" y1="50.0" x2="566" y2="50.0" style="stroke:#999; stroke-width:3;" />
  <line x1="566" y1="50.0" x2="566" y2="50.0" style="stroke:#999; stroke-width:3;" />
  <line x1="566" y1="50.0" x2="566" y2="50.0" style="stroke:#999; stroke-width:3;" />
  <line x1="566" y1="50.0" x2="586" y2="50.0" style="stroke:#999; stroke-width:3;" />
  <rect class="anc_exon" x="586" y="35.0" width="88" height="30" style="fill:#87bcbc;fill-opacity:1.00" />
  <line x1="674" y1="50.0" x2="714" y2="50.0" style="stroke:#999; stroke-width:3;" />
  <rect class="anc_exon" x="714" y="35.0" width="84" height="30" style="fill:#87bcbc;fill-opacity:1.00" />
  <line x1="798" y1="50.0" x2="838" y2="50.0" style="stroke:#999; stroke-width:3;" />
  <rect class="anc_exon" x="838" y="35.0" width="104" height="30" style="fill:#87bcbc;fill-opacity:1.00" />
  <line x1="942" y1="50.0" x2="962" y2="50.0" style="stroke:#999; stroke-width:3;" />
  <line x1="962" y1="50.0" x2="962" y2="50.0" style="stroke:#999; stroke-width:3;" />
  <line x1="962" y1="50.0" x2="962" y2="50.0" style="stroke:#999; stroke-width:3;" />
  <line x1="962" y1="50.0" x2="982" y2="50.0" style="stroke:#999; stroke-width:3;" />
  <rect class="anc_exon" x="982" y="35.0" width="80" height="30" style="fill:#87bcbc;fill-opacity:1.00" />
  <line x1="1062" y1="50.0" x2="1082" y2="50.0" style="stroke:#999; stroke-width:3;" />
  <line x1="1082" y1="50.0" x2="1082" y2="50.0" style="stroke:#999; stroke-width:3;" />
  <line x1="1082" y1="50.0" x2="1082" y2="50.0" style="stroke:#999; stroke-width:3;" />
  <line x1="1082" y1="50.0" x2="1102" y2="50.0" style="stroke:#999; stroke-width:3;" />
  <rect class="anc_exon" x="1102" y="35.0" width="73" height="30" style="fill:#87bcbc;fill-opacity:1.00" />
  <line x1="1175" y1="50.0" x2="1195" y2="50.0" style="stroke:#999; stroke-width:3;" />
  <line x1="1195" y1="50.0" x2="1195" y2="50.0" style="stroke:#999; stroke-width:3;" />
  <line x1="1195" y1="50.0" x2="1195" y2="50.0" style="stroke:#999; stroke-width:3;" />
  <line x1="1195" y1="50.0" x2="1215" y2="50.0" style="stroke:#999; stroke-width:3;" />
  <rect class="anc_exon" x="1215" y="35.0" width="63" height="30" style="fill:#87bcbc;fill-opacity:1.00" />
  <line x1="1278" y1="50.0" x2="1298" y2="50.0" style="stroke:#999; stroke-width:3;" />
  <line x1="1298" y1="50.0" x2="1298" y2="50.0" style="stroke:#999; stroke-width:3;" />
  <line x1="1298" y1="50.0" x2="1298" y2="50.0" style="stroke:#999; stroke-width:3;" />
  <line x1="1298" y1="50.0" x2="1318" y2="50.0" style="stroke:#999; stroke-width:3;" />
  <rect class="anc_exon" x="1318" y="35.0" width="27" height="30" style="fill:#87bcbc;fill-opacity:1.00" />
  <line x1="1345" y1="50.0" x2="1385" y2="50.0" style="stroke:#999; stroke-width:3;" />
  <rect class="anc_exon" x="1385" y="35.0" width="50" height="30" style="fill:#87bcbc;fill-opacity:1.00" />
  <line x1="1435" y1="50.0" x2="1455" y2="50.0" style="stroke:#999; stroke-width:3;" />
  <line x1="1455" y1="50.0" x2="1455" y2="50.0" style="stroke:#999; stroke-width:3;" />
  <line x1="1455" y1="50.0" x2="1455" y2="50.0" style="stroke:#999; stroke-width:3;" />
  <line x1="1455" y1="50.0" x2="1475" y2="50.0" style="stroke:#999; stroke-width:3;" />
  <rect class="anc_exon" x="1475" y="35.0" width="60" height="30" style="fill:#87bcbc;fill-opacity:1.00" />
  <line x1="1535" y1="50.0" x2="1555" y2="50.0" style="stroke:#999; stroke-width:3;" />
  <line x1="1555" y1="50.0" x2="1555" y2="50.0" style="stroke:#999; stroke-width:3;" />
  <line x1="1555" y1="50.0" x2="1555" y2="50.0" style="stroke:#999; stroke-width:3;" />
  <line x1="1555" y1="50.0" x2="1575" y2="50.0" style="stroke:#999; stroke-width:3;" />
  <rect class="anc_exon" x="1575" y="35.0" width="68" height="30" style="fill:#87bcbc;fill-opacity:1.00" />
  <line x1="1643" y1="50.0" x2="1683" y2="50.0" style="stroke:#999; stroke-width:3;" />
  <rect class="anc_exon" x="1683" y="35.0" width="47" height="30" style="fill:#87bcbc;fill-opacity:1.00" />
  <line x1="1730" y1="50.0" x2="1770" y2="50.0" style="stroke:#999; stroke-width:3;" />
  <rect class="anc_exon" x="1770" y="35.0" width="84" height="30" style="fill:#87bcbc;fill-opacity:1.00" />
  <line x1="1854" y1="50.0" x2="1874" y2="50.0" style="stroke:#999; stroke-width:3;" />
  <line x1="1874" y1="50.0" x2="1874" y2="50.0" style="stroke:#999; stroke-width:3;" />
  <line x1="1874" y1="50.0" x2="1874" y2="50.0" style="stroke:#999; stroke-width:3;" />
  <line x1="1874" y1="50.0" x2="1894" y2="50.0" style="stroke:#999; stroke-width:3;" />
  <rect class="anc_exon" x="1894" y="35.0" width="128" height="30" style="fill:#87bcbc;fill-opacity:1.00" />
  <line x1="2022" y1="50.0" x2="2042" y2="50.0" style="stroke:#999; stroke-width:3;" />
  <line x1="2042" y1="50.0" x2="2042" y2="50.0" style="stroke:#999; stroke-width:3;" />
  <line x1="2042" y1="50.0" x2="2042" y2="50.0" style="stroke:#999; stroke-width:3;" />
  <line x1="2042" y1="50.0" x2="2062" y2="50.0" style="stroke:#999; stroke-width:3;" />
  <rect class="anc_exon" x="2062" y="35.0" width="118" height="30" style="fill:#87bcbc;fill-opacity:1.00" />
  <line x1="2180" y1="50.0" x2="2200" y2="50.0" style="stroke:#999; stroke-width:3;" />
  <line x1="2200" y1="50.0" x2="2200" y2="50.0" style="stroke:#999; stroke-width:3;" />
  <line x1="2200" y1="50.0" x2="2200" y2="50.0" style="stroke:#999; stroke-width:3;" />
  <line x1="2200" y1="50.0" x2="2220" y2="50.0" style="stroke:#999; stroke-width:3;" />
  <rect class="anc_exon" x="2220" y="35.0" width="249" height="30" style="fill:#87bcbc;fill-opacity:1.00" />
  <line x1="2469" y1="50.0" x2="2489" y2="50.0" style="stroke:#999; stroke-width:3;" />
  <line x1="2489" y1="50.0" x2="2489" y2="50.0" style="stroke:#999; stroke-width:3;" />
  <line x1="2489" y1="50.0" x2="2489" y2="50.0" style="stroke:#999; stroke-width:3;" />
  <line x1="2489" y1="50.0" x2="2509" y2="50.0" style="stroke:#999; stroke-width:3;" />
  <rect class="anc_exon" x="2509" y="35.0" width="132" height="30" style="fill:#87bcbc;fill-opacity:1.00" />
  <line x1="2641" y1="50.0" x2="2681" y2="50.0" style="stroke:#999; stroke-width:3;" />
  <rect class="anc_exon" x="2681" y="35.0" width="40" height="30" style="fill:#87bcbc;fill-opacity:1.00" />
  <line x1="2721" y1="50.0" x2="2761" y2="50.0" style="stroke:#999; stroke-width:3;" />
  <rect class="anc_exon" x="2761" y="35.0" width="34" height="30" style="fill:#87bcbc;fill-opacity:1.00" />
  <rect class="anc_exon" x="2795" y="35.0" width="0" height="30" style="fill:#87bcbc;fill-opacity:1.00" />
  <text style="" >
<tspan x="0" y="83.0" style="font-size:18px;" >SP XM_031944590_1.1</tspan>  </text>



<script type="text/ecmascript">
<![CDATA[
function draw_bbox(text_id)
{
    var text_elem = document.getElementById(text_id);
    var offset_px = 2;
    var offset_py = 0;
    bbox = text_elem.getBBox();
    var box = document.createElementNS(document.rootElement.namespaceURI,'rect');
    box.setAttribute('x', bbox.x - offset_px);
    box.setAttribute('y', bbox.y - offset_py);
    box.setAttribute('width', bbox.width + offset_px * 2);
    box.setAttribute('height', bbox.height + offset_py * 2);
    box.setAttribute('style','fill: white;'+'stroke: black;'+'stroke-width: 1px;');
    text_elem.insertBefore(box,text_elem.childNodes[0]);

    var svg = text_elem.parentNode;
    svg.appendChild(text_elem);
}

for (var i=1; i < 1; i++)
{
draw_bbox("Mouseover" + i);
}
]]> 
</script>
</svg>
