<svg version="1.1"
xmlns="http://www.w3.org/2000/svg"
xmlns:xlink="http://www.w3.org/1999/xlink"
width="3695" height="100" viewBox = "0 0 3695 100"
onclick="mouseclick(evt)">

<script type="text/ecmascript">

<![CDATA[
    function mouseover(evt, target) { 
    var gv = document.getElementById("globalVariable");
    var previoustarget = gv.firstChild.nodeValue;
    if (previoustarget != "none") 
    {
        	document.getElementById(gv.firstChild.nodeValue).setAttributeNS(null, "visibility", "hidden");
    }
    document.getElementById(target).setAttributeNS(null, "visibility", "visible");
    gv.firstChild.nodeValue = target;
        }

    function mouseclick(evt) { 
    var gv = document.getElementById("globalVariable");
    var previoustarget = gv.firstChild.nodeValue;
    if (previoustarget != "none") {
        	document.getElementById(gv.firstChild.nodeValue).setAttributeNS(null, "visibility", "hidden");
        }
    }
]]>
  </script>
<style type="text/css" >

<![CDATA[
    rect.anc_exon {
              stroke-width:3;
                  }

    rect.non_anc_exon {
              stroke: black; stroke-width:3; stroke-dasharray: 5,5;
                    }

    text {
              font-size: 18px;
              font-family: Courier New;
          }
                    ]]>
</style>

<defs>
    <text x="150" y="40" id="globalVariable">none</text>
</defs>

  <rect class="anc_exon" x="0" y="35.0" width="0" height="30" style="fill:#87bcbc;fill-opacity:1.00" />
  <rect class="anc_exon" x="0" y="35.0" width="98.4" height="30" style="fill:#87bcbc;fill-opacity:1.00" />
  <line x1="98.4" y1="50.0" x2="117.4" y2="50.0" style="stroke:#999; stroke-width:3;" />
  <line x1="117.4" y1="50.0" x2="117.4" y2="50.0" style="stroke:#999; stroke-width:3;" />
  <line x1="117.4" y1="50.0" x2="117.4" y2="50.0" style="stroke:#999; stroke-width:3;" />
  <line x1="117.4" y1="50.0" x2="138.0" y2="50.0" style="stroke:#999; stroke-width:3;" />
  <rect class="anc_exon" x="138" y="35.0" width="26" height="30" style="fill:#87bcbc;fill-opacity:1.00" />
  <line x1="164" y1="50.0" x2="184" y2="50.0" style="stroke:#999; stroke-width:3;" />
  <line x1="184" y1="50.0" x2="184" y2="50.0" style="stroke:#999; stroke-width:3;" />
  <line x1="184" y1="50.0" x2="184" y2="50.0" style="stroke:#999; stroke-width:3;" />
  <line x1="184" y1="50.0" x2="204" y2="50.0" style="stroke:#999; stroke-width:3;" />
  <rect class="anc_exon" x="204" y="35.0" width="141" height="30" style="fill:#87bcbc;fill-opacity:1.00" />
  <line x1="345" y1="50.0" x2="365" y2="50.0" style="stroke:#999; stroke-width:3;" />
  <line x1="365" y1="50.0" x2="365" y2="50.0" style="stroke:#999; stroke-width:3;" />
  <line x1="365" y1="50.0" x2="365" y2="50.0" style="stroke:#999; stroke-width:3;" />
  <line x1="365" y1="50.0" x2="385" y2="50.0" style="stroke:#999; stroke-width:3;" />
  <rect class="anc_exon" x="385" y="35.0" width="84" height="30" style="fill:#87bcbc;fill-opacity:1.00" />
  <line x1="469" y1="50.0" x2="489" y2="50.0" style="stroke:#999; stroke-width:3;" />
  <line x1="489" y1="50.0" x2="489" y2="50.0" style="stroke:#999; stroke-width:3;" />
  <line x1="489" y1="50.0" x2="489" y2="50.0" style="stroke:#999; stroke-width:3;" />
  <line x1="489" y1="50.0" x2="509" y2="50.0" style="stroke:#999; stroke-width:3;" />
  <rect class="anc_exon" x="509" y="35.0" width="112" height="30" style="fill:#87bcbc;fill-opacity:1.00" />
  <line x1="621" y1="50.0" x2="641" y2="50.0" style="stroke:#999; stroke-width:3;" />
  <line x1="641" y1="50.0" x2="641" y2="50.0" style="stroke:#999; stroke-width:3;" />
  <line x1="641" y1="50.0" x2="641" y2="50.0" style="stroke:#999; stroke-width:3;" />
  <line x1="641" y1="50.0" x2="661" y2="50.0" style="stroke:#999; stroke-width:3;" />
  <rect class="anc_exon" x="661" y="35.0" width="60" height="30" style="fill:#87bcbc;fill-opacity:1.00" />
  <line x1="721" y1="50.0" x2="761" y2="50.0" style="stroke:#999; stroke-width:3;" />
  <rect class="anc_exon" x="761" y="35.0" width="56" height="30" style="fill:#87bcbc;fill-opacity:1.00" />
  <line x1="817" y1="50.0" x2="837" y2="50.0" style="stroke:#999; stroke-width:3;" />
  <line x1="837" y1="50.0" x2="837" y2="50.0" style="stroke:#999; stroke-width:3;" />
  <line x1="837" y1="50.0" x2="837" y2="50.0" style="stroke:#999; stroke-width:3;" />
  <line x1="837" y1="50.0" x2="857" y2="50.0" style="stroke:#999; stroke-width:3;" />
  <rect class="anc_exon" x="857" y="35.0" width="109" height="30" style="fill:#87bcbc;fill-opacity:1.00" />
  <line x1="966" y1="50.0" x2="1006" y2="50.0" style="stroke:#999; stroke-width:3;" />
  <rect class="anc_exon" x="1006" y="35.0" width="87" height="30" style="fill:#87bcbc;fill-opacity:1.00" />
  <line x1="1093" y1="50.0" x2="1113" y2="50.0" style="stroke:#999; stroke-width:3;" />
  <line x1="1113" y1="50.0" x2="1113" y2="50.0" style="stroke:#999; stroke-width:3;" />
  <line x1="1113" y1="50.0" x2="1113" y2="50.0" style="stroke:#999; stroke-width:3;" />
  <line x1="1113" y1="50.0" x2="1133" y2="50.0" style="stroke:#999; stroke-width:3;" />
  <rect class="anc_exon" x="1133" y="35.0" width="88" height="30" style="fill:#87bcbc;fill-opacity:1.00" />
  <line x1="1221" y1="50.0" x2="1241" y2="50.0" style="stroke:#999; stroke-width:3;" />
  <line x1="1241" y1="50.0" x2="1241" y2="50.0" style="stroke:#999; stroke-width:3;" />
  <line x1="1241" y1="50.0" x2="1241" y2="50.0" style="stroke:#999; stroke-width:3;" />
  <line x1="1241" y1="50.0" x2="1261" y2="50.0" style="stroke:#999; stroke-width:3;" />
  <rect class="anc_exon" x="1261" y="35.0" width="95" height="30" style="fill:#87bcbc;fill-opacity:1.00" />
  <line x1="1356" y1="50.0" x2="1376" y2="50.0" style="stroke:#999; stroke-width:3;" />
  <line x1="1376" y1="50.0" x2="1376" y2="50.0" style="stroke:#999; stroke-width:3;" />
  <line x1="1376" y1="50.0" x2="1376" y2="50.0" style="stroke:#999; stroke-width:3;" />
  <line x1="1376" y1="50.0" x2="1396" y2="50.0" style="stroke:#999; stroke-width:3;" />
  <rect class="anc_exon" x="1396" y="35.0" width="93" height="30" style="fill:#87bcbc;fill-opacity:1.00" />
  <line x1="1489" y1="50.0" x2="1529" y2="50.0" style="stroke:#999; stroke-width:3;" />
  <rect class="anc_exon" x="1529" y="35.0" width="95" height="30" style="fill:#87bcbc;fill-opacity:1.00" />
  <line x1="1624" y1="50.0" x2="1644" y2="50.0" style="stroke:#999; stroke-width:3;" />
  <line x1="1644" y1="50.0" x2="1644" y2="50.0" style="stroke:#999; stroke-width:3;" />
  <line x1="1644" y1="50.0" x2="1644" y2="50.0" style="stroke:#999; stroke-width:3;" />
  <line x1="1644" y1="50.0" x2="1664" y2="50.0" style="stroke:#999; stroke-width:3;" />
  <rect class="anc_exon" x="1664" y="35.0" width="52" height="30" style="fill:#87bcbc;fill-opacity:1.00" />
  <line x1="1716" y1="50.0" x2="1736" y2="50.0" style="stroke:#999; stroke-width:3;" />
  <line x1="1736" y1="50.0" x2="1736" y2="50.0" style="stroke:#999; stroke-width:3;" />
  <line x1="1736" y1="50.0" x2="1736" y2="50.0" style="stroke:#999; stroke-width:3;" />
  <line x1="1736" y1="50.0" x2="1756" y2="50.0" style="stroke:#999; stroke-width:3;" />
  <rect class="anc_exon" x="1756" y="35.0" width="84" height="30" style="fill:#87bcbc;fill-opacity:1.00" />
  <line x1="1840" y1="50.0" x2="1860" y2="50.0" style="stroke:#999; stroke-width:3;" />
  <line x1="1860" y1="50.0" x2="1860" y2="50.0" style="stroke:#999; stroke-width:3;" />
  <line x1="1860" y1="50.0" x2="1860" y2="50.0" style="stroke:#999; stroke-width:3;" />
  <line x1="1860" y1="50.0" x2="1880" y2="50.0" style="stroke:#999; stroke-width:3;" />
  <rect class="anc_exon" x="1880" y="35.0" width="249" height="30" style="fill:#87bcbc;fill-opacity:1.00" />
  <line x1="2129" y1="50.0" x2="2169" y2="50.0" style="stroke:#999; stroke-width:3;" />
  <rect class="anc_exon" x="2169" y="35.0" width="92" height="30" style="fill:#87bcbc;fill-opacity:1.00" />
  <line x1="2261" y1="50.0" x2="2281" y2="50.0" style="stroke:#999; stroke-width:3;" />
  <line x1="2281" y1="50.0" x2="2281" y2="50.0" style="stroke:#999; stroke-width:3;" />
  <line x1="2281" y1="50.0" x2="2281" y2="50.0" style="stroke:#999; stroke-width:3;" />
  <line x1="2281" y1="50.0" x2="2301" y2="50.0" style="stroke:#999; stroke-width:3;" />
  <rect class="anc_exon" x="2301" y="35.0" width="79" height="30" style="fill:#87bcbc;fill-opacity:1.00" />
  <line x1="2380" y1="50.0" x2="2420" y2="50.0" style="stroke:#999; stroke-width:3;" />
  <rect class="anc_exon" x="2420" y="35.0" width="76" height="30" style="fill:#87bcbc;fill-opacity:1.00" />
  <line x1="2496" y1="50.0" x2="2516" y2="50.0" style="stroke:#999; stroke-width:3;" />
  <line x1="2516" y1="50.0" x2="2516" y2="50.0" style="stroke:#999; stroke-width:3;" />
  <line x1="2516" y1="50.0" x2="2516" y2="50.0" style="stroke:#999; stroke-width:3;" />
  <line x1="2516" y1="50.0" x2="2536" y2="50.0" style="stroke:#999; stroke-width:3;" />
  <rect class="anc_exon" x="2536" y="35.0" width="81" height="30" style="fill:#87bcbc;fill-opacity:1.00" />
  <line x1="2617" y1="50.0" x2="2637" y2="50.0" style="stroke:#999; stroke-width:3;" />
  <line x1="2637" y1="50.0" x2="2637" y2="50.0" style="stroke:#999; stroke-width:3;" />
  <line x1="2637" y1="50.0" x2="2637" y2="50.0" style="stroke:#999; stroke-width:3;" />
  <line x1="2637" y1="50.0" x2="2657" y2="50.0" style="stroke:#999; stroke-width:3;" />
  <rect class="anc_exon" x="2657" y="35.0" width="192" height="30" style="fill:#87bcbc;fill-opacity:1.00" />
  <line x1="2849" y1="50.0" x2="2869" y2="50.0" style="stroke:#999; stroke-width:3;" />
  <line x1="2869" y1="50.0" x2="2869" y2="50.0" style="stroke:#999; stroke-width:3;" />
  <line x1="2869" y1="50.0" x2="2869" y2="50.0" style="stroke:#999; stroke-width:3;" />
  <line x1="2869" y1="50.0" x2="2889" y2="50.0" style="stroke:#999; stroke-width:3;" />
  <rect class="anc_exon" x="2889" y="35.0" width="104" height="30" style="fill:#87bcbc;fill-opacity:1.00" />
  <line x1="2993" y1="50.0" x2="3013" y2="50.0" style="stroke:#999; stroke-width:3;" />
  <line x1="3013" y1="50.0" x2="3013" y2="50.0" style="stroke:#999; stroke-width:3;" />
  <line x1="3013" y1="50.0" x2="3013" y2="50.0" style="stroke:#999; stroke-width:3;" />
  <line x1="3013" y1="50.0" x2="3033" y2="50.0" style="stroke:#999; stroke-width:3;" />
  <rect class="anc_exon" x="3033" y="35.0" width="100" height="30" style="fill:#87bcbc;fill-opacity:1.00" />
  <line x1="3133" y1="50.0" x2="3153" y2="50.0" style="stroke:#999; stroke-width:3;" />
  <line x1="3153" y1="50.0" x2="3153" y2="50.0" style="stroke:#999; stroke-width:3;" />
  <line x1="3153" y1="50.0" x2="3153" y2="50.0" style="stroke:#999; stroke-width:3;" />
  <line x1="3153" y1="50.0" x2="3173" y2="50.0" style="stroke:#999; stroke-width:3;" />
  <rect class="anc_exon" x="3173" y="35.0" width="132" height="30" style="fill:#87bcbc;fill-opacity:1.00" />
  <line x1="3305" y1="50.0" x2="3325" y2="50.0" style="stroke:#999; stroke-width:3;" />
  <line x1="3325" y1="50.0" x2="3325" y2="50.0" style="stroke:#999; stroke-width:3;" />
  <line x1="3325" y1="50.0" x2="3325" y2="50.0" style="stroke:#999; stroke-width:3;" />
  <line x1="3325" y1="50.0" x2="3345" y2="50.0" style="stroke:#999; stroke-width:3;" />
  <rect class="anc_exon" x="3345" y="35.0" width="108" height="30" style="fill:#87bcbc;fill-opacity:1.00" />
  <line x1="3453" y1="50.0" x2="3473" y2="50.0" style="stroke:#999; stroke-width:3;" />
  <line x1="3473" y1="50.0" x2="3473" y2="50.0" style="stroke:#999; stroke-width:3;" />
  <line x1="3473" y1="50.0" x2="3473" y2="50.0" style="stroke:#999; stroke-width:3;" />
  <line x1="3473" y1="50.0" x2="3493" y2="50.0" style="stroke:#999; stroke-width:3;" />
  <rect class="anc_exon" x="3493" y="35.0" width="74" height="30" style="fill:#87bcbc;fill-opacity:1.00" />
  <line x1="3567" y1="50.0" x2="3587" y2="50.0" style="stroke:#999; stroke-width:3;" />
  <line x1="3587" y1="50.0" x2="3587" y2="50.0" style="stroke:#999; stroke-width:3;" />
  <line x1="3587" y1="50.0" x2="3587" y2="50.0" style="stroke:#999; stroke-width:3;" />
  <line x1="3587" y1="50.0" x2="3607" y2="50.0" style="stroke:#999; stroke-width:3;" />
  <rect class="anc_exon" x="3607" y="35.0" width="52" height="30" style="fill:#87bcbc;fill-opacity:1.00" />
  <rect class="anc_exon" x="3659" y="35.0" width="0" height="30" style="fill:#87bcbc;fill-opacity:1.00" />
  <text style="" >
<tspan x="0" y="83.0" style="font-size:18px;" >SP XM_031944530_1.1</tspan>  </text>
  <text style="fill:#121212;" >
<tspan x="1356" y="50.0" style="font-size:18px;fill:#121212;" >at</tspan>  </text>
  <text style="fill:#121212;" >
<tspan x="1372.96" y="68.0" style="font-size:18px;fill:#121212;" >tt</tspan>  </text>
  <text style="fill:#121212;" >
<tspan x="3133" y="50.0" style="font-size:18px;fill:#121212;" >at</tspan>  </text>
  <text style="fill:#121212;" >
<tspan x="3149.96" y="68.0" style="font-size:18px;fill:#121212;" >ac</tspan>  </text>



<script type="text/ecmascript">
<![CDATA[
function draw_bbox(text_id)
{
    var text_elem = document.getElementById(text_id);
    var offset_px = 2;
    var offset_py = 0;
    bbox = text_elem.getBBox();
    var box = document.createElementNS(document.rootElement.namespaceURI,'rect');
    box.setAttribute('x', bbox.x - offset_px);
    box.setAttribute('y', bbox.y - offset_py);
    box.setAttribute('width', bbox.width + offset_px * 2);
    box.setAttribute('height', bbox.height + offset_py * 2);
    box.setAttribute('style','fill: white;'+'stroke: black;'+'stroke-width: 1px;');
    text_elem.insertBefore(box,text_elem.childNodes[0]);

    var svg = text_elem.parentNode;
    svg.appendChild(text_elem);
}

for (var i=1; i < 1; i++)
{
draw_bbox("Mouseover" + i);
}
]]> 
</script>
</svg>
