<svg version="1.1"
xmlns="http://www.w3.org/2000/svg"
xmlns:xlink="http://www.w3.org/1999/xlink"
width="2750" height="100" viewBox = "0 0 2750 100"
onclick="mouseclick(evt)">

<script type="text/ecmascript">

<![CDATA[
    function mouseover(evt, target) { 
    var gv = document.getElementById("globalVariable");
    var previoustarget = gv.firstChild.nodeValue;
    if (previoustarget != "none") 
    {
        	document.getElementById(gv.firstChild.nodeValue).setAttributeNS(null, "visibility", "hidden");
    }
    document.getElementById(target).setAttributeNS(null, "visibility", "visible");
    gv.firstChild.nodeValue = target;
        }

    function mouseclick(evt) { 
    var gv = document.getElementById("globalVariable");
    var previoustarget = gv.firstChild.nodeValue;
    if (previoustarget != "none") {
        	document.getElementById(gv.firstChild.nodeValue).setAttributeNS(null, "visibility", "hidden");
        }
    }
]]>
  </script>
<style type="text/css" >

<![CDATA[
    rect.anc_exon {
              stroke-width:3;
                  }

    rect.non_anc_exon {
              stroke: black; stroke-width:3; stroke-dasharray: 5,5;
                    }

    text {
              font-size: 18px;
              font-family: Courier New;
          }
                    ]]>
</style>

<defs>
    <text x="150" y="40" id="globalVariable">none</text>
</defs>

  <rect class="anc_exon" x="0" y="35.0" width="0" height="30" style="fill:#87bcbc;fill-opacity:1.00" />
  <rect class="anc_exon" x="0" y="35.0" width="98.4" height="30" style="fill:#878787;fill-opacity:1.00" />
  <line x1="98.4" y1="50.0" x2="138.0" y2="50.0" style="stroke:#999; stroke-width:3;" />
  <rect class="anc_exon" x="138" y="35.0" width="482" height="30" style="fill:#878787;fill-opacity:1.00" />
  <line x1="620" y1="50.0" x2="640" y2="50.0" style="stroke:#999; stroke-width:3;" />
  <line x1="640" y1="50.0" x2="640" y2="50.0" style="stroke:#999; stroke-width:3;" />
  <line x1="640" y1="50.0" x2="640" y2="50.0" style="stroke:#999; stroke-width:3;" />
  <line x1="640" y1="50.0" x2="660" y2="50.0" style="stroke:#999; stroke-width:3;" />
  <rect class="anc_exon" x="660" y="35.0" width="54" height="30" style="fill:#87bcbc;fill-opacity:1.00" />
  <line x1="714" y1="50.0" x2="754" y2="50.0" style="stroke:#999; stroke-width:3;" />
  <rect class="anc_exon" x="754" y="35.0" width="75" height="30" style="fill:#87bcbc;fill-opacity:1.00" />
  <line x1="829" y1="50.0" x2="869" y2="50.0" style="stroke:#999; stroke-width:3;" />
  <rect class="anc_exon" x="869" y="35.0" width="102" height="30" style="fill:#87bcbc;fill-opacity:1.00" />
  <line x1="971" y1="50.0" x2="1011" y2="50.0" style="stroke:#999; stroke-width:3;" />
  <rect class="anc_exon" x="1011" y="35.0" width="104" height="30" style="fill:#87bcbc;fill-opacity:1.00" />
  <line x1="1115" y1="50.0" x2="1135" y2="50.0" style="stroke:#999; stroke-width:3;" />
  <line x1="1135" y1="50.0" x2="1135" y2="50.0" style="stroke:#999; stroke-width:3;" />
  <line x1="1135" y1="50.0" x2="1135" y2="50.0" style="stroke:#999; stroke-width:3;" />
  <line x1="1135" y1="50.0" x2="1155" y2="50.0" style="stroke:#999; stroke-width:3;" />
  <rect class="anc_exon" x="1155" y="35.0" width="102" height="30" style="fill:#87bcbc;fill-opacity:1.00" />
  <line x1="1257" y1="50.0" x2="1277" y2="50.0" style="stroke:#999; stroke-width:3;" />
  <line x1="1277" y1="50.0" x2="1277" y2="50.0" style="stroke:#999; stroke-width:3;" />
  <line x1="1277" y1="50.0" x2="1277" y2="50.0" style="stroke:#999; stroke-width:3;" />
  <line x1="1277" y1="50.0" x2="1297" y2="50.0" style="stroke:#999; stroke-width:3;" />
  <rect class="anc_exon" x="1297" y="35.0" width="89" height="30" style="fill:#87bcbc;fill-opacity:1.00" />
  <line x1="1386" y1="50.0" x2="1426" y2="50.0" style="stroke:#999; stroke-width:3;" />
  <rect class="anc_exon" x="1426" y="35.0" width="64" height="30" style="fill:#87bcbc;fill-opacity:1.00" />
  <line x1="1490" y1="50.0" x2="1510" y2="50.0" style="stroke:#999; stroke-width:3;" />
  <line x1="1510" y1="50.0" x2="1510" y2="50.0" style="stroke:#999; stroke-width:3;" />
  <line x1="1510" y1="50.0" x2="1510" y2="50.0" style="stroke:#999; stroke-width:3;" />
  <line x1="1510" y1="50.0" x2="1530" y2="50.0" style="stroke:#999; stroke-width:3;" />
  <rect class="anc_exon" x="1530" y="35.0" width="87" height="30" style="fill:#87bcbc;fill-opacity:1.00" />
  <line x1="1617" y1="50.0" x2="1657" y2="50.0" style="stroke:#999; stroke-width:3;" />
  <rect class="anc_exon" x="1657" y="35.0" width="106" height="30" style="fill:#87bcbc;fill-opacity:1.00" />
  <line x1="1763" y1="50.0" x2="1803" y2="50.0" style="stroke:#999; stroke-width:3;" />
  <rect class="anc_exon" x="1803" y="35.0" width="96" height="30" style="fill:#87bcbc;fill-opacity:1.00" />
  <line x1="1899" y1="50.0" x2="1939" y2="50.0" style="stroke:#999; stroke-width:3;" />
  <rect class="anc_exon" x="1939" y="35.0" width="46" height="30" style="fill:#87bcbc;fill-opacity:1.00" />
  <line x1="1985" y1="50.0" x2="2005" y2="50.0" style="stroke:#999; stroke-width:3;" />
  <line x1="2005" y1="50.0" x2="2005" y2="50.0" style="stroke:#999; stroke-width:3;" />
  <line x1="2005" y1="50.0" x2="2005" y2="50.0" style="stroke:#999; stroke-width:3;" />
  <line x1="2005" y1="50.0" x2="2025" y2="50.0" style="stroke:#999; stroke-width:3;" />
  <rect class="anc_exon" x="2025" y="35.0" width="128" height="30" style="fill:#87bcbc;fill-opacity:1.00" />
  <line x1="2153" y1="50.0" x2="2173" y2="50.0" style="stroke:#999; stroke-width:3;" />
  <line x1="2173" y1="50.0" x2="2173" y2="50.0" style="stroke:#999; stroke-width:3;" />
  <line x1="2173" y1="50.0" x2="2173" y2="50.0" style="stroke:#999; stroke-width:3;" />
  <line x1="2173" y1="50.0" x2="2193" y2="50.0" style="stroke:#999; stroke-width:3;" />
  <rect class="anc_exon" x="2193" y="35.0" width="121" height="30" style="fill:#87bcbc;fill-opacity:1.00" />
  <line x1="2314" y1="50.0" x2="2334" y2="50.0" style="stroke:#999; stroke-width:3;" />
  <line x1="2334" y1="50.0" x2="2334" y2="50.0" style="stroke:#999; stroke-width:3;" />
  <line x1="2334" y1="50.0" x2="2334" y2="50.0" style="stroke:#999; stroke-width:3;" />
  <line x1="2334" y1="50.0" x2="2354" y2="50.0" style="stroke:#999; stroke-width:3;" />
  <rect class="anc_exon" x="2354" y="35.0" width="89" height="30" style="fill:#87bcbc;fill-opacity:1.00" />
  <line x1="2443" y1="50.0" x2="2483" y2="50.0" style="stroke:#999; stroke-width:3;" />
  <rect class="anc_exon" x="2483" y="35.0" width="137" height="30" style="fill:#87bcbc;fill-opacity:1.00" />
  <line x1="2620" y1="50.0" x2="2640" y2="50.0" style="stroke:#999; stroke-width:3;" />
  <line x1="2640" y1="50.0" x2="2640" y2="50.0" style="stroke:#999; stroke-width:3;" />
  <line x1="2640" y1="50.0" x2="2640" y2="50.0" style="stroke:#999; stroke-width:3;" />
  <line x1="2640" y1="50.0" x2="2660" y2="50.0" style="stroke:#999; stroke-width:3;" />
  <rect class="anc_exon" x="2660" y="35.0" width="54" height="30" style="fill:#87bcbc;fill-opacity:1.00" />
  <rect class="anc_exon" x="2714" y="35.0" width="0" height="30" style="fill:#87bcbc;fill-opacity:1.00" />
  <text style="" >
<tspan x="0" y="83.0" style="font-size:18px;" >SP XM_031945061_1.1</tspan>  </text>



<script type="text/ecmascript">
<![CDATA[
function draw_bbox(text_id)
{
    var text_elem = document.getElementById(text_id);
    var offset_px = 2;
    var offset_py = 0;
    bbox = text_elem.getBBox();
    var box = document.createElementNS(document.rootElement.namespaceURI,'rect');
    box.setAttribute('x', bbox.x - offset_px);
    box.setAttribute('y', bbox.y - offset_py);
    box.setAttribute('width', bbox.width + offset_px * 2);
    box.setAttribute('height', bbox.height + offset_py * 2);
    box.setAttribute('style','fill: white;'+'stroke: black;'+'stroke-width: 1px;');
    text_elem.insertBefore(box,text_elem.childNodes[0]);

    var svg = text_elem.parentNode;
    svg.appendChild(text_elem);
}

for (var i=1; i < 1; i++)
{
draw_bbox("Mouseover" + i);
}
]]> 
</script>
</svg>
