<svg version="1.1"
xmlns="http://www.w3.org/2000/svg"
xmlns:xlink="http://www.w3.org/1999/xlink"
width="2324" height="100" viewBox = "0 0 2324 100"
onclick="mouseclick(evt)">

<script type="text/ecmascript">

<![CDATA[
    function mouseover(evt, target) { 
    var gv = document.getElementById("globalVariable");
    var previoustarget = gv.firstChild.nodeValue;
    if (previoustarget != "none") 
    {
        	document.getElementById(gv.firstChild.nodeValue).setAttributeNS(null, "visibility", "hidden");
    }
    document.getElementById(target).setAttributeNS(null, "visibility", "visible");
    gv.firstChild.nodeValue = target;
        }

    function mouseclick(evt) { 
    var gv = document.getElementById("globalVariable");
    var previoustarget = gv.firstChild.nodeValue;
    if (previoustarget != "none") {
        	document.getElementById(gv.firstChild.nodeValue).setAttributeNS(null, "visibility", "hidden");
        }
    }
]]>
  </script>
<style type="text/css" >

<![CDATA[
    rect.anc_exon {
              stroke-width:3;
                  }

    rect.non_anc_exon {
              stroke: black; stroke-width:3; stroke-dasharray: 5,5;
                    }

    text {
              font-size: 18px;
              font-family: Courier New;
          }
                    ]]>
</style>

<defs>
    <text x="150" y="40" id="globalVariable">none</text>
</defs>

  <rect class="anc_exon" x="0" y="35.0" width="0" height="30" style="fill:#87bcbc;fill-opacity:1.00" />
  <rect class="anc_exon" x="0" y="35.0" width="144.0" height="30" style="fill:#87bcbc;fill-opacity:1.00" />
  <line x1="144.0" y1="50.0" x2="184.0" y2="50.0" style="stroke:#999; stroke-width:3;" />
  <rect class="anc_exon" x="184" y="35.0" width="119" height="30" style="fill:#87bcbc;fill-opacity:1.00" />
  <line x1="303" y1="50.0" x2="323" y2="50.0" style="stroke:#999; stroke-width:3;" />
  <line x1="323" y1="50.0" x2="323" y2="50.0" style="stroke:#999; stroke-width:3;" />
  <line x1="323" y1="50.0" x2="323" y2="50.0" style="stroke:#999; stroke-width:3;" />
  <line x1="323" y1="50.0" x2="343" y2="50.0" style="stroke:#999; stroke-width:3;" />
  <rect class="anc_exon" x="343" y="35.0" width="87" height="30" style="fill:#87bcbc;fill-opacity:1.00" />
  <line x1="430" y1="50.0" x2="450" y2="50.0" style="stroke:#999; stroke-width:3;" />
  <line x1="450" y1="50.0" x2="450" y2="50.0" style="stroke:#999; stroke-width:3;" />
  <line x1="450" y1="50.0" x2="450" y2="50.0" style="stroke:#999; stroke-width:3;" />
  <line x1="450" y1="50.0" x2="470" y2="50.0" style="stroke:#999; stroke-width:3;" />
  <rect class="anc_exon" x="470" y="35.0" width="60" height="30" style="fill:#87bcbc;fill-opacity:1.00" />
  <line x1="530" y1="50.0" x2="570" y2="50.0" style="stroke:#999; stroke-width:3;" />
  <rect class="anc_exon" x="570" y="35.0" width="48" height="30" style="fill:#87bcbc;fill-opacity:1.00" />
  <line x1="618" y1="50.0" x2="638" y2="50.0" style="stroke:#999; stroke-width:3;" />
  <line x1="638" y1="50.0" x2="638" y2="50.0" style="stroke:#999; stroke-width:3;" />
  <line x1="638" y1="50.0" x2="638" y2="50.0" style="stroke:#999; stroke-width:3;" />
  <line x1="638" y1="50.0" x2="658" y2="50.0" style="stroke:#999; stroke-width:3;" />
  <rect class="anc_exon" x="658" y="35.0" width="98" height="30" style="fill:#87bcbc;fill-opacity:1.00" />
  <line x1="756" y1="50.0" x2="796" y2="50.0" style="stroke:#999; stroke-width:3;" />
  <rect class="anc_exon" x="796" y="35.0" width="59" height="30" style="fill:#87bcbc;fill-opacity:1.00" />
  <line x1="855" y1="50.0" x2="875" y2="50.0" style="stroke:#999; stroke-width:3;" />
  <line x1="875" y1="50.0" x2="875" y2="50.0" style="stroke:#999; stroke-width:3;" />
  <line x1="875" y1="50.0" x2="875" y2="50.0" style="stroke:#999; stroke-width:3;" />
  <line x1="875" y1="50.0" x2="895" y2="50.0" style="stroke:#999; stroke-width:3;" />
  <rect class="anc_exon" x="895" y="35.0" width="56" height="30" style="fill:#87bcbc;fill-opacity:1.00" />
  <line x1="951" y1="50.0" x2="991" y2="50.0" style="stroke:#999; stroke-width:3;" />
  <rect class="anc_exon" x="991" y="35.0" width="60" height="30" style="fill:#87bcbc;fill-opacity:1.00" />
  <line x1="1051" y1="50.0" x2="1071" y2="50.0" style="stroke:#999; stroke-width:3;" />
  <line x1="1071" y1="50.0" x2="1071" y2="50.0" style="stroke:#999; stroke-width:3;" />
  <line x1="1071" y1="50.0" x2="1071" y2="50.0" style="stroke:#999; stroke-width:3;" />
  <line x1="1071" y1="50.0" x2="1091" y2="50.0" style="stroke:#999; stroke-width:3;" />
  <rect class="anc_exon" x="1091" y="35.0" width="53" height="30" style="fill:#87bcbc;fill-opacity:1.00" />
  <line x1="1144" y1="50.0" x2="1184" y2="50.0" style="stroke:#999; stroke-width:3;" />
  <rect class="anc_exon" x="1184" y="35.0" width="68" height="30" style="fill:#87bcbc;fill-opacity:1.00" />
  <line x1="1252" y1="50.0" x2="1292" y2="50.0" style="stroke:#999; stroke-width:3;" />
  <rect class="anc_exon" x="1292" y="35.0" width="61" height="30" style="fill:#87bcbc;fill-opacity:1.00" />
  <line x1="1353" y1="50.0" x2="1393" y2="50.0" style="stroke:#999; stroke-width:3;" />
  <rect class="anc_exon" x="1393" y="35.0" width="29" height="30" style="fill:#87bcbc;fill-opacity:1.00" />
  <line x1="1422" y1="50.0" x2="1442" y2="50.0" style="stroke:#999; stroke-width:3;" />
  <line x1="1442" y1="50.0" x2="1442" y2="50.0" style="stroke:#999; stroke-width:3;" />
  <line x1="1442" y1="50.0" x2="1442" y2="50.0" style="stroke:#999; stroke-width:3;" />
  <line x1="1442" y1="50.0" x2="1462" y2="50.0" style="stroke:#999; stroke-width:3;" />
  <rect class="anc_exon" x="1462" y="35.0" width="56" height="30" style="fill:#87bcbc;fill-opacity:1.00" />
  <line x1="1518" y1="50.0" x2="1558" y2="50.0" style="stroke:#999; stroke-width:3;" />
  <rect class="anc_exon" x="1558" y="35.0" width="47" height="30" style="fill:#87bcbc;fill-opacity:1.00" />
  <line x1="1605" y1="50.0" x2="1645" y2="50.0" style="stroke:#999; stroke-width:3;" />
  <rect class="anc_exon" x="1645" y="35.0" width="111" height="30" style="fill:#87bcbc;fill-opacity:1.00" />
  <line x1="1756" y1="50.0" x2="1796" y2="50.0" style="stroke:#999; stroke-width:3;" />
  <rect class="anc_exon" x="1796" y="35.0" width="144" height="30" style="fill:#87bcbc;fill-opacity:1.00" />
  <line x1="1940" y1="50.0" x2="1960" y2="50.0" style="stroke:#999; stroke-width:3;" />
  <line x1="1960" y1="50.0" x2="1960" y2="50.0" style="stroke:#999; stroke-width:3;" />
  <line x1="1960" y1="50.0" x2="1960" y2="50.0" style="stroke:#999; stroke-width:3;" />
  <line x1="1960" y1="50.0" x2="1980" y2="50.0" style="stroke:#999; stroke-width:3;" />
  <rect class="anc_exon" x="1980" y="35.0" width="124" height="30" style="fill:#87bcbc;fill-opacity:1.00" />
  <line x1="2104" y1="50.0" x2="2124" y2="50.0" style="stroke:#999; stroke-width:3;" />
  <line x1="2124" y1="50.0" x2="2124" y2="50.0" style="stroke:#999; stroke-width:3;" />
  <line x1="2124" y1="50.0" x2="2124" y2="50.0" style="stroke:#999; stroke-width:3;" />
  <line x1="2124" y1="50.0" x2="2144" y2="50.0" style="stroke:#999; stroke-width:3;" />
  <rect class="anc_exon" x="2144" y="35.0" width="144" height="30" style="fill:#87bcbc;fill-opacity:1.00" />
  <rect class="anc_exon" x="2288" y="35.0" width="0" height="30" style="fill:#87bcbc;fill-opacity:1.00" />
  <text style="" >
<tspan x="0" y="83.0" style="font-size:18px;" >SP XM_031954620_1.1</tspan>  </text>



<script type="text/ecmascript">
<![CDATA[
function draw_bbox(text_id)
{
    var text_elem = document.getElementById(text_id);
    var offset_px = 2;
    var offset_py = 0;
    bbox = text_elem.getBBox();
    var box = document.createElementNS(document.rootElement.namespaceURI,'rect');
    box.setAttribute('x', bbox.x - offset_px);
    box.setAttribute('y', bbox.y - offset_py);
    box.setAttribute('width', bbox.width + offset_px * 2);
    box.setAttribute('height', bbox.height + offset_py * 2);
    box.setAttribute('style','fill: white;'+'stroke: black;'+'stroke-width: 1px;');
    text_elem.insertBefore(box,text_elem.childNodes[0]);

    var svg = text_elem.parentNode;
    svg.appendChild(text_elem);
}

for (var i=1; i < 1; i++)
{
draw_bbox("Mouseover" + i);
}
]]> 
</script>
</svg>
