<svg version="1.1"
xmlns="http://www.w3.org/2000/svg"
xmlns:xlink="http://www.w3.org/1999/xlink"
width="3888" height="100" viewBox = "0 0 3888 100"
onclick="mouseclick(evt)">

<script type="text/ecmascript">

<![CDATA[
    function mouseover(evt, target) { 
    var gv = document.getElementById("globalVariable");
    var previoustarget = gv.firstChild.nodeValue;
    if (previoustarget != "none") 
    {
        	document.getElementById(gv.firstChild.nodeValue).setAttributeNS(null, "visibility", "hidden");
    }
    document.getElementById(target).setAttributeNS(null, "visibility", "visible");
    gv.firstChild.nodeValue = target;
        }

    function mouseclick(evt) { 
    var gv = document.getElementById("globalVariable");
    var previoustarget = gv.firstChild.nodeValue;
    if (previoustarget != "none") {
        	document.getElementById(gv.firstChild.nodeValue).setAttributeNS(null, "visibility", "hidden");
        }
    }
]]>
  </script>
<style type="text/css" >

<![CDATA[
    rect.anc_exon {
              stroke-width:3;
                  }

    rect.non_anc_exon {
              stroke: black; stroke-width:3; stroke-dasharray: 5,5;
                    }

    text {
              font-size: 18px;
              font-family: Courier New;
          }
                    ]]>
</style>

<defs>
    <text x="150" y="40" id="globalVariable">none</text>
</defs>

  <rect class="anc_exon" x="0" y="35.0" width="0" height="30" style="fill:#87bcbc;fill-opacity:1.00" />
  <rect class="anc_exon" x="0" y="35.0" width="148.8" height="30" style="fill:#87bcbc;fill-opacity:1.00" />
  <line x1="148.8" y1="50.0" x2="188.0" y2="50.0" style="stroke:#999; stroke-width:3;" />
  <rect class="anc_exon" x="188" y="35.0" width="116" height="30" style="fill:#87bcbc;fill-opacity:1.00" />
  <line x1="304" y1="50.0" x2="344" y2="50.0" style="stroke:#999; stroke-width:3;" />
  <rect class="anc_exon" x="344" y="35.0" width="68" height="30" style="fill:#87bcbc;fill-opacity:1.00" />
  <line x1="412" y1="50.0" x2="432" y2="50.0" style="stroke:#999; stroke-width:3;" />
  <line x1="432" y1="50.0" x2="432" y2="50.0" style="stroke:#999; stroke-width:3;" />
  <line x1="432" y1="50.0" x2="432" y2="50.0" style="stroke:#999; stroke-width:3;" />
  <line x1="432" y1="50.0" x2="452" y2="50.0" style="stroke:#999; stroke-width:3;" />
  <rect class="anc_exon" x="452" y="35.0" width="80" height="30" style="fill:#87bcbc;fill-opacity:1.00" />
  <line x1="532" y1="50.0" x2="552" y2="50.0" style="stroke:#999; stroke-width:3;" />
  <line x1="552" y1="50.0" x2="552" y2="50.0" style="stroke:#999; stroke-width:3;" />
  <line x1="552" y1="50.0" x2="552" y2="50.0" style="stroke:#999; stroke-width:3;" />
  <line x1="552" y1="50.0" x2="572" y2="50.0" style="stroke:#999; stroke-width:3;" />
  <rect class="anc_exon" x="572" y="35.0" width="154" height="30" style="fill:#87bcbc;fill-opacity:1.00" />
  <line x1="726" y1="50.0" x2="766" y2="50.0" style="stroke:#999; stroke-width:3;" />
  <rect class="anc_exon" x="766" y="35.0" width="122" height="30" style="fill:#87bcbc;fill-opacity:1.00" />
  <line x1="888" y1="50.0" x2="928" y2="50.0" style="stroke:#999; stroke-width:3;" />
  <rect class="anc_exon" x="928" y="35.0" width="91" height="30" style="fill:#87bcbc;fill-opacity:1.00" />
  <line x1="1019" y1="50.0" x2="1059" y2="50.0" style="stroke:#999; stroke-width:3;" />
  <rect class="anc_exon" x="1059" y="35.0" width="137" height="30" style="fill:#87bcbc;fill-opacity:1.00" />
  <line x1="1196" y1="50.0" x2="1216" y2="50.0" style="stroke:#999; stroke-width:3;" />
  <line x1="1216" y1="50.0" x2="1216" y2="50.0" style="stroke:#999; stroke-width:3;" />
  <line x1="1216" y1="50.0" x2="1216" y2="50.0" style="stroke:#999; stroke-width:3;" />
  <line x1="1216" y1="50.0" x2="1236" y2="50.0" style="stroke:#999; stroke-width:3;" />
  <rect class="anc_exon" x="1236" y="35.0" width="102" height="30" style="fill:#87bcbc;fill-opacity:1.00" />
  <line x1="1338" y1="50.0" x2="1358" y2="50.0" style="stroke:#999; stroke-width:3;" />
  <line x1="1358" y1="50.0" x2="1358" y2="50.0" style="stroke:#999; stroke-width:3;" />
  <line x1="1358" y1="50.0" x2="1358" y2="50.0" style="stroke:#999; stroke-width:3;" />
  <line x1="1358" y1="50.0" x2="1378" y2="50.0" style="stroke:#999; stroke-width:3;" />
  <rect class="anc_exon" x="1378" y="35.0" width="104" height="30" style="fill:#87bcbc;fill-opacity:1.00" />
  <line x1="1482" y1="50.0" x2="1502" y2="50.0" style="stroke:#999; stroke-width:3;" />
  <line x1="1502" y1="50.0" x2="1502" y2="50.0" style="stroke:#999; stroke-width:3;" />
  <line x1="1502" y1="50.0" x2="1502" y2="50.0" style="stroke:#999; stroke-width:3;" />
  <line x1="1502" y1="50.0" x2="1522" y2="50.0" style="stroke:#999; stroke-width:3;" />
  <rect class="anc_exon" x="1522" y="35.0" width="90" height="30" style="fill:#87bcbc;fill-opacity:1.00" />
  <line x1="1612" y1="50.0" x2="1652" y2="50.0" style="stroke:#999; stroke-width:3;" />
  <rect class="anc_exon" x="1652" y="35.0" width="133" height="30" style="fill:#87bcbc;fill-opacity:1.00" />
  <line x1="1785" y1="50.0" x2="1825" y2="50.0" style="stroke:#999; stroke-width:3;" />
  <rect class="anc_exon" x="1825" y="35.0" width="60" height="30" style="fill:#87bcbc;fill-opacity:1.00" />
  <line x1="1885" y1="50.0" x2="1905" y2="50.0" style="stroke:#999; stroke-width:3;" />
  <line x1="1905" y1="50.0" x2="1905" y2="50.0" style="stroke:#999; stroke-width:3;" />
  <line x1="1905" y1="50.0" x2="1905" y2="50.0" style="stroke:#999; stroke-width:3;" />
  <line x1="1905" y1="50.0" x2="1925" y2="50.0" style="stroke:#999; stroke-width:3;" />
  <rect class="anc_exon" x="1925" y="35.0" width="88" height="30" style="fill:#87bcbc;fill-opacity:1.00" />
  <line x1="2013" y1="50.0" x2="2053" y2="50.0" style="stroke:#999; stroke-width:3;" />
  <rect class="anc_exon" x="2053" y="35.0" width="112" height="30" style="fill:#87bcbc;fill-opacity:1.00" />
  <line x1="2165" y1="50.0" x2="2205" y2="50.0" style="stroke:#999; stroke-width:3;" />
  <rect class="anc_exon" x="2205" y="35.0" width="64" height="30" style="fill:#87bcbc;fill-opacity:1.00" />
  <line x1="2269" y1="50.0" x2="2309" y2="50.0" style="stroke:#999; stroke-width:3;" />
  <rect class="anc_exon" x="2309" y="35.0" width="81" height="30" style="fill:#87bcbc;fill-opacity:1.00" />
  <line x1="2390" y1="50.0" x2="2430" y2="50.0" style="stroke:#999; stroke-width:3;" />
  <rect class="anc_exon" x="2430" y="35.0" width="144" height="30" style="fill:#87bcbc;fill-opacity:1.00" />
  <line x1="2574" y1="50.0" x2="2614" y2="50.0" style="stroke:#999; stroke-width:3;" />
  <rect class="anc_exon" x="2614" y="35.0" width="100" height="30" style="fill:#87bcbc;fill-opacity:1.00" />
  <line x1="2714" y1="50.0" x2="2734" y2="50.0" style="stroke:#999; stroke-width:3;" />
  <line x1="2734" y1="50.0" x2="2734" y2="50.0" style="stroke:#999; stroke-width:3;" />
  <line x1="2734" y1="50.0" x2="2734" y2="50.0" style="stroke:#999; stroke-width:3;" />
  <line x1="2734" y1="50.0" x2="2754" y2="50.0" style="stroke:#999; stroke-width:3;" />
  <rect class="anc_exon" x="2754" y="35.0" width="130" height="30" style="fill:#87bcbc;fill-opacity:1.00" />
  <line x1="2884" y1="50.0" x2="2924" y2="50.0" style="stroke:#999; stroke-width:3;" />
  <rect class="anc_exon" x="2924" y="35.0" width="82" height="30" style="fill:#87bcbc;fill-opacity:1.00" />
  <line x1="3006" y1="50.0" x2="3046" y2="50.0" style="stroke:#999; stroke-width:3;" />
  <rect class="anc_exon" x="3046" y="35.0" width="64" height="30" style="fill:#87bcbc;fill-opacity:1.00" />
  <line x1="3110" y1="50.0" x2="3130" y2="50.0" style="stroke:#999; stroke-width:3;" />
  <line x1="3130" y1="50.0" x2="3130" y2="50.0" style="stroke:#999; stroke-width:3;" />
  <line x1="3130" y1="50.0" x2="3130" y2="50.0" style="stroke:#999; stroke-width:3;" />
  <line x1="3130" y1="50.0" x2="3150" y2="50.0" style="stroke:#999; stroke-width:3;" />
  <rect class="anc_exon" x="3150" y="35.0" width="83" height="30" style="fill:#87bcbc;fill-opacity:1.00" />
  <line x1="3233" y1="50.0" x2="3273" y2="50.0" style="stroke:#999; stroke-width:3;" />
  <rect class="anc_exon" x="3273" y="35.0" width="104" height="30" style="fill:#87bcbc;fill-opacity:1.00" />
  <line x1="3377" y1="50.0" x2="3417" y2="50.0" style="stroke:#999; stroke-width:3;" />
  <rect class="anc_exon" x="3417" y="35.0" width="77" height="30" style="fill:#87bcbc;fill-opacity:1.00" />
  <line x1="3494" y1="50.0" x2="3514" y2="50.0" style="stroke:#999; stroke-width:3;" />
  <line x1="3514" y1="50.0" x2="3514" y2="50.0" style="stroke:#999; stroke-width:3;" />
  <line x1="3514" y1="50.0" x2="3514" y2="50.0" style="stroke:#999; stroke-width:3;" />
  <line x1="3514" y1="50.0" x2="3534" y2="50.0" style="stroke:#999; stroke-width:3;" />
  <rect class="anc_exon" x="3534" y="35.0" width="123" height="30" style="fill:#87bcbc;fill-opacity:1.00" />
  <line x1="3657" y1="50.0" x2="3677" y2="50.0" style="stroke:#999; stroke-width:3;" />
  <line x1="3677" y1="50.0" x2="3677" y2="50.0" style="stroke:#999; stroke-width:3;" />
  <line x1="3677" y1="50.0" x2="3677" y2="50.0" style="stroke:#999; stroke-width:3;" />
  <line x1="3677" y1="50.0" x2="3697" y2="50.0" style="stroke:#999; stroke-width:3;" />
  <rect class="anc_exon" x="3697" y="35.0" width="70" height="30" style="fill:#87bcbc;fill-opacity:1.00" />
  <line x1="3767" y1="50.0" x2="3807" y2="50.0" style="stroke:#999; stroke-width:3;" />
  <rect class="anc_exon" x="3807" y="35.0" width="45" height="30" style="fill:#87bcbc;fill-opacity:1.00" />
  <rect class="anc_exon" x="3852" y="35.0" width="0" height="30" style="fill:#87bcbc;fill-opacity:1.00" />
  <text style="" >
<tspan x="0" y="83.0" style="font-size:18px;" >SP XM_003760377_4.1</tspan>  </text>



<script type="text/ecmascript">
<![CDATA[
function draw_bbox(text_id)
{
    var text_elem = document.getElementById(text_id);
    var offset_px = 2;
    var offset_py = 0;
    bbox = text_elem.getBBox();
    var box = document.createElementNS(document.rootElement.namespaceURI,'rect');
    box.setAttribute('x', bbox.x - offset_px);
    box.setAttribute('y', bbox.y - offset_py);
    box.setAttribute('width', bbox.width + offset_px * 2);
    box.setAttribute('height', bbox.height + offset_py * 2);
    box.setAttribute('style','fill: white;'+'stroke: black;'+'stroke-width: 1px;');
    text_elem.insertBefore(box,text_elem.childNodes[0]);

    var svg = text_elem.parentNode;
    svg.appendChild(text_elem);
}

for (var i=1; i < 1; i++)
{
draw_bbox("Mouseover" + i);
}
]]> 
</script>
</svg>
