<svg version="1.1"
xmlns="http://www.w3.org/2000/svg"
xmlns:xlink="http://www.w3.org/1999/xlink"
width="2151" height="100" viewBox = "0 0 2151 100"
onclick="mouseclick(evt)">

<script type="text/ecmascript">

<![CDATA[
    function mouseover(evt, target) { 
    var gv = document.getElementById("globalVariable");
    var previoustarget = gv.firstChild.nodeValue;
    if (previoustarget != "none") 
    {
        	document.getElementById(gv.firstChild.nodeValue).setAttributeNS(null, "visibility", "hidden");
    }
    document.getElementById(target).setAttributeNS(null, "visibility", "visible");
    gv.firstChild.nodeValue = target;
        }

    function mouseclick(evt) { 
    var gv = document.getElementById("globalVariable");
    var previoustarget = gv.firstChild.nodeValue;
    if (previoustarget != "none") {
        	document.getElementById(gv.firstChild.nodeValue).setAttributeNS(null, "visibility", "hidden");
        }
    }
]]>
  </script>
<style type="text/css" >

<![CDATA[
    rect.anc_exon {
              stroke-width:3;
                  }

    rect.non_anc_exon {
              stroke: black; stroke-width:3; stroke-dasharray: 5,5;
                    }

    text {
              font-size: 18px;
              font-family: Courier New;
          }
                    ]]>
</style>

<defs>
    <text x="150" y="40" id="globalVariable">none</text>
</defs>

  <rect class="anc_exon" x="0" y="35.0" width="0" height="30" style="fill:#87bcbc;fill-opacity:1.00" />
  <rect class="anc_exon" x="0" y="35.0" width="809.6" height="30" style="fill:#87bcbc;fill-opacity:1.00" />
  <line x1="809.6" y1="50.0" x2="828.6" y2="50.0" style="stroke:#999; stroke-width:3;" />
  <line x1="828.6" y1="50.0" x2="828.6" y2="50.0" style="stroke:#999; stroke-width:3;" />
  <line x1="828.6" y1="50.0" x2="828.6" y2="50.0" style="stroke:#999; stroke-width:3;" />
  <line x1="828.6" y1="50.0" x2="849.0" y2="50.0" style="stroke:#999; stroke-width:3;" />
  <rect class="anc_exon" x="849" y="35.0" width="106" height="30" style="fill:#87bcbc;fill-opacity:1.00" />
  <line x1="955" y1="50.0" x2="975" y2="50.0" style="stroke:#999; stroke-width:3;" />
  <line x1="975" y1="50.0" x2="975" y2="50.0" style="stroke:#999; stroke-width:3;" />
  <line x1="975" y1="50.0" x2="975" y2="50.0" style="stroke:#999; stroke-width:3;" />
  <line x1="975" y1="50.0" x2="995" y2="50.0" style="stroke:#999; stroke-width:3;" />
  <rect class="anc_exon" x="995" y="35.0" width="169" height="30" style="fill:#87bcbc;fill-opacity:1.00" />
  <line x1="1164" y1="50.0" x2="1184" y2="50.0" style="stroke:#999; stroke-width:3;" />
  <line x1="1184" y1="50.0" x2="1184" y2="50.0" style="stroke:#999; stroke-width:3;" />
  <line x1="1184" y1="50.0" x2="1184" y2="50.0" style="stroke:#999; stroke-width:3;" />
  <line x1="1184" y1="50.0" x2="1204" y2="50.0" style="stroke:#999; stroke-width:3;" />
  <rect class="anc_exon" x="1204" y="35.0" width="132" height="30" style="fill:#878787;fill-opacity:1.00" />
  <line x1="1336" y1="50.0" x2="1356" y2="50.0" style="stroke:#999; stroke-width:3;" />
  <line x1="1356" y1="50.0" x2="1356" y2="50.0" style="stroke:#999; stroke-width:3;" />
  <line x1="1356" y1="50.0" x2="1356" y2="50.0" style="stroke:#999; stroke-width:3;" />
  <line x1="1356" y1="50.0" x2="1376" y2="50.0" style="stroke:#999; stroke-width:3;" />
  <rect class="anc_exon" x="1376" y="35.0" width="159" height="30" style="fill:#87bcbc;fill-opacity:1.00" />
  <line x1="1535" y1="50.0" x2="1555" y2="50.0" style="stroke:#999; stroke-width:3;" />
  <line x1="1555" y1="50.0" x2="1555" y2="50.0" style="stroke:#999; stroke-width:3;" />
  <line x1="1555" y1="50.0" x2="1555" y2="50.0" style="stroke:#999; stroke-width:3;" />
  <line x1="1555" y1="50.0" x2="1575" y2="50.0" style="stroke:#999; stroke-width:3;" />
  <rect class="anc_exon" x="1575" y="35.0" width="128" height="30" style="fill:#878787;fill-opacity:1.00" />
  <line x1="1703" y1="50.0" x2="1723" y2="50.0" style="stroke:#999; stroke-width:3;" />
  <line x1="1723" y1="50.0" x2="1723" y2="50.0" style="stroke:#999; stroke-width:3;" />
  <line x1="1723" y1="50.0" x2="1723" y2="50.0" style="stroke:#999; stroke-width:3;" />
  <line x1="1723" y1="50.0" x2="1743" y2="50.0" style="stroke:#999; stroke-width:3;" />
  <rect class="anc_exon" x="1743" y="35.0" width="193" height="30" style="fill:#87bcbc;fill-opacity:1.00" />
  <line x1="1936" y1="50.0" x2="1956" y2="50.0" style="stroke:#999; stroke-width:3;" />
  <line x1="1956" y1="50.0" x2="1956" y2="50.0" style="stroke:#999; stroke-width:3;" />
  <line x1="1956" y1="50.0" x2="1956" y2="50.0" style="stroke:#999; stroke-width:3;" />
  <line x1="1956" y1="50.0" x2="1976" y2="50.0" style="stroke:#999; stroke-width:3;" />
  <rect class="anc_exon" x="1976" y="35.0" width="52" height="30" style="fill:#87bcbc;fill-opacity:1.00" />
  <line x1="2028" y1="50.0" x2="2068" y2="50.0" style="stroke:#999; stroke-width:3;" />
  <rect class="anc_exon" x="2068" y="35.0" width="47" height="30" style="fill:#87bcbc;fill-opacity:1.00" />
  <rect class="anc_exon" x="2115" y="35.0" width="0" height="30" style="fill:#87bcbc;fill-opacity:1.00" />
  <text style="" >
<tspan x="0" y="83.0" style="font-size:18px;" >SP XM_031946281_1.1</tspan>  </text>



<script type="text/ecmascript">
<![CDATA[
function draw_bbox(text_id)
{
    var text_elem = document.getElementById(text_id);
    var offset_px = 2;
    var offset_py = 0;
    bbox = text_elem.getBBox();
    var box = document.createElementNS(document.rootElement.namespaceURI,'rect');
    box.setAttribute('x', bbox.x - offset_px);
    box.setAttribute('y', bbox.y - offset_py);
    box.setAttribute('width', bbox.width + offset_px * 2);
    box.setAttribute('height', bbox.height + offset_py * 2);
    box.setAttribute('style','fill: white;'+'stroke: black;'+'stroke-width: 1px;');
    text_elem.insertBefore(box,text_elem.childNodes[0]);

    var svg = text_elem.parentNode;
    svg.appendChild(text_elem);
}

for (var i=1; i < 1; i++)
{
draw_bbox("Mouseover" + i);
}
]]> 
</script>
</svg>
