<svg version="1.1"
xmlns="http://www.w3.org/2000/svg"
xmlns:xlink="http://www.w3.org/1999/xlink"
width="2607" height="100" viewBox = "0 0 2607 100"
onclick="mouseclick(evt)">

<script type="text/ecmascript">

<![CDATA[
    function mouseover(evt, target) { 
    var gv = document.getElementById("globalVariable");
    var previoustarget = gv.firstChild.nodeValue;
    if (previoustarget != "none") 
    {
        	document.getElementById(gv.firstChild.nodeValue).setAttributeNS(null, "visibility", "hidden");
    }
    document.getElementById(target).setAttributeNS(null, "visibility", "visible");
    gv.firstChild.nodeValue = target;
        }

    function mouseclick(evt) { 
    var gv = document.getElementById("globalVariable");
    var previoustarget = gv.firstChild.nodeValue;
    if (previoustarget != "none") {
        	document.getElementById(gv.firstChild.nodeValue).setAttributeNS(null, "visibility", "hidden");
        }
    }
]]>
  </script>
<style type="text/css" >

<![CDATA[
    rect.anc_exon {
              stroke-width:3;
                  }

    rect.non_anc_exon {
              stroke: black; stroke-width:3; stroke-dasharray: 5,5;
                    }

    text {
              font-size: 18px;
              font-family: Courier New;
          }
                    ]]>
</style>

<defs>
    <text x="150" y="40" id="globalVariable">none</text>
</defs>

  <rect class="anc_exon" x="0" y="35.0" width="0" height="30" style="fill:#87bcbc;fill-opacity:1.00" />
  <rect class="anc_exon" x="0" y="35.0" width="16.8" height="30" style="fill:#87bcbc;fill-opacity:1.00" />
  <line x1="16.8" y1="50.0" x2="35.8" y2="50.0" style="stroke:#999; stroke-width:3;" />
  <line x1="35.8" y1="50.0" x2="35.8" y2="50.0" style="stroke:#999; stroke-width:3;" />
  <line x1="35.8" y1="50.0" x2="35.8" y2="50.0" style="stroke:#999; stroke-width:3;" />
  <line x1="35.8" y1="50.0" x2="56.0" y2="50.0" style="stroke:#999; stroke-width:3;" />
  <rect class="anc_exon" x="56" y="35.0" width="72" height="30" style="fill:#87bcbc;fill-opacity:1.00" />
  <line x1="128" y1="50.0" x2="168" y2="50.0" style="stroke:#999; stroke-width:3;" />
  <rect class="anc_exon" x="168" y="35.0" width="75" height="30" style="fill:#87bcbc;fill-opacity:1.00" />
  <line x1="243" y1="50.0" x2="263" y2="50.0" style="stroke:#999; stroke-width:3;" />
  <line x1="263" y1="50.0" x2="263" y2="50.0" style="stroke:#999; stroke-width:3;" />
  <line x1="263" y1="50.0" x2="263" y2="50.0" style="stroke:#999; stroke-width:3;" />
  <line x1="263" y1="50.0" x2="283" y2="50.0" style="stroke:#999; stroke-width:3;" />
  <rect class="anc_exon" x="283" y="35.0" width="58" height="30" style="fill:#87bcbc;fill-opacity:1.00" />
  <line x1="341" y1="50.0" x2="361" y2="50.0" style="stroke:#999; stroke-width:3;" />
  <line x1="361" y1="50.0" x2="361" y2="50.0" style="stroke:#999; stroke-width:3;" />
  <line x1="361" y1="50.0" x2="361" y2="50.0" style="stroke:#999; stroke-width:3;" />
  <line x1="361" y1="50.0" x2="381" y2="50.0" style="stroke:#999; stroke-width:3;" />
  <rect class="anc_exon" x="381" y="35.0" width="92" height="30" style="fill:#87bcbc;fill-opacity:1.00" />
  <line x1="473" y1="50.0" x2="493" y2="50.0" style="stroke:#999; stroke-width:3;" />
  <line x1="493" y1="50.0" x2="493" y2="50.0" style="stroke:#999; stroke-width:3;" />
  <line x1="493" y1="50.0" x2="493" y2="50.0" style="stroke:#999; stroke-width:3;" />
  <line x1="493" y1="50.0" x2="513" y2="50.0" style="stroke:#999; stroke-width:3;" />
  <rect class="anc_exon" x="513" y="35.0" width="125" height="30" style="fill:#87bcbc;fill-opacity:1.00" />
  <line x1="638" y1="50.0" x2="658" y2="50.0" style="stroke:#999; stroke-width:3;" />
  <line x1="658" y1="50.0" x2="658" y2="50.0" style="stroke:#999; stroke-width:3;" />
  <line x1="658" y1="50.0" x2="658" y2="50.0" style="stroke:#999; stroke-width:3;" />
  <line x1="658" y1="50.0" x2="678" y2="50.0" style="stroke:#999; stroke-width:3;" />
  <rect class="anc_exon" x="678" y="35.0" width="132" height="30" style="fill:#87bcbc;fill-opacity:1.00" />
  <line x1="810" y1="50.0" x2="830" y2="50.0" style="stroke:#999; stroke-width:3;" />
  <line x1="830" y1="50.0" x2="830" y2="50.0" style="stroke:#999; stroke-width:3;" />
  <line x1="830" y1="50.0" x2="830" y2="50.0" style="stroke:#999; stroke-width:3;" />
  <line x1="830" y1="50.0" x2="850" y2="50.0" style="stroke:#999; stroke-width:3;" />
  <rect class="anc_exon" x="850" y="35.0" width="109" height="30" style="fill:#87bcbc;fill-opacity:1.00" />
  <line x1="959" y1="50.0" x2="999" y2="50.0" style="stroke:#999; stroke-width:3;" />
  <rect class="anc_exon" x="999" y="35.0" width="123" height="30" style="fill:#87bcbc;fill-opacity:1.00" />
  <line x1="1122" y1="50.0" x2="1142" y2="50.0" style="stroke:#999; stroke-width:3;" />
  <line x1="1142" y1="50.0" x2="1142" y2="50.0" style="stroke:#999; stroke-width:3;" />
  <line x1="1142" y1="50.0" x2="1142" y2="50.0" style="stroke:#999; stroke-width:3;" />
  <line x1="1142" y1="50.0" x2="1162" y2="50.0" style="stroke:#999; stroke-width:3;" />
  <rect class="anc_exon" x="1162" y="35.0" width="93" height="30" style="fill:#87bcbc;fill-opacity:1.00" />
  <line x1="1255" y1="50.0" x2="1295" y2="50.0" style="stroke:#999; stroke-width:3;" />
  <rect class="anc_exon" x="1295" y="35.0" width="105" height="30" style="fill:#87bcbc;fill-opacity:1.00" />
  <line x1="1400" y1="50.0" x2="1420" y2="50.0" style="stroke:#999; stroke-width:3;" />
  <line x1="1420" y1="50.0" x2="1420" y2="50.0" style="stroke:#999; stroke-width:3;" />
  <line x1="1420" y1="50.0" x2="1420" y2="50.0" style="stroke:#999; stroke-width:3;" />
  <line x1="1420" y1="50.0" x2="1440" y2="50.0" style="stroke:#999; stroke-width:3;" />
  <rect class="anc_exon" x="1440" y="35.0" width="268" height="30" style="fill:#87bcbc;fill-opacity:1.00" />
  <line x1="1708" y1="50.0" x2="1728" y2="50.0" style="stroke:#999; stroke-width:3;" />
  <line x1="1728" y1="50.0" x2="1728" y2="50.0" style="stroke:#999; stroke-width:3;" />
  <line x1="1728" y1="50.0" x2="1728" y2="50.0" style="stroke:#999; stroke-width:3;" />
  <line x1="1728" y1="50.0" x2="1748" y2="50.0" style="stroke:#999; stroke-width:3;" />
  <rect class="anc_exon" x="1748" y="35.0" width="288" height="30" style="fill:#87bcbc;fill-opacity:1.00" />
  <line x1="2036" y1="50.0" x2="2056" y2="50.0" style="stroke:#999; stroke-width:3;" />
  <line x1="2056" y1="50.0" x2="2056" y2="50.0" style="stroke:#999; stroke-width:3;" />
  <line x1="2056" y1="50.0" x2="2056" y2="50.0" style="stroke:#999; stroke-width:3;" />
  <line x1="2056" y1="50.0" x2="2076" y2="50.0" style="stroke:#999; stroke-width:3;" />
  <rect class="anc_exon" x="2076" y="35.0" width="163" height="30" style="fill:#87bcbc;fill-opacity:1.00" />
  <line x1="2239" y1="50.0" x2="2259" y2="50.0" style="stroke:#999; stroke-width:3;" />
  <line x1="2259" y1="50.0" x2="2259" y2="50.0" style="stroke:#999; stroke-width:3;" />
  <line x1="2259" y1="50.0" x2="2259" y2="50.0" style="stroke:#999; stroke-width:3;" />
  <line x1="2259" y1="50.0" x2="2279" y2="50.0" style="stroke:#999; stroke-width:3;" />
  <rect class="anc_exon" x="2279" y="35.0" width="49" height="30" style="fill:#87bcbc;fill-opacity:1.00" />
  <line x1="2328" y1="50.0" x2="2348" y2="50.0" style="stroke:#999; stroke-width:3;" />
  <line x1="2348" y1="50.0" x2="2348" y2="50.0" style="stroke:#999; stroke-width:3;" />
  <line x1="2348" y1="50.0" x2="2348" y2="50.0" style="stroke:#999; stroke-width:3;" />
  <line x1="2348" y1="50.0" x2="2368" y2="50.0" style="stroke:#999; stroke-width:3;" />
  <rect class="anc_exon" x="2368" y="35.0" width="73" height="30" style="fill:#87bcbc;fill-opacity:1.00" />
  <line x1="2441" y1="50.0" x2="2461" y2="50.0" style="stroke:#999; stroke-width:3;" />
  <line x1="2461" y1="50.0" x2="2461" y2="50.0" style="stroke:#999; stroke-width:3;" />
  <line x1="2461" y1="50.0" x2="2461" y2="50.0" style="stroke:#999; stroke-width:3;" />
  <line x1="2461" y1="50.0" x2="2481" y2="50.0" style="stroke:#999; stroke-width:3;" />
  <rect class="anc_exon" x="2481" y="35.0" width="90" height="30" style="fill:#87bcbc;fill-opacity:1.00" />
  <rect class="anc_exon" x="2571" y="35.0" width="0" height="30" style="fill:#87bcbc;fill-opacity:1.00" />
  <text style="" >
<tspan x="0" y="83.0" style="font-size:18px;" >SP XM_031953419_1.1</tspan>  </text>



<script type="text/ecmascript">
<![CDATA[
function draw_bbox(text_id)
{
    var text_elem = document.getElementById(text_id);
    var offset_px = 2;
    var offset_py = 0;
    bbox = text_elem.getBBox();
    var box = document.createElementNS(document.rootElement.namespaceURI,'rect');
    box.setAttribute('x', bbox.x - offset_px);
    box.setAttribute('y', bbox.y - offset_py);
    box.setAttribute('width', bbox.width + offset_px * 2);
    box.setAttribute('height', bbox.height + offset_py * 2);
    box.setAttribute('style','fill: white;'+'stroke: black;'+'stroke-width: 1px;');
    text_elem.insertBefore(box,text_elem.childNodes[0]);

    var svg = text_elem.parentNode;
    svg.appendChild(text_elem);
}

for (var i=1; i < 1; i++)
{
draw_bbox("Mouseover" + i);
}
]]> 
</script>
</svg>
