<svg version="1.1"
xmlns="http://www.w3.org/2000/svg"
xmlns:xlink="http://www.w3.org/1999/xlink"
width="5096" height="100" viewBox = "0 0 5096 100"
onclick="mouseclick(evt)">

<script type="text/ecmascript">

<![CDATA[
    function mouseover(evt, target) { 
    var gv = document.getElementById("globalVariable");
    var previoustarget = gv.firstChild.nodeValue;
    if (previoustarget != "none") 
    {
        	document.getElementById(gv.firstChild.nodeValue).setAttributeNS(null, "visibility", "hidden");
    }
    document.getElementById(target).setAttributeNS(null, "visibility", "visible");
    gv.firstChild.nodeValue = target;
        }

    function mouseclick(evt) { 
    var gv = document.getElementById("globalVariable");
    var previoustarget = gv.firstChild.nodeValue;
    if (previoustarget != "none") {
        	document.getElementById(gv.firstChild.nodeValue).setAttributeNS(null, "visibility", "hidden");
        }
    }
]]>
  </script>
<style type="text/css" >

<![CDATA[
    rect.anc_exon {
              stroke-width:3;
                  }

    rect.non_anc_exon {
              stroke: black; stroke-width:3; stroke-dasharray: 5,5;
                    }

    text {
              font-size: 18px;
              font-family: Courier New;
          }
                    ]]>
</style>

<defs>
    <text x="150" y="40" id="globalVariable">none</text>
</defs>

  <rect class="anc_exon" x="0" y="35.0" width="0" height="30" style="fill:#87bcbc;fill-opacity:1.00" />
  <rect class="anc_exon" x="0" y="35.0" width="21.6" height="30" style="fill:#87bcbc;fill-opacity:1.00" />
  <line x1="21.6" y1="50.0" x2="40.6" y2="50.0" style="stroke:#999; stroke-width:3;" />
  <line x1="40.6" y1="50.0" x2="40.6" y2="50.0" style="stroke:#999; stroke-width:3;" />
  <line x1="40.6" y1="50.0" x2="40.6" y2="50.0" style="stroke:#999; stroke-width:3;" />
  <line x1="40.6" y1="50.0" x2="61.0" y2="50.0" style="stroke:#999; stroke-width:3;" />
  <rect class="anc_exon" x="61" y="35.0" width="260" height="30" style="fill:#87bcbc;fill-opacity:1.00" />
  <line x1="321" y1="50.0" x2="341" y2="50.0" style="stroke:#999; stroke-width:3;" />
  <line x1="341" y1="50.0" x2="341" y2="50.0" style="stroke:#999; stroke-width:3;" />
  <line x1="341" y1="50.0" x2="341" y2="50.0" style="stroke:#999; stroke-width:3;" />
  <line x1="341" y1="50.0" x2="361" y2="50.0" style="stroke:#999; stroke-width:3;" />
  <rect class="anc_exon" x="361" y="35.0" width="86" height="30" style="fill:#87bcbc;fill-opacity:1.00" />
  <line x1="447" y1="50.0" x2="467" y2="50.0" style="stroke:#999; stroke-width:3;" />
  <line x1="467" y1="50.0" x2="467" y2="50.0" style="stroke:#999; stroke-width:3;" />
  <line x1="467" y1="50.0" x2="467" y2="50.0" style="stroke:#999; stroke-width:3;" />
  <line x1="467" y1="50.0" x2="487" y2="50.0" style="stroke:#999; stroke-width:3;" />
  <rect class="anc_exon" x="487" y="35.0" width="76" height="30" style="fill:#87bcbc;fill-opacity:1.00" />
  <line x1="563" y1="50.0" x2="583" y2="50.0" style="stroke:#999; stroke-width:3;" />
  <line x1="583" y1="50.0" x2="583" y2="50.0" style="stroke:#999; stroke-width:3;" />
  <line x1="583" y1="50.0" x2="583" y2="50.0" style="stroke:#999; stroke-width:3;" />
  <line x1="583" y1="50.0" x2="603" y2="50.0" style="stroke:#999; stroke-width:3;" />
  <rect class="anc_exon" x="603" y="35.0" width="20" height="30" style="fill:#cf232b;fill-opacity:1.00" />
  <line x1="623" y1="50.0" x2="663" y2="50.0" style="stroke:#999; stroke-width:3;" />
  <rect class="anc_exon" x="663" y="35.0" width="18" height="30" style="fill:#cf232b;fill-opacity:1.00" />
  <line x1="681" y1="50.0" x2="701" y2="50.0" style="stroke:#999; stroke-width:3;" />
  <line x1="701" y1="50.0" x2="701" y2="50.0" style="stroke:#999; stroke-width:3;" />
  <line x1="701" y1="50.0" x2="701" y2="50.0" style="stroke:#999; stroke-width:3;" />
  <line x1="701" y1="50.0" x2="721" y2="50.0" style="stroke:#999; stroke-width:3;" />
  <rect class="anc_exon" x="721" y="35.0" width="22" height="30" style="fill:#87bcbc;fill-opacity:1.00" />
  <line x1="743" y1="50.0" x2="763" y2="50.0" style="stroke:#999; stroke-width:3;" />
  <line x1="763" y1="50.0" x2="763" y2="50.0" style="stroke:#999; stroke-width:3;" />
  <line x1="763" y1="50.0" x2="763" y2="50.0" style="stroke:#999; stroke-width:3;" />
  <line x1="763" y1="50.0" x2="783" y2="50.0" style="stroke:#999; stroke-width:3;" />
  <rect class="anc_exon" x="783" y="35.0" width="136" height="30" style="fill:#87bcbc;fill-opacity:1.00" />
  <line x1="919" y1="50.0" x2="939" y2="50.0" style="stroke:#999; stroke-width:3;" />
  <line x1="939" y1="50.0" x2="939" y2="50.0" style="stroke:#999; stroke-width:3;" />
  <line x1="939" y1="50.0" x2="939" y2="50.0" style="stroke:#999; stroke-width:3;" />
  <line x1="939" y1="50.0" x2="959" y2="50.0" style="stroke:#999; stroke-width:3;" />
  <rect class="anc_exon" x="959" y="35.0" width="114" height="30" style="fill:#87bcbc;fill-opacity:1.00" />
  <line x1="1073" y1="50.0" x2="1093" y2="50.0" style="stroke:#999; stroke-width:3;" />
  <line x1="1093" y1="50.0" x2="1093" y2="50.0" style="stroke:#999; stroke-width:3;" />
  <line x1="1093" y1="50.0" x2="1093" y2="50.0" style="stroke:#999; stroke-width:3;" />
  <line x1="1093" y1="50.0" x2="1113" y2="50.0" style="stroke:#999; stroke-width:3;" />
  <rect class="anc_exon" x="1113" y="35.0" width="80" height="30" style="fill:#87bcbc;fill-opacity:1.00" />
  <line x1="1193" y1="50.0" x2="1213" y2="50.0" style="stroke:#999; stroke-width:3;" />
  <line x1="1213" y1="50.0" x2="1213" y2="50.0" style="stroke:#999; stroke-width:3;" />
  <line x1="1213" y1="50.0" x2="1213" y2="50.0" style="stroke:#999; stroke-width:3;" />
  <line x1="1213" y1="50.0" x2="1233" y2="50.0" style="stroke:#999; stroke-width:3;" />
  <rect class="anc_exon" x="1233" y="35.0" width="1120" height="30" style="fill:#87bcbc;fill-opacity:1.00" />
  <line x1="2353" y1="50.0" x2="2373" y2="50.0" style="stroke:#999; stroke-width:3;" />
  <line x1="2373" y1="50.0" x2="2373" y2="50.0" style="stroke:#999; stroke-width:3;" />
  <line x1="2373" y1="50.0" x2="2373" y2="50.0" style="stroke:#999; stroke-width:3;" />
  <line x1="2373" y1="50.0" x2="2393" y2="50.0" style="stroke:#999; stroke-width:3;" />
  <rect class="anc_exon" x="2393" y="35.0" width="81" height="30" style="fill:#87bcbc;fill-opacity:1.00" />
  <line x1="2474" y1="50.0" x2="2494" y2="50.0" style="stroke:#999; stroke-width:3;" />
  <line x1="2494" y1="50.0" x2="2494" y2="50.0" style="stroke:#999; stroke-width:3;" />
  <line x1="2494" y1="50.0" x2="2494" y2="50.0" style="stroke:#999; stroke-width:3;" />
  <line x1="2494" y1="50.0" x2="2514" y2="50.0" style="stroke:#999; stroke-width:3;" />
  <rect class="anc_exon" x="2514" y="35.0" width="120" height="30" style="fill:#87bcbc;fill-opacity:1.00" />
  <line x1="2634" y1="50.0" x2="2654" y2="50.0" style="stroke:#999; stroke-width:3;" />
  <line x1="2654" y1="50.0" x2="2654" y2="50.0" style="stroke:#999; stroke-width:3;" />
  <line x1="2654" y1="50.0" x2="2654" y2="50.0" style="stroke:#999; stroke-width:3;" />
  <line x1="2654" y1="50.0" x2="2674" y2="50.0" style="stroke:#999; stroke-width:3;" />
  <rect class="anc_exon" x="2674" y="35.0" width="128" height="30" style="fill:#87bcbc;fill-opacity:1.00" />
  <line x1="2802" y1="50.0" x2="2842" y2="50.0" style="stroke:#999; stroke-width:3;" />
  <rect class="anc_exon" x="2842" y="35.0" width="97" height="30" style="fill:#878787;fill-opacity:1.00" />
  <line x1="2939" y1="50.0" x2="2979" y2="50.0" style="stroke:#999; stroke-width:3;" />
  <rect class="anc_exon" x="2979" y="35.0" width="148" height="30" style="fill:#878787;fill-opacity:1.00" />
  <line x1="3127" y1="50.0" x2="3167" y2="50.0" style="stroke:#999; stroke-width:3;" />
  <rect class="anc_exon" x="3167" y="35.0" width="108" height="30" style="fill:#87bcbc;fill-opacity:1.00" />
  <line x1="3275" y1="50.0" x2="3295" y2="50.0" style="stroke:#999; stroke-width:3;" />
  <line x1="3295" y1="50.0" x2="3295" y2="50.0" style="stroke:#999; stroke-width:3;" />
  <line x1="3295" y1="50.0" x2="3295" y2="50.0" style="stroke:#999; stroke-width:3;" />
  <line x1="3295" y1="50.0" x2="3315" y2="50.0" style="stroke:#999; stroke-width:3;" />
  <rect class="anc_exon" x="3315" y="35.0" width="84" height="30" style="fill:#87bcbc;fill-opacity:1.00" />
  <line x1="3399" y1="50.0" x2="3439" y2="50.0" style="stroke:#999; stroke-width:3;" />
  <rect class="anc_exon" x="3439" y="35.0" width="77" height="30" style="fill:#878787;fill-opacity:1.00" />
  <line x1="3516" y1="50.0" x2="3536" y2="50.0" style="stroke:#999; stroke-width:3;" />
  <line x1="3536" y1="50.0" x2="3536" y2="50.0" style="stroke:#999; stroke-width:3;" />
  <line x1="3536" y1="50.0" x2="3536" y2="50.0" style="stroke:#999; stroke-width:3;" />
  <line x1="3536" y1="50.0" x2="3556" y2="50.0" style="stroke:#999; stroke-width:3;" />
  <rect class="anc_exon" x="3556" y="35.0" width="67" height="30" style="fill:#87bcbc;fill-opacity:1.00" />
  <line x1="3623" y1="50.0" x2="3663" y2="50.0" style="stroke:#999; stroke-width:3;" />
  <rect class="anc_exon" x="3663" y="35.0" width="88" height="30" style="fill:#87bcbc;fill-opacity:1.00" />
  <line x1="3751" y1="50.0" x2="3771" y2="50.0" style="stroke:#999; stroke-width:3;" />
  <line x1="3771" y1="50.0" x2="3771" y2="50.0" style="stroke:#999; stroke-width:3;" />
  <line x1="3771" y1="50.0" x2="3771" y2="50.0" style="stroke:#999; stroke-width:3;" />
  <line x1="3771" y1="50.0" x2="3791" y2="50.0" style="stroke:#999; stroke-width:3;" />
  <rect class="anc_exon" x="3791" y="35.0" width="96" height="30" style="fill:#87bcbc;fill-opacity:1.00" />
  <line x1="3887" y1="50.0" x2="3927" y2="50.0" style="stroke:#999; stroke-width:3;" />
  <rect class="anc_exon" x="3927" y="35.0" width="91" height="30" style="fill:#87bcbc;fill-opacity:1.00" />
  <line x1="4018" y1="50.0" x2="4058" y2="50.0" style="stroke:#999; stroke-width:3;" />
  <rect class="anc_exon" x="4058" y="35.0" width="122" height="30" style="fill:#878787;fill-opacity:1.00" />
  <line x1="4180" y1="50.0" x2="4200" y2="50.0" style="stroke:#999; stroke-width:3;" />
  <line x1="4200" y1="50.0" x2="4200" y2="50.0" style="stroke:#999; stroke-width:3;" />
  <line x1="4200" y1="50.0" x2="4200" y2="50.0" style="stroke:#999; stroke-width:3;" />
  <line x1="4200" y1="50.0" x2="4220" y2="50.0" style="stroke:#999; stroke-width:3;" />
  <rect class="anc_exon" x="4220" y="35.0" width="79" height="30" style="fill:#87bcbc;fill-opacity:1.00" />
  <line x1="4299" y1="50.0" x2="4339" y2="50.0" style="stroke:#999; stroke-width:3;" />
  <rect class="anc_exon" x="4339" y="35.0" width="104" height="30" style="fill:#87bcbc;fill-opacity:1.00" />
  <line x1="4443" y1="50.0" x2="4483" y2="50.0" style="stroke:#999; stroke-width:3;" />
  <rect class="anc_exon" x="4483" y="35.0" width="117" height="30" style="fill:#87bcbc;fill-opacity:1.00" />
  <line x1="4600" y1="50.0" x2="4620" y2="50.0" style="stroke:#999; stroke-width:3;" />
  <line x1="4620" y1="50.0" x2="4620" y2="50.0" style="stroke:#999; stroke-width:3;" />
  <line x1="4620" y1="50.0" x2="4620" y2="50.0" style="stroke:#999; stroke-width:3;" />
  <line x1="4620" y1="50.0" x2="4640" y2="50.0" style="stroke:#999; stroke-width:3;" />
  <rect class="anc_exon" x="4640" y="35.0" width="92" height="30" style="fill:#87bcbc;fill-opacity:1.00" />
  <line x1="4732" y1="50.0" x2="4772" y2="50.0" style="stroke:#999; stroke-width:3;" />
  <rect class="anc_exon" x="4772" y="35.0" width="159" height="30" style="fill:#87bcbc;fill-opacity:1.00" />
  <line x1="4931" y1="50.0" x2="4951" y2="50.0" style="stroke:#999; stroke-width:3;" />
  <line x1="4951" y1="50.0" x2="4951" y2="50.0" style="stroke:#999; stroke-width:3;" />
  <line x1="4951" y1="50.0" x2="4951" y2="50.0" style="stroke:#999; stroke-width:3;" />
  <line x1="4951" y1="50.0" x2="4971" y2="50.0" style="stroke:#999; stroke-width:3;" />
  <rect class="anc_exon" x="4971" y="35.0" width="89" height="30" style="fill:#878787;fill-opacity:1.00" />
  <rect class="anc_exon" x="5060" y="35.0" width="0" height="30" style="fill:#87bcbc;fill-opacity:1.00" />
  <text style="" >
<tspan x="0" y="83.0" style="font-size:18px;" >SP XM_031951752_1.1</tspan>  </text>



<script type="text/ecmascript">
<![CDATA[
function draw_bbox(text_id)
{
    var text_elem = document.getElementById(text_id);
    var offset_px = 2;
    var offset_py = 0;
    bbox = text_elem.getBBox();
    var box = document.createElementNS(document.rootElement.namespaceURI,'rect');
    box.setAttribute('x', bbox.x - offset_px);
    box.setAttribute('y', bbox.y - offset_py);
    box.setAttribute('width', bbox.width + offset_px * 2);
    box.setAttribute('height', bbox.height + offset_py * 2);
    box.setAttribute('style','fill: white;'+'stroke: black;'+'stroke-width: 1px;');
    text_elem.insertBefore(box,text_elem.childNodes[0]);

    var svg = text_elem.parentNode;
    svg.appendChild(text_elem);
}

for (var i=1; i < 1; i++)
{
draw_bbox("Mouseover" + i);
}
]]> 
</script>
</svg>
