<svg version="1.1"
xmlns="http://www.w3.org/2000/svg"
xmlns:xlink="http://www.w3.org/1999/xlink"
width="2411" height="100" viewBox = "0 0 2411 100"
onclick="mouseclick(evt)">

<script type="text/ecmascript">

<![CDATA[
    function mouseover(evt, target) { 
    var gv = document.getElementById("globalVariable");
    var previoustarget = gv.firstChild.nodeValue;
    if (previoustarget != "none") 
    {
        	document.getElementById(gv.firstChild.nodeValue).setAttributeNS(null, "visibility", "hidden");
    }
    document.getElementById(target).setAttributeNS(null, "visibility", "visible");
    gv.firstChild.nodeValue = target;
        }

    function mouseclick(evt) { 
    var gv = document.getElementById("globalVariable");
    var previoustarget = gv.firstChild.nodeValue;
    if (previoustarget != "none") {
        	document.getElementById(gv.firstChild.nodeValue).setAttributeNS(null, "visibility", "hidden");
        }
    }
]]>
  </script>
<style type="text/css" >

<![CDATA[
    rect.anc_exon {
              stroke-width:3;
                  }

    rect.non_anc_exon {
              stroke: black; stroke-width:3; stroke-dasharray: 5,5;
                    }

    text {
              font-size: 18px;
              font-family: Courier New;
          }
                    ]]>
</style>

<defs>
    <text x="150" y="40" id="globalVariable">none</text>
</defs>

  <rect class="anc_exon" x="0" y="35.0" width="0" height="30" style="fill:#87bcbc;fill-opacity:1.00" />
  <rect class="anc_exon" x="0" y="35.0" width="112.0" height="30" style="fill:#87bcbc;fill-opacity:1.00" />
  <line x1="112.0" y1="50.0" x2="132.0" y2="50.0" style="stroke:#999; stroke-width:3;" />
  <line x1="132.0" y1="50.0" x2="132.0" y2="50.0" style="stroke:#999; stroke-width:3;" />
  <line x1="132.0" y1="50.0" x2="132.0" y2="50.0" style="stroke:#999; stroke-width:3;" />
  <line x1="132.0" y1="50.0" x2="152.0" y2="50.0" style="stroke:#999; stroke-width:3;" />
  <rect class="anc_exon" x="152" y="35.0" width="42" height="30" style="fill:#87bcbc;fill-opacity:1.00" />
  <line x1="194" y1="50.0" x2="214" y2="50.0" style="stroke:#999; stroke-width:3;" />
  <line x1="214" y1="50.0" x2="214" y2="50.0" style="stroke:#999; stroke-width:3;" />
  <line x1="214" y1="50.0" x2="214" y2="50.0" style="stroke:#999; stroke-width:3;" />
  <line x1="214" y1="50.0" x2="234" y2="50.0" style="stroke:#999; stroke-width:3;" />
  <rect class="anc_exon" x="234" y="35.0" width="75" height="30" style="fill:#87bcbc;fill-opacity:1.00" />
  <line x1="309" y1="50.0" x2="329" y2="50.0" style="stroke:#999; stroke-width:3;" />
  <line x1="329" y1="50.0" x2="329" y2="50.0" style="stroke:#999; stroke-width:3;" />
  <line x1="329" y1="50.0" x2="329" y2="50.0" style="stroke:#999; stroke-width:3;" />
  <line x1="329" y1="50.0" x2="349" y2="50.0" style="stroke:#999; stroke-width:3;" />
  <rect class="anc_exon" x="349" y="35.0" width="107" height="30" style="fill:#87bcbc;fill-opacity:1.00" />
  <line x1="456" y1="50.0" x2="476" y2="50.0" style="stroke:#999; stroke-width:3;" />
  <line x1="476" y1="50.0" x2="476" y2="50.0" style="stroke:#999; stroke-width:3;" />
  <line x1="476" y1="50.0" x2="476" y2="50.0" style="stroke:#999; stroke-width:3;" />
  <line x1="476" y1="50.0" x2="496" y2="50.0" style="stroke:#999; stroke-width:3;" />
  <rect class="anc_exon" x="496" y="35.0" width="58" height="30" style="fill:#87bcbc;fill-opacity:1.00" />
  <line x1="554" y1="50.0" x2="574" y2="50.0" style="stroke:#999; stroke-width:3;" />
  <line x1="574" y1="50.0" x2="574" y2="50.0" style="stroke:#999; stroke-width:3;" />
  <line x1="574" y1="50.0" x2="574" y2="50.0" style="stroke:#999; stroke-width:3;" />
  <line x1="574" y1="50.0" x2="594" y2="50.0" style="stroke:#999; stroke-width:3;" />
  <rect class="anc_exon" x="594" y="35.0" width="100" height="30" style="fill:#87bcbc;fill-opacity:1.00" />
  <line x1="694" y1="50.0" x2="714" y2="50.0" style="stroke:#999; stroke-width:3;" />
  <line x1="714" y1="50.0" x2="714" y2="50.0" style="stroke:#999; stroke-width:3;" />
  <line x1="714" y1="50.0" x2="714" y2="50.0" style="stroke:#999; stroke-width:3;" />
  <line x1="714" y1="50.0" x2="734" y2="50.0" style="stroke:#999; stroke-width:3;" />
  <rect class="anc_exon" x="734" y="35.0" width="114" height="30" style="fill:#87bcbc;fill-opacity:1.00" />
  <line x1="848" y1="50.0" x2="868" y2="50.0" style="stroke:#999; stroke-width:3;" />
  <line x1="868" y1="50.0" x2="868" y2="50.0" style="stroke:#999; stroke-width:3;" />
  <line x1="868" y1="50.0" x2="868" y2="50.0" style="stroke:#999; stroke-width:3;" />
  <line x1="868" y1="50.0" x2="888" y2="50.0" style="stroke:#999; stroke-width:3;" />
  <rect class="anc_exon" x="888" y="35.0" width="146" height="30" style="fill:#87bcbc;fill-opacity:1.00" />
  <line x1="1034" y1="50.0" x2="1074" y2="50.0" style="stroke:#999; stroke-width:3;" />
  <rect class="anc_exon" x="1074" y="35.0" width="143" height="30" style="fill:#87bcbc;fill-opacity:1.00" />
  <line x1="1217" y1="50.0" x2="1237" y2="50.0" style="stroke:#999; stroke-width:3;" />
  <line x1="1237" y1="50.0" x2="1237" y2="50.0" style="stroke:#999; stroke-width:3;" />
  <line x1="1237" y1="50.0" x2="1237" y2="50.0" style="stroke:#999; stroke-width:3;" />
  <line x1="1237" y1="50.0" x2="1257" y2="50.0" style="stroke:#999; stroke-width:3;" />
  <rect class="anc_exon" x="1257" y="35.0" width="100" height="30" style="fill:#87bcbc;fill-opacity:1.00" />
  <line x1="1357" y1="50.0" x2="1377" y2="50.0" style="stroke:#999; stroke-width:3;" />
  <line x1="1377" y1="50.0" x2="1377" y2="50.0" style="stroke:#999; stroke-width:3;" />
  <line x1="1377" y1="50.0" x2="1377" y2="50.0" style="stroke:#999; stroke-width:3;" />
  <line x1="1377" y1="50.0" x2="1397" y2="50.0" style="stroke:#999; stroke-width:3;" />
  <rect class="anc_exon" x="1397" y="35.0" width="91" height="30" style="fill:#87bcbc;fill-opacity:1.00" />
  <line x1="1488" y1="50.0" x2="1528" y2="50.0" style="stroke:#999; stroke-width:3;" />
  <rect class="anc_exon" x="1528" y="35.0" width="76" height="30" style="fill:#87bcbc;fill-opacity:1.00" />
  <line x1="1604" y1="50.0" x2="1624" y2="50.0" style="stroke:#999; stroke-width:3;" />
  <line x1="1624" y1="50.0" x2="1624" y2="50.0" style="stroke:#999; stroke-width:3;" />
  <line x1="1624" y1="50.0" x2="1624" y2="50.0" style="stroke:#999; stroke-width:3;" />
  <line x1="1624" y1="50.0" x2="1644" y2="50.0" style="stroke:#999; stroke-width:3;" />
  <rect class="anc_exon" x="1644" y="35.0" width="132" height="30" style="fill:#87bcbc;fill-opacity:1.00" />
  <line x1="1776" y1="50.0" x2="1796" y2="50.0" style="stroke:#999; stroke-width:3;" />
  <line x1="1796" y1="50.0" x2="1796" y2="50.0" style="stroke:#999; stroke-width:3;" />
  <line x1="1796" y1="50.0" x2="1796" y2="50.0" style="stroke:#999; stroke-width:3;" />
  <line x1="1796" y1="50.0" x2="1816" y2="50.0" style="stroke:#999; stroke-width:3;" />
  <rect class="anc_exon" x="1816" y="35.0" width="82" height="30" style="fill:#87bcbc;fill-opacity:1.00" />
  <line x1="1898" y1="50.0" x2="1918" y2="50.0" style="stroke:#999; stroke-width:3;" />
  <line x1="1918" y1="50.0" x2="1918" y2="50.0" style="stroke:#999; stroke-width:3;" />
  <line x1="1918" y1="50.0" x2="1918" y2="50.0" style="stroke:#999; stroke-width:3;" />
  <line x1="1918" y1="50.0" x2="1938" y2="50.0" style="stroke:#999; stroke-width:3;" />
  <rect class="anc_exon" x="1938" y="35.0" width="146" height="30" style="fill:#87bcbc;fill-opacity:1.00" />
  <line x1="2084" y1="50.0" x2="2104" y2="50.0" style="stroke:#999; stroke-width:3;" />
  <line x1="2104" y1="50.0" x2="2104" y2="50.0" style="stroke:#999; stroke-width:3;" />
  <line x1="2104" y1="50.0" x2="2104" y2="50.0" style="stroke:#999; stroke-width:3;" />
  <line x1="2104" y1="50.0" x2="2124" y2="50.0" style="stroke:#999; stroke-width:3;" />
  <rect class="anc_exon" x="2124" y="35.0" width="91" height="30" style="fill:#87bcbc;fill-opacity:1.00" />
  <line x1="2215" y1="50.0" x2="2235" y2="50.0" style="stroke:#999; stroke-width:3;" />
  <line x1="2235" y1="50.0" x2="2235" y2="50.0" style="stroke:#999; stroke-width:3;" />
  <line x1="2235" y1="50.0" x2="2235" y2="50.0" style="stroke:#999; stroke-width:3;" />
  <line x1="2235" y1="50.0" x2="2255" y2="50.0" style="stroke:#999; stroke-width:3;" />
  <rect class="anc_exon" x="2255" y="35.0" width="120" height="30" style="fill:#87bcbc;fill-opacity:1.00" />
  <rect class="anc_exon" x="2375" y="35.0" width="0" height="30" style="fill:#87bcbc;fill-opacity:1.00" />
  <text style="" >
<tspan x="0" y="83.0" style="font-size:18px;" >SP XM_031945965_1.1</tspan>  </text>



<script type="text/ecmascript">
<![CDATA[
function draw_bbox(text_id)
{
    var text_elem = document.getElementById(text_id);
    var offset_px = 2;
    var offset_py = 0;
    bbox = text_elem.getBBox();
    var box = document.createElementNS(document.rootElement.namespaceURI,'rect');
    box.setAttribute('x', bbox.x - offset_px);
    box.setAttribute('y', bbox.y - offset_py);
    box.setAttribute('width', bbox.width + offset_px * 2);
    box.setAttribute('height', bbox.height + offset_py * 2);
    box.setAttribute('style','fill: white;'+'stroke: black;'+'stroke-width: 1px;');
    text_elem.insertBefore(box,text_elem.childNodes[0]);

    var svg = text_elem.parentNode;
    svg.appendChild(text_elem);
}

for (var i=1; i < 1; i++)
{
draw_bbox("Mouseover" + i);
}
]]> 
</script>
</svg>
