<svg version="1.1"
xmlns="http://www.w3.org/2000/svg"
xmlns:xlink="http://www.w3.org/1999/xlink"
width="2356" height="100" viewBox = "0 0 2356 100"
onclick="mouseclick(evt)">

<script type="text/ecmascript">

<![CDATA[
    function mouseover(evt, target) { 
    var gv = document.getElementById("globalVariable");
    var previoustarget = gv.firstChild.nodeValue;
    if (previoustarget != "none") 
    {
        	document.getElementById(gv.firstChild.nodeValue).setAttributeNS(null, "visibility", "hidden");
    }
    document.getElementById(target).setAttributeNS(null, "visibility", "visible");
    gv.firstChild.nodeValue = target;
        }

    function mouseclick(evt) { 
    var gv = document.getElementById("globalVariable");
    var previoustarget = gv.firstChild.nodeValue;
    if (previoustarget != "none") {
        	document.getElementById(gv.firstChild.nodeValue).setAttributeNS(null, "visibility", "hidden");
        }
    }
]]>
  </script>
<style type="text/css" >

<![CDATA[
    rect.anc_exon {
              stroke-width:3;
                  }

    rect.non_anc_exon {
              stroke: black; stroke-width:3; stroke-dasharray: 5,5;
                    }

    text {
              font-size: 18px;
              font-family: Courier New;
          }
                    ]]>
</style>

<defs>
    <text x="150" y="40" id="globalVariable">none</text>
</defs>

  <rect class="anc_exon" x="0" y="35.0" width="0" height="30" style="fill:#87bcbc;fill-opacity:1.00" />
  <rect class="anc_exon" x="0" y="35.0" width="196.8" height="30" style="fill:#87bcbc;fill-opacity:1.00" />
  <line x1="196.8" y1="50.0" x2="215.8" y2="50.0" style="stroke:#999; stroke-width:3;" />
  <line x1="215.8" y1="50.0" x2="215.8" y2="50.0" style="stroke:#999; stroke-width:3;" />
  <line x1="215.8" y1="50.0" x2="215.8" y2="50.0" style="stroke:#999; stroke-width:3;" />
  <line x1="215.8" y1="50.0" x2="236.0" y2="50.0" style="stroke:#999; stroke-width:3;" />
  <rect class="anc_exon" x="236" y="35.0" width="236" height="30" style="fill:#87bcbc;fill-opacity:1.00" />
  <line x1="472" y1="50.0" x2="512" y2="50.0" style="stroke:#999; stroke-width:3;" />
  <rect class="anc_exon" x="512" y="35.0" width="96" height="30" style="fill:#87bcbc;fill-opacity:1.00" />
  <line x1="608" y1="50.0" x2="628" y2="50.0" style="stroke:#999; stroke-width:3;" />
  <line x1="628" y1="50.0" x2="628" y2="50.0" style="stroke:#999; stroke-width:3;" />
  <line x1="628" y1="50.0" x2="628" y2="50.0" style="stroke:#999; stroke-width:3;" />
  <line x1="628" y1="50.0" x2="648" y2="50.0" style="stroke:#999; stroke-width:3;" />
  <rect class="anc_exon" x="648" y="35.0" width="134" height="30" style="fill:#87bcbc;fill-opacity:1.00" />
  <line x1="782" y1="50.0" x2="802" y2="50.0" style="stroke:#999; stroke-width:3;" />
  <line x1="802" y1="50.0" x2="802" y2="50.0" style="stroke:#999; stroke-width:3;" />
  <line x1="802" y1="50.0" x2="802" y2="50.0" style="stroke:#999; stroke-width:3;" />
  <line x1="802" y1="50.0" x2="822" y2="50.0" style="stroke:#999; stroke-width:3;" />
  <rect class="anc_exon" x="822" y="35.0" width="150" height="30" style="fill:#87bcbc;fill-opacity:1.00" />
  <line x1="972" y1="50.0" x2="992" y2="50.0" style="stroke:#999; stroke-width:3;" />
  <line x1="992" y1="50.0" x2="992" y2="50.0" style="stroke:#999; stroke-width:3;" />
  <line x1="992" y1="50.0" x2="992" y2="50.0" style="stroke:#999; stroke-width:3;" />
  <line x1="992" y1="50.0" x2="1012" y2="50.0" style="stroke:#999; stroke-width:3;" />
  <rect class="anc_exon" x="1012" y="35.0" width="203" height="30" style="fill:#87bcbc;fill-opacity:1.00" />
  <line x1="1215" y1="50.0" x2="1235" y2="50.0" style="stroke:#999; stroke-width:3;" />
  <line x1="1235" y1="50.0" x2="1235" y2="50.0" style="stroke:#999; stroke-width:3;" />
  <line x1="1235" y1="50.0" x2="1235" y2="50.0" style="stroke:#999; stroke-width:3;" />
  <line x1="1235" y1="50.0" x2="1255" y2="50.0" style="stroke:#999; stroke-width:3;" />
  <rect class="anc_exon" x="1255" y="35.0" width="109" height="30" style="fill:#87bcbc;fill-opacity:1.00" />
  <line x1="1364" y1="50.0" x2="1384" y2="50.0" style="stroke:#999; stroke-width:3;" />
  <line x1="1384" y1="50.0" x2="1384" y2="50.0" style="stroke:#999; stroke-width:3;" />
  <line x1="1384" y1="50.0" x2="1384" y2="50.0" style="stroke:#999; stroke-width:3;" />
  <line x1="1384" y1="50.0" x2="1404" y2="50.0" style="stroke:#999; stroke-width:3;" />
  <rect class="anc_exon" x="1404" y="35.0" width="97" height="30" style="fill:#87bcbc;fill-opacity:1.00" />
  <line x1="1501" y1="50.0" x2="1521" y2="50.0" style="stroke:#999; stroke-width:3;" />
  <line x1="1521" y1="50.0" x2="1521" y2="50.0" style="stroke:#999; stroke-width:3;" />
  <line x1="1521" y1="50.0" x2="1521" y2="50.0" style="stroke:#999; stroke-width:3;" />
  <line x1="1521" y1="50.0" x2="1541" y2="50.0" style="stroke:#999; stroke-width:3;" />
  <rect class="anc_exon" x="1541" y="35.0" width="94" height="30" style="fill:#87bcbc;fill-opacity:1.00" />
  <line x1="1635" y1="50.0" x2="1655" y2="50.0" style="stroke:#999; stroke-width:3;" />
  <line x1="1655" y1="50.0" x2="1655" y2="50.0" style="stroke:#999; stroke-width:3;" />
  <line x1="1655" y1="50.0" x2="1655" y2="50.0" style="stroke:#999; stroke-width:3;" />
  <line x1="1655" y1="50.0" x2="1675" y2="50.0" style="stroke:#999; stroke-width:3;" />
  <rect class="anc_exon" x="1675" y="35.0" width="201" height="30" style="fill:#87bcbc;fill-opacity:1.00" />
  <line x1="1876" y1="50.0" x2="1896" y2="50.0" style="stroke:#999; stroke-width:3;" />
  <line x1="1896" y1="50.0" x2="1896" y2="50.0" style="stroke:#999; stroke-width:3;" />
  <line x1="1896" y1="50.0" x2="1896" y2="50.0" style="stroke:#999; stroke-width:3;" />
  <line x1="1896" y1="50.0" x2="1916" y2="50.0" style="stroke:#999; stroke-width:3;" />
  <rect class="anc_exon" x="1916" y="35.0" width="404" height="30" style="fill:#87bcbc;fill-opacity:1.00" />
  <rect class="anc_exon" x="2320" y="35.0" width="0" height="30" style="fill:#87bcbc;fill-opacity:1.00" />
  <text style="" >
<tspan x="0" y="83.0" style="font-size:18px;" >SP XM_031946158_1.1</tspan>  </text>



<script type="text/ecmascript">
<![CDATA[
function draw_bbox(text_id)
{
    var text_elem = document.getElementById(text_id);
    var offset_px = 2;
    var offset_py = 0;
    bbox = text_elem.getBBox();
    var box = document.createElementNS(document.rootElement.namespaceURI,'rect');
    box.setAttribute('x', bbox.x - offset_px);
    box.setAttribute('y', bbox.y - offset_py);
    box.setAttribute('width', bbox.width + offset_px * 2);
    box.setAttribute('height', bbox.height + offset_py * 2);
    box.setAttribute('style','fill: white;'+'stroke: black;'+'stroke-width: 1px;');
    text_elem.insertBefore(box,text_elem.childNodes[0]);

    var svg = text_elem.parentNode;
    svg.appendChild(text_elem);
}

for (var i=1; i < 1; i++)
{
draw_bbox("Mouseover" + i);
}
]]> 
</script>
</svg>
