<svg version="1.1"
xmlns="http://www.w3.org/2000/svg"
xmlns:xlink="http://www.w3.org/1999/xlink"
width="3318" height="100" viewBox = "0 0 3318 100"
onclick="mouseclick(evt)">

<script type="text/ecmascript">

<![CDATA[
    function mouseover(evt, target) { 
    var gv = document.getElementById("globalVariable");
    var previoustarget = gv.firstChild.nodeValue;
    if (previoustarget != "none") 
    {
        	document.getElementById(gv.firstChild.nodeValue).setAttributeNS(null, "visibility", "hidden");
    }
    document.getElementById(target).setAttributeNS(null, "visibility", "visible");
    gv.firstChild.nodeValue = target;
        }

    function mouseclick(evt) { 
    var gv = document.getElementById("globalVariable");
    var previoustarget = gv.firstChild.nodeValue;
    if (previoustarget != "none") {
        	document.getElementById(gv.firstChild.nodeValue).setAttributeNS(null, "visibility", "hidden");
        }
    }
]]>
  </script>
<style type="text/css" >

<![CDATA[
    rect.anc_exon {
              stroke-width:3;
                  }

    rect.non_anc_exon {
              stroke: black; stroke-width:3; stroke-dasharray: 5,5;
                    }

    text {
              font-size: 18px;
              font-family: Courier New;
          }
                    ]]>
</style>

<defs>
    <text x="150" y="40" id="globalVariable">none</text>
</defs>

  <rect class="anc_exon" x="0" y="35.0" width="0" height="30" style="fill:#87bcbc;fill-opacity:1.00" />
  <rect class="anc_exon" x="0" y="35.0" width="70.4" height="30" style="fill:#87bcbc;fill-opacity:1.00" />
  <line x1="70.4" y1="50.0" x2="89.4" y2="50.0" style="stroke:#999; stroke-width:3;" />
  <line x1="89.4" y1="50.0" x2="89.4" y2="50.0" style="stroke:#999; stroke-width:3;" />
  <line x1="89.4" y1="50.0" x2="89.4" y2="50.0" style="stroke:#999; stroke-width:3;" />
  <line x1="89.4" y1="50.0" x2="110.0" y2="50.0" style="stroke:#999; stroke-width:3;" />
  <rect class="anc_exon" x="110" y="35.0" width="47" height="30" style="fill:#87bcbc;fill-opacity:1.00" />
  <line x1="157" y1="50.0" x2="177" y2="50.0" style="stroke:#999; stroke-width:3;" />
  <line x1="177" y1="50.0" x2="177" y2="50.0" style="stroke:#999; stroke-width:3;" />
  <line x1="177" y1="50.0" x2="177" y2="50.0" style="stroke:#999; stroke-width:3;" />
  <line x1="177" y1="50.0" x2="197" y2="50.0" style="stroke:#999; stroke-width:3;" />
  <rect class="anc_exon" x="197" y="35.0" width="41" height="30" style="fill:#87bcbc;fill-opacity:1.00" />
  <line x1="238" y1="50.0" x2="258" y2="50.0" style="stroke:#999; stroke-width:3;" />
  <line x1="258" y1="50.0" x2="258" y2="50.0" style="stroke:#999; stroke-width:3;" />
  <line x1="258" y1="50.0" x2="258" y2="50.0" style="stroke:#999; stroke-width:3;" />
  <line x1="258" y1="50.0" x2="278" y2="50.0" style="stroke:#999; stroke-width:3;" />
  <rect class="anc_exon" x="278" y="35.0" width="76" height="30" style="fill:#87bcbc;fill-opacity:1.00" />
  <line x1="354" y1="50.0" x2="374" y2="50.0" style="stroke:#999; stroke-width:3;" />
  <line x1="374" y1="50.0" x2="374" y2="50.0" style="stroke:#999; stroke-width:3;" />
  <line x1="374" y1="50.0" x2="374" y2="50.0" style="stroke:#999; stroke-width:3;" />
  <line x1="374" y1="50.0" x2="394" y2="50.0" style="stroke:#999; stroke-width:3;" />
  <rect class="anc_exon" x="394" y="35.0" width="64" height="30" style="fill:#87bcbc;fill-opacity:1.00" />
  <line x1="458" y1="50.0" x2="478" y2="50.0" style="stroke:#999; stroke-width:3;" />
  <line x1="478" y1="50.0" x2="478" y2="50.0" style="stroke:#999; stroke-width:3;" />
  <line x1="478" y1="50.0" x2="478" y2="50.0" style="stroke:#999; stroke-width:3;" />
  <line x1="478" y1="50.0" x2="498" y2="50.0" style="stroke:#999; stroke-width:3;" />
  <rect class="anc_exon" x="498" y="35.0" width="60" height="30" style="fill:#87bcbc;fill-opacity:1.00" />
  <line x1="558" y1="50.0" x2="578" y2="50.0" style="stroke:#999; stroke-width:3;" />
  <line x1="578" y1="50.0" x2="578" y2="50.0" style="stroke:#999; stroke-width:3;" />
  <line x1="578" y1="50.0" x2="578" y2="50.0" style="stroke:#999; stroke-width:3;" />
  <line x1="578" y1="50.0" x2="598" y2="50.0" style="stroke:#999; stroke-width:3;" />
  <rect class="anc_exon" x="598" y="35.0" width="61" height="30" style="fill:#87bcbc;fill-opacity:1.00" />
  <line x1="659" y1="50.0" x2="679" y2="50.0" style="stroke:#999; stroke-width:3;" />
  <line x1="679" y1="50.0" x2="679" y2="50.0" style="stroke:#999; stroke-width:3;" />
  <line x1="679" y1="50.0" x2="679" y2="50.0" style="stroke:#999; stroke-width:3;" />
  <line x1="679" y1="50.0" x2="699" y2="50.0" style="stroke:#999; stroke-width:3;" />
  <rect class="anc_exon" x="699" y="35.0" width="128" height="30" style="fill:#87bcbc;fill-opacity:1.00" />
  <line x1="827" y1="50.0" x2="847" y2="50.0" style="stroke:#999; stroke-width:3;" />
  <line x1="847" y1="50.0" x2="847" y2="50.0" style="stroke:#999; stroke-width:3;" />
  <line x1="847" y1="50.0" x2="847" y2="50.0" style="stroke:#999; stroke-width:3;" />
  <line x1="847" y1="50.0" x2="867" y2="50.0" style="stroke:#999; stroke-width:3;" />
  <rect class="anc_exon" x="867" y="35.0" width="114" height="30" style="fill:#87bcbc;fill-opacity:1.00" />
  <line x1="981" y1="50.0" x2="1001" y2="50.0" style="stroke:#999; stroke-width:3;" />
  <line x1="1001" y1="50.0" x2="1001" y2="50.0" style="stroke:#999; stroke-width:3;" />
  <line x1="1001" y1="50.0" x2="1001" y2="50.0" style="stroke:#999; stroke-width:3;" />
  <line x1="1001" y1="50.0" x2="1021" y2="50.0" style="stroke:#999; stroke-width:3;" />
  <rect class="anc_exon" x="1021" y="35.0" width="90" height="30" style="fill:#87bcbc;fill-opacity:1.00" />
  <line x1="1111" y1="50.0" x2="1131" y2="50.0" style="stroke:#999; stroke-width:3;" />
  <line x1="1131" y1="50.0" x2="1131" y2="50.0" style="stroke:#999; stroke-width:3;" />
  <line x1="1131" y1="50.0" x2="1131" y2="50.0" style="stroke:#999; stroke-width:3;" />
  <line x1="1131" y1="50.0" x2="1151" y2="50.0" style="stroke:#999; stroke-width:3;" />
  <rect class="anc_exon" x="1151" y="35.0" width="199" height="30" style="fill:#87bcbc;fill-opacity:1.00" />
  <line x1="1350" y1="50.0" x2="1370" y2="50.0" style="stroke:#999; stroke-width:3;" />
  <line x1="1370" y1="50.0" x2="1370" y2="50.0" style="stroke:#999; stroke-width:3;" />
  <line x1="1370" y1="50.0" x2="1370" y2="50.0" style="stroke:#999; stroke-width:3;" />
  <line x1="1370" y1="50.0" x2="1390" y2="50.0" style="stroke:#999; stroke-width:3;" />
  <rect class="anc_exon" x="1390" y="35.0" width="129" height="30" style="fill:#87bcbc;fill-opacity:1.00" />
  <line x1="1519" y1="50.0" x2="1559" y2="50.0" style="stroke:#999; stroke-width:3;" />
  <rect class="anc_exon" x="1559" y="35.0" width="74" height="30" style="fill:#87bcbc;fill-opacity:1.00" />
  <line x1="1633" y1="50.0" x2="1653" y2="50.0" style="stroke:#999; stroke-width:3;" />
  <line x1="1653" y1="50.0" x2="1653" y2="50.0" style="stroke:#999; stroke-width:3;" />
  <line x1="1653" y1="50.0" x2="1653" y2="50.0" style="stroke:#999; stroke-width:3;" />
  <line x1="1653" y1="50.0" x2="1673" y2="50.0" style="stroke:#999; stroke-width:3;" />
  <rect class="anc_exon" x="1673" y="35.0" width="67" height="30" style="fill:#87bcbc;fill-opacity:1.00" />
  <line x1="1740" y1="50.0" x2="1780" y2="50.0" style="stroke:#999; stroke-width:3;" />
  <rect class="anc_exon" x="1780" y="35.0" width="136" height="30" style="fill:#87bcbc;fill-opacity:1.00" />
  <line x1="1916" y1="50.0" x2="1936" y2="50.0" style="stroke:#999; stroke-width:3;" />
  <line x1="1936" y1="50.0" x2="1936" y2="50.0" style="stroke:#999; stroke-width:3;" />
  <line x1="1936" y1="50.0" x2="1936" y2="50.0" style="stroke:#999; stroke-width:3;" />
  <line x1="1936" y1="50.0" x2="1956" y2="50.0" style="stroke:#999; stroke-width:3;" />
  <rect class="anc_exon" x="1956" y="35.0" width="79" height="30" style="fill:#87bcbc;fill-opacity:1.00" />
  <line x1="2035" y1="50.0" x2="2055" y2="50.0" style="stroke:#999; stroke-width:3;" />
  <line x1="2055" y1="50.0" x2="2055" y2="50.0" style="stroke:#999; stroke-width:3;" />
  <line x1="2055" y1="50.0" x2="2055" y2="50.0" style="stroke:#999; stroke-width:3;" />
  <line x1="2055" y1="50.0" x2="2075" y2="50.0" style="stroke:#999; stroke-width:3;" />
  <rect class="anc_exon" x="2075" y="35.0" width="72" height="30" style="fill:#87bcbc;fill-opacity:1.00" />
  <line x1="2147" y1="50.0" x2="2167" y2="50.0" style="stroke:#999; stroke-width:3;" />
  <line x1="2167" y1="50.0" x2="2167" y2="50.0" style="stroke:#999; stroke-width:3;" />
  <line x1="2167" y1="50.0" x2="2167" y2="50.0" style="stroke:#999; stroke-width:3;" />
  <line x1="2167" y1="50.0" x2="2187" y2="50.0" style="stroke:#999; stroke-width:3;" />
  <rect class="anc_exon" x="2187" y="35.0" width="116" height="30" style="fill:#87bcbc;fill-opacity:1.00" />
  <line x1="2303" y1="50.0" x2="2343" y2="50.0" style="stroke:#999; stroke-width:3;" />
  <rect class="anc_exon" x="2343" y="35.0" width="52" height="30" style="fill:#87bcbc;fill-opacity:1.00" />
  <line x1="2395" y1="50.0" x2="2435" y2="50.0" style="stroke:#999; stroke-width:3;" />
  <rect class="anc_exon" x="2435" y="35.0" width="124" height="30" style="fill:#87bcbc;fill-opacity:1.00" />
  <line x1="2559" y1="50.0" x2="2599" y2="50.0" style="stroke:#999; stroke-width:3;" />
  <rect class="anc_exon" x="2599" y="35.0" width="52" height="30" style="fill:#87bcbc;fill-opacity:1.00" />
  <line x1="2651" y1="50.0" x2="2671" y2="50.0" style="stroke:#999; stroke-width:3;" />
  <line x1="2671" y1="50.0" x2="2671" y2="50.0" style="stroke:#999; stroke-width:3;" />
  <line x1="2671" y1="50.0" x2="2671" y2="50.0" style="stroke:#999; stroke-width:3;" />
  <line x1="2671" y1="50.0" x2="2691" y2="50.0" style="stroke:#999; stroke-width:3;" />
  <rect class="anc_exon" x="2691" y="35.0" width="87" height="30" style="fill:#87bcbc;fill-opacity:1.00" />
  <line x1="2778" y1="50.0" x2="2798" y2="50.0" style="stroke:#999; stroke-width:3;" />
  <line x1="2798" y1="50.0" x2="2798" y2="50.0" style="stroke:#999; stroke-width:3;" />
  <line x1="2798" y1="50.0" x2="2798" y2="50.0" style="stroke:#999; stroke-width:3;" />
  <line x1="2798" y1="50.0" x2="2818" y2="50.0" style="stroke:#999; stroke-width:3;" />
  <rect class="anc_exon" x="2818" y="35.0" width="46" height="30" style="fill:#87bcbc;fill-opacity:1.00" />
  <line x1="2864" y1="50.0" x2="2904" y2="50.0" style="stroke:#999; stroke-width:3;" />
  <rect class="anc_exon" x="2904" y="35.0" width="163" height="30" style="fill:#87bcbc;fill-opacity:1.00" />
  <line x1="3067" y1="50.0" x2="3087" y2="50.0" style="stroke:#999; stroke-width:3;" />
  <line x1="3087" y1="50.0" x2="3087" y2="50.0" style="stroke:#999; stroke-width:3;" />
  <line x1="3087" y1="50.0" x2="3087" y2="50.0" style="stroke:#999; stroke-width:3;" />
  <line x1="3087" y1="50.0" x2="3107" y2="50.0" style="stroke:#999; stroke-width:3;" />
  <rect class="anc_exon" x="3107" y="35.0" width="26" height="30" style="fill:#87bcbc;fill-opacity:1.00" />
  <line x1="3133" y1="50.0" x2="3173" y2="50.0" style="stroke:#999; stroke-width:3;" />
  <rect class="anc_exon" x="3173" y="35.0" width="109" height="30" style="fill:#87bcbc;fill-opacity:1.00" />
  <rect class="anc_exon" x="3282" y="35.0" width="0" height="30" style="fill:#87bcbc;fill-opacity:1.00" />
  <text style="" >
<tspan x="0" y="83.0" style="font-size:18px;" >SP XM_031946733_1.1</tspan>  </text>



<script type="text/ecmascript">
<![CDATA[
function draw_bbox(text_id)
{
    var text_elem = document.getElementById(text_id);
    var offset_px = 2;
    var offset_py = 0;
    bbox = text_elem.getBBox();
    var box = document.createElementNS(document.rootElement.namespaceURI,'rect');
    box.setAttribute('x', bbox.x - offset_px);
    box.setAttribute('y', bbox.y - offset_py);
    box.setAttribute('width', bbox.width + offset_px * 2);
    box.setAttribute('height', bbox.height + offset_py * 2);
    box.setAttribute('style','fill: white;'+'stroke: black;'+'stroke-width: 1px;');
    text_elem.insertBefore(box,text_elem.childNodes[0]);

    var svg = text_elem.parentNode;
    svg.appendChild(text_elem);
}

for (var i=1; i < 1; i++)
{
draw_bbox("Mouseover" + i);
}
]]> 
</script>
</svg>
