<svg version="1.1"
xmlns="http://www.w3.org/2000/svg"
xmlns:xlink="http://www.w3.org/1999/xlink"
width="4882" height="100" viewBox = "0 0 4882 100"
onclick="mouseclick(evt)">

<script type="text/ecmascript">

<![CDATA[
    function mouseover(evt, target) { 
    var gv = document.getElementById("globalVariable");
    var previoustarget = gv.firstChild.nodeValue;
    if (previoustarget != "none") 
    {
        	document.getElementById(gv.firstChild.nodeValue).setAttributeNS(null, "visibility", "hidden");
    }
    document.getElementById(target).setAttributeNS(null, "visibility", "visible");
    gv.firstChild.nodeValue = target;
        }

    function mouseclick(evt) { 
    var gv = document.getElementById("globalVariable");
    var previoustarget = gv.firstChild.nodeValue;
    if (previoustarget != "none") {
        	document.getElementById(gv.firstChild.nodeValue).setAttributeNS(null, "visibility", "hidden");
        }
    }
]]>
  </script>
<style type="text/css" >

<![CDATA[
    rect.anc_exon {
              stroke-width:3;
                  }

    rect.non_anc_exon {
              stroke: black; stroke-width:3; stroke-dasharray: 5,5;
                    }

    text {
              font-size: 18px;
              font-family: Courier New;
          }
                    ]]>
</style>

<defs>
    <text x="150" y="40" id="globalVariable">none</text>
</defs>

  <rect class="anc_exon" x="0" y="35.0" width="0" height="30" style="fill:#87bcbc;fill-opacity:1.00" />
  <rect class="anc_exon" x="0" y="35.0" width="38.400000000000006" height="30" style="fill:#87bcbc;fill-opacity:1.00" />
  <line x1="38.400000000000006" y1="50.0" x2="57.400000000000006" y2="50.0" style="stroke:#999; stroke-width:3;" />
  <line x1="57.400000000000006" y1="50.0" x2="57.400000000000006" y2="50.0" style="stroke:#999; stroke-width:3;" />
  <line x1="57.400000000000006" y1="50.0" x2="57.400000000000006" y2="50.0" style="stroke:#999; stroke-width:3;" />
  <line x1="57.400000000000006" y1="50.0" x2="78.0" y2="50.0" style="stroke:#999; stroke-width:3;" />
  <rect class="anc_exon" x="78" y="35.0" width="141" height="30" style="fill:#87bcbc;fill-opacity:1.00" />
  <line x1="219" y1="50.0" x2="259" y2="50.0" style="stroke:#999; stroke-width:3;" />
  <rect class="anc_exon" x="259" y="35.0" width="100" height="30" style="fill:#87bcbc;fill-opacity:1.00" />
  <line x1="359" y1="50.0" x2="379" y2="50.0" style="stroke:#999; stroke-width:3;" />
  <line x1="379" y1="50.0" x2="379" y2="50.0" style="stroke:#999; stroke-width:3;" />
  <line x1="379" y1="50.0" x2="379" y2="50.0" style="stroke:#999; stroke-width:3;" />
  <line x1="379" y1="50.0" x2="399" y2="50.0" style="stroke:#999; stroke-width:3;" />
  <rect class="anc_exon" x="399" y="35.0" width="110" height="30" style="fill:#87bcbc;fill-opacity:1.00" />
  <line x1="509" y1="50.0" x2="549" y2="50.0" style="stroke:#999; stroke-width:3;" />
  <rect class="anc_exon" x="549" y="35.0" width="100" height="30" style="fill:#878787;fill-opacity:1.00" />
  <line x1="649" y1="50.0" x2="669" y2="50.0" style="stroke:#999; stroke-width:3;" />
  <line x1="669" y1="50.0" x2="669" y2="50.0" style="stroke:#999; stroke-width:3;" />
  <line x1="669" y1="50.0" x2="669" y2="50.0" style="stroke:#999; stroke-width:3;" />
  <line x1="669" y1="50.0" x2="689" y2="50.0" style="stroke:#999; stroke-width:3;" />
  <rect class="anc_exon" x="689" y="35.0" width="49" height="30" style="fill:#87bcbc;fill-opacity:1.00" />
  <line x1="738" y1="50.0" x2="778" y2="50.0" style="stroke:#999; stroke-width:3;" />
  <rect class="anc_exon" x="778" y="35.0" width="105" height="30" style="fill:#87bcbc;fill-opacity:1.00" />
  <line x1="883" y1="50.0" x2="903" y2="50.0" style="stroke:#999; stroke-width:3;" />
  <line x1="903" y1="50.0" x2="903" y2="50.0" style="stroke:#999; stroke-width:3;" />
  <line x1="903" y1="50.0" x2="903" y2="50.0" style="stroke:#999; stroke-width:3;" />
  <line x1="903" y1="50.0" x2="923" y2="50.0" style="stroke:#999; stroke-width:3;" />
  <rect class="anc_exon" x="923" y="35.0" width="184" height="30" style="fill:#87bcbc;fill-opacity:1.00" />
  <line x1="1107" y1="50.0" x2="1147" y2="50.0" style="stroke:#999; stroke-width:3;" />
  <rect class="anc_exon" x="1147" y="35.0" width="142" height="30" style="fill:#87bcbc;fill-opacity:1.00" />
  <line x1="1289" y1="50.0" x2="1329" y2="50.0" style="stroke:#999; stroke-width:3;" />
  <rect class="anc_exon" x="1329" y="35.0" width="129" height="30" style="fill:#87bcbc;fill-opacity:1.00" />
  <line x1="1458" y1="50.0" x2="1478" y2="50.0" style="stroke:#999; stroke-width:3;" />
  <line x1="1478" y1="50.0" x2="1478" y2="50.0" style="stroke:#999; stroke-width:3;" />
  <line x1="1478" y1="50.0" x2="1478" y2="50.0" style="stroke:#999; stroke-width:3;" />
  <line x1="1478" y1="50.0" x2="1498" y2="50.0" style="stroke:#999; stroke-width:3;" />
  <rect class="anc_exon" x="1498" y="35.0" width="74" height="30" style="fill:#87bcbc;fill-opacity:1.00" />
  <line x1="1572" y1="50.0" x2="1592" y2="50.0" style="stroke:#999; stroke-width:3;" />
  <line x1="1592" y1="50.0" x2="1592" y2="50.0" style="stroke:#999; stroke-width:3;" />
  <line x1="1592" y1="50.0" x2="1592" y2="50.0" style="stroke:#999; stroke-width:3;" />
  <line x1="1592" y1="50.0" x2="1612" y2="50.0" style="stroke:#999; stroke-width:3;" />
  <rect class="anc_exon" x="1612" y="35.0" width="163" height="30" style="fill:#87bcbc;fill-opacity:1.00" />
  <line x1="1775" y1="50.0" x2="1795" y2="50.0" style="stroke:#999; stroke-width:3;" />
  <line x1="1795" y1="50.0" x2="1795" y2="50.0" style="stroke:#999; stroke-width:3;" />
  <line x1="1795" y1="50.0" x2="1795" y2="50.0" style="stroke:#999; stroke-width:3;" />
  <line x1="1795" y1="50.0" x2="1815" y2="50.0" style="stroke:#999; stroke-width:3;" />
  <rect class="anc_exon" x="1815" y="35.0" width="117" height="30" style="fill:#87bcbc;fill-opacity:1.00" />
  <line x1="1932" y1="50.0" x2="1972" y2="50.0" style="stroke:#999; stroke-width:3;" />
  <rect class="anc_exon" x="1972" y="35.0" width="70" height="30" style="fill:#87bcbc;fill-opacity:1.00" />
  <line x1="2042" y1="50.0" x2="2062" y2="50.0" style="stroke:#999; stroke-width:3;" />
  <line x1="2062" y1="50.0" x2="2062" y2="50.0" style="stroke:#999; stroke-width:3;" />
  <line x1="2062" y1="50.0" x2="2062" y2="50.0" style="stroke:#999; stroke-width:3;" />
  <line x1="2062" y1="50.0" x2="2082" y2="50.0" style="stroke:#999; stroke-width:3;" />
  <rect class="anc_exon" x="2082" y="35.0" width="58" height="30" style="fill:#87bcbc;fill-opacity:1.00" />
  <line x1="2140" y1="50.0" x2="2180" y2="50.0" style="stroke:#999; stroke-width:3;" />
  <rect class="anc_exon" x="2180" y="35.0" width="101" height="30" style="fill:#87bcbc;fill-opacity:1.00" />
  <line x1="2281" y1="50.0" x2="2301" y2="50.0" style="stroke:#999; stroke-width:3;" />
  <line x1="2301" y1="50.0" x2="2301" y2="50.0" style="stroke:#999; stroke-width:3;" />
  <line x1="2301" y1="50.0" x2="2301" y2="50.0" style="stroke:#999; stroke-width:3;" />
  <line x1="2301" y1="50.0" x2="2321" y2="50.0" style="stroke:#999; stroke-width:3;" />
  <rect class="anc_exon" x="2321" y="35.0" width="141" height="30" style="fill:#87bcbc;fill-opacity:1.00" />
  <line x1="2462" y1="50.0" x2="2502" y2="50.0" style="stroke:#999; stroke-width:3;" />
  <rect class="anc_exon" x="2502" y="35.0" width="134" height="30" style="fill:#87bcbc;fill-opacity:1.00" />
  <line x1="2636" y1="50.0" x2="2676" y2="50.0" style="stroke:#999; stroke-width:3;" />
  <rect class="anc_exon" x="2676" y="35.0" width="142" height="30" style="fill:#87bcbc;fill-opacity:1.00" />
  <line x1="2818" y1="50.0" x2="2838" y2="50.0" style="stroke:#999; stroke-width:3;" />
  <line x1="2838" y1="50.0" x2="2838" y2="50.0" style="stroke:#999; stroke-width:3;" />
  <line x1="2838" y1="50.0" x2="2838" y2="50.0" style="stroke:#999; stroke-width:3;" />
  <line x1="2838" y1="50.0" x2="2858" y2="50.0" style="stroke:#999; stroke-width:3;" />
  <rect class="anc_exon" x="2858" y="35.0" width="68" height="30" style="fill:#87bcbc;fill-opacity:1.00" />
  <line x1="2926" y1="50.0" x2="2946" y2="50.0" style="stroke:#999; stroke-width:3;" />
  <line x1="2946" y1="50.0" x2="2946" y2="50.0" style="stroke:#999; stroke-width:3;" />
  <line x1="2946" y1="50.0" x2="2946" y2="50.0" style="stroke:#999; stroke-width:3;" />
  <line x1="2946" y1="50.0" x2="2966" y2="50.0" style="stroke:#999; stroke-width:3;" />
  <rect class="anc_exon" x="2966" y="35.0" width="104" height="30" style="fill:#87bcbc;fill-opacity:1.00" />
  <line x1="3070" y1="50.0" x2="3110" y2="50.0" style="stroke:#999; stroke-width:3;" />
  <rect class="anc_exon" x="3110" y="35.0" width="166" height="30" style="fill:#87bcbc;fill-opacity:1.00" />
  <line x1="3276" y1="50.0" x2="3316" y2="50.0" style="stroke:#999; stroke-width:3;" />
  <rect class="anc_exon" x="3316" y="35.0" width="248" height="30" style="fill:#87bcbc;fill-opacity:1.00" />
  <line x1="3564" y1="50.0" x2="3604" y2="50.0" style="stroke:#999; stroke-width:3;" />
  <rect class="anc_exon" x="3604" y="35.0" width="160" height="30" style="fill:#87bcbc;fill-opacity:1.00" />
  <line x1="3764" y1="50.0" x2="3784" y2="50.0" style="stroke:#999; stroke-width:3;" />
  <line x1="3784" y1="50.0" x2="3784" y2="50.0" style="stroke:#999; stroke-width:3;" />
  <line x1="3784" y1="50.0" x2="3784" y2="50.0" style="stroke:#999; stroke-width:3;" />
  <line x1="3784" y1="50.0" x2="3804" y2="50.0" style="stroke:#999; stroke-width:3;" />
  <rect class="anc_exon" x="3804" y="35.0" width="101" height="30" style="fill:#87bcbc;fill-opacity:1.00" />
  <line x1="3905" y1="50.0" x2="3925" y2="50.0" style="stroke:#999; stroke-width:3;" />
  <line x1="3925" y1="50.0" x2="3925" y2="50.0" style="stroke:#999; stroke-width:3;" />
  <line x1="3925" y1="50.0" x2="3925" y2="50.0" style="stroke:#999; stroke-width:3;" />
  <line x1="3925" y1="50.0" x2="3945" y2="50.0" style="stroke:#999; stroke-width:3;" />
  <rect class="anc_exon" x="3945" y="35.0" width="81" height="30" style="fill:#87bcbc;fill-opacity:1.00" />
  <line x1="4026" y1="50.0" x2="4046" y2="50.0" style="stroke:#999; stroke-width:3;" />
  <line x1="4046" y1="50.0" x2="4046" y2="50.0" style="stroke:#999; stroke-width:3;" />
  <line x1="4046" y1="50.0" x2="4046" y2="50.0" style="stroke:#999; stroke-width:3;" />
  <line x1="4046" y1="50.0" x2="4066" y2="50.0" style="stroke:#999; stroke-width:3;" />
  <rect class="anc_exon" x="4066" y="35.0" width="117" height="30" style="fill:#87bcbc;fill-opacity:1.00" />
  <line x1="4183" y1="50.0" x2="4223" y2="50.0" style="stroke:#999; stroke-width:3;" />
  <rect class="anc_exon" x="4223" y="35.0" width="127" height="30" style="fill:#87bcbc;fill-opacity:1.00" />
  <line x1="4350" y1="50.0" x2="4390" y2="50.0" style="stroke:#999; stroke-width:3;" />
  <rect class="anc_exon" x="4390" y="35.0" width="133" height="30" style="fill:#87bcbc;fill-opacity:1.00" />
  <line x1="4523" y1="50.0" x2="4543" y2="50.0" style="stroke:#999; stroke-width:3;" />
  <line x1="4543" y1="50.0" x2="4543" y2="50.0" style="stroke:#999; stroke-width:3;" />
  <line x1="4543" y1="50.0" x2="4543" y2="50.0" style="stroke:#999; stroke-width:3;" />
  <line x1="4543" y1="50.0" x2="4563" y2="50.0" style="stroke:#999; stroke-width:3;" />
  <rect class="anc_exon" x="4563" y="35.0" width="156" height="30" style="fill:#87bcbc;fill-opacity:1.00" />
  <line x1="4719" y1="50.0" x2="4759" y2="50.0" style="stroke:#999; stroke-width:3;" />
  <rect class="anc_exon" x="4759" y="35.0" width="87" height="30" style="fill:#87bcbc;fill-opacity:1.00" />
  <rect class="anc_exon" x="4846" y="35.0" width="0" height="30" style="fill:#87bcbc;fill-opacity:1.00" />
  <text style="" >
<tspan x="0" y="83.0" style="font-size:18px;" >SP XM_031944179_1.1</tspan>  </text>



<script type="text/ecmascript">
<![CDATA[
function draw_bbox(text_id)
{
    var text_elem = document.getElementById(text_id);
    var offset_px = 2;
    var offset_py = 0;
    bbox = text_elem.getBBox();
    var box = document.createElementNS(document.rootElement.namespaceURI,'rect');
    box.setAttribute('x', bbox.x - offset_px);
    box.setAttribute('y', bbox.y - offset_py);
    box.setAttribute('width', bbox.width + offset_px * 2);
    box.setAttribute('height', bbox.height + offset_py * 2);
    box.setAttribute('style','fill: white;'+'stroke: black;'+'stroke-width: 1px;');
    text_elem.insertBefore(box,text_elem.childNodes[0]);

    var svg = text_elem.parentNode;
    svg.appendChild(text_elem);
}

for (var i=1; i < 1; i++)
{
draw_bbox("Mouseover" + i);
}
]]> 
</script>
</svg>
