<svg version="1.1"
xmlns="http://www.w3.org/2000/svg"
xmlns:xlink="http://www.w3.org/1999/xlink"
width="6021" height="120.0" viewBox = "0 -20.0 6021 120.0"
onclick="mouseclick(evt)">

<script type="text/ecmascript">

<![CDATA[
    function mouseover(evt, target) { 
    var gv = document.getElementById("globalVariable");
    var previoustarget = gv.firstChild.nodeValue;
    if (previoustarget != "none") 
    {
        	document.getElementById(gv.firstChild.nodeValue).setAttributeNS(null, "visibility", "hidden");
    }
    document.getElementById(target).setAttributeNS(null, "visibility", "visible");
    gv.firstChild.nodeValue = target;
        }

    function mouseclick(evt) { 
    var gv = document.getElementById("globalVariable");
    var previoustarget = gv.firstChild.nodeValue;
    if (previoustarget != "none") {
        	document.getElementById(gv.firstChild.nodeValue).setAttributeNS(null, "visibility", "hidden");
        }
    }
]]>
  </script>
<style type="text/css" >

<![CDATA[
    rect.anc_exon {
              stroke-width:3;
                  }

    rect.non_anc_exon {
              stroke: black; stroke-width:3; stroke-dasharray: 5,5;
                    }

    text {
              font-size: 18px;
              font-family: Courier New;
          }
                    ]]>
</style>

<defs>
    <text x="150" y="40" id="globalVariable">none</text>
</defs>

  <rect class="anc_exon" x="0" y="35.0" width="0" height="30" style="fill:#87bcbc;fill-opacity:1.00" />
  <rect class="anc_exon" x="0" y="35.0" width="56.0" height="30" style="fill:#87bcbc;fill-opacity:1.00" />
  <line x1="8.8" y1="35.0" x2="8.8" y2="65.0" style="stroke:#878787;stroke-width:3;"/>
  <polygon points="36.800000000000004,35.0 39.300000000000004,25.0 34.300000000000004,25.0" style="fill:#121212; stroke-opacity:1; fill-opacity:1"/>
  <text style="" text-anchor="middle">
<tspan x="8.0" y="26.0" style="font-size:18px;fill:#878787;" >TAG</tspan>  </text>
  <text style="" text-anchor="middle">
<tspan x="36.800000000000004" y="16.0" style="font-size:18px;fill:#121212;" >+2</tspan>  </text>
  <line x1="56.0" y1="50.0" x2="76.0" y2="50.0" style="stroke:#999; stroke-width:3;" />
  <line x1="76.0" y1="50.0" x2="76.0" y2="50.0" style="stroke:#999; stroke-width:3;" />
  <line x1="76.0" y1="50.0" x2="76.0" y2="50.0" style="stroke:#999; stroke-width:3;" />
  <line x1="76.0" y1="50.0" x2="96.0" y2="50.0" style="stroke:#999; stroke-width:3;" />
  <rect class="anc_exon" x="96" y="35.0" width="96" height="30" style="fill:#87bcbc;fill-opacity:1.00" />
  <line x1="192" y1="50.0" x2="212" y2="50.0" style="stroke:#999; stroke-width:3;" />
  <line x1="212" y1="50.0" x2="212" y2="50.0" style="stroke:#999; stroke-width:3;" />
  <line x1="212" y1="50.0" x2="212" y2="50.0" style="stroke:#999; stroke-width:3;" />
  <line x1="212" y1="50.0" x2="232" y2="50.0" style="stroke:#999; stroke-width:3;" />
  <rect class="anc_exon" x="232" y="35.0" width="44" height="30" style="fill:#87bcbc;fill-opacity:1.00" />
  <line x1="276" y1="50.0" x2="316" y2="50.0" style="stroke:#999; stroke-width:3;" />
  <rect class="anc_exon" x="316" y="35.0" width="105" height="30" style="fill:#87bcbc;fill-opacity:1.00" />
  <line x1="421" y1="50.0" x2="441" y2="50.0" style="stroke:#999; stroke-width:3;" />
  <line x1="441" y1="50.0" x2="441" y2="50.0" style="stroke:#999; stroke-width:3;" />
  <line x1="441" y1="50.0" x2="441" y2="50.0" style="stroke:#999; stroke-width:3;" />
  <line x1="441" y1="50.0" x2="461" y2="50.0" style="stroke:#999; stroke-width:3;" />
  <rect class="anc_exon" x="461" y="35.0" width="50" height="30" style="fill:#87bcbc;fill-opacity:1.00" />
  <line x1="511" y1="50.0" x2="531" y2="50.0" style="stroke:#999; stroke-width:3;" />
  <line x1="531" y1="50.0" x2="531" y2="50.0" style="stroke:#999; stroke-width:3;" />
  <line x1="531" y1="50.0" x2="531" y2="50.0" style="stroke:#999; stroke-width:3;" />
  <line x1="531" y1="50.0" x2="551" y2="50.0" style="stroke:#999; stroke-width:3;" />
  <rect class="anc_exon" x="551" y="35.0" width="63" height="30" style="fill:#87bcbc;fill-opacity:1.00" />
  <line x1="614" y1="50.0" x2="634" y2="50.0" style="stroke:#999; stroke-width:3;" />
  <line x1="634" y1="50.0" x2="634" y2="50.0" style="stroke:#999; stroke-width:3;" />
  <line x1="634" y1="50.0" x2="634" y2="50.0" style="stroke:#999; stroke-width:3;" />
  <line x1="634" y1="50.0" x2="654" y2="50.0" style="stroke:#999; stroke-width:3;" />
  <rect class="anc_exon" x="654" y="35.0" width="125" height="30" style="fill:#87bcbc;fill-opacity:1.00" />
  <line x1="779" y1="50.0" x2="819" y2="50.0" style="stroke:#999; stroke-width:3;" />
  <rect class="anc_exon" x="819" y="35.0" width="149" height="30" style="fill:#87bcbc;fill-opacity:1.00" />
  <line x1="968" y1="50.0" x2="988" y2="50.0" style="stroke:#999; stroke-width:3;" />
  <line x1="988" y1="50.0" x2="988" y2="50.0" style="stroke:#999; stroke-width:3;" />
  <line x1="988" y1="50.0" x2="988" y2="50.0" style="stroke:#999; stroke-width:3;" />
  <line x1="988" y1="50.0" x2="1008" y2="50.0" style="stroke:#999; stroke-width:3;" />
  <rect class="anc_exon" x="1008" y="35.0" width="154" height="30" style="fill:#87bcbc;fill-opacity:1.00" />
  <line x1="1162" y1="50.0" x2="1182" y2="50.0" style="stroke:#999; stroke-width:3;" />
  <line x1="1182" y1="50.0" x2="1182" y2="50.0" style="stroke:#999; stroke-width:3;" />
  <line x1="1182" y1="50.0" x2="1182" y2="50.0" style="stroke:#999; stroke-width:3;" />
  <line x1="1182" y1="50.0" x2="1202" y2="50.0" style="stroke:#999; stroke-width:3;" />
  <rect class="anc_exon" x="1202" y="35.0" width="270" height="30" style="fill:#87bcbc;fill-opacity:1.00" />
  <line x1="1472" y1="50.0" x2="1492" y2="50.0" style="stroke:#999; stroke-width:3;" />
  <line x1="1492" y1="50.0" x2="1492" y2="50.0" style="stroke:#999; stroke-width:3;" />
  <line x1="1492" y1="50.0" x2="1492" y2="50.0" style="stroke:#999; stroke-width:3;" />
  <line x1="1492" y1="50.0" x2="1512" y2="50.0" style="stroke:#999; stroke-width:3;" />
  <rect class="anc_exon" x="1512" y="35.0" width="87" height="30" style="fill:#87bcbc;fill-opacity:1.00" />
  <line x1="1599" y1="50.0" x2="1639" y2="50.0" style="stroke:#999; stroke-width:3;" />
  <rect class="anc_exon" x="1639" y="35.0" width="147" height="30" style="fill:#87bcbc;fill-opacity:1.00" />
  <line x1="1786" y1="50.0" x2="1806" y2="50.0" style="stroke:#999; stroke-width:3;" />
  <line x1="1806" y1="50.0" x2="1806" y2="50.0" style="stroke:#999; stroke-width:3;" />
  <line x1="1806" y1="50.0" x2="1806" y2="50.0" style="stroke:#999; stroke-width:3;" />
  <line x1="1806" y1="50.0" x2="1826" y2="50.0" style="stroke:#999; stroke-width:3;" />
  <rect class="anc_exon" x="1826" y="35.0" width="96" height="30" style="fill:#87bcbc;fill-opacity:1.00" />
  <line x1="1922" y1="50.0" x2="1942" y2="50.0" style="stroke:#999; stroke-width:3;" />
  <line x1="1942" y1="50.0" x2="1942" y2="50.0" style="stroke:#999; stroke-width:3;" />
  <line x1="1942" y1="50.0" x2="1942" y2="50.0" style="stroke:#999; stroke-width:3;" />
  <line x1="1942" y1="50.0" x2="1962" y2="50.0" style="stroke:#999; stroke-width:3;" />
  <rect class="anc_exon" x="1962" y="35.0" width="80" height="30" style="fill:#87bcbc;fill-opacity:1.00" />
  <line x1="2042" y1="50.0" x2="2062" y2="50.0" style="stroke:#999; stroke-width:3;" />
  <line x1="2062" y1="50.0" x2="2062" y2="50.0" style="stroke:#999; stroke-width:3;" />
  <line x1="2062" y1="50.0" x2="2062" y2="50.0" style="stroke:#999; stroke-width:3;" />
  <line x1="2062" y1="50.0" x2="2082" y2="50.0" style="stroke:#999; stroke-width:3;" />
  <rect class="anc_exon" x="2082" y="35.0" width="72" height="30" style="fill:#87bcbc;fill-opacity:1.00" />
  <line x1="2154" y1="50.0" x2="2194" y2="50.0" style="stroke:#999; stroke-width:3;" />
  <rect class="anc_exon" x="2194" y="35.0" width="96" height="30" style="fill:#87bcbc;fill-opacity:1.00" />
  <line x1="2290" y1="50.0" x2="2310" y2="50.0" style="stroke:#999; stroke-width:3;" />
  <line x1="2310" y1="50.0" x2="2310" y2="50.0" style="stroke:#999; stroke-width:3;" />
  <line x1="2310" y1="50.0" x2="2310" y2="50.0" style="stroke:#999; stroke-width:3;" />
  <line x1="2310" y1="50.0" x2="2330" y2="50.0" style="stroke:#999; stroke-width:3;" />
  <rect class="anc_exon" x="2330" y="35.0" width="122" height="30" style="fill:#87bcbc;fill-opacity:1.00" />
  <line x1="2452" y1="50.0" x2="2472" y2="50.0" style="stroke:#999; stroke-width:3;" />
  <line x1="2472" y1="50.0" x2="2472" y2="50.0" style="stroke:#999; stroke-width:3;" />
  <line x1="2472" y1="50.0" x2="2472" y2="50.0" style="stroke:#999; stroke-width:3;" />
  <line x1="2472" y1="50.0" x2="2492" y2="50.0" style="stroke:#999; stroke-width:3;" />
  <rect class="anc_exon" x="2492" y="35.0" width="142" height="30" style="fill:#87bcbc;fill-opacity:1.00" />
  <line x1="2634" y1="50.0" x2="2654" y2="50.0" style="stroke:#999; stroke-width:3;" />
  <line x1="2654" y1="50.0" x2="2654" y2="50.0" style="stroke:#999; stroke-width:3;" />
  <line x1="2654" y1="50.0" x2="2654" y2="50.0" style="stroke:#999; stroke-width:3;" />
  <line x1="2654" y1="50.0" x2="2674" y2="50.0" style="stroke:#999; stroke-width:3;" />
  <rect class="anc_exon" x="2674" y="35.0" width="100" height="30" style="fill:#87bcbc;fill-opacity:1.00" />
  <line x1="2774" y1="50.0" x2="2794" y2="50.0" style="stroke:#999; stroke-width:3;" />
  <line x1="2794" y1="50.0" x2="2794" y2="50.0" style="stroke:#999; stroke-width:3;" />
  <line x1="2794" y1="50.0" x2="2794" y2="50.0" style="stroke:#999; stroke-width:3;" />
  <line x1="2794" y1="50.0" x2="2814" y2="50.0" style="stroke:#999; stroke-width:3;" />
  <rect class="anc_exon" x="2814" y="35.0" width="108" height="30" style="fill:#87bcbc;fill-opacity:1.00" />
  <line x1="2922" y1="50.0" x2="2942" y2="50.0" style="stroke:#999; stroke-width:3;" />
  <line x1="2942" y1="50.0" x2="2942" y2="50.0" style="stroke:#999; stroke-width:3;" />
  <line x1="2942" y1="50.0" x2="2942" y2="50.0" style="stroke:#999; stroke-width:3;" />
  <line x1="2942" y1="50.0" x2="2962" y2="50.0" style="stroke:#999; stroke-width:3;" />
  <rect class="anc_exon" x="2962" y="35.0" width="120" height="30" style="fill:#87bcbc;fill-opacity:1.00" />
  <line x1="3082" y1="50.0" x2="3102" y2="50.0" style="stroke:#999; stroke-width:3;" />
  <line x1="3102" y1="50.0" x2="3102" y2="50.0" style="stroke:#999; stroke-width:3;" />
  <line x1="3102" y1="50.0" x2="3102" y2="50.0" style="stroke:#999; stroke-width:3;" />
  <line x1="3102" y1="50.0" x2="3122" y2="50.0" style="stroke:#999; stroke-width:3;" />
  <rect class="anc_exon" x="3122" y="35.0" width="88" height="30" style="fill:#87bcbc;fill-opacity:1.00" />
  <line x1="3210" y1="50.0" x2="3230" y2="50.0" style="stroke:#999; stroke-width:3;" />
  <line x1="3230" y1="50.0" x2="3230" y2="50.0" style="stroke:#999; stroke-width:3;" />
  <line x1="3230" y1="50.0" x2="3230" y2="50.0" style="stroke:#999; stroke-width:3;" />
  <line x1="3230" y1="50.0" x2="3250" y2="50.0" style="stroke:#999; stroke-width:3;" />
  <rect class="anc_exon" x="3250" y="35.0" width="129" height="30" style="fill:#87bcbc;fill-opacity:1.00" />
  <line x1="3379" y1="50.0" x2="3399" y2="50.0" style="stroke:#999; stroke-width:3;" />
  <line x1="3399" y1="50.0" x2="3399" y2="50.0" style="stroke:#999; stroke-width:3;" />
  <line x1="3399" y1="50.0" x2="3399" y2="50.0" style="stroke:#999; stroke-width:3;" />
  <line x1="3399" y1="50.0" x2="3419" y2="50.0" style="stroke:#999; stroke-width:3;" />
  <rect class="anc_exon" x="3419" y="35.0" width="144" height="30" style="fill:#87bcbc;fill-opacity:1.00" />
  <line x1="3563" y1="50.0" x2="3603" y2="50.0" style="stroke:#999; stroke-width:3;" />
  <rect class="anc_exon" x="3603" y="35.0" width="186" height="30" style="fill:#87bcbc;fill-opacity:1.00" />
  <line x1="3789" y1="50.0" x2="3829" y2="50.0" style="stroke:#999; stroke-width:3;" />
  <rect class="anc_exon" x="3829" y="35.0" width="98" height="30" style="fill:#87bcbc;fill-opacity:1.00" />
  <line x1="3927" y1="50.0" x2="3967" y2="50.0" style="stroke:#999; stroke-width:3;" />
  <rect class="anc_exon" x="3967" y="35.0" width="20" height="30" style="fill:#87bcbc;fill-opacity:1.00" />
  <line x1="3987" y1="50.0" x2="4007" y2="50.0" style="stroke:#999; stroke-width:3;" />
  <line x1="4007" y1="50.0" x2="4007" y2="50.0" style="stroke:#999; stroke-width:3;" />
  <line x1="4007" y1="50.0" x2="4007" y2="50.0" style="stroke:#999; stroke-width:3;" />
  <line x1="4007" y1="50.0" x2="4027" y2="50.0" style="stroke:#999; stroke-width:3;" />
  <rect class="anc_exon" x="4027" y="35.0" width="92" height="30" style="fill:#87bcbc;fill-opacity:1.00" />
  <line x1="4119" y1="50.0" x2="4159" y2="50.0" style="stroke:#999; stroke-width:3;" />
  <rect class="anc_exon" x="4159" y="35.0" width="105" height="30" style="fill:#87bcbc;fill-opacity:1.00" />
  <line x1="4264" y1="50.0" x2="4304" y2="50.0" style="stroke:#999; stroke-width:3;" />
  <rect class="anc_exon" x="4304" y="35.0" width="100" height="30" style="fill:#87bcbc;fill-opacity:1.00" />
  <line x1="4404" y1="50.0" x2="4424" y2="50.0" style="stroke:#999; stroke-width:3;" />
  <line x1="4424" y1="50.0" x2="4424" y2="50.0" style="stroke:#999; stroke-width:3;" />
  <line x1="4424" y1="50.0" x2="4424" y2="50.0" style="stroke:#999; stroke-width:3;" />
  <line x1="4424" y1="50.0" x2="4444" y2="50.0" style="stroke:#999; stroke-width:3;" />
  <rect class="anc_exon" x="4444" y="35.0" width="102" height="30" style="fill:#87bcbc;fill-opacity:1.00" />
  <line x1="4546" y1="50.0" x2="4566" y2="50.0" style="stroke:#999; stroke-width:3;" />
  <line x1="4566" y1="50.0" x2="4566" y2="50.0" style="stroke:#999; stroke-width:3;" />
  <line x1="4566" y1="50.0" x2="4566" y2="50.0" style="stroke:#999; stroke-width:3;" />
  <line x1="4566" y1="50.0" x2="4586" y2="50.0" style="stroke:#999; stroke-width:3;" />
  <rect class="anc_exon" x="4586" y="35.0" width="136" height="30" style="fill:#87bcbc;fill-opacity:1.00" />
  <line x1="4722" y1="50.0" x2="4742" y2="50.0" style="stroke:#999; stroke-width:3;" />
  <line x1="4742" y1="50.0" x2="4742" y2="50.0" style="stroke:#999; stroke-width:3;" />
  <line x1="4742" y1="50.0" x2="4742" y2="50.0" style="stroke:#999; stroke-width:3;" />
  <line x1="4742" y1="50.0" x2="4762" y2="50.0" style="stroke:#999; stroke-width:3;" />
  <rect class="anc_exon" x="4762" y="35.0" width="128" height="30" style="fill:#87bcbc;fill-opacity:1.00" />
  <line x1="4890" y1="50.0" x2="4910" y2="50.0" style="stroke:#999; stroke-width:3;" />
  <line x1="4910" y1="50.0" x2="4910" y2="50.0" style="stroke:#999; stroke-width:3;" />
  <line x1="4910" y1="50.0" x2="4910" y2="50.0" style="stroke:#999; stroke-width:3;" />
  <line x1="4910" y1="50.0" x2="4930" y2="50.0" style="stroke:#999; stroke-width:3;" />
  <rect class="anc_exon" x="4930" y="35.0" width="114" height="30" style="fill:#87bcbc;fill-opacity:1.00" />
  <line x1="5044" y1="50.0" x2="5084" y2="50.0" style="stroke:#999; stroke-width:3;" />
  <rect class="anc_exon" x="5084" y="35.0" width="71" height="30" style="fill:#87bcbc;fill-opacity:1.00" />
  <line x1="5155" y1="50.0" x2="5175" y2="50.0" style="stroke:#999; stroke-width:3;" />
  <line x1="5175" y1="50.0" x2="5175" y2="50.0" style="stroke:#999; stroke-width:3;" />
  <line x1="5175" y1="50.0" x2="5175" y2="50.0" style="stroke:#999; stroke-width:3;" />
  <line x1="5175" y1="50.0" x2="5195" y2="50.0" style="stroke:#999; stroke-width:3;" />
  <rect class="anc_exon" x="5195" y="35.0" width="79" height="30" style="fill:#87bcbc;fill-opacity:1.00" />
  <line x1="5274" y1="50.0" x2="5294" y2="50.0" style="stroke:#999; stroke-width:3;" />
  <line x1="5294" y1="50.0" x2="5294" y2="50.0" style="stroke:#999; stroke-width:3;" />
  <line x1="5294" y1="50.0" x2="5294" y2="50.0" style="stroke:#999; stroke-width:3;" />
  <line x1="5294" y1="50.0" x2="5314" y2="50.0" style="stroke:#999; stroke-width:3;" />
  <rect class="anc_exon" x="5314" y="35.0" width="193" height="30" style="fill:#87bcbc;fill-opacity:1.00" />
  <line x1="5507" y1="50.0" x2="5527" y2="50.0" style="stroke:#999; stroke-width:3;" />
  <line x1="5527" y1="50.0" x2="5527" y2="50.0" style="stroke:#999; stroke-width:3;" />
  <line x1="5527" y1="50.0" x2="5527" y2="50.0" style="stroke:#999; stroke-width:3;" />
  <line x1="5527" y1="50.0" x2="5547" y2="50.0" style="stroke:#999; stroke-width:3;" />
  <rect class="anc_exon" x="5547" y="35.0" width="131" height="30" style="fill:#87bcbc;fill-opacity:1.00" />
  <line x1="5678" y1="50.0" x2="5698" y2="50.0" style="stroke:#999; stroke-width:3;" />
  <line x1="5698" y1="50.0" x2="5698" y2="50.0" style="stroke:#999; stroke-width:3;" />
  <line x1="5698" y1="50.0" x2="5698" y2="50.0" style="stroke:#999; stroke-width:3;" />
  <line x1="5698" y1="50.0" x2="5718" y2="50.0" style="stroke:#999; stroke-width:3;" />
  <rect class="anc_exon" x="5718" y="35.0" width="80" height="30" style="fill:#87bcbc;fill-opacity:1.00" />
  <line x1="5798" y1="50.0" x2="5838" y2="50.0" style="stroke:#999; stroke-width:3;" />
  <rect class="anc_exon" x="5838" y="35.0" width="147" height="30" style="fill:#87bcbc;fill-opacity:1.00" />
  <rect class="anc_exon" x="5985" y="35.0" width="0" height="30" style="fill:#87bcbc;fill-opacity:1.00" />
  <text style="" >
<tspan x="0" y="83.0" style="font-size:18px;" >SP XM_031947271_1.1</tspan>  </text>



<script type="text/ecmascript">
<![CDATA[
function draw_bbox(text_id)
{
    var text_elem = document.getElementById(text_id);
    var offset_px = 2;
    var offset_py = 0;
    bbox = text_elem.getBBox();
    var box = document.createElementNS(document.rootElement.namespaceURI,'rect');
    box.setAttribute('x', bbox.x - offset_px);
    box.setAttribute('y', bbox.y - offset_py);
    box.setAttribute('width', bbox.width + offset_px * 2);
    box.setAttribute('height', bbox.height + offset_py * 2);
    box.setAttribute('style','fill: white;'+'stroke: black;'+'stroke-width: 1px;');
    text_elem.insertBefore(box,text_elem.childNodes[0]);

    var svg = text_elem.parentNode;
    svg.appendChild(text_elem);
}

for (var i=1; i < 1; i++)
{
draw_bbox("Mouseover" + i);
}
]]> 
</script>
</svg>
