<svg version="1.1"
xmlns="http://www.w3.org/2000/svg"
xmlns:xlink="http://www.w3.org/1999/xlink"
width="4149" height="100" viewBox = "0 0 4149 100"
onclick="mouseclick(evt)">

<script type="text/ecmascript">

<![CDATA[
    function mouseover(evt, target) { 
    var gv = document.getElementById("globalVariable");
    var previoustarget = gv.firstChild.nodeValue;
    if (previoustarget != "none") 
    {
        	document.getElementById(gv.firstChild.nodeValue).setAttributeNS(null, "visibility", "hidden");
    }
    document.getElementById(target).setAttributeNS(null, "visibility", "visible");
    gv.firstChild.nodeValue = target;
        }

    function mouseclick(evt) { 
    var gv = document.getElementById("globalVariable");
    var previoustarget = gv.firstChild.nodeValue;
    if (previoustarget != "none") {
        	document.getElementById(gv.firstChild.nodeValue).setAttributeNS(null, "visibility", "hidden");
        }
    }
]]>
  </script>
<style type="text/css" >

<![CDATA[
    rect.anc_exon {
              stroke-width:3;
                  }

    rect.non_anc_exon {
              stroke: black; stroke-width:3; stroke-dasharray: 5,5;
                    }

    text {
              font-size: 18px;
              font-family: Courier New;
          }
                    ]]>
</style>

<defs>
    <text x="150" y="40" id="globalVariable">none</text>
</defs>

  <rect class="anc_exon" x="0" y="35.0" width="0" height="30" style="fill:#87bcbc;fill-opacity:1.00" />
  <rect class="anc_exon" x="0" y="35.0" width="79.2" height="30" style="fill:#87bcbc;fill-opacity:1.00" />
  <line x1="79.2" y1="50.0" x2="119.0" y2="50.0" style="stroke:#999; stroke-width:3;" />
  <rect class="anc_exon" x="119" y="35.0" width="80" height="30" style="fill:#87bcbc;fill-opacity:1.00" />
  <line x1="199" y1="50.0" x2="219" y2="50.0" style="stroke:#999; stroke-width:3;" />
  <line x1="219" y1="50.0" x2="219" y2="50.0" style="stroke:#999; stroke-width:3;" />
  <line x1="219" y1="50.0" x2="219" y2="50.0" style="stroke:#999; stroke-width:3;" />
  <line x1="219" y1="50.0" x2="239" y2="50.0" style="stroke:#999; stroke-width:3;" />
  <rect class="anc_exon" x="239" y="35.0" width="83" height="30" style="fill:#87bcbc;fill-opacity:1.00" />
  <line x1="322" y1="50.0" x2="342" y2="50.0" style="stroke:#999; stroke-width:3;" />
  <line x1="342" y1="50.0" x2="342" y2="50.0" style="stroke:#999; stroke-width:3;" />
  <line x1="342" y1="50.0" x2="342" y2="50.0" style="stroke:#999; stroke-width:3;" />
  <line x1="342" y1="50.0" x2="362" y2="50.0" style="stroke:#999; stroke-width:3;" />
  <rect class="anc_exon" x="362" y="35.0" width="64" height="30" style="fill:#87bcbc;fill-opacity:1.00" />
  <line x1="426" y1="50.0" x2="446" y2="50.0" style="stroke:#999; stroke-width:3;" />
  <line x1="446" y1="50.0" x2="446" y2="50.0" style="stroke:#999; stroke-width:3;" />
  <line x1="446" y1="50.0" x2="446" y2="50.0" style="stroke:#999; stroke-width:3;" />
  <line x1="446" y1="50.0" x2="466" y2="50.0" style="stroke:#999; stroke-width:3;" />
  <rect class="anc_exon" x="466" y="35.0" width="81" height="30" style="fill:#87bcbc;fill-opacity:1.00" />
  <line x1="547" y1="50.0" x2="567" y2="50.0" style="stroke:#999; stroke-width:3;" />
  <line x1="567" y1="50.0" x2="567" y2="50.0" style="stroke:#999; stroke-width:3;" />
  <line x1="567" y1="50.0" x2="567" y2="50.0" style="stroke:#999; stroke-width:3;" />
  <line x1="567" y1="50.0" x2="587" y2="50.0" style="stroke:#999; stroke-width:3;" />
  <rect class="anc_exon" x="587" y="35.0" width="347" height="30" style="fill:#87bcbc;fill-opacity:1.00" />
  <line x1="934" y1="50.0" x2="954" y2="50.0" style="stroke:#999; stroke-width:3;" />
  <line x1="954" y1="50.0" x2="954" y2="50.0" style="stroke:#999; stroke-width:3;" />
  <line x1="954" y1="50.0" x2="954" y2="50.0" style="stroke:#999; stroke-width:3;" />
  <line x1="954" y1="50.0" x2="974" y2="50.0" style="stroke:#999; stroke-width:3;" />
  <rect class="anc_exon" x="974" y="35.0" width="79" height="30" style="fill:#87bcbc;fill-opacity:1.00" />
  <line x1="1053" y1="50.0" x2="1093" y2="50.0" style="stroke:#999; stroke-width:3;" />
  <rect class="anc_exon" x="1093" y="35.0" width="66" height="30" style="fill:#87bcbc;fill-opacity:1.00" />
  <line x1="1159" y1="50.0" x2="1179" y2="50.0" style="stroke:#999; stroke-width:3;" />
  <line x1="1179" y1="50.0" x2="1179" y2="50.0" style="stroke:#999; stroke-width:3;" />
  <line x1="1179" y1="50.0" x2="1179" y2="50.0" style="stroke:#999; stroke-width:3;" />
  <line x1="1179" y1="50.0" x2="1199" y2="50.0" style="stroke:#999; stroke-width:3;" />
  <rect class="anc_exon" x="1199" y="35.0" width="75" height="30" style="fill:#87bcbc;fill-opacity:1.00" />
  <line x1="1274" y1="50.0" x2="1314" y2="50.0" style="stroke:#999; stroke-width:3;" />
  <rect class="anc_exon" x="1314" y="35.0" width="46" height="30" style="fill:#87bcbc;fill-opacity:1.00" />
  <line x1="1360" y1="50.0" x2="1400" y2="50.0" style="stroke:#999; stroke-width:3;" />
  <rect class="anc_exon" x="1400" y="35.0" width="33" height="30" style="fill:#87bcbc;fill-opacity:1.00" />
  <line x1="1433" y1="50.0" x2="1453" y2="50.0" style="stroke:#999; stroke-width:3;" />
  <line x1="1453" y1="50.0" x2="1453" y2="50.0" style="stroke:#999; stroke-width:3;" />
  <line x1="1453" y1="50.0" x2="1453" y2="50.0" style="stroke:#999; stroke-width:3;" />
  <line x1="1453" y1="50.0" x2="1473" y2="50.0" style="stroke:#999; stroke-width:3;" />
  <rect class="anc_exon" x="1473" y="35.0" width="162" height="30" style="fill:#87bcbc;fill-opacity:1.00" />
  <line x1="1635" y1="50.0" x2="1655" y2="50.0" style="stroke:#999; stroke-width:3;" />
  <line x1="1655" y1="50.0" x2="1655" y2="50.0" style="stroke:#999; stroke-width:3;" />
  <line x1="1655" y1="50.0" x2="1655" y2="50.0" style="stroke:#999; stroke-width:3;" />
  <line x1="1655" y1="50.0" x2="1675" y2="50.0" style="stroke:#999; stroke-width:3;" />
  <rect class="anc_exon" x="1675" y="35.0" width="102" height="30" style="fill:#87bcbc;fill-opacity:1.00" />
  <line x1="1777" y1="50.0" x2="1817" y2="50.0" style="stroke:#999; stroke-width:3;" />
  <rect class="anc_exon" x="1817" y="35.0" width="60" height="30" style="fill:#87bcbc;fill-opacity:1.00" />
  <line x1="1877" y1="50.0" x2="1917" y2="50.0" style="stroke:#999; stroke-width:3;" />
  <rect class="anc_exon" x="1917" y="35.0" width="104" height="30" style="fill:#87bcbc;fill-opacity:1.00" />
  <line x1="2021" y1="50.0" x2="2061" y2="50.0" style="stroke:#999; stroke-width:3;" />
  <rect class="anc_exon" x="2061" y="35.0" width="118" height="30" style="fill:#87bcbc;fill-opacity:1.00" />
  <line x1="2179" y1="50.0" x2="2199" y2="50.0" style="stroke:#999; stroke-width:3;" />
  <line x1="2199" y1="50.0" x2="2199" y2="50.0" style="stroke:#999; stroke-width:3;" />
  <line x1="2199" y1="50.0" x2="2199" y2="50.0" style="stroke:#999; stroke-width:3;" />
  <line x1="2199" y1="50.0" x2="2219" y2="50.0" style="stroke:#999; stroke-width:3;" />
  <rect class="anc_exon" x="2219" y="35.0" width="122" height="30" style="fill:#87bcbc;fill-opacity:1.00" />
  <line x1="2341" y1="50.0" x2="2361" y2="50.0" style="stroke:#999; stroke-width:3;" />
  <line x1="2361" y1="50.0" x2="2361" y2="50.0" style="stroke:#999; stroke-width:3;" />
  <line x1="2361" y1="50.0" x2="2361" y2="50.0" style="stroke:#999; stroke-width:3;" />
  <line x1="2361" y1="50.0" x2="2381" y2="50.0" style="stroke:#999; stroke-width:3;" />
  <rect class="anc_exon" x="2381" y="35.0" width="90" height="30" style="fill:#87bcbc;fill-opacity:1.00" />
  <line x1="2471" y1="50.0" x2="2491" y2="50.0" style="stroke:#999; stroke-width:3;" />
  <line x1="2491" y1="50.0" x2="2491" y2="50.0" style="stroke:#999; stroke-width:3;" />
  <line x1="2491" y1="50.0" x2="2491" y2="50.0" style="stroke:#999; stroke-width:3;" />
  <line x1="2491" y1="50.0" x2="2511" y2="50.0" style="stroke:#999; stroke-width:3;" />
  <rect class="anc_exon" x="2511" y="35.0" width="120" height="30" style="fill:#87bcbc;fill-opacity:1.00" />
  <line x1="2631" y1="50.0" x2="2671" y2="50.0" style="stroke:#999; stroke-width:3;" />
  <rect class="anc_exon" x="2671" y="35.0" width="120" height="30" style="fill:#87bcbc;fill-opacity:1.00" />
  <line x1="2791" y1="50.0" x2="2831" y2="50.0" style="stroke:#999; stroke-width:3;" />
  <rect class="anc_exon" x="2831" y="35.0" width="76" height="30" style="fill:#87bcbc;fill-opacity:1.00" />
  <line x1="2907" y1="50.0" x2="2947" y2="50.0" style="stroke:#999; stroke-width:3;" />
  <rect class="anc_exon" x="2947" y="35.0" width="53" height="30" style="fill:#87bcbc;fill-opacity:1.00" />
  <line x1="3000" y1="50.0" x2="3040" y2="50.0" style="stroke:#999; stroke-width:3;" />
  <rect class="anc_exon" x="3040" y="35.0" width="94" height="30" style="fill:#87bcbc;fill-opacity:1.00" />
  <line x1="3134" y1="50.0" x2="3174" y2="50.0" style="stroke:#999; stroke-width:3;" />
  <rect class="anc_exon" x="3174" y="35.0" width="109" height="30" style="fill:#87bcbc;fill-opacity:1.00" />
  <line x1="3283" y1="50.0" x2="3323" y2="50.0" style="stroke:#999; stroke-width:3;" />
  <rect class="anc_exon" x="3323" y="35.0" width="112" height="30" style="fill:#87bcbc;fill-opacity:1.00" />
  <line x1="3435" y1="50.0" x2="3475" y2="50.0" style="stroke:#999; stroke-width:3;" />
  <rect class="anc_exon" x="3475" y="35.0" width="37" height="30" style="fill:#87bcbc;fill-opacity:1.00" />
  <line x1="3512" y1="50.0" x2="3552" y2="50.0" style="stroke:#999; stroke-width:3;" />
  <rect class="anc_exon" x="3552" y="35.0" width="51" height="30" style="fill:#87bcbc;fill-opacity:1.00" />
  <line x1="3603" y1="50.0" x2="3623" y2="50.0" style="stroke:#999; stroke-width:3;" />
  <line x1="3623" y1="50.0" x2="3623" y2="50.0" style="stroke:#999; stroke-width:3;" />
  <line x1="3623" y1="50.0" x2="3623" y2="50.0" style="stroke:#999; stroke-width:3;" />
  <line x1="3623" y1="50.0" x2="3643" y2="50.0" style="stroke:#999; stroke-width:3;" />
  <rect class="anc_exon" x="3643" y="35.0" width="95" height="30" style="fill:#87bcbc;fill-opacity:1.00" />
  <line x1="3738" y1="50.0" x2="3758" y2="50.0" style="stroke:#999; stroke-width:3;" />
  <line x1="3758" y1="50.0" x2="3758" y2="50.0" style="stroke:#999; stroke-width:3;" />
  <line x1="3758" y1="50.0" x2="3758" y2="50.0" style="stroke:#999; stroke-width:3;" />
  <line x1="3758" y1="50.0" x2="3778" y2="50.0" style="stroke:#999; stroke-width:3;" />
  <rect class="anc_exon" x="3778" y="35.0" width="111" height="30" style="fill:#87bcbc;fill-opacity:1.00" />
  <line x1="3889" y1="50.0" x2="3909" y2="50.0" style="stroke:#999; stroke-width:3;" />
  <line x1="3909" y1="50.0" x2="3909" y2="50.0" style="stroke:#999; stroke-width:3;" />
  <line x1="3909" y1="50.0" x2="3909" y2="50.0" style="stroke:#999; stroke-width:3;" />
  <line x1="3909" y1="50.0" x2="3929" y2="50.0" style="stroke:#999; stroke-width:3;" />
  <rect class="anc_exon" x="3929" y="35.0" width="184" height="30" style="fill:#87bcbc;fill-opacity:1.00" />
  <rect class="anc_exon" x="4113" y="35.0" width="0" height="30" style="fill:#87bcbc;fill-opacity:1.00" />
  <text style="" >
<tspan x="0" y="83.0" style="font-size:18px;" >SP XM_031946296_1.1</tspan>  </text>



<script type="text/ecmascript">
<![CDATA[
function draw_bbox(text_id)
{
    var text_elem = document.getElementById(text_id);
    var offset_px = 2;
    var offset_py = 0;
    bbox = text_elem.getBBox();
    var box = document.createElementNS(document.rootElement.namespaceURI,'rect');
    box.setAttribute('x', bbox.x - offset_px);
    box.setAttribute('y', bbox.y - offset_py);
    box.setAttribute('width', bbox.width + offset_px * 2);
    box.setAttribute('height', bbox.height + offset_py * 2);
    box.setAttribute('style','fill: white;'+'stroke: black;'+'stroke-width: 1px;');
    text_elem.insertBefore(box,text_elem.childNodes[0]);

    var svg = text_elem.parentNode;
    svg.appendChild(text_elem);
}

for (var i=1; i < 1; i++)
{
draw_bbox("Mouseover" + i);
}
]]> 
</script>
</svg>
