<svg version="1.1"
xmlns="http://www.w3.org/2000/svg"
xmlns:xlink="http://www.w3.org/1999/xlink"
width="4341" height="110.0" viewBox = "0 -10.0 4341 110.0"
onclick="mouseclick(evt)">

<script type="text/ecmascript">

<![CDATA[
    function mouseover(evt, target) { 
    var gv = document.getElementById("globalVariable");
    var previoustarget = gv.firstChild.nodeValue;
    if (previoustarget != "none") 
    {
        	document.getElementById(gv.firstChild.nodeValue).setAttributeNS(null, "visibility", "hidden");
    }
    document.getElementById(target).setAttributeNS(null, "visibility", "visible");
    gv.firstChild.nodeValue = target;
        }

    function mouseclick(evt) { 
    var gv = document.getElementById("globalVariable");
    var previoustarget = gv.firstChild.nodeValue;
    if (previoustarget != "none") {
        	document.getElementById(gv.firstChild.nodeValue).setAttributeNS(null, "visibility", "hidden");
        }
    }
]]>
  </script>
<style type="text/css" >

<![CDATA[
    rect.anc_exon {
              stroke-width:3;
                  }

    rect.non_anc_exon {
              stroke: black; stroke-width:3; stroke-dasharray: 5,5;
                    }

    text {
              font-size: 18px;
              font-family: Courier New;
          }
                    ]]>
</style>

<defs>
    <text x="150" y="40" id="globalVariable">none</text>
</defs>

  <rect class="anc_exon" x="0" y="35.0" width="0" height="30" style="fill:#87bcbc;fill-opacity:1.00" />
  <rect class="anc_exon" x="0" y="35.0" width="99.2" height="30" style="fill:#87bcbc;fill-opacity:1.00" />
  <line x1="99.2" y1="50.0" x2="139.0" y2="50.0" style="stroke:#999; stroke-width:3;" />
  <rect class="anc_exon" x="139" y="35.0" width="45" height="30" style="fill:#87bcbc;fill-opacity:1.00" />
  <line x1="184" y1="50.0" x2="224" y2="50.0" style="stroke:#999; stroke-width:3;" />
  <rect class="anc_exon" x="224" y="35.0" width="105" height="30" style="fill:#87bcbc;fill-opacity:1.00" />
  <line x1="329" y1="50.0" x2="369" y2="50.0" style="stroke:#999; stroke-width:3;" />
  <rect class="anc_exon" x="369" y="35.0" width="107" height="30" style="fill:#87bcbc;fill-opacity:1.00" />
  <line x1="476" y1="50.0" x2="516" y2="50.0" style="stroke:#999; stroke-width:3;" />
  <rect class="anc_exon" x="516" y="35.0" width="247" height="30" style="fill:#87bcbc;fill-opacity:1.00" />
  <line x1="763" y1="50.0" x2="803" y2="50.0" style="stroke:#999; stroke-width:3;" />
  <rect class="anc_exon" x="803" y="35.0" width="190" height="30" style="fill:#87bcbc;fill-opacity:1.00" />
  <line x1="993" y1="50.0" x2="1033" y2="50.0" style="stroke:#999; stroke-width:3;" />
  <rect class="anc_exon" x="1033" y="35.0" width="125" height="30" style="fill:#87bcbc;fill-opacity:1.00" />
  <line x1="1158" y1="50.0" x2="1198" y2="50.0" style="stroke:#999; stroke-width:3;" />
  <rect class="anc_exon" x="1198" y="35.0" width="57" height="30" style="fill:#87bcbc;fill-opacity:1.00" />
  <line x1="1255" y1="50.0" x2="1295" y2="50.0" style="stroke:#999; stroke-width:3;" />
  <rect class="anc_exon" x="1295" y="35.0" width="92" height="30" style="fill:#87bcbc;fill-opacity:1.00" />
  <line x1="1387" y1="50.0" x2="1427" y2="50.0" style="stroke:#999; stroke-width:3;" />
  <rect class="anc_exon" x="1427" y="35.0" width="172" height="30" style="fill:#87bcbc;fill-opacity:1.00" />
  <line x1="1599" y1="50.0" x2="1639" y2="50.0" style="stroke:#999; stroke-width:3;" />
  <rect class="anc_exon" x="1639" y="35.0" width="156" height="30" style="fill:#87bcbc;fill-opacity:1.00" />
  <line x1="1795" y1="50.0" x2="1835" y2="50.0" style="stroke:#999; stroke-width:3;" />
  <rect class="anc_exon" x="1835" y="35.0" width="107" height="30" style="fill:#87bcbc;fill-opacity:1.00" />
  <line x1="1942" y1="50.0" x2="1982" y2="50.0" style="stroke:#999; stroke-width:3;" />
  <rect class="anc_exon" x="1982" y="35.0" width="127" height="30" style="fill:#87bcbc;fill-opacity:1.00" />
  <line x1="2109" y1="50.0" x2="2149" y2="50.0" style="stroke:#999; stroke-width:3;" />
  <rect class="anc_exon" x="2149" y="35.0" width="88" height="30" style="fill:#87bcbc;fill-opacity:1.00" />
  <line x1="2237" y1="50.0" x2="2277" y2="50.0" style="stroke:#999; stroke-width:3;" />
  <rect class="anc_exon" x="2277" y="35.0" width="88" height="30" style="fill:#87bcbc;fill-opacity:1.00" />
  <line x1="2365" y1="50.0" x2="2405" y2="50.0" style="stroke:#999; stroke-width:3;" />
  <rect class="anc_exon" x="2405" y="35.0" width="81" height="30" style="fill:#87bcbc;fill-opacity:1.00" />
  <line x1="2486" y1="50.0" x2="2506" y2="50.0" style="stroke:#999; stroke-width:3;" />
  <line x1="2506" y1="50.0" x2="2506" y2="50.0" style="stroke:#999; stroke-width:3;" />
  <line x1="2506" y1="50.0" x2="2506" y2="50.0" style="stroke:#999; stroke-width:3;" />
  <line x1="2506" y1="50.0" x2="2526" y2="50.0" style="stroke:#999; stroke-width:3;" />
  <rect class="anc_exon" x="2526" y="35.0" width="112" height="30" style="fill:#87bcbc;fill-opacity:1.00" />
  <line x1="2638" y1="50.0" x2="2678" y2="50.0" style="stroke:#999; stroke-width:3;" />
  <rect class="anc_exon" x="2678" y="35.0" width="95" height="30" style="fill:#87bcbc;fill-opacity:1.00" />
  <line x1="2773" y1="50.0" x2="2813" y2="50.0" style="stroke:#999; stroke-width:3;" />
  <rect class="anc_exon" x="2813" y="35.0" width="110" height="30" style="fill:#87bcbc;fill-opacity:1.00" />
  <line x1="2923" y1="50.0" x2="2963" y2="50.0" style="stroke:#999; stroke-width:3;" />
  <rect class="anc_exon" x="2963" y="35.0" width="263" height="30" style="fill:#87bcbc;fill-opacity:1.00" />
  <line x1="3226" y1="50.0" x2="3266" y2="50.0" style="stroke:#999; stroke-width:3;" />
  <rect class="anc_exon" x="3266" y="35.0" width="88" height="30" style="fill:#87bcbc;fill-opacity:1.00" />
  <line x1="3354" y1="50.0" x2="3394" y2="50.0" style="stroke:#999; stroke-width:3;" />
  <rect class="anc_exon" x="3394" y="35.0" width="173" height="30" style="fill:#87bcbc;fill-opacity:1.00" />
  <line x1="3567" y1="50.0" x2="3587" y2="50.0" style="stroke:#999; stroke-width:3;" />
  <line x1="3587" y1="50.0" x2="3587" y2="50.0" style="stroke:#999; stroke-width:3;" />
  <line x1="3587" y1="50.0" x2="3587" y2="50.0" style="stroke:#999; stroke-width:3;" />
  <line x1="3587" y1="50.0" x2="3607" y2="50.0" style="stroke:#999; stroke-width:3;" />
  <rect class="anc_exon" x="3607" y="35.0" width="122" height="30" style="fill:#87bcbc;fill-opacity:1.00" />
  <line x1="3729" y1="50.0" x2="3769" y2="50.0" style="stroke:#999; stroke-width:3;" />
  <rect class="anc_exon" x="3769" y="35.0" width="131" height="30" style="fill:#87bcbc;fill-opacity:1.00" />
  <line x1="3900" y1="50.0" x2="3940" y2="50.0" style="stroke:#999; stroke-width:3;" />
  <rect class="anc_exon" x="3940" y="35.0" width="143" height="30" style="fill:#87bcbc;fill-opacity:1.00" />
  <line x1="3943.2" y1="35.0" x2="3943.2" y2="65.0" style="stroke:#878787;stroke-width:3;"/>
  <text style="" text-anchor="middle">
<tspan x="3942.4" y="26.0" style="font-size:18px;fill:#878787;" >TAG</tspan>  </text>
  <line x1="4083" y1="50.0" x2="4123" y2="50.0" style="stroke:#999; stroke-width:3;" />
  <rect class="anc_exon" x="4123" y="35.0" width="182" height="30" style="fill:#87bcbc;fill-opacity:1.00" />
  <rect class="anc_exon" x="4305" y="35.0" width="0" height="30" style="fill:#87bcbc;fill-opacity:1.00" />
  <text style="" >
<tspan x="0" y="83.0" style="font-size:18px;" >SP XM_031959419_1.1</tspan>  </text>



<script type="text/ecmascript">
<![CDATA[
function draw_bbox(text_id)
{
    var text_elem = document.getElementById(text_id);
    var offset_px = 2;
    var offset_py = 0;
    bbox = text_elem.getBBox();
    var box = document.createElementNS(document.rootElement.namespaceURI,'rect');
    box.setAttribute('x', bbox.x - offset_px);
    box.setAttribute('y', bbox.y - offset_py);
    box.setAttribute('width', bbox.width + offset_px * 2);
    box.setAttribute('height', bbox.height + offset_py * 2);
    box.setAttribute('style','fill: white;'+'stroke: black;'+'stroke-width: 1px;');
    text_elem.insertBefore(box,text_elem.childNodes[0]);

    var svg = text_elem.parentNode;
    svg.appendChild(text_elem);
}

for (var i=1; i < 1; i++)
{
draw_bbox("Mouseover" + i);
}
]]> 
</script>
</svg>
