<svg version="1.1"
xmlns="http://www.w3.org/2000/svg"
xmlns:xlink="http://www.w3.org/1999/xlink"
width="5018" height="100" viewBox = "0 0 5018 100"
onclick="mouseclick(evt)">

<script type="text/ecmascript">

<![CDATA[
    function mouseover(evt, target) { 
    var gv = document.getElementById("globalVariable");
    var previoustarget = gv.firstChild.nodeValue;
    if (previoustarget != "none") 
    {
        	document.getElementById(gv.firstChild.nodeValue).setAttributeNS(null, "visibility", "hidden");
    }
    document.getElementById(target).setAttributeNS(null, "visibility", "visible");
    gv.firstChild.nodeValue = target;
        }

    function mouseclick(evt) { 
    var gv = document.getElementById("globalVariable");
    var previoustarget = gv.firstChild.nodeValue;
    if (previoustarget != "none") {
        	document.getElementById(gv.firstChild.nodeValue).setAttributeNS(null, "visibility", "hidden");
        }
    }
]]>
  </script>
<style type="text/css" >

<![CDATA[
    rect.anc_exon {
              stroke-width:3;
                  }

    rect.non_anc_exon {
              stroke: black; stroke-width:3; stroke-dasharray: 5,5;
                    }

    text {
              font-size: 18px;
              font-family: Courier New;
          }
                    ]]>
</style>

<defs>
    <text x="150" y="40" id="globalVariable">none</text>
</defs>

  <rect class="anc_exon" x="0" y="35.0" width="0" height="30" style="fill:#87bcbc;fill-opacity:1.00" />
  <rect class="anc_exon" x="0" y="35.0" width="57.6" height="30" style="fill:#87bcbc;fill-opacity:1.00" />
  <line x1="57.6" y1="50.0" x2="76.6" y2="50.0" style="stroke:#999; stroke-width:3;" />
  <line x1="76.6" y1="50.0" x2="76.6" y2="50.0" style="stroke:#999; stroke-width:3;" />
  <line x1="76.6" y1="50.0" x2="76.6" y2="50.0" style="stroke:#999; stroke-width:3;" />
  <line x1="76.6" y1="50.0" x2="97.0" y2="50.0" style="stroke:#999; stroke-width:3;" />
  <rect class="anc_exon" x="97" y="35.0" width="89" height="30" style="fill:#87bcbc;fill-opacity:1.00" />
  <line x1="186" y1="50.0" x2="206" y2="50.0" style="stroke:#999; stroke-width:3;" />
  <line x1="206" y1="50.0" x2="206" y2="50.0" style="stroke:#999; stroke-width:3;" />
  <line x1="206" y1="50.0" x2="206" y2="50.0" style="stroke:#999; stroke-width:3;" />
  <line x1="206" y1="50.0" x2="226" y2="50.0" style="stroke:#999; stroke-width:3;" />
  <rect class="anc_exon" x="226" y="35.0" width="30" height="30" style="fill:#87bcbc;fill-opacity:1.00" />
  <line x1="256" y1="50.0" x2="276" y2="50.0" style="stroke:#999; stroke-width:3;" />
  <line x1="276" y1="50.0" x2="276" y2="50.0" style="stroke:#999; stroke-width:3;" />
  <line x1="276" y1="50.0" x2="276" y2="50.0" style="stroke:#999; stroke-width:3;" />
  <line x1="276" y1="50.0" x2="296" y2="50.0" style="stroke:#999; stroke-width:3;" />
  <rect class="anc_exon" x="296" y="35.0" width="31" height="30" style="fill:#87bcbc;fill-opacity:1.00" />
  <line x1="327" y1="50.0" x2="347" y2="50.0" style="stroke:#999; stroke-width:3;" />
  <line x1="347" y1="50.0" x2="347" y2="50.0" style="stroke:#999; stroke-width:3;" />
  <line x1="347" y1="50.0" x2="347" y2="50.0" style="stroke:#999; stroke-width:3;" />
  <line x1="347" y1="50.0" x2="367" y2="50.0" style="stroke:#999; stroke-width:3;" />
  <rect class="anc_exon" x="367" y="35.0" width="31" height="30" style="fill:#87bcbc;fill-opacity:1.00" />
  <line x1="398" y1="50.0" x2="418" y2="50.0" style="stroke:#999; stroke-width:3;" />
  <line x1="418" y1="50.0" x2="418" y2="50.0" style="stroke:#999; stroke-width:3;" />
  <line x1="418" y1="50.0" x2="418" y2="50.0" style="stroke:#999; stroke-width:3;" />
  <line x1="418" y1="50.0" x2="438" y2="50.0" style="stroke:#999; stroke-width:3;" />
  <rect class="anc_exon" x="438" y="35.0" width="42" height="30" style="fill:#87bcbc;fill-opacity:1.00" />
  <line x1="480" y1="50.0" x2="520" y2="50.0" style="stroke:#999; stroke-width:3;" />
  <rect class="anc_exon" x="520" y="35.0" width="137" height="30" style="fill:#87bcbc;fill-opacity:1.00" />
  <line x1="657" y1="50.0" x2="677" y2="50.0" style="stroke:#999; stroke-width:3;" />
  <line x1="677" y1="50.0" x2="677" y2="50.0" style="stroke:#999; stroke-width:3;" />
  <line x1="677" y1="50.0" x2="677" y2="50.0" style="stroke:#999; stroke-width:3;" />
  <line x1="677" y1="50.0" x2="697" y2="50.0" style="stroke:#999; stroke-width:3;" />
  <rect class="anc_exon" x="697" y="35.0" width="40" height="30" style="fill:#87bcbc;fill-opacity:1.00" />
  <line x1="737" y1="50.0" x2="777" y2="50.0" style="stroke:#999; stroke-width:3;" />
  <rect class="anc_exon" x="777" y="35.0" width="98" height="30" style="fill:#87bcbc;fill-opacity:1.00" />
  <line x1="875" y1="50.0" x2="895" y2="50.0" style="stroke:#999; stroke-width:3;" />
  <line x1="895" y1="50.0" x2="895" y2="50.0" style="stroke:#999; stroke-width:3;" />
  <line x1="895" y1="50.0" x2="895" y2="50.0" style="stroke:#999; stroke-width:3;" />
  <line x1="895" y1="50.0" x2="915" y2="50.0" style="stroke:#999; stroke-width:3;" />
  <rect class="anc_exon" x="915" y="35.0" width="52" height="30" style="fill:#87bcbc;fill-opacity:1.00" />
  <line x1="967" y1="50.0" x2="987" y2="50.0" style="stroke:#999; stroke-width:3;" />
  <line x1="987" y1="50.0" x2="987" y2="50.0" style="stroke:#999; stroke-width:3;" />
  <line x1="987" y1="50.0" x2="987" y2="50.0" style="stroke:#999; stroke-width:3;" />
  <line x1="987" y1="50.0" x2="1007" y2="50.0" style="stroke:#999; stroke-width:3;" />
  <rect class="anc_exon" x="1007" y="35.0" width="67" height="30" style="fill:#87bcbc;fill-opacity:1.00" />
  <line x1="1074" y1="50.0" x2="1094" y2="50.0" style="stroke:#999; stroke-width:3;" />
  <line x1="1094" y1="50.0" x2="1094" y2="50.0" style="stroke:#999; stroke-width:3;" />
  <line x1="1094" y1="50.0" x2="1094" y2="50.0" style="stroke:#999; stroke-width:3;" />
  <line x1="1094" y1="50.0" x2="1114" y2="50.0" style="stroke:#999; stroke-width:3;" />
  <rect class="anc_exon" x="1114" y="35.0" width="90" height="30" style="fill:#87bcbc;fill-opacity:1.00" />
  <line x1="1204" y1="50.0" x2="1244" y2="50.0" style="stroke:#999; stroke-width:3;" />
  <rect class="anc_exon" x="1244" y="35.0" width="48" height="30" style="fill:#87bcbc;fill-opacity:1.00" />
  <line x1="1292" y1="50.0" x2="1332" y2="50.0" style="stroke:#999; stroke-width:3;" />
  <rect class="anc_exon" x="1332" y="35.0" width="60" height="30" style="fill:#87bcbc;fill-opacity:1.00" />
  <line x1="1392" y1="50.0" x2="1412" y2="50.0" style="stroke:#999; stroke-width:3;" />
  <line x1="1412" y1="50.0" x2="1412" y2="50.0" style="stroke:#999; stroke-width:3;" />
  <line x1="1412" y1="50.0" x2="1412" y2="50.0" style="stroke:#999; stroke-width:3;" />
  <line x1="1412" y1="50.0" x2="1432" y2="50.0" style="stroke:#999; stroke-width:3;" />
  <rect class="anc_exon" x="1432" y="35.0" width="104" height="30" style="fill:#87bcbc;fill-opacity:1.00" />
  <line x1="1536" y1="50.0" x2="1576" y2="50.0" style="stroke:#999; stroke-width:3;" />
  <rect class="anc_exon" x="1576" y="35.0" width="52" height="30" style="fill:#87bcbc;fill-opacity:1.00" />
  <line x1="1628" y1="50.0" x2="1668" y2="50.0" style="stroke:#999; stroke-width:3;" />
  <rect class="anc_exon" x="1668" y="35.0" width="84" height="30" style="fill:#87bcbc;fill-opacity:1.00" />
  <line x1="1752" y1="50.0" x2="1772" y2="50.0" style="stroke:#999; stroke-width:3;" />
  <line x1="1772" y1="50.0" x2="1772" y2="50.0" style="stroke:#999; stroke-width:3;" />
  <line x1="1772" y1="50.0" x2="1772" y2="50.0" style="stroke:#999; stroke-width:3;" />
  <line x1="1772" y1="50.0" x2="1792" y2="50.0" style="stroke:#999; stroke-width:3;" />
  <rect class="anc_exon" x="1792" y="35.0" width="1000" height="30" style="fill:#87bcbc;fill-opacity:1.00" />
  <line x1="2792" y1="50.0" x2="2812" y2="50.0" style="stroke:#999; stroke-width:3;" />
  <line x1="2812" y1="50.0" x2="2812" y2="50.0" style="stroke:#999; stroke-width:3;" />
  <line x1="2812" y1="50.0" x2="2812" y2="50.0" style="stroke:#999; stroke-width:3;" />
  <line x1="2812" y1="50.0" x2="2832" y2="50.0" style="stroke:#999; stroke-width:3;" />
  <rect class="anc_exon" x="2832" y="35.0" width="131" height="30" style="fill:#87bcbc;fill-opacity:1.00" />
  <line x1="2963" y1="50.0" x2="2983" y2="50.0" style="stroke:#999; stroke-width:3;" />
  <line x1="2983" y1="50.0" x2="2983" y2="50.0" style="stroke:#999; stroke-width:3;" />
  <line x1="2983" y1="50.0" x2="2983" y2="50.0" style="stroke:#999; stroke-width:3;" />
  <line x1="2983" y1="50.0" x2="3003" y2="50.0" style="stroke:#999; stroke-width:3;" />
  <rect class="anc_exon" x="3003" y="35.0" width="101" height="30" style="fill:#87bcbc;fill-opacity:1.00" />
  <line x1="3104" y1="50.0" x2="3144" y2="50.0" style="stroke:#999; stroke-width:3;" />
  <rect class="anc_exon" x="3144" y="35.0" width="64" height="30" style="fill:#87bcbc;fill-opacity:1.00" />
  <line x1="3208" y1="50.0" x2="3228" y2="50.0" style="stroke:#999; stroke-width:3;" />
  <line x1="3228" y1="50.0" x2="3228" y2="50.0" style="stroke:#999; stroke-width:3;" />
  <line x1="3228" y1="50.0" x2="3228" y2="50.0" style="stroke:#999; stroke-width:3;" />
  <line x1="3228" y1="50.0" x2="3248" y2="50.0" style="stroke:#999; stroke-width:3;" />
  <rect class="anc_exon" x="3248" y="35.0" width="135" height="30" style="fill:#87bcbc;fill-opacity:1.00" />
  <line x1="3383" y1="50.0" x2="3423" y2="50.0" style="stroke:#999; stroke-width:3;" />
  <rect class="anc_exon" x="3423" y="35.0" width="498" height="30" style="fill:#87bcbc;fill-opacity:1.00" />
  <line x1="3921" y1="50.0" x2="3961" y2="50.0" style="stroke:#999; stroke-width:3;" />
  <rect class="anc_exon" x="3961" y="35.0" width="69" height="30" style="fill:#87bcbc;fill-opacity:1.00" />
  <line x1="4030" y1="50.0" x2="4050" y2="50.0" style="stroke:#999; stroke-width:3;" />
  <line x1="4050" y1="50.0" x2="4050" y2="50.0" style="stroke:#999; stroke-width:3;" />
  <line x1="4050" y1="50.0" x2="4050" y2="50.0" style="stroke:#999; stroke-width:3;" />
  <line x1="4050" y1="50.0" x2="4070" y2="50.0" style="stroke:#999; stroke-width:3;" />
  <rect class="anc_exon" x="4070" y="35.0" width="105" height="30" style="fill:#87bcbc;fill-opacity:1.00" />
  <line x1="4175" y1="50.0" x2="4195" y2="50.0" style="stroke:#999; stroke-width:3;" />
  <line x1="4195" y1="50.0" x2="4195" y2="50.0" style="stroke:#999; stroke-width:3;" />
  <line x1="4195" y1="50.0" x2="4195" y2="50.0" style="stroke:#999; stroke-width:3;" />
  <line x1="4195" y1="50.0" x2="4215" y2="50.0" style="stroke:#999; stroke-width:3;" />
  <rect class="anc_exon" x="4215" y="35.0" width="76" height="30" style="fill:#87bcbc;fill-opacity:1.00" />
  <line x1="4291" y1="50.0" x2="4311" y2="50.0" style="stroke:#999; stroke-width:3;" />
  <line x1="4311" y1="50.0" x2="4311" y2="50.0" style="stroke:#999; stroke-width:3;" />
  <line x1="4311" y1="50.0" x2="4311" y2="50.0" style="stroke:#999; stroke-width:3;" />
  <line x1="4311" y1="50.0" x2="4331" y2="50.0" style="stroke:#999; stroke-width:3;" />
  <rect class="anc_exon" x="4331" y="35.0" width="62" height="30" style="fill:#87bcbc;fill-opacity:1.00" />
  <line x1="4393" y1="50.0" x2="4433" y2="50.0" style="stroke:#999; stroke-width:3;" />
  <rect class="anc_exon" x="4433" y="35.0" width="62" height="30" style="fill:#87bcbc;fill-opacity:1.00" />
  <line x1="4495" y1="50.0" x2="4515" y2="50.0" style="stroke:#999; stroke-width:3;" />
  <line x1="4515" y1="50.0" x2="4515" y2="50.0" style="stroke:#999; stroke-width:3;" />
  <line x1="4515" y1="50.0" x2="4515" y2="50.0" style="stroke:#999; stroke-width:3;" />
  <line x1="4515" y1="50.0" x2="4535" y2="50.0" style="stroke:#999; stroke-width:3;" />
  <rect class="anc_exon" x="4535" y="35.0" width="135" height="30" style="fill:#87bcbc;fill-opacity:1.00" />
  <line x1="4670" y1="50.0" x2="4710" y2="50.0" style="stroke:#999; stroke-width:3;" />
  <rect class="anc_exon" x="4710" y="35.0" width="55" height="30" style="fill:#87bcbc;fill-opacity:1.00" />
  <line x1="4765" y1="50.0" x2="4805" y2="50.0" style="stroke:#999; stroke-width:3;" />
  <rect class="anc_exon" x="4805" y="35.0" width="21" height="30" style="fill:#87bcbc;fill-opacity:1.00" />
  <line x1="4826" y1="50.0" x2="4866" y2="50.0" style="stroke:#999; stroke-width:3;" />
  <rect class="anc_exon" x="4866" y="35.0" width="116" height="30" style="fill:#87bcbc;fill-opacity:1.00" />
  <rect class="anc_exon" x="4982" y="35.0" width="0" height="30" style="fill:#87bcbc;fill-opacity:1.00" />
  <text style="" >
<tspan x="0" y="83.0" style="font-size:18px;" >SP XM_031957260_1.1</tspan>  </text>



<script type="text/ecmascript">
<![CDATA[
function draw_bbox(text_id)
{
    var text_elem = document.getElementById(text_id);
    var offset_px = 2;
    var offset_py = 0;
    bbox = text_elem.getBBox();
    var box = document.createElementNS(document.rootElement.namespaceURI,'rect');
    box.setAttribute('x', bbox.x - offset_px);
    box.setAttribute('y', bbox.y - offset_py);
    box.setAttribute('width', bbox.width + offset_px * 2);
    box.setAttribute('height', bbox.height + offset_py * 2);
    box.setAttribute('style','fill: white;'+'stroke: black;'+'stroke-width: 1px;');
    text_elem.insertBefore(box,text_elem.childNodes[0]);

    var svg = text_elem.parentNode;
    svg.appendChild(text_elem);
}

for (var i=1; i < 1; i++)
{
draw_bbox("Mouseover" + i);
}
]]> 
</script>
</svg>
