<svg version="1.1"
xmlns="http://www.w3.org/2000/svg"
xmlns:xlink="http://www.w3.org/1999/xlink"
width="1476" height="120.0" viewBox = "0 -20.0 1476 120.0"
onclick="mouseclick(evt)">

<script type="text/ecmascript">

<![CDATA[
    function mouseover(evt, target) { 
    var gv = document.getElementById("globalVariable");
    var previoustarget = gv.firstChild.nodeValue;
    if (previoustarget != "none") 
    {
        	document.getElementById(gv.firstChild.nodeValue).setAttributeNS(null, "visibility", "hidden");
    }
    document.getElementById(target).setAttributeNS(null, "visibility", "visible");
    gv.firstChild.nodeValue = target;
        }

    function mouseclick(evt) { 
    var gv = document.getElementById("globalVariable");
    var previoustarget = gv.firstChild.nodeValue;
    if (previoustarget != "none") {
        	document.getElementById(gv.firstChild.nodeValue).setAttributeNS(null, "visibility", "hidden");
        }
    }
]]>
  </script>
<style type="text/css" >

<![CDATA[
    rect.anc_exon {
              stroke-width:3;
                  }

    rect.non_anc_exon {
              stroke: black; stroke-width:3; stroke-dasharray: 5,5;
                    }

    text {
              font-size: 18px;
              font-family: Courier New;
          }
                    ]]>
</style>

<defs>
    <text x="150" y="40" id="globalVariable">none</text>
</defs>

  <rect class="anc_exon" x="0" y="35.0" width="0" height="30" style="fill:#87bcbc;fill-opacity:1.00" />
  <rect class="anc_exon" x="0" y="35.0" width="29.6" height="30" style="fill:#87bcbc;fill-opacity:1.00" />
  <polygon points="29.6,35.0 32.1,25.0 27.1,25.0" style="fill:#121212; stroke-opacity:1; fill-opacity:1"/>
  <text style="" text-anchor="middle">
<tspan x="29.6" y="16.0" style="font-size:18px;fill:#121212;" >+1</tspan>  </text>
  <line x1="29.6" y1="50.0" x2="48.6" y2="50.0" style="stroke:#999; stroke-width:3;" />
  <line x1="48.6" y1="50.0" x2="48.6" y2="50.0" style="stroke:#999; stroke-width:3;" />
  <line x1="48.6" y1="50.0" x2="48.6" y2="50.0" style="stroke:#999; stroke-width:3;" />
  <line x1="48.6" y1="50.0" x2="69.0" y2="50.0" style="stroke:#999; stroke-width:3;" />
  <rect class="anc_exon" x="69" y="35.0" width="85" height="30" style="fill:#87bcbc;fill-opacity:1.00" />
  <line x1="154" y1="50.0" x2="194" y2="50.0" style="stroke:#999; stroke-width:3;" />
  <rect class="anc_exon" x="194" y="35.0" width="162" height="30" style="fill:#87bcbc;fill-opacity:1.00" />
  <line x1="356" y1="50.0" x2="396" y2="50.0" style="stroke:#999; stroke-width:3;" />
  <rect class="anc_exon" x="396" y="35.0" width="120" height="30" style="fill:#87bcbc;fill-opacity:1.00" />
  <line x1="516" y1="50.0" x2="536" y2="50.0" style="stroke:#999; stroke-width:3;" />
  <line x1="536" y1="50.0" x2="536" y2="50.0" style="stroke:#999; stroke-width:3;" />
  <line x1="536" y1="50.0" x2="536" y2="50.0" style="stroke:#999; stroke-width:3;" />
  <line x1="536" y1="50.0" x2="556" y2="50.0" style="stroke:#999; stroke-width:3;" />
  <rect class="anc_exon" x="556" y="35.0" width="130" height="30" style="fill:#87bcbc;fill-opacity:1.00" />
  <line x1="686" y1="50.0" x2="706" y2="50.0" style="stroke:#999; stroke-width:3;" />
  <line x1="706" y1="50.0" x2="706" y2="50.0" style="stroke:#999; stroke-width:3;" />
  <line x1="706" y1="50.0" x2="706" y2="50.0" style="stroke:#999; stroke-width:3;" />
  <line x1="706" y1="50.0" x2="726" y2="50.0" style="stroke:#999; stroke-width:3;" />
  <rect class="anc_exon" x="726" y="35.0" width="50" height="30" style="fill:#87bcbc;fill-opacity:1.00" />
  <line x1="776" y1="50.0" x2="796" y2="50.0" style="stroke:#999; stroke-width:3;" />
  <line x1="796" y1="50.0" x2="796" y2="50.0" style="stroke:#999; stroke-width:3;" />
  <line x1="796" y1="50.0" x2="796" y2="50.0" style="stroke:#999; stroke-width:3;" />
  <line x1="796" y1="50.0" x2="816" y2="50.0" style="stroke:#999; stroke-width:3;" />
  <rect class="anc_exon" x="816" y="35.0" width="68" height="30" style="fill:#87bcbc;fill-opacity:1.00" />
  <line x1="884" y1="50.0" x2="924" y2="50.0" style="stroke:#999; stroke-width:3;" />
  <rect class="anc_exon" x="924" y="35.0" width="92" height="30" style="fill:#87bcbc;fill-opacity:1.00" />
  <line x1="1016" y1="50.0" x2="1056" y2="50.0" style="stroke:#999; stroke-width:3;" />
  <rect class="anc_exon" x="1056" y="35.0" width="52" height="30" style="fill:#87bcbc;fill-opacity:1.00" />
  <line x1="1108" y1="50.0" x2="1128" y2="50.0" style="stroke:#999; stroke-width:3;" />
  <line x1="1128" y1="50.0" x2="1128" y2="50.0" style="stroke:#999; stroke-width:3;" />
  <line x1="1128" y1="50.0" x2="1128" y2="50.0" style="stroke:#999; stroke-width:3;" />
  <line x1="1128" y1="50.0" x2="1148" y2="50.0" style="stroke:#999; stroke-width:3;" />
  <rect class="anc_exon" x="1148" y="35.0" width="105" height="30" style="fill:#87bcbc;fill-opacity:1.00" />
  <line x1="1253" y1="50.0" x2="1273" y2="50.0" style="stroke:#999; stroke-width:3;" />
  <line x1="1273" y1="50.0" x2="1273" y2="50.0" style="stroke:#999; stroke-width:3;" />
  <line x1="1273" y1="50.0" x2="1273" y2="50.0" style="stroke:#999; stroke-width:3;" />
  <line x1="1273" y1="50.0" x2="1293" y2="50.0" style="stroke:#999; stroke-width:3;" />
  <rect class="anc_exon" x="1293" y="35.0" width="147" height="30" style="fill:#87bcbc;fill-opacity:1.00" />
  <rect class="anc_exon" x="1440" y="35.0" width="0" height="30" style="fill:#87bcbc;fill-opacity:1.00" />
  <text style="" >
<tspan x="0" y="83.0" style="font-size:18px;" >SP XM_012543587_3.1</tspan>  </text>



<script type="text/ecmascript">
<![CDATA[
function draw_bbox(text_id)
{
    var text_elem = document.getElementById(text_id);
    var offset_px = 2;
    var offset_py = 0;
    bbox = text_elem.getBBox();
    var box = document.createElementNS(document.rootElement.namespaceURI,'rect');
    box.setAttribute('x', bbox.x - offset_px);
    box.setAttribute('y', bbox.y - offset_py);
    box.setAttribute('width', bbox.width + offset_px * 2);
    box.setAttribute('height', bbox.height + offset_py * 2);
    box.setAttribute('style','fill: white;'+'stroke: black;'+'stroke-width: 1px;');
    text_elem.insertBefore(box,text_elem.childNodes[0]);

    var svg = text_elem.parentNode;
    svg.appendChild(text_elem);
}

for (var i=1; i < 1; i++)
{
draw_bbox("Mouseover" + i);
}
]]> 
</script>
</svg>
