<svg version="1.1"
xmlns="http://www.w3.org/2000/svg"
xmlns:xlink="http://www.w3.org/1999/xlink"
width="8659" height="100" viewBox = "0 0 8659 100"
onclick="mouseclick(evt)">

<script type="text/ecmascript">

<![CDATA[
    function mouseover(evt, target) { 
    var gv = document.getElementById("globalVariable");
    var previoustarget = gv.firstChild.nodeValue;
    if (previoustarget != "none") 
    {
        	document.getElementById(gv.firstChild.nodeValue).setAttributeNS(null, "visibility", "hidden");
    }
    document.getElementById(target).setAttributeNS(null, "visibility", "visible");
    gv.firstChild.nodeValue = target;
        }

    function mouseclick(evt) { 
    var gv = document.getElementById("globalVariable");
    var previoustarget = gv.firstChild.nodeValue;
    if (previoustarget != "none") {
        	document.getElementById(gv.firstChild.nodeValue).setAttributeNS(null, "visibility", "hidden");
        }
    }
]]>
  </script>
<style type="text/css" >

<![CDATA[
    rect.anc_exon {
              stroke-width:3;
                  }

    rect.non_anc_exon {
              stroke: black; stroke-width:3; stroke-dasharray: 5,5;
                    }

    text {
              font-size: 18px;
              font-family: Courier New;
          }
                    ]]>
</style>

<defs>
    <text x="150" y="40" id="globalVariable">none</text>
</defs>

  <rect class="anc_exon" x="0" y="35.0" width="0" height="30" style="fill:#87bcbc;fill-opacity:1.00" />
  <rect class="anc_exon" x="0" y="35.0" width="1332.0" height="30" style="fill:#87bcbc;fill-opacity:1.00" />
  <line x1="1332.0" y1="50.0" x2="1352.0" y2="50.0" style="stroke:#999; stroke-width:3;" />
  <line x1="1352.0" y1="50.0" x2="1352.0" y2="50.0" style="stroke:#999; stroke-width:3;" />
  <line x1="1352.0" y1="50.0" x2="1352.0" y2="50.0" style="stroke:#999; stroke-width:3;" />
  <line x1="1352.0" y1="50.0" x2="1372.0" y2="50.0" style="stroke:#999; stroke-width:3;" />
  <rect class="anc_exon" x="1372" y="35.0" width="344" height="30" style="fill:#87bcbc;fill-opacity:1.00" />
  <line x1="1716" y1="50.0" x2="1736" y2="50.0" style="stroke:#999; stroke-width:3;" />
  <line x1="1736" y1="50.0" x2="1736" y2="50.0" style="stroke:#999; stroke-width:3;" />
  <line x1="1736" y1="50.0" x2="1736" y2="50.0" style="stroke:#999; stroke-width:3;" />
  <line x1="1736" y1="50.0" x2="1756" y2="50.0" style="stroke:#999; stroke-width:3;" />
  <rect class="anc_exon" x="1756" y="35.0" width="113" height="30" style="fill:#87bcbc;fill-opacity:1.00" />
  <line x1="1869" y1="50.0" x2="1889" y2="50.0" style="stroke:#999; stroke-width:3;" />
  <line x1="1889" y1="50.0" x2="1889" y2="50.0" style="stroke:#999; stroke-width:3;" />
  <line x1="1889" y1="50.0" x2="1889" y2="50.0" style="stroke:#999; stroke-width:3;" />
  <line x1="1889" y1="50.0" x2="1909" y2="50.0" style="stroke:#999; stroke-width:3;" />
  <rect class="anc_exon" x="1909" y="35.0" width="110" height="30" style="fill:#87bcbc;fill-opacity:1.00" />
  <line x1="2019" y1="50.0" x2="2059" y2="50.0" style="stroke:#999; stroke-width:3;" />
  <rect class="anc_exon" x="2059" y="35.0" width="52" height="30" style="fill:#87bcbc;fill-opacity:1.00" />
  <line x1="2111" y1="50.0" x2="2131" y2="50.0" style="stroke:#999; stroke-width:3;" />
  <line x1="2131" y1="50.0" x2="2131" y2="50.0" style="stroke:#999; stroke-width:3;" />
  <line x1="2131" y1="50.0" x2="2131" y2="50.0" style="stroke:#999; stroke-width:3;" />
  <line x1="2131" y1="50.0" x2="2151" y2="50.0" style="stroke:#999; stroke-width:3;" />
  <rect class="anc_exon" x="2151" y="35.0" width="44" height="30" style="fill:#87bcbc;fill-opacity:1.00" />
  <line x1="2195" y1="50.0" x2="2215" y2="50.0" style="stroke:#999; stroke-width:3;" />
  <line x1="2215" y1="50.0" x2="2215" y2="50.0" style="stroke:#999; stroke-width:3;" />
  <line x1="2215" y1="50.0" x2="2215" y2="50.0" style="stroke:#999; stroke-width:3;" />
  <line x1="2215" y1="50.0" x2="2235" y2="50.0" style="stroke:#999; stroke-width:3;" />
  <rect class="anc_exon" x="2235" y="35.0" width="92" height="30" style="fill:#87bcbc;fill-opacity:1.00" />
  <line x1="2327" y1="50.0" x2="2347" y2="50.0" style="stroke:#999; stroke-width:3;" />
  <line x1="2347" y1="50.0" x2="2347" y2="50.0" style="stroke:#999; stroke-width:3;" />
  <line x1="2347" y1="50.0" x2="2347" y2="50.0" style="stroke:#999; stroke-width:3;" />
  <line x1="2347" y1="50.0" x2="2367" y2="50.0" style="stroke:#999; stroke-width:3;" />
  <rect class="anc_exon" x="2367" y="35.0" width="67" height="30" style="fill:#87bcbc;fill-opacity:1.00" />
  <line x1="2434" y1="50.0" x2="2454" y2="50.0" style="stroke:#999; stroke-width:3;" />
  <line x1="2454" y1="50.0" x2="2454" y2="50.0" style="stroke:#999; stroke-width:3;" />
  <line x1="2454" y1="50.0" x2="2454" y2="50.0" style="stroke:#999; stroke-width:3;" />
  <line x1="2454" y1="50.0" x2="2474" y2="50.0" style="stroke:#999; stroke-width:3;" />
  <rect class="anc_exon" x="2474" y="35.0" width="110" height="30" style="fill:#87bcbc;fill-opacity:1.00" />
  <line x1="2584" y1="50.0" x2="2624" y2="50.0" style="stroke:#999; stroke-width:3;" />
  <rect class="anc_exon" x="2624" y="35.0" width="97" height="30" style="fill:#87bcbc;fill-opacity:1.00" />
  <line x1="2721" y1="50.0" x2="2761" y2="50.0" style="stroke:#999; stroke-width:3;" />
  <rect class="anc_exon" x="2761" y="35.0" width="195" height="30" style="fill:#87bcbc;fill-opacity:1.00" />
  <line x1="2956" y1="50.0" x2="2976" y2="50.0" style="stroke:#999; stroke-width:3;" />
  <line x1="2976" y1="50.0" x2="2976" y2="50.0" style="stroke:#999; stroke-width:3;" />
  <line x1="2976" y1="50.0" x2="2976" y2="50.0" style="stroke:#999; stroke-width:3;" />
  <line x1="2976" y1="50.0" x2="2996" y2="50.0" style="stroke:#999; stroke-width:3;" />
  <rect class="anc_exon" x="2996" y="35.0" width="141" height="30" style="fill:#87bcbc;fill-opacity:1.00" />
  <line x1="3137" y1="50.0" x2="3157" y2="50.0" style="stroke:#999; stroke-width:3;" />
  <line x1="3157" y1="50.0" x2="3157" y2="50.0" style="stroke:#999; stroke-width:3;" />
  <line x1="3157" y1="50.0" x2="3157" y2="50.0" style="stroke:#999; stroke-width:3;" />
  <line x1="3157" y1="50.0" x2="3177" y2="50.0" style="stroke:#999; stroke-width:3;" />
  <rect class="anc_exon" x="3177" y="35.0" width="115" height="30" style="fill:#87bcbc;fill-opacity:1.00" />
  <line x1="3292" y1="50.0" x2="3312" y2="50.0" style="stroke:#999; stroke-width:3;" />
  <line x1="3312" y1="50.0" x2="3312" y2="50.0" style="stroke:#999; stroke-width:3;" />
  <line x1="3312" y1="50.0" x2="3312" y2="50.0" style="stroke:#999; stroke-width:3;" />
  <line x1="3312" y1="50.0" x2="3332" y2="50.0" style="stroke:#999; stroke-width:3;" />
  <rect class="anc_exon" x="3332" y="35.0" width="204" height="30" style="fill:#87bcbc;fill-opacity:1.00" />
  <line x1="3536" y1="50.0" x2="3556" y2="50.0" style="stroke:#999; stroke-width:3;" />
  <line x1="3556" y1="50.0" x2="3556" y2="50.0" style="stroke:#999; stroke-width:3;" />
  <line x1="3556" y1="50.0" x2="3556" y2="50.0" style="stroke:#999; stroke-width:3;" />
  <line x1="3556" y1="50.0" x2="3576" y2="50.0" style="stroke:#999; stroke-width:3;" />
  <rect class="anc_exon" x="3576" y="35.0" width="168" height="30" style="fill:#87bcbc;fill-opacity:1.00" />
  <line x1="3744" y1="50.0" x2="3784" y2="50.0" style="stroke:#999; stroke-width:3;" />
  <rect class="anc_exon" x="3784" y="35.0" width="156" height="30" style="fill:#87bcbc;fill-opacity:1.00" />
  <line x1="3940" y1="50.0" x2="3980" y2="50.0" style="stroke:#999; stroke-width:3;" />
  <rect class="anc_exon" x="3980" y="35.0" width="134" height="30" style="fill:#87bcbc;fill-opacity:1.00" />
  <line x1="4114" y1="50.0" x2="4154" y2="50.0" style="stroke:#999; stroke-width:3;" />
  <rect class="anc_exon" x="4154" y="35.0" width="144" height="30" style="fill:#87bcbc;fill-opacity:1.00" />
  <line x1="4298" y1="50.0" x2="4338" y2="50.0" style="stroke:#999; stroke-width:3;" />
  <rect class="anc_exon" x="4338" y="35.0" width="88" height="30" style="fill:#87bcbc;fill-opacity:1.00" />
  <line x1="4426" y1="50.0" x2="4466" y2="50.0" style="stroke:#999; stroke-width:3;" />
  <rect class="anc_exon" x="4466" y="35.0" width="164" height="30" style="fill:#87bcbc;fill-opacity:1.00" />
  <line x1="4630" y1="50.0" x2="4650" y2="50.0" style="stroke:#999; stroke-width:3;" />
  <line x1="4650" y1="50.0" x2="4650" y2="50.0" style="stroke:#999; stroke-width:3;" />
  <line x1="4650" y1="50.0" x2="4650" y2="50.0" style="stroke:#999; stroke-width:3;" />
  <line x1="4650" y1="50.0" x2="4670" y2="50.0" style="stroke:#999; stroke-width:3;" />
  <rect class="anc_exon" x="4670" y="35.0" width="160" height="30" style="fill:#87bcbc;fill-opacity:1.00" />
  <line x1="4830" y1="50.0" x2="4870" y2="50.0" style="stroke:#999; stroke-width:3;" />
  <rect class="anc_exon" x="4870" y="35.0" width="128" height="30" style="fill:#87bcbc;fill-opacity:1.00" />
  <line x1="4998" y1="50.0" x2="5018" y2="50.0" style="stroke:#999; stroke-width:3;" />
  <line x1="5018" y1="50.0" x2="5018" y2="50.0" style="stroke:#999; stroke-width:3;" />
  <line x1="5018" y1="50.0" x2="5018" y2="50.0" style="stroke:#999; stroke-width:3;" />
  <line x1="5018" y1="50.0" x2="5038" y2="50.0" style="stroke:#999; stroke-width:3;" />
  <rect class="anc_exon" x="5038" y="35.0" width="72" height="30" style="fill:#87bcbc;fill-opacity:1.00" />
  <line x1="5110" y1="50.0" x2="5150" y2="50.0" style="stroke:#999; stroke-width:3;" />
  <rect class="anc_exon" x="5150" y="35.0" width="83" height="30" style="fill:#87bcbc;fill-opacity:1.00" />
  <line x1="5233" y1="50.0" x2="5273" y2="50.0" style="stroke:#999; stroke-width:3;" />
  <rect class="anc_exon" x="5273" y="35.0" width="104" height="30" style="fill:#87bcbc;fill-opacity:1.00" />
  <line x1="5377" y1="50.0" x2="5417" y2="50.0" style="stroke:#999; stroke-width:3;" />
  <rect class="anc_exon" x="5417" y="35.0" width="58" height="30" style="fill:#87bcbc;fill-opacity:1.00" />
  <line x1="5475" y1="50.0" x2="5515" y2="50.0" style="stroke:#999; stroke-width:3;" />
  <rect class="anc_exon" x="5515" y="35.0" width="46" height="30" style="fill:#87bcbc;fill-opacity:1.00" />
  <line x1="5561" y1="50.0" x2="5601" y2="50.0" style="stroke:#999; stroke-width:3;" />
  <rect class="anc_exon" x="5601" y="35.0" width="183" height="30" style="fill:#87bcbc;fill-opacity:1.00" />
  <line x1="5784" y1="50.0" x2="5824" y2="50.0" style="stroke:#999; stroke-width:3;" />
  <rect class="anc_exon" x="5824" y="35.0" width="167" height="30" style="fill:#87bcbc;fill-opacity:1.00" />
  <line x1="5991" y1="50.0" x2="6031" y2="50.0" style="stroke:#999; stroke-width:3;" />
  <rect class="anc_exon" x="6031" y="35.0" width="532" height="30" style="fill:#87bcbc;fill-opacity:1.00" />
  <line x1="6563" y1="50.0" x2="6603" y2="50.0" style="stroke:#999; stroke-width:3;" />
  <rect class="anc_exon" x="6603" y="35.0" width="128" height="30" style="fill:#87bcbc;fill-opacity:1.00" />
  <line x1="6731" y1="50.0" x2="6751" y2="50.0" style="stroke:#999; stroke-width:3;" />
  <line x1="6751" y1="50.0" x2="6751" y2="50.0" style="stroke:#999; stroke-width:3;" />
  <line x1="6751" y1="50.0" x2="6751" y2="50.0" style="stroke:#999; stroke-width:3;" />
  <line x1="6751" y1="50.0" x2="6771" y2="50.0" style="stroke:#999; stroke-width:3;" />
  <rect class="anc_exon" x="6771" y="35.0" width="182" height="30" style="fill:#87bcbc;fill-opacity:1.00" />
  <line x1="6953" y1="50.0" x2="6993" y2="50.0" style="stroke:#999; stroke-width:3;" />
  <rect class="anc_exon" x="6993" y="35.0" width="355" height="30" style="fill:#87bcbc;fill-opacity:1.00" />
  <line x1="7348" y1="50.0" x2="7368" y2="50.0" style="stroke:#999; stroke-width:3;" />
  <line x1="7368" y1="50.0" x2="7368" y2="50.0" style="stroke:#999; stroke-width:3;" />
  <line x1="7368" y1="50.0" x2="7368" y2="50.0" style="stroke:#999; stroke-width:3;" />
  <line x1="7368" y1="50.0" x2="7388" y2="50.0" style="stroke:#999; stroke-width:3;" />
  <rect class="anc_exon" x="7388" y="35.0" width="177" height="30" style="fill:#87bcbc;fill-opacity:1.00" />
  <line x1="7565" y1="50.0" x2="7605" y2="50.0" style="stroke:#999; stroke-width:3;" />
  <rect class="anc_exon" x="7605" y="35.0" width="110" height="30" style="fill:#87bcbc;fill-opacity:1.00" />
  <line x1="7715" y1="50.0" x2="7755" y2="50.0" style="stroke:#999; stroke-width:3;" />
  <rect class="anc_exon" x="7755" y="35.0" width="84" height="30" style="fill:#87bcbc;fill-opacity:1.00" />
  <line x1="7839" y1="50.0" x2="7879" y2="50.0" style="stroke:#999; stroke-width:3;" />
  <rect class="anc_exon" x="7879" y="35.0" width="744" height="30" style="fill:#87bcbc;fill-opacity:1.00" />
  <rect class="anc_exon" x="8623" y="35.0" width="0" height="30" style="fill:#87bcbc;fill-opacity:1.00" />
  <text style="" >
<tspan x="0" y="83.0" style="font-size:18px;" >SP XM_031946368_1.1</tspan>  </text>



<script type="text/ecmascript">
<![CDATA[
function draw_bbox(text_id)
{
    var text_elem = document.getElementById(text_id);
    var offset_px = 2;
    var offset_py = 0;
    bbox = text_elem.getBBox();
    var box = document.createElementNS(document.rootElement.namespaceURI,'rect');
    box.setAttribute('x', bbox.x - offset_px);
    box.setAttribute('y', bbox.y - offset_py);
    box.setAttribute('width', bbox.width + offset_px * 2);
    box.setAttribute('height', bbox.height + offset_py * 2);
    box.setAttribute('style','fill: white;'+'stroke: black;'+'stroke-width: 1px;');
    text_elem.insertBefore(box,text_elem.childNodes[0]);

    var svg = text_elem.parentNode;
    svg.appendChild(text_elem);
}

for (var i=1; i < 1; i++)
{
draw_bbox("Mouseover" + i);
}
]]> 
</script>
</svg>
