<svg version="1.1"
xmlns="http://www.w3.org/2000/svg"
xmlns:xlink="http://www.w3.org/1999/xlink"
width="2867" height="100" viewBox = "0 0 2867 100"
onclick="mouseclick(evt)">

<script type="text/ecmascript">

<![CDATA[
    function mouseover(evt, target) { 
    var gv = document.getElementById("globalVariable");
    var previoustarget = gv.firstChild.nodeValue;
    if (previoustarget != "none") 
    {
        	document.getElementById(gv.firstChild.nodeValue).setAttributeNS(null, "visibility", "hidden");
    }
    document.getElementById(target).setAttributeNS(null, "visibility", "visible");
    gv.firstChild.nodeValue = target;
        }

    function mouseclick(evt) { 
    var gv = document.getElementById("globalVariable");
    var previoustarget = gv.firstChild.nodeValue;
    if (previoustarget != "none") {
        	document.getElementById(gv.firstChild.nodeValue).setAttributeNS(null, "visibility", "hidden");
        }
    }
]]>
  </script>
<style type="text/css" >

<![CDATA[
    rect.anc_exon {
              stroke-width:3;
                  }

    rect.non_anc_exon {
              stroke: black; stroke-width:3; stroke-dasharray: 5,5;
                    }

    text {
              font-size: 18px;
              font-family: Courier New;
          }
                    ]]>
</style>

<defs>
    <text x="150" y="40" id="globalVariable">none</text>
</defs>

  <rect class="anc_exon" x="0" y="35.0" width="0" height="30" style="fill:#87bcbc;fill-opacity:1.00" />
  <rect class="anc_exon" x="0" y="35.0" width="68.8" height="30" style="fill:#87bcbc;fill-opacity:1.00" />
  <line x1="68.8" y1="50.0" x2="87.8" y2="50.0" style="stroke:#999; stroke-width:3;" />
  <line x1="87.8" y1="50.0" x2="87.8" y2="50.0" style="stroke:#999; stroke-width:3;" />
  <line x1="87.8" y1="50.0" x2="87.8" y2="50.0" style="stroke:#999; stroke-width:3;" />
  <line x1="87.8" y1="50.0" x2="108.0" y2="50.0" style="stroke:#999; stroke-width:3;" />
  <rect class="anc_exon" x="108" y="35.0" width="40" height="30" style="fill:#87bcbc;fill-opacity:1.00" />
  <line x1="148" y1="50.0" x2="168" y2="50.0" style="stroke:#999; stroke-width:3;" />
  <line x1="168" y1="50.0" x2="168" y2="50.0" style="stroke:#999; stroke-width:3;" />
  <line x1="168" y1="50.0" x2="168" y2="50.0" style="stroke:#999; stroke-width:3;" />
  <line x1="168" y1="50.0" x2="188" y2="50.0" style="stroke:#999; stroke-width:3;" />
  <rect class="anc_exon" x="188" y="35.0" width="83" height="30" style="fill:#87bcbc;fill-opacity:1.00" />
  <line x1="271" y1="50.0" x2="291" y2="50.0" style="stroke:#999; stroke-width:3;" />
  <line x1="291" y1="50.0" x2="291" y2="50.0" style="stroke:#999; stroke-width:3;" />
  <line x1="291" y1="50.0" x2="291" y2="50.0" style="stroke:#999; stroke-width:3;" />
  <line x1="291" y1="50.0" x2="311" y2="50.0" style="stroke:#999; stroke-width:3;" />
  <rect class="anc_exon" x="311" y="35.0" width="110" height="30" style="fill:#87bcbc;fill-opacity:1.00" />
  <line x1="421" y1="50.0" x2="441" y2="50.0" style="stroke:#999; stroke-width:3;" />
  <line x1="441" y1="50.0" x2="441" y2="50.0" style="stroke:#999; stroke-width:3;" />
  <line x1="441" y1="50.0" x2="441" y2="50.0" style="stroke:#999; stroke-width:3;" />
  <line x1="441" y1="50.0" x2="461" y2="50.0" style="stroke:#999; stroke-width:3;" />
  <rect class="anc_exon" x="461" y="35.0" width="152" height="30" style="fill:#87bcbc;fill-opacity:1.00" />
  <line x1="613" y1="50.0" x2="633" y2="50.0" style="stroke:#999; stroke-width:3;" />
  <line x1="633" y1="50.0" x2="633" y2="50.0" style="stroke:#999; stroke-width:3;" />
  <line x1="633" y1="50.0" x2="633" y2="50.0" style="stroke:#999; stroke-width:3;" />
  <line x1="633" y1="50.0" x2="653" y2="50.0" style="stroke:#999; stroke-width:3;" />
  <rect class="anc_exon" x="653" y="35.0" width="205" height="30" style="fill:#87bcbc;fill-opacity:1.00" />
  <line x1="858" y1="50.0" x2="878" y2="50.0" style="stroke:#999; stroke-width:3;" />
  <line x1="878" y1="50.0" x2="878" y2="50.0" style="stroke:#999; stroke-width:3;" />
  <line x1="878" y1="50.0" x2="878" y2="50.0" style="stroke:#999; stroke-width:3;" />
  <line x1="878" y1="50.0" x2="898" y2="50.0" style="stroke:#999; stroke-width:3;" />
  <rect class="anc_exon" x="898" y="35.0" width="294" height="30" style="fill:#87bcbc;fill-opacity:1.00" />
  <line x1="1192" y1="50.0" x2="1212" y2="50.0" style="stroke:#999; stroke-width:3;" />
  <line x1="1212" y1="50.0" x2="1212" y2="50.0" style="stroke:#999; stroke-width:3;" />
  <line x1="1212" y1="50.0" x2="1212" y2="50.0" style="stroke:#999; stroke-width:3;" />
  <line x1="1212" y1="50.0" x2="1232" y2="50.0" style="stroke:#999; stroke-width:3;" />
  <rect class="anc_exon" x="1232" y="35.0" width="96" height="30" style="fill:#87bcbc;fill-opacity:1.00" />
  <line x1="1328" y1="50.0" x2="1348" y2="50.0" style="stroke:#999; stroke-width:3;" />
  <line x1="1348" y1="50.0" x2="1348" y2="50.0" style="stroke:#999; stroke-width:3;" />
  <line x1="1348" y1="50.0" x2="1348" y2="50.0" style="stroke:#999; stroke-width:3;" />
  <line x1="1348" y1="50.0" x2="1368" y2="50.0" style="stroke:#999; stroke-width:3;" />
  <rect class="anc_exon" x="1368" y="35.0" width="145" height="30" style="fill:#87bcbc;fill-opacity:1.00" />
  <line x1="1513" y1="50.0" x2="1553" y2="50.0" style="stroke:#999; stroke-width:3;" />
  <rect class="anc_exon" x="1553" y="35.0" width="171" height="30" style="fill:#87bcbc;fill-opacity:1.00" />
  <line x1="1724" y1="50.0" x2="1764" y2="50.0" style="stroke:#999; stroke-width:3;" />
  <rect class="anc_exon" x="1764" y="35.0" width="61" height="30" style="fill:#87bcbc;fill-opacity:1.00" />
  <line x1="1825" y1="50.0" x2="1845" y2="50.0" style="stroke:#999; stroke-width:3;" />
  <line x1="1845" y1="50.0" x2="1845" y2="50.0" style="stroke:#999; stroke-width:3;" />
  <line x1="1845" y1="50.0" x2="1845" y2="50.0" style="stroke:#999; stroke-width:3;" />
  <line x1="1845" y1="50.0" x2="1865" y2="50.0" style="stroke:#999; stroke-width:3;" />
  <rect class="anc_exon" x="1865" y="35.0" width="44" height="30" style="fill:#87bcbc;fill-opacity:1.00" />
  <line x1="1909" y1="50.0" x2="1929" y2="50.0" style="stroke:#999; stroke-width:3;" />
  <line x1="1929" y1="50.0" x2="1929" y2="50.0" style="stroke:#999; stroke-width:3;" />
  <line x1="1929" y1="50.0" x2="1929" y2="50.0" style="stroke:#999; stroke-width:3;" />
  <line x1="1929" y1="50.0" x2="1949" y2="50.0" style="stroke:#999; stroke-width:3;" />
  <rect class="anc_exon" x="1949" y="35.0" width="87" height="30" style="fill:#87bcbc;fill-opacity:1.00" />
  <line x1="2036" y1="50.0" x2="2056" y2="50.0" style="stroke:#999; stroke-width:3;" />
  <line x1="2056" y1="50.0" x2="2056" y2="50.0" style="stroke:#999; stroke-width:3;" />
  <line x1="2056" y1="50.0" x2="2056" y2="50.0" style="stroke:#999; stroke-width:3;" />
  <line x1="2056" y1="50.0" x2="2076" y2="50.0" style="stroke:#999; stroke-width:3;" />
  <rect class="anc_exon" x="2076" y="35.0" width="148" height="30" style="fill:#87bcbc;fill-opacity:1.00" />
  <line x1="2224" y1="50.0" x2="2244" y2="50.0" style="stroke:#999; stroke-width:3;" />
  <line x1="2244" y1="50.0" x2="2244" y2="50.0" style="stroke:#999; stroke-width:3;" />
  <line x1="2244" y1="50.0" x2="2244" y2="50.0" style="stroke:#999; stroke-width:3;" />
  <line x1="2244" y1="50.0" x2="2264" y2="50.0" style="stroke:#999; stroke-width:3;" />
  <rect class="anc_exon" x="2264" y="35.0" width="136" height="30" style="fill:#87bcbc;fill-opacity:1.00" />
  <line x1="2400" y1="50.0" x2="2420" y2="50.0" style="stroke:#999; stroke-width:3;" />
  <line x1="2420" y1="50.0" x2="2420" y2="50.0" style="stroke:#999; stroke-width:3;" />
  <line x1="2420" y1="50.0" x2="2420" y2="50.0" style="stroke:#999; stroke-width:3;" />
  <line x1="2420" y1="50.0" x2="2440" y2="50.0" style="stroke:#999; stroke-width:3;" />
  <rect class="anc_exon" x="2440" y="35.0" width="96" height="30" style="fill:#87bcbc;fill-opacity:1.00" />
  <line x1="2536" y1="50.0" x2="2556" y2="50.0" style="stroke:#999; stroke-width:3;" />
  <line x1="2556" y1="50.0" x2="2556" y2="50.0" style="stroke:#999; stroke-width:3;" />
  <line x1="2556" y1="50.0" x2="2556" y2="50.0" style="stroke:#999; stroke-width:3;" />
  <line x1="2556" y1="50.0" x2="2576" y2="50.0" style="stroke:#999; stroke-width:3;" />
  <rect class="anc_exon" x="2576" y="35.0" width="74" height="30" style="fill:#87bcbc;fill-opacity:1.00" />
  <line x1="2650" y1="50.0" x2="2670" y2="50.0" style="stroke:#999; stroke-width:3;" />
  <line x1="2670" y1="50.0" x2="2670" y2="50.0" style="stroke:#999; stroke-width:3;" />
  <line x1="2670" y1="50.0" x2="2670" y2="50.0" style="stroke:#999; stroke-width:3;" />
  <line x1="2670" y1="50.0" x2="2690" y2="50.0" style="stroke:#999; stroke-width:3;" />
  <rect class="anc_exon" x="2690" y="35.0" width="141" height="30" style="fill:#87bcbc;fill-opacity:1.00" />
  <rect class="anc_exon" x="2831" y="35.0" width="0" height="30" style="fill:#87bcbc;fill-opacity:1.00" />
  <text style="" >
<tspan x="0" y="83.0" style="font-size:18px;" >SP XM_023497922_2.1</tspan>  </text>



<script type="text/ecmascript">
<![CDATA[
function draw_bbox(text_id)
{
    var text_elem = document.getElementById(text_id);
    var offset_px = 2;
    var offset_py = 0;
    bbox = text_elem.getBBox();
    var box = document.createElementNS(document.rootElement.namespaceURI,'rect');
    box.setAttribute('x', bbox.x - offset_px);
    box.setAttribute('y', bbox.y - offset_py);
    box.setAttribute('width', bbox.width + offset_px * 2);
    box.setAttribute('height', bbox.height + offset_py * 2);
    box.setAttribute('style','fill: white;'+'stroke: black;'+'stroke-width: 1px;');
    text_elem.insertBefore(box,text_elem.childNodes[0]);

    var svg = text_elem.parentNode;
    svg.appendChild(text_elem);
}

for (var i=1; i < 1; i++)
{
draw_bbox("Mouseover" + i);
}
]]> 
</script>
</svg>
