<svg version="1.1"
xmlns="http://www.w3.org/2000/svg"
xmlns:xlink="http://www.w3.org/1999/xlink"
width="3042" height="100" viewBox = "0 0 3042 100"
onclick="mouseclick(evt)">

<script type="text/ecmascript">

<![CDATA[
    function mouseover(evt, target) { 
    var gv = document.getElementById("globalVariable");
    var previoustarget = gv.firstChild.nodeValue;
    if (previoustarget != "none") 
    {
        	document.getElementById(gv.firstChild.nodeValue).setAttributeNS(null, "visibility", "hidden");
    }
    document.getElementById(target).setAttributeNS(null, "visibility", "visible");
    gv.firstChild.nodeValue = target;
        }

    function mouseclick(evt) { 
    var gv = document.getElementById("globalVariable");
    var previoustarget = gv.firstChild.nodeValue;
    if (previoustarget != "none") {
        	document.getElementById(gv.firstChild.nodeValue).setAttributeNS(null, "visibility", "hidden");
        }
    }
]]>
  </script>
<style type="text/css" >

<![CDATA[
    rect.anc_exon {
              stroke-width:3;
                  }

    rect.non_anc_exon {
              stroke: black; stroke-width:3; stroke-dasharray: 5,5;
                    }

    text {
              font-size: 18px;
              font-family: Courier New;
          }
                    ]]>
</style>

<defs>
    <text x="150" y="40" id="globalVariable">none</text>
</defs>

  <rect class="anc_exon" x="0" y="35.0" width="0" height="30" style="fill:#87bcbc;fill-opacity:1.00" />
  <rect class="anc_exon" x="0" y="35.0" width="232.8" height="30" style="fill:#878787;fill-opacity:1.00" />
  <line x1="232.8" y1="50.0" x2="251.8" y2="50.0" style="stroke:#999; stroke-width:3;" />
  <line x1="251.8" y1="50.0" x2="251.8" y2="50.0" style="stroke:#999; stroke-width:3;" />
  <line x1="251.8" y1="50.0" x2="251.8" y2="50.0" style="stroke:#999; stroke-width:3;" />
  <line x1="251.8" y1="50.0" x2="272.0" y2="50.0" style="stroke:#999; stroke-width:3;" />
  <rect class="anc_exon" x="272" y="35.0" width="84" height="30" style="fill:#87bcbc;fill-opacity:1.00" />
  <line x1="356" y1="50.0" x2="376" y2="50.0" style="stroke:#999; stroke-width:3;" />
  <line x1="376" y1="50.0" x2="376" y2="50.0" style="stroke:#999; stroke-width:3;" />
  <line x1="376" y1="50.0" x2="376" y2="50.0" style="stroke:#999; stroke-width:3;" />
  <line x1="376" y1="50.0" x2="396" y2="50.0" style="stroke:#999; stroke-width:3;" />
  <rect class="anc_exon" x="396" y="35.0" width="34" height="30" style="fill:#87bcbc;fill-opacity:1.00" />
  <line x1="430" y1="50.0" x2="470" y2="50.0" style="stroke:#999; stroke-width:3;" />
  <rect class="anc_exon" x="470" y="35.0" width="63" height="30" style="fill:#87bcbc;fill-opacity:1.00" />
  <line x1="533" y1="50.0" x2="553" y2="50.0" style="stroke:#999; stroke-width:3;" />
  <line x1="553" y1="50.0" x2="553" y2="50.0" style="stroke:#999; stroke-width:3;" />
  <line x1="553" y1="50.0" x2="553" y2="50.0" style="stroke:#999; stroke-width:3;" />
  <line x1="553" y1="50.0" x2="573" y2="50.0" style="stroke:#999; stroke-width:3;" />
  <rect class="anc_exon" x="573" y="35.0" width="36" height="30" style="fill:#87bcbc;fill-opacity:1.00" />
  <line x1="609" y1="50.0" x2="629" y2="50.0" style="stroke:#999; stroke-width:3;" />
  <line x1="629" y1="50.0" x2="629" y2="50.0" style="stroke:#999; stroke-width:3;" />
  <line x1="629" y1="50.0" x2="629" y2="50.0" style="stroke:#999; stroke-width:3;" />
  <line x1="629" y1="50.0" x2="649" y2="50.0" style="stroke:#999; stroke-width:3;" />
  <rect class="anc_exon" x="649" y="35.0" width="42" height="30" style="fill:#87bcbc;fill-opacity:1.00" />
  <line x1="691" y1="50.0" x2="711" y2="50.0" style="stroke:#999; stroke-width:3;" />
  <line x1="711" y1="50.0" x2="711" y2="50.0" style="stroke:#999; stroke-width:3;" />
  <line x1="711" y1="50.0" x2="711" y2="50.0" style="stroke:#999; stroke-width:3;" />
  <line x1="711" y1="50.0" x2="731" y2="50.0" style="stroke:#999; stroke-width:3;" />
  <rect class="anc_exon" x="731" y="35.0" width="96" height="30" style="fill:#87bcbc;fill-opacity:1.00" />
  <line x1="827" y1="50.0" x2="847" y2="50.0" style="stroke:#999; stroke-width:3;" />
  <line x1="847" y1="50.0" x2="847" y2="50.0" style="stroke:#999; stroke-width:3;" />
  <line x1="847" y1="50.0" x2="847" y2="50.0" style="stroke:#999; stroke-width:3;" />
  <line x1="847" y1="50.0" x2="867" y2="50.0" style="stroke:#999; stroke-width:3;" />
  <rect class="anc_exon" x="867" y="35.0" width="70" height="30" style="fill:#87bcbc;fill-opacity:1.00" />
  <line x1="937" y1="50.0" x2="977" y2="50.0" style="stroke:#999; stroke-width:3;" />
  <rect class="anc_exon" x="977" y="35.0" width="71" height="30" style="fill:#87bcbc;fill-opacity:1.00" />
  <line x1="1048" y1="50.0" x2="1088" y2="50.0" style="stroke:#999; stroke-width:3;" />
  <rect class="anc_exon" x="1088" y="35.0" width="56" height="30" style="fill:#87bcbc;fill-opacity:1.00" />
  <line x1="1144" y1="50.0" x2="1184" y2="50.0" style="stroke:#999; stroke-width:3;" />
  <rect class="anc_exon" x="1184" y="35.0" width="136" height="30" style="fill:#87bcbc;fill-opacity:1.00" />
  <line x1="1320" y1="50.0" x2="1340" y2="50.0" style="stroke:#999; stroke-width:3;" />
  <line x1="1340" y1="50.0" x2="1340" y2="50.0" style="stroke:#999; stroke-width:3;" />
  <line x1="1340" y1="50.0" x2="1340" y2="50.0" style="stroke:#999; stroke-width:3;" />
  <line x1="1340" y1="50.0" x2="1360" y2="50.0" style="stroke:#999; stroke-width:3;" />
  <rect class="anc_exon" x="1360" y="35.0" width="88" height="30" style="fill:#87bcbc;fill-opacity:1.00" />
  <line x1="1448" y1="50.0" x2="1468" y2="50.0" style="stroke:#999; stroke-width:3;" />
  <line x1="1468" y1="50.0" x2="1468" y2="50.0" style="stroke:#999; stroke-width:3;" />
  <line x1="1468" y1="50.0" x2="1468" y2="50.0" style="stroke:#999; stroke-width:3;" />
  <line x1="1468" y1="50.0" x2="1488" y2="50.0" style="stroke:#999; stroke-width:3;" />
  <rect class="anc_exon" x="1488" y="35.0" width="24" height="30" style="fill:#87bcbc;fill-opacity:1.00" />
  <line x1="1512" y1="50.0" x2="1532" y2="50.0" style="stroke:#999; stroke-width:3;" />
  <line x1="1532" y1="50.0" x2="1532" y2="50.0" style="stroke:#999; stroke-width:3;" />
  <line x1="1532" y1="50.0" x2="1532" y2="50.0" style="stroke:#999; stroke-width:3;" />
  <line x1="1532" y1="50.0" x2="1552" y2="50.0" style="stroke:#999; stroke-width:3;" />
  <rect class="anc_exon" x="1552" y="35.0" width="27" height="30" style="fill:#87bcbc;fill-opacity:1.00" />
  <line x1="1579" y1="50.0" x2="1599" y2="50.0" style="stroke:#999; stroke-width:3;" />
  <line x1="1599" y1="50.0" x2="1599" y2="50.0" style="stroke:#999; stroke-width:3;" />
  <line x1="1599" y1="50.0" x2="1599" y2="50.0" style="stroke:#999; stroke-width:3;" />
  <line x1="1599" y1="50.0" x2="1619" y2="50.0" style="stroke:#999; stroke-width:3;" />
  <rect class="anc_exon" x="1619" y="35.0" width="49" height="30" style="fill:#87bcbc;fill-opacity:1.00" />
  <line x1="1668" y1="50.0" x2="1688" y2="50.0" style="stroke:#999; stroke-width:3;" />
  <line x1="1688" y1="50.0" x2="1688" y2="50.0" style="stroke:#999; stroke-width:3;" />
  <line x1="1688" y1="50.0" x2="1688" y2="50.0" style="stroke:#999; stroke-width:3;" />
  <line x1="1688" y1="50.0" x2="1708" y2="50.0" style="stroke:#999; stroke-width:3;" />
  <rect class="anc_exon" x="1708" y="35.0" width="196" height="30" style="fill:#87bcbc;fill-opacity:1.00" />
  <line x1="1904" y1="50.0" x2="1924" y2="50.0" style="stroke:#999; stroke-width:3;" />
  <line x1="1924" y1="50.0" x2="1924" y2="50.0" style="stroke:#999; stroke-width:3;" />
  <line x1="1924" y1="50.0" x2="1924" y2="50.0" style="stroke:#999; stroke-width:3;" />
  <line x1="1924" y1="50.0" x2="1944" y2="50.0" style="stroke:#999; stroke-width:3;" />
  <rect class="anc_exon" x="1944" y="35.0" width="95" height="30" style="fill:#87bcbc;fill-opacity:1.00" />
  <line x1="2039" y1="50.0" x2="2059" y2="50.0" style="stroke:#999; stroke-width:3;" />
  <line x1="2059" y1="50.0" x2="2059" y2="50.0" style="stroke:#999; stroke-width:3;" />
  <line x1="2059" y1="50.0" x2="2059" y2="50.0" style="stroke:#999; stroke-width:3;" />
  <line x1="2059" y1="50.0" x2="2079" y2="50.0" style="stroke:#999; stroke-width:3;" />
  <rect class="anc_exon" x="2079" y="35.0" width="100" height="30" style="fill:#87bcbc;fill-opacity:1.00" />
  <line x1="2179" y1="50.0" x2="2199" y2="50.0" style="stroke:#999; stroke-width:3;" />
  <line x1="2199" y1="50.0" x2="2199" y2="50.0" style="stroke:#999; stroke-width:3;" />
  <line x1="2199" y1="50.0" x2="2199" y2="50.0" style="stroke:#999; stroke-width:3;" />
  <line x1="2199" y1="50.0" x2="2219" y2="50.0" style="stroke:#999; stroke-width:3;" />
  <rect class="anc_exon" x="2219" y="35.0" width="54" height="30" style="fill:#87bcbc;fill-opacity:1.00" />
  <line x1="2273" y1="50.0" x2="2293" y2="50.0" style="stroke:#999; stroke-width:3;" />
  <line x1="2293" y1="50.0" x2="2293" y2="50.0" style="stroke:#999; stroke-width:3;" />
  <line x1="2293" y1="50.0" x2="2293" y2="50.0" style="stroke:#999; stroke-width:3;" />
  <line x1="2293" y1="50.0" x2="2313" y2="50.0" style="stroke:#999; stroke-width:3;" />
  <rect class="anc_exon" x="2313" y="35.0" width="88" height="30" style="fill:#87bcbc;fill-opacity:1.00" />
  <line x1="2401" y1="50.0" x2="2421" y2="50.0" style="stroke:#999; stroke-width:3;" />
  <line x1="2421" y1="50.0" x2="2421" y2="50.0" style="stroke:#999; stroke-width:3;" />
  <line x1="2421" y1="50.0" x2="2421" y2="50.0" style="stroke:#999; stroke-width:3;" />
  <line x1="2421" y1="50.0" x2="2441" y2="50.0" style="stroke:#999; stroke-width:3;" />
  <rect class="anc_exon" x="2441" y="35.0" width="118" height="30" style="fill:#87bcbc;fill-opacity:1.00" />
  <line x1="2559" y1="50.0" x2="2599" y2="50.0" style="stroke:#999; stroke-width:3;" />
  <rect class="anc_exon" x="2599" y="35.0" width="62" height="30" style="fill:#87bcbc;fill-opacity:1.00" />
  <line x1="2661" y1="50.0" x2="2681" y2="50.0" style="stroke:#999; stroke-width:3;" />
  <line x1="2681" y1="50.0" x2="2681" y2="50.0" style="stroke:#999; stroke-width:3;" />
  <line x1="2681" y1="50.0" x2="2681" y2="50.0" style="stroke:#999; stroke-width:3;" />
  <line x1="2681" y1="50.0" x2="2701" y2="50.0" style="stroke:#999; stroke-width:3;" />
  <rect class="anc_exon" x="2701" y="35.0" width="55" height="30" style="fill:#87bcbc;fill-opacity:1.00" />
  <line x1="2756" y1="50.0" x2="2776" y2="50.0" style="stroke:#999; stroke-width:3;" />
  <line x1="2776" y1="50.0" x2="2776" y2="50.0" style="stroke:#999; stroke-width:3;" />
  <line x1="2776" y1="50.0" x2="2776" y2="50.0" style="stroke:#999; stroke-width:3;" />
  <line x1="2776" y1="50.0" x2="2796" y2="50.0" style="stroke:#999; stroke-width:3;" />
  <rect class="anc_exon" x="2796" y="35.0" width="114" height="30" style="fill:#87bcbc;fill-opacity:1.00" />
  <line x1="2910" y1="50.0" x2="2930" y2="50.0" style="stroke:#999; stroke-width:3;" />
  <line x1="2930" y1="50.0" x2="2930" y2="50.0" style="stroke:#999; stroke-width:3;" />
  <line x1="2930" y1="50.0" x2="2930" y2="50.0" style="stroke:#999; stroke-width:3;" />
  <line x1="2930" y1="50.0" x2="2950" y2="50.0" style="stroke:#999; stroke-width:3;" />
  <rect class="anc_exon" x="2950" y="35.0" width="56" height="30" style="fill:#87bcbc;fill-opacity:1.00" />
  <rect class="anc_exon" x="3006" y="35.0" width="0" height="30" style="fill:#87bcbc;fill-opacity:1.00" />
  <text style="" >
<tspan x="0" y="83.0" style="font-size:18px;" >SP XM_031969264_1.1</tspan>  </text>



<script type="text/ecmascript">
<![CDATA[
function draw_bbox(text_id)
{
    var text_elem = document.getElementById(text_id);
    var offset_px = 2;
    var offset_py = 0;
    bbox = text_elem.getBBox();
    var box = document.createElementNS(document.rootElement.namespaceURI,'rect');
    box.setAttribute('x', bbox.x - offset_px);
    box.setAttribute('y', bbox.y - offset_py);
    box.setAttribute('width', bbox.width + offset_px * 2);
    box.setAttribute('height', bbox.height + offset_py * 2);
    box.setAttribute('style','fill: white;'+'stroke: black;'+'stroke-width: 1px;');
    text_elem.insertBefore(box,text_elem.childNodes[0]);

    var svg = text_elem.parentNode;
    svg.appendChild(text_elem);
}

for (var i=1; i < 1; i++)
{
draw_bbox("Mouseover" + i);
}
]]> 
</script>
</svg>
