<svg version="1.1"
xmlns="http://www.w3.org/2000/svg"
xmlns:xlink="http://www.w3.org/1999/xlink"
width="1603" height="100" viewBox = "0 0 1603 100"
onclick="mouseclick(evt)">

<script type="text/ecmascript">

<![CDATA[
    function mouseover(evt, target) { 
    var gv = document.getElementById("globalVariable");
    var previoustarget = gv.firstChild.nodeValue;
    if (previoustarget != "none") 
    {
        	document.getElementById(gv.firstChild.nodeValue).setAttributeNS(null, "visibility", "hidden");
    }
    document.getElementById(target).setAttributeNS(null, "visibility", "visible");
    gv.firstChild.nodeValue = target;
        }

    function mouseclick(evt) { 
    var gv = document.getElementById("globalVariable");
    var previoustarget = gv.firstChild.nodeValue;
    if (previoustarget != "none") {
        	document.getElementById(gv.firstChild.nodeValue).setAttributeNS(null, "visibility", "hidden");
        }
    }
]]>
  </script>
<style type="text/css" >

<![CDATA[
    rect.anc_exon {
              stroke-width:3;
                  }

    rect.non_anc_exon {
              stroke: black; stroke-width:3; stroke-dasharray: 5,5;
                    }

    text {
              font-size: 18px;
              font-family: Courier New;
          }
                    ]]>
</style>

<defs>
    <text x="150" y="40" id="globalVariable">none</text>
</defs>

  <rect class="anc_exon" x="0" y="35.0" width="0" height="30" style="fill:#87bcbc;fill-opacity:1.00" />
  <rect class="anc_exon" x="0" y="35.0" width="164.0" height="30" style="fill:#87bcbc;fill-opacity:1.00" />
  <line x1="164.0" y1="50.0" x2="184.0" y2="50.0" style="stroke:#999; stroke-width:3;" />
  <line x1="184.0" y1="50.0" x2="184.0" y2="50.0" style="stroke:#999; stroke-width:3;" />
  <line x1="184.0" y1="50.0" x2="184.0" y2="50.0" style="stroke:#999; stroke-width:3;" />
  <line x1="184.0" y1="50.0" x2="204.0" y2="50.0" style="stroke:#999; stroke-width:3;" />
  <rect class="anc_exon" x="204" y="35.0" width="100" height="30" style="fill:#87bcbc;fill-opacity:1.00" />
  <line x1="304" y1="50.0" x2="324" y2="50.0" style="stroke:#999; stroke-width:3;" />
  <line x1="324" y1="50.0" x2="324" y2="50.0" style="stroke:#999; stroke-width:3;" />
  <line x1="324" y1="50.0" x2="324" y2="50.0" style="stroke:#999; stroke-width:3;" />
  <line x1="324" y1="50.0" x2="344" y2="50.0" style="stroke:#999; stroke-width:3;" />
  <rect class="anc_exon" x="344" y="35.0" width="85" height="30" style="fill:#87bcbc;fill-opacity:1.00" />
  <line x1="429" y1="50.0" x2="449" y2="50.0" style="stroke:#999; stroke-width:3;" />
  <line x1="449" y1="50.0" x2="449" y2="50.0" style="stroke:#999; stroke-width:3;" />
  <line x1="449" y1="50.0" x2="449" y2="50.0" style="stroke:#999; stroke-width:3;" />
  <line x1="449" y1="50.0" x2="469" y2="50.0" style="stroke:#999; stroke-width:3;" />
  <rect class="anc_exon" x="469" y="35.0" width="84" height="30" style="fill:#87bcbc;fill-opacity:1.00" />
  <line x1="553" y1="50.0" x2="573" y2="50.0" style="stroke:#999; stroke-width:3;" />
  <line x1="573" y1="50.0" x2="573" y2="50.0" style="stroke:#999; stroke-width:3;" />
  <line x1="573" y1="50.0" x2="573" y2="50.0" style="stroke:#999; stroke-width:3;" />
  <line x1="573" y1="50.0" x2="593" y2="50.0" style="stroke:#999; stroke-width:3;" />
  <rect class="anc_exon" x="593" y="35.0" width="45" height="30" style="fill:#87bcbc;fill-opacity:1.00" />
  <line x1="638" y1="50.0" x2="658" y2="50.0" style="stroke:#999; stroke-width:3;" />
  <line x1="658" y1="50.0" x2="658" y2="50.0" style="stroke:#999; stroke-width:3;" />
  <line x1="658" y1="50.0" x2="658" y2="50.0" style="stroke:#999; stroke-width:3;" />
  <line x1="658" y1="50.0" x2="678" y2="50.0" style="stroke:#999; stroke-width:3;" />
  <rect class="anc_exon" x="678" y="35.0" width="142" height="30" style="fill:#87bcbc;fill-opacity:1.00" />
  <line x1="820" y1="50.0" x2="840" y2="50.0" style="stroke:#999; stroke-width:3;" />
  <line x1="840" y1="50.0" x2="840" y2="50.0" style="stroke:#999; stroke-width:3;" />
  <line x1="840" y1="50.0" x2="840" y2="50.0" style="stroke:#999; stroke-width:3;" />
  <line x1="840" y1="50.0" x2="860" y2="50.0" style="stroke:#999; stroke-width:3;" />
  <rect class="anc_exon" x="860" y="35.0" width="72" height="30" style="fill:#87bcbc;fill-opacity:1.00" />
  <line x1="932" y1="50.0" x2="952" y2="50.0" style="stroke:#999; stroke-width:3;" />
  <line x1="952" y1="50.0" x2="952" y2="50.0" style="stroke:#999; stroke-width:3;" />
  <line x1="952" y1="50.0" x2="952" y2="50.0" style="stroke:#999; stroke-width:3;" />
  <line x1="952" y1="50.0" x2="972" y2="50.0" style="stroke:#999; stroke-width:3;" />
  <rect class="anc_exon" x="972" y="35.0" width="65" height="30" style="fill:#87bcbc;fill-opacity:1.00" />
  <line x1="1037" y1="50.0" x2="1057" y2="50.0" style="stroke:#999; stroke-width:3;" />
  <line x1="1057" y1="50.0" x2="1057" y2="50.0" style="stroke:#999; stroke-width:3;" />
  <line x1="1057" y1="50.0" x2="1057" y2="50.0" style="stroke:#999; stroke-width:3;" />
  <line x1="1057" y1="50.0" x2="1077" y2="50.0" style="stroke:#999; stroke-width:3;" />
  <rect class="anc_exon" x="1077" y="35.0" width="68" height="30" style="fill:#87bcbc;fill-opacity:1.00" />
  <line x1="1145" y1="50.0" x2="1165" y2="50.0" style="stroke:#999; stroke-width:3;" />
  <line x1="1165" y1="50.0" x2="1165" y2="50.0" style="stroke:#999; stroke-width:3;" />
  <line x1="1165" y1="50.0" x2="1165" y2="50.0" style="stroke:#999; stroke-width:3;" />
  <line x1="1165" y1="50.0" x2="1185" y2="50.0" style="stroke:#999; stroke-width:3;" />
  <rect class="anc_exon" x="1185" y="35.0" width="72" height="30" style="fill:#87bcbc;fill-opacity:1.00" />
  <line x1="1257" y1="50.0" x2="1277" y2="50.0" style="stroke:#999; stroke-width:3;" />
  <line x1="1277" y1="50.0" x2="1277" y2="50.0" style="stroke:#999; stroke-width:3;" />
  <line x1="1277" y1="50.0" x2="1277" y2="50.0" style="stroke:#999; stroke-width:3;" />
  <line x1="1277" y1="50.0" x2="1297" y2="50.0" style="stroke:#999; stroke-width:3;" />
  <rect class="anc_exon" x="1297" y="35.0" width="110" height="30" style="fill:#87bcbc;fill-opacity:1.00" />
  <line x1="1407" y1="50.0" x2="1427" y2="50.0" style="stroke:#999; stroke-width:3;" />
  <line x1="1427" y1="50.0" x2="1427" y2="50.0" style="stroke:#999; stroke-width:3;" />
  <line x1="1427" y1="50.0" x2="1427" y2="50.0" style="stroke:#999; stroke-width:3;" />
  <line x1="1427" y1="50.0" x2="1447" y2="50.0" style="stroke:#999; stroke-width:3;" />
  <rect class="anc_exon" x="1447" y="35.0" width="72" height="30" style="fill:#87bcbc;fill-opacity:1.00" />
  <line x1="1519" y1="50.0" x2="1539" y2="50.0" style="stroke:#999; stroke-width:3;" />
  <line x1="1539" y1="50.0" x2="1539" y2="50.0" style="stroke:#999; stroke-width:3;" />
  <line x1="1539" y1="50.0" x2="1539" y2="50.0" style="stroke:#999; stroke-width:3;" />
  <line x1="1539" y1="50.0" x2="1559" y2="50.0" style="stroke:#999; stroke-width:3;" />
  <rect class="anc_exon" x="1559" y="35.0" width="8" height="30" style="fill:#87bcbc;fill-opacity:1.00" />
  <rect class="anc_exon" x="1567" y="35.0" width="0" height="30" style="fill:#87bcbc;fill-opacity:1.00" />
  <text style="" >
<tspan x="0" y="83.0" style="font-size:18px;" >SP XM_031962277_1.1</tspan>  </text>



<script type="text/ecmascript">
<![CDATA[
function draw_bbox(text_id)
{
    var text_elem = document.getElementById(text_id);
    var offset_px = 2;
    var offset_py = 0;
    bbox = text_elem.getBBox();
    var box = document.createElementNS(document.rootElement.namespaceURI,'rect');
    box.setAttribute('x', bbox.x - offset_px);
    box.setAttribute('y', bbox.y - offset_py);
    box.setAttribute('width', bbox.width + offset_px * 2);
    box.setAttribute('height', bbox.height + offset_py * 2);
    box.setAttribute('style','fill: white;'+'stroke: black;'+'stroke-width: 1px;');
    text_elem.insertBefore(box,text_elem.childNodes[0]);

    var svg = text_elem.parentNode;
    svg.appendChild(text_elem);
}

for (var i=1; i < 1; i++)
{
draw_bbox("Mouseover" + i);
}
]]> 
</script>
</svg>
