<svg version="1.1"
xmlns="http://www.w3.org/2000/svg"
xmlns:xlink="http://www.w3.org/1999/xlink"
width="7562" height="110.0" viewBox = "0 -10.0 7562 110.0"
onclick="mouseclick(evt)">

<script type="text/ecmascript">

<![CDATA[
    function mouseover(evt, target) { 
    var gv = document.getElementById("globalVariable");
    var previoustarget = gv.firstChild.nodeValue;
    if (previoustarget != "none") 
    {
        	document.getElementById(gv.firstChild.nodeValue).setAttributeNS(null, "visibility", "hidden");
    }
    document.getElementById(target).setAttributeNS(null, "visibility", "visible");
    gv.firstChild.nodeValue = target;
        }

    function mouseclick(evt) { 
    var gv = document.getElementById("globalVariable");
    var previoustarget = gv.firstChild.nodeValue;
    if (previoustarget != "none") {
        	document.getElementById(gv.firstChild.nodeValue).setAttributeNS(null, "visibility", "hidden");
        }
    }
]]>
  </script>
<style type="text/css" >

<![CDATA[
    rect.anc_exon {
              stroke-width:3;
                  }

    rect.non_anc_exon {
              stroke: black; stroke-width:3; stroke-dasharray: 5,5;
                    }

    text {
              font-size: 18px;
              font-family: Courier New;
          }
                    ]]>
</style>

<defs>
    <text x="150" y="40" id="globalVariable">none</text>
</defs>

  <rect class="anc_exon" x="0" y="35.0" width="0" height="30" style="fill:#87bcbc;fill-opacity:1.00" />
  <rect class="anc_exon" x="0" y="35.0" width="74.4" height="30" style="fill:#87bcbc;fill-opacity:1.00" />
  <line x1="74.4" y1="50.0" x2="114.0" y2="50.0" style="stroke:#999; stroke-width:3;" />
  <rect class="anc_exon" x="114" y="35.0" width="112" height="30" style="fill:#87bcbc;fill-opacity:1.00" />
  <line x1="226" y1="50.0" x2="246" y2="50.0" style="stroke:#999; stroke-width:3;" />
  <line x1="246" y1="50.0" x2="246" y2="50.0" style="stroke:#999; stroke-width:3;" />
  <line x1="246" y1="50.0" x2="246" y2="50.0" style="stroke:#999; stroke-width:3;" />
  <line x1="246" y1="50.0" x2="266" y2="50.0" style="stroke:#999; stroke-width:3;" />
  <rect class="anc_exon" x="266" y="35.0" width="73" height="30" style="fill:#87bcbc;fill-opacity:1.00" />
  <line x1="339" y1="50.0" x2="379" y2="50.0" style="stroke:#999; stroke-width:3;" />
  <rect class="anc_exon" x="379" y="35.0" width="122" height="30" style="fill:#87bcbc;fill-opacity:1.00" />
  <line x1="501" y1="50.0" x2="521" y2="50.0" style="stroke:#999; stroke-width:3;" />
  <line x1="521" y1="50.0" x2="521" y2="50.0" style="stroke:#999; stroke-width:3;" />
  <line x1="521" y1="50.0" x2="521" y2="50.0" style="stroke:#999; stroke-width:3;" />
  <line x1="521" y1="50.0" x2="541" y2="50.0" style="stroke:#999; stroke-width:3;" />
  <rect class="anc_exon" x="541" y="35.0" width="155" height="30" style="fill:#87bcbc;fill-opacity:1.00" />
  <line x1="696" y1="50.0" x2="716" y2="50.0" style="stroke:#999; stroke-width:3;" />
  <line x1="716" y1="50.0" x2="716" y2="50.0" style="stroke:#999; stroke-width:3;" />
  <line x1="716" y1="50.0" x2="716" y2="50.0" style="stroke:#999; stroke-width:3;" />
  <line x1="716" y1="50.0" x2="736" y2="50.0" style="stroke:#999; stroke-width:3;" />
  <rect class="anc_exon" x="736" y="35.0" width="83" height="30" style="fill:#87bcbc;fill-opacity:1.00" />
  <line x1="819" y1="50.0" x2="859" y2="50.0" style="stroke:#999; stroke-width:3;" />
  <rect class="anc_exon" x="859" y="35.0" width="92" height="30" style="fill:#87bcbc;fill-opacity:1.00" />
  <line x1="951" y1="50.0" x2="971" y2="50.0" style="stroke:#999; stroke-width:3;" />
  <line x1="971" y1="50.0" x2="971" y2="50.0" style="stroke:#999; stroke-width:3;" />
  <line x1="971" y1="50.0" x2="971" y2="50.0" style="stroke:#999; stroke-width:3;" />
  <line x1="971" y1="50.0" x2="991" y2="50.0" style="stroke:#999; stroke-width:3;" />
  <rect class="anc_exon" x="991" y="35.0" width="45" height="30" style="fill:#87bcbc;fill-opacity:1.00" />
  <line x1="1036" y1="50.0" x2="1076" y2="50.0" style="stroke:#999; stroke-width:3;" />
  <rect class="anc_exon" x="1076" y="35.0" width="76" height="30" style="fill:#87bcbc;fill-opacity:1.00" />
  <line x1="1152" y1="50.0" x2="1192" y2="50.0" style="stroke:#999; stroke-width:3;" />
  <rect class="anc_exon" x="1192" y="35.0" width="168" height="30" style="fill:#87bcbc;fill-opacity:1.00" />
  <line x1="1360" y1="50.0" x2="1380" y2="50.0" style="stroke:#999; stroke-width:3;" />
  <line x1="1380" y1="50.0" x2="1380" y2="50.0" style="stroke:#999; stroke-width:3;" />
  <line x1="1380" y1="50.0" x2="1380" y2="50.0" style="stroke:#999; stroke-width:3;" />
  <line x1="1380" y1="50.0" x2="1400" y2="50.0" style="stroke:#999; stroke-width:3;" />
  <rect class="anc_exon" x="1400" y="35.0" width="90" height="30" style="fill:#87bcbc;fill-opacity:1.00" />
  <line x1="1490" y1="50.0" x2="1530" y2="50.0" style="stroke:#999; stroke-width:3;" />
  <rect class="anc_exon" x="1530" y="35.0" width="90" height="30" style="fill:#87bcbc;fill-opacity:1.00" />
  <line x1="1620" y1="50.0" x2="1660" y2="50.0" style="stroke:#999; stroke-width:3;" />
  <rect class="anc_exon" x="1660" y="35.0" width="105" height="30" style="fill:#87bcbc;fill-opacity:1.00" />
  <line x1="1765" y1="50.0" x2="1805" y2="50.0" style="stroke:#999; stroke-width:3;" />
  <rect class="anc_exon" x="1805" y="35.0" width="58" height="30" style="fill:#87bcbc;fill-opacity:1.00" />
  <line x1="1863" y1="50.0" x2="1903" y2="50.0" style="stroke:#999; stroke-width:3;" />
  <rect class="anc_exon" x="1903" y="35.0" width="94" height="30" style="fill:#87bcbc;fill-opacity:1.00" />
  <line x1="1997" y1="50.0" x2="2037" y2="50.0" style="stroke:#999; stroke-width:3;" />
  <rect class="anc_exon" x="2037" y="35.0" width="54" height="30" style="fill:#87bcbc;fill-opacity:1.00" />
  <line x1="2091" y1="50.0" x2="2111" y2="50.0" style="stroke:#999; stroke-width:3;" />
  <line x1="2111" y1="50.0" x2="2111" y2="50.0" style="stroke:#999; stroke-width:3;" />
  <line x1="2111" y1="50.0" x2="2111" y2="50.0" style="stroke:#999; stroke-width:3;" />
  <line x1="2111" y1="50.0" x2="2131" y2="50.0" style="stroke:#999; stroke-width:3;" />
  <rect class="anc_exon" x="2131" y="35.0" width="85" height="30" style="fill:#87bcbc;fill-opacity:1.00" />
  <line x1="2216" y1="50.0" x2="2256" y2="50.0" style="stroke:#999; stroke-width:3;" />
  <rect class="anc_exon" x="2256" y="35.0" width="660" height="30" style="fill:#878787;fill-opacity:1.00" />
  <line x1="2916" y1="50.0" x2="2936" y2="50.0" style="stroke:#999; stroke-width:3;" />
  <line x1="2936" y1="50.0" x2="2936" y2="50.0" style="stroke:#999; stroke-width:3;" />
  <line x1="2936" y1="50.0" x2="2936" y2="50.0" style="stroke:#999; stroke-width:3;" />
  <line x1="2936" y1="50.0" x2="2956" y2="50.0" style="stroke:#999; stroke-width:3;" />
  <rect class="anc_exon" x="2956" y="35.0" width="332" height="30" style="fill:#87bcbc;fill-opacity:1.00" />
  <line x1="3288" y1="50.0" x2="3328" y2="50.0" style="stroke:#999; stroke-width:3;" />
  <rect class="anc_exon" x="3328" y="35.0" width="106" height="30" style="fill:#87bcbc;fill-opacity:1.00" />
  <line x1="3434" y1="50.0" x2="3474" y2="50.0" style="stroke:#999; stroke-width:3;" />
  <rect class="anc_exon" x="3474" y="35.0" width="104" height="30" style="fill:#87bcbc;fill-opacity:1.00" />
  <line x1="3578" y1="50.0" x2="3598" y2="50.0" style="stroke:#999; stroke-width:3;" />
  <line x1="3598" y1="50.0" x2="3598" y2="50.0" style="stroke:#999; stroke-width:3;" />
  <line x1="3598" y1="50.0" x2="3598" y2="50.0" style="stroke:#999; stroke-width:3;" />
  <line x1="3598" y1="50.0" x2="3618" y2="50.0" style="stroke:#999; stroke-width:3;" />
  <rect class="anc_exon" x="3618" y="35.0" width="48" height="30" style="fill:#87bcbc;fill-opacity:1.00" />
  <line x1="3666" y1="50.0" x2="3706" y2="50.0" style="stroke:#999; stroke-width:3;" />
  <rect class="anc_exon" x="3706" y="35.0" width="85" height="30" style="fill:#87bcbc;fill-opacity:1.00" />
  <line x1="3791" y1="50.0" x2="3811" y2="50.0" style="stroke:#999; stroke-width:3;" />
  <line x1="3811" y1="50.0" x2="3811" y2="50.0" style="stroke:#999; stroke-width:3;" />
  <line x1="3811" y1="50.0" x2="3811" y2="50.0" style="stroke:#999; stroke-width:3;" />
  <line x1="3811" y1="50.0" x2="3831" y2="50.0" style="stroke:#999; stroke-width:3;" />
  <rect class="anc_exon" x="3831" y="35.0" width="9" height="30" style="fill:#87bcbc;fill-opacity:1.00" />
  <line x1="3840" y1="50.0" x2="3860" y2="50.0" style="stroke:#999; stroke-width:3;" />
  <line x1="3860" y1="50.0" x2="3860" y2="50.0" style="stroke:#999; stroke-width:3;" />
  <line x1="3860" y1="50.0" x2="3860" y2="50.0" style="stroke:#999; stroke-width:3;" />
  <line x1="3860" y1="50.0" x2="3880" y2="50.0" style="stroke:#999; stroke-width:3;" />
  <rect class="anc_exon" x="3880" y="35.0" width="80" height="30" style="fill:#87bcbc;fill-opacity:1.00" />
  <line x1="3960" y1="50.0" x2="3980" y2="50.0" style="stroke:#999; stroke-width:3;" />
  <line x1="3980" y1="50.0" x2="3980" y2="50.0" style="stroke:#999; stroke-width:3;" />
  <line x1="3980" y1="50.0" x2="3980" y2="50.0" style="stroke:#999; stroke-width:3;" />
  <line x1="3980" y1="50.0" x2="4000" y2="50.0" style="stroke:#999; stroke-width:3;" />
  <rect class="anc_exon" x="4000" y="35.0" width="128" height="30" style="fill:#87bcbc;fill-opacity:1.00" />
  <line x1="4128" y1="50.0" x2="4168" y2="50.0" style="stroke:#999; stroke-width:3;" />
  <rect class="anc_exon" x="4168" y="35.0" width="110" height="30" style="fill:#87bcbc;fill-opacity:1.00" />
  <line x1="4278" y1="50.0" x2="4318" y2="50.0" style="stroke:#999; stroke-width:3;" />
  <rect class="anc_exon" x="4318" y="35.0" width="161" height="30" style="fill:#87bcbc;fill-opacity:1.00" />
  <line x1="4479" y1="50.0" x2="4519" y2="50.0" style="stroke:#999; stroke-width:3;" />
  <rect class="anc_exon" x="4519" y="35.0" width="132" height="30" style="fill:#87bcbc;fill-opacity:1.00" />
  <line x1="4651" y1="50.0" x2="4691" y2="50.0" style="stroke:#999; stroke-width:3;" />
  <rect class="anc_exon" x="4691" y="35.0" width="88" height="30" style="fill:#87bcbc;fill-opacity:1.00" />
  <line x1="4779" y1="50.0" x2="4799" y2="50.0" style="stroke:#999; stroke-width:3;" />
  <line x1="4799" y1="50.0" x2="4799" y2="50.0" style="stroke:#999; stroke-width:3;" />
  <line x1="4799" y1="50.0" x2="4799" y2="50.0" style="stroke:#999; stroke-width:3;" />
  <line x1="4799" y1="50.0" x2="4819" y2="50.0" style="stroke:#999; stroke-width:3;" />
  <rect class="anc_exon" x="4819" y="35.0" width="67" height="30" style="fill:#87bcbc;fill-opacity:1.00" />
  <line x1="4886" y1="50.0" x2="4906" y2="50.0" style="stroke:#999; stroke-width:3;" />
  <line x1="4906" y1="50.0" x2="4906" y2="50.0" style="stroke:#999; stroke-width:3;" />
  <line x1="4906" y1="50.0" x2="4906" y2="50.0" style="stroke:#999; stroke-width:3;" />
  <line x1="4906" y1="50.0" x2="4926" y2="50.0" style="stroke:#999; stroke-width:3;" />
  <rect class="anc_exon" x="4926" y="35.0" width="93" height="30" style="fill:#87bcbc;fill-opacity:1.00" />
  <line x1="5019" y1="50.0" x2="5059" y2="50.0" style="stroke:#999; stroke-width:3;" />
  <rect class="anc_exon" x="5059" y="35.0" width="52" height="30" style="fill:#87bcbc;fill-opacity:1.00" />
  <line x1="5111" y1="50.0" x2="5151" y2="50.0" style="stroke:#999; stroke-width:3;" />
  <rect class="anc_exon" x="5151" y="35.0" width="90" height="30" style="fill:#878787;fill-opacity:1.00" />
  <line x1="5241" y1="50.0" x2="5281" y2="50.0" style="stroke:#999; stroke-width:3;" />
  <rect class="anc_exon" x="5281" y="35.0" width="120" height="30" style="fill:#87bcbc;fill-opacity:1.00" />
  <line x1="5401" y1="50.0" x2="5441" y2="50.0" style="stroke:#999; stroke-width:3;" />
  <rect class="anc_exon" x="5441" y="35.0" width="102" height="30" style="fill:#87bcbc;fill-opacity:1.00" />
  <line x1="5543" y1="50.0" x2="5563" y2="50.0" style="stroke:#999; stroke-width:3;" />
  <line x1="5563" y1="50.0" x2="5563" y2="50.0" style="stroke:#999; stroke-width:3;" />
  <line x1="5563" y1="50.0" x2="5563" y2="50.0" style="stroke:#999; stroke-width:3;" />
  <line x1="5563" y1="50.0" x2="5583" y2="50.0" style="stroke:#999; stroke-width:3;" />
  <rect class="anc_exon" x="5583" y="35.0" width="77" height="30" style="fill:#87bcbc;fill-opacity:1.00" />
  <line x1="5660" y1="50.0" x2="5680" y2="50.0" style="stroke:#999; stroke-width:3;" />
  <line x1="5680" y1="50.0" x2="5680" y2="50.0" style="stroke:#999; stroke-width:3;" />
  <line x1="5680" y1="50.0" x2="5680" y2="50.0" style="stroke:#999; stroke-width:3;" />
  <line x1="5680" y1="50.0" x2="5700" y2="50.0" style="stroke:#999; stroke-width:3;" />
  <rect class="anc_exon" x="5700" y="35.0" width="84" height="30" style="fill:#87bcbc;fill-opacity:1.00" />
  <line x1="5784" y1="50.0" x2="5804" y2="50.0" style="stroke:#999; stroke-width:3;" />
  <line x1="5804" y1="50.0" x2="5804" y2="50.0" style="stroke:#999; stroke-width:3;" />
  <line x1="5804" y1="50.0" x2="5804" y2="50.0" style="stroke:#999; stroke-width:3;" />
  <line x1="5804" y1="50.0" x2="5824" y2="50.0" style="stroke:#999; stroke-width:3;" />
  <rect class="anc_exon" x="5824" y="35.0" width="86" height="30" style="fill:#87bcbc;fill-opacity:1.00" />
  <line x1="5910" y1="50.0" x2="5950" y2="50.0" style="stroke:#999; stroke-width:3;" />
  <rect class="anc_exon" x="5950" y="35.0" width="80" height="30" style="fill:#87bcbc;fill-opacity:1.00" />
  <line x1="6030" y1="50.0" x2="6070" y2="50.0" style="stroke:#999; stroke-width:3;" />
  <rect class="anc_exon" x="6070" y="35.0" width="83" height="30" style="fill:#87bcbc;fill-opacity:1.00" />
  <line x1="6153" y1="50.0" x2="6193" y2="50.0" style="stroke:#999; stroke-width:3;" />
  <rect class="anc_exon" x="6193" y="35.0" width="111" height="30" style="fill:#87bcbc;fill-opacity:1.00" />
  <line x1="6304" y1="50.0" x2="6324" y2="50.0" style="stroke:#999; stroke-width:3;" />
  <line x1="6324" y1="50.0" x2="6324" y2="50.0" style="stroke:#999; stroke-width:3;" />
  <line x1="6324" y1="50.0" x2="6324" y2="50.0" style="stroke:#999; stroke-width:3;" />
  <line x1="6324" y1="50.0" x2="6344" y2="50.0" style="stroke:#999; stroke-width:3;" />
  <rect class="anc_exon" x="6344" y="35.0" width="91" height="30" style="fill:#87bcbc;fill-opacity:1.00" />
  <line x1="6435" y1="50.0" x2="6455" y2="50.0" style="stroke:#999; stroke-width:3;" />
  <line x1="6455" y1="50.0" x2="6455" y2="50.0" style="stroke:#999; stroke-width:3;" />
  <line x1="6455" y1="50.0" x2="6455" y2="50.0" style="stroke:#999; stroke-width:3;" />
  <line x1="6455" y1="50.0" x2="6475" y2="50.0" style="stroke:#999; stroke-width:3;" />
  <rect class="anc_exon" x="6475" y="35.0" width="28" height="30" style="fill:#87bcbc;fill-opacity:1.00" />
  <line x1="6503" y1="50.0" x2="6523" y2="50.0" style="stroke:#999; stroke-width:3;" />
  <line x1="6523" y1="50.0" x2="6523" y2="50.0" style="stroke:#999; stroke-width:3;" />
  <line x1="6523" y1="50.0" x2="6523" y2="50.0" style="stroke:#999; stroke-width:3;" />
  <line x1="6523" y1="50.0" x2="6543" y2="50.0" style="stroke:#999; stroke-width:3;" />
  <rect class="anc_exon" x="6543" y="35.0" width="149" height="30" style="fill:#87bcbc;fill-opacity:1.00" />
  <line x1="6692" y1="50.0" x2="6712" y2="50.0" style="stroke:#999; stroke-width:3;" />
  <line x1="6712" y1="50.0" x2="6712" y2="50.0" style="stroke:#999; stroke-width:3;" />
  <line x1="6712" y1="50.0" x2="6712" y2="50.0" style="stroke:#999; stroke-width:3;" />
  <line x1="6712" y1="50.0" x2="6732" y2="50.0" style="stroke:#999; stroke-width:3;" />
  <rect class="anc_exon" x="6732" y="35.0" width="198" height="30" style="fill:#87bcbc;fill-opacity:1.00" />
  <line x1="6930" y1="50.0" x2="6970" y2="50.0" style="stroke:#999; stroke-width:3;" />
  <rect class="anc_exon" x="6970" y="35.0" width="556" height="30" style="fill:#87bcbc;fill-opacity:1.00" />
  <line x1="7165.6" y1="35.0" x2="7165.6" y2="65.0" style="stroke:#121212; stroke-width:0.8; stroke-opacity:1"/>
  <text style="" text-anchor="middle">
<tspan x="7165.2" y="26.0" style="font-size:18px;fill:#121212;" >-1</tspan>  </text>
  <rect class="anc_exon" x="7526" y="35.0" width="0" height="30" style="fill:#87bcbc;fill-opacity:1.00" />
  <text style="" >
<tspan x="0" y="83.0" style="font-size:18px;" >SP XM_031947662_1.1</tspan>  </text>
  <text style="fill:#121212;" >
<tspan x="1052.96" y="68.0" style="font-size:18px;fill:#121212;" >ta</tspan>  </text>



<script type="text/ecmascript">
<![CDATA[
function draw_bbox(text_id)
{
    var text_elem = document.getElementById(text_id);
    var offset_px = 2;
    var offset_py = 0;
    bbox = text_elem.getBBox();
    var box = document.createElementNS(document.rootElement.namespaceURI,'rect');
    box.setAttribute('x', bbox.x - offset_px);
    box.setAttribute('y', bbox.y - offset_py);
    box.setAttribute('width', bbox.width + offset_px * 2);
    box.setAttribute('height', bbox.height + offset_py * 2);
    box.setAttribute('style','fill: white;'+'stroke: black;'+'stroke-width: 1px;');
    text_elem.insertBefore(box,text_elem.childNodes[0]);

    var svg = text_elem.parentNode;
    svg.appendChild(text_elem);
}

for (var i=1; i < 1; i++)
{
draw_bbox("Mouseover" + i);
}
]]> 
</script>
</svg>
