<svg version="1.1"
xmlns="http://www.w3.org/2000/svg"
xmlns:xlink="http://www.w3.org/1999/xlink"
width="991" height="120.0" viewBox = "0 -20.0 991 120.0"
onclick="mouseclick(evt)">

<script type="text/ecmascript">

<![CDATA[
    function mouseover(evt, target) { 
    var gv = document.getElementById("globalVariable");
    var previoustarget = gv.firstChild.nodeValue;
    if (previoustarget != "none") 
    {
        	document.getElementById(gv.firstChild.nodeValue).setAttributeNS(null, "visibility", "hidden");
    }
    document.getElementById(target).setAttributeNS(null, "visibility", "visible");
    gv.firstChild.nodeValue = target;
        }

    function mouseclick(evt) { 
    var gv = document.getElementById("globalVariable");
    var previoustarget = gv.firstChild.nodeValue;
    if (previoustarget != "none") {
        	document.getElementById(gv.firstChild.nodeValue).setAttributeNS(null, "visibility", "hidden");
        }
    }
]]>
  </script>
<style type="text/css" >

<![CDATA[
    rect.anc_exon {
              stroke-width:3;
                  }

    rect.non_anc_exon {
              stroke: black; stroke-width:3; stroke-dasharray: 5,5;
                    }

    text {
              font-size: 18px;
              font-family: Courier New;
          }
                    ]]>
</style>

<defs>
    <text x="150" y="40" id="globalVariable">none</text>
</defs>

  <rect class="anc_exon" x="0" y="35.0" width="0" height="30" style="fill:#87bcbc;fill-opacity:1.00" />
  <rect class="anc_exon" x="0" y="35.0" width="44.800000000000004" height="30" style="fill:#87bcbc;fill-opacity:1.00" />
  <polygon points="27.200000000000003,35.0 29.700000000000003,25.0 24.700000000000003,25.0" style="fill:#121212; stroke-opacity:1; fill-opacity:1"/>
  <text style="" text-anchor="middle">
<tspan x="27.200000000000003" y="16.0" style="font-size:18px;fill:#121212;" >+2</tspan>  </text>
  <line x1="44.800000000000004" y1="50.0" x2="63.800000000000004" y2="50.0" style="stroke:#999; stroke-width:3;" />
  <line x1="63.800000000000004" y1="50.0" x2="63.800000000000004" y2="50.0" style="stroke:#999; stroke-width:3;" />
  <line x1="63.800000000000004" y1="50.0" x2="63.800000000000004" y2="50.0" style="stroke:#999; stroke-width:3;" />
  <line x1="63.800000000000004" y1="50.0" x2="84.0" y2="50.0" style="stroke:#999; stroke-width:3;" />
  <rect class="anc_exon" x="84" y="35.0" width="104" height="30" style="fill:#87bcbc;fill-opacity:1.00" />
  <line x1="188" y1="50.0" x2="208" y2="50.0" style="stroke:#999; stroke-width:3;" />
  <line x1="208" y1="50.0" x2="208" y2="50.0" style="stroke:#999; stroke-width:3;" />
  <line x1="208" y1="50.0" x2="208" y2="50.0" style="stroke:#999; stroke-width:3;" />
  <line x1="208" y1="50.0" x2="228" y2="50.0" style="stroke:#999; stroke-width:3;" />
  <rect class="anc_exon" x="228" y="35.0" width="97" height="30" style="fill:#87bcbc;fill-opacity:1.00" />
  <line x1="325" y1="50.0" x2="345" y2="50.0" style="stroke:#999; stroke-width:3;" />
  <line x1="345" y1="50.0" x2="345" y2="50.0" style="stroke:#999; stroke-width:3;" />
  <line x1="345" y1="50.0" x2="345" y2="50.0" style="stroke:#999; stroke-width:3;" />
  <line x1="345" y1="50.0" x2="365" y2="50.0" style="stroke:#999; stroke-width:3;" />
  <rect class="anc_exon" x="365" y="35.0" width="62" height="30" style="fill:#87bcbc;fill-opacity:1.00" />
  <line x1="427" y1="50.0" x2="447" y2="50.0" style="stroke:#999; stroke-width:3;" />
  <line x1="447" y1="50.0" x2="447" y2="50.0" style="stroke:#999; stroke-width:3;" />
  <line x1="447" y1="50.0" x2="447" y2="50.0" style="stroke:#999; stroke-width:3;" />
  <line x1="447" y1="50.0" x2="467" y2="50.0" style="stroke:#999; stroke-width:3;" />
  <rect class="anc_exon" x="467" y="35.0" width="117" height="30" style="fill:#87bcbc;fill-opacity:1.00" />
  <line x1="584" y1="50.0" x2="604" y2="50.0" style="stroke:#999; stroke-width:3;" />
  <line x1="604" y1="50.0" x2="604" y2="50.0" style="stroke:#999; stroke-width:3;" />
  <line x1="604" y1="50.0" x2="604" y2="50.0" style="stroke:#999; stroke-width:3;" />
  <line x1="604" y1="50.0" x2="624" y2="50.0" style="stroke:#999; stroke-width:3;" />
  <rect class="anc_exon" x="624" y="35.0" width="91" height="30" style="fill:#87bcbc;fill-opacity:1.00" />
  <line x1="715" y1="50.0" x2="755" y2="50.0" style="stroke:#999; stroke-width:3;" />
  <rect class="anc_exon" x="755" y="35.0" width="96" height="30" style="fill:#87bcbc;fill-opacity:1.00" />
  <line x1="851" y1="50.0" x2="891" y2="50.0" style="stroke:#999; stroke-width:3;" />
  <rect class="anc_exon" x="891" y="35.0" width="64" height="30" style="fill:#87bcbc;fill-opacity:1.00" />
  <rect class="anc_exon" x="955" y="35.0" width="0" height="30" style="fill:#87bcbc;fill-opacity:1.00" />
  <text style="" >
<tspan x="0" y="83.0" style="font-size:18px;" >SP XM_012543329_3.1</tspan>  </text>



<script type="text/ecmascript">
<![CDATA[
function draw_bbox(text_id)
{
    var text_elem = document.getElementById(text_id);
    var offset_px = 2;
    var offset_py = 0;
    bbox = text_elem.getBBox();
    var box = document.createElementNS(document.rootElement.namespaceURI,'rect');
    box.setAttribute('x', bbox.x - offset_px);
    box.setAttribute('y', bbox.y - offset_py);
    box.setAttribute('width', bbox.width + offset_px * 2);
    box.setAttribute('height', bbox.height + offset_py * 2);
    box.setAttribute('style','fill: white;'+'stroke: black;'+'stroke-width: 1px;');
    text_elem.insertBefore(box,text_elem.childNodes[0]);

    var svg = text_elem.parentNode;
    svg.appendChild(text_elem);
}

for (var i=1; i < 1; i++)
{
draw_bbox("Mouseover" + i);
}
]]> 
</script>
</svg>
