<svg version="1.1"
xmlns="http://www.w3.org/2000/svg"
xmlns:xlink="http://www.w3.org/1999/xlink"
width="7359" height="100" viewBox = "0 0 7359 100"
onclick="mouseclick(evt)">

<script type="text/ecmascript">

<![CDATA[
    function mouseover(evt, target) { 
    var gv = document.getElementById("globalVariable");
    var previoustarget = gv.firstChild.nodeValue;
    if (previoustarget != "none") 
    {
        	document.getElementById(gv.firstChild.nodeValue).setAttributeNS(null, "visibility", "hidden");
    }
    document.getElementById(target).setAttributeNS(null, "visibility", "visible");
    gv.firstChild.nodeValue = target;
        }

    function mouseclick(evt) { 
    var gv = document.getElementById("globalVariable");
    var previoustarget = gv.firstChild.nodeValue;
    if (previoustarget != "none") {
        	document.getElementById(gv.firstChild.nodeValue).setAttributeNS(null, "visibility", "hidden");
        }
    }
]]>
  </script>
<style type="text/css" >

<![CDATA[
    rect.anc_exon {
              stroke-width:3;
                  }

    rect.non_anc_exon {
              stroke: black; stroke-width:3; stroke-dasharray: 5,5;
                    }

    text {
              font-size: 18px;
              font-family: Courier New;
          }
                    ]]>
</style>

<defs>
    <text x="150" y="40" id="globalVariable">none</text>
</defs>

  <rect class="anc_exon" x="0" y="35.0" width="0" height="30" style="fill:#87bcbc;fill-opacity:1.00" />
  <rect class="anc_exon" x="0" y="35.0" width="52.800000000000004" height="30" style="fill:#87bcbc;fill-opacity:1.00" />
  <line x1="52.800000000000004" y1="50.0" x2="71.80000000000001" y2="50.0" style="stroke:#999; stroke-width:3;" />
  <line x1="71.80000000000001" y1="50.0" x2="71.80000000000001" y2="50.0" style="stroke:#999; stroke-width:3;" />
  <line x1="71.80000000000001" y1="50.0" x2="71.80000000000001" y2="50.0" style="stroke:#999; stroke-width:3;" />
  <line x1="71.80000000000001" y1="50.0" x2="92.0" y2="50.0" style="stroke:#999; stroke-width:3;" />
  <rect class="anc_exon" x="92" y="35.0" width="75" height="30" style="fill:#87bcbc;fill-opacity:1.00" />
  <line x1="167" y1="50.0" x2="187" y2="50.0" style="stroke:#999; stroke-width:3;" />
  <line x1="187" y1="50.0" x2="187" y2="50.0" style="stroke:#999; stroke-width:3;" />
  <line x1="187" y1="50.0" x2="187" y2="50.0" style="stroke:#999; stroke-width:3;" />
  <line x1="187" y1="50.0" x2="207" y2="50.0" style="stroke:#999; stroke-width:3;" />
  <rect class="anc_exon" x="207" y="35.0" width="113" height="30" style="fill:#87bcbc;fill-opacity:1.00" />
  <line x1="320" y1="50.0" x2="360" y2="50.0" style="stroke:#999; stroke-width:3;" />
  <rect class="anc_exon" x="360" y="35.0" width="95" height="30" style="fill:#87bcbc;fill-opacity:1.00" />
  <line x1="455" y1="50.0" x2="475" y2="50.0" style="stroke:#999; stroke-width:3;" />
  <line x1="475" y1="50.0" x2="475" y2="50.0" style="stroke:#999; stroke-width:3;" />
  <line x1="475" y1="50.0" x2="475" y2="50.0" style="stroke:#999; stroke-width:3;" />
  <line x1="475" y1="50.0" x2="495" y2="50.0" style="stroke:#999; stroke-width:3;" />
  <rect class="anc_exon" x="495" y="35.0" width="97" height="30" style="fill:#87bcbc;fill-opacity:1.00" />
  <line x1="592" y1="50.0" x2="612" y2="50.0" style="stroke:#999; stroke-width:3;" />
  <line x1="612" y1="50.0" x2="612" y2="50.0" style="stroke:#999; stroke-width:3;" />
  <line x1="612" y1="50.0" x2="612" y2="50.0" style="stroke:#999; stroke-width:3;" />
  <line x1="612" y1="50.0" x2="632" y2="50.0" style="stroke:#999; stroke-width:3;" />
  <rect class="anc_exon" x="632" y="35.0" width="136" height="30" style="fill:#87bcbc;fill-opacity:1.00" />
  <line x1="768" y1="50.0" x2="788" y2="50.0" style="stroke:#999; stroke-width:3;" />
  <line x1="788" y1="50.0" x2="788" y2="50.0" style="stroke:#999; stroke-width:3;" />
  <line x1="788" y1="50.0" x2="788" y2="50.0" style="stroke:#999; stroke-width:3;" />
  <line x1="788" y1="50.0" x2="808" y2="50.0" style="stroke:#999; stroke-width:3;" />
  <rect class="anc_exon" x="808" y="35.0" width="74" height="30" style="fill:#87bcbc;fill-opacity:1.00" />
  <line x1="882" y1="50.0" x2="902" y2="50.0" style="stroke:#999; stroke-width:3;" />
  <line x1="902" y1="50.0" x2="902" y2="50.0" style="stroke:#999; stroke-width:3;" />
  <line x1="902" y1="50.0" x2="902" y2="50.0" style="stroke:#999; stroke-width:3;" />
  <line x1="902" y1="50.0" x2="922" y2="50.0" style="stroke:#999; stroke-width:3;" />
  <rect class="anc_exon" x="922" y="35.0" width="192" height="30" style="fill:#87bcbc;fill-opacity:1.00" />
  <line x1="1114" y1="50.0" x2="1154" y2="50.0" style="stroke:#999; stroke-width:3;" />
  <rect class="anc_exon" x="1154" y="35.0" width="112" height="30" style="fill:#87bcbc;fill-opacity:1.00" />
  <line x1="1266" y1="50.0" x2="1286" y2="50.0" style="stroke:#999; stroke-width:3;" />
  <line x1="1286" y1="50.0" x2="1286" y2="50.0" style="stroke:#999; stroke-width:3;" />
  <line x1="1286" y1="50.0" x2="1286" y2="50.0" style="stroke:#999; stroke-width:3;" />
  <line x1="1286" y1="50.0" x2="1306" y2="50.0" style="stroke:#999; stroke-width:3;" />
  <rect class="anc_exon" x="1306" y="35.0" width="93" height="30" style="fill:#87bcbc;fill-opacity:1.00" />
  <line x1="1399" y1="50.0" x2="1419" y2="50.0" style="stroke:#999; stroke-width:3;" />
  <line x1="1419" y1="50.0" x2="1419" y2="50.0" style="stroke:#999; stroke-width:3;" />
  <line x1="1419" y1="50.0" x2="1419" y2="50.0" style="stroke:#999; stroke-width:3;" />
  <line x1="1419" y1="50.0" x2="1439" y2="50.0" style="stroke:#999; stroke-width:3;" />
  <rect class="anc_exon" x="1439" y="35.0" width="158" height="30" style="fill:#87bcbc;fill-opacity:1.00" />
  <line x1="1597" y1="50.0" x2="1637" y2="50.0" style="stroke:#999; stroke-width:3;" />
  <rect class="anc_exon" x="1637" y="35.0" width="164" height="30" style="fill:#87bcbc;fill-opacity:1.00" />
  <line x1="1801" y1="50.0" x2="1841" y2="50.0" style="stroke:#999; stroke-width:3;" />
  <rect class="anc_exon" x="1841" y="35.0" width="141" height="30" style="fill:#87bcbc;fill-opacity:1.00" />
  <line x1="1982" y1="50.0" x2="2002" y2="50.0" style="stroke:#999; stroke-width:3;" />
  <line x1="2002" y1="50.0" x2="2002" y2="50.0" style="stroke:#999; stroke-width:3;" />
  <line x1="2002" y1="50.0" x2="2002" y2="50.0" style="stroke:#999; stroke-width:3;" />
  <line x1="2002" y1="50.0" x2="2022" y2="50.0" style="stroke:#999; stroke-width:3;" />
  <rect class="anc_exon" x="2022" y="35.0" width="178" height="30" style="fill:#87bcbc;fill-opacity:1.00" />
  <line x1="2200" y1="50.0" x2="2240" y2="50.0" style="stroke:#999; stroke-width:3;" />
  <rect class="anc_exon" x="2240" y="35.0" width="177" height="30" style="fill:#87bcbc;fill-opacity:1.00" />
  <line x1="2417" y1="50.0" x2="2457" y2="50.0" style="stroke:#999; stroke-width:3;" />
  <rect class="anc_exon" x="2457" y="35.0" width="164" height="30" style="fill:#87bcbc;fill-opacity:1.00" />
  <line x1="2621" y1="50.0" x2="2641" y2="50.0" style="stroke:#999; stroke-width:3;" />
  <line x1="2641" y1="50.0" x2="2641" y2="50.0" style="stroke:#999; stroke-width:3;" />
  <line x1="2641" y1="50.0" x2="2641" y2="50.0" style="stroke:#999; stroke-width:3;" />
  <line x1="2641" y1="50.0" x2="2661" y2="50.0" style="stroke:#999; stroke-width:3;" />
  <rect class="anc_exon" x="2661" y="35.0" width="91" height="30" style="fill:#87bcbc;fill-opacity:1.00" />
  <line x1="2752" y1="50.0" x2="2792" y2="50.0" style="stroke:#999; stroke-width:3;" />
  <rect class="anc_exon" x="2792" y="35.0" width="137" height="30" style="fill:#87bcbc;fill-opacity:1.00" />
  <line x1="2929" y1="50.0" x2="2969" y2="50.0" style="stroke:#999; stroke-width:3;" />
  <rect class="anc_exon" x="2969" y="35.0" width="105" height="30" style="fill:#87bcbc;fill-opacity:1.00" />
  <line x1="3074" y1="50.0" x2="3114" y2="50.0" style="stroke:#999; stroke-width:3;" />
  <rect class="anc_exon" x="3114" y="35.0" width="112" height="30" style="fill:#87bcbc;fill-opacity:1.00" />
  <line x1="3226" y1="50.0" x2="3266" y2="50.0" style="stroke:#999; stroke-width:3;" />
  <rect class="anc_exon" x="3266" y="35.0" width="110" height="30" style="fill:#87bcbc;fill-opacity:1.00" />
  <line x1="3376" y1="50.0" x2="3416" y2="50.0" style="stroke:#999; stroke-width:3;" />
  <rect class="anc_exon" x="3416" y="35.0" width="176" height="30" style="fill:#87bcbc;fill-opacity:1.00" />
  <line x1="3592" y1="50.0" x2="3632" y2="50.0" style="stroke:#999; stroke-width:3;" />
  <rect class="anc_exon" x="3632" y="35.0" width="58" height="30" style="fill:#87bcbc;fill-opacity:1.00" />
  <line x1="3690" y1="50.0" x2="3730" y2="50.0" style="stroke:#999; stroke-width:3;" />
  <rect class="anc_exon" x="3730" y="35.0" width="162" height="30" style="fill:#87bcbc;fill-opacity:1.00" />
  <line x1="3892" y1="50.0" x2="3932" y2="50.0" style="stroke:#999; stroke-width:3;" />
  <rect class="anc_exon" x="3932" y="35.0" width="39" height="30" style="fill:#87bcbc;fill-opacity:1.00" />
  <line x1="3971" y1="50.0" x2="4011" y2="50.0" style="stroke:#999; stroke-width:3;" />
  <rect class="anc_exon" x="4011" y="35.0" width="91" height="30" style="fill:#87bcbc;fill-opacity:1.00" />
  <line x1="4102" y1="50.0" x2="4142" y2="50.0" style="stroke:#999; stroke-width:3;" />
  <rect class="anc_exon" x="4142" y="35.0" width="119" height="30" style="fill:#87bcbc;fill-opacity:1.00" />
  <line x1="4261" y1="50.0" x2="4301" y2="50.0" style="stroke:#999; stroke-width:3;" />
  <rect class="anc_exon" x="4301" y="35.0" width="100" height="30" style="fill:#87bcbc;fill-opacity:1.00" />
  <line x1="4401" y1="50.0" x2="4441" y2="50.0" style="stroke:#999; stroke-width:3;" />
  <rect class="anc_exon" x="4441" y="35.0" width="79" height="30" style="fill:#87bcbc;fill-opacity:1.00" />
  <line x1="4520" y1="50.0" x2="4560" y2="50.0" style="stroke:#999; stroke-width:3;" />
  <rect class="anc_exon" x="4560" y="35.0" width="152" height="30" style="fill:#87bcbc;fill-opacity:1.00" />
  <line x1="4712" y1="50.0" x2="4752" y2="50.0" style="stroke:#999; stroke-width:3;" />
  <rect class="anc_exon" x="4752" y="35.0" width="76" height="30" style="fill:#87bcbc;fill-opacity:1.00" />
  <line x1="4828" y1="50.0" x2="4868" y2="50.0" style="stroke:#999; stroke-width:3;" />
  <rect class="anc_exon" x="4868" y="35.0" width="26" height="30" style="fill:#87bcbc;fill-opacity:1.00" />
  <line x1="4894" y1="50.0" x2="4934" y2="50.0" style="stroke:#999; stroke-width:3;" />
  <rect class="anc_exon" x="4934" y="35.0" width="84" height="30" style="fill:#87bcbc;fill-opacity:1.00" />
  <line x1="5018" y1="50.0" x2="5058" y2="50.0" style="stroke:#999; stroke-width:3;" />
  <rect class="anc_exon" x="5058" y="35.0" width="60" height="30" style="fill:#87bcbc;fill-opacity:1.00" />
  <line x1="5118" y1="50.0" x2="5158" y2="50.0" style="stroke:#999; stroke-width:3;" />
  <rect class="anc_exon" x="5158" y="35.0" width="136" height="30" style="fill:#87bcbc;fill-opacity:1.00" />
  <line x1="5294" y1="50.0" x2="5334" y2="50.0" style="stroke:#999; stroke-width:3;" />
  <rect class="anc_exon" x="5334" y="35.0" width="142" height="30" style="fill:#87bcbc;fill-opacity:1.00" />
  <line x1="5476" y1="50.0" x2="5516" y2="50.0" style="stroke:#999; stroke-width:3;" />
  <rect class="anc_exon" x="5516" y="35.0" width="92" height="30" style="fill:#87bcbc;fill-opacity:1.00" />
  <line x1="5608" y1="50.0" x2="5648" y2="50.0" style="stroke:#999; stroke-width:3;" />
  <rect class="anc_exon" x="5648" y="35.0" width="116" height="30" style="fill:#87bcbc;fill-opacity:1.00" />
  <line x1="5764" y1="50.0" x2="5804" y2="50.0" style="stroke:#999; stroke-width:3;" />
  <rect class="anc_exon" x="5804" y="35.0" width="99" height="30" style="fill:#87bcbc;fill-opacity:1.00" />
  <line x1="5903" y1="50.0" x2="5923" y2="50.0" style="stroke:#999; stroke-width:3;" />
  <line x1="5923" y1="50.0" x2="5923" y2="50.0" style="stroke:#999; stroke-width:3;" />
  <line x1="5923" y1="50.0" x2="5923" y2="50.0" style="stroke:#999; stroke-width:3;" />
  <line x1="5923" y1="50.0" x2="5943" y2="50.0" style="stroke:#999; stroke-width:3;" />
  <rect class="anc_exon" x="5943" y="35.0" width="104" height="30" style="fill:#87bcbc;fill-opacity:1.00" />
  <line x1="6047" y1="50.0" x2="6087" y2="50.0" style="stroke:#999; stroke-width:3;" />
  <rect class="anc_exon" x="6087" y="35.0" width="96" height="30" style="fill:#87bcbc;fill-opacity:1.00" />
  <line x1="6183" y1="50.0" x2="6223" y2="50.0" style="stroke:#999; stroke-width:3;" />
  <rect class="anc_exon" x="6223" y="35.0" width="50" height="30" style="fill:#87bcbc;fill-opacity:1.00" />
  <line x1="6273" y1="50.0" x2="6313" y2="50.0" style="stroke:#999; stroke-width:3;" />
  <rect class="anc_exon" x="6313" y="35.0" width="85" height="30" style="fill:#87bcbc;fill-opacity:1.00" />
  <line x1="6398" y1="50.0" x2="6438" y2="50.0" style="stroke:#999; stroke-width:3;" />
  <rect class="anc_exon" x="6438" y="35.0" width="113" height="30" style="fill:#87bcbc;fill-opacity:1.00" />
  <line x1="6551" y1="50.0" x2="6591" y2="50.0" style="stroke:#999; stroke-width:3;" />
  <rect class="anc_exon" x="6591" y="35.0" width="108" height="30" style="fill:#87bcbc;fill-opacity:1.00" />
  <line x1="6699" y1="50.0" x2="6739" y2="50.0" style="stroke:#999; stroke-width:3;" />
  <rect class="anc_exon" x="6739" y="35.0" width="83" height="30" style="fill:#87bcbc;fill-opacity:1.00" />
  <line x1="6822" y1="50.0" x2="6862" y2="50.0" style="stroke:#999; stroke-width:3;" />
  <rect class="anc_exon" x="6862" y="35.0" width="74" height="30" style="fill:#87bcbc;fill-opacity:1.00" />
  <line x1="6936" y1="50.0" x2="6976" y2="50.0" style="stroke:#999; stroke-width:3;" />
  <rect class="anc_exon" x="6976" y="35.0" width="195" height="30" style="fill:#87bcbc;fill-opacity:1.00" />
  <line x1="7171" y1="50.0" x2="7211" y2="50.0" style="stroke:#999; stroke-width:3;" />
  <rect class="anc_exon" x="7211" y="35.0" width="112" height="30" style="fill:#87bcbc;fill-opacity:1.00" />
  <rect class="anc_exon" x="7323" y="35.0" width="0" height="30" style="fill:#87bcbc;fill-opacity:1.00" />
  <text style="" >
<tspan x="0" y="83.0" style="font-size:18px;" >SP XM_031945565_1.1</tspan>  </text>



<script type="text/ecmascript">
<![CDATA[
function draw_bbox(text_id)
{
    var text_elem = document.getElementById(text_id);
    var offset_px = 2;
    var offset_py = 0;
    bbox = text_elem.getBBox();
    var box = document.createElementNS(document.rootElement.namespaceURI,'rect');
    box.setAttribute('x', bbox.x - offset_px);
    box.setAttribute('y', bbox.y - offset_py);
    box.setAttribute('width', bbox.width + offset_px * 2);
    box.setAttribute('height', bbox.height + offset_py * 2);
    box.setAttribute('style','fill: white;'+'stroke: black;'+'stroke-width: 1px;');
    text_elem.insertBefore(box,text_elem.childNodes[0]);

    var svg = text_elem.parentNode;
    svg.appendChild(text_elem);
}

for (var i=1; i < 1; i++)
{
draw_bbox("Mouseover" + i);
}
]]> 
</script>
</svg>
