<svg version="1.1"
xmlns="http://www.w3.org/2000/svg"
xmlns:xlink="http://www.w3.org/1999/xlink"
width="6032" height="100" viewBox = "0 0 6032 100"
onclick="mouseclick(evt)">

<script type="text/ecmascript">

<![CDATA[
    function mouseover(evt, target) { 
    var gv = document.getElementById("globalVariable");
    var previoustarget = gv.firstChild.nodeValue;
    if (previoustarget != "none") 
    {
        	document.getElementById(gv.firstChild.nodeValue).setAttributeNS(null, "visibility", "hidden");
    }
    document.getElementById(target).setAttributeNS(null, "visibility", "visible");
    gv.firstChild.nodeValue = target;
        }

    function mouseclick(evt) { 
    var gv = document.getElementById("globalVariable");
    var previoustarget = gv.firstChild.nodeValue;
    if (previoustarget != "none") {
        	document.getElementById(gv.firstChild.nodeValue).setAttributeNS(null, "visibility", "hidden");
        }
    }
]]>
  </script>
<style type="text/css" >

<![CDATA[
    rect.anc_exon {
              stroke-width:3;
                  }

    rect.non_anc_exon {
              stroke: black; stroke-width:3; stroke-dasharray: 5,5;
                    }

    text {
              font-size: 18px;
              font-family: Courier New;
          }
                    ]]>
</style>

<defs>
    <text x="150" y="40" id="globalVariable">none</text>
</defs>

  <rect class="anc_exon" x="0" y="35.0" width="0" height="30" style="fill:#87bcbc;fill-opacity:1.00" />
  <rect class="anc_exon" x="0" y="35.0" width="45.6" height="30" style="fill:#87bcbc;fill-opacity:1.00" />
  <line x1="45.6" y1="50.0" x2="64.6" y2="50.0" style="stroke:#999; stroke-width:3;" />
  <line x1="64.6" y1="50.0" x2="64.6" y2="50.0" style="stroke:#999; stroke-width:3;" />
  <line x1="64.6" y1="50.0" x2="64.6" y2="50.0" style="stroke:#999; stroke-width:3;" />
  <line x1="64.6" y1="50.0" x2="85.0" y2="50.0" style="stroke:#999; stroke-width:3;" />
  <rect class="anc_exon" x="85" y="35.0" width="60" height="30" style="fill:#87bcbc;fill-opacity:1.00" />
  <line x1="145" y1="50.0" x2="165" y2="50.0" style="stroke:#999; stroke-width:3;" />
  <line x1="165" y1="50.0" x2="165" y2="50.0" style="stroke:#999; stroke-width:3;" />
  <line x1="165" y1="50.0" x2="165" y2="50.0" style="stroke:#999; stroke-width:3;" />
  <line x1="165" y1="50.0" x2="185" y2="50.0" style="stroke:#999; stroke-width:3;" />
  <rect class="anc_exon" x="185" y="35.0" width="124" height="30" style="fill:#87bcbc;fill-opacity:1.00" />
  <line x1="309" y1="50.0" x2="329" y2="50.0" style="stroke:#999; stroke-width:3;" />
  <line x1="329" y1="50.0" x2="329" y2="50.0" style="stroke:#999; stroke-width:3;" />
  <line x1="329" y1="50.0" x2="329" y2="50.0" style="stroke:#999; stroke-width:3;" />
  <line x1="329" y1="50.0" x2="349" y2="50.0" style="stroke:#999; stroke-width:3;" />
  <rect class="anc_exon" x="349" y="35.0" width="84" height="30" style="fill:#87bcbc;fill-opacity:1.00" />
  <line x1="433" y1="50.0" x2="453" y2="50.0" style="stroke:#999; stroke-width:3;" />
  <line x1="453" y1="50.0" x2="453" y2="50.0" style="stroke:#999; stroke-width:3;" />
  <line x1="453" y1="50.0" x2="453" y2="50.0" style="stroke:#999; stroke-width:3;" />
  <line x1="453" y1="50.0" x2="473" y2="50.0" style="stroke:#999; stroke-width:3;" />
  <rect class="anc_exon" x="473" y="35.0" width="81" height="30" style="fill:#87bcbc;fill-opacity:1.00" />
  <line x1="554" y1="50.0" x2="574" y2="50.0" style="stroke:#999; stroke-width:3;" />
  <line x1="574" y1="50.0" x2="574" y2="50.0" style="stroke:#999; stroke-width:3;" />
  <line x1="574" y1="50.0" x2="574" y2="50.0" style="stroke:#999; stroke-width:3;" />
  <line x1="574" y1="50.0" x2="594" y2="50.0" style="stroke:#999; stroke-width:3;" />
  <rect class="anc_exon" x="594" y="35.0" width="164" height="30" style="fill:#87bcbc;fill-opacity:1.00" />
  <line x1="758" y1="50.0" x2="778" y2="50.0" style="stroke:#999; stroke-width:3;" />
  <line x1="778" y1="50.0" x2="778" y2="50.0" style="stroke:#999; stroke-width:3;" />
  <line x1="778" y1="50.0" x2="778" y2="50.0" style="stroke:#999; stroke-width:3;" />
  <line x1="778" y1="50.0" x2="798" y2="50.0" style="stroke:#999; stroke-width:3;" />
  <rect class="anc_exon" x="798" y="35.0" width="165" height="30" style="fill:#87bcbc;fill-opacity:1.00" />
  <line x1="963" y1="50.0" x2="983" y2="50.0" style="stroke:#999; stroke-width:3;" />
  <line x1="983" y1="50.0" x2="983" y2="50.0" style="stroke:#999; stroke-width:3;" />
  <line x1="983" y1="50.0" x2="983" y2="50.0" style="stroke:#999; stroke-width:3;" />
  <line x1="983" y1="50.0" x2="1003" y2="50.0" style="stroke:#999; stroke-width:3;" />
  <rect class="anc_exon" x="1003" y="35.0" width="70" height="30" style="fill:#87bcbc;fill-opacity:1.00" />
  <line x1="1073" y1="50.0" x2="1093" y2="50.0" style="stroke:#999; stroke-width:3;" />
  <line x1="1093" y1="50.0" x2="1093" y2="50.0" style="stroke:#999; stroke-width:3;" />
  <line x1="1093" y1="50.0" x2="1093" y2="50.0" style="stroke:#999; stroke-width:3;" />
  <line x1="1093" y1="50.0" x2="1113" y2="50.0" style="stroke:#999; stroke-width:3;" />
  <rect class="anc_exon" x="1113" y="35.0" width="162" height="30" style="fill:#87bcbc;fill-opacity:1.00" />
  <line x1="1275" y1="50.0" x2="1295" y2="50.0" style="stroke:#999; stroke-width:3;" />
  <line x1="1295" y1="50.0" x2="1295" y2="50.0" style="stroke:#999; stroke-width:3;" />
  <line x1="1295" y1="50.0" x2="1295" y2="50.0" style="stroke:#999; stroke-width:3;" />
  <line x1="1295" y1="50.0" x2="1315" y2="50.0" style="stroke:#999; stroke-width:3;" />
  <rect class="anc_exon" x="1315" y="35.0" width="208" height="30" style="fill:#87bcbc;fill-opacity:1.00" />
  <line x1="1523" y1="50.0" x2="1543" y2="50.0" style="stroke:#999; stroke-width:3;" />
  <line x1="1543" y1="50.0" x2="1543" y2="50.0" style="stroke:#999; stroke-width:3;" />
  <line x1="1543" y1="50.0" x2="1543" y2="50.0" style="stroke:#999; stroke-width:3;" />
  <line x1="1543" y1="50.0" x2="1563" y2="50.0" style="stroke:#999; stroke-width:3;" />
  <rect class="anc_exon" x="1563" y="35.0" width="84" height="30" style="fill:#87bcbc;fill-opacity:1.00" />
  <line x1="1647" y1="50.0" x2="1687" y2="50.0" style="stroke:#999; stroke-width:3;" />
  <rect class="anc_exon" x="1687" y="35.0" width="81" height="30" style="fill:#87bcbc;fill-opacity:1.00" />
  <line x1="1768" y1="50.0" x2="1788" y2="50.0" style="stroke:#999; stroke-width:3;" />
  <line x1="1788" y1="50.0" x2="1788" y2="50.0" style="stroke:#999; stroke-width:3;" />
  <line x1="1788" y1="50.0" x2="1788" y2="50.0" style="stroke:#999; stroke-width:3;" />
  <line x1="1788" y1="50.0" x2="1808" y2="50.0" style="stroke:#999; stroke-width:3;" />
  <rect class="anc_exon" x="1808" y="35.0" width="104" height="30" style="fill:#87bcbc;fill-opacity:1.00" />
  <line x1="1912" y1="50.0" x2="1932" y2="50.0" style="stroke:#999; stroke-width:3;" />
  <line x1="1932" y1="50.0" x2="1932" y2="50.0" style="stroke:#999; stroke-width:3;" />
  <line x1="1932" y1="50.0" x2="1932" y2="50.0" style="stroke:#999; stroke-width:3;" />
  <line x1="1932" y1="50.0" x2="1952" y2="50.0" style="stroke:#999; stroke-width:3;" />
  <rect class="anc_exon" x="1952" y="35.0" width="101" height="30" style="fill:#87bcbc;fill-opacity:1.00" />
  <line x1="2053" y1="50.0" x2="2073" y2="50.0" style="stroke:#999; stroke-width:3;" />
  <line x1="2073" y1="50.0" x2="2073" y2="50.0" style="stroke:#999; stroke-width:3;" />
  <line x1="2073" y1="50.0" x2="2073" y2="50.0" style="stroke:#999; stroke-width:3;" />
  <line x1="2073" y1="50.0" x2="2093" y2="50.0" style="stroke:#999; stroke-width:3;" />
  <rect class="anc_exon" x="2093" y="35.0" width="108" height="30" style="fill:#87bcbc;fill-opacity:1.00" />
  <line x1="2201" y1="50.0" x2="2221" y2="50.0" style="stroke:#999; stroke-width:3;" />
  <line x1="2221" y1="50.0" x2="2221" y2="50.0" style="stroke:#999; stroke-width:3;" />
  <line x1="2221" y1="50.0" x2="2221" y2="50.0" style="stroke:#999; stroke-width:3;" />
  <line x1="2221" y1="50.0" x2="2241" y2="50.0" style="stroke:#999; stroke-width:3;" />
  <rect class="anc_exon" x="2241" y="35.0" width="40" height="30" style="fill:#87bcbc;fill-opacity:1.00" />
  <line x1="2281" y1="50.0" x2="2321" y2="50.0" style="stroke:#999; stroke-width:3;" />
  <rect class="anc_exon" x="2321" y="35.0" width="67" height="30" style="fill:#87bcbc;fill-opacity:1.00" />
  <line x1="2388" y1="50.0" x2="2408" y2="50.0" style="stroke:#999; stroke-width:3;" />
  <line x1="2408" y1="50.0" x2="2408" y2="50.0" style="stroke:#999; stroke-width:3;" />
  <line x1="2408" y1="50.0" x2="2408" y2="50.0" style="stroke:#999; stroke-width:3;" />
  <line x1="2408" y1="50.0" x2="2428" y2="50.0" style="stroke:#999; stroke-width:3;" />
  <rect class="anc_exon" x="2428" y="35.0" width="104" height="30" style="fill:#87bcbc;fill-opacity:1.00" />
  <line x1="2532" y1="50.0" x2="2552" y2="50.0" style="stroke:#999; stroke-width:3;" />
  <line x1="2552" y1="50.0" x2="2552" y2="50.0" style="stroke:#999; stroke-width:3;" />
  <line x1="2552" y1="50.0" x2="2552" y2="50.0" style="stroke:#999; stroke-width:3;" />
  <line x1="2552" y1="50.0" x2="2572" y2="50.0" style="stroke:#999; stroke-width:3;" />
  <rect class="anc_exon" x="2572" y="35.0" width="151" height="30" style="fill:#87bcbc;fill-opacity:1.00" />
  <line x1="2723" y1="50.0" x2="2763" y2="50.0" style="stroke:#999; stroke-width:3;" />
  <rect class="anc_exon" x="2763" y="35.0" width="97" height="30" style="fill:#87bcbc;fill-opacity:1.00" />
  <line x1="2860" y1="50.0" x2="2880" y2="50.0" style="stroke:#999; stroke-width:3;" />
  <line x1="2880" y1="50.0" x2="2880" y2="50.0" style="stroke:#999; stroke-width:3;" />
  <line x1="2880" y1="50.0" x2="2880" y2="50.0" style="stroke:#999; stroke-width:3;" />
  <line x1="2880" y1="50.0" x2="2900" y2="50.0" style="stroke:#999; stroke-width:3;" />
  <rect class="anc_exon" x="2900" y="35.0" width="74" height="30" style="fill:#87bcbc;fill-opacity:1.00" />
  <line x1="2974" y1="50.0" x2="2994" y2="50.0" style="stroke:#999; stroke-width:3;" />
  <line x1="2994" y1="50.0" x2="2994" y2="50.0" style="stroke:#999; stroke-width:3;" />
  <line x1="2994" y1="50.0" x2="2994" y2="50.0" style="stroke:#999; stroke-width:3;" />
  <line x1="2994" y1="50.0" x2="3014" y2="50.0" style="stroke:#999; stroke-width:3;" />
  <rect class="anc_exon" x="3014" y="35.0" width="71" height="30" style="fill:#87bcbc;fill-opacity:1.00" />
  <line x1="3085" y1="50.0" x2="3105" y2="50.0" style="stroke:#999; stroke-width:3;" />
  <line x1="3105" y1="50.0" x2="3105" y2="50.0" style="stroke:#999; stroke-width:3;" />
  <line x1="3105" y1="50.0" x2="3105" y2="50.0" style="stroke:#999; stroke-width:3;" />
  <line x1="3105" y1="50.0" x2="3125" y2="50.0" style="stroke:#999; stroke-width:3;" />
  <rect class="anc_exon" x="3125" y="35.0" width="36" height="30" style="fill:#87bcbc;fill-opacity:1.00" />
  <line x1="3161" y1="50.0" x2="3181" y2="50.0" style="stroke:#999; stroke-width:3;" />
  <line x1="3181" y1="50.0" x2="3181" y2="50.0" style="stroke:#999; stroke-width:3;" />
  <line x1="3181" y1="50.0" x2="3181" y2="50.0" style="stroke:#999; stroke-width:3;" />
  <line x1="3181" y1="50.0" x2="3201" y2="50.0" style="stroke:#999; stroke-width:3;" />
  <rect class="anc_exon" x="3201" y="35.0" width="87" height="30" style="fill:#87bcbc;fill-opacity:1.00" />
  <line x1="3288" y1="50.0" x2="3328" y2="50.0" style="stroke:#999; stroke-width:3;" />
  <rect class="anc_exon" x="3328" y="35.0" width="93" height="30" style="fill:#87bcbc;fill-opacity:1.00" />
  <line x1="3421" y1="50.0" x2="3441" y2="50.0" style="stroke:#999; stroke-width:3;" />
  <line x1="3441" y1="50.0" x2="3441" y2="50.0" style="stroke:#999; stroke-width:3;" />
  <line x1="3441" y1="50.0" x2="3441" y2="50.0" style="stroke:#999; stroke-width:3;" />
  <line x1="3441" y1="50.0" x2="3461" y2="50.0" style="stroke:#999; stroke-width:3;" />
  <rect class="anc_exon" x="3461" y="35.0" width="191" height="30" style="fill:#87bcbc;fill-opacity:1.00" />
  <line x1="3652" y1="50.0" x2="3672" y2="50.0" style="stroke:#999; stroke-width:3;" />
  <line x1="3672" y1="50.0" x2="3672" y2="50.0" style="stroke:#999; stroke-width:3;" />
  <line x1="3672" y1="50.0" x2="3672" y2="50.0" style="stroke:#999; stroke-width:3;" />
  <line x1="3672" y1="50.0" x2="3692" y2="50.0" style="stroke:#999; stroke-width:3;" />
  <rect class="anc_exon" x="3692" y="35.0" width="72" height="30" style="fill:#87bcbc;fill-opacity:1.00" />
  <line x1="3764" y1="50.0" x2="3784" y2="50.0" style="stroke:#999; stroke-width:3;" />
  <line x1="3784" y1="50.0" x2="3784" y2="50.0" style="stroke:#999; stroke-width:3;" />
  <line x1="3784" y1="50.0" x2="3784" y2="50.0" style="stroke:#999; stroke-width:3;" />
  <line x1="3784" y1="50.0" x2="3804" y2="50.0" style="stroke:#999; stroke-width:3;" />
  <rect class="anc_exon" x="3804" y="35.0" width="118" height="30" style="fill:#87bcbc;fill-opacity:1.00" />
  <line x1="3922" y1="50.0" x2="3942" y2="50.0" style="stroke:#999; stroke-width:3;" />
  <line x1="3942" y1="50.0" x2="3942" y2="50.0" style="stroke:#999; stroke-width:3;" />
  <line x1="3942" y1="50.0" x2="3942" y2="50.0" style="stroke:#999; stroke-width:3;" />
  <line x1="3942" y1="50.0" x2="3962" y2="50.0" style="stroke:#999; stroke-width:3;" />
  <rect class="anc_exon" x="3962" y="35.0" width="96" height="30" style="fill:#87bcbc;fill-opacity:1.00" />
  <line x1="4058" y1="50.0" x2="4078" y2="50.0" style="stroke:#999; stroke-width:3;" />
  <line x1="4078" y1="50.0" x2="4078" y2="50.0" style="stroke:#999; stroke-width:3;" />
  <line x1="4078" y1="50.0" x2="4078" y2="50.0" style="stroke:#999; stroke-width:3;" />
  <line x1="4078" y1="50.0" x2="4098" y2="50.0" style="stroke:#999; stroke-width:3;" />
  <rect class="anc_exon" x="4098" y="35.0" width="98" height="30" style="fill:#87bcbc;fill-opacity:1.00" />
  <line x1="4196" y1="50.0" x2="4236" y2="50.0" style="stroke:#999; stroke-width:3;" />
  <rect class="anc_exon" x="4236" y="35.0" width="62" height="30" style="fill:#87bcbc;fill-opacity:1.00" />
  <line x1="4298" y1="50.0" x2="4338" y2="50.0" style="stroke:#999; stroke-width:3;" />
  <rect class="anc_exon" x="4338" y="35.0" width="57" height="30" style="fill:#87bcbc;fill-opacity:1.00" />
  <line x1="4395" y1="50.0" x2="4435" y2="50.0" style="stroke:#999; stroke-width:3;" />
  <rect class="anc_exon" x="4435" y="35.0" width="82" height="30" style="fill:#87bcbc;fill-opacity:1.00" />
  <line x1="4517" y1="50.0" x2="4557" y2="50.0" style="stroke:#999; stroke-width:3;" />
  <rect class="anc_exon" x="4557" y="35.0" width="64" height="30" style="fill:#87bcbc;fill-opacity:1.00" />
  <line x1="4621" y1="50.0" x2="4641" y2="50.0" style="stroke:#999; stroke-width:3;" />
  <line x1="4641" y1="50.0" x2="4641" y2="50.0" style="stroke:#999; stroke-width:3;" />
  <line x1="4641" y1="50.0" x2="4641" y2="50.0" style="stroke:#999; stroke-width:3;" />
  <line x1="4641" y1="50.0" x2="4661" y2="50.0" style="stroke:#999; stroke-width:3;" />
  <rect class="anc_exon" x="4661" y="35.0" width="103" height="30" style="fill:#87bcbc;fill-opacity:1.00" />
  <line x1="4764" y1="50.0" x2="4804" y2="50.0" style="stroke:#999; stroke-width:3;" />
  <rect class="anc_exon" x="4804" y="35.0" width="92" height="30" style="fill:#87bcbc;fill-opacity:1.00" />
  <line x1="4896" y1="50.0" x2="4916" y2="50.0" style="stroke:#999; stroke-width:3;" />
  <line x1="4916" y1="50.0" x2="4916" y2="50.0" style="stroke:#999; stroke-width:3;" />
  <line x1="4916" y1="50.0" x2="4916" y2="50.0" style="stroke:#999; stroke-width:3;" />
  <line x1="4916" y1="50.0" x2="4936" y2="50.0" style="stroke:#999; stroke-width:3;" />
  <rect class="anc_exon" x="4936" y="35.0" width="208" height="30" style="fill:#87bcbc;fill-opacity:1.00" />
  <line x1="5144" y1="50.0" x2="5184" y2="50.0" style="stroke:#999; stroke-width:3;" />
  <rect class="anc_exon" x="5184" y="35.0" width="72" height="30" style="fill:#87bcbc;fill-opacity:1.00" />
  <line x1="5256" y1="50.0" x2="5296" y2="50.0" style="stroke:#999; stroke-width:3;" />
  <rect class="anc_exon" x="5296" y="35.0" width="142" height="30" style="fill:#87bcbc;fill-opacity:1.00" />
  <line x1="5438" y1="50.0" x2="5458" y2="50.0" style="stroke:#999; stroke-width:3;" />
  <line x1="5458" y1="50.0" x2="5458" y2="50.0" style="stroke:#999; stroke-width:3;" />
  <line x1="5458" y1="50.0" x2="5458" y2="50.0" style="stroke:#999; stroke-width:3;" />
  <line x1="5458" y1="50.0" x2="5478" y2="50.0" style="stroke:#999; stroke-width:3;" />
  <rect class="anc_exon" x="5478" y="35.0" width="78" height="30" style="fill:#87bcbc;fill-opacity:1.00" />
  <line x1="5556" y1="50.0" x2="5596" y2="50.0" style="stroke:#999; stroke-width:3;" />
  <rect class="anc_exon" x="5596" y="35.0" width="201" height="30" style="fill:#87bcbc;fill-opacity:1.00" />
  <line x1="5797" y1="50.0" x2="5817" y2="50.0" style="stroke:#999; stroke-width:3;" />
  <line x1="5817" y1="50.0" x2="5817" y2="50.0" style="stroke:#999; stroke-width:3;" />
  <line x1="5817" y1="50.0" x2="5817" y2="50.0" style="stroke:#999; stroke-width:3;" />
  <line x1="5817" y1="50.0" x2="5837" y2="50.0" style="stroke:#999; stroke-width:3;" />
  <rect class="anc_exon" x="5837" y="35.0" width="60" height="30" style="fill:#87bcbc;fill-opacity:1.00" />
  <line x1="5897" y1="50.0" x2="5917" y2="50.0" style="stroke:#999; stroke-width:3;" />
  <line x1="5917" y1="50.0" x2="5917" y2="50.0" style="stroke:#999; stroke-width:3;" />
  <line x1="5917" y1="50.0" x2="5917" y2="50.0" style="stroke:#999; stroke-width:3;" />
  <line x1="5917" y1="50.0" x2="5937" y2="50.0" style="stroke:#999; stroke-width:3;" />
  <rect class="anc_exon" x="5937" y="35.0" width="59" height="30" style="fill:#87bcbc;fill-opacity:1.00" />
  <rect class="anc_exon" x="5996" y="35.0" width="0" height="30" style="fill:#87bcbc;fill-opacity:1.00" />
  <text style="" >
<tspan x="0" y="83.0" style="font-size:18px;" >SP XM_031969043_1.1</tspan>  </text>



<script type="text/ecmascript">
<![CDATA[
function draw_bbox(text_id)
{
    var text_elem = document.getElementById(text_id);
    var offset_px = 2;
    var offset_py = 0;
    bbox = text_elem.getBBox();
    var box = document.createElementNS(document.rootElement.namespaceURI,'rect');
    box.setAttribute('x', bbox.x - offset_px);
    box.setAttribute('y', bbox.y - offset_py);
    box.setAttribute('width', bbox.width + offset_px * 2);
    box.setAttribute('height', bbox.height + offset_py * 2);
    box.setAttribute('style','fill: white;'+'stroke: black;'+'stroke-width: 1px;');
    text_elem.insertBefore(box,text_elem.childNodes[0]);

    var svg = text_elem.parentNode;
    svg.appendChild(text_elem);
}

for (var i=1; i < 1; i++)
{
draw_bbox("Mouseover" + i);
}
]]> 
</script>
</svg>
