<svg version="1.1"
xmlns="http://www.w3.org/2000/svg"
xmlns:xlink="http://www.w3.org/1999/xlink"
width="2839" height="100" viewBox = "0 0 2839 100"
onclick="mouseclick(evt)">

<script type="text/ecmascript">

<![CDATA[
    function mouseover(evt, target) { 
    var gv = document.getElementById("globalVariable");
    var previoustarget = gv.firstChild.nodeValue;
    if (previoustarget != "none") 
    {
        	document.getElementById(gv.firstChild.nodeValue).setAttributeNS(null, "visibility", "hidden");
    }
    document.getElementById(target).setAttributeNS(null, "visibility", "visible");
    gv.firstChild.nodeValue = target;
        }

    function mouseclick(evt) { 
    var gv = document.getElementById("globalVariable");
    var previoustarget = gv.firstChild.nodeValue;
    if (previoustarget != "none") {
        	document.getElementById(gv.firstChild.nodeValue).setAttributeNS(null, "visibility", "hidden");
        }
    }
]]>
  </script>
<style type="text/css" >

<![CDATA[
    rect.anc_exon {
              stroke-width:3;
                  }

    rect.non_anc_exon {
              stroke: black; stroke-width:3; stroke-dasharray: 5,5;
                    }

    text {
              font-size: 18px;
              font-family: Courier New;
          }
                    ]]>
</style>

<defs>
    <text x="150" y="40" id="globalVariable">none</text>
</defs>

  <rect class="anc_exon" x="0" y="35.0" width="0" height="30" style="fill:#87bcbc;fill-opacity:1.00" />
  <rect class="anc_exon" x="0" y="35.0" width="16.0" height="30" style="fill:#87bcbc;fill-opacity:1.00" />
  <line x1="16.0" y1="50.0" x2="36.0" y2="50.0" style="stroke:#999; stroke-width:3;" />
  <line x1="36.0" y1="50.0" x2="36.0" y2="50.0" style="stroke:#999; stroke-width:3;" />
  <line x1="36.0" y1="50.0" x2="36.0" y2="50.0" style="stroke:#999; stroke-width:3;" />
  <line x1="36.0" y1="50.0" x2="56.0" y2="50.0" style="stroke:#999; stroke-width:3;" />
  <rect class="anc_exon" x="56" y="35.0" width="54" height="30" style="fill:#87bcbc;fill-opacity:1.00" />
  <line x1="110" y1="50.0" x2="130" y2="50.0" style="stroke:#999; stroke-width:3;" />
  <line x1="130" y1="50.0" x2="130" y2="50.0" style="stroke:#999; stroke-width:3;" />
  <line x1="130" y1="50.0" x2="130" y2="50.0" style="stroke:#999; stroke-width:3;" />
  <line x1="130" y1="50.0" x2="150" y2="50.0" style="stroke:#999; stroke-width:3;" />
  <rect class="anc_exon" x="150" y="35.0" width="64" height="30" style="fill:#87bcbc;fill-opacity:1.00" />
  <line x1="214" y1="50.0" x2="234" y2="50.0" style="stroke:#999; stroke-width:3;" />
  <line x1="234" y1="50.0" x2="234" y2="50.0" style="stroke:#999; stroke-width:3;" />
  <line x1="234" y1="50.0" x2="234" y2="50.0" style="stroke:#999; stroke-width:3;" />
  <line x1="234" y1="50.0" x2="254" y2="50.0" style="stroke:#999; stroke-width:3;" />
  <rect class="anc_exon" x="254" y="35.0" width="171" height="30" style="fill:#87bcbc;fill-opacity:1.00" />
  <line x1="425" y1="50.0" x2="445" y2="50.0" style="stroke:#999; stroke-width:3;" />
  <line x1="445" y1="50.0" x2="445" y2="50.0" style="stroke:#999; stroke-width:3;" />
  <line x1="445" y1="50.0" x2="445" y2="50.0" style="stroke:#999; stroke-width:3;" />
  <line x1="445" y1="50.0" x2="465" y2="50.0" style="stroke:#999; stroke-width:3;" />
  <rect class="anc_exon" x="465" y="35.0" width="68" height="30" style="fill:#87bcbc;fill-opacity:1.00" />
  <line x1="533" y1="50.0" x2="553" y2="50.0" style="stroke:#999; stroke-width:3;" />
  <line x1="553" y1="50.0" x2="553" y2="50.0" style="stroke:#999; stroke-width:3;" />
  <line x1="553" y1="50.0" x2="553" y2="50.0" style="stroke:#999; stroke-width:3;" />
  <line x1="553" y1="50.0" x2="573" y2="50.0" style="stroke:#999; stroke-width:3;" />
  <rect class="anc_exon" x="573" y="35.0" width="124" height="30" style="fill:#87bcbc;fill-opacity:1.00" />
  <line x1="697" y1="50.0" x2="717" y2="50.0" style="stroke:#999; stroke-width:3;" />
  <line x1="717" y1="50.0" x2="717" y2="50.0" style="stroke:#999; stroke-width:3;" />
  <line x1="717" y1="50.0" x2="717" y2="50.0" style="stroke:#999; stroke-width:3;" />
  <line x1="717" y1="50.0" x2="737" y2="50.0" style="stroke:#999; stroke-width:3;" />
  <rect class="anc_exon" x="737" y="35.0" width="84" height="30" style="fill:#87bcbc;fill-opacity:1.00" />
  <line x1="821" y1="50.0" x2="841" y2="50.0" style="stroke:#999; stroke-width:3;" />
  <line x1="841" y1="50.0" x2="841" y2="50.0" style="stroke:#999; stroke-width:3;" />
  <line x1="841" y1="50.0" x2="841" y2="50.0" style="stroke:#999; stroke-width:3;" />
  <line x1="841" y1="50.0" x2="861" y2="50.0" style="stroke:#999; stroke-width:3;" />
  <rect class="anc_exon" x="861" y="35.0" width="133" height="30" style="fill:#87bcbc;fill-opacity:1.00" />
  <line x1="994" y1="50.0" x2="1014" y2="50.0" style="stroke:#999; stroke-width:3;" />
  <line x1="1014" y1="50.0" x2="1014" y2="50.0" style="stroke:#999; stroke-width:3;" />
  <line x1="1014" y1="50.0" x2="1014" y2="50.0" style="stroke:#999; stroke-width:3;" />
  <line x1="1014" y1="50.0" x2="1034" y2="50.0" style="stroke:#999; stroke-width:3;" />
  <rect class="anc_exon" x="1034" y="35.0" width="100" height="30" style="fill:#87bcbc;fill-opacity:1.00" />
  <line x1="1134" y1="50.0" x2="1154" y2="50.0" style="stroke:#999; stroke-width:3;" />
  <line x1="1154" y1="50.0" x2="1154" y2="50.0" style="stroke:#999; stroke-width:3;" />
  <line x1="1154" y1="50.0" x2="1154" y2="50.0" style="stroke:#999; stroke-width:3;" />
  <line x1="1154" y1="50.0" x2="1174" y2="50.0" style="stroke:#999; stroke-width:3;" />
  <rect class="anc_exon" x="1174" y="35.0" width="7" height="30" style="fill:#87bcbc;fill-opacity:1.00" />
  <line x1="1181" y1="50.0" x2="1201" y2="50.0" style="stroke:#999; stroke-width:3;" />
  <line x1="1201" y1="50.0" x2="1201" y2="50.0" style="stroke:#999; stroke-width:3;" />
  <line x1="1201" y1="50.0" x2="1201" y2="50.0" style="stroke:#999; stroke-width:3;" />
  <line x1="1201" y1="50.0" x2="1221" y2="50.0" style="stroke:#999; stroke-width:3;" />
  <rect class="anc_exon" x="1221" y="35.0" width="67" height="30" style="fill:#87bcbc;fill-opacity:1.00" />
  <line x1="1288" y1="50.0" x2="1328" y2="50.0" style="stroke:#999; stroke-width:3;" />
  <rect class="anc_exon" x="1328" y="35.0" width="72" height="30" style="fill:#87bcbc;fill-opacity:1.00" />
  <line x1="1400" y1="50.0" x2="1420" y2="50.0" style="stroke:#999; stroke-width:3;" />
  <line x1="1420" y1="50.0" x2="1420" y2="50.0" style="stroke:#999; stroke-width:3;" />
  <line x1="1420" y1="50.0" x2="1420" y2="50.0" style="stroke:#999; stroke-width:3;" />
  <line x1="1420" y1="50.0" x2="1440" y2="50.0" style="stroke:#999; stroke-width:3;" />
  <rect class="anc_exon" x="1440" y="35.0" width="62" height="30" style="fill:#87bcbc;fill-opacity:1.00" />
  <line x1="1502" y1="50.0" x2="1542" y2="50.0" style="stroke:#999; stroke-width:3;" />
  <rect class="anc_exon" x="1542" y="35.0" width="74" height="30" style="fill:#87bcbc;fill-opacity:1.00" />
  <line x1="1616" y1="50.0" x2="1636" y2="50.0" style="stroke:#999; stroke-width:3;" />
  <line x1="1636" y1="50.0" x2="1636" y2="50.0" style="stroke:#999; stroke-width:3;" />
  <line x1="1636" y1="50.0" x2="1636" y2="50.0" style="stroke:#999; stroke-width:3;" />
  <line x1="1636" y1="50.0" x2="1656" y2="50.0" style="stroke:#999; stroke-width:3;" />
  <rect class="anc_exon" x="1656" y="35.0" width="70" height="30" style="fill:#87bcbc;fill-opacity:1.00" />
  <line x1="1726" y1="50.0" x2="1746" y2="50.0" style="stroke:#999; stroke-width:3;" />
  <line x1="1746" y1="50.0" x2="1746" y2="50.0" style="stroke:#999; stroke-width:3;" />
  <line x1="1746" y1="50.0" x2="1746" y2="50.0" style="stroke:#999; stroke-width:3;" />
  <line x1="1746" y1="50.0" x2="1766" y2="50.0" style="stroke:#999; stroke-width:3;" />
  <rect class="anc_exon" x="1766" y="35.0" width="78" height="30" style="fill:#87bcbc;fill-opacity:1.00" />
  <line x1="1844" y1="50.0" x2="1864" y2="50.0" style="stroke:#999; stroke-width:3;" />
  <line x1="1864" y1="50.0" x2="1864" y2="50.0" style="stroke:#999; stroke-width:3;" />
  <line x1="1864" y1="50.0" x2="1864" y2="50.0" style="stroke:#999; stroke-width:3;" />
  <line x1="1864" y1="50.0" x2="1884" y2="50.0" style="stroke:#999; stroke-width:3;" />
  <rect class="anc_exon" x="1884" y="35.0" width="91" height="30" style="fill:#87bcbc;fill-opacity:1.00" />
  <line x1="1975" y1="50.0" x2="1995" y2="50.0" style="stroke:#999; stroke-width:3;" />
  <line x1="1995" y1="50.0" x2="1995" y2="50.0" style="stroke:#999; stroke-width:3;" />
  <line x1="1995" y1="50.0" x2="1995" y2="50.0" style="stroke:#999; stroke-width:3;" />
  <line x1="1995" y1="50.0" x2="2015" y2="50.0" style="stroke:#999; stroke-width:3;" />
  <rect class="anc_exon" x="2015" y="35.0" width="77" height="30" style="fill:#87bcbc;fill-opacity:1.00" />
  <line x1="2092" y1="50.0" x2="2112" y2="50.0" style="stroke:#999; stroke-width:3;" />
  <line x1="2112" y1="50.0" x2="2112" y2="50.0" style="stroke:#999; stroke-width:3;" />
  <line x1="2112" y1="50.0" x2="2112" y2="50.0" style="stroke:#999; stroke-width:3;" />
  <line x1="2112" y1="50.0" x2="2132" y2="50.0" style="stroke:#999; stroke-width:3;" />
  <rect class="anc_exon" x="2132" y="35.0" width="16" height="30" style="fill:#87bcbc;fill-opacity:1.00" />
  <line x1="2148" y1="50.0" x2="2168" y2="50.0" style="stroke:#999; stroke-width:3;" />
  <line x1="2168" y1="50.0" x2="2168" y2="50.0" style="stroke:#999; stroke-width:3;" />
  <line x1="2168" y1="50.0" x2="2168" y2="50.0" style="stroke:#999; stroke-width:3;" />
  <line x1="2168" y1="50.0" x2="2188" y2="50.0" style="stroke:#999; stroke-width:3;" />
  <rect class="anc_exon" x="2188" y="35.0" width="128" height="30" style="fill:#87bcbc;fill-opacity:1.00" />
  <line x1="2316" y1="50.0" x2="2336" y2="50.0" style="stroke:#999; stroke-width:3;" />
  <line x1="2336" y1="50.0" x2="2336" y2="50.0" style="stroke:#999; stroke-width:3;" />
  <line x1="2336" y1="50.0" x2="2336" y2="50.0" style="stroke:#999; stroke-width:3;" />
  <line x1="2336" y1="50.0" x2="2356" y2="50.0" style="stroke:#999; stroke-width:3;" />
  <rect class="anc_exon" x="2356" y="35.0" width="72" height="30" style="fill:#87bcbc;fill-opacity:1.00" />
  <line x1="2428" y1="50.0" x2="2468" y2="50.0" style="stroke:#999; stroke-width:3;" />
  <rect class="anc_exon" x="2468" y="35.0" width="135" height="30" style="fill:#87bcbc;fill-opacity:1.00" />
  <line x1="2603" y1="50.0" x2="2643" y2="50.0" style="stroke:#999; stroke-width:3;" />
  <rect class="anc_exon" x="2643" y="35.0" width="106" height="30" style="fill:#87bcbc;fill-opacity:1.00" />
  <line x1="2749" y1="50.0" x2="2769" y2="50.0" style="stroke:#999; stroke-width:3;" />
  <line x1="2769" y1="50.0" x2="2769" y2="50.0" style="stroke:#999; stroke-width:3;" />
  <line x1="2769" y1="50.0" x2="2769" y2="50.0" style="stroke:#999; stroke-width:3;" />
  <line x1="2769" y1="50.0" x2="2789" y2="50.0" style="stroke:#999; stroke-width:3;" />
  <rect class="anc_exon" x="2789" y="35.0" width="14" height="30" style="fill:#87bcbc;fill-opacity:1.00" />
  <rect class="anc_exon" x="2803" y="35.0" width="0" height="30" style="fill:#87bcbc;fill-opacity:1.00" />
  <text style="" >
<tspan x="0" y="83.0" style="font-size:18px;" >SP XM_031946442_1.1</tspan>  </text>



<script type="text/ecmascript">
<![CDATA[
function draw_bbox(text_id)
{
    var text_elem = document.getElementById(text_id);
    var offset_px = 2;
    var offset_py = 0;
    bbox = text_elem.getBBox();
    var box = document.createElementNS(document.rootElement.namespaceURI,'rect');
    box.setAttribute('x', bbox.x - offset_px);
    box.setAttribute('y', bbox.y - offset_py);
    box.setAttribute('width', bbox.width + offset_px * 2);
    box.setAttribute('height', bbox.height + offset_py * 2);
    box.setAttribute('style','fill: white;'+'stroke: black;'+'stroke-width: 1px;');
    text_elem.insertBefore(box,text_elem.childNodes[0]);

    var svg = text_elem.parentNode;
    svg.appendChild(text_elem);
}

for (var i=1; i < 1; i++)
{
draw_bbox("Mouseover" + i);
}
]]> 
</script>
</svg>
