<svg version="1.1"
xmlns="http://www.w3.org/2000/svg"
xmlns:xlink="http://www.w3.org/1999/xlink"
width="4297" height="100" viewBox = "0 0 4297 100"
onclick="mouseclick(evt)">

<script type="text/ecmascript">

<![CDATA[
    function mouseover(evt, target) { 
    var gv = document.getElementById("globalVariable");
    var previoustarget = gv.firstChild.nodeValue;
    if (previoustarget != "none") 
    {
        	document.getElementById(gv.firstChild.nodeValue).setAttributeNS(null, "visibility", "hidden");
    }
    document.getElementById(target).setAttributeNS(null, "visibility", "visible");
    gv.firstChild.nodeValue = target;
        }

    function mouseclick(evt) { 
    var gv = document.getElementById("globalVariable");
    var previoustarget = gv.firstChild.nodeValue;
    if (previoustarget != "none") {
        	document.getElementById(gv.firstChild.nodeValue).setAttributeNS(null, "visibility", "hidden");
        }
    }
]]>
  </script>
<style type="text/css" >

<![CDATA[
    rect.anc_exon {
              stroke-width:3;
                  }

    rect.non_anc_exon {
              stroke: black; stroke-width:3; stroke-dasharray: 5,5;
                    }

    text {
              font-size: 18px;
              font-family: Courier New;
          }
                    ]]>
</style>

<defs>
    <text x="150" y="40" id="globalVariable">none</text>
</defs>

  <rect class="anc_exon" x="0" y="35.0" width="0" height="30" style="fill:#87bcbc;fill-opacity:1.00" />
  <rect class="anc_exon" x="0" y="35.0" width="62.400000000000006" height="30" style="fill:#878787;fill-opacity:1.00" />
  <line x1="62.400000000000006" y1="50.0" x2="81.4" y2="50.0" style="stroke:#999; stroke-width:3;" />
  <line x1="81.4" y1="50.0" x2="81.4" y2="50.0" style="stroke:#999; stroke-width:3;" />
  <line x1="81.4" y1="50.0" x2="81.4" y2="50.0" style="stroke:#999; stroke-width:3;" />
  <line x1="81.4" y1="50.0" x2="102.0" y2="50.0" style="stroke:#999; stroke-width:3;" />
  <rect class="anc_exon" x="102" y="35.0" width="172" height="30" style="fill:#87bcbc;fill-opacity:1.00" />
  <line x1="274" y1="50.0" x2="314" y2="50.0" style="stroke:#999; stroke-width:3;" />
  <rect class="anc_exon" x="314" y="35.0" width="97" height="30" style="fill:#878787;fill-opacity:1.00" />
  <line x1="411" y1="50.0" x2="431" y2="50.0" style="stroke:#999; stroke-width:3;" />
  <line x1="431" y1="50.0" x2="431" y2="50.0" style="stroke:#999; stroke-width:3;" />
  <line x1="431" y1="50.0" x2="431" y2="50.0" style="stroke:#999; stroke-width:3;" />
  <line x1="431" y1="50.0" x2="451" y2="50.0" style="stroke:#999; stroke-width:3;" />
  <rect class="anc_exon" x="451" y="35.0" width="187" height="30" style="fill:#87bcbc;fill-opacity:1.00" />
  <line x1="638" y1="50.0" x2="658" y2="50.0" style="stroke:#999; stroke-width:3;" />
  <line x1="658" y1="50.0" x2="658" y2="50.0" style="stroke:#999; stroke-width:3;" />
  <line x1="658" y1="50.0" x2="658" y2="50.0" style="stroke:#999; stroke-width:3;" />
  <line x1="658" y1="50.0" x2="678" y2="50.0" style="stroke:#999; stroke-width:3;" />
  <rect class="anc_exon" x="678" y="35.0" width="249" height="30" style="fill:#87bcbc;fill-opacity:1.00" />
  <line x1="927" y1="50.0" x2="967" y2="50.0" style="stroke:#999; stroke-width:3;" />
  <rect class="anc_exon" x="967" y="35.0" width="76" height="30" style="fill:#87bcbc;fill-opacity:1.00" />
  <line x1="1043" y1="50.0" x2="1063" y2="50.0" style="stroke:#999; stroke-width:3;" />
  <line x1="1063" y1="50.0" x2="1063" y2="50.0" style="stroke:#999; stroke-width:3;" />
  <line x1="1063" y1="50.0" x2="1063" y2="50.0" style="stroke:#999; stroke-width:3;" />
  <line x1="1063" y1="50.0" x2="1083" y2="50.0" style="stroke:#999; stroke-width:3;" />
  <rect class="anc_exon" x="1083" y="35.0" width="76" height="30" style="fill:#878787;fill-opacity:1.00" />
  <line x1="1159" y1="50.0" x2="1199" y2="50.0" style="stroke:#999; stroke-width:3;" />
  <rect class="anc_exon" x="1199" y="35.0" width="50" height="30" style="fill:#878787;fill-opacity:1.00" />
  <line x1="1249" y1="50.0" x2="1289" y2="50.0" style="stroke:#999; stroke-width:3;" />
  <rect class="anc_exon" x="1289" y="35.0" width="49" height="30" style="fill:#878787;fill-opacity:1.00" />
  <line x1="1338" y1="50.0" x2="1358" y2="50.0" style="stroke:#999; stroke-width:3;" />
  <line x1="1358" y1="50.0" x2="1358" y2="50.0" style="stroke:#999; stroke-width:3;" />
  <line x1="1358" y1="50.0" x2="1358" y2="50.0" style="stroke:#999; stroke-width:3;" />
  <line x1="1358" y1="50.0" x2="1378" y2="50.0" style="stroke:#999; stroke-width:3;" />
  <rect class="anc_exon" x="1378" y="35.0" width="196" height="30" style="fill:#87bcbc;fill-opacity:1.00" />
  <line x1="1574" y1="50.0" x2="1594" y2="50.0" style="stroke:#999; stroke-width:3;" />
  <line x1="1594" y1="50.0" x2="1594" y2="50.0" style="stroke:#999; stroke-width:3;" />
  <line x1="1594" y1="50.0" x2="1594" y2="50.0" style="stroke:#999; stroke-width:3;" />
  <line x1="1594" y1="50.0" x2="1614" y2="50.0" style="stroke:#999; stroke-width:3;" />
  <rect class="anc_exon" x="1614" y="35.0" width="152" height="30" style="fill:#878787;fill-opacity:1.00" />
  <line x1="1766" y1="50.0" x2="1806" y2="50.0" style="stroke:#999; stroke-width:3;" />
  <rect class="anc_exon" x="1806" y="35.0" width="96" height="30" style="fill:#878787;fill-opacity:1.00" />
  <line x1="1902" y1="50.0" x2="1922" y2="50.0" style="stroke:#999; stroke-width:3;" />
  <line x1="1922" y1="50.0" x2="1922" y2="50.0" style="stroke:#999; stroke-width:3;" />
  <line x1="1922" y1="50.0" x2="1922" y2="50.0" style="stroke:#999; stroke-width:3;" />
  <line x1="1922" y1="50.0" x2="1942" y2="50.0" style="stroke:#999; stroke-width:3;" />
  <rect class="anc_exon" x="1942" y="35.0" width="215" height="30" style="fill:#878787;fill-opacity:1.00" />
  <line x1="2157" y1="50.0" x2="2197" y2="50.0" style="stroke:#999; stroke-width:3;" />
  <rect class="anc_exon" x="2197" y="35.0" width="143" height="30" style="fill:#87bcbc;fill-opacity:1.00" />
  <line x1="2340" y1="50.0" x2="2380" y2="50.0" style="stroke:#999; stroke-width:3;" />
  <rect class="anc_exon" x="2380" y="35.0" width="136" height="30" style="fill:#878787;fill-opacity:1.00" />
  <line x1="2516" y1="50.0" x2="2536" y2="50.0" style="stroke:#999; stroke-width:3;" />
  <line x1="2536" y1="50.0" x2="2536" y2="50.0" style="stroke:#999; stroke-width:3;" />
  <line x1="2536" y1="50.0" x2="2536" y2="50.0" style="stroke:#999; stroke-width:3;" />
  <line x1="2536" y1="50.0" x2="2556" y2="50.0" style="stroke:#999; stroke-width:3;" />
  <rect class="anc_exon" x="2556" y="35.0" width="132" height="30" style="fill:#878787;fill-opacity:1.00" />
  <line x1="2688" y1="50.0" x2="2708" y2="50.0" style="stroke:#999; stroke-width:3;" />
  <line x1="2708" y1="50.0" x2="2708" y2="50.0" style="stroke:#999; stroke-width:3;" />
  <line x1="2708" y1="50.0" x2="2708" y2="50.0" style="stroke:#999; stroke-width:3;" />
  <line x1="2708" y1="50.0" x2="2728" y2="50.0" style="stroke:#999; stroke-width:3;" />
  <rect class="anc_exon" x="2728" y="35.0" width="160" height="30" style="fill:#878787;fill-opacity:1.00" />
  <line x1="2888" y1="50.0" x2="2908" y2="50.0" style="stroke:#999; stroke-width:3;" />
  <line x1="2908" y1="50.0" x2="2908" y2="50.0" style="stroke:#999; stroke-width:3;" />
  <line x1="2908" y1="50.0" x2="2908" y2="50.0" style="stroke:#999; stroke-width:3;" />
  <line x1="2908" y1="50.0" x2="2928" y2="50.0" style="stroke:#999; stroke-width:3;" />
  <rect class="anc_exon" x="2928" y="35.0" width="119" height="30" style="fill:#87bcbc;fill-opacity:1.00" />
  <line x1="3047" y1="50.0" x2="3087" y2="50.0" style="stroke:#999; stroke-width:3;" />
  <rect class="anc_exon" x="3087" y="35.0" width="93" height="30" style="fill:#87bcbc;fill-opacity:1.00" />
  <line x1="3180" y1="50.0" x2="3220" y2="50.0" style="stroke:#999; stroke-width:3;" />
  <rect class="anc_exon" x="3220" y="35.0" width="93" height="30" style="fill:#87bcbc;fill-opacity:1.00" />
  <line x1="3313" y1="50.0" x2="3353" y2="50.0" style="stroke:#999; stroke-width:3;" />
  <rect class="anc_exon" x="3353" y="35.0" width="119" height="30" style="fill:#87bcbc;fill-opacity:1.00" />
  <line x1="3472" y1="50.0" x2="3512" y2="50.0" style="stroke:#999; stroke-width:3;" />
  <rect class="anc_exon" x="3512" y="35.0" width="120" height="30" style="fill:#87bcbc;fill-opacity:1.00" />
  <line x1="3632" y1="50.0" x2="3652" y2="50.0" style="stroke:#999; stroke-width:3;" />
  <line x1="3652" y1="50.0" x2="3652" y2="50.0" style="stroke:#999; stroke-width:3;" />
  <line x1="3652" y1="50.0" x2="3652" y2="50.0" style="stroke:#999; stroke-width:3;" />
  <line x1="3652" y1="50.0" x2="3672" y2="50.0" style="stroke:#999; stroke-width:3;" />
  <rect class="anc_exon" x="3672" y="35.0" width="147" height="30" style="fill:#878787;fill-opacity:1.00" />
  <line x1="3819" y1="50.0" x2="3859" y2="50.0" style="stroke:#999; stroke-width:3;" />
  <rect class="anc_exon" x="3859" y="35.0" width="103" height="30" style="fill:#878787;fill-opacity:1.00" />
  <line x1="3962" y1="50.0" x2="4002" y2="50.0" style="stroke:#999; stroke-width:3;" />
  <rect class="anc_exon" x="4002" y="35.0" width="259" height="30" style="fill:#878787;fill-opacity:1.00" />
  <rect class="anc_exon" x="4261" y="35.0" width="0" height="30" style="fill:#87bcbc;fill-opacity:1.00" />
  <text style="" >
<tspan x="0" y="83.0" style="font-size:18px;" >SP XM_031948474_1.1</tspan>  </text>



<script type="text/ecmascript">
<![CDATA[
function draw_bbox(text_id)
{
    var text_elem = document.getElementById(text_id);
    var offset_px = 2;
    var offset_py = 0;
    bbox = text_elem.getBBox();
    var box = document.createElementNS(document.rootElement.namespaceURI,'rect');
    box.setAttribute('x', bbox.x - offset_px);
    box.setAttribute('y', bbox.y - offset_py);
    box.setAttribute('width', bbox.width + offset_px * 2);
    box.setAttribute('height', bbox.height + offset_py * 2);
    box.setAttribute('style','fill: white;'+'stroke: black;'+'stroke-width: 1px;');
    text_elem.insertBefore(box,text_elem.childNodes[0]);

    var svg = text_elem.parentNode;
    svg.appendChild(text_elem);
}

for (var i=1; i < 1; i++)
{
draw_bbox("Mouseover" + i);
}
]]> 
</script>
</svg>
