<svg version="1.1"
xmlns="http://www.w3.org/2000/svg"
xmlns:xlink="http://www.w3.org/1999/xlink"
width="1345" height="100" viewBox = "0 0 1345 100"
onclick="mouseclick(evt)">

<script type="text/ecmascript">

<![CDATA[
    function mouseover(evt, target) { 
    var gv = document.getElementById("globalVariable");
    var previoustarget = gv.firstChild.nodeValue;
    if (previoustarget != "none") 
    {
        	document.getElementById(gv.firstChild.nodeValue).setAttributeNS(null, "visibility", "hidden");
    }
    document.getElementById(target).setAttributeNS(null, "visibility", "visible");
    gv.firstChild.nodeValue = target;
        }

    function mouseclick(evt) { 
    var gv = document.getElementById("globalVariable");
    var previoustarget = gv.firstChild.nodeValue;
    if (previoustarget != "none") {
        	document.getElementById(gv.firstChild.nodeValue).setAttributeNS(null, "visibility", "hidden");
        }
    }
]]>
  </script>
<style type="text/css" >

<![CDATA[
    rect.anc_exon {
              stroke-width:3;
                  }

    rect.non_anc_exon {
              stroke: black; stroke-width:3; stroke-dasharray: 5,5;
                    }

    text {
              font-size: 18px;
              font-family: Courier New;
          }
                    ]]>
</style>

<defs>
    <text x="150" y="40" id="globalVariable">none</text>
</defs>

  <rect class="anc_exon" x="0" y="35.0" width="0" height="30" style="fill:#87bcbc;fill-opacity:1.00" />
  <rect class="anc_exon" x="0" y="35.0" width="172.8" height="30" style="fill:#87bcbc;fill-opacity:1.00" />
  <line x1="172.8" y1="50.0" x2="191.8" y2="50.0" style="stroke:#999; stroke-width:3;" />
  <line x1="191.8" y1="50.0" x2="191.8" y2="50.0" style="stroke:#999; stroke-width:3;" />
  <line x1="191.8" y1="50.0" x2="191.8" y2="50.0" style="stroke:#999; stroke-width:3;" />
  <line x1="191.8" y1="50.0" x2="212.0" y2="50.0" style="stroke:#999; stroke-width:3;" />
  <rect class="anc_exon" x="212" y="35.0" width="115" height="30" style="fill:#87bcbc;fill-opacity:1.00" />
  <line x1="327" y1="50.0" x2="347" y2="50.0" style="stroke:#999; stroke-width:3;" />
  <line x1="347" y1="50.0" x2="347" y2="50.0" style="stroke:#999; stroke-width:3;" />
  <line x1="347" y1="50.0" x2="347" y2="50.0" style="stroke:#999; stroke-width:3;" />
  <line x1="347" y1="50.0" x2="367" y2="50.0" style="stroke:#999; stroke-width:3;" />
  <rect class="anc_exon" x="367" y="35.0" width="62" height="30" style="fill:#87bcbc;fill-opacity:1.00" />
  <line x1="429" y1="50.0" x2="449" y2="50.0" style="stroke:#999; stroke-width:3;" />
  <line x1="449" y1="50.0" x2="449" y2="50.0" style="stroke:#999; stroke-width:3;" />
  <line x1="449" y1="50.0" x2="449" y2="50.0" style="stroke:#999; stroke-width:3;" />
  <line x1="449" y1="50.0" x2="469" y2="50.0" style="stroke:#999; stroke-width:3;" />
  <rect class="anc_exon" x="469" y="35.0" width="106" height="30" style="fill:#87bcbc;fill-opacity:1.00" />
  <line x1="575" y1="50.0" x2="595" y2="50.0" style="stroke:#999; stroke-width:3;" />
  <line x1="595" y1="50.0" x2="595" y2="50.0" style="stroke:#999; stroke-width:3;" />
  <line x1="595" y1="50.0" x2="595" y2="50.0" style="stroke:#999; stroke-width:3;" />
  <line x1="595" y1="50.0" x2="615" y2="50.0" style="stroke:#999; stroke-width:3;" />
  <rect class="anc_exon" x="615" y="35.0" width="18" height="30" style="fill:#87bcbc;fill-opacity:1.00" />
  <line x1="633" y1="50.0" x2="653" y2="50.0" style="stroke:#999; stroke-width:3;" />
  <line x1="653" y1="50.0" x2="653" y2="50.0" style="stroke:#999; stroke-width:3;" />
  <line x1="653" y1="50.0" x2="653" y2="50.0" style="stroke:#999; stroke-width:3;" />
  <line x1="653" y1="50.0" x2="673" y2="50.0" style="stroke:#999; stroke-width:3;" />
  <rect class="anc_exon" x="673" y="35.0" width="122" height="30" style="fill:#87bcbc;fill-opacity:1.00" />
  <line x1="795" y1="50.0" x2="815" y2="50.0" style="stroke:#999; stroke-width:3;" />
  <line x1="815" y1="50.0" x2="815" y2="50.0" style="stroke:#999; stroke-width:3;" />
  <line x1="815" y1="50.0" x2="815" y2="50.0" style="stroke:#999; stroke-width:3;" />
  <line x1="815" y1="50.0" x2="835" y2="50.0" style="stroke:#999; stroke-width:3;" />
  <rect class="anc_exon" x="835" y="35.0" width="81" height="30" style="fill:#87bcbc;fill-opacity:1.00" />
  <line x1="916" y1="50.0" x2="936" y2="50.0" style="stroke:#999; stroke-width:3;" />
  <line x1="936" y1="50.0" x2="936" y2="50.0" style="stroke:#999; stroke-width:3;" />
  <line x1="936" y1="50.0" x2="936" y2="50.0" style="stroke:#999; stroke-width:3;" />
  <line x1="936" y1="50.0" x2="956" y2="50.0" style="stroke:#999; stroke-width:3;" />
  <rect class="anc_exon" x="956" y="35.0" width="51" height="30" style="fill:#87bcbc;fill-opacity:1.00" />
  <line x1="1007" y1="50.0" x2="1047" y2="50.0" style="stroke:#999; stroke-width:3;" />
  <rect class="anc_exon" x="1047" y="35.0" width="56" height="30" style="fill:#87bcbc;fill-opacity:1.00" />
  <line x1="1103" y1="50.0" x2="1143" y2="50.0" style="stroke:#999; stroke-width:3;" />
  <rect class="anc_exon" x="1143" y="35.0" width="62" height="30" style="fill:#87bcbc;fill-opacity:1.00" />
  <line x1="1205" y1="50.0" x2="1245" y2="50.0" style="stroke:#999; stroke-width:3;" />
  <rect class="anc_exon" x="1245" y="35.0" width="64" height="30" style="fill:#87bcbc;fill-opacity:1.00" />
  <rect class="anc_exon" x="1309" y="35.0" width="0" height="30" style="fill:#87bcbc;fill-opacity:1.00" />
  <text style="" >
<tspan x="0" y="83.0" style="font-size:18px;" >SP XM_031945472_1.1</tspan>  </text>



<script type="text/ecmascript">
<![CDATA[
function draw_bbox(text_id)
{
    var text_elem = document.getElementById(text_id);
    var offset_px = 2;
    var offset_py = 0;
    bbox = text_elem.getBBox();
    var box = document.createElementNS(document.rootElement.namespaceURI,'rect');
    box.setAttribute('x', bbox.x - offset_px);
    box.setAttribute('y', bbox.y - offset_py);
    box.setAttribute('width', bbox.width + offset_px * 2);
    box.setAttribute('height', bbox.height + offset_py * 2);
    box.setAttribute('style','fill: white;'+'stroke: black;'+'stroke-width: 1px;');
    text_elem.insertBefore(box,text_elem.childNodes[0]);

    var svg = text_elem.parentNode;
    svg.appendChild(text_elem);
}

for (var i=1; i < 1; i++)
{
draw_bbox("Mouseover" + i);
}
]]> 
</script>
</svg>
