<svg version="1.1"
xmlns="http://www.w3.org/2000/svg"
xmlns:xlink="http://www.w3.org/1999/xlink"
width="1757" height="100" viewBox = "0 0 1757 100"
onclick="mouseclick(evt)">

<script type="text/ecmascript">

<![CDATA[
    function mouseover(evt, target) { 
    var gv = document.getElementById("globalVariable");
    var previoustarget = gv.firstChild.nodeValue;
    if (previoustarget != "none") 
    {
        	document.getElementById(gv.firstChild.nodeValue).setAttributeNS(null, "visibility", "hidden");
    }
    document.getElementById(target).setAttributeNS(null, "visibility", "visible");
    gv.firstChild.nodeValue = target;
        }

    function mouseclick(evt) { 
    var gv = document.getElementById("globalVariable");
    var previoustarget = gv.firstChild.nodeValue;
    if (previoustarget != "none") {
        	document.getElementById(gv.firstChild.nodeValue).setAttributeNS(null, "visibility", "hidden");
        }
    }
]]>
  </script>
<style type="text/css" >

<![CDATA[
    rect.anc_exon {
              stroke-width:3;
                  }

    rect.non_anc_exon {
              stroke: black; stroke-width:3; stroke-dasharray: 5,5;
                    }

    text {
              font-size: 18px;
              font-family: Courier New;
          }
                    ]]>
</style>

<defs>
    <text x="150" y="40" id="globalVariable">none</text>
</defs>

  <rect class="anc_exon" x="0" y="35.0" width="0" height="30" style="fill:#87bcbc;fill-opacity:1.00" />
  <rect class="anc_exon" x="0" y="35.0" width="119.2" height="30" style="fill:#87bcbc;fill-opacity:1.00" />
  <line x1="119.2" y1="50.0" x2="159.0" y2="50.0" style="stroke:#999; stroke-width:3;" />
  <rect class="anc_exon" x="159" y="35.0" width="93" height="30" style="fill:#87bcbc;fill-opacity:1.00" />
  <line x1="252" y1="50.0" x2="292" y2="50.0" style="stroke:#999; stroke-width:3;" />
  <rect class="anc_exon" x="292" y="35.0" width="202" height="30" style="fill:#87bcbc;fill-opacity:1.00" />
  <line x1="494" y1="50.0" x2="514" y2="50.0" style="stroke:#999; stroke-width:3;" />
  <line x1="514" y1="50.0" x2="514" y2="50.0" style="stroke:#999; stroke-width:3;" />
  <line x1="514" y1="50.0" x2="514" y2="50.0" style="stroke:#999; stroke-width:3;" />
  <line x1="514" y1="50.0" x2="534" y2="50.0" style="stroke:#999; stroke-width:3;" />
  <rect class="anc_exon" x="534" y="35.0" width="92" height="30" style="fill:#87bcbc;fill-opacity:1.00" />
  <line x1="626" y1="50.0" x2="666" y2="50.0" style="stroke:#999; stroke-width:3;" />
  <rect class="anc_exon" x="666" y="35.0" width="73" height="30" style="fill:#87bcbc;fill-opacity:1.00" />
  <line x1="739" y1="50.0" x2="779" y2="50.0" style="stroke:#999; stroke-width:3;" />
  <rect class="anc_exon" x="779" y="35.0" width="53" height="30" style="fill:#87bcbc;fill-opacity:1.00" />
  <line x1="832" y1="50.0" x2="852" y2="50.0" style="stroke:#999; stroke-width:3;" />
  <line x1="852" y1="50.0" x2="852" y2="50.0" style="stroke:#999; stroke-width:3;" />
  <line x1="852" y1="50.0" x2="852" y2="50.0" style="stroke:#999; stroke-width:3;" />
  <line x1="852" y1="50.0" x2="872" y2="50.0" style="stroke:#999; stroke-width:3;" />
  <rect class="anc_exon" x="872" y="35.0" width="53" height="30" style="fill:#87bcbc;fill-opacity:1.00" />
  <line x1="925" y1="50.0" x2="945" y2="50.0" style="stroke:#999; stroke-width:3;" />
  <line x1="945" y1="50.0" x2="945" y2="50.0" style="stroke:#999; stroke-width:3;" />
  <line x1="945" y1="50.0" x2="945" y2="50.0" style="stroke:#999; stroke-width:3;" />
  <line x1="945" y1="50.0" x2="965" y2="50.0" style="stroke:#999; stroke-width:3;" />
  <rect class="anc_exon" x="965" y="35.0" width="61" height="30" style="fill:#87bcbc;fill-opacity:1.00" />
  <line x1="1026" y1="50.0" x2="1066" y2="50.0" style="stroke:#999; stroke-width:3;" />
  <rect class="anc_exon" x="1066" y="35.0" width="117" height="30" style="fill:#87bcbc;fill-opacity:1.00" />
  <line x1="1183" y1="50.0" x2="1203" y2="50.0" style="stroke:#999; stroke-width:3;" />
  <line x1="1203" y1="50.0" x2="1203" y2="50.0" style="stroke:#999; stroke-width:3;" />
  <line x1="1203" y1="50.0" x2="1203" y2="50.0" style="stroke:#999; stroke-width:3;" />
  <line x1="1203" y1="50.0" x2="1223" y2="50.0" style="stroke:#999; stroke-width:3;" />
  <rect class="anc_exon" x="1223" y="35.0" width="35" height="30" style="fill:#87bcbc;fill-opacity:1.00" />
  <line x1="1258" y1="50.0" x2="1278" y2="50.0" style="stroke:#999; stroke-width:3;" />
  <line x1="1278" y1="50.0" x2="1278" y2="50.0" style="stroke:#999; stroke-width:3;" />
  <line x1="1278" y1="50.0" x2="1278" y2="50.0" style="stroke:#999; stroke-width:3;" />
  <line x1="1278" y1="50.0" x2="1298" y2="50.0" style="stroke:#999; stroke-width:3;" />
  <rect class="anc_exon" x="1298" y="35.0" width="109" height="30" style="fill:#87bcbc;fill-opacity:1.00" />
  <line x1="1407" y1="50.0" x2="1427" y2="50.0" style="stroke:#999; stroke-width:3;" />
  <line x1="1427" y1="50.0" x2="1427" y2="50.0" style="stroke:#999; stroke-width:3;" />
  <line x1="1427" y1="50.0" x2="1427" y2="50.0" style="stroke:#999; stroke-width:3;" />
  <line x1="1427" y1="50.0" x2="1447" y2="50.0" style="stroke:#999; stroke-width:3;" />
  <rect class="anc_exon" x="1447" y="35.0" width="73" height="30" style="fill:#87bcbc;fill-opacity:1.00" />
  <line x1="1520" y1="50.0" x2="1540" y2="50.0" style="stroke:#999; stroke-width:3;" />
  <line x1="1540" y1="50.0" x2="1540" y2="50.0" style="stroke:#999; stroke-width:3;" />
  <line x1="1540" y1="50.0" x2="1540" y2="50.0" style="stroke:#999; stroke-width:3;" />
  <line x1="1540" y1="50.0" x2="1560" y2="50.0" style="stroke:#999; stroke-width:3;" />
  <rect class="anc_exon" x="1560" y="35.0" width="64" height="30" style="fill:#87bcbc;fill-opacity:1.00" />
  <line x1="1624" y1="50.0" x2="1664" y2="50.0" style="stroke:#999; stroke-width:3;" />
  <rect class="anc_exon" x="1664" y="35.0" width="57" height="30" style="fill:#87bcbc;fill-opacity:1.00" />
  <rect class="anc_exon" x="1721" y="35.0" width="0" height="30" style="fill:#87bcbc;fill-opacity:1.00" />
  <text style="" >
<tspan x="0" y="83.0" style="font-size:18px;" >SP XM_031966026_1.1</tspan>  </text>



<script type="text/ecmascript">
<![CDATA[
function draw_bbox(text_id)
{
    var text_elem = document.getElementById(text_id);
    var offset_px = 2;
    var offset_py = 0;
    bbox = text_elem.getBBox();
    var box = document.createElementNS(document.rootElement.namespaceURI,'rect');
    box.setAttribute('x', bbox.x - offset_px);
    box.setAttribute('y', bbox.y - offset_py);
    box.setAttribute('width', bbox.width + offset_px * 2);
    box.setAttribute('height', bbox.height + offset_py * 2);
    box.setAttribute('style','fill: white;'+'stroke: black;'+'stroke-width: 1px;');
    text_elem.insertBefore(box,text_elem.childNodes[0]);

    var svg = text_elem.parentNode;
    svg.appendChild(text_elem);
}

for (var i=1; i < 1; i++)
{
draw_bbox("Mouseover" + i);
}
]]> 
</script>
</svg>
