<svg version="1.1"
xmlns="http://www.w3.org/2000/svg"
xmlns:xlink="http://www.w3.org/1999/xlink"
width="4819" height="100" viewBox = "0 0 4819 100"
onclick="mouseclick(evt)">

<script type="text/ecmascript">

<![CDATA[
    function mouseover(evt, target) { 
    var gv = document.getElementById("globalVariable");
    var previoustarget = gv.firstChild.nodeValue;
    if (previoustarget != "none") 
    {
        	document.getElementById(gv.firstChild.nodeValue).setAttributeNS(null, "visibility", "hidden");
    }
    document.getElementById(target).setAttributeNS(null, "visibility", "visible");
    gv.firstChild.nodeValue = target;
        }

    function mouseclick(evt) { 
    var gv = document.getElementById("globalVariable");
    var previoustarget = gv.firstChild.nodeValue;
    if (previoustarget != "none") {
        	document.getElementById(gv.firstChild.nodeValue).setAttributeNS(null, "visibility", "hidden");
        }
    }
]]>
  </script>
<style type="text/css" >

<![CDATA[
    rect.anc_exon {
              stroke-width:3;
                  }

    rect.non_anc_exon {
              stroke: black; stroke-width:3; stroke-dasharray: 5,5;
                    }

    text {
              font-size: 18px;
              font-family: Courier New;
          }
                    ]]>
</style>

<defs>
    <text x="150" y="40" id="globalVariable">none</text>
</defs>

  <rect class="anc_exon" x="0" y="35.0" width="0" height="30" style="fill:#87bcbc;fill-opacity:1.00" />
  <rect class="anc_exon" x="0" y="35.0" width="58.400000000000006" height="30" style="fill:#87bcbc;fill-opacity:1.00" />
  <line x1="58.400000000000006" y1="50.0" x2="77.4" y2="50.0" style="stroke:#999; stroke-width:3;" />
  <line x1="77.4" y1="50.0" x2="77.4" y2="50.0" style="stroke:#999; stroke-width:3;" />
  <line x1="77.4" y1="50.0" x2="77.4" y2="50.0" style="stroke:#999; stroke-width:3;" />
  <line x1="77.4" y1="50.0" x2="98.0" y2="50.0" style="stroke:#999; stroke-width:3;" />
  <rect class="anc_exon" x="98" y="35.0" width="96" height="30" style="fill:#87bcbc;fill-opacity:1.00" />
  <line x1="194" y1="50.0" x2="214" y2="50.0" style="stroke:#999; stroke-width:3;" />
  <line x1="214" y1="50.0" x2="214" y2="50.0" style="stroke:#999; stroke-width:3;" />
  <line x1="214" y1="50.0" x2="214" y2="50.0" style="stroke:#999; stroke-width:3;" />
  <line x1="214" y1="50.0" x2="234" y2="50.0" style="stroke:#999; stroke-width:3;" />
  <rect class="anc_exon" x="234" y="35.0" width="217" height="30" style="fill:#87bcbc;fill-opacity:1.00" />
  <line x1="451" y1="50.0" x2="471" y2="50.0" style="stroke:#999; stroke-width:3;" />
  <line x1="471" y1="50.0" x2="471" y2="50.0" style="stroke:#999; stroke-width:3;" />
  <line x1="471" y1="50.0" x2="471" y2="50.0" style="stroke:#999; stroke-width:3;" />
  <line x1="471" y1="50.0" x2="491" y2="50.0" style="stroke:#999; stroke-width:3;" />
  <rect class="anc_exon" x="491" y="35.0" width="63" height="30" style="fill:#87bcbc;fill-opacity:1.00" />
  <line x1="554" y1="50.0" x2="574" y2="50.0" style="stroke:#999; stroke-width:3;" />
  <line x1="574" y1="50.0" x2="574" y2="50.0" style="stroke:#999; stroke-width:3;" />
  <line x1="574" y1="50.0" x2="574" y2="50.0" style="stroke:#999; stroke-width:3;" />
  <line x1="574" y1="50.0" x2="594" y2="50.0" style="stroke:#999; stroke-width:3;" />
  <rect class="anc_exon" x="594" y="35.0" width="92" height="30" style="fill:#87bcbc;fill-opacity:1.00" />
  <line x1="686" y1="50.0" x2="706" y2="50.0" style="stroke:#999; stroke-width:3;" />
  <line x1="706" y1="50.0" x2="706" y2="50.0" style="stroke:#999; stroke-width:3;" />
  <line x1="706" y1="50.0" x2="706" y2="50.0" style="stroke:#999; stroke-width:3;" />
  <line x1="706" y1="50.0" x2="726" y2="50.0" style="stroke:#999; stroke-width:3;" />
  <rect class="anc_exon" x="726" y="35.0" width="140" height="30" style="fill:#87bcbc;fill-opacity:1.00" />
  <line x1="866" y1="50.0" x2="886" y2="50.0" style="stroke:#999; stroke-width:3;" />
  <line x1="886" y1="50.0" x2="886" y2="50.0" style="stroke:#999; stroke-width:3;" />
  <line x1="886" y1="50.0" x2="886" y2="50.0" style="stroke:#999; stroke-width:3;" />
  <line x1="886" y1="50.0" x2="906" y2="50.0" style="stroke:#999; stroke-width:3;" />
  <rect class="anc_exon" x="906" y="35.0" width="235" height="30" style="fill:#87bcbc;fill-opacity:1.00" />
  <line x1="1141" y1="50.0" x2="1161" y2="50.0" style="stroke:#999; stroke-width:3;" />
  <line x1="1161" y1="50.0" x2="1161" y2="50.0" style="stroke:#999; stroke-width:3;" />
  <line x1="1161" y1="50.0" x2="1161" y2="50.0" style="stroke:#999; stroke-width:3;" />
  <line x1="1161" y1="50.0" x2="1181" y2="50.0" style="stroke:#999; stroke-width:3;" />
  <rect class="anc_exon" x="1181" y="35.0" width="247" height="30" style="fill:#87bcbc;fill-opacity:1.00" />
  <line x1="1428" y1="50.0" x2="1448" y2="50.0" style="stroke:#999; stroke-width:3;" />
  <line x1="1448" y1="50.0" x2="1448" y2="50.0" style="stroke:#999; stroke-width:3;" />
  <line x1="1448" y1="50.0" x2="1448" y2="50.0" style="stroke:#999; stroke-width:3;" />
  <line x1="1448" y1="50.0" x2="1468" y2="50.0" style="stroke:#999; stroke-width:3;" />
  <rect class="anc_exon" x="1468" y="35.0" width="88" height="30" style="fill:#87bcbc;fill-opacity:1.00" />
  <line x1="1556" y1="50.0" x2="1576" y2="50.0" style="stroke:#999; stroke-width:3;" />
  <line x1="1576" y1="50.0" x2="1576" y2="50.0" style="stroke:#999; stroke-width:3;" />
  <line x1="1576" y1="50.0" x2="1576" y2="50.0" style="stroke:#999; stroke-width:3;" />
  <line x1="1576" y1="50.0" x2="1596" y2="50.0" style="stroke:#999; stroke-width:3;" />
  <rect class="anc_exon" x="1596" y="35.0" width="161" height="30" style="fill:#87bcbc;fill-opacity:1.00" />
  <line x1="1757" y1="50.0" x2="1777" y2="50.0" style="stroke:#999; stroke-width:3;" />
  <line x1="1777" y1="50.0" x2="1777" y2="50.0" style="stroke:#999; stroke-width:3;" />
  <line x1="1777" y1="50.0" x2="1777" y2="50.0" style="stroke:#999; stroke-width:3;" />
  <line x1="1777" y1="50.0" x2="1797" y2="50.0" style="stroke:#999; stroke-width:3;" />
  <rect class="anc_exon" x="1797" y="35.0" width="82" height="30" style="fill:#87bcbc;fill-opacity:1.00" />
  <line x1="1879" y1="50.0" x2="1899" y2="50.0" style="stroke:#999; stroke-width:3;" />
  <line x1="1899" y1="50.0" x2="1899" y2="50.0" style="stroke:#999; stroke-width:3;" />
  <line x1="1899" y1="50.0" x2="1899" y2="50.0" style="stroke:#999; stroke-width:3;" />
  <line x1="1899" y1="50.0" x2="1919" y2="50.0" style="stroke:#999; stroke-width:3;" />
  <rect class="anc_exon" x="1919" y="35.0" width="219" height="30" style="fill:#87bcbc;fill-opacity:1.00" />
  <line x1="2138" y1="50.0" x2="2178" y2="50.0" style="stroke:#999; stroke-width:3;" />
  <rect class="anc_exon" x="2178" y="35.0" width="29" height="30" style="fill:#87bcbc;fill-opacity:1.00" />
  <line x1="2207" y1="50.0" x2="2227" y2="50.0" style="stroke:#999; stroke-width:3;" />
  <line x1="2227" y1="50.0" x2="2227" y2="50.0" style="stroke:#999; stroke-width:3;" />
  <line x1="2227" y1="50.0" x2="2227" y2="50.0" style="stroke:#999; stroke-width:3;" />
  <line x1="2227" y1="50.0" x2="2247" y2="50.0" style="stroke:#999; stroke-width:3;" />
  <rect class="anc_exon" x="2247" y="35.0" width="106" height="30" style="fill:#87bcbc;fill-opacity:1.00" />
  <line x1="2353" y1="50.0" x2="2373" y2="50.0" style="stroke:#999; stroke-width:3;" />
  <line x1="2373" y1="50.0" x2="2373" y2="50.0" style="stroke:#999; stroke-width:3;" />
  <line x1="2373" y1="50.0" x2="2373" y2="50.0" style="stroke:#999; stroke-width:3;" />
  <line x1="2373" y1="50.0" x2="2393" y2="50.0" style="stroke:#999; stroke-width:3;" />
  <rect class="anc_exon" x="2393" y="35.0" width="121" height="30" style="fill:#87bcbc;fill-opacity:1.00" />
  <line x1="2514" y1="50.0" x2="2534" y2="50.0" style="stroke:#999; stroke-width:3;" />
  <line x1="2534" y1="50.0" x2="2534" y2="50.0" style="stroke:#999; stroke-width:3;" />
  <line x1="2534" y1="50.0" x2="2534" y2="50.0" style="stroke:#999; stroke-width:3;" />
  <line x1="2534" y1="50.0" x2="2554" y2="50.0" style="stroke:#999; stroke-width:3;" />
  <rect class="anc_exon" x="2554" y="35.0" width="60" height="30" style="fill:#87bcbc;fill-opacity:1.00" />
  <line x1="2614" y1="50.0" x2="2654" y2="50.0" style="stroke:#999; stroke-width:3;" />
  <rect class="anc_exon" x="2654" y="35.0" width="21" height="30" style="fill:#87bcbc;fill-opacity:1.00" />
  <line x1="2675" y1="50.0" x2="2695" y2="50.0" style="stroke:#999; stroke-width:3;" />
  <line x1="2695" y1="50.0" x2="2695" y2="50.0" style="stroke:#999; stroke-width:3;" />
  <line x1="2695" y1="50.0" x2="2695" y2="50.0" style="stroke:#999; stroke-width:3;" />
  <line x1="2695" y1="50.0" x2="2715" y2="50.0" style="stroke:#999; stroke-width:3;" />
  <rect class="anc_exon" x="2715" y="35.0" width="9" height="30" style="fill:#87bcbc;fill-opacity:1.00" />
  <line x1="2724" y1="50.0" x2="2764" y2="50.0" style="stroke:#999; stroke-width:3;" />
  <rect class="anc_exon" x="2764" y="35.0" width="150" height="30" style="fill:#87bcbc;fill-opacity:1.00" />
  <line x1="2914" y1="50.0" x2="2934" y2="50.0" style="stroke:#999; stroke-width:3;" />
  <line x1="2934" y1="50.0" x2="2934" y2="50.0" style="stroke:#999; stroke-width:3;" />
  <line x1="2934" y1="50.0" x2="2934" y2="50.0" style="stroke:#999; stroke-width:3;" />
  <line x1="2934" y1="50.0" x2="2954" y2="50.0" style="stroke:#999; stroke-width:3;" />
  <rect class="anc_exon" x="2954" y="35.0" width="70" height="30" style="fill:#87bcbc;fill-opacity:1.00" />
  <line x1="3024" y1="50.0" x2="3044" y2="50.0" style="stroke:#999; stroke-width:3;" />
  <line x1="3044" y1="50.0" x2="3044" y2="50.0" style="stroke:#999; stroke-width:3;" />
  <line x1="3044" y1="50.0" x2="3044" y2="50.0" style="stroke:#999; stroke-width:3;" />
  <line x1="3044" y1="50.0" x2="3064" y2="50.0" style="stroke:#999; stroke-width:3;" />
  <rect class="anc_exon" x="3064" y="35.0" width="61" height="30" style="fill:#87bcbc;fill-opacity:1.00" />
  <line x1="3125" y1="50.0" x2="3145" y2="50.0" style="stroke:#999; stroke-width:3;" />
  <line x1="3145" y1="50.0" x2="3145" y2="50.0" style="stroke:#999; stroke-width:3;" />
  <line x1="3145" y1="50.0" x2="3145" y2="50.0" style="stroke:#999; stroke-width:3;" />
  <line x1="3145" y1="50.0" x2="3165" y2="50.0" style="stroke:#999; stroke-width:3;" />
  <rect class="anc_exon" x="3165" y="35.0" width="29" height="30" style="fill:#87bcbc;fill-opacity:1.00" />
  <line x1="3194" y1="50.0" x2="3214" y2="50.0" style="stroke:#999; stroke-width:3;" />
  <line x1="3214" y1="50.0" x2="3214" y2="50.0" style="stroke:#999; stroke-width:3;" />
  <line x1="3214" y1="50.0" x2="3214" y2="50.0" style="stroke:#999; stroke-width:3;" />
  <line x1="3214" y1="50.0" x2="3234" y2="50.0" style="stroke:#999; stroke-width:3;" />
  <rect class="anc_exon" x="3234" y="35.0" width="78" height="30" style="fill:#87bcbc;fill-opacity:1.00" />
  <line x1="3312" y1="50.0" x2="3332" y2="50.0" style="stroke:#999; stroke-width:3;" />
  <line x1="3332" y1="50.0" x2="3332" y2="50.0" style="stroke:#999; stroke-width:3;" />
  <line x1="3332" y1="50.0" x2="3332" y2="50.0" style="stroke:#999; stroke-width:3;" />
  <line x1="3332" y1="50.0" x2="3352" y2="50.0" style="stroke:#999; stroke-width:3;" />
  <rect class="anc_exon" x="3352" y="35.0" width="93" height="30" style="fill:#87bcbc;fill-opacity:1.00" />
  <line x1="3445" y1="50.0" x2="3465" y2="50.0" style="stroke:#999; stroke-width:3;" />
  <line x1="3465" y1="50.0" x2="3465" y2="50.0" style="stroke:#999; stroke-width:3;" />
  <line x1="3465" y1="50.0" x2="3465" y2="50.0" style="stroke:#999; stroke-width:3;" />
  <line x1="3465" y1="50.0" x2="3485" y2="50.0" style="stroke:#999; stroke-width:3;" />
  <rect class="anc_exon" x="3485" y="35.0" width="124" height="30" style="fill:#87bcbc;fill-opacity:1.00" />
  <line x1="3609" y1="50.0" x2="3649" y2="50.0" style="stroke:#999; stroke-width:3;" />
  <rect class="anc_exon" x="3649" y="35.0" width="108" height="30" style="fill:#87bcbc;fill-opacity:1.00" />
  <line x1="3757" y1="50.0" x2="3797" y2="50.0" style="stroke:#999; stroke-width:3;" />
  <rect class="anc_exon" x="3797" y="35.0" width="120" height="30" style="fill:#87bcbc;fill-opacity:1.00" />
  <line x1="3917" y1="50.0" x2="3957" y2="50.0" style="stroke:#999; stroke-width:3;" />
  <rect class="anc_exon" x="3957" y="35.0" width="139" height="30" style="fill:#87bcbc;fill-opacity:1.00" />
  <line x1="4096" y1="50.0" x2="4116" y2="50.0" style="stroke:#999; stroke-width:3;" />
  <line x1="4116" y1="50.0" x2="4116" y2="50.0" style="stroke:#999; stroke-width:3;" />
  <line x1="4116" y1="50.0" x2="4116" y2="50.0" style="stroke:#999; stroke-width:3;" />
  <line x1="4116" y1="50.0" x2="4136" y2="50.0" style="stroke:#999; stroke-width:3;" />
  <rect class="anc_exon" x="4136" y="35.0" width="105" height="30" style="fill:#87bcbc;fill-opacity:1.00" />
  <line x1="4241" y1="50.0" x2="4261" y2="50.0" style="stroke:#999; stroke-width:3;" />
  <line x1="4261" y1="50.0" x2="4261" y2="50.0" style="stroke:#999; stroke-width:3;" />
  <line x1="4261" y1="50.0" x2="4261" y2="50.0" style="stroke:#999; stroke-width:3;" />
  <line x1="4261" y1="50.0" x2="4281" y2="50.0" style="stroke:#999; stroke-width:3;" />
  <rect class="anc_exon" x="4281" y="35.0" width="100" height="30" style="fill:#878787;fill-opacity:1.00" />
  <line x1="4381" y1="50.0" x2="4421" y2="50.0" style="stroke:#999; stroke-width:3;" />
  <rect class="anc_exon" x="4421" y="35.0" width="131" height="30" style="fill:#878787;fill-opacity:1.00" />
  <line x1="4552" y1="50.0" x2="4572" y2="50.0" style="stroke:#999; stroke-width:3;" />
  <line x1="4572" y1="50.0" x2="4572" y2="50.0" style="stroke:#999; stroke-width:3;" />
  <line x1="4572" y1="50.0" x2="4572" y2="50.0" style="stroke:#999; stroke-width:3;" />
  <line x1="4572" y1="50.0" x2="4592" y2="50.0" style="stroke:#999; stroke-width:3;" />
  <rect class="anc_exon" x="4592" y="35.0" width="108" height="30" style="fill:#87bcbc;fill-opacity:1.00" />
  <line x1="4700" y1="50.0" x2="4720" y2="50.0" style="stroke:#999; stroke-width:3;" />
  <line x1="4720" y1="50.0" x2="4720" y2="50.0" style="stroke:#999; stroke-width:3;" />
  <line x1="4720" y1="50.0" x2="4720" y2="50.0" style="stroke:#999; stroke-width:3;" />
  <line x1="4720" y1="50.0" x2="4740" y2="50.0" style="stroke:#999; stroke-width:3;" />
  <rect class="anc_exon" x="4740" y="35.0" width="43" height="30" style="fill:#87bcbc;fill-opacity:1.00" />
  <rect class="anc_exon" x="4783" y="35.0" width="0" height="30" style="fill:#87bcbc;fill-opacity:1.00" />
  <text style="" >
<tspan x="0" y="83.0" style="font-size:18px;" >SP XM_031953819_1.1</tspan>  </text>



<script type="text/ecmascript">
<![CDATA[
function draw_bbox(text_id)
{
    var text_elem = document.getElementById(text_id);
    var offset_px = 2;
    var offset_py = 0;
    bbox = text_elem.getBBox();
    var box = document.createElementNS(document.rootElement.namespaceURI,'rect');
    box.setAttribute('x', bbox.x - offset_px);
    box.setAttribute('y', bbox.y - offset_py);
    box.setAttribute('width', bbox.width + offset_px * 2);
    box.setAttribute('height', bbox.height + offset_py * 2);
    box.setAttribute('style','fill: white;'+'stroke: black;'+'stroke-width: 1px;');
    text_elem.insertBefore(box,text_elem.childNodes[0]);

    var svg = text_elem.parentNode;
    svg.appendChild(text_elem);
}

for (var i=1; i < 1; i++)
{
draw_bbox("Mouseover" + i);
}
]]> 
</script>
</svg>
