<svg version="1.1"
xmlns="http://www.w3.org/2000/svg"
xmlns:xlink="http://www.w3.org/1999/xlink"
width="3006" height="100" viewBox = "0 0 3006 100"
onclick="mouseclick(evt)">

<script type="text/ecmascript">

<![CDATA[
    function mouseover(evt, target) { 
    var gv = document.getElementById("globalVariable");
    var previoustarget = gv.firstChild.nodeValue;
    if (previoustarget != "none") 
    {
        	document.getElementById(gv.firstChild.nodeValue).setAttributeNS(null, "visibility", "hidden");
    }
    document.getElementById(target).setAttributeNS(null, "visibility", "visible");
    gv.firstChild.nodeValue = target;
        }

    function mouseclick(evt) { 
    var gv = document.getElementById("globalVariable");
    var previoustarget = gv.firstChild.nodeValue;
    if (previoustarget != "none") {
        	document.getElementById(gv.firstChild.nodeValue).setAttributeNS(null, "visibility", "hidden");
        }
    }
]]>
  </script>
<style type="text/css" >

<![CDATA[
    rect.anc_exon {
              stroke-width:3;
                  }

    rect.non_anc_exon {
              stroke: black; stroke-width:3; stroke-dasharray: 5,5;
                    }

    text {
              font-size: 18px;
              font-family: Courier New;
          }
                    ]]>
</style>

<defs>
    <text x="150" y="40" id="globalVariable">none</text>
</defs>

  <rect class="anc_exon" x="0" y="35.0" width="0" height="30" style="fill:#87bcbc;fill-opacity:1.00" />
  <rect class="anc_exon" x="0" y="35.0" width="113.60000000000001" height="30" style="fill:#87bcbc;fill-opacity:1.00" />
  <line x1="113.60000000000001" y1="50.0" x2="132.60000000000002" y2="50.0" style="stroke:#999; stroke-width:3;" />
  <line x1="132.60000000000002" y1="50.0" x2="132.60000000000002" y2="50.0" style="stroke:#999; stroke-width:3;" />
  <line x1="132.60000000000002" y1="50.0" x2="132.60000000000002" y2="50.0" style="stroke:#999; stroke-width:3;" />
  <line x1="132.60000000000002" y1="50.0" x2="153.0" y2="50.0" style="stroke:#999; stroke-width:3;" />
  <rect class="anc_exon" x="153" y="35.0" width="456" height="30" style="fill:#87bcbc;fill-opacity:1.00" />
  <line x1="609" y1="50.0" x2="629" y2="50.0" style="stroke:#999; stroke-width:3;" />
  <line x1="629" y1="50.0" x2="629" y2="50.0" style="stroke:#999; stroke-width:3;" />
  <line x1="629" y1="50.0" x2="629" y2="50.0" style="stroke:#999; stroke-width:3;" />
  <line x1="629" y1="50.0" x2="649" y2="50.0" style="stroke:#999; stroke-width:3;" />
  <rect class="anc_exon" x="649" y="35.0" width="98" height="30" style="fill:#87bcbc;fill-opacity:1.00" />
  <line x1="747" y1="50.0" x2="767" y2="50.0" style="stroke:#999; stroke-width:3;" />
  <line x1="767" y1="50.0" x2="767" y2="50.0" style="stroke:#999; stroke-width:3;" />
  <line x1="767" y1="50.0" x2="767" y2="50.0" style="stroke:#999; stroke-width:3;" />
  <line x1="767" y1="50.0" x2="787" y2="50.0" style="stroke:#999; stroke-width:3;" />
  <rect class="anc_exon" x="787" y="35.0" width="98" height="30" style="fill:#87bcbc;fill-opacity:1.00" />
  <line x1="885" y1="50.0" x2="905" y2="50.0" style="stroke:#999; stroke-width:3;" />
  <line x1="905" y1="50.0" x2="905" y2="50.0" style="stroke:#999; stroke-width:3;" />
  <line x1="905" y1="50.0" x2="905" y2="50.0" style="stroke:#999; stroke-width:3;" />
  <line x1="905" y1="50.0" x2="925" y2="50.0" style="stroke:#999; stroke-width:3;" />
  <rect class="anc_exon" x="925" y="35.0" width="98" height="30" style="fill:#87bcbc;fill-opacity:1.00" />
  <line x1="1023" y1="50.0" x2="1043" y2="50.0" style="stroke:#999; stroke-width:3;" />
  <line x1="1043" y1="50.0" x2="1043" y2="50.0" style="stroke:#999; stroke-width:3;" />
  <line x1="1043" y1="50.0" x2="1043" y2="50.0" style="stroke:#999; stroke-width:3;" />
  <line x1="1043" y1="50.0" x2="1063" y2="50.0" style="stroke:#999; stroke-width:3;" />
  <rect class="anc_exon" x="1063" y="35.0" width="98" height="30" style="fill:#87bcbc;fill-opacity:1.00" />
  <line x1="1161" y1="50.0" x2="1181" y2="50.0" style="stroke:#999; stroke-width:3;" />
  <line x1="1181" y1="50.0" x2="1181" y2="50.0" style="stroke:#999; stroke-width:3;" />
  <line x1="1181" y1="50.0" x2="1181" y2="50.0" style="stroke:#999; stroke-width:3;" />
  <line x1="1181" y1="50.0" x2="1201" y2="50.0" style="stroke:#999; stroke-width:3;" />
  <rect class="anc_exon" x="1201" y="35.0" width="98" height="30" style="fill:#87bcbc;fill-opacity:1.00" />
  <line x1="1299" y1="50.0" x2="1319" y2="50.0" style="stroke:#999; stroke-width:3;" />
  <line x1="1319" y1="50.0" x2="1319" y2="50.0" style="stroke:#999; stroke-width:3;" />
  <line x1="1319" y1="50.0" x2="1319" y2="50.0" style="stroke:#999; stroke-width:3;" />
  <line x1="1319" y1="50.0" x2="1339" y2="50.0" style="stroke:#999; stroke-width:3;" />
  <rect class="anc_exon" x="1339" y="35.0" width="98" height="30" style="fill:#87bcbc;fill-opacity:1.00" />
  <line x1="1437" y1="50.0" x2="1457" y2="50.0" style="stroke:#999; stroke-width:3;" />
  <line x1="1457" y1="50.0" x2="1457" y2="50.0" style="stroke:#999; stroke-width:3;" />
  <line x1="1457" y1="50.0" x2="1457" y2="50.0" style="stroke:#999; stroke-width:3;" />
  <line x1="1457" y1="50.0" x2="1477" y2="50.0" style="stroke:#999; stroke-width:3;" />
  <rect class="anc_exon" x="1477" y="35.0" width="98" height="30" style="fill:#87bcbc;fill-opacity:1.00" />
  <line x1="1575" y1="50.0" x2="1595" y2="50.0" style="stroke:#999; stroke-width:3;" />
  <line x1="1595" y1="50.0" x2="1595" y2="50.0" style="stroke:#999; stroke-width:3;" />
  <line x1="1595" y1="50.0" x2="1595" y2="50.0" style="stroke:#999; stroke-width:3;" />
  <line x1="1595" y1="50.0" x2="1615" y2="50.0" style="stroke:#999; stroke-width:3;" />
  <rect class="anc_exon" x="1615" y="35.0" width="98" height="30" style="fill:#87bcbc;fill-opacity:1.00" />
  <line x1="1713" y1="50.0" x2="1753" y2="50.0" style="stroke:#999; stroke-width:3;" />
  <rect class="anc_exon" x="1753" y="35.0" width="98" height="30" style="fill:#87bcbc;fill-opacity:1.00" />
  <line x1="1851" y1="50.0" x2="1891" y2="50.0" style="stroke:#999; stroke-width:3;" />
  <rect class="anc_exon" x="1891" y="35.0" width="98" height="30" style="fill:#87bcbc;fill-opacity:1.00" />
  <line x1="1989" y1="50.0" x2="2009" y2="50.0" style="stroke:#999; stroke-width:3;" />
  <line x1="2009" y1="50.0" x2="2009" y2="50.0" style="stroke:#999; stroke-width:3;" />
  <line x1="2009" y1="50.0" x2="2009" y2="50.0" style="stroke:#999; stroke-width:3;" />
  <line x1="2009" y1="50.0" x2="2029" y2="50.0" style="stroke:#999; stroke-width:3;" />
  <rect class="anc_exon" x="2029" y="35.0" width="331" height="30" style="fill:#87bcbc;fill-opacity:1.00" />
  <line x1="2360" y1="50.0" x2="2380" y2="50.0" style="stroke:#999; stroke-width:3;" />
  <line x1="2380" y1="50.0" x2="2380" y2="50.0" style="stroke:#999; stroke-width:3;" />
  <line x1="2380" y1="50.0" x2="2380" y2="50.0" style="stroke:#999; stroke-width:3;" />
  <line x1="2380" y1="50.0" x2="2400" y2="50.0" style="stroke:#999; stroke-width:3;" />
  <rect class="anc_exon" x="2400" y="35.0" width="122" height="30" style="fill:#87bcbc;fill-opacity:1.00" />
  <line x1="2522" y1="50.0" x2="2542" y2="50.0" style="stroke:#999; stroke-width:3;" />
  <line x1="2542" y1="50.0" x2="2542" y2="50.0" style="stroke:#999; stroke-width:3;" />
  <line x1="2542" y1="50.0" x2="2542" y2="50.0" style="stroke:#999; stroke-width:3;" />
  <line x1="2542" y1="50.0" x2="2562" y2="50.0" style="stroke:#999; stroke-width:3;" />
  <rect class="anc_exon" x="2562" y="35.0" width="57" height="30" style="fill:#87bcbc;fill-opacity:1.00" />
  <line x1="2619" y1="50.0" x2="2639" y2="50.0" style="stroke:#999; stroke-width:3;" />
  <line x1="2639" y1="50.0" x2="2639" y2="50.0" style="stroke:#999; stroke-width:3;" />
  <line x1="2639" y1="50.0" x2="2639" y2="50.0" style="stroke:#999; stroke-width:3;" />
  <line x1="2639" y1="50.0" x2="2659" y2="50.0" style="stroke:#999; stroke-width:3;" />
  <rect class="anc_exon" x="2659" y="35.0" width="108" height="30" style="fill:#87bcbc;fill-opacity:1.00" />
  <line x1="2767" y1="50.0" x2="2807" y2="50.0" style="stroke:#999; stroke-width:3;" />
  <rect class="anc_exon" x="2807" y="35.0" width="79" height="30" style="fill:#87bcbc;fill-opacity:1.00" />
  <line x1="2886" y1="50.0" x2="2906" y2="50.0" style="stroke:#999; stroke-width:3;" />
  <line x1="2906" y1="50.0" x2="2906" y2="50.0" style="stroke:#999; stroke-width:3;" />
  <line x1="2906" y1="50.0" x2="2906" y2="50.0" style="stroke:#999; stroke-width:3;" />
  <line x1="2906" y1="50.0" x2="2926" y2="50.0" style="stroke:#999; stroke-width:3;" />
  <rect class="anc_exon" x="2926" y="35.0" width="44" height="30" style="fill:#87bcbc;fill-opacity:1.00" />
  <rect class="anc_exon" x="2970" y="35.0" width="0" height="30" style="fill:#87bcbc;fill-opacity:1.00" />
  <text style="" >
<tspan x="0" y="83.0" style="font-size:18px;" >SP XM_031947023_1.1</tspan>  </text>
  <text style="fill:#121212;" >
<tspan x="2886" y="50.0" style="font-size:18px;fill:#121212;" >at</tspan>  </text>
  <text style="fill:#121212;" >
<tspan x="2902.96" y="68.0" style="font-size:18px;fill:#121212;" >cg</tspan>  </text>



<script type="text/ecmascript">
<![CDATA[
function draw_bbox(text_id)
{
    var text_elem = document.getElementById(text_id);
    var offset_px = 2;
    var offset_py = 0;
    bbox = text_elem.getBBox();
    var box = document.createElementNS(document.rootElement.namespaceURI,'rect');
    box.setAttribute('x', bbox.x - offset_px);
    box.setAttribute('y', bbox.y - offset_py);
    box.setAttribute('width', bbox.width + offset_px * 2);
    box.setAttribute('height', bbox.height + offset_py * 2);
    box.setAttribute('style','fill: white;'+'stroke: black;'+'stroke-width: 1px;');
    text_elem.insertBefore(box,text_elem.childNodes[0]);

    var svg = text_elem.parentNode;
    svg.appendChild(text_elem);
}

for (var i=1; i < 1; i++)
{
draw_bbox("Mouseover" + i);
}
]]> 
</script>
</svg>
