<svg version="1.1"
xmlns="http://www.w3.org/2000/svg"
xmlns:xlink="http://www.w3.org/1999/xlink"
width="3581" height="110.0" viewBox = "0 -10.0 3581 110.0"
onclick="mouseclick(evt)">

<script type="text/ecmascript">

<![CDATA[
    function mouseover(evt, target) { 
    var gv = document.getElementById("globalVariable");
    var previoustarget = gv.firstChild.nodeValue;
    if (previoustarget != "none") 
    {
        	document.getElementById(gv.firstChild.nodeValue).setAttributeNS(null, "visibility", "hidden");
    }
    document.getElementById(target).setAttributeNS(null, "visibility", "visible");
    gv.firstChild.nodeValue = target;
        }

    function mouseclick(evt) { 
    var gv = document.getElementById("globalVariable");
    var previoustarget = gv.firstChild.nodeValue;
    if (previoustarget != "none") {
        	document.getElementById(gv.firstChild.nodeValue).setAttributeNS(null, "visibility", "hidden");
        }
    }
]]>
  </script>
<style type="text/css" >

<![CDATA[
    rect.anc_exon {
              stroke-width:3;
                  }

    rect.non_anc_exon {
              stroke: black; stroke-width:3; stroke-dasharray: 5,5;
                    }

    text {
              font-size: 18px;
              font-family: Courier New;
          }
                    ]]>
</style>

<defs>
    <text x="150" y="40" id="globalVariable">none</text>
</defs>

  <rect class="anc_exon" x="0" y="35.0" width="0" height="30" style="fill:#87bcbc;fill-opacity:1.00" />
  <rect class="anc_exon" x="0" y="35.0" width="379.20000000000005" height="30" style="fill:#87bcbc;fill-opacity:1.00" />
  <line x1="379.20000000000005" y1="50.0" x2="398.20000000000005" y2="50.0" style="stroke:#999; stroke-width:3;" />
  <line x1="398.20000000000005" y1="50.0" x2="398.20000000000005" y2="50.0" style="stroke:#999; stroke-width:3;" />
  <line x1="398.20000000000005" y1="50.0" x2="398.20000000000005" y2="50.0" style="stroke:#999; stroke-width:3;" />
  <line x1="398.20000000000005" y1="50.0" x2="419.0" y2="50.0" style="stroke:#999; stroke-width:3;" />
  <rect class="anc_exon" x="419" y="35.0" width="197" height="30" style="fill:#87bcbc;fill-opacity:1.00" />
  <line x1="616" y1="50.0" x2="636" y2="50.0" style="stroke:#999; stroke-width:3;" />
  <line x1="636" y1="50.0" x2="636" y2="50.0" style="stroke:#999; stroke-width:3;" />
  <line x1="636" y1="50.0" x2="636" y2="50.0" style="stroke:#999; stroke-width:3;" />
  <line x1="636" y1="50.0" x2="656" y2="50.0" style="stroke:#999; stroke-width:3;" />
  <rect class="anc_exon" x="656" y="35.0" width="66" height="30" style="fill:#87bcbc;fill-opacity:1.00" />
  <line x1="722" y1="50.0" x2="762" y2="50.0" style="stroke:#999; stroke-width:3;" />
  <rect class="anc_exon" x="762" y="35.0" width="72" height="30" style="fill:#87bcbc;fill-opacity:1.00" />
  <line x1="834" y1="50.0" x2="854" y2="50.0" style="stroke:#999; stroke-width:3;" />
  <line x1="854" y1="50.0" x2="854" y2="50.0" style="stroke:#999; stroke-width:3;" />
  <line x1="854" y1="50.0" x2="854" y2="50.0" style="stroke:#999; stroke-width:3;" />
  <line x1="854" y1="50.0" x2="874" y2="50.0" style="stroke:#999; stroke-width:3;" />
  <rect class="anc_exon" x="874" y="35.0" width="103" height="30" style="fill:#87bcbc;fill-opacity:1.00" />
  <line x1="977" y1="50.0" x2="1017" y2="50.0" style="stroke:#999; stroke-width:3;" />
  <rect class="anc_exon" x="1017" y="35.0" width="77" height="30" style="fill:#87bcbc;fill-opacity:1.00" />
  <line x1="1094" y1="50.0" x2="1114" y2="50.0" style="stroke:#999; stroke-width:3;" />
  <line x1="1114" y1="50.0" x2="1114" y2="50.0" style="stroke:#999; stroke-width:3;" />
  <line x1="1114" y1="50.0" x2="1114" y2="50.0" style="stroke:#999; stroke-width:3;" />
  <line x1="1114" y1="50.0" x2="1134" y2="50.0" style="stroke:#999; stroke-width:3;" />
  <rect class="anc_exon" x="1134" y="35.0" width="40" height="30" style="fill:#87bcbc;fill-opacity:1.00" />
  <line x1="1168.0" y1="35.0" x2="1168.0" y2="65.0" style="stroke:#121212; stroke-width:0.8; stroke-opacity:1"/>
  <text style="" text-anchor="middle">
<tspan x="1167.6" y="26.0" style="font-size:18px;fill:#121212;" >-1</tspan>  </text>
  <line x1="1174" y1="50.0" x2="1194" y2="50.0" style="stroke:#999; stroke-width:3;" />
  <line x1="1194" y1="50.0" x2="1194" y2="50.0" style="stroke:#999; stroke-width:3;" />
  <line x1="1194" y1="50.0" x2="1194" y2="50.0" style="stroke:#999; stroke-width:3;" />
  <line x1="1194" y1="50.0" x2="1214" y2="50.0" style="stroke:#999; stroke-width:3;" />
  <rect class="anc_exon" x="1214" y="35.0" width="78" height="30" style="fill:#87bcbc;fill-opacity:1.00" />
  <line x1="1292" y1="50.0" x2="1332" y2="50.0" style="stroke:#999; stroke-width:3;" />
  <rect class="anc_exon" x="1332" y="35.0" width="227" height="30" style="fill:#87bcbc;fill-opacity:1.00" />
  <line x1="1559" y1="50.0" x2="1579" y2="50.0" style="stroke:#999; stroke-width:3;" />
  <line x1="1579" y1="50.0" x2="1579" y2="50.0" style="stroke:#999; stroke-width:3;" />
  <line x1="1579" y1="50.0" x2="1579" y2="50.0" style="stroke:#999; stroke-width:3;" />
  <line x1="1579" y1="50.0" x2="1599" y2="50.0" style="stroke:#999; stroke-width:3;" />
  <rect class="anc_exon" x="1599" y="35.0" width="70" height="30" style="fill:#87bcbc;fill-opacity:1.00" />
  <line x1="1669" y1="50.0" x2="1689" y2="50.0" style="stroke:#999; stroke-width:3;" />
  <line x1="1689" y1="50.0" x2="1689" y2="50.0" style="stroke:#999; stroke-width:3;" />
  <line x1="1689" y1="50.0" x2="1689" y2="50.0" style="stroke:#999; stroke-width:3;" />
  <line x1="1689" y1="50.0" x2="1709" y2="50.0" style="stroke:#999; stroke-width:3;" />
  <rect class="anc_exon" x="1709" y="35.0" width="180" height="30" style="fill:#87bcbc;fill-opacity:1.00" />
  <line x1="1889" y1="50.0" x2="1909" y2="50.0" style="stroke:#999; stroke-width:3;" />
  <line x1="1909" y1="50.0" x2="1909" y2="50.0" style="stroke:#999; stroke-width:3;" />
  <line x1="1909" y1="50.0" x2="1909" y2="50.0" style="stroke:#999; stroke-width:3;" />
  <line x1="1909" y1="50.0" x2="1929" y2="50.0" style="stroke:#999; stroke-width:3;" />
  <rect class="anc_exon" x="1929" y="35.0" width="140" height="30" style="fill:#87bcbc;fill-opacity:1.00" />
  <line x1="2069" y1="50.0" x2="2089" y2="50.0" style="stroke:#999; stroke-width:3;" />
  <line x1="2089" y1="50.0" x2="2089" y2="50.0" style="stroke:#999; stroke-width:3;" />
  <line x1="2089" y1="50.0" x2="2089" y2="50.0" style="stroke:#999; stroke-width:3;" />
  <line x1="2089" y1="50.0" x2="2109" y2="50.0" style="stroke:#999; stroke-width:3;" />
  <rect class="anc_exon" x="2109" y="35.0" width="200" height="30" style="fill:#87bcbc;fill-opacity:1.00" />
  <line x1="2309" y1="50.0" x2="2329" y2="50.0" style="stroke:#999; stroke-width:3;" />
  <line x1="2329" y1="50.0" x2="2329" y2="50.0" style="stroke:#999; stroke-width:3;" />
  <line x1="2329" y1="50.0" x2="2329" y2="50.0" style="stroke:#999; stroke-width:3;" />
  <line x1="2329" y1="50.0" x2="2349" y2="50.0" style="stroke:#999; stroke-width:3;" />
  <rect class="anc_exon" x="2349" y="35.0" width="92" height="30" style="fill:#87bcbc;fill-opacity:1.00" />
  <line x1="2441" y1="50.0" x2="2461" y2="50.0" style="stroke:#999; stroke-width:3;" />
  <line x1="2461" y1="50.0" x2="2461" y2="50.0" style="stroke:#999; stroke-width:3;" />
  <line x1="2461" y1="50.0" x2="2461" y2="50.0" style="stroke:#999; stroke-width:3;" />
  <line x1="2461" y1="50.0" x2="2481" y2="50.0" style="stroke:#999; stroke-width:3;" />
  <rect class="anc_exon" x="2481" y="35.0" width="168" height="30" style="fill:#87bcbc;fill-opacity:1.00" />
  <line x1="2649" y1="50.0" x2="2689" y2="50.0" style="stroke:#999; stroke-width:3;" />
  <rect class="anc_exon" x="2689" y="35.0" width="147" height="30" style="fill:#87bcbc;fill-opacity:1.00" />
  <line x1="2836" y1="50.0" x2="2876" y2="50.0" style="stroke:#999; stroke-width:3;" />
  <rect class="anc_exon" x="2876" y="35.0" width="110" height="30" style="fill:#87bcbc;fill-opacity:1.00" />
  <line x1="2986" y1="50.0" x2="3006" y2="50.0" style="stroke:#999; stroke-width:3;" />
  <line x1="3006" y1="50.0" x2="3006" y2="50.0" style="stroke:#999; stroke-width:3;" />
  <line x1="3006" y1="50.0" x2="3006" y2="50.0" style="stroke:#999; stroke-width:3;" />
  <line x1="3006" y1="50.0" x2="3026" y2="50.0" style="stroke:#999; stroke-width:3;" />
  <rect class="anc_exon" x="3026" y="35.0" width="113" height="30" style="fill:#87bcbc;fill-opacity:1.00" />
  <line x1="3139" y1="50.0" x2="3159" y2="50.0" style="stroke:#999; stroke-width:3;" />
  <line x1="3159" y1="50.0" x2="3159" y2="50.0" style="stroke:#999; stroke-width:3;" />
  <line x1="3159" y1="50.0" x2="3159" y2="50.0" style="stroke:#999; stroke-width:3;" />
  <line x1="3159" y1="50.0" x2="3179" y2="50.0" style="stroke:#999; stroke-width:3;" />
  <rect class="anc_exon" x="3179" y="35.0" width="77" height="30" style="fill:#87bcbc;fill-opacity:1.00" />
  <line x1="3256" y1="50.0" x2="3276" y2="50.0" style="stroke:#999; stroke-width:3;" />
  <line x1="3276" y1="50.0" x2="3276" y2="50.0" style="stroke:#999; stroke-width:3;" />
  <line x1="3276" y1="50.0" x2="3276" y2="50.0" style="stroke:#999; stroke-width:3;" />
  <line x1="3276" y1="50.0" x2="3296" y2="50.0" style="stroke:#999; stroke-width:3;" />
  <rect class="anc_exon" x="3296" y="35.0" width="249" height="30" style="fill:#87bcbc;fill-opacity:1.00" />
  <rect class="anc_exon" x="3545" y="35.0" width="0" height="30" style="fill:#87bcbc;fill-opacity:1.00" />
  <text style="" >
<tspan x="0" y="83.0" style="font-size:18px;" >SP XM_031956829_1.1</tspan>  </text>



<script type="text/ecmascript">
<![CDATA[
function draw_bbox(text_id)
{
    var text_elem = document.getElementById(text_id);
    var offset_px = 2;
    var offset_py = 0;
    bbox = text_elem.getBBox();
    var box = document.createElementNS(document.rootElement.namespaceURI,'rect');
    box.setAttribute('x', bbox.x - offset_px);
    box.setAttribute('y', bbox.y - offset_py);
    box.setAttribute('width', bbox.width + offset_px * 2);
    box.setAttribute('height', bbox.height + offset_py * 2);
    box.setAttribute('style','fill: white;'+'stroke: black;'+'stroke-width: 1px;');
    text_elem.insertBefore(box,text_elem.childNodes[0]);

    var svg = text_elem.parentNode;
    svg.appendChild(text_elem);
}

for (var i=1; i < 1; i++)
{
draw_bbox("Mouseover" + i);
}
]]> 
</script>
</svg>
