<svg version="1.1"
xmlns="http://www.w3.org/2000/svg"
xmlns:xlink="http://www.w3.org/1999/xlink"
width="5233" height="100" viewBox = "0 0 5233 100"
onclick="mouseclick(evt)">

<script type="text/ecmascript">

<![CDATA[
    function mouseover(evt, target) { 
    var gv = document.getElementById("globalVariable");
    var previoustarget = gv.firstChild.nodeValue;
    if (previoustarget != "none") 
    {
        	document.getElementById(gv.firstChild.nodeValue).setAttributeNS(null, "visibility", "hidden");
    }
    document.getElementById(target).setAttributeNS(null, "visibility", "visible");
    gv.firstChild.nodeValue = target;
        }

    function mouseclick(evt) { 
    var gv = document.getElementById("globalVariable");
    var previoustarget = gv.firstChild.nodeValue;
    if (previoustarget != "none") {
        	document.getElementById(gv.firstChild.nodeValue).setAttributeNS(null, "visibility", "hidden");
        }
    }
]]>
  </script>
<style type="text/css" >

<![CDATA[
    rect.anc_exon {
              stroke-width:3;
                  }

    rect.non_anc_exon {
              stroke: black; stroke-width:3; stroke-dasharray: 5,5;
                    }

    text {
              font-size: 18px;
              font-family: Courier New;
          }
                    ]]>
</style>

<defs>
    <text x="150" y="40" id="globalVariable">none</text>
</defs>

  <rect class="anc_exon" x="0" y="35.0" width="0" height="30" style="fill:#87bcbc;fill-opacity:1.00" />
  <rect class="anc_exon" x="0" y="35.0" width="38.400000000000006" height="30" style="fill:#87bcbc;fill-opacity:1.00" />
  <line x1="38.400000000000006" y1="50.0" x2="57.400000000000006" y2="50.0" style="stroke:#999; stroke-width:3;" />
  <line x1="57.400000000000006" y1="50.0" x2="57.400000000000006" y2="50.0" style="stroke:#999; stroke-width:3;" />
  <line x1="57.400000000000006" y1="50.0" x2="57.400000000000006" y2="50.0" style="stroke:#999; stroke-width:3;" />
  <line x1="57.400000000000006" y1="50.0" x2="78.0" y2="50.0" style="stroke:#999; stroke-width:3;" />
  <rect class="anc_exon" x="78" y="35.0" width="122" height="30" style="fill:#87bcbc;fill-opacity:1.00" />
  <line x1="200" y1="50.0" x2="240" y2="50.0" style="stroke:#999; stroke-width:3;" />
  <rect class="anc_exon" x="240" y="35.0" width="78" height="30" style="fill:#87bcbc;fill-opacity:1.00" />
  <line x1="318" y1="50.0" x2="338" y2="50.0" style="stroke:#999; stroke-width:3;" />
  <line x1="338" y1="50.0" x2="338" y2="50.0" style="stroke:#999; stroke-width:3;" />
  <line x1="338" y1="50.0" x2="338" y2="50.0" style="stroke:#999; stroke-width:3;" />
  <line x1="338" y1="50.0" x2="358" y2="50.0" style="stroke:#999; stroke-width:3;" />
  <rect class="anc_exon" x="358" y="35.0" width="118" height="30" style="fill:#87bcbc;fill-opacity:1.00" />
  <line x1="476" y1="50.0" x2="496" y2="50.0" style="stroke:#999; stroke-width:3;" />
  <line x1="496" y1="50.0" x2="496" y2="50.0" style="stroke:#999; stroke-width:3;" />
  <line x1="496" y1="50.0" x2="496" y2="50.0" style="stroke:#999; stroke-width:3;" />
  <line x1="496" y1="50.0" x2="516" y2="50.0" style="stroke:#999; stroke-width:3;" />
  <rect class="anc_exon" x="516" y="35.0" width="115" height="30" style="fill:#87bcbc;fill-opacity:1.00" />
  <line x1="631" y1="50.0" x2="651" y2="50.0" style="stroke:#999; stroke-width:3;" />
  <line x1="651" y1="50.0" x2="651" y2="50.0" style="stroke:#999; stroke-width:3;" />
  <line x1="651" y1="50.0" x2="651" y2="50.0" style="stroke:#999; stroke-width:3;" />
  <line x1="651" y1="50.0" x2="671" y2="50.0" style="stroke:#999; stroke-width:3;" />
  <rect class="anc_exon" x="671" y="35.0" width="93" height="30" style="fill:#87bcbc;fill-opacity:1.00" />
  <line x1="764" y1="50.0" x2="784" y2="50.0" style="stroke:#999; stroke-width:3;" />
  <line x1="784" y1="50.0" x2="784" y2="50.0" style="stroke:#999; stroke-width:3;" />
  <line x1="784" y1="50.0" x2="784" y2="50.0" style="stroke:#999; stroke-width:3;" />
  <line x1="784" y1="50.0" x2="804" y2="50.0" style="stroke:#999; stroke-width:3;" />
  <rect class="anc_exon" x="804" y="35.0" width="55" height="30" style="fill:#87bcbc;fill-opacity:1.00" />
  <line x1="859" y1="50.0" x2="879" y2="50.0" style="stroke:#999; stroke-width:3;" />
  <line x1="879" y1="50.0" x2="879" y2="50.0" style="stroke:#999; stroke-width:3;" />
  <line x1="879" y1="50.0" x2="879" y2="50.0" style="stroke:#999; stroke-width:3;" />
  <line x1="879" y1="50.0" x2="899" y2="50.0" style="stroke:#999; stroke-width:3;" />
  <rect class="anc_exon" x="899" y="35.0" width="79" height="30" style="fill:#87bcbc;fill-opacity:1.00" />
  <line x1="978" y1="50.0" x2="998" y2="50.0" style="stroke:#999; stroke-width:3;" />
  <line x1="998" y1="50.0" x2="998" y2="50.0" style="stroke:#999; stroke-width:3;" />
  <line x1="998" y1="50.0" x2="998" y2="50.0" style="stroke:#999; stroke-width:3;" />
  <line x1="998" y1="50.0" x2="1018" y2="50.0" style="stroke:#999; stroke-width:3;" />
  <rect class="anc_exon" x="1018" y="35.0" width="68" height="30" style="fill:#87bcbc;fill-opacity:1.00" />
  <line x1="1086" y1="50.0" x2="1126" y2="50.0" style="stroke:#999; stroke-width:3;" />
  <rect class="anc_exon" x="1126" y="35.0" width="76" height="30" style="fill:#87bcbc;fill-opacity:1.00" />
  <line x1="1202" y1="50.0" x2="1222" y2="50.0" style="stroke:#999; stroke-width:3;" />
  <line x1="1222" y1="50.0" x2="1222" y2="50.0" style="stroke:#999; stroke-width:3;" />
  <line x1="1222" y1="50.0" x2="1222" y2="50.0" style="stroke:#999; stroke-width:3;" />
  <line x1="1222" y1="50.0" x2="1242" y2="50.0" style="stroke:#999; stroke-width:3;" />
  <rect class="anc_exon" x="1242" y="35.0" width="73" height="30" style="fill:#87bcbc;fill-opacity:1.00" />
  <line x1="1315" y1="50.0" x2="1335" y2="50.0" style="stroke:#999; stroke-width:3;" />
  <line x1="1335" y1="50.0" x2="1335" y2="50.0" style="stroke:#999; stroke-width:3;" />
  <line x1="1335" y1="50.0" x2="1335" y2="50.0" style="stroke:#999; stroke-width:3;" />
  <line x1="1335" y1="50.0" x2="1355" y2="50.0" style="stroke:#999; stroke-width:3;" />
  <rect class="anc_exon" x="1355" y="35.0" width="171" height="30" style="fill:#87bcbc;fill-opacity:1.00" />
  <line x1="1526" y1="50.0" x2="1546" y2="50.0" style="stroke:#999; stroke-width:3;" />
  <line x1="1546" y1="50.0" x2="1546" y2="50.0" style="stroke:#999; stroke-width:3;" />
  <line x1="1546" y1="50.0" x2="1546" y2="50.0" style="stroke:#999; stroke-width:3;" />
  <line x1="1546" y1="50.0" x2="1566" y2="50.0" style="stroke:#999; stroke-width:3;" />
  <rect class="anc_exon" x="1566" y="35.0" width="113" height="30" style="fill:#87bcbc;fill-opacity:1.00" />
  <line x1="1679" y1="50.0" x2="1719" y2="50.0" style="stroke:#999; stroke-width:3;" />
  <rect class="anc_exon" x="1719" y="35.0" width="78" height="30" style="fill:#87bcbc;fill-opacity:1.00" />
  <line x1="1797" y1="50.0" x2="1817" y2="50.0" style="stroke:#999; stroke-width:3;" />
  <line x1="1817" y1="50.0" x2="1817" y2="50.0" style="stroke:#999; stroke-width:3;" />
  <line x1="1817" y1="50.0" x2="1817" y2="50.0" style="stroke:#999; stroke-width:3;" />
  <line x1="1817" y1="50.0" x2="1837" y2="50.0" style="stroke:#999; stroke-width:3;" />
  <rect class="anc_exon" x="1837" y="35.0" width="36" height="30" style="fill:#87bcbc;fill-opacity:1.00" />
  <line x1="1873" y1="50.0" x2="1893" y2="50.0" style="stroke:#999; stroke-width:3;" />
  <line x1="1893" y1="50.0" x2="1893" y2="50.0" style="stroke:#999; stroke-width:3;" />
  <line x1="1893" y1="50.0" x2="1893" y2="50.0" style="stroke:#999; stroke-width:3;" />
  <line x1="1893" y1="50.0" x2="1913" y2="50.0" style="stroke:#999; stroke-width:3;" />
  <rect class="anc_exon" x="1913" y="35.0" width="221" height="30" style="fill:#87bcbc;fill-opacity:1.00" />
  <line x1="2134" y1="50.0" x2="2154" y2="50.0" style="stroke:#999; stroke-width:3;" />
  <line x1="2154" y1="50.0" x2="2154" y2="50.0" style="stroke:#999; stroke-width:3;" />
  <line x1="2154" y1="50.0" x2="2154" y2="50.0" style="stroke:#999; stroke-width:3;" />
  <line x1="2154" y1="50.0" x2="2174" y2="50.0" style="stroke:#999; stroke-width:3;" />
  <rect class="anc_exon" x="2174" y="35.0" width="84" height="30" style="fill:#87bcbc;fill-opacity:1.00" />
  <line x1="2258" y1="50.0" x2="2278" y2="50.0" style="stroke:#999; stroke-width:3;" />
  <line x1="2278" y1="50.0" x2="2278" y2="50.0" style="stroke:#999; stroke-width:3;" />
  <line x1="2278" y1="50.0" x2="2278" y2="50.0" style="stroke:#999; stroke-width:3;" />
  <line x1="2278" y1="50.0" x2="2298" y2="50.0" style="stroke:#999; stroke-width:3;" />
  <rect class="anc_exon" x="2298" y="35.0" width="514" height="30" style="fill:#87bcbc;fill-opacity:1.00" />
  <line x1="2812" y1="50.0" x2="2832" y2="50.0" style="stroke:#999; stroke-width:3;" />
  <line x1="2832" y1="50.0" x2="2832" y2="50.0" style="stroke:#999; stroke-width:3;" />
  <line x1="2832" y1="50.0" x2="2832" y2="50.0" style="stroke:#999; stroke-width:3;" />
  <line x1="2832" y1="50.0" x2="2852" y2="50.0" style="stroke:#999; stroke-width:3;" />
  <rect class="anc_exon" x="2852" y="35.0" width="169" height="30" style="fill:#87bcbc;fill-opacity:1.00" />
  <line x1="3021" y1="50.0" x2="3041" y2="50.0" style="stroke:#999; stroke-width:3;" />
  <line x1="3041" y1="50.0" x2="3041" y2="50.0" style="stroke:#999; stroke-width:3;" />
  <line x1="3041" y1="50.0" x2="3041" y2="50.0" style="stroke:#999; stroke-width:3;" />
  <line x1="3041" y1="50.0" x2="3061" y2="50.0" style="stroke:#999; stroke-width:3;" />
  <rect class="anc_exon" x="3061" y="35.0" width="148" height="30" style="fill:#87bcbc;fill-opacity:1.00" />
  <line x1="3209" y1="50.0" x2="3249" y2="50.0" style="stroke:#999; stroke-width:3;" />
  <rect class="anc_exon" x="3249" y="35.0" width="126" height="30" style="fill:#87bcbc;fill-opacity:1.00" />
  <line x1="3375" y1="50.0" x2="3415" y2="50.0" style="stroke:#999; stroke-width:3;" />
  <rect class="anc_exon" x="3415" y="35.0" width="213" height="30" style="fill:#87bcbc;fill-opacity:1.00" />
  <line x1="3628" y1="50.0" x2="3648" y2="50.0" style="stroke:#999; stroke-width:3;" />
  <line x1="3648" y1="50.0" x2="3648" y2="50.0" style="stroke:#999; stroke-width:3;" />
  <line x1="3648" y1="50.0" x2="3648" y2="50.0" style="stroke:#999; stroke-width:3;" />
  <line x1="3648" y1="50.0" x2="3668" y2="50.0" style="stroke:#999; stroke-width:3;" />
  <rect class="anc_exon" x="3668" y="35.0" width="116" height="30" style="fill:#87bcbc;fill-opacity:1.00" />
  <line x1="3784" y1="50.0" x2="3804" y2="50.0" style="stroke:#999; stroke-width:3;" />
  <line x1="3804" y1="50.0" x2="3804" y2="50.0" style="stroke:#999; stroke-width:3;" />
  <line x1="3804" y1="50.0" x2="3804" y2="50.0" style="stroke:#999; stroke-width:3;" />
  <line x1="3804" y1="50.0" x2="3824" y2="50.0" style="stroke:#999; stroke-width:3;" />
  <rect class="anc_exon" x="3824" y="35.0" width="126" height="30" style="fill:#87bcbc;fill-opacity:1.00" />
  <line x1="3950" y1="50.0" x2="3990" y2="50.0" style="stroke:#999; stroke-width:3;" />
  <rect class="anc_exon" x="3990" y="35.0" width="147" height="30" style="fill:#87bcbc;fill-opacity:1.00" />
  <line x1="4137" y1="50.0" x2="4177" y2="50.0" style="stroke:#999; stroke-width:3;" />
  <rect class="anc_exon" x="4177" y="35.0" width="168" height="30" style="fill:#87bcbc;fill-opacity:1.00" />
  <line x1="4345" y1="50.0" x2="4385" y2="50.0" style="stroke:#999; stroke-width:3;" />
  <rect class="anc_exon" x="4385" y="35.0" width="161" height="30" style="fill:#87bcbc;fill-opacity:1.00" />
  <line x1="4546" y1="50.0" x2="4566" y2="50.0" style="stroke:#999; stroke-width:3;" />
  <line x1="4566" y1="50.0" x2="4566" y2="50.0" style="stroke:#999; stroke-width:3;" />
  <line x1="4566" y1="50.0" x2="4566" y2="50.0" style="stroke:#999; stroke-width:3;" />
  <line x1="4566" y1="50.0" x2="4586" y2="50.0" style="stroke:#999; stroke-width:3;" />
  <rect class="anc_exon" x="4586" y="35.0" width="124" height="30" style="fill:#87bcbc;fill-opacity:1.00" />
  <line x1="4710" y1="50.0" x2="4730" y2="50.0" style="stroke:#999; stroke-width:3;" />
  <line x1="4730" y1="50.0" x2="4730" y2="50.0" style="stroke:#999; stroke-width:3;" />
  <line x1="4730" y1="50.0" x2="4730" y2="50.0" style="stroke:#999; stroke-width:3;" />
  <line x1="4730" y1="50.0" x2="4750" y2="50.0" style="stroke:#999; stroke-width:3;" />
  <rect class="anc_exon" x="4750" y="35.0" width="56" height="30" style="fill:#87bcbc;fill-opacity:1.00" />
  <line x1="4806" y1="50.0" x2="4846" y2="50.0" style="stroke:#999; stroke-width:3;" />
  <rect class="anc_exon" x="4846" y="35.0" width="173" height="30" style="fill:#87bcbc;fill-opacity:1.00" />
  <line x1="5019" y1="50.0" x2="5059" y2="50.0" style="stroke:#999; stroke-width:3;" />
  <rect class="anc_exon" x="5059" y="35.0" width="138" height="30" style="fill:#87bcbc;fill-opacity:1.00" />
  <rect class="anc_exon" x="5197" y="35.0" width="0" height="30" style="fill:#87bcbc;fill-opacity:1.00" />
  <text style="" >
<tspan x="0" y="83.0" style="font-size:18px;" >SP XM_031957697_1.1</tspan>  </text>



<script type="text/ecmascript">
<![CDATA[
function draw_bbox(text_id)
{
    var text_elem = document.getElementById(text_id);
    var offset_px = 2;
    var offset_py = 0;
    bbox = text_elem.getBBox();
    var box = document.createElementNS(document.rootElement.namespaceURI,'rect');
    box.setAttribute('x', bbox.x - offset_px);
    box.setAttribute('y', bbox.y - offset_py);
    box.setAttribute('width', bbox.width + offset_px * 2);
    box.setAttribute('height', bbox.height + offset_py * 2);
    box.setAttribute('style','fill: white;'+'stroke: black;'+'stroke-width: 1px;');
    text_elem.insertBefore(box,text_elem.childNodes[0]);

    var svg = text_elem.parentNode;
    svg.appendChild(text_elem);
}

for (var i=1; i < 1; i++)
{
draw_bbox("Mouseover" + i);
}
]]> 
</script>
</svg>
