<svg version="1.1"
xmlns="http://www.w3.org/2000/svg"
xmlns:xlink="http://www.w3.org/1999/xlink"
width="3974" height="100" viewBox = "0 0 3974 100"
onclick="mouseclick(evt)">

<script type="text/ecmascript">

<![CDATA[
    function mouseover(evt, target) { 
    var gv = document.getElementById("globalVariable");
    var previoustarget = gv.firstChild.nodeValue;
    if (previoustarget != "none") 
    {
        	document.getElementById(gv.firstChild.nodeValue).setAttributeNS(null, "visibility", "hidden");
    }
    document.getElementById(target).setAttributeNS(null, "visibility", "visible");
    gv.firstChild.nodeValue = target;
        }

    function mouseclick(evt) { 
    var gv = document.getElementById("globalVariable");
    var previoustarget = gv.firstChild.nodeValue;
    if (previoustarget != "none") {
        	document.getElementById(gv.firstChild.nodeValue).setAttributeNS(null, "visibility", "hidden");
        }
    }
]]>
  </script>
<style type="text/css" >

<![CDATA[
    rect.anc_exon {
              stroke-width:3;
                  }

    rect.non_anc_exon {
              stroke: black; stroke-width:3; stroke-dasharray: 5,5;
                    }

    text {
              font-size: 18px;
              font-family: Courier New;
          }
                    ]]>
</style>

<defs>
    <text x="150" y="40" id="globalVariable">none</text>
</defs>

  <rect class="anc_exon" x="0" y="35.0" width="0" height="30" style="fill:#87bcbc;fill-opacity:1.00" />
  <rect class="anc_exon" x="0" y="35.0" width="46.400000000000006" height="30" style="fill:#87bcbc;fill-opacity:1.00" />
  <line x1="46.400000000000006" y1="50.0" x2="65.4" y2="50.0" style="stroke:#999; stroke-width:3;" />
  <line x1="65.4" y1="50.0" x2="65.4" y2="50.0" style="stroke:#999; stroke-width:3;" />
  <line x1="65.4" y1="50.0" x2="65.4" y2="50.0" style="stroke:#999; stroke-width:3;" />
  <line x1="65.4" y1="50.0" x2="86.0" y2="50.0" style="stroke:#999; stroke-width:3;" />
  <rect class="anc_exon" x="86" y="35.0" width="96" height="30" style="fill:#87bcbc;fill-opacity:1.00" />
  <line x1="182" y1="50.0" x2="202" y2="50.0" style="stroke:#999; stroke-width:3;" />
  <line x1="202" y1="50.0" x2="202" y2="50.0" style="stroke:#999; stroke-width:3;" />
  <line x1="202" y1="50.0" x2="202" y2="50.0" style="stroke:#999; stroke-width:3;" />
  <line x1="202" y1="50.0" x2="222" y2="50.0" style="stroke:#999; stroke-width:3;" />
  <rect class="anc_exon" x="222" y="35.0" width="90" height="30" style="fill:#87bcbc;fill-opacity:1.00" />
  <line x1="312" y1="50.0" x2="332" y2="50.0" style="stroke:#999; stroke-width:3;" />
  <line x1="332" y1="50.0" x2="332" y2="50.0" style="stroke:#999; stroke-width:3;" />
  <line x1="332" y1="50.0" x2="332" y2="50.0" style="stroke:#999; stroke-width:3;" />
  <line x1="332" y1="50.0" x2="352" y2="50.0" style="stroke:#999; stroke-width:3;" />
  <rect class="anc_exon" x="352" y="35.0" width="71" height="30" style="fill:#87bcbc;fill-opacity:1.00" />
  <line x1="423" y1="50.0" x2="463" y2="50.0" style="stroke:#999; stroke-width:3;" />
  <rect class="anc_exon" x="463" y="35.0" width="92" height="30" style="fill:#87bcbc;fill-opacity:1.00" />
  <line x1="555" y1="50.0" x2="595" y2="50.0" style="stroke:#999; stroke-width:3;" />
  <rect class="anc_exon" x="595" y="35.0" width="102" height="30" style="fill:#87bcbc;fill-opacity:1.00" />
  <line x1="697" y1="50.0" x2="717" y2="50.0" style="stroke:#999; stroke-width:3;" />
  <line x1="717" y1="50.0" x2="717" y2="50.0" style="stroke:#999; stroke-width:3;" />
  <line x1="717" y1="50.0" x2="717" y2="50.0" style="stroke:#999; stroke-width:3;" />
  <line x1="717" y1="50.0" x2="737" y2="50.0" style="stroke:#999; stroke-width:3;" />
  <rect class="anc_exon" x="737" y="35.0" width="119" height="30" style="fill:#87bcbc;fill-opacity:1.00" />
  <line x1="856" y1="50.0" x2="876" y2="50.0" style="stroke:#999; stroke-width:3;" />
  <line x1="876" y1="50.0" x2="876" y2="50.0" style="stroke:#999; stroke-width:3;" />
  <line x1="876" y1="50.0" x2="876" y2="50.0" style="stroke:#999; stroke-width:3;" />
  <line x1="876" y1="50.0" x2="896" y2="50.0" style="stroke:#999; stroke-width:3;" />
  <rect class="anc_exon" x="896" y="35.0" width="120" height="30" style="fill:#87bcbc;fill-opacity:1.00" />
  <line x1="1016" y1="50.0" x2="1036" y2="50.0" style="stroke:#999; stroke-width:3;" />
  <line x1="1036" y1="50.0" x2="1036" y2="50.0" style="stroke:#999; stroke-width:3;" />
  <line x1="1036" y1="50.0" x2="1036" y2="50.0" style="stroke:#999; stroke-width:3;" />
  <line x1="1036" y1="50.0" x2="1056" y2="50.0" style="stroke:#999; stroke-width:3;" />
  <rect class="anc_exon" x="1056" y="35.0" width="132" height="30" style="fill:#87bcbc;fill-opacity:1.00" />
  <line x1="1188" y1="50.0" x2="1208" y2="50.0" style="stroke:#999; stroke-width:3;" />
  <line x1="1208" y1="50.0" x2="1208" y2="50.0" style="stroke:#999; stroke-width:3;" />
  <line x1="1208" y1="50.0" x2="1208" y2="50.0" style="stroke:#999; stroke-width:3;" />
  <line x1="1208" y1="50.0" x2="1228" y2="50.0" style="stroke:#999; stroke-width:3;" />
  <rect class="anc_exon" x="1228" y="35.0" width="59" height="30" style="fill:#87bcbc;fill-opacity:1.00" />
  <line x1="1287" y1="50.0" x2="1327" y2="50.0" style="stroke:#999; stroke-width:3;" />
  <rect class="anc_exon" x="1327" y="35.0" width="116" height="30" style="fill:#87bcbc;fill-opacity:1.00" />
  <line x1="1443" y1="50.0" x2="1463" y2="50.0" style="stroke:#999; stroke-width:3;" />
  <line x1="1463" y1="50.0" x2="1463" y2="50.0" style="stroke:#999; stroke-width:3;" />
  <line x1="1463" y1="50.0" x2="1463" y2="50.0" style="stroke:#999; stroke-width:3;" />
  <line x1="1463" y1="50.0" x2="1483" y2="50.0" style="stroke:#999; stroke-width:3;" />
  <rect class="anc_exon" x="1483" y="35.0" width="114" height="30" style="fill:#87bcbc;fill-opacity:1.00" />
  <line x1="1597" y1="50.0" x2="1617" y2="50.0" style="stroke:#999; stroke-width:3;" />
  <line x1="1617" y1="50.0" x2="1617" y2="50.0" style="stroke:#999; stroke-width:3;" />
  <line x1="1617" y1="50.0" x2="1617" y2="50.0" style="stroke:#999; stroke-width:3;" />
  <line x1="1617" y1="50.0" x2="1637" y2="50.0" style="stroke:#999; stroke-width:3;" />
  <rect class="anc_exon" x="1637" y="35.0" width="115" height="30" style="fill:#87bcbc;fill-opacity:1.00" />
  <line x1="1752" y1="50.0" x2="1772" y2="50.0" style="stroke:#999; stroke-width:3;" />
  <line x1="1772" y1="50.0" x2="1772" y2="50.0" style="stroke:#999; stroke-width:3;" />
  <line x1="1772" y1="50.0" x2="1772" y2="50.0" style="stroke:#999; stroke-width:3;" />
  <line x1="1772" y1="50.0" x2="1792" y2="50.0" style="stroke:#999; stroke-width:3;" />
  <rect class="anc_exon" x="1792" y="35.0" width="206" height="30" style="fill:#87bcbc;fill-opacity:1.00" />
  <line x1="1998" y1="50.0" x2="2018" y2="50.0" style="stroke:#999; stroke-width:3;" />
  <line x1="2018" y1="50.0" x2="2018" y2="50.0" style="stroke:#999; stroke-width:3;" />
  <line x1="2018" y1="50.0" x2="2018" y2="50.0" style="stroke:#999; stroke-width:3;" />
  <line x1="2018" y1="50.0" x2="2038" y2="50.0" style="stroke:#999; stroke-width:3;" />
  <rect class="anc_exon" x="2038" y="35.0" width="104" height="30" style="fill:#87bcbc;fill-opacity:1.00" />
  <line x1="2142" y1="50.0" x2="2162" y2="50.0" style="stroke:#999; stroke-width:3;" />
  <line x1="2162" y1="50.0" x2="2162" y2="50.0" style="stroke:#999; stroke-width:3;" />
  <line x1="2162" y1="50.0" x2="2162" y2="50.0" style="stroke:#999; stroke-width:3;" />
  <line x1="2162" y1="50.0" x2="2182" y2="50.0" style="stroke:#999; stroke-width:3;" />
  <rect class="anc_exon" x="2182" y="35.0" width="133" height="30" style="fill:#87bcbc;fill-opacity:1.00" />
  <line x1="2315" y1="50.0" x2="2335" y2="50.0" style="stroke:#999; stroke-width:3;" />
  <line x1="2335" y1="50.0" x2="2335" y2="50.0" style="stroke:#999; stroke-width:3;" />
  <line x1="2335" y1="50.0" x2="2335" y2="50.0" style="stroke:#999; stroke-width:3;" />
  <line x1="2335" y1="50.0" x2="2355" y2="50.0" style="stroke:#999; stroke-width:3;" />
  <rect class="anc_exon" x="2355" y="35.0" width="109" height="30" style="fill:#87bcbc;fill-opacity:1.00" />
  <line x1="2464" y1="50.0" x2="2484" y2="50.0" style="stroke:#999; stroke-width:3;" />
  <line x1="2484" y1="50.0" x2="2484" y2="50.0" style="stroke:#999; stroke-width:3;" />
  <line x1="2484" y1="50.0" x2="2484" y2="50.0" style="stroke:#999; stroke-width:3;" />
  <line x1="2484" y1="50.0" x2="2504" y2="50.0" style="stroke:#999; stroke-width:3;" />
  <rect class="anc_exon" x="2504" y="35.0" width="88" height="30" style="fill:#87bcbc;fill-opacity:1.00" />
  <line x1="2592" y1="50.0" x2="2612" y2="50.0" style="stroke:#999; stroke-width:3;" />
  <line x1="2612" y1="50.0" x2="2612" y2="50.0" style="stroke:#999; stroke-width:3;" />
  <line x1="2612" y1="50.0" x2="2612" y2="50.0" style="stroke:#999; stroke-width:3;" />
  <line x1="2612" y1="50.0" x2="2632" y2="50.0" style="stroke:#999; stroke-width:3;" />
  <rect class="anc_exon" x="2632" y="35.0" width="168" height="30" style="fill:#87bcbc;fill-opacity:1.00" />
  <line x1="2800" y1="50.0" x2="2820" y2="50.0" style="stroke:#999; stroke-width:3;" />
  <line x1="2820" y1="50.0" x2="2820" y2="50.0" style="stroke:#999; stroke-width:3;" />
  <line x1="2820" y1="50.0" x2="2820" y2="50.0" style="stroke:#999; stroke-width:3;" />
  <line x1="2820" y1="50.0" x2="2840" y2="50.0" style="stroke:#999; stroke-width:3;" />
  <rect class="anc_exon" x="2840" y="35.0" width="64" height="30" style="fill:#87bcbc;fill-opacity:1.00" />
  <line x1="2904" y1="50.0" x2="2944" y2="50.0" style="stroke:#999; stroke-width:3;" />
  <rect class="anc_exon" x="2944" y="35.0" width="61" height="30" style="fill:#87bcbc;fill-opacity:1.00" />
  <line x1="3005" y1="50.0" x2="3025" y2="50.0" style="stroke:#999; stroke-width:3;" />
  <line x1="3025" y1="50.0" x2="3025" y2="50.0" style="stroke:#999; stroke-width:3;" />
  <line x1="3025" y1="50.0" x2="3025" y2="50.0" style="stroke:#999; stroke-width:3;" />
  <line x1="3025" y1="50.0" x2="3045" y2="50.0" style="stroke:#999; stroke-width:3;" />
  <rect class="anc_exon" x="3045" y="35.0" width="72" height="30" style="fill:#87bcbc;fill-opacity:1.00" />
  <line x1="3117" y1="50.0" x2="3157" y2="50.0" style="stroke:#999; stroke-width:3;" />
  <rect class="anc_exon" x="3157" y="35.0" width="82" height="30" style="fill:#87bcbc;fill-opacity:1.00" />
  <line x1="3239" y1="50.0" x2="3279" y2="50.0" style="stroke:#999; stroke-width:3;" />
  <rect class="anc_exon" x="3279" y="35.0" width="91" height="30" style="fill:#87bcbc;fill-opacity:1.00" />
  <line x1="3370" y1="50.0" x2="3390" y2="50.0" style="stroke:#999; stroke-width:3;" />
  <line x1="3390" y1="50.0" x2="3390" y2="50.0" style="stroke:#999; stroke-width:3;" />
  <line x1="3390" y1="50.0" x2="3390" y2="50.0" style="stroke:#999; stroke-width:3;" />
  <line x1="3390" y1="50.0" x2="3410" y2="50.0" style="stroke:#999; stroke-width:3;" />
  <rect class="anc_exon" x="3410" y="35.0" width="81" height="30" style="fill:#87bcbc;fill-opacity:1.00" />
  <line x1="3491" y1="50.0" x2="3531" y2="50.0" style="stroke:#999; stroke-width:3;" />
  <rect class="anc_exon" x="3531" y="35.0" width="84" height="30" style="fill:#87bcbc;fill-opacity:1.00" />
  <line x1="3615" y1="50.0" x2="3635" y2="50.0" style="stroke:#999; stroke-width:3;" />
  <line x1="3635" y1="50.0" x2="3635" y2="50.0" style="stroke:#999; stroke-width:3;" />
  <line x1="3635" y1="50.0" x2="3635" y2="50.0" style="stroke:#999; stroke-width:3;" />
  <line x1="3635" y1="50.0" x2="3655" y2="50.0" style="stroke:#999; stroke-width:3;" />
  <rect class="anc_exon" x="3655" y="35.0" width="74" height="30" style="fill:#87bcbc;fill-opacity:1.00" />
  <line x1="3729" y1="50.0" x2="3749" y2="50.0" style="stroke:#999; stroke-width:3;" />
  <line x1="3749" y1="50.0" x2="3749" y2="50.0" style="stroke:#999; stroke-width:3;" />
  <line x1="3749" y1="50.0" x2="3749" y2="50.0" style="stroke:#999; stroke-width:3;" />
  <line x1="3749" y1="50.0" x2="3769" y2="50.0" style="stroke:#999; stroke-width:3;" />
  <rect class="anc_exon" x="3769" y="35.0" width="93" height="30" style="fill:#87bcbc;fill-opacity:1.00" />
  <line x1="3862" y1="50.0" x2="3882" y2="50.0" style="stroke:#999; stroke-width:3;" />
  <line x1="3882" y1="50.0" x2="3882" y2="50.0" style="stroke:#999; stroke-width:3;" />
  <line x1="3882" y1="50.0" x2="3882" y2="50.0" style="stroke:#999; stroke-width:3;" />
  <line x1="3882" y1="50.0" x2="3902" y2="50.0" style="stroke:#999; stroke-width:3;" />
  <rect class="anc_exon" x="3902" y="35.0" width="36" height="30" style="fill:#87bcbc;fill-opacity:1.00" />
  <rect class="anc_exon" x="3938" y="35.0" width="0" height="30" style="fill:#87bcbc;fill-opacity:1.00" />
  <text style="" >
<tspan x="0" y="83.0" style="font-size:18px;" >SP XM_031964896_1.1</tspan>  </text>



<script type="text/ecmascript">
<![CDATA[
function draw_bbox(text_id)
{
    var text_elem = document.getElementById(text_id);
    var offset_px = 2;
    var offset_py = 0;
    bbox = text_elem.getBBox();
    var box = document.createElementNS(document.rootElement.namespaceURI,'rect');
    box.setAttribute('x', bbox.x - offset_px);
    box.setAttribute('y', bbox.y - offset_py);
    box.setAttribute('width', bbox.width + offset_px * 2);
    box.setAttribute('height', bbox.height + offset_py * 2);
    box.setAttribute('style','fill: white;'+'stroke: black;'+'stroke-width: 1px;');
    text_elem.insertBefore(box,text_elem.childNodes[0]);

    var svg = text_elem.parentNode;
    svg.appendChild(text_elem);
}

for (var i=1; i < 1; i++)
{
draw_bbox("Mouseover" + i);
}
]]> 
</script>
</svg>
