<svg version="1.1"
xmlns="http://www.w3.org/2000/svg"
xmlns:xlink="http://www.w3.org/1999/xlink"
width="3718" height="100" viewBox = "0 0 3718 100"
onclick="mouseclick(evt)">

<script type="text/ecmascript">

<![CDATA[
    function mouseover(evt, target) { 
    var gv = document.getElementById("globalVariable");
    var previoustarget = gv.firstChild.nodeValue;
    if (previoustarget != "none") 
    {
        	document.getElementById(gv.firstChild.nodeValue).setAttributeNS(null, "visibility", "hidden");
    }
    document.getElementById(target).setAttributeNS(null, "visibility", "visible");
    gv.firstChild.nodeValue = target;
        }

    function mouseclick(evt) { 
    var gv = document.getElementById("globalVariable");
    var previoustarget = gv.firstChild.nodeValue;
    if (previoustarget != "none") {
        	document.getElementById(gv.firstChild.nodeValue).setAttributeNS(null, "visibility", "hidden");
        }
    }
]]>
  </script>
<style type="text/css" >

<![CDATA[
    rect.anc_exon {
              stroke-width:3;
                  }

    rect.non_anc_exon {
              stroke: black; stroke-width:3; stroke-dasharray: 5,5;
                    }

    text {
              font-size: 18px;
              font-family: Courier New;
          }
                    ]]>
</style>

<defs>
    <text x="150" y="40" id="globalVariable">none</text>
</defs>

  <rect class="anc_exon" x="0" y="35.0" width="0" height="30" style="fill:#87bcbc;fill-opacity:1.00" />
  <rect class="anc_exon" x="0" y="35.0" width="36.0" height="30" style="fill:#87bcbc;fill-opacity:1.00" />
  <line x1="36.0" y1="50.0" x2="56.0" y2="50.0" style="stroke:#999; stroke-width:3;" />
  <line x1="56.0" y1="50.0" x2="56.0" y2="50.0" style="stroke:#999; stroke-width:3;" />
  <line x1="56.0" y1="50.0" x2="56.0" y2="50.0" style="stroke:#999; stroke-width:3;" />
  <line x1="56.0" y1="50.0" x2="76.0" y2="50.0" style="stroke:#999; stroke-width:3;" />
  <rect class="anc_exon" x="76" y="35.0" width="108" height="30" style="fill:#87bcbc;fill-opacity:1.00" />
  <line x1="184" y1="50.0" x2="204" y2="50.0" style="stroke:#999; stroke-width:3;" />
  <line x1="204" y1="50.0" x2="204" y2="50.0" style="stroke:#999; stroke-width:3;" />
  <line x1="204" y1="50.0" x2="204" y2="50.0" style="stroke:#999; stroke-width:3;" />
  <line x1="204" y1="50.0" x2="224" y2="50.0" style="stroke:#999; stroke-width:3;" />
  <rect class="anc_exon" x="224" y="35.0" width="113" height="30" style="fill:#87bcbc;fill-opacity:1.00" />
  <line x1="337" y1="50.0" x2="357" y2="50.0" style="stroke:#999; stroke-width:3;" />
  <line x1="357" y1="50.0" x2="357" y2="50.0" style="stroke:#999; stroke-width:3;" />
  <line x1="357" y1="50.0" x2="357" y2="50.0" style="stroke:#999; stroke-width:3;" />
  <line x1="357" y1="50.0" x2="377" y2="50.0" style="stroke:#999; stroke-width:3;" />
  <rect class="anc_exon" x="377" y="35.0" width="136" height="30" style="fill:#87bcbc;fill-opacity:1.00" />
  <line x1="513" y1="50.0" x2="533" y2="50.0" style="stroke:#999; stroke-width:3;" />
  <line x1="533" y1="50.0" x2="533" y2="50.0" style="stroke:#999; stroke-width:3;" />
  <line x1="533" y1="50.0" x2="533" y2="50.0" style="stroke:#999; stroke-width:3;" />
  <line x1="533" y1="50.0" x2="553" y2="50.0" style="stroke:#999; stroke-width:3;" />
  <rect class="anc_exon" x="553" y="35.0" width="141" height="30" style="fill:#87bcbc;fill-opacity:1.00" />
  <line x1="694" y1="50.0" x2="714" y2="50.0" style="stroke:#999; stroke-width:3;" />
  <line x1="714" y1="50.0" x2="714" y2="50.0" style="stroke:#999; stroke-width:3;" />
  <line x1="714" y1="50.0" x2="714" y2="50.0" style="stroke:#999; stroke-width:3;" />
  <line x1="714" y1="50.0" x2="734" y2="50.0" style="stroke:#999; stroke-width:3;" />
  <rect class="anc_exon" x="734" y="35.0" width="186" height="30" style="fill:#87bcbc;fill-opacity:1.00" />
  <line x1="920" y1="50.0" x2="940" y2="50.0" style="stroke:#999; stroke-width:3;" />
  <line x1="940" y1="50.0" x2="940" y2="50.0" style="stroke:#999; stroke-width:3;" />
  <line x1="940" y1="50.0" x2="940" y2="50.0" style="stroke:#999; stroke-width:3;" />
  <line x1="940" y1="50.0" x2="960" y2="50.0" style="stroke:#999; stroke-width:3;" />
  <rect class="anc_exon" x="960" y="35.0" width="848" height="30" style="fill:#878787;fill-opacity:1.00" />
  <line x1="1808" y1="50.0" x2="1828" y2="50.0" style="stroke:#999; stroke-width:3;" />
  <line x1="1828" y1="50.0" x2="1828" y2="50.0" style="stroke:#999; stroke-width:3;" />
  <line x1="1828" y1="50.0" x2="1828" y2="50.0" style="stroke:#999; stroke-width:3;" />
  <line x1="1828" y1="50.0" x2="1848" y2="50.0" style="stroke:#999; stroke-width:3;" />
  <rect class="anc_exon" x="1848" y="35.0" width="404" height="30" style="fill:#87bcbc;fill-opacity:1.00" />
  <line x1="2252" y1="50.0" x2="2272" y2="50.0" style="stroke:#999; stroke-width:3;" />
  <line x1="2272" y1="50.0" x2="2272" y2="50.0" style="stroke:#999; stroke-width:3;" />
  <line x1="2272" y1="50.0" x2="2272" y2="50.0" style="stroke:#999; stroke-width:3;" />
  <line x1="2272" y1="50.0" x2="2292" y2="50.0" style="stroke:#999; stroke-width:3;" />
  <rect class="anc_exon" x="2292" y="35.0" width="74" height="30" style="fill:#87bcbc;fill-opacity:1.00" />
  <line x1="2366" y1="50.0" x2="2386" y2="50.0" style="stroke:#999; stroke-width:3;" />
  <line x1="2386" y1="50.0" x2="2386" y2="50.0" style="stroke:#999; stroke-width:3;" />
  <line x1="2386" y1="50.0" x2="2386" y2="50.0" style="stroke:#999; stroke-width:3;" />
  <line x1="2386" y1="50.0" x2="2406" y2="50.0" style="stroke:#999; stroke-width:3;" />
  <rect class="anc_exon" x="2406" y="35.0" width="95" height="30" style="fill:#87bcbc;fill-opacity:1.00" />
  <line x1="2501" y1="50.0" x2="2541" y2="50.0" style="stroke:#999; stroke-width:3;" />
  <rect class="anc_exon" x="2541" y="35.0" width="56" height="30" style="fill:#87bcbc;fill-opacity:1.00" />
  <line x1="2597" y1="50.0" x2="2637" y2="50.0" style="stroke:#999; stroke-width:3;" />
  <rect class="anc_exon" x="2637" y="35.0" width="92" height="30" style="fill:#87bcbc;fill-opacity:1.00" />
  <line x1="2729" y1="50.0" x2="2749" y2="50.0" style="stroke:#999; stroke-width:3;" />
  <line x1="2749" y1="50.0" x2="2749" y2="50.0" style="stroke:#999; stroke-width:3;" />
  <line x1="2749" y1="50.0" x2="2749" y2="50.0" style="stroke:#999; stroke-width:3;" />
  <line x1="2749" y1="50.0" x2="2769" y2="50.0" style="stroke:#999; stroke-width:3;" />
  <rect class="anc_exon" x="2769" y="35.0" width="84" height="30" style="fill:#87bcbc;fill-opacity:1.00" />
  <line x1="2853" y1="50.0" x2="2893" y2="50.0" style="stroke:#999; stroke-width:3;" />
  <rect class="anc_exon" x="2893" y="35.0" width="146" height="30" style="fill:#87bcbc;fill-opacity:1.00" />
  <line x1="3039" y1="50.0" x2="3079" y2="50.0" style="stroke:#999; stroke-width:3;" />
  <rect class="anc_exon" x="3079" y="35.0" width="104" height="30" style="fill:#87bcbc;fill-opacity:1.00" />
  <line x1="3183" y1="50.0" x2="3223" y2="50.0" style="stroke:#999; stroke-width:3;" />
  <rect class="anc_exon" x="3223" y="35.0" width="147" height="30" style="fill:#87bcbc;fill-opacity:1.00" />
  <line x1="3370" y1="50.0" x2="3390" y2="50.0" style="stroke:#999; stroke-width:3;" />
  <line x1="3390" y1="50.0" x2="3390" y2="50.0" style="stroke:#999; stroke-width:3;" />
  <line x1="3390" y1="50.0" x2="3390" y2="50.0" style="stroke:#999; stroke-width:3;" />
  <line x1="3390" y1="50.0" x2="3410" y2="50.0" style="stroke:#999; stroke-width:3;" />
  <rect class="anc_exon" x="3410" y="35.0" width="86" height="30" style="fill:#87bcbc;fill-opacity:1.00" />
  <line x1="3496" y1="50.0" x2="3516" y2="50.0" style="stroke:#999; stroke-width:3;" />
  <line x1="3516" y1="50.0" x2="3516" y2="50.0" style="stroke:#999; stroke-width:3;" />
  <line x1="3516" y1="50.0" x2="3516" y2="50.0" style="stroke:#999; stroke-width:3;" />
  <line x1="3516" y1="50.0" x2="3536" y2="50.0" style="stroke:#999; stroke-width:3;" />
  <rect class="anc_exon" x="3536" y="35.0" width="146" height="30" style="fill:#87bcbc;fill-opacity:1.00" />
  <rect class="anc_exon" x="3682" y="35.0" width="0" height="30" style="fill:#87bcbc;fill-opacity:1.00" />
  <text style="" >
<tspan x="0" y="83.0" style="font-size:18px;" >SP XM_012541631_2.1</tspan>  </text>



<script type="text/ecmascript">
<![CDATA[
function draw_bbox(text_id)
{
    var text_elem = document.getElementById(text_id);
    var offset_px = 2;
    var offset_py = 0;
    bbox = text_elem.getBBox();
    var box = document.createElementNS(document.rootElement.namespaceURI,'rect');
    box.setAttribute('x', bbox.x - offset_px);
    box.setAttribute('y', bbox.y - offset_py);
    box.setAttribute('width', bbox.width + offset_px * 2);
    box.setAttribute('height', bbox.height + offset_py * 2);
    box.setAttribute('style','fill: white;'+'stroke: black;'+'stroke-width: 1px;');
    text_elem.insertBefore(box,text_elem.childNodes[0]);

    var svg = text_elem.parentNode;
    svg.appendChild(text_elem);
}

for (var i=1; i < 1; i++)
{
draw_bbox("Mouseover" + i);
}
]]> 
</script>
</svg>
