<svg version="1.1"
xmlns="http://www.w3.org/2000/svg"
xmlns:xlink="http://www.w3.org/1999/xlink"
width="3021" height="100" viewBox = "0 0 3021 100"
onclick="mouseclick(evt)">

<script type="text/ecmascript">

<![CDATA[
    function mouseover(evt, target) { 
    var gv = document.getElementById("globalVariable");
    var previoustarget = gv.firstChild.nodeValue;
    if (previoustarget != "none") 
    {
        	document.getElementById(gv.firstChild.nodeValue).setAttributeNS(null, "visibility", "hidden");
    }
    document.getElementById(target).setAttributeNS(null, "visibility", "visible");
    gv.firstChild.nodeValue = target;
        }

    function mouseclick(evt) { 
    var gv = document.getElementById("globalVariable");
    var previoustarget = gv.firstChild.nodeValue;
    if (previoustarget != "none") {
        	document.getElementById(gv.firstChild.nodeValue).setAttributeNS(null, "visibility", "hidden");
        }
    }
]]>
  </script>
<style type="text/css" >

<![CDATA[
    rect.anc_exon {
              stroke-width:3;
                  }

    rect.non_anc_exon {
              stroke: black; stroke-width:3; stroke-dasharray: 5,5;
                    }

    text {
              font-size: 18px;
              font-family: Courier New;
          }
                    ]]>
</style>

<defs>
    <text x="150" y="40" id="globalVariable">none</text>
</defs>

  <rect class="anc_exon" x="0" y="35.0" width="0" height="30" style="fill:#87bcbc;fill-opacity:1.00" />
  <rect class="anc_exon" x="0" y="35.0" width="271.2" height="30" style="fill:#87bcbc;fill-opacity:1.00" />
  <line x1="271.2" y1="50.0" x2="290.2" y2="50.0" style="stroke:#999; stroke-width:3;" />
  <line x1="290.2" y1="50.0" x2="290.2" y2="50.0" style="stroke:#999; stroke-width:3;" />
  <line x1="290.2" y1="50.0" x2="290.2" y2="50.0" style="stroke:#999; stroke-width:3;" />
  <line x1="290.2" y1="50.0" x2="311.0" y2="50.0" style="stroke:#999; stroke-width:3;" />
  <rect class="anc_exon" x="311" y="35.0" width="110" height="30" style="fill:#87bcbc;fill-opacity:1.00" />
  <line x1="421" y1="50.0" x2="441" y2="50.0" style="stroke:#999; stroke-width:3;" />
  <line x1="441" y1="50.0" x2="441" y2="50.0" style="stroke:#999; stroke-width:3;" />
  <line x1="441" y1="50.0" x2="441" y2="50.0" style="stroke:#999; stroke-width:3;" />
  <line x1="441" y1="50.0" x2="461" y2="50.0" style="stroke:#999; stroke-width:3;" />
  <rect class="anc_exon" x="461" y="35.0" width="136" height="30" style="fill:#87bcbc;fill-opacity:1.00" />
  <line x1="597" y1="50.0" x2="617" y2="50.0" style="stroke:#999; stroke-width:3;" />
  <line x1="617" y1="50.0" x2="617" y2="50.0" style="stroke:#999; stroke-width:3;" />
  <line x1="617" y1="50.0" x2="617" y2="50.0" style="stroke:#999; stroke-width:3;" />
  <line x1="617" y1="50.0" x2="637" y2="50.0" style="stroke:#999; stroke-width:3;" />
  <rect class="anc_exon" x="637" y="35.0" width="81" height="30" style="fill:#87bcbc;fill-opacity:1.00" />
  <line x1="718" y1="50.0" x2="738" y2="50.0" style="stroke:#999; stroke-width:3;" />
  <line x1="738" y1="50.0" x2="738" y2="50.0" style="stroke:#999; stroke-width:3;" />
  <line x1="738" y1="50.0" x2="738" y2="50.0" style="stroke:#999; stroke-width:3;" />
  <line x1="738" y1="50.0" x2="758" y2="50.0" style="stroke:#999; stroke-width:3;" />
  <rect class="anc_exon" x="758" y="35.0" width="52" height="30" style="fill:#87bcbc;fill-opacity:1.00" />
  <line x1="810" y1="50.0" x2="830" y2="50.0" style="stroke:#999; stroke-width:3;" />
  <line x1="830" y1="50.0" x2="830" y2="50.0" style="stroke:#999; stroke-width:3;" />
  <line x1="830" y1="50.0" x2="830" y2="50.0" style="stroke:#999; stroke-width:3;" />
  <line x1="830" y1="50.0" x2="850" y2="50.0" style="stroke:#999; stroke-width:3;" />
  <rect class="anc_exon" x="850" y="35.0" width="160" height="30" style="fill:#87bcbc;fill-opacity:1.00" />
  <line x1="1010" y1="50.0" x2="1030" y2="50.0" style="stroke:#999; stroke-width:3;" />
  <line x1="1030" y1="50.0" x2="1030" y2="50.0" style="stroke:#999; stroke-width:3;" />
  <line x1="1030" y1="50.0" x2="1030" y2="50.0" style="stroke:#999; stroke-width:3;" />
  <line x1="1030" y1="50.0" x2="1050" y2="50.0" style="stroke:#999; stroke-width:3;" />
  <rect class="anc_exon" x="1050" y="35.0" width="189" height="30" style="fill:#87bcbc;fill-opacity:1.00" />
  <line x1="1239" y1="50.0" x2="1259" y2="50.0" style="stroke:#999; stroke-width:3;" />
  <line x1="1259" y1="50.0" x2="1259" y2="50.0" style="stroke:#999; stroke-width:3;" />
  <line x1="1259" y1="50.0" x2="1259" y2="50.0" style="stroke:#999; stroke-width:3;" />
  <line x1="1259" y1="50.0" x2="1279" y2="50.0" style="stroke:#999; stroke-width:3;" />
  <rect class="anc_exon" x="1279" y="35.0" width="48" height="30" style="fill:#87bcbc;fill-opacity:1.00" />
  <line x1="1327" y1="50.0" x2="1347" y2="50.0" style="stroke:#999; stroke-width:3;" />
  <line x1="1347" y1="50.0" x2="1347" y2="50.0" style="stroke:#999; stroke-width:3;" />
  <line x1="1347" y1="50.0" x2="1347" y2="50.0" style="stroke:#999; stroke-width:3;" />
  <line x1="1347" y1="50.0" x2="1367" y2="50.0" style="stroke:#999; stroke-width:3;" />
  <rect class="anc_exon" x="1367" y="35.0" width="64" height="30" style="fill:#87bcbc;fill-opacity:1.00" />
  <line x1="1431" y1="50.0" x2="1451" y2="50.0" style="stroke:#999; stroke-width:3;" />
  <line x1="1451" y1="50.0" x2="1451" y2="50.0" style="stroke:#999; stroke-width:3;" />
  <line x1="1451" y1="50.0" x2="1451" y2="50.0" style="stroke:#999; stroke-width:3;" />
  <line x1="1451" y1="50.0" x2="1471" y2="50.0" style="stroke:#999; stroke-width:3;" />
  <rect class="anc_exon" x="1471" y="35.0" width="120" height="30" style="fill:#87bcbc;fill-opacity:1.00" />
  <line x1="1591" y1="50.0" x2="1611" y2="50.0" style="stroke:#999; stroke-width:3;" />
  <line x1="1611" y1="50.0" x2="1611" y2="50.0" style="stroke:#999; stroke-width:3;" />
  <line x1="1611" y1="50.0" x2="1611" y2="50.0" style="stroke:#999; stroke-width:3;" />
  <line x1="1611" y1="50.0" x2="1631" y2="50.0" style="stroke:#999; stroke-width:3;" />
  <rect class="anc_exon" x="1631" y="35.0" width="106" height="30" style="fill:#87bcbc;fill-opacity:1.00" />
  <line x1="1737" y1="50.0" x2="1757" y2="50.0" style="stroke:#999; stroke-width:3;" />
  <line x1="1757" y1="50.0" x2="1757" y2="50.0" style="stroke:#999; stroke-width:3;" />
  <line x1="1757" y1="50.0" x2="1757" y2="50.0" style="stroke:#999; stroke-width:3;" />
  <line x1="1757" y1="50.0" x2="1777" y2="50.0" style="stroke:#999; stroke-width:3;" />
  <rect class="anc_exon" x="1777" y="35.0" width="86" height="30" style="fill:#87bcbc;fill-opacity:1.00" />
  <line x1="1863" y1="50.0" x2="1883" y2="50.0" style="stroke:#999; stroke-width:3;" />
  <line x1="1883" y1="50.0" x2="1883" y2="50.0" style="stroke:#999; stroke-width:3;" />
  <line x1="1883" y1="50.0" x2="1883" y2="50.0" style="stroke:#999; stroke-width:3;" />
  <line x1="1883" y1="50.0" x2="1903" y2="50.0" style="stroke:#999; stroke-width:3;" />
  <rect class="anc_exon" x="1903" y="35.0" width="98" height="30" style="fill:#87bcbc;fill-opacity:1.00" />
  <line x1="2001" y1="50.0" x2="2021" y2="50.0" style="stroke:#999; stroke-width:3;" />
  <line x1="2021" y1="50.0" x2="2021" y2="50.0" style="stroke:#999; stroke-width:3;" />
  <line x1="2021" y1="50.0" x2="2021" y2="50.0" style="stroke:#999; stroke-width:3;" />
  <line x1="2021" y1="50.0" x2="2041" y2="50.0" style="stroke:#999; stroke-width:3;" />
  <rect class="anc_exon" x="2041" y="35.0" width="88" height="30" style="fill:#87bcbc;fill-opacity:1.00" />
  <line x1="2129" y1="50.0" x2="2149" y2="50.0" style="stroke:#999; stroke-width:3;" />
  <line x1="2149" y1="50.0" x2="2149" y2="50.0" style="stroke:#999; stroke-width:3;" />
  <line x1="2149" y1="50.0" x2="2149" y2="50.0" style="stroke:#999; stroke-width:3;" />
  <line x1="2149" y1="50.0" x2="2169" y2="50.0" style="stroke:#999; stroke-width:3;" />
  <rect class="anc_exon" x="2169" y="35.0" width="180" height="30" style="fill:#87bcbc;fill-opacity:1.00" />
  <line x1="2349" y1="50.0" x2="2369" y2="50.0" style="stroke:#999; stroke-width:3;" />
  <line x1="2369" y1="50.0" x2="2369" y2="50.0" style="stroke:#999; stroke-width:3;" />
  <line x1="2369" y1="50.0" x2="2369" y2="50.0" style="stroke:#999; stroke-width:3;" />
  <line x1="2369" y1="50.0" x2="2389" y2="50.0" style="stroke:#999; stroke-width:3;" />
  <rect class="anc_exon" x="2389" y="35.0" width="146" height="30" style="fill:#878787;fill-opacity:1.00" />
  <line x1="2535" y1="50.0" x2="2575" y2="50.0" style="stroke:#999; stroke-width:3;" />
  <rect class="anc_exon" x="2575" y="35.0" width="104" height="30" style="fill:#878787;fill-opacity:1.00" />
  <line x1="2679" y1="50.0" x2="2699" y2="50.0" style="stroke:#999; stroke-width:3;" />
  <line x1="2699" y1="50.0" x2="2699" y2="50.0" style="stroke:#999; stroke-width:3;" />
  <line x1="2699" y1="50.0" x2="2699" y2="50.0" style="stroke:#999; stroke-width:3;" />
  <line x1="2699" y1="50.0" x2="2719" y2="50.0" style="stroke:#999; stroke-width:3;" />
  <rect class="anc_exon" x="2719" y="35.0" width="94" height="30" style="fill:#87bcbc;fill-opacity:1.00" />
  <line x1="2813" y1="50.0" x2="2833" y2="50.0" style="stroke:#999; stroke-width:3;" />
  <line x1="2833" y1="50.0" x2="2833" y2="50.0" style="stroke:#999; stroke-width:3;" />
  <line x1="2833" y1="50.0" x2="2833" y2="50.0" style="stroke:#999; stroke-width:3;" />
  <line x1="2833" y1="50.0" x2="2853" y2="50.0" style="stroke:#999; stroke-width:3;" />
  <rect class="anc_exon" x="2853" y="35.0" width="132" height="30" style="fill:#87bcbc;fill-opacity:1.00" />
  <rect class="anc_exon" x="2985" y="35.0" width="0" height="30" style="fill:#87bcbc;fill-opacity:1.00" />
  <text style="" >
<tspan x="0" y="83.0" style="font-size:18px;" >SP XM_012542879_3.1</tspan>  </text>



<script type="text/ecmascript">
<![CDATA[
function draw_bbox(text_id)
{
    var text_elem = document.getElementById(text_id);
    var offset_px = 2;
    var offset_py = 0;
    bbox = text_elem.getBBox();
    var box = document.createElementNS(document.rootElement.namespaceURI,'rect');
    box.setAttribute('x', bbox.x - offset_px);
    box.setAttribute('y', bbox.y - offset_py);
    box.setAttribute('width', bbox.width + offset_px * 2);
    box.setAttribute('height', bbox.height + offset_py * 2);
    box.setAttribute('style','fill: white;'+'stroke: black;'+'stroke-width: 1px;');
    text_elem.insertBefore(box,text_elem.childNodes[0]);

    var svg = text_elem.parentNode;
    svg.appendChild(text_elem);
}

for (var i=1; i < 1; i++)
{
draw_bbox("Mouseover" + i);
}
]]> 
</script>
</svg>
