<svg version="1.1"
xmlns="http://www.w3.org/2000/svg"
xmlns:xlink="http://www.w3.org/1999/xlink"
width="3564" height="100" viewBox = "0 0 3564 100"
onclick="mouseclick(evt)">

<script type="text/ecmascript">

<![CDATA[
    function mouseover(evt, target) { 
    var gv = document.getElementById("globalVariable");
    var previoustarget = gv.firstChild.nodeValue;
    if (previoustarget != "none") 
    {
        	document.getElementById(gv.firstChild.nodeValue).setAttributeNS(null, "visibility", "hidden");
    }
    document.getElementById(target).setAttributeNS(null, "visibility", "visible");
    gv.firstChild.nodeValue = target;
        }

    function mouseclick(evt) { 
    var gv = document.getElementById("globalVariable");
    var previoustarget = gv.firstChild.nodeValue;
    if (previoustarget != "none") {
        	document.getElementById(gv.firstChild.nodeValue).setAttributeNS(null, "visibility", "hidden");
        }
    }
]]>
  </script>
<style type="text/css" >

<![CDATA[
    rect.anc_exon {
              stroke-width:3;
                  }

    rect.non_anc_exon {
              stroke: black; stroke-width:3; stroke-dasharray: 5,5;
                    }

    text {
              font-size: 18px;
              font-family: Courier New;
          }
                    ]]>
</style>

<defs>
    <text x="150" y="40" id="globalVariable">none</text>
</defs>

  <rect class="anc_exon" x="0" y="35.0" width="0" height="30" style="fill:#87bcbc;fill-opacity:1.00" />
  <rect class="anc_exon" x="0" y="35.0" width="2.4000000000000004" height="30" style="fill:#87bcbc;fill-opacity:1.00" />
  <line x1="2.4000000000000004" y1="50.0" x2="21.4" y2="50.0" style="stroke:#999; stroke-width:3;" />
  <line x1="21.4" y1="50.0" x2="21.4" y2="50.0" style="stroke:#999; stroke-width:3;" />
  <line x1="21.4" y1="50.0" x2="21.4" y2="50.0" style="stroke:#999; stroke-width:3;" />
  <line x1="21.4" y1="50.0" x2="42.0" y2="50.0" style="stroke:#999; stroke-width:3;" />
  <rect class="anc_exon" x="42" y="35.0" width="72" height="30" style="fill:#87bcbc;fill-opacity:1.00" />
  <line x1="114" y1="50.0" x2="154" y2="50.0" style="stroke:#999; stroke-width:3;" />
  <rect class="anc_exon" x="154" y="35.0" width="93" height="30" style="fill:#87bcbc;fill-opacity:1.00" />
  <line x1="247" y1="50.0" x2="267" y2="50.0" style="stroke:#999; stroke-width:3;" />
  <line x1="267" y1="50.0" x2="267" y2="50.0" style="stroke:#999; stroke-width:3;" />
  <line x1="267" y1="50.0" x2="267" y2="50.0" style="stroke:#999; stroke-width:3;" />
  <line x1="267" y1="50.0" x2="287" y2="50.0" style="stroke:#999; stroke-width:3;" />
  <rect class="anc_exon" x="287" y="35.0" width="66" height="30" style="fill:#87bcbc;fill-opacity:1.00" />
  <line x1="353" y1="50.0" x2="373" y2="50.0" style="stroke:#999; stroke-width:3;" />
  <line x1="373" y1="50.0" x2="373" y2="50.0" style="stroke:#999; stroke-width:3;" />
  <line x1="373" y1="50.0" x2="373" y2="50.0" style="stroke:#999; stroke-width:3;" />
  <line x1="373" y1="50.0" x2="393" y2="50.0" style="stroke:#999; stroke-width:3;" />
  <rect class="anc_exon" x="393" y="35.0" width="133" height="30" style="fill:#87bcbc;fill-opacity:1.00" />
  <line x1="526" y1="50.0" x2="546" y2="50.0" style="stroke:#999; stroke-width:3;" />
  <line x1="546" y1="50.0" x2="546" y2="50.0" style="stroke:#999; stroke-width:3;" />
  <line x1="546" y1="50.0" x2="546" y2="50.0" style="stroke:#999; stroke-width:3;" />
  <line x1="546" y1="50.0" x2="566" y2="50.0" style="stroke:#999; stroke-width:3;" />
  <rect class="anc_exon" x="566" y="35.0" width="77" height="30" style="fill:#87bcbc;fill-opacity:1.00" />
  <line x1="643" y1="50.0" x2="663" y2="50.0" style="stroke:#999; stroke-width:3;" />
  <line x1="663" y1="50.0" x2="663" y2="50.0" style="stroke:#999; stroke-width:3;" />
  <line x1="663" y1="50.0" x2="663" y2="50.0" style="stroke:#999; stroke-width:3;" />
  <line x1="663" y1="50.0" x2="683" y2="50.0" style="stroke:#999; stroke-width:3;" />
  <rect class="anc_exon" x="683" y="35.0" width="91" height="30" style="fill:#87bcbc;fill-opacity:1.00" />
  <line x1="774" y1="50.0" x2="794" y2="50.0" style="stroke:#999; stroke-width:3;" />
  <line x1="794" y1="50.0" x2="794" y2="50.0" style="stroke:#999; stroke-width:3;" />
  <line x1="794" y1="50.0" x2="794" y2="50.0" style="stroke:#999; stroke-width:3;" />
  <line x1="794" y1="50.0" x2="814" y2="50.0" style="stroke:#999; stroke-width:3;" />
  <rect class="anc_exon" x="814" y="35.0" width="164" height="30" style="fill:#87bcbc;fill-opacity:1.00" />
  <line x1="978" y1="50.0" x2="1018" y2="50.0" style="stroke:#999; stroke-width:3;" />
  <rect class="anc_exon" x="1018" y="35.0" width="105" height="30" style="fill:#87bcbc;fill-opacity:1.00" />
  <line x1="1123" y1="50.0" x2="1163" y2="50.0" style="stroke:#999; stroke-width:3;" />
  <rect class="anc_exon" x="1163" y="35.0" width="55" height="30" style="fill:#87bcbc;fill-opacity:1.00" />
  <line x1="1218" y1="50.0" x2="1258" y2="50.0" style="stroke:#999; stroke-width:3;" />
  <rect class="anc_exon" x="1258" y="35.0" width="20" height="30" style="fill:#cf232b;fill-opacity:1.00" />
  <line x1="1278" y1="50.0" x2="1318" y2="50.0" style="stroke:#999; stroke-width:3;" />
  <rect class="anc_exon" x="1318" y="35.0" width="156" height="30" style="fill:#87bcbc;fill-opacity:1.00" />
  <line x1="1474" y1="50.0" x2="1514" y2="50.0" style="stroke:#999; stroke-width:3;" />
  <rect class="anc_exon" x="1514" y="35.0" width="148" height="30" style="fill:#87bcbc;fill-opacity:1.00" />
  <line x1="1662" y1="50.0" x2="1702" y2="50.0" style="stroke:#999; stroke-width:3;" />
  <rect class="anc_exon" x="1702" y="35.0" width="136" height="30" style="fill:#87bcbc;fill-opacity:1.00" />
  <line x1="1838" y1="50.0" x2="1858" y2="50.0" style="stroke:#999; stroke-width:3;" />
  <line x1="1858" y1="50.0" x2="1858" y2="50.0" style="stroke:#999; stroke-width:3;" />
  <line x1="1858" y1="50.0" x2="1858" y2="50.0" style="stroke:#999; stroke-width:3;" />
  <line x1="1858" y1="50.0" x2="1878" y2="50.0" style="stroke:#999; stroke-width:3;" />
  <rect class="anc_exon" x="1878" y="35.0" width="116" height="30" style="fill:#87bcbc;fill-opacity:1.00" />
  <line x1="1994" y1="50.0" x2="2034" y2="50.0" style="stroke:#999; stroke-width:3;" />
  <rect class="anc_exon" x="2034" y="35.0" width="1078" height="30" style="fill:#87bcbc;fill-opacity:1.00" />
  <line x1="3112" y1="50.0" x2="3152" y2="50.0" style="stroke:#999; stroke-width:3;" />
  <rect class="anc_exon" x="3152" y="35.0" width="88" height="30" style="fill:#87bcbc;fill-opacity:1.00" />
  <line x1="3240" y1="50.0" x2="3280" y2="50.0" style="stroke:#999; stroke-width:3;" />
  <rect class="anc_exon" x="3280" y="35.0" width="71" height="30" style="fill:#87bcbc;fill-opacity:1.00" />
  <line x1="3351" y1="50.0" x2="3371" y2="50.0" style="stroke:#999; stroke-width:3;" />
  <line x1="3371" y1="50.0" x2="3371" y2="50.0" style="stroke:#999; stroke-width:3;" />
  <line x1="3371" y1="50.0" x2="3371" y2="50.0" style="stroke:#999; stroke-width:3;" />
  <line x1="3371" y1="50.0" x2="3391" y2="50.0" style="stroke:#999; stroke-width:3;" />
  <rect class="anc_exon" x="3391" y="35.0" width="137" height="30" style="fill:#87bcbc;fill-opacity:1.00" />
  <rect class="anc_exon" x="3528" y="35.0" width="0" height="30" style="fill:#87bcbc;fill-opacity:1.00" />
  <text style="" >
<tspan x="0" y="83.0" style="font-size:18px;" >SP XM_031948894_1.1</tspan>  </text>



<script type="text/ecmascript">
<![CDATA[
function draw_bbox(text_id)
{
    var text_elem = document.getElementById(text_id);
    var offset_px = 2;
    var offset_py = 0;
    bbox = text_elem.getBBox();
    var box = document.createElementNS(document.rootElement.namespaceURI,'rect');
    box.setAttribute('x', bbox.x - offset_px);
    box.setAttribute('y', bbox.y - offset_py);
    box.setAttribute('width', bbox.width + offset_px * 2);
    box.setAttribute('height', bbox.height + offset_py * 2);
    box.setAttribute('style','fill: white;'+'stroke: black;'+'stroke-width: 1px;');
    text_elem.insertBefore(box,text_elem.childNodes[0]);

    var svg = text_elem.parentNode;
    svg.appendChild(text_elem);
}

for (var i=1; i < 1; i++)
{
draw_bbox("Mouseover" + i);
}
]]> 
</script>
</svg>
