<svg version="1.1"
xmlns="http://www.w3.org/2000/svg"
xmlns:xlink="http://www.w3.org/1999/xlink"
width="3428" height="100" viewBox = "0 0 3428 100"
onclick="mouseclick(evt)">

<script type="text/ecmascript">

<![CDATA[
    function mouseover(evt, target) { 
    var gv = document.getElementById("globalVariable");
    var previoustarget = gv.firstChild.nodeValue;
    if (previoustarget != "none") 
    {
        	document.getElementById(gv.firstChild.nodeValue).setAttributeNS(null, "visibility", "hidden");
    }
    document.getElementById(target).setAttributeNS(null, "visibility", "visible");
    gv.firstChild.nodeValue = target;
        }

    function mouseclick(evt) { 
    var gv = document.getElementById("globalVariable");
    var previoustarget = gv.firstChild.nodeValue;
    if (previoustarget != "none") {
        	document.getElementById(gv.firstChild.nodeValue).setAttributeNS(null, "visibility", "hidden");
        }
    }
]]>
  </script>
<style type="text/css" >

<![CDATA[
    rect.anc_exon {
              stroke-width:3;
                  }

    rect.non_anc_exon {
              stroke: black; stroke-width:3; stroke-dasharray: 5,5;
                    }

    text {
              font-size: 18px;
              font-family: Courier New;
          }
                    ]]>
</style>

<defs>
    <text x="150" y="40" id="globalVariable">none</text>
</defs>

  <rect class="anc_exon" x="0" y="35.0" width="0" height="30" style="fill:#87bcbc;fill-opacity:1.00" />
  <rect class="anc_exon" x="0" y="35.0" width="78.4" height="30" style="fill:#87bcbc;fill-opacity:1.00" />
  <line x1="78.4" y1="50.0" x2="97.4" y2="50.0" style="stroke:#999; stroke-width:3;" />
  <line x1="97.4" y1="50.0" x2="97.4" y2="50.0" style="stroke:#999; stroke-width:3;" />
  <line x1="97.4" y1="50.0" x2="97.4" y2="50.0" style="stroke:#999; stroke-width:3;" />
  <line x1="97.4" y1="50.0" x2="118.0" y2="50.0" style="stroke:#999; stroke-width:3;" />
  <rect class="anc_exon" x="118" y="35.0" width="68" height="30" style="fill:#878787;fill-opacity:1.00" />
  <line x1="186" y1="50.0" x2="206" y2="50.0" style="stroke:#999; stroke-width:3;" />
  <line x1="206" y1="50.0" x2="206" y2="50.0" style="stroke:#999; stroke-width:3;" />
  <line x1="206" y1="50.0" x2="206" y2="50.0" style="stroke:#999; stroke-width:3;" />
  <line x1="206" y1="50.0" x2="226" y2="50.0" style="stroke:#999; stroke-width:3;" />
  <rect class="anc_exon" x="226" y="35.0" width="92" height="30" style="fill:#87bcbc;fill-opacity:1.00" />
  <line x1="318" y1="50.0" x2="338" y2="50.0" style="stroke:#999; stroke-width:3;" />
  <line x1="338" y1="50.0" x2="338" y2="50.0" style="stroke:#999; stroke-width:3;" />
  <line x1="338" y1="50.0" x2="338" y2="50.0" style="stroke:#999; stroke-width:3;" />
  <line x1="338" y1="50.0" x2="358" y2="50.0" style="stroke:#999; stroke-width:3;" />
  <rect class="anc_exon" x="358" y="35.0" width="128" height="30" style="fill:#87bcbc;fill-opacity:1.00" />
  <line x1="486" y1="50.0" x2="506" y2="50.0" style="stroke:#999; stroke-width:3;" />
  <line x1="506" y1="50.0" x2="506" y2="50.0" style="stroke:#999; stroke-width:3;" />
  <line x1="506" y1="50.0" x2="506" y2="50.0" style="stroke:#999; stroke-width:3;" />
  <line x1="506" y1="50.0" x2="526" y2="50.0" style="stroke:#999; stroke-width:3;" />
  <rect class="anc_exon" x="526" y="35.0" width="113" height="30" style="fill:#87bcbc;fill-opacity:1.00" />
  <line x1="639" y1="50.0" x2="659" y2="50.0" style="stroke:#999; stroke-width:3;" />
  <line x1="659" y1="50.0" x2="659" y2="50.0" style="stroke:#999; stroke-width:3;" />
  <line x1="659" y1="50.0" x2="659" y2="50.0" style="stroke:#999; stroke-width:3;" />
  <line x1="659" y1="50.0" x2="679" y2="50.0" style="stroke:#999; stroke-width:3;" />
  <rect class="anc_exon" x="679" y="35.0" width="149" height="30" style="fill:#87bcbc;fill-opacity:1.00" />
  <line x1="828" y1="50.0" x2="868" y2="50.0" style="stroke:#999; stroke-width:3;" />
  <rect class="anc_exon" x="868" y="35.0" width="130" height="30" style="fill:#87bcbc;fill-opacity:1.00" />
  <line x1="998" y1="50.0" x2="1038" y2="50.0" style="stroke:#999; stroke-width:3;" />
  <rect class="anc_exon" x="1038" y="35.0" width="70" height="30" style="fill:#87bcbc;fill-opacity:1.00" />
  <line x1="1108" y1="50.0" x2="1148" y2="50.0" style="stroke:#999; stroke-width:3;" />
  <rect class="anc_exon" x="1148" y="35.0" width="85" height="30" style="fill:#87bcbc;fill-opacity:1.00" />
  <line x1="1233" y1="50.0" x2="1253" y2="50.0" style="stroke:#999; stroke-width:3;" />
  <line x1="1253" y1="50.0" x2="1253" y2="50.0" style="stroke:#999; stroke-width:3;" />
  <line x1="1253" y1="50.0" x2="1253" y2="50.0" style="stroke:#999; stroke-width:3;" />
  <line x1="1253" y1="50.0" x2="1273" y2="50.0" style="stroke:#999; stroke-width:3;" />
  <rect class="anc_exon" x="1273" y="35.0" width="73" height="30" style="fill:#87bcbc;fill-opacity:1.00" />
  <line x1="1346" y1="50.0" x2="1366" y2="50.0" style="stroke:#999; stroke-width:3;" />
  <line x1="1366" y1="50.0" x2="1366" y2="50.0" style="stroke:#999; stroke-width:3;" />
  <line x1="1366" y1="50.0" x2="1366" y2="50.0" style="stroke:#999; stroke-width:3;" />
  <line x1="1366" y1="50.0" x2="1386" y2="50.0" style="stroke:#999; stroke-width:3;" />
  <rect class="anc_exon" x="1386" y="35.0" width="72" height="30" style="fill:#87bcbc;fill-opacity:1.00" />
  <line x1="1458" y1="50.0" x2="1478" y2="50.0" style="stroke:#999; stroke-width:3;" />
  <line x1="1478" y1="50.0" x2="1478" y2="50.0" style="stroke:#999; stroke-width:3;" />
  <line x1="1478" y1="50.0" x2="1478" y2="50.0" style="stroke:#999; stroke-width:3;" />
  <line x1="1478" y1="50.0" x2="1498" y2="50.0" style="stroke:#999; stroke-width:3;" />
  <rect class="anc_exon" x="1498" y="35.0" width="309" height="30" style="fill:#87bcbc;fill-opacity:1.00" />
  <line x1="1807" y1="50.0" x2="1827" y2="50.0" style="stroke:#999; stroke-width:3;" />
  <line x1="1827" y1="50.0" x2="1827" y2="50.0" style="stroke:#999; stroke-width:3;" />
  <line x1="1827" y1="50.0" x2="1827" y2="50.0" style="stroke:#999; stroke-width:3;" />
  <line x1="1827" y1="50.0" x2="1847" y2="50.0" style="stroke:#999; stroke-width:3;" />
  <rect class="anc_exon" x="1847" y="35.0" width="96" height="30" style="fill:#87bcbc;fill-opacity:1.00" />
  <line x1="1943" y1="50.0" x2="1963" y2="50.0" style="stroke:#999; stroke-width:3;" />
  <line x1="1963" y1="50.0" x2="1963" y2="50.0" style="stroke:#999; stroke-width:3;" />
  <line x1="1963" y1="50.0" x2="1963" y2="50.0" style="stroke:#999; stroke-width:3;" />
  <line x1="1963" y1="50.0" x2="1983" y2="50.0" style="stroke:#999; stroke-width:3;" />
  <rect class="anc_exon" x="1983" y="35.0" width="95" height="30" style="fill:#87bcbc;fill-opacity:1.00" />
  <line x1="2078" y1="50.0" x2="2098" y2="50.0" style="stroke:#999; stroke-width:3;" />
  <line x1="2098" y1="50.0" x2="2098" y2="50.0" style="stroke:#999; stroke-width:3;" />
  <line x1="2098" y1="50.0" x2="2098" y2="50.0" style="stroke:#999; stroke-width:3;" />
  <line x1="2098" y1="50.0" x2="2118" y2="50.0" style="stroke:#999; stroke-width:3;" />
  <rect class="anc_exon" x="2118" y="35.0" width="143" height="30" style="fill:#87bcbc;fill-opacity:1.00" />
  <line x1="2261" y1="50.0" x2="2301" y2="50.0" style="stroke:#999; stroke-width:3;" />
  <rect class="anc_exon" x="2301" y="35.0" width="59" height="30" style="fill:#87bcbc;fill-opacity:1.00" />
  <line x1="2360" y1="50.0" x2="2380" y2="50.0" style="stroke:#999; stroke-width:3;" />
  <line x1="2380" y1="50.0" x2="2380" y2="50.0" style="stroke:#999; stroke-width:3;" />
  <line x1="2380" y1="50.0" x2="2380" y2="50.0" style="stroke:#999; stroke-width:3;" />
  <line x1="2380" y1="50.0" x2="2400" y2="50.0" style="stroke:#999; stroke-width:3;" />
  <rect class="anc_exon" x="2400" y="35.0" width="126" height="30" style="fill:#87bcbc;fill-opacity:1.00" />
  <line x1="2526" y1="50.0" x2="2546" y2="50.0" style="stroke:#999; stroke-width:3;" />
  <line x1="2546" y1="50.0" x2="2546" y2="50.0" style="stroke:#999; stroke-width:3;" />
  <line x1="2546" y1="50.0" x2="2546" y2="50.0" style="stroke:#999; stroke-width:3;" />
  <line x1="2546" y1="50.0" x2="2566" y2="50.0" style="stroke:#999; stroke-width:3;" />
  <rect class="anc_exon" x="2566" y="35.0" width="222" height="30" style="fill:#87bcbc;fill-opacity:1.00" />
  <line x1="2788" y1="50.0" x2="2808" y2="50.0" style="stroke:#999; stroke-width:3;" />
  <line x1="2808" y1="50.0" x2="2808" y2="50.0" style="stroke:#999; stroke-width:3;" />
  <line x1="2808" y1="50.0" x2="2808" y2="50.0" style="stroke:#999; stroke-width:3;" />
  <line x1="2808" y1="50.0" x2="2828" y2="50.0" style="stroke:#999; stroke-width:3;" />
  <rect class="anc_exon" x="2828" y="35.0" width="76" height="30" style="fill:#87bcbc;fill-opacity:1.00" />
  <line x1="2904" y1="50.0" x2="2944" y2="50.0" style="stroke:#999; stroke-width:3;" />
  <rect class="anc_exon" x="2944" y="35.0" width="88" height="30" style="fill:#87bcbc;fill-opacity:1.00" />
  <line x1="3032" y1="50.0" x2="3072" y2="50.0" style="stroke:#999; stroke-width:3;" />
  <rect class="anc_exon" x="3072" y="35.0" width="209" height="30" style="fill:#87bcbc;fill-opacity:1.00" />
  <line x1="3281" y1="50.0" x2="3301" y2="50.0" style="stroke:#999; stroke-width:3;" />
  <line x1="3301" y1="50.0" x2="3301" y2="50.0" style="stroke:#999; stroke-width:3;" />
  <line x1="3301" y1="50.0" x2="3301" y2="50.0" style="stroke:#999; stroke-width:3;" />
  <line x1="3301" y1="50.0" x2="3321" y2="50.0" style="stroke:#999; stroke-width:3;" />
  <rect class="anc_exon" x="3321" y="35.0" width="71" height="30" style="fill:#87bcbc;fill-opacity:1.00" />
  <rect class="anc_exon" x="3392" y="35.0" width="0" height="30" style="fill:#87bcbc;fill-opacity:1.00" />
  <text style="" >
<tspan x="0" y="83.0" style="font-size:18px;" >SP XM_031956790_1.1</tspan>  </text>



<script type="text/ecmascript">
<![CDATA[
function draw_bbox(text_id)
{
    var text_elem = document.getElementById(text_id);
    var offset_px = 2;
    var offset_py = 0;
    bbox = text_elem.getBBox();
    var box = document.createElementNS(document.rootElement.namespaceURI,'rect');
    box.setAttribute('x', bbox.x - offset_px);
    box.setAttribute('y', bbox.y - offset_py);
    box.setAttribute('width', bbox.width + offset_px * 2);
    box.setAttribute('height', bbox.height + offset_py * 2);
    box.setAttribute('style','fill: white;'+'stroke: black;'+'stroke-width: 1px;');
    text_elem.insertBefore(box,text_elem.childNodes[0]);

    var svg = text_elem.parentNode;
    svg.appendChild(text_elem);
}

for (var i=1; i < 1; i++)
{
draw_bbox("Mouseover" + i);
}
]]> 
</script>
</svg>
