<svg version="1.1"
xmlns="http://www.w3.org/2000/svg"
xmlns:xlink="http://www.w3.org/1999/xlink"
width="1518" height="100" viewBox = "0 0 1518 100"
onclick="mouseclick(evt)">

<script type="text/ecmascript">

<![CDATA[
    function mouseover(evt, target) { 
    var gv = document.getElementById("globalVariable");
    var previoustarget = gv.firstChild.nodeValue;
    if (previoustarget != "none") 
    {
        	document.getElementById(gv.firstChild.nodeValue).setAttributeNS(null, "visibility", "hidden");
    }
    document.getElementById(target).setAttributeNS(null, "visibility", "visible");
    gv.firstChild.nodeValue = target;
        }

    function mouseclick(evt) { 
    var gv = document.getElementById("globalVariable");
    var previoustarget = gv.firstChild.nodeValue;
    if (previoustarget != "none") {
        	document.getElementById(gv.firstChild.nodeValue).setAttributeNS(null, "visibility", "hidden");
        }
    }
]]>
  </script>
<style type="text/css" >

<![CDATA[
    rect.anc_exon {
              stroke-width:3;
                  }

    rect.non_anc_exon {
              stroke: black; stroke-width:3; stroke-dasharray: 5,5;
                    }

    text {
              font-size: 18px;
              font-family: Courier New;
          }
                    ]]>
</style>

<defs>
    <text x="150" y="40" id="globalVariable">none</text>
</defs>

  <rect class="anc_exon" x="0" y="35.0" width="0" height="30" style="fill:#87bcbc;fill-opacity:1.00" />
  <rect class="anc_exon" x="0" y="35.0" width="67.2" height="30" style="fill:#87bcbc;fill-opacity:1.00" />
  <line x1="67.2" y1="50.0" x2="86.2" y2="50.0" style="stroke:#999; stroke-width:3;" />
  <line x1="86.2" y1="50.0" x2="86.2" y2="50.0" style="stroke:#999; stroke-width:3;" />
  <line x1="86.2" y1="50.0" x2="86.2" y2="50.0" style="stroke:#999; stroke-width:3;" />
  <line x1="86.2" y1="50.0" x2="107.0" y2="50.0" style="stroke:#999; stroke-width:3;" />
  <rect class="anc_exon" x="107" y="35.0" width="87" height="30" style="fill:#87bcbc;fill-opacity:1.00" />
  <line x1="194" y1="50.0" x2="214" y2="50.0" style="stroke:#999; stroke-width:3;" />
  <line x1="214" y1="50.0" x2="214" y2="50.0" style="stroke:#999; stroke-width:3;" />
  <line x1="214" y1="50.0" x2="214" y2="50.0" style="stroke:#999; stroke-width:3;" />
  <line x1="214" y1="50.0" x2="234" y2="50.0" style="stroke:#999; stroke-width:3;" />
  <rect class="anc_exon" x="234" y="35.0" width="92" height="30" style="fill:#87bcbc;fill-opacity:1.00" />
  <line x1="326" y1="50.0" x2="346" y2="50.0" style="stroke:#999; stroke-width:3;" />
  <line x1="346" y1="50.0" x2="346" y2="50.0" style="stroke:#999; stroke-width:3;" />
  <line x1="346" y1="50.0" x2="346" y2="50.0" style="stroke:#999; stroke-width:3;" />
  <line x1="346" y1="50.0" x2="366" y2="50.0" style="stroke:#999; stroke-width:3;" />
  <rect class="anc_exon" x="366" y="35.0" width="69" height="30" style="fill:#87bcbc;fill-opacity:1.00" />
  <line x1="435" y1="50.0" x2="475" y2="50.0" style="stroke:#999; stroke-width:3;" />
  <rect class="anc_exon" x="475" y="35.0" width="21" height="30" style="fill:#87bcbc;fill-opacity:1.00" />
  <line x1="496" y1="50.0" x2="536" y2="50.0" style="stroke:#999; stroke-width:3;" />
  <rect class="anc_exon" x="536" y="35.0" width="58" height="30" style="fill:#87bcbc;fill-opacity:1.00" />
  <line x1="594" y1="50.0" x2="634" y2="50.0" style="stroke:#999; stroke-width:3;" />
  <rect class="anc_exon" x="634" y="35.0" width="31" height="30" style="fill:#87bcbc;fill-opacity:1.00" />
  <line x1="665" y1="50.0" x2="705" y2="50.0" style="stroke:#999; stroke-width:3;" />
  <rect class="anc_exon" x="705" y="35.0" width="66" height="30" style="fill:#87bcbc;fill-opacity:1.00" />
  <line x1="771" y1="50.0" x2="791" y2="50.0" style="stroke:#999; stroke-width:3;" />
  <line x1="791" y1="50.0" x2="791" y2="50.0" style="stroke:#999; stroke-width:3;" />
  <line x1="791" y1="50.0" x2="791" y2="50.0" style="stroke:#999; stroke-width:3;" />
  <line x1="791" y1="50.0" x2="811" y2="50.0" style="stroke:#999; stroke-width:3;" />
  <rect class="anc_exon" x="811" y="35.0" width="108" height="30" style="fill:#87bcbc;fill-opacity:1.00" />
  <line x1="919" y1="50.0" x2="939" y2="50.0" style="stroke:#999; stroke-width:3;" />
  <line x1="939" y1="50.0" x2="939" y2="50.0" style="stroke:#999; stroke-width:3;" />
  <line x1="939" y1="50.0" x2="939" y2="50.0" style="stroke:#999; stroke-width:3;" />
  <line x1="939" y1="50.0" x2="959" y2="50.0" style="stroke:#999; stroke-width:3;" />
  <rect class="anc_exon" x="959" y="35.0" width="33" height="30" style="fill:#87bcbc;fill-opacity:1.00" />
  <line x1="992" y1="50.0" x2="1032" y2="50.0" style="stroke:#999; stroke-width:3;" />
  <rect class="anc_exon" x="1032" y="35.0" width="104" height="30" style="fill:#87bcbc;fill-opacity:1.00" />
  <line x1="1136" y1="50.0" x2="1176" y2="50.0" style="stroke:#999; stroke-width:3;" />
  <rect class="anc_exon" x="1176" y="35.0" width="80" height="30" style="fill:#87bcbc;fill-opacity:1.00" />
  <line x1="1256" y1="50.0" x2="1276" y2="50.0" style="stroke:#999; stroke-width:3;" />
  <line x1="1276" y1="50.0" x2="1276" y2="50.0" style="stroke:#999; stroke-width:3;" />
  <line x1="1276" y1="50.0" x2="1276" y2="50.0" style="stroke:#999; stroke-width:3;" />
  <line x1="1276" y1="50.0" x2="1296" y2="50.0" style="stroke:#999; stroke-width:3;" />
  <rect class="anc_exon" x="1296" y="35.0" width="65" height="30" style="fill:#87bcbc;fill-opacity:1.00" />
  <line x1="1361" y1="50.0" x2="1381" y2="50.0" style="stroke:#999; stroke-width:3;" />
  <line x1="1381" y1="50.0" x2="1381" y2="50.0" style="stroke:#999; stroke-width:3;" />
  <line x1="1381" y1="50.0" x2="1381" y2="50.0" style="stroke:#999; stroke-width:3;" />
  <line x1="1381" y1="50.0" x2="1401" y2="50.0" style="stroke:#999; stroke-width:3;" />
  <rect class="anc_exon" x="1401" y="35.0" width="81" height="30" style="fill:#87bcbc;fill-opacity:1.00" />
  <rect class="anc_exon" x="1482" y="35.0" width="0" height="30" style="fill:#87bcbc;fill-opacity:1.00" />
  <text style="" >
<tspan x="0" y="83.0" style="font-size:18px;" >SP XM_031946561_1.1</tspan>  </text>



<script type="text/ecmascript">
<![CDATA[
function draw_bbox(text_id)
{
    var text_elem = document.getElementById(text_id);
    var offset_px = 2;
    var offset_py = 0;
    bbox = text_elem.getBBox();
    var box = document.createElementNS(document.rootElement.namespaceURI,'rect');
    box.setAttribute('x', bbox.x - offset_px);
    box.setAttribute('y', bbox.y - offset_py);
    box.setAttribute('width', bbox.width + offset_px * 2);
    box.setAttribute('height', bbox.height + offset_py * 2);
    box.setAttribute('style','fill: white;'+'stroke: black;'+'stroke-width: 1px;');
    text_elem.insertBefore(box,text_elem.childNodes[0]);

    var svg = text_elem.parentNode;
    svg.appendChild(text_elem);
}

for (var i=1; i < 1; i++)
{
draw_bbox("Mouseover" + i);
}
]]> 
</script>
</svg>
