<svg version="1.1"
xmlns="http://www.w3.org/2000/svg"
xmlns:xlink="http://www.w3.org/1999/xlink"
width="5456" height="100" viewBox = "0 0 5456 100"
onclick="mouseclick(evt)">

<script type="text/ecmascript">

<![CDATA[
    function mouseover(evt, target) { 
    var gv = document.getElementById("globalVariable");
    var previoustarget = gv.firstChild.nodeValue;
    if (previoustarget != "none") 
    {
        	document.getElementById(gv.firstChild.nodeValue).setAttributeNS(null, "visibility", "hidden");
    }
    document.getElementById(target).setAttributeNS(null, "visibility", "visible");
    gv.firstChild.nodeValue = target;
        }

    function mouseclick(evt) { 
    var gv = document.getElementById("globalVariable");
    var previoustarget = gv.firstChild.nodeValue;
    if (previoustarget != "none") {
        	document.getElementById(gv.firstChild.nodeValue).setAttributeNS(null, "visibility", "hidden");
        }
    }
]]>
  </script>
<style type="text/css" >

<![CDATA[
    rect.anc_exon {
              stroke-width:3;
                  }

    rect.non_anc_exon {
              stroke: black; stroke-width:3; stroke-dasharray: 5,5;
                    }

    text {
              font-size: 18px;
              font-family: Courier New;
          }
                    ]]>
</style>

<defs>
    <text x="150" y="40" id="globalVariable">none</text>
</defs>

  <rect class="anc_exon" x="0" y="35.0" width="0" height="30" style="fill:#87bcbc;fill-opacity:1.00" />
  <rect class="anc_exon" x="0" y="35.0" width="2.4000000000000004" height="30" style="fill:#87bcbc;fill-opacity:1.00" />
  <line x1="2.4000000000000004" y1="50.0" x2="42.0" y2="50.0" style="stroke:#999; stroke-width:3;" />
  <rect class="anc_exon" x="42" y="35.0" width="150" height="30" style="fill:#87bcbc;fill-opacity:1.00" />
  <line x1="192" y1="50.0" x2="212" y2="50.0" style="stroke:#999; stroke-width:3;" />
  <line x1="212" y1="50.0" x2="212" y2="50.0" style="stroke:#999; stroke-width:3;" />
  <line x1="212" y1="50.0" x2="212" y2="50.0" style="stroke:#999; stroke-width:3;" />
  <line x1="212" y1="50.0" x2="232" y2="50.0" style="stroke:#999; stroke-width:3;" />
  <rect class="anc_exon" x="232" y="35.0" width="135" height="30" style="fill:#87bcbc;fill-opacity:1.00" />
  <line x1="367" y1="50.0" x2="387" y2="50.0" style="stroke:#999; stroke-width:3;" />
  <line x1="387" y1="50.0" x2="387" y2="50.0" style="stroke:#999; stroke-width:3;" />
  <line x1="387" y1="50.0" x2="387" y2="50.0" style="stroke:#999; stroke-width:3;" />
  <line x1="387" y1="50.0" x2="407" y2="50.0" style="stroke:#999; stroke-width:3;" />
  <rect class="anc_exon" x="407" y="35.0" width="176" height="30" style="fill:#87bcbc;fill-opacity:1.00" />
  <line x1="583" y1="50.0" x2="603" y2="50.0" style="stroke:#999; stroke-width:3;" />
  <line x1="603" y1="50.0" x2="603" y2="50.0" style="stroke:#999; stroke-width:3;" />
  <line x1="603" y1="50.0" x2="603" y2="50.0" style="stroke:#999; stroke-width:3;" />
  <line x1="603" y1="50.0" x2="623" y2="50.0" style="stroke:#999; stroke-width:3;" />
  <rect class="anc_exon" x="623" y="35.0" width="116" height="30" style="fill:#87bcbc;fill-opacity:1.00" />
  <line x1="739" y1="50.0" x2="779" y2="50.0" style="stroke:#999; stroke-width:3;" />
  <rect class="anc_exon" x="779" y="35.0" width="51" height="30" style="fill:#87bcbc;fill-opacity:1.00" />
  <line x1="830" y1="50.0" x2="850" y2="50.0" style="stroke:#999; stroke-width:3;" />
  <line x1="850" y1="50.0" x2="850" y2="50.0" style="stroke:#999; stroke-width:3;" />
  <line x1="850" y1="50.0" x2="850" y2="50.0" style="stroke:#999; stroke-width:3;" />
  <line x1="850" y1="50.0" x2="870" y2="50.0" style="stroke:#999; stroke-width:3;" />
  <rect class="anc_exon" x="870" y="35.0" width="47" height="30" style="fill:#87bcbc;fill-opacity:1.00" />
  <line x1="917" y1="50.0" x2="937" y2="50.0" style="stroke:#999; stroke-width:3;" />
  <line x1="937" y1="50.0" x2="937" y2="50.0" style="stroke:#999; stroke-width:3;" />
  <line x1="937" y1="50.0" x2="937" y2="50.0" style="stroke:#999; stroke-width:3;" />
  <line x1="937" y1="50.0" x2="957" y2="50.0" style="stroke:#999; stroke-width:3;" />
  <rect class="anc_exon" x="957" y="35.0" width="83" height="30" style="fill:#87bcbc;fill-opacity:1.00" />
  <line x1="1040" y1="50.0" x2="1080" y2="50.0" style="stroke:#999; stroke-width:3;" />
  <rect class="anc_exon" x="1080" y="35.0" width="196" height="30" style="fill:#87bcbc;fill-opacity:1.00" />
  <line x1="1276" y1="50.0" x2="1316" y2="50.0" style="stroke:#999; stroke-width:3;" />
  <rect class="anc_exon" x="1316" y="35.0" width="89" height="30" style="fill:#87bcbc;fill-opacity:1.00" />
  <line x1="1405" y1="50.0" x2="1425" y2="50.0" style="stroke:#999; stroke-width:3;" />
  <line x1="1425" y1="50.0" x2="1425" y2="50.0" style="stroke:#999; stroke-width:3;" />
  <line x1="1425" y1="50.0" x2="1425" y2="50.0" style="stroke:#999; stroke-width:3;" />
  <line x1="1425" y1="50.0" x2="1445" y2="50.0" style="stroke:#999; stroke-width:3;" />
  <rect class="anc_exon" x="1445" y="35.0" width="126" height="30" style="fill:#87bcbc;fill-opacity:1.00" />
  <line x1="1571" y1="50.0" x2="1611" y2="50.0" style="stroke:#999; stroke-width:3;" />
  <rect class="anc_exon" x="1611" y="35.0" width="122" height="30" style="fill:#87bcbc;fill-opacity:1.00" />
  <line x1="1733" y1="50.0" x2="1753" y2="50.0" style="stroke:#999; stroke-width:3;" />
  <line x1="1753" y1="50.0" x2="1753" y2="50.0" style="stroke:#999; stroke-width:3;" />
  <line x1="1753" y1="50.0" x2="1753" y2="50.0" style="stroke:#999; stroke-width:3;" />
  <line x1="1753" y1="50.0" x2="1773" y2="50.0" style="stroke:#999; stroke-width:3;" />
  <rect class="anc_exon" x="1773" y="35.0" width="57" height="30" style="fill:#87bcbc;fill-opacity:1.00" />
  <line x1="1830" y1="50.0" x2="1850" y2="50.0" style="stroke:#999; stroke-width:3;" />
  <line x1="1850" y1="50.0" x2="1850" y2="50.0" style="stroke:#999; stroke-width:3;" />
  <line x1="1850" y1="50.0" x2="1850" y2="50.0" style="stroke:#999; stroke-width:3;" />
  <line x1="1850" y1="50.0" x2="1870" y2="50.0" style="stroke:#999; stroke-width:3;" />
  <rect class="anc_exon" x="1870" y="35.0" width="57" height="30" style="fill:#87bcbc;fill-opacity:1.00" />
  <line x1="1927" y1="50.0" x2="1947" y2="50.0" style="stroke:#999; stroke-width:3;" />
  <line x1="1947" y1="50.0" x2="1947" y2="50.0" style="stroke:#999; stroke-width:3;" />
  <line x1="1947" y1="50.0" x2="1947" y2="50.0" style="stroke:#999; stroke-width:3;" />
  <line x1="1947" y1="50.0" x2="1967" y2="50.0" style="stroke:#999; stroke-width:3;" />
  <rect class="anc_exon" x="1967" y="35.0" width="119" height="30" style="fill:#87bcbc;fill-opacity:1.00" />
  <line x1="2086" y1="50.0" x2="2106" y2="50.0" style="stroke:#999; stroke-width:3;" />
  <line x1="2106" y1="50.0" x2="2106" y2="50.0" style="stroke:#999; stroke-width:3;" />
  <line x1="2106" y1="50.0" x2="2106" y2="50.0" style="stroke:#999; stroke-width:3;" />
  <line x1="2106" y1="50.0" x2="2126" y2="50.0" style="stroke:#999; stroke-width:3;" />
  <rect class="anc_exon" x="2126" y="35.0" width="102" height="30" style="fill:#87bcbc;fill-opacity:1.00" />
  <line x1="2228" y1="50.0" x2="2268" y2="50.0" style="stroke:#999; stroke-width:3;" />
  <rect class="anc_exon" x="2268" y="35.0" width="111" height="30" style="fill:#87bcbc;fill-opacity:1.00" />
  <line x1="2379" y1="50.0" x2="2419" y2="50.0" style="stroke:#999; stroke-width:3;" />
  <rect class="anc_exon" x="2419" y="35.0" width="110" height="30" style="fill:#87bcbc;fill-opacity:1.00" />
  <line x1="2529" y1="50.0" x2="2549" y2="50.0" style="stroke:#999; stroke-width:3;" />
  <line x1="2549" y1="50.0" x2="2549" y2="50.0" style="stroke:#999; stroke-width:3;" />
  <line x1="2549" y1="50.0" x2="2549" y2="50.0" style="stroke:#999; stroke-width:3;" />
  <line x1="2549" y1="50.0" x2="2569" y2="50.0" style="stroke:#999; stroke-width:3;" />
  <rect class="anc_exon" x="2569" y="35.0" width="124" height="30" style="fill:#87bcbc;fill-opacity:1.00" />
  <line x1="2693" y1="50.0" x2="2713" y2="50.0" style="stroke:#999; stroke-width:3;" />
  <line x1="2713" y1="50.0" x2="2713" y2="50.0" style="stroke:#999; stroke-width:3;" />
  <line x1="2713" y1="50.0" x2="2713" y2="50.0" style="stroke:#999; stroke-width:3;" />
  <line x1="2713" y1="50.0" x2="2733" y2="50.0" style="stroke:#999; stroke-width:3;" />
  <rect class="anc_exon" x="2733" y="35.0" width="147" height="30" style="fill:#87bcbc;fill-opacity:1.00" />
  <line x1="2880" y1="50.0" x2="2900" y2="50.0" style="stroke:#999; stroke-width:3;" />
  <line x1="2900" y1="50.0" x2="2900" y2="50.0" style="stroke:#999; stroke-width:3;" />
  <line x1="2900" y1="50.0" x2="2900" y2="50.0" style="stroke:#999; stroke-width:3;" />
  <line x1="2900" y1="50.0" x2="2920" y2="50.0" style="stroke:#999; stroke-width:3;" />
  <rect class="anc_exon" x="2920" y="35.0" width="104" height="30" style="fill:#87bcbc;fill-opacity:1.00" />
  <line x1="3024" y1="50.0" x2="3044" y2="50.0" style="stroke:#999; stroke-width:3;" />
  <line x1="3044" y1="50.0" x2="3044" y2="50.0" style="stroke:#999; stroke-width:3;" />
  <line x1="3044" y1="50.0" x2="3044" y2="50.0" style="stroke:#999; stroke-width:3;" />
  <line x1="3044" y1="50.0" x2="3064" y2="50.0" style="stroke:#999; stroke-width:3;" />
  <rect class="anc_exon" x="3064" y="35.0" width="96" height="30" style="fill:#87bcbc;fill-opacity:1.00" />
  <line x1="3160" y1="50.0" x2="3200" y2="50.0" style="stroke:#999; stroke-width:3;" />
  <rect class="anc_exon" x="3200" y="35.0" width="111" height="30" style="fill:#87bcbc;fill-opacity:1.00" />
  <line x1="3311" y1="50.0" x2="3331" y2="50.0" style="stroke:#999; stroke-width:3;" />
  <line x1="3331" y1="50.0" x2="3331" y2="50.0" style="stroke:#999; stroke-width:3;" />
  <line x1="3331" y1="50.0" x2="3331" y2="50.0" style="stroke:#999; stroke-width:3;" />
  <line x1="3331" y1="50.0" x2="3351" y2="50.0" style="stroke:#999; stroke-width:3;" />
  <rect class="anc_exon" x="3351" y="35.0" width="184" height="30" style="fill:#87bcbc;fill-opacity:1.00" />
  <line x1="3535" y1="50.0" x2="3555" y2="50.0" style="stroke:#999; stroke-width:3;" />
  <line x1="3555" y1="50.0" x2="3555" y2="50.0" style="stroke:#999; stroke-width:3;" />
  <line x1="3555" y1="50.0" x2="3555" y2="50.0" style="stroke:#999; stroke-width:3;" />
  <line x1="3555" y1="50.0" x2="3575" y2="50.0" style="stroke:#999; stroke-width:3;" />
  <rect class="anc_exon" x="3575" y="35.0" width="954" height="30" style="fill:#87bcbc;fill-opacity:1.00" />
  <line x1="4529" y1="50.0" x2="4569" y2="50.0" style="stroke:#999; stroke-width:3;" />
  <rect class="anc_exon" x="4569" y="35.0" width="174" height="30" style="fill:#87bcbc;fill-opacity:1.00" />
  <line x1="4743" y1="50.0" x2="4783" y2="50.0" style="stroke:#999; stroke-width:3;" />
  <rect class="anc_exon" x="4783" y="35.0" width="167" height="30" style="fill:#87bcbc;fill-opacity:1.00" />
  <line x1="4950" y1="50.0" x2="4990" y2="50.0" style="stroke:#999; stroke-width:3;" />
  <rect class="anc_exon" x="4990" y="35.0" width="99" height="30" style="fill:#87bcbc;fill-opacity:1.00" />
  <line x1="5089" y1="50.0" x2="5129" y2="50.0" style="stroke:#999; stroke-width:3;" />
  <rect class="anc_exon" x="5129" y="35.0" width="291" height="30" style="fill:#87bcbc;fill-opacity:1.00" />
  <rect class="anc_exon" x="5420" y="35.0" width="0" height="30" style="fill:#87bcbc;fill-opacity:1.00" />
  <text style="" >
<tspan x="0" y="83.0" style="font-size:18px;" >SP XM_031964154_1.1</tspan>  </text>



<script type="text/ecmascript">
<![CDATA[
function draw_bbox(text_id)
{
    var text_elem = document.getElementById(text_id);
    var offset_px = 2;
    var offset_py = 0;
    bbox = text_elem.getBBox();
    var box = document.createElementNS(document.rootElement.namespaceURI,'rect');
    box.setAttribute('x', bbox.x - offset_px);
    box.setAttribute('y', bbox.y - offset_py);
    box.setAttribute('width', bbox.width + offset_px * 2);
    box.setAttribute('height', bbox.height + offset_py * 2);
    box.setAttribute('style','fill: white;'+'stroke: black;'+'stroke-width: 1px;');
    text_elem.insertBefore(box,text_elem.childNodes[0]);

    var svg = text_elem.parentNode;
    svg.appendChild(text_elem);
}

for (var i=1; i < 1; i++)
{
draw_bbox("Mouseover" + i);
}
]]> 
</script>
</svg>
