<svg version="1.1"
xmlns="http://www.w3.org/2000/svg"
xmlns:xlink="http://www.w3.org/1999/xlink"
width="4172" height="110.0" viewBox = "0 -10.0 4172 110.0"
onclick="mouseclick(evt)">

<script type="text/ecmascript">

<![CDATA[
    function mouseover(evt, target) { 
    var gv = document.getElementById("globalVariable");
    var previoustarget = gv.firstChild.nodeValue;
    if (previoustarget != "none") 
    {
        	document.getElementById(gv.firstChild.nodeValue).setAttributeNS(null, "visibility", "hidden");
    }
    document.getElementById(target).setAttributeNS(null, "visibility", "visible");
    gv.firstChild.nodeValue = target;
        }

    function mouseclick(evt) { 
    var gv = document.getElementById("globalVariable");
    var previoustarget = gv.firstChild.nodeValue;
    if (previoustarget != "none") {
        	document.getElementById(gv.firstChild.nodeValue).setAttributeNS(null, "visibility", "hidden");
        }
    }
]]>
  </script>
<style type="text/css" >

<![CDATA[
    rect.anc_exon {
              stroke-width:3;
                  }

    rect.non_anc_exon {
              stroke: black; stroke-width:3; stroke-dasharray: 5,5;
                    }

    text {
              font-size: 18px;
              font-family: Courier New;
          }
                    ]]>
</style>

<defs>
    <text x="150" y="40" id="globalVariable">none</text>
</defs>

  <rect class="anc_exon" x="0" y="35.0" width="0" height="30" style="fill:#87bcbc;fill-opacity:1.00" />
  <rect class="anc_exon" x="0" y="35.0" width="60.800000000000004" height="30" style="fill:#878787;fill-opacity:1.00" />
  <line x1="60.800000000000004" y1="50.0" x2="100.0" y2="50.0" style="stroke:#999; stroke-width:3;" />
  <rect class="anc_exon" x="100" y="35.0" width="136" height="30" style="fill:#87bcbc;fill-opacity:1.00" />
  <line x1="236" y1="50.0" x2="276" y2="50.0" style="stroke:#999; stroke-width:3;" />
  <rect class="anc_exon" x="276" y="35.0" width="76" height="30" style="fill:#878787;fill-opacity:1.00" />
  <line x1="352" y1="50.0" x2="392" y2="50.0" style="stroke:#999; stroke-width:3;" />
  <rect class="anc_exon" x="392" y="35.0" width="216" height="30" style="fill:#87bcbc;fill-opacity:1.00" />
  <line x1="608" y1="50.0" x2="628" y2="50.0" style="stroke:#999; stroke-width:3;" />
  <line x1="628" y1="50.0" x2="628" y2="50.0" style="stroke:#999; stroke-width:3;" />
  <line x1="628" y1="50.0" x2="628" y2="50.0" style="stroke:#999; stroke-width:3;" />
  <line x1="628" y1="50.0" x2="648" y2="50.0" style="stroke:#999; stroke-width:3;" />
  <rect class="anc_exon" x="648" y="35.0" width="90" height="30" style="fill:#87bcbc;fill-opacity:1.00" />
  <line x1="738" y1="50.0" x2="758" y2="50.0" style="stroke:#999; stroke-width:3;" />
  <line x1="758" y1="50.0" x2="758" y2="50.0" style="stroke:#999; stroke-width:3;" />
  <line x1="758" y1="50.0" x2="758" y2="50.0" style="stroke:#999; stroke-width:3;" />
  <line x1="758" y1="50.0" x2="778" y2="50.0" style="stroke:#999; stroke-width:3;" />
  <rect class="anc_exon" x="778" y="35.0" width="174" height="30" style="fill:#878787;fill-opacity:1.00" />
  <line x1="952" y1="50.0" x2="992" y2="50.0" style="stroke:#999; stroke-width:3;" />
  <rect class="anc_exon" x="992" y="35.0" width="606" height="30" style="fill:#878787;fill-opacity:1.00" />
  <line x1="1598" y1="50.0" x2="1618" y2="50.0" style="stroke:#999; stroke-width:3;" />
  <line x1="1618" y1="50.0" x2="1618" y2="50.0" style="stroke:#999; stroke-width:3;" />
  <line x1="1618" y1="50.0" x2="1618" y2="50.0" style="stroke:#999; stroke-width:3;" />
  <line x1="1618" y1="50.0" x2="1638" y2="50.0" style="stroke:#999; stroke-width:3;" />
  <rect class="anc_exon" x="1638" y="35.0" width="72" height="30" style="fill:#87bcbc;fill-opacity:1.00" />
  <line x1="1710" y1="50.0" x2="1750" y2="50.0" style="stroke:#999; stroke-width:3;" />
  <rect class="anc_exon" x="1750" y="35.0" width="250" height="30" style="fill:#87bcbc;fill-opacity:1.00" />
  <line x1="2000" y1="50.0" x2="2040" y2="50.0" style="stroke:#999; stroke-width:3;" />
  <rect class="anc_exon" x="2040" y="35.0" width="29" height="30" style="fill:#87bcbc;fill-opacity:1.00" />
  <line x1="2069" y1="50.0" x2="2109" y2="50.0" style="stroke:#999; stroke-width:3;" />
  <rect class="anc_exon" x="2109" y="35.0" width="114" height="30" style="fill:#87bcbc;fill-opacity:1.00" />
  <line x1="2135.8" y1="35.0" x2="2135.8" y2="65.0" style="stroke:#121212; stroke-width:0.8; stroke-opacity:1"/>
  <text style="" text-anchor="middle">
<tspan x="2135.4" y="26.0" style="font-size:18px;fill:#121212;" >-1</tspan>  </text>
  <line x1="2223" y1="50.0" x2="2263" y2="50.0" style="stroke:#999; stroke-width:3;" />
  <rect class="anc_exon" x="2263" y="35.0" width="43" height="30" style="fill:#878787;fill-opacity:1.00" />
  <line x1="2306" y1="50.0" x2="2346" y2="50.0" style="stroke:#999; stroke-width:3;" />
  <rect class="anc_exon" x="2346" y="35.0" width="48" height="30" style="fill:#878787;fill-opacity:1.00" />
  <line x1="2394" y1="50.0" x2="2414" y2="50.0" style="stroke:#999; stroke-width:3;" />
  <line x1="2414" y1="50.0" x2="2414" y2="50.0" style="stroke:#999; stroke-width:3;" />
  <line x1="2414" y1="50.0" x2="2414" y2="50.0" style="stroke:#999; stroke-width:3;" />
  <line x1="2414" y1="50.0" x2="2434" y2="50.0" style="stroke:#999; stroke-width:3;" />
  <rect class="anc_exon" x="2434" y="35.0" width="919" height="30" style="fill:#878787;fill-opacity:1.00" />
  <line x1="3353" y1="50.0" x2="3393" y2="50.0" style="stroke:#999; stroke-width:3;" />
  <rect class="anc_exon" x="3393" y="35.0" width="133" height="30" style="fill:#87bcbc;fill-opacity:1.00" />
  <line x1="3526" y1="50.0" x2="3566" y2="50.0" style="stroke:#999; stroke-width:3;" />
  <rect class="anc_exon" x="3566" y="35.0" width="105" height="30" style="fill:#87bcbc;fill-opacity:1.00" />
  <line x1="3671" y1="50.0" x2="3691" y2="50.0" style="stroke:#999; stroke-width:3;" />
  <line x1="3691" y1="50.0" x2="3691" y2="50.0" style="stroke:#999; stroke-width:3;" />
  <line x1="3691" y1="50.0" x2="3691" y2="50.0" style="stroke:#999; stroke-width:3;" />
  <line x1="3691" y1="50.0" x2="3711" y2="50.0" style="stroke:#999; stroke-width:3;" />
  <rect class="anc_exon" x="3711" y="35.0" width="96" height="30" style="fill:#87bcbc;fill-opacity:1.00" />
  <line x1="3807" y1="50.0" x2="3847" y2="50.0" style="stroke:#999; stroke-width:3;" />
  <rect class="anc_exon" x="3847" y="35.0" width="110" height="30" style="fill:#878787;fill-opacity:1.00" />
  <line x1="3957" y1="50.0" x2="3997" y2="50.0" style="stroke:#999; stroke-width:3;" />
  <rect class="anc_exon" x="3997" y="35.0" width="139" height="30" style="fill:#87bcbc;fill-opacity:1.00" />
  <rect class="anc_exon" x="4136" y="35.0" width="0" height="30" style="fill:#87bcbc;fill-opacity:1.00" />
  <text style="" >
<tspan x="0" y="83.0" style="font-size:18px;" >SP XM_031948508_1.1</tspan>  </text>
  <text style="fill:#121212;" >
<tspan x="1614.96" y="68.0" style="font-size:18px;fill:#121212;" >gg</tspan>  </text>
  <text style="fill:#121212;" >
<tspan x="1726.96" y="68.0" style="font-size:18px;fill:#121212;" >ca</tspan>  </text>
  <text style="fill:#121212;" >
<tspan x="2085.96" y="68.0" style="font-size:18px;fill:#121212;" >ca</tspan>  </text>
  <text style="fill:#121212;" >
<tspan x="3369.96" y="68.0" style="font-size:18px;fill:#121212;" >ac</tspan>  </text>



<script type="text/ecmascript">
<![CDATA[
function draw_bbox(text_id)
{
    var text_elem = document.getElementById(text_id);
    var offset_px = 2;
    var offset_py = 0;
    bbox = text_elem.getBBox();
    var box = document.createElementNS(document.rootElement.namespaceURI,'rect');
    box.setAttribute('x', bbox.x - offset_px);
    box.setAttribute('y', bbox.y - offset_py);
    box.setAttribute('width', bbox.width + offset_px * 2);
    box.setAttribute('height', bbox.height + offset_py * 2);
    box.setAttribute('style','fill: white;'+'stroke: black;'+'stroke-width: 1px;');
    text_elem.insertBefore(box,text_elem.childNodes[0]);

    var svg = text_elem.parentNode;
    svg.appendChild(text_elem);
}

for (var i=1; i < 1; i++)
{
draw_bbox("Mouseover" + i);
}
]]> 
</script>
</svg>
