<svg version="1.1"
xmlns="http://www.w3.org/2000/svg"
xmlns:xlink="http://www.w3.org/1999/xlink"
width="4842" height="128.0" viewBox = "0 -28.0 4842 128.0"
onclick="mouseclick(evt)">

<script type="text/ecmascript">

<![CDATA[
    function mouseover(evt, target) { 
    var gv = document.getElementById("globalVariable");
    var previoustarget = gv.firstChild.nodeValue;
    if (previoustarget != "none") 
    {
        	document.getElementById(gv.firstChild.nodeValue).setAttributeNS(null, "visibility", "hidden");
    }
    document.getElementById(target).setAttributeNS(null, "visibility", "visible");
    gv.firstChild.nodeValue = target;
        }

    function mouseclick(evt) { 
    var gv = document.getElementById("globalVariable");
    var previoustarget = gv.firstChild.nodeValue;
    if (previoustarget != "none") {
        	document.getElementById(gv.firstChild.nodeValue).setAttributeNS(null, "visibility", "hidden");
        }
    }
]]>
  </script>
<style type="text/css" >

<![CDATA[
    rect.anc_exon {
              stroke-width:3;
                  }

    rect.non_anc_exon {
              stroke: black; stroke-width:3; stroke-dasharray: 5,5;
                    }

    text {
              font-size: 18px;
              font-family: Courier New;
          }
                    ]]>
</style>

<defs>
    <text x="150" y="40" id="globalVariable">none</text>
</defs>

  <rect class="anc_exon" x="0" y="35.0" width="0" height="30" style="fill:#87bcbc;fill-opacity:1.00" />
  <rect class="anc_exon" x="0" y="35.0" width="200.8" height="30" style="fill:#87bcbc;fill-opacity:1.00" />
  <line x1="166.8" y1="35.0" x2="166.8" y2="65.0" style="stroke:#121212; stroke-width:0.8; stroke-opacity:1"/>
  <line x1="188.4" y1="35.0" x2="188.4" y2="65.0" style="stroke:#121212; stroke-width:0.8; stroke-opacity:1"/>
  <text style="" text-anchor="middle">
<tspan x="177.20000000000002" y="26.0" style="font-size:18px;fill:#121212;" >-1</tspan><tspan x="177.20000000000002" y="8.0" style="font-size:18px;fill:#121212;" >-1</tspan>  </text>
  <line x1="200.8" y1="50.0" x2="219.8" y2="50.0" style="stroke:#999; stroke-width:3;" />
  <line x1="219.8" y1="50.0" x2="219.8" y2="50.0" style="stroke:#999; stroke-width:3;" />
  <line x1="219.8" y1="50.0" x2="219.8" y2="50.0" style="stroke:#999; stroke-width:3;" />
  <line x1="219.8" y1="50.0" x2="240.0" y2="50.0" style="stroke:#999; stroke-width:3;" />
  <rect class="anc_exon" x="240" y="35.0" width="676" height="30" style="fill:#87bcbc;fill-opacity:1.00" />
  <line x1="916" y1="50.0" x2="936" y2="50.0" style="stroke:#999; stroke-width:3;" />
  <line x1="936" y1="50.0" x2="936" y2="50.0" style="stroke:#999; stroke-width:3;" />
  <line x1="936" y1="50.0" x2="936" y2="50.0" style="stroke:#999; stroke-width:3;" />
  <line x1="936" y1="50.0" x2="956" y2="50.0" style="stroke:#999; stroke-width:3;" />
  <rect class="anc_exon" x="956" y="35.0" width="84" height="30" style="fill:#87bcbc;fill-opacity:1.00" />
  <line x1="1040" y1="50.0" x2="1080" y2="50.0" style="stroke:#999; stroke-width:3;" />
  <rect class="anc_exon" x="1080" y="35.0" width="185" height="30" style="fill:#87bcbc;fill-opacity:1.00" />
  <line x1="1265" y1="50.0" x2="1285" y2="50.0" style="stroke:#999; stroke-width:3;" />
  <line x1="1285" y1="50.0" x2="1285" y2="50.0" style="stroke:#999; stroke-width:3;" />
  <line x1="1285" y1="50.0" x2="1285" y2="50.0" style="stroke:#999; stroke-width:3;" />
  <line x1="1285" y1="50.0" x2="1305" y2="50.0" style="stroke:#999; stroke-width:3;" />
  <rect class="anc_exon" x="1305" y="35.0" width="113" height="30" style="fill:#87bcbc;fill-opacity:1.00" />
  <line x1="1418" y1="50.0" x2="1438" y2="50.0" style="stroke:#999; stroke-width:3;" />
  <line x1="1438" y1="50.0" x2="1438" y2="50.0" style="stroke:#999; stroke-width:3;" />
  <line x1="1438" y1="50.0" x2="1438" y2="50.0" style="stroke:#999; stroke-width:3;" />
  <line x1="1438" y1="50.0" x2="1458" y2="50.0" style="stroke:#999; stroke-width:3;" />
  <rect class="anc_exon" x="1458" y="35.0" width="124" height="30" style="fill:#87bcbc;fill-opacity:1.00" />
  <line x1="1582" y1="50.0" x2="1602" y2="50.0" style="stroke:#999; stroke-width:3;" />
  <line x1="1602" y1="50.0" x2="1602" y2="50.0" style="stroke:#999; stroke-width:3;" />
  <line x1="1602" y1="50.0" x2="1602" y2="50.0" style="stroke:#999; stroke-width:3;" />
  <line x1="1602" y1="50.0" x2="1622" y2="50.0" style="stroke:#999; stroke-width:3;" />
  <rect class="anc_exon" x="1622" y="35.0" width="64" height="30" style="fill:#87bcbc;fill-opacity:1.00" />
  <line x1="1686" y1="50.0" x2="1706" y2="50.0" style="stroke:#999; stroke-width:3;" />
  <line x1="1706" y1="50.0" x2="1706" y2="50.0" style="stroke:#999; stroke-width:3;" />
  <line x1="1706" y1="50.0" x2="1706" y2="50.0" style="stroke:#999; stroke-width:3;" />
  <line x1="1706" y1="50.0" x2="1726" y2="50.0" style="stroke:#999; stroke-width:3;" />
  <rect class="anc_exon" x="1726" y="35.0" width="69" height="30" style="fill:#87bcbc;fill-opacity:1.00" />
  <line x1="1795" y1="50.0" x2="1815" y2="50.0" style="stroke:#999; stroke-width:3;" />
  <line x1="1815" y1="50.0" x2="1815" y2="50.0" style="stroke:#999; stroke-width:3;" />
  <line x1="1815" y1="50.0" x2="1815" y2="50.0" style="stroke:#999; stroke-width:3;" />
  <line x1="1815" y1="50.0" x2="1835" y2="50.0" style="stroke:#999; stroke-width:3;" />
  <rect class="anc_exon" x="1835" y="35.0" width="69" height="30" style="fill:#87bcbc;fill-opacity:1.00" />
  <line x1="1904" y1="50.0" x2="1924" y2="50.0" style="stroke:#999; stroke-width:3;" />
  <line x1="1924" y1="50.0" x2="1924" y2="50.0" style="stroke:#999; stroke-width:3;" />
  <line x1="1924" y1="50.0" x2="1924" y2="50.0" style="stroke:#999; stroke-width:3;" />
  <line x1="1924" y1="50.0" x2="1944" y2="50.0" style="stroke:#999; stroke-width:3;" />
  <rect class="anc_exon" x="1944" y="35.0" width="57" height="30" style="fill:#87bcbc;fill-opacity:1.00" />
  <line x1="2001" y1="50.0" x2="2041" y2="50.0" style="stroke:#999; stroke-width:3;" />
  <rect class="anc_exon" x="2041" y="35.0" width="65" height="30" style="fill:#87bcbc;fill-opacity:1.00" />
  <line x1="2106" y1="50.0" x2="2146" y2="50.0" style="stroke:#999; stroke-width:3;" />
  <rect class="anc_exon" x="2146" y="35.0" width="60" height="30" style="fill:#87bcbc;fill-opacity:1.00" />
  <line x1="2206" y1="50.0" x2="2226" y2="50.0" style="stroke:#999; stroke-width:3;" />
  <line x1="2226" y1="50.0" x2="2226" y2="50.0" style="stroke:#999; stroke-width:3;" />
  <line x1="2226" y1="50.0" x2="2226" y2="50.0" style="stroke:#999; stroke-width:3;" />
  <line x1="2226" y1="50.0" x2="2246" y2="50.0" style="stroke:#999; stroke-width:3;" />
  <rect class="anc_exon" x="2246" y="35.0" width="136" height="30" style="fill:#87bcbc;fill-opacity:1.00" />
  <line x1="2382" y1="50.0" x2="2422" y2="50.0" style="stroke:#999; stroke-width:3;" />
  <rect class="anc_exon" x="2422" y="35.0" width="100" height="30" style="fill:#87bcbc;fill-opacity:1.00" />
  <line x1="2522" y1="50.0" x2="2542" y2="50.0" style="stroke:#999; stroke-width:3;" />
  <line x1="2542" y1="50.0" x2="2542" y2="50.0" style="stroke:#999; stroke-width:3;" />
  <line x1="2542" y1="50.0" x2="2542" y2="50.0" style="stroke:#999; stroke-width:3;" />
  <line x1="2542" y1="50.0" x2="2562" y2="50.0" style="stroke:#999; stroke-width:3;" />
  <rect class="anc_exon" x="2562" y="35.0" width="80" height="30" style="fill:#87bcbc;fill-opacity:1.00" />
  <line x1="2642" y1="50.0" x2="2662" y2="50.0" style="stroke:#999; stroke-width:3;" />
  <line x1="2662" y1="50.0" x2="2662" y2="50.0" style="stroke:#999; stroke-width:3;" />
  <line x1="2662" y1="50.0" x2="2662" y2="50.0" style="stroke:#999; stroke-width:3;" />
  <line x1="2662" y1="50.0" x2="2682" y2="50.0" style="stroke:#999; stroke-width:3;" />
  <rect class="anc_exon" x="2682" y="35.0" width="86" height="30" style="fill:#87bcbc;fill-opacity:1.00" />
  <line x1="2768" y1="50.0" x2="2788" y2="50.0" style="stroke:#999; stroke-width:3;" />
  <line x1="2788" y1="50.0" x2="2788" y2="50.0" style="stroke:#999; stroke-width:3;" />
  <line x1="2788" y1="50.0" x2="2788" y2="50.0" style="stroke:#999; stroke-width:3;" />
  <line x1="2788" y1="50.0" x2="2808" y2="50.0" style="stroke:#999; stroke-width:3;" />
  <rect class="anc_exon" x="2808" y="35.0" width="86" height="30" style="fill:#87bcbc;fill-opacity:1.00" />
  <line x1="2894" y1="50.0" x2="2934" y2="50.0" style="stroke:#999; stroke-width:3;" />
  <rect class="anc_exon" x="2934" y="35.0" width="111" height="30" style="fill:#87bcbc;fill-opacity:1.00" />
  <line x1="3045" y1="50.0" x2="3085" y2="50.0" style="stroke:#999; stroke-width:3;" />
  <rect class="anc_exon" x="3085" y="35.0" width="48" height="30" style="fill:#87bcbc;fill-opacity:1.00" />
  <line x1="3133" y1="50.0" x2="3173" y2="50.0" style="stroke:#999; stroke-width:3;" />
  <rect class="anc_exon" x="3173" y="35.0" width="55" height="30" style="fill:#87bcbc;fill-opacity:1.00" />
  <line x1="3228" y1="50.0" x2="3248" y2="50.0" style="stroke:#999; stroke-width:3;" />
  <line x1="3248" y1="50.0" x2="3248" y2="50.0" style="stroke:#999; stroke-width:3;" />
  <line x1="3248" y1="50.0" x2="3248" y2="50.0" style="stroke:#999; stroke-width:3;" />
  <line x1="3248" y1="50.0" x2="3268" y2="50.0" style="stroke:#999; stroke-width:3;" />
  <rect class="anc_exon" x="3268" y="35.0" width="48" height="30" style="fill:#87bcbc;fill-opacity:1.00" />
  <line x1="3316" y1="50.0" x2="3336" y2="50.0" style="stroke:#999; stroke-width:3;" />
  <line x1="3336" y1="50.0" x2="3336" y2="50.0" style="stroke:#999; stroke-width:3;" />
  <line x1="3336" y1="50.0" x2="3336" y2="50.0" style="stroke:#999; stroke-width:3;" />
  <line x1="3336" y1="50.0" x2="3356" y2="50.0" style="stroke:#999; stroke-width:3;" />
  <rect class="anc_exon" x="3356" y="35.0" width="80" height="30" style="fill:#87bcbc;fill-opacity:1.00" />
  <line x1="3436" y1="50.0" x2="3456" y2="50.0" style="stroke:#999; stroke-width:3;" />
  <line x1="3456" y1="50.0" x2="3456" y2="50.0" style="stroke:#999; stroke-width:3;" />
  <line x1="3456" y1="50.0" x2="3456" y2="50.0" style="stroke:#999; stroke-width:3;" />
  <line x1="3456" y1="50.0" x2="3476" y2="50.0" style="stroke:#999; stroke-width:3;" />
  <rect class="anc_exon" x="3476" y="35.0" width="82" height="30" style="fill:#87bcbc;fill-opacity:1.00" />
  <line x1="3558" y1="50.0" x2="3578" y2="50.0" style="stroke:#999; stroke-width:3;" />
  <line x1="3578" y1="50.0" x2="3578" y2="50.0" style="stroke:#999; stroke-width:3;" />
  <line x1="3578" y1="50.0" x2="3578" y2="50.0" style="stroke:#999; stroke-width:3;" />
  <line x1="3578" y1="50.0" x2="3598" y2="50.0" style="stroke:#999; stroke-width:3;" />
  <rect class="anc_exon" x="3598" y="35.0" width="56" height="30" style="fill:#87bcbc;fill-opacity:1.00" />
  <line x1="3654" y1="50.0" x2="3674" y2="50.0" style="stroke:#999; stroke-width:3;" />
  <line x1="3674" y1="50.0" x2="3674" y2="50.0" style="stroke:#999; stroke-width:3;" />
  <line x1="3674" y1="50.0" x2="3674" y2="50.0" style="stroke:#999; stroke-width:3;" />
  <line x1="3674" y1="50.0" x2="3694" y2="50.0" style="stroke:#999; stroke-width:3;" />
  <rect class="anc_exon" x="3694" y="35.0" width="36" height="30" style="fill:#87bcbc;fill-opacity:1.00" />
  <line x1="3730" y1="50.0" x2="3770" y2="50.0" style="stroke:#999; stroke-width:3;" />
  <rect class="anc_exon" x="3770" y="35.0" width="126" height="30" style="fill:#87bcbc;fill-opacity:1.00" />
  <line x1="3896" y1="50.0" x2="3936" y2="50.0" style="stroke:#999; stroke-width:3;" />
  <rect class="anc_exon" x="3936" y="35.0" width="84" height="30" style="fill:#87bcbc;fill-opacity:1.00" />
  <line x1="4020" y1="50.0" x2="4040" y2="50.0" style="stroke:#999; stroke-width:3;" />
  <line x1="4040" y1="50.0" x2="4040" y2="50.0" style="stroke:#999; stroke-width:3;" />
  <line x1="4040" y1="50.0" x2="4040" y2="50.0" style="stroke:#999; stroke-width:3;" />
  <line x1="4040" y1="50.0" x2="4060" y2="50.0" style="stroke:#999; stroke-width:3;" />
  <rect class="anc_exon" x="4060" y="35.0" width="113" height="30" style="fill:#87bcbc;fill-opacity:1.00" />
  <line x1="4173" y1="50.0" x2="4213" y2="50.0" style="stroke:#999; stroke-width:3;" />
  <rect class="anc_exon" x="4213" y="35.0" width="66" height="30" style="fill:#87bcbc;fill-opacity:1.00" />
  <line x1="4279" y1="50.0" x2="4319" y2="50.0" style="stroke:#999; stroke-width:3;" />
  <rect class="anc_exon" x="4319" y="35.0" width="83" height="30" style="fill:#87bcbc;fill-opacity:1.00" />
  <line x1="4402" y1="50.0" x2="4422" y2="50.0" style="stroke:#999; stroke-width:3;" />
  <line x1="4422" y1="50.0" x2="4422" y2="50.0" style="stroke:#999; stroke-width:3;" />
  <line x1="4422" y1="50.0" x2="4422" y2="50.0" style="stroke:#999; stroke-width:3;" />
  <line x1="4422" y1="50.0" x2="4442" y2="50.0" style="stroke:#999; stroke-width:3;" />
  <rect class="anc_exon" x="4442" y="35.0" width="74" height="30" style="fill:#87bcbc;fill-opacity:1.00" />
  <line x1="4516" y1="50.0" x2="4556" y2="50.0" style="stroke:#999; stroke-width:3;" />
  <rect class="anc_exon" x="4556" y="35.0" width="37" height="30" style="fill:#87bcbc;fill-opacity:1.00" />
  <line x1="4593" y1="50.0" x2="4613" y2="50.0" style="stroke:#999; stroke-width:3;" />
  <line x1="4613" y1="50.0" x2="4613" y2="50.0" style="stroke:#999; stroke-width:3;" />
  <line x1="4613" y1="50.0" x2="4613" y2="50.0" style="stroke:#999; stroke-width:3;" />
  <line x1="4613" y1="50.0" x2="4633" y2="50.0" style="stroke:#999; stroke-width:3;" />
  <rect class="anc_exon" x="4633" y="35.0" width="95" height="30" style="fill:#87bcbc;fill-opacity:1.00" />
  <line x1="4728" y1="50.0" x2="4768" y2="50.0" style="stroke:#999; stroke-width:3;" />
  <rect class="anc_exon" x="4768" y="35.0" width="38" height="30" style="fill:#87bcbc;fill-opacity:1.00" />
  <rect class="anc_exon" x="4806" y="35.0" width="0" height="30" style="fill:#87bcbc;fill-opacity:1.00" />
  <text style="" >
<tspan x="0" y="83.0" style="font-size:18px;" >SP XM_012541219_3.1</tspan>  </text>



<script type="text/ecmascript">
<![CDATA[
function draw_bbox(text_id)
{
    var text_elem = document.getElementById(text_id);
    var offset_px = 2;
    var offset_py = 0;
    bbox = text_elem.getBBox();
    var box = document.createElementNS(document.rootElement.namespaceURI,'rect');
    box.setAttribute('x', bbox.x - offset_px);
    box.setAttribute('y', bbox.y - offset_py);
    box.setAttribute('width', bbox.width + offset_px * 2);
    box.setAttribute('height', bbox.height + offset_py * 2);
    box.setAttribute('style','fill: white;'+'stroke: black;'+'stroke-width: 1px;');
    text_elem.insertBefore(box,text_elem.childNodes[0]);

    var svg = text_elem.parentNode;
    svg.appendChild(text_elem);
}

for (var i=1; i < 1; i++)
{
draw_bbox("Mouseover" + i);
}
]]> 
</script>
</svg>
