<svg version="1.1"
xmlns="http://www.w3.org/2000/svg"
xmlns:xlink="http://www.w3.org/1999/xlink"
width="1395" height="100" viewBox = "0 0 1395 100"
onclick="mouseclick(evt)">

<script type="text/ecmascript">

<![CDATA[
    function mouseover(evt, target) { 
    var gv = document.getElementById("globalVariable");
    var previoustarget = gv.firstChild.nodeValue;
    if (previoustarget != "none") 
    {
        	document.getElementById(gv.firstChild.nodeValue).setAttributeNS(null, "visibility", "hidden");
    }
    document.getElementById(target).setAttributeNS(null, "visibility", "visible");
    gv.firstChild.nodeValue = target;
        }

    function mouseclick(evt) { 
    var gv = document.getElementById("globalVariable");
    var previoustarget = gv.firstChild.nodeValue;
    if (previoustarget != "none") {
        	document.getElementById(gv.firstChild.nodeValue).setAttributeNS(null, "visibility", "hidden");
        }
    }
]]>
  </script>
<style type="text/css" >

<![CDATA[
    rect.anc_exon {
              stroke-width:3;
                  }

    rect.non_anc_exon {
              stroke: black; stroke-width:3; stroke-dasharray: 5,5;
                    }

    text {
              font-size: 18px;
              font-family: Courier New;
          }
                    ]]>
</style>

<defs>
    <text x="150" y="40" id="globalVariable">none</text>
</defs>

  <rect class="anc_exon" x="0" y="35.0" width="0" height="30" style="fill:#87bcbc;fill-opacity:1.00" />
  <rect class="anc_exon" x="0" y="35.0" width="47.2" height="30" style="fill:#878787;fill-opacity:1.00" />
  <line x1="47.2" y1="50.0" x2="87.0" y2="50.0" style="stroke:#999; stroke-width:3;" />
  <rect class="anc_exon" x="87" y="35.0" width="32" height="30" style="fill:#87bcbc;fill-opacity:1.00" />
  <line x1="119" y1="50.0" x2="159" y2="50.0" style="stroke:#999; stroke-width:3;" />
  <rect class="anc_exon" x="159" y="35.0" width="65" height="30" style="fill:#878787;fill-opacity:1.00" />
  <line x1="224" y1="50.0" x2="264" y2="50.0" style="stroke:#999; stroke-width:3;" />
  <rect class="anc_exon" x="264" y="35.0" width="68" height="30" style="fill:#878787;fill-opacity:1.00" />
  <line x1="332" y1="50.0" x2="352" y2="50.0" style="stroke:#999; stroke-width:3;" />
  <line x1="352" y1="50.0" x2="352" y2="50.0" style="stroke:#999; stroke-width:3;" />
  <line x1="352" y1="50.0" x2="352" y2="50.0" style="stroke:#999; stroke-width:3;" />
  <line x1="352" y1="50.0" x2="372" y2="50.0" style="stroke:#999; stroke-width:3;" />
  <rect class="anc_exon" x="372" y="35.0" width="33" height="30" style="fill:#87bcbc;fill-opacity:1.00" />
  <line x1="405" y1="50.0" x2="425" y2="50.0" style="stroke:#999; stroke-width:3;" />
  <line x1="425" y1="50.0" x2="425" y2="50.0" style="stroke:#999; stroke-width:3;" />
  <line x1="425" y1="50.0" x2="425" y2="50.0" style="stroke:#999; stroke-width:3;" />
  <line x1="425" y1="50.0" x2="445" y2="50.0" style="stroke:#999; stroke-width:3;" />
  <rect class="anc_exon" x="445" y="35.0" width="74" height="30" style="fill:#87bcbc;fill-opacity:1.00" />
  <line x1="519" y1="50.0" x2="539" y2="50.0" style="stroke:#999; stroke-width:3;" />
  <line x1="539" y1="50.0" x2="539" y2="50.0" style="stroke:#999; stroke-width:3;" />
  <line x1="539" y1="50.0" x2="539" y2="50.0" style="stroke:#999; stroke-width:3;" />
  <line x1="539" y1="50.0" x2="559" y2="50.0" style="stroke:#999; stroke-width:3;" />
  <rect class="anc_exon" x="559" y="35.0" width="39" height="30" style="fill:#87bcbc;fill-opacity:1.00" />
  <line x1="598" y1="50.0" x2="638" y2="50.0" style="stroke:#999; stroke-width:3;" />
  <rect class="anc_exon" x="638" y="35.0" width="66" height="30" style="fill:#87bcbc;fill-opacity:1.00" />
  <line x1="704" y1="50.0" x2="744" y2="50.0" style="stroke:#999; stroke-width:3;" />
  <rect class="anc_exon" x="744" y="35.0" width="94" height="30" style="fill:#87bcbc;fill-opacity:1.00" />
  <line x1="838" y1="50.0" x2="858" y2="50.0" style="stroke:#999; stroke-width:3;" />
  <line x1="858" y1="50.0" x2="858" y2="50.0" style="stroke:#999; stroke-width:3;" />
  <line x1="858" y1="50.0" x2="858" y2="50.0" style="stroke:#999; stroke-width:3;" />
  <line x1="858" y1="50.0" x2="878" y2="50.0" style="stroke:#999; stroke-width:3;" />
  <rect class="anc_exon" x="878" y="35.0" width="64" height="30" style="fill:#87bcbc;fill-opacity:1.00" />
  <line x1="942" y1="50.0" x2="982" y2="50.0" style="stroke:#999; stroke-width:3;" />
  <rect class="anc_exon" x="982" y="35.0" width="45" height="30" style="fill:#87bcbc;fill-opacity:1.00" />
  <line x1="1027" y1="50.0" x2="1047" y2="50.0" style="stroke:#999; stroke-width:3;" />
  <line x1="1047" y1="50.0" x2="1047" y2="50.0" style="stroke:#999; stroke-width:3;" />
  <line x1="1047" y1="50.0" x2="1047" y2="50.0" style="stroke:#999; stroke-width:3;" />
  <line x1="1047" y1="50.0" x2="1067" y2="50.0" style="stroke:#999; stroke-width:3;" />
  <rect class="anc_exon" x="1067" y="35.0" width="55" height="30" style="fill:#87bcbc;fill-opacity:1.00" />
  <line x1="1122" y1="50.0" x2="1162" y2="50.0" style="stroke:#999; stroke-width:3;" />
  <rect class="anc_exon" x="1162" y="35.0" width="124" height="30" style="fill:#87bcbc;fill-opacity:1.00" />
  <line x1="1286" y1="50.0" x2="1326" y2="50.0" style="stroke:#999; stroke-width:3;" />
  <rect class="anc_exon" x="1326" y="35.0" width="33" height="30" style="fill:#87bcbc;fill-opacity:1.00" />
  <rect class="anc_exon" x="1359" y="35.0" width="0" height="30" style="fill:#87bcbc;fill-opacity:1.00" />
  <text style="" >
<tspan x="0" y="83.0" style="font-size:18px;" >SP XM_031948719_1.1</tspan>  </text>



<script type="text/ecmascript">
<![CDATA[
function draw_bbox(text_id)
{
    var text_elem = document.getElementById(text_id);
    var offset_px = 2;
    var offset_py = 0;
    bbox = text_elem.getBBox();
    var box = document.createElementNS(document.rootElement.namespaceURI,'rect');
    box.setAttribute('x', bbox.x - offset_px);
    box.setAttribute('y', bbox.y - offset_py);
    box.setAttribute('width', bbox.width + offset_px * 2);
    box.setAttribute('height', bbox.height + offset_py * 2);
    box.setAttribute('style','fill: white;'+'stroke: black;'+'stroke-width: 1px;');
    text_elem.insertBefore(box,text_elem.childNodes[0]);

    var svg = text_elem.parentNode;
    svg.appendChild(text_elem);
}

for (var i=1; i < 1; i++)
{
draw_bbox("Mouseover" + i);
}
]]> 
</script>
</svg>
