<svg version="1.1"
xmlns="http://www.w3.org/2000/svg"
xmlns:xlink="http://www.w3.org/1999/xlink"
width="3150" height="100" viewBox = "0 0 3150 100"
onclick="mouseclick(evt)">

<script type="text/ecmascript">

<![CDATA[
    function mouseover(evt, target) { 
    var gv = document.getElementById("globalVariable");
    var previoustarget = gv.firstChild.nodeValue;
    if (previoustarget != "none") 
    {
        	document.getElementById(gv.firstChild.nodeValue).setAttributeNS(null, "visibility", "hidden");
    }
    document.getElementById(target).setAttributeNS(null, "visibility", "visible");
    gv.firstChild.nodeValue = target;
        }

    function mouseclick(evt) { 
    var gv = document.getElementById("globalVariable");
    var previoustarget = gv.firstChild.nodeValue;
    if (previoustarget != "none") {
        	document.getElementById(gv.firstChild.nodeValue).setAttributeNS(null, "visibility", "hidden");
        }
    }
]]>
  </script>
<style type="text/css" >

<![CDATA[
    rect.anc_exon {
              stroke-width:3;
                  }

    rect.non_anc_exon {
              stroke: black; stroke-width:3; stroke-dasharray: 5,5;
                    }

    text {
              font-size: 18px;
              font-family: Courier New;
          }
                    ]]>
</style>

<defs>
    <text x="150" y="40" id="globalVariable">none</text>
</defs>

  <rect class="anc_exon" x="0" y="35.0" width="0" height="30" style="fill:#87bcbc;fill-opacity:1.00" />
  <rect class="anc_exon" x="0" y="35.0" width="31.200000000000003" height="30" style="fill:#87bcbc;fill-opacity:1.00" />
  <line x1="31.200000000000003" y1="50.0" x2="71.0" y2="50.0" style="stroke:#999; stroke-width:3;" />
  <rect class="anc_exon" x="71" y="35.0" width="257" height="30" style="fill:#87bcbc;fill-opacity:1.00" />
  <line x1="328" y1="50.0" x2="368" y2="50.0" style="stroke:#999; stroke-width:3;" />
  <rect class="anc_exon" x="368" y="35.0" width="109" height="30" style="fill:#87bcbc;fill-opacity:1.00" />
  <line x1="477" y1="50.0" x2="517" y2="50.0" style="stroke:#999; stroke-width:3;" />
  <rect class="anc_exon" x="517" y="35.0" width="106" height="30" style="fill:#87bcbc;fill-opacity:1.00" />
  <line x1="623" y1="50.0" x2="663" y2="50.0" style="stroke:#999; stroke-width:3;" />
  <rect class="anc_exon" x="663" y="35.0" width="116" height="30" style="fill:#87bcbc;fill-opacity:1.00" />
  <line x1="779" y1="50.0" x2="819" y2="50.0" style="stroke:#999; stroke-width:3;" />
  <rect class="anc_exon" x="819" y="35.0" width="168" height="30" style="fill:#87bcbc;fill-opacity:1.00" />
  <line x1="987" y1="50.0" x2="1027" y2="50.0" style="stroke:#999; stroke-width:3;" />
  <rect class="anc_exon" x="1027" y="35.0" width="153" height="30" style="fill:#87bcbc;fill-opacity:1.00" />
  <line x1="1180" y1="50.0" x2="1220" y2="50.0" style="stroke:#999; stroke-width:3;" />
  <rect class="anc_exon" x="1220" y="35.0" width="88" height="30" style="fill:#87bcbc;fill-opacity:1.00" />
  <line x1="1308" y1="50.0" x2="1348" y2="50.0" style="stroke:#999; stroke-width:3;" />
  <rect class="anc_exon" x="1348" y="35.0" width="115" height="30" style="fill:#87bcbc;fill-opacity:1.00" />
  <line x1="1463" y1="50.0" x2="1503" y2="50.0" style="stroke:#999; stroke-width:3;" />
  <rect class="anc_exon" x="1503" y="35.0" width="60" height="30" style="fill:#87bcbc;fill-opacity:1.00" />
  <line x1="1563" y1="50.0" x2="1603" y2="50.0" style="stroke:#999; stroke-width:3;" />
  <rect class="anc_exon" x="1603" y="35.0" width="111" height="30" style="fill:#87bcbc;fill-opacity:1.00" />
  <line x1="1714" y1="50.0" x2="1754" y2="50.0" style="stroke:#999; stroke-width:3;" />
  <rect class="anc_exon" x="1754" y="35.0" width="84" height="30" style="fill:#87bcbc;fill-opacity:1.00" />
  <line x1="1838" y1="50.0" x2="1878" y2="50.0" style="stroke:#999; stroke-width:3;" />
  <rect class="anc_exon" x="1878" y="35.0" width="64" height="30" style="fill:#87bcbc;fill-opacity:1.00" />
  <line x1="1942" y1="50.0" x2="1982" y2="50.0" style="stroke:#999; stroke-width:3;" />
  <rect class="anc_exon" x="1982" y="35.0" width="60" height="30" style="fill:#87bcbc;fill-opacity:1.00" />
  <line x1="2042" y1="50.0" x2="2082" y2="50.0" style="stroke:#999; stroke-width:3;" />
  <rect class="anc_exon" x="2082" y="35.0" width="73" height="30" style="fill:#87bcbc;fill-opacity:1.00" />
  <line x1="2155" y1="50.0" x2="2195" y2="50.0" style="stroke:#999; stroke-width:3;" />
  <rect class="anc_exon" x="2195" y="35.0" width="141" height="30" style="fill:#87bcbc;fill-opacity:1.00" />
  <line x1="2336" y1="50.0" x2="2376" y2="50.0" style="stroke:#999; stroke-width:3;" />
  <rect class="anc_exon" x="2376" y="35.0" width="50" height="30" style="fill:#87bcbc;fill-opacity:1.00" />
  <line x1="2426" y1="50.0" x2="2466" y2="50.0" style="stroke:#999; stroke-width:3;" />
  <rect class="anc_exon" x="2466" y="35.0" width="61" height="30" style="fill:#87bcbc;fill-opacity:1.00" />
  <line x1="2527" y1="50.0" x2="2567" y2="50.0" style="stroke:#999; stroke-width:3;" />
  <rect class="anc_exon" x="2567" y="35.0" width="114" height="30" style="fill:#87bcbc;fill-opacity:1.00" />
  <line x1="2681" y1="50.0" x2="2721" y2="50.0" style="stroke:#999; stroke-width:3;" />
  <rect class="anc_exon" x="2721" y="35.0" width="86" height="30" style="fill:#87bcbc;fill-opacity:1.00" />
  <line x1="2807" y1="50.0" x2="2847" y2="50.0" style="stroke:#999; stroke-width:3;" />
  <rect class="anc_exon" x="2847" y="35.0" width="64" height="30" style="fill:#87bcbc;fill-opacity:1.00" />
  <line x1="2911" y1="50.0" x2="2951" y2="50.0" style="stroke:#999; stroke-width:3;" />
  <rect class="anc_exon" x="2951" y="35.0" width="163" height="30" style="fill:#87bcbc;fill-opacity:1.00" />
  <rect class="anc_exon" x="3114" y="35.0" width="0" height="30" style="fill:#87bcbc;fill-opacity:1.00" />
  <text style="" >
<tspan x="0" y="83.0" style="font-size:18px;" >SP XM_012542110_2.1</tspan>  </text>



<script type="text/ecmascript">
<![CDATA[
function draw_bbox(text_id)
{
    var text_elem = document.getElementById(text_id);
    var offset_px = 2;
    var offset_py = 0;
    bbox = text_elem.getBBox();
    var box = document.createElementNS(document.rootElement.namespaceURI,'rect');
    box.setAttribute('x', bbox.x - offset_px);
    box.setAttribute('y', bbox.y - offset_py);
    box.setAttribute('width', bbox.width + offset_px * 2);
    box.setAttribute('height', bbox.height + offset_py * 2);
    box.setAttribute('style','fill: white;'+'stroke: black;'+'stroke-width: 1px;');
    text_elem.insertBefore(box,text_elem.childNodes[0]);

    var svg = text_elem.parentNode;
    svg.appendChild(text_elem);
}

for (var i=1; i < 1; i++)
{
draw_bbox("Mouseover" + i);
}
]]> 
</script>
</svg>
