<svg version="1.1"
xmlns="http://www.w3.org/2000/svg"
xmlns:xlink="http://www.w3.org/1999/xlink"
width="2832" height="120.0" viewBox = "0 -20.0 2832 120.0"
onclick="mouseclick(evt)">

<script type="text/ecmascript">

<![CDATA[
    function mouseover(evt, target) { 
    var gv = document.getElementById("globalVariable");
    var previoustarget = gv.firstChild.nodeValue;
    if (previoustarget != "none") 
    {
        	document.getElementById(gv.firstChild.nodeValue).setAttributeNS(null, "visibility", "hidden");
    }
    document.getElementById(target).setAttributeNS(null, "visibility", "visible");
    gv.firstChild.nodeValue = target;
        }

    function mouseclick(evt) { 
    var gv = document.getElementById("globalVariable");
    var previoustarget = gv.firstChild.nodeValue;
    if (previoustarget != "none") {
        	document.getElementById(gv.firstChild.nodeValue).setAttributeNS(null, "visibility", "hidden");
        }
    }
]]>
  </script>
<style type="text/css" >

<![CDATA[
    rect.anc_exon {
              stroke-width:3;
                  }

    rect.non_anc_exon {
              stroke: black; stroke-width:3; stroke-dasharray: 5,5;
                    }

    text {
              font-size: 18px;
              font-family: Courier New;
          }
                    ]]>
</style>

<defs>
    <text x="150" y="40" id="globalVariable">none</text>
</defs>

  <rect class="anc_exon" x="0" y="35.0" width="0" height="30" style="fill:#87bcbc;fill-opacity:1.00" />
  <rect class="anc_exon" x="0" y="35.0" width="142.4" height="30" style="fill:#87bcbc;fill-opacity:1.00" />
  <polygon points="60.800000000000004,35.0 63.300000000000004,25.0 58.300000000000004,25.0" style="fill:#121212; stroke-opacity:1; fill-opacity:1"/>
  <text style="" text-anchor="middle">
<tspan x="60.800000000000004" y="16.0" style="font-size:18px;fill:#121212;" >+1</tspan>  </text>
  <line x1="142.4" y1="50.0" x2="182.0" y2="50.0" style="stroke:#999; stroke-width:3;" />
  <rect class="anc_exon" x="182" y="35.0" width="114" height="30" style="fill:#87bcbc;fill-opacity:1.00" />
  <line x1="296" y1="50.0" x2="336" y2="50.0" style="stroke:#999; stroke-width:3;" />
  <rect class="anc_exon" x="336" y="35.0" width="104" height="30" style="fill:#87bcbc;fill-opacity:1.00" />
  <line x1="440" y1="50.0" x2="480" y2="50.0" style="stroke:#999; stroke-width:3;" />
  <rect class="anc_exon" x="480" y="35.0" width="101" height="30" style="fill:#87bcbc;fill-opacity:1.00" />
  <line x1="581" y1="50.0" x2="601" y2="50.0" style="stroke:#999; stroke-width:3;" />
  <line x1="601" y1="50.0" x2="601" y2="50.0" style="stroke:#999; stroke-width:3;" />
  <line x1="601" y1="50.0" x2="601" y2="50.0" style="stroke:#999; stroke-width:3;" />
  <line x1="601" y1="50.0" x2="621" y2="50.0" style="stroke:#999; stroke-width:3;" />
  <rect class="anc_exon" x="621" y="35.0" width="87" height="30" style="fill:#87bcbc;fill-opacity:1.00" />
  <line x1="708" y1="50.0" x2="728" y2="50.0" style="stroke:#999; stroke-width:3;" />
  <line x1="728" y1="50.0" x2="728" y2="50.0" style="stroke:#999; stroke-width:3;" />
  <line x1="728" y1="50.0" x2="728" y2="50.0" style="stroke:#999; stroke-width:3;" />
  <line x1="728" y1="50.0" x2="748" y2="50.0" style="stroke:#999; stroke-width:3;" />
  <rect class="anc_exon" x="748" y="35.0" width="117" height="30" style="fill:#87bcbc;fill-opacity:1.00" />
  <line x1="865" y1="50.0" x2="905" y2="50.0" style="stroke:#999; stroke-width:3;" />
  <rect class="anc_exon" x="905" y="35.0" width="71" height="30" style="fill:#87bcbc;fill-opacity:1.00" />
  <line x1="976" y1="50.0" x2="1016" y2="50.0" style="stroke:#999; stroke-width:3;" />
  <rect class="anc_exon" x="1016" y="35.0" width="92" height="30" style="fill:#87bcbc;fill-opacity:1.00" />
  <line x1="1108" y1="50.0" x2="1148" y2="50.0" style="stroke:#999; stroke-width:3;" />
  <rect class="anc_exon" x="1148" y="35.0" width="111" height="30" style="fill:#87bcbc;fill-opacity:1.00" />
  <line x1="1259" y1="50.0" x2="1299" y2="50.0" style="stroke:#999; stroke-width:3;" />
  <rect class="anc_exon" x="1299" y="35.0" width="76" height="30" style="fill:#87bcbc;fill-opacity:1.00" />
  <line x1="1375" y1="50.0" x2="1415" y2="50.0" style="stroke:#999; stroke-width:3;" />
  <rect class="anc_exon" x="1415" y="35.0" width="82" height="30" style="fill:#87bcbc;fill-opacity:1.00" />
  <line x1="1497" y1="50.0" x2="1517" y2="50.0" style="stroke:#999; stroke-width:3;" />
  <line x1="1517" y1="50.0" x2="1517" y2="50.0" style="stroke:#999; stroke-width:3;" />
  <line x1="1517" y1="50.0" x2="1517" y2="50.0" style="stroke:#999; stroke-width:3;" />
  <line x1="1517" y1="50.0" x2="1537" y2="50.0" style="stroke:#999; stroke-width:3;" />
  <rect class="anc_exon" x="1537" y="35.0" width="116" height="30" style="fill:#87bcbc;fill-opacity:1.00" />
  <line x1="1653" y1="50.0" x2="1693" y2="50.0" style="stroke:#999; stroke-width:3;" />
  <rect class="anc_exon" x="1693" y="35.0" width="96" height="30" style="fill:#87bcbc;fill-opacity:1.00" />
  <line x1="1789" y1="50.0" x2="1829" y2="50.0" style="stroke:#999; stroke-width:3;" />
  <rect class="anc_exon" x="1829" y="35.0" width="88" height="30" style="fill:#87bcbc;fill-opacity:1.00" />
  <line x1="1917" y1="50.0" x2="1957" y2="50.0" style="stroke:#999; stroke-width:3;" />
  <rect class="anc_exon" x="1957" y="35.0" width="110" height="30" style="fill:#87bcbc;fill-opacity:1.00" />
  <line x1="2067" y1="50.0" x2="2087" y2="50.0" style="stroke:#999; stroke-width:3;" />
  <line x1="2087" y1="50.0" x2="2087" y2="50.0" style="stroke:#999; stroke-width:3;" />
  <line x1="2087" y1="50.0" x2="2087" y2="50.0" style="stroke:#999; stroke-width:3;" />
  <line x1="2087" y1="50.0" x2="2107" y2="50.0" style="stroke:#999; stroke-width:3;" />
  <rect class="anc_exon" x="2107" y="35.0" width="74" height="30" style="fill:#87bcbc;fill-opacity:1.00" />
  <line x1="2181" y1="50.0" x2="2221" y2="50.0" style="stroke:#999; stroke-width:3;" />
  <rect class="anc_exon" x="2221" y="35.0" width="176" height="30" style="fill:#87bcbc;fill-opacity:1.00" />
  <line x1="2397" y1="50.0" x2="2437" y2="50.0" style="stroke:#999; stroke-width:3;" />
  <rect class="anc_exon" x="2437" y="35.0" width="359" height="30" style="fill:#87bcbc;fill-opacity:1.00" />
  <polygon points="2708.2,35.0 2710.7,25.0 2705.7,25.0" style="fill:#121212; stroke-opacity:1; fill-opacity:1"/>
  <line x1="2783.0" y1="35.0" x2="2783.0" y2="65.0" style="stroke:#121212; stroke-width:0.8; stroke-opacity:1"/>
  <text style="" text-anchor="middle">
<tspan x="2708.2" y="16.0" style="font-size:18px;fill:#121212;" >+1</tspan>  </text>
  <text style="" text-anchor="middle">
<tspan x="2782.6" y="26.0" style="font-size:18px;fill:#121212;" >-1</tspan>  </text>
  <rect class="anc_exon" x="2796" y="35.0" width="0" height="30" style="fill:#87bcbc;fill-opacity:1.00" />
  <text style="" >
<tspan x="0" y="83.0" style="font-size:18px;" >SP XM_023497413_2.1</tspan>  </text>



<script type="text/ecmascript">
<![CDATA[
function draw_bbox(text_id)
{
    var text_elem = document.getElementById(text_id);
    var offset_px = 2;
    var offset_py = 0;
    bbox = text_elem.getBBox();
    var box = document.createElementNS(document.rootElement.namespaceURI,'rect');
    box.setAttribute('x', bbox.x - offset_px);
    box.setAttribute('y', bbox.y - offset_py);
    box.setAttribute('width', bbox.width + offset_px * 2);
    box.setAttribute('height', bbox.height + offset_py * 2);
    box.setAttribute('style','fill: white;'+'stroke: black;'+'stroke-width: 1px;');
    text_elem.insertBefore(box,text_elem.childNodes[0]);

    var svg = text_elem.parentNode;
    svg.appendChild(text_elem);
}

for (var i=1; i < 1; i++)
{
draw_bbox("Mouseover" + i);
}
]]> 
</script>
</svg>
