<svg version="1.1"
xmlns="http://www.w3.org/2000/svg"
xmlns:xlink="http://www.w3.org/1999/xlink"
width="2662" height="100" viewBox = "0 0 2662 100"
onclick="mouseclick(evt)">

<script type="text/ecmascript">

<![CDATA[
    function mouseover(evt, target) { 
    var gv = document.getElementById("globalVariable");
    var previoustarget = gv.firstChild.nodeValue;
    if (previoustarget != "none") 
    {
        	document.getElementById(gv.firstChild.nodeValue).setAttributeNS(null, "visibility", "hidden");
    }
    document.getElementById(target).setAttributeNS(null, "visibility", "visible");
    gv.firstChild.nodeValue = target;
        }

    function mouseclick(evt) { 
    var gv = document.getElementById("globalVariable");
    var previoustarget = gv.firstChild.nodeValue;
    if (previoustarget != "none") {
        	document.getElementById(gv.firstChild.nodeValue).setAttributeNS(null, "visibility", "hidden");
        }
    }
]]>
  </script>
<style type="text/css" >

<![CDATA[
    rect.anc_exon {
              stroke-width:3;
                  }

    rect.non_anc_exon {
              stroke: black; stroke-width:3; stroke-dasharray: 5,5;
                    }

    text {
              font-size: 18px;
              font-family: Courier New;
          }
                    ]]>
</style>

<defs>
    <text x="150" y="40" id="globalVariable">none</text>
</defs>

  <rect class="anc_exon" x="0" y="35.0" width="0" height="30" style="fill:#87bcbc;fill-opacity:1.00" />
  <rect class="anc_exon" x="0" y="35.0" width="81.60000000000001" height="30" style="fill:#87bcbc;fill-opacity:1.00" />
  <line x1="81.60000000000001" y1="50.0" x2="100.60000000000001" y2="50.0" style="stroke:#999; stroke-width:3;" />
  <line x1="100.60000000000001" y1="50.0" x2="100.60000000000001" y2="50.0" style="stroke:#999; stroke-width:3;" />
  <line x1="100.60000000000001" y1="50.0" x2="100.60000000000001" y2="50.0" style="stroke:#999; stroke-width:3;" />
  <line x1="100.60000000000001" y1="50.0" x2="121.0" y2="50.0" style="stroke:#999; stroke-width:3;" />
  <rect class="anc_exon" x="121" y="35.0" width="42" height="30" style="fill:#87bcbc;fill-opacity:1.00" />
  <line x1="163" y1="50.0" x2="203" y2="50.0" style="stroke:#999; stroke-width:3;" />
  <rect class="anc_exon" x="203" y="35.0" width="36" height="30" style="fill:#87bcbc;fill-opacity:1.00" />
  <line x1="239" y1="50.0" x2="259" y2="50.0" style="stroke:#999; stroke-width:3;" />
  <line x1="259" y1="50.0" x2="259" y2="50.0" style="stroke:#999; stroke-width:3;" />
  <line x1="259" y1="50.0" x2="259" y2="50.0" style="stroke:#999; stroke-width:3;" />
  <line x1="259" y1="50.0" x2="279" y2="50.0" style="stroke:#999; stroke-width:3;" />
  <rect class="anc_exon" x="279" y="35.0" width="74" height="30" style="fill:#87bcbc;fill-opacity:1.00" />
  <line x1="353" y1="50.0" x2="393" y2="50.0" style="stroke:#999; stroke-width:3;" />
  <rect class="anc_exon" x="393" y="35.0" width="48" height="30" style="fill:#87bcbc;fill-opacity:1.00" />
  <line x1="441" y1="50.0" x2="461" y2="50.0" style="stroke:#999; stroke-width:3;" />
  <line x1="461" y1="50.0" x2="461" y2="50.0" style="stroke:#999; stroke-width:3;" />
  <line x1="461" y1="50.0" x2="461" y2="50.0" style="stroke:#999; stroke-width:3;" />
  <line x1="461" y1="50.0" x2="481" y2="50.0" style="stroke:#999; stroke-width:3;" />
  <rect class="anc_exon" x="481" y="35.0" width="121" height="30" style="fill:#87bcbc;fill-opacity:1.00" />
  <line x1="602" y1="50.0" x2="642" y2="50.0" style="stroke:#999; stroke-width:3;" />
  <rect class="anc_exon" x="642" y="35.0" width="72" height="30" style="fill:#87bcbc;fill-opacity:1.00" />
  <line x1="714" y1="50.0" x2="754" y2="50.0" style="stroke:#999; stroke-width:3;" />
  <rect class="anc_exon" x="754" y="35.0" width="76" height="30" style="fill:#87bcbc;fill-opacity:1.00" />
  <line x1="830" y1="50.0" x2="850" y2="50.0" style="stroke:#999; stroke-width:3;" />
  <line x1="850" y1="50.0" x2="850" y2="50.0" style="stroke:#999; stroke-width:3;" />
  <line x1="850" y1="50.0" x2="850" y2="50.0" style="stroke:#999; stroke-width:3;" />
  <line x1="850" y1="50.0" x2="870" y2="50.0" style="stroke:#999; stroke-width:3;" />
  <rect class="anc_exon" x="870" y="35.0" width="46" height="30" style="fill:#87bcbc;fill-opacity:1.00" />
  <line x1="916" y1="50.0" x2="956" y2="50.0" style="stroke:#999; stroke-width:3;" />
  <rect class="anc_exon" x="956" y="35.0" width="70" height="30" style="fill:#87bcbc;fill-opacity:1.00" />
  <line x1="1026" y1="50.0" x2="1046" y2="50.0" style="stroke:#999; stroke-width:3;" />
  <line x1="1046" y1="50.0" x2="1046" y2="50.0" style="stroke:#999; stroke-width:3;" />
  <line x1="1046" y1="50.0" x2="1046" y2="50.0" style="stroke:#999; stroke-width:3;" />
  <line x1="1046" y1="50.0" x2="1066" y2="50.0" style="stroke:#999; stroke-width:3;" />
  <rect class="anc_exon" x="1066" y="35.0" width="41" height="30" style="fill:#87bcbc;fill-opacity:1.00" />
  <line x1="1107" y1="50.0" x2="1127" y2="50.0" style="stroke:#999; stroke-width:3;" />
  <line x1="1127" y1="50.0" x2="1127" y2="50.0" style="stroke:#999; stroke-width:3;" />
  <line x1="1127" y1="50.0" x2="1127" y2="50.0" style="stroke:#999; stroke-width:3;" />
  <line x1="1127" y1="50.0" x2="1147" y2="50.0" style="stroke:#999; stroke-width:3;" />
  <rect class="anc_exon" x="1147" y="35.0" width="47" height="30" style="fill:#87bcbc;fill-opacity:1.00" />
  <line x1="1194" y1="50.0" x2="1214" y2="50.0" style="stroke:#999; stroke-width:3;" />
  <line x1="1214" y1="50.0" x2="1214" y2="50.0" style="stroke:#999; stroke-width:3;" />
  <line x1="1214" y1="50.0" x2="1214" y2="50.0" style="stroke:#999; stroke-width:3;" />
  <line x1="1214" y1="50.0" x2="1234" y2="50.0" style="stroke:#999; stroke-width:3;" />
  <rect class="anc_exon" x="1234" y="35.0" width="41" height="30" style="fill:#87bcbc;fill-opacity:1.00" />
  <line x1="1275" y1="50.0" x2="1315" y2="50.0" style="stroke:#999; stroke-width:3;" />
  <rect class="anc_exon" x="1315" y="35.0" width="44" height="30" style="fill:#87bcbc;fill-opacity:1.00" />
  <line x1="1359" y1="50.0" x2="1379" y2="50.0" style="stroke:#999; stroke-width:3;" />
  <line x1="1379" y1="50.0" x2="1379" y2="50.0" style="stroke:#999; stroke-width:3;" />
  <line x1="1379" y1="50.0" x2="1379" y2="50.0" style="stroke:#999; stroke-width:3;" />
  <line x1="1379" y1="50.0" x2="1399" y2="50.0" style="stroke:#999; stroke-width:3;" />
  <rect class="anc_exon" x="1399" y="35.0" width="39" height="30" style="fill:#87bcbc;fill-opacity:1.00" />
  <line x1="1438" y1="50.0" x2="1458" y2="50.0" style="stroke:#999; stroke-width:3;" />
  <line x1="1458" y1="50.0" x2="1458" y2="50.0" style="stroke:#999; stroke-width:3;" />
  <line x1="1458" y1="50.0" x2="1458" y2="50.0" style="stroke:#999; stroke-width:3;" />
  <line x1="1458" y1="50.0" x2="1478" y2="50.0" style="stroke:#999; stroke-width:3;" />
  <rect class="anc_exon" x="1478" y="35.0" width="120" height="30" style="fill:#87bcbc;fill-opacity:1.00" />
  <line x1="1598" y1="50.0" x2="1638" y2="50.0" style="stroke:#999; stroke-width:3;" />
  <rect class="anc_exon" x="1638" y="35.0" width="40" height="30" style="fill:#87bcbc;fill-opacity:1.00" />
  <line x1="1678" y1="50.0" x2="1718" y2="50.0" style="stroke:#999; stroke-width:3;" />
  <rect class="anc_exon" x="1718" y="35.0" width="99" height="30" style="fill:#87bcbc;fill-opacity:1.00" />
  <line x1="1817" y1="50.0" x2="1857" y2="50.0" style="stroke:#999; stroke-width:3;" />
  <rect class="anc_exon" x="1857" y="35.0" width="56" height="30" style="fill:#87bcbc;fill-opacity:1.00" />
  <line x1="1913" y1="50.0" x2="1953" y2="50.0" style="stroke:#999; stroke-width:3;" />
  <rect class="anc_exon" x="1953" y="35.0" width="56" height="30" style="fill:#87bcbc;fill-opacity:1.00" />
  <line x1="2009" y1="50.0" x2="2029" y2="50.0" style="stroke:#999; stroke-width:3;" />
  <line x1="2029" y1="50.0" x2="2029" y2="50.0" style="stroke:#999; stroke-width:3;" />
  <line x1="2029" y1="50.0" x2="2029" y2="50.0" style="stroke:#999; stroke-width:3;" />
  <line x1="2029" y1="50.0" x2="2049" y2="50.0" style="stroke:#999; stroke-width:3;" />
  <rect class="anc_exon" x="2049" y="35.0" width="86" height="30" style="fill:#87bcbc;fill-opacity:1.00" />
  <line x1="2135" y1="50.0" x2="2155" y2="50.0" style="stroke:#999; stroke-width:3;" />
  <line x1="2155" y1="50.0" x2="2155" y2="50.0" style="stroke:#999; stroke-width:3;" />
  <line x1="2155" y1="50.0" x2="2155" y2="50.0" style="stroke:#999; stroke-width:3;" />
  <line x1="2155" y1="50.0" x2="2175" y2="50.0" style="stroke:#999; stroke-width:3;" />
  <rect class="anc_exon" x="2175" y="35.0" width="71" height="30" style="fill:#87bcbc;fill-opacity:1.00" />
  <line x1="2246" y1="50.0" x2="2286" y2="50.0" style="stroke:#999; stroke-width:3;" />
  <rect class="anc_exon" x="2286" y="35.0" width="73" height="30" style="fill:#87bcbc;fill-opacity:1.00" />
  <line x1="2359" y1="50.0" x2="2379" y2="50.0" style="stroke:#999; stroke-width:3;" />
  <line x1="2379" y1="50.0" x2="2379" y2="50.0" style="stroke:#999; stroke-width:3;" />
  <line x1="2379" y1="50.0" x2="2379" y2="50.0" style="stroke:#999; stroke-width:3;" />
  <line x1="2379" y1="50.0" x2="2399" y2="50.0" style="stroke:#999; stroke-width:3;" />
  <rect class="anc_exon" x="2399" y="35.0" width="80" height="30" style="fill:#87bcbc;fill-opacity:1.00" />
  <line x1="2479" y1="50.0" x2="2519" y2="50.0" style="stroke:#999; stroke-width:3;" />
  <rect class="anc_exon" x="2519" y="35.0" width="47" height="30" style="fill:#87bcbc;fill-opacity:1.00" />
  <line x1="2566" y1="50.0" x2="2586" y2="50.0" style="stroke:#999; stroke-width:3;" />
  <line x1="2586" y1="50.0" x2="2586" y2="50.0" style="stroke:#999; stroke-width:3;" />
  <line x1="2586" y1="50.0" x2="2586" y2="50.0" style="stroke:#999; stroke-width:3;" />
  <line x1="2586" y1="50.0" x2="2606" y2="50.0" style="stroke:#999; stroke-width:3;" />
  <rect class="anc_exon" x="2606" y="35.0" width="20" height="30" style="fill:#87bcbc;fill-opacity:1.00" />
  <rect class="anc_exon" x="2626" y="35.0" width="0" height="30" style="fill:#87bcbc;fill-opacity:1.00" />
  <text style="" >
<tspan x="0" y="83.0" style="font-size:18px;" >SP XM_031946859_1.1</tspan>  </text>



<script type="text/ecmascript">
<![CDATA[
function draw_bbox(text_id)
{
    var text_elem = document.getElementById(text_id);
    var offset_px = 2;
    var offset_py = 0;
    bbox = text_elem.getBBox();
    var box = document.createElementNS(document.rootElement.namespaceURI,'rect');
    box.setAttribute('x', bbox.x - offset_px);
    box.setAttribute('y', bbox.y - offset_py);
    box.setAttribute('width', bbox.width + offset_px * 2);
    box.setAttribute('height', bbox.height + offset_py * 2);
    box.setAttribute('style','fill: white;'+'stroke: black;'+'stroke-width: 1px;');
    text_elem.insertBefore(box,text_elem.childNodes[0]);

    var svg = text_elem.parentNode;
    svg.appendChild(text_elem);
}

for (var i=1; i < 1; i++)
{
draw_bbox("Mouseover" + i);
}
]]> 
</script>
</svg>
