<svg version="1.1"
xmlns="http://www.w3.org/2000/svg"
xmlns:xlink="http://www.w3.org/1999/xlink"
width="1619" height="100" viewBox = "0 0 1619 100"
onclick="mouseclick(evt)">

<script type="text/ecmascript">

<![CDATA[
    function mouseover(evt, target) { 
    var gv = document.getElementById("globalVariable");
    var previoustarget = gv.firstChild.nodeValue;
    if (previoustarget != "none") 
    {
        	document.getElementById(gv.firstChild.nodeValue).setAttributeNS(null, "visibility", "hidden");
    }
    document.getElementById(target).setAttributeNS(null, "visibility", "visible");
    gv.firstChild.nodeValue = target;
        }

    function mouseclick(evt) { 
    var gv = document.getElementById("globalVariable");
    var previoustarget = gv.firstChild.nodeValue;
    if (previoustarget != "none") {
        	document.getElementById(gv.firstChild.nodeValue).setAttributeNS(null, "visibility", "hidden");
        }
    }
]]>
  </script>
<style type="text/css" >

<![CDATA[
    rect.anc_exon {
              stroke-width:3;
                  }

    rect.non_anc_exon {
              stroke: black; stroke-width:3; stroke-dasharray: 5,5;
                    }

    text {
              font-size: 18px;
              font-family: Courier New;
          }
                    ]]>
</style>

<defs>
    <text x="150" y="40" id="globalVariable">none</text>
</defs>

  <rect class="anc_exon" x="0" y="35.0" width="0" height="30" style="fill:#87bcbc;fill-opacity:1.00" />
  <rect class="anc_exon" x="0" y="35.0" width="49.6" height="30" style="fill:#87bcbc;fill-opacity:1.00" />
  <line x1="49.6" y1="50.0" x2="68.6" y2="50.0" style="stroke:#999; stroke-width:3;" />
  <line x1="68.6" y1="50.0" x2="68.6" y2="50.0" style="stroke:#999; stroke-width:3;" />
  <line x1="68.6" y1="50.0" x2="68.6" y2="50.0" style="stroke:#999; stroke-width:3;" />
  <line x1="68.6" y1="50.0" x2="89.0" y2="50.0" style="stroke:#999; stroke-width:3;" />
  <rect class="anc_exon" x="89" y="35.0" width="78" height="30" style="fill:#87bcbc;fill-opacity:1.00" />
  <line x1="167" y1="50.0" x2="187" y2="50.0" style="stroke:#999; stroke-width:3;" />
  <line x1="187" y1="50.0" x2="187" y2="50.0" style="stroke:#999; stroke-width:3;" />
  <line x1="187" y1="50.0" x2="187" y2="50.0" style="stroke:#999; stroke-width:3;" />
  <line x1="187" y1="50.0" x2="207" y2="50.0" style="stroke:#999; stroke-width:3;" />
  <rect class="anc_exon" x="207" y="35.0" width="99" height="30" style="fill:#87bcbc;fill-opacity:1.00" />
  <line x1="306" y1="50.0" x2="326" y2="50.0" style="stroke:#999; stroke-width:3;" />
  <line x1="326" y1="50.0" x2="326" y2="50.0" style="stroke:#999; stroke-width:3;" />
  <line x1="326" y1="50.0" x2="326" y2="50.0" style="stroke:#999; stroke-width:3;" />
  <line x1="326" y1="50.0" x2="346" y2="50.0" style="stroke:#999; stroke-width:3;" />
  <rect class="anc_exon" x="346" y="35.0" width="70" height="30" style="fill:#87bcbc;fill-opacity:1.00" />
  <line x1="416" y1="50.0" x2="436" y2="50.0" style="stroke:#999; stroke-width:3;" />
  <line x1="436" y1="50.0" x2="436" y2="50.0" style="stroke:#999; stroke-width:3;" />
  <line x1="436" y1="50.0" x2="436" y2="50.0" style="stroke:#999; stroke-width:3;" />
  <line x1="436" y1="50.0" x2="456" y2="50.0" style="stroke:#999; stroke-width:3;" />
  <rect class="anc_exon" x="456" y="35.0" width="71" height="30" style="fill:#87bcbc;fill-opacity:1.00" />
  <line x1="527" y1="50.0" x2="547" y2="50.0" style="stroke:#999; stroke-width:3;" />
  <line x1="547" y1="50.0" x2="547" y2="50.0" style="stroke:#999; stroke-width:3;" />
  <line x1="547" y1="50.0" x2="547" y2="50.0" style="stroke:#999; stroke-width:3;" />
  <line x1="547" y1="50.0" x2="567" y2="50.0" style="stroke:#999; stroke-width:3;" />
  <rect class="anc_exon" x="567" y="35.0" width="51" height="30" style="fill:#87bcbc;fill-opacity:1.00" />
  <line x1="618" y1="50.0" x2="658" y2="50.0" style="stroke:#999; stroke-width:3;" />
  <rect class="anc_exon" x="658" y="35.0" width="71" height="30" style="fill:#87bcbc;fill-opacity:1.00" />
  <line x1="729" y1="50.0" x2="749" y2="50.0" style="stroke:#999; stroke-width:3;" />
  <line x1="749" y1="50.0" x2="749" y2="50.0" style="stroke:#999; stroke-width:3;" />
  <line x1="749" y1="50.0" x2="749" y2="50.0" style="stroke:#999; stroke-width:3;" />
  <line x1="749" y1="50.0" x2="769" y2="50.0" style="stroke:#999; stroke-width:3;" />
  <rect class="anc_exon" x="769" y="35.0" width="60" height="30" style="fill:#87bcbc;fill-opacity:1.00" />
  <line x1="829" y1="50.0" x2="869" y2="50.0" style="stroke:#999; stroke-width:3;" />
  <rect class="anc_exon" x="869" y="35.0" width="55" height="30" style="fill:#87bcbc;fill-opacity:1.00" />
  <line x1="924" y1="50.0" x2="944" y2="50.0" style="stroke:#999; stroke-width:3;" />
  <line x1="944" y1="50.0" x2="944" y2="50.0" style="stroke:#999; stroke-width:3;" />
  <line x1="944" y1="50.0" x2="944" y2="50.0" style="stroke:#999; stroke-width:3;" />
  <line x1="944" y1="50.0" x2="964" y2="50.0" style="stroke:#999; stroke-width:3;" />
  <rect class="anc_exon" x="964" y="35.0" width="100" height="30" style="fill:#87bcbc;fill-opacity:1.00" />
  <line x1="1064" y1="50.0" x2="1084" y2="50.0" style="stroke:#999; stroke-width:3;" />
  <line x1="1084" y1="50.0" x2="1084" y2="50.0" style="stroke:#999; stroke-width:3;" />
  <line x1="1084" y1="50.0" x2="1084" y2="50.0" style="stroke:#999; stroke-width:3;" />
  <line x1="1084" y1="50.0" x2="1104" y2="50.0" style="stroke:#999; stroke-width:3;" />
  <rect class="anc_exon" x="1104" y="35.0" width="479" height="30" style="fill:#87bcbc;fill-opacity:1.00" />
  <rect class="anc_exon" x="1583" y="35.0" width="0" height="30" style="fill:#87bcbc;fill-opacity:1.00" />
  <text style="" >
<tspan x="0" y="83.0" style="font-size:18px;" >SP XM_023497683_2.1</tspan>  </text>



<script type="text/ecmascript">
<![CDATA[
function draw_bbox(text_id)
{
    var text_elem = document.getElementById(text_id);
    var offset_px = 2;
    var offset_py = 0;
    bbox = text_elem.getBBox();
    var box = document.createElementNS(document.rootElement.namespaceURI,'rect');
    box.setAttribute('x', bbox.x - offset_px);
    box.setAttribute('y', bbox.y - offset_py);
    box.setAttribute('width', bbox.width + offset_px * 2);
    box.setAttribute('height', bbox.height + offset_py * 2);
    box.setAttribute('style','fill: white;'+'stroke: black;'+'stroke-width: 1px;');
    text_elem.insertBefore(box,text_elem.childNodes[0]);

    var svg = text_elem.parentNode;
    svg.appendChild(text_elem);
}

for (var i=1; i < 1; i++)
{
draw_bbox("Mouseover" + i);
}
]]> 
</script>
</svg>
