<svg version="1.1"
xmlns="http://www.w3.org/2000/svg"
xmlns:xlink="http://www.w3.org/1999/xlink"
width="2980" height="100" viewBox = "0 0 2980 100"
onclick="mouseclick(evt)">

<script type="text/ecmascript">

<![CDATA[
    function mouseover(evt, target) { 
    var gv = document.getElementById("globalVariable");
    var previoustarget = gv.firstChild.nodeValue;
    if (previoustarget != "none") 
    {
        	document.getElementById(gv.firstChild.nodeValue).setAttributeNS(null, "visibility", "hidden");
    }
    document.getElementById(target).setAttributeNS(null, "visibility", "visible");
    gv.firstChild.nodeValue = target;
        }

    function mouseclick(evt) { 
    var gv = document.getElementById("globalVariable");
    var previoustarget = gv.firstChild.nodeValue;
    if (previoustarget != "none") {
        	document.getElementById(gv.firstChild.nodeValue).setAttributeNS(null, "visibility", "hidden");
        }
    }
]]>
  </script>
<style type="text/css" >

<![CDATA[
    rect.anc_exon {
              stroke-width:3;
                  }

    rect.non_anc_exon {
              stroke: black; stroke-width:3; stroke-dasharray: 5,5;
                    }

    text {
              font-size: 18px;
              font-family: Courier New;
          }
                    ]]>
</style>

<defs>
    <text x="150" y="40" id="globalVariable">none</text>
</defs>

  <rect class="anc_exon" x="0" y="35.0" width="0" height="30" style="fill:#87bcbc;fill-opacity:1.00" />
  <rect class="anc_exon" x="0" y="35.0" width="424.8" height="30" style="fill:#87bcbc;fill-opacity:1.00" />
  <line x1="424.8" y1="50.0" x2="464.0" y2="50.0" style="stroke:#999; stroke-width:3;" />
  <rect class="anc_exon" x="464" y="35.0" width="116" height="30" style="fill:#87bcbc;fill-opacity:1.00" />
  <line x1="580" y1="50.0" x2="600" y2="50.0" style="stroke:#999; stroke-width:3;" />
  <line x1="600" y1="50.0" x2="600" y2="50.0" style="stroke:#999; stroke-width:3;" />
  <line x1="600" y1="50.0" x2="600" y2="50.0" style="stroke:#999; stroke-width:3;" />
  <line x1="600" y1="50.0" x2="620" y2="50.0" style="stroke:#999; stroke-width:3;" />
  <rect class="anc_exon" x="620" y="35.0" width="132" height="30" style="fill:#87bcbc;fill-opacity:1.00" />
  <line x1="752" y1="50.0" x2="792" y2="50.0" style="stroke:#999; stroke-width:3;" />
  <rect class="anc_exon" x="792" y="35.0" width="77" height="30" style="fill:#87bcbc;fill-opacity:1.00" />
  <line x1="869" y1="50.0" x2="889" y2="50.0" style="stroke:#999; stroke-width:3;" />
  <line x1="889" y1="50.0" x2="889" y2="50.0" style="stroke:#999; stroke-width:3;" />
  <line x1="889" y1="50.0" x2="889" y2="50.0" style="stroke:#999; stroke-width:3;" />
  <line x1="889" y1="50.0" x2="909" y2="50.0" style="stroke:#999; stroke-width:3;" />
  <rect class="anc_exon" x="909" y="35.0" width="96" height="30" style="fill:#87bcbc;fill-opacity:1.00" />
  <line x1="1005" y1="50.0" x2="1025" y2="50.0" style="stroke:#999; stroke-width:3;" />
  <line x1="1025" y1="50.0" x2="1025" y2="50.0" style="stroke:#999; stroke-width:3;" />
  <line x1="1025" y1="50.0" x2="1025" y2="50.0" style="stroke:#999; stroke-width:3;" />
  <line x1="1025" y1="50.0" x2="1045" y2="50.0" style="stroke:#999; stroke-width:3;" />
  <rect class="anc_exon" x="1045" y="35.0" width="95" height="30" style="fill:#87bcbc;fill-opacity:1.00" />
  <line x1="1140" y1="50.0" x2="1160" y2="50.0" style="stroke:#999; stroke-width:3;" />
  <line x1="1160" y1="50.0" x2="1160" y2="50.0" style="stroke:#999; stroke-width:3;" />
  <line x1="1160" y1="50.0" x2="1160" y2="50.0" style="stroke:#999; stroke-width:3;" />
  <line x1="1160" y1="50.0" x2="1180" y2="50.0" style="stroke:#999; stroke-width:3;" />
  <rect class="anc_exon" x="1180" y="35.0" width="105" height="30" style="fill:#87bcbc;fill-opacity:1.00" />
  <line x1="1285" y1="50.0" x2="1305" y2="50.0" style="stroke:#999; stroke-width:3;" />
  <line x1="1305" y1="50.0" x2="1305" y2="50.0" style="stroke:#999; stroke-width:3;" />
  <line x1="1305" y1="50.0" x2="1305" y2="50.0" style="stroke:#999; stroke-width:3;" />
  <line x1="1305" y1="50.0" x2="1325" y2="50.0" style="stroke:#999; stroke-width:3;" />
  <rect class="anc_exon" x="1325" y="35.0" width="88" height="30" style="fill:#87bcbc;fill-opacity:1.00" />
  <line x1="1413" y1="50.0" x2="1453" y2="50.0" style="stroke:#999; stroke-width:3;" />
  <rect class="anc_exon" x="1453" y="35.0" width="91" height="30" style="fill:#87bcbc;fill-opacity:1.00" />
  <line x1="1544" y1="50.0" x2="1584" y2="50.0" style="stroke:#999; stroke-width:3;" />
  <rect class="anc_exon" x="1584" y="35.0" width="68" height="30" style="fill:#87bcbc;fill-opacity:1.00" />
  <line x1="1652" y1="50.0" x2="1692" y2="50.0" style="stroke:#999; stroke-width:3;" />
  <rect class="anc_exon" x="1692" y="35.0" width="94" height="30" style="fill:#87bcbc;fill-opacity:1.00" />
  <line x1="1786" y1="50.0" x2="1806" y2="50.0" style="stroke:#999; stroke-width:3;" />
  <line x1="1806" y1="50.0" x2="1806" y2="50.0" style="stroke:#999; stroke-width:3;" />
  <line x1="1806" y1="50.0" x2="1806" y2="50.0" style="stroke:#999; stroke-width:3;" />
  <line x1="1806" y1="50.0" x2="1826" y2="50.0" style="stroke:#999; stroke-width:3;" />
  <rect class="anc_exon" x="1826" y="35.0" width="107" height="30" style="fill:#87bcbc;fill-opacity:1.00" />
  <line x1="1933" y1="50.0" x2="1973" y2="50.0" style="stroke:#999; stroke-width:3;" />
  <rect class="anc_exon" x="1973" y="35.0" width="121" height="30" style="fill:#87bcbc;fill-opacity:1.00" />
  <line x1="2094" y1="50.0" x2="2114" y2="50.0" style="stroke:#999; stroke-width:3;" />
  <line x1="2114" y1="50.0" x2="2114" y2="50.0" style="stroke:#999; stroke-width:3;" />
  <line x1="2114" y1="50.0" x2="2114" y2="50.0" style="stroke:#999; stroke-width:3;" />
  <line x1="2114" y1="50.0" x2="2134" y2="50.0" style="stroke:#999; stroke-width:3;" />
  <rect class="anc_exon" x="2134" y="35.0" width="119" height="30" style="fill:#87bcbc;fill-opacity:1.00" />
  <line x1="2253" y1="50.0" x2="2293" y2="50.0" style="stroke:#999; stroke-width:3;" />
  <rect class="anc_exon" x="2293" y="35.0" width="113" height="30" style="fill:#87bcbc;fill-opacity:1.00" />
  <line x1="2406" y1="50.0" x2="2426" y2="50.0" style="stroke:#999; stroke-width:3;" />
  <line x1="2426" y1="50.0" x2="2426" y2="50.0" style="stroke:#999; stroke-width:3;" />
  <line x1="2426" y1="50.0" x2="2426" y2="50.0" style="stroke:#999; stroke-width:3;" />
  <line x1="2426" y1="50.0" x2="2446" y2="50.0" style="stroke:#999; stroke-width:3;" />
  <rect class="anc_exon" x="2446" y="35.0" width="79" height="30" style="fill:#87bcbc;fill-opacity:1.00" />
  <line x1="2525" y1="50.0" x2="2565" y2="50.0" style="stroke:#999; stroke-width:3;" />
  <rect class="anc_exon" x="2565" y="35.0" width="132" height="30" style="fill:#87bcbc;fill-opacity:1.00" />
  <line x1="2697" y1="50.0" x2="2737" y2="50.0" style="stroke:#999; stroke-width:3;" />
  <rect class="anc_exon" x="2737" y="35.0" width="117" height="30" style="fill:#87bcbc;fill-opacity:1.00" />
  <line x1="2854" y1="50.0" x2="2894" y2="50.0" style="stroke:#999; stroke-width:3;" />
  <rect class="anc_exon" x="2894" y="35.0" width="50" height="30" style="fill:#87bcbc;fill-opacity:1.00" />
  <rect class="anc_exon" x="2944" y="35.0" width="0" height="30" style="fill:#87bcbc;fill-opacity:1.00" />
  <text style="" >
<tspan x="0" y="83.0" style="font-size:18px;" >SP XM_012542814_3.1</tspan>  </text>



<script type="text/ecmascript">
<![CDATA[
function draw_bbox(text_id)
{
    var text_elem = document.getElementById(text_id);
    var offset_px = 2;
    var offset_py = 0;
    bbox = text_elem.getBBox();
    var box = document.createElementNS(document.rootElement.namespaceURI,'rect');
    box.setAttribute('x', bbox.x - offset_px);
    box.setAttribute('y', bbox.y - offset_py);
    box.setAttribute('width', bbox.width + offset_px * 2);
    box.setAttribute('height', bbox.height + offset_py * 2);
    box.setAttribute('style','fill: white;'+'stroke: black;'+'stroke-width: 1px;');
    text_elem.insertBefore(box,text_elem.childNodes[0]);

    var svg = text_elem.parentNode;
    svg.appendChild(text_elem);
}

for (var i=1; i < 1; i++)
{
draw_bbox("Mouseover" + i);
}
]]> 
</script>
</svg>
