<svg version="1.1"
xmlns="http://www.w3.org/2000/svg"
xmlns:xlink="http://www.w3.org/1999/xlink"
width="8756" height="110.0" viewBox = "0 -10.0 8756 110.0"
onclick="mouseclick(evt)">

<script type="text/ecmascript">

<![CDATA[
    function mouseover(evt, target) { 
    var gv = document.getElementById("globalVariable");
    var previoustarget = gv.firstChild.nodeValue;
    if (previoustarget != "none") 
    {
        	document.getElementById(gv.firstChild.nodeValue).setAttributeNS(null, "visibility", "hidden");
    }
    document.getElementById(target).setAttributeNS(null, "visibility", "visible");
    gv.firstChild.nodeValue = target;
        }

    function mouseclick(evt) { 
    var gv = document.getElementById("globalVariable");
    var previoustarget = gv.firstChild.nodeValue;
    if (previoustarget != "none") {
        	document.getElementById(gv.firstChild.nodeValue).setAttributeNS(null, "visibility", "hidden");
        }
    }
]]>
  </script>
<style type="text/css" >

<![CDATA[
    rect.anc_exon {
              stroke-width:3;
                  }

    rect.non_anc_exon {
              stroke: black; stroke-width:3; stroke-dasharray: 5,5;
                    }

    text {
              font-size: 18px;
              font-family: Courier New;
          }
                    ]]>
</style>

<defs>
    <text x="150" y="40" id="globalVariable">none</text>
</defs>

  <rect class="anc_exon" x="0" y="35.0" width="0" height="30" style="fill:#87bcbc;fill-opacity:1.00" />
  <rect class="anc_exon" x="0" y="35.0" width="40.800000000000004" height="30" style="fill:#87bcbc;fill-opacity:1.00" />
  <line x1="40.800000000000004" y1="50.0" x2="59.800000000000004" y2="50.0" style="stroke:#999; stroke-width:3;" />
  <line x1="59.800000000000004" y1="50.0" x2="59.800000000000004" y2="50.0" style="stroke:#999; stroke-width:3;" />
  <line x1="59.800000000000004" y1="50.0" x2="59.800000000000004" y2="50.0" style="stroke:#999; stroke-width:3;" />
  <line x1="59.800000000000004" y1="50.0" x2="80.0" y2="50.0" style="stroke:#999; stroke-width:3;" />
  <rect class="anc_exon" x="80" y="35.0" width="71" height="30" style="fill:#87bcbc;fill-opacity:1.00" />
  <line x1="151" y1="50.0" x2="191" y2="50.0" style="stroke:#999; stroke-width:3;" />
  <rect class="anc_exon" x="191" y="35.0" width="120" height="30" style="fill:#87bcbc;fill-opacity:1.00" />
  <line x1="311" y1="50.0" x2="351" y2="50.0" style="stroke:#999; stroke-width:3;" />
  <rect class="anc_exon" x="351" y="35.0" width="65" height="30" style="fill:#87bcbc;fill-opacity:1.00" />
  <line x1="416" y1="50.0" x2="456" y2="50.0" style="stroke:#999; stroke-width:3;" />
  <rect class="anc_exon" x="456" y="35.0" width="102" height="30" style="fill:#87bcbc;fill-opacity:1.00" />
  <line x1="558" y1="50.0" x2="598" y2="50.0" style="stroke:#999; stroke-width:3;" />
  <rect class="anc_exon" x="598" y="35.0" width="66" height="30" style="fill:#87bcbc;fill-opacity:1.00" />
  <line x1="664" y1="50.0" x2="684" y2="50.0" style="stroke:#999; stroke-width:3;" />
  <line x1="684" y1="50.0" x2="684" y2="50.0" style="stroke:#999; stroke-width:3;" />
  <line x1="684" y1="50.0" x2="684" y2="50.0" style="stroke:#999; stroke-width:3;" />
  <line x1="684" y1="50.0" x2="704" y2="50.0" style="stroke:#999; stroke-width:3;" />
  <rect class="anc_exon" x="704" y="35.0" width="68" height="30" style="fill:#87bcbc;fill-opacity:1.00" />
  <line x1="772" y1="50.0" x2="812" y2="50.0" style="stroke:#999; stroke-width:3;" />
  <rect class="anc_exon" x="812" y="35.0" width="245" height="30" style="fill:#87bcbc;fill-opacity:1.00" />
  <line x1="1057" y1="50.0" x2="1097" y2="50.0" style="stroke:#999; stroke-width:3;" />
  <rect class="anc_exon" x="1097" y="35.0" width="85" height="30" style="fill:#87bcbc;fill-opacity:1.00" />
  <line x1="1182" y1="50.0" x2="1202" y2="50.0" style="stroke:#999; stroke-width:3;" />
  <line x1="1202" y1="50.0" x2="1202" y2="50.0" style="stroke:#999; stroke-width:3;" />
  <line x1="1202" y1="50.0" x2="1202" y2="50.0" style="stroke:#999; stroke-width:3;" />
  <line x1="1202" y1="50.0" x2="1222" y2="50.0" style="stroke:#999; stroke-width:3;" />
  <rect class="anc_exon" x="1222" y="35.0" width="69" height="30" style="fill:#87bcbc;fill-opacity:1.00" />
  <line x1="1291" y1="50.0" x2="1311" y2="50.0" style="stroke:#999; stroke-width:3;" />
  <line x1="1311" y1="50.0" x2="1311" y2="50.0" style="stroke:#999; stroke-width:3;" />
  <line x1="1311" y1="50.0" x2="1311" y2="50.0" style="stroke:#999; stroke-width:3;" />
  <line x1="1311" y1="50.0" x2="1331" y2="50.0" style="stroke:#999; stroke-width:3;" />
  <rect class="anc_exon" x="1331" y="35.0" width="67" height="30" style="fill:#87bcbc;fill-opacity:1.00" />
  <line x1="1398" y1="50.0" x2="1418" y2="50.0" style="stroke:#999; stroke-width:3;" />
  <line x1="1418" y1="50.0" x2="1418" y2="50.0" style="stroke:#999; stroke-width:3;" />
  <line x1="1418" y1="50.0" x2="1418" y2="50.0" style="stroke:#999; stroke-width:3;" />
  <line x1="1418" y1="50.0" x2="1438" y2="50.0" style="stroke:#999; stroke-width:3;" />
  <rect class="anc_exon" x="1438" y="35.0" width="79" height="30" style="fill:#87bcbc;fill-opacity:1.00" />
  <line x1="1517" y1="50.0" x2="1537" y2="50.0" style="stroke:#999; stroke-width:3;" />
  <line x1="1537" y1="50.0" x2="1537" y2="50.0" style="stroke:#999; stroke-width:3;" />
  <line x1="1537" y1="50.0" x2="1537" y2="50.0" style="stroke:#999; stroke-width:3;" />
  <line x1="1537" y1="50.0" x2="1557" y2="50.0" style="stroke:#999; stroke-width:3;" />
  <rect class="anc_exon" x="1557" y="35.0" width="491" height="30" style="fill:#87bcbc;fill-opacity:1.00" />
  <line x1="2048" y1="50.0" x2="2088" y2="50.0" style="stroke:#999; stroke-width:3;" />
  <rect class="anc_exon" x="2088" y="35.0" width="106" height="30" style="fill:#87bcbc;fill-opacity:1.00" />
  <line x1="2194" y1="50.0" x2="2234" y2="50.0" style="stroke:#999; stroke-width:3;" />
  <rect class="anc_exon" x="2234" y="35.0" width="96" height="30" style="fill:#87bcbc;fill-opacity:1.00" />
  <line x1="2330" y1="50.0" x2="2350" y2="50.0" style="stroke:#999; stroke-width:3;" />
  <line x1="2350" y1="50.0" x2="2350" y2="50.0" style="stroke:#999; stroke-width:3;" />
  <line x1="2350" y1="50.0" x2="2350" y2="50.0" style="stroke:#999; stroke-width:3;" />
  <line x1="2350" y1="50.0" x2="2370" y2="50.0" style="stroke:#999; stroke-width:3;" />
  <rect class="anc_exon" x="2370" y="35.0" width="269" height="30" style="fill:#87bcbc;fill-opacity:1.00" />
  <line x1="2639" y1="50.0" x2="2659" y2="50.0" style="stroke:#999; stroke-width:3;" />
  <line x1="2659" y1="50.0" x2="2659" y2="50.0" style="stroke:#999; stroke-width:3;" />
  <line x1="2659" y1="50.0" x2="2659" y2="50.0" style="stroke:#999; stroke-width:3;" />
  <line x1="2659" y1="50.0" x2="2679" y2="50.0" style="stroke:#999; stroke-width:3;" />
  <rect class="anc_exon" x="2679" y="35.0" width="66" height="30" style="fill:#87bcbc;fill-opacity:1.00" />
  <line x1="2745" y1="50.0" x2="2785" y2="50.0" style="stroke:#999; stroke-width:3;" />
  <rect class="anc_exon" x="2785" y="35.0" width="74" height="30" style="fill:#87bcbc;fill-opacity:1.00" />
  <line x1="2859" y1="50.0" x2="2899" y2="50.0" style="stroke:#999; stroke-width:3;" />
  <rect class="anc_exon" x="2899" y="35.0" width="137" height="30" style="fill:#87bcbc;fill-opacity:1.00" />
  <line x1="3036" y1="50.0" x2="3076" y2="50.0" style="stroke:#999; stroke-width:3;" />
  <rect class="anc_exon" x="3076" y="35.0" width="107" height="30" style="fill:#87bcbc;fill-opacity:1.00" />
  <line x1="3183" y1="50.0" x2="3223" y2="50.0" style="stroke:#999; stroke-width:3;" />
  <rect class="anc_exon" x="3223" y="35.0" width="128" height="30" style="fill:#87bcbc;fill-opacity:1.00" />
  <line x1="3351" y1="50.0" x2="3391" y2="50.0" style="stroke:#999; stroke-width:3;" />
  <rect class="anc_exon" x="3391" y="35.0" width="82" height="30" style="fill:#87bcbc;fill-opacity:1.00" />
  <line x1="3473" y1="50.0" x2="3513" y2="50.0" style="stroke:#999; stroke-width:3;" />
  <rect class="anc_exon" x="3513" y="35.0" width="123" height="30" style="fill:#87bcbc;fill-opacity:1.00" />
  <line x1="3636" y1="50.0" x2="3676" y2="50.0" style="stroke:#999; stroke-width:3;" />
  <rect class="anc_exon" x="3676" y="35.0" width="127" height="30" style="fill:#87bcbc;fill-opacity:1.00" />
  <line x1="3803" y1="50.0" x2="3843" y2="50.0" style="stroke:#999; stroke-width:3;" />
  <rect class="anc_exon" x="3843" y="35.0" width="128" height="30" style="fill:#87bcbc;fill-opacity:1.00" />
  <line x1="3971" y1="50.0" x2="4011" y2="50.0" style="stroke:#999; stroke-width:3;" />
  <rect class="anc_exon" x="4011" y="35.0" width="68" height="30" style="fill:#87bcbc;fill-opacity:1.00" />
  <line x1="4079" y1="50.0" x2="4119" y2="50.0" style="stroke:#999; stroke-width:3;" />
  <rect class="anc_exon" x="4119" y="35.0" width="441" height="30" style="fill:#87bcbc;fill-opacity:1.00" />
  <line x1="4560" y1="50.0" x2="4600" y2="50.0" style="stroke:#999; stroke-width:3;" />
  <rect class="anc_exon" x="4600" y="35.0" width="143" height="30" style="fill:#87bcbc;fill-opacity:1.00" />
  <line x1="4743" y1="50.0" x2="4783" y2="50.0" style="stroke:#999; stroke-width:3;" />
  <rect class="anc_exon" x="4783" y="35.0" width="128" height="30" style="fill:#87bcbc;fill-opacity:1.00" />
  <line x1="4911" y1="50.0" x2="4951" y2="50.0" style="stroke:#999; stroke-width:3;" />
  <rect class="anc_exon" x="4951" y="35.0" width="110" height="30" style="fill:#87bcbc;fill-opacity:1.00" />
  <line x1="5061" y1="50.0" x2="5101" y2="50.0" style="stroke:#999; stroke-width:3;" />
  <rect class="anc_exon" x="5101" y="35.0" width="244" height="30" style="fill:#87bcbc;fill-opacity:1.00" />
  <line x1="5345" y1="50.0" x2="5385" y2="50.0" style="stroke:#999; stroke-width:3;" />
  <rect class="anc_exon" x="5385" y="35.0" width="120" height="30" style="fill:#87bcbc;fill-opacity:1.00" />
  <line x1="5505" y1="50.0" x2="5525" y2="50.0" style="stroke:#999; stroke-width:3;" />
  <line x1="5525" y1="50.0" x2="5525" y2="50.0" style="stroke:#999; stroke-width:3;" />
  <line x1="5525" y1="50.0" x2="5525" y2="50.0" style="stroke:#999; stroke-width:3;" />
  <line x1="5525" y1="50.0" x2="5545" y2="50.0" style="stroke:#999; stroke-width:3;" />
  <rect class="anc_exon" x="5545" y="35.0" width="126" height="30" style="fill:#87bcbc;fill-opacity:1.00" />
  <line x1="5671" y1="50.0" x2="5711" y2="50.0" style="stroke:#999; stroke-width:3;" />
  <rect class="anc_exon" x="5711" y="35.0" width="100" height="30" style="fill:#87bcbc;fill-opacity:1.00" />
  <line x1="5811" y1="50.0" x2="5851" y2="50.0" style="stroke:#999; stroke-width:3;" />
  <rect class="anc_exon" x="5851" y="35.0" width="101" height="30" style="fill:#87bcbc;fill-opacity:1.00" />
  <line x1="5952" y1="50.0" x2="5992" y2="50.0" style="stroke:#999; stroke-width:3;" />
  <rect class="anc_exon" x="5992" y="35.0" width="128" height="30" style="fill:#87bcbc;fill-opacity:1.00" />
  <line x1="6120" y1="50.0" x2="6160" y2="50.0" style="stroke:#999; stroke-width:3;" />
  <rect class="anc_exon" x="6160" y="35.0" width="107" height="30" style="fill:#87bcbc;fill-opacity:1.00" />
  <line x1="6267" y1="50.0" x2="6307" y2="50.0" style="stroke:#999; stroke-width:3;" />
  <rect class="anc_exon" x="6307" y="35.0" width="86" height="30" style="fill:#87bcbc;fill-opacity:1.00" />
  <line x1="6393" y1="50.0" x2="6433" y2="50.0" style="stroke:#999; stroke-width:3;" />
  <rect class="anc_exon" x="6433" y="35.0" width="76" height="30" style="fill:#87bcbc;fill-opacity:1.00" />
  <line x1="6509" y1="50.0" x2="6549" y2="50.0" style="stroke:#999; stroke-width:3;" />
  <rect class="anc_exon" x="6549" y="35.0" width="100" height="30" style="fill:#87bcbc;fill-opacity:1.00" />
  <line x1="6649" y1="50.0" x2="6689" y2="50.0" style="stroke:#999; stroke-width:3;" />
  <rect class="anc_exon" x="6689" y="35.0" width="112" height="30" style="fill:#87bcbc;fill-opacity:1.00" />
  <line x1="6801" y1="50.0" x2="6821" y2="50.0" style="stroke:#999; stroke-width:3;" />
  <line x1="6821" y1="50.0" x2="6821" y2="50.0" style="stroke:#999; stroke-width:3;" />
  <line x1="6821" y1="50.0" x2="6821" y2="50.0" style="stroke:#999; stroke-width:3;" />
  <line x1="6821" y1="50.0" x2="6841" y2="50.0" style="stroke:#999; stroke-width:3;" />
  <rect class="anc_exon" x="6841" y="35.0" width="104" height="30" style="fill:#87bcbc;fill-opacity:1.00" />
  <line x1="6945" y1="50.0" x2="6985" y2="50.0" style="stroke:#999; stroke-width:3;" />
  <rect class="anc_exon" x="6985" y="35.0" width="88" height="30" style="fill:#87bcbc;fill-opacity:1.00" />
  <line x1="7073" y1="50.0" x2="7113" y2="50.0" style="stroke:#999; stroke-width:3;" />
  <rect class="anc_exon" x="7113" y="35.0" width="94" height="30" style="fill:#87bcbc;fill-opacity:1.00" />
  <line x1="7117.0" y1="35.0" x2="7117.0" y2="65.0" style="stroke:#121212;stroke-width:3;"/>
  <text style="" text-anchor="middle">
<tspan x="7116.2" y="26.0" style="font-size:18px;fill:#121212;" >TAA</tspan>  </text>
  <line x1="7207" y1="50.0" x2="7227" y2="50.0" style="stroke:#999; stroke-width:3;" />
  <line x1="7227" y1="50.0" x2="7227" y2="50.0" style="stroke:#999; stroke-width:3;" />
  <line x1="7227" y1="50.0" x2="7227" y2="50.0" style="stroke:#999; stroke-width:3;" />
  <line x1="7227" y1="50.0" x2="7247" y2="50.0" style="stroke:#999; stroke-width:3;" />
  <rect class="anc_exon" x="7247" y="35.0" width="78" height="30" style="fill:#87bcbc;fill-opacity:1.00" />
  <line x1="7325" y1="50.0" x2="7365" y2="50.0" style="stroke:#999; stroke-width:3;" />
  <rect class="anc_exon" x="7365" y="35.0" width="93" height="30" style="fill:#87bcbc;fill-opacity:1.00" />
  <line x1="7458" y1="50.0" x2="7498" y2="50.0" style="stroke:#999; stroke-width:3;" />
  <rect class="anc_exon" x="7498" y="35.0" width="72" height="30" style="fill:#87bcbc;fill-opacity:1.00" />
  <line x1="7570" y1="50.0" x2="7610" y2="50.0" style="stroke:#999; stroke-width:3;" />
  <rect class="anc_exon" x="7610" y="35.0" width="88" height="30" style="fill:#87bcbc;fill-opacity:1.00" />
  <line x1="7698" y1="50.0" x2="7738" y2="50.0" style="stroke:#999; stroke-width:3;" />
  <rect class="anc_exon" x="7738" y="35.0" width="138" height="30" style="fill:#87bcbc;fill-opacity:1.00" />
  <line x1="7876" y1="50.0" x2="7916" y2="50.0" style="stroke:#999; stroke-width:3;" />
  <rect class="anc_exon" x="7916" y="35.0" width="76" height="30" style="fill:#87bcbc;fill-opacity:1.00" />
  <line x1="7992" y1="50.0" x2="8032" y2="50.0" style="stroke:#999; stroke-width:3;" />
  <rect class="anc_exon" x="8032" y="35.0" width="93" height="30" style="fill:#87bcbc;fill-opacity:1.00" />
  <line x1="8125" y1="50.0" x2="8165" y2="50.0" style="stroke:#999; stroke-width:3;" />
  <rect class="anc_exon" x="8165" y="35.0" width="127" height="30" style="fill:#87bcbc;fill-opacity:1.00" />
  <line x1="8292" y1="50.0" x2="8332" y2="50.0" style="stroke:#999; stroke-width:3;" />
  <rect class="anc_exon" x="8332" y="35.0" width="119" height="30" style="fill:#87bcbc;fill-opacity:1.00" />
  <line x1="8451" y1="50.0" x2="8491" y2="50.0" style="stroke:#999; stroke-width:3;" />
  <rect class="anc_exon" x="8491" y="35.0" width="108" height="30" style="fill:#87bcbc;fill-opacity:1.00" />
  <line x1="8599" y1="50.0" x2="8639" y2="50.0" style="stroke:#999; stroke-width:3;" />
  <rect class="anc_exon" x="8639" y="35.0" width="81" height="30" style="fill:#878787;fill-opacity:1.00" />
  <rect class="anc_exon" x="8720" y="35.0" width="0" height="30" style="fill:#87bcbc;fill-opacity:1.00" />
  <text style="" >
<tspan x="0" y="83.0" style="font-size:18px;" >SP XM_031960582_1.1</tspan>  </text>



<script type="text/ecmascript">
<![CDATA[
function draw_bbox(text_id)
{
    var text_elem = document.getElementById(text_id);
    var offset_px = 2;
    var offset_py = 0;
    bbox = text_elem.getBBox();
    var box = document.createElementNS(document.rootElement.namespaceURI,'rect');
    box.setAttribute('x', bbox.x - offset_px);
    box.setAttribute('y', bbox.y - offset_py);
    box.setAttribute('width', bbox.width + offset_px * 2);
    box.setAttribute('height', bbox.height + offset_py * 2);
    box.setAttribute('style','fill: white;'+'stroke: black;'+'stroke-width: 1px;');
    text_elem.insertBefore(box,text_elem.childNodes[0]);

    var svg = text_elem.parentNode;
    svg.appendChild(text_elem);
}

for (var i=1; i < 1; i++)
{
draw_bbox("Mouseover" + i);
}
]]> 
</script>
</svg>
