<svg version="1.1"
xmlns="http://www.w3.org/2000/svg"
xmlns:xlink="http://www.w3.org/1999/xlink"
width="3650" height="100" viewBox = "0 0 3650 100"
onclick="mouseclick(evt)">

<script type="text/ecmascript">

<![CDATA[
    function mouseover(evt, target) { 
    var gv = document.getElementById("globalVariable");
    var previoustarget = gv.firstChild.nodeValue;
    if (previoustarget != "none") 
    {
        	document.getElementById(gv.firstChild.nodeValue).setAttributeNS(null, "visibility", "hidden");
    }
    document.getElementById(target).setAttributeNS(null, "visibility", "visible");
    gv.firstChild.nodeValue = target;
        }

    function mouseclick(evt) { 
    var gv = document.getElementById("globalVariable");
    var previoustarget = gv.firstChild.nodeValue;
    if (previoustarget != "none") {
        	document.getElementById(gv.firstChild.nodeValue).setAttributeNS(null, "visibility", "hidden");
        }
    }
]]>
  </script>
<style type="text/css" >

<![CDATA[
    rect.anc_exon {
              stroke-width:3;
                  }

    rect.non_anc_exon {
              stroke: black; stroke-width:3; stroke-dasharray: 5,5;
                    }

    text {
              font-size: 18px;
              font-family: Courier New;
          }
                    ]]>
</style>

<defs>
    <text x="150" y="40" id="globalVariable">none</text>
</defs>

  <rect class="anc_exon" x="0" y="35.0" width="0" height="30" style="fill:#87bcbc;fill-opacity:1.00" />
  <rect class="anc_exon" x="0" y="35.0" width="22.400000000000002" height="30" style="fill:#87bcbc;fill-opacity:1.00" />
  <line x1="22.400000000000002" y1="50.0" x2="41.400000000000006" y2="50.0" style="stroke:#999; stroke-width:3;" />
  <line x1="41.400000000000006" y1="50.0" x2="41.400000000000006" y2="50.0" style="stroke:#999; stroke-width:3;" />
  <line x1="41.400000000000006" y1="50.0" x2="41.400000000000006" y2="50.0" style="stroke:#999; stroke-width:3;" />
  <line x1="41.400000000000006" y1="50.0" x2="62.0" y2="50.0" style="stroke:#999; stroke-width:3;" />
  <rect class="anc_exon" x="62" y="35.0" width="76" height="30" style="fill:#87bcbc;fill-opacity:1.00" />
  <line x1="138" y1="50.0" x2="158" y2="50.0" style="stroke:#999; stroke-width:3;" />
  <line x1="158" y1="50.0" x2="158" y2="50.0" style="stroke:#999; stroke-width:3;" />
  <line x1="158" y1="50.0" x2="158" y2="50.0" style="stroke:#999; stroke-width:3;" />
  <line x1="158" y1="50.0" x2="178" y2="50.0" style="stroke:#999; stroke-width:3;" />
  <rect class="anc_exon" x="178" y="35.0" width="104" height="30" style="fill:#87bcbc;fill-opacity:1.00" />
  <line x1="282" y1="50.0" x2="322" y2="50.0" style="stroke:#999; stroke-width:3;" />
  <rect class="anc_exon" x="322" y="35.0" width="88" height="30" style="fill:#87bcbc;fill-opacity:1.00" />
  <line x1="410" y1="50.0" x2="450" y2="50.0" style="stroke:#999; stroke-width:3;" />
  <rect class="anc_exon" x="450" y="35.0" width="241" height="30" style="fill:#87bcbc;fill-opacity:1.00" />
  <line x1="691" y1="50.0" x2="731" y2="50.0" style="stroke:#999; stroke-width:3;" />
  <rect class="anc_exon" x="731" y="35.0" width="96" height="30" style="fill:#87bcbc;fill-opacity:1.00" />
  <line x1="827" y1="50.0" x2="867" y2="50.0" style="stroke:#999; stroke-width:3;" />
  <rect class="anc_exon" x="867" y="35.0" width="120" height="30" style="fill:#87bcbc;fill-opacity:1.00" />
  <line x1="987" y1="50.0" x2="1027" y2="50.0" style="stroke:#999; stroke-width:3;" />
  <rect class="anc_exon" x="1027" y="35.0" width="122" height="30" style="fill:#87bcbc;fill-opacity:1.00" />
  <line x1="1149" y1="50.0" x2="1189" y2="50.0" style="stroke:#999; stroke-width:3;" />
  <rect class="anc_exon" x="1189" y="35.0" width="664" height="30" style="fill:#87bcbc;fill-opacity:1.00" />
  <line x1="1853" y1="50.0" x2="1893" y2="50.0" style="stroke:#999; stroke-width:3;" />
  <rect class="anc_exon" x="1893" y="35.0" width="60" height="30" style="fill:#87bcbc;fill-opacity:1.00" />
  <line x1="1953" y1="50.0" x2="1993" y2="50.0" style="stroke:#999; stroke-width:3;" />
  <rect class="anc_exon" x="1993" y="35.0" width="84" height="30" style="fill:#87bcbc;fill-opacity:1.00" />
  <line x1="2077" y1="50.0" x2="2117" y2="50.0" style="stroke:#999; stroke-width:3;" />
  <rect class="anc_exon" x="2117" y="35.0" width="140" height="30" style="fill:#87bcbc;fill-opacity:1.00" />
  <line x1="2257" y1="50.0" x2="2297" y2="50.0" style="stroke:#999; stroke-width:3;" />
  <rect class="anc_exon" x="2297" y="35.0" width="165" height="30" style="fill:#87bcbc;fill-opacity:1.00" />
  <line x1="2462" y1="50.0" x2="2502" y2="50.0" style="stroke:#999; stroke-width:3;" />
  <rect class="anc_exon" x="2502" y="35.0" width="65" height="30" style="fill:#87bcbc;fill-opacity:1.00" />
  <line x1="2567" y1="50.0" x2="2607" y2="50.0" style="stroke:#999; stroke-width:3;" />
  <rect class="anc_exon" x="2607" y="35.0" width="155" height="30" style="fill:#87bcbc;fill-opacity:1.00" />
  <line x1="2762" y1="50.0" x2="2802" y2="50.0" style="stroke:#999; stroke-width:3;" />
  <rect class="anc_exon" x="2802" y="35.0" width="128" height="30" style="fill:#87bcbc;fill-opacity:1.00" />
  <line x1="2930" y1="50.0" x2="2970" y2="50.0" style="stroke:#999; stroke-width:3;" />
  <rect class="anc_exon" x="2970" y="35.0" width="126" height="30" style="fill:#87bcbc;fill-opacity:1.00" />
  <line x1="3096" y1="50.0" x2="3136" y2="50.0" style="stroke:#999; stroke-width:3;" />
  <rect class="anc_exon" x="3136" y="35.0" width="83" height="30" style="fill:#87bcbc;fill-opacity:1.00" />
  <line x1="3219" y1="50.0" x2="3259" y2="50.0" style="stroke:#999; stroke-width:3;" />
  <rect class="anc_exon" x="3259" y="35.0" width="112" height="30" style="fill:#87bcbc;fill-opacity:1.00" />
  <line x1="3371" y1="50.0" x2="3411" y2="50.0" style="stroke:#999; stroke-width:3;" />
  <rect class="anc_exon" x="3411" y="35.0" width="203" height="30" style="fill:#87bcbc;fill-opacity:1.00" />
  <rect class="anc_exon" x="3614" y="35.0" width="0" height="30" style="fill:#87bcbc;fill-opacity:1.00" />
  <text style="" >
<tspan x="0" y="83.0" style="font-size:18px;" >SP XM_031960886_1.1</tspan>  </text>



<script type="text/ecmascript">
<![CDATA[
function draw_bbox(text_id)
{
    var text_elem = document.getElementById(text_id);
    var offset_px = 2;
    var offset_py = 0;
    bbox = text_elem.getBBox();
    var box = document.createElementNS(document.rootElement.namespaceURI,'rect');
    box.setAttribute('x', bbox.x - offset_px);
    box.setAttribute('y', bbox.y - offset_py);
    box.setAttribute('width', bbox.width + offset_px * 2);
    box.setAttribute('height', bbox.height + offset_py * 2);
    box.setAttribute('style','fill: white;'+'stroke: black;'+'stroke-width: 1px;');
    text_elem.insertBefore(box,text_elem.childNodes[0]);

    var svg = text_elem.parentNode;
    svg.appendChild(text_elem);
}

for (var i=1; i < 1; i++)
{
draw_bbox("Mouseover" + i);
}
]]> 
</script>
</svg>
