<svg version="1.1"
xmlns="http://www.w3.org/2000/svg"
xmlns:xlink="http://www.w3.org/1999/xlink"
width="4791" height="100" viewBox = "0 0 4791 100"
onclick="mouseclick(evt)">

<script type="text/ecmascript">

<![CDATA[
    function mouseover(evt, target) { 
    var gv = document.getElementById("globalVariable");
    var previoustarget = gv.firstChild.nodeValue;
    if (previoustarget != "none") 
    {
        	document.getElementById(gv.firstChild.nodeValue).setAttributeNS(null, "visibility", "hidden");
    }
    document.getElementById(target).setAttributeNS(null, "visibility", "visible");
    gv.firstChild.nodeValue = target;
        }

    function mouseclick(evt) { 
    var gv = document.getElementById("globalVariable");
    var previoustarget = gv.firstChild.nodeValue;
    if (previoustarget != "none") {
        	document.getElementById(gv.firstChild.nodeValue).setAttributeNS(null, "visibility", "hidden");
        }
    }
]]>
  </script>
<style type="text/css" >

<![CDATA[
    rect.anc_exon {
              stroke-width:3;
                  }

    rect.non_anc_exon {
              stroke: black; stroke-width:3; stroke-dasharray: 5,5;
                    }

    text {
              font-size: 18px;
              font-family: Courier New;
          }
                    ]]>
</style>

<defs>
    <text x="150" y="40" id="globalVariable">none</text>
</defs>

  <rect class="anc_exon" x="0" y="35.0" width="0" height="30" style="fill:#87bcbc;fill-opacity:1.00" />
  <rect class="anc_exon" x="0" y="35.0" width="51.2" height="30" style="fill:#87bcbc;fill-opacity:1.00" />
  <line x1="51.2" y1="50.0" x2="70.2" y2="50.0" style="stroke:#999; stroke-width:3;" />
  <line x1="70.2" y1="50.0" x2="70.2" y2="50.0" style="stroke:#999; stroke-width:3;" />
  <line x1="70.2" y1="50.0" x2="70.2" y2="50.0" style="stroke:#999; stroke-width:3;" />
  <line x1="70.2" y1="50.0" x2="91.0" y2="50.0" style="stroke:#999; stroke-width:3;" />
  <rect class="anc_exon" x="91" y="35.0" width="116" height="30" style="fill:#87bcbc;fill-opacity:1.00" />
  <line x1="207" y1="50.0" x2="227" y2="50.0" style="stroke:#999; stroke-width:3;" />
  <line x1="227" y1="50.0" x2="227" y2="50.0" style="stroke:#999; stroke-width:3;" />
  <line x1="227" y1="50.0" x2="227" y2="50.0" style="stroke:#999; stroke-width:3;" />
  <line x1="227" y1="50.0" x2="247" y2="50.0" style="stroke:#999; stroke-width:3;" />
  <rect class="anc_exon" x="247" y="35.0" width="113" height="30" style="fill:#87bcbc;fill-opacity:1.00" />
  <line x1="360" y1="50.0" x2="380" y2="50.0" style="stroke:#999; stroke-width:3;" />
  <line x1="380" y1="50.0" x2="380" y2="50.0" style="stroke:#999; stroke-width:3;" />
  <line x1="380" y1="50.0" x2="380" y2="50.0" style="stroke:#999; stroke-width:3;" />
  <line x1="380" y1="50.0" x2="400" y2="50.0" style="stroke:#999; stroke-width:3;" />
  <rect class="anc_exon" x="400" y="35.0" width="151" height="30" style="fill:#87bcbc;fill-opacity:1.00" />
  <line x1="551" y1="50.0" x2="571" y2="50.0" style="stroke:#999; stroke-width:3;" />
  <line x1="571" y1="50.0" x2="571" y2="50.0" style="stroke:#999; stroke-width:3;" />
  <line x1="571" y1="50.0" x2="571" y2="50.0" style="stroke:#999; stroke-width:3;" />
  <line x1="571" y1="50.0" x2="591" y2="50.0" style="stroke:#999; stroke-width:3;" />
  <rect class="anc_exon" x="591" y="35.0" width="14" height="30" style="fill:#87bcbc;fill-opacity:1.00" />
  <line x1="605" y1="50.0" x2="645" y2="50.0" style="stroke:#999; stroke-width:3;" />
  <rect class="anc_exon" x="645" y="35.0" width="88" height="30" style="fill:#87bcbc;fill-opacity:1.00" />
  <line x1="733" y1="50.0" x2="773" y2="50.0" style="stroke:#999; stroke-width:3;" />
  <rect class="anc_exon" x="773" y="35.0" width="9" height="30" style="fill:#87bcbc;fill-opacity:1.00" />
  <line x1="782" y1="50.0" x2="802" y2="50.0" style="stroke:#999; stroke-width:3;" />
  <line x1="802" y1="50.0" x2="802" y2="50.0" style="stroke:#999; stroke-width:3;" />
  <line x1="802" y1="50.0" x2="802" y2="50.0" style="stroke:#999; stroke-width:3;" />
  <line x1="802" y1="50.0" x2="822" y2="50.0" style="stroke:#999; stroke-width:3;" />
  <rect class="anc_exon" x="822" y="35.0" width="216" height="30" style="fill:#87bcbc;fill-opacity:1.00" />
  <line x1="1038" y1="50.0" x2="1078" y2="50.0" style="stroke:#999; stroke-width:3;" />
  <rect class="anc_exon" x="1078" y="35.0" width="465" height="30" style="fill:#87bcbc;fill-opacity:1.00" />
  <line x1="1543" y1="50.0" x2="1563" y2="50.0" style="stroke:#999; stroke-width:3;" />
  <line x1="1563" y1="50.0" x2="1563" y2="50.0" style="stroke:#999; stroke-width:3;" />
  <line x1="1563" y1="50.0" x2="1563" y2="50.0" style="stroke:#999; stroke-width:3;" />
  <line x1="1563" y1="50.0" x2="1583" y2="50.0" style="stroke:#999; stroke-width:3;" />
  <rect class="anc_exon" x="1583" y="35.0" width="107" height="30" style="fill:#87bcbc;fill-opacity:1.00" />
  <line x1="1690" y1="50.0" x2="1710" y2="50.0" style="stroke:#999; stroke-width:3;" />
  <line x1="1710" y1="50.0" x2="1710" y2="50.0" style="stroke:#999; stroke-width:3;" />
  <line x1="1710" y1="50.0" x2="1710" y2="50.0" style="stroke:#999; stroke-width:3;" />
  <line x1="1710" y1="50.0" x2="1730" y2="50.0" style="stroke:#999; stroke-width:3;" />
  <rect class="anc_exon" x="1730" y="35.0" width="116" height="30" style="fill:#87bcbc;fill-opacity:1.00" />
  <line x1="1846" y1="50.0" x2="1866" y2="50.0" style="stroke:#999; stroke-width:3;" />
  <line x1="1866" y1="50.0" x2="1866" y2="50.0" style="stroke:#999; stroke-width:3;" />
  <line x1="1866" y1="50.0" x2="1866" y2="50.0" style="stroke:#999; stroke-width:3;" />
  <line x1="1866" y1="50.0" x2="1886" y2="50.0" style="stroke:#999; stroke-width:3;" />
  <rect class="anc_exon" x="1886" y="35.0" width="78" height="30" style="fill:#87bcbc;fill-opacity:1.00" />
  <line x1="1964" y1="50.0" x2="2004" y2="50.0" style="stroke:#999; stroke-width:3;" />
  <rect class="anc_exon" x="2004" y="35.0" width="208" height="30" style="fill:#87bcbc;fill-opacity:1.00" />
  <line x1="2212" y1="50.0" x2="2232" y2="50.0" style="stroke:#999; stroke-width:3;" />
  <line x1="2232" y1="50.0" x2="2232" y2="50.0" style="stroke:#999; stroke-width:3;" />
  <line x1="2232" y1="50.0" x2="2232" y2="50.0" style="stroke:#999; stroke-width:3;" />
  <line x1="2232" y1="50.0" x2="2252" y2="50.0" style="stroke:#999; stroke-width:3;" />
  <rect class="anc_exon" x="2252" y="35.0" width="72" height="30" style="fill:#87bcbc;fill-opacity:1.00" />
  <line x1="2324" y1="50.0" x2="2344" y2="50.0" style="stroke:#999; stroke-width:3;" />
  <line x1="2344" y1="50.0" x2="2344" y2="50.0" style="stroke:#999; stroke-width:3;" />
  <line x1="2344" y1="50.0" x2="2344" y2="50.0" style="stroke:#999; stroke-width:3;" />
  <line x1="2344" y1="50.0" x2="2364" y2="50.0" style="stroke:#999; stroke-width:3;" />
  <rect class="anc_exon" x="2364" y="35.0" width="168" height="30" style="fill:#87bcbc;fill-opacity:1.00" />
  <line x1="2532" y1="50.0" x2="2552" y2="50.0" style="stroke:#999; stroke-width:3;" />
  <line x1="2552" y1="50.0" x2="2552" y2="50.0" style="stroke:#999; stroke-width:3;" />
  <line x1="2552" y1="50.0" x2="2552" y2="50.0" style="stroke:#999; stroke-width:3;" />
  <line x1="2552" y1="50.0" x2="2572" y2="50.0" style="stroke:#999; stroke-width:3;" />
  <rect class="anc_exon" x="2572" y="35.0" width="128" height="30" style="fill:#87bcbc;fill-opacity:1.00" />
  <line x1="2700" y1="50.0" x2="2720" y2="50.0" style="stroke:#999; stroke-width:3;" />
  <line x1="2720" y1="50.0" x2="2720" y2="50.0" style="stroke:#999; stroke-width:3;" />
  <line x1="2720" y1="50.0" x2="2720" y2="50.0" style="stroke:#999; stroke-width:3;" />
  <line x1="2720" y1="50.0" x2="2740" y2="50.0" style="stroke:#999; stroke-width:3;" />
  <rect class="anc_exon" x="2740" y="35.0" width="9" height="30" style="fill:#87bcbc;fill-opacity:1.00" />
  <line x1="2749" y1="50.0" x2="2769" y2="50.0" style="stroke:#999; stroke-width:3;" />
  <line x1="2769" y1="50.0" x2="2769" y2="50.0" style="stroke:#999; stroke-width:3;" />
  <line x1="2769" y1="50.0" x2="2769" y2="50.0" style="stroke:#999; stroke-width:3;" />
  <line x1="2769" y1="50.0" x2="2789" y2="50.0" style="stroke:#999; stroke-width:3;" />
  <rect class="anc_exon" x="2789" y="35.0" width="90" height="30" style="fill:#87bcbc;fill-opacity:1.00" />
  <line x1="2879" y1="50.0" x2="2899" y2="50.0" style="stroke:#999; stroke-width:3;" />
  <line x1="2899" y1="50.0" x2="2899" y2="50.0" style="stroke:#999; stroke-width:3;" />
  <line x1="2899" y1="50.0" x2="2899" y2="50.0" style="stroke:#999; stroke-width:3;" />
  <line x1="2899" y1="50.0" x2="2919" y2="50.0" style="stroke:#999; stroke-width:3;" />
  <rect class="anc_exon" x="2919" y="35.0" width="78" height="30" style="fill:#87bcbc;fill-opacity:1.00" />
  <line x1="2997" y1="50.0" x2="3017" y2="50.0" style="stroke:#999; stroke-width:3;" />
  <line x1="3017" y1="50.0" x2="3017" y2="50.0" style="stroke:#999; stroke-width:3;" />
  <line x1="3017" y1="50.0" x2="3017" y2="50.0" style="stroke:#999; stroke-width:3;" />
  <line x1="3017" y1="50.0" x2="3037" y2="50.0" style="stroke:#999; stroke-width:3;" />
  <rect class="anc_exon" x="3037" y="35.0" width="99" height="30" style="fill:#87bcbc;fill-opacity:1.00" />
  <line x1="3136" y1="50.0" x2="3156" y2="50.0" style="stroke:#999; stroke-width:3;" />
  <line x1="3156" y1="50.0" x2="3156" y2="50.0" style="stroke:#999; stroke-width:3;" />
  <line x1="3156" y1="50.0" x2="3156" y2="50.0" style="stroke:#999; stroke-width:3;" />
  <line x1="3156" y1="50.0" x2="3176" y2="50.0" style="stroke:#999; stroke-width:3;" />
  <rect class="anc_exon" x="3176" y="35.0" width="140" height="30" style="fill:#87bcbc;fill-opacity:1.00" />
  <line x1="3316" y1="50.0" x2="3336" y2="50.0" style="stroke:#999; stroke-width:3;" />
  <line x1="3336" y1="50.0" x2="3336" y2="50.0" style="stroke:#999; stroke-width:3;" />
  <line x1="3336" y1="50.0" x2="3336" y2="50.0" style="stroke:#999; stroke-width:3;" />
  <line x1="3336" y1="50.0" x2="3356" y2="50.0" style="stroke:#999; stroke-width:3;" />
  <rect class="anc_exon" x="3356" y="35.0" width="96" height="30" style="fill:#87bcbc;fill-opacity:1.00" />
  <line x1="3452" y1="50.0" x2="3492" y2="50.0" style="stroke:#999; stroke-width:3;" />
  <rect class="anc_exon" x="3492" y="35.0" width="124" height="30" style="fill:#87bcbc;fill-opacity:1.00" />
  <line x1="3616" y1="50.0" x2="3636" y2="50.0" style="stroke:#999; stroke-width:3;" />
  <line x1="3636" y1="50.0" x2="3636" y2="50.0" style="stroke:#999; stroke-width:3;" />
  <line x1="3636" y1="50.0" x2="3636" y2="50.0" style="stroke:#999; stroke-width:3;" />
  <line x1="3636" y1="50.0" x2="3656" y2="50.0" style="stroke:#999; stroke-width:3;" />
  <rect class="anc_exon" x="3656" y="35.0" width="228" height="30" style="fill:#87bcbc;fill-opacity:1.00" />
  <line x1="3884" y1="50.0" x2="3924" y2="50.0" style="stroke:#999; stroke-width:3;" />
  <rect class="anc_exon" x="3924" y="35.0" width="143" height="30" style="fill:#87bcbc;fill-opacity:1.00" />
  <line x1="4067" y1="50.0" x2="4107" y2="50.0" style="stroke:#999; stroke-width:3;" />
  <rect class="anc_exon" x="4107" y="35.0" width="101" height="30" style="fill:#87bcbc;fill-opacity:1.00" />
  <line x1="4208" y1="50.0" x2="4248" y2="50.0" style="stroke:#999; stroke-width:3;" />
  <rect class="anc_exon" x="4248" y="35.0" width="100" height="30" style="fill:#87bcbc;fill-opacity:1.00" />
  <line x1="4348" y1="50.0" x2="4368" y2="50.0" style="stroke:#999; stroke-width:3;" />
  <line x1="4368" y1="50.0" x2="4368" y2="50.0" style="stroke:#999; stroke-width:3;" />
  <line x1="4368" y1="50.0" x2="4368" y2="50.0" style="stroke:#999; stroke-width:3;" />
  <line x1="4368" y1="50.0" x2="4388" y2="50.0" style="stroke:#999; stroke-width:3;" />
  <rect class="anc_exon" x="4388" y="35.0" width="124" height="30" style="fill:#87bcbc;fill-opacity:1.00" />
  <line x1="4512" y1="50.0" x2="4532" y2="50.0" style="stroke:#999; stroke-width:3;" />
  <line x1="4532" y1="50.0" x2="4532" y2="50.0" style="stroke:#999; stroke-width:3;" />
  <line x1="4532" y1="50.0" x2="4532" y2="50.0" style="stroke:#999; stroke-width:3;" />
  <line x1="4532" y1="50.0" x2="4552" y2="50.0" style="stroke:#999; stroke-width:3;" />
  <rect class="anc_exon" x="4552" y="35.0" width="108" height="30" style="fill:#87bcbc;fill-opacity:1.00" />
  <line x1="4660" y1="50.0" x2="4680" y2="50.0" style="stroke:#999; stroke-width:3;" />
  <line x1="4680" y1="50.0" x2="4680" y2="50.0" style="stroke:#999; stroke-width:3;" />
  <line x1="4680" y1="50.0" x2="4680" y2="50.0" style="stroke:#999; stroke-width:3;" />
  <line x1="4680" y1="50.0" x2="4700" y2="50.0" style="stroke:#999; stroke-width:3;" />
  <rect class="anc_exon" x="4700" y="35.0" width="55" height="30" style="fill:#87bcbc;fill-opacity:1.00" />
  <rect class="anc_exon" x="4755" y="35.0" width="0" height="30" style="fill:#87bcbc;fill-opacity:1.00" />
  <text style="" >
<tspan x="0" y="83.0" style="font-size:18px;" >SP XM_031948119_1.1</tspan>  </text>



<script type="text/ecmascript">
<![CDATA[
function draw_bbox(text_id)
{
    var text_elem = document.getElementById(text_id);
    var offset_px = 2;
    var offset_py = 0;
    bbox = text_elem.getBBox();
    var box = document.createElementNS(document.rootElement.namespaceURI,'rect');
    box.setAttribute('x', bbox.x - offset_px);
    box.setAttribute('y', bbox.y - offset_py);
    box.setAttribute('width', bbox.width + offset_px * 2);
    box.setAttribute('height', bbox.height + offset_py * 2);
    box.setAttribute('style','fill: white;'+'stroke: black;'+'stroke-width: 1px;');
    text_elem.insertBefore(box,text_elem.childNodes[0]);

    var svg = text_elem.parentNode;
    svg.appendChild(text_elem);
}

for (var i=1; i < 1; i++)
{
draw_bbox("Mouseover" + i);
}
]]> 
</script>
</svg>
