<svg version="1.1"
xmlns="http://www.w3.org/2000/svg"
xmlns:xlink="http://www.w3.org/1999/xlink"
width="2277" height="100" viewBox = "0 0 2277 100"
onclick="mouseclick(evt)">

<script type="text/ecmascript">

<![CDATA[
    function mouseover(evt, target) { 
    var gv = document.getElementById("globalVariable");
    var previoustarget = gv.firstChild.nodeValue;
    if (previoustarget != "none") 
    {
        	document.getElementById(gv.firstChild.nodeValue).setAttributeNS(null, "visibility", "hidden");
    }
    document.getElementById(target).setAttributeNS(null, "visibility", "visible");
    gv.firstChild.nodeValue = target;
        }

    function mouseclick(evt) { 
    var gv = document.getElementById("globalVariable");
    var previoustarget = gv.firstChild.nodeValue;
    if (previoustarget != "none") {
        	document.getElementById(gv.firstChild.nodeValue).setAttributeNS(null, "visibility", "hidden");
        }
    }
]]>
  </script>
<style type="text/css" >

<![CDATA[
    rect.anc_exon {
              stroke-width:3;
                  }

    rect.non_anc_exon {
              stroke: black; stroke-width:3; stroke-dasharray: 5,5;
                    }

    text {
              font-size: 18px;
              font-family: Courier New;
          }
                    ]]>
</style>

<defs>
    <text x="150" y="40" id="globalVariable">none</text>
</defs>

  <rect class="anc_exon" x="0" y="35.0" width="0" height="30" style="fill:#87bcbc;fill-opacity:1.00" />
  <rect class="anc_exon" x="0" y="35.0" width="216.0" height="30" style="fill:#87bcbc;fill-opacity:1.00" />
  <line x1="216.0" y1="50.0" x2="236.0" y2="50.0" style="stroke:#999; stroke-width:3;" />
  <line x1="236.0" y1="50.0" x2="236.0" y2="50.0" style="stroke:#999; stroke-width:3;" />
  <line x1="236.0" y1="50.0" x2="236.0" y2="50.0" style="stroke:#999; stroke-width:3;" />
  <line x1="236.0" y1="50.0" x2="256.0" y2="50.0" style="stroke:#999; stroke-width:3;" />
  <rect class="anc_exon" x="256" y="35.0" width="31" height="30" style="fill:#87bcbc;fill-opacity:1.00" />
  <line x1="287" y1="50.0" x2="327" y2="50.0" style="stroke:#999; stroke-width:3;" />
  <rect class="anc_exon" x="327" y="35.0" width="34" height="30" style="fill:#87bcbc;fill-opacity:1.00" />
  <line x1="361" y1="50.0" x2="381" y2="50.0" style="stroke:#999; stroke-width:3;" />
  <line x1="381" y1="50.0" x2="381" y2="50.0" style="stroke:#999; stroke-width:3;" />
  <line x1="381" y1="50.0" x2="381" y2="50.0" style="stroke:#999; stroke-width:3;" />
  <line x1="381" y1="50.0" x2="401" y2="50.0" style="stroke:#999; stroke-width:3;" />
  <rect class="anc_exon" x="401" y="35.0" width="90" height="30" style="fill:#87bcbc;fill-opacity:1.00" />
  <line x1="491" y1="50.0" x2="531" y2="50.0" style="stroke:#999; stroke-width:3;" />
  <rect class="anc_exon" x="531" y="35.0" width="64" height="30" style="fill:#87bcbc;fill-opacity:1.00" />
  <line x1="595" y1="50.0" x2="635" y2="50.0" style="stroke:#999; stroke-width:3;" />
  <rect class="anc_exon" x="635" y="35.0" width="84" height="30" style="fill:#87bcbc;fill-opacity:1.00" />
  <line x1="719" y1="50.0" x2="759" y2="50.0" style="stroke:#999; stroke-width:3;" />
  <rect class="anc_exon" x="759" y="35.0" width="64" height="30" style="fill:#87bcbc;fill-opacity:1.00" />
  <line x1="823" y1="50.0" x2="843" y2="50.0" style="stroke:#999; stroke-width:3;" />
  <line x1="843" y1="50.0" x2="843" y2="50.0" style="stroke:#999; stroke-width:3;" />
  <line x1="843" y1="50.0" x2="843" y2="50.0" style="stroke:#999; stroke-width:3;" />
  <line x1="843" y1="50.0" x2="863" y2="50.0" style="stroke:#999; stroke-width:3;" />
  <rect class="anc_exon" x="863" y="35.0" width="50" height="30" style="fill:#87bcbc;fill-opacity:1.00" />
  <line x1="913" y1="50.0" x2="953" y2="50.0" style="stroke:#999; stroke-width:3;" />
  <rect class="anc_exon" x="953" y="35.0" width="44" height="30" style="fill:#87bcbc;fill-opacity:1.00" />
  <line x1="997" y1="50.0" x2="1017" y2="50.0" style="stroke:#999; stroke-width:3;" />
  <line x1="1017" y1="50.0" x2="1017" y2="50.0" style="stroke:#999; stroke-width:3;" />
  <line x1="1017" y1="50.0" x2="1017" y2="50.0" style="stroke:#999; stroke-width:3;" />
  <line x1="1017" y1="50.0" x2="1037" y2="50.0" style="stroke:#999; stroke-width:3;" />
  <rect class="anc_exon" x="1037" y="35.0" width="98" height="30" style="fill:#87bcbc;fill-opacity:1.00" />
  <line x1="1135" y1="50.0" x2="1175" y2="50.0" style="stroke:#999; stroke-width:3;" />
  <rect class="anc_exon" x="1175" y="35.0" width="76" height="30" style="fill:#87bcbc;fill-opacity:1.00" />
  <line x1="1251" y1="50.0" x2="1271" y2="50.0" style="stroke:#999; stroke-width:3;" />
  <line x1="1271" y1="50.0" x2="1271" y2="50.0" style="stroke:#999; stroke-width:3;" />
  <line x1="1271" y1="50.0" x2="1271" y2="50.0" style="stroke:#999; stroke-width:3;" />
  <line x1="1271" y1="50.0" x2="1291" y2="50.0" style="stroke:#999; stroke-width:3;" />
  <rect class="anc_exon" x="1291" y="35.0" width="76" height="30" style="fill:#87bcbc;fill-opacity:1.00" />
  <line x1="1367" y1="50.0" x2="1387" y2="50.0" style="stroke:#999; stroke-width:3;" />
  <line x1="1387" y1="50.0" x2="1387" y2="50.0" style="stroke:#999; stroke-width:3;" />
  <line x1="1387" y1="50.0" x2="1387" y2="50.0" style="stroke:#999; stroke-width:3;" />
  <line x1="1387" y1="50.0" x2="1407" y2="50.0" style="stroke:#999; stroke-width:3;" />
  <rect class="anc_exon" x="1407" y="35.0" width="52" height="30" style="fill:#87bcbc;fill-opacity:1.00" />
  <line x1="1459" y1="50.0" x2="1499" y2="50.0" style="stroke:#999; stroke-width:3;" />
  <rect class="anc_exon" x="1499" y="35.0" width="52" height="30" style="fill:#87bcbc;fill-opacity:1.00" />
  <line x1="1551" y1="50.0" x2="1571" y2="50.0" style="stroke:#999; stroke-width:3;" />
  <line x1="1571" y1="50.0" x2="1571" y2="50.0" style="stroke:#999; stroke-width:3;" />
  <line x1="1571" y1="50.0" x2="1571" y2="50.0" style="stroke:#999; stroke-width:3;" />
  <line x1="1571" y1="50.0" x2="1591" y2="50.0" style="stroke:#999; stroke-width:3;" />
  <rect class="anc_exon" x="1591" y="35.0" width="72" height="30" style="fill:#87bcbc;fill-opacity:1.00" />
  <line x1="1663" y1="50.0" x2="1683" y2="50.0" style="stroke:#999; stroke-width:3;" />
  <line x1="1683" y1="50.0" x2="1683" y2="50.0" style="stroke:#999; stroke-width:3;" />
  <line x1="1683" y1="50.0" x2="1683" y2="50.0" style="stroke:#999; stroke-width:3;" />
  <line x1="1683" y1="50.0" x2="1703" y2="50.0" style="stroke:#999; stroke-width:3;" />
  <rect class="anc_exon" x="1703" y="35.0" width="43" height="30" style="fill:#87bcbc;fill-opacity:1.00" />
  <line x1="1746" y1="50.0" x2="1786" y2="50.0" style="stroke:#999; stroke-width:3;" />
  <rect class="anc_exon" x="1786" y="35.0" width="88" height="30" style="fill:#87bcbc;fill-opacity:1.00" />
  <line x1="1874" y1="50.0" x2="1914" y2="50.0" style="stroke:#999; stroke-width:3;" />
  <rect class="anc_exon" x="1914" y="35.0" width="82" height="30" style="fill:#87bcbc;fill-opacity:1.00" />
  <line x1="1996" y1="50.0" x2="2036" y2="50.0" style="stroke:#999; stroke-width:3;" />
  <rect class="anc_exon" x="2036" y="35.0" width="60" height="30" style="fill:#87bcbc;fill-opacity:1.00" />
  <line x1="2096" y1="50.0" x2="2136" y2="50.0" style="stroke:#999; stroke-width:3;" />
  <rect class="anc_exon" x="2136" y="35.0" width="105" height="30" style="fill:#87bcbc;fill-opacity:1.00" />
  <rect class="anc_exon" x="2241" y="35.0" width="0" height="30" style="fill:#87bcbc;fill-opacity:1.00" />
  <text style="" >
<tspan x="0" y="83.0" style="font-size:18px;" >SP XM_031953136_1.1</tspan>  </text>



<script type="text/ecmascript">
<![CDATA[
function draw_bbox(text_id)
{
    var text_elem = document.getElementById(text_id);
    var offset_px = 2;
    var offset_py = 0;
    bbox = text_elem.getBBox();
    var box = document.createElementNS(document.rootElement.namespaceURI,'rect');
    box.setAttribute('x', bbox.x - offset_px);
    box.setAttribute('y', bbox.y - offset_py);
    box.setAttribute('width', bbox.width + offset_px * 2);
    box.setAttribute('height', bbox.height + offset_py * 2);
    box.setAttribute('style','fill: white;'+'stroke: black;'+'stroke-width: 1px;');
    text_elem.insertBefore(box,text_elem.childNodes[0]);

    var svg = text_elem.parentNode;
    svg.appendChild(text_elem);
}

for (var i=1; i < 1; i++)
{
draw_bbox("Mouseover" + i);
}
]]> 
</script>
</svg>
