<svg version="1.1"
xmlns="http://www.w3.org/2000/svg"
xmlns:xlink="http://www.w3.org/1999/xlink"
width="2294" height="100" viewBox = "0 0 2294 100"
onclick="mouseclick(evt)">

<script type="text/ecmascript">

<![CDATA[
    function mouseover(evt, target) { 
    var gv = document.getElementById("globalVariable");
    var previoustarget = gv.firstChild.nodeValue;
    if (previoustarget != "none") 
    {
        	document.getElementById(gv.firstChild.nodeValue).setAttributeNS(null, "visibility", "hidden");
    }
    document.getElementById(target).setAttributeNS(null, "visibility", "visible");
    gv.firstChild.nodeValue = target;
        }

    function mouseclick(evt) { 
    var gv = document.getElementById("globalVariable");
    var previoustarget = gv.firstChild.nodeValue;
    if (previoustarget != "none") {
        	document.getElementById(gv.firstChild.nodeValue).setAttributeNS(null, "visibility", "hidden");
        }
    }
]]>
  </script>
<style type="text/css" >

<![CDATA[
    rect.anc_exon {
              stroke-width:3;
                  }

    rect.non_anc_exon {
              stroke: black; stroke-width:3; stroke-dasharray: 5,5;
                    }

    text {
              font-size: 18px;
              font-family: Courier New;
          }
                    ]]>
</style>

<defs>
    <text x="150" y="40" id="globalVariable">none</text>
</defs>

  <rect class="anc_exon" x="0" y="35.0" width="0" height="30" style="fill:#87bcbc;fill-opacity:1.00" />
  <rect class="anc_exon" x="0" y="35.0" width="41.6" height="30" style="fill:#87bcbc;fill-opacity:1.00" />
  <line x1="41.6" y1="50.0" x2="60.6" y2="50.0" style="stroke:#999; stroke-width:3;" />
  <line x1="60.6" y1="50.0" x2="60.6" y2="50.0" style="stroke:#999; stroke-width:3;" />
  <line x1="60.6" y1="50.0" x2="60.6" y2="50.0" style="stroke:#999; stroke-width:3;" />
  <line x1="60.6" y1="50.0" x2="81.0" y2="50.0" style="stroke:#999; stroke-width:3;" />
  <rect class="anc_exon" x="81" y="35.0" width="76" height="30" style="fill:#87bcbc;fill-opacity:1.00" />
  <line x1="157" y1="50.0" x2="177" y2="50.0" style="stroke:#999; stroke-width:3;" />
  <line x1="177" y1="50.0" x2="177" y2="50.0" style="stroke:#999; stroke-width:3;" />
  <line x1="177" y1="50.0" x2="177" y2="50.0" style="stroke:#999; stroke-width:3;" />
  <line x1="177" y1="50.0" x2="197" y2="50.0" style="stroke:#999; stroke-width:3;" />
  <rect class="anc_exon" x="197" y="35.0" width="93" height="30" style="fill:#87bcbc;fill-opacity:1.00" />
  <line x1="290" y1="50.0" x2="310" y2="50.0" style="stroke:#999; stroke-width:3;" />
  <line x1="310" y1="50.0" x2="310" y2="50.0" style="stroke:#999; stroke-width:3;" />
  <line x1="310" y1="50.0" x2="310" y2="50.0" style="stroke:#999; stroke-width:3;" />
  <line x1="310" y1="50.0" x2="330" y2="50.0" style="stroke:#999; stroke-width:3;" />
  <rect class="anc_exon" x="330" y="35.0" width="74" height="30" style="fill:#87bcbc;fill-opacity:1.00" />
  <line x1="404" y1="50.0" x2="444" y2="50.0" style="stroke:#999; stroke-width:3;" />
  <rect class="anc_exon" x="444" y="35.0" width="27" height="30" style="fill:#87bcbc;fill-opacity:1.00" />
  <line x1="471" y1="50.0" x2="511" y2="50.0" style="stroke:#999; stroke-width:3;" />
  <rect class="anc_exon" x="511" y="35.0" width="147" height="30" style="fill:#87bcbc;fill-opacity:1.00" />
  <line x1="658" y1="50.0" x2="698" y2="50.0" style="stroke:#999; stroke-width:3;" />
  <rect class="anc_exon" x="698" y="35.0" width="108" height="30" style="fill:#87bcbc;fill-opacity:1.00" />
  <line x1="806" y1="50.0" x2="846" y2="50.0" style="stroke:#999; stroke-width:3;" />
  <rect class="anc_exon" x="846" y="35.0" width="174" height="30" style="fill:#87bcbc;fill-opacity:1.00" />
  <line x1="1020" y1="50.0" x2="1060" y2="50.0" style="stroke:#999; stroke-width:3;" />
  <rect class="anc_exon" x="1060" y="35.0" width="59" height="30" style="fill:#87bcbc;fill-opacity:1.00" />
  <line x1="1119" y1="50.0" x2="1159" y2="50.0" style="stroke:#999; stroke-width:3;" />
  <rect class="anc_exon" x="1159" y="35.0" width="39" height="30" style="fill:#87bcbc;fill-opacity:1.00" />
  <line x1="1198" y1="50.0" x2="1238" y2="50.0" style="stroke:#999; stroke-width:3;" />
  <rect class="anc_exon" x="1238" y="35.0" width="102" height="30" style="fill:#87bcbc;fill-opacity:1.00" />
  <line x1="1340" y1="50.0" x2="1380" y2="50.0" style="stroke:#999; stroke-width:3;" />
  <rect class="anc_exon" x="1380" y="35.0" width="66" height="30" style="fill:#87bcbc;fill-opacity:1.00" />
  <line x1="1446" y1="50.0" x2="1486" y2="50.0" style="stroke:#999; stroke-width:3;" />
  <rect class="anc_exon" x="1486" y="35.0" width="32" height="30" style="fill:#87bcbc;fill-opacity:1.00" />
  <line x1="1518" y1="50.0" x2="1558" y2="50.0" style="stroke:#999; stroke-width:3;" />
  <rect class="anc_exon" x="1558" y="35.0" width="93" height="30" style="fill:#87bcbc;fill-opacity:1.00" />
  <line x1="1651" y1="50.0" x2="1671" y2="50.0" style="stroke:#999; stroke-width:3;" />
  <line x1="1671" y1="50.0" x2="1671" y2="50.0" style="stroke:#999; stroke-width:3;" />
  <line x1="1671" y1="50.0" x2="1671" y2="50.0" style="stroke:#999; stroke-width:3;" />
  <line x1="1671" y1="50.0" x2="1691" y2="50.0" style="stroke:#999; stroke-width:3;" />
  <rect class="anc_exon" x="1691" y="35.0" width="98" height="30" style="fill:#87bcbc;fill-opacity:1.00" />
  <line x1="1789" y1="50.0" x2="1829" y2="50.0" style="stroke:#999; stroke-width:3;" />
  <rect class="anc_exon" x="1829" y="35.0" width="96" height="30" style="fill:#87bcbc;fill-opacity:1.00" />
  <line x1="1925" y1="50.0" x2="1965" y2="50.0" style="stroke:#999; stroke-width:3;" />
  <rect class="anc_exon" x="1965" y="35.0" width="105" height="30" style="fill:#87bcbc;fill-opacity:1.00" />
  <line x1="2070" y1="50.0" x2="2110" y2="50.0" style="stroke:#999; stroke-width:3;" />
  <rect class="anc_exon" x="2110" y="35.0" width="96" height="30" style="fill:#87bcbc;fill-opacity:1.00" />
  <line x1="2206" y1="50.0" x2="2246" y2="50.0" style="stroke:#999; stroke-width:3;" />
  <rect class="anc_exon" x="2246" y="35.0" width="12" height="30" style="fill:#87bcbc;fill-opacity:1.00" />
  <rect class="anc_exon" x="2258" y="35.0" width="0" height="30" style="fill:#87bcbc;fill-opacity:1.00" />
  <text style="" >
<tspan x="0" y="83.0" style="font-size:18px;" >SP XM_031945854_1.1</tspan>  </text>



<script type="text/ecmascript">
<![CDATA[
function draw_bbox(text_id)
{
    var text_elem = document.getElementById(text_id);
    var offset_px = 2;
    var offset_py = 0;
    bbox = text_elem.getBBox();
    var box = document.createElementNS(document.rootElement.namespaceURI,'rect');
    box.setAttribute('x', bbox.x - offset_px);
    box.setAttribute('y', bbox.y - offset_py);
    box.setAttribute('width', bbox.width + offset_px * 2);
    box.setAttribute('height', bbox.height + offset_py * 2);
    box.setAttribute('style','fill: white;'+'stroke: black;'+'stroke-width: 1px;');
    text_elem.insertBefore(box,text_elem.childNodes[0]);

    var svg = text_elem.parentNode;
    svg.appendChild(text_elem);
}

for (var i=1; i < 1; i++)
{
draw_bbox("Mouseover" + i);
}
]]> 
</script>
</svg>
