<svg version="1.1"
xmlns="http://www.w3.org/2000/svg"
xmlns:xlink="http://www.w3.org/1999/xlink"
width="3918" height="100" viewBox = "0 0 3918 100"
onclick="mouseclick(evt)">

<script type="text/ecmascript">

<![CDATA[
    function mouseover(evt, target) { 
    var gv = document.getElementById("globalVariable");
    var previoustarget = gv.firstChild.nodeValue;
    if (previoustarget != "none") 
    {
        	document.getElementById(gv.firstChild.nodeValue).setAttributeNS(null, "visibility", "hidden");
    }
    document.getElementById(target).setAttributeNS(null, "visibility", "visible");
    gv.firstChild.nodeValue = target;
        }

    function mouseclick(evt) { 
    var gv = document.getElementById("globalVariable");
    var previoustarget = gv.firstChild.nodeValue;
    if (previoustarget != "none") {
        	document.getElementById(gv.firstChild.nodeValue).setAttributeNS(null, "visibility", "hidden");
        }
    }
]]>
  </script>
<style type="text/css" >

<![CDATA[
    rect.anc_exon {
              stroke-width:3;
                  }

    rect.non_anc_exon {
              stroke: black; stroke-width:3; stroke-dasharray: 5,5;
                    }

    text {
              font-size: 18px;
              font-family: Courier New;
          }
                    ]]>
</style>

<defs>
    <text x="150" y="40" id="globalVariable">none</text>
</defs>

  <rect class="anc_exon" x="0" y="35.0" width="0" height="30" style="fill:#87bcbc;fill-opacity:1.00" />
  <rect class="anc_exon" x="0" y="35.0" width="136.0" height="30" style="fill:#87bcbc;fill-opacity:1.00" />
  <line x1="136.0" y1="50.0" x2="156.0" y2="50.0" style="stroke:#999; stroke-width:3;" />
  <line x1="156.0" y1="50.0" x2="156.0" y2="50.0" style="stroke:#999; stroke-width:3;" />
  <line x1="156.0" y1="50.0" x2="156.0" y2="50.0" style="stroke:#999; stroke-width:3;" />
  <line x1="156.0" y1="50.0" x2="176.0" y2="50.0" style="stroke:#999; stroke-width:3;" />
  <rect class="anc_exon" x="176" y="35.0" width="168" height="30" style="fill:#87bcbc;fill-opacity:1.00" />
  <line x1="344" y1="50.0" x2="364" y2="50.0" style="stroke:#999; stroke-width:3;" />
  <line x1="364" y1="50.0" x2="364" y2="50.0" style="stroke:#999; stroke-width:3;" />
  <line x1="364" y1="50.0" x2="364" y2="50.0" style="stroke:#999; stroke-width:3;" />
  <line x1="364" y1="50.0" x2="384" y2="50.0" style="stroke:#999; stroke-width:3;" />
  <rect class="anc_exon" x="384" y="35.0" width="248" height="30" style="fill:#87bcbc;fill-opacity:1.00" />
  <line x1="632" y1="50.0" x2="652" y2="50.0" style="stroke:#999; stroke-width:3;" />
  <line x1="652" y1="50.0" x2="652" y2="50.0" style="stroke:#999; stroke-width:3;" />
  <line x1="652" y1="50.0" x2="652" y2="50.0" style="stroke:#999; stroke-width:3;" />
  <line x1="652" y1="50.0" x2="672" y2="50.0" style="stroke:#999; stroke-width:3;" />
  <rect class="anc_exon" x="672" y="35.0" width="738" height="30" style="fill:#87bcbc;fill-opacity:1.00" />
  <line x1="1410" y1="50.0" x2="1430" y2="50.0" style="stroke:#999; stroke-width:3;" />
  <line x1="1430" y1="50.0" x2="1430" y2="50.0" style="stroke:#999; stroke-width:3;" />
  <line x1="1430" y1="50.0" x2="1430" y2="50.0" style="stroke:#999; stroke-width:3;" />
  <line x1="1430" y1="50.0" x2="1450" y2="50.0" style="stroke:#999; stroke-width:3;" />
  <rect class="anc_exon" x="1450" y="35.0" width="54" height="30" style="fill:#87bcbc;fill-opacity:1.00" />
  <line x1="1504" y1="50.0" x2="1544" y2="50.0" style="stroke:#999; stroke-width:3;" />
  <rect class="anc_exon" x="1544" y="35.0" width="96" height="30" style="fill:#87bcbc;fill-opacity:1.00" />
  <line x1="1640" y1="50.0" x2="1660" y2="50.0" style="stroke:#999; stroke-width:3;" />
  <line x1="1660" y1="50.0" x2="1660" y2="50.0" style="stroke:#999; stroke-width:3;" />
  <line x1="1660" y1="50.0" x2="1660" y2="50.0" style="stroke:#999; stroke-width:3;" />
  <line x1="1660" y1="50.0" x2="1680" y2="50.0" style="stroke:#999; stroke-width:3;" />
  <rect class="anc_exon" x="1680" y="35.0" width="80" height="30" style="fill:#87bcbc;fill-opacity:1.00" />
  <line x1="1760" y1="50.0" x2="1800" y2="50.0" style="stroke:#999; stroke-width:3;" />
  <rect class="anc_exon" x="1800" y="35.0" width="99" height="30" style="fill:#87bcbc;fill-opacity:1.00" />
  <line x1="1899" y1="50.0" x2="1939" y2="50.0" style="stroke:#999; stroke-width:3;" />
  <rect class="anc_exon" x="1939" y="35.0" width="37" height="30" style="fill:#87bcbc;fill-opacity:1.00" />
  <line x1="1976" y1="50.0" x2="2016" y2="50.0" style="stroke:#999; stroke-width:3;" />
  <rect class="anc_exon" x="2016" y="35.0" width="90" height="30" style="fill:#87bcbc;fill-opacity:1.00" />
  <line x1="2106" y1="50.0" x2="2126" y2="50.0" style="stroke:#999; stroke-width:3;" />
  <line x1="2126" y1="50.0" x2="2126" y2="50.0" style="stroke:#999; stroke-width:3;" />
  <line x1="2126" y1="50.0" x2="2126" y2="50.0" style="stroke:#999; stroke-width:3;" />
  <line x1="2126" y1="50.0" x2="2146" y2="50.0" style="stroke:#999; stroke-width:3;" />
  <rect class="anc_exon" x="2146" y="35.0" width="104" height="30" style="fill:#87bcbc;fill-opacity:1.00" />
  <line x1="2250" y1="50.0" x2="2270" y2="50.0" style="stroke:#999; stroke-width:3;" />
  <line x1="2270" y1="50.0" x2="2270" y2="50.0" style="stroke:#999; stroke-width:3;" />
  <line x1="2270" y1="50.0" x2="2270" y2="50.0" style="stroke:#999; stroke-width:3;" />
  <line x1="2270" y1="50.0" x2="2290" y2="50.0" style="stroke:#999; stroke-width:3;" />
  <rect class="anc_exon" x="2290" y="35.0" width="137" height="30" style="fill:#87bcbc;fill-opacity:1.00" />
  <line x1="2427" y1="50.0" x2="2447" y2="50.0" style="stroke:#999; stroke-width:3;" />
  <line x1="2447" y1="50.0" x2="2447" y2="50.0" style="stroke:#999; stroke-width:3;" />
  <line x1="2447" y1="50.0" x2="2447" y2="50.0" style="stroke:#999; stroke-width:3;" />
  <line x1="2447" y1="50.0" x2="2467" y2="50.0" style="stroke:#999; stroke-width:3;" />
  <rect class="anc_exon" x="2467" y="35.0" width="123" height="30" style="fill:#87bcbc;fill-opacity:1.00" />
  <line x1="2590" y1="50.0" x2="2610" y2="50.0" style="stroke:#999; stroke-width:3;" />
  <line x1="2610" y1="50.0" x2="2610" y2="50.0" style="stroke:#999; stroke-width:3;" />
  <line x1="2610" y1="50.0" x2="2610" y2="50.0" style="stroke:#999; stroke-width:3;" />
  <line x1="2610" y1="50.0" x2="2630" y2="50.0" style="stroke:#999; stroke-width:3;" />
  <rect class="anc_exon" x="2630" y="35.0" width="55" height="30" style="fill:#87bcbc;fill-opacity:1.00" />
  <line x1="2685" y1="50.0" x2="2705" y2="50.0" style="stroke:#999; stroke-width:3;" />
  <line x1="2705" y1="50.0" x2="2705" y2="50.0" style="stroke:#999; stroke-width:3;" />
  <line x1="2705" y1="50.0" x2="2705" y2="50.0" style="stroke:#999; stroke-width:3;" />
  <line x1="2705" y1="50.0" x2="2725" y2="50.0" style="stroke:#999; stroke-width:3;" />
  <rect class="anc_exon" x="2725" y="35.0" width="125" height="30" style="fill:#87bcbc;fill-opacity:1.00" />
  <line x1="2850" y1="50.0" x2="2870" y2="50.0" style="stroke:#999; stroke-width:3;" />
  <line x1="2870" y1="50.0" x2="2870" y2="50.0" style="stroke:#999; stroke-width:3;" />
  <line x1="2870" y1="50.0" x2="2870" y2="50.0" style="stroke:#999; stroke-width:3;" />
  <line x1="2870" y1="50.0" x2="2890" y2="50.0" style="stroke:#999; stroke-width:3;" />
  <rect class="anc_exon" x="2890" y="35.0" width="93" height="30" style="fill:#87bcbc;fill-opacity:1.00" />
  <line x1="2983" y1="50.0" x2="3003" y2="50.0" style="stroke:#999; stroke-width:3;" />
  <line x1="3003" y1="50.0" x2="3003" y2="50.0" style="stroke:#999; stroke-width:3;" />
  <line x1="3003" y1="50.0" x2="3003" y2="50.0" style="stroke:#999; stroke-width:3;" />
  <line x1="3003" y1="50.0" x2="3023" y2="50.0" style="stroke:#999; stroke-width:3;" />
  <rect class="anc_exon" x="3023" y="35.0" width="88" height="30" style="fill:#87bcbc;fill-opacity:1.00" />
  <line x1="3111" y1="50.0" x2="3131" y2="50.0" style="stroke:#999; stroke-width:3;" />
  <line x1="3131" y1="50.0" x2="3131" y2="50.0" style="stroke:#999; stroke-width:3;" />
  <line x1="3131" y1="50.0" x2="3131" y2="50.0" style="stroke:#999; stroke-width:3;" />
  <line x1="3131" y1="50.0" x2="3151" y2="50.0" style="stroke:#999; stroke-width:3;" />
  <rect class="anc_exon" x="3151" y="35.0" width="113" height="30" style="fill:#87bcbc;fill-opacity:1.00" />
  <line x1="3264" y1="50.0" x2="3284" y2="50.0" style="stroke:#999; stroke-width:3;" />
  <line x1="3284" y1="50.0" x2="3284" y2="50.0" style="stroke:#999; stroke-width:3;" />
  <line x1="3284" y1="50.0" x2="3284" y2="50.0" style="stroke:#999; stroke-width:3;" />
  <line x1="3284" y1="50.0" x2="3304" y2="50.0" style="stroke:#999; stroke-width:3;" />
  <rect class="anc_exon" x="3304" y="35.0" width="90" height="30" style="fill:#87bcbc;fill-opacity:1.00" />
  <line x1="3394" y1="50.0" x2="3434" y2="50.0" style="stroke:#999; stroke-width:3;" />
  <rect class="anc_exon" x="3434" y="35.0" width="81" height="30" style="fill:#87bcbc;fill-opacity:1.00" />
  <line x1="3515" y1="50.0" x2="3535" y2="50.0" style="stroke:#999; stroke-width:3;" />
  <line x1="3535" y1="50.0" x2="3535" y2="50.0" style="stroke:#999; stroke-width:3;" />
  <line x1="3535" y1="50.0" x2="3535" y2="50.0" style="stroke:#999; stroke-width:3;" />
  <line x1="3535" y1="50.0" x2="3555" y2="50.0" style="stroke:#999; stroke-width:3;" />
  <rect class="anc_exon" x="3555" y="35.0" width="112" height="30" style="fill:#87bcbc;fill-opacity:1.00" />
  <line x1="3667" y1="50.0" x2="3707" y2="50.0" style="stroke:#999; stroke-width:3;" />
  <rect class="anc_exon" x="3707" y="35.0" width="175" height="30" style="fill:#87bcbc;fill-opacity:1.00" />
  <rect class="anc_exon" x="3882" y="35.0" width="0" height="30" style="fill:#87bcbc;fill-opacity:1.00" />
  <text style="" >
<tspan x="0" y="83.0" style="font-size:18px;" >SP XM_031947094_1.1</tspan>  </text>



<script type="text/ecmascript">
<![CDATA[
function draw_bbox(text_id)
{
    var text_elem = document.getElementById(text_id);
    var offset_px = 2;
    var offset_py = 0;
    bbox = text_elem.getBBox();
    var box = document.createElementNS(document.rootElement.namespaceURI,'rect');
    box.setAttribute('x', bbox.x - offset_px);
    box.setAttribute('y', bbox.y - offset_py);
    box.setAttribute('width', bbox.width + offset_px * 2);
    box.setAttribute('height', bbox.height + offset_py * 2);
    box.setAttribute('style','fill: white;'+'stroke: black;'+'stroke-width: 1px;');
    text_elem.insertBefore(box,text_elem.childNodes[0]);

    var svg = text_elem.parentNode;
    svg.appendChild(text_elem);
}

for (var i=1; i < 1; i++)
{
draw_bbox("Mouseover" + i);
}
]]> 
</script>
</svg>
