<svg version="1.1"
xmlns="http://www.w3.org/2000/svg"
xmlns:xlink="http://www.w3.org/1999/xlink"
width="1510" height="120.0" viewBox = "0 -20.0 1510 120.0"
onclick="mouseclick(evt)">

<script type="text/ecmascript">

<![CDATA[
    function mouseover(evt, target) { 
    var gv = document.getElementById("globalVariable");
    var previoustarget = gv.firstChild.nodeValue;
    if (previoustarget != "none") 
    {
        	document.getElementById(gv.firstChild.nodeValue).setAttributeNS(null, "visibility", "hidden");
    }
    document.getElementById(target).setAttributeNS(null, "visibility", "visible");
    gv.firstChild.nodeValue = target;
        }

    function mouseclick(evt) { 
    var gv = document.getElementById("globalVariable");
    var previoustarget = gv.firstChild.nodeValue;
    if (previoustarget != "none") {
        	document.getElementById(gv.firstChild.nodeValue).setAttributeNS(null, "visibility", "hidden");
        }
    }
]]>
  </script>
<style type="text/css" >

<![CDATA[
    rect.anc_exon {
              stroke-width:3;
                  }

    rect.non_anc_exon {
              stroke: black; stroke-width:3; stroke-dasharray: 5,5;
                    }

    text {
              font-size: 18px;
              font-family: Courier New;
          }
                    ]]>
</style>

<defs>
    <text x="150" y="40" id="globalVariable">none</text>
</defs>

  <rect class="anc_exon" x="0" y="35.0" width="0" height="30" style="fill:#87bcbc;fill-opacity:1.00" />
  <rect class="anc_exon" x="0" y="35.0" width="216.8" height="30" style="fill:#87bcbc;fill-opacity:1.00" />
  <polygon points="116.0,35.0 118.5,25.0 113.5,25.0" style="fill:#121212; stroke-opacity:1; fill-opacity:1"/>
  <line x1="150.0" y1="35.0" x2="150.0" y2="65.0" style="stroke:#121212; stroke-width:0.8; stroke-opacity:1"/>
  <line x1="205.60000000000002" y1="35.0" x2="205.60000000000002" y2="65.0" style="stroke:#121212; stroke-width:1.6; stroke-opacity:1"/>
  <text style="" text-anchor="middle">
<tspan x="116.0" y="16.0" style="font-size:18px;fill:#121212;" >+1</tspan>  </text>
  <text style="" text-anchor="middle">
<tspan x="149.6" y="26.0" style="font-size:18px;fill:#121212;" >-1</tspan>  </text>
  <text style="" text-anchor="middle">
<tspan x="204.8" y="26.0" style="font-size:18px;fill:#121212;" >-2</tspan>  </text>
  <line x1="216.8" y1="50.0" x2="256.0" y2="50.0" style="stroke:#999; stroke-width:3;" />
  <rect class="anc_exon" x="256" y="35.0" width="209" height="30" style="fill:#87bcbc;fill-opacity:1.00" />
  <line x1="465" y1="50.0" x2="485" y2="50.0" style="stroke:#999; stroke-width:3;" />
  <line x1="485" y1="50.0" x2="485" y2="50.0" style="stroke:#999; stroke-width:3;" />
  <line x1="485" y1="50.0" x2="485" y2="50.0" style="stroke:#999; stroke-width:3;" />
  <line x1="485" y1="50.0" x2="505" y2="50.0" style="stroke:#999; stroke-width:3;" />
  <rect class="anc_exon" x="505" y="35.0" width="132" height="30" style="fill:#878787;fill-opacity:1.00" />
  <line x1="637" y1="50.0" x2="657" y2="50.0" style="stroke:#999; stroke-width:3;" />
  <line x1="657" y1="50.0" x2="657" y2="50.0" style="stroke:#999; stroke-width:3;" />
  <line x1="657" y1="50.0" x2="657" y2="50.0" style="stroke:#999; stroke-width:3;" />
  <line x1="657" y1="50.0" x2="677" y2="50.0" style="stroke:#999; stroke-width:3;" />
  <rect class="anc_exon" x="677" y="35.0" width="87" height="30" style="fill:#87bcbc;fill-opacity:1.00" />
  <line x1="764" y1="50.0" x2="784" y2="50.0" style="stroke:#999; stroke-width:3;" />
  <line x1="784" y1="50.0" x2="784" y2="50.0" style="stroke:#999; stroke-width:3;" />
  <line x1="784" y1="50.0" x2="784" y2="50.0" style="stroke:#999; stroke-width:3;" />
  <line x1="784" y1="50.0" x2="804" y2="50.0" style="stroke:#999; stroke-width:3;" />
  <rect class="anc_exon" x="804" y="35.0" width="127" height="30" style="fill:#87bcbc;fill-opacity:1.00" />
  <line x1="931" y1="50.0" x2="951" y2="50.0" style="stroke:#999; stroke-width:3;" />
  <line x1="951" y1="50.0" x2="951" y2="50.0" style="stroke:#999; stroke-width:3;" />
  <line x1="951" y1="50.0" x2="951" y2="50.0" style="stroke:#999; stroke-width:3;" />
  <line x1="951" y1="50.0" x2="971" y2="50.0" style="stroke:#999; stroke-width:3;" />
  <rect class="anc_exon" x="971" y="35.0" width="61" height="30" style="fill:#87bcbc;fill-opacity:1.00" />
  <line x1="1032" y1="50.0" x2="1052" y2="50.0" style="stroke:#999; stroke-width:3;" />
  <line x1="1052" y1="50.0" x2="1052" y2="50.0" style="stroke:#999; stroke-width:3;" />
  <line x1="1052" y1="50.0" x2="1052" y2="50.0" style="stroke:#999; stroke-width:3;" />
  <line x1="1052" y1="50.0" x2="1072" y2="50.0" style="stroke:#999; stroke-width:3;" />
  <rect class="anc_exon" x="1072" y="35.0" width="90" height="30" style="fill:#87bcbc;fill-opacity:1.00" />
  <line x1="1162" y1="50.0" x2="1182" y2="50.0" style="stroke:#999; stroke-width:3;" />
  <line x1="1182" y1="50.0" x2="1182" y2="50.0" style="stroke:#999; stroke-width:3;" />
  <line x1="1182" y1="50.0" x2="1182" y2="50.0" style="stroke:#999; stroke-width:3;" />
  <line x1="1182" y1="50.0" x2="1202" y2="50.0" style="stroke:#999; stroke-width:3;" />
  <rect class="anc_exon" x="1202" y="35.0" width="272" height="30" style="fill:#87bcbc;fill-opacity:1.00" />
  <rect class="anc_exon" x="1474" y="35.0" width="0" height="30" style="fill:#87bcbc;fill-opacity:1.00" />
  <text style="" >
<tspan x="0" y="83.0" style="font-size:18px;" >SP XM_031953030_1.1</tspan>  </text>



<script type="text/ecmascript">
<![CDATA[
function draw_bbox(text_id)
{
    var text_elem = document.getElementById(text_id);
    var offset_px = 2;
    var offset_py = 0;
    bbox = text_elem.getBBox();
    var box = document.createElementNS(document.rootElement.namespaceURI,'rect');
    box.setAttribute('x', bbox.x - offset_px);
    box.setAttribute('y', bbox.y - offset_py);
    box.setAttribute('width', bbox.width + offset_px * 2);
    box.setAttribute('height', bbox.height + offset_py * 2);
    box.setAttribute('style','fill: white;'+'stroke: black;'+'stroke-width: 1px;');
    text_elem.insertBefore(box,text_elem.childNodes[0]);

    var svg = text_elem.parentNode;
    svg.appendChild(text_elem);
}

for (var i=1; i < 1; i++)
{
draw_bbox("Mouseover" + i);
}
]]> 
</script>
</svg>
