<svg version="1.1"
xmlns="http://www.w3.org/2000/svg"
xmlns:xlink="http://www.w3.org/1999/xlink"
width="5022" height="128.0" viewBox = "0 -28.0 5022 128.0"
onclick="mouseclick(evt)">

<script type="text/ecmascript">

<![CDATA[
    function mouseover(evt, target) { 
    var gv = document.getElementById("globalVariable");
    var previoustarget = gv.firstChild.nodeValue;
    if (previoustarget != "none") 
    {
        	document.getElementById(gv.firstChild.nodeValue).setAttributeNS(null, "visibility", "hidden");
    }
    document.getElementById(target).setAttributeNS(null, "visibility", "visible");
    gv.firstChild.nodeValue = target;
        }

    function mouseclick(evt) { 
    var gv = document.getElementById("globalVariable");
    var previoustarget = gv.firstChild.nodeValue;
    if (previoustarget != "none") {
        	document.getElementById(gv.firstChild.nodeValue).setAttributeNS(null, "visibility", "hidden");
        }
    }
]]>
  </script>
<style type="text/css" >

<![CDATA[
    rect.anc_exon {
              stroke-width:3;
                  }

    rect.non_anc_exon {
              stroke: black; stroke-width:3; stroke-dasharray: 5,5;
                    }

    text {
              font-size: 18px;
              font-family: Courier New;
          }
                    ]]>
</style>

<defs>
    <text x="150" y="40" id="globalVariable">none</text>
</defs>

  <rect class="anc_exon" x="0" y="35.0" width="0" height="30" style="fill:#87bcbc;fill-opacity:1.00" />
  <rect class="anc_exon" x="0" y="35.0" width="132.0" height="30" style="fill:#878787;fill-opacity:1.00" />
  <line x1="132.0" y1="50.0" x2="172.0" y2="50.0" style="stroke:#999; stroke-width:3;" />
  <rect class="anc_exon" x="172" y="35.0" width="104" height="30" style="fill:#87bcbc;fill-opacity:1.00" />
  <line x1="276" y1="50.0" x2="296" y2="50.0" style="stroke:#999; stroke-width:3;" />
  <line x1="296" y1="50.0" x2="296" y2="50.0" style="stroke:#999; stroke-width:3;" />
  <line x1="296" y1="50.0" x2="296" y2="50.0" style="stroke:#999; stroke-width:3;" />
  <line x1="296" y1="50.0" x2="316" y2="50.0" style="stroke:#999; stroke-width:3;" />
  <rect class="anc_exon" x="316" y="35.0" width="266" height="30" style="fill:#87bcbc;fill-opacity:1.00" />
  <line x1="582" y1="50.0" x2="602" y2="50.0" style="stroke:#999; stroke-width:3;" />
  <line x1="602" y1="50.0" x2="602" y2="50.0" style="stroke:#999; stroke-width:3;" />
  <line x1="602" y1="50.0" x2="602" y2="50.0" style="stroke:#999; stroke-width:3;" />
  <line x1="602" y1="50.0" x2="622" y2="50.0" style="stroke:#999; stroke-width:3;" />
  <rect class="anc_exon" x="622" y="35.0" width="81" height="30" style="fill:#87bcbc;fill-opacity:1.00" />
  <line x1="703" y1="50.0" x2="723" y2="50.0" style="stroke:#999; stroke-width:3;" />
  <line x1="723" y1="50.0" x2="723" y2="50.0" style="stroke:#999; stroke-width:3;" />
  <line x1="723" y1="50.0" x2="723" y2="50.0" style="stroke:#999; stroke-width:3;" />
  <line x1="723" y1="50.0" x2="743" y2="50.0" style="stroke:#999; stroke-width:3;" />
  <rect class="anc_exon" x="743" y="35.0" width="200" height="30" style="fill:#87bcbc;fill-opacity:1.00" />
  <line x1="943" y1="50.0" x2="963" y2="50.0" style="stroke:#999; stroke-width:3;" />
  <line x1="963" y1="50.0" x2="963" y2="50.0" style="stroke:#999; stroke-width:3;" />
  <line x1="963" y1="50.0" x2="963" y2="50.0" style="stroke:#999; stroke-width:3;" />
  <line x1="963" y1="50.0" x2="983" y2="50.0" style="stroke:#999; stroke-width:3;" />
  <rect class="anc_exon" x="983" y="35.0" width="101" height="30" style="fill:#87bcbc;fill-opacity:1.00" />
  <line x1="1084" y1="50.0" x2="1104" y2="50.0" style="stroke:#999; stroke-width:3;" />
  <line x1="1104" y1="50.0" x2="1104" y2="50.0" style="stroke:#999; stroke-width:3;" />
  <line x1="1104" y1="50.0" x2="1104" y2="50.0" style="stroke:#999; stroke-width:3;" />
  <line x1="1104" y1="50.0" x2="1124" y2="50.0" style="stroke:#999; stroke-width:3;" />
  <rect class="anc_exon" x="1124" y="35.0" width="139" height="30" style="fill:#87bcbc;fill-opacity:1.00" />
  <line x1="1263" y1="50.0" x2="1283" y2="50.0" style="stroke:#999; stroke-width:3;" />
  <line x1="1283" y1="50.0" x2="1283" y2="50.0" style="stroke:#999; stroke-width:3;" />
  <line x1="1283" y1="50.0" x2="1283" y2="50.0" style="stroke:#999; stroke-width:3;" />
  <line x1="1283" y1="50.0" x2="1303" y2="50.0" style="stroke:#999; stroke-width:3;" />
  <rect class="anc_exon" x="1303" y="35.0" width="139" height="30" style="fill:#87bcbc;fill-opacity:1.00" />
  <line x1="1442" y1="50.0" x2="1462" y2="50.0" style="stroke:#999; stroke-width:3;" />
  <line x1="1462" y1="50.0" x2="1462" y2="50.0" style="stroke:#999; stroke-width:3;" />
  <line x1="1462" y1="50.0" x2="1462" y2="50.0" style="stroke:#999; stroke-width:3;" />
  <line x1="1462" y1="50.0" x2="1482" y2="50.0" style="stroke:#999; stroke-width:3;" />
  <rect class="anc_exon" x="1482" y="35.0" width="136" height="30" style="fill:#87bcbc;fill-opacity:1.00" />
  <line x1="1618" y1="50.0" x2="1638" y2="50.0" style="stroke:#999; stroke-width:3;" />
  <line x1="1638" y1="50.0" x2="1638" y2="50.0" style="stroke:#999; stroke-width:3;" />
  <line x1="1638" y1="50.0" x2="1638" y2="50.0" style="stroke:#999; stroke-width:3;" />
  <line x1="1638" y1="50.0" x2="1658" y2="50.0" style="stroke:#999; stroke-width:3;" />
  <rect class="anc_exon" x="1658" y="35.0" width="43" height="30" style="fill:#87bcbc;fill-opacity:1.00" />
  <line x1="1701" y1="50.0" x2="1721" y2="50.0" style="stroke:#999; stroke-width:3;" />
  <line x1="1721" y1="50.0" x2="1721" y2="50.0" style="stroke:#999; stroke-width:3;" />
  <line x1="1721" y1="50.0" x2="1721" y2="50.0" style="stroke:#999; stroke-width:3;" />
  <line x1="1721" y1="50.0" x2="1741" y2="50.0" style="stroke:#999; stroke-width:3;" />
  <rect class="anc_exon" x="1741" y="35.0" width="104" height="30" style="fill:#87bcbc;fill-opacity:1.00" />
  <line x1="1845" y1="50.0" x2="1885" y2="50.0" style="stroke:#999; stroke-width:3;" />
  <rect class="anc_exon" x="1885" y="35.0" width="46" height="30" style="fill:#87bcbc;fill-opacity:1.00" />
  <line x1="1931" y1="50.0" x2="1971" y2="50.0" style="stroke:#999; stroke-width:3;" />
  <rect class="anc_exon" x="1971" y="35.0" width="80" height="30" style="fill:#87bcbc;fill-opacity:1.00" />
  <line x1="2051" y1="50.0" x2="2091" y2="50.0" style="stroke:#999; stroke-width:3;" />
  <rect class="anc_exon" x="2091" y="35.0" width="118" height="30" style="fill:#87bcbc;fill-opacity:1.00" />
  <line x1="2209" y1="50.0" x2="2229" y2="50.0" style="stroke:#999; stroke-width:3;" />
  <line x1="2229" y1="50.0" x2="2229" y2="50.0" style="stroke:#999; stroke-width:3;" />
  <line x1="2229" y1="50.0" x2="2229" y2="50.0" style="stroke:#999; stroke-width:3;" />
  <line x1="2229" y1="50.0" x2="2249" y2="50.0" style="stroke:#999; stroke-width:3;" />
  <rect class="anc_exon" x="2249" y="35.0" width="131" height="30" style="fill:#87bcbc;fill-opacity:1.00" />
  <line x1="2380" y1="50.0" x2="2400" y2="50.0" style="stroke:#999; stroke-width:3;" />
  <line x1="2400" y1="50.0" x2="2400" y2="50.0" style="stroke:#999; stroke-width:3;" />
  <line x1="2400" y1="50.0" x2="2400" y2="50.0" style="stroke:#999; stroke-width:3;" />
  <line x1="2400" y1="50.0" x2="2420" y2="50.0" style="stroke:#999; stroke-width:3;" />
  <rect class="anc_exon" x="2420" y="35.0" width="53" height="30" style="fill:#87bcbc;fill-opacity:1.00" />
  <line x1="2424.8" y1="35.0" x2="2424.8" y2="65.0" style="stroke:#121212; stroke-width:1.6; stroke-opacity:1"/>
  <polygon points="2431.2,35.0 2433.7,25.0 2428.7,25.0" style="fill:#121212; stroke-opacity:1; fill-opacity:1"/>
  <text style="" text-anchor="middle">
<tspan x="2427.6" y="16.0" style="font-size:18px;fill:#121212;" >-2</tspan><tspan x="2427.6" y="-2.0" style="font-size:18px;fill:#121212;" >+2</tspan>  </text>
  <line x1="2473" y1="50.0" x2="2513" y2="50.0" style="stroke:#999; stroke-width:3;" />
  <rect class="anc_exon" x="2513" y="35.0" width="88" height="30" style="fill:#87bcbc;fill-opacity:1.00" />
  <line x1="2601" y1="50.0" x2="2621" y2="50.0" style="stroke:#999; stroke-width:3;" />
  <line x1="2621" y1="50.0" x2="2621" y2="50.0" style="stroke:#999; stroke-width:3;" />
  <line x1="2621" y1="50.0" x2="2621" y2="50.0" style="stroke:#999; stroke-width:3;" />
  <line x1="2621" y1="50.0" x2="2641" y2="50.0" style="stroke:#999; stroke-width:3;" />
  <rect class="anc_exon" x="2641" y="35.0" width="194" height="30" style="fill:#87bcbc;fill-opacity:1.00" />
  <line x1="2835" y1="50.0" x2="2875" y2="50.0" style="stroke:#999; stroke-width:3;" />
  <rect class="anc_exon" x="2875" y="35.0" width="91" height="30" style="fill:#87bcbc;fill-opacity:1.00" />
  <line x1="2966" y1="50.0" x2="2986" y2="50.0" style="stroke:#999; stroke-width:3;" />
  <line x1="2986" y1="50.0" x2="2986" y2="50.0" style="stroke:#999; stroke-width:3;" />
  <line x1="2986" y1="50.0" x2="2986" y2="50.0" style="stroke:#999; stroke-width:3;" />
  <line x1="2986" y1="50.0" x2="3006" y2="50.0" style="stroke:#999; stroke-width:3;" />
  <rect class="anc_exon" x="3006" y="35.0" width="86" height="30" style="fill:#87bcbc;fill-opacity:1.00" />
  <line x1="3092" y1="50.0" x2="3132" y2="50.0" style="stroke:#999; stroke-width:3;" />
  <rect class="anc_exon" x="3132" y="35.0" width="69" height="30" style="fill:#87bcbc;fill-opacity:1.00" />
  <line x1="3201" y1="50.0" x2="3221" y2="50.0" style="stroke:#999; stroke-width:3;" />
  <line x1="3221" y1="50.0" x2="3221" y2="50.0" style="stroke:#999; stroke-width:3;" />
  <line x1="3221" y1="50.0" x2="3221" y2="50.0" style="stroke:#999; stroke-width:3;" />
  <line x1="3221" y1="50.0" x2="3241" y2="50.0" style="stroke:#999; stroke-width:3;" />
  <rect class="anc_exon" x="3241" y="35.0" width="37" height="30" style="fill:#87bcbc;fill-opacity:1.00" />
  <line x1="3278" y1="50.0" x2="3318" y2="50.0" style="stroke:#999; stroke-width:3;" />
  <rect class="anc_exon" x="3318" y="35.0" width="133" height="30" style="fill:#87bcbc;fill-opacity:1.00" />
  <line x1="3451" y1="50.0" x2="3471" y2="50.0" style="stroke:#999; stroke-width:3;" />
  <line x1="3471" y1="50.0" x2="3471" y2="50.0" style="stroke:#999; stroke-width:3;" />
  <line x1="3471" y1="50.0" x2="3471" y2="50.0" style="stroke:#999; stroke-width:3;" />
  <line x1="3471" y1="50.0" x2="3491" y2="50.0" style="stroke:#999; stroke-width:3;" />
  <rect class="anc_exon" x="3491" y="35.0" width="131" height="30" style="fill:#87bcbc;fill-opacity:1.00" />
  <line x1="3622" y1="50.0" x2="3642" y2="50.0" style="stroke:#999; stroke-width:3;" />
  <line x1="3642" y1="50.0" x2="3642" y2="50.0" style="stroke:#999; stroke-width:3;" />
  <line x1="3642" y1="50.0" x2="3642" y2="50.0" style="stroke:#999; stroke-width:3;" />
  <line x1="3642" y1="50.0" x2="3662" y2="50.0" style="stroke:#999; stroke-width:3;" />
  <rect class="anc_exon" x="3662" y="35.0" width="182" height="30" style="fill:#87bcbc;fill-opacity:1.00" />
  <line x1="3844" y1="50.0" x2="3864" y2="50.0" style="stroke:#999; stroke-width:3;" />
  <line x1="3864" y1="50.0" x2="3864" y2="50.0" style="stroke:#999; stroke-width:3;" />
  <line x1="3864" y1="50.0" x2="3864" y2="50.0" style="stroke:#999; stroke-width:3;" />
  <line x1="3864" y1="50.0" x2="3884" y2="50.0" style="stroke:#999; stroke-width:3;" />
  <rect class="anc_exon" x="3884" y="35.0" width="62" height="30" style="fill:#87bcbc;fill-opacity:1.00" />
  <line x1="3946" y1="50.0" x2="3966" y2="50.0" style="stroke:#999; stroke-width:3;" />
  <line x1="3966" y1="50.0" x2="3966" y2="50.0" style="stroke:#999; stroke-width:3;" />
  <line x1="3966" y1="50.0" x2="3966" y2="50.0" style="stroke:#999; stroke-width:3;" />
  <line x1="3966" y1="50.0" x2="3986" y2="50.0" style="stroke:#999; stroke-width:3;" />
  <rect class="anc_exon" x="3986" y="35.0" width="175" height="30" style="fill:#87bcbc;fill-opacity:1.00" />
  <line x1="4161" y1="50.0" x2="4181" y2="50.0" style="stroke:#999; stroke-width:3;" />
  <line x1="4181" y1="50.0" x2="4181" y2="50.0" style="stroke:#999; stroke-width:3;" />
  <line x1="4181" y1="50.0" x2="4181" y2="50.0" style="stroke:#999; stroke-width:3;" />
  <line x1="4181" y1="50.0" x2="4201" y2="50.0" style="stroke:#999; stroke-width:3;" />
  <rect class="anc_exon" x="4201" y="35.0" width="174" height="30" style="fill:#87bcbc;fill-opacity:1.00" />
  <line x1="4375" y1="50.0" x2="4395" y2="50.0" style="stroke:#999; stroke-width:3;" />
  <line x1="4395" y1="50.0" x2="4395" y2="50.0" style="stroke:#999; stroke-width:3;" />
  <line x1="4395" y1="50.0" x2="4395" y2="50.0" style="stroke:#999; stroke-width:3;" />
  <line x1="4395" y1="50.0" x2="4415" y2="50.0" style="stroke:#999; stroke-width:3;" />
  <rect class="anc_exon" x="4415" y="35.0" width="84" height="30" style="fill:#87bcbc;fill-opacity:1.00" />
  <line x1="4499" y1="50.0" x2="4539" y2="50.0" style="stroke:#999; stroke-width:3;" />
  <rect class="anc_exon" x="4539" y="35.0" width="81" height="30" style="fill:#87bcbc;fill-opacity:1.00" />
  <line x1="4620" y1="50.0" x2="4640" y2="50.0" style="stroke:#999; stroke-width:3;" />
  <line x1="4640" y1="50.0" x2="4640" y2="50.0" style="stroke:#999; stroke-width:3;" />
  <line x1="4640" y1="50.0" x2="4640" y2="50.0" style="stroke:#999; stroke-width:3;" />
  <line x1="4640" y1="50.0" x2="4660" y2="50.0" style="stroke:#999; stroke-width:3;" />
  <rect class="anc_exon" x="4660" y="35.0" width="104" height="30" style="fill:#87bcbc;fill-opacity:1.00" />
  <line x1="4764" y1="50.0" x2="4784" y2="50.0" style="stroke:#999; stroke-width:3;" />
  <line x1="4784" y1="50.0" x2="4784" y2="50.0" style="stroke:#999; stroke-width:3;" />
  <line x1="4784" y1="50.0" x2="4784" y2="50.0" style="stroke:#999; stroke-width:3;" />
  <line x1="4784" y1="50.0" x2="4804" y2="50.0" style="stroke:#999; stroke-width:3;" />
  <rect class="anc_exon" x="4804" y="35.0" width="114" height="30" style="fill:#87bcbc;fill-opacity:1.00" />
  <line x1="4918" y1="50.0" x2="4958" y2="50.0" style="stroke:#999; stroke-width:3;" />
  <rect class="anc_exon" x="4958" y="35.0" width="28" height="30" style="fill:#87bcbc;fill-opacity:1.00" />
  <rect class="anc_exon" x="4986" y="35.0" width="0" height="30" style="fill:#87bcbc;fill-opacity:1.00" />
  <text style="" >
<tspan x="0" y="83.0" style="font-size:18px;" >SP XM_031943989_1.1</tspan>  </text>



<script type="text/ecmascript">
<![CDATA[
function draw_bbox(text_id)
{
    var text_elem = document.getElementById(text_id);
    var offset_px = 2;
    var offset_py = 0;
    bbox = text_elem.getBBox();
    var box = document.createElementNS(document.rootElement.namespaceURI,'rect');
    box.setAttribute('x', bbox.x - offset_px);
    box.setAttribute('y', bbox.y - offset_py);
    box.setAttribute('width', bbox.width + offset_px * 2);
    box.setAttribute('height', bbox.height + offset_py * 2);
    box.setAttribute('style','fill: white;'+'stroke: black;'+'stroke-width: 1px;');
    text_elem.insertBefore(box,text_elem.childNodes[0]);

    var svg = text_elem.parentNode;
    svg.appendChild(text_elem);
}

for (var i=1; i < 1; i++)
{
draw_bbox("Mouseover" + i);
}
]]> 
</script>
</svg>
