<svg version="1.1"
xmlns="http://www.w3.org/2000/svg"
xmlns:xlink="http://www.w3.org/1999/xlink"
width="5206" height="100" viewBox = "0 0 5206 100"
onclick="mouseclick(evt)">

<script type="text/ecmascript">

<![CDATA[
    function mouseover(evt, target) { 
    var gv = document.getElementById("globalVariable");
    var previoustarget = gv.firstChild.nodeValue;
    if (previoustarget != "none") 
    {
        	document.getElementById(gv.firstChild.nodeValue).setAttributeNS(null, "visibility", "hidden");
    }
    document.getElementById(target).setAttributeNS(null, "visibility", "visible");
    gv.firstChild.nodeValue = target;
        }

    function mouseclick(evt) { 
    var gv = document.getElementById("globalVariable");
    var previoustarget = gv.firstChild.nodeValue;
    if (previoustarget != "none") {
        	document.getElementById(gv.firstChild.nodeValue).setAttributeNS(null, "visibility", "hidden");
        }
    }
]]>
  </script>
<style type="text/css" >

<![CDATA[
    rect.anc_exon {
              stroke-width:3;
                  }

    rect.non_anc_exon {
              stroke: black; stroke-width:3; stroke-dasharray: 5,5;
                    }

    text {
              font-size: 18px;
              font-family: Courier New;
          }
                    ]]>
</style>

<defs>
    <text x="150" y="40" id="globalVariable">none</text>
</defs>

  <rect class="anc_exon" x="0" y="35.0" width="0" height="30" style="fill:#87bcbc;fill-opacity:1.00" />
  <rect class="anc_exon" x="0" y="35.0" width="45.6" height="30" style="fill:#87bcbc;fill-opacity:1.00" />
  <line x1="45.6" y1="50.0" x2="64.6" y2="50.0" style="stroke:#999; stroke-width:3;" />
  <line x1="64.6" y1="50.0" x2="64.6" y2="50.0" style="stroke:#999; stroke-width:3;" />
  <line x1="64.6" y1="50.0" x2="64.6" y2="50.0" style="stroke:#999; stroke-width:3;" />
  <line x1="64.6" y1="50.0" x2="85.0" y2="50.0" style="stroke:#999; stroke-width:3;" />
  <rect class="anc_exon" x="85" y="35.0" width="158" height="30" style="fill:#87bcbc;fill-opacity:1.00" />
  <line x1="243" y1="50.0" x2="263" y2="50.0" style="stroke:#999; stroke-width:3;" />
  <line x1="263" y1="50.0" x2="263" y2="50.0" style="stroke:#999; stroke-width:3;" />
  <line x1="263" y1="50.0" x2="263" y2="50.0" style="stroke:#999; stroke-width:3;" />
  <line x1="263" y1="50.0" x2="283" y2="50.0" style="stroke:#999; stroke-width:3;" />
  <rect class="anc_exon" x="283" y="35.0" width="1097" height="30" style="fill:#87bcbc;fill-opacity:1.00" />
  <line x1="1380" y1="50.0" x2="1400" y2="50.0" style="stroke:#999; stroke-width:3;" />
  <line x1="1400" y1="50.0" x2="1400" y2="50.0" style="stroke:#999; stroke-width:3;" />
  <line x1="1400" y1="50.0" x2="1400" y2="50.0" style="stroke:#999; stroke-width:3;" />
  <line x1="1400" y1="50.0" x2="1420" y2="50.0" style="stroke:#999; stroke-width:3;" />
  <rect class="anc_exon" x="1420" y="35.0" width="165" height="30" style="fill:#87bcbc;fill-opacity:1.00" />
  <line x1="1585" y1="50.0" x2="1625" y2="50.0" style="stroke:#999; stroke-width:3;" />
  <rect class="anc_exon" x="1625" y="35.0" width="99" height="30" style="fill:#87bcbc;fill-opacity:1.00" />
  <line x1="1724" y1="50.0" x2="1744" y2="50.0" style="stroke:#999; stroke-width:3;" />
  <line x1="1744" y1="50.0" x2="1744" y2="50.0" style="stroke:#999; stroke-width:3;" />
  <line x1="1744" y1="50.0" x2="1744" y2="50.0" style="stroke:#999; stroke-width:3;" />
  <line x1="1744" y1="50.0" x2="1764" y2="50.0" style="stroke:#999; stroke-width:3;" />
  <rect class="anc_exon" x="1764" y="35.0" width="75" height="30" style="fill:#87bcbc;fill-opacity:1.00" />
  <line x1="1839" y1="50.0" x2="1859" y2="50.0" style="stroke:#999; stroke-width:3;" />
  <line x1="1859" y1="50.0" x2="1859" y2="50.0" style="stroke:#999; stroke-width:3;" />
  <line x1="1859" y1="50.0" x2="1859" y2="50.0" style="stroke:#999; stroke-width:3;" />
  <line x1="1859" y1="50.0" x2="1879" y2="50.0" style="stroke:#999; stroke-width:3;" />
  <rect class="anc_exon" x="1879" y="35.0" width="69" height="30" style="fill:#87bcbc;fill-opacity:1.00" />
  <line x1="1948" y1="50.0" x2="1968" y2="50.0" style="stroke:#999; stroke-width:3;" />
  <line x1="1968" y1="50.0" x2="1968" y2="50.0" style="stroke:#999; stroke-width:3;" />
  <line x1="1968" y1="50.0" x2="1968" y2="50.0" style="stroke:#999; stroke-width:3;" />
  <line x1="1968" y1="50.0" x2="1988" y2="50.0" style="stroke:#999; stroke-width:3;" />
  <rect class="anc_exon" x="1988" y="35.0" width="96" height="30" style="fill:#87bcbc;fill-opacity:1.00" />
  <line x1="2084" y1="50.0" x2="2124" y2="50.0" style="stroke:#999; stroke-width:3;" />
  <rect class="anc_exon" x="2124" y="35.0" width="79" height="30" style="fill:#87bcbc;fill-opacity:1.00" />
  <line x1="2203" y1="50.0" x2="2223" y2="50.0" style="stroke:#999; stroke-width:3;" />
  <line x1="2223" y1="50.0" x2="2223" y2="50.0" style="stroke:#999; stroke-width:3;" />
  <line x1="2223" y1="50.0" x2="2223" y2="50.0" style="stroke:#999; stroke-width:3;" />
  <line x1="2223" y1="50.0" x2="2243" y2="50.0" style="stroke:#999; stroke-width:3;" />
  <rect class="anc_exon" x="2243" y="35.0" width="114" height="30" style="fill:#87bcbc;fill-opacity:1.00" />
  <line x1="2357" y1="50.0" x2="2397" y2="50.0" style="stroke:#999; stroke-width:3;" />
  <rect class="anc_exon" x="2397" y="35.0" width="111" height="30" style="fill:#87bcbc;fill-opacity:1.00" />
  <line x1="2508" y1="50.0" x2="2548" y2="50.0" style="stroke:#999; stroke-width:3;" />
  <rect class="anc_exon" x="2548" y="35.0" width="93" height="30" style="fill:#87bcbc;fill-opacity:1.00" />
  <line x1="2641" y1="50.0" x2="2681" y2="50.0" style="stroke:#999; stroke-width:3;" />
  <rect class="anc_exon" x="2681" y="35.0" width="132" height="30" style="fill:#87bcbc;fill-opacity:1.00" />
  <line x1="2813" y1="50.0" x2="2853" y2="50.0" style="stroke:#999; stroke-width:3;" />
  <rect class="anc_exon" x="2853" y="35.0" width="707" height="30" style="fill:#87bcbc;fill-opacity:1.00" />
  <line x1="3560" y1="50.0" x2="3580" y2="50.0" style="stroke:#999; stroke-width:3;" />
  <line x1="3580" y1="50.0" x2="3580" y2="50.0" style="stroke:#999; stroke-width:3;" />
  <line x1="3580" y1="50.0" x2="3580" y2="50.0" style="stroke:#999; stroke-width:3;" />
  <line x1="3580" y1="50.0" x2="3600" y2="50.0" style="stroke:#999; stroke-width:3;" />
  <rect class="anc_exon" x="3600" y="35.0" width="202" height="30" style="fill:#87bcbc;fill-opacity:1.00" />
  <line x1="3802" y1="50.0" x2="3822" y2="50.0" style="stroke:#999; stroke-width:3;" />
  <line x1="3822" y1="50.0" x2="3822" y2="50.0" style="stroke:#999; stroke-width:3;" />
  <line x1="3822" y1="50.0" x2="3822" y2="50.0" style="stroke:#999; stroke-width:3;" />
  <line x1="3822" y1="50.0" x2="3842" y2="50.0" style="stroke:#999; stroke-width:3;" />
  <rect class="anc_exon" x="3842" y="35.0" width="72" height="30" style="fill:#87bcbc;fill-opacity:1.00" />
  <line x1="3914" y1="50.0" x2="3954" y2="50.0" style="stroke:#999; stroke-width:3;" />
  <rect class="anc_exon" x="3954" y="35.0" width="180" height="30" style="fill:#87bcbc;fill-opacity:1.00" />
  <line x1="4134" y1="50.0" x2="4154" y2="50.0" style="stroke:#999; stroke-width:3;" />
  <line x1="4154" y1="50.0" x2="4154" y2="50.0" style="stroke:#999; stroke-width:3;" />
  <line x1="4154" y1="50.0" x2="4154" y2="50.0" style="stroke:#999; stroke-width:3;" />
  <line x1="4154" y1="50.0" x2="4174" y2="50.0" style="stroke:#999; stroke-width:3;" />
  <rect class="anc_exon" x="4174" y="35.0" width="136" height="30" style="fill:#87bcbc;fill-opacity:1.00" />
  <line x1="4310" y1="50.0" x2="4350" y2="50.0" style="stroke:#999; stroke-width:3;" />
  <rect class="anc_exon" x="4350" y="35.0" width="144" height="30" style="fill:#87bcbc;fill-opacity:1.00" />
  <line x1="4494" y1="50.0" x2="4534" y2="50.0" style="stroke:#999; stroke-width:3;" />
  <rect class="anc_exon" x="4534" y="35.0" width="93" height="30" style="fill:#87bcbc;fill-opacity:1.00" />
  <line x1="4627" y1="50.0" x2="4667" y2="50.0" style="stroke:#999; stroke-width:3;" />
  <rect class="anc_exon" x="4667" y="35.0" width="216" height="30" style="fill:#87bcbc;fill-opacity:1.00" />
  <line x1="4883" y1="50.0" x2="4923" y2="50.0" style="stroke:#999; stroke-width:3;" />
  <rect class="anc_exon" x="4923" y="35.0" width="174" height="30" style="fill:#87bcbc;fill-opacity:1.00" />
  <line x1="5097" y1="50.0" x2="5117" y2="50.0" style="stroke:#999; stroke-width:3;" />
  <line x1="5117" y1="50.0" x2="5117" y2="50.0" style="stroke:#999; stroke-width:3;" />
  <line x1="5117" y1="50.0" x2="5117" y2="50.0" style="stroke:#999; stroke-width:3;" />
  <line x1="5117" y1="50.0" x2="5137" y2="50.0" style="stroke:#999; stroke-width:3;" />
  <rect class="anc_exon" x="5137" y="35.0" width="33" height="30" style="fill:#87bcbc;fill-opacity:1.00" />
  <rect class="anc_exon" x="5170" y="35.0" width="0" height="30" style="fill:#87bcbc;fill-opacity:1.00" />
  <text style="" >
<tspan x="0" y="83.0" style="font-size:18px;" >SP XM_012541178_3.1</tspan>  </text>



<script type="text/ecmascript">
<![CDATA[
function draw_bbox(text_id)
{
    var text_elem = document.getElementById(text_id);
    var offset_px = 2;
    var offset_py = 0;
    bbox = text_elem.getBBox();
    var box = document.createElementNS(document.rootElement.namespaceURI,'rect');
    box.setAttribute('x', bbox.x - offset_px);
    box.setAttribute('y', bbox.y - offset_py);
    box.setAttribute('width', bbox.width + offset_px * 2);
    box.setAttribute('height', bbox.height + offset_py * 2);
    box.setAttribute('style','fill: white;'+'stroke: black;'+'stroke-width: 1px;');
    text_elem.insertBefore(box,text_elem.childNodes[0]);

    var svg = text_elem.parentNode;
    svg.appendChild(text_elem);
}

for (var i=1; i < 1; i++)
{
draw_bbox("Mouseover" + i);
}
]]> 
</script>
</svg>
