<svg version="1.1"
xmlns="http://www.w3.org/2000/svg"
xmlns:xlink="http://www.w3.org/1999/xlink"
width="4208" height="100" viewBox = "0 0 4208 100"
onclick="mouseclick(evt)">

<script type="text/ecmascript">

<![CDATA[
    function mouseover(evt, target) { 
    var gv = document.getElementById("globalVariable");
    var previoustarget = gv.firstChild.nodeValue;
    if (previoustarget != "none") 
    {
        	document.getElementById(gv.firstChild.nodeValue).setAttributeNS(null, "visibility", "hidden");
    }
    document.getElementById(target).setAttributeNS(null, "visibility", "visible");
    gv.firstChild.nodeValue = target;
        }

    function mouseclick(evt) { 
    var gv = document.getElementById("globalVariable");
    var previoustarget = gv.firstChild.nodeValue;
    if (previoustarget != "none") {
        	document.getElementById(gv.firstChild.nodeValue).setAttributeNS(null, "visibility", "hidden");
        }
    }
]]>
  </script>
<style type="text/css" >

<![CDATA[
    rect.anc_exon {
              stroke-width:3;
                  }

    rect.non_anc_exon {
              stroke: black; stroke-width:3; stroke-dasharray: 5,5;
                    }

    text {
              font-size: 18px;
              font-family: Courier New;
          }
                    ]]>
</style>

<defs>
    <text x="150" y="40" id="globalVariable">none</text>
</defs>

  <rect class="anc_exon" x="0" y="35.0" width="0" height="30" style="fill:#87bcbc;fill-opacity:1.00" />
  <rect class="anc_exon" x="0" y="35.0" width="99.2" height="30" style="fill:#87bcbc;fill-opacity:1.00" />
  <line x1="99.2" y1="50.0" x2="118.2" y2="50.0" style="stroke:#999; stroke-width:3;" />
  <line x1="118.2" y1="50.0" x2="118.2" y2="50.0" style="stroke:#999; stroke-width:3;" />
  <line x1="118.2" y1="50.0" x2="118.2" y2="50.0" style="stroke:#999; stroke-width:3;" />
  <line x1="118.2" y1="50.0" x2="139.0" y2="50.0" style="stroke:#999; stroke-width:3;" />
  <rect class="anc_exon" x="139" y="35.0" width="100" height="30" style="fill:#87bcbc;fill-opacity:1.00" />
  <line x1="239" y1="50.0" x2="259" y2="50.0" style="stroke:#999; stroke-width:3;" />
  <line x1="259" y1="50.0" x2="259" y2="50.0" style="stroke:#999; stroke-width:3;" />
  <line x1="259" y1="50.0" x2="259" y2="50.0" style="stroke:#999; stroke-width:3;" />
  <line x1="259" y1="50.0" x2="279" y2="50.0" style="stroke:#999; stroke-width:3;" />
  <rect class="anc_exon" x="279" y="35.0" width="116" height="30" style="fill:#87bcbc;fill-opacity:1.00" />
  <line x1="395" y1="50.0" x2="415" y2="50.0" style="stroke:#999; stroke-width:3;" />
  <line x1="415" y1="50.0" x2="415" y2="50.0" style="stroke:#999; stroke-width:3;" />
  <line x1="415" y1="50.0" x2="415" y2="50.0" style="stroke:#999; stroke-width:3;" />
  <line x1="415" y1="50.0" x2="435" y2="50.0" style="stroke:#999; stroke-width:3;" />
  <rect class="anc_exon" x="435" y="35.0" width="59" height="30" style="fill:#87bcbc;fill-opacity:1.00" />
  <line x1="494" y1="50.0" x2="514" y2="50.0" style="stroke:#999; stroke-width:3;" />
  <line x1="514" y1="50.0" x2="514" y2="50.0" style="stroke:#999; stroke-width:3;" />
  <line x1="514" y1="50.0" x2="514" y2="50.0" style="stroke:#999; stroke-width:3;" />
  <line x1="514" y1="50.0" x2="534" y2="50.0" style="stroke:#999; stroke-width:3;" />
  <rect class="anc_exon" x="534" y="35.0" width="95" height="30" style="fill:#87bcbc;fill-opacity:1.00" />
  <line x1="629" y1="50.0" x2="669" y2="50.0" style="stroke:#999; stroke-width:3;" />
  <rect class="anc_exon" x="669" y="35.0" width="70" height="30" style="fill:#87bcbc;fill-opacity:1.00" />
  <line x1="739" y1="50.0" x2="759" y2="50.0" style="stroke:#999; stroke-width:3;" />
  <line x1="759" y1="50.0" x2="759" y2="50.0" style="stroke:#999; stroke-width:3;" />
  <line x1="759" y1="50.0" x2="759" y2="50.0" style="stroke:#999; stroke-width:3;" />
  <line x1="759" y1="50.0" x2="779" y2="50.0" style="stroke:#999; stroke-width:3;" />
  <rect class="anc_exon" x="779" y="35.0" width="107" height="30" style="fill:#87bcbc;fill-opacity:1.00" />
  <line x1="886" y1="50.0" x2="906" y2="50.0" style="stroke:#999; stroke-width:3;" />
  <line x1="906" y1="50.0" x2="906" y2="50.0" style="stroke:#999; stroke-width:3;" />
  <line x1="906" y1="50.0" x2="906" y2="50.0" style="stroke:#999; stroke-width:3;" />
  <line x1="906" y1="50.0" x2="926" y2="50.0" style="stroke:#999; stroke-width:3;" />
  <rect class="anc_exon" x="926" y="35.0" width="68" height="30" style="fill:#87bcbc;fill-opacity:1.00" />
  <line x1="994" y1="50.0" x2="1034" y2="50.0" style="stroke:#999; stroke-width:3;" />
  <rect class="anc_exon" x="1034" y="35.0" width="97" height="30" style="fill:#87bcbc;fill-opacity:1.00" />
  <line x1="1131" y1="50.0" x2="1151" y2="50.0" style="stroke:#999; stroke-width:3;" />
  <line x1="1151" y1="50.0" x2="1151" y2="50.0" style="stroke:#999; stroke-width:3;" />
  <line x1="1151" y1="50.0" x2="1151" y2="50.0" style="stroke:#999; stroke-width:3;" />
  <line x1="1151" y1="50.0" x2="1171" y2="50.0" style="stroke:#999; stroke-width:3;" />
  <rect class="anc_exon" x="1171" y="35.0" width="120" height="30" style="fill:#87bcbc;fill-opacity:1.00" />
  <line x1="1291" y1="50.0" x2="1331" y2="50.0" style="stroke:#999; stroke-width:3;" />
  <rect class="anc_exon" x="1331" y="35.0" width="2400" height="30" style="fill:#87bcbc;fill-opacity:1.00" />
  <line x1="3731" y1="50.0" x2="3751" y2="50.0" style="stroke:#999; stroke-width:3;" />
  <line x1="3751" y1="50.0" x2="3751" y2="50.0" style="stroke:#999; stroke-width:3;" />
  <line x1="3751" y1="50.0" x2="3751" y2="50.0" style="stroke:#999; stroke-width:3;" />
  <line x1="3751" y1="50.0" x2="3771" y2="50.0" style="stroke:#999; stroke-width:3;" />
  <rect class="anc_exon" x="3771" y="35.0" width="106" height="30" style="fill:#87bcbc;fill-opacity:1.00" />
  <line x1="3877" y1="50.0" x2="3917" y2="50.0" style="stroke:#999; stroke-width:3;" />
  <rect class="anc_exon" x="3917" y="35.0" width="192" height="30" style="fill:#87bcbc;fill-opacity:1.00" />
  <line x1="4109" y1="50.0" x2="4149" y2="50.0" style="stroke:#999; stroke-width:3;" />
  <rect class="anc_exon" x="4149" y="35.0" width="23" height="30" style="fill:#87bcbc;fill-opacity:1.00" />
  <rect class="anc_exon" x="4172" y="35.0" width="0" height="30" style="fill:#87bcbc;fill-opacity:1.00" />
  <text style="" >
<tspan x="0" y="83.0" style="font-size:18px;" >SP XM_031941722_1.1</tspan>  </text>



<script type="text/ecmascript">
<![CDATA[
function draw_bbox(text_id)
{
    var text_elem = document.getElementById(text_id);
    var offset_px = 2;
    var offset_py = 0;
    bbox = text_elem.getBBox();
    var box = document.createElementNS(document.rootElement.namespaceURI,'rect');
    box.setAttribute('x', bbox.x - offset_px);
    box.setAttribute('y', bbox.y - offset_py);
    box.setAttribute('width', bbox.width + offset_px * 2);
    box.setAttribute('height', bbox.height + offset_py * 2);
    box.setAttribute('style','fill: white;'+'stroke: black;'+'stroke-width: 1px;');
    text_elem.insertBefore(box,text_elem.childNodes[0]);

    var svg = text_elem.parentNode;
    svg.appendChild(text_elem);
}

for (var i=1; i < 1; i++)
{
draw_bbox("Mouseover" + i);
}
]]> 
</script>
</svg>
