<svg version="1.1"
xmlns="http://www.w3.org/2000/svg"
xmlns:xlink="http://www.w3.org/1999/xlink"
width="3478" height="100" viewBox = "0 0 3478 100"
onclick="mouseclick(evt)">

<script type="text/ecmascript">

<![CDATA[
    function mouseover(evt, target) { 
    var gv = document.getElementById("globalVariable");
    var previoustarget = gv.firstChild.nodeValue;
    if (previoustarget != "none") 
    {
        	document.getElementById(gv.firstChild.nodeValue).setAttributeNS(null, "visibility", "hidden");
    }
    document.getElementById(target).setAttributeNS(null, "visibility", "visible");
    gv.firstChild.nodeValue = target;
        }

    function mouseclick(evt) { 
    var gv = document.getElementById("globalVariable");
    var previoustarget = gv.firstChild.nodeValue;
    if (previoustarget != "none") {
        	document.getElementById(gv.firstChild.nodeValue).setAttributeNS(null, "visibility", "hidden");
        }
    }
]]>
  </script>
<style type="text/css" >

<![CDATA[
    rect.anc_exon {
              stroke-width:3;
                  }

    rect.non_anc_exon {
              stroke: black; stroke-width:3; stroke-dasharray: 5,5;
                    }

    text {
              font-size: 18px;
              font-family: Courier New;
          }
                    ]]>
</style>

<defs>
    <text x="150" y="40" id="globalVariable">none</text>
</defs>

  <rect class="anc_exon" x="0" y="35.0" width="0" height="30" style="fill:#87bcbc;fill-opacity:1.00" />
  <rect class="anc_exon" x="0" y="35.0" width="38.400000000000006" height="30" style="fill:#87bcbc;fill-opacity:1.00" />
  <line x1="38.400000000000006" y1="50.0" x2="57.400000000000006" y2="50.0" style="stroke:#999; stroke-width:3;" />
  <line x1="57.400000000000006" y1="50.0" x2="57.400000000000006" y2="50.0" style="stroke:#999; stroke-width:3;" />
  <line x1="57.400000000000006" y1="50.0" x2="57.400000000000006" y2="50.0" style="stroke:#999; stroke-width:3;" />
  <line x1="57.400000000000006" y1="50.0" x2="78.0" y2="50.0" style="stroke:#999; stroke-width:3;" />
  <rect class="anc_exon" x="78" y="35.0" width="59" height="30" style="fill:#87bcbc;fill-opacity:1.00" />
  <line x1="137" y1="50.0" x2="157" y2="50.0" style="stroke:#999; stroke-width:3;" />
  <line x1="157" y1="50.0" x2="157" y2="50.0" style="stroke:#999; stroke-width:3;" />
  <line x1="157" y1="50.0" x2="157" y2="50.0" style="stroke:#999; stroke-width:3;" />
  <line x1="157" y1="50.0" x2="177" y2="50.0" style="stroke:#999; stroke-width:3;" />
  <rect class="anc_exon" x="177" y="35.0" width="65" height="30" style="fill:#87bcbc;fill-opacity:1.00" />
  <line x1="242" y1="50.0" x2="262" y2="50.0" style="stroke:#999; stroke-width:3;" />
  <line x1="262" y1="50.0" x2="262" y2="50.0" style="stroke:#999; stroke-width:3;" />
  <line x1="262" y1="50.0" x2="262" y2="50.0" style="stroke:#999; stroke-width:3;" />
  <line x1="262" y1="50.0" x2="282" y2="50.0" style="stroke:#999; stroke-width:3;" />
  <rect class="anc_exon" x="282" y="35.0" width="31" height="30" style="fill:#87bcbc;fill-opacity:1.00" />
  <line x1="313" y1="50.0" x2="333" y2="50.0" style="stroke:#999; stroke-width:3;" />
  <line x1="333" y1="50.0" x2="333" y2="50.0" style="stroke:#999; stroke-width:3;" />
  <line x1="333" y1="50.0" x2="333" y2="50.0" style="stroke:#999; stroke-width:3;" />
  <line x1="333" y1="50.0" x2="353" y2="50.0" style="stroke:#999; stroke-width:3;" />
  <rect class="anc_exon" x="353" y="35.0" width="43" height="30" style="fill:#87bcbc;fill-opacity:1.00" />
  <line x1="396" y1="50.0" x2="416" y2="50.0" style="stroke:#999; stroke-width:3;" />
  <line x1="416" y1="50.0" x2="416" y2="50.0" style="stroke:#999; stroke-width:3;" />
  <line x1="416" y1="50.0" x2="416" y2="50.0" style="stroke:#999; stroke-width:3;" />
  <line x1="416" y1="50.0" x2="436" y2="50.0" style="stroke:#999; stroke-width:3;" />
  <rect class="anc_exon" x="436" y="35.0" width="40" height="30" style="fill:#87bcbc;fill-opacity:1.00" />
  <line x1="476" y1="50.0" x2="496" y2="50.0" style="stroke:#999; stroke-width:3;" />
  <line x1="496" y1="50.0" x2="496" y2="50.0" style="stroke:#999; stroke-width:3;" />
  <line x1="496" y1="50.0" x2="496" y2="50.0" style="stroke:#999; stroke-width:3;" />
  <line x1="496" y1="50.0" x2="516" y2="50.0" style="stroke:#999; stroke-width:3;" />
  <rect class="anc_exon" x="516" y="35.0" width="49" height="30" style="fill:#87bcbc;fill-opacity:1.00" />
  <line x1="565" y1="50.0" x2="605" y2="50.0" style="stroke:#999; stroke-width:3;" />
  <rect class="anc_exon" x="605" y="35.0" width="82" height="30" style="fill:#87bcbc;fill-opacity:1.00" />
  <line x1="687" y1="50.0" x2="707" y2="50.0" style="stroke:#999; stroke-width:3;" />
  <line x1="707" y1="50.0" x2="707" y2="50.0" style="stroke:#999; stroke-width:3;" />
  <line x1="707" y1="50.0" x2="707" y2="50.0" style="stroke:#999; stroke-width:3;" />
  <line x1="707" y1="50.0" x2="727" y2="50.0" style="stroke:#999; stroke-width:3;" />
  <rect class="anc_exon" x="727" y="35.0" width="133" height="30" style="fill:#87bcbc;fill-opacity:1.00" />
  <line x1="860" y1="50.0" x2="880" y2="50.0" style="stroke:#999; stroke-width:3;" />
  <line x1="880" y1="50.0" x2="880" y2="50.0" style="stroke:#999; stroke-width:3;" />
  <line x1="880" y1="50.0" x2="880" y2="50.0" style="stroke:#999; stroke-width:3;" />
  <line x1="880" y1="50.0" x2="900" y2="50.0" style="stroke:#999; stroke-width:3;" />
  <rect class="anc_exon" x="900" y="35.0" width="106" height="30" style="fill:#87bcbc;fill-opacity:1.00" />
  <line x1="1006" y1="50.0" x2="1046" y2="50.0" style="stroke:#999; stroke-width:3;" />
  <rect class="anc_exon" x="1046" y="35.0" width="141" height="30" style="fill:#87bcbc;fill-opacity:1.00" />
  <line x1="1187" y1="50.0" x2="1207" y2="50.0" style="stroke:#999; stroke-width:3;" />
  <line x1="1207" y1="50.0" x2="1207" y2="50.0" style="stroke:#999; stroke-width:3;" />
  <line x1="1207" y1="50.0" x2="1207" y2="50.0" style="stroke:#999; stroke-width:3;" />
  <line x1="1207" y1="50.0" x2="1227" y2="50.0" style="stroke:#999; stroke-width:3;" />
  <rect class="anc_exon" x="1227" y="35.0" width="60" height="30" style="fill:#87bcbc;fill-opacity:1.00" />
  <line x1="1287" y1="50.0" x2="1307" y2="50.0" style="stroke:#999; stroke-width:3;" />
  <line x1="1307" y1="50.0" x2="1307" y2="50.0" style="stroke:#999; stroke-width:3;" />
  <line x1="1307" y1="50.0" x2="1307" y2="50.0" style="stroke:#999; stroke-width:3;" />
  <line x1="1307" y1="50.0" x2="1327" y2="50.0" style="stroke:#999; stroke-width:3;" />
  <rect class="anc_exon" x="1327" y="35.0" width="105" height="30" style="fill:#87bcbc;fill-opacity:1.00" />
  <line x1="1432" y1="50.0" x2="1472" y2="50.0" style="stroke:#999; stroke-width:3;" />
  <rect class="anc_exon" x="1472" y="35.0" width="96" height="30" style="fill:#87bcbc;fill-opacity:1.00" />
  <line x1="1568" y1="50.0" x2="1608" y2="50.0" style="stroke:#999; stroke-width:3;" />
  <rect class="anc_exon" x="1608" y="35.0" width="158" height="30" style="fill:#87bcbc;fill-opacity:1.00" />
  <line x1="1766" y1="50.0" x2="1786" y2="50.0" style="stroke:#999; stroke-width:3;" />
  <line x1="1786" y1="50.0" x2="1786" y2="50.0" style="stroke:#999; stroke-width:3;" />
  <line x1="1786" y1="50.0" x2="1786" y2="50.0" style="stroke:#999; stroke-width:3;" />
  <line x1="1786" y1="50.0" x2="1806" y2="50.0" style="stroke:#999; stroke-width:3;" />
  <rect class="anc_exon" x="1806" y="35.0" width="62" height="30" style="fill:#87bcbc;fill-opacity:1.00" />
  <line x1="1868" y1="50.0" x2="1908" y2="50.0" style="stroke:#999; stroke-width:3;" />
  <rect class="anc_exon" x="1908" y="35.0" width="44" height="30" style="fill:#87bcbc;fill-opacity:1.00" />
  <line x1="1952" y1="50.0" x2="1972" y2="50.0" style="stroke:#999; stroke-width:3;" />
  <line x1="1972" y1="50.0" x2="1972" y2="50.0" style="stroke:#999; stroke-width:3;" />
  <line x1="1972" y1="50.0" x2="1972" y2="50.0" style="stroke:#999; stroke-width:3;" />
  <line x1="1972" y1="50.0" x2="1992" y2="50.0" style="stroke:#999; stroke-width:3;" />
  <rect class="anc_exon" x="1992" y="35.0" width="47" height="30" style="fill:#87bcbc;fill-opacity:1.00" />
  <line x1="2039" y1="50.0" x2="2059" y2="50.0" style="stroke:#999; stroke-width:3;" />
  <line x1="2059" y1="50.0" x2="2059" y2="50.0" style="stroke:#999; stroke-width:3;" />
  <line x1="2059" y1="50.0" x2="2059" y2="50.0" style="stroke:#999; stroke-width:3;" />
  <line x1="2059" y1="50.0" x2="2079" y2="50.0" style="stroke:#999; stroke-width:3;" />
  <rect class="anc_exon" x="2079" y="35.0" width="52" height="30" style="fill:#87bcbc;fill-opacity:1.00" />
  <line x1="2131" y1="50.0" x2="2151" y2="50.0" style="stroke:#999; stroke-width:3;" />
  <line x1="2151" y1="50.0" x2="2151" y2="50.0" style="stroke:#999; stroke-width:3;" />
  <line x1="2151" y1="50.0" x2="2151" y2="50.0" style="stroke:#999; stroke-width:3;" />
  <line x1="2151" y1="50.0" x2="2171" y2="50.0" style="stroke:#999; stroke-width:3;" />
  <rect class="anc_exon" x="2171" y="35.0" width="184" height="30" style="fill:#87bcbc;fill-opacity:1.00" />
  <line x1="2355" y1="50.0" x2="2395" y2="50.0" style="stroke:#999; stroke-width:3;" />
  <rect class="anc_exon" x="2395" y="35.0" width="97" height="30" style="fill:#87bcbc;fill-opacity:1.00" />
  <line x1="2492" y1="50.0" x2="2512" y2="50.0" style="stroke:#999; stroke-width:3;" />
  <line x1="2512" y1="50.0" x2="2512" y2="50.0" style="stroke:#999; stroke-width:3;" />
  <line x1="2512" y1="50.0" x2="2512" y2="50.0" style="stroke:#999; stroke-width:3;" />
  <line x1="2512" y1="50.0" x2="2532" y2="50.0" style="stroke:#999; stroke-width:3;" />
  <rect class="anc_exon" x="2532" y="35.0" width="56" height="30" style="fill:#87bcbc;fill-opacity:1.00" />
  <line x1="2588" y1="50.0" x2="2628" y2="50.0" style="stroke:#999; stroke-width:3;" />
  <rect class="anc_exon" x="2628" y="35.0" width="76" height="30" style="fill:#87bcbc;fill-opacity:1.00" />
  <line x1="2704" y1="50.0" x2="2724" y2="50.0" style="stroke:#999; stroke-width:3;" />
  <line x1="2724" y1="50.0" x2="2724" y2="50.0" style="stroke:#999; stroke-width:3;" />
  <line x1="2724" y1="50.0" x2="2724" y2="50.0" style="stroke:#999; stroke-width:3;" />
  <line x1="2724" y1="50.0" x2="2744" y2="50.0" style="stroke:#999; stroke-width:3;" />
  <rect class="anc_exon" x="2744" y="35.0" width="59" height="30" style="fill:#87bcbc;fill-opacity:1.00" />
  <line x1="2803" y1="50.0" x2="2843" y2="50.0" style="stroke:#999; stroke-width:3;" />
  <rect class="anc_exon" x="2843" y="35.0" width="48" height="30" style="fill:#87bcbc;fill-opacity:1.00" />
  <line x1="2891" y1="50.0" x2="2911" y2="50.0" style="stroke:#999; stroke-width:3;" />
  <line x1="2911" y1="50.0" x2="2911" y2="50.0" style="stroke:#999; stroke-width:3;" />
  <line x1="2911" y1="50.0" x2="2911" y2="50.0" style="stroke:#999; stroke-width:3;" />
  <line x1="2911" y1="50.0" x2="2931" y2="50.0" style="stroke:#999; stroke-width:3;" />
  <rect class="anc_exon" x="2931" y="35.0" width="48" height="30" style="fill:#87bcbc;fill-opacity:1.00" />
  <line x1="2979" y1="50.0" x2="3019" y2="50.0" style="stroke:#999; stroke-width:3;" />
  <rect class="anc_exon" x="3019" y="35.0" width="86" height="30" style="fill:#87bcbc;fill-opacity:1.00" />
  <line x1="3105" y1="50.0" x2="3125" y2="50.0" style="stroke:#999; stroke-width:3;" />
  <line x1="3125" y1="50.0" x2="3125" y2="50.0" style="stroke:#999; stroke-width:3;" />
  <line x1="3125" y1="50.0" x2="3125" y2="50.0" style="stroke:#999; stroke-width:3;" />
  <line x1="3125" y1="50.0" x2="3145" y2="50.0" style="stroke:#999; stroke-width:3;" />
  <rect class="anc_exon" x="3145" y="35.0" width="77" height="30" style="fill:#87bcbc;fill-opacity:1.00" />
  <line x1="3222" y1="50.0" x2="3262" y2="50.0" style="stroke:#999; stroke-width:3;" />
  <rect class="anc_exon" x="3262" y="35.0" width="58" height="30" style="fill:#87bcbc;fill-opacity:1.00" />
  <line x1="3320" y1="50.0" x2="3340" y2="50.0" style="stroke:#999; stroke-width:3;" />
  <line x1="3340" y1="50.0" x2="3340" y2="50.0" style="stroke:#999; stroke-width:3;" />
  <line x1="3340" y1="50.0" x2="3340" y2="50.0" style="stroke:#999; stroke-width:3;" />
  <line x1="3340" y1="50.0" x2="3360" y2="50.0" style="stroke:#999; stroke-width:3;" />
  <rect class="anc_exon" x="3360" y="35.0" width="82" height="30" style="fill:#87bcbc;fill-opacity:1.00" />
  <rect class="anc_exon" x="3442" y="35.0" width="0" height="30" style="fill:#87bcbc;fill-opacity:1.00" />
  <text style="" >
<tspan x="0" y="83.0" style="font-size:18px;" >SP XM_012541477_3.1</tspan>  </text>



<script type="text/ecmascript">
<![CDATA[
function draw_bbox(text_id)
{
    var text_elem = document.getElementById(text_id);
    var offset_px = 2;
    var offset_py = 0;
    bbox = text_elem.getBBox();
    var box = document.createElementNS(document.rootElement.namespaceURI,'rect');
    box.setAttribute('x', bbox.x - offset_px);
    box.setAttribute('y', bbox.y - offset_py);
    box.setAttribute('width', bbox.width + offset_px * 2);
    box.setAttribute('height', bbox.height + offset_py * 2);
    box.setAttribute('style','fill: white;'+'stroke: black;'+'stroke-width: 1px;');
    text_elem.insertBefore(box,text_elem.childNodes[0]);

    var svg = text_elem.parentNode;
    svg.appendChild(text_elem);
}

for (var i=1; i < 1; i++)
{
draw_bbox("Mouseover" + i);
}
]]> 
</script>
</svg>
