<svg version="1.1"
xmlns="http://www.w3.org/2000/svg"
xmlns:xlink="http://www.w3.org/1999/xlink"
width="2191" height="100" viewBox = "0 0 2191 100"
onclick="mouseclick(evt)">

<script type="text/ecmascript">

<![CDATA[
    function mouseover(evt, target) { 
    var gv = document.getElementById("globalVariable");
    var previoustarget = gv.firstChild.nodeValue;
    if (previoustarget != "none") 
    {
        	document.getElementById(gv.firstChild.nodeValue).setAttributeNS(null, "visibility", "hidden");
    }
    document.getElementById(target).setAttributeNS(null, "visibility", "visible");
    gv.firstChild.nodeValue = target;
        }

    function mouseclick(evt) { 
    var gv = document.getElementById("globalVariable");
    var previoustarget = gv.firstChild.nodeValue;
    if (previoustarget != "none") {
        	document.getElementById(gv.firstChild.nodeValue).setAttributeNS(null, "visibility", "hidden");
        }
    }
]]>
  </script>
<style type="text/css" >

<![CDATA[
    rect.anc_exon {
              stroke-width:3;
                  }

    rect.non_anc_exon {
              stroke: black; stroke-width:3; stroke-dasharray: 5,5;
                    }

    text {
              font-size: 18px;
              font-family: Courier New;
          }
                    ]]>
</style>

<defs>
    <text x="150" y="40" id="globalVariable">none</text>
</defs>

  <rect class="anc_exon" x="0" y="35.0" width="0" height="30" style="fill:#87bcbc;fill-opacity:1.00" />
  <rect class="anc_exon" x="0" y="35.0" width="96.0" height="30" style="fill:#87bcbc;fill-opacity:1.00" />
  <line x1="96.0" y1="50.0" x2="136.0" y2="50.0" style="stroke:#999; stroke-width:3;" />
  <rect class="anc_exon" x="136" y="35.0" width="108" height="30" style="fill:#87bcbc;fill-opacity:1.00" />
  <line x1="244" y1="50.0" x2="264" y2="50.0" style="stroke:#999; stroke-width:3;" />
  <line x1="264" y1="50.0" x2="264" y2="50.0" style="stroke:#999; stroke-width:3;" />
  <line x1="264" y1="50.0" x2="264" y2="50.0" style="stroke:#999; stroke-width:3;" />
  <line x1="264" y1="50.0" x2="284" y2="50.0" style="stroke:#999; stroke-width:3;" />
  <rect class="anc_exon" x="284" y="35.0" width="39" height="30" style="fill:#87bcbc;fill-opacity:1.00" />
  <line x1="323" y1="50.0" x2="343" y2="50.0" style="stroke:#999; stroke-width:3;" />
  <line x1="343" y1="50.0" x2="343" y2="50.0" style="stroke:#999; stroke-width:3;" />
  <line x1="343" y1="50.0" x2="343" y2="50.0" style="stroke:#999; stroke-width:3;" />
  <line x1="343" y1="50.0" x2="363" y2="50.0" style="stroke:#999; stroke-width:3;" />
  <rect class="anc_exon" x="363" y="35.0" width="79" height="30" style="fill:#87bcbc;fill-opacity:1.00" />
  <line x1="442" y1="50.0" x2="482" y2="50.0" style="stroke:#999; stroke-width:3;" />
  <rect class="anc_exon" x="482" y="35.0" width="48" height="30" style="fill:#87bcbc;fill-opacity:1.00" />
  <line x1="530" y1="50.0" x2="550" y2="50.0" style="stroke:#999; stroke-width:3;" />
  <line x1="550" y1="50.0" x2="550" y2="50.0" style="stroke:#999; stroke-width:3;" />
  <line x1="550" y1="50.0" x2="550" y2="50.0" style="stroke:#999; stroke-width:3;" />
  <line x1="550" y1="50.0" x2="570" y2="50.0" style="stroke:#999; stroke-width:3;" />
  <rect class="anc_exon" x="570" y="35.0" width="48" height="30" style="fill:#87bcbc;fill-opacity:1.00" />
  <line x1="618" y1="50.0" x2="638" y2="50.0" style="stroke:#999; stroke-width:3;" />
  <line x1="638" y1="50.0" x2="638" y2="50.0" style="stroke:#999; stroke-width:3;" />
  <line x1="638" y1="50.0" x2="638" y2="50.0" style="stroke:#999; stroke-width:3;" />
  <line x1="638" y1="50.0" x2="658" y2="50.0" style="stroke:#999; stroke-width:3;" />
  <rect class="anc_exon" x="658" y="35.0" width="49" height="30" style="fill:#87bcbc;fill-opacity:1.00" />
  <line x1="707" y1="50.0" x2="727" y2="50.0" style="stroke:#999; stroke-width:3;" />
  <line x1="727" y1="50.0" x2="727" y2="50.0" style="stroke:#999; stroke-width:3;" />
  <line x1="727" y1="50.0" x2="727" y2="50.0" style="stroke:#999; stroke-width:3;" />
  <line x1="727" y1="50.0" x2="747" y2="50.0" style="stroke:#999; stroke-width:3;" />
  <rect class="anc_exon" x="747" y="35.0" width="111" height="30" style="fill:#87bcbc;fill-opacity:1.00" />
  <line x1="858" y1="50.0" x2="878" y2="50.0" style="stroke:#999; stroke-width:3;" />
  <line x1="878" y1="50.0" x2="878" y2="50.0" style="stroke:#999; stroke-width:3;" />
  <line x1="878" y1="50.0" x2="878" y2="50.0" style="stroke:#999; stroke-width:3;" />
  <line x1="878" y1="50.0" x2="898" y2="50.0" style="stroke:#999; stroke-width:3;" />
  <rect class="anc_exon" x="898" y="35.0" width="50" height="30" style="fill:#87bcbc;fill-opacity:1.00" />
  <line x1="948" y1="50.0" x2="968" y2="50.0" style="stroke:#999; stroke-width:3;" />
  <line x1="968" y1="50.0" x2="968" y2="50.0" style="stroke:#999; stroke-width:3;" />
  <line x1="968" y1="50.0" x2="968" y2="50.0" style="stroke:#999; stroke-width:3;" />
  <line x1="968" y1="50.0" x2="988" y2="50.0" style="stroke:#999; stroke-width:3;" />
  <rect class="anc_exon" x="988" y="35.0" width="115" height="30" style="fill:#87bcbc;fill-opacity:1.00" />
  <line x1="1103" y1="50.0" x2="1143" y2="50.0" style="stroke:#999; stroke-width:3;" />
  <rect class="anc_exon" x="1143" y="35.0" width="32" height="30" style="fill:#87bcbc;fill-opacity:1.00" />
  <line x1="1175" y1="50.0" x2="1195" y2="50.0" style="stroke:#999; stroke-width:3;" />
  <line x1="1195" y1="50.0" x2="1195" y2="50.0" style="stroke:#999; stroke-width:3;" />
  <line x1="1195" y1="50.0" x2="1195" y2="50.0" style="stroke:#999; stroke-width:3;" />
  <line x1="1195" y1="50.0" x2="1215" y2="50.0" style="stroke:#999; stroke-width:3;" />
  <rect class="anc_exon" x="1215" y="35.0" width="64" height="30" style="fill:#87bcbc;fill-opacity:1.00" />
  <line x1="1279" y1="50.0" x2="1299" y2="50.0" style="stroke:#999; stroke-width:3;" />
  <line x1="1299" y1="50.0" x2="1299" y2="50.0" style="stroke:#999; stroke-width:3;" />
  <line x1="1299" y1="50.0" x2="1299" y2="50.0" style="stroke:#999; stroke-width:3;" />
  <line x1="1299" y1="50.0" x2="1319" y2="50.0" style="stroke:#999; stroke-width:3;" />
  <rect class="anc_exon" x="1319" y="35.0" width="43" height="30" style="fill:#87bcbc;fill-opacity:1.00" />
  <line x1="1362" y1="50.0" x2="1382" y2="50.0" style="stroke:#999; stroke-width:3;" />
  <line x1="1382" y1="50.0" x2="1382" y2="50.0" style="stroke:#999; stroke-width:3;" />
  <line x1="1382" y1="50.0" x2="1382" y2="50.0" style="stroke:#999; stroke-width:3;" />
  <line x1="1382" y1="50.0" x2="1402" y2="50.0" style="stroke:#999; stroke-width:3;" />
  <rect class="anc_exon" x="1402" y="35.0" width="78" height="30" style="fill:#87bcbc;fill-opacity:1.00" />
  <line x1="1480" y1="50.0" x2="1500" y2="50.0" style="stroke:#999; stroke-width:3;" />
  <line x1="1500" y1="50.0" x2="1500" y2="50.0" style="stroke:#999; stroke-width:3;" />
  <line x1="1500" y1="50.0" x2="1500" y2="50.0" style="stroke:#999; stroke-width:3;" />
  <line x1="1500" y1="50.0" x2="1520" y2="50.0" style="stroke:#999; stroke-width:3;" />
  <rect class="anc_exon" x="1520" y="35.0" width="101" height="30" style="fill:#87bcbc;fill-opacity:1.00" />
  <line x1="1621" y1="50.0" x2="1641" y2="50.0" style="stroke:#999; stroke-width:3;" />
  <line x1="1641" y1="50.0" x2="1641" y2="50.0" style="stroke:#999; stroke-width:3;" />
  <line x1="1641" y1="50.0" x2="1641" y2="50.0" style="stroke:#999; stroke-width:3;" />
  <line x1="1641" y1="50.0" x2="1661" y2="50.0" style="stroke:#999; stroke-width:3;" />
  <rect class="anc_exon" x="1661" y="35.0" width="131" height="30" style="fill:#87bcbc;fill-opacity:1.00" />
  <line x1="1792" y1="50.0" x2="1812" y2="50.0" style="stroke:#999; stroke-width:3;" />
  <line x1="1812" y1="50.0" x2="1812" y2="50.0" style="stroke:#999; stroke-width:3;" />
  <line x1="1812" y1="50.0" x2="1812" y2="50.0" style="stroke:#999; stroke-width:3;" />
  <line x1="1812" y1="50.0" x2="1832" y2="50.0" style="stroke:#999; stroke-width:3;" />
  <rect class="anc_exon" x="1832" y="35.0" width="100" height="30" style="fill:#87bcbc;fill-opacity:1.00" />
  <line x1="1932" y1="50.0" x2="1952" y2="50.0" style="stroke:#999; stroke-width:3;" />
  <line x1="1952" y1="50.0" x2="1952" y2="50.0" style="stroke:#999; stroke-width:3;" />
  <line x1="1952" y1="50.0" x2="1952" y2="50.0" style="stroke:#999; stroke-width:3;" />
  <line x1="1952" y1="50.0" x2="1972" y2="50.0" style="stroke:#999; stroke-width:3;" />
  <rect class="anc_exon" x="1972" y="35.0" width="48" height="30" style="fill:#87bcbc;fill-opacity:1.00" />
  <line x1="2020" y1="50.0" x2="2040" y2="50.0" style="stroke:#999; stroke-width:3;" />
  <line x1="2040" y1="50.0" x2="2040" y2="50.0" style="stroke:#999; stroke-width:3;" />
  <line x1="2040" y1="50.0" x2="2040" y2="50.0" style="stroke:#999; stroke-width:3;" />
  <line x1="2040" y1="50.0" x2="2060" y2="50.0" style="stroke:#999; stroke-width:3;" />
  <rect class="anc_exon" x="2060" y="35.0" width="95" height="30" style="fill:#87bcbc;fill-opacity:1.00" />
  <rect class="anc_exon" x="2155" y="35.0" width="0" height="30" style="fill:#87bcbc;fill-opacity:1.00" />
  <text style="" >
<tspan x="0" y="83.0" style="font-size:18px;" >SP XM_031943358_1.1</tspan>  </text>



<script type="text/ecmascript">
<![CDATA[
function draw_bbox(text_id)
{
    var text_elem = document.getElementById(text_id);
    var offset_px = 2;
    var offset_py = 0;
    bbox = text_elem.getBBox();
    var box = document.createElementNS(document.rootElement.namespaceURI,'rect');
    box.setAttribute('x', bbox.x - offset_px);
    box.setAttribute('y', bbox.y - offset_py);
    box.setAttribute('width', bbox.width + offset_px * 2);
    box.setAttribute('height', bbox.height + offset_py * 2);
    box.setAttribute('style','fill: white;'+'stroke: black;'+'stroke-width: 1px;');
    text_elem.insertBefore(box,text_elem.childNodes[0]);

    var svg = text_elem.parentNode;
    svg.appendChild(text_elem);
}

for (var i=1; i < 1; i++)
{
draw_bbox("Mouseover" + i);
}
]]> 
</script>
</svg>
