<svg version="1.1"
xmlns="http://www.w3.org/2000/svg"
xmlns:xlink="http://www.w3.org/1999/xlink"
width="4855" height="100" viewBox = "0 0 4855 100"
onclick="mouseclick(evt)">

<script type="text/ecmascript">

<![CDATA[
    function mouseover(evt, target) { 
    var gv = document.getElementById("globalVariable");
    var previoustarget = gv.firstChild.nodeValue;
    if (previoustarget != "none") 
    {
        	document.getElementById(gv.firstChild.nodeValue).setAttributeNS(null, "visibility", "hidden");
    }
    document.getElementById(target).setAttributeNS(null, "visibility", "visible");
    gv.firstChild.nodeValue = target;
        }

    function mouseclick(evt) { 
    var gv = document.getElementById("globalVariable");
    var previoustarget = gv.firstChild.nodeValue;
    if (previoustarget != "none") {
        	document.getElementById(gv.firstChild.nodeValue).setAttributeNS(null, "visibility", "hidden");
        }
    }
]]>
  </script>
<style type="text/css" >

<![CDATA[
    rect.anc_exon {
              stroke-width:3;
                  }

    rect.non_anc_exon {
              stroke: black; stroke-width:3; stroke-dasharray: 5,5;
                    }

    text {
              font-size: 18px;
              font-family: Courier New;
          }
                    ]]>
</style>

<defs>
    <text x="150" y="40" id="globalVariable">none</text>
</defs>

  <rect class="anc_exon" x="0" y="35.0" width="0" height="30" style="fill:#87bcbc;fill-opacity:1.00" />
  <rect class="anc_exon" x="0" y="35.0" width="101.60000000000001" height="30" style="fill:#87bcbc;fill-opacity:1.00" />
  <line x1="101.60000000000001" y1="50.0" x2="120.60000000000001" y2="50.0" style="stroke:#999; stroke-width:3;" />
  <line x1="120.60000000000001" y1="50.0" x2="120.60000000000001" y2="50.0" style="stroke:#999; stroke-width:3;" />
  <line x1="120.60000000000001" y1="50.0" x2="120.60000000000001" y2="50.0" style="stroke:#999; stroke-width:3;" />
  <line x1="120.60000000000001" y1="50.0" x2="141.0" y2="50.0" style="stroke:#999; stroke-width:3;" />
  <rect class="anc_exon" x="141" y="35.0" width="296" height="30" style="fill:#87bcbc;fill-opacity:1.00" />
  <line x1="437" y1="50.0" x2="457" y2="50.0" style="stroke:#999; stroke-width:3;" />
  <line x1="457" y1="50.0" x2="457" y2="50.0" style="stroke:#999; stroke-width:3;" />
  <line x1="457" y1="50.0" x2="457" y2="50.0" style="stroke:#999; stroke-width:3;" />
  <line x1="457" y1="50.0" x2="477" y2="50.0" style="stroke:#999; stroke-width:3;" />
  <rect class="anc_exon" x="477" y="35.0" width="140" height="30" style="fill:#87bcbc;fill-opacity:1.00" />
  <line x1="617" y1="50.0" x2="637" y2="50.0" style="stroke:#999; stroke-width:3;" />
  <line x1="637" y1="50.0" x2="637" y2="50.0" style="stroke:#999; stroke-width:3;" />
  <line x1="637" y1="50.0" x2="637" y2="50.0" style="stroke:#999; stroke-width:3;" />
  <line x1="637" y1="50.0" x2="657" y2="50.0" style="stroke:#999; stroke-width:3;" />
  <rect class="anc_exon" x="657" y="35.0" width="157" height="30" style="fill:#87bcbc;fill-opacity:1.00" />
  <line x1="814" y1="50.0" x2="834" y2="50.0" style="stroke:#999; stroke-width:3;" />
  <line x1="834" y1="50.0" x2="834" y2="50.0" style="stroke:#999; stroke-width:3;" />
  <line x1="834" y1="50.0" x2="834" y2="50.0" style="stroke:#999; stroke-width:3;" />
  <line x1="834" y1="50.0" x2="854" y2="50.0" style="stroke:#999; stroke-width:3;" />
  <rect class="anc_exon" x="854" y="35.0" width="67" height="30" style="fill:#87bcbc;fill-opacity:1.00" />
  <line x1="921" y1="50.0" x2="941" y2="50.0" style="stroke:#999; stroke-width:3;" />
  <line x1="941" y1="50.0" x2="941" y2="50.0" style="stroke:#999; stroke-width:3;" />
  <line x1="941" y1="50.0" x2="941" y2="50.0" style="stroke:#999; stroke-width:3;" />
  <line x1="941" y1="50.0" x2="961" y2="50.0" style="stroke:#999; stroke-width:3;" />
  <rect class="anc_exon" x="961" y="35.0" width="100" height="30" style="fill:#87bcbc;fill-opacity:1.00" />
  <line x1="1061" y1="50.0" x2="1081" y2="50.0" style="stroke:#999; stroke-width:3;" />
  <line x1="1081" y1="50.0" x2="1081" y2="50.0" style="stroke:#999; stroke-width:3;" />
  <line x1="1081" y1="50.0" x2="1081" y2="50.0" style="stroke:#999; stroke-width:3;" />
  <line x1="1081" y1="50.0" x2="1101" y2="50.0" style="stroke:#999; stroke-width:3;" />
  <rect class="anc_exon" x="1101" y="35.0" width="120" height="30" style="fill:#87bcbc;fill-opacity:1.00" />
  <line x1="1221" y1="50.0" x2="1241" y2="50.0" style="stroke:#999; stroke-width:3;" />
  <line x1="1241" y1="50.0" x2="1241" y2="50.0" style="stroke:#999; stroke-width:3;" />
  <line x1="1241" y1="50.0" x2="1241" y2="50.0" style="stroke:#999; stroke-width:3;" />
  <line x1="1241" y1="50.0" x2="1261" y2="50.0" style="stroke:#999; stroke-width:3;" />
  <rect class="anc_exon" x="1261" y="35.0" width="115" height="30" style="fill:#87bcbc;fill-opacity:1.00" />
  <line x1="1376" y1="50.0" x2="1416" y2="50.0" style="stroke:#999; stroke-width:3;" />
  <rect class="anc_exon" x="1416" y="35.0" width="116" height="30" style="fill:#87bcbc;fill-opacity:1.00" />
  <line x1="1532" y1="50.0" x2="1552" y2="50.0" style="stroke:#999; stroke-width:3;" />
  <line x1="1552" y1="50.0" x2="1552" y2="50.0" style="stroke:#999; stroke-width:3;" />
  <line x1="1552" y1="50.0" x2="1552" y2="50.0" style="stroke:#999; stroke-width:3;" />
  <line x1="1552" y1="50.0" x2="1572" y2="50.0" style="stroke:#999; stroke-width:3;" />
  <rect class="anc_exon" x="1572" y="35.0" width="74" height="30" style="fill:#87bcbc;fill-opacity:1.00" />
  <line x1="1646" y1="50.0" x2="1666" y2="50.0" style="stroke:#999; stroke-width:3;" />
  <line x1="1666" y1="50.0" x2="1666" y2="50.0" style="stroke:#999; stroke-width:3;" />
  <line x1="1666" y1="50.0" x2="1666" y2="50.0" style="stroke:#999; stroke-width:3;" />
  <line x1="1666" y1="50.0" x2="1686" y2="50.0" style="stroke:#999; stroke-width:3;" />
  <rect class="anc_exon" x="1686" y="35.0" width="116" height="30" style="fill:#87bcbc;fill-opacity:1.00" />
  <line x1="1802" y1="50.0" x2="1822" y2="50.0" style="stroke:#999; stroke-width:3;" />
  <line x1="1822" y1="50.0" x2="1822" y2="50.0" style="stroke:#999; stroke-width:3;" />
  <line x1="1822" y1="50.0" x2="1822" y2="50.0" style="stroke:#999; stroke-width:3;" />
  <line x1="1822" y1="50.0" x2="1842" y2="50.0" style="stroke:#999; stroke-width:3;" />
  <rect class="anc_exon" x="1842" y="35.0" width="136" height="30" style="fill:#87bcbc;fill-opacity:1.00" />
  <line x1="1978" y1="50.0" x2="1998" y2="50.0" style="stroke:#999; stroke-width:3;" />
  <line x1="1998" y1="50.0" x2="1998" y2="50.0" style="stroke:#999; stroke-width:3;" />
  <line x1="1998" y1="50.0" x2="1998" y2="50.0" style="stroke:#999; stroke-width:3;" />
  <line x1="1998" y1="50.0" x2="2018" y2="50.0" style="stroke:#999; stroke-width:3;" />
  <rect class="anc_exon" x="2018" y="35.0" width="107" height="30" style="fill:#87bcbc;fill-opacity:1.00" />
  <line x1="2125" y1="50.0" x2="2145" y2="50.0" style="stroke:#999; stroke-width:3;" />
  <line x1="2145" y1="50.0" x2="2145" y2="50.0" style="stroke:#999; stroke-width:3;" />
  <line x1="2145" y1="50.0" x2="2145" y2="50.0" style="stroke:#999; stroke-width:3;" />
  <line x1="2145" y1="50.0" x2="2165" y2="50.0" style="stroke:#999; stroke-width:3;" />
  <rect class="anc_exon" x="2165" y="35.0" width="96" height="30" style="fill:#87bcbc;fill-opacity:1.00" />
  <line x1="2261" y1="50.0" x2="2281" y2="50.0" style="stroke:#999; stroke-width:3;" />
  <line x1="2281" y1="50.0" x2="2281" y2="50.0" style="stroke:#999; stroke-width:3;" />
  <line x1="2281" y1="50.0" x2="2281" y2="50.0" style="stroke:#999; stroke-width:3;" />
  <line x1="2281" y1="50.0" x2="2301" y2="50.0" style="stroke:#999; stroke-width:3;" />
  <rect class="anc_exon" x="2301" y="35.0" width="196" height="30" style="fill:#87bcbc;fill-opacity:1.00" />
  <line x1="2497" y1="50.0" x2="2537" y2="50.0" style="stroke:#999; stroke-width:3;" />
  <rect class="anc_exon" x="2537" y="35.0" width="113" height="30" style="fill:#87bcbc;fill-opacity:1.00" />
  <line x1="2650" y1="50.0" x2="2670" y2="50.0" style="stroke:#999; stroke-width:3;" />
  <line x1="2670" y1="50.0" x2="2670" y2="50.0" style="stroke:#999; stroke-width:3;" />
  <line x1="2670" y1="50.0" x2="2670" y2="50.0" style="stroke:#999; stroke-width:3;" />
  <line x1="2670" y1="50.0" x2="2690" y2="50.0" style="stroke:#999; stroke-width:3;" />
  <rect class="anc_exon" x="2690" y="35.0" width="101" height="30" style="fill:#87bcbc;fill-opacity:1.00" />
  <line x1="2791" y1="50.0" x2="2811" y2="50.0" style="stroke:#999; stroke-width:3;" />
  <line x1="2811" y1="50.0" x2="2811" y2="50.0" style="stroke:#999; stroke-width:3;" />
  <line x1="2811" y1="50.0" x2="2811" y2="50.0" style="stroke:#999; stroke-width:3;" />
  <line x1="2811" y1="50.0" x2="2831" y2="50.0" style="stroke:#999; stroke-width:3;" />
  <rect class="anc_exon" x="2831" y="35.0" width="168" height="30" style="fill:#87bcbc;fill-opacity:1.00" />
  <line x1="2999" y1="50.0" x2="3019" y2="50.0" style="stroke:#999; stroke-width:3;" />
  <line x1="3019" y1="50.0" x2="3019" y2="50.0" style="stroke:#999; stroke-width:3;" />
  <line x1="3019" y1="50.0" x2="3019" y2="50.0" style="stroke:#999; stroke-width:3;" />
  <line x1="3019" y1="50.0" x2="3039" y2="50.0" style="stroke:#999; stroke-width:3;" />
  <rect class="anc_exon" x="3039" y="35.0" width="938" height="30" style="fill:#87bcbc;fill-opacity:1.00" />
  <line x1="3977" y1="50.0" x2="3997" y2="50.0" style="stroke:#999; stroke-width:3;" />
  <line x1="3997" y1="50.0" x2="3997" y2="50.0" style="stroke:#999; stroke-width:3;" />
  <line x1="3997" y1="50.0" x2="3997" y2="50.0" style="stroke:#999; stroke-width:3;" />
  <line x1="3997" y1="50.0" x2="4017" y2="50.0" style="stroke:#999; stroke-width:3;" />
  <rect class="anc_exon" x="4017" y="35.0" width="122" height="30" style="fill:#87bcbc;fill-opacity:1.00" />
  <line x1="4139" y1="50.0" x2="4159" y2="50.0" style="stroke:#999; stroke-width:3;" />
  <line x1="4159" y1="50.0" x2="4159" y2="50.0" style="stroke:#999; stroke-width:3;" />
  <line x1="4159" y1="50.0" x2="4159" y2="50.0" style="stroke:#999; stroke-width:3;" />
  <line x1="4159" y1="50.0" x2="4179" y2="50.0" style="stroke:#999; stroke-width:3;" />
  <rect class="anc_exon" x="4179" y="35.0" width="139" height="30" style="fill:#87bcbc;fill-opacity:1.00" />
  <line x1="4318" y1="50.0" x2="4338" y2="50.0" style="stroke:#999; stroke-width:3;" />
  <line x1="4338" y1="50.0" x2="4338" y2="50.0" style="stroke:#999; stroke-width:3;" />
  <line x1="4338" y1="50.0" x2="4338" y2="50.0" style="stroke:#999; stroke-width:3;" />
  <line x1="4338" y1="50.0" x2="4358" y2="50.0" style="stroke:#999; stroke-width:3;" />
  <rect class="anc_exon" x="4358" y="35.0" width="115" height="30" style="fill:#87bcbc;fill-opacity:1.00" />
  <line x1="4473" y1="50.0" x2="4493" y2="50.0" style="stroke:#999; stroke-width:3;" />
  <line x1="4493" y1="50.0" x2="4493" y2="50.0" style="stroke:#999; stroke-width:3;" />
  <line x1="4493" y1="50.0" x2="4493" y2="50.0" style="stroke:#999; stroke-width:3;" />
  <line x1="4493" y1="50.0" x2="4513" y2="50.0" style="stroke:#999; stroke-width:3;" />
  <rect class="anc_exon" x="4513" y="35.0" width="123" height="30" style="fill:#87bcbc;fill-opacity:1.00" />
  <line x1="4636" y1="50.0" x2="4656" y2="50.0" style="stroke:#999; stroke-width:3;" />
  <line x1="4656" y1="50.0" x2="4656" y2="50.0" style="stroke:#999; stroke-width:3;" />
  <line x1="4656" y1="50.0" x2="4656" y2="50.0" style="stroke:#999; stroke-width:3;" />
  <line x1="4656" y1="50.0" x2="4676" y2="50.0" style="stroke:#999; stroke-width:3;" />
  <rect class="anc_exon" x="4676" y="35.0" width="143" height="30" style="fill:#87bcbc;fill-opacity:1.00" />
  <rect class="anc_exon" x="4819" y="35.0" width="0" height="30" style="fill:#87bcbc;fill-opacity:1.00" />
  <text style="" >
<tspan x="0" y="83.0" style="font-size:18px;" >SP XM_031945878_1.1</tspan>  </text>



<script type="text/ecmascript">
<![CDATA[
function draw_bbox(text_id)
{
    var text_elem = document.getElementById(text_id);
    var offset_px = 2;
    var offset_py = 0;
    bbox = text_elem.getBBox();
    var box = document.createElementNS(document.rootElement.namespaceURI,'rect');
    box.setAttribute('x', bbox.x - offset_px);
    box.setAttribute('y', bbox.y - offset_py);
    box.setAttribute('width', bbox.width + offset_px * 2);
    box.setAttribute('height', bbox.height + offset_py * 2);
    box.setAttribute('style','fill: white;'+'stroke: black;'+'stroke-width: 1px;');
    text_elem.insertBefore(box,text_elem.childNodes[0]);

    var svg = text_elem.parentNode;
    svg.appendChild(text_elem);
}

for (var i=1; i < 1; i++)
{
draw_bbox("Mouseover" + i);
}
]]> 
</script>
</svg>
