<svg version="1.1"
xmlns="http://www.w3.org/2000/svg"
xmlns:xlink="http://www.w3.org/1999/xlink"
width="1148" height="100" viewBox = "0 0 1148 100"
onclick="mouseclick(evt)">

<script type="text/ecmascript">

<![CDATA[
    function mouseover(evt, target) { 
    var gv = document.getElementById("globalVariable");
    var previoustarget = gv.firstChild.nodeValue;
    if (previoustarget != "none") 
    {
        	document.getElementById(gv.firstChild.nodeValue).setAttributeNS(null, "visibility", "hidden");
    }
    document.getElementById(target).setAttributeNS(null, "visibility", "visible");
    gv.firstChild.nodeValue = target;
        }

    function mouseclick(evt) { 
    var gv = document.getElementById("globalVariable");
    var previoustarget = gv.firstChild.nodeValue;
    if (previoustarget != "none") {
        	document.getElementById(gv.firstChild.nodeValue).setAttributeNS(null, "visibility", "hidden");
        }
    }
]]>
  </script>
<style type="text/css" >

<![CDATA[
    rect.anc_exon {
              stroke-width:3;
                  }

    rect.non_anc_exon {
              stroke: black; stroke-width:3; stroke-dasharray: 5,5;
                    }

    text {
              font-size: 18px;
              font-family: Courier New;
          }
                    ]]>
</style>

<defs>
    <text x="150" y="40" id="globalVariable">none</text>
</defs>

  <rect class="anc_exon" x="0" y="35.0" width="0" height="30" style="fill:#87bcbc;fill-opacity:1.00" />
  <rect class="anc_exon" x="0" y="35.0" width="103.2" height="30" style="fill:#87bcbc;fill-opacity:1.00" />
  <line x1="103.2" y1="50.0" x2="122.2" y2="50.0" style="stroke:#999; stroke-width:3;" />
  <line x1="122.2" y1="50.0" x2="122.2" y2="50.0" style="stroke:#999; stroke-width:3;" />
  <line x1="122.2" y1="50.0" x2="122.2" y2="50.0" style="stroke:#999; stroke-width:3;" />
  <line x1="122.2" y1="50.0" x2="143.0" y2="50.0" style="stroke:#999; stroke-width:3;" />
  <rect class="anc_exon" x="143" y="35.0" width="94" height="30" style="fill:#87bcbc;fill-opacity:1.00" />
  <line x1="237" y1="50.0" x2="257" y2="50.0" style="stroke:#999; stroke-width:3;" />
  <line x1="257" y1="50.0" x2="257" y2="50.0" style="stroke:#999; stroke-width:3;" />
  <line x1="257" y1="50.0" x2="257" y2="50.0" style="stroke:#999; stroke-width:3;" />
  <line x1="257" y1="50.0" x2="277" y2="50.0" style="stroke:#999; stroke-width:3;" />
  <rect class="anc_exon" x="277" y="35.0" width="70" height="30" style="fill:#87bcbc;fill-opacity:1.00" />
  <line x1="347" y1="50.0" x2="367" y2="50.0" style="stroke:#999; stroke-width:3;" />
  <line x1="367" y1="50.0" x2="367" y2="50.0" style="stroke:#999; stroke-width:3;" />
  <line x1="367" y1="50.0" x2="367" y2="50.0" style="stroke:#999; stroke-width:3;" />
  <line x1="367" y1="50.0" x2="387" y2="50.0" style="stroke:#999; stroke-width:3;" />
  <rect class="anc_exon" x="387" y="35.0" width="128" height="30" style="fill:#87bcbc;fill-opacity:1.00" />
  <line x1="515" y1="50.0" x2="555" y2="50.0" style="stroke:#999; stroke-width:3;" />
  <rect class="anc_exon" x="555" y="35.0" width="72" height="30" style="fill:#87bcbc;fill-opacity:1.00" />
  <line x1="627" y1="50.0" x2="647" y2="50.0" style="stroke:#999; stroke-width:3;" />
  <line x1="647" y1="50.0" x2="647" y2="50.0" style="stroke:#999; stroke-width:3;" />
  <line x1="647" y1="50.0" x2="647" y2="50.0" style="stroke:#999; stroke-width:3;" />
  <line x1="647" y1="50.0" x2="667" y2="50.0" style="stroke:#999; stroke-width:3;" />
  <rect class="anc_exon" x="667" y="35.0" width="44" height="30" style="fill:#87bcbc;fill-opacity:1.00" />
  <line x1="711" y1="50.0" x2="751" y2="50.0" style="stroke:#999; stroke-width:3;" />
  <rect class="anc_exon" x="751" y="35.0" width="70" height="30" style="fill:#87bcbc;fill-opacity:1.00" />
  <line x1="821" y1="50.0" x2="841" y2="50.0" style="stroke:#999; stroke-width:3;" />
  <line x1="841" y1="50.0" x2="841" y2="50.0" style="stroke:#999; stroke-width:3;" />
  <line x1="841" y1="50.0" x2="841" y2="50.0" style="stroke:#999; stroke-width:3;" />
  <line x1="841" y1="50.0" x2="861" y2="50.0" style="stroke:#999; stroke-width:3;" />
  <rect class="anc_exon" x="861" y="35.0" width="24" height="30" style="fill:#87bcbc;fill-opacity:1.00" />
  <line x1="885" y1="50.0" x2="925" y2="50.0" style="stroke:#999; stroke-width:3;" />
  <rect class="anc_exon" x="925" y="35.0" width="107" height="30" style="fill:#87bcbc;fill-opacity:1.00" />
  <line x1="1032" y1="50.0" x2="1072" y2="50.0" style="stroke:#999; stroke-width:3;" />
  <rect class="anc_exon" x="1072" y="35.0" width="40" height="30" style="fill:#87bcbc;fill-opacity:1.00" />
  <rect class="anc_exon" x="1112" y="35.0" width="0" height="30" style="fill:#87bcbc;fill-opacity:1.00" />
  <text style="" >
<tspan x="0" y="83.0" style="font-size:18px;" >SP XM_031946953_1.1</tspan>  </text>



<script type="text/ecmascript">
<![CDATA[
function draw_bbox(text_id)
{
    var text_elem = document.getElementById(text_id);
    var offset_px = 2;
    var offset_py = 0;
    bbox = text_elem.getBBox();
    var box = document.createElementNS(document.rootElement.namespaceURI,'rect');
    box.setAttribute('x', bbox.x - offset_px);
    box.setAttribute('y', bbox.y - offset_py);
    box.setAttribute('width', bbox.width + offset_px * 2);
    box.setAttribute('height', bbox.height + offset_py * 2);
    box.setAttribute('style','fill: white;'+'stroke: black;'+'stroke-width: 1px;');
    text_elem.insertBefore(box,text_elem.childNodes[0]);

    var svg = text_elem.parentNode;
    svg.appendChild(text_elem);
}

for (var i=1; i < 1; i++)
{
draw_bbox("Mouseover" + i);
}
]]> 
</script>
</svg>
