<svg version="1.1"
xmlns="http://www.w3.org/2000/svg"
xmlns:xlink="http://www.w3.org/1999/xlink"
width="2558" height="100" viewBox = "0 0 2558 100"
onclick="mouseclick(evt)">

<script type="text/ecmascript">

<![CDATA[
    function mouseover(evt, target) { 
    var gv = document.getElementById("globalVariable");
    var previoustarget = gv.firstChild.nodeValue;
    if (previoustarget != "none") 
    {
        	document.getElementById(gv.firstChild.nodeValue).setAttributeNS(null, "visibility", "hidden");
    }
    document.getElementById(target).setAttributeNS(null, "visibility", "visible");
    gv.firstChild.nodeValue = target;
        }

    function mouseclick(evt) { 
    var gv = document.getElementById("globalVariable");
    var previoustarget = gv.firstChild.nodeValue;
    if (previoustarget != "none") {
        	document.getElementById(gv.firstChild.nodeValue).setAttributeNS(null, "visibility", "hidden");
        }
    }
]]>
  </script>
<style type="text/css" >

<![CDATA[
    rect.anc_exon {
              stroke-width:3;
                  }

    rect.non_anc_exon {
              stroke: black; stroke-width:3; stroke-dasharray: 5,5;
                    }

    text {
              font-size: 18px;
              font-family: Courier New;
          }
                    ]]>
</style>

<defs>
    <text x="150" y="40" id="globalVariable">none</text>
</defs>

  <rect class="anc_exon" x="0" y="35.0" width="0" height="30" style="fill:#87bcbc;fill-opacity:1.00" />
  <rect class="anc_exon" x="0" y="35.0" width="93.60000000000001" height="30" style="fill:#87bcbc;fill-opacity:1.00" />
  <line x1="93.60000000000001" y1="50.0" x2="112.60000000000001" y2="50.0" style="stroke:#999; stroke-width:3;" />
  <line x1="112.60000000000001" y1="50.0" x2="112.60000000000001" y2="50.0" style="stroke:#999; stroke-width:3;" />
  <line x1="112.60000000000001" y1="50.0" x2="112.60000000000001" y2="50.0" style="stroke:#999; stroke-width:3;" />
  <line x1="112.60000000000001" y1="50.0" x2="133.0" y2="50.0" style="stroke:#999; stroke-width:3;" />
  <rect class="anc_exon" x="133" y="35.0" width="96" height="30" style="fill:#87bcbc;fill-opacity:1.00" />
  <line x1="229" y1="50.0" x2="269" y2="50.0" style="stroke:#999; stroke-width:3;" />
  <rect class="anc_exon" x="269" y="35.0" width="172" height="30" style="fill:#87bcbc;fill-opacity:1.00" />
  <line x1="441" y1="50.0" x2="461" y2="50.0" style="stroke:#999; stroke-width:3;" />
  <line x1="461" y1="50.0" x2="461" y2="50.0" style="stroke:#999; stroke-width:3;" />
  <line x1="461" y1="50.0" x2="461" y2="50.0" style="stroke:#999; stroke-width:3;" />
  <line x1="461" y1="50.0" x2="481" y2="50.0" style="stroke:#999; stroke-width:3;" />
  <rect class="anc_exon" x="481" y="35.0" width="204" height="30" style="fill:#87bcbc;fill-opacity:1.00" />
  <line x1="685" y1="50.0" x2="705" y2="50.0" style="stroke:#999; stroke-width:3;" />
  <line x1="705" y1="50.0" x2="705" y2="50.0" style="stroke:#999; stroke-width:3;" />
  <line x1="705" y1="50.0" x2="705" y2="50.0" style="stroke:#999; stroke-width:3;" />
  <line x1="705" y1="50.0" x2="725" y2="50.0" style="stroke:#999; stroke-width:3;" />
  <rect class="anc_exon" x="725" y="35.0" width="313" height="30" style="fill:#87bcbc;fill-opacity:1.00" />
  <line x1="1038" y1="50.0" x2="1058" y2="50.0" style="stroke:#999; stroke-width:3;" />
  <line x1="1058" y1="50.0" x2="1058" y2="50.0" style="stroke:#999; stroke-width:3;" />
  <line x1="1058" y1="50.0" x2="1058" y2="50.0" style="stroke:#999; stroke-width:3;" />
  <line x1="1058" y1="50.0" x2="1078" y2="50.0" style="stroke:#999; stroke-width:3;" />
  <rect class="anc_exon" x="1078" y="35.0" width="49" height="30" style="fill:#878787;fill-opacity:1.00" />
  <line x1="1127" y1="50.0" x2="1147" y2="50.0" style="stroke:#999; stroke-width:3;" />
  <line x1="1147" y1="50.0" x2="1147" y2="50.0" style="stroke:#999; stroke-width:3;" />
  <line x1="1147" y1="50.0" x2="1147" y2="50.0" style="stroke:#999; stroke-width:3;" />
  <line x1="1147" y1="50.0" x2="1167" y2="50.0" style="stroke:#999; stroke-width:3;" />
  <rect class="anc_exon" x="1167" y="35.0" width="92" height="30" style="fill:#878787;fill-opacity:1.00" />
  <line x1="1259" y1="50.0" x2="1279" y2="50.0" style="stroke:#999; stroke-width:3;" />
  <line x1="1279" y1="50.0" x2="1279" y2="50.0" style="stroke:#999; stroke-width:3;" />
  <line x1="1279" y1="50.0" x2="1279" y2="50.0" style="stroke:#999; stroke-width:3;" />
  <line x1="1279" y1="50.0" x2="1299" y2="50.0" style="stroke:#999; stroke-width:3;" />
  <rect class="anc_exon" x="1299" y="35.0" width="93" height="30" style="fill:#87bcbc;fill-opacity:1.00" />
  <line x1="1392" y1="50.0" x2="1432" y2="50.0" style="stroke:#999; stroke-width:3;" />
  <rect class="anc_exon" x="1432" y="35.0" width="71" height="30" style="fill:#878787;fill-opacity:1.00" />
  <line x1="1503" y1="50.0" x2="1523" y2="50.0" style="stroke:#999; stroke-width:3;" />
  <line x1="1523" y1="50.0" x2="1523" y2="50.0" style="stroke:#999; stroke-width:3;" />
  <line x1="1523" y1="50.0" x2="1523" y2="50.0" style="stroke:#999; stroke-width:3;" />
  <line x1="1523" y1="50.0" x2="1543" y2="50.0" style="stroke:#999; stroke-width:3;" />
  <rect class="anc_exon" x="1543" y="35.0" width="81" height="30" style="fill:#87bcbc;fill-opacity:1.00" />
  <line x1="1624" y1="50.0" x2="1644" y2="50.0" style="stroke:#999; stroke-width:3;" />
  <line x1="1644" y1="50.0" x2="1644" y2="50.0" style="stroke:#999; stroke-width:3;" />
  <line x1="1644" y1="50.0" x2="1644" y2="50.0" style="stroke:#999; stroke-width:3;" />
  <line x1="1644" y1="50.0" x2="1664" y2="50.0" style="stroke:#999; stroke-width:3;" />
  <rect class="anc_exon" x="1664" y="35.0" width="51" height="30" style="fill:#878787;fill-opacity:1.00" />
  <line x1="1715" y1="50.0" x2="1755" y2="50.0" style="stroke:#999; stroke-width:3;" />
  <rect class="anc_exon" x="1755" y="35.0" width="52" height="30" style="fill:#878787;fill-opacity:1.00" />
  <line x1="1807" y1="50.0" x2="1827" y2="50.0" style="stroke:#999; stroke-width:3;" />
  <line x1="1827" y1="50.0" x2="1827" y2="50.0" style="stroke:#999; stroke-width:3;" />
  <line x1="1827" y1="50.0" x2="1827" y2="50.0" style="stroke:#999; stroke-width:3;" />
  <line x1="1827" y1="50.0" x2="1847" y2="50.0" style="stroke:#999; stroke-width:3;" />
  <rect class="anc_exon" x="1847" y="35.0" width="54" height="30" style="fill:#878787;fill-opacity:1.00" />
  <line x1="1901" y1="50.0" x2="1921" y2="50.0" style="stroke:#999; stroke-width:3;" />
  <line x1="1921" y1="50.0" x2="1921" y2="50.0" style="stroke:#999; stroke-width:3;" />
  <line x1="1921" y1="50.0" x2="1921" y2="50.0" style="stroke:#999; stroke-width:3;" />
  <line x1="1921" y1="50.0" x2="1941" y2="50.0" style="stroke:#999; stroke-width:3;" />
  <rect class="anc_exon" x="1941" y="35.0" width="51" height="30" style="fill:#878787;fill-opacity:1.00" />
  <line x1="1992" y1="50.0" x2="2012" y2="50.0" style="stroke:#999; stroke-width:3;" />
  <line x1="2012" y1="50.0" x2="2012" y2="50.0" style="stroke:#999; stroke-width:3;" />
  <line x1="2012" y1="50.0" x2="2012" y2="50.0" style="stroke:#999; stroke-width:3;" />
  <line x1="2012" y1="50.0" x2="2032" y2="50.0" style="stroke:#999; stroke-width:3;" />
  <rect class="anc_exon" x="2032" y="35.0" width="129" height="30" style="fill:#878787;fill-opacity:1.00" />
  <line x1="2161" y1="50.0" x2="2181" y2="50.0" style="stroke:#999; stroke-width:3;" />
  <line x1="2181" y1="50.0" x2="2181" y2="50.0" style="stroke:#999; stroke-width:3;" />
  <line x1="2181" y1="50.0" x2="2181" y2="50.0" style="stroke:#999; stroke-width:3;" />
  <line x1="2181" y1="50.0" x2="2201" y2="50.0" style="stroke:#999; stroke-width:3;" />
  <rect class="anc_exon" x="2201" y="35.0" width="144" height="30" style="fill:#878787;fill-opacity:1.00" />
  <line x1="2345" y1="50.0" x2="2385" y2="50.0" style="stroke:#999; stroke-width:3;" />
  <rect class="anc_exon" x="2385" y="35.0" width="58" height="30" style="fill:#878787;fill-opacity:1.00" />
  <line x1="2443" y1="50.0" x2="2463" y2="50.0" style="stroke:#999; stroke-width:3;" />
  <line x1="2463" y1="50.0" x2="2463" y2="50.0" style="stroke:#999; stroke-width:3;" />
  <line x1="2463" y1="50.0" x2="2463" y2="50.0" style="stroke:#999; stroke-width:3;" />
  <line x1="2463" y1="50.0" x2="2483" y2="50.0" style="stroke:#999; stroke-width:3;" />
  <rect class="anc_exon" x="2483" y="35.0" width="39" height="30" style="fill:#87bcbc;fill-opacity:1.00" />
  <rect class="anc_exon" x="2522" y="35.0" width="0" height="30" style="fill:#87bcbc;fill-opacity:1.00" />
  <text style="" >
<tspan x="0" y="83.0" style="font-size:18px;" >SP XM_031951628_1.1</tspan>  </text>



<script type="text/ecmascript">
<![CDATA[
function draw_bbox(text_id)
{
    var text_elem = document.getElementById(text_id);
    var offset_px = 2;
    var offset_py = 0;
    bbox = text_elem.getBBox();
    var box = document.createElementNS(document.rootElement.namespaceURI,'rect');
    box.setAttribute('x', bbox.x - offset_px);
    box.setAttribute('y', bbox.y - offset_py);
    box.setAttribute('width', bbox.width + offset_px * 2);
    box.setAttribute('height', bbox.height + offset_py * 2);
    box.setAttribute('style','fill: white;'+'stroke: black;'+'stroke-width: 1px;');
    text_elem.insertBefore(box,text_elem.childNodes[0]);

    var svg = text_elem.parentNode;
    svg.appendChild(text_elem);
}

for (var i=1; i < 1; i++)
{
draw_bbox("Mouseover" + i);
}
]]> 
</script>
</svg>
