<svg version="1.1"
xmlns="http://www.w3.org/2000/svg"
xmlns:xlink="http://www.w3.org/1999/xlink"
width="1541" height="100" viewBox = "0 0 1541 100"
onclick="mouseclick(evt)">

<script type="text/ecmascript">

<![CDATA[
    function mouseover(evt, target) { 
    var gv = document.getElementById("globalVariable");
    var previoustarget = gv.firstChild.nodeValue;
    if (previoustarget != "none") 
    {
        	document.getElementById(gv.firstChild.nodeValue).setAttributeNS(null, "visibility", "hidden");
    }
    document.getElementById(target).setAttributeNS(null, "visibility", "visible");
    gv.firstChild.nodeValue = target;
        }

    function mouseclick(evt) { 
    var gv = document.getElementById("globalVariable");
    var previoustarget = gv.firstChild.nodeValue;
    if (previoustarget != "none") {
        	document.getElementById(gv.firstChild.nodeValue).setAttributeNS(null, "visibility", "hidden");
        }
    }
]]>
  </script>
<style type="text/css" >

<![CDATA[
    rect.anc_exon {
              stroke-width:3;
                  }

    rect.non_anc_exon {
              stroke: black; stroke-width:3; stroke-dasharray: 5,5;
                    }

    text {
              font-size: 18px;
              font-family: Courier New;
          }
                    ]]>
</style>

<defs>
    <text x="150" y="40" id="globalVariable">none</text>
</defs>

  <rect class="anc_exon" x="0" y="35.0" width="0" height="30" style="fill:#87bcbc;fill-opacity:1.00" />
  <rect class="anc_exon" x="0" y="35.0" width="13.600000000000001" height="30" style="fill:#87bcbc;fill-opacity:1.00" />
  <line x1="13.600000000000001" y1="50.0" x2="32.6" y2="50.0" style="stroke:#999; stroke-width:3;" />
  <line x1="32.6" y1="50.0" x2="32.6" y2="50.0" style="stroke:#999; stroke-width:3;" />
  <line x1="32.6" y1="50.0" x2="32.6" y2="50.0" style="stroke:#999; stroke-width:3;" />
  <line x1="32.6" y1="50.0" x2="53.0" y2="50.0" style="stroke:#999; stroke-width:3;" />
  <rect class="anc_exon" x="53" y="35.0" width="131" height="30" style="fill:#87bcbc;fill-opacity:1.00" />
  <line x1="184" y1="50.0" x2="224" y2="50.0" style="stroke:#999; stroke-width:3;" />
  <rect class="anc_exon" x="224" y="35.0" width="79" height="30" style="fill:#87bcbc;fill-opacity:1.00" />
  <line x1="303" y1="50.0" x2="323" y2="50.0" style="stroke:#999; stroke-width:3;" />
  <line x1="323" y1="50.0" x2="323" y2="50.0" style="stroke:#999; stroke-width:3;" />
  <line x1="323" y1="50.0" x2="323" y2="50.0" style="stroke:#999; stroke-width:3;" />
  <line x1="323" y1="50.0" x2="343" y2="50.0" style="stroke:#999; stroke-width:3;" />
  <rect class="anc_exon" x="343" y="35.0" width="92" height="30" style="fill:#87bcbc;fill-opacity:1.00" />
  <line x1="435" y1="50.0" x2="455" y2="50.0" style="stroke:#999; stroke-width:3;" />
  <line x1="455" y1="50.0" x2="455" y2="50.0" style="stroke:#999; stroke-width:3;" />
  <line x1="455" y1="50.0" x2="455" y2="50.0" style="stroke:#999; stroke-width:3;" />
  <line x1="455" y1="50.0" x2="475" y2="50.0" style="stroke:#999; stroke-width:3;" />
  <rect class="anc_exon" x="475" y="35.0" width="83" height="30" style="fill:#87bcbc;fill-opacity:1.00" />
  <line x1="558" y1="50.0" x2="578" y2="50.0" style="stroke:#999; stroke-width:3;" />
  <line x1="578" y1="50.0" x2="578" y2="50.0" style="stroke:#999; stroke-width:3;" />
  <line x1="578" y1="50.0" x2="578" y2="50.0" style="stroke:#999; stroke-width:3;" />
  <line x1="578" y1="50.0" x2="598" y2="50.0" style="stroke:#999; stroke-width:3;" />
  <rect class="anc_exon" x="598" y="35.0" width="79" height="30" style="fill:#87bcbc;fill-opacity:1.00" />
  <line x1="677" y1="50.0" x2="697" y2="50.0" style="stroke:#999; stroke-width:3;" />
  <line x1="697" y1="50.0" x2="697" y2="50.0" style="stroke:#999; stroke-width:3;" />
  <line x1="697" y1="50.0" x2="697" y2="50.0" style="stroke:#999; stroke-width:3;" />
  <line x1="697" y1="50.0" x2="717" y2="50.0" style="stroke:#999; stroke-width:3;" />
  <rect class="anc_exon" x="717" y="35.0" width="156" height="30" style="fill:#87bcbc;fill-opacity:1.00" />
  <line x1="873" y1="50.0" x2="913" y2="50.0" style="stroke:#999; stroke-width:3;" />
  <rect class="anc_exon" x="913" y="35.0" width="60" height="30" style="fill:#87bcbc;fill-opacity:1.00" />
  <line x1="973" y1="50.0" x2="1013" y2="50.0" style="stroke:#999; stroke-width:3;" />
  <rect class="anc_exon" x="1013" y="35.0" width="57" height="30" style="fill:#87bcbc;fill-opacity:1.00" />
  <line x1="1070" y1="50.0" x2="1110" y2="50.0" style="stroke:#999; stroke-width:3;" />
  <rect class="anc_exon" x="1110" y="35.0" width="122" height="30" style="fill:#87bcbc;fill-opacity:1.00" />
  <line x1="1232" y1="50.0" x2="1272" y2="50.0" style="stroke:#999; stroke-width:3;" />
  <rect class="anc_exon" x="1272" y="35.0" width="103" height="30" style="fill:#87bcbc;fill-opacity:1.00" />
  <line x1="1375" y1="50.0" x2="1395" y2="50.0" style="stroke:#999; stroke-width:3;" />
  <line x1="1395" y1="50.0" x2="1395" y2="50.0" style="stroke:#999; stroke-width:3;" />
  <line x1="1395" y1="50.0" x2="1395" y2="50.0" style="stroke:#999; stroke-width:3;" />
  <line x1="1395" y1="50.0" x2="1415" y2="50.0" style="stroke:#999; stroke-width:3;" />
  <rect class="anc_exon" x="1415" y="35.0" width="90" height="30" style="fill:#87bcbc;fill-opacity:1.00" />
  <rect class="anc_exon" x="1505" y="35.0" width="0" height="30" style="fill:#87bcbc;fill-opacity:1.00" />
  <text style="" >
<tspan x="0" y="83.0" style="font-size:18px;" >SP XM_031942953_1.1</tspan>  </text>



<script type="text/ecmascript">
<![CDATA[
function draw_bbox(text_id)
{
    var text_elem = document.getElementById(text_id);
    var offset_px = 2;
    var offset_py = 0;
    bbox = text_elem.getBBox();
    var box = document.createElementNS(document.rootElement.namespaceURI,'rect');
    box.setAttribute('x', bbox.x - offset_px);
    box.setAttribute('y', bbox.y - offset_py);
    box.setAttribute('width', bbox.width + offset_px * 2);
    box.setAttribute('height', bbox.height + offset_py * 2);
    box.setAttribute('style','fill: white;'+'stroke: black;'+'stroke-width: 1px;');
    text_elem.insertBefore(box,text_elem.childNodes[0]);

    var svg = text_elem.parentNode;
    svg.appendChild(text_elem);
}

for (var i=1; i < 1; i++)
{
draw_bbox("Mouseover" + i);
}
]]> 
</script>
</svg>
