<svg version="1.1"
xmlns="http://www.w3.org/2000/svg"
xmlns:xlink="http://www.w3.org/1999/xlink"
width="4066" height="100" viewBox = "0 0 4066 100"
onclick="mouseclick(evt)">

<script type="text/ecmascript">

<![CDATA[
    function mouseover(evt, target) { 
    var gv = document.getElementById("globalVariable");
    var previoustarget = gv.firstChild.nodeValue;
    if (previoustarget != "none") 
    {
        	document.getElementById(gv.firstChild.nodeValue).setAttributeNS(null, "visibility", "hidden");
    }
    document.getElementById(target).setAttributeNS(null, "visibility", "visible");
    gv.firstChild.nodeValue = target;
        }

    function mouseclick(evt) { 
    var gv = document.getElementById("globalVariable");
    var previoustarget = gv.firstChild.nodeValue;
    if (previoustarget != "none") {
        	document.getElementById(gv.firstChild.nodeValue).setAttributeNS(null, "visibility", "hidden");
        }
    }
]]>
  </script>
<style type="text/css" >

<![CDATA[
    rect.anc_exon {
              stroke-width:3;
                  }

    rect.non_anc_exon {
              stroke: black; stroke-width:3; stroke-dasharray: 5,5;
                    }

    text {
              font-size: 18px;
              font-family: Courier New;
          }
                    ]]>
</style>

<defs>
    <text x="150" y="40" id="globalVariable">none</text>
</defs>

  <rect class="anc_exon" x="0" y="35.0" width="0" height="30" style="fill:#87bcbc;fill-opacity:1.00" />
  <rect class="anc_exon" x="0" y="35.0" width="238.4" height="30" style="fill:#87bcbc;fill-opacity:1.00" />
  <line x1="238.4" y1="50.0" x2="257.4" y2="50.0" style="stroke:#999; stroke-width:3;" />
  <line x1="257.4" y1="50.0" x2="257.4" y2="50.0" style="stroke:#999; stroke-width:3;" />
  <line x1="257.4" y1="50.0" x2="257.4" y2="50.0" style="stroke:#999; stroke-width:3;" />
  <line x1="257.4" y1="50.0" x2="278.0" y2="50.0" style="stroke:#999; stroke-width:3;" />
  <rect class="anc_exon" x="278" y="35.0" width="160" height="30" style="fill:#87bcbc;fill-opacity:1.00" />
  <line x1="438" y1="50.0" x2="458" y2="50.0" style="stroke:#999; stroke-width:3;" />
  <line x1="458" y1="50.0" x2="458" y2="50.0" style="stroke:#999; stroke-width:3;" />
  <line x1="458" y1="50.0" x2="458" y2="50.0" style="stroke:#999; stroke-width:3;" />
  <line x1="458" y1="50.0" x2="478" y2="50.0" style="stroke:#999; stroke-width:3;" />
  <rect class="anc_exon" x="478" y="35.0" width="781" height="30" style="fill:#87bcbc;fill-opacity:1.00" />
  <line x1="1259" y1="50.0" x2="1279" y2="50.0" style="stroke:#999; stroke-width:3;" />
  <line x1="1279" y1="50.0" x2="1279" y2="50.0" style="stroke:#999; stroke-width:3;" />
  <line x1="1279" y1="50.0" x2="1279" y2="50.0" style="stroke:#999; stroke-width:3;" />
  <line x1="1279" y1="50.0" x2="1299" y2="50.0" style="stroke:#999; stroke-width:3;" />
  <rect class="anc_exon" x="1299" y="35.0" width="115" height="30" style="fill:#87bcbc;fill-opacity:1.00" />
  <line x1="1414" y1="50.0" x2="1434" y2="50.0" style="stroke:#999; stroke-width:3;" />
  <line x1="1434" y1="50.0" x2="1434" y2="50.0" style="stroke:#999; stroke-width:3;" />
  <line x1="1434" y1="50.0" x2="1434" y2="50.0" style="stroke:#999; stroke-width:3;" />
  <line x1="1434" y1="50.0" x2="1454" y2="50.0" style="stroke:#999; stroke-width:3;" />
  <rect class="anc_exon" x="1454" y="35.0" width="165" height="30" style="fill:#87bcbc;fill-opacity:1.00" />
  <line x1="1619" y1="50.0" x2="1659" y2="50.0" style="stroke:#999; stroke-width:3;" />
  <rect class="anc_exon" x="1659" y="35.0" width="136" height="30" style="fill:#87bcbc;fill-opacity:1.00" />
  <line x1="1795" y1="50.0" x2="1835" y2="50.0" style="stroke:#999; stroke-width:3;" />
  <rect class="anc_exon" x="1835" y="35.0" width="107" height="30" style="fill:#87bcbc;fill-opacity:1.00" />
  <line x1="1942" y1="50.0" x2="1962" y2="50.0" style="stroke:#999; stroke-width:3;" />
  <line x1="1962" y1="50.0" x2="1962" y2="50.0" style="stroke:#999; stroke-width:3;" />
  <line x1="1962" y1="50.0" x2="1962" y2="50.0" style="stroke:#999; stroke-width:3;" />
  <line x1="1962" y1="50.0" x2="1982" y2="50.0" style="stroke:#999; stroke-width:3;" />
  <rect class="anc_exon" x="1982" y="35.0" width="124" height="30" style="fill:#87bcbc;fill-opacity:1.00" />
  <line x1="2106" y1="50.0" x2="2126" y2="50.0" style="stroke:#999; stroke-width:3;" />
  <line x1="2126" y1="50.0" x2="2126" y2="50.0" style="stroke:#999; stroke-width:3;" />
  <line x1="2126" y1="50.0" x2="2126" y2="50.0" style="stroke:#999; stroke-width:3;" />
  <line x1="2126" y1="50.0" x2="2146" y2="50.0" style="stroke:#999; stroke-width:3;" />
  <rect class="anc_exon" x="2146" y="35.0" width="164" height="30" style="fill:#87bcbc;fill-opacity:1.00" />
  <line x1="2310" y1="50.0" x2="2330" y2="50.0" style="stroke:#999; stroke-width:3;" />
  <line x1="2330" y1="50.0" x2="2330" y2="50.0" style="stroke:#999; stroke-width:3;" />
  <line x1="2330" y1="50.0" x2="2330" y2="50.0" style="stroke:#999; stroke-width:3;" />
  <line x1="2330" y1="50.0" x2="2350" y2="50.0" style="stroke:#999; stroke-width:3;" />
  <rect class="anc_exon" x="2350" y="35.0" width="158" height="30" style="fill:#87bcbc;fill-opacity:1.00" />
  <line x1="2508" y1="50.0" x2="2528" y2="50.0" style="stroke:#999; stroke-width:3;" />
  <line x1="2528" y1="50.0" x2="2528" y2="50.0" style="stroke:#999; stroke-width:3;" />
  <line x1="2528" y1="50.0" x2="2528" y2="50.0" style="stroke:#999; stroke-width:3;" />
  <line x1="2528" y1="50.0" x2="2548" y2="50.0" style="stroke:#999; stroke-width:3;" />
  <rect class="anc_exon" x="2548" y="35.0" width="93" height="30" style="fill:#87bcbc;fill-opacity:1.00" />
  <line x1="2641" y1="50.0" x2="2661" y2="50.0" style="stroke:#999; stroke-width:3;" />
  <line x1="2661" y1="50.0" x2="2661" y2="50.0" style="stroke:#999; stroke-width:3;" />
  <line x1="2661" y1="50.0" x2="2661" y2="50.0" style="stroke:#999; stroke-width:3;" />
  <line x1="2661" y1="50.0" x2="2681" y2="50.0" style="stroke:#999; stroke-width:3;" />
  <rect class="anc_exon" x="2681" y="35.0" width="141" height="30" style="fill:#87bcbc;fill-opacity:1.00" />
  <line x1="2822" y1="50.0" x2="2862" y2="50.0" style="stroke:#999; stroke-width:3;" />
  <rect class="anc_exon" x="2862" y="35.0" width="172" height="30" style="fill:#87bcbc;fill-opacity:1.00" />
  <line x1="3034" y1="50.0" x2="3054" y2="50.0" style="stroke:#999; stroke-width:3;" />
  <line x1="3054" y1="50.0" x2="3054" y2="50.0" style="stroke:#999; stroke-width:3;" />
  <line x1="3054" y1="50.0" x2="3054" y2="50.0" style="stroke:#999; stroke-width:3;" />
  <line x1="3054" y1="50.0" x2="3074" y2="50.0" style="stroke:#999; stroke-width:3;" />
  <rect class="anc_exon" x="3074" y="35.0" width="165" height="30" style="fill:#87bcbc;fill-opacity:1.00" />
  <line x1="3239" y1="50.0" x2="3259" y2="50.0" style="stroke:#999; stroke-width:3;" />
  <line x1="3259" y1="50.0" x2="3259" y2="50.0" style="stroke:#999; stroke-width:3;" />
  <line x1="3259" y1="50.0" x2="3259" y2="50.0" style="stroke:#999; stroke-width:3;" />
  <line x1="3259" y1="50.0" x2="3279" y2="50.0" style="stroke:#999; stroke-width:3;" />
  <rect class="anc_exon" x="3279" y="35.0" width="159" height="30" style="fill:#87bcbc;fill-opacity:1.00" />
  <line x1="3438" y1="50.0" x2="3458" y2="50.0" style="stroke:#999; stroke-width:3;" />
  <line x1="3458" y1="50.0" x2="3458" y2="50.0" style="stroke:#999; stroke-width:3;" />
  <line x1="3458" y1="50.0" x2="3458" y2="50.0" style="stroke:#999; stroke-width:3;" />
  <line x1="3458" y1="50.0" x2="3478" y2="50.0" style="stroke:#999; stroke-width:3;" />
  <rect class="anc_exon" x="3478" y="35.0" width="127" height="30" style="fill:#87bcbc;fill-opacity:1.00" />
  <line x1="3605" y1="50.0" x2="3625" y2="50.0" style="stroke:#999; stroke-width:3;" />
  <line x1="3625" y1="50.0" x2="3625" y2="50.0" style="stroke:#999; stroke-width:3;" />
  <line x1="3625" y1="50.0" x2="3625" y2="50.0" style="stroke:#999; stroke-width:3;" />
  <line x1="3625" y1="50.0" x2="3645" y2="50.0" style="stroke:#999; stroke-width:3;" />
  <rect class="anc_exon" x="3645" y="35.0" width="385" height="30" style="fill:#87bcbc;fill-opacity:1.00" />
  <rect class="anc_exon" x="4030" y="35.0" width="0" height="30" style="fill:#87bcbc;fill-opacity:1.00" />
  <text style="" >
<tspan x="0" y="83.0" style="font-size:18px;" >SP XM_023497674_2.1</tspan>  </text>



<script type="text/ecmascript">
<![CDATA[
function draw_bbox(text_id)
{
    var text_elem = document.getElementById(text_id);
    var offset_px = 2;
    var offset_py = 0;
    bbox = text_elem.getBBox();
    var box = document.createElementNS(document.rootElement.namespaceURI,'rect');
    box.setAttribute('x', bbox.x - offset_px);
    box.setAttribute('y', bbox.y - offset_py);
    box.setAttribute('width', bbox.width + offset_px * 2);
    box.setAttribute('height', bbox.height + offset_py * 2);
    box.setAttribute('style','fill: white;'+'stroke: black;'+'stroke-width: 1px;');
    text_elem.insertBefore(box,text_elem.childNodes[0]);

    var svg = text_elem.parentNode;
    svg.appendChild(text_elem);
}

for (var i=1; i < 1; i++)
{
draw_bbox("Mouseover" + i);
}
]]> 
</script>
</svg>
