<svg version="1.1"
xmlns="http://www.w3.org/2000/svg"
xmlns:xlink="http://www.w3.org/1999/xlink"
width="2189" height="100" viewBox = "0 0 2189 100"
onclick="mouseclick(evt)">

<script type="text/ecmascript">

<![CDATA[
    function mouseover(evt, target) { 
    var gv = document.getElementById("globalVariable");
    var previoustarget = gv.firstChild.nodeValue;
    if (previoustarget != "none") 
    {
        	document.getElementById(gv.firstChild.nodeValue).setAttributeNS(null, "visibility", "hidden");
    }
    document.getElementById(target).setAttributeNS(null, "visibility", "visible");
    gv.firstChild.nodeValue = target;
        }

    function mouseclick(evt) { 
    var gv = document.getElementById("globalVariable");
    var previoustarget = gv.firstChild.nodeValue;
    if (previoustarget != "none") {
        	document.getElementById(gv.firstChild.nodeValue).setAttributeNS(null, "visibility", "hidden");
        }
    }
]]>
  </script>
<style type="text/css" >

<![CDATA[
    rect.anc_exon {
              stroke-width:3;
                  }

    rect.non_anc_exon {
              stroke: black; stroke-width:3; stroke-dasharray: 5,5;
                    }

    text {
              font-size: 18px;
              font-family: Courier New;
          }
                    ]]>
</style>

<defs>
    <text x="150" y="40" id="globalVariable">none</text>
</defs>

  <rect class="anc_exon" x="0" y="35.0" width="0" height="30" style="fill:#87bcbc;fill-opacity:1.00" />
  <rect class="anc_exon" x="0" y="35.0" width="17.6" height="30" style="fill:#87bcbc;fill-opacity:1.00" />
  <line x1="17.6" y1="50.0" x2="36.6" y2="50.0" style="stroke:#999; stroke-width:3;" />
  <line x1="36.6" y1="50.0" x2="36.6" y2="50.0" style="stroke:#999; stroke-width:3;" />
  <line x1="36.6" y1="50.0" x2="36.6" y2="50.0" style="stroke:#999; stroke-width:3;" />
  <line x1="36.6" y1="50.0" x2="57.0" y2="50.0" style="stroke:#999; stroke-width:3;" />
  <rect class="anc_exon" x="57" y="35.0" width="44" height="30" style="fill:#87bcbc;fill-opacity:1.00" />
  <line x1="101" y1="50.0" x2="121" y2="50.0" style="stroke:#999; stroke-width:3;" />
  <line x1="121" y1="50.0" x2="121" y2="50.0" style="stroke:#999; stroke-width:3;" />
  <line x1="121" y1="50.0" x2="121" y2="50.0" style="stroke:#999; stroke-width:3;" />
  <line x1="121" y1="50.0" x2="141" y2="50.0" style="stroke:#999; stroke-width:3;" />
  <rect class="anc_exon" x="141" y="35.0" width="163" height="30" style="fill:#87bcbc;fill-opacity:1.00" />
  <line x1="304" y1="50.0" x2="324" y2="50.0" style="stroke:#999; stroke-width:3;" />
  <line x1="324" y1="50.0" x2="324" y2="50.0" style="stroke:#999; stroke-width:3;" />
  <line x1="324" y1="50.0" x2="324" y2="50.0" style="stroke:#999; stroke-width:3;" />
  <line x1="324" y1="50.0" x2="344" y2="50.0" style="stroke:#999; stroke-width:3;" />
  <rect class="anc_exon" x="344" y="35.0" width="134" height="30" style="fill:#87bcbc;fill-opacity:1.00" />
  <line x1="478" y1="50.0" x2="498" y2="50.0" style="stroke:#999; stroke-width:3;" />
  <line x1="498" y1="50.0" x2="498" y2="50.0" style="stroke:#999; stroke-width:3;" />
  <line x1="498" y1="50.0" x2="498" y2="50.0" style="stroke:#999; stroke-width:3;" />
  <line x1="498" y1="50.0" x2="518" y2="50.0" style="stroke:#999; stroke-width:3;" />
  <rect class="anc_exon" x="518" y="35.0" width="29" height="30" style="fill:#87bcbc;fill-opacity:1.00" />
  <line x1="547" y1="50.0" x2="587" y2="50.0" style="stroke:#999; stroke-width:3;" />
  <rect class="anc_exon" x="587" y="35.0" width="69" height="30" style="fill:#87bcbc;fill-opacity:1.00" />
  <line x1="656" y1="50.0" x2="676" y2="50.0" style="stroke:#999; stroke-width:3;" />
  <line x1="676" y1="50.0" x2="676" y2="50.0" style="stroke:#999; stroke-width:3;" />
  <line x1="676" y1="50.0" x2="676" y2="50.0" style="stroke:#999; stroke-width:3;" />
  <line x1="676" y1="50.0" x2="696" y2="50.0" style="stroke:#999; stroke-width:3;" />
  <rect class="anc_exon" x="696" y="35.0" width="52" height="30" style="fill:#87bcbc;fill-opacity:1.00" />
  <line x1="748" y1="50.0" x2="768" y2="50.0" style="stroke:#999; stroke-width:3;" />
  <line x1="768" y1="50.0" x2="768" y2="50.0" style="stroke:#999; stroke-width:3;" />
  <line x1="768" y1="50.0" x2="768" y2="50.0" style="stroke:#999; stroke-width:3;" />
  <line x1="768" y1="50.0" x2="788" y2="50.0" style="stroke:#999; stroke-width:3;" />
  <rect class="anc_exon" x="788" y="35.0" width="74" height="30" style="fill:#87bcbc;fill-opacity:1.00" />
  <line x1="862" y1="50.0" x2="882" y2="50.0" style="stroke:#999; stroke-width:3;" />
  <line x1="882" y1="50.0" x2="882" y2="50.0" style="stroke:#999; stroke-width:3;" />
  <line x1="882" y1="50.0" x2="882" y2="50.0" style="stroke:#999; stroke-width:3;" />
  <line x1="882" y1="50.0" x2="902" y2="50.0" style="stroke:#999; stroke-width:3;" />
  <rect class="anc_exon" x="902" y="35.0" width="90" height="30" style="fill:#87bcbc;fill-opacity:1.00" />
  <line x1="992" y1="50.0" x2="1032" y2="50.0" style="stroke:#999; stroke-width:3;" />
  <rect class="anc_exon" x="1032" y="35.0" width="96" height="30" style="fill:#87bcbc;fill-opacity:1.00" />
  <line x1="1128" y1="50.0" x2="1168" y2="50.0" style="stroke:#999; stroke-width:3;" />
  <rect class="anc_exon" x="1168" y="35.0" width="83" height="30" style="fill:#87bcbc;fill-opacity:1.00" />
  <line x1="1251" y1="50.0" x2="1271" y2="50.0" style="stroke:#999; stroke-width:3;" />
  <line x1="1271" y1="50.0" x2="1271" y2="50.0" style="stroke:#999; stroke-width:3;" />
  <line x1="1271" y1="50.0" x2="1271" y2="50.0" style="stroke:#999; stroke-width:3;" />
  <line x1="1271" y1="50.0" x2="1291" y2="50.0" style="stroke:#999; stroke-width:3;" />
  <rect class="anc_exon" x="1291" y="35.0" width="63" height="30" style="fill:#87bcbc;fill-opacity:1.00" />
  <line x1="1354" y1="50.0" x2="1394" y2="50.0" style="stroke:#999; stroke-width:3;" />
  <rect class="anc_exon" x="1394" y="35.0" width="82" height="30" style="fill:#87bcbc;fill-opacity:1.00" />
  <line x1="1476" y1="50.0" x2="1516" y2="50.0" style="stroke:#999; stroke-width:3;" />
  <rect class="anc_exon" x="1516" y="35.0" width="88" height="30" style="fill:#87bcbc;fill-opacity:1.00" />
  <line x1="1604" y1="50.0" x2="1644" y2="50.0" style="stroke:#999; stroke-width:3;" />
  <rect class="anc_exon" x="1644" y="35.0" width="96" height="30" style="fill:#87bcbc;fill-opacity:1.00" />
  <line x1="1740" y1="50.0" x2="1780" y2="50.0" style="stroke:#999; stroke-width:3;" />
  <rect class="anc_exon" x="1780" y="35.0" width="114" height="30" style="fill:#87bcbc;fill-opacity:1.00" />
  <line x1="1894" y1="50.0" x2="1934" y2="50.0" style="stroke:#999; stroke-width:3;" />
  <rect class="anc_exon" x="1934" y="35.0" width="144" height="30" style="fill:#87bcbc;fill-opacity:1.00" />
  <line x1="2078" y1="50.0" x2="2118" y2="50.0" style="stroke:#999; stroke-width:3;" />
  <rect class="anc_exon" x="2118" y="35.0" width="35" height="30" style="fill:#87bcbc;fill-opacity:1.00" />
  <rect class="anc_exon" x="2153" y="35.0" width="0" height="30" style="fill:#87bcbc;fill-opacity:1.00" />
  <text style="" >
<tspan x="0" y="83.0" style="font-size:18px;" >SP XM_023496724_2.1</tspan>  </text>



<script type="text/ecmascript">
<![CDATA[
function draw_bbox(text_id)
{
    var text_elem = document.getElementById(text_id);
    var offset_px = 2;
    var offset_py = 0;
    bbox = text_elem.getBBox();
    var box = document.createElementNS(document.rootElement.namespaceURI,'rect');
    box.setAttribute('x', bbox.x - offset_px);
    box.setAttribute('y', bbox.y - offset_py);
    box.setAttribute('width', bbox.width + offset_px * 2);
    box.setAttribute('height', bbox.height + offset_py * 2);
    box.setAttribute('style','fill: white;'+'stroke: black;'+'stroke-width: 1px;');
    text_elem.insertBefore(box,text_elem.childNodes[0]);

    var svg = text_elem.parentNode;
    svg.appendChild(text_elem);
}

for (var i=1; i < 1; i++)
{
draw_bbox("Mouseover" + i);
}
]]> 
</script>
</svg>
