<svg version="1.1"
xmlns="http://www.w3.org/2000/svg"
xmlns:xlink="http://www.w3.org/1999/xlink"
width="4076" height="100" viewBox = "0 0 4076 100"
onclick="mouseclick(evt)">

<script type="text/ecmascript">

<![CDATA[
    function mouseover(evt, target) { 
    var gv = document.getElementById("globalVariable");
    var previoustarget = gv.firstChild.nodeValue;
    if (previoustarget != "none") 
    {
        	document.getElementById(gv.firstChild.nodeValue).setAttributeNS(null, "visibility", "hidden");
    }
    document.getElementById(target).setAttributeNS(null, "visibility", "visible");
    gv.firstChild.nodeValue = target;
        }

    function mouseclick(evt) { 
    var gv = document.getElementById("globalVariable");
    var previoustarget = gv.firstChild.nodeValue;
    if (previoustarget != "none") {
        	document.getElementById(gv.firstChild.nodeValue).setAttributeNS(null, "visibility", "hidden");
        }
    }
]]>
  </script>
<style type="text/css" >

<![CDATA[
    rect.anc_exon {
              stroke-width:3;
                  }

    rect.non_anc_exon {
              stroke: black; stroke-width:3; stroke-dasharray: 5,5;
                    }

    text {
              font-size: 18px;
              font-family: Courier New;
          }
                    ]]>
</style>

<defs>
    <text x="150" y="40" id="globalVariable">none</text>
</defs>

  <rect class="anc_exon" x="0" y="35.0" width="0" height="30" style="fill:#87bcbc;fill-opacity:1.00" />
  <rect class="anc_exon" x="0" y="35.0" width="20.0" height="30" style="fill:#878787;fill-opacity:1.00" />
  <line x1="20.0" y1="50.0" x2="60.0" y2="50.0" style="stroke:#999; stroke-width:3;" />
  <rect class="anc_exon" x="60" y="35.0" width="23" height="30" style="fill:#87bcbc;fill-opacity:1.00" />
  <line x1="83" y1="50.0" x2="103" y2="50.0" style="stroke:#999; stroke-width:3;" />
  <line x1="103" y1="50.0" x2="103" y2="50.0" style="stroke:#999; stroke-width:3;" />
  <line x1="103" y1="50.0" x2="103" y2="50.0" style="stroke:#999; stroke-width:3;" />
  <line x1="103" y1="50.0" x2="123" y2="50.0" style="stroke:#999; stroke-width:3;" />
  <rect class="anc_exon" x="123" y="35.0" width="50" height="30" style="fill:#87bcbc;fill-opacity:1.00" />
  <line x1="173" y1="50.0" x2="193" y2="50.0" style="stroke:#999; stroke-width:3;" />
  <line x1="193" y1="50.0" x2="193" y2="50.0" style="stroke:#999; stroke-width:3;" />
  <line x1="193" y1="50.0" x2="193" y2="50.0" style="stroke:#999; stroke-width:3;" />
  <line x1="193" y1="50.0" x2="213" y2="50.0" style="stroke:#999; stroke-width:3;" />
  <rect class="anc_exon" x="213" y="35.0" width="177" height="30" style="fill:#87bcbc;fill-opacity:1.00" />
  <line x1="390" y1="50.0" x2="410" y2="50.0" style="stroke:#999; stroke-width:3;" />
  <line x1="410" y1="50.0" x2="410" y2="50.0" style="stroke:#999; stroke-width:3;" />
  <line x1="410" y1="50.0" x2="410" y2="50.0" style="stroke:#999; stroke-width:3;" />
  <line x1="410" y1="50.0" x2="430" y2="50.0" style="stroke:#999; stroke-width:3;" />
  <rect class="anc_exon" x="430" y="35.0" width="68" height="30" style="fill:#87bcbc;fill-opacity:1.00" />
  <line x1="498" y1="50.0" x2="538" y2="50.0" style="stroke:#999; stroke-width:3;" />
  <rect class="anc_exon" x="538" y="35.0" width="135" height="30" style="fill:#87bcbc;fill-opacity:1.00" />
  <line x1="673" y1="50.0" x2="693" y2="50.0" style="stroke:#999; stroke-width:3;" />
  <line x1="693" y1="50.0" x2="693" y2="50.0" style="stroke:#999; stroke-width:3;" />
  <line x1="693" y1="50.0" x2="693" y2="50.0" style="stroke:#999; stroke-width:3;" />
  <line x1="693" y1="50.0" x2="713" y2="50.0" style="stroke:#999; stroke-width:3;" />
  <rect class="anc_exon" x="713" y="35.0" width="96" height="30" style="fill:#87bcbc;fill-opacity:1.00" />
  <line x1="809" y1="50.0" x2="829" y2="50.0" style="stroke:#999; stroke-width:3;" />
  <line x1="829" y1="50.0" x2="829" y2="50.0" style="stroke:#999; stroke-width:3;" />
  <line x1="829" y1="50.0" x2="829" y2="50.0" style="stroke:#999; stroke-width:3;" />
  <line x1="829" y1="50.0" x2="849" y2="50.0" style="stroke:#999; stroke-width:3;" />
  <rect class="anc_exon" x="849" y="35.0" width="473" height="30" style="fill:#87bcbc;fill-opacity:1.00" />
  <line x1="1322" y1="50.0" x2="1362" y2="50.0" style="stroke:#999; stroke-width:3;" />
  <rect class="anc_exon" x="1362" y="35.0" width="129" height="30" style="fill:#87bcbc;fill-opacity:1.00" />
  <line x1="1491" y1="50.0" x2="1511" y2="50.0" style="stroke:#999; stroke-width:3;" />
  <line x1="1511" y1="50.0" x2="1511" y2="50.0" style="stroke:#999; stroke-width:3;" />
  <line x1="1511" y1="50.0" x2="1511" y2="50.0" style="stroke:#999; stroke-width:3;" />
  <line x1="1511" y1="50.0" x2="1531" y2="50.0" style="stroke:#999; stroke-width:3;" />
  <rect class="anc_exon" x="1531" y="35.0" width="140" height="30" style="fill:#87bcbc;fill-opacity:1.00" />
  <line x1="1671" y1="50.0" x2="1691" y2="50.0" style="stroke:#999; stroke-width:3;" />
  <line x1="1691" y1="50.0" x2="1691" y2="50.0" style="stroke:#999; stroke-width:3;" />
  <line x1="1691" y1="50.0" x2="1691" y2="50.0" style="stroke:#999; stroke-width:3;" />
  <line x1="1691" y1="50.0" x2="1711" y2="50.0" style="stroke:#999; stroke-width:3;" />
  <rect class="anc_exon" x="1711" y="35.0" width="119" height="30" style="fill:#87bcbc;fill-opacity:1.00" />
  <line x1="1830" y1="50.0" x2="1850" y2="50.0" style="stroke:#999; stroke-width:3;" />
  <line x1="1850" y1="50.0" x2="1850" y2="50.0" style="stroke:#999; stroke-width:3;" />
  <line x1="1850" y1="50.0" x2="1850" y2="50.0" style="stroke:#999; stroke-width:3;" />
  <line x1="1850" y1="50.0" x2="1870" y2="50.0" style="stroke:#999; stroke-width:3;" />
  <rect class="anc_exon" x="1870" y="35.0" width="92" height="30" style="fill:#87bcbc;fill-opacity:1.00" />
  <line x1="1962" y1="50.0" x2="2002" y2="50.0" style="stroke:#999; stroke-width:3;" />
  <rect class="anc_exon" x="2002" y="35.0" width="100" height="30" style="fill:#87bcbc;fill-opacity:1.00" />
  <line x1="2102" y1="50.0" x2="2142" y2="50.0" style="stroke:#999; stroke-width:3;" />
  <rect class="anc_exon" x="2142" y="35.0" width="81" height="30" style="fill:#87bcbc;fill-opacity:1.00" />
  <line x1="2223" y1="50.0" x2="2243" y2="50.0" style="stroke:#999; stroke-width:3;" />
  <line x1="2243" y1="50.0" x2="2243" y2="50.0" style="stroke:#999; stroke-width:3;" />
  <line x1="2243" y1="50.0" x2="2243" y2="50.0" style="stroke:#999; stroke-width:3;" />
  <line x1="2243" y1="50.0" x2="2263" y2="50.0" style="stroke:#999; stroke-width:3;" />
  <rect class="anc_exon" x="2263" y="35.0" width="156" height="30" style="fill:#87bcbc;fill-opacity:1.00" />
  <line x1="2419" y1="50.0" x2="2439" y2="50.0" style="stroke:#999; stroke-width:3;" />
  <line x1="2439" y1="50.0" x2="2439" y2="50.0" style="stroke:#999; stroke-width:3;" />
  <line x1="2439" y1="50.0" x2="2439" y2="50.0" style="stroke:#999; stroke-width:3;" />
  <line x1="2439" y1="50.0" x2="2459" y2="50.0" style="stroke:#999; stroke-width:3;" />
  <rect class="anc_exon" x="2459" y="35.0" width="74" height="30" style="fill:#87bcbc;fill-opacity:1.00" />
  <line x1="2533" y1="50.0" x2="2573" y2="50.0" style="stroke:#999; stroke-width:3;" />
  <rect class="anc_exon" x="2573" y="35.0" width="126" height="30" style="fill:#87bcbc;fill-opacity:1.00" />
  <line x1="2699" y1="50.0" x2="2739" y2="50.0" style="stroke:#999; stroke-width:3;" />
  <rect class="anc_exon" x="2739" y="35.0" width="130" height="30" style="fill:#87bcbc;fill-opacity:1.00" />
  <line x1="2869" y1="50.0" x2="2889" y2="50.0" style="stroke:#999; stroke-width:3;" />
  <line x1="2889" y1="50.0" x2="2889" y2="50.0" style="stroke:#999; stroke-width:3;" />
  <line x1="2889" y1="50.0" x2="2889" y2="50.0" style="stroke:#999; stroke-width:3;" />
  <line x1="2889" y1="50.0" x2="2909" y2="50.0" style="stroke:#999; stroke-width:3;" />
  <rect class="anc_exon" x="2909" y="35.0" width="127" height="30" style="fill:#87bcbc;fill-opacity:1.00" />
  <line x1="3036" y1="50.0" x2="3056" y2="50.0" style="stroke:#999; stroke-width:3;" />
  <line x1="3056" y1="50.0" x2="3056" y2="50.0" style="stroke:#999; stroke-width:3;" />
  <line x1="3056" y1="50.0" x2="3056" y2="50.0" style="stroke:#999; stroke-width:3;" />
  <line x1="3056" y1="50.0" x2="3076" y2="50.0" style="stroke:#999; stroke-width:3;" />
  <rect class="anc_exon" x="3076" y="35.0" width="55" height="30" style="fill:#87bcbc;fill-opacity:1.00" />
  <line x1="3131" y1="50.0" x2="3151" y2="50.0" style="stroke:#999; stroke-width:3;" />
  <line x1="3151" y1="50.0" x2="3151" y2="50.0" style="stroke:#999; stroke-width:3;" />
  <line x1="3151" y1="50.0" x2="3151" y2="50.0" style="stroke:#999; stroke-width:3;" />
  <line x1="3151" y1="50.0" x2="3171" y2="50.0" style="stroke:#999; stroke-width:3;" />
  <rect class="anc_exon" x="3171" y="35.0" width="129" height="30" style="fill:#87bcbc;fill-opacity:1.00" />
  <line x1="3300" y1="50.0" x2="3340" y2="50.0" style="stroke:#999; stroke-width:3;" />
  <rect class="anc_exon" x="3340" y="35.0" width="144" height="30" style="fill:#87bcbc;fill-opacity:1.00" />
  <line x1="3484" y1="50.0" x2="3504" y2="50.0" style="stroke:#999; stroke-width:3;" />
  <line x1="3504" y1="50.0" x2="3504" y2="50.0" style="stroke:#999; stroke-width:3;" />
  <line x1="3504" y1="50.0" x2="3504" y2="50.0" style="stroke:#999; stroke-width:3;" />
  <line x1="3504" y1="50.0" x2="3524" y2="50.0" style="stroke:#999; stroke-width:3;" />
  <rect class="anc_exon" x="3524" y="35.0" width="120" height="30" style="fill:#87bcbc;fill-opacity:1.00" />
  <line x1="3644" y1="50.0" x2="3664" y2="50.0" style="stroke:#999; stroke-width:3;" />
  <line x1="3664" y1="50.0" x2="3664" y2="50.0" style="stroke:#999; stroke-width:3;" />
  <line x1="3664" y1="50.0" x2="3664" y2="50.0" style="stroke:#999; stroke-width:3;" />
  <line x1="3664" y1="50.0" x2="3684" y2="50.0" style="stroke:#999; stroke-width:3;" />
  <rect class="anc_exon" x="3684" y="35.0" width="76" height="30" style="fill:#87bcbc;fill-opacity:1.00" />
  <line x1="3760" y1="50.0" x2="3780" y2="50.0" style="stroke:#999; stroke-width:3;" />
  <line x1="3780" y1="50.0" x2="3780" y2="50.0" style="stroke:#999; stroke-width:3;" />
  <line x1="3780" y1="50.0" x2="3780" y2="50.0" style="stroke:#999; stroke-width:3;" />
  <line x1="3780" y1="50.0" x2="3800" y2="50.0" style="stroke:#999; stroke-width:3;" />
  <rect class="anc_exon" x="3800" y="35.0" width="84" height="30" style="fill:#87bcbc;fill-opacity:1.00" />
  <line x1="3884" y1="50.0" x2="3924" y2="50.0" style="stroke:#999; stroke-width:3;" />
  <rect class="anc_exon" x="3924" y="35.0" width="68" height="30" style="fill:#87bcbc;fill-opacity:1.00" />
  <line x1="3992" y1="50.0" x2="4012" y2="50.0" style="stroke:#999; stroke-width:3;" />
  <line x1="4012" y1="50.0" x2="4012" y2="50.0" style="stroke:#999; stroke-width:3;" />
  <line x1="4012" y1="50.0" x2="4012" y2="50.0" style="stroke:#999; stroke-width:3;" />
  <line x1="4012" y1="50.0" x2="4032" y2="50.0" style="stroke:#999; stroke-width:3;" />
  <rect class="anc_exon" x="4032" y="35.0" width="8" height="30" style="fill:#87bcbc;fill-opacity:1.00" />
  <rect class="anc_exon" x="4040" y="35.0" width="0" height="30" style="fill:#87bcbc;fill-opacity:1.00" />
  <text style="" >
<tspan x="0" y="83.0" style="font-size:18px;" >SP XM_031947041_1.1</tspan>  </text>



<script type="text/ecmascript">
<![CDATA[
function draw_bbox(text_id)
{
    var text_elem = document.getElementById(text_id);
    var offset_px = 2;
    var offset_py = 0;
    bbox = text_elem.getBBox();
    var box = document.createElementNS(document.rootElement.namespaceURI,'rect');
    box.setAttribute('x', bbox.x - offset_px);
    box.setAttribute('y', bbox.y - offset_py);
    box.setAttribute('width', bbox.width + offset_px * 2);
    box.setAttribute('height', bbox.height + offset_py * 2);
    box.setAttribute('style','fill: white;'+'stroke: black;'+'stroke-width: 1px;');
    text_elem.insertBefore(box,text_elem.childNodes[0]);

    var svg = text_elem.parentNode;
    svg.appendChild(text_elem);
}

for (var i=1; i < 1; i++)
{
draw_bbox("Mouseover" + i);
}
]]> 
</script>
</svg>
