<svg version="1.1"
xmlns="http://www.w3.org/2000/svg"
xmlns:xlink="http://www.w3.org/1999/xlink"
width="4831" height="100" viewBox = "0 0 4831 100"
onclick="mouseclick(evt)">

<script type="text/ecmascript">

<![CDATA[
    function mouseover(evt, target) { 
    var gv = document.getElementById("globalVariable");
    var previoustarget = gv.firstChild.nodeValue;
    if (previoustarget != "none") 
    {
        	document.getElementById(gv.firstChild.nodeValue).setAttributeNS(null, "visibility", "hidden");
    }
    document.getElementById(target).setAttributeNS(null, "visibility", "visible");
    gv.firstChild.nodeValue = target;
        }

    function mouseclick(evt) { 
    var gv = document.getElementById("globalVariable");
    var previoustarget = gv.firstChild.nodeValue;
    if (previoustarget != "none") {
        	document.getElementById(gv.firstChild.nodeValue).setAttributeNS(null, "visibility", "hidden");
        }
    }
]]>
  </script>
<style type="text/css" >

<![CDATA[
    rect.anc_exon {
              stroke-width:3;
                  }

    rect.non_anc_exon {
              stroke: black; stroke-width:3; stroke-dasharray: 5,5;
                    }

    text {
              font-size: 18px;
              font-family: Courier New;
          }
                    ]]>
</style>

<defs>
    <text x="150" y="40" id="globalVariable">none</text>
</defs>

  <rect class="anc_exon" x="0" y="35.0" width="0" height="30" style="fill:#87bcbc;fill-opacity:1.00" />
  <rect class="anc_exon" x="0" y="35.0" width="136.0" height="30" style="fill:#87bcbc;fill-opacity:1.00" />
  <line x1="136.0" y1="50.0" x2="156.0" y2="50.0" style="stroke:#999; stroke-width:3;" />
  <line x1="156.0" y1="50.0" x2="156.0" y2="50.0" style="stroke:#999; stroke-width:3;" />
  <line x1="156.0" y1="50.0" x2="156.0" y2="50.0" style="stroke:#999; stroke-width:3;" />
  <line x1="156.0" y1="50.0" x2="176.0" y2="50.0" style="stroke:#999; stroke-width:3;" />
  <rect class="anc_exon" x="176" y="35.0" width="168" height="30" style="fill:#87bcbc;fill-opacity:1.00" />
  <line x1="344" y1="50.0" x2="364" y2="50.0" style="stroke:#999; stroke-width:3;" />
  <line x1="364" y1="50.0" x2="364" y2="50.0" style="stroke:#999; stroke-width:3;" />
  <line x1="364" y1="50.0" x2="364" y2="50.0" style="stroke:#999; stroke-width:3;" />
  <line x1="364" y1="50.0" x2="384" y2="50.0" style="stroke:#999; stroke-width:3;" />
  <rect class="anc_exon" x="384" y="35.0" width="248" height="30" style="fill:#87bcbc;fill-opacity:1.00" />
  <line x1="632" y1="50.0" x2="652" y2="50.0" style="stroke:#999; stroke-width:3;" />
  <line x1="652" y1="50.0" x2="652" y2="50.0" style="stroke:#999; stroke-width:3;" />
  <line x1="652" y1="50.0" x2="652" y2="50.0" style="stroke:#999; stroke-width:3;" />
  <line x1="652" y1="50.0" x2="672" y2="50.0" style="stroke:#999; stroke-width:3;" />
  <rect class="anc_exon" x="672" y="35.0" width="738" height="30" style="fill:#87bcbc;fill-opacity:1.00" />
  <line x1="1410" y1="50.0" x2="1430" y2="50.0" style="stroke:#999; stroke-width:3;" />
  <line x1="1430" y1="50.0" x2="1430" y2="50.0" style="stroke:#999; stroke-width:3;" />
  <line x1="1430" y1="50.0" x2="1430" y2="50.0" style="stroke:#999; stroke-width:3;" />
  <line x1="1430" y1="50.0" x2="1450" y2="50.0" style="stroke:#999; stroke-width:3;" />
  <rect class="anc_exon" x="1450" y="35.0" width="167" height="30" style="fill:#87bcbc;fill-opacity:1.00" />
  <line x1="1617" y1="50.0" x2="1657" y2="50.0" style="stroke:#999; stroke-width:3;" />
  <rect class="anc_exon" x="1657" y="35.0" width="96" height="30" style="fill:#87bcbc;fill-opacity:1.00" />
  <line x1="1753" y1="50.0" x2="1773" y2="50.0" style="stroke:#999; stroke-width:3;" />
  <line x1="1773" y1="50.0" x2="1773" y2="50.0" style="stroke:#999; stroke-width:3;" />
  <line x1="1773" y1="50.0" x2="1773" y2="50.0" style="stroke:#999; stroke-width:3;" />
  <line x1="1773" y1="50.0" x2="1793" y2="50.0" style="stroke:#999; stroke-width:3;" />
  <rect class="anc_exon" x="1793" y="35.0" width="80" height="30" style="fill:#87bcbc;fill-opacity:1.00" />
  <line x1="1873" y1="50.0" x2="1913" y2="50.0" style="stroke:#999; stroke-width:3;" />
  <rect class="anc_exon" x="1913" y="35.0" width="99" height="30" style="fill:#87bcbc;fill-opacity:1.00" />
  <line x1="2012" y1="50.0" x2="2052" y2="50.0" style="stroke:#999; stroke-width:3;" />
  <rect class="anc_exon" x="2052" y="35.0" width="37" height="30" style="fill:#87bcbc;fill-opacity:1.00" />
  <line x1="2089" y1="50.0" x2="2129" y2="50.0" style="stroke:#999; stroke-width:3;" />
  <rect class="anc_exon" x="2129" y="35.0" width="90" height="30" style="fill:#87bcbc;fill-opacity:1.00" />
  <line x1="2219" y1="50.0" x2="2239" y2="50.0" style="stroke:#999; stroke-width:3;" />
  <line x1="2239" y1="50.0" x2="2239" y2="50.0" style="stroke:#999; stroke-width:3;" />
  <line x1="2239" y1="50.0" x2="2239" y2="50.0" style="stroke:#999; stroke-width:3;" />
  <line x1="2239" y1="50.0" x2="2259" y2="50.0" style="stroke:#999; stroke-width:3;" />
  <rect class="anc_exon" x="2259" y="35.0" width="104" height="30" style="fill:#87bcbc;fill-opacity:1.00" />
  <line x1="2363" y1="50.0" x2="2383" y2="50.0" style="stroke:#999; stroke-width:3;" />
  <line x1="2383" y1="50.0" x2="2383" y2="50.0" style="stroke:#999; stroke-width:3;" />
  <line x1="2383" y1="50.0" x2="2383" y2="50.0" style="stroke:#999; stroke-width:3;" />
  <line x1="2383" y1="50.0" x2="2403" y2="50.0" style="stroke:#999; stroke-width:3;" />
  <rect class="anc_exon" x="2403" y="35.0" width="137" height="30" style="fill:#87bcbc;fill-opacity:1.00" />
  <line x1="2540" y1="50.0" x2="2560" y2="50.0" style="stroke:#999; stroke-width:3;" />
  <line x1="2560" y1="50.0" x2="2560" y2="50.0" style="stroke:#999; stroke-width:3;" />
  <line x1="2560" y1="50.0" x2="2560" y2="50.0" style="stroke:#999; stroke-width:3;" />
  <line x1="2560" y1="50.0" x2="2580" y2="50.0" style="stroke:#999; stroke-width:3;" />
  <rect class="anc_exon" x="2580" y="35.0" width="123" height="30" style="fill:#87bcbc;fill-opacity:1.00" />
  <line x1="2703" y1="50.0" x2="2723" y2="50.0" style="stroke:#999; stroke-width:3;" />
  <line x1="2723" y1="50.0" x2="2723" y2="50.0" style="stroke:#999; stroke-width:3;" />
  <line x1="2723" y1="50.0" x2="2723" y2="50.0" style="stroke:#999; stroke-width:3;" />
  <line x1="2723" y1="50.0" x2="2743" y2="50.0" style="stroke:#999; stroke-width:3;" />
  <rect class="anc_exon" x="2743" y="35.0" width="55" height="30" style="fill:#87bcbc;fill-opacity:1.00" />
  <line x1="2798" y1="50.0" x2="2818" y2="50.0" style="stroke:#999; stroke-width:3;" />
  <line x1="2818" y1="50.0" x2="2818" y2="50.0" style="stroke:#999; stroke-width:3;" />
  <line x1="2818" y1="50.0" x2="2818" y2="50.0" style="stroke:#999; stroke-width:3;" />
  <line x1="2818" y1="50.0" x2="2838" y2="50.0" style="stroke:#999; stroke-width:3;" />
  <rect class="anc_exon" x="2838" y="35.0" width="125" height="30" style="fill:#87bcbc;fill-opacity:1.00" />
  <line x1="2963" y1="50.0" x2="2983" y2="50.0" style="stroke:#999; stroke-width:3;" />
  <line x1="2983" y1="50.0" x2="2983" y2="50.0" style="stroke:#999; stroke-width:3;" />
  <line x1="2983" y1="50.0" x2="2983" y2="50.0" style="stroke:#999; stroke-width:3;" />
  <line x1="2983" y1="50.0" x2="3003" y2="50.0" style="stroke:#999; stroke-width:3;" />
  <rect class="anc_exon" x="3003" y="35.0" width="93" height="30" style="fill:#87bcbc;fill-opacity:1.00" />
  <line x1="3096" y1="50.0" x2="3116" y2="50.0" style="stroke:#999; stroke-width:3;" />
  <line x1="3116" y1="50.0" x2="3116" y2="50.0" style="stroke:#999; stroke-width:3;" />
  <line x1="3116" y1="50.0" x2="3116" y2="50.0" style="stroke:#999; stroke-width:3;" />
  <line x1="3116" y1="50.0" x2="3136" y2="50.0" style="stroke:#999; stroke-width:3;" />
  <rect class="anc_exon" x="3136" y="35.0" width="45" height="30" style="fill:#87bcbc;fill-opacity:1.00" />
  <line x1="3181" y1="50.0" x2="3201" y2="50.0" style="stroke:#999; stroke-width:3;" />
  <line x1="3201" y1="50.0" x2="3201" y2="50.0" style="stroke:#999; stroke-width:3;" />
  <line x1="3201" y1="50.0" x2="3201" y2="50.0" style="stroke:#999; stroke-width:3;" />
  <line x1="3201" y1="50.0" x2="3221" y2="50.0" style="stroke:#999; stroke-width:3;" />
  <rect class="anc_exon" x="3221" y="35.0" width="144" height="30" style="fill:#87bcbc;fill-opacity:1.00" />
  <line x1="3365" y1="50.0" x2="3405" y2="50.0" style="stroke:#999; stroke-width:3;" />
  <rect class="anc_exon" x="3405" y="35.0" width="88" height="30" style="fill:#87bcbc;fill-opacity:1.00" />
  <line x1="3493" y1="50.0" x2="3513" y2="50.0" style="stroke:#999; stroke-width:3;" />
  <line x1="3513" y1="50.0" x2="3513" y2="50.0" style="stroke:#999; stroke-width:3;" />
  <line x1="3513" y1="50.0" x2="3513" y2="50.0" style="stroke:#999; stroke-width:3;" />
  <line x1="3513" y1="50.0" x2="3533" y2="50.0" style="stroke:#999; stroke-width:3;" />
  <rect class="anc_exon" x="3533" y="35.0" width="80" height="30" style="fill:#87bcbc;fill-opacity:1.00" />
  <line x1="3613" y1="50.0" x2="3633" y2="50.0" style="stroke:#999; stroke-width:3;" />
  <line x1="3633" y1="50.0" x2="3633" y2="50.0" style="stroke:#999; stroke-width:3;" />
  <line x1="3633" y1="50.0" x2="3633" y2="50.0" style="stroke:#999; stroke-width:3;" />
  <line x1="3633" y1="50.0" x2="3653" y2="50.0" style="stroke:#999; stroke-width:3;" />
  <rect class="anc_exon" x="3653" y="35.0" width="138" height="30" style="fill:#87bcbc;fill-opacity:1.00" />
  <line x1="3791" y1="50.0" x2="3811" y2="50.0" style="stroke:#999; stroke-width:3;" />
  <line x1="3811" y1="50.0" x2="3811" y2="50.0" style="stroke:#999; stroke-width:3;" />
  <line x1="3811" y1="50.0" x2="3811" y2="50.0" style="stroke:#999; stroke-width:3;" />
  <line x1="3811" y1="50.0" x2="3831" y2="50.0" style="stroke:#999; stroke-width:3;" />
  <rect class="anc_exon" x="3831" y="35.0" width="193" height="30" style="fill:#87bcbc;fill-opacity:1.00" />
  <line x1="4024" y1="50.0" x2="4044" y2="50.0" style="stroke:#999; stroke-width:3;" />
  <line x1="4044" y1="50.0" x2="4044" y2="50.0" style="stroke:#999; stroke-width:3;" />
  <line x1="4044" y1="50.0" x2="4044" y2="50.0" style="stroke:#999; stroke-width:3;" />
  <line x1="4044" y1="50.0" x2="4064" y2="50.0" style="stroke:#999; stroke-width:3;" />
  <rect class="anc_exon" x="4064" y="35.0" width="113" height="30" style="fill:#87bcbc;fill-opacity:1.00" />
  <line x1="4177" y1="50.0" x2="4197" y2="50.0" style="stroke:#999; stroke-width:3;" />
  <line x1="4197" y1="50.0" x2="4197" y2="50.0" style="stroke:#999; stroke-width:3;" />
  <line x1="4197" y1="50.0" x2="4197" y2="50.0" style="stroke:#999; stroke-width:3;" />
  <line x1="4197" y1="50.0" x2="4217" y2="50.0" style="stroke:#999; stroke-width:3;" />
  <rect class="anc_exon" x="4217" y="35.0" width="90" height="30" style="fill:#87bcbc;fill-opacity:1.00" />
  <line x1="4307" y1="50.0" x2="4347" y2="50.0" style="stroke:#999; stroke-width:3;" />
  <rect class="anc_exon" x="4347" y="35.0" width="81" height="30" style="fill:#87bcbc;fill-opacity:1.00" />
  <line x1="4428" y1="50.0" x2="4448" y2="50.0" style="stroke:#999; stroke-width:3;" />
  <line x1="4448" y1="50.0" x2="4448" y2="50.0" style="stroke:#999; stroke-width:3;" />
  <line x1="4448" y1="50.0" x2="4448" y2="50.0" style="stroke:#999; stroke-width:3;" />
  <line x1="4448" y1="50.0" x2="4468" y2="50.0" style="stroke:#999; stroke-width:3;" />
  <rect class="anc_exon" x="4468" y="35.0" width="112" height="30" style="fill:#87bcbc;fill-opacity:1.00" />
  <line x1="4580" y1="50.0" x2="4620" y2="50.0" style="stroke:#999; stroke-width:3;" />
  <rect class="anc_exon" x="4620" y="35.0" width="175" height="30" style="fill:#87bcbc;fill-opacity:1.00" />
  <rect class="anc_exon" x="4795" y="35.0" width="0" height="30" style="fill:#87bcbc;fill-opacity:1.00" />
  <text style="" >
<tspan x="0" y="83.0" style="font-size:18px;" >SP XM_031947082_1.1</tspan>  </text>



<script type="text/ecmascript">
<![CDATA[
function draw_bbox(text_id)
{
    var text_elem = document.getElementById(text_id);
    var offset_px = 2;
    var offset_py = 0;
    bbox = text_elem.getBBox();
    var box = document.createElementNS(document.rootElement.namespaceURI,'rect');
    box.setAttribute('x', bbox.x - offset_px);
    box.setAttribute('y', bbox.y - offset_py);
    box.setAttribute('width', bbox.width + offset_px * 2);
    box.setAttribute('height', bbox.height + offset_py * 2);
    box.setAttribute('style','fill: white;'+'stroke: black;'+'stroke-width: 1px;');
    text_elem.insertBefore(box,text_elem.childNodes[0]);

    var svg = text_elem.parentNode;
    svg.appendChild(text_elem);
}

for (var i=1; i < 1; i++)
{
draw_bbox("Mouseover" + i);
}
]]> 
</script>
</svg>
