<svg version="1.1"
xmlns="http://www.w3.org/2000/svg"
xmlns:xlink="http://www.w3.org/1999/xlink"
width="2773" height="100" viewBox = "0 0 2773 100"
onclick="mouseclick(evt)">

<script type="text/ecmascript">

<![CDATA[
    function mouseover(evt, target) { 
    var gv = document.getElementById("globalVariable");
    var previoustarget = gv.firstChild.nodeValue;
    if (previoustarget != "none") 
    {
        	document.getElementById(gv.firstChild.nodeValue).setAttributeNS(null, "visibility", "hidden");
    }
    document.getElementById(target).setAttributeNS(null, "visibility", "visible");
    gv.firstChild.nodeValue = target;
        }

    function mouseclick(evt) { 
    var gv = document.getElementById("globalVariable");
    var previoustarget = gv.firstChild.nodeValue;
    if (previoustarget != "none") {
        	document.getElementById(gv.firstChild.nodeValue).setAttributeNS(null, "visibility", "hidden");
        }
    }
]]>
  </script>
<style type="text/css" >

<![CDATA[
    rect.anc_exon {
              stroke-width:3;
                  }

    rect.non_anc_exon {
              stroke: black; stroke-width:3; stroke-dasharray: 5,5;
                    }

    text {
              font-size: 18px;
              font-family: Courier New;
          }
                    ]]>
</style>

<defs>
    <text x="150" y="40" id="globalVariable">none</text>
</defs>

  <rect class="anc_exon" x="0" y="35.0" width="0" height="30" style="fill:#87bcbc;fill-opacity:1.00" />
  <rect class="anc_exon" x="0" y="35.0" width="2.4000000000000004" height="30" style="fill:#87bcbc;fill-opacity:1.00" />
  <line x1="2.4000000000000004" y1="50.0" x2="21.4" y2="50.0" style="stroke:#999; stroke-width:3;" />
  <line x1="21.4" y1="50.0" x2="21.4" y2="50.0" style="stroke:#999; stroke-width:3;" />
  <line x1="21.4" y1="50.0" x2="21.4" y2="50.0" style="stroke:#999; stroke-width:3;" />
  <line x1="21.4" y1="50.0" x2="42.0" y2="50.0" style="stroke:#999; stroke-width:3;" />
  <rect class="anc_exon" x="42" y="35.0" width="929" height="30" style="fill:#87bcbc;fill-opacity:1.00" />
  <line x1="971" y1="50.0" x2="991" y2="50.0" style="stroke:#999; stroke-width:3;" />
  <line x1="991" y1="50.0" x2="991" y2="50.0" style="stroke:#999; stroke-width:3;" />
  <line x1="991" y1="50.0" x2="991" y2="50.0" style="stroke:#999; stroke-width:3;" />
  <line x1="991" y1="50.0" x2="1011" y2="50.0" style="stroke:#999; stroke-width:3;" />
  <rect class="anc_exon" x="1011" y="35.0" width="128" height="30" style="fill:#87bcbc;fill-opacity:1.00" />
  <line x1="1139" y1="50.0" x2="1159" y2="50.0" style="stroke:#999; stroke-width:3;" />
  <line x1="1159" y1="50.0" x2="1159" y2="50.0" style="stroke:#999; stroke-width:3;" />
  <line x1="1159" y1="50.0" x2="1159" y2="50.0" style="stroke:#999; stroke-width:3;" />
  <line x1="1159" y1="50.0" x2="1179" y2="50.0" style="stroke:#999; stroke-width:3;" />
  <rect class="anc_exon" x="1179" y="35.0" width="40" height="30" style="fill:#87bcbc;fill-opacity:1.00" />
  <line x1="1219" y1="50.0" x2="1259" y2="50.0" style="stroke:#999; stroke-width:3;" />
  <rect class="anc_exon" x="1259" y="35.0" width="16" height="30" style="fill:#87bcbc;fill-opacity:1.00" />
  <line x1="1275" y1="50.0" x2="1315" y2="50.0" style="stroke:#999; stroke-width:3;" />
  <rect class="anc_exon" x="1315" y="35.0" width="28" height="30" style="fill:#87bcbc;fill-opacity:1.00" />
  <line x1="1343" y1="50.0" x2="1383" y2="50.0" style="stroke:#999; stroke-width:3;" />
  <rect class="anc_exon" x="1383" y="35.0" width="96" height="30" style="fill:#87bcbc;fill-opacity:1.00" />
  <line x1="1479" y1="50.0" x2="1519" y2="50.0" style="stroke:#999; stroke-width:3;" />
  <rect class="anc_exon" x="1519" y="35.0" width="128" height="30" style="fill:#87bcbc;fill-opacity:1.00" />
  <line x1="1647" y1="50.0" x2="1687" y2="50.0" style="stroke:#999; stroke-width:3;" />
  <rect class="anc_exon" x="1687" y="35.0" width="116" height="30" style="fill:#87bcbc;fill-opacity:1.00" />
  <line x1="1803" y1="50.0" x2="1823" y2="50.0" style="stroke:#999; stroke-width:3;" />
  <line x1="1823" y1="50.0" x2="1823" y2="50.0" style="stroke:#999; stroke-width:3;" />
  <line x1="1823" y1="50.0" x2="1823" y2="50.0" style="stroke:#999; stroke-width:3;" />
  <line x1="1823" y1="50.0" x2="1843" y2="50.0" style="stroke:#999; stroke-width:3;" />
  <rect class="anc_exon" x="1843" y="35.0" width="18" height="30" style="fill:#87bcbc;fill-opacity:1.00" />
  <line x1="1861" y1="50.0" x2="1901" y2="50.0" style="stroke:#999; stroke-width:3;" />
  <rect class="anc_exon" x="1901" y="35.0" width="48" height="30" style="fill:#87bcbc;fill-opacity:1.00" />
  <line x1="1949" y1="50.0" x2="1969" y2="50.0" style="stroke:#999; stroke-width:3;" />
  <line x1="1969" y1="50.0" x2="1969" y2="50.0" style="stroke:#999; stroke-width:3;" />
  <line x1="1969" y1="50.0" x2="1969" y2="50.0" style="stroke:#999; stroke-width:3;" />
  <line x1="1969" y1="50.0" x2="1989" y2="50.0" style="stroke:#999; stroke-width:3;" />
  <rect class="anc_exon" x="1989" y="35.0" width="110" height="30" style="fill:#87bcbc;fill-opacity:1.00" />
  <line x1="2099" y1="50.0" x2="2139" y2="50.0" style="stroke:#999; stroke-width:3;" />
  <rect class="anc_exon" x="2139" y="35.0" width="25" height="30" style="fill:#87bcbc;fill-opacity:1.00" />
  <line x1="2164" y1="50.0" x2="2204" y2="50.0" style="stroke:#999; stroke-width:3;" />
  <rect class="anc_exon" x="2204" y="35.0" width="53" height="30" style="fill:#87bcbc;fill-opacity:1.00" />
  <line x1="2257" y1="50.0" x2="2277" y2="50.0" style="stroke:#999; stroke-width:3;" />
  <line x1="2277" y1="50.0" x2="2277" y2="50.0" style="stroke:#999; stroke-width:3;" />
  <line x1="2277" y1="50.0" x2="2277" y2="50.0" style="stroke:#999; stroke-width:3;" />
  <line x1="2277" y1="50.0" x2="2297" y2="50.0" style="stroke:#999; stroke-width:3;" />
  <rect class="anc_exon" x="2297" y="35.0" width="80" height="30" style="fill:#87bcbc;fill-opacity:1.00" />
  <line x1="2377" y1="50.0" x2="2417" y2="50.0" style="stroke:#999; stroke-width:3;" />
  <rect class="anc_exon" x="2417" y="35.0" width="130" height="30" style="fill:#878787;fill-opacity:1.00" />
  <line x1="2547" y1="50.0" x2="2567" y2="50.0" style="stroke:#999; stroke-width:3;" />
  <line x1="2567" y1="50.0" x2="2567" y2="50.0" style="stroke:#999; stroke-width:3;" />
  <line x1="2567" y1="50.0" x2="2567" y2="50.0" style="stroke:#999; stroke-width:3;" />
  <line x1="2567" y1="50.0" x2="2587" y2="50.0" style="stroke:#999; stroke-width:3;" />
  <rect class="anc_exon" x="2587" y="35.0" width="27" height="30" style="fill:#87bcbc;fill-opacity:1.00" />
  <line x1="2614" y1="50.0" x2="2634" y2="50.0" style="stroke:#999; stroke-width:3;" />
  <line x1="2634" y1="50.0" x2="2634" y2="50.0" style="stroke:#999; stroke-width:3;" />
  <line x1="2634" y1="50.0" x2="2634" y2="50.0" style="stroke:#999; stroke-width:3;" />
  <line x1="2634" y1="50.0" x2="2654" y2="50.0" style="stroke:#999; stroke-width:3;" />
  <rect class="anc_exon" x="2654" y="35.0" width="25" height="30" style="fill:#87bcbc;fill-opacity:1.00" />
  <line x1="2679" y1="50.0" x2="2699" y2="50.0" style="stroke:#999; stroke-width:3;" />
  <line x1="2699" y1="50.0" x2="2699" y2="50.0" style="stroke:#999; stroke-width:3;" />
  <line x1="2699" y1="50.0" x2="2699" y2="50.0" style="stroke:#999; stroke-width:3;" />
  <line x1="2699" y1="50.0" x2="2719" y2="50.0" style="stroke:#999; stroke-width:3;" />
  <rect class="anc_exon" x="2719" y="35.0" width="18" height="30" style="fill:#87bcbc;fill-opacity:1.00" />
  <rect class="anc_exon" x="2737" y="35.0" width="0" height="30" style="fill:#87bcbc;fill-opacity:1.00" />
  <text style="" >
<tspan x="0" y="83.0" style="font-size:18px;" >SP XM_012541436_3.1</tspan>  </text>



<script type="text/ecmascript">
<![CDATA[
function draw_bbox(text_id)
{
    var text_elem = document.getElementById(text_id);
    var offset_px = 2;
    var offset_py = 0;
    bbox = text_elem.getBBox();
    var box = document.createElementNS(document.rootElement.namespaceURI,'rect');
    box.setAttribute('x', bbox.x - offset_px);
    box.setAttribute('y', bbox.y - offset_py);
    box.setAttribute('width', bbox.width + offset_px * 2);
    box.setAttribute('height', bbox.height + offset_py * 2);
    box.setAttribute('style','fill: white;'+'stroke: black;'+'stroke-width: 1px;');
    text_elem.insertBefore(box,text_elem.childNodes[0]);

    var svg = text_elem.parentNode;
    svg.appendChild(text_elem);
}

for (var i=1; i < 1; i++)
{
draw_bbox("Mouseover" + i);
}
]]> 
</script>
</svg>
