<svg version="1.1"
xmlns="http://www.w3.org/2000/svg"
xmlns:xlink="http://www.w3.org/1999/xlink"
width="4008" height="100" viewBox = "0 0 4008 100"
onclick="mouseclick(evt)">

<script type="text/ecmascript">

<![CDATA[
    function mouseover(evt, target) { 
    var gv = document.getElementById("globalVariable");
    var previoustarget = gv.firstChild.nodeValue;
    if (previoustarget != "none") 
    {
        	document.getElementById(gv.firstChild.nodeValue).setAttributeNS(null, "visibility", "hidden");
    }
    document.getElementById(target).setAttributeNS(null, "visibility", "visible");
    gv.firstChild.nodeValue = target;
        }

    function mouseclick(evt) { 
    var gv = document.getElementById("globalVariable");
    var previoustarget = gv.firstChild.nodeValue;
    if (previoustarget != "none") {
        	document.getElementById(gv.firstChild.nodeValue).setAttributeNS(null, "visibility", "hidden");
        }
    }
]]>
  </script>
<style type="text/css" >

<![CDATA[
    rect.anc_exon {
              stroke-width:3;
                  }

    rect.non_anc_exon {
              stroke: black; stroke-width:3; stroke-dasharray: 5,5;
                    }

    text {
              font-size: 18px;
              font-family: Courier New;
          }
                    ]]>
</style>

<defs>
    <text x="150" y="40" id="globalVariable">none</text>
</defs>

  <rect class="anc_exon" x="0" y="35.0" width="0" height="30" style="fill:#87bcbc;fill-opacity:1.00" />
  <rect class="anc_exon" x="0" y="35.0" width="228.0" height="30" style="fill:#87bcbc;fill-opacity:1.00" />
  <line x1="228.0" y1="50.0" x2="248.0" y2="50.0" style="stroke:#999; stroke-width:3;" />
  <line x1="248.0" y1="50.0" x2="248.0" y2="50.0" style="stroke:#999; stroke-width:3;" />
  <line x1="248.0" y1="50.0" x2="248.0" y2="50.0" style="stroke:#999; stroke-width:3;" />
  <line x1="248.0" y1="50.0" x2="268.0" y2="50.0" style="stroke:#999; stroke-width:3;" />
  <rect class="anc_exon" x="268" y="35.0" width="110" height="30" style="fill:#87bcbc;fill-opacity:1.00" />
  <line x1="378" y1="50.0" x2="418" y2="50.0" style="stroke:#999; stroke-width:3;" />
  <rect class="anc_exon" x="418" y="35.0" width="108" height="30" style="fill:#87bcbc;fill-opacity:1.00" />
  <line x1="526" y1="50.0" x2="546" y2="50.0" style="stroke:#999; stroke-width:3;" />
  <line x1="546" y1="50.0" x2="546" y2="50.0" style="stroke:#999; stroke-width:3;" />
  <line x1="546" y1="50.0" x2="546" y2="50.0" style="stroke:#999; stroke-width:3;" />
  <line x1="546" y1="50.0" x2="566" y2="50.0" style="stroke:#999; stroke-width:3;" />
  <rect class="anc_exon" x="566" y="35.0" width="229" height="30" style="fill:#878787;fill-opacity:1.00" />
  <line x1="795" y1="50.0" x2="835" y2="50.0" style="stroke:#999; stroke-width:3;" />
  <rect class="anc_exon" x="835" y="35.0" width="288" height="30" style="fill:#87bcbc;fill-opacity:1.00" />
  <line x1="1123" y1="50.0" x2="1163" y2="50.0" style="stroke:#999; stroke-width:3;" />
  <rect class="anc_exon" x="1163" y="35.0" width="103" height="30" style="fill:#87bcbc;fill-opacity:1.00" />
  <line x1="1266" y1="50.0" x2="1286" y2="50.0" style="stroke:#999; stroke-width:3;" />
  <line x1="1286" y1="50.0" x2="1286" y2="50.0" style="stroke:#999; stroke-width:3;" />
  <line x1="1286" y1="50.0" x2="1286" y2="50.0" style="stroke:#999; stroke-width:3;" />
  <line x1="1286" y1="50.0" x2="1306" y2="50.0" style="stroke:#999; stroke-width:3;" />
  <rect class="anc_exon" x="1306" y="35.0" width="168" height="30" style="fill:#87bcbc;fill-opacity:1.00" />
  <line x1="1474" y1="50.0" x2="1514" y2="50.0" style="stroke:#999; stroke-width:3;" />
  <rect class="anc_exon" x="1514" y="35.0" width="160" height="30" style="fill:#87bcbc;fill-opacity:1.00" />
  <line x1="1674" y1="50.0" x2="1714" y2="50.0" style="stroke:#999; stroke-width:3;" />
  <rect class="anc_exon" x="1714" y="35.0" width="239" height="30" style="fill:#87bcbc;fill-opacity:1.00" />
  <line x1="1953" y1="50.0" x2="1973" y2="50.0" style="stroke:#999; stroke-width:3;" />
  <line x1="1973" y1="50.0" x2="1973" y2="50.0" style="stroke:#999; stroke-width:3;" />
  <line x1="1973" y1="50.0" x2="1973" y2="50.0" style="stroke:#999; stroke-width:3;" />
  <line x1="1973" y1="50.0" x2="1993" y2="50.0" style="stroke:#999; stroke-width:3;" />
  <rect class="anc_exon" x="1993" y="35.0" width="88" height="30" style="fill:#87bcbc;fill-opacity:1.00" />
  <line x1="2081" y1="50.0" x2="2101" y2="50.0" style="stroke:#999; stroke-width:3;" />
  <line x1="2101" y1="50.0" x2="2101" y2="50.0" style="stroke:#999; stroke-width:3;" />
  <line x1="2101" y1="50.0" x2="2101" y2="50.0" style="stroke:#999; stroke-width:3;" />
  <line x1="2101" y1="50.0" x2="2121" y2="50.0" style="stroke:#999; stroke-width:3;" />
  <rect class="anc_exon" x="2121" y="35.0" width="42" height="30" style="fill:#87bcbc;fill-opacity:1.00" />
  <line x1="2163" y1="50.0" x2="2203" y2="50.0" style="stroke:#999; stroke-width:3;" />
  <rect class="anc_exon" x="2203" y="35.0" width="293" height="30" style="fill:#878787;fill-opacity:1.00" />
  <line x1="2496" y1="50.0" x2="2536" y2="50.0" style="stroke:#999; stroke-width:3;" />
  <rect class="anc_exon" x="2536" y="35.0" width="463" height="30" style="fill:#878787;fill-opacity:1.00" />
  <line x1="2999" y1="50.0" x2="3019" y2="50.0" style="stroke:#999; stroke-width:3;" />
  <line x1="3019" y1="50.0" x2="3019" y2="50.0" style="stroke:#999; stroke-width:3;" />
  <line x1="3019" y1="50.0" x2="3019" y2="50.0" style="stroke:#999; stroke-width:3;" />
  <line x1="3019" y1="50.0" x2="3039" y2="50.0" style="stroke:#999; stroke-width:3;" />
  <rect class="anc_exon" x="3039" y="35.0" width="90" height="30" style="fill:#87bcbc;fill-opacity:1.00" />
  <line x1="3129" y1="50.0" x2="3169" y2="50.0" style="stroke:#999; stroke-width:3;" />
  <rect class="anc_exon" x="3169" y="35.0" width="130" height="30" style="fill:#87bcbc;fill-opacity:1.00" />
  <line x1="3299" y1="50.0" x2="3339" y2="50.0" style="stroke:#999; stroke-width:3;" />
  <rect class="anc_exon" x="3339" y="35.0" width="104" height="30" style="fill:#87bcbc;fill-opacity:1.00" />
  <line x1="3443" y1="50.0" x2="3483" y2="50.0" style="stroke:#999; stroke-width:3;" />
  <rect class="anc_exon" x="3483" y="35.0" width="169" height="30" style="fill:#87bcbc;fill-opacity:1.00" />
  <line x1="3652" y1="50.0" x2="3692" y2="50.0" style="stroke:#999; stroke-width:3;" />
  <rect class="anc_exon" x="3692" y="35.0" width="185" height="30" style="fill:#87bcbc;fill-opacity:1.00" />
  <line x1="3877" y1="50.0" x2="3917" y2="50.0" style="stroke:#999; stroke-width:3;" />
  <rect class="anc_exon" x="3917" y="35.0" width="55" height="30" style="fill:#87bcbc;fill-opacity:1.00" />
  <rect class="anc_exon" x="3972" y="35.0" width="0" height="30" style="fill:#87bcbc;fill-opacity:1.00" />
  <text style="" >
<tspan x="0" y="83.0" style="font-size:18px;" >SP XM_031947924_1.1</tspan>  </text>



<script type="text/ecmascript">
<![CDATA[
function draw_bbox(text_id)
{
    var text_elem = document.getElementById(text_id);
    var offset_px = 2;
    var offset_py = 0;
    bbox = text_elem.getBBox();
    var box = document.createElementNS(document.rootElement.namespaceURI,'rect');
    box.setAttribute('x', bbox.x - offset_px);
    box.setAttribute('y', bbox.y - offset_py);
    box.setAttribute('width', bbox.width + offset_px * 2);
    box.setAttribute('height', bbox.height + offset_py * 2);
    box.setAttribute('style','fill: white;'+'stroke: black;'+'stroke-width: 1px;');
    text_elem.insertBefore(box,text_elem.childNodes[0]);

    var svg = text_elem.parentNode;
    svg.appendChild(text_elem);
}

for (var i=1; i < 1; i++)
{
draw_bbox("Mouseover" + i);
}
]]> 
</script>
</svg>
