<svg version="1.1"
xmlns="http://www.w3.org/2000/svg"
xmlns:xlink="http://www.w3.org/1999/xlink"
width="1907" height="100" viewBox = "0 0 1907 100"
onclick="mouseclick(evt)">

<script type="text/ecmascript">

<![CDATA[
    function mouseover(evt, target) { 
    var gv = document.getElementById("globalVariable");
    var previoustarget = gv.firstChild.nodeValue;
    if (previoustarget != "none") 
    {
        	document.getElementById(gv.firstChild.nodeValue).setAttributeNS(null, "visibility", "hidden");
    }
    document.getElementById(target).setAttributeNS(null, "visibility", "visible");
    gv.firstChild.nodeValue = target;
        }

    function mouseclick(evt) { 
    var gv = document.getElementById("globalVariable");
    var previoustarget = gv.firstChild.nodeValue;
    if (previoustarget != "none") {
        	document.getElementById(gv.firstChild.nodeValue).setAttributeNS(null, "visibility", "hidden");
        }
    }
]]>
  </script>
<style type="text/css" >

<![CDATA[
    rect.anc_exon {
              stroke-width:3;
                  }

    rect.non_anc_exon {
              stroke: black; stroke-width:3; stroke-dasharray: 5,5;
                    }

    text {
              font-size: 18px;
              font-family: Courier New;
          }
                    ]]>
</style>

<defs>
    <text x="150" y="40" id="globalVariable">none</text>
</defs>

  <rect class="anc_exon" x="0" y="35.0" width="0" height="30" style="fill:#87bcbc;fill-opacity:1.00" />
  <rect class="anc_exon" x="0" y="35.0" width="170.4" height="30" style="fill:#87bcbc;fill-opacity:1.00" />
  <line x1="170.4" y1="50.0" x2="189.4" y2="50.0" style="stroke:#999; stroke-width:3;" />
  <line x1="189.4" y1="50.0" x2="189.4" y2="50.0" style="stroke:#999; stroke-width:3;" />
  <line x1="189.4" y1="50.0" x2="189.4" y2="50.0" style="stroke:#999; stroke-width:3;" />
  <line x1="189.4" y1="50.0" x2="210.0" y2="50.0" style="stroke:#999; stroke-width:3;" />
  <rect class="anc_exon" x="210" y="35.0" width="139" height="30" style="fill:#87bcbc;fill-opacity:1.00" />
  <line x1="349" y1="50.0" x2="389" y2="50.0" style="stroke:#999; stroke-width:3;" />
  <rect class="anc_exon" x="389" y="35.0" width="80" height="30" style="fill:#87bcbc;fill-opacity:1.00" />
  <line x1="469" y1="50.0" x2="489" y2="50.0" style="stroke:#999; stroke-width:3;" />
  <line x1="489" y1="50.0" x2="489" y2="50.0" style="stroke:#999; stroke-width:3;" />
  <line x1="489" y1="50.0" x2="489" y2="50.0" style="stroke:#999; stroke-width:3;" />
  <line x1="489" y1="50.0" x2="509" y2="50.0" style="stroke:#999; stroke-width:3;" />
  <rect class="anc_exon" x="509" y="35.0" width="147" height="30" style="fill:#87bcbc;fill-opacity:1.00" />
  <line x1="656" y1="50.0" x2="676" y2="50.0" style="stroke:#999; stroke-width:3;" />
  <line x1="676" y1="50.0" x2="676" y2="50.0" style="stroke:#999; stroke-width:3;" />
  <line x1="676" y1="50.0" x2="676" y2="50.0" style="stroke:#999; stroke-width:3;" />
  <line x1="676" y1="50.0" x2="696" y2="50.0" style="stroke:#999; stroke-width:3;" />
  <rect class="anc_exon" x="696" y="35.0" width="110" height="30" style="fill:#87bcbc;fill-opacity:1.00" />
  <line x1="806" y1="50.0" x2="846" y2="50.0" style="stroke:#999; stroke-width:3;" />
  <rect class="anc_exon" x="846" y="35.0" width="96" height="30" style="fill:#87bcbc;fill-opacity:1.00" />
  <line x1="942" y1="50.0" x2="962" y2="50.0" style="stroke:#999; stroke-width:3;" />
  <line x1="962" y1="50.0" x2="962" y2="50.0" style="stroke:#999; stroke-width:3;" />
  <line x1="962" y1="50.0" x2="962" y2="50.0" style="stroke:#999; stroke-width:3;" />
  <line x1="962" y1="50.0" x2="982" y2="50.0" style="stroke:#999; stroke-width:3;" />
  <rect class="anc_exon" x="982" y="35.0" width="98" height="30" style="fill:#87bcbc;fill-opacity:1.00" />
  <line x1="1080" y1="50.0" x2="1100" y2="50.0" style="stroke:#999; stroke-width:3;" />
  <line x1="1100" y1="50.0" x2="1100" y2="50.0" style="stroke:#999; stroke-width:3;" />
  <line x1="1100" y1="50.0" x2="1100" y2="50.0" style="stroke:#999; stroke-width:3;" />
  <line x1="1100" y1="50.0" x2="1120" y2="50.0" style="stroke:#999; stroke-width:3;" />
  <rect class="anc_exon" x="1120" y="35.0" width="152" height="30" style="fill:#87bcbc;fill-opacity:1.00" />
  <line x1="1272" y1="50.0" x2="1292" y2="50.0" style="stroke:#999; stroke-width:3;" />
  <line x1="1292" y1="50.0" x2="1292" y2="50.0" style="stroke:#999; stroke-width:3;" />
  <line x1="1292" y1="50.0" x2="1292" y2="50.0" style="stroke:#999; stroke-width:3;" />
  <line x1="1292" y1="50.0" x2="1312" y2="50.0" style="stroke:#999; stroke-width:3;" />
  <rect class="anc_exon" x="1312" y="35.0" width="74" height="30" style="fill:#87bcbc;fill-opacity:1.00" />
  <line x1="1386" y1="50.0" x2="1406" y2="50.0" style="stroke:#999; stroke-width:3;" />
  <line x1="1406" y1="50.0" x2="1406" y2="50.0" style="stroke:#999; stroke-width:3;" />
  <line x1="1406" y1="50.0" x2="1406" y2="50.0" style="stroke:#999; stroke-width:3;" />
  <line x1="1406" y1="50.0" x2="1426" y2="50.0" style="stroke:#999; stroke-width:3;" />
  <rect class="anc_exon" x="1426" y="35.0" width="38" height="30" style="fill:#87bcbc;fill-opacity:1.00" />
  <line x1="1464" y1="50.0" x2="1484" y2="50.0" style="stroke:#999; stroke-width:3;" />
  <line x1="1484" y1="50.0" x2="1484" y2="50.0" style="stroke:#999; stroke-width:3;" />
  <line x1="1484" y1="50.0" x2="1484" y2="50.0" style="stroke:#999; stroke-width:3;" />
  <line x1="1484" y1="50.0" x2="1504" y2="50.0" style="stroke:#999; stroke-width:3;" />
  <rect class="anc_exon" x="1504" y="35.0" width="163" height="30" style="fill:#87bcbc;fill-opacity:1.00" />
  <line x1="1667" y1="50.0" x2="1687" y2="50.0" style="stroke:#999; stroke-width:3;" />
  <line x1="1687" y1="50.0" x2="1687" y2="50.0" style="stroke:#999; stroke-width:3;" />
  <line x1="1687" y1="50.0" x2="1687" y2="50.0" style="stroke:#999; stroke-width:3;" />
  <line x1="1687" y1="50.0" x2="1707" y2="50.0" style="stroke:#999; stroke-width:3;" />
  <rect class="anc_exon" x="1707" y="35.0" width="98" height="30" style="fill:#87bcbc;fill-opacity:1.00" />
  <line x1="1805" y1="50.0" x2="1825" y2="50.0" style="stroke:#999; stroke-width:3;" />
  <line x1="1825" y1="50.0" x2="1825" y2="50.0" style="stroke:#999; stroke-width:3;" />
  <line x1="1825" y1="50.0" x2="1825" y2="50.0" style="stroke:#999; stroke-width:3;" />
  <line x1="1825" y1="50.0" x2="1845" y2="50.0" style="stroke:#999; stroke-width:3;" />
  <rect class="anc_exon" x="1845" y="35.0" width="26" height="30" style="fill:#87bcbc;fill-opacity:1.00" />
  <rect class="anc_exon" x="1871" y="35.0" width="0" height="30" style="fill:#87bcbc;fill-opacity:1.00" />
  <text style="" >
<tspan x="0" y="83.0" style="font-size:18px;" >SP XM_031968685_1.1</tspan>  </text>



<script type="text/ecmascript">
<![CDATA[
function draw_bbox(text_id)
{
    var text_elem = document.getElementById(text_id);
    var offset_px = 2;
    var offset_py = 0;
    bbox = text_elem.getBBox();
    var box = document.createElementNS(document.rootElement.namespaceURI,'rect');
    box.setAttribute('x', bbox.x - offset_px);
    box.setAttribute('y', bbox.y - offset_py);
    box.setAttribute('width', bbox.width + offset_px * 2);
    box.setAttribute('height', bbox.height + offset_py * 2);
    box.setAttribute('style','fill: white;'+'stroke: black;'+'stroke-width: 1px;');
    text_elem.insertBefore(box,text_elem.childNodes[0]);

    var svg = text_elem.parentNode;
    svg.appendChild(text_elem);
}

for (var i=1; i < 1; i++)
{
draw_bbox("Mouseover" + i);
}
]]> 
</script>
</svg>
