<svg version="1.1"
xmlns="http://www.w3.org/2000/svg"
xmlns:xlink="http://www.w3.org/1999/xlink"
width="4987" height="100" viewBox = "0 0 4987 100"
onclick="mouseclick(evt)">

<script type="text/ecmascript">

<![CDATA[
    function mouseover(evt, target) { 
    var gv = document.getElementById("globalVariable");
    var previoustarget = gv.firstChild.nodeValue;
    if (previoustarget != "none") 
    {
        	document.getElementById(gv.firstChild.nodeValue).setAttributeNS(null, "visibility", "hidden");
    }
    document.getElementById(target).setAttributeNS(null, "visibility", "visible");
    gv.firstChild.nodeValue = target;
        }

    function mouseclick(evt) { 
    var gv = document.getElementById("globalVariable");
    var previoustarget = gv.firstChild.nodeValue;
    if (previoustarget != "none") {
        	document.getElementById(gv.firstChild.nodeValue).setAttributeNS(null, "visibility", "hidden");
        }
    }
]]>
  </script>
<style type="text/css" >

<![CDATA[
    rect.anc_exon {
              stroke-width:3;
                  }

    rect.non_anc_exon {
              stroke: black; stroke-width:3; stroke-dasharray: 5,5;
                    }

    text {
              font-size: 18px;
              font-family: Courier New;
          }
                    ]]>
</style>

<defs>
    <text x="150" y="40" id="globalVariable">none</text>
</defs>

  <rect class="anc_exon" x="0" y="35.0" width="0" height="30" style="fill:#87bcbc;fill-opacity:1.00" />
  <rect class="anc_exon" x="0" y="35.0" width="67.2" height="30" style="fill:#87bcbc;fill-opacity:1.00" />
  <line x1="67.2" y1="50.0" x2="86.2" y2="50.0" style="stroke:#999; stroke-width:3;" />
  <line x1="86.2" y1="50.0" x2="86.2" y2="50.0" style="stroke:#999; stroke-width:3;" />
  <line x1="86.2" y1="50.0" x2="86.2" y2="50.0" style="stroke:#999; stroke-width:3;" />
  <line x1="86.2" y1="50.0" x2="107.0" y2="50.0" style="stroke:#999; stroke-width:3;" />
  <rect class="anc_exon" x="107" y="35.0" width="60" height="30" style="fill:#87bcbc;fill-opacity:1.00" />
  <line x1="167" y1="50.0" x2="207" y2="50.0" style="stroke:#999; stroke-width:3;" />
  <rect class="anc_exon" x="207" y="35.0" width="102" height="30" style="fill:#87bcbc;fill-opacity:1.00" />
  <line x1="309" y1="50.0" x2="349" y2="50.0" style="stroke:#999; stroke-width:3;" />
  <rect class="anc_exon" x="349" y="35.0" width="61" height="30" style="fill:#87bcbc;fill-opacity:1.00" />
  <line x1="410" y1="50.0" x2="450" y2="50.0" style="stroke:#999; stroke-width:3;" />
  <rect class="anc_exon" x="450" y="35.0" width="40" height="30" style="fill:#87bcbc;fill-opacity:1.00" />
  <line x1="490" y1="50.0" x2="530" y2="50.0" style="stroke:#999; stroke-width:3;" />
  <rect class="anc_exon" x="530" y="35.0" width="105" height="30" style="fill:#87bcbc;fill-opacity:1.00" />
  <line x1="635" y1="50.0" x2="675" y2="50.0" style="stroke:#999; stroke-width:3;" />
  <rect class="anc_exon" x="675" y="35.0" width="64" height="30" style="fill:#87bcbc;fill-opacity:1.00" />
  <line x1="739" y1="50.0" x2="779" y2="50.0" style="stroke:#999; stroke-width:3;" />
  <rect class="anc_exon" x="779" y="35.0" width="105" height="30" style="fill:#87bcbc;fill-opacity:1.00" />
  <line x1="884" y1="50.0" x2="924" y2="50.0" style="stroke:#999; stroke-width:3;" />
  <rect class="anc_exon" x="924" y="35.0" width="38" height="30" style="fill:#87bcbc;fill-opacity:1.00" />
  <line x1="962" y1="50.0" x2="1002" y2="50.0" style="stroke:#999; stroke-width:3;" />
  <rect class="anc_exon" x="1002" y="35.0" width="45" height="30" style="fill:#87bcbc;fill-opacity:1.00" />
  <line x1="1047" y1="50.0" x2="1087" y2="50.0" style="stroke:#999; stroke-width:3;" />
  <rect class="anc_exon" x="1087" y="35.0" width="47" height="30" style="fill:#87bcbc;fill-opacity:1.00" />
  <line x1="1134" y1="50.0" x2="1174" y2="50.0" style="stroke:#999; stroke-width:3;" />
  <rect class="anc_exon" x="1174" y="35.0" width="64" height="30" style="fill:#87bcbc;fill-opacity:1.00" />
  <line x1="1238" y1="50.0" x2="1278" y2="50.0" style="stroke:#999; stroke-width:3;" />
  <rect class="anc_exon" x="1278" y="35.0" width="92" height="30" style="fill:#87bcbc;fill-opacity:1.00" />
  <line x1="1370" y1="50.0" x2="1410" y2="50.0" style="stroke:#999; stroke-width:3;" />
  <rect class="anc_exon" x="1410" y="35.0" width="52" height="30" style="fill:#87bcbc;fill-opacity:1.00" />
  <line x1="1462" y1="50.0" x2="1502" y2="50.0" style="stroke:#999; stroke-width:3;" />
  <rect class="anc_exon" x="1502" y="35.0" width="116" height="30" style="fill:#87bcbc;fill-opacity:1.00" />
  <line x1="1618" y1="50.0" x2="1658" y2="50.0" style="stroke:#999; stroke-width:3;" />
  <rect class="anc_exon" x="1658" y="35.0" width="242" height="30" style="fill:#878787;fill-opacity:1.00" />
  <line x1="1900" y1="50.0" x2="1940" y2="50.0" style="stroke:#999; stroke-width:3;" />
  <rect class="anc_exon" x="1940" y="35.0" width="124" height="30" style="fill:#878787;fill-opacity:1.00" />
  <line x1="2064" y1="50.0" x2="2104" y2="50.0" style="stroke:#999; stroke-width:3;" />
  <rect class="anc_exon" x="2104" y="35.0" width="121" height="30" style="fill:#87bcbc;fill-opacity:1.00" />
  <line x1="2225" y1="50.0" x2="2265" y2="50.0" style="stroke:#999; stroke-width:3;" />
  <rect class="anc_exon" x="2265" y="35.0" width="144" height="30" style="fill:#87bcbc;fill-opacity:1.00" />
  <line x1="2409" y1="50.0" x2="2449" y2="50.0" style="stroke:#999; stroke-width:3;" />
  <rect class="anc_exon" x="2449" y="35.0" width="1479" height="30" style="fill:#878787;fill-opacity:1.00" />
  <line x1="3928" y1="50.0" x2="3968" y2="50.0" style="stroke:#999; stroke-width:3;" />
  <rect class="anc_exon" x="3968" y="35.0" width="148" height="30" style="fill:#87bcbc;fill-opacity:1.00" />
  <line x1="4116" y1="50.0" x2="4156" y2="50.0" style="stroke:#999; stroke-width:3;" />
  <rect class="anc_exon" x="4156" y="35.0" width="84" height="30" style="fill:#87bcbc;fill-opacity:1.00" />
  <line x1="4240" y1="50.0" x2="4280" y2="50.0" style="stroke:#999; stroke-width:3;" />
  <rect class="anc_exon" x="4280" y="35.0" width="111" height="30" style="fill:#87bcbc;fill-opacity:1.00" />
  <line x1="4391" y1="50.0" x2="4431" y2="50.0" style="stroke:#999; stroke-width:3;" />
  <rect class="anc_exon" x="4431" y="35.0" width="96" height="30" style="fill:#87bcbc;fill-opacity:1.00" />
  <line x1="4527" y1="50.0" x2="4567" y2="50.0" style="stroke:#999; stroke-width:3;" />
  <rect class="anc_exon" x="4567" y="35.0" width="384" height="30" style="fill:#87bcbc;fill-opacity:1.00" />
  <rect class="anc_exon" x="4951" y="35.0" width="0" height="30" style="fill:#87bcbc;fill-opacity:1.00" />
  <text style="" >
<tspan x="0" y="83.0" style="font-size:18px;" >SP XM_031960751_1.1</tspan>  </text>



<script type="text/ecmascript">
<![CDATA[
function draw_bbox(text_id)
{
    var text_elem = document.getElementById(text_id);
    var offset_px = 2;
    var offset_py = 0;
    bbox = text_elem.getBBox();
    var box = document.createElementNS(document.rootElement.namespaceURI,'rect');
    box.setAttribute('x', bbox.x - offset_px);
    box.setAttribute('y', bbox.y - offset_py);
    box.setAttribute('width', bbox.width + offset_px * 2);
    box.setAttribute('height', bbox.height + offset_py * 2);
    box.setAttribute('style','fill: white;'+'stroke: black;'+'stroke-width: 1px;');
    text_elem.insertBefore(box,text_elem.childNodes[0]);

    var svg = text_elem.parentNode;
    svg.appendChild(text_elem);
}

for (var i=1; i < 1; i++)
{
draw_bbox("Mouseover" + i);
}
]]> 
</script>
</svg>
