<svg version="1.1"
xmlns="http://www.w3.org/2000/svg"
xmlns:xlink="http://www.w3.org/1999/xlink"
width="2095" height="100" viewBox = "0 0 2095 100"
onclick="mouseclick(evt)">

<script type="text/ecmascript">

<![CDATA[
    function mouseover(evt, target) { 
    var gv = document.getElementById("globalVariable");
    var previoustarget = gv.firstChild.nodeValue;
    if (previoustarget != "none") 
    {
        	document.getElementById(gv.firstChild.nodeValue).setAttributeNS(null, "visibility", "hidden");
    }
    document.getElementById(target).setAttributeNS(null, "visibility", "visible");
    gv.firstChild.nodeValue = target;
        }

    function mouseclick(evt) { 
    var gv = document.getElementById("globalVariable");
    var previoustarget = gv.firstChild.nodeValue;
    if (previoustarget != "none") {
        	document.getElementById(gv.firstChild.nodeValue).setAttributeNS(null, "visibility", "hidden");
        }
    }
]]>
  </script>
<style type="text/css" >

<![CDATA[
    rect.anc_exon {
              stroke-width:3;
                  }

    rect.non_anc_exon {
              stroke: black; stroke-width:3; stroke-dasharray: 5,5;
                    }

    text {
              font-size: 18px;
              font-family: Courier New;
          }
                    ]]>
</style>

<defs>
    <text x="150" y="40" id="globalVariable">none</text>
</defs>

  <rect class="anc_exon" x="0" y="35.0" width="0" height="30" style="fill:#87bcbc;fill-opacity:1.00" />
  <rect class="anc_exon" x="0" y="35.0" width="93.60000000000001" height="30" style="fill:#87bcbc;fill-opacity:1.00" />
  <line x1="93.60000000000001" y1="50.0" x2="133.0" y2="50.0" style="stroke:#999; stroke-width:3;" />
  <rect class="anc_exon" x="133" y="35.0" width="161" height="30" style="fill:#87bcbc;fill-opacity:1.00" />
  <line x1="294" y1="50.0" x2="334" y2="50.0" style="stroke:#999; stroke-width:3;" />
  <rect class="anc_exon" x="334" y="35.0" width="102" height="30" style="fill:#87bcbc;fill-opacity:1.00" />
  <line x1="436" y1="50.0" x2="476" y2="50.0" style="stroke:#999; stroke-width:3;" />
  <rect class="anc_exon" x="476" y="35.0" width="111" height="30" style="fill:#87bcbc;fill-opacity:1.00" />
  <line x1="587" y1="50.0" x2="627" y2="50.0" style="stroke:#999; stroke-width:3;" />
  <rect class="anc_exon" x="627" y="35.0" width="89" height="30" style="fill:#87bcbc;fill-opacity:1.00" />
  <line x1="716" y1="50.0" x2="736" y2="50.0" style="stroke:#999; stroke-width:3;" />
  <line x1="736" y1="50.0" x2="736" y2="50.0" style="stroke:#999; stroke-width:3;" />
  <line x1="736" y1="50.0" x2="736" y2="50.0" style="stroke:#999; stroke-width:3;" />
  <line x1="736" y1="50.0" x2="756" y2="50.0" style="stroke:#999; stroke-width:3;" />
  <rect class="anc_exon" x="756" y="35.0" width="80" height="30" style="fill:#87bcbc;fill-opacity:1.00" />
  <line x1="836" y1="50.0" x2="876" y2="50.0" style="stroke:#999; stroke-width:3;" />
  <rect class="anc_exon" x="876" y="35.0" width="78" height="30" style="fill:#87bcbc;fill-opacity:1.00" />
  <line x1="954" y1="50.0" x2="994" y2="50.0" style="stroke:#999; stroke-width:3;" />
  <rect class="anc_exon" x="994" y="35.0" width="109" height="30" style="fill:#87bcbc;fill-opacity:1.00" />
  <line x1="1103" y1="50.0" x2="1143" y2="50.0" style="stroke:#999; stroke-width:3;" />
  <rect class="anc_exon" x="1143" y="35.0" width="108" height="30" style="fill:#87bcbc;fill-opacity:1.00" />
  <line x1="1251" y1="50.0" x2="1291" y2="50.0" style="stroke:#999; stroke-width:3;" />
  <rect class="anc_exon" x="1291" y="35.0" width="92" height="30" style="fill:#87bcbc;fill-opacity:1.00" />
  <line x1="1383" y1="50.0" x2="1423" y2="50.0" style="stroke:#999; stroke-width:3;" />
  <rect class="anc_exon" x="1423" y="35.0" width="136" height="30" style="fill:#87bcbc;fill-opacity:1.00" />
  <line x1="1559" y1="50.0" x2="1599" y2="50.0" style="stroke:#999; stroke-width:3;" />
  <rect class="anc_exon" x="1599" y="35.0" width="56" height="30" style="fill:#87bcbc;fill-opacity:1.00" />
  <line x1="1655" y1="50.0" x2="1695" y2="50.0" style="stroke:#999; stroke-width:3;" />
  <rect class="anc_exon" x="1695" y="35.0" width="57" height="30" style="fill:#87bcbc;fill-opacity:1.00" />
  <line x1="1752" y1="50.0" x2="1792" y2="50.0" style="stroke:#999; stroke-width:3;" />
  <rect class="anc_exon" x="1792" y="35.0" width="84" height="30" style="fill:#87bcbc;fill-opacity:1.00" />
  <line x1="1876" y1="50.0" x2="1916" y2="50.0" style="stroke:#999; stroke-width:3;" />
  <rect class="anc_exon" x="1916" y="35.0" width="143" height="30" style="fill:#87bcbc;fill-opacity:1.00" />
  <rect class="anc_exon" x="2059" y="35.0" width="0" height="30" style="fill:#87bcbc;fill-opacity:1.00" />
  <text style="" >
<tspan x="0" y="83.0" style="font-size:18px;" >SP XM_031947920_1.1</tspan>  </text>



<script type="text/ecmascript">
<![CDATA[
function draw_bbox(text_id)
{
    var text_elem = document.getElementById(text_id);
    var offset_px = 2;
    var offset_py = 0;
    bbox = text_elem.getBBox();
    var box = document.createElementNS(document.rootElement.namespaceURI,'rect');
    box.setAttribute('x', bbox.x - offset_px);
    box.setAttribute('y', bbox.y - offset_py);
    box.setAttribute('width', bbox.width + offset_px * 2);
    box.setAttribute('height', bbox.height + offset_py * 2);
    box.setAttribute('style','fill: white;'+'stroke: black;'+'stroke-width: 1px;');
    text_elem.insertBefore(box,text_elem.childNodes[0]);

    var svg = text_elem.parentNode;
    svg.appendChild(text_elem);
}

for (var i=1; i < 1; i++)
{
draw_bbox("Mouseover" + i);
}
]]> 
</script>
</svg>
