<svg version="1.1"
xmlns="http://www.w3.org/2000/svg"
xmlns:xlink="http://www.w3.org/1999/xlink"
width="1539" height="100" viewBox = "0 0 1539 100"
onclick="mouseclick(evt)">

<script type="text/ecmascript">

<![CDATA[
    function mouseover(evt, target) { 
    var gv = document.getElementById("globalVariable");
    var previoustarget = gv.firstChild.nodeValue;
    if (previoustarget != "none") 
    {
        	document.getElementById(gv.firstChild.nodeValue).setAttributeNS(null, "visibility", "hidden");
    }
    document.getElementById(target).setAttributeNS(null, "visibility", "visible");
    gv.firstChild.nodeValue = target;
        }

    function mouseclick(evt) { 
    var gv = document.getElementById("globalVariable");
    var previoustarget = gv.firstChild.nodeValue;
    if (previoustarget != "none") {
        	document.getElementById(gv.firstChild.nodeValue).setAttributeNS(null, "visibility", "hidden");
        }
    }
]]>
  </script>
<style type="text/css" >

<![CDATA[
    rect.anc_exon {
              stroke-width:3;
                  }

    rect.non_anc_exon {
              stroke: black; stroke-width:3; stroke-dasharray: 5,5;
                    }

    text {
              font-size: 18px;
              font-family: Courier New;
          }
                    ]]>
</style>

<defs>
    <text x="150" y="40" id="globalVariable">none</text>
</defs>

  <rect class="anc_exon" x="0" y="35.0" width="0" height="30" style="fill:#87bcbc;fill-opacity:1.00" />
  <rect class="anc_exon" x="0" y="35.0" width="49.6" height="30" style="fill:#87bcbc;fill-opacity:1.00" />
  <line x1="49.6" y1="50.0" x2="68.6" y2="50.0" style="stroke:#999; stroke-width:3;" />
  <line x1="68.6" y1="50.0" x2="68.6" y2="50.0" style="stroke:#999; stroke-width:3;" />
  <line x1="68.6" y1="50.0" x2="68.6" y2="50.0" style="stroke:#999; stroke-width:3;" />
  <line x1="68.6" y1="50.0" x2="89.0" y2="50.0" style="stroke:#999; stroke-width:3;" />
  <rect class="anc_exon" x="89" y="35.0" width="58" height="30" style="fill:#87bcbc;fill-opacity:1.00" />
  <line x1="147" y1="50.0" x2="167" y2="50.0" style="stroke:#999; stroke-width:3;" />
  <line x1="167" y1="50.0" x2="167" y2="50.0" style="stroke:#999; stroke-width:3;" />
  <line x1="167" y1="50.0" x2="167" y2="50.0" style="stroke:#999; stroke-width:3;" />
  <line x1="167" y1="50.0" x2="187" y2="50.0" style="stroke:#999; stroke-width:3;" />
  <rect class="anc_exon" x="187" y="35.0" width="49" height="30" style="fill:#87bcbc;fill-opacity:1.00" />
  <line x1="236" y1="50.0" x2="256" y2="50.0" style="stroke:#999; stroke-width:3;" />
  <line x1="256" y1="50.0" x2="256" y2="50.0" style="stroke:#999; stroke-width:3;" />
  <line x1="256" y1="50.0" x2="256" y2="50.0" style="stroke:#999; stroke-width:3;" />
  <line x1="256" y1="50.0" x2="276" y2="50.0" style="stroke:#999; stroke-width:3;" />
  <rect class="anc_exon" x="276" y="35.0" width="68" height="30" style="fill:#87bcbc;fill-opacity:1.00" />
  <line x1="344" y1="50.0" x2="364" y2="50.0" style="stroke:#999; stroke-width:3;" />
  <line x1="364" y1="50.0" x2="364" y2="50.0" style="stroke:#999; stroke-width:3;" />
  <line x1="364" y1="50.0" x2="364" y2="50.0" style="stroke:#999; stroke-width:3;" />
  <line x1="364" y1="50.0" x2="384" y2="50.0" style="stroke:#999; stroke-width:3;" />
  <rect class="anc_exon" x="384" y="35.0" width="72" height="30" style="fill:#87bcbc;fill-opacity:1.00" />
  <line x1="456" y1="50.0" x2="476" y2="50.0" style="stroke:#999; stroke-width:3;" />
  <line x1="476" y1="50.0" x2="476" y2="50.0" style="stroke:#999; stroke-width:3;" />
  <line x1="476" y1="50.0" x2="476" y2="50.0" style="stroke:#999; stroke-width:3;" />
  <line x1="476" y1="50.0" x2="496" y2="50.0" style="stroke:#999; stroke-width:3;" />
  <rect class="anc_exon" x="496" y="35.0" width="48" height="30" style="fill:#87bcbc;fill-opacity:1.00" />
  <line x1="544" y1="50.0" x2="564" y2="50.0" style="stroke:#999; stroke-width:3;" />
  <line x1="564" y1="50.0" x2="564" y2="50.0" style="stroke:#999; stroke-width:3;" />
  <line x1="564" y1="50.0" x2="564" y2="50.0" style="stroke:#999; stroke-width:3;" />
  <line x1="564" y1="50.0" x2="584" y2="50.0" style="stroke:#999; stroke-width:3;" />
  <rect class="anc_exon" x="584" y="35.0" width="53" height="30" style="fill:#87bcbc;fill-opacity:1.00" />
  <line x1="637" y1="50.0" x2="677" y2="50.0" style="stroke:#999; stroke-width:3;" />
  <rect class="anc_exon" x="677" y="35.0" width="56" height="30" style="fill:#87bcbc;fill-opacity:1.00" />
  <line x1="733" y1="50.0" x2="753" y2="50.0" style="stroke:#999; stroke-width:3;" />
  <line x1="753" y1="50.0" x2="753" y2="50.0" style="stroke:#999; stroke-width:3;" />
  <line x1="753" y1="50.0" x2="753" y2="50.0" style="stroke:#999; stroke-width:3;" />
  <line x1="753" y1="50.0" x2="773" y2="50.0" style="stroke:#999; stroke-width:3;" />
  <rect class="anc_exon" x="773" y="35.0" width="54" height="30" style="fill:#87bcbc;fill-opacity:1.00" />
  <line x1="827" y1="50.0" x2="847" y2="50.0" style="stroke:#999; stroke-width:3;" />
  <line x1="847" y1="50.0" x2="847" y2="50.0" style="stroke:#999; stroke-width:3;" />
  <line x1="847" y1="50.0" x2="847" y2="50.0" style="stroke:#999; stroke-width:3;" />
  <line x1="847" y1="50.0" x2="867" y2="50.0" style="stroke:#999; stroke-width:3;" />
  <rect class="anc_exon" x="867" y="35.0" width="39" height="30" style="fill:#87bcbc;fill-opacity:1.00" />
  <line x1="906" y1="50.0" x2="926" y2="50.0" style="stroke:#999; stroke-width:3;" />
  <line x1="926" y1="50.0" x2="926" y2="50.0" style="stroke:#999; stroke-width:3;" />
  <line x1="926" y1="50.0" x2="926" y2="50.0" style="stroke:#999; stroke-width:3;" />
  <line x1="926" y1="50.0" x2="946" y2="50.0" style="stroke:#999; stroke-width:3;" />
  <rect class="anc_exon" x="946" y="35.0" width="28" height="30" style="fill:#87bcbc;fill-opacity:1.00" />
  <line x1="974" y1="50.0" x2="994" y2="50.0" style="stroke:#999; stroke-width:3;" />
  <line x1="994" y1="50.0" x2="994" y2="50.0" style="stroke:#999; stroke-width:3;" />
  <line x1="994" y1="50.0" x2="994" y2="50.0" style="stroke:#999; stroke-width:3;" />
  <line x1="994" y1="50.0" x2="1014" y2="50.0" style="stroke:#999; stroke-width:3;" />
  <rect class="anc_exon" x="1014" y="35.0" width="44" height="30" style="fill:#87bcbc;fill-opacity:1.00" />
  <line x1="1058" y1="50.0" x2="1078" y2="50.0" style="stroke:#999; stroke-width:3;" />
  <line x1="1078" y1="50.0" x2="1078" y2="50.0" style="stroke:#999; stroke-width:3;" />
  <line x1="1078" y1="50.0" x2="1078" y2="50.0" style="stroke:#999; stroke-width:3;" />
  <line x1="1078" y1="50.0" x2="1098" y2="50.0" style="stroke:#999; stroke-width:3;" />
  <rect class="anc_exon" x="1098" y="35.0" width="56" height="30" style="fill:#87bcbc;fill-opacity:1.00" />
  <line x1="1154" y1="50.0" x2="1174" y2="50.0" style="stroke:#999; stroke-width:3;" />
  <line x1="1174" y1="50.0" x2="1174" y2="50.0" style="stroke:#999; stroke-width:3;" />
  <line x1="1174" y1="50.0" x2="1174" y2="50.0" style="stroke:#999; stroke-width:3;" />
  <line x1="1174" y1="50.0" x2="1194" y2="50.0" style="stroke:#999; stroke-width:3;" />
  <rect class="anc_exon" x="1194" y="35.0" width="63" height="30" style="fill:#87bcbc;fill-opacity:1.00" />
  <line x1="1257" y1="50.0" x2="1277" y2="50.0" style="stroke:#999; stroke-width:3;" />
  <line x1="1277" y1="50.0" x2="1277" y2="50.0" style="stroke:#999; stroke-width:3;" />
  <line x1="1277" y1="50.0" x2="1277" y2="50.0" style="stroke:#999; stroke-width:3;" />
  <line x1="1277" y1="50.0" x2="1297" y2="50.0" style="stroke:#999; stroke-width:3;" />
  <rect class="anc_exon" x="1297" y="35.0" width="23" height="30" style="fill:#87bcbc;fill-opacity:1.00" />
  <line x1="1320" y1="50.0" x2="1340" y2="50.0" style="stroke:#999; stroke-width:3;" />
  <line x1="1340" y1="50.0" x2="1340" y2="50.0" style="stroke:#999; stroke-width:3;" />
  <line x1="1340" y1="50.0" x2="1340" y2="50.0" style="stroke:#999; stroke-width:3;" />
  <line x1="1340" y1="50.0" x2="1360" y2="50.0" style="stroke:#999; stroke-width:3;" />
  <rect class="anc_exon" x="1360" y="35.0" width="79" height="30" style="fill:#87bcbc;fill-opacity:1.00" />
  <line x1="1439" y1="50.0" x2="1459" y2="50.0" style="stroke:#999; stroke-width:3;" />
  <line x1="1459" y1="50.0" x2="1459" y2="50.0" style="stroke:#999; stroke-width:3;" />
  <line x1="1459" y1="50.0" x2="1459" y2="50.0" style="stroke:#999; stroke-width:3;" />
  <line x1="1459" y1="50.0" x2="1479" y2="50.0" style="stroke:#999; stroke-width:3;" />
  <rect class="anc_exon" x="1479" y="35.0" width="24" height="30" style="fill:#87bcbc;fill-opacity:1.00" />
  <rect class="anc_exon" x="1503" y="35.0" width="0" height="30" style="fill:#87bcbc;fill-opacity:1.00" />
  <text style="" >
<tspan x="0" y="83.0" style="font-size:18px;" >SP XM_031967100_1.1</tspan>  </text>



<script type="text/ecmascript">
<![CDATA[
function draw_bbox(text_id)
{
    var text_elem = document.getElementById(text_id);
    var offset_px = 2;
    var offset_py = 0;
    bbox = text_elem.getBBox();
    var box = document.createElementNS(document.rootElement.namespaceURI,'rect');
    box.setAttribute('x', bbox.x - offset_px);
    box.setAttribute('y', bbox.y - offset_py);
    box.setAttribute('width', bbox.width + offset_px * 2);
    box.setAttribute('height', bbox.height + offset_py * 2);
    box.setAttribute('style','fill: white;'+'stroke: black;'+'stroke-width: 1px;');
    text_elem.insertBefore(box,text_elem.childNodes[0]);

    var svg = text_elem.parentNode;
    svg.appendChild(text_elem);
}

for (var i=1; i < 1; i++)
{
draw_bbox("Mouseover" + i);
}
]]> 
</script>
</svg>
