<svg version="1.1"
xmlns="http://www.w3.org/2000/svg"
xmlns:xlink="http://www.w3.org/1999/xlink"
width="4344" height="100" viewBox = "0 0 4344 100"
onclick="mouseclick(evt)">

<script type="text/ecmascript">

<![CDATA[
    function mouseover(evt, target) { 
    var gv = document.getElementById("globalVariable");
    var previoustarget = gv.firstChild.nodeValue;
    if (previoustarget != "none") 
    {
        	document.getElementById(gv.firstChild.nodeValue).setAttributeNS(null, "visibility", "hidden");
    }
    document.getElementById(target).setAttributeNS(null, "visibility", "visible");
    gv.firstChild.nodeValue = target;
        }

    function mouseclick(evt) { 
    var gv = document.getElementById("globalVariable");
    var previoustarget = gv.firstChild.nodeValue;
    if (previoustarget != "none") {
        	document.getElementById(gv.firstChild.nodeValue).setAttributeNS(null, "visibility", "hidden");
        }
    }
]]>
  </script>
<style type="text/css" >

<![CDATA[
    rect.anc_exon {
              stroke-width:3;
                  }

    rect.non_anc_exon {
              stroke: black; stroke-width:3; stroke-dasharray: 5,5;
                    }

    text {
              font-size: 18px;
              font-family: Courier New;
          }
                    ]]>
</style>

<defs>
    <text x="150" y="40" id="globalVariable">none</text>
</defs>

  <rect class="anc_exon" x="0" y="35.0" width="0" height="30" style="fill:#87bcbc;fill-opacity:1.00" />
  <rect class="anc_exon" x="0" y="35.0" width="93.60000000000001" height="30" style="fill:#87bcbc;fill-opacity:1.00" />
  <line x1="93.60000000000001" y1="50.0" x2="112.60000000000001" y2="50.0" style="stroke:#999; stroke-width:3;" />
  <line x1="112.60000000000001" y1="50.0" x2="112.60000000000001" y2="50.0" style="stroke:#999; stroke-width:3;" />
  <line x1="112.60000000000001" y1="50.0" x2="112.60000000000001" y2="50.0" style="stroke:#999; stroke-width:3;" />
  <line x1="112.60000000000001" y1="50.0" x2="133.0" y2="50.0" style="stroke:#999; stroke-width:3;" />
  <rect class="anc_exon" x="133" y="35.0" width="117" height="30" style="fill:#87bcbc;fill-opacity:1.00" />
  <line x1="250" y1="50.0" x2="270" y2="50.0" style="stroke:#999; stroke-width:3;" />
  <line x1="270" y1="50.0" x2="270" y2="50.0" style="stroke:#999; stroke-width:3;" />
  <line x1="270" y1="50.0" x2="270" y2="50.0" style="stroke:#999; stroke-width:3;" />
  <line x1="270" y1="50.0" x2="290" y2="50.0" style="stroke:#999; stroke-width:3;" />
  <rect class="anc_exon" x="290" y="35.0" width="67" height="30" style="fill:#87bcbc;fill-opacity:1.00" />
  <line x1="357" y1="50.0" x2="397" y2="50.0" style="stroke:#999; stroke-width:3;" />
  <rect class="anc_exon" x="397" y="35.0" width="77" height="30" style="fill:#87bcbc;fill-opacity:1.00" />
  <line x1="474" y1="50.0" x2="514" y2="50.0" style="stroke:#999; stroke-width:3;" />
  <rect class="anc_exon" x="514" y="35.0" width="128" height="30" style="fill:#87bcbc;fill-opacity:1.00" />
  <line x1="642" y1="50.0" x2="682" y2="50.0" style="stroke:#999; stroke-width:3;" />
  <rect class="anc_exon" x="682" y="35.0" width="107" height="30" style="fill:#87bcbc;fill-opacity:1.00" />
  <line x1="789" y1="50.0" x2="829" y2="50.0" style="stroke:#999; stroke-width:3;" />
  <rect class="anc_exon" x="829" y="35.0" width="72" height="30" style="fill:#87bcbc;fill-opacity:1.00" />
  <line x1="901" y1="50.0" x2="921" y2="50.0" style="stroke:#999; stroke-width:3;" />
  <line x1="921" y1="50.0" x2="921" y2="50.0" style="stroke:#999; stroke-width:3;" />
  <line x1="921" y1="50.0" x2="921" y2="50.0" style="stroke:#999; stroke-width:3;" />
  <line x1="921" y1="50.0" x2="941" y2="50.0" style="stroke:#999; stroke-width:3;" />
  <rect class="anc_exon" x="941" y="35.0" width="115" height="30" style="fill:#87bcbc;fill-opacity:1.00" />
  <line x1="1056" y1="50.0" x2="1076" y2="50.0" style="stroke:#999; stroke-width:3;" />
  <line x1="1076" y1="50.0" x2="1076" y2="50.0" style="stroke:#999; stroke-width:3;" />
  <line x1="1076" y1="50.0" x2="1076" y2="50.0" style="stroke:#999; stroke-width:3;" />
  <line x1="1076" y1="50.0" x2="1096" y2="50.0" style="stroke:#999; stroke-width:3;" />
  <rect class="anc_exon" x="1096" y="35.0" width="94" height="30" style="fill:#87bcbc;fill-opacity:1.00" />
  <line x1="1190" y1="50.0" x2="1210" y2="50.0" style="stroke:#999; stroke-width:3;" />
  <line x1="1210" y1="50.0" x2="1210" y2="50.0" style="stroke:#999; stroke-width:3;" />
  <line x1="1210" y1="50.0" x2="1210" y2="50.0" style="stroke:#999; stroke-width:3;" />
  <line x1="1210" y1="50.0" x2="1230" y2="50.0" style="stroke:#999; stroke-width:3;" />
  <rect class="anc_exon" x="1230" y="35.0" width="84" height="30" style="fill:#87bcbc;fill-opacity:1.00" />
  <line x1="1314" y1="50.0" x2="1354" y2="50.0" style="stroke:#999; stroke-width:3;" />
  <rect class="anc_exon" x="1354" y="35.0" width="123" height="30" style="fill:#87bcbc;fill-opacity:1.00" />
  <line x1="1477" y1="50.0" x2="1497" y2="50.0" style="stroke:#999; stroke-width:3;" />
  <line x1="1497" y1="50.0" x2="1497" y2="50.0" style="stroke:#999; stroke-width:3;" />
  <line x1="1497" y1="50.0" x2="1497" y2="50.0" style="stroke:#999; stroke-width:3;" />
  <line x1="1497" y1="50.0" x2="1517" y2="50.0" style="stroke:#999; stroke-width:3;" />
  <rect class="anc_exon" x="1517" y="35.0" width="141" height="30" style="fill:#87bcbc;fill-opacity:1.00" />
  <line x1="1658" y1="50.0" x2="1678" y2="50.0" style="stroke:#999; stroke-width:3;" />
  <line x1="1678" y1="50.0" x2="1678" y2="50.0" style="stroke:#999; stroke-width:3;" />
  <line x1="1678" y1="50.0" x2="1678" y2="50.0" style="stroke:#999; stroke-width:3;" />
  <line x1="1678" y1="50.0" x2="1698" y2="50.0" style="stroke:#999; stroke-width:3;" />
  <rect class="anc_exon" x="1698" y="35.0" width="78" height="30" style="fill:#87bcbc;fill-opacity:1.00" />
  <line x1="1776" y1="50.0" x2="1796" y2="50.0" style="stroke:#999; stroke-width:3;" />
  <line x1="1796" y1="50.0" x2="1796" y2="50.0" style="stroke:#999; stroke-width:3;" />
  <line x1="1796" y1="50.0" x2="1796" y2="50.0" style="stroke:#999; stroke-width:3;" />
  <line x1="1796" y1="50.0" x2="1816" y2="50.0" style="stroke:#999; stroke-width:3;" />
  <rect class="anc_exon" x="1816" y="35.0" width="66" height="30" style="fill:#87bcbc;fill-opacity:1.00" />
  <line x1="1882" y1="50.0" x2="1922" y2="50.0" style="stroke:#999; stroke-width:3;" />
  <rect class="anc_exon" x="1922" y="35.0" width="148" height="30" style="fill:#87bcbc;fill-opacity:1.00" />
  <line x1="2070" y1="50.0" x2="2110" y2="50.0" style="stroke:#999; stroke-width:3;" />
  <rect class="anc_exon" x="2110" y="35.0" width="140" height="30" style="fill:#87bcbc;fill-opacity:1.00" />
  <line x1="2250" y1="50.0" x2="2290" y2="50.0" style="stroke:#999; stroke-width:3;" />
  <rect class="anc_exon" x="2290" y="35.0" width="105" height="30" style="fill:#87bcbc;fill-opacity:1.00" />
  <line x1="2395" y1="50.0" x2="2415" y2="50.0" style="stroke:#999; stroke-width:3;" />
  <line x1="2415" y1="50.0" x2="2415" y2="50.0" style="stroke:#999; stroke-width:3;" />
  <line x1="2415" y1="50.0" x2="2415" y2="50.0" style="stroke:#999; stroke-width:3;" />
  <line x1="2415" y1="50.0" x2="2435" y2="50.0" style="stroke:#999; stroke-width:3;" />
  <rect class="anc_exon" x="2435" y="35.0" width="108" height="30" style="fill:#87bcbc;fill-opacity:1.00" />
  <line x1="2543" y1="50.0" x2="2583" y2="50.0" style="stroke:#999; stroke-width:3;" />
  <rect class="anc_exon" x="2583" y="35.0" width="90" height="30" style="fill:#87bcbc;fill-opacity:1.00" />
  <line x1="2673" y1="50.0" x2="2713" y2="50.0" style="stroke:#999; stroke-width:3;" />
  <rect class="anc_exon" x="2713" y="35.0" width="57" height="30" style="fill:#87bcbc;fill-opacity:1.00" />
  <line x1="2770" y1="50.0" x2="2810" y2="50.0" style="stroke:#999; stroke-width:3;" />
  <rect class="anc_exon" x="2810" y="35.0" width="87" height="30" style="fill:#87bcbc;fill-opacity:1.00" />
  <line x1="2897" y1="50.0" x2="2937" y2="50.0" style="stroke:#999; stroke-width:3;" />
  <rect class="anc_exon" x="2937" y="35.0" width="60" height="30" style="fill:#87bcbc;fill-opacity:1.00" />
  <line x1="2997" y1="50.0" x2="3037" y2="50.0" style="stroke:#999; stroke-width:3;" />
  <rect class="anc_exon" x="3037" y="35.0" width="115" height="30" style="fill:#87bcbc;fill-opacity:1.00" />
  <line x1="3152" y1="50.0" x2="3192" y2="50.0" style="stroke:#999; stroke-width:3;" />
  <rect class="anc_exon" x="3192" y="35.0" width="76" height="30" style="fill:#87bcbc;fill-opacity:1.00" />
  <line x1="3268" y1="50.0" x2="3308" y2="50.0" style="stroke:#999; stroke-width:3;" />
  <rect class="anc_exon" x="3308" y="35.0" width="74" height="30" style="fill:#87bcbc;fill-opacity:1.00" />
  <line x1="3382" y1="50.0" x2="3422" y2="50.0" style="stroke:#999; stroke-width:3;" />
  <rect class="anc_exon" x="3422" y="35.0" width="105" height="30" style="fill:#878787;fill-opacity:1.00" />
  <line x1="3527" y1="50.0" x2="3567" y2="50.0" style="stroke:#999; stroke-width:3;" />
  <rect class="anc_exon" x="3567" y="35.0" width="61" height="30" style="fill:#87bcbc;fill-opacity:1.00" />
  <line x1="3628" y1="50.0" x2="3668" y2="50.0" style="stroke:#999; stroke-width:3;" />
  <rect class="anc_exon" x="3668" y="35.0" width="152" height="30" style="fill:#87bcbc;fill-opacity:1.00" />
  <line x1="3820" y1="50.0" x2="3860" y2="50.0" style="stroke:#999; stroke-width:3;" />
  <rect class="anc_exon" x="3860" y="35.0" width="448" height="30" style="fill:#878787;fill-opacity:1.00" />
  <rect class="anc_exon" x="4308" y="35.0" width="0" height="30" style="fill:#87bcbc;fill-opacity:1.00" />
  <text style="" >
<tspan x="0" y="83.0" style="font-size:18px;" >SP XM_031948036_1.1</tspan>  </text>



<script type="text/ecmascript">
<![CDATA[
function draw_bbox(text_id)
{
    var text_elem = document.getElementById(text_id);
    var offset_px = 2;
    var offset_py = 0;
    bbox = text_elem.getBBox();
    var box = document.createElementNS(document.rootElement.namespaceURI,'rect');
    box.setAttribute('x', bbox.x - offset_px);
    box.setAttribute('y', bbox.y - offset_py);
    box.setAttribute('width', bbox.width + offset_px * 2);
    box.setAttribute('height', bbox.height + offset_py * 2);
    box.setAttribute('style','fill: white;'+'stroke: black;'+'stroke-width: 1px;');
    text_elem.insertBefore(box,text_elem.childNodes[0]);

    var svg = text_elem.parentNode;
    svg.appendChild(text_elem);
}

for (var i=1; i < 1; i++)
{
draw_bbox("Mouseover" + i);
}
]]> 
</script>
</svg>
