<svg version="1.1"
xmlns="http://www.w3.org/2000/svg"
xmlns:xlink="http://www.w3.org/1999/xlink"
width="3023" height="100" viewBox = "0 0 3023 100"
onclick="mouseclick(evt)">

<script type="text/ecmascript">

<![CDATA[
    function mouseover(evt, target) { 
    var gv = document.getElementById("globalVariable");
    var previoustarget = gv.firstChild.nodeValue;
    if (previoustarget != "none") 
    {
        	document.getElementById(gv.firstChild.nodeValue).setAttributeNS(null, "visibility", "hidden");
    }
    document.getElementById(target).setAttributeNS(null, "visibility", "visible");
    gv.firstChild.nodeValue = target;
        }

    function mouseclick(evt) { 
    var gv = document.getElementById("globalVariable");
    var previoustarget = gv.firstChild.nodeValue;
    if (previoustarget != "none") {
        	document.getElementById(gv.firstChild.nodeValue).setAttributeNS(null, "visibility", "hidden");
        }
    }
]]>
  </script>
<style type="text/css" >

<![CDATA[
    rect.anc_exon {
              stroke-width:3;
                  }

    rect.non_anc_exon {
              stroke: black; stroke-width:3; stroke-dasharray: 5,5;
                    }

    text {
              font-size: 18px;
              font-family: Courier New;
          }
                    ]]>
</style>

<defs>
    <text x="150" y="40" id="globalVariable">none</text>
</defs>

  <rect class="anc_exon" x="0" y="35.0" width="0" height="30" style="fill:#87bcbc;fill-opacity:1.00" />
  <rect class="anc_exon" x="0" y="35.0" width="46.400000000000006" height="30" style="fill:#87bcbc;fill-opacity:1.00" />
  <line x1="46.400000000000006" y1="50.0" x2="65.4" y2="50.0" style="stroke:#999; stroke-width:3;" />
  <line x1="65.4" y1="50.0" x2="65.4" y2="50.0" style="stroke:#999; stroke-width:3;" />
  <line x1="65.4" y1="50.0" x2="65.4" y2="50.0" style="stroke:#999; stroke-width:3;" />
  <line x1="65.4" y1="50.0" x2="86.0" y2="50.0" style="stroke:#999; stroke-width:3;" />
  <rect class="anc_exon" x="86" y="35.0" width="36" height="30" style="fill:#87bcbc;fill-opacity:1.00" />
  <line x1="122" y1="50.0" x2="142" y2="50.0" style="stroke:#999; stroke-width:3;" />
  <line x1="142" y1="50.0" x2="142" y2="50.0" style="stroke:#999; stroke-width:3;" />
  <line x1="142" y1="50.0" x2="142" y2="50.0" style="stroke:#999; stroke-width:3;" />
  <line x1="142" y1="50.0" x2="162" y2="50.0" style="stroke:#999; stroke-width:3;" />
  <rect class="anc_exon" x="162" y="35.0" width="56" height="30" style="fill:#87bcbc;fill-opacity:1.00" />
  <line x1="218" y1="50.0" x2="238" y2="50.0" style="stroke:#999; stroke-width:3;" />
  <line x1="238" y1="50.0" x2="238" y2="50.0" style="stroke:#999; stroke-width:3;" />
  <line x1="238" y1="50.0" x2="238" y2="50.0" style="stroke:#999; stroke-width:3;" />
  <line x1="238" y1="50.0" x2="258" y2="50.0" style="stroke:#999; stroke-width:3;" />
  <rect class="anc_exon" x="258" y="35.0" width="91" height="30" style="fill:#87bcbc;fill-opacity:1.00" />
  <line x1="349" y1="50.0" x2="369" y2="50.0" style="stroke:#999; stroke-width:3;" />
  <line x1="369" y1="50.0" x2="369" y2="50.0" style="stroke:#999; stroke-width:3;" />
  <line x1="369" y1="50.0" x2="369" y2="50.0" style="stroke:#999; stroke-width:3;" />
  <line x1="369" y1="50.0" x2="389" y2="50.0" style="stroke:#999; stroke-width:3;" />
  <rect class="anc_exon" x="389" y="35.0" width="55" height="30" style="fill:#87bcbc;fill-opacity:1.00" />
  <line x1="444" y1="50.0" x2="464" y2="50.0" style="stroke:#999; stroke-width:3;" />
  <line x1="464" y1="50.0" x2="464" y2="50.0" style="stroke:#999; stroke-width:3;" />
  <line x1="464" y1="50.0" x2="464" y2="50.0" style="stroke:#999; stroke-width:3;" />
  <line x1="464" y1="50.0" x2="484" y2="50.0" style="stroke:#999; stroke-width:3;" />
  <rect class="anc_exon" x="484" y="35.0" width="228" height="30" style="fill:#87bcbc;fill-opacity:1.00" />
  <line x1="712" y1="50.0" x2="732" y2="50.0" style="stroke:#999; stroke-width:3;" />
  <line x1="732" y1="50.0" x2="732" y2="50.0" style="stroke:#999; stroke-width:3;" />
  <line x1="732" y1="50.0" x2="732" y2="50.0" style="stroke:#999; stroke-width:3;" />
  <line x1="732" y1="50.0" x2="752" y2="50.0" style="stroke:#999; stroke-width:3;" />
  <rect class="anc_exon" x="752" y="35.0" width="91" height="30" style="fill:#87bcbc;fill-opacity:1.00" />
  <line x1="843" y1="50.0" x2="863" y2="50.0" style="stroke:#999; stroke-width:3;" />
  <line x1="863" y1="50.0" x2="863" y2="50.0" style="stroke:#999; stroke-width:3;" />
  <line x1="863" y1="50.0" x2="863" y2="50.0" style="stroke:#999; stroke-width:3;" />
  <line x1="863" y1="50.0" x2="883" y2="50.0" style="stroke:#999; stroke-width:3;" />
  <rect class="anc_exon" x="883" y="35.0" width="92" height="30" style="fill:#87bcbc;fill-opacity:1.00" />
  <line x1="975" y1="50.0" x2="995" y2="50.0" style="stroke:#999; stroke-width:3;" />
  <line x1="995" y1="50.0" x2="995" y2="50.0" style="stroke:#999; stroke-width:3;" />
  <line x1="995" y1="50.0" x2="995" y2="50.0" style="stroke:#999; stroke-width:3;" />
  <line x1="995" y1="50.0" x2="1015" y2="50.0" style="stroke:#999; stroke-width:3;" />
  <rect class="anc_exon" x="1015" y="35.0" width="108" height="30" style="fill:#87bcbc;fill-opacity:1.00" />
  <line x1="1123" y1="50.0" x2="1163" y2="50.0" style="stroke:#999; stroke-width:3;" />
  <rect class="anc_exon" x="1163" y="35.0" width="84" height="30" style="fill:#87bcbc;fill-opacity:1.00" />
  <line x1="1247" y1="50.0" x2="1287" y2="50.0" style="stroke:#999; stroke-width:3;" />
  <rect class="anc_exon" x="1287" y="35.0" width="48" height="30" style="fill:#87bcbc;fill-opacity:1.00" />
  <line x1="1335" y1="50.0" x2="1355" y2="50.0" style="stroke:#999; stroke-width:3;" />
  <line x1="1355" y1="50.0" x2="1355" y2="50.0" style="stroke:#999; stroke-width:3;" />
  <line x1="1355" y1="50.0" x2="1355" y2="50.0" style="stroke:#999; stroke-width:3;" />
  <line x1="1355" y1="50.0" x2="1375" y2="50.0" style="stroke:#999; stroke-width:3;" />
  <rect class="anc_exon" x="1375" y="35.0" width="121" height="30" style="fill:#87bcbc;fill-opacity:1.00" />
  <line x1="1496" y1="50.0" x2="1516" y2="50.0" style="stroke:#999; stroke-width:3;" />
  <line x1="1516" y1="50.0" x2="1516" y2="50.0" style="stroke:#999; stroke-width:3;" />
  <line x1="1516" y1="50.0" x2="1516" y2="50.0" style="stroke:#999; stroke-width:3;" />
  <line x1="1516" y1="50.0" x2="1536" y2="50.0" style="stroke:#999; stroke-width:3;" />
  <rect class="anc_exon" x="1536" y="35.0" width="62" height="30" style="fill:#87bcbc;fill-opacity:1.00" />
  <line x1="1598" y1="50.0" x2="1618" y2="50.0" style="stroke:#999; stroke-width:3;" />
  <line x1="1618" y1="50.0" x2="1618" y2="50.0" style="stroke:#999; stroke-width:3;" />
  <line x1="1618" y1="50.0" x2="1618" y2="50.0" style="stroke:#999; stroke-width:3;" />
  <line x1="1618" y1="50.0" x2="1638" y2="50.0" style="stroke:#999; stroke-width:3;" />
  <rect class="anc_exon" x="1638" y="35.0" width="178" height="30" style="fill:#87bcbc;fill-opacity:1.00" />
  <line x1="1816" y1="50.0" x2="1836" y2="50.0" style="stroke:#999; stroke-width:3;" />
  <line x1="1836" y1="50.0" x2="1836" y2="50.0" style="stroke:#999; stroke-width:3;" />
  <line x1="1836" y1="50.0" x2="1836" y2="50.0" style="stroke:#999; stroke-width:3;" />
  <line x1="1836" y1="50.0" x2="1856" y2="50.0" style="stroke:#999; stroke-width:3;" />
  <rect class="anc_exon" x="1856" y="35.0" width="136" height="30" style="fill:#87bcbc;fill-opacity:1.00" />
  <line x1="1992" y1="50.0" x2="2032" y2="50.0" style="stroke:#999; stroke-width:3;" />
  <rect class="anc_exon" x="2032" y="35.0" width="78" height="30" style="fill:#87bcbc;fill-opacity:1.00" />
  <line x1="2110" y1="50.0" x2="2150" y2="50.0" style="stroke:#999; stroke-width:3;" />
  <rect class="anc_exon" x="2150" y="35.0" width="104" height="30" style="fill:#87bcbc;fill-opacity:1.00" />
  <line x1="2254" y1="50.0" x2="2294" y2="50.0" style="stroke:#999; stroke-width:3;" />
  <rect class="anc_exon" x="2294" y="35.0" width="164" height="30" style="fill:#87bcbc;fill-opacity:1.00" />
  <line x1="2458" y1="50.0" x2="2498" y2="50.0" style="stroke:#999; stroke-width:3;" />
  <rect class="anc_exon" x="2498" y="35.0" width="145" height="30" style="fill:#87bcbc;fill-opacity:1.00" />
  <line x1="2643" y1="50.0" x2="2683" y2="50.0" style="stroke:#999; stroke-width:3;" />
  <rect class="anc_exon" x="2683" y="35.0" width="84" height="30" style="fill:#87bcbc;fill-opacity:1.00" />
  <line x1="2767" y1="50.0" x2="2787" y2="50.0" style="stroke:#999; stroke-width:3;" />
  <line x1="2787" y1="50.0" x2="2787" y2="50.0" style="stroke:#999; stroke-width:3;" />
  <line x1="2787" y1="50.0" x2="2787" y2="50.0" style="stroke:#999; stroke-width:3;" />
  <line x1="2787" y1="50.0" x2="2807" y2="50.0" style="stroke:#999; stroke-width:3;" />
  <rect class="anc_exon" x="2807" y="35.0" width="180" height="30" style="fill:#87bcbc;fill-opacity:1.00" />
  <rect class="anc_exon" x="2987" y="35.0" width="0" height="30" style="fill:#87bcbc;fill-opacity:1.00" />
  <text style="" >
<tspan x="0" y="83.0" style="font-size:18px;" >SP XM_031941872_1.1</tspan>  </text>



<script type="text/ecmascript">
<![CDATA[
function draw_bbox(text_id)
{
    var text_elem = document.getElementById(text_id);
    var offset_px = 2;
    var offset_py = 0;
    bbox = text_elem.getBBox();
    var box = document.createElementNS(document.rootElement.namespaceURI,'rect');
    box.setAttribute('x', bbox.x - offset_px);
    box.setAttribute('y', bbox.y - offset_py);
    box.setAttribute('width', bbox.width + offset_px * 2);
    box.setAttribute('height', bbox.height + offset_py * 2);
    box.setAttribute('style','fill: white;'+'stroke: black;'+'stroke-width: 1px;');
    text_elem.insertBefore(box,text_elem.childNodes[0]);

    var svg = text_elem.parentNode;
    svg.appendChild(text_elem);
}

for (var i=1; i < 1; i++)
{
draw_bbox("Mouseover" + i);
}
]]> 
</script>
</svg>
