<svg version="1.1"
xmlns="http://www.w3.org/2000/svg"
xmlns:xlink="http://www.w3.org/1999/xlink"
width="2376" height="100" viewBox = "0 0 2376 100"
onclick="mouseclick(evt)">

<script type="text/ecmascript">

<![CDATA[
    function mouseover(evt, target) { 
    var gv = document.getElementById("globalVariable");
    var previoustarget = gv.firstChild.nodeValue;
    if (previoustarget != "none") 
    {
        	document.getElementById(gv.firstChild.nodeValue).setAttributeNS(null, "visibility", "hidden");
    }
    document.getElementById(target).setAttributeNS(null, "visibility", "visible");
    gv.firstChild.nodeValue = target;
        }

    function mouseclick(evt) { 
    var gv = document.getElementById("globalVariable");
    var previoustarget = gv.firstChild.nodeValue;
    if (previoustarget != "none") {
        	document.getElementById(gv.firstChild.nodeValue).setAttributeNS(null, "visibility", "hidden");
        }
    }
]]>
  </script>
<style type="text/css" >

<![CDATA[
    rect.anc_exon {
              stroke-width:3;
                  }

    rect.non_anc_exon {
              stroke: black; stroke-width:3; stroke-dasharray: 5,5;
                    }

    text {
              font-size: 18px;
              font-family: Courier New;
          }
                    ]]>
</style>

<defs>
    <text x="150" y="40" id="globalVariable">none</text>
</defs>

  <rect class="anc_exon" x="0" y="35.0" width="0" height="30" style="fill:#87bcbc;fill-opacity:1.00" />
  <rect class="anc_exon" x="0" y="35.0" width="22.400000000000002" height="30" style="fill:#cf232b;fill-opacity:1.00" />
  <line x1="22.400000000000002" y1="50.0" x2="41.400000000000006" y2="50.0" style="stroke:#999; stroke-width:3;" />
  <line x1="41.400000000000006" y1="50.0" x2="41.400000000000006" y2="50.0" style="stroke:#999; stroke-width:3;" />
  <line x1="41.400000000000006" y1="50.0" x2="41.400000000000006" y2="50.0" style="stroke:#999; stroke-width:3;" />
  <line x1="41.400000000000006" y1="50.0" x2="62.0" y2="50.0" style="stroke:#999; stroke-width:3;" />
  <rect class="anc_exon" x="62" y="35.0" width="81" height="30" style="fill:#87bcbc;fill-opacity:1.00" />
  <line x1="143" y1="50.0" x2="183" y2="50.0" style="stroke:#999; stroke-width:3;" />
  <rect class="anc_exon" x="183" y="35.0" width="244" height="30" style="fill:#87bcbc;fill-opacity:1.00" />
  <line x1="427" y1="50.0" x2="467" y2="50.0" style="stroke:#999; stroke-width:3;" />
  <rect class="anc_exon" x="467" y="35.0" width="296" height="30" style="fill:#87bcbc;fill-opacity:1.00" />
  <line x1="763" y1="50.0" x2="783" y2="50.0" style="stroke:#999; stroke-width:3;" />
  <line x1="783" y1="50.0" x2="783" y2="50.0" style="stroke:#999; stroke-width:3;" />
  <line x1="783" y1="50.0" x2="783" y2="50.0" style="stroke:#999; stroke-width:3;" />
  <line x1="783" y1="50.0" x2="803" y2="50.0" style="stroke:#999; stroke-width:3;" />
  <rect class="anc_exon" x="803" y="35.0" width="72" height="30" style="fill:#87bcbc;fill-opacity:1.00" />
  <line x1="875" y1="50.0" x2="915" y2="50.0" style="stroke:#999; stroke-width:3;" />
  <rect class="anc_exon" x="915" y="35.0" width="43" height="30" style="fill:#87bcbc;fill-opacity:1.00" />
  <line x1="958" y1="50.0" x2="998" y2="50.0" style="stroke:#999; stroke-width:3;" />
  <rect class="anc_exon" x="998" y="35.0" width="76" height="30" style="fill:#87bcbc;fill-opacity:1.00" />
  <line x1="1074" y1="50.0" x2="1094" y2="50.0" style="stroke:#999; stroke-width:3;" />
  <line x1="1094" y1="50.0" x2="1094" y2="50.0" style="stroke:#999; stroke-width:3;" />
  <line x1="1094" y1="50.0" x2="1094" y2="50.0" style="stroke:#999; stroke-width:3;" />
  <line x1="1094" y1="50.0" x2="1114" y2="50.0" style="stroke:#999; stroke-width:3;" />
  <rect class="anc_exon" x="1114" y="35.0" width="87" height="30" style="fill:#87bcbc;fill-opacity:1.00" />
  <line x1="1201" y1="50.0" x2="1241" y2="50.0" style="stroke:#999; stroke-width:3;" />
  <rect class="anc_exon" x="1241" y="35.0" width="94" height="30" style="fill:#87bcbc;fill-opacity:1.00" />
  <line x1="1335" y1="50.0" x2="1375" y2="50.0" style="stroke:#999; stroke-width:3;" />
  <rect class="anc_exon" x="1375" y="35.0" width="68" height="30" style="fill:#87bcbc;fill-opacity:1.00" />
  <line x1="1443" y1="50.0" x2="1483" y2="50.0" style="stroke:#999; stroke-width:3;" />
  <rect class="anc_exon" x="1483" y="35.0" width="133" height="30" style="fill:#87bcbc;fill-opacity:1.00" />
  <line x1="1616" y1="50.0" x2="1636" y2="50.0" style="stroke:#999; stroke-width:3;" />
  <line x1="1636" y1="50.0" x2="1636" y2="50.0" style="stroke:#999; stroke-width:3;" />
  <line x1="1636" y1="50.0" x2="1636" y2="50.0" style="stroke:#999; stroke-width:3;" />
  <line x1="1636" y1="50.0" x2="1656" y2="50.0" style="stroke:#999; stroke-width:3;" />
  <rect class="anc_exon" x="1656" y="35.0" width="66" height="30" style="fill:#87bcbc;fill-opacity:1.00" />
  <line x1="1722" y1="50.0" x2="1742" y2="50.0" style="stroke:#999; stroke-width:3;" />
  <line x1="1742" y1="50.0" x2="1742" y2="50.0" style="stroke:#999; stroke-width:3;" />
  <line x1="1742" y1="50.0" x2="1742" y2="50.0" style="stroke:#999; stroke-width:3;" />
  <line x1="1742" y1="50.0" x2="1762" y2="50.0" style="stroke:#999; stroke-width:3;" />
  <rect class="anc_exon" x="1762" y="35.0" width="29" height="30" style="fill:#87bcbc;fill-opacity:1.00" />
  <line x1="1791" y1="50.0" x2="1831" y2="50.0" style="stroke:#999; stroke-width:3;" />
  <rect class="anc_exon" x="1831" y="35.0" width="51" height="30" style="fill:#87bcbc;fill-opacity:1.00" />
  <line x1="1882" y1="50.0" x2="1922" y2="50.0" style="stroke:#999; stroke-width:3;" />
  <rect class="anc_exon" x="1922" y="35.0" width="50" height="30" style="fill:#87bcbc;fill-opacity:1.00" />
  <line x1="1972" y1="50.0" x2="2012" y2="50.0" style="stroke:#999; stroke-width:3;" />
  <rect class="anc_exon" x="2012" y="35.0" width="108" height="30" style="fill:#87bcbc;fill-opacity:1.00" />
  <line x1="2120" y1="50.0" x2="2140" y2="50.0" style="stroke:#999; stroke-width:3;" />
  <line x1="2140" y1="50.0" x2="2140" y2="50.0" style="stroke:#999; stroke-width:3;" />
  <line x1="2140" y1="50.0" x2="2140" y2="50.0" style="stroke:#999; stroke-width:3;" />
  <line x1="2140" y1="50.0" x2="2160" y2="50.0" style="stroke:#999; stroke-width:3;" />
  <rect class="anc_exon" x="2160" y="35.0" width="180" height="30" style="fill:#87bcbc;fill-opacity:1.00" />
  <rect class="anc_exon" x="2340" y="35.0" width="0" height="30" style="fill:#87bcbc;fill-opacity:1.00" />
  <text style="" >
<tspan x="0" y="83.0" style="font-size:18px;" >SP XM_031943182_1.1</tspan>  </text>



<script type="text/ecmascript">
<![CDATA[
function draw_bbox(text_id)
{
    var text_elem = document.getElementById(text_id);
    var offset_px = 2;
    var offset_py = 0;
    bbox = text_elem.getBBox();
    var box = document.createElementNS(document.rootElement.namespaceURI,'rect');
    box.setAttribute('x', bbox.x - offset_px);
    box.setAttribute('y', bbox.y - offset_py);
    box.setAttribute('width', bbox.width + offset_px * 2);
    box.setAttribute('height', bbox.height + offset_py * 2);
    box.setAttribute('style','fill: white;'+'stroke: black;'+'stroke-width: 1px;');
    text_elem.insertBefore(box,text_elem.childNodes[0]);

    var svg = text_elem.parentNode;
    svg.appendChild(text_elem);
}

for (var i=1; i < 1; i++)
{
draw_bbox("Mouseover" + i);
}
]]> 
</script>
</svg>
