<svg version="1.1"
xmlns="http://www.w3.org/2000/svg"
xmlns:xlink="http://www.w3.org/1999/xlink"
width="3805" height="110.0" viewBox = "0 -10.0 3805 110.0"
onclick="mouseclick(evt)">

<script type="text/ecmascript">

<![CDATA[
    function mouseover(evt, target) { 
    var gv = document.getElementById("globalVariable");
    var previoustarget = gv.firstChild.nodeValue;
    if (previoustarget != "none") 
    {
        	document.getElementById(gv.firstChild.nodeValue).setAttributeNS(null, "visibility", "hidden");
    }
    document.getElementById(target).setAttributeNS(null, "visibility", "visible");
    gv.firstChild.nodeValue = target;
        }

    function mouseclick(evt) { 
    var gv = document.getElementById("globalVariable");
    var previoustarget = gv.firstChild.nodeValue;
    if (previoustarget != "none") {
        	document.getElementById(gv.firstChild.nodeValue).setAttributeNS(null, "visibility", "hidden");
        }
    }
]]>
  </script>
<style type="text/css" >

<![CDATA[
    rect.anc_exon {
              stroke-width:3;
                  }

    rect.non_anc_exon {
              stroke: black; stroke-width:3; stroke-dasharray: 5,5;
                    }

    text {
              font-size: 18px;
              font-family: Courier New;
          }
                    ]]>
</style>

<defs>
    <text x="150" y="40" id="globalVariable">none</text>
</defs>

  <rect class="anc_exon" x="0" y="35.0" width="0" height="30" style="fill:#87bcbc;fill-opacity:1.00" />
  <rect class="anc_exon" x="0" y="35.0" width="48.800000000000004" height="30" style="fill:#87bcbc;fill-opacity:1.00" />
  <line x1="48.800000000000004" y1="50.0" x2="67.80000000000001" y2="50.0" style="stroke:#999; stroke-width:3;" />
  <line x1="67.80000000000001" y1="50.0" x2="67.80000000000001" y2="50.0" style="stroke:#999; stroke-width:3;" />
  <line x1="67.80000000000001" y1="50.0" x2="67.80000000000001" y2="50.0" style="stroke:#999; stroke-width:3;" />
  <line x1="67.80000000000001" y1="50.0" x2="88.0" y2="50.0" style="stroke:#999; stroke-width:3;" />
  <rect class="anc_exon" x="88" y="35.0" width="119" height="30" style="fill:#87bcbc;fill-opacity:1.00" />
  <line x1="207" y1="50.0" x2="227" y2="50.0" style="stroke:#999; stroke-width:3;" />
  <line x1="227" y1="50.0" x2="227" y2="50.0" style="stroke:#999; stroke-width:3;" />
  <line x1="227" y1="50.0" x2="227" y2="50.0" style="stroke:#999; stroke-width:3;" />
  <line x1="227" y1="50.0" x2="247" y2="50.0" style="stroke:#999; stroke-width:3;" />
  <rect class="anc_exon" x="247" y="35.0" width="93" height="30" style="fill:#87bcbc;fill-opacity:1.00" />
  <line x1="340" y1="50.0" x2="380" y2="50.0" style="stroke:#999; stroke-width:3;" />
  <rect class="anc_exon" x="380" y="35.0" width="177" height="30" style="fill:#87bcbc;fill-opacity:1.00" />
  <line x1="557" y1="50.0" x2="597" y2="50.0" style="stroke:#999; stroke-width:3;" />
  <rect class="anc_exon" x="597" y="35.0" width="92" height="30" style="fill:#87bcbc;fill-opacity:1.00" />
  <line x1="689" y1="50.0" x2="729" y2="50.0" style="stroke:#999; stroke-width:3;" />
  <rect class="anc_exon" x="729" y="35.0" width="78" height="30" style="fill:#87bcbc;fill-opacity:1.00" />
  <line x1="807" y1="50.0" x2="847" y2="50.0" style="stroke:#999; stroke-width:3;" />
  <rect class="anc_exon" x="847" y="35.0" width="127" height="30" style="fill:#87bcbc;fill-opacity:1.00" />
  <line x1="974" y1="50.0" x2="1014" y2="50.0" style="stroke:#999; stroke-width:3;" />
  <rect class="anc_exon" x="1014" y="35.0" width="67" height="30" style="fill:#87bcbc;fill-opacity:1.00" />
  <line x1="1081" y1="50.0" x2="1121" y2="50.0" style="stroke:#999; stroke-width:3;" />
  <rect class="anc_exon" x="1121" y="35.0" width="93" height="30" style="fill:#87bcbc;fill-opacity:1.00" />
  <line x1="1214" y1="50.0" x2="1234" y2="50.0" style="stroke:#999; stroke-width:3;" />
  <line x1="1234" y1="50.0" x2="1234" y2="50.0" style="stroke:#999; stroke-width:3;" />
  <line x1="1234" y1="50.0" x2="1234" y2="50.0" style="stroke:#999; stroke-width:3;" />
  <line x1="1234" y1="50.0" x2="1254" y2="50.0" style="stroke:#999; stroke-width:3;" />
  <rect class="anc_exon" x="1254" y="35.0" width="82" height="30" style="fill:#87bcbc;fill-opacity:1.00" />
  <line x1="1336" y1="50.0" x2="1376" y2="50.0" style="stroke:#999; stroke-width:3;" />
  <rect class="anc_exon" x="1376" y="35.0" width="60" height="30" style="fill:#87bcbc;fill-opacity:1.00" />
  <line x1="1436" y1="50.0" x2="1476" y2="50.0" style="stroke:#999; stroke-width:3;" />
  <rect class="anc_exon" x="1476" y="35.0" width="87" height="30" style="fill:#87bcbc;fill-opacity:1.00" />
  <line x1="1563" y1="50.0" x2="1583" y2="50.0" style="stroke:#999; stroke-width:3;" />
  <line x1="1583" y1="50.0" x2="1583" y2="50.0" style="stroke:#999; stroke-width:3;" />
  <line x1="1583" y1="50.0" x2="1583" y2="50.0" style="stroke:#999; stroke-width:3;" />
  <line x1="1583" y1="50.0" x2="1603" y2="50.0" style="stroke:#999; stroke-width:3;" />
  <rect class="anc_exon" x="1603" y="35.0" width="143" height="30" style="fill:#87bcbc;fill-opacity:1.00" />
  <line x1="1746" y1="50.0" x2="1786" y2="50.0" style="stroke:#999; stroke-width:3;" />
  <rect class="anc_exon" x="1786" y="35.0" width="131" height="30" style="fill:#87bcbc;fill-opacity:1.00" />
  <line x1="1917" y1="50.0" x2="1957" y2="50.0" style="stroke:#999; stroke-width:3;" />
  <rect class="anc_exon" x="1957" y="35.0" width="86" height="30" style="fill:#87bcbc;fill-opacity:1.00" />
  <line x1="2043" y1="50.0" x2="2083" y2="50.0" style="stroke:#999; stroke-width:3;" />
  <rect class="anc_exon" x="2083" y="35.0" width="166" height="30" style="fill:#87bcbc;fill-opacity:1.00" />
  <line x1="2249" y1="50.0" x2="2289" y2="50.0" style="stroke:#999; stroke-width:3;" />
  <rect class="anc_exon" x="2289" y="35.0" width="76" height="30" style="fill:#87bcbc;fill-opacity:1.00" />
  <line x1="2365" y1="50.0" x2="2405" y2="50.0" style="stroke:#999; stroke-width:3;" />
  <rect class="anc_exon" x="2405" y="35.0" width="89" height="30" style="fill:#87bcbc;fill-opacity:1.00" />
  <line x1="2426.6" y1="35.0" x2="2426.6" y2="65.0" style="stroke:#121212;stroke-width:3;"/>
  <text style="" text-anchor="middle">
<tspan x="2425.8" y="26.0" style="font-size:18px;fill:#121212;" >TAG</tspan>  </text>
  <line x1="2494" y1="50.0" x2="2534" y2="50.0" style="stroke:#999; stroke-width:3;" />
  <rect class="anc_exon" x="2534" y="35.0" width="99" height="30" style="fill:#87bcbc;fill-opacity:1.00" />
  <line x1="2633" y1="50.0" x2="2673" y2="50.0" style="stroke:#999; stroke-width:3;" />
  <rect class="anc_exon" x="2673" y="35.0" width="132" height="30" style="fill:#87bcbc;fill-opacity:1.00" />
  <line x1="2805" y1="50.0" x2="2845" y2="50.0" style="stroke:#999; stroke-width:3;" />
  <rect class="anc_exon" x="2845" y="35.0" width="76" height="30" style="fill:#87bcbc;fill-opacity:1.00" />
  <line x1="2921" y1="50.0" x2="2961" y2="50.0" style="stroke:#999; stroke-width:3;" />
  <rect class="anc_exon" x="2961" y="35.0" width="136" height="30" style="fill:#87bcbc;fill-opacity:1.00" />
  <line x1="3097" y1="50.0" x2="3137" y2="50.0" style="stroke:#999; stroke-width:3;" />
  <rect class="anc_exon" x="3137" y="35.0" width="88" height="30" style="fill:#87bcbc;fill-opacity:1.00" />
  <line x1="3225" y1="50.0" x2="3265" y2="50.0" style="stroke:#999; stroke-width:3;" />
  <rect class="anc_exon" x="3265" y="35.0" width="136" height="30" style="fill:#878787;fill-opacity:1.00" />
  <line x1="3401" y1="50.0" x2="3441" y2="50.0" style="stroke:#999; stroke-width:3;" />
  <rect class="anc_exon" x="3441" y="35.0" width="82" height="30" style="fill:#87bcbc;fill-opacity:1.00" />
  <line x1="3523" y1="50.0" x2="3563" y2="50.0" style="stroke:#999; stroke-width:3;" />
  <rect class="anc_exon" x="3563" y="35.0" width="99" height="30" style="fill:#87bcbc;fill-opacity:1.00" />
  <line x1="3662" y1="50.0" x2="3702" y2="50.0" style="stroke:#999; stroke-width:3;" />
  <rect class="anc_exon" x="3702" y="35.0" width="67" height="30" style="fill:#87bcbc;fill-opacity:1.00" />
  <rect class="anc_exon" x="3769" y="35.0" width="0" height="30" style="fill:#87bcbc;fill-opacity:1.00" />
  <text style="" >
<tspan x="0" y="83.0" style="font-size:18px;" >SP XM_031941718_1.1</tspan>  </text>
  <text style="fill:#121212;" >
<tspan x="3523" y="50.0" style="font-size:18px;fill:#121212;" >at</tspan>  </text>
  <text style="fill:#121212;" >
<tspan x="3539.96" y="68.0" style="font-size:18px;fill:#121212;" >tg</tspan>  </text>



<script type="text/ecmascript">
<![CDATA[
function draw_bbox(text_id)
{
    var text_elem = document.getElementById(text_id);
    var offset_px = 2;
    var offset_py = 0;
    bbox = text_elem.getBBox();
    var box = document.createElementNS(document.rootElement.namespaceURI,'rect');
    box.setAttribute('x', bbox.x - offset_px);
    box.setAttribute('y', bbox.y - offset_py);
    box.setAttribute('width', bbox.width + offset_px * 2);
    box.setAttribute('height', bbox.height + offset_py * 2);
    box.setAttribute('style','fill: white;'+'stroke: black;'+'stroke-width: 1px;');
    text_elem.insertBefore(box,text_elem.childNodes[0]);

    var svg = text_elem.parentNode;
    svg.appendChild(text_elem);
}

for (var i=1; i < 1; i++)
{
draw_bbox("Mouseover" + i);
}
]]> 
</script>
</svg>
