<svg version="1.1"
xmlns="http://www.w3.org/2000/svg"
xmlns:xlink="http://www.w3.org/1999/xlink"
width="1922" height="110.0" viewBox = "0 -10.0 1922 110.0"
onclick="mouseclick(evt)">

<script type="text/ecmascript">

<![CDATA[
    function mouseover(evt, target) { 
    var gv = document.getElementById("globalVariable");
    var previoustarget = gv.firstChild.nodeValue;
    if (previoustarget != "none") 
    {
        	document.getElementById(gv.firstChild.nodeValue).setAttributeNS(null, "visibility", "hidden");
    }
    document.getElementById(target).setAttributeNS(null, "visibility", "visible");
    gv.firstChild.nodeValue = target;
        }

    function mouseclick(evt) { 
    var gv = document.getElementById("globalVariable");
    var previoustarget = gv.firstChild.nodeValue;
    if (previoustarget != "none") {
        	document.getElementById(gv.firstChild.nodeValue).setAttributeNS(null, "visibility", "hidden");
        }
    }
]]>
  </script>
<style type="text/css" >

<![CDATA[
    rect.anc_exon {
              stroke-width:3;
                  }

    rect.non_anc_exon {
              stroke: black; stroke-width:3; stroke-dasharray: 5,5;
                    }

    text {
              font-size: 18px;
              font-family: Courier New;
          }
                    ]]>
</style>

<defs>
    <text x="150" y="40" id="globalVariable">none</text>
</defs>

  <rect class="anc_exon" x="0" y="35.0" width="0" height="30" style="fill:#87bcbc;fill-opacity:1.00" />
  <rect class="anc_exon" x="0" y="35.0" width="22.400000000000002" height="30" style="fill:#87bcbc;fill-opacity:1.00" />
  <line x1="22.400000000000002" y1="50.0" x2="62.0" y2="50.0" style="stroke:#999; stroke-width:3;" />
  <rect class="anc_exon" x="62" y="35.0" width="123" height="30" style="fill:#87bcbc;fill-opacity:1.00" />
  <line x1="185" y1="50.0" x2="205" y2="50.0" style="stroke:#999; stroke-width:3;" />
  <line x1="205" y1="50.0" x2="205" y2="50.0" style="stroke:#999; stroke-width:3;" />
  <line x1="205" y1="50.0" x2="205" y2="50.0" style="stroke:#999; stroke-width:3;" />
  <line x1="205" y1="50.0" x2="225" y2="50.0" style="stroke:#999; stroke-width:3;" />
  <rect class="anc_exon" x="225" y="35.0" width="66" height="30" style="fill:#87bcbc;fill-opacity:1.00" />
  <line x1="291" y1="50.0" x2="311" y2="50.0" style="stroke:#999; stroke-width:3;" />
  <line x1="311" y1="50.0" x2="311" y2="50.0" style="stroke:#999; stroke-width:3;" />
  <line x1="311" y1="50.0" x2="311" y2="50.0" style="stroke:#999; stroke-width:3;" />
  <line x1="311" y1="50.0" x2="331" y2="50.0" style="stroke:#999; stroke-width:3;" />
  <rect class="anc_exon" x="331" y="35.0" width="40" height="30" style="fill:#87bcbc;fill-opacity:1.00" />
  <line x1="371" y1="50.0" x2="411" y2="50.0" style="stroke:#999; stroke-width:3;" />
  <rect class="anc_exon" x="411" y="35.0" width="82" height="30" style="fill:#87bcbc;fill-opacity:1.00" />
  <line x1="493" y1="50.0" x2="513" y2="50.0" style="stroke:#999; stroke-width:3;" />
  <line x1="513" y1="50.0" x2="513" y2="50.0" style="stroke:#999; stroke-width:3;" />
  <line x1="513" y1="50.0" x2="513" y2="50.0" style="stroke:#999; stroke-width:3;" />
  <line x1="513" y1="50.0" x2="533" y2="50.0" style="stroke:#999; stroke-width:3;" />
  <rect class="anc_exon" x="533" y="35.0" width="128" height="30" style="fill:#87bcbc;fill-opacity:1.00" />
  <line x1="661" y1="50.0" x2="701" y2="50.0" style="stroke:#999; stroke-width:3;" />
  <rect class="anc_exon" x="701" y="35.0" width="116" height="30" style="fill:#87bcbc;fill-opacity:1.00" />
  <line x1="817" y1="50.0" x2="837" y2="50.0" style="stroke:#999; stroke-width:3;" />
  <line x1="837" y1="50.0" x2="837" y2="50.0" style="stroke:#999; stroke-width:3;" />
  <line x1="837" y1="50.0" x2="837" y2="50.0" style="stroke:#999; stroke-width:3;" />
  <line x1="837" y1="50.0" x2="857" y2="50.0" style="stroke:#999; stroke-width:3;" />
  <rect class="anc_exon" x="857" y="35.0" width="52" height="30" style="fill:#87bcbc;fill-opacity:1.00" />
  <line x1="909" y1="50.0" x2="929" y2="50.0" style="stroke:#999; stroke-width:3;" />
  <line x1="929" y1="50.0" x2="929" y2="50.0" style="stroke:#999; stroke-width:3;" />
  <line x1="929" y1="50.0" x2="929" y2="50.0" style="stroke:#999; stroke-width:3;" />
  <line x1="929" y1="50.0" x2="949" y2="50.0" style="stroke:#999; stroke-width:3;" />
  <rect class="anc_exon" x="949" y="35.0" width="97" height="30" style="fill:#87bcbc;fill-opacity:1.00" />
  <line x1="1046" y1="50.0" x2="1066" y2="50.0" style="stroke:#999; stroke-width:3;" />
  <line x1="1066" y1="50.0" x2="1066" y2="50.0" style="stroke:#999; stroke-width:3;" />
  <line x1="1066" y1="50.0" x2="1066" y2="50.0" style="stroke:#999; stroke-width:3;" />
  <line x1="1066" y1="50.0" x2="1086" y2="50.0" style="stroke:#999; stroke-width:3;" />
  <rect class="anc_exon" x="1086" y="35.0" width="80" height="30" style="fill:#87bcbc;fill-opacity:1.00" />
  <line x1="1166" y1="50.0" x2="1186" y2="50.0" style="stroke:#999; stroke-width:3;" />
  <line x1="1186" y1="50.0" x2="1186" y2="50.0" style="stroke:#999; stroke-width:3;" />
  <line x1="1186" y1="50.0" x2="1186" y2="50.0" style="stroke:#999; stroke-width:3;" />
  <line x1="1186" y1="50.0" x2="1206" y2="50.0" style="stroke:#999; stroke-width:3;" />
  <rect class="anc_exon" x="1206" y="35.0" width="63" height="30" style="fill:#87bcbc;fill-opacity:1.00" />
  <line x1="1269" y1="50.0" x2="1289" y2="50.0" style="stroke:#999; stroke-width:3;" />
  <line x1="1289" y1="50.0" x2="1289" y2="50.0" style="stroke:#999; stroke-width:3;" />
  <line x1="1289" y1="50.0" x2="1289" y2="50.0" style="stroke:#999; stroke-width:3;" />
  <line x1="1289" y1="50.0" x2="1309" y2="50.0" style="stroke:#999; stroke-width:3;" />
  <rect class="anc_exon" x="1309" y="35.0" width="150" height="30" style="fill:#87bcbc;fill-opacity:1.00" />
  <line x1="1459" y1="50.0" x2="1479" y2="50.0" style="stroke:#999; stroke-width:3;" />
  <line x1="1479" y1="50.0" x2="1479" y2="50.0" style="stroke:#999; stroke-width:3;" />
  <line x1="1479" y1="50.0" x2="1479" y2="50.0" style="stroke:#999; stroke-width:3;" />
  <line x1="1479" y1="50.0" x2="1499" y2="50.0" style="stroke:#999; stroke-width:3;" />
  <rect class="anc_exon" x="1499" y="35.0" width="69" height="30" style="fill:#87bcbc;fill-opacity:1.00" />
  <line x1="1568" y1="50.0" x2="1588" y2="50.0" style="stroke:#999; stroke-width:3;" />
  <line x1="1588" y1="50.0" x2="1588" y2="50.0" style="stroke:#999; stroke-width:3;" />
  <line x1="1588" y1="50.0" x2="1588" y2="50.0" style="stroke:#999; stroke-width:3;" />
  <line x1="1588" y1="50.0" x2="1608" y2="50.0" style="stroke:#999; stroke-width:3;" />
  <rect class="anc_exon" x="1608" y="35.0" width="40" height="30" style="fill:#87bcbc;fill-opacity:1.00" />
  <line x1="1648" y1="50.0" x2="1688" y2="50.0" style="stroke:#999; stroke-width:3;" />
  <rect class="anc_exon" x="1688" y="35.0" width="70" height="30" style="fill:#87bcbc;fill-opacity:1.00" />
  <line x1="1758" y1="50.0" x2="1778" y2="50.0" style="stroke:#999; stroke-width:3;" />
  <line x1="1778" y1="50.0" x2="1778" y2="50.0" style="stroke:#999; stroke-width:3;" />
  <line x1="1778" y1="50.0" x2="1778" y2="50.0" style="stroke:#999; stroke-width:3;" />
  <line x1="1778" y1="50.0" x2="1798" y2="50.0" style="stroke:#999; stroke-width:3;" />
  <rect class="anc_exon" x="1798" y="35.0" width="88" height="30" style="fill:#87bcbc;fill-opacity:1.00" />
  <line x1="1808.4" y1="35.0" x2="1808.4" y2="65.0" style="stroke:#878787;stroke-width:3;"/>
  <text style="" text-anchor="middle">
<tspan x="1807.6" y="26.0" style="font-size:18px;fill:#878787;" >TAA</tspan>  </text>
  <rect class="anc_exon" x="1886" y="35.0" width="0" height="30" style="fill:#87bcbc;fill-opacity:1.00" />
  <text style="" >
<tspan x="0" y="83.0" style="font-size:18px;" >SP XM_012552526_3.1</tspan>  </text>



<script type="text/ecmascript">
<![CDATA[
function draw_bbox(text_id)
{
    var text_elem = document.getElementById(text_id);
    var offset_px = 2;
    var offset_py = 0;
    bbox = text_elem.getBBox();
    var box = document.createElementNS(document.rootElement.namespaceURI,'rect');
    box.setAttribute('x', bbox.x - offset_px);
    box.setAttribute('y', bbox.y - offset_py);
    box.setAttribute('width', bbox.width + offset_px * 2);
    box.setAttribute('height', bbox.height + offset_py * 2);
    box.setAttribute('style','fill: white;'+'stroke: black;'+'stroke-width: 1px;');
    text_elem.insertBefore(box,text_elem.childNodes[0]);

    var svg = text_elem.parentNode;
    svg.appendChild(text_elem);
}

for (var i=1; i < 1; i++)
{
draw_bbox("Mouseover" + i);
}
]]> 
</script>
</svg>
