<svg version="1.1"
xmlns="http://www.w3.org/2000/svg"
xmlns:xlink="http://www.w3.org/1999/xlink"
width="3549" height="100" viewBox = "0 0 3549 100"
onclick="mouseclick(evt)">

<script type="text/ecmascript">

<![CDATA[
    function mouseover(evt, target) { 
    var gv = document.getElementById("globalVariable");
    var previoustarget = gv.firstChild.nodeValue;
    if (previoustarget != "none") 
    {
        	document.getElementById(gv.firstChild.nodeValue).setAttributeNS(null, "visibility", "hidden");
    }
    document.getElementById(target).setAttributeNS(null, "visibility", "visible");
    gv.firstChild.nodeValue = target;
        }

    function mouseclick(evt) { 
    var gv = document.getElementById("globalVariable");
    var previoustarget = gv.firstChild.nodeValue;
    if (previoustarget != "none") {
        	document.getElementById(gv.firstChild.nodeValue).setAttributeNS(null, "visibility", "hidden");
        }
    }
]]>
  </script>
<style type="text/css" >

<![CDATA[
    rect.anc_exon {
              stroke-width:3;
                  }

    rect.non_anc_exon {
              stroke: black; stroke-width:3; stroke-dasharray: 5,5;
                    }

    text {
              font-size: 18px;
              font-family: Courier New;
          }
                    ]]>
</style>

<defs>
    <text x="150" y="40" id="globalVariable">none</text>
</defs>

  <rect class="anc_exon" x="0" y="35.0" width="0" height="30" style="fill:#87bcbc;fill-opacity:1.00" />
  <rect class="anc_exon" x="0" y="35.0" width="157.60000000000002" height="30" style="fill:#87bcbc;fill-opacity:1.00" />
  <line x1="157.60000000000002" y1="50.0" x2="176.60000000000002" y2="50.0" style="stroke:#999; stroke-width:3;" />
  <line x1="176.60000000000002" y1="50.0" x2="176.60000000000002" y2="50.0" style="stroke:#999; stroke-width:3;" />
  <line x1="176.60000000000002" y1="50.0" x2="176.60000000000002" y2="50.0" style="stroke:#999; stroke-width:3;" />
  <line x1="176.60000000000002" y1="50.0" x2="197.0" y2="50.0" style="stroke:#999; stroke-width:3;" />
  <rect class="anc_exon" x="197" y="35.0" width="101" height="30" style="fill:#87bcbc;fill-opacity:1.00" />
  <line x1="298" y1="50.0" x2="318" y2="50.0" style="stroke:#999; stroke-width:3;" />
  <line x1="318" y1="50.0" x2="318" y2="50.0" style="stroke:#999; stroke-width:3;" />
  <line x1="318" y1="50.0" x2="318" y2="50.0" style="stroke:#999; stroke-width:3;" />
  <line x1="318" y1="50.0" x2="338" y2="50.0" style="stroke:#999; stroke-width:3;" />
  <rect class="anc_exon" x="338" y="35.0" width="115" height="30" style="fill:#87bcbc;fill-opacity:1.00" />
  <line x1="453" y1="50.0" x2="473" y2="50.0" style="stroke:#999; stroke-width:3;" />
  <line x1="473" y1="50.0" x2="473" y2="50.0" style="stroke:#999; stroke-width:3;" />
  <line x1="473" y1="50.0" x2="473" y2="50.0" style="stroke:#999; stroke-width:3;" />
  <line x1="473" y1="50.0" x2="493" y2="50.0" style="stroke:#999; stroke-width:3;" />
  <rect class="anc_exon" x="493" y="35.0" width="80" height="30" style="fill:#87bcbc;fill-opacity:1.00" />
  <line x1="573" y1="50.0" x2="613" y2="50.0" style="stroke:#999; stroke-width:3;" />
  <rect class="anc_exon" x="613" y="35.0" width="57" height="30" style="fill:#87bcbc;fill-opacity:1.00" />
  <line x1="670" y1="50.0" x2="690" y2="50.0" style="stroke:#999; stroke-width:3;" />
  <line x1="690" y1="50.0" x2="690" y2="50.0" style="stroke:#999; stroke-width:3;" />
  <line x1="690" y1="50.0" x2="690" y2="50.0" style="stroke:#999; stroke-width:3;" />
  <line x1="690" y1="50.0" x2="710" y2="50.0" style="stroke:#999; stroke-width:3;" />
  <rect class="anc_exon" x="710" y="35.0" width="80" height="30" style="fill:#87bcbc;fill-opacity:1.00" />
  <line x1="790" y1="50.0" x2="830" y2="50.0" style="stroke:#999; stroke-width:3;" />
  <rect class="anc_exon" x="830" y="35.0" width="72" height="30" style="fill:#87bcbc;fill-opacity:1.00" />
  <line x1="902" y1="50.0" x2="942" y2="50.0" style="stroke:#999; stroke-width:3;" />
  <rect class="anc_exon" x="942" y="35.0" width="57" height="30" style="fill:#87bcbc;fill-opacity:1.00" />
  <line x1="999" y1="50.0" x2="1019" y2="50.0" style="stroke:#999; stroke-width:3;" />
  <line x1="1019" y1="50.0" x2="1019" y2="50.0" style="stroke:#999; stroke-width:3;" />
  <line x1="1019" y1="50.0" x2="1019" y2="50.0" style="stroke:#999; stroke-width:3;" />
  <line x1="1019" y1="50.0" x2="1039" y2="50.0" style="stroke:#999; stroke-width:3;" />
  <rect class="anc_exon" x="1039" y="35.0" width="104" height="30" style="fill:#87bcbc;fill-opacity:1.00" />
  <line x1="1143" y1="50.0" x2="1163" y2="50.0" style="stroke:#999; stroke-width:3;" />
  <line x1="1163" y1="50.0" x2="1163" y2="50.0" style="stroke:#999; stroke-width:3;" />
  <line x1="1163" y1="50.0" x2="1163" y2="50.0" style="stroke:#999; stroke-width:3;" />
  <line x1="1163" y1="50.0" x2="1183" y2="50.0" style="stroke:#999; stroke-width:3;" />
  <rect class="anc_exon" x="1183" y="35.0" width="161" height="30" style="fill:#87bcbc;fill-opacity:1.00" />
  <line x1="1344" y1="50.0" x2="1384" y2="50.0" style="stroke:#999; stroke-width:3;" />
  <rect class="anc_exon" x="1384" y="35.0" width="71" height="30" style="fill:#87bcbc;fill-opacity:1.00" />
  <line x1="1455" y1="50.0" x2="1475" y2="50.0" style="stroke:#999; stroke-width:3;" />
  <line x1="1475" y1="50.0" x2="1475" y2="50.0" style="stroke:#999; stroke-width:3;" />
  <line x1="1475" y1="50.0" x2="1475" y2="50.0" style="stroke:#999; stroke-width:3;" />
  <line x1="1475" y1="50.0" x2="1495" y2="50.0" style="stroke:#999; stroke-width:3;" />
  <rect class="anc_exon" x="1495" y="35.0" width="117" height="30" style="fill:#87bcbc;fill-opacity:1.00" />
  <line x1="1612" y1="50.0" x2="1652" y2="50.0" style="stroke:#999; stroke-width:3;" />
  <rect class="anc_exon" x="1652" y="35.0" width="136" height="30" style="fill:#87bcbc;fill-opacity:1.00" />
  <line x1="1788" y1="50.0" x2="1808" y2="50.0" style="stroke:#999; stroke-width:3;" />
  <line x1="1808" y1="50.0" x2="1808" y2="50.0" style="stroke:#999; stroke-width:3;" />
  <line x1="1808" y1="50.0" x2="1808" y2="50.0" style="stroke:#999; stroke-width:3;" />
  <line x1="1808" y1="50.0" x2="1828" y2="50.0" style="stroke:#999; stroke-width:3;" />
  <rect class="anc_exon" x="1828" y="35.0" width="1085" height="30" style="fill:#87bcbc;fill-opacity:1.00" />
  <line x1="2913" y1="50.0" x2="2953" y2="50.0" style="stroke:#999; stroke-width:3;" />
  <rect class="anc_exon" x="2953" y="35.0" width="125" height="30" style="fill:#87bcbc;fill-opacity:1.00" />
  <line x1="3078" y1="50.0" x2="3098" y2="50.0" style="stroke:#999; stroke-width:3;" />
  <line x1="3098" y1="50.0" x2="3098" y2="50.0" style="stroke:#999; stroke-width:3;" />
  <line x1="3098" y1="50.0" x2="3098" y2="50.0" style="stroke:#999; stroke-width:3;" />
  <line x1="3098" y1="50.0" x2="3118" y2="50.0" style="stroke:#999; stroke-width:3;" />
  <rect class="anc_exon" x="3118" y="35.0" width="160" height="30" style="fill:#87bcbc;fill-opacity:1.00" />
  <line x1="3278" y1="50.0" x2="3298" y2="50.0" style="stroke:#999; stroke-width:3;" />
  <line x1="3298" y1="50.0" x2="3298" y2="50.0" style="stroke:#999; stroke-width:3;" />
  <line x1="3298" y1="50.0" x2="3298" y2="50.0" style="stroke:#999; stroke-width:3;" />
  <line x1="3298" y1="50.0" x2="3318" y2="50.0" style="stroke:#999; stroke-width:3;" />
  <rect class="anc_exon" x="3318" y="35.0" width="92" height="30" style="fill:#87bcbc;fill-opacity:1.00" />
  <line x1="3410" y1="50.0" x2="3430" y2="50.0" style="stroke:#999; stroke-width:3;" />
  <line x1="3430" y1="50.0" x2="3430" y2="50.0" style="stroke:#999; stroke-width:3;" />
  <line x1="3430" y1="50.0" x2="3430" y2="50.0" style="stroke:#999; stroke-width:3;" />
  <line x1="3430" y1="50.0" x2="3450" y2="50.0" style="stroke:#999; stroke-width:3;" />
  <rect class="anc_exon" x="3450" y="35.0" width="63" height="30" style="fill:#87bcbc;fill-opacity:1.00" />
  <rect class="anc_exon" x="3513" y="35.0" width="0" height="30" style="fill:#87bcbc;fill-opacity:1.00" />
  <text style="" >
<tspan x="0" y="83.0" style="font-size:18px;" >SP XM_031944031_1.1</tspan>  </text>



<script type="text/ecmascript">
<![CDATA[
function draw_bbox(text_id)
{
    var text_elem = document.getElementById(text_id);
    var offset_px = 2;
    var offset_py = 0;
    bbox = text_elem.getBBox();
    var box = document.createElementNS(document.rootElement.namespaceURI,'rect');
    box.setAttribute('x', bbox.x - offset_px);
    box.setAttribute('y', bbox.y - offset_py);
    box.setAttribute('width', bbox.width + offset_px * 2);
    box.setAttribute('height', bbox.height + offset_py * 2);
    box.setAttribute('style','fill: white;'+'stroke: black;'+'stroke-width: 1px;');
    text_elem.insertBefore(box,text_elem.childNodes[0]);

    var svg = text_elem.parentNode;
    svg.appendChild(text_elem);
}

for (var i=1; i < 1; i++)
{
draw_bbox("Mouseover" + i);
}
]]> 
</script>
</svg>
