<svg version="1.1"
xmlns="http://www.w3.org/2000/svg"
xmlns:xlink="http://www.w3.org/1999/xlink"
width="2190" height="100" viewBox = "0 0 2190 100"
onclick="mouseclick(evt)">

<script type="text/ecmascript">

<![CDATA[
    function mouseover(evt, target) { 
    var gv = document.getElementById("globalVariable");
    var previoustarget = gv.firstChild.nodeValue;
    if (previoustarget != "none") 
    {
        	document.getElementById(gv.firstChild.nodeValue).setAttributeNS(null, "visibility", "hidden");
    }
    document.getElementById(target).setAttributeNS(null, "visibility", "visible");
    gv.firstChild.nodeValue = target;
        }

    function mouseclick(evt) { 
    var gv = document.getElementById("globalVariable");
    var previoustarget = gv.firstChild.nodeValue;
    if (previoustarget != "none") {
        	document.getElementById(gv.firstChild.nodeValue).setAttributeNS(null, "visibility", "hidden");
        }
    }
]]>
  </script>
<style type="text/css" >

<![CDATA[
    rect.anc_exon {
              stroke-width:3;
                  }

    rect.non_anc_exon {
              stroke: black; stroke-width:3; stroke-dasharray: 5,5;
                    }

    text {
              font-size: 18px;
              font-family: Courier New;
          }
                    ]]>
</style>

<defs>
    <text x="150" y="40" id="globalVariable">none</text>
</defs>

  <rect class="anc_exon" x="0" y="35.0" width="0" height="30" style="fill:#87bcbc;fill-opacity:1.00" />
  <rect class="anc_exon" x="0" y="35.0" width="43.2" height="30" style="fill:#87bcbc;fill-opacity:1.00" />
  <line x1="43.2" y1="50.0" x2="62.2" y2="50.0" style="stroke:#999; stroke-width:3;" />
  <line x1="62.2" y1="50.0" x2="62.2" y2="50.0" style="stroke:#999; stroke-width:3;" />
  <line x1="62.2" y1="50.0" x2="62.2" y2="50.0" style="stroke:#999; stroke-width:3;" />
  <line x1="62.2" y1="50.0" x2="83.0" y2="50.0" style="stroke:#999; stroke-width:3;" />
  <rect class="anc_exon" x="83" y="35.0" width="119" height="30" style="fill:#87bcbc;fill-opacity:1.00" />
  <line x1="202" y1="50.0" x2="222" y2="50.0" style="stroke:#999; stroke-width:3;" />
  <line x1="222" y1="50.0" x2="222" y2="50.0" style="stroke:#999; stroke-width:3;" />
  <line x1="222" y1="50.0" x2="222" y2="50.0" style="stroke:#999; stroke-width:3;" />
  <line x1="222" y1="50.0" x2="242" y2="50.0" style="stroke:#999; stroke-width:3;" />
  <rect class="anc_exon" x="242" y="35.0" width="98" height="30" style="fill:#87bcbc;fill-opacity:1.00" />
  <line x1="340" y1="50.0" x2="380" y2="50.0" style="stroke:#999; stroke-width:3;" />
  <rect class="anc_exon" x="380" y="35.0" width="62" height="30" style="fill:#87bcbc;fill-opacity:1.00" />
  <line x1="442" y1="50.0" x2="462" y2="50.0" style="stroke:#999; stroke-width:3;" />
  <line x1="462" y1="50.0" x2="462" y2="50.0" style="stroke:#999; stroke-width:3;" />
  <line x1="462" y1="50.0" x2="462" y2="50.0" style="stroke:#999; stroke-width:3;" />
  <line x1="462" y1="50.0" x2="482" y2="50.0" style="stroke:#999; stroke-width:3;" />
  <rect class="anc_exon" x="482" y="35.0" width="116" height="30" style="fill:#87bcbc;fill-opacity:1.00" />
  <line x1="598" y1="50.0" x2="618" y2="50.0" style="stroke:#999; stroke-width:3;" />
  <line x1="618" y1="50.0" x2="618" y2="50.0" style="stroke:#999; stroke-width:3;" />
  <line x1="618" y1="50.0" x2="618" y2="50.0" style="stroke:#999; stroke-width:3;" />
  <line x1="618" y1="50.0" x2="638" y2="50.0" style="stroke:#999; stroke-width:3;" />
  <rect class="anc_exon" x="638" y="35.0" width="52" height="30" style="fill:#87bcbc;fill-opacity:1.00" />
  <line x1="690" y1="50.0" x2="710" y2="50.0" style="stroke:#999; stroke-width:3;" />
  <line x1="710" y1="50.0" x2="710" y2="50.0" style="stroke:#999; stroke-width:3;" />
  <line x1="710" y1="50.0" x2="710" y2="50.0" style="stroke:#999; stroke-width:3;" />
  <line x1="710" y1="50.0" x2="730" y2="50.0" style="stroke:#999; stroke-width:3;" />
  <rect class="anc_exon" x="730" y="35.0" width="130" height="30" style="fill:#87bcbc;fill-opacity:1.00" />
  <line x1="860" y1="50.0" x2="900" y2="50.0" style="stroke:#999; stroke-width:3;" />
  <rect class="anc_exon" x="900" y="35.0" width="100" height="30" style="fill:#87bcbc;fill-opacity:1.00" />
  <line x1="1000" y1="50.0" x2="1020" y2="50.0" style="stroke:#999; stroke-width:3;" />
  <line x1="1020" y1="50.0" x2="1020" y2="50.0" style="stroke:#999; stroke-width:3;" />
  <line x1="1020" y1="50.0" x2="1020" y2="50.0" style="stroke:#999; stroke-width:3;" />
  <line x1="1020" y1="50.0" x2="1040" y2="50.0" style="stroke:#999; stroke-width:3;" />
  <rect class="anc_exon" x="1040" y="35.0" width="107" height="30" style="fill:#87bcbc;fill-opacity:1.00" />
  <line x1="1147" y1="50.0" x2="1187" y2="50.0" style="stroke:#999; stroke-width:3;" />
  <rect class="anc_exon" x="1187" y="35.0" width="80" height="30" style="fill:#87bcbc;fill-opacity:1.00" />
  <line x1="1267" y1="50.0" x2="1287" y2="50.0" style="stroke:#999; stroke-width:3;" />
  <line x1="1287" y1="50.0" x2="1287" y2="50.0" style="stroke:#999; stroke-width:3;" />
  <line x1="1287" y1="50.0" x2="1287" y2="50.0" style="stroke:#999; stroke-width:3;" />
  <line x1="1287" y1="50.0" x2="1307" y2="50.0" style="stroke:#999; stroke-width:3;" />
  <rect class="anc_exon" x="1307" y="35.0" width="100" height="30" style="fill:#87bcbc;fill-opacity:1.00" />
  <line x1="1407" y1="50.0" x2="1447" y2="50.0" style="stroke:#999; stroke-width:3;" />
  <rect class="anc_exon" x="1447" y="35.0" width="50" height="30" style="fill:#87bcbc;fill-opacity:1.00" />
  <line x1="1497" y1="50.0" x2="1537" y2="50.0" style="stroke:#999; stroke-width:3;" />
  <rect class="anc_exon" x="1537" y="35.0" width="75" height="30" style="fill:#87bcbc;fill-opacity:1.00" />
  <line x1="1612" y1="50.0" x2="1652" y2="50.0" style="stroke:#999; stroke-width:3;" />
  <rect class="anc_exon" x="1652" y="35.0" width="67" height="30" style="fill:#87bcbc;fill-opacity:1.00" />
  <line x1="1719" y1="50.0" x2="1739" y2="50.0" style="stroke:#999; stroke-width:3;" />
  <line x1="1739" y1="50.0" x2="1739" y2="50.0" style="stroke:#999; stroke-width:3;" />
  <line x1="1739" y1="50.0" x2="1739" y2="50.0" style="stroke:#999; stroke-width:3;" />
  <line x1="1739" y1="50.0" x2="1759" y2="50.0" style="stroke:#999; stroke-width:3;" />
  <rect class="anc_exon" x="1759" y="35.0" width="126" height="30" style="fill:#87bcbc;fill-opacity:1.00" />
  <line x1="1885" y1="50.0" x2="1905" y2="50.0" style="stroke:#999; stroke-width:3;" />
  <line x1="1905" y1="50.0" x2="1905" y2="50.0" style="stroke:#999; stroke-width:3;" />
  <line x1="1905" y1="50.0" x2="1905" y2="50.0" style="stroke:#999; stroke-width:3;" />
  <line x1="1905" y1="50.0" x2="1925" y2="50.0" style="stroke:#999; stroke-width:3;" />
  <rect class="anc_exon" x="1925" y="35.0" width="78" height="30" style="fill:#87bcbc;fill-opacity:1.00" />
  <line x1="2003" y1="50.0" x2="2023" y2="50.0" style="stroke:#999; stroke-width:3;" />
  <line x1="2023" y1="50.0" x2="2023" y2="50.0" style="stroke:#999; stroke-width:3;" />
  <line x1="2023" y1="50.0" x2="2023" y2="50.0" style="stroke:#999; stroke-width:3;" />
  <line x1="2023" y1="50.0" x2="2043" y2="50.0" style="stroke:#999; stroke-width:3;" />
  <rect class="anc_exon" x="2043" y="35.0" width="111" height="30" style="fill:#87bcbc;fill-opacity:1.00" />
  <rect class="anc_exon" x="2154" y="35.0" width="0" height="30" style="fill:#87bcbc;fill-opacity:1.00" />
  <text style="" >
<tspan x="0" y="83.0" style="font-size:18px;" >SP XM_031944012_1.1</tspan>  </text>
  <text style="fill:#121212;" >
<tspan x="1267" y="50.0" style="font-size:18px;fill:#121212;" >at</tspan>  </text>
  <text style="fill:#121212;" >
<tspan x="1283.96" y="68.0" style="font-size:18px;fill:#121212;" >ac</tspan>  </text>



<script type="text/ecmascript">
<![CDATA[
function draw_bbox(text_id)
{
    var text_elem = document.getElementById(text_id);
    var offset_px = 2;
    var offset_py = 0;
    bbox = text_elem.getBBox();
    var box = document.createElementNS(document.rootElement.namespaceURI,'rect');
    box.setAttribute('x', bbox.x - offset_px);
    box.setAttribute('y', bbox.y - offset_py);
    box.setAttribute('width', bbox.width + offset_px * 2);
    box.setAttribute('height', bbox.height + offset_py * 2);
    box.setAttribute('style','fill: white;'+'stroke: black;'+'stroke-width: 1px;');
    text_elem.insertBefore(box,text_elem.childNodes[0]);

    var svg = text_elem.parentNode;
    svg.appendChild(text_elem);
}

for (var i=1; i < 1; i++)
{
draw_bbox("Mouseover" + i);
}
]]> 
</script>
</svg>
