<svg version="1.1"
xmlns="http://www.w3.org/2000/svg"
xmlns:xlink="http://www.w3.org/1999/xlink"
width="2783" height="100" viewBox = "0 0 2783 100"
onclick="mouseclick(evt)">

<script type="text/ecmascript">

<![CDATA[
    function mouseover(evt, target) { 
    var gv = document.getElementById("globalVariable");
    var previoustarget = gv.firstChild.nodeValue;
    if (previoustarget != "none") 
    {
        	document.getElementById(gv.firstChild.nodeValue).setAttributeNS(null, "visibility", "hidden");
    }
    document.getElementById(target).setAttributeNS(null, "visibility", "visible");
    gv.firstChild.nodeValue = target;
        }

    function mouseclick(evt) { 
    var gv = document.getElementById("globalVariable");
    var previoustarget = gv.firstChild.nodeValue;
    if (previoustarget != "none") {
        	document.getElementById(gv.firstChild.nodeValue).setAttributeNS(null, "visibility", "hidden");
        }
    }
]]>
  </script>
<style type="text/css" >

<![CDATA[
    rect.anc_exon {
              stroke-width:3;
                  }

    rect.non_anc_exon {
              stroke: black; stroke-width:3; stroke-dasharray: 5,5;
                    }

    text {
              font-size: 18px;
              font-family: Courier New;
          }
                    ]]>
</style>

<defs>
    <text x="150" y="40" id="globalVariable">none</text>
</defs>

  <rect class="anc_exon" x="0" y="35.0" width="0" height="30" style="fill:#87bcbc;fill-opacity:1.00" />
  <rect class="anc_exon" x="0" y="35.0" width="156.0" height="30" style="fill:#87bcbc;fill-opacity:1.00" />
  <line x1="156.0" y1="50.0" x2="176.0" y2="50.0" style="stroke:#999; stroke-width:3;" />
  <line x1="176.0" y1="50.0" x2="176.0" y2="50.0" style="stroke:#999; stroke-width:3;" />
  <line x1="176.0" y1="50.0" x2="176.0" y2="50.0" style="stroke:#999; stroke-width:3;" />
  <line x1="176.0" y1="50.0" x2="196.0" y2="50.0" style="stroke:#999; stroke-width:3;" />
  <rect class="anc_exon" x="196" y="35.0" width="108" height="30" style="fill:#87bcbc;fill-opacity:1.00" />
  <line x1="304" y1="50.0" x2="344" y2="50.0" style="stroke:#999; stroke-width:3;" />
  <rect class="anc_exon" x="344" y="35.0" width="113" height="30" style="fill:#87bcbc;fill-opacity:1.00" />
  <line x1="457" y1="50.0" x2="477" y2="50.0" style="stroke:#999; stroke-width:3;" />
  <line x1="477" y1="50.0" x2="477" y2="50.0" style="stroke:#999; stroke-width:3;" />
  <line x1="477" y1="50.0" x2="477" y2="50.0" style="stroke:#999; stroke-width:3;" />
  <line x1="477" y1="50.0" x2="497" y2="50.0" style="stroke:#999; stroke-width:3;" />
  <rect class="anc_exon" x="497" y="35.0" width="112" height="30" style="fill:#87bcbc;fill-opacity:1.00" />
  <line x1="609" y1="50.0" x2="629" y2="50.0" style="stroke:#999; stroke-width:3;" />
  <line x1="629" y1="50.0" x2="629" y2="50.0" style="stroke:#999; stroke-width:3;" />
  <line x1="629" y1="50.0" x2="629" y2="50.0" style="stroke:#999; stroke-width:3;" />
  <line x1="629" y1="50.0" x2="649" y2="50.0" style="stroke:#999; stroke-width:3;" />
  <rect class="anc_exon" x="649" y="35.0" width="108" height="30" style="fill:#87bcbc;fill-opacity:1.00" />
  <line x1="757" y1="50.0" x2="797" y2="50.0" style="stroke:#999; stroke-width:3;" />
  <rect class="anc_exon" x="797" y="35.0" width="98" height="30" style="fill:#87bcbc;fill-opacity:1.00" />
  <line x1="895" y1="50.0" x2="935" y2="50.0" style="stroke:#999; stroke-width:3;" />
  <rect class="anc_exon" x="935" y="35.0" width="105" height="30" style="fill:#87bcbc;fill-opacity:1.00" />
  <line x1="1040" y1="50.0" x2="1080" y2="50.0" style="stroke:#999; stroke-width:3;" />
  <rect class="anc_exon" x="1080" y="35.0" width="238" height="30" style="fill:#87bcbc;fill-opacity:1.00" />
  <line x1="1318" y1="50.0" x2="1358" y2="50.0" style="stroke:#999; stroke-width:3;" />
  <rect class="anc_exon" x="1358" y="35.0" width="104" height="30" style="fill:#87bcbc;fill-opacity:1.00" />
  <line x1="1462" y1="50.0" x2="1482" y2="50.0" style="stroke:#999; stroke-width:3;" />
  <line x1="1482" y1="50.0" x2="1482" y2="50.0" style="stroke:#999; stroke-width:3;" />
  <line x1="1482" y1="50.0" x2="1482" y2="50.0" style="stroke:#999; stroke-width:3;" />
  <line x1="1482" y1="50.0" x2="1502" y2="50.0" style="stroke:#999; stroke-width:3;" />
  <rect class="anc_exon" x="1502" y="35.0" width="68" height="30" style="fill:#87bcbc;fill-opacity:1.00" />
  <line x1="1570" y1="50.0" x2="1610" y2="50.0" style="stroke:#999; stroke-width:3;" />
  <rect class="anc_exon" x="1610" y="35.0" width="108" height="30" style="fill:#87bcbc;fill-opacity:1.00" />
  <line x1="1718" y1="50.0" x2="1738" y2="50.0" style="stroke:#999; stroke-width:3;" />
  <line x1="1738" y1="50.0" x2="1738" y2="50.0" style="stroke:#999; stroke-width:3;" />
  <line x1="1738" y1="50.0" x2="1738" y2="50.0" style="stroke:#999; stroke-width:3;" />
  <line x1="1738" y1="50.0" x2="1758" y2="50.0" style="stroke:#999; stroke-width:3;" />
  <rect class="anc_exon" x="1758" y="35.0" width="81" height="30" style="fill:#87bcbc;fill-opacity:1.00" />
  <line x1="1839" y1="50.0" x2="1879" y2="50.0" style="stroke:#999; stroke-width:3;" />
  <rect class="anc_exon" x="1879" y="35.0" width="123" height="30" style="fill:#87bcbc;fill-opacity:1.00" />
  <line x1="2002" y1="50.0" x2="2022" y2="50.0" style="stroke:#999; stroke-width:3;" />
  <line x1="2022" y1="50.0" x2="2022" y2="50.0" style="stroke:#999; stroke-width:3;" />
  <line x1="2022" y1="50.0" x2="2022" y2="50.0" style="stroke:#999; stroke-width:3;" />
  <line x1="2022" y1="50.0" x2="2042" y2="50.0" style="stroke:#999; stroke-width:3;" />
  <rect class="anc_exon" x="2042" y="35.0" width="128" height="30" style="fill:#87bcbc;fill-opacity:1.00" />
  <line x1="2170" y1="50.0" x2="2210" y2="50.0" style="stroke:#999; stroke-width:3;" />
  <rect class="anc_exon" x="2210" y="35.0" width="118" height="30" style="fill:#87bcbc;fill-opacity:1.00" />
  <line x1="2328" y1="50.0" x2="2348" y2="50.0" style="stroke:#999; stroke-width:3;" />
  <line x1="2348" y1="50.0" x2="2348" y2="50.0" style="stroke:#999; stroke-width:3;" />
  <line x1="2348" y1="50.0" x2="2348" y2="50.0" style="stroke:#999; stroke-width:3;" />
  <line x1="2348" y1="50.0" x2="2368" y2="50.0" style="stroke:#999; stroke-width:3;" />
  <rect class="anc_exon" x="2368" y="35.0" width="95" height="30" style="fill:#87bcbc;fill-opacity:1.00" />
  <line x1="2463" y1="50.0" x2="2503" y2="50.0" style="stroke:#999; stroke-width:3;" />
  <rect class="anc_exon" x="2503" y="35.0" width="124" height="30" style="fill:#87bcbc;fill-opacity:1.00" />
  <line x1="2627" y1="50.0" x2="2667" y2="50.0" style="stroke:#999; stroke-width:3;" />
  <rect class="anc_exon" x="2667" y="35.0" width="80" height="30" style="fill:#87bcbc;fill-opacity:1.00" />
  <rect class="anc_exon" x="2747" y="35.0" width="0" height="30" style="fill:#87bcbc;fill-opacity:1.00" />
  <text style="" >
<tspan x="0" y="83.0" style="font-size:18px;" >SP XM_003773429_4.1</tspan>  </text>



<script type="text/ecmascript">
<![CDATA[
function draw_bbox(text_id)
{
    var text_elem = document.getElementById(text_id);
    var offset_px = 2;
    var offset_py = 0;
    bbox = text_elem.getBBox();
    var box = document.createElementNS(document.rootElement.namespaceURI,'rect');
    box.setAttribute('x', bbox.x - offset_px);
    box.setAttribute('y', bbox.y - offset_py);
    box.setAttribute('width', bbox.width + offset_px * 2);
    box.setAttribute('height', bbox.height + offset_py * 2);
    box.setAttribute('style','fill: white;'+'stroke: black;'+'stroke-width: 1px;');
    text_elem.insertBefore(box,text_elem.childNodes[0]);

    var svg = text_elem.parentNode;
    svg.appendChild(text_elem);
}

for (var i=1; i < 1; i++)
{
draw_bbox("Mouseover" + i);
}
]]> 
</script>
</svg>
