<svg version="1.1"
xmlns="http://www.w3.org/2000/svg"
xmlns:xlink="http://www.w3.org/1999/xlink"
width="6921" height="100" viewBox = "0 0 6921 100"
onclick="mouseclick(evt)">

<script type="text/ecmascript">

<![CDATA[
    function mouseover(evt, target) { 
    var gv = document.getElementById("globalVariable");
    var previoustarget = gv.firstChild.nodeValue;
    if (previoustarget != "none") 
    {
        	document.getElementById(gv.firstChild.nodeValue).setAttributeNS(null, "visibility", "hidden");
    }
    document.getElementById(target).setAttributeNS(null, "visibility", "visible");
    gv.firstChild.nodeValue = target;
        }

    function mouseclick(evt) { 
    var gv = document.getElementById("globalVariable");
    var previoustarget = gv.firstChild.nodeValue;
    if (previoustarget != "none") {
        	document.getElementById(gv.firstChild.nodeValue).setAttributeNS(null, "visibility", "hidden");
        }
    }
]]>
  </script>
<style type="text/css" >

<![CDATA[
    rect.anc_exon {
              stroke-width:3;
                  }

    rect.non_anc_exon {
              stroke: black; stroke-width:3; stroke-dasharray: 5,5;
                    }

    text {
              font-size: 18px;
              font-family: Courier New;
          }
                    ]]>
</style>

<defs>
    <text x="150" y="40" id="globalVariable">none</text>
</defs>

  <rect class="anc_exon" x="0" y="35.0" width="0" height="30" style="fill:#87bcbc;fill-opacity:1.00" />
  <rect class="anc_exon" x="0" y="35.0" width="76.80000000000001" height="30" style="fill:#87bcbc;fill-opacity:1.00" />
  <line x1="76.80000000000001" y1="50.0" x2="116.0" y2="50.0" style="stroke:#999; stroke-width:3;" />
  <rect class="anc_exon" x="116" y="35.0" width="196" height="30" style="fill:#87bcbc;fill-opacity:1.00" />
  <line x1="312" y1="50.0" x2="352" y2="50.0" style="stroke:#999; stroke-width:3;" />
  <rect class="anc_exon" x="352" y="35.0" width="216" height="30" style="fill:#87bcbc;fill-opacity:1.00" />
  <line x1="568" y1="50.0" x2="608" y2="50.0" style="stroke:#999; stroke-width:3;" />
  <rect class="anc_exon" x="608" y="35.0" width="136" height="30" style="fill:#87bcbc;fill-opacity:1.00" />
  <line x1="744" y1="50.0" x2="784" y2="50.0" style="stroke:#999; stroke-width:3;" />
  <rect class="anc_exon" x="784" y="35.0" width="93" height="30" style="fill:#87bcbc;fill-opacity:1.00" />
  <line x1="877" y1="50.0" x2="917" y2="50.0" style="stroke:#999; stroke-width:3;" />
  <rect class="anc_exon" x="917" y="35.0" width="151" height="30" style="fill:#87bcbc;fill-opacity:1.00" />
  <line x1="1068" y1="50.0" x2="1088" y2="50.0" style="stroke:#999; stroke-width:3;" />
  <line x1="1088" y1="50.0" x2="1088" y2="50.0" style="stroke:#999; stroke-width:3;" />
  <line x1="1088" y1="50.0" x2="1088" y2="50.0" style="stroke:#999; stroke-width:3;" />
  <line x1="1088" y1="50.0" x2="1108" y2="50.0" style="stroke:#999; stroke-width:3;" />
  <rect class="anc_exon" x="1108" y="35.0" width="98" height="30" style="fill:#87bcbc;fill-opacity:1.00" />
  <line x1="1206" y1="50.0" x2="1226" y2="50.0" style="stroke:#999; stroke-width:3;" />
  <line x1="1226" y1="50.0" x2="1226" y2="50.0" style="stroke:#999; stroke-width:3;" />
  <line x1="1226" y1="50.0" x2="1226" y2="50.0" style="stroke:#999; stroke-width:3;" />
  <line x1="1226" y1="50.0" x2="1246" y2="50.0" style="stroke:#999; stroke-width:3;" />
  <rect class="anc_exon" x="1246" y="35.0" width="142" height="30" style="fill:#87bcbc;fill-opacity:1.00" />
  <line x1="1388" y1="50.0" x2="1408" y2="50.0" style="stroke:#999; stroke-width:3;" />
  <line x1="1408" y1="50.0" x2="1408" y2="50.0" style="stroke:#999; stroke-width:3;" />
  <line x1="1408" y1="50.0" x2="1408" y2="50.0" style="stroke:#999; stroke-width:3;" />
  <line x1="1408" y1="50.0" x2="1428" y2="50.0" style="stroke:#999; stroke-width:3;" />
  <rect class="anc_exon" x="1428" y="35.0" width="88" height="30" style="fill:#87bcbc;fill-opacity:1.00" />
  <line x1="1516" y1="50.0" x2="1556" y2="50.0" style="stroke:#999; stroke-width:3;" />
  <rect class="anc_exon" x="1556" y="35.0" width="173" height="30" style="fill:#87bcbc;fill-opacity:1.00" />
  <line x1="1729" y1="50.0" x2="1769" y2="50.0" style="stroke:#999; stroke-width:3;" />
  <rect class="anc_exon" x="1769" y="35.0" width="164" height="30" style="fill:#87bcbc;fill-opacity:1.00" />
  <line x1="1933" y1="50.0" x2="1973" y2="50.0" style="stroke:#999; stroke-width:3;" />
  <rect class="anc_exon" x="1973" y="35.0" width="141" height="30" style="fill:#87bcbc;fill-opacity:1.00" />
  <line x1="2114" y1="50.0" x2="2154" y2="50.0" style="stroke:#999; stroke-width:3;" />
  <rect class="anc_exon" x="2154" y="35.0" width="124" height="30" style="fill:#87bcbc;fill-opacity:1.00" />
  <line x1="2278" y1="50.0" x2="2318" y2="50.0" style="stroke:#999; stroke-width:3;" />
  <rect class="anc_exon" x="2318" y="35.0" width="186" height="30" style="fill:#87bcbc;fill-opacity:1.00" />
  <line x1="2504" y1="50.0" x2="2544" y2="50.0" style="stroke:#999; stroke-width:3;" />
  <rect class="anc_exon" x="2544" y="35.0" width="124" height="30" style="fill:#87bcbc;fill-opacity:1.00" />
  <line x1="2668" y1="50.0" x2="2708" y2="50.0" style="stroke:#999; stroke-width:3;" />
  <rect class="anc_exon" x="2708" y="35.0" width="104" height="30" style="fill:#87bcbc;fill-opacity:1.00" />
  <line x1="2812" y1="50.0" x2="2852" y2="50.0" style="stroke:#999; stroke-width:3;" />
  <rect class="anc_exon" x="2852" y="35.0" width="122" height="30" style="fill:#87bcbc;fill-opacity:1.00" />
  <line x1="2974" y1="50.0" x2="3014" y2="50.0" style="stroke:#999; stroke-width:3;" />
  <rect class="anc_exon" x="3014" y="35.0" width="152" height="30" style="fill:#87bcbc;fill-opacity:1.00" />
  <line x1="3166" y1="50.0" x2="3186" y2="50.0" style="stroke:#999; stroke-width:3;" />
  <line x1="3186" y1="50.0" x2="3186" y2="50.0" style="stroke:#999; stroke-width:3;" />
  <line x1="3186" y1="50.0" x2="3186" y2="50.0" style="stroke:#999; stroke-width:3;" />
  <line x1="3186" y1="50.0" x2="3206" y2="50.0" style="stroke:#999; stroke-width:3;" />
  <rect class="anc_exon" x="3206" y="35.0" width="165" height="30" style="fill:#87bcbc;fill-opacity:1.00" />
  <line x1="3371" y1="50.0" x2="3391" y2="50.0" style="stroke:#999; stroke-width:3;" />
  <line x1="3391" y1="50.0" x2="3391" y2="50.0" style="stroke:#999; stroke-width:3;" />
  <line x1="3391" y1="50.0" x2="3391" y2="50.0" style="stroke:#999; stroke-width:3;" />
  <line x1="3391" y1="50.0" x2="3411" y2="50.0" style="stroke:#999; stroke-width:3;" />
  <rect class="anc_exon" x="3411" y="35.0" width="176" height="30" style="fill:#87bcbc;fill-opacity:1.00" />
  <line x1="3587" y1="50.0" x2="3627" y2="50.0" style="stroke:#999; stroke-width:3;" />
  <rect class="anc_exon" x="3627" y="35.0" width="116" height="30" style="fill:#87bcbc;fill-opacity:1.00" />
  <line x1="3743" y1="50.0" x2="3783" y2="50.0" style="stroke:#999; stroke-width:3;" />
  <rect class="anc_exon" x="3783" y="35.0" width="152" height="30" style="fill:#87bcbc;fill-opacity:1.00" />
  <line x1="3935" y1="50.0" x2="3955" y2="50.0" style="stroke:#999; stroke-width:3;" />
  <line x1="3955" y1="50.0" x2="3955" y2="50.0" style="stroke:#999; stroke-width:3;" />
  <line x1="3955" y1="50.0" x2="3955" y2="50.0" style="stroke:#999; stroke-width:3;" />
  <line x1="3955" y1="50.0" x2="3975" y2="50.0" style="stroke:#999; stroke-width:3;" />
  <rect class="anc_exon" x="3975" y="35.0" width="137" height="30" style="fill:#87bcbc;fill-opacity:1.00" />
  <line x1="4112" y1="50.0" x2="4152" y2="50.0" style="stroke:#999; stroke-width:3;" />
  <rect class="anc_exon" x="4152" y="35.0" width="287" height="30" style="fill:#87bcbc;fill-opacity:1.00" />
  <line x1="4439" y1="50.0" x2="4459" y2="50.0" style="stroke:#999; stroke-width:3;" />
  <line x1="4459" y1="50.0" x2="4459" y2="50.0" style="stroke:#999; stroke-width:3;" />
  <line x1="4459" y1="50.0" x2="4459" y2="50.0" style="stroke:#999; stroke-width:3;" />
  <line x1="4459" y1="50.0" x2="4479" y2="50.0" style="stroke:#999; stroke-width:3;" />
  <rect class="anc_exon" x="4479" y="35.0" width="132" height="30" style="fill:#87bcbc;fill-opacity:1.00" />
  <line x1="4611" y1="50.0" x2="4631" y2="50.0" style="stroke:#999; stroke-width:3;" />
  <line x1="4631" y1="50.0" x2="4631" y2="50.0" style="stroke:#999; stroke-width:3;" />
  <line x1="4631" y1="50.0" x2="4631" y2="50.0" style="stroke:#999; stroke-width:3;" />
  <line x1="4631" y1="50.0" x2="4651" y2="50.0" style="stroke:#999; stroke-width:3;" />
  <rect class="anc_exon" x="4651" y="35.0" width="45" height="30" style="fill:#87bcbc;fill-opacity:1.00" />
  <line x1="4696" y1="50.0" x2="4736" y2="50.0" style="stroke:#999; stroke-width:3;" />
  <rect class="anc_exon" x="4736" y="35.0" width="138" height="30" style="fill:#87bcbc;fill-opacity:1.00" />
  <line x1="4874" y1="50.0" x2="4914" y2="50.0" style="stroke:#999; stroke-width:3;" />
  <rect class="anc_exon" x="4914" y="35.0" width="105" height="30" style="fill:#87bcbc;fill-opacity:1.00" />
  <line x1="5019" y1="50.0" x2="5039" y2="50.0" style="stroke:#999; stroke-width:3;" />
  <line x1="5039" y1="50.0" x2="5039" y2="50.0" style="stroke:#999; stroke-width:3;" />
  <line x1="5039" y1="50.0" x2="5039" y2="50.0" style="stroke:#999; stroke-width:3;" />
  <line x1="5039" y1="50.0" x2="5059" y2="50.0" style="stroke:#999; stroke-width:3;" />
  <rect class="anc_exon" x="5059" y="35.0" width="96" height="30" style="fill:#87bcbc;fill-opacity:1.00" />
  <line x1="5155" y1="50.0" x2="5175" y2="50.0" style="stroke:#999; stroke-width:3;" />
  <line x1="5175" y1="50.0" x2="5175" y2="50.0" style="stroke:#999; stroke-width:3;" />
  <line x1="5175" y1="50.0" x2="5175" y2="50.0" style="stroke:#999; stroke-width:3;" />
  <line x1="5175" y1="50.0" x2="5195" y2="50.0" style="stroke:#999; stroke-width:3;" />
  <rect class="anc_exon" x="5195" y="35.0" width="120" height="30" style="fill:#87bcbc;fill-opacity:1.00" />
  <line x1="5315" y1="50.0" x2="5355" y2="50.0" style="stroke:#999; stroke-width:3;" />
  <rect class="anc_exon" x="5355" y="35.0" width="109" height="30" style="fill:#87bcbc;fill-opacity:1.00" />
  <line x1="5464" y1="50.0" x2="5504" y2="50.0" style="stroke:#999; stroke-width:3;" />
  <rect class="anc_exon" x="5504" y="35.0" width="108" height="30" style="fill:#87bcbc;fill-opacity:1.00" />
  <line x1="5612" y1="50.0" x2="5632" y2="50.0" style="stroke:#999; stroke-width:3;" />
  <line x1="5632" y1="50.0" x2="5632" y2="50.0" style="stroke:#999; stroke-width:3;" />
  <line x1="5632" y1="50.0" x2="5632" y2="50.0" style="stroke:#999; stroke-width:3;" />
  <line x1="5632" y1="50.0" x2="5652" y2="50.0" style="stroke:#999; stroke-width:3;" />
  <rect class="anc_exon" x="5652" y="35.0" width="158" height="30" style="fill:#87bcbc;fill-opacity:1.00" />
  <line x1="5810" y1="50.0" x2="5850" y2="50.0" style="stroke:#999; stroke-width:3;" />
  <rect class="anc_exon" x="5850" y="35.0" width="50" height="30" style="fill:#87bcbc;fill-opacity:1.00" />
  <line x1="5900" y1="50.0" x2="5940" y2="50.0" style="stroke:#999; stroke-width:3;" />
  <rect class="anc_exon" x="5940" y="35.0" width="116" height="30" style="fill:#87bcbc;fill-opacity:1.00" />
  <line x1="6056" y1="50.0" x2="6096" y2="50.0" style="stroke:#999; stroke-width:3;" />
  <rect class="anc_exon" x="6096" y="35.0" width="126" height="30" style="fill:#87bcbc;fill-opacity:1.00" />
  <line x1="6222" y1="50.0" x2="6262" y2="50.0" style="stroke:#999; stroke-width:3;" />
  <rect class="anc_exon" x="6262" y="35.0" width="70" height="30" style="fill:#87bcbc;fill-opacity:1.00" />
  <line x1="6332" y1="50.0" x2="6372" y2="50.0" style="stroke:#999; stroke-width:3;" />
  <rect class="anc_exon" x="6372" y="35.0" width="205" height="30" style="fill:#87bcbc;fill-opacity:1.00" />
  <line x1="6577" y1="50.0" x2="6617" y2="50.0" style="stroke:#999; stroke-width:3;" />
  <rect class="anc_exon" x="6617" y="35.0" width="74" height="30" style="fill:#87bcbc;fill-opacity:1.00" />
  <line x1="6691" y1="50.0" x2="6731" y2="50.0" style="stroke:#999; stroke-width:3;" />
  <rect class="anc_exon" x="6731" y="35.0" width="94" height="30" style="fill:#87bcbc;fill-opacity:1.00" />
  <line x1="6825" y1="50.0" x2="6865" y2="50.0" style="stroke:#999; stroke-width:3;" />
  <rect class="anc_exon" x="6865" y="35.0" width="20" height="30" style="fill:#87bcbc;fill-opacity:1.00" />
  <rect class="anc_exon" x="6885" y="35.0" width="0" height="30" style="fill:#87bcbc;fill-opacity:1.00" />
  <text style="" >
<tspan x="0" y="83.0" style="font-size:18px;" >SP XM_031942294_1.1</tspan>  </text>



<script type="text/ecmascript">
<![CDATA[
function draw_bbox(text_id)
{
    var text_elem = document.getElementById(text_id);
    var offset_px = 2;
    var offset_py = 0;
    bbox = text_elem.getBBox();
    var box = document.createElementNS(document.rootElement.namespaceURI,'rect');
    box.setAttribute('x', bbox.x - offset_px);
    box.setAttribute('y', bbox.y - offset_py);
    box.setAttribute('width', bbox.width + offset_px * 2);
    box.setAttribute('height', bbox.height + offset_py * 2);
    box.setAttribute('style','fill: white;'+'stroke: black;'+'stroke-width: 1px;');
    text_elem.insertBefore(box,text_elem.childNodes[0]);

    var svg = text_elem.parentNode;
    svg.appendChild(text_elem);
}

for (var i=1; i < 1; i++)
{
draw_bbox("Mouseover" + i);
}
]]> 
</script>
</svg>
