<svg version="1.1"
xmlns="http://www.w3.org/2000/svg"
xmlns:xlink="http://www.w3.org/1999/xlink"
width="2811" height="100" viewBox = "0 0 2811 100"
onclick="mouseclick(evt)">

<script type="text/ecmascript">

<![CDATA[
    function mouseover(evt, target) { 
    var gv = document.getElementById("globalVariable");
    var previoustarget = gv.firstChild.nodeValue;
    if (previoustarget != "none") 
    {
        	document.getElementById(gv.firstChild.nodeValue).setAttributeNS(null, "visibility", "hidden");
    }
    document.getElementById(target).setAttributeNS(null, "visibility", "visible");
    gv.firstChild.nodeValue = target;
        }

    function mouseclick(evt) { 
    var gv = document.getElementById("globalVariable");
    var previoustarget = gv.firstChild.nodeValue;
    if (previoustarget != "none") {
        	document.getElementById(gv.firstChild.nodeValue).setAttributeNS(null, "visibility", "hidden");
        }
    }
]]>
  </script>
<style type="text/css" >

<![CDATA[
    rect.anc_exon {
              stroke-width:3;
                  }

    rect.non_anc_exon {
              stroke: black; stroke-width:3; stroke-dasharray: 5,5;
                    }

    text {
              font-size: 18px;
              font-family: Courier New;
          }
                    ]]>
</style>

<defs>
    <text x="150" y="40" id="globalVariable">none</text>
</defs>

  <rect class="anc_exon" x="0" y="35.0" width="0" height="30" style="fill:#87bcbc;fill-opacity:1.00" />
  <rect class="anc_exon" x="0" y="35.0" width="27.200000000000003" height="30" style="fill:#87bcbc;fill-opacity:1.00" />
  <line x1="27.200000000000003" y1="50.0" x2="46.2" y2="50.0" style="stroke:#999; stroke-width:3;" />
  <line x1="46.2" y1="50.0" x2="46.2" y2="50.0" style="stroke:#999; stroke-width:3;" />
  <line x1="46.2" y1="50.0" x2="46.2" y2="50.0" style="stroke:#999; stroke-width:3;" />
  <line x1="46.2" y1="50.0" x2="67.0" y2="50.0" style="stroke:#999; stroke-width:3;" />
  <rect class="anc_exon" x="67" y="35.0" width="109" height="30" style="fill:#87bcbc;fill-opacity:1.00" />
  <line x1="176" y1="50.0" x2="216" y2="50.0" style="stroke:#999; stroke-width:3;" />
  <rect class="anc_exon" x="216" y="35.0" width="149" height="30" style="fill:#87bcbc;fill-opacity:1.00" />
  <line x1="365" y1="50.0" x2="405" y2="50.0" style="stroke:#999; stroke-width:3;" />
  <rect class="anc_exon" x="405" y="35.0" width="118" height="30" style="fill:#87bcbc;fill-opacity:1.00" />
  <line x1="523" y1="50.0" x2="563" y2="50.0" style="stroke:#999; stroke-width:3;" />
  <rect class="anc_exon" x="563" y="35.0" width="96" height="30" style="fill:#87bcbc;fill-opacity:1.00" />
  <line x1="659" y1="50.0" x2="699" y2="50.0" style="stroke:#999; stroke-width:3;" />
  <rect class="anc_exon" x="699" y="35.0" width="271" height="30" style="fill:#87bcbc;fill-opacity:1.00" />
  <line x1="970" y1="50.0" x2="1010" y2="50.0" style="stroke:#999; stroke-width:3;" />
  <rect class="anc_exon" x="1010" y="35.0" width="168" height="30" style="fill:#87bcbc;fill-opacity:1.00" />
  <line x1="1178" y1="50.0" x2="1218" y2="50.0" style="stroke:#999; stroke-width:3;" />
  <rect class="anc_exon" x="1218" y="35.0" width="100" height="30" style="fill:#87bcbc;fill-opacity:1.00" />
  <line x1="1318" y1="50.0" x2="1358" y2="50.0" style="stroke:#999; stroke-width:3;" />
  <rect class="anc_exon" x="1358" y="35.0" width="84" height="30" style="fill:#87bcbc;fill-opacity:1.00" />
  <line x1="1442" y1="50.0" x2="1482" y2="50.0" style="stroke:#999; stroke-width:3;" />
  <rect class="anc_exon" x="1482" y="35.0" width="107" height="30" style="fill:#87bcbc;fill-opacity:1.00" />
  <line x1="1589" y1="50.0" x2="1629" y2="50.0" style="stroke:#999; stroke-width:3;" />
  <rect class="anc_exon" x="1629" y="35.0" width="150" height="30" style="fill:#87bcbc;fill-opacity:1.00" />
  <line x1="1779" y1="50.0" x2="1799" y2="50.0" style="stroke:#999; stroke-width:3;" />
  <line x1="1799" y1="50.0" x2="1799" y2="50.0" style="stroke:#999; stroke-width:3;" />
  <line x1="1799" y1="50.0" x2="1799" y2="50.0" style="stroke:#999; stroke-width:3;" />
  <line x1="1799" y1="50.0" x2="1819" y2="50.0" style="stroke:#999; stroke-width:3;" />
  <rect class="anc_exon" x="1819" y="35.0" width="246" height="30" style="fill:#87bcbc;fill-opacity:1.00" />
  <line x1="2065" y1="50.0" x2="2105" y2="50.0" style="stroke:#999; stroke-width:3;" />
  <rect class="anc_exon" x="2105" y="35.0" width="116" height="30" style="fill:#87bcbc;fill-opacity:1.00" />
  <line x1="2221" y1="50.0" x2="2261" y2="50.0" style="stroke:#999; stroke-width:3;" />
  <rect class="anc_exon" x="2261" y="35.0" width="236" height="30" style="fill:#87bcbc;fill-opacity:1.00" />
  <line x1="2497" y1="50.0" x2="2537" y2="50.0" style="stroke:#999; stroke-width:3;" />
  <rect class="anc_exon" x="2537" y="35.0" width="126" height="30" style="fill:#87bcbc;fill-opacity:1.00" />
  <line x1="2663" y1="50.0" x2="2703" y2="50.0" style="stroke:#999; stroke-width:3;" />
  <rect class="anc_exon" x="2703" y="35.0" width="72" height="30" style="fill:#87bcbc;fill-opacity:1.00" />
  <rect class="anc_exon" x="2775" y="35.0" width="0" height="30" style="fill:#87bcbc;fill-opacity:1.00" />
  <text style="" >
<tspan x="0" y="83.0" style="font-size:18px;" >SP XM_031943513_1.1</tspan>  </text>



<script type="text/ecmascript">
<![CDATA[
function draw_bbox(text_id)
{
    var text_elem = document.getElementById(text_id);
    var offset_px = 2;
    var offset_py = 0;
    bbox = text_elem.getBBox();
    var box = document.createElementNS(document.rootElement.namespaceURI,'rect');
    box.setAttribute('x', bbox.x - offset_px);
    box.setAttribute('y', bbox.y - offset_py);
    box.setAttribute('width', bbox.width + offset_px * 2);
    box.setAttribute('height', bbox.height + offset_py * 2);
    box.setAttribute('style','fill: white;'+'stroke: black;'+'stroke-width: 1px;');
    text_elem.insertBefore(box,text_elem.childNodes[0]);

    var svg = text_elem.parentNode;
    svg.appendChild(text_elem);
}

for (var i=1; i < 1; i++)
{
draw_bbox("Mouseover" + i);
}
]]> 
</script>
</svg>
