<svg version="1.1"
xmlns="http://www.w3.org/2000/svg"
xmlns:xlink="http://www.w3.org/1999/xlink"
width="1776" height="100" viewBox = "0 0 1776 100"
onclick="mouseclick(evt)">

<script type="text/ecmascript">

<![CDATA[
    function mouseover(evt, target) { 
    var gv = document.getElementById("globalVariable");
    var previoustarget = gv.firstChild.nodeValue;
    if (previoustarget != "none") 
    {
        	document.getElementById(gv.firstChild.nodeValue).setAttributeNS(null, "visibility", "hidden");
    }
    document.getElementById(target).setAttributeNS(null, "visibility", "visible");
    gv.firstChild.nodeValue = target;
        }

    function mouseclick(evt) { 
    var gv = document.getElementById("globalVariable");
    var previoustarget = gv.firstChild.nodeValue;
    if (previoustarget != "none") {
        	document.getElementById(gv.firstChild.nodeValue).setAttributeNS(null, "visibility", "hidden");
        }
    }
]]>
  </script>
<style type="text/css" >

<![CDATA[
    rect.anc_exon {
              stroke-width:3;
                  }

    rect.non_anc_exon {
              stroke: black; stroke-width:3; stroke-dasharray: 5,5;
                    }

    text {
              font-size: 18px;
              font-family: Courier New;
          }
                    ]]>
</style>

<defs>
    <text x="150" y="40" id="globalVariable">none</text>
</defs>

  <rect class="anc_exon" x="0" y="35.0" width="0" height="30" style="fill:#87bcbc;fill-opacity:1.00" />
  <rect class="anc_exon" x="0" y="35.0" width="52.800000000000004" height="30" style="fill:#87bcbc;fill-opacity:1.00" />
  <line x1="52.800000000000004" y1="50.0" x2="71.80000000000001" y2="50.0" style="stroke:#999; stroke-width:3;" />
  <line x1="71.80000000000001" y1="50.0" x2="71.80000000000001" y2="50.0" style="stroke:#999; stroke-width:3;" />
  <line x1="71.80000000000001" y1="50.0" x2="71.80000000000001" y2="50.0" style="stroke:#999; stroke-width:3;" />
  <line x1="71.80000000000001" y1="50.0" x2="92.0" y2="50.0" style="stroke:#999; stroke-width:3;" />
  <rect class="anc_exon" x="92" y="35.0" width="137" height="30" style="fill:#87bcbc;fill-opacity:1.00" />
  <line x1="229" y1="50.0" x2="269" y2="50.0" style="stroke:#999; stroke-width:3;" />
  <rect class="anc_exon" x="269" y="35.0" width="88" height="30" style="fill:#87bcbc;fill-opacity:1.00" />
  <line x1="357" y1="50.0" x2="397" y2="50.0" style="stroke:#999; stroke-width:3;" />
  <rect class="anc_exon" x="397" y="35.0" width="104" height="30" style="fill:#87bcbc;fill-opacity:1.00" />
  <line x1="501" y1="50.0" x2="541" y2="50.0" style="stroke:#999; stroke-width:3;" />
  <rect class="anc_exon" x="541" y="35.0" width="84" height="30" style="fill:#87bcbc;fill-opacity:1.00" />
  <line x1="625" y1="50.0" x2="665" y2="50.0" style="stroke:#999; stroke-width:3;" />
  <rect class="anc_exon" x="665" y="35.0" width="100" height="30" style="fill:#87bcbc;fill-opacity:1.00" />
  <line x1="765" y1="50.0" x2="805" y2="50.0" style="stroke:#999; stroke-width:3;" />
  <rect class="anc_exon" x="805" y="35.0" width="153" height="30" style="fill:#87bcbc;fill-opacity:1.00" />
  <line x1="958" y1="50.0" x2="998" y2="50.0" style="stroke:#999; stroke-width:3;" />
  <rect class="anc_exon" x="998" y="35.0" width="122" height="30" style="fill:#87bcbc;fill-opacity:1.00" />
  <line x1="1120" y1="50.0" x2="1140" y2="50.0" style="stroke:#999; stroke-width:3;" />
  <line x1="1140" y1="50.0" x2="1140" y2="50.0" style="stroke:#999; stroke-width:3;" />
  <line x1="1140" y1="50.0" x2="1140" y2="50.0" style="stroke:#999; stroke-width:3;" />
  <line x1="1140" y1="50.0" x2="1160" y2="50.0" style="stroke:#999; stroke-width:3;" />
  <rect class="anc_exon" x="1160" y="35.0" width="111" height="30" style="fill:#87bcbc;fill-opacity:1.00" />
  <line x1="1271" y1="50.0" x2="1291" y2="50.0" style="stroke:#999; stroke-width:3;" />
  <line x1="1291" y1="50.0" x2="1291" y2="50.0" style="stroke:#999; stroke-width:3;" />
  <line x1="1291" y1="50.0" x2="1291" y2="50.0" style="stroke:#999; stroke-width:3;" />
  <line x1="1291" y1="50.0" x2="1311" y2="50.0" style="stroke:#999; stroke-width:3;" />
  <rect class="anc_exon" x="1311" y="35.0" width="104" height="30" style="fill:#878787;fill-opacity:1.00" />
  <line x1="1415" y1="50.0" x2="1455" y2="50.0" style="stroke:#999; stroke-width:3;" />
  <rect class="anc_exon" x="1455" y="35.0" width="86" height="30" style="fill:#878787;fill-opacity:1.00" />
  <line x1="1541" y1="50.0" x2="1581" y2="50.0" style="stroke:#999; stroke-width:3;" />
  <rect class="anc_exon" x="1581" y="35.0" width="67" height="30" style="fill:#87bcbc;fill-opacity:1.00" />
  <line x1="1648" y1="50.0" x2="1688" y2="50.0" style="stroke:#999; stroke-width:3;" />
  <rect class="anc_exon" x="1688" y="35.0" width="52" height="30" style="fill:#87bcbc;fill-opacity:1.00" />
  <rect class="anc_exon" x="1740" y="35.0" width="0" height="30" style="fill:#87bcbc;fill-opacity:1.00" />
  <text style="" >
<tspan x="0" y="83.0" style="font-size:18px;" >SP XM_031943793_1.1</tspan>  </text>



<script type="text/ecmascript">
<![CDATA[
function draw_bbox(text_id)
{
    var text_elem = document.getElementById(text_id);
    var offset_px = 2;
    var offset_py = 0;
    bbox = text_elem.getBBox();
    var box = document.createElementNS(document.rootElement.namespaceURI,'rect');
    box.setAttribute('x', bbox.x - offset_px);
    box.setAttribute('y', bbox.y - offset_py);
    box.setAttribute('width', bbox.width + offset_px * 2);
    box.setAttribute('height', bbox.height + offset_py * 2);
    box.setAttribute('style','fill: white;'+'stroke: black;'+'stroke-width: 1px;');
    text_elem.insertBefore(box,text_elem.childNodes[0]);

    var svg = text_elem.parentNode;
    svg.appendChild(text_elem);
}

for (var i=1; i < 1; i++)
{
draw_bbox("Mouseover" + i);
}
]]> 
</script>
</svg>
