<svg version="1.1"
xmlns="http://www.w3.org/2000/svg"
xmlns:xlink="http://www.w3.org/1999/xlink"
width="3047" height="100" viewBox = "0 0 3047 100"
onclick="mouseclick(evt)">

<script type="text/ecmascript">

<![CDATA[
    function mouseover(evt, target) { 
    var gv = document.getElementById("globalVariable");
    var previoustarget = gv.firstChild.nodeValue;
    if (previoustarget != "none") 
    {
        	document.getElementById(gv.firstChild.nodeValue).setAttributeNS(null, "visibility", "hidden");
    }
    document.getElementById(target).setAttributeNS(null, "visibility", "visible");
    gv.firstChild.nodeValue = target;
        }

    function mouseclick(evt) { 
    var gv = document.getElementById("globalVariable");
    var previoustarget = gv.firstChild.nodeValue;
    if (previoustarget != "none") {
        	document.getElementById(gv.firstChild.nodeValue).setAttributeNS(null, "visibility", "hidden");
        }
    }
]]>
  </script>
<style type="text/css" >

<![CDATA[
    rect.anc_exon {
              stroke-width:3;
                  }

    rect.non_anc_exon {
              stroke: black; stroke-width:3; stroke-dasharray: 5,5;
                    }

    text {
              font-size: 18px;
              font-family: Courier New;
          }
                    ]]>
</style>

<defs>
    <text x="150" y="40" id="globalVariable">none</text>
</defs>

  <rect class="anc_exon" x="0" y="35.0" width="0" height="30" style="fill:#87bcbc;fill-opacity:1.00" />
  <rect class="anc_exon" x="0" y="35.0" width="9.600000000000001" height="30" style="fill:#87bcbc;fill-opacity:1.00" />
  <line x1="9.600000000000001" y1="50.0" x2="28.6" y2="50.0" style="stroke:#999; stroke-width:3;" />
  <line x1="28.6" y1="50.0" x2="28.6" y2="50.0" style="stroke:#999; stroke-width:3;" />
  <line x1="28.6" y1="50.0" x2="28.6" y2="50.0" style="stroke:#999; stroke-width:3;" />
  <line x1="28.6" y1="50.0" x2="49.0" y2="50.0" style="stroke:#999; stroke-width:3;" />
  <rect class="anc_exon" x="49" y="35.0" width="105" height="30" style="fill:#87bcbc;fill-opacity:1.00" />
  <line x1="154" y1="50.0" x2="174" y2="50.0" style="stroke:#999; stroke-width:3;" />
  <line x1="174" y1="50.0" x2="174" y2="50.0" style="stroke:#999; stroke-width:3;" />
  <line x1="174" y1="50.0" x2="174" y2="50.0" style="stroke:#999; stroke-width:3;" />
  <line x1="174" y1="50.0" x2="194" y2="50.0" style="stroke:#999; stroke-width:3;" />
  <rect class="anc_exon" x="194" y="35.0" width="127" height="30" style="fill:#87bcbc;fill-opacity:1.00" />
  <line x1="321" y1="50.0" x2="341" y2="50.0" style="stroke:#999; stroke-width:3;" />
  <line x1="341" y1="50.0" x2="341" y2="50.0" style="stroke:#999; stroke-width:3;" />
  <line x1="341" y1="50.0" x2="341" y2="50.0" style="stroke:#999; stroke-width:3;" />
  <line x1="341" y1="50.0" x2="361" y2="50.0" style="stroke:#999; stroke-width:3;" />
  <rect class="anc_exon" x="361" y="35.0" width="74" height="30" style="fill:#87bcbc;fill-opacity:1.00" />
  <line x1="435" y1="50.0" x2="455" y2="50.0" style="stroke:#999; stroke-width:3;" />
  <line x1="455" y1="50.0" x2="455" y2="50.0" style="stroke:#999; stroke-width:3;" />
  <line x1="455" y1="50.0" x2="455" y2="50.0" style="stroke:#999; stroke-width:3;" />
  <line x1="455" y1="50.0" x2="475" y2="50.0" style="stroke:#999; stroke-width:3;" />
  <rect class="anc_exon" x="475" y="35.0" width="87" height="30" style="fill:#87bcbc;fill-opacity:1.00" />
  <line x1="562" y1="50.0" x2="582" y2="50.0" style="stroke:#999; stroke-width:3;" />
  <line x1="582" y1="50.0" x2="582" y2="50.0" style="stroke:#999; stroke-width:3;" />
  <line x1="582" y1="50.0" x2="582" y2="50.0" style="stroke:#999; stroke-width:3;" />
  <line x1="582" y1="50.0" x2="602" y2="50.0" style="stroke:#999; stroke-width:3;" />
  <rect class="anc_exon" x="602" y="35.0" width="26" height="30" style="fill:#87bcbc;fill-opacity:1.00" />
  <line x1="628" y1="50.0" x2="648" y2="50.0" style="stroke:#999; stroke-width:3;" />
  <line x1="648" y1="50.0" x2="648" y2="50.0" style="stroke:#999; stroke-width:3;" />
  <line x1="648" y1="50.0" x2="648" y2="50.0" style="stroke:#999; stroke-width:3;" />
  <line x1="648" y1="50.0" x2="668" y2="50.0" style="stroke:#999; stroke-width:3;" />
  <rect class="anc_exon" x="668" y="35.0" width="49" height="30" style="fill:#87bcbc;fill-opacity:1.00" />
  <line x1="717" y1="50.0" x2="737" y2="50.0" style="stroke:#999; stroke-width:3;" />
  <line x1="737" y1="50.0" x2="737" y2="50.0" style="stroke:#999; stroke-width:3;" />
  <line x1="737" y1="50.0" x2="737" y2="50.0" style="stroke:#999; stroke-width:3;" />
  <line x1="737" y1="50.0" x2="757" y2="50.0" style="stroke:#999; stroke-width:3;" />
  <rect class="anc_exon" x="757" y="35.0" width="60" height="30" style="fill:#87bcbc;fill-opacity:1.00" />
  <line x1="817" y1="50.0" x2="837" y2="50.0" style="stroke:#999; stroke-width:3;" />
  <line x1="837" y1="50.0" x2="837" y2="50.0" style="stroke:#999; stroke-width:3;" />
  <line x1="837" y1="50.0" x2="837" y2="50.0" style="stroke:#999; stroke-width:3;" />
  <line x1="837" y1="50.0" x2="857" y2="50.0" style="stroke:#999; stroke-width:3;" />
  <rect class="anc_exon" x="857" y="35.0" width="83" height="30" style="fill:#87bcbc;fill-opacity:1.00" />
  <line x1="940" y1="50.0" x2="980" y2="50.0" style="stroke:#999; stroke-width:3;" />
  <rect class="anc_exon" x="980" y="35.0" width="54" height="30" style="fill:#87bcbc;fill-opacity:1.00" />
  <line x1="1034" y1="50.0" x2="1074" y2="50.0" style="stroke:#999; stroke-width:3;" />
  <rect class="anc_exon" x="1074" y="35.0" width="57" height="30" style="fill:#87bcbc;fill-opacity:1.00" />
  <line x1="1131" y1="50.0" x2="1171" y2="50.0" style="stroke:#999; stroke-width:3;" />
  <rect class="anc_exon" x="1171" y="35.0" width="46" height="30" style="fill:#87bcbc;fill-opacity:1.00" />
  <line x1="1217" y1="50.0" x2="1257" y2="50.0" style="stroke:#999; stroke-width:3;" />
  <rect class="anc_exon" x="1257" y="35.0" width="33" height="30" style="fill:#87bcbc;fill-opacity:1.00" />
  <line x1="1290" y1="50.0" x2="1310" y2="50.0" style="stroke:#999; stroke-width:3;" />
  <line x1="1310" y1="50.0" x2="1310" y2="50.0" style="stroke:#999; stroke-width:3;" />
  <line x1="1310" y1="50.0" x2="1310" y2="50.0" style="stroke:#999; stroke-width:3;" />
  <line x1="1310" y1="50.0" x2="1330" y2="50.0" style="stroke:#999; stroke-width:3;" />
  <rect class="anc_exon" x="1330" y="35.0" width="106" height="30" style="fill:#87bcbc;fill-opacity:1.00" />
  <line x1="1436" y1="50.0" x2="1476" y2="50.0" style="stroke:#999; stroke-width:3;" />
  <rect class="anc_exon" x="1476" y="35.0" width="26" height="30" style="fill:#87bcbc;fill-opacity:1.00" />
  <line x1="1502" y1="50.0" x2="1542" y2="50.0" style="stroke:#999; stroke-width:3;" />
  <rect class="anc_exon" x="1542" y="35.0" width="113" height="30" style="fill:#87bcbc;fill-opacity:1.00" />
  <line x1="1655" y1="50.0" x2="1675" y2="50.0" style="stroke:#999; stroke-width:3;" />
  <line x1="1675" y1="50.0" x2="1675" y2="50.0" style="stroke:#999; stroke-width:3;" />
  <line x1="1675" y1="50.0" x2="1675" y2="50.0" style="stroke:#999; stroke-width:3;" />
  <line x1="1675" y1="50.0" x2="1695" y2="50.0" style="stroke:#999; stroke-width:3;" />
  <rect class="anc_exon" x="1695" y="35.0" width="103" height="30" style="fill:#87bcbc;fill-opacity:1.00" />
  <line x1="1798" y1="50.0" x2="1838" y2="50.0" style="stroke:#999; stroke-width:3;" />
  <rect class="anc_exon" x="1838" y="35.0" width="120" height="30" style="fill:#87bcbc;fill-opacity:1.00" />
  <line x1="1958" y1="50.0" x2="1998" y2="50.0" style="stroke:#999; stroke-width:3;" />
  <rect class="anc_exon" x="1998" y="35.0" width="89" height="30" style="fill:#87bcbc;fill-opacity:1.00" />
  <line x1="2087" y1="50.0" x2="2127" y2="50.0" style="stroke:#999; stroke-width:3;" />
  <rect class="anc_exon" x="2127" y="35.0" width="71" height="30" style="fill:#87bcbc;fill-opacity:1.00" />
  <line x1="2198" y1="50.0" x2="2238" y2="50.0" style="stroke:#999; stroke-width:3;" />
  <rect class="anc_exon" x="2238" y="35.0" width="98" height="30" style="fill:#87bcbc;fill-opacity:1.00" />
  <line x1="2336" y1="50.0" x2="2376" y2="50.0" style="stroke:#999; stroke-width:3;" />
  <rect class="anc_exon" x="2376" y="35.0" width="100" height="30" style="fill:#87bcbc;fill-opacity:1.00" />
  <line x1="2476" y1="50.0" x2="2516" y2="50.0" style="stroke:#999; stroke-width:3;" />
  <rect class="anc_exon" x="2516" y="35.0" width="151" height="30" style="fill:#87bcbc;fill-opacity:1.00" />
  <line x1="2667" y1="50.0" x2="2707" y2="50.0" style="stroke:#999; stroke-width:3;" />
  <rect class="anc_exon" x="2707" y="35.0" width="146" height="30" style="fill:#87bcbc;fill-opacity:1.00" />
  <line x1="2853" y1="50.0" x2="2873" y2="50.0" style="stroke:#999; stroke-width:3;" />
  <line x1="2873" y1="50.0" x2="2873" y2="50.0" style="stroke:#999; stroke-width:3;" />
  <line x1="2873" y1="50.0" x2="2873" y2="50.0" style="stroke:#999; stroke-width:3;" />
  <line x1="2873" y1="50.0" x2="2893" y2="50.0" style="stroke:#999; stroke-width:3;" />
  <rect class="anc_exon" x="2893" y="35.0" width="52" height="30" style="fill:#87bcbc;fill-opacity:1.00" />
  <line x1="2945" y1="50.0" x2="2965" y2="50.0" style="stroke:#999; stroke-width:3;" />
  <line x1="2965" y1="50.0" x2="2965" y2="50.0" style="stroke:#999; stroke-width:3;" />
  <line x1="2965" y1="50.0" x2="2965" y2="50.0" style="stroke:#999; stroke-width:3;" />
  <line x1="2965" y1="50.0" x2="2985" y2="50.0" style="stroke:#999; stroke-width:3;" />
  <rect class="anc_exon" x="2985" y="35.0" width="26" height="30" style="fill:#87bcbc;fill-opacity:1.00" />
  <rect class="anc_exon" x="3011" y="35.0" width="0" height="30" style="fill:#87bcbc;fill-opacity:1.00" />
  <text style="" >
<tspan x="0" y="83.0" style="font-size:18px;" >SP XM_031942183_1.1</tspan>  </text>



<script type="text/ecmascript">
<![CDATA[
function draw_bbox(text_id)
{
    var text_elem = document.getElementById(text_id);
    var offset_px = 2;
    var offset_py = 0;
    bbox = text_elem.getBBox();
    var box = document.createElementNS(document.rootElement.namespaceURI,'rect');
    box.setAttribute('x', bbox.x - offset_px);
    box.setAttribute('y', bbox.y - offset_py);
    box.setAttribute('width', bbox.width + offset_px * 2);
    box.setAttribute('height', bbox.height + offset_py * 2);
    box.setAttribute('style','fill: white;'+'stroke: black;'+'stroke-width: 1px;');
    text_elem.insertBefore(box,text_elem.childNodes[0]);

    var svg = text_elem.parentNode;
    svg.appendChild(text_elem);
}

for (var i=1; i < 1; i++)
{
draw_bbox("Mouseover" + i);
}
]]> 
</script>
</svg>
