<svg version="1.1"
xmlns="http://www.w3.org/2000/svg"
xmlns:xlink="http://www.w3.org/1999/xlink"
width="3797" height="100" viewBox = "0 0 3797 100"
onclick="mouseclick(evt)">

<script type="text/ecmascript">

<![CDATA[
    function mouseover(evt, target) { 
    var gv = document.getElementById("globalVariable");
    var previoustarget = gv.firstChild.nodeValue;
    if (previoustarget != "none") 
    {
        	document.getElementById(gv.firstChild.nodeValue).setAttributeNS(null, "visibility", "hidden");
    }
    document.getElementById(target).setAttributeNS(null, "visibility", "visible");
    gv.firstChild.nodeValue = target;
        }

    function mouseclick(evt) { 
    var gv = document.getElementById("globalVariable");
    var previoustarget = gv.firstChild.nodeValue;
    if (previoustarget != "none") {
        	document.getElementById(gv.firstChild.nodeValue).setAttributeNS(null, "visibility", "hidden");
        }
    }
]]>
  </script>
<style type="text/css" >

<![CDATA[
    rect.anc_exon {
              stroke-width:3;
                  }

    rect.non_anc_exon {
              stroke: black; stroke-width:3; stroke-dasharray: 5,5;
                    }

    text {
              font-size: 18px;
              font-family: Courier New;
          }
                    ]]>
</style>

<defs>
    <text x="150" y="40" id="globalVariable">none</text>
</defs>

  <rect class="anc_exon" x="0" y="35.0" width="0" height="30" style="fill:#87bcbc;fill-opacity:1.00" />
  <rect class="anc_exon" x="0" y="35.0" width="211.20000000000002" height="30" style="fill:#87bcbc;fill-opacity:1.00" />
  <line x1="211.20000000000002" y1="50.0" x2="230.20000000000002" y2="50.0" style="stroke:#999; stroke-width:3;" />
  <line x1="230.20000000000002" y1="50.0" x2="230.20000000000002" y2="50.0" style="stroke:#999; stroke-width:3;" />
  <line x1="230.20000000000002" y1="50.0" x2="230.20000000000002" y2="50.0" style="stroke:#999; stroke-width:3;" />
  <line x1="230.20000000000002" y1="50.0" x2="251.0" y2="50.0" style="stroke:#999; stroke-width:3;" />
  <rect class="anc_exon" x="251" y="35.0" width="166" height="30" style="fill:#87bcbc;fill-opacity:1.00" />
  <line x1="417" y1="50.0" x2="437" y2="50.0" style="stroke:#999; stroke-width:3;" />
  <line x1="437" y1="50.0" x2="437" y2="50.0" style="stroke:#999; stroke-width:3;" />
  <line x1="437" y1="50.0" x2="437" y2="50.0" style="stroke:#999; stroke-width:3;" />
  <line x1="437" y1="50.0" x2="457" y2="50.0" style="stroke:#999; stroke-width:3;" />
  <rect class="anc_exon" x="457" y="35.0" width="93" height="30" style="fill:#87bcbc;fill-opacity:1.00" />
  <line x1="550" y1="50.0" x2="590" y2="50.0" style="stroke:#999; stroke-width:3;" />
  <rect class="anc_exon" x="590" y="35.0" width="81" height="30" style="fill:#87bcbc;fill-opacity:1.00" />
  <line x1="671" y1="50.0" x2="691" y2="50.0" style="stroke:#999; stroke-width:3;" />
  <line x1="691" y1="50.0" x2="691" y2="50.0" style="stroke:#999; stroke-width:3;" />
  <line x1="691" y1="50.0" x2="691" y2="50.0" style="stroke:#999; stroke-width:3;" />
  <line x1="691" y1="50.0" x2="711" y2="50.0" style="stroke:#999; stroke-width:3;" />
  <rect class="anc_exon" x="711" y="35.0" width="124" height="30" style="fill:#87bcbc;fill-opacity:1.00" />
  <line x1="835" y1="50.0" x2="855" y2="50.0" style="stroke:#999; stroke-width:3;" />
  <line x1="855" y1="50.0" x2="855" y2="50.0" style="stroke:#999; stroke-width:3;" />
  <line x1="855" y1="50.0" x2="855" y2="50.0" style="stroke:#999; stroke-width:3;" />
  <line x1="855" y1="50.0" x2="875" y2="50.0" style="stroke:#999; stroke-width:3;" />
  <rect class="anc_exon" x="875" y="35.0" width="80" height="30" style="fill:#87bcbc;fill-opacity:1.00" />
  <line x1="955" y1="50.0" x2="975" y2="50.0" style="stroke:#999; stroke-width:3;" />
  <line x1="975" y1="50.0" x2="975" y2="50.0" style="stroke:#999; stroke-width:3;" />
  <line x1="975" y1="50.0" x2="975" y2="50.0" style="stroke:#999; stroke-width:3;" />
  <line x1="975" y1="50.0" x2="995" y2="50.0" style="stroke:#999; stroke-width:3;" />
  <rect class="anc_exon" x="995" y="35.0" width="206" height="30" style="fill:#87bcbc;fill-opacity:1.00" />
  <line x1="1201" y1="50.0" x2="1241" y2="50.0" style="stroke:#999; stroke-width:3;" />
  <rect class="anc_exon" x="1241" y="35.0" width="92" height="30" style="fill:#87bcbc;fill-opacity:1.00" />
  <line x1="1333" y1="50.0" x2="1373" y2="50.0" style="stroke:#999; stroke-width:3;" />
  <rect class="anc_exon" x="1373" y="35.0" width="101" height="30" style="fill:#87bcbc;fill-opacity:1.00" />
  <line x1="1474" y1="50.0" x2="1514" y2="50.0" style="stroke:#999; stroke-width:3;" />
  <rect class="anc_exon" x="1514" y="35.0" width="72" height="30" style="fill:#87bcbc;fill-opacity:1.00" />
  <line x1="1586" y1="50.0" x2="1606" y2="50.0" style="stroke:#999; stroke-width:3;" />
  <line x1="1606" y1="50.0" x2="1606" y2="50.0" style="stroke:#999; stroke-width:3;" />
  <line x1="1606" y1="50.0" x2="1606" y2="50.0" style="stroke:#999; stroke-width:3;" />
  <line x1="1606" y1="50.0" x2="1626" y2="50.0" style="stroke:#999; stroke-width:3;" />
  <rect class="anc_exon" x="1626" y="35.0" width="118" height="30" style="fill:#87bcbc;fill-opacity:1.00" />
  <line x1="1744" y1="50.0" x2="1784" y2="50.0" style="stroke:#999; stroke-width:3;" />
  <rect class="anc_exon" x="1784" y="35.0" width="160" height="30" style="fill:#87bcbc;fill-opacity:1.00" />
  <line x1="1944" y1="50.0" x2="1984" y2="50.0" style="stroke:#999; stroke-width:3;" />
  <rect class="anc_exon" x="1984" y="35.0" width="85" height="30" style="fill:#87bcbc;fill-opacity:1.00" />
  <line x1="2069" y1="50.0" x2="2089" y2="50.0" style="stroke:#999; stroke-width:3;" />
  <line x1="2089" y1="50.0" x2="2089" y2="50.0" style="stroke:#999; stroke-width:3;" />
  <line x1="2089" y1="50.0" x2="2089" y2="50.0" style="stroke:#999; stroke-width:3;" />
  <line x1="2089" y1="50.0" x2="2109" y2="50.0" style="stroke:#999; stroke-width:3;" />
  <rect class="anc_exon" x="2109" y="35.0" width="55" height="30" style="fill:#87bcbc;fill-opacity:1.00" />
  <line x1="2164" y1="50.0" x2="2204" y2="50.0" style="stroke:#999; stroke-width:3;" />
  <rect class="anc_exon" x="2204" y="35.0" width="120" height="30" style="fill:#87bcbc;fill-opacity:1.00" />
  <line x1="2324" y1="50.0" x2="2364" y2="50.0" style="stroke:#999; stroke-width:3;" />
  <rect class="anc_exon" x="2364" y="35.0" width="98" height="30" style="fill:#87bcbc;fill-opacity:1.00" />
  <line x1="2462" y1="50.0" x2="2502" y2="50.0" style="stroke:#999; stroke-width:3;" />
  <rect class="anc_exon" x="2502" y="35.0" width="175" height="30" style="fill:#87bcbc;fill-opacity:1.00" />
  <line x1="2677" y1="50.0" x2="2717" y2="50.0" style="stroke:#999; stroke-width:3;" />
  <rect class="anc_exon" x="2717" y="35.0" width="81" height="30" style="fill:#87bcbc;fill-opacity:1.00" />
  <line x1="2798" y1="50.0" x2="2838" y2="50.0" style="stroke:#999; stroke-width:3;" />
  <rect class="anc_exon" x="2838" y="35.0" width="98" height="30" style="fill:#87bcbc;fill-opacity:1.00" />
  <line x1="2936" y1="50.0" x2="2956" y2="50.0" style="stroke:#999; stroke-width:3;" />
  <line x1="2956" y1="50.0" x2="2956" y2="50.0" style="stroke:#999; stroke-width:3;" />
  <line x1="2956" y1="50.0" x2="2956" y2="50.0" style="stroke:#999; stroke-width:3;" />
  <line x1="2956" y1="50.0" x2="2976" y2="50.0" style="stroke:#999; stroke-width:3;" />
  <rect class="anc_exon" x="2976" y="35.0" width="69" height="30" style="fill:#87bcbc;fill-opacity:1.00" />
  <line x1="3045" y1="50.0" x2="3065" y2="50.0" style="stroke:#999; stroke-width:3;" />
  <line x1="3065" y1="50.0" x2="3065" y2="50.0" style="stroke:#999; stroke-width:3;" />
  <line x1="3065" y1="50.0" x2="3065" y2="50.0" style="stroke:#999; stroke-width:3;" />
  <line x1="3065" y1="50.0" x2="3085" y2="50.0" style="stroke:#999; stroke-width:3;" />
  <rect class="anc_exon" x="3085" y="35.0" width="86" height="30" style="fill:#87bcbc;fill-opacity:1.00" />
  <line x1="3171" y1="50.0" x2="3211" y2="50.0" style="stroke:#999; stroke-width:3;" />
  <rect class="anc_exon" x="3211" y="35.0" width="64" height="30" style="fill:#87bcbc;fill-opacity:1.00" />
  <line x1="3275" y1="50.0" x2="3315" y2="50.0" style="stroke:#999; stroke-width:3;" />
  <rect class="anc_exon" x="3315" y="35.0" width="149" height="30" style="fill:#87bcbc;fill-opacity:1.00" />
  <line x1="3464" y1="50.0" x2="3504" y2="50.0" style="stroke:#999; stroke-width:3;" />
  <rect class="anc_exon" x="3504" y="35.0" width="68" height="30" style="fill:#87bcbc;fill-opacity:1.00" />
  <line x1="3572" y1="50.0" x2="3612" y2="50.0" style="stroke:#999; stroke-width:3;" />
  <rect class="anc_exon" x="3612" y="35.0" width="77" height="30" style="fill:#87bcbc;fill-opacity:1.00" />
  <line x1="3689" y1="50.0" x2="3709" y2="50.0" style="stroke:#999; stroke-width:3;" />
  <line x1="3709" y1="50.0" x2="3709" y2="50.0" style="stroke:#999; stroke-width:3;" />
  <line x1="3709" y1="50.0" x2="3709" y2="50.0" style="stroke:#999; stroke-width:3;" />
  <line x1="3709" y1="50.0" x2="3729" y2="50.0" style="stroke:#999; stroke-width:3;" />
  <rect class="anc_exon" x="3729" y="35.0" width="32" height="30" style="fill:#87bcbc;fill-opacity:1.00" />
  <rect class="anc_exon" x="3761" y="35.0" width="0" height="30" style="fill:#87bcbc;fill-opacity:1.00" />
  <text style="" >
<tspan x="0" y="83.0" style="font-size:18px;" >SP XM_031944254_1.1</tspan>  </text>



<script type="text/ecmascript">
<![CDATA[
function draw_bbox(text_id)
{
    var text_elem = document.getElementById(text_id);
    var offset_px = 2;
    var offset_py = 0;
    bbox = text_elem.getBBox();
    var box = document.createElementNS(document.rootElement.namespaceURI,'rect');
    box.setAttribute('x', bbox.x - offset_px);
    box.setAttribute('y', bbox.y - offset_py);
    box.setAttribute('width', bbox.width + offset_px * 2);
    box.setAttribute('height', bbox.height + offset_py * 2);
    box.setAttribute('style','fill: white;'+'stroke: black;'+'stroke-width: 1px;');
    text_elem.insertBefore(box,text_elem.childNodes[0]);

    var svg = text_elem.parentNode;
    svg.appendChild(text_elem);
}

for (var i=1; i < 1; i++)
{
draw_bbox("Mouseover" + i);
}
]]> 
</script>
</svg>
