<svg version="1.1"
xmlns="http://www.w3.org/2000/svg"
xmlns:xlink="http://www.w3.org/1999/xlink"
width="5392" height="100" viewBox = "0 0 5392 100"
onclick="mouseclick(evt)">

<script type="text/ecmascript">

<![CDATA[
    function mouseover(evt, target) { 
    var gv = document.getElementById("globalVariable");
    var previoustarget = gv.firstChild.nodeValue;
    if (previoustarget != "none") 
    {
        	document.getElementById(gv.firstChild.nodeValue).setAttributeNS(null, "visibility", "hidden");
    }
    document.getElementById(target).setAttributeNS(null, "visibility", "visible");
    gv.firstChild.nodeValue = target;
        }

    function mouseclick(evt) { 
    var gv = document.getElementById("globalVariable");
    var previoustarget = gv.firstChild.nodeValue;
    if (previoustarget != "none") {
        	document.getElementById(gv.firstChild.nodeValue).setAttributeNS(null, "visibility", "hidden");
        }
    }
]]>
  </script>
<style type="text/css" >

<![CDATA[
    rect.anc_exon {
              stroke-width:3;
                  }

    rect.non_anc_exon {
              stroke: black; stroke-width:3; stroke-dasharray: 5,5;
                    }

    text {
              font-size: 18px;
              font-family: Courier New;
          }
                    ]]>
</style>

<defs>
    <text x="150" y="40" id="globalVariable">none</text>
</defs>

  <rect class="anc_exon" x="0" y="35.0" width="0" height="30" style="fill:#87bcbc;fill-opacity:1.00" />
  <rect class="anc_exon" x="0" y="35.0" width="49.6" height="30" style="fill:#87bcbc;fill-opacity:1.00" />
  <line x1="49.6" y1="50.0" x2="89.0" y2="50.0" style="stroke:#999; stroke-width:3;" />
  <rect class="anc_exon" x="89" y="35.0" width="477" height="30" style="fill:#87bcbc;fill-opacity:1.00" />
  <line x1="566" y1="50.0" x2="606" y2="50.0" style="stroke:#999; stroke-width:3;" />
  <rect class="anc_exon" x="606" y="35.0" width="243" height="30" style="fill:#87bcbc;fill-opacity:1.00" />
  <line x1="849" y1="50.0" x2="889" y2="50.0" style="stroke:#999; stroke-width:3;" />
  <rect class="anc_exon" x="889" y="35.0" width="105" height="30" style="fill:#87bcbc;fill-opacity:1.00" />
  <line x1="994" y1="50.0" x2="1034" y2="50.0" style="stroke:#999; stroke-width:3;" />
  <rect class="anc_exon" x="1034" y="35.0" width="91" height="30" style="fill:#87bcbc;fill-opacity:1.00" />
  <line x1="1125" y1="50.0" x2="1165" y2="50.0" style="stroke:#999; stroke-width:3;" />
  <rect class="anc_exon" x="1165" y="35.0" width="64" height="30" style="fill:#87bcbc;fill-opacity:1.00" />
  <line x1="1229" y1="50.0" x2="1269" y2="50.0" style="stroke:#999; stroke-width:3;" />
  <rect class="anc_exon" x="1269" y="35.0" width="143" height="30" style="fill:#87bcbc;fill-opacity:1.00" />
  <line x1="1412" y1="50.0" x2="1432" y2="50.0" style="stroke:#999; stroke-width:3;" />
  <line x1="1432" y1="50.0" x2="1432" y2="50.0" style="stroke:#999; stroke-width:3;" />
  <line x1="1432" y1="50.0" x2="1432" y2="50.0" style="stroke:#999; stroke-width:3;" />
  <line x1="1432" y1="50.0" x2="1452" y2="50.0" style="stroke:#999; stroke-width:3;" />
  <rect class="anc_exon" x="1452" y="35.0" width="188" height="30" style="fill:#87bcbc;fill-opacity:1.00" />
  <line x1="1640" y1="50.0" x2="1680" y2="50.0" style="stroke:#999; stroke-width:3;" />
  <rect class="anc_exon" x="1680" y="35.0" width="125" height="30" style="fill:#87bcbc;fill-opacity:1.00" />
  <line x1="1805" y1="50.0" x2="1845" y2="50.0" style="stroke:#999; stroke-width:3;" />
  <rect class="anc_exon" x="1845" y="35.0" width="83" height="30" style="fill:#87bcbc;fill-opacity:1.00" />
  <line x1="1928" y1="50.0" x2="1968" y2="50.0" style="stroke:#999; stroke-width:3;" />
  <rect class="anc_exon" x="1968" y="35.0" width="155" height="30" style="fill:#87bcbc;fill-opacity:1.00" />
  <line x1="2123" y1="50.0" x2="2163" y2="50.0" style="stroke:#999; stroke-width:3;" />
  <rect class="anc_exon" x="2163" y="35.0" width="215" height="30" style="fill:#87bcbc;fill-opacity:1.00" />
  <line x1="2378" y1="50.0" x2="2418" y2="50.0" style="stroke:#999; stroke-width:3;" />
  <rect class="anc_exon" x="2418" y="35.0" width="114" height="30" style="fill:#87bcbc;fill-opacity:1.00" />
  <line x1="2532" y1="50.0" x2="2552" y2="50.0" style="stroke:#999; stroke-width:3;" />
  <line x1="2552" y1="50.0" x2="2552" y2="50.0" style="stroke:#999; stroke-width:3;" />
  <line x1="2552" y1="50.0" x2="2552" y2="50.0" style="stroke:#999; stroke-width:3;" />
  <line x1="2552" y1="50.0" x2="2572" y2="50.0" style="stroke:#999; stroke-width:3;" />
  <rect class="anc_exon" x="2572" y="35.0" width="81" height="30" style="fill:#87bcbc;fill-opacity:1.00" />
  <line x1="2653" y1="50.0" x2="2693" y2="50.0" style="stroke:#999; stroke-width:3;" />
  <rect class="anc_exon" x="2693" y="35.0" width="48" height="30" style="fill:#87bcbc;fill-opacity:1.00" />
  <line x1="2741" y1="50.0" x2="2781" y2="50.0" style="stroke:#999; stroke-width:3;" />
  <rect class="anc_exon" x="2781" y="35.0" width="82" height="30" style="fill:#87bcbc;fill-opacity:1.00" />
  <line x1="2863" y1="50.0" x2="2903" y2="50.0" style="stroke:#999; stroke-width:3;" />
  <rect class="anc_exon" x="2903" y="35.0" width="149" height="30" style="fill:#87bcbc;fill-opacity:1.00" />
  <line x1="3052" y1="50.0" x2="3092" y2="50.0" style="stroke:#999; stroke-width:3;" />
  <rect class="anc_exon" x="3092" y="35.0" width="120" height="30" style="fill:#87bcbc;fill-opacity:1.00" />
  <line x1="3212" y1="50.0" x2="3252" y2="50.0" style="stroke:#999; stroke-width:3;" />
  <rect class="anc_exon" x="3252" y="35.0" width="165" height="30" style="fill:#87bcbc;fill-opacity:1.00" />
  <line x1="3417" y1="50.0" x2="3457" y2="50.0" style="stroke:#999; stroke-width:3;" />
  <rect class="anc_exon" x="3457" y="35.0" width="43" height="30" style="fill:#87bcbc;fill-opacity:1.00" />
  <line x1="3500" y1="50.0" x2="3540" y2="50.0" style="stroke:#999; stroke-width:3;" />
  <rect class="anc_exon" x="3540" y="35.0" width="80" height="30" style="fill:#87bcbc;fill-opacity:1.00" />
  <line x1="3620" y1="50.0" x2="3660" y2="50.0" style="stroke:#999; stroke-width:3;" />
  <rect class="anc_exon" x="3660" y="35.0" width="57" height="30" style="fill:#87bcbc;fill-opacity:1.00" />
  <line x1="3717" y1="50.0" x2="3757" y2="50.0" style="stroke:#999; stroke-width:3;" />
  <rect class="anc_exon" x="3757" y="35.0" width="127" height="30" style="fill:#87bcbc;fill-opacity:1.00" />
  <line x1="3884" y1="50.0" x2="3904" y2="50.0" style="stroke:#999; stroke-width:3;" />
  <line x1="3904" y1="50.0" x2="3904" y2="50.0" style="stroke:#999; stroke-width:3;" />
  <line x1="3904" y1="50.0" x2="3904" y2="50.0" style="stroke:#999; stroke-width:3;" />
  <line x1="3904" y1="50.0" x2="3924" y2="50.0" style="stroke:#999; stroke-width:3;" />
  <rect class="anc_exon" x="3924" y="35.0" width="87" height="30" style="fill:#87bcbc;fill-opacity:1.00" />
  <line x1="4011" y1="50.0" x2="4051" y2="50.0" style="stroke:#999; stroke-width:3;" />
  <rect class="anc_exon" x="4051" y="35.0" width="50" height="30" style="fill:#87bcbc;fill-opacity:1.00" />
  <line x1="4101" y1="50.0" x2="4141" y2="50.0" style="stroke:#999; stroke-width:3;" />
  <rect class="anc_exon" x="4141" y="35.0" width="96" height="30" style="fill:#87bcbc;fill-opacity:1.00" />
  <line x1="4237" y1="50.0" x2="4277" y2="50.0" style="stroke:#999; stroke-width:3;" />
  <rect class="anc_exon" x="4277" y="35.0" width="84" height="30" style="fill:#87bcbc;fill-opacity:1.00" />
  <line x1="4361" y1="50.0" x2="4401" y2="50.0" style="stroke:#999; stroke-width:3;" />
  <rect class="anc_exon" x="4401" y="35.0" width="88" height="30" style="fill:#87bcbc;fill-opacity:1.00" />
  <line x1="4489" y1="50.0" x2="4529" y2="50.0" style="stroke:#999; stroke-width:3;" />
  <rect class="anc_exon" x="4529" y="35.0" width="86" height="30" style="fill:#87bcbc;fill-opacity:1.00" />
  <line x1="4615" y1="50.0" x2="4655" y2="50.0" style="stroke:#999; stroke-width:3;" />
  <rect class="anc_exon" x="4655" y="35.0" width="132" height="30" style="fill:#87bcbc;fill-opacity:1.00" />
  <line x1="4787" y1="50.0" x2="4827" y2="50.0" style="stroke:#999; stroke-width:3;" />
  <rect class="anc_exon" x="4827" y="35.0" width="58" height="30" style="fill:#87bcbc;fill-opacity:1.00" />
  <line x1="4885" y1="50.0" x2="4925" y2="50.0" style="stroke:#999; stroke-width:3;" />
  <rect class="anc_exon" x="4925" y="35.0" width="85" height="30" style="fill:#87bcbc;fill-opacity:1.00" />
  <line x1="5010" y1="50.0" x2="5050" y2="50.0" style="stroke:#999; stroke-width:3;" />
  <rect class="anc_exon" x="5050" y="35.0" width="7" height="30" style="fill:#87bcbc;fill-opacity:1.00" />
  <line x1="5057" y1="50.0" x2="5097" y2="50.0" style="stroke:#999; stroke-width:3;" />
  <rect class="anc_exon" x="5097" y="35.0" width="56" height="30" style="fill:#87bcbc;fill-opacity:1.00" />
  <line x1="5153" y1="50.0" x2="5193" y2="50.0" style="stroke:#999; stroke-width:3;" />
  <rect class="anc_exon" x="5193" y="35.0" width="37" height="30" style="fill:#87bcbc;fill-opacity:1.00" />
  <line x1="5230" y1="50.0" x2="5270" y2="50.0" style="stroke:#999; stroke-width:3;" />
  <rect class="anc_exon" x="5270" y="35.0" width="86" height="30" style="fill:#87bcbc;fill-opacity:1.00" />
  <rect class="anc_exon" x="5356" y="35.0" width="0" height="30" style="fill:#87bcbc;fill-opacity:1.00" />
  <text style="" >
<tspan x="0" y="83.0" style="font-size:18px;" >SP XM_031941475_1.1</tspan>  </text>



<script type="text/ecmascript">
<![CDATA[
function draw_bbox(text_id)
{
    var text_elem = document.getElementById(text_id);
    var offset_px = 2;
    var offset_py = 0;
    bbox = text_elem.getBBox();
    var box = document.createElementNS(document.rootElement.namespaceURI,'rect');
    box.setAttribute('x', bbox.x - offset_px);
    box.setAttribute('y', bbox.y - offset_py);
    box.setAttribute('width', bbox.width + offset_px * 2);
    box.setAttribute('height', bbox.height + offset_py * 2);
    box.setAttribute('style','fill: white;'+'stroke: black;'+'stroke-width: 1px;');
    text_elem.insertBefore(box,text_elem.childNodes[0]);

    var svg = text_elem.parentNode;
    svg.appendChild(text_elem);
}

for (var i=1; i < 1; i++)
{
draw_bbox("Mouseover" + i);
}
]]> 
</script>
</svg>
