<svg version="1.1"
xmlns="http://www.w3.org/2000/svg"
xmlns:xlink="http://www.w3.org/1999/xlink"
width="2922" height="100" viewBox = "0 0 2922 100"
onclick="mouseclick(evt)">

<script type="text/ecmascript">

<![CDATA[
    function mouseover(evt, target) { 
    var gv = document.getElementById("globalVariable");
    var previoustarget = gv.firstChild.nodeValue;
    if (previoustarget != "none") 
    {
        	document.getElementById(gv.firstChild.nodeValue).setAttributeNS(null, "visibility", "hidden");
    }
    document.getElementById(target).setAttributeNS(null, "visibility", "visible");
    gv.firstChild.nodeValue = target;
        }

    function mouseclick(evt) { 
    var gv = document.getElementById("globalVariable");
    var previoustarget = gv.firstChild.nodeValue;
    if (previoustarget != "none") {
        	document.getElementById(gv.firstChild.nodeValue).setAttributeNS(null, "visibility", "hidden");
        }
    }
]]>
  </script>
<style type="text/css" >

<![CDATA[
    rect.anc_exon {
              stroke-width:3;
                  }

    rect.non_anc_exon {
              stroke: black; stroke-width:3; stroke-dasharray: 5,5;
                    }

    text {
              font-size: 18px;
              font-family: Courier New;
          }
                    ]]>
</style>

<defs>
    <text x="150" y="40" id="globalVariable">none</text>
</defs>

  <rect class="anc_exon" x="0" y="35.0" width="0" height="30" style="fill:#87bcbc;fill-opacity:1.00" />
  <rect class="anc_exon" x="0" y="35.0" width="99.2" height="30" style="fill:#87bcbc;fill-opacity:1.00" />
  <line x1="99.2" y1="50.0" x2="139.0" y2="50.0" style="stroke:#999; stroke-width:3;" />
  <rect class="anc_exon" x="139" y="35.0" width="104" height="30" style="fill:#87bcbc;fill-opacity:1.00" />
  <line x1="243" y1="50.0" x2="263" y2="50.0" style="stroke:#999; stroke-width:3;" />
  <line x1="263" y1="50.0" x2="263" y2="50.0" style="stroke:#999; stroke-width:3;" />
  <line x1="263" y1="50.0" x2="263" y2="50.0" style="stroke:#999; stroke-width:3;" />
  <line x1="263" y1="50.0" x2="283" y2="50.0" style="stroke:#999; stroke-width:3;" />
  <rect class="anc_exon" x="283" y="35.0" width="128" height="30" style="fill:#87bcbc;fill-opacity:1.00" />
  <line x1="411" y1="50.0" x2="431" y2="50.0" style="stroke:#999; stroke-width:3;" />
  <line x1="431" y1="50.0" x2="431" y2="50.0" style="stroke:#999; stroke-width:3;" />
  <line x1="431" y1="50.0" x2="431" y2="50.0" style="stroke:#999; stroke-width:3;" />
  <line x1="431" y1="50.0" x2="451" y2="50.0" style="stroke:#999; stroke-width:3;" />
  <rect class="anc_exon" x="451" y="35.0" width="16" height="30" style="fill:#87bcbc;fill-opacity:1.00" />
  <line x1="467" y1="50.0" x2="507" y2="50.0" style="stroke:#999; stroke-width:3;" />
  <rect class="anc_exon" x="507" y="35.0" width="150" height="30" style="fill:#87bcbc;fill-opacity:1.00" />
  <line x1="657" y1="50.0" x2="677" y2="50.0" style="stroke:#999; stroke-width:3;" />
  <line x1="677" y1="50.0" x2="677" y2="50.0" style="stroke:#999; stroke-width:3;" />
  <line x1="677" y1="50.0" x2="677" y2="50.0" style="stroke:#999; stroke-width:3;" />
  <line x1="677" y1="50.0" x2="697" y2="50.0" style="stroke:#999; stroke-width:3;" />
  <rect class="anc_exon" x="697" y="35.0" width="182" height="30" style="fill:#87bcbc;fill-opacity:1.00" />
  <line x1="879" y1="50.0" x2="919" y2="50.0" style="stroke:#999; stroke-width:3;" />
  <rect class="anc_exon" x="919" y="35.0" width="106" height="30" style="fill:#87bcbc;fill-opacity:1.00" />
  <line x1="1025" y1="50.0" x2="1065" y2="50.0" style="stroke:#999; stroke-width:3;" />
  <rect class="anc_exon" x="1065" y="35.0" width="88" height="30" style="fill:#87bcbc;fill-opacity:1.00" />
  <line x1="1153" y1="50.0" x2="1193" y2="50.0" style="stroke:#999; stroke-width:3;" />
  <rect class="anc_exon" x="1193" y="35.0" width="43" height="30" style="fill:#87bcbc;fill-opacity:1.00" />
  <line x1="1236" y1="50.0" x2="1256" y2="50.0" style="stroke:#999; stroke-width:3;" />
  <line x1="1256" y1="50.0" x2="1256" y2="50.0" style="stroke:#999; stroke-width:3;" />
  <line x1="1256" y1="50.0" x2="1256" y2="50.0" style="stroke:#999; stroke-width:3;" />
  <line x1="1256" y1="50.0" x2="1276" y2="50.0" style="stroke:#999; stroke-width:3;" />
  <rect class="anc_exon" x="1276" y="35.0" width="120" height="30" style="fill:#87bcbc;fill-opacity:1.00" />
  <line x1="1396" y1="50.0" x2="1416" y2="50.0" style="stroke:#999; stroke-width:3;" />
  <line x1="1416" y1="50.0" x2="1416" y2="50.0" style="stroke:#999; stroke-width:3;" />
  <line x1="1416" y1="50.0" x2="1416" y2="50.0" style="stroke:#999; stroke-width:3;" />
  <line x1="1416" y1="50.0" x2="1436" y2="50.0" style="stroke:#999; stroke-width:3;" />
  <rect class="anc_exon" x="1436" y="35.0" width="84" height="30" style="fill:#87bcbc;fill-opacity:1.00" />
  <line x1="1520" y1="50.0" x2="1540" y2="50.0" style="stroke:#999; stroke-width:3;" />
  <line x1="1540" y1="50.0" x2="1540" y2="50.0" style="stroke:#999; stroke-width:3;" />
  <line x1="1540" y1="50.0" x2="1540" y2="50.0" style="stroke:#999; stroke-width:3;" />
  <line x1="1540" y1="50.0" x2="1560" y2="50.0" style="stroke:#999; stroke-width:3;" />
  <rect class="anc_exon" x="1560" y="35.0" width="131" height="30" style="fill:#87bcbc;fill-opacity:1.00" />
  <line x1="1691" y1="50.0" x2="1731" y2="50.0" style="stroke:#999; stroke-width:3;" />
  <rect class="anc_exon" x="1731" y="35.0" width="86" height="30" style="fill:#87bcbc;fill-opacity:1.00" />
  <line x1="1817" y1="50.0" x2="1857" y2="50.0" style="stroke:#999; stroke-width:3;" />
  <rect class="anc_exon" x="1857" y="35.0" width="61" height="30" style="fill:#87bcbc;fill-opacity:1.00" />
  <line x1="1918" y1="50.0" x2="1958" y2="50.0" style="stroke:#999; stroke-width:3;" />
  <rect class="anc_exon" x="1958" y="35.0" width="183" height="30" style="fill:#87bcbc;fill-opacity:1.00" />
  <line x1="2141" y1="50.0" x2="2161" y2="50.0" style="stroke:#999; stroke-width:3;" />
  <line x1="2161" y1="50.0" x2="2161" y2="50.0" style="stroke:#999; stroke-width:3;" />
  <line x1="2161" y1="50.0" x2="2161" y2="50.0" style="stroke:#999; stroke-width:3;" />
  <line x1="2161" y1="50.0" x2="2181" y2="50.0" style="stroke:#999; stroke-width:3;" />
  <rect class="anc_exon" x="2181" y="35.0" width="147" height="30" style="fill:#87bcbc;fill-opacity:1.00" />
  <line x1="2328" y1="50.0" x2="2348" y2="50.0" style="stroke:#999; stroke-width:3;" />
  <line x1="2348" y1="50.0" x2="2348" y2="50.0" style="stroke:#999; stroke-width:3;" />
  <line x1="2348" y1="50.0" x2="2348" y2="50.0" style="stroke:#999; stroke-width:3;" />
  <line x1="2348" y1="50.0" x2="2368" y2="50.0" style="stroke:#999; stroke-width:3;" />
  <rect class="anc_exon" x="2368" y="35.0" width="160" height="30" style="fill:#87bcbc;fill-opacity:1.00" />
  <line x1="2528" y1="50.0" x2="2568" y2="50.0" style="stroke:#999; stroke-width:3;" />
  <rect class="anc_exon" x="2568" y="35.0" width="156" height="30" style="fill:#87bcbc;fill-opacity:1.00" />
  <line x1="2724" y1="50.0" x2="2744" y2="50.0" style="stroke:#999; stroke-width:3;" />
  <line x1="2744" y1="50.0" x2="2744" y2="50.0" style="stroke:#999; stroke-width:3;" />
  <line x1="2744" y1="50.0" x2="2744" y2="50.0" style="stroke:#999; stroke-width:3;" />
  <line x1="2744" y1="50.0" x2="2764" y2="50.0" style="stroke:#999; stroke-width:3;" />
  <rect class="anc_exon" x="2764" y="35.0" width="122" height="30" style="fill:#87bcbc;fill-opacity:1.00" />
  <rect class="anc_exon" x="2886" y="35.0" width="0" height="30" style="fill:#87bcbc;fill-opacity:1.00" />
  <text style="" >
<tspan x="0" y="83.0" style="font-size:18px;" >SP XM_031943414_1.1</tspan>  </text>



<script type="text/ecmascript">
<![CDATA[
function draw_bbox(text_id)
{
    var text_elem = document.getElementById(text_id);
    var offset_px = 2;
    var offset_py = 0;
    bbox = text_elem.getBBox();
    var box = document.createElementNS(document.rootElement.namespaceURI,'rect');
    box.setAttribute('x', bbox.x - offset_px);
    box.setAttribute('y', bbox.y - offset_py);
    box.setAttribute('width', bbox.width + offset_px * 2);
    box.setAttribute('height', bbox.height + offset_py * 2);
    box.setAttribute('style','fill: white;'+'stroke: black;'+'stroke-width: 1px;');
    text_elem.insertBefore(box,text_elem.childNodes[0]);

    var svg = text_elem.parentNode;
    svg.appendChild(text_elem);
}

for (var i=1; i < 1; i++)
{
draw_bbox("Mouseover" + i);
}
]]> 
</script>
</svg>
