<svg version="1.1"
xmlns="http://www.w3.org/2000/svg"
xmlns:xlink="http://www.w3.org/1999/xlink"
width="2721" height="128.0" viewBox = "0 -28.0 2721 128.0"
onclick="mouseclick(evt)">

<script type="text/ecmascript">

<![CDATA[
    function mouseover(evt, target) { 
    var gv = document.getElementById("globalVariable");
    var previoustarget = gv.firstChild.nodeValue;
    if (previoustarget != "none") 
    {
        	document.getElementById(gv.firstChild.nodeValue).setAttributeNS(null, "visibility", "hidden");
    }
    document.getElementById(target).setAttributeNS(null, "visibility", "visible");
    gv.firstChild.nodeValue = target;
        }

    function mouseclick(evt) { 
    var gv = document.getElementById("globalVariable");
    var previoustarget = gv.firstChild.nodeValue;
    if (previoustarget != "none") {
        	document.getElementById(gv.firstChild.nodeValue).setAttributeNS(null, "visibility", "hidden");
        }
    }
]]>
  </script>
<style type="text/css" >

<![CDATA[
    rect.anc_exon {
              stroke-width:3;
                  }

    rect.non_anc_exon {
              stroke: black; stroke-width:3; stroke-dasharray: 5,5;
                    }

    text {
              font-size: 18px;
              font-family: Courier New;
          }
                    ]]>
</style>

<defs>
    <text x="150" y="40" id="globalVariable">none</text>
</defs>

  <rect class="anc_exon" x="0" y="35.0" width="0" height="30" style="fill:#87bcbc;fill-opacity:1.00" />
  <rect class="anc_exon" x="0" y="35.0" width="82.4" height="30" style="fill:#87bcbc;fill-opacity:1.00" />
  <polygon points="68.0,35.0 70.5,25.0 65.5,25.0" style="fill:#121212; stroke-opacity:1; fill-opacity:1"/>
  <text style="" text-anchor="middle">
<tspan x="68.0" y="16.0" style="font-size:18px;fill:#121212;" >+1</tspan>  </text>
  <line x1="82.4" y1="50.0" x2="122.0" y2="50.0" style="stroke:#999; stroke-width:3;" />
  <rect class="anc_exon" x="122" y="35.0" width="34" height="30" style="fill:#87bcbc;fill-opacity:1.00" />
  <line x1="127.6" y1="35.0" x2="127.6" y2="65.0" style="stroke:#878787;stroke-width:3;"/>
  <polygon points="134.0,35.0 136.5,25.0 131.5,25.0" style="fill:#121212; stroke-opacity:1; fill-opacity:1"/>
  <text style="" text-anchor="middle">
<tspan x="130.4" y="16.0" style="font-size:18px;fill:#878787;" >TAA</tspan><tspan x="130.4" y="-2.0" style="font-size:18px;fill:#121212;" >+1</tspan>  </text>
  <line x1="156" y1="50.0" x2="176" y2="50.0" style="stroke:#999; stroke-width:3;" />
  <line x1="176" y1="50.0" x2="176" y2="50.0" style="stroke:#999; stroke-width:3;" />
  <line x1="176" y1="50.0" x2="176" y2="50.0" style="stroke:#999; stroke-width:3;" />
  <line x1="176" y1="50.0" x2="196" y2="50.0" style="stroke:#999; stroke-width:3;" />
  <rect class="anc_exon" x="196" y="35.0" width="88" height="30" style="fill:#87bcbc;fill-opacity:1.00" />
  <line x1="284" y1="50.0" x2="304" y2="50.0" style="stroke:#999; stroke-width:3;" />
  <line x1="304" y1="50.0" x2="304" y2="50.0" style="stroke:#999; stroke-width:3;" />
  <line x1="304" y1="50.0" x2="304" y2="50.0" style="stroke:#999; stroke-width:3;" />
  <line x1="304" y1="50.0" x2="324" y2="50.0" style="stroke:#999; stroke-width:3;" />
  <rect class="anc_exon" x="324" y="35.0" width="167" height="30" style="fill:#87bcbc;fill-opacity:1.00" />
  <line x1="491" y1="50.0" x2="511" y2="50.0" style="stroke:#999; stroke-width:3;" />
  <line x1="511" y1="50.0" x2="511" y2="50.0" style="stroke:#999; stroke-width:3;" />
  <line x1="511" y1="50.0" x2="511" y2="50.0" style="stroke:#999; stroke-width:3;" />
  <line x1="511" y1="50.0" x2="531" y2="50.0" style="stroke:#999; stroke-width:3;" />
  <rect class="anc_exon" x="531" y="35.0" width="122" height="30" style="fill:#87bcbc;fill-opacity:1.00" />
  <line x1="653" y1="50.0" x2="673" y2="50.0" style="stroke:#999; stroke-width:3;" />
  <line x1="673" y1="50.0" x2="673" y2="50.0" style="stroke:#999; stroke-width:3;" />
  <line x1="673" y1="50.0" x2="673" y2="50.0" style="stroke:#999; stroke-width:3;" />
  <line x1="673" y1="50.0" x2="693" y2="50.0" style="stroke:#999; stroke-width:3;" />
  <rect class="anc_exon" x="693" y="35.0" width="1798" height="30" style="fill:#87bcbc;fill-opacity:1.00" />
  <line x1="2491" y1="50.0" x2="2511" y2="50.0" style="stroke:#999; stroke-width:3;" />
  <line x1="2511" y1="50.0" x2="2511" y2="50.0" style="stroke:#999; stroke-width:3;" />
  <line x1="2511" y1="50.0" x2="2511" y2="50.0" style="stroke:#999; stroke-width:3;" />
  <line x1="2511" y1="50.0" x2="2531" y2="50.0" style="stroke:#999; stroke-width:3;" />
  <rect class="anc_exon" x="2531" y="35.0" width="154" height="30" style="fill:#87bcbc;fill-opacity:1.00" />
  <rect class="anc_exon" x="2685" y="35.0" width="0" height="30" style="fill:#87bcbc;fill-opacity:1.00" />
  <text style="" >
<tspan x="0" y="83.0" style="font-size:18px;" >SP XM_031943403_1.1</tspan>  </text>



<script type="text/ecmascript">
<![CDATA[
function draw_bbox(text_id)
{
    var text_elem = document.getElementById(text_id);
    var offset_px = 2;
    var offset_py = 0;
    bbox = text_elem.getBBox();
    var box = document.createElementNS(document.rootElement.namespaceURI,'rect');
    box.setAttribute('x', bbox.x - offset_px);
    box.setAttribute('y', bbox.y - offset_py);
    box.setAttribute('width', bbox.width + offset_px * 2);
    box.setAttribute('height', bbox.height + offset_py * 2);
    box.setAttribute('style','fill: white;'+'stroke: black;'+'stroke-width: 1px;');
    text_elem.insertBefore(box,text_elem.childNodes[0]);

    var svg = text_elem.parentNode;
    svg.appendChild(text_elem);
}

for (var i=1; i < 1; i++)
{
draw_bbox("Mouseover" + i);
}
]]> 
</script>
</svg>
