<svg version="1.1"
xmlns="http://www.w3.org/2000/svg"
xmlns:xlink="http://www.w3.org/1999/xlink"
width="5389" height="100" viewBox = "0 0 5389 100"
onclick="mouseclick(evt)">

<script type="text/ecmascript">

<![CDATA[
    function mouseover(evt, target) { 
    var gv = document.getElementById("globalVariable");
    var previoustarget = gv.firstChild.nodeValue;
    if (previoustarget != "none") 
    {
        	document.getElementById(gv.firstChild.nodeValue).setAttributeNS(null, "visibility", "hidden");
    }
    document.getElementById(target).setAttributeNS(null, "visibility", "visible");
    gv.firstChild.nodeValue = target;
        }

    function mouseclick(evt) { 
    var gv = document.getElementById("globalVariable");
    var previoustarget = gv.firstChild.nodeValue;
    if (previoustarget != "none") {
        	document.getElementById(gv.firstChild.nodeValue).setAttributeNS(null, "visibility", "hidden");
        }
    }
]]>
  </script>
<style type="text/css" >

<![CDATA[
    rect.anc_exon {
              stroke-width:3;
                  }

    rect.non_anc_exon {
              stroke: black; stroke-width:3; stroke-dasharray: 5,5;
                    }

    text {
              font-size: 18px;
              font-family: Courier New;
          }
                    ]]>
</style>

<defs>
    <text x="150" y="40" id="globalVariable">none</text>
</defs>

  <rect class="anc_exon" x="0" y="35.0" width="0" height="30" style="fill:#87bcbc;fill-opacity:1.00" />
  <rect class="anc_exon" x="0" y="35.0" width="859.2" height="30" style="fill:#87bcbc;fill-opacity:1.00" />
  <line x1="859.2" y1="50.0" x2="878.2" y2="50.0" style="stroke:#999; stroke-width:3;" />
  <line x1="878.2" y1="50.0" x2="878.2" y2="50.0" style="stroke:#999; stroke-width:3;" />
  <line x1="878.2" y1="50.0" x2="878.2" y2="50.0" style="stroke:#999; stroke-width:3;" />
  <line x1="878.2" y1="50.0" x2="899.0" y2="50.0" style="stroke:#999; stroke-width:3;" />
  <rect class="anc_exon" x="899" y="35.0" width="80" height="30" style="fill:#87bcbc;fill-opacity:1.00" />
  <line x1="979" y1="50.0" x2="999" y2="50.0" style="stroke:#999; stroke-width:3;" />
  <line x1="999" y1="50.0" x2="999" y2="50.0" style="stroke:#999; stroke-width:3;" />
  <line x1="999" y1="50.0" x2="999" y2="50.0" style="stroke:#999; stroke-width:3;" />
  <line x1="999" y1="50.0" x2="1019" y2="50.0" style="stroke:#999; stroke-width:3;" />
  <rect class="anc_exon" x="1019" y="35.0" width="126" height="30" style="fill:#87bcbc;fill-opacity:1.00" />
  <line x1="1145" y1="50.0" x2="1165" y2="50.0" style="stroke:#999; stroke-width:3;" />
  <line x1="1165" y1="50.0" x2="1165" y2="50.0" style="stroke:#999; stroke-width:3;" />
  <line x1="1165" y1="50.0" x2="1165" y2="50.0" style="stroke:#999; stroke-width:3;" />
  <line x1="1165" y1="50.0" x2="1185" y2="50.0" style="stroke:#999; stroke-width:3;" />
  <rect class="anc_exon" x="1185" y="35.0" width="96" height="30" style="fill:#87bcbc;fill-opacity:1.00" />
  <line x1="1281" y1="50.0" x2="1321" y2="50.0" style="stroke:#999; stroke-width:3;" />
  <rect class="anc_exon" x="1321" y="35.0" width="89" height="30" style="fill:#87bcbc;fill-opacity:1.00" />
  <line x1="1410" y1="50.0" x2="1430" y2="50.0" style="stroke:#999; stroke-width:3;" />
  <line x1="1430" y1="50.0" x2="1430" y2="50.0" style="stroke:#999; stroke-width:3;" />
  <line x1="1430" y1="50.0" x2="1430" y2="50.0" style="stroke:#999; stroke-width:3;" />
  <line x1="1430" y1="50.0" x2="1450" y2="50.0" style="stroke:#999; stroke-width:3;" />
  <rect class="anc_exon" x="1450" y="35.0" width="64" height="30" style="fill:#87bcbc;fill-opacity:1.00" />
  <line x1="1514" y1="50.0" x2="1554" y2="50.0" style="stroke:#999; stroke-width:3;" />
  <rect class="anc_exon" x="1554" y="35.0" width="51" height="30" style="fill:#87bcbc;fill-opacity:1.00" />
  <line x1="1605" y1="50.0" x2="1645" y2="50.0" style="stroke:#999; stroke-width:3;" />
  <rect class="anc_exon" x="1645" y="35.0" width="115" height="30" style="fill:#87bcbc;fill-opacity:1.00" />
  <line x1="1760" y1="50.0" x2="1780" y2="50.0" style="stroke:#999; stroke-width:3;" />
  <line x1="1780" y1="50.0" x2="1780" y2="50.0" style="stroke:#999; stroke-width:3;" />
  <line x1="1780" y1="50.0" x2="1780" y2="50.0" style="stroke:#999; stroke-width:3;" />
  <line x1="1780" y1="50.0" x2="1800" y2="50.0" style="stroke:#999; stroke-width:3;" />
  <rect class="anc_exon" x="1800" y="35.0" width="39" height="30" style="fill:#87bcbc;fill-opacity:1.00" />
  <line x1="1839" y1="50.0" x2="1879" y2="50.0" style="stroke:#999; stroke-width:3;" />
  <rect class="anc_exon" x="1879" y="35.0" width="168" height="30" style="fill:#87bcbc;fill-opacity:1.00" />
  <line x1="2047" y1="50.0" x2="2087" y2="50.0" style="stroke:#999; stroke-width:3;" />
  <rect class="anc_exon" x="2087" y="35.0" width="98" height="30" style="fill:#87bcbc;fill-opacity:1.00" />
  <line x1="2185" y1="50.0" x2="2225" y2="50.0" style="stroke:#999; stroke-width:3;" />
  <rect class="anc_exon" x="2225" y="35.0" width="134" height="30" style="fill:#87bcbc;fill-opacity:1.00" />
  <line x1="2359" y1="50.0" x2="2379" y2="50.0" style="stroke:#999; stroke-width:3;" />
  <line x1="2379" y1="50.0" x2="2379" y2="50.0" style="stroke:#999; stroke-width:3;" />
  <line x1="2379" y1="50.0" x2="2379" y2="50.0" style="stroke:#999; stroke-width:3;" />
  <line x1="2379" y1="50.0" x2="2399" y2="50.0" style="stroke:#999; stroke-width:3;" />
  <rect class="anc_exon" x="2399" y="35.0" width="89" height="30" style="fill:#87bcbc;fill-opacity:1.00" />
  <line x1="2488" y1="50.0" x2="2528" y2="50.0" style="stroke:#999; stroke-width:3;" />
  <rect class="anc_exon" x="2528" y="35.0" width="116" height="30" style="fill:#87bcbc;fill-opacity:1.00" />
  <line x1="2644" y1="50.0" x2="2664" y2="50.0" style="stroke:#999; stroke-width:3;" />
  <line x1="2664" y1="50.0" x2="2664" y2="50.0" style="stroke:#999; stroke-width:3;" />
  <line x1="2664" y1="50.0" x2="2664" y2="50.0" style="stroke:#999; stroke-width:3;" />
  <line x1="2664" y1="50.0" x2="2684" y2="50.0" style="stroke:#999; stroke-width:3;" />
  <rect class="anc_exon" x="2684" y="35.0" width="151" height="30" style="fill:#87bcbc;fill-opacity:1.00" />
  <line x1="2835" y1="50.0" x2="2875" y2="50.0" style="stroke:#999; stroke-width:3;" />
  <rect class="anc_exon" x="2875" y="35.0" width="75" height="30" style="fill:#87bcbc;fill-opacity:1.00" />
  <line x1="2950" y1="50.0" x2="2990" y2="50.0" style="stroke:#999; stroke-width:3;" />
  <rect class="anc_exon" x="2990" y="35.0" width="76" height="30" style="fill:#87bcbc;fill-opacity:1.00" />
  <line x1="3066" y1="50.0" x2="3106" y2="50.0" style="stroke:#999; stroke-width:3;" />
  <rect class="anc_exon" x="3106" y="35.0" width="144" height="30" style="fill:#87bcbc;fill-opacity:1.00" />
  <line x1="3250" y1="50.0" x2="3270" y2="50.0" style="stroke:#999; stroke-width:3;" />
  <line x1="3270" y1="50.0" x2="3270" y2="50.0" style="stroke:#999; stroke-width:3;" />
  <line x1="3270" y1="50.0" x2="3270" y2="50.0" style="stroke:#999; stroke-width:3;" />
  <line x1="3270" y1="50.0" x2="3290" y2="50.0" style="stroke:#999; stroke-width:3;" />
  <rect class="anc_exon" x="3290" y="35.0" width="84" height="30" style="fill:#87bcbc;fill-opacity:1.00" />
  <line x1="3374" y1="50.0" x2="3414" y2="50.0" style="stroke:#999; stroke-width:3;" />
  <rect class="anc_exon" x="3414" y="35.0" width="74" height="30" style="fill:#87bcbc;fill-opacity:1.00" />
  <line x1="3488" y1="50.0" x2="3508" y2="50.0" style="stroke:#999; stroke-width:3;" />
  <line x1="3508" y1="50.0" x2="3508" y2="50.0" style="stroke:#999; stroke-width:3;" />
  <line x1="3508" y1="50.0" x2="3508" y2="50.0" style="stroke:#999; stroke-width:3;" />
  <line x1="3508" y1="50.0" x2="3528" y2="50.0" style="stroke:#999; stroke-width:3;" />
  <rect class="anc_exon" x="3528" y="35.0" width="104" height="30" style="fill:#87bcbc;fill-opacity:1.00" />
  <line x1="3632" y1="50.0" x2="3652" y2="50.0" style="stroke:#999; stroke-width:3;" />
  <line x1="3652" y1="50.0" x2="3652" y2="50.0" style="stroke:#999; stroke-width:3;" />
  <line x1="3652" y1="50.0" x2="3652" y2="50.0" style="stroke:#999; stroke-width:3;" />
  <line x1="3652" y1="50.0" x2="3672" y2="50.0" style="stroke:#999; stroke-width:3;" />
  <rect class="anc_exon" x="3672" y="35.0" width="109" height="30" style="fill:#87bcbc;fill-opacity:1.00" />
  <line x1="3781" y1="50.0" x2="3821" y2="50.0" style="stroke:#999; stroke-width:3;" />
  <rect class="anc_exon" x="3821" y="35.0" width="136" height="30" style="fill:#87bcbc;fill-opacity:1.00" />
  <line x1="3957" y1="50.0" x2="3997" y2="50.0" style="stroke:#999; stroke-width:3;" />
  <rect class="anc_exon" x="3997" y="35.0" width="125" height="30" style="fill:#87bcbc;fill-opacity:1.00" />
  <line x1="4122" y1="50.0" x2="4162" y2="50.0" style="stroke:#999; stroke-width:3;" />
  <rect class="anc_exon" x="4162" y="35.0" width="88" height="30" style="fill:#87bcbc;fill-opacity:1.00" />
  <line x1="4250" y1="50.0" x2="4290" y2="50.0" style="stroke:#999; stroke-width:3;" />
  <rect class="anc_exon" x="4290" y="35.0" width="166" height="30" style="fill:#87bcbc;fill-opacity:1.00" />
  <line x1="4456" y1="50.0" x2="4496" y2="50.0" style="stroke:#999; stroke-width:3;" />
  <rect class="anc_exon" x="4496" y="35.0" width="100" height="30" style="fill:#87bcbc;fill-opacity:1.00" />
  <line x1="4596" y1="50.0" x2="4616" y2="50.0" style="stroke:#999; stroke-width:3;" />
  <line x1="4616" y1="50.0" x2="4616" y2="50.0" style="stroke:#999; stroke-width:3;" />
  <line x1="4616" y1="50.0" x2="4616" y2="50.0" style="stroke:#999; stroke-width:3;" />
  <line x1="4616" y1="50.0" x2="4636" y2="50.0" style="stroke:#999; stroke-width:3;" />
  <rect class="anc_exon" x="4636" y="35.0" width="94" height="30" style="fill:#87bcbc;fill-opacity:1.00" />
  <line x1="4730" y1="50.0" x2="4770" y2="50.0" style="stroke:#999; stroke-width:3;" />
  <rect class="anc_exon" x="4770" y="35.0" width="58" height="30" style="fill:#87bcbc;fill-opacity:1.00" />
  <line x1="4828" y1="50.0" x2="4868" y2="50.0" style="stroke:#999; stroke-width:3;" />
  <rect class="anc_exon" x="4868" y="35.0" width="88" height="30" style="fill:#87bcbc;fill-opacity:1.00" />
  <line x1="4956" y1="50.0" x2="4976" y2="50.0" style="stroke:#999; stroke-width:3;" />
  <line x1="4976" y1="50.0" x2="4976" y2="50.0" style="stroke:#999; stroke-width:3;" />
  <line x1="4976" y1="50.0" x2="4976" y2="50.0" style="stroke:#999; stroke-width:3;" />
  <line x1="4976" y1="50.0" x2="4996" y2="50.0" style="stroke:#999; stroke-width:3;" />
  <rect class="anc_exon" x="4996" y="35.0" width="100" height="30" style="fill:#87bcbc;fill-opacity:1.00" />
  <line x1="5096" y1="50.0" x2="5136" y2="50.0" style="stroke:#999; stroke-width:3;" />
  <rect class="anc_exon" x="5136" y="35.0" width="143" height="30" style="fill:#87bcbc;fill-opacity:1.00" />
  <line x1="5279" y1="50.0" x2="5299" y2="50.0" style="stroke:#999; stroke-width:3;" />
  <line x1="5299" y1="50.0" x2="5299" y2="50.0" style="stroke:#999; stroke-width:3;" />
  <line x1="5299" y1="50.0" x2="5299" y2="50.0" style="stroke:#999; stroke-width:3;" />
  <line x1="5299" y1="50.0" x2="5319" y2="50.0" style="stroke:#999; stroke-width:3;" />
  <rect class="anc_exon" x="5319" y="35.0" width="34" height="30" style="fill:#87bcbc;fill-opacity:1.00" />
  <rect class="anc_exon" x="5353" y="35.0" width="0" height="30" style="fill:#87bcbc;fill-opacity:1.00" />
  <text style="" >
<tspan x="0" y="83.0" style="font-size:18px;" >SP XM_031941880_1.1</tspan>  </text>



<script type="text/ecmascript">
<![CDATA[
function draw_bbox(text_id)
{
    var text_elem = document.getElementById(text_id);
    var offset_px = 2;
    var offset_py = 0;
    bbox = text_elem.getBBox();
    var box = document.createElementNS(document.rootElement.namespaceURI,'rect');
    box.setAttribute('x', bbox.x - offset_px);
    box.setAttribute('y', bbox.y - offset_py);
    box.setAttribute('width', bbox.width + offset_px * 2);
    box.setAttribute('height', bbox.height + offset_py * 2);
    box.setAttribute('style','fill: white;'+'stroke: black;'+'stroke-width: 1px;');
    text_elem.insertBefore(box,text_elem.childNodes[0]);

    var svg = text_elem.parentNode;
    svg.appendChild(text_elem);
}

for (var i=1; i < 1; i++)
{
draw_bbox("Mouseover" + i);
}
]]> 
</script>
</svg>
