<svg version="1.1"
xmlns="http://www.w3.org/2000/svg"
xmlns:xlink="http://www.w3.org/1999/xlink"
width="2093" height="100" viewBox = "0 0 2093 100"
onclick="mouseclick(evt)">

<script type="text/ecmascript">

<![CDATA[
    function mouseover(evt, target) { 
    var gv = document.getElementById("globalVariable");
    var previoustarget = gv.firstChild.nodeValue;
    if (previoustarget != "none") 
    {
        	document.getElementById(gv.firstChild.nodeValue).setAttributeNS(null, "visibility", "hidden");
    }
    document.getElementById(target).setAttributeNS(null, "visibility", "visible");
    gv.firstChild.nodeValue = target;
        }

    function mouseclick(evt) { 
    var gv = document.getElementById("globalVariable");
    var previoustarget = gv.firstChild.nodeValue;
    if (previoustarget != "none") {
        	document.getElementById(gv.firstChild.nodeValue).setAttributeNS(null, "visibility", "hidden");
        }
    }
]]>
  </script>
<style type="text/css" >

<![CDATA[
    rect.anc_exon {
              stroke-width:3;
                  }

    rect.non_anc_exon {
              stroke: black; stroke-width:3; stroke-dasharray: 5,5;
                    }

    text {
              font-size: 18px;
              font-family: Courier New;
          }
                    ]]>
</style>

<defs>
    <text x="150" y="40" id="globalVariable">none</text>
</defs>

  <rect class="anc_exon" x="0" y="35.0" width="0" height="30" style="fill:#87bcbc;fill-opacity:1.00" />
  <rect class="anc_exon" x="0" y="35.0" width="79.2" height="30" style="fill:#87bcbc;fill-opacity:1.00" />
  <line x1="79.2" y1="50.0" x2="98.2" y2="50.0" style="stroke:#999; stroke-width:3;" />
  <line x1="98.2" y1="50.0" x2="98.2" y2="50.0" style="stroke:#999; stroke-width:3;" />
  <line x1="98.2" y1="50.0" x2="98.2" y2="50.0" style="stroke:#999; stroke-width:3;" />
  <line x1="98.2" y1="50.0" x2="119.0" y2="50.0" style="stroke:#999; stroke-width:3;" />
  <rect class="anc_exon" x="119" y="35.0" width="58" height="30" style="fill:#87bcbc;fill-opacity:1.00" />
  <line x1="177" y1="50.0" x2="217" y2="50.0" style="stroke:#999; stroke-width:3;" />
  <rect class="anc_exon" x="217" y="35.0" width="36" height="30" style="fill:#87bcbc;fill-opacity:1.00" />
  <line x1="253" y1="50.0" x2="293" y2="50.0" style="stroke:#999; stroke-width:3;" />
  <rect class="anc_exon" x="293" y="35.0" width="60" height="30" style="fill:#87bcbc;fill-opacity:1.00" />
  <line x1="353" y1="50.0" x2="373" y2="50.0" style="stroke:#999; stroke-width:3;" />
  <line x1="373" y1="50.0" x2="373" y2="50.0" style="stroke:#999; stroke-width:3;" />
  <line x1="373" y1="50.0" x2="373" y2="50.0" style="stroke:#999; stroke-width:3;" />
  <line x1="373" y1="50.0" x2="393" y2="50.0" style="stroke:#999; stroke-width:3;" />
  <rect class="anc_exon" x="393" y="35.0" width="60" height="30" style="fill:#87bcbc;fill-opacity:1.00" />
  <line x1="453" y1="50.0" x2="473" y2="50.0" style="stroke:#999; stroke-width:3;" />
  <line x1="473" y1="50.0" x2="473" y2="50.0" style="stroke:#999; stroke-width:3;" />
  <line x1="473" y1="50.0" x2="473" y2="50.0" style="stroke:#999; stroke-width:3;" />
  <line x1="473" y1="50.0" x2="493" y2="50.0" style="stroke:#999; stroke-width:3;" />
  <rect class="anc_exon" x="493" y="35.0" width="51" height="30" style="fill:#87bcbc;fill-opacity:1.00" />
  <line x1="544" y1="50.0" x2="584" y2="50.0" style="stroke:#999; stroke-width:3;" />
  <rect class="anc_exon" x="584" y="35.0" width="37" height="30" style="fill:#87bcbc;fill-opacity:1.00" />
  <line x1="621" y1="50.0" x2="641" y2="50.0" style="stroke:#999; stroke-width:3;" />
  <line x1="641" y1="50.0" x2="641" y2="50.0" style="stroke:#999; stroke-width:3;" />
  <line x1="641" y1="50.0" x2="641" y2="50.0" style="stroke:#999; stroke-width:3;" />
  <line x1="641" y1="50.0" x2="661" y2="50.0" style="stroke:#999; stroke-width:3;" />
  <rect class="anc_exon" x="661" y="35.0" width="88" height="30" style="fill:#87bcbc;fill-opacity:1.00" />
  <line x1="749" y1="50.0" x2="769" y2="50.0" style="stroke:#999; stroke-width:3;" />
  <line x1="769" y1="50.0" x2="769" y2="50.0" style="stroke:#999; stroke-width:3;" />
  <line x1="769" y1="50.0" x2="769" y2="50.0" style="stroke:#999; stroke-width:3;" />
  <line x1="769" y1="50.0" x2="789" y2="50.0" style="stroke:#999; stroke-width:3;" />
  <rect class="anc_exon" x="789" y="35.0" width="58" height="30" style="fill:#87bcbc;fill-opacity:1.00" />
  <line x1="847" y1="50.0" x2="887" y2="50.0" style="stroke:#999; stroke-width:3;" />
  <rect class="anc_exon" x="887" y="35.0" width="31" height="30" style="fill:#87bcbc;fill-opacity:1.00" />
  <line x1="918" y1="50.0" x2="938" y2="50.0" style="stroke:#999; stroke-width:3;" />
  <line x1="938" y1="50.0" x2="938" y2="50.0" style="stroke:#999; stroke-width:3;" />
  <line x1="938" y1="50.0" x2="938" y2="50.0" style="stroke:#999; stroke-width:3;" />
  <line x1="938" y1="50.0" x2="958" y2="50.0" style="stroke:#999; stroke-width:3;" />
  <rect class="anc_exon" x="958" y="35.0" width="90" height="30" style="fill:#87bcbc;fill-opacity:1.00" />
  <line x1="1048" y1="50.0" x2="1068" y2="50.0" style="stroke:#999; stroke-width:3;" />
  <line x1="1068" y1="50.0" x2="1068" y2="50.0" style="stroke:#999; stroke-width:3;" />
  <line x1="1068" y1="50.0" x2="1068" y2="50.0" style="stroke:#999; stroke-width:3;" />
  <line x1="1068" y1="50.0" x2="1088" y2="50.0" style="stroke:#999; stroke-width:3;" />
  <rect class="anc_exon" x="1088" y="35.0" width="60" height="30" style="fill:#87bcbc;fill-opacity:1.00" />
  <line x1="1148" y1="50.0" x2="1168" y2="50.0" style="stroke:#999; stroke-width:3;" />
  <line x1="1168" y1="50.0" x2="1168" y2="50.0" style="stroke:#999; stroke-width:3;" />
  <line x1="1168" y1="50.0" x2="1168" y2="50.0" style="stroke:#999; stroke-width:3;" />
  <line x1="1168" y1="50.0" x2="1188" y2="50.0" style="stroke:#999; stroke-width:3;" />
  <rect class="anc_exon" x="1188" y="35.0" width="50" height="30" style="fill:#87bcbc;fill-opacity:1.00" />
  <line x1="1238" y1="50.0" x2="1258" y2="50.0" style="stroke:#999; stroke-width:3;" />
  <line x1="1258" y1="50.0" x2="1258" y2="50.0" style="stroke:#999; stroke-width:3;" />
  <line x1="1258" y1="50.0" x2="1258" y2="50.0" style="stroke:#999; stroke-width:3;" />
  <line x1="1258" y1="50.0" x2="1278" y2="50.0" style="stroke:#999; stroke-width:3;" />
  <rect class="anc_exon" x="1278" y="35.0" width="68" height="30" style="fill:#87bcbc;fill-opacity:1.00" />
  <line x1="1346" y1="50.0" x2="1366" y2="50.0" style="stroke:#999; stroke-width:3;" />
  <line x1="1366" y1="50.0" x2="1366" y2="50.0" style="stroke:#999; stroke-width:3;" />
  <line x1="1366" y1="50.0" x2="1366" y2="50.0" style="stroke:#999; stroke-width:3;" />
  <line x1="1366" y1="50.0" x2="1386" y2="50.0" style="stroke:#999; stroke-width:3;" />
  <rect class="anc_exon" x="1386" y="35.0" width="36" height="30" style="fill:#87bcbc;fill-opacity:1.00" />
  <line x1="1422" y1="50.0" x2="1442" y2="50.0" style="stroke:#999; stroke-width:3;" />
  <line x1="1442" y1="50.0" x2="1442" y2="50.0" style="stroke:#999; stroke-width:3;" />
  <line x1="1442" y1="50.0" x2="1442" y2="50.0" style="stroke:#999; stroke-width:3;" />
  <line x1="1442" y1="50.0" x2="1462" y2="50.0" style="stroke:#999; stroke-width:3;" />
  <rect class="anc_exon" x="1462" y="35.0" width="26" height="30" style="fill:#87bcbc;fill-opacity:1.00" />
  <line x1="1488" y1="50.0" x2="1508" y2="50.0" style="stroke:#999; stroke-width:3;" />
  <line x1="1508" y1="50.0" x2="1508" y2="50.0" style="stroke:#999; stroke-width:3;" />
  <line x1="1508" y1="50.0" x2="1508" y2="50.0" style="stroke:#999; stroke-width:3;" />
  <line x1="1508" y1="50.0" x2="1528" y2="50.0" style="stroke:#999; stroke-width:3;" />
  <rect class="anc_exon" x="1528" y="35.0" width="88" height="30" style="fill:#87bcbc;fill-opacity:1.00" />
  <line x1="1616" y1="50.0" x2="1636" y2="50.0" style="stroke:#999; stroke-width:3;" />
  <line x1="1636" y1="50.0" x2="1636" y2="50.0" style="stroke:#999; stroke-width:3;" />
  <line x1="1636" y1="50.0" x2="1636" y2="50.0" style="stroke:#999; stroke-width:3;" />
  <line x1="1636" y1="50.0" x2="1656" y2="50.0" style="stroke:#999; stroke-width:3;" />
  <rect class="anc_exon" x="1656" y="35.0" width="73" height="30" style="fill:#87bcbc;fill-opacity:1.00" />
  <line x1="1729" y1="50.0" x2="1749" y2="50.0" style="stroke:#999; stroke-width:3;" />
  <line x1="1749" y1="50.0" x2="1749" y2="50.0" style="stroke:#999; stroke-width:3;" />
  <line x1="1749" y1="50.0" x2="1749" y2="50.0" style="stroke:#999; stroke-width:3;" />
  <line x1="1749" y1="50.0" x2="1769" y2="50.0" style="stroke:#999; stroke-width:3;" />
  <rect class="anc_exon" x="1769" y="35.0" width="92" height="30" style="fill:#87bcbc;fill-opacity:1.00" />
  <line x1="1861" y1="50.0" x2="1881" y2="50.0" style="stroke:#999; stroke-width:3;" />
  <line x1="1881" y1="50.0" x2="1881" y2="50.0" style="stroke:#999; stroke-width:3;" />
  <line x1="1881" y1="50.0" x2="1881" y2="50.0" style="stroke:#999; stroke-width:3;" />
  <line x1="1881" y1="50.0" x2="1901" y2="50.0" style="stroke:#999; stroke-width:3;" />
  <rect class="anc_exon" x="1901" y="35.0" width="56" height="30" style="fill:#87bcbc;fill-opacity:1.00" />
  <line x1="1957" y1="50.0" x2="1997" y2="50.0" style="stroke:#999; stroke-width:3;" />
  <rect class="anc_exon" x="1997" y="35.0" width="60" height="30" style="fill:#87bcbc;fill-opacity:1.00" />
  <rect class="anc_exon" x="2057" y="35.0" width="0" height="30" style="fill:#87bcbc;fill-opacity:1.00" />
  <text style="" >
<tspan x="0" y="83.0" style="font-size:18px;" >SP XM_031943933_1.1</tspan>  </text>



<script type="text/ecmascript">
<![CDATA[
function draw_bbox(text_id)
{
    var text_elem = document.getElementById(text_id);
    var offset_px = 2;
    var offset_py = 0;
    bbox = text_elem.getBBox();
    var box = document.createElementNS(document.rootElement.namespaceURI,'rect');
    box.setAttribute('x', bbox.x - offset_px);
    box.setAttribute('y', bbox.y - offset_py);
    box.setAttribute('width', bbox.width + offset_px * 2);
    box.setAttribute('height', bbox.height + offset_py * 2);
    box.setAttribute('style','fill: white;'+'stroke: black;'+'stroke-width: 1px;');
    text_elem.insertBefore(box,text_elem.childNodes[0]);

    var svg = text_elem.parentNode;
    svg.appendChild(text_elem);
}

for (var i=1; i < 1; i++)
{
draw_bbox("Mouseover" + i);
}
]]> 
</script>
</svg>
