<svg version="1.1"
xmlns="http://www.w3.org/2000/svg"
xmlns:xlink="http://www.w3.org/1999/xlink"
width="7360" height="100" viewBox = "0 0 7360 100"
onclick="mouseclick(evt)">

<script type="text/ecmascript">

<![CDATA[
    function mouseover(evt, target) { 
    var gv = document.getElementById("globalVariable");
    var previoustarget = gv.firstChild.nodeValue;
    if (previoustarget != "none") 
    {
        	document.getElementById(gv.firstChild.nodeValue).setAttributeNS(null, "visibility", "hidden");
    }
    document.getElementById(target).setAttributeNS(null, "visibility", "visible");
    gv.firstChild.nodeValue = target;
        }

    function mouseclick(evt) { 
    var gv = document.getElementById("globalVariable");
    var previoustarget = gv.firstChild.nodeValue;
    if (previoustarget != "none") {
        	document.getElementById(gv.firstChild.nodeValue).setAttributeNS(null, "visibility", "hidden");
        }
    }
]]>
  </script>
<style type="text/css" >

<![CDATA[
    rect.anc_exon {
              stroke-width:3;
                  }

    rect.non_anc_exon {
              stroke: black; stroke-width:3; stroke-dasharray: 5,5;
                    }

    text {
              font-size: 18px;
              font-family: Courier New;
          }
                    ]]>
</style>

<defs>
    <text x="150" y="40" id="globalVariable">none</text>
</defs>

  <rect class="anc_exon" x="0" y="35.0" width="0" height="30" style="fill:#87bcbc;fill-opacity:1.00" />
  <rect class="anc_exon" x="0" y="35.0" width="43.2" height="30" style="fill:#87bcbc;fill-opacity:1.00" />
  <line x1="43.2" y1="50.0" x2="62.2" y2="50.0" style="stroke:#999; stroke-width:3;" />
  <line x1="62.2" y1="50.0" x2="62.2" y2="50.0" style="stroke:#999; stroke-width:3;" />
  <line x1="62.2" y1="50.0" x2="62.2" y2="50.0" style="stroke:#999; stroke-width:3;" />
  <line x1="62.2" y1="50.0" x2="83.0" y2="50.0" style="stroke:#999; stroke-width:3;" />
  <rect class="anc_exon" x="83" y="35.0" width="123" height="30" style="fill:#87bcbc;fill-opacity:1.00" />
  <line x1="206" y1="50.0" x2="246" y2="50.0" style="stroke:#999; stroke-width:3;" />
  <rect class="anc_exon" x="246" y="35.0" width="125" height="30" style="fill:#87bcbc;fill-opacity:1.00" />
  <line x1="371" y1="50.0" x2="391" y2="50.0" style="stroke:#999; stroke-width:3;" />
  <line x1="391" y1="50.0" x2="391" y2="50.0" style="stroke:#999; stroke-width:3;" />
  <line x1="391" y1="50.0" x2="391" y2="50.0" style="stroke:#999; stroke-width:3;" />
  <line x1="391" y1="50.0" x2="411" y2="50.0" style="stroke:#999; stroke-width:3;" />
  <rect class="anc_exon" x="411" y="35.0" width="118" height="30" style="fill:#87bcbc;fill-opacity:1.00" />
  <line x1="529" y1="50.0" x2="569" y2="50.0" style="stroke:#999; stroke-width:3;" />
  <rect class="anc_exon" x="569" y="35.0" width="118" height="30" style="fill:#87bcbc;fill-opacity:1.00" />
  <line x1="687" y1="50.0" x2="727" y2="50.0" style="stroke:#999; stroke-width:3;" />
  <rect class="anc_exon" x="727" y="35.0" width="187" height="30" style="fill:#87bcbc;fill-opacity:1.00" />
  <line x1="914" y1="50.0" x2="934" y2="50.0" style="stroke:#999; stroke-width:3;" />
  <line x1="934" y1="50.0" x2="934" y2="50.0" style="stroke:#999; stroke-width:3;" />
  <line x1="934" y1="50.0" x2="934" y2="50.0" style="stroke:#999; stroke-width:3;" />
  <line x1="934" y1="50.0" x2="954" y2="50.0" style="stroke:#999; stroke-width:3;" />
  <rect class="anc_exon" x="954" y="35.0" width="76" height="30" style="fill:#87bcbc;fill-opacity:1.00" />
  <line x1="1030" y1="50.0" x2="1050" y2="50.0" style="stroke:#999; stroke-width:3;" />
  <line x1="1050" y1="50.0" x2="1050" y2="50.0" style="stroke:#999; stroke-width:3;" />
  <line x1="1050" y1="50.0" x2="1050" y2="50.0" style="stroke:#999; stroke-width:3;" />
  <line x1="1050" y1="50.0" x2="1070" y2="50.0" style="stroke:#999; stroke-width:3;" />
  <rect class="anc_exon" x="1070" y="35.0" width="190" height="30" style="fill:#87bcbc;fill-opacity:1.00" />
  <line x1="1260" y1="50.0" x2="1300" y2="50.0" style="stroke:#999; stroke-width:3;" />
  <rect class="anc_exon" x="1300" y="35.0" width="153" height="30" style="fill:#87bcbc;fill-opacity:1.00" />
  <line x1="1453" y1="50.0" x2="1493" y2="50.0" style="stroke:#999; stroke-width:3;" />
  <rect class="anc_exon" x="1493" y="35.0" width="88" height="30" style="fill:#87bcbc;fill-opacity:1.00" />
  <line x1="1581" y1="50.0" x2="1601" y2="50.0" style="stroke:#999; stroke-width:3;" />
  <line x1="1601" y1="50.0" x2="1601" y2="50.0" style="stroke:#999; stroke-width:3;" />
  <line x1="1601" y1="50.0" x2="1601" y2="50.0" style="stroke:#999; stroke-width:3;" />
  <line x1="1601" y1="50.0" x2="1621" y2="50.0" style="stroke:#999; stroke-width:3;" />
  <rect class="anc_exon" x="1621" y="35.0" width="70" height="30" style="fill:#87bcbc;fill-opacity:1.00" />
  <line x1="1691" y1="50.0" x2="1711" y2="50.0" style="stroke:#999; stroke-width:3;" />
  <line x1="1711" y1="50.0" x2="1711" y2="50.0" style="stroke:#999; stroke-width:3;" />
  <line x1="1711" y1="50.0" x2="1711" y2="50.0" style="stroke:#999; stroke-width:3;" />
  <line x1="1711" y1="50.0" x2="1731" y2="50.0" style="stroke:#999; stroke-width:3;" />
  <rect class="anc_exon" x="1731" y="35.0" width="102" height="30" style="fill:#87bcbc;fill-opacity:1.00" />
  <line x1="1833" y1="50.0" x2="1873" y2="50.0" style="stroke:#999; stroke-width:3;" />
  <rect class="anc_exon" x="1873" y="35.0" width="115" height="30" style="fill:#87bcbc;fill-opacity:1.00" />
  <line x1="1988" y1="50.0" x2="2028" y2="50.0" style="stroke:#999; stroke-width:3;" />
  <rect class="anc_exon" x="2028" y="35.0" width="82" height="30" style="fill:#87bcbc;fill-opacity:1.00" />
  <line x1="2110" y1="50.0" x2="2150" y2="50.0" style="stroke:#999; stroke-width:3;" />
  <rect class="anc_exon" x="2150" y="35.0" width="604" height="30" style="fill:#87bcbc;fill-opacity:1.00" />
  <line x1="2754" y1="50.0" x2="2774" y2="50.0" style="stroke:#999; stroke-width:3;" />
  <line x1="2774" y1="50.0" x2="2774" y2="50.0" style="stroke:#999; stroke-width:3;" />
  <line x1="2774" y1="50.0" x2="2774" y2="50.0" style="stroke:#999; stroke-width:3;" />
  <line x1="2774" y1="50.0" x2="2794" y2="50.0" style="stroke:#999; stroke-width:3;" />
  <rect class="anc_exon" x="2794" y="35.0" width="119" height="30" style="fill:#87bcbc;fill-opacity:1.00" />
  <line x1="2913" y1="50.0" x2="2933" y2="50.0" style="stroke:#999; stroke-width:3;" />
  <line x1="2933" y1="50.0" x2="2933" y2="50.0" style="stroke:#999; stroke-width:3;" />
  <line x1="2933" y1="50.0" x2="2933" y2="50.0" style="stroke:#999; stroke-width:3;" />
  <line x1="2933" y1="50.0" x2="2953" y2="50.0" style="stroke:#999; stroke-width:3;" />
  <rect class="anc_exon" x="2953" y="35.0" width="89" height="30" style="fill:#87bcbc;fill-opacity:1.00" />
  <line x1="3042" y1="50.0" x2="3082" y2="50.0" style="stroke:#999; stroke-width:3;" />
  <rect class="anc_exon" x="3082" y="35.0" width="138" height="30" style="fill:#87bcbc;fill-opacity:1.00" />
  <line x1="3220" y1="50.0" x2="3240" y2="50.0" style="stroke:#999; stroke-width:3;" />
  <line x1="3240" y1="50.0" x2="3240" y2="50.0" style="stroke:#999; stroke-width:3;" />
  <line x1="3240" y1="50.0" x2="3240" y2="50.0" style="stroke:#999; stroke-width:3;" />
  <line x1="3240" y1="50.0" x2="3260" y2="50.0" style="stroke:#999; stroke-width:3;" />
  <rect class="anc_exon" x="3260" y="35.0" width="114" height="30" style="fill:#87bcbc;fill-opacity:1.00" />
  <line x1="3374" y1="50.0" x2="3414" y2="50.0" style="stroke:#999; stroke-width:3;" />
  <rect class="anc_exon" x="3414" y="35.0" width="171" height="30" style="fill:#87bcbc;fill-opacity:1.00" />
  <line x1="3585" y1="50.0" x2="3625" y2="50.0" style="stroke:#999; stroke-width:3;" />
  <rect class="anc_exon" x="3625" y="35.0" width="140" height="30" style="fill:#87bcbc;fill-opacity:1.00" />
  <line x1="3765" y1="50.0" x2="3805" y2="50.0" style="stroke:#999; stroke-width:3;" />
  <rect class="anc_exon" x="3805" y="35.0" width="130" height="30" style="fill:#87bcbc;fill-opacity:1.00" />
  <line x1="3935" y1="50.0" x2="3955" y2="50.0" style="stroke:#999; stroke-width:3;" />
  <line x1="3955" y1="50.0" x2="3955" y2="50.0" style="stroke:#999; stroke-width:3;" />
  <line x1="3955" y1="50.0" x2="3955" y2="50.0" style="stroke:#999; stroke-width:3;" />
  <line x1="3955" y1="50.0" x2="3975" y2="50.0" style="stroke:#999; stroke-width:3;" />
  <rect class="anc_exon" x="3975" y="35.0" width="76" height="30" style="fill:#87bcbc;fill-opacity:1.00" />
  <line x1="4051" y1="50.0" x2="4071" y2="50.0" style="stroke:#999; stroke-width:3;" />
  <line x1="4071" y1="50.0" x2="4071" y2="50.0" style="stroke:#999; stroke-width:3;" />
  <line x1="4071" y1="50.0" x2="4071" y2="50.0" style="stroke:#999; stroke-width:3;" />
  <line x1="4071" y1="50.0" x2="4091" y2="50.0" style="stroke:#999; stroke-width:3;" />
  <rect class="anc_exon" x="4091" y="35.0" width="93" height="30" style="fill:#87bcbc;fill-opacity:1.00" />
  <line x1="4184" y1="50.0" x2="4204" y2="50.0" style="stroke:#999; stroke-width:3;" />
  <line x1="4204" y1="50.0" x2="4204" y2="50.0" style="stroke:#999; stroke-width:3;" />
  <line x1="4204" y1="50.0" x2="4204" y2="50.0" style="stroke:#999; stroke-width:3;" />
  <line x1="4204" y1="50.0" x2="4224" y2="50.0" style="stroke:#999; stroke-width:3;" />
  <rect class="anc_exon" x="4224" y="35.0" width="137" height="30" style="fill:#87bcbc;fill-opacity:1.00" />
  <line x1="4361" y1="50.0" x2="4401" y2="50.0" style="stroke:#999; stroke-width:3;" />
  <rect class="anc_exon" x="4401" y="35.0" width="358" height="30" style="fill:#87bcbc;fill-opacity:1.00" />
  <line x1="4759" y1="50.0" x2="4799" y2="50.0" style="stroke:#999; stroke-width:3;" />
  <rect class="anc_exon" x="4799" y="35.0" width="124" height="30" style="fill:#87bcbc;fill-opacity:1.00" />
  <line x1="4923" y1="50.0" x2="4963" y2="50.0" style="stroke:#999; stroke-width:3;" />
  <rect class="anc_exon" x="4963" y="35.0" width="120" height="30" style="fill:#87bcbc;fill-opacity:1.00" />
  <line x1="5083" y1="50.0" x2="5103" y2="50.0" style="stroke:#999; stroke-width:3;" />
  <line x1="5103" y1="50.0" x2="5103" y2="50.0" style="stroke:#999; stroke-width:3;" />
  <line x1="5103" y1="50.0" x2="5103" y2="50.0" style="stroke:#999; stroke-width:3;" />
  <line x1="5103" y1="50.0" x2="5123" y2="50.0" style="stroke:#999; stroke-width:3;" />
  <rect class="anc_exon" x="5123" y="35.0" width="1321" height="30" style="fill:#87bcbc;fill-opacity:1.00" />
  <line x1="6444" y1="50.0" x2="6484" y2="50.0" style="stroke:#999; stroke-width:3;" />
  <rect class="anc_exon" x="6484" y="35.0" width="158" height="30" style="fill:#87bcbc;fill-opacity:1.00" />
  <line x1="6642" y1="50.0" x2="6682" y2="50.0" style="stroke:#999; stroke-width:3;" />
  <rect class="anc_exon" x="6682" y="35.0" width="199" height="30" style="fill:#87bcbc;fill-opacity:1.00" />
  <line x1="6881" y1="50.0" x2="6921" y2="50.0" style="stroke:#999; stroke-width:3;" />
  <rect class="anc_exon" x="6921" y="35.0" width="143" height="30" style="fill:#87bcbc;fill-opacity:1.00" />
  <line x1="7064" y1="50.0" x2="7104" y2="50.0" style="stroke:#999; stroke-width:3;" />
  <rect class="anc_exon" x="7104" y="35.0" width="132" height="30" style="fill:#87bcbc;fill-opacity:1.00" />
  <line x1="7236" y1="50.0" x2="7276" y2="50.0" style="stroke:#999; stroke-width:3;" />
  <rect class="anc_exon" x="7276" y="35.0" width="48" height="30" style="fill:#87bcbc;fill-opacity:1.00" />
  <rect class="anc_exon" x="7324" y="35.0" width="0" height="30" style="fill:#87bcbc;fill-opacity:1.00" />
  <text style="" >
<tspan x="0" y="83.0" style="font-size:18px;" >SP XM_031944105_1.1</tspan>  </text>
  <text style="fill:#121212;" >
<tspan x="3058.96" y="68.0" style="font-size:18px;fill:#121212;" >gg</tspan>  </text>



<script type="text/ecmascript">
<![CDATA[
function draw_bbox(text_id)
{
    var text_elem = document.getElementById(text_id);
    var offset_px = 2;
    var offset_py = 0;
    bbox = text_elem.getBBox();
    var box = document.createElementNS(document.rootElement.namespaceURI,'rect');
    box.setAttribute('x', bbox.x - offset_px);
    box.setAttribute('y', bbox.y - offset_py);
    box.setAttribute('width', bbox.width + offset_px * 2);
    box.setAttribute('height', bbox.height + offset_py * 2);
    box.setAttribute('style','fill: white;'+'stroke: black;'+'stroke-width: 1px;');
    text_elem.insertBefore(box,text_elem.childNodes[0]);

    var svg = text_elem.parentNode;
    svg.appendChild(text_elem);
}

for (var i=1; i < 1; i++)
{
draw_bbox("Mouseover" + i);
}
]]> 
</script>
</svg>
