<svg version="1.1"
xmlns="http://www.w3.org/2000/svg"
xmlns:xlink="http://www.w3.org/1999/xlink"
width="5991" height="100" viewBox = "0 0 5991 100"
onclick="mouseclick(evt)">

<script type="text/ecmascript">

<![CDATA[
    function mouseover(evt, target) { 
    var gv = document.getElementById("globalVariable");
    var previoustarget = gv.firstChild.nodeValue;
    if (previoustarget != "none") 
    {
        	document.getElementById(gv.firstChild.nodeValue).setAttributeNS(null, "visibility", "hidden");
    }
    document.getElementById(target).setAttributeNS(null, "visibility", "visible");
    gv.firstChild.nodeValue = target;
        }

    function mouseclick(evt) { 
    var gv = document.getElementById("globalVariable");
    var previoustarget = gv.firstChild.nodeValue;
    if (previoustarget != "none") {
        	document.getElementById(gv.firstChild.nodeValue).setAttributeNS(null, "visibility", "hidden");
        }
    }
]]>
  </script>
<style type="text/css" >

<![CDATA[
    rect.anc_exon {
              stroke-width:3;
                  }

    rect.non_anc_exon {
              stroke: black; stroke-width:3; stroke-dasharray: 5,5;
                    }

    text {
              font-size: 18px;
              font-family: Courier New;
          }
                    ]]>
</style>

<defs>
    <text x="150" y="40" id="globalVariable">none</text>
</defs>

  <rect class="anc_exon" x="0" y="35.0" width="0" height="30" style="fill:#87bcbc;fill-opacity:1.00" />
  <rect class="anc_exon" x="0" y="35.0" width="176.0" height="30" style="fill:#87bcbc;fill-opacity:1.00" />
  <line x1="176.0" y1="50.0" x2="196.0" y2="50.0" style="stroke:#999; stroke-width:3;" />
  <line x1="196.0" y1="50.0" x2="196.0" y2="50.0" style="stroke:#999; stroke-width:3;" />
  <line x1="196.0" y1="50.0" x2="196.0" y2="50.0" style="stroke:#999; stroke-width:3;" />
  <line x1="196.0" y1="50.0" x2="216.0" y2="50.0" style="stroke:#999; stroke-width:3;" />
  <rect class="anc_exon" x="216" y="35.0" width="2059" height="30" style="fill:#87bcbc;fill-opacity:1.00" />
  <line x1="2275" y1="50.0" x2="2315" y2="50.0" style="stroke:#999; stroke-width:3;" />
  <rect class="anc_exon" x="2315" y="35.0" width="480" height="30" style="fill:#87bcbc;fill-opacity:1.00" />
  <line x1="2795" y1="50.0" x2="2815" y2="50.0" style="stroke:#999; stroke-width:3;" />
  <line x1="2815" y1="50.0" x2="2815" y2="50.0" style="stroke:#999; stroke-width:3;" />
  <line x1="2815" y1="50.0" x2="2815" y2="50.0" style="stroke:#999; stroke-width:3;" />
  <line x1="2815" y1="50.0" x2="2835" y2="50.0" style="stroke:#999; stroke-width:3;" />
  <rect class="anc_exon" x="2835" y="35.0" width="92" height="30" style="fill:#87bcbc;fill-opacity:1.00" />
  <line x1="2927" y1="50.0" x2="2947" y2="50.0" style="stroke:#999; stroke-width:3;" />
  <line x1="2947" y1="50.0" x2="2947" y2="50.0" style="stroke:#999; stroke-width:3;" />
  <line x1="2947" y1="50.0" x2="2947" y2="50.0" style="stroke:#999; stroke-width:3;" />
  <line x1="2947" y1="50.0" x2="2967" y2="50.0" style="stroke:#999; stroke-width:3;" />
  <rect class="anc_exon" x="2967" y="35.0" width="176" height="30" style="fill:#87bcbc;fill-opacity:1.00" />
  <line x1="3143" y1="50.0" x2="3183" y2="50.0" style="stroke:#999; stroke-width:3;" />
  <rect class="anc_exon" x="3183" y="35.0" width="107" height="30" style="fill:#87bcbc;fill-opacity:1.00" />
  <line x1="3290" y1="50.0" x2="3310" y2="50.0" style="stroke:#999; stroke-width:3;" />
  <line x1="3310" y1="50.0" x2="3310" y2="50.0" style="stroke:#999; stroke-width:3;" />
  <line x1="3310" y1="50.0" x2="3310" y2="50.0" style="stroke:#999; stroke-width:3;" />
  <line x1="3310" y1="50.0" x2="3330" y2="50.0" style="stroke:#999; stroke-width:3;" />
  <rect class="anc_exon" x="3330" y="35.0" width="130" height="30" style="fill:#87bcbc;fill-opacity:1.00" />
  <line x1="3460" y1="50.0" x2="3500" y2="50.0" style="stroke:#999; stroke-width:3;" />
  <rect class="anc_exon" x="3500" y="35.0" width="48" height="30" style="fill:#87bcbc;fill-opacity:1.00" />
  <line x1="3548" y1="50.0" x2="3568" y2="50.0" style="stroke:#999; stroke-width:3;" />
  <line x1="3568" y1="50.0" x2="3568" y2="50.0" style="stroke:#999; stroke-width:3;" />
  <line x1="3568" y1="50.0" x2="3568" y2="50.0" style="stroke:#999; stroke-width:3;" />
  <line x1="3568" y1="50.0" x2="3588" y2="50.0" style="stroke:#999; stroke-width:3;" />
  <rect class="anc_exon" x="3588" y="35.0" width="121" height="30" style="fill:#87bcbc;fill-opacity:1.00" />
  <line x1="3709" y1="50.0" x2="3729" y2="50.0" style="stroke:#999; stroke-width:3;" />
  <line x1="3729" y1="50.0" x2="3729" y2="50.0" style="stroke:#999; stroke-width:3;" />
  <line x1="3729" y1="50.0" x2="3729" y2="50.0" style="stroke:#999; stroke-width:3;" />
  <line x1="3729" y1="50.0" x2="3749" y2="50.0" style="stroke:#999; stroke-width:3;" />
  <rect class="anc_exon" x="3749" y="35.0" width="137" height="30" style="fill:#87bcbc;fill-opacity:1.00" />
  <line x1="3886" y1="50.0" x2="3906" y2="50.0" style="stroke:#999; stroke-width:3;" />
  <line x1="3906" y1="50.0" x2="3906" y2="50.0" style="stroke:#999; stroke-width:3;" />
  <line x1="3906" y1="50.0" x2="3906" y2="50.0" style="stroke:#999; stroke-width:3;" />
  <line x1="3906" y1="50.0" x2="3926" y2="50.0" style="stroke:#999; stroke-width:3;" />
  <rect class="anc_exon" x="3926" y="35.0" width="131" height="30" style="fill:#87bcbc;fill-opacity:1.00" />
  <line x1="4057" y1="50.0" x2="4077" y2="50.0" style="stroke:#999; stroke-width:3;" />
  <line x1="4077" y1="50.0" x2="4077" y2="50.0" style="stroke:#999; stroke-width:3;" />
  <line x1="4077" y1="50.0" x2="4077" y2="50.0" style="stroke:#999; stroke-width:3;" />
  <line x1="4077" y1="50.0" x2="4097" y2="50.0" style="stroke:#999; stroke-width:3;" />
  <rect class="anc_exon" x="4097" y="35.0" width="152" height="30" style="fill:#87bcbc;fill-opacity:1.00" />
  <line x1="4249" y1="50.0" x2="4269" y2="50.0" style="stroke:#999; stroke-width:3;" />
  <line x1="4269" y1="50.0" x2="4269" y2="50.0" style="stroke:#999; stroke-width:3;" />
  <line x1="4269" y1="50.0" x2="4269" y2="50.0" style="stroke:#999; stroke-width:3;" />
  <line x1="4269" y1="50.0" x2="4289" y2="50.0" style="stroke:#999; stroke-width:3;" />
  <rect class="anc_exon" x="4289" y="35.0" width="114" height="30" style="fill:#87bcbc;fill-opacity:1.00" />
  <line x1="4403" y1="50.0" x2="4423" y2="50.0" style="stroke:#999; stroke-width:3;" />
  <line x1="4423" y1="50.0" x2="4423" y2="50.0" style="stroke:#999; stroke-width:3;" />
  <line x1="4423" y1="50.0" x2="4423" y2="50.0" style="stroke:#999; stroke-width:3;" />
  <line x1="4423" y1="50.0" x2="4443" y2="50.0" style="stroke:#999; stroke-width:3;" />
  <rect class="anc_exon" x="4443" y="35.0" width="133" height="30" style="fill:#87bcbc;fill-opacity:1.00" />
  <line x1="4576" y1="50.0" x2="4596" y2="50.0" style="stroke:#999; stroke-width:3;" />
  <line x1="4596" y1="50.0" x2="4596" y2="50.0" style="stroke:#999; stroke-width:3;" />
  <line x1="4596" y1="50.0" x2="4596" y2="50.0" style="stroke:#999; stroke-width:3;" />
  <line x1="4596" y1="50.0" x2="4616" y2="50.0" style="stroke:#999; stroke-width:3;" />
  <rect class="anc_exon" x="4616" y="35.0" width="172" height="30" style="fill:#87bcbc;fill-opacity:1.00" />
  <line x1="4788" y1="50.0" x2="4808" y2="50.0" style="stroke:#999; stroke-width:3;" />
  <line x1="4808" y1="50.0" x2="4808" y2="50.0" style="stroke:#999; stroke-width:3;" />
  <line x1="4808" y1="50.0" x2="4808" y2="50.0" style="stroke:#999; stroke-width:3;" />
  <line x1="4808" y1="50.0" x2="4828" y2="50.0" style="stroke:#999; stroke-width:3;" />
  <rect class="anc_exon" x="4828" y="35.0" width="104" height="30" style="fill:#87bcbc;fill-opacity:1.00" />
  <line x1="4932" y1="50.0" x2="4952" y2="50.0" style="stroke:#999; stroke-width:3;" />
  <line x1="4952" y1="50.0" x2="4952" y2="50.0" style="stroke:#999; stroke-width:3;" />
  <line x1="4952" y1="50.0" x2="4952" y2="50.0" style="stroke:#999; stroke-width:3;" />
  <line x1="4952" y1="50.0" x2="4972" y2="50.0" style="stroke:#999; stroke-width:3;" />
  <rect class="anc_exon" x="4972" y="35.0" width="280" height="30" style="fill:#87bcbc;fill-opacity:1.00" />
  <line x1="5252" y1="50.0" x2="5272" y2="50.0" style="stroke:#999; stroke-width:3;" />
  <line x1="5272" y1="50.0" x2="5272" y2="50.0" style="stroke:#999; stroke-width:3;" />
  <line x1="5272" y1="50.0" x2="5272" y2="50.0" style="stroke:#999; stroke-width:3;" />
  <line x1="5272" y1="50.0" x2="5292" y2="50.0" style="stroke:#999; stroke-width:3;" />
  <rect class="anc_exon" x="5292" y="35.0" width="78" height="30" style="fill:#87bcbc;fill-opacity:1.00" />
  <line x1="5370" y1="50.0" x2="5390" y2="50.0" style="stroke:#999; stroke-width:3;" />
  <line x1="5390" y1="50.0" x2="5390" y2="50.0" style="stroke:#999; stroke-width:3;" />
  <line x1="5390" y1="50.0" x2="5390" y2="50.0" style="stroke:#999; stroke-width:3;" />
  <line x1="5390" y1="50.0" x2="5410" y2="50.0" style="stroke:#999; stroke-width:3;" />
  <rect class="anc_exon" x="5410" y="35.0" width="119" height="30" style="fill:#878787;fill-opacity:1.00" />
  <line x1="5529" y1="50.0" x2="5549" y2="50.0" style="stroke:#999; stroke-width:3;" />
  <line x1="5549" y1="50.0" x2="5549" y2="50.0" style="stroke:#999; stroke-width:3;" />
  <line x1="5549" y1="50.0" x2="5549" y2="50.0" style="stroke:#999; stroke-width:3;" />
  <line x1="5549" y1="50.0" x2="5569" y2="50.0" style="stroke:#999; stroke-width:3;" />
  <rect class="anc_exon" x="5569" y="35.0" width="121" height="30" style="fill:#87bcbc;fill-opacity:1.00" />
  <line x1="5690" y1="50.0" x2="5710" y2="50.0" style="stroke:#999; stroke-width:3;" />
  <line x1="5710" y1="50.0" x2="5710" y2="50.0" style="stroke:#999; stroke-width:3;" />
  <line x1="5710" y1="50.0" x2="5710" y2="50.0" style="stroke:#999; stroke-width:3;" />
  <line x1="5710" y1="50.0" x2="5730" y2="50.0" style="stroke:#999; stroke-width:3;" />
  <rect class="anc_exon" x="5730" y="35.0" width="225" height="30" style="fill:#87bcbc;fill-opacity:1.00" />
  <rect class="anc_exon" x="5955" y="35.0" width="0" height="30" style="fill:#87bcbc;fill-opacity:1.00" />
  <text style="" >
<tspan x="0" y="83.0" style="font-size:18px;" >SP XM_031942379_1.1</tspan>  </text>



<script type="text/ecmascript">
<![CDATA[
function draw_bbox(text_id)
{
    var text_elem = document.getElementById(text_id);
    var offset_px = 2;
    var offset_py = 0;
    bbox = text_elem.getBBox();
    var box = document.createElementNS(document.rootElement.namespaceURI,'rect');
    box.setAttribute('x', bbox.x - offset_px);
    box.setAttribute('y', bbox.y - offset_py);
    box.setAttribute('width', bbox.width + offset_px * 2);
    box.setAttribute('height', bbox.height + offset_py * 2);
    box.setAttribute('style','fill: white;'+'stroke: black;'+'stroke-width: 1px;');
    text_elem.insertBefore(box,text_elem.childNodes[0]);

    var svg = text_elem.parentNode;
    svg.appendChild(text_elem);
}

for (var i=1; i < 1; i++)
{
draw_bbox("Mouseover" + i);
}
]]> 
</script>
</svg>
