<svg version="1.1"
xmlns="http://www.w3.org/2000/svg"
xmlns:xlink="http://www.w3.org/1999/xlink"
width="2977" height="110.0" viewBox = "0 -10.0 2977 110.0"
onclick="mouseclick(evt)">

<script type="text/ecmascript">

<![CDATA[
    function mouseover(evt, target) { 
    var gv = document.getElementById("globalVariable");
    var previoustarget = gv.firstChild.nodeValue;
    if (previoustarget != "none") 
    {
        	document.getElementById(gv.firstChild.nodeValue).setAttributeNS(null, "visibility", "hidden");
    }
    document.getElementById(target).setAttributeNS(null, "visibility", "visible");
    gv.firstChild.nodeValue = target;
        }

    function mouseclick(evt) { 
    var gv = document.getElementById("globalVariable");
    var previoustarget = gv.firstChild.nodeValue;
    if (previoustarget != "none") {
        	document.getElementById(gv.firstChild.nodeValue).setAttributeNS(null, "visibility", "hidden");
        }
    }
]]>
  </script>
<style type="text/css" >

<![CDATA[
    rect.anc_exon {
              stroke-width:3;
                  }

    rect.non_anc_exon {
              stroke: black; stroke-width:3; stroke-dasharray: 5,5;
                    }

    text {
              font-size: 18px;
              font-family: Courier New;
          }
                    ]]>
</style>

<defs>
    <text x="150" y="40" id="globalVariable">none</text>
</defs>

  <rect class="anc_exon" x="0" y="35.0" width="0" height="30" style="fill:#87bcbc;fill-opacity:1.00" />
  <rect class="anc_exon" x="0" y="35.0" width="333.6" height="30" style="fill:#878787;fill-opacity:1.00" />
  <line x1="333.6" y1="50.0" x2="352.6" y2="50.0" style="stroke:#999; stroke-width:3;" />
  <line x1="352.6" y1="50.0" x2="352.6" y2="50.0" style="stroke:#999; stroke-width:3;" />
  <line x1="352.6" y1="50.0" x2="352.6" y2="50.0" style="stroke:#999; stroke-width:3;" />
  <line x1="352.6" y1="50.0" x2="373.0" y2="50.0" style="stroke:#999; stroke-width:3;" />
  <rect class="anc_exon" x="373" y="35.0" width="68" height="30" style="fill:#87bcbc;fill-opacity:1.00" />
  <line x1="441" y1="50.0" x2="461" y2="50.0" style="stroke:#999; stroke-width:3;" />
  <line x1="461" y1="50.0" x2="461" y2="50.0" style="stroke:#999; stroke-width:3;" />
  <line x1="461" y1="50.0" x2="461" y2="50.0" style="stroke:#999; stroke-width:3;" />
  <line x1="461" y1="50.0" x2="481" y2="50.0" style="stroke:#999; stroke-width:3;" />
  <rect class="anc_exon" x="481" y="35.0" width="173" height="30" style="fill:#87bcbc;fill-opacity:1.00" />
  <line x1="654" y1="50.0" x2="674" y2="50.0" style="stroke:#999; stroke-width:3;" />
  <line x1="674" y1="50.0" x2="674" y2="50.0" style="stroke:#999; stroke-width:3;" />
  <line x1="674" y1="50.0" x2="674" y2="50.0" style="stroke:#999; stroke-width:3;" />
  <line x1="674" y1="50.0" x2="694" y2="50.0" style="stroke:#999; stroke-width:3;" />
  <rect class="anc_exon" x="694" y="35.0" width="138" height="30" style="fill:#87bcbc;fill-opacity:1.00" />
  <line x1="832" y1="50.0" x2="852" y2="50.0" style="stroke:#999; stroke-width:3;" />
  <line x1="852" y1="50.0" x2="852" y2="50.0" style="stroke:#999; stroke-width:3;" />
  <line x1="852" y1="50.0" x2="852" y2="50.0" style="stroke:#999; stroke-width:3;" />
  <line x1="852" y1="50.0" x2="872" y2="50.0" style="stroke:#999; stroke-width:3;" />
  <rect class="anc_exon" x="872" y="35.0" width="149" height="30" style="fill:#87bcbc;fill-opacity:1.00" />
  <line x1="875.2" y1="35.0" x2="875.2" y2="65.0" style="stroke:#121212;stroke-width:3;"/>
  <text style="" text-anchor="middle">
<tspan x="874.4" y="26.0" style="font-size:18px;fill:#121212;" >TAA</tspan>  </text>
  <line x1="1021" y1="50.0" x2="1041" y2="50.0" style="stroke:#999; stroke-width:3;" />
  <line x1="1041" y1="50.0" x2="1041" y2="50.0" style="stroke:#999; stroke-width:3;" />
  <line x1="1041" y1="50.0" x2="1041" y2="50.0" style="stroke:#999; stroke-width:3;" />
  <line x1="1041" y1="50.0" x2="1061" y2="50.0" style="stroke:#999; stroke-width:3;" />
  <rect class="anc_exon" x="1061" y="35.0" width="56" height="30" style="fill:#87bcbc;fill-opacity:1.00" />
  <line x1="1117" y1="50.0" x2="1137" y2="50.0" style="stroke:#999; stroke-width:3;" />
  <line x1="1137" y1="50.0" x2="1137" y2="50.0" style="stroke:#999; stroke-width:3;" />
  <line x1="1137" y1="50.0" x2="1137" y2="50.0" style="stroke:#999; stroke-width:3;" />
  <line x1="1137" y1="50.0" x2="1157" y2="50.0" style="stroke:#999; stroke-width:3;" />
  <rect class="anc_exon" x="1157" y="35.0" width="145" height="30" style="fill:#87bcbc;fill-opacity:1.00" />
  <line x1="1302" y1="50.0" x2="1322" y2="50.0" style="stroke:#999; stroke-width:3;" />
  <line x1="1322" y1="50.0" x2="1322" y2="50.0" style="stroke:#999; stroke-width:3;" />
  <line x1="1322" y1="50.0" x2="1322" y2="50.0" style="stroke:#999; stroke-width:3;" />
  <line x1="1322" y1="50.0" x2="1342" y2="50.0" style="stroke:#999; stroke-width:3;" />
  <rect class="anc_exon" x="1342" y="35.0" width="105" height="30" style="fill:#87bcbc;fill-opacity:1.00" />
  <line x1="1447" y1="50.0" x2="1467" y2="50.0" style="stroke:#999; stroke-width:3;" />
  <line x1="1467" y1="50.0" x2="1467" y2="50.0" style="stroke:#999; stroke-width:3;" />
  <line x1="1467" y1="50.0" x2="1467" y2="50.0" style="stroke:#999; stroke-width:3;" />
  <line x1="1467" y1="50.0" x2="1487" y2="50.0" style="stroke:#999; stroke-width:3;" />
  <rect class="anc_exon" x="1487" y="35.0" width="218" height="30" style="fill:#87bcbc;fill-opacity:1.00" />
  <line x1="1705" y1="50.0" x2="1725" y2="50.0" style="stroke:#999; stroke-width:3;" />
  <line x1="1725" y1="50.0" x2="1725" y2="50.0" style="stroke:#999; stroke-width:3;" />
  <line x1="1725" y1="50.0" x2="1725" y2="50.0" style="stroke:#999; stroke-width:3;" />
  <line x1="1725" y1="50.0" x2="1745" y2="50.0" style="stroke:#999; stroke-width:3;" />
  <rect class="anc_exon" x="1745" y="35.0" width="132" height="30" style="fill:#87bcbc;fill-opacity:1.00" />
  <line x1="1877" y1="50.0" x2="1897" y2="50.0" style="stroke:#999; stroke-width:3;" />
  <line x1="1897" y1="50.0" x2="1897" y2="50.0" style="stroke:#999; stroke-width:3;" />
  <line x1="1897" y1="50.0" x2="1897" y2="50.0" style="stroke:#999; stroke-width:3;" />
  <line x1="1897" y1="50.0" x2="1917" y2="50.0" style="stroke:#999; stroke-width:3;" />
  <rect class="anc_exon" x="1917" y="35.0" width="105" height="30" style="fill:#87bcbc;fill-opacity:1.00" />
  <line x1="2022" y1="50.0" x2="2062" y2="50.0" style="stroke:#999; stroke-width:3;" />
  <rect class="anc_exon" x="2062" y="35.0" width="112" height="30" style="fill:#87bcbc;fill-opacity:1.00" />
  <line x1="2174" y1="50.0" x2="2194" y2="50.0" style="stroke:#999; stroke-width:3;" />
  <line x1="2194" y1="50.0" x2="2194" y2="50.0" style="stroke:#999; stroke-width:3;" />
  <line x1="2194" y1="50.0" x2="2194" y2="50.0" style="stroke:#999; stroke-width:3;" />
  <line x1="2194" y1="50.0" x2="2214" y2="50.0" style="stroke:#999; stroke-width:3;" />
  <rect class="anc_exon" x="2214" y="35.0" width="91" height="30" style="fill:#87bcbc;fill-opacity:1.00" />
  <line x1="2305" y1="50.0" x2="2325" y2="50.0" style="stroke:#999; stroke-width:3;" />
  <line x1="2325" y1="50.0" x2="2325" y2="50.0" style="stroke:#999; stroke-width:3;" />
  <line x1="2325" y1="50.0" x2="2325" y2="50.0" style="stroke:#999; stroke-width:3;" />
  <line x1="2325" y1="50.0" x2="2345" y2="50.0" style="stroke:#999; stroke-width:3;" />
  <rect class="anc_exon" x="2345" y="35.0" width="94" height="30" style="fill:#87bcbc;fill-opacity:1.00" />
  <line x1="2439" y1="50.0" x2="2459" y2="50.0" style="stroke:#999; stroke-width:3;" />
  <line x1="2459" y1="50.0" x2="2459" y2="50.0" style="stroke:#999; stroke-width:3;" />
  <line x1="2459" y1="50.0" x2="2459" y2="50.0" style="stroke:#999; stroke-width:3;" />
  <line x1="2459" y1="50.0" x2="2479" y2="50.0" style="stroke:#999; stroke-width:3;" />
  <rect class="anc_exon" x="2479" y="35.0" width="53" height="30" style="fill:#87bcbc;fill-opacity:1.00" />
  <line x1="2532" y1="50.0" x2="2552" y2="50.0" style="stroke:#999; stroke-width:3;" />
  <line x1="2552" y1="50.0" x2="2552" y2="50.0" style="stroke:#999; stroke-width:3;" />
  <line x1="2552" y1="50.0" x2="2552" y2="50.0" style="stroke:#999; stroke-width:3;" />
  <line x1="2552" y1="50.0" x2="2572" y2="50.0" style="stroke:#999; stroke-width:3;" />
  <rect class="anc_exon" x="2572" y="35.0" width="145" height="30" style="fill:#87bcbc;fill-opacity:1.00" />
  <line x1="2717" y1="50.0" x2="2737" y2="50.0" style="stroke:#999; stroke-width:3;" />
  <line x1="2737" y1="50.0" x2="2737" y2="50.0" style="stroke:#999; stroke-width:3;" />
  <line x1="2737" y1="50.0" x2="2737" y2="50.0" style="stroke:#999; stroke-width:3;" />
  <line x1="2737" y1="50.0" x2="2757" y2="50.0" style="stroke:#999; stroke-width:3;" />
  <rect class="anc_exon" x="2757" y="35.0" width="80" height="30" style="fill:#87bcbc;fill-opacity:1.00" />
  <line x1="2837" y1="50.0" x2="2877" y2="50.0" style="stroke:#999; stroke-width:3;" />
  <rect class="anc_exon" x="2877" y="35.0" width="64" height="30" style="fill:#87bcbc;fill-opacity:1.00" />
  <rect class="anc_exon" x="2941" y="35.0" width="0" height="30" style="fill:#87bcbc;fill-opacity:1.00" />
  <text style="" >
<tspan x="0" y="83.0" style="font-size:18px;" >SP XM_031943724_1.1</tspan>  </text>



<script type="text/ecmascript">
<![CDATA[
function draw_bbox(text_id)
{
    var text_elem = document.getElementById(text_id);
    var offset_px = 2;
    var offset_py = 0;
    bbox = text_elem.getBBox();
    var box = document.createElementNS(document.rootElement.namespaceURI,'rect');
    box.setAttribute('x', bbox.x - offset_px);
    box.setAttribute('y', bbox.y - offset_py);
    box.setAttribute('width', bbox.width + offset_px * 2);
    box.setAttribute('height', bbox.height + offset_py * 2);
    box.setAttribute('style','fill: white;'+'stroke: black;'+'stroke-width: 1px;');
    text_elem.insertBefore(box,text_elem.childNodes[0]);

    var svg = text_elem.parentNode;
    svg.appendChild(text_elem);
}

for (var i=1; i < 1; i++)
{
draw_bbox("Mouseover" + i);
}
]]> 
</script>
</svg>
