<svg version="1.1"
xmlns="http://www.w3.org/2000/svg"
xmlns:xlink="http://www.w3.org/1999/xlink"
width="2382" height="100" viewBox = "0 0 2382 100"
onclick="mouseclick(evt)">

<script type="text/ecmascript">

<![CDATA[
    function mouseover(evt, target) { 
    var gv = document.getElementById("globalVariable");
    var previoustarget = gv.firstChild.nodeValue;
    if (previoustarget != "none") 
    {
        	document.getElementById(gv.firstChild.nodeValue).setAttributeNS(null, "visibility", "hidden");
    }
    document.getElementById(target).setAttributeNS(null, "visibility", "visible");
    gv.firstChild.nodeValue = target;
        }

    function mouseclick(evt) { 
    var gv = document.getElementById("globalVariable");
    var previoustarget = gv.firstChild.nodeValue;
    if (previoustarget != "none") {
        	document.getElementById(gv.firstChild.nodeValue).setAttributeNS(null, "visibility", "hidden");
        }
    }
]]>
  </script>
<style type="text/css" >

<![CDATA[
    rect.anc_exon {
              stroke-width:3;
                  }

    rect.non_anc_exon {
              stroke: black; stroke-width:3; stroke-dasharray: 5,5;
                    }

    text {
              font-size: 18px;
              font-family: Courier New;
          }
                    ]]>
</style>

<defs>
    <text x="150" y="40" id="globalVariable">none</text>
</defs>

  <rect class="anc_exon" x="0" y="35.0" width="0" height="30" style="fill:#87bcbc;fill-opacity:1.00" />
  <rect class="anc_exon" x="0" y="35.0" width="101.60000000000001" height="30" style="fill:#87bcbc;fill-opacity:1.00" />
  <line x1="101.60000000000001" y1="50.0" x2="141.0" y2="50.0" style="stroke:#999; stroke-width:3;" />
  <rect class="anc_exon" x="141" y="35.0" width="78" height="30" style="fill:#87bcbc;fill-opacity:1.00" />
  <line x1="219" y1="50.0" x2="239" y2="50.0" style="stroke:#999; stroke-width:3;" />
  <line x1="239" y1="50.0" x2="239" y2="50.0" style="stroke:#999; stroke-width:3;" />
  <line x1="239" y1="50.0" x2="239" y2="50.0" style="stroke:#999; stroke-width:3;" />
  <line x1="239" y1="50.0" x2="259" y2="50.0" style="stroke:#999; stroke-width:3;" />
  <rect class="anc_exon" x="259" y="35.0" width="87" height="30" style="fill:#87bcbc;fill-opacity:1.00" />
  <line x1="346" y1="50.0" x2="366" y2="50.0" style="stroke:#999; stroke-width:3;" />
  <line x1="366" y1="50.0" x2="366" y2="50.0" style="stroke:#999; stroke-width:3;" />
  <line x1="366" y1="50.0" x2="366" y2="50.0" style="stroke:#999; stroke-width:3;" />
  <line x1="366" y1="50.0" x2="386" y2="50.0" style="stroke:#999; stroke-width:3;" />
  <rect class="anc_exon" x="386" y="35.0" width="169" height="30" style="fill:#87bcbc;fill-opacity:1.00" />
  <line x1="555" y1="50.0" x2="575" y2="50.0" style="stroke:#999; stroke-width:3;" />
  <line x1="575" y1="50.0" x2="575" y2="50.0" style="stroke:#999; stroke-width:3;" />
  <line x1="575" y1="50.0" x2="575" y2="50.0" style="stroke:#999; stroke-width:3;" />
  <line x1="575" y1="50.0" x2="595" y2="50.0" style="stroke:#999; stroke-width:3;" />
  <rect class="anc_exon" x="595" y="35.0" width="144" height="30" style="fill:#87bcbc;fill-opacity:1.00" />
  <line x1="739" y1="50.0" x2="759" y2="50.0" style="stroke:#999; stroke-width:3;" />
  <line x1="759" y1="50.0" x2="759" y2="50.0" style="stroke:#999; stroke-width:3;" />
  <line x1="759" y1="50.0" x2="759" y2="50.0" style="stroke:#999; stroke-width:3;" />
  <line x1="759" y1="50.0" x2="779" y2="50.0" style="stroke:#999; stroke-width:3;" />
  <rect class="anc_exon" x="779" y="35.0" width="74" height="30" style="fill:#87bcbc;fill-opacity:1.00" />
  <line x1="853" y1="50.0" x2="873" y2="50.0" style="stroke:#999; stroke-width:3;" />
  <line x1="873" y1="50.0" x2="873" y2="50.0" style="stroke:#999; stroke-width:3;" />
  <line x1="873" y1="50.0" x2="873" y2="50.0" style="stroke:#999; stroke-width:3;" />
  <line x1="873" y1="50.0" x2="893" y2="50.0" style="stroke:#999; stroke-width:3;" />
  <rect class="anc_exon" x="893" y="35.0" width="65" height="30" style="fill:#87bcbc;fill-opacity:1.00" />
  <line x1="958" y1="50.0" x2="978" y2="50.0" style="stroke:#999; stroke-width:3;" />
  <line x1="978" y1="50.0" x2="978" y2="50.0" style="stroke:#999; stroke-width:3;" />
  <line x1="978" y1="50.0" x2="978" y2="50.0" style="stroke:#999; stroke-width:3;" />
  <line x1="978" y1="50.0" x2="998" y2="50.0" style="stroke:#999; stroke-width:3;" />
  <rect class="anc_exon" x="998" y="35.0" width="120" height="30" style="fill:#87bcbc;fill-opacity:1.00" />
  <line x1="1118" y1="50.0" x2="1138" y2="50.0" style="stroke:#999; stroke-width:3;" />
  <line x1="1138" y1="50.0" x2="1138" y2="50.0" style="stroke:#999; stroke-width:3;" />
  <line x1="1138" y1="50.0" x2="1138" y2="50.0" style="stroke:#999; stroke-width:3;" />
  <line x1="1138" y1="50.0" x2="1158" y2="50.0" style="stroke:#999; stroke-width:3;" />
  <rect class="anc_exon" x="1158" y="35.0" width="169" height="30" style="fill:#87bcbc;fill-opacity:1.00" />
  <line x1="1327" y1="50.0" x2="1347" y2="50.0" style="stroke:#999; stroke-width:3;" />
  <line x1="1347" y1="50.0" x2="1347" y2="50.0" style="stroke:#999; stroke-width:3;" />
  <line x1="1347" y1="50.0" x2="1347" y2="50.0" style="stroke:#999; stroke-width:3;" />
  <line x1="1347" y1="50.0" x2="1367" y2="50.0" style="stroke:#999; stroke-width:3;" />
  <rect class="anc_exon" x="1367" y="35.0" width="116" height="30" style="fill:#87bcbc;fill-opacity:1.00" />
  <line x1="1483" y1="50.0" x2="1503" y2="50.0" style="stroke:#999; stroke-width:3;" />
  <line x1="1503" y1="50.0" x2="1503" y2="50.0" style="stroke:#999; stroke-width:3;" />
  <line x1="1503" y1="50.0" x2="1503" y2="50.0" style="stroke:#999; stroke-width:3;" />
  <line x1="1503" y1="50.0" x2="1523" y2="50.0" style="stroke:#999; stroke-width:3;" />
  <rect class="anc_exon" x="1523" y="35.0" width="94" height="30" style="fill:#87bcbc;fill-opacity:1.00" />
  <line x1="1617" y1="50.0" x2="1637" y2="50.0" style="stroke:#999; stroke-width:3;" />
  <line x1="1637" y1="50.0" x2="1637" y2="50.0" style="stroke:#999; stroke-width:3;" />
  <line x1="1637" y1="50.0" x2="1637" y2="50.0" style="stroke:#999; stroke-width:3;" />
  <line x1="1637" y1="50.0" x2="1657" y2="50.0" style="stroke:#999; stroke-width:3;" />
  <rect class="anc_exon" x="1657" y="35.0" width="92" height="30" style="fill:#87bcbc;fill-opacity:1.00" />
  <line x1="1749" y1="50.0" x2="1769" y2="50.0" style="stroke:#999; stroke-width:3;" />
  <line x1="1769" y1="50.0" x2="1769" y2="50.0" style="stroke:#999; stroke-width:3;" />
  <line x1="1769" y1="50.0" x2="1769" y2="50.0" style="stroke:#999; stroke-width:3;" />
  <line x1="1769" y1="50.0" x2="1789" y2="50.0" style="stroke:#999; stroke-width:3;" />
  <rect class="anc_exon" x="1789" y="35.0" width="132" height="30" style="fill:#87bcbc;fill-opacity:1.00" />
  <line x1="1921" y1="50.0" x2="1941" y2="50.0" style="stroke:#999; stroke-width:3;" />
  <line x1="1941" y1="50.0" x2="1941" y2="50.0" style="stroke:#999; stroke-width:3;" />
  <line x1="1941" y1="50.0" x2="1941" y2="50.0" style="stroke:#999; stroke-width:3;" />
  <line x1="1941" y1="50.0" x2="1961" y2="50.0" style="stroke:#999; stroke-width:3;" />
  <rect class="anc_exon" x="1961" y="35.0" width="152" height="30" style="fill:#87bcbc;fill-opacity:1.00" />
  <line x1="2113" y1="50.0" x2="2133" y2="50.0" style="stroke:#999; stroke-width:3;" />
  <line x1="2133" y1="50.0" x2="2133" y2="50.0" style="stroke:#999; stroke-width:3;" />
  <line x1="2133" y1="50.0" x2="2133" y2="50.0" style="stroke:#999; stroke-width:3;" />
  <line x1="2133" y1="50.0" x2="2153" y2="50.0" style="stroke:#999; stroke-width:3;" />
  <rect class="anc_exon" x="2153" y="35.0" width="132" height="30" style="fill:#87bcbc;fill-opacity:1.00" />
  <line x1="2285" y1="50.0" x2="2305" y2="50.0" style="stroke:#999; stroke-width:3;" />
  <line x1="2305" y1="50.0" x2="2305" y2="50.0" style="stroke:#999; stroke-width:3;" />
  <line x1="2305" y1="50.0" x2="2305" y2="50.0" style="stroke:#999; stroke-width:3;" />
  <line x1="2305" y1="50.0" x2="2325" y2="50.0" style="stroke:#999; stroke-width:3;" />
  <rect class="anc_exon" x="2325" y="35.0" width="21" height="30" style="fill:#87bcbc;fill-opacity:1.00" />
  <rect class="anc_exon" x="2346" y="35.0" width="0" height="30" style="fill:#87bcbc;fill-opacity:1.00" />
  <text style="" >
<tspan x="0" y="83.0" style="font-size:18px;" >SP XM_003773407_3.1</tspan>  </text>



<script type="text/ecmascript">
<![CDATA[
function draw_bbox(text_id)
{
    var text_elem = document.getElementById(text_id);
    var offset_px = 2;
    var offset_py = 0;
    bbox = text_elem.getBBox();
    var box = document.createElementNS(document.rootElement.namespaceURI,'rect');
    box.setAttribute('x', bbox.x - offset_px);
    box.setAttribute('y', bbox.y - offset_py);
    box.setAttribute('width', bbox.width + offset_px * 2);
    box.setAttribute('height', bbox.height + offset_py * 2);
    box.setAttribute('style','fill: white;'+'stroke: black;'+'stroke-width: 1px;');
    text_elem.insertBefore(box,text_elem.childNodes[0]);

    var svg = text_elem.parentNode;
    svg.appendChild(text_elem);
}

for (var i=1; i < 1; i++)
{
draw_bbox("Mouseover" + i);
}
]]> 
</script>
</svg>
