<svg version="1.1"
xmlns="http://www.w3.org/2000/svg"
xmlns:xlink="http://www.w3.org/1999/xlink"
width="2179" height="100" viewBox = "0 0 2179 100"
onclick="mouseclick(evt)">

<script type="text/ecmascript">

<![CDATA[
    function mouseover(evt, target) { 
    var gv = document.getElementById("globalVariable");
    var previoustarget = gv.firstChild.nodeValue;
    if (previoustarget != "none") 
    {
        	document.getElementById(gv.firstChild.nodeValue).setAttributeNS(null, "visibility", "hidden");
    }
    document.getElementById(target).setAttributeNS(null, "visibility", "visible");
    gv.firstChild.nodeValue = target;
        }

    function mouseclick(evt) { 
    var gv = document.getElementById("globalVariable");
    var previoustarget = gv.firstChild.nodeValue;
    if (previoustarget != "none") {
        	document.getElementById(gv.firstChild.nodeValue).setAttributeNS(null, "visibility", "hidden");
        }
    }
]]>
  </script>
<style type="text/css" >

<![CDATA[
    rect.anc_exon {
              stroke-width:3;
                  }

    rect.non_anc_exon {
              stroke: black; stroke-width:3; stroke-dasharray: 5,5;
                    }

    text {
              font-size: 18px;
              font-family: Courier New;
          }
                    ]]>
</style>

<defs>
    <text x="150" y="40" id="globalVariable">none</text>
</defs>

  <rect class="anc_exon" x="0" y="35.0" width="0" height="30" style="fill:#87bcbc;fill-opacity:1.00" />
  <rect class="anc_exon" x="0" y="35.0" width="156.0" height="30" style="fill:#87bcbc;fill-opacity:1.00" />
  <line x1="156.0" y1="50.0" x2="176.0" y2="50.0" style="stroke:#999; stroke-width:3;" />
  <line x1="176.0" y1="50.0" x2="176.0" y2="50.0" style="stroke:#999; stroke-width:3;" />
  <line x1="176.0" y1="50.0" x2="176.0" y2="50.0" style="stroke:#999; stroke-width:3;" />
  <line x1="176.0" y1="50.0" x2="196.0" y2="50.0" style="stroke:#999; stroke-width:3;" />
  <rect class="anc_exon" x="196" y="35.0" width="130" height="30" style="fill:#87bcbc;fill-opacity:1.00" />
  <line x1="326" y1="50.0" x2="346" y2="50.0" style="stroke:#999; stroke-width:3;" />
  <line x1="346" y1="50.0" x2="346" y2="50.0" style="stroke:#999; stroke-width:3;" />
  <line x1="346" y1="50.0" x2="346" y2="50.0" style="stroke:#999; stroke-width:3;" />
  <line x1="346" y1="50.0" x2="366" y2="50.0" style="stroke:#999; stroke-width:3;" />
  <rect class="anc_exon" x="366" y="35.0" width="121" height="30" style="fill:#87bcbc;fill-opacity:1.00" />
  <line x1="487" y1="50.0" x2="507" y2="50.0" style="stroke:#999; stroke-width:3;" />
  <line x1="507" y1="50.0" x2="507" y2="50.0" style="stroke:#999; stroke-width:3;" />
  <line x1="507" y1="50.0" x2="507" y2="50.0" style="stroke:#999; stroke-width:3;" />
  <line x1="507" y1="50.0" x2="527" y2="50.0" style="stroke:#999; stroke-width:3;" />
  <rect class="anc_exon" x="527" y="35.0" width="64" height="30" style="fill:#87bcbc;fill-opacity:1.00" />
  <line x1="591" y1="50.0" x2="631" y2="50.0" style="stroke:#999; stroke-width:3;" />
  <rect class="anc_exon" x="631" y="35.0" width="120" height="30" style="fill:#87bcbc;fill-opacity:1.00" />
  <line x1="751" y1="50.0" x2="771" y2="50.0" style="stroke:#999; stroke-width:3;" />
  <line x1="771" y1="50.0" x2="771" y2="50.0" style="stroke:#999; stroke-width:3;" />
  <line x1="771" y1="50.0" x2="771" y2="50.0" style="stroke:#999; stroke-width:3;" />
  <line x1="771" y1="50.0" x2="791" y2="50.0" style="stroke:#999; stroke-width:3;" />
  <rect class="anc_exon" x="791" y="35.0" width="115" height="30" style="fill:#87bcbc;fill-opacity:1.00" />
  <line x1="906" y1="50.0" x2="946" y2="50.0" style="stroke:#999; stroke-width:3;" />
  <rect class="anc_exon" x="946" y="35.0" width="79" height="30" style="fill:#87bcbc;fill-opacity:1.00" />
  <line x1="1025" y1="50.0" x2="1065" y2="50.0" style="stroke:#999; stroke-width:3;" />
  <rect class="anc_exon" x="1065" y="35.0" width="141" height="30" style="fill:#87bcbc;fill-opacity:1.00" />
  <line x1="1206" y1="50.0" x2="1226" y2="50.0" style="stroke:#999; stroke-width:3;" />
  <line x1="1226" y1="50.0" x2="1226" y2="50.0" style="stroke:#999; stroke-width:3;" />
  <line x1="1226" y1="50.0" x2="1226" y2="50.0" style="stroke:#999; stroke-width:3;" />
  <line x1="1226" y1="50.0" x2="1246" y2="50.0" style="stroke:#999; stroke-width:3;" />
  <rect class="anc_exon" x="1246" y="35.0" width="201" height="30" style="fill:#87bcbc;fill-opacity:1.00" />
  <line x1="1447" y1="50.0" x2="1467" y2="50.0" style="stroke:#999; stroke-width:3;" />
  <line x1="1467" y1="50.0" x2="1467" y2="50.0" style="stroke:#999; stroke-width:3;" />
  <line x1="1467" y1="50.0" x2="1467" y2="50.0" style="stroke:#999; stroke-width:3;" />
  <line x1="1467" y1="50.0" x2="1487" y2="50.0" style="stroke:#999; stroke-width:3;" />
  <rect class="anc_exon" x="1487" y="35.0" width="81" height="30" style="fill:#87bcbc;fill-opacity:1.00" />
  <line x1="1568" y1="50.0" x2="1608" y2="50.0" style="stroke:#999; stroke-width:3;" />
  <rect class="anc_exon" x="1608" y="35.0" width="72" height="30" style="fill:#87bcbc;fill-opacity:1.00" />
  <line x1="1680" y1="50.0" x2="1720" y2="50.0" style="stroke:#999; stroke-width:3;" />
  <rect class="anc_exon" x="1720" y="35.0" width="74" height="30" style="fill:#87bcbc;fill-opacity:1.00" />
  <line x1="1794" y1="50.0" x2="1814" y2="50.0" style="stroke:#999; stroke-width:3;" />
  <line x1="1814" y1="50.0" x2="1814" y2="50.0" style="stroke:#999; stroke-width:3;" />
  <line x1="1814" y1="50.0" x2="1814" y2="50.0" style="stroke:#999; stroke-width:3;" />
  <line x1="1814" y1="50.0" x2="1834" y2="50.0" style="stroke:#999; stroke-width:3;" />
  <rect class="anc_exon" x="1834" y="35.0" width="125" height="30" style="fill:#87bcbc;fill-opacity:1.00" />
  <line x1="1959" y1="50.0" x2="1979" y2="50.0" style="stroke:#999; stroke-width:3;" />
  <line x1="1979" y1="50.0" x2="1979" y2="50.0" style="stroke:#999; stroke-width:3;" />
  <line x1="1979" y1="50.0" x2="1979" y2="50.0" style="stroke:#999; stroke-width:3;" />
  <line x1="1979" y1="50.0" x2="1999" y2="50.0" style="stroke:#999; stroke-width:3;" />
  <rect class="anc_exon" x="1999" y="35.0" width="76" height="30" style="fill:#87bcbc;fill-opacity:1.00" />
  <line x1="2075" y1="50.0" x2="2115" y2="50.0" style="stroke:#999; stroke-width:3;" />
  <rect class="anc_exon" x="2115" y="35.0" width="28" height="30" style="fill:#87bcbc;fill-opacity:1.00" />
  <rect class="anc_exon" x="2143" y="35.0" width="0" height="30" style="fill:#87bcbc;fill-opacity:1.00" />
  <text style="" >
<tspan x="0" y="83.0" style="font-size:18px;" >SP XM_031941713_1.1</tspan>  </text>



<script type="text/ecmascript">
<![CDATA[
function draw_bbox(text_id)
{
    var text_elem = document.getElementById(text_id);
    var offset_px = 2;
    var offset_py = 0;
    bbox = text_elem.getBBox();
    var box = document.createElementNS(document.rootElement.namespaceURI,'rect');
    box.setAttribute('x', bbox.x - offset_px);
    box.setAttribute('y', bbox.y - offset_py);
    box.setAttribute('width', bbox.width + offset_px * 2);
    box.setAttribute('height', bbox.height + offset_py * 2);
    box.setAttribute('style','fill: white;'+'stroke: black;'+'stroke-width: 1px;');
    text_elem.insertBefore(box,text_elem.childNodes[0]);

    var svg = text_elem.parentNode;
    svg.appendChild(text_elem);
}

for (var i=1; i < 1; i++)
{
draw_bbox("Mouseover" + i);
}
]]> 
</script>
</svg>
