<svg version="1.1"
xmlns="http://www.w3.org/2000/svg"
xmlns:xlink="http://www.w3.org/1999/xlink"
width="3994" height="100" viewBox = "0 0 3994 100"
onclick="mouseclick(evt)">

<script type="text/ecmascript">

<![CDATA[
    function mouseover(evt, target) { 
    var gv = document.getElementById("globalVariable");
    var previoustarget = gv.firstChild.nodeValue;
    if (previoustarget != "none") 
    {
        	document.getElementById(gv.firstChild.nodeValue).setAttributeNS(null, "visibility", "hidden");
    }
    document.getElementById(target).setAttributeNS(null, "visibility", "visible");
    gv.firstChild.nodeValue = target;
        }

    function mouseclick(evt) { 
    var gv = document.getElementById("globalVariable");
    var previoustarget = gv.firstChild.nodeValue;
    if (previoustarget != "none") {
        	document.getElementById(gv.firstChild.nodeValue).setAttributeNS(null, "visibility", "hidden");
        }
    }
]]>
  </script>
<style type="text/css" >

<![CDATA[
    rect.anc_exon {
              stroke-width:3;
                  }

    rect.non_anc_exon {
              stroke: black; stroke-width:3; stroke-dasharray: 5,5;
                    }

    text {
              font-size: 18px;
              font-family: Courier New;
          }
                    ]]>
</style>

<defs>
    <text x="150" y="40" id="globalVariable">none</text>
</defs>

  <rect class="anc_exon" x="0" y="35.0" width="0" height="30" style="fill:#87bcbc;fill-opacity:1.00" />
  <rect class="anc_exon" x="0" y="35.0" width="92.0" height="30" style="fill:#878787;fill-opacity:1.00" />
  <line x1="92.0" y1="50.0" x2="112.0" y2="50.0" style="stroke:#999; stroke-width:3;" />
  <line x1="112.0" y1="50.0" x2="112.0" y2="50.0" style="stroke:#999; stroke-width:3;" />
  <line x1="112.0" y1="50.0" x2="112.0" y2="50.0" style="stroke:#999; stroke-width:3;" />
  <line x1="112.0" y1="50.0" x2="132.0" y2="50.0" style="stroke:#999; stroke-width:3;" />
  <rect class="anc_exon" x="132" y="35.0" width="57" height="30" style="fill:#87bcbc;fill-opacity:1.00" />
  <line x1="189" y1="50.0" x2="229" y2="50.0" style="stroke:#999; stroke-width:3;" />
  <rect class="anc_exon" x="229" y="35.0" width="88" height="30" style="fill:#87bcbc;fill-opacity:1.00" />
  <line x1="317" y1="50.0" x2="337" y2="50.0" style="stroke:#999; stroke-width:3;" />
  <line x1="337" y1="50.0" x2="337" y2="50.0" style="stroke:#999; stroke-width:3;" />
  <line x1="337" y1="50.0" x2="337" y2="50.0" style="stroke:#999; stroke-width:3;" />
  <line x1="337" y1="50.0" x2="357" y2="50.0" style="stroke:#999; stroke-width:3;" />
  <rect class="anc_exon" x="357" y="35.0" width="528" height="30" style="fill:#878787;fill-opacity:1.00" />
  <line x1="885" y1="50.0" x2="905" y2="50.0" style="stroke:#999; stroke-width:3;" />
  <line x1="905" y1="50.0" x2="905" y2="50.0" style="stroke:#999; stroke-width:3;" />
  <line x1="905" y1="50.0" x2="905" y2="50.0" style="stroke:#999; stroke-width:3;" />
  <line x1="905" y1="50.0" x2="925" y2="50.0" style="stroke:#999; stroke-width:3;" />
  <rect class="anc_exon" x="925" y="35.0" width="150" height="30" style="fill:#87bcbc;fill-opacity:1.00" />
  <line x1="1075" y1="50.0" x2="1095" y2="50.0" style="stroke:#999; stroke-width:3;" />
  <line x1="1095" y1="50.0" x2="1095" y2="50.0" style="stroke:#999; stroke-width:3;" />
  <line x1="1095" y1="50.0" x2="1095" y2="50.0" style="stroke:#999; stroke-width:3;" />
  <line x1="1095" y1="50.0" x2="1115" y2="50.0" style="stroke:#999; stroke-width:3;" />
  <rect class="anc_exon" x="1115" y="35.0" width="242" height="30" style="fill:#87bcbc;fill-opacity:1.00" />
  <line x1="1357" y1="50.0" x2="1377" y2="50.0" style="stroke:#999; stroke-width:3;" />
  <line x1="1377" y1="50.0" x2="1377" y2="50.0" style="stroke:#999; stroke-width:3;" />
  <line x1="1377" y1="50.0" x2="1377" y2="50.0" style="stroke:#999; stroke-width:3;" />
  <line x1="1377" y1="50.0" x2="1397" y2="50.0" style="stroke:#999; stroke-width:3;" />
  <rect class="anc_exon" x="1397" y="35.0" width="172" height="30" style="fill:#87bcbc;fill-opacity:1.00" />
  <line x1="1569" y1="50.0" x2="1609" y2="50.0" style="stroke:#999; stroke-width:3;" />
  <rect class="anc_exon" x="1609" y="35.0" width="188" height="30" style="fill:#87bcbc;fill-opacity:1.00" />
  <line x1="1797" y1="50.0" x2="1837" y2="50.0" style="stroke:#999; stroke-width:3;" />
  <rect class="anc_exon" x="1837" y="35.0" width="120" height="30" style="fill:#87bcbc;fill-opacity:1.00" />
  <line x1="1957" y1="50.0" x2="1997" y2="50.0" style="stroke:#999; stroke-width:3;" />
  <rect class="anc_exon" x="1997" y="35.0" width="75" height="30" style="fill:#87bcbc;fill-opacity:1.00" />
  <line x1="2072" y1="50.0" x2="2092" y2="50.0" style="stroke:#999; stroke-width:3;" />
  <line x1="2092" y1="50.0" x2="2092" y2="50.0" style="stroke:#999; stroke-width:3;" />
  <line x1="2092" y1="50.0" x2="2092" y2="50.0" style="stroke:#999; stroke-width:3;" />
  <line x1="2092" y1="50.0" x2="2112" y2="50.0" style="stroke:#999; stroke-width:3;" />
  <rect class="anc_exon" x="2112" y="35.0" width="105" height="30" style="fill:#87bcbc;fill-opacity:1.00" />
  <line x1="2217" y1="50.0" x2="2237" y2="50.0" style="stroke:#999; stroke-width:3;" />
  <line x1="2237" y1="50.0" x2="2237" y2="50.0" style="stroke:#999; stroke-width:3;" />
  <line x1="2237" y1="50.0" x2="2237" y2="50.0" style="stroke:#999; stroke-width:3;" />
  <line x1="2237" y1="50.0" x2="2257" y2="50.0" style="stroke:#999; stroke-width:3;" />
  <rect class="anc_exon" x="2257" y="35.0" width="122" height="30" style="fill:#87bcbc;fill-opacity:1.00" />
  <line x1="2379" y1="50.0" x2="2419" y2="50.0" style="stroke:#999; stroke-width:3;" />
  <rect class="anc_exon" x="2419" y="35.0" width="68" height="30" style="fill:#87bcbc;fill-opacity:1.00" />
  <line x1="2487" y1="50.0" x2="2527" y2="50.0" style="stroke:#999; stroke-width:3;" />
  <rect class="anc_exon" x="2527" y="35.0" width="68" height="30" style="fill:#878787;fill-opacity:1.00" />
  <line x1="2595" y1="50.0" x2="2635" y2="50.0" style="stroke:#999; stroke-width:3;" />
  <rect class="anc_exon" x="2635" y="35.0" width="103" height="30" style="fill:#87bcbc;fill-opacity:1.00" />
  <line x1="2738" y1="50.0" x2="2778" y2="50.0" style="stroke:#999; stroke-width:3;" />
  <rect class="anc_exon" x="2778" y="35.0" width="97" height="30" style="fill:#87bcbc;fill-opacity:1.00" />
  <line x1="2875" y1="50.0" x2="2915" y2="50.0" style="stroke:#999; stroke-width:3;" />
  <rect class="anc_exon" x="2915" y="35.0" width="116" height="30" style="fill:#87bcbc;fill-opacity:1.00" />
  <line x1="3031" y1="50.0" x2="3071" y2="50.0" style="stroke:#999; stroke-width:3;" />
  <rect class="anc_exon" x="3071" y="35.0" width="95" height="30" style="fill:#87bcbc;fill-opacity:1.00" />
  <line x1="3166" y1="50.0" x2="3206" y2="50.0" style="stroke:#999; stroke-width:3;" />
  <rect class="anc_exon" x="3206" y="35.0" width="145" height="30" style="fill:#878787;fill-opacity:1.00" />
  <line x1="3351" y1="50.0" x2="3391" y2="50.0" style="stroke:#999; stroke-width:3;" />
  <rect class="anc_exon" x="3391" y="35.0" width="66" height="30" style="fill:#87bcbc;fill-opacity:1.00" />
  <line x1="3457" y1="50.0" x2="3497" y2="50.0" style="stroke:#999; stroke-width:3;" />
  <rect class="anc_exon" x="3497" y="35.0" width="99" height="30" style="fill:#87bcbc;fill-opacity:1.00" />
  <line x1="3596" y1="50.0" x2="3636" y2="50.0" style="stroke:#999; stroke-width:3;" />
  <rect class="anc_exon" x="3636" y="35.0" width="135" height="30" style="fill:#87bcbc;fill-opacity:1.00" />
  <line x1="3771" y1="50.0" x2="3811" y2="50.0" style="stroke:#999; stroke-width:3;" />
  <rect class="anc_exon" x="3811" y="35.0" width="147" height="30" style="fill:#87bcbc;fill-opacity:1.00" />
  <rect class="anc_exon" x="3958" y="35.0" width="0" height="30" style="fill:#87bcbc;fill-opacity:1.00" />
  <text style="" >
<tspan x="0" y="83.0" style="font-size:18px;" >SP XM_031941996_1.1</tspan>  </text>



<script type="text/ecmascript">
<![CDATA[
function draw_bbox(text_id)
{
    var text_elem = document.getElementById(text_id);
    var offset_px = 2;
    var offset_py = 0;
    bbox = text_elem.getBBox();
    var box = document.createElementNS(document.rootElement.namespaceURI,'rect');
    box.setAttribute('x', bbox.x - offset_px);
    box.setAttribute('y', bbox.y - offset_py);
    box.setAttribute('width', bbox.width + offset_px * 2);
    box.setAttribute('height', bbox.height + offset_py * 2);
    box.setAttribute('style','fill: white;'+'stroke: black;'+'stroke-width: 1px;');
    text_elem.insertBefore(box,text_elem.childNodes[0]);

    var svg = text_elem.parentNode;
    svg.appendChild(text_elem);
}

for (var i=1; i < 1; i++)
{
draw_bbox("Mouseover" + i);
}
]]> 
</script>
</svg>
