<svg version="1.1"
xmlns="http://www.w3.org/2000/svg"
xmlns:xlink="http://www.w3.org/1999/xlink"
width="2710" height="110.0" viewBox = "0 -10.0 2710 110.0"
onclick="mouseclick(evt)">

<script type="text/ecmascript">

<![CDATA[
    function mouseover(evt, target) { 
    var gv = document.getElementById("globalVariable");
    var previoustarget = gv.firstChild.nodeValue;
    if (previoustarget != "none") 
    {
        	document.getElementById(gv.firstChild.nodeValue).setAttributeNS(null, "visibility", "hidden");
    }
    document.getElementById(target).setAttributeNS(null, "visibility", "visible");
    gv.firstChild.nodeValue = target;
        }

    function mouseclick(evt) { 
    var gv = document.getElementById("globalVariable");
    var previoustarget = gv.firstChild.nodeValue;
    if (previoustarget != "none") {
        	document.getElementById(gv.firstChild.nodeValue).setAttributeNS(null, "visibility", "hidden");
        }
    }
]]>
  </script>
<style type="text/css" >

<![CDATA[
    rect.anc_exon {
              stroke-width:3;
                  }

    rect.non_anc_exon {
              stroke: black; stroke-width:3; stroke-dasharray: 5,5;
                    }

    text {
              font-size: 18px;
              font-family: Courier New;
          }
                    ]]>
</style>

<defs>
    <text x="150" y="40" id="globalVariable">none</text>
</defs>

  <rect class="anc_exon" x="0" y="35.0" width="0" height="30" style="fill:#87bcbc;fill-opacity:1.00" />
  <rect class="anc_exon" x="0" y="35.0" width="118.4" height="30" style="fill:#87bcbc;fill-opacity:1.00" />
  <line x1="118.4" y1="50.0" x2="137.4" y2="50.0" style="stroke:#999; stroke-width:3;" />
  <line x1="137.4" y1="50.0" x2="137.4" y2="50.0" style="stroke:#999; stroke-width:3;" />
  <line x1="137.4" y1="50.0" x2="137.4" y2="50.0" style="stroke:#999; stroke-width:3;" />
  <line x1="137.4" y1="50.0" x2="158.0" y2="50.0" style="stroke:#999; stroke-width:3;" />
  <rect class="anc_exon" x="158" y="35.0" width="164" height="30" style="fill:#87bcbc;fill-opacity:1.00" />
  <line x1="322" y1="50.0" x2="342" y2="50.0" style="stroke:#999; stroke-width:3;" />
  <line x1="342" y1="50.0" x2="342" y2="50.0" style="stroke:#999; stroke-width:3;" />
  <line x1="342" y1="50.0" x2="342" y2="50.0" style="stroke:#999; stroke-width:3;" />
  <line x1="342" y1="50.0" x2="362" y2="50.0" style="stroke:#999; stroke-width:3;" />
  <rect class="anc_exon" x="362" y="35.0" width="168" height="30" style="fill:#87bcbc;fill-opacity:1.00" />
  <line x1="530" y1="50.0" x2="570" y2="50.0" style="stroke:#999; stroke-width:3;" />
  <rect class="anc_exon" x="570" y="35.0" width="151" height="30" style="fill:#87bcbc;fill-opacity:1.00" />
  <line x1="721" y1="50.0" x2="761" y2="50.0" style="stroke:#999; stroke-width:3;" />
  <rect class="anc_exon" x="761" y="35.0" width="113" height="30" style="fill:#87bcbc;fill-opacity:1.00" />
  <line x1="874" y1="50.0" x2="894" y2="50.0" style="stroke:#999; stroke-width:3;" />
  <line x1="894" y1="50.0" x2="894" y2="50.0" style="stroke:#999; stroke-width:3;" />
  <line x1="894" y1="50.0" x2="894" y2="50.0" style="stroke:#999; stroke-width:3;" />
  <line x1="894" y1="50.0" x2="914" y2="50.0" style="stroke:#999; stroke-width:3;" />
  <rect class="anc_exon" x="914" y="35.0" width="170" height="30" style="fill:#87bcbc;fill-opacity:1.00" />
  <line x1="1084" y1="50.0" x2="1104" y2="50.0" style="stroke:#999; stroke-width:3;" />
  <line x1="1104" y1="50.0" x2="1104" y2="50.0" style="stroke:#999; stroke-width:3;" />
  <line x1="1104" y1="50.0" x2="1104" y2="50.0" style="stroke:#999; stroke-width:3;" />
  <line x1="1104" y1="50.0" x2="1124" y2="50.0" style="stroke:#999; stroke-width:3;" />
  <rect class="anc_exon" x="1124" y="35.0" width="174" height="30" style="fill:#87bcbc;fill-opacity:1.00" />
  <line x1="1298" y1="50.0" x2="1318" y2="50.0" style="stroke:#999; stroke-width:3;" />
  <line x1="1318" y1="50.0" x2="1318" y2="50.0" style="stroke:#999; stroke-width:3;" />
  <line x1="1318" y1="50.0" x2="1318" y2="50.0" style="stroke:#999; stroke-width:3;" />
  <line x1="1318" y1="50.0" x2="1338" y2="50.0" style="stroke:#999; stroke-width:3;" />
  <rect class="anc_exon" x="1338" y="35.0" width="364" height="30" style="fill:#87bcbc;fill-opacity:1.00" />
  <line x1="1702" y1="50.0" x2="1722" y2="50.0" style="stroke:#999; stroke-width:3;" />
  <line x1="1722" y1="50.0" x2="1722" y2="50.0" style="stroke:#999; stroke-width:3;" />
  <line x1="1722" y1="50.0" x2="1722" y2="50.0" style="stroke:#999; stroke-width:3;" />
  <line x1="1722" y1="50.0" x2="1742" y2="50.0" style="stroke:#999; stroke-width:3;" />
  <rect class="anc_exon" x="1742" y="35.0" width="153" height="30" style="fill:#87bcbc;fill-opacity:1.00" />
  <line x1="1895" y1="50.0" x2="1915" y2="50.0" style="stroke:#999; stroke-width:3;" />
  <line x1="1915" y1="50.0" x2="1915" y2="50.0" style="stroke:#999; stroke-width:3;" />
  <line x1="1915" y1="50.0" x2="1915" y2="50.0" style="stroke:#999; stroke-width:3;" />
  <line x1="1915" y1="50.0" x2="1935" y2="50.0" style="stroke:#999; stroke-width:3;" />
  <rect class="anc_exon" x="1935" y="35.0" width="248" height="30" style="fill:#87bcbc;fill-opacity:1.00" />
  <line x1="2183" y1="50.0" x2="2203" y2="50.0" style="stroke:#999; stroke-width:3;" />
  <line x1="2203" y1="50.0" x2="2203" y2="50.0" style="stroke:#999; stroke-width:3;" />
  <line x1="2203" y1="50.0" x2="2203" y2="50.0" style="stroke:#999; stroke-width:3;" />
  <line x1="2203" y1="50.0" x2="2223" y2="50.0" style="stroke:#999; stroke-width:3;" />
  <rect class="anc_exon" x="2223" y="35.0" width="131" height="30" style="fill:#87bcbc;fill-opacity:1.00" />
  <line x1="2354" y1="50.0" x2="2374" y2="50.0" style="stroke:#999; stroke-width:3;" />
  <line x1="2374" y1="50.0" x2="2374" y2="50.0" style="stroke:#999; stroke-width:3;" />
  <line x1="2374" y1="50.0" x2="2374" y2="50.0" style="stroke:#999; stroke-width:3;" />
  <line x1="2374" y1="50.0" x2="2394" y2="50.0" style="stroke:#999; stroke-width:3;" />
  <rect class="anc_exon" x="2394" y="35.0" width="64" height="30" style="fill:#87bcbc;fill-opacity:1.00" />
  <line x1="2410.8" y1="35.0" x2="2410.8" y2="65.0" style="stroke:#121212; stroke-width:1.6; stroke-opacity:1"/>
  <text style="" text-anchor="middle">
<tspan x="2410.0" y="26.0" style="font-size:18px;fill:#121212;" >-2</tspan>  </text>
  <line x1="2458" y1="50.0" x2="2478" y2="50.0" style="stroke:#999; stroke-width:3;" />
  <line x1="2478" y1="50.0" x2="2478" y2="50.0" style="stroke:#999; stroke-width:3;" />
  <line x1="2478" y1="50.0" x2="2478" y2="50.0" style="stroke:#999; stroke-width:3;" />
  <line x1="2478" y1="50.0" x2="2498" y2="50.0" style="stroke:#999; stroke-width:3;" />
  <rect class="anc_exon" x="2498" y="35.0" width="176" height="30" style="fill:#87bcbc;fill-opacity:1.00" />
  <rect class="anc_exon" x="2674" y="35.0" width="0" height="30" style="fill:#87bcbc;fill-opacity:1.00" />
  <text style="" >
<tspan x="0" y="83.0" style="font-size:18px;" >SP XM_031943275_1.1</tspan>  </text>
  <text style="fill:#121212;" >
<tspan x="2370.96" y="68.0" style="font-size:18px;fill:#121212;" >at</tspan>  </text>



<script type="text/ecmascript">
<![CDATA[
function draw_bbox(text_id)
{
    var text_elem = document.getElementById(text_id);
    var offset_px = 2;
    var offset_py = 0;
    bbox = text_elem.getBBox();
    var box = document.createElementNS(document.rootElement.namespaceURI,'rect');
    box.setAttribute('x', bbox.x - offset_px);
    box.setAttribute('y', bbox.y - offset_py);
    box.setAttribute('width', bbox.width + offset_px * 2);
    box.setAttribute('height', bbox.height + offset_py * 2);
    box.setAttribute('style','fill: white;'+'stroke: black;'+'stroke-width: 1px;');
    text_elem.insertBefore(box,text_elem.childNodes[0]);

    var svg = text_elem.parentNode;
    svg.appendChild(text_elem);
}

for (var i=1; i < 1; i++)
{
draw_bbox("Mouseover" + i);
}
]]> 
</script>
</svg>
