<svg version="1.1"
xmlns="http://www.w3.org/2000/svg"
xmlns:xlink="http://www.w3.org/1999/xlink"
width="4049" height="100" viewBox = "0 0 4049 100"
onclick="mouseclick(evt)">

<script type="text/ecmascript">

<![CDATA[
    function mouseover(evt, target) { 
    var gv = document.getElementById("globalVariable");
    var previoustarget = gv.firstChild.nodeValue;
    if (previoustarget != "none") 
    {
        	document.getElementById(gv.firstChild.nodeValue).setAttributeNS(null, "visibility", "hidden");
    }
    document.getElementById(target).setAttributeNS(null, "visibility", "visible");
    gv.firstChild.nodeValue = target;
        }

    function mouseclick(evt) { 
    var gv = document.getElementById("globalVariable");
    var previoustarget = gv.firstChild.nodeValue;
    if (previoustarget != "none") {
        	document.getElementById(gv.firstChild.nodeValue).setAttributeNS(null, "visibility", "hidden");
        }
    }
]]>
  </script>
<style type="text/css" >

<![CDATA[
    rect.anc_exon {
              stroke-width:3;
                  }

    rect.non_anc_exon {
              stroke: black; stroke-width:3; stroke-dasharray: 5,5;
                    }

    text {
              font-size: 18px;
              font-family: Courier New;
          }
                    ]]>
</style>

<defs>
    <text x="150" y="40" id="globalVariable">none</text>
</defs>

  <rect class="anc_exon" x="0" y="35.0" width="0" height="30" style="fill:#87bcbc;fill-opacity:1.00" />
  <rect class="anc_exon" x="0" y="35.0" width="100.80000000000001" height="30" style="fill:#87bcbc;fill-opacity:1.00" />
  <line x1="100.80000000000001" y1="50.0" x2="140.0" y2="50.0" style="stroke:#999; stroke-width:3;" />
  <rect class="anc_exon" x="140" y="35.0" width="120" height="30" style="fill:#87bcbc;fill-opacity:1.00" />
  <line x1="260" y1="50.0" x2="300" y2="50.0" style="stroke:#999; stroke-width:3;" />
  <rect class="anc_exon" x="300" y="35.0" width="56" height="30" style="fill:#87bcbc;fill-opacity:1.00" />
  <line x1="356" y1="50.0" x2="376" y2="50.0" style="stroke:#999; stroke-width:3;" />
  <line x1="376" y1="50.0" x2="376" y2="50.0" style="stroke:#999; stroke-width:3;" />
  <line x1="376" y1="50.0" x2="376" y2="50.0" style="stroke:#999; stroke-width:3;" />
  <line x1="376" y1="50.0" x2="396" y2="50.0" style="stroke:#999; stroke-width:3;" />
  <rect class="anc_exon" x="396" y="35.0" width="92" height="30" style="fill:#87bcbc;fill-opacity:1.00" />
  <line x1="488" y1="50.0" x2="508" y2="50.0" style="stroke:#999; stroke-width:3;" />
  <line x1="508" y1="50.0" x2="508" y2="50.0" style="stroke:#999; stroke-width:3;" />
  <line x1="508" y1="50.0" x2="508" y2="50.0" style="stroke:#999; stroke-width:3;" />
  <line x1="508" y1="50.0" x2="528" y2="50.0" style="stroke:#999; stroke-width:3;" />
  <rect class="anc_exon" x="528" y="35.0" width="324" height="30" style="fill:#87bcbc;fill-opacity:1.00" />
  <line x1="852" y1="50.0" x2="872" y2="50.0" style="stroke:#999; stroke-width:3;" />
  <line x1="872" y1="50.0" x2="872" y2="50.0" style="stroke:#999; stroke-width:3;" />
  <line x1="872" y1="50.0" x2="872" y2="50.0" style="stroke:#999; stroke-width:3;" />
  <line x1="872" y1="50.0" x2="892" y2="50.0" style="stroke:#999; stroke-width:3;" />
  <rect class="anc_exon" x="892" y="35.0" width="64" height="30" style="fill:#87bcbc;fill-opacity:1.00" />
  <line x1="956" y1="50.0" x2="996" y2="50.0" style="stroke:#999; stroke-width:3;" />
  <rect class="anc_exon" x="996" y="35.0" width="104" height="30" style="fill:#87bcbc;fill-opacity:1.00" />
  <line x1="1100" y1="50.0" x2="1140" y2="50.0" style="stroke:#999; stroke-width:3;" />
  <rect class="anc_exon" x="1140" y="35.0" width="60" height="30" style="fill:#87bcbc;fill-opacity:1.00" />
  <line x1="1200" y1="50.0" x2="1240" y2="50.0" style="stroke:#999; stroke-width:3;" />
  <rect class="anc_exon" x="1240" y="35.0" width="54" height="30" style="fill:#87bcbc;fill-opacity:1.00" />
  <line x1="1294" y1="50.0" x2="1334" y2="50.0" style="stroke:#999; stroke-width:3;" />
  <rect class="anc_exon" x="1334" y="35.0" width="87" height="30" style="fill:#87bcbc;fill-opacity:1.00" />
  <line x1="1421" y1="50.0" x2="1461" y2="50.0" style="stroke:#999; stroke-width:3;" />
  <rect class="anc_exon" x="1461" y="35.0" width="55" height="30" style="fill:#87bcbc;fill-opacity:1.00" />
  <line x1="1516" y1="50.0" x2="1536" y2="50.0" style="stroke:#999; stroke-width:3;" />
  <line x1="1536" y1="50.0" x2="1536" y2="50.0" style="stroke:#999; stroke-width:3;" />
  <line x1="1536" y1="50.0" x2="1536" y2="50.0" style="stroke:#999; stroke-width:3;" />
  <line x1="1536" y1="50.0" x2="1556" y2="50.0" style="stroke:#999; stroke-width:3;" />
  <rect class="anc_exon" x="1556" y="35.0" width="66" height="30" style="fill:#87bcbc;fill-opacity:1.00" />
  <line x1="1622" y1="50.0" x2="1642" y2="50.0" style="stroke:#999; stroke-width:3;" />
  <line x1="1642" y1="50.0" x2="1642" y2="50.0" style="stroke:#999; stroke-width:3;" />
  <line x1="1642" y1="50.0" x2="1642" y2="50.0" style="stroke:#999; stroke-width:3;" />
  <line x1="1642" y1="50.0" x2="1662" y2="50.0" style="stroke:#999; stroke-width:3;" />
  <rect class="anc_exon" x="1662" y="35.0" width="85" height="30" style="fill:#87bcbc;fill-opacity:1.00" />
  <line x1="1747" y1="50.0" x2="1787" y2="50.0" style="stroke:#999; stroke-width:3;" />
  <rect class="anc_exon" x="1787" y="35.0" width="150" height="30" style="fill:#87bcbc;fill-opacity:1.00" />
  <line x1="1937" y1="50.0" x2="1957" y2="50.0" style="stroke:#999; stroke-width:3;" />
  <line x1="1957" y1="50.0" x2="1957" y2="50.0" style="stroke:#999; stroke-width:3;" />
  <line x1="1957" y1="50.0" x2="1957" y2="50.0" style="stroke:#999; stroke-width:3;" />
  <line x1="1957" y1="50.0" x2="1977" y2="50.0" style="stroke:#999; stroke-width:3;" />
  <rect class="anc_exon" x="1977" y="35.0" width="140" height="30" style="fill:#87bcbc;fill-opacity:1.00" />
  <line x1="2117" y1="50.0" x2="2137" y2="50.0" style="stroke:#999; stroke-width:3;" />
  <line x1="2137" y1="50.0" x2="2137" y2="50.0" style="stroke:#999; stroke-width:3;" />
  <line x1="2137" y1="50.0" x2="2137" y2="50.0" style="stroke:#999; stroke-width:3;" />
  <line x1="2137" y1="50.0" x2="2157" y2="50.0" style="stroke:#999; stroke-width:3;" />
  <rect class="anc_exon" x="2157" y="35.0" width="145" height="30" style="fill:#87bcbc;fill-opacity:1.00" />
  <line x1="2302" y1="50.0" x2="2342" y2="50.0" style="stroke:#999; stroke-width:3;" />
  <rect class="anc_exon" x="2342" y="35.0" width="81" height="30" style="fill:#87bcbc;fill-opacity:1.00" />
  <line x1="2423" y1="50.0" x2="2463" y2="50.0" style="stroke:#999; stroke-width:3;" />
  <rect class="anc_exon" x="2463" y="35.0" width="74" height="30" style="fill:#87bcbc;fill-opacity:1.00" />
  <line x1="2537" y1="50.0" x2="2577" y2="50.0" style="stroke:#999; stroke-width:3;" />
  <rect class="anc_exon" x="2577" y="35.0" width="113" height="30" style="fill:#87bcbc;fill-opacity:1.00" />
  <line x1="2690" y1="50.0" x2="2710" y2="50.0" style="stroke:#999; stroke-width:3;" />
  <line x1="2710" y1="50.0" x2="2710" y2="50.0" style="stroke:#999; stroke-width:3;" />
  <line x1="2710" y1="50.0" x2="2710" y2="50.0" style="stroke:#999; stroke-width:3;" />
  <line x1="2710" y1="50.0" x2="2730" y2="50.0" style="stroke:#999; stroke-width:3;" />
  <rect class="anc_exon" x="2730" y="35.0" width="136" height="30" style="fill:#87bcbc;fill-opacity:1.00" />
  <line x1="2866" y1="50.0" x2="2906" y2="50.0" style="stroke:#999; stroke-width:3;" />
  <rect class="anc_exon" x="2906" y="35.0" width="78" height="30" style="fill:#87bcbc;fill-opacity:1.00" />
  <line x1="2984" y1="50.0" x2="3004" y2="50.0" style="stroke:#999; stroke-width:3;" />
  <line x1="3004" y1="50.0" x2="3004" y2="50.0" style="stroke:#999; stroke-width:3;" />
  <line x1="3004" y1="50.0" x2="3004" y2="50.0" style="stroke:#999; stroke-width:3;" />
  <line x1="3004" y1="50.0" x2="3024" y2="50.0" style="stroke:#999; stroke-width:3;" />
  <rect class="anc_exon" x="3024" y="35.0" width="82" height="30" style="fill:#87bcbc;fill-opacity:1.00" />
  <line x1="3106" y1="50.0" x2="3146" y2="50.0" style="stroke:#999; stroke-width:3;" />
  <rect class="anc_exon" x="3146" y="35.0" width="90" height="30" style="fill:#87bcbc;fill-opacity:1.00" />
  <line x1="3236" y1="50.0" x2="3276" y2="50.0" style="stroke:#999; stroke-width:3;" />
  <rect class="anc_exon" x="3276" y="35.0" width="92" height="30" style="fill:#87bcbc;fill-opacity:1.00" />
  <line x1="3368" y1="50.0" x2="3388" y2="50.0" style="stroke:#999; stroke-width:3;" />
  <line x1="3388" y1="50.0" x2="3388" y2="50.0" style="stroke:#999; stroke-width:3;" />
  <line x1="3388" y1="50.0" x2="3388" y2="50.0" style="stroke:#999; stroke-width:3;" />
  <line x1="3388" y1="50.0" x2="3408" y2="50.0" style="stroke:#999; stroke-width:3;" />
  <rect class="anc_exon" x="3408" y="35.0" width="105" height="30" style="fill:#87bcbc;fill-opacity:1.00" />
  <line x1="3513" y1="50.0" x2="3533" y2="50.0" style="stroke:#999; stroke-width:3;" />
  <line x1="3533" y1="50.0" x2="3533" y2="50.0" style="stroke:#999; stroke-width:3;" />
  <line x1="3533" y1="50.0" x2="3533" y2="50.0" style="stroke:#999; stroke-width:3;" />
  <line x1="3533" y1="50.0" x2="3553" y2="50.0" style="stroke:#999; stroke-width:3;" />
  <rect class="anc_exon" x="3553" y="35.0" width="130" height="30" style="fill:#87bcbc;fill-opacity:1.00" />
  <line x1="3683" y1="50.0" x2="3703" y2="50.0" style="stroke:#999; stroke-width:3;" />
  <line x1="3703" y1="50.0" x2="3703" y2="50.0" style="stroke:#999; stroke-width:3;" />
  <line x1="3703" y1="50.0" x2="3703" y2="50.0" style="stroke:#999; stroke-width:3;" />
  <line x1="3703" y1="50.0" x2="3723" y2="50.0" style="stroke:#999; stroke-width:3;" />
  <rect class="anc_exon" x="3723" y="35.0" width="152" height="30" style="fill:#87bcbc;fill-opacity:1.00" />
  <line x1="3875" y1="50.0" x2="3895" y2="50.0" style="stroke:#999; stroke-width:3;" />
  <line x1="3895" y1="50.0" x2="3895" y2="50.0" style="stroke:#999; stroke-width:3;" />
  <line x1="3895" y1="50.0" x2="3895" y2="50.0" style="stroke:#999; stroke-width:3;" />
  <line x1="3895" y1="50.0" x2="3915" y2="50.0" style="stroke:#999; stroke-width:3;" />
  <rect class="anc_exon" x="3915" y="35.0" width="98" height="30" style="fill:#87bcbc;fill-opacity:1.00" />
  <rect class="anc_exon" x="4013" y="35.0" width="0" height="30" style="fill:#87bcbc;fill-opacity:1.00" />
  <text style="" >
<tspan x="0" y="83.0" style="font-size:18px;" >SP XM_023505649_2.1</tspan>  </text>



<script type="text/ecmascript">
<![CDATA[
function draw_bbox(text_id)
{
    var text_elem = document.getElementById(text_id);
    var offset_px = 2;
    var offset_py = 0;
    bbox = text_elem.getBBox();
    var box = document.createElementNS(document.rootElement.namespaceURI,'rect');
    box.setAttribute('x', bbox.x - offset_px);
    box.setAttribute('y', bbox.y - offset_py);
    box.setAttribute('width', bbox.width + offset_px * 2);
    box.setAttribute('height', bbox.height + offset_py * 2);
    box.setAttribute('style','fill: white;'+'stroke: black;'+'stroke-width: 1px;');
    text_elem.insertBefore(box,text_elem.childNodes[0]);

    var svg = text_elem.parentNode;
    svg.appendChild(text_elem);
}

for (var i=1; i < 1; i++)
{
draw_bbox("Mouseover" + i);
}
]]> 
</script>
</svg>
