<svg version="1.1"
xmlns="http://www.w3.org/2000/svg"
xmlns:xlink="http://www.w3.org/1999/xlink"
width="2094" height="100" viewBox = "0 0 2094 100"
onclick="mouseclick(evt)">

<script type="text/ecmascript">

<![CDATA[
    function mouseover(evt, target) { 
    var gv = document.getElementById("globalVariable");
    var previoustarget = gv.firstChild.nodeValue;
    if (previoustarget != "none") 
    {
        	document.getElementById(gv.firstChild.nodeValue).setAttributeNS(null, "visibility", "hidden");
    }
    document.getElementById(target).setAttributeNS(null, "visibility", "visible");
    gv.firstChild.nodeValue = target;
        }

    function mouseclick(evt) { 
    var gv = document.getElementById("globalVariable");
    var previoustarget = gv.firstChild.nodeValue;
    if (previoustarget != "none") {
        	document.getElementById(gv.firstChild.nodeValue).setAttributeNS(null, "visibility", "hidden");
        }
    }
]]>
  </script>
<style type="text/css" >

<![CDATA[
    rect.anc_exon {
              stroke-width:3;
                  }

    rect.non_anc_exon {
              stroke: black; stroke-width:3; stroke-dasharray: 5,5;
                    }

    text {
              font-size: 18px;
              font-family: Courier New;
          }
                    ]]>
</style>

<defs>
    <text x="150" y="40" id="globalVariable">none</text>
</defs>

  <rect class="anc_exon" x="0" y="35.0" width="0" height="30" style="fill:#87bcbc;fill-opacity:1.00" />
  <rect class="anc_exon" x="0" y="35.0" width="89.60000000000001" height="30" style="fill:#87bcbc;fill-opacity:1.00" />
  <line x1="89.60000000000001" y1="50.0" x2="108.60000000000001" y2="50.0" style="stroke:#999; stroke-width:3;" />
  <line x1="108.60000000000001" y1="50.0" x2="108.60000000000001" y2="50.0" style="stroke:#999; stroke-width:3;" />
  <line x1="108.60000000000001" y1="50.0" x2="108.60000000000001" y2="50.0" style="stroke:#999; stroke-width:3;" />
  <line x1="108.60000000000001" y1="50.0" x2="129.0" y2="50.0" style="stroke:#999; stroke-width:3;" />
  <rect class="anc_exon" x="129" y="35.0" width="146" height="30" style="fill:#87bcbc;fill-opacity:1.00" />
  <line x1="275" y1="50.0" x2="295" y2="50.0" style="stroke:#999; stroke-width:3;" />
  <line x1="295" y1="50.0" x2="295" y2="50.0" style="stroke:#999; stroke-width:3;" />
  <line x1="295" y1="50.0" x2="295" y2="50.0" style="stroke:#999; stroke-width:3;" />
  <line x1="295" y1="50.0" x2="315" y2="50.0" style="stroke:#999; stroke-width:3;" />
  <rect class="anc_exon" x="315" y="35.0" width="50" height="30" style="fill:#87bcbc;fill-opacity:1.00" />
  <line x1="365" y1="50.0" x2="385" y2="50.0" style="stroke:#999; stroke-width:3;" />
  <line x1="385" y1="50.0" x2="385" y2="50.0" style="stroke:#999; stroke-width:3;" />
  <line x1="385" y1="50.0" x2="385" y2="50.0" style="stroke:#999; stroke-width:3;" />
  <line x1="385" y1="50.0" x2="405" y2="50.0" style="stroke:#999; stroke-width:3;" />
  <rect class="anc_exon" x="405" y="35.0" width="80" height="30" style="fill:#87bcbc;fill-opacity:1.00" />
  <line x1="485" y1="50.0" x2="525" y2="50.0" style="stroke:#999; stroke-width:3;" />
  <rect class="anc_exon" x="525" y="35.0" width="74" height="30" style="fill:#87bcbc;fill-opacity:1.00" />
  <line x1="599" y1="50.0" x2="639" y2="50.0" style="stroke:#999; stroke-width:3;" />
  <rect class="anc_exon" x="639" y="35.0" width="66" height="30" style="fill:#87bcbc;fill-opacity:1.00" />
  <line x1="705" y1="50.0" x2="745" y2="50.0" style="stroke:#999; stroke-width:3;" />
  <rect class="anc_exon" x="745" y="35.0" width="47" height="30" style="fill:#87bcbc;fill-opacity:1.00" />
  <line x1="792" y1="50.0" x2="832" y2="50.0" style="stroke:#999; stroke-width:3;" />
  <rect class="anc_exon" x="832" y="35.0" width="54" height="30" style="fill:#87bcbc;fill-opacity:1.00" />
  <line x1="886" y1="50.0" x2="906" y2="50.0" style="stroke:#999; stroke-width:3;" />
  <line x1="906" y1="50.0" x2="906" y2="50.0" style="stroke:#999; stroke-width:3;" />
  <line x1="906" y1="50.0" x2="906" y2="50.0" style="stroke:#999; stroke-width:3;" />
  <line x1="906" y1="50.0" x2="926" y2="50.0" style="stroke:#999; stroke-width:3;" />
  <rect class="anc_exon" x="926" y="35.0" width="82" height="30" style="fill:#87bcbc;fill-opacity:1.00" />
  <line x1="1008" y1="50.0" x2="1028" y2="50.0" style="stroke:#999; stroke-width:3;" />
  <line x1="1028" y1="50.0" x2="1028" y2="50.0" style="stroke:#999; stroke-width:3;" />
  <line x1="1028" y1="50.0" x2="1028" y2="50.0" style="stroke:#999; stroke-width:3;" />
  <line x1="1028" y1="50.0" x2="1048" y2="50.0" style="stroke:#999; stroke-width:3;" />
  <rect class="anc_exon" x="1048" y="35.0" width="44" height="30" style="fill:#87bcbc;fill-opacity:1.00" />
  <line x1="1092" y1="50.0" x2="1112" y2="50.0" style="stroke:#999; stroke-width:3;" />
  <line x1="1112" y1="50.0" x2="1112" y2="50.0" style="stroke:#999; stroke-width:3;" />
  <line x1="1112" y1="50.0" x2="1112" y2="50.0" style="stroke:#999; stroke-width:3;" />
  <line x1="1112" y1="50.0" x2="1132" y2="50.0" style="stroke:#999; stroke-width:3;" />
  <rect class="anc_exon" x="1132" y="35.0" width="108" height="30" style="fill:#87bcbc;fill-opacity:1.00" />
  <line x1="1240" y1="50.0" x2="1260" y2="50.0" style="stroke:#999; stroke-width:3;" />
  <line x1="1260" y1="50.0" x2="1260" y2="50.0" style="stroke:#999; stroke-width:3;" />
  <line x1="1260" y1="50.0" x2="1260" y2="50.0" style="stroke:#999; stroke-width:3;" />
  <line x1="1260" y1="50.0" x2="1280" y2="50.0" style="stroke:#999; stroke-width:3;" />
  <rect class="anc_exon" x="1280" y="35.0" width="32" height="30" style="fill:#87bcbc;fill-opacity:1.00" />
  <line x1="1312" y1="50.0" x2="1352" y2="50.0" style="stroke:#999; stroke-width:3;" />
  <rect class="anc_exon" x="1352" y="35.0" width="57" height="30" style="fill:#87bcbc;fill-opacity:1.00" />
  <line x1="1409" y1="50.0" x2="1449" y2="50.0" style="stroke:#999; stroke-width:3;" />
  <rect class="anc_exon" x="1449" y="35.0" width="86" height="30" style="fill:#87bcbc;fill-opacity:1.00" />
  <line x1="1535" y1="50.0" x2="1555" y2="50.0" style="stroke:#999; stroke-width:3;" />
  <line x1="1555" y1="50.0" x2="1555" y2="50.0" style="stroke:#999; stroke-width:3;" />
  <line x1="1555" y1="50.0" x2="1555" y2="50.0" style="stroke:#999; stroke-width:3;" />
  <line x1="1555" y1="50.0" x2="1575" y2="50.0" style="stroke:#999; stroke-width:3;" />
  <rect class="anc_exon" x="1575" y="35.0" width="132" height="30" style="fill:#87bcbc;fill-opacity:1.00" />
  <line x1="1707" y1="50.0" x2="1727" y2="50.0" style="stroke:#999; stroke-width:3;" />
  <line x1="1727" y1="50.0" x2="1727" y2="50.0" style="stroke:#999; stroke-width:3;" />
  <line x1="1727" y1="50.0" x2="1727" y2="50.0" style="stroke:#999; stroke-width:3;" />
  <line x1="1727" y1="50.0" x2="1747" y2="50.0" style="stroke:#999; stroke-width:3;" />
  <rect class="anc_exon" x="1747" y="35.0" width="104" height="30" style="fill:#87bcbc;fill-opacity:1.00" />
  <line x1="1851" y1="50.0" x2="1891" y2="50.0" style="stroke:#999; stroke-width:3;" />
  <rect class="anc_exon" x="1891" y="35.0" width="91" height="30" style="fill:#87bcbc;fill-opacity:1.00" />
  <line x1="1982" y1="50.0" x2="2002" y2="50.0" style="stroke:#999; stroke-width:3;" />
  <line x1="2002" y1="50.0" x2="2002" y2="50.0" style="stroke:#999; stroke-width:3;" />
  <line x1="2002" y1="50.0" x2="2002" y2="50.0" style="stroke:#999; stroke-width:3;" />
  <line x1="2002" y1="50.0" x2="2022" y2="50.0" style="stroke:#999; stroke-width:3;" />
  <rect class="anc_exon" x="2022" y="35.0" width="36" height="30" style="fill:#87bcbc;fill-opacity:1.00" />
  <rect class="anc_exon" x="2058" y="35.0" width="0" height="30" style="fill:#87bcbc;fill-opacity:1.00" />
  <text style="" >
<tspan x="0" y="83.0" style="font-size:18px;" >SP XM_023506035_2.1</tspan>  </text>



<script type="text/ecmascript">
<![CDATA[
function draw_bbox(text_id)
{
    var text_elem = document.getElementById(text_id);
    var offset_px = 2;
    var offset_py = 0;
    bbox = text_elem.getBBox();
    var box = document.createElementNS(document.rootElement.namespaceURI,'rect');
    box.setAttribute('x', bbox.x - offset_px);
    box.setAttribute('y', bbox.y - offset_py);
    box.setAttribute('width', bbox.width + offset_px * 2);
    box.setAttribute('height', bbox.height + offset_py * 2);
    box.setAttribute('style','fill: white;'+'stroke: black;'+'stroke-width: 1px;');
    text_elem.insertBefore(box,text_elem.childNodes[0]);

    var svg = text_elem.parentNode;
    svg.appendChild(text_elem);
}

for (var i=1; i < 1; i++)
{
draw_bbox("Mouseover" + i);
}
]]> 
</script>
</svg>
