<svg version="1.1"
xmlns="http://www.w3.org/2000/svg"
xmlns:xlink="http://www.w3.org/1999/xlink"
width="1592" height="100" viewBox = "0 0 1592 100"
onclick="mouseclick(evt)">

<script type="text/ecmascript">

<![CDATA[
    function mouseover(evt, target) { 
    var gv = document.getElementById("globalVariable");
    var previoustarget = gv.firstChild.nodeValue;
    if (previoustarget != "none") 
    {
        	document.getElementById(gv.firstChild.nodeValue).setAttributeNS(null, "visibility", "hidden");
    }
    document.getElementById(target).setAttributeNS(null, "visibility", "visible");
    gv.firstChild.nodeValue = target;
        }

    function mouseclick(evt) { 
    var gv = document.getElementById("globalVariable");
    var previoustarget = gv.firstChild.nodeValue;
    if (previoustarget != "none") {
        	document.getElementById(gv.firstChild.nodeValue).setAttributeNS(null, "visibility", "hidden");
        }
    }
]]>
  </script>
<style type="text/css" >

<![CDATA[
    rect.anc_exon {
              stroke-width:3;
                  }

    rect.non_anc_exon {
              stroke: black; stroke-width:3; stroke-dasharray: 5,5;
                    }

    text {
              font-size: 18px;
              font-family: Courier New;
          }
                    ]]>
</style>

<defs>
    <text x="150" y="40" id="globalVariable">none</text>
</defs>

  <rect class="anc_exon" x="0" y="35.0" width="0" height="30" style="fill:#87bcbc;fill-opacity:1.00" />
  <rect class="anc_exon" x="0" y="35.0" width="88.0" height="30" style="fill:#87bcbc;fill-opacity:1.00" />
  <line x1="88.0" y1="50.0" x2="128.0" y2="50.0" style="stroke:#999; stroke-width:3;" />
  <rect class="anc_exon" x="128" y="35.0" width="60" height="30" style="fill:#87bcbc;fill-opacity:1.00" />
  <line x1="188" y1="50.0" x2="208" y2="50.0" style="stroke:#999; stroke-width:3;" />
  <line x1="208" y1="50.0" x2="208" y2="50.0" style="stroke:#999; stroke-width:3;" />
  <line x1="208" y1="50.0" x2="208" y2="50.0" style="stroke:#999; stroke-width:3;" />
  <line x1="208" y1="50.0" x2="228" y2="50.0" style="stroke:#999; stroke-width:3;" />
  <rect class="anc_exon" x="228" y="35.0" width="108" height="30" style="fill:#87bcbc;fill-opacity:1.00" />
  <line x1="336" y1="50.0" x2="356" y2="50.0" style="stroke:#999; stroke-width:3;" />
  <line x1="356" y1="50.0" x2="356" y2="50.0" style="stroke:#999; stroke-width:3;" />
  <line x1="356" y1="50.0" x2="356" y2="50.0" style="stroke:#999; stroke-width:3;" />
  <line x1="356" y1="50.0" x2="376" y2="50.0" style="stroke:#999; stroke-width:3;" />
  <rect class="anc_exon" x="376" y="35.0" width="116" height="30" style="fill:#87bcbc;fill-opacity:1.00" />
  <line x1="492" y1="50.0" x2="512" y2="50.0" style="stroke:#999; stroke-width:3;" />
  <line x1="512" y1="50.0" x2="512" y2="50.0" style="stroke:#999; stroke-width:3;" />
  <line x1="512" y1="50.0" x2="512" y2="50.0" style="stroke:#999; stroke-width:3;" />
  <line x1="512" y1="50.0" x2="532" y2="50.0" style="stroke:#999; stroke-width:3;" />
  <rect class="anc_exon" x="532" y="35.0" width="95" height="30" style="fill:#87bcbc;fill-opacity:1.00" />
  <line x1="627" y1="50.0" x2="667" y2="50.0" style="stroke:#999; stroke-width:3;" />
  <rect class="anc_exon" x="667" y="35.0" width="73" height="30" style="fill:#87bcbc;fill-opacity:1.00" />
  <line x1="740" y1="50.0" x2="780" y2="50.0" style="stroke:#999; stroke-width:3;" />
  <rect class="anc_exon" x="780" y="35.0" width="93" height="30" style="fill:#87bcbc;fill-opacity:1.00" />
  <line x1="873" y1="50.0" x2="893" y2="50.0" style="stroke:#999; stroke-width:3;" />
  <line x1="893" y1="50.0" x2="893" y2="50.0" style="stroke:#999; stroke-width:3;" />
  <line x1="893" y1="50.0" x2="893" y2="50.0" style="stroke:#999; stroke-width:3;" />
  <line x1="893" y1="50.0" x2="913" y2="50.0" style="stroke:#999; stroke-width:3;" />
  <rect class="anc_exon" x="913" y="35.0" width="87" height="30" style="fill:#87bcbc;fill-opacity:1.00" />
  <line x1="1000" y1="50.0" x2="1020" y2="50.0" style="stroke:#999; stroke-width:3;" />
  <line x1="1020" y1="50.0" x2="1020" y2="50.0" style="stroke:#999; stroke-width:3;" />
  <line x1="1020" y1="50.0" x2="1020" y2="50.0" style="stroke:#999; stroke-width:3;" />
  <line x1="1020" y1="50.0" x2="1040" y2="50.0" style="stroke:#999; stroke-width:3;" />
  <rect class="anc_exon" x="1040" y="35.0" width="136" height="30" style="fill:#87bcbc;fill-opacity:1.00" />
  <line x1="1176" y1="50.0" x2="1196" y2="50.0" style="stroke:#999; stroke-width:3;" />
  <line x1="1196" y1="50.0" x2="1196" y2="50.0" style="stroke:#999; stroke-width:3;" />
  <line x1="1196" y1="50.0" x2="1196" y2="50.0" style="stroke:#999; stroke-width:3;" />
  <line x1="1196" y1="50.0" x2="1216" y2="50.0" style="stroke:#999; stroke-width:3;" />
  <rect class="anc_exon" x="1216" y="35.0" width="134" height="30" style="fill:#87bcbc;fill-opacity:1.00" />
  <line x1="1350" y1="50.0" x2="1390" y2="50.0" style="stroke:#999; stroke-width:3;" />
  <rect class="anc_exon" x="1390" y="35.0" width="110" height="30" style="fill:#87bcbc;fill-opacity:1.00" />
  <line x1="1500" y1="50.0" x2="1540" y2="50.0" style="stroke:#999; stroke-width:3;" />
  <rect class="anc_exon" x="1540" y="35.0" width="16" height="30" style="fill:#87bcbc;fill-opacity:1.00" />
  <rect class="anc_exon" x="1556" y="35.0" width="0" height="30" style="fill:#87bcbc;fill-opacity:1.00" />
  <text style="" >
<tspan x="0" y="83.0" style="font-size:18px;" >SP XM_031939931_1.1</tspan>  </text>



<script type="text/ecmascript">
<![CDATA[
function draw_bbox(text_id)
{
    var text_elem = document.getElementById(text_id);
    var offset_px = 2;
    var offset_py = 0;
    bbox = text_elem.getBBox();
    var box = document.createElementNS(document.rootElement.namespaceURI,'rect');
    box.setAttribute('x', bbox.x - offset_px);
    box.setAttribute('y', bbox.y - offset_py);
    box.setAttribute('width', bbox.width + offset_px * 2);
    box.setAttribute('height', bbox.height + offset_py * 2);
    box.setAttribute('style','fill: white;'+'stroke: black;'+'stroke-width: 1px;');
    text_elem.insertBefore(box,text_elem.childNodes[0]);

    var svg = text_elem.parentNode;
    svg.appendChild(text_elem);
}

for (var i=1; i < 1; i++)
{
draw_bbox("Mouseover" + i);
}
]]> 
</script>
</svg>
