<svg version="1.1"
xmlns="http://www.w3.org/2000/svg"
xmlns:xlink="http://www.w3.org/1999/xlink"
width="1778" height="100" viewBox = "0 0 1778 100"
onclick="mouseclick(evt)">

<script type="text/ecmascript">

<![CDATA[
    function mouseover(evt, target) { 
    var gv = document.getElementById("globalVariable");
    var previoustarget = gv.firstChild.nodeValue;
    if (previoustarget != "none") 
    {
        	document.getElementById(gv.firstChild.nodeValue).setAttributeNS(null, "visibility", "hidden");
    }
    document.getElementById(target).setAttributeNS(null, "visibility", "visible");
    gv.firstChild.nodeValue = target;
        }

    function mouseclick(evt) { 
    var gv = document.getElementById("globalVariable");
    var previoustarget = gv.firstChild.nodeValue;
    if (previoustarget != "none") {
        	document.getElementById(gv.firstChild.nodeValue).setAttributeNS(null, "visibility", "hidden");
        }
    }
]]>
  </script>
<style type="text/css" >

<![CDATA[
    rect.anc_exon {
              stroke-width:3;
                  }

    rect.non_anc_exon {
              stroke: black; stroke-width:3; stroke-dasharray: 5,5;
                    }

    text {
              font-size: 18px;
              font-family: Courier New;
          }
                    ]]>
</style>

<defs>
    <text x="150" y="40" id="globalVariable">none</text>
</defs>

  <rect class="anc_exon" x="0" y="35.0" width="0" height="30" style="fill:#87bcbc;fill-opacity:1.00" />
  <rect class="anc_exon" x="0" y="35.0" width="85.60000000000001" height="30" style="fill:#87bcbc;fill-opacity:1.00" />
  <line x1="85.60000000000001" y1="50.0" x2="104.60000000000001" y2="50.0" style="stroke:#999; stroke-width:3;" />
  <line x1="104.60000000000001" y1="50.0" x2="104.60000000000001" y2="50.0" style="stroke:#999; stroke-width:3;" />
  <line x1="104.60000000000001" y1="50.0" x2="104.60000000000001" y2="50.0" style="stroke:#999; stroke-width:3;" />
  <line x1="104.60000000000001" y1="50.0" x2="125.0" y2="50.0" style="stroke:#999; stroke-width:3;" />
  <rect class="anc_exon" x="125" y="35.0" width="157" height="30" style="fill:#87bcbc;fill-opacity:1.00" />
  <line x1="282" y1="50.0" x2="302" y2="50.0" style="stroke:#999; stroke-width:3;" />
  <line x1="302" y1="50.0" x2="302" y2="50.0" style="stroke:#999; stroke-width:3;" />
  <line x1="302" y1="50.0" x2="302" y2="50.0" style="stroke:#999; stroke-width:3;" />
  <line x1="302" y1="50.0" x2="322" y2="50.0" style="stroke:#999; stroke-width:3;" />
  <rect class="anc_exon" x="322" y="35.0" width="66" height="30" style="fill:#87bcbc;fill-opacity:1.00" />
  <line x1="388" y1="50.0" x2="408" y2="50.0" style="stroke:#999; stroke-width:3;" />
  <line x1="408" y1="50.0" x2="408" y2="50.0" style="stroke:#999; stroke-width:3;" />
  <line x1="408" y1="50.0" x2="408" y2="50.0" style="stroke:#999; stroke-width:3;" />
  <line x1="408" y1="50.0" x2="428" y2="50.0" style="stroke:#999; stroke-width:3;" />
  <rect class="anc_exon" x="428" y="35.0" width="39" height="30" style="fill:#87bcbc;fill-opacity:1.00" />
  <line x1="467" y1="50.0" x2="487" y2="50.0" style="stroke:#999; stroke-width:3;" />
  <line x1="487" y1="50.0" x2="487" y2="50.0" style="stroke:#999; stroke-width:3;" />
  <line x1="487" y1="50.0" x2="487" y2="50.0" style="stroke:#999; stroke-width:3;" />
  <line x1="487" y1="50.0" x2="507" y2="50.0" style="stroke:#999; stroke-width:3;" />
  <rect class="anc_exon" x="507" y="35.0" width="108" height="30" style="fill:#87bcbc;fill-opacity:1.00" />
  <line x1="615" y1="50.0" x2="635" y2="50.0" style="stroke:#999; stroke-width:3;" />
  <line x1="635" y1="50.0" x2="635" y2="50.0" style="stroke:#999; stroke-width:3;" />
  <line x1="635" y1="50.0" x2="635" y2="50.0" style="stroke:#999; stroke-width:3;" />
  <line x1="635" y1="50.0" x2="655" y2="50.0" style="stroke:#999; stroke-width:3;" />
  <rect class="anc_exon" x="655" y="35.0" width="64" height="30" style="fill:#87bcbc;fill-opacity:1.00" />
  <line x1="719" y1="50.0" x2="739" y2="50.0" style="stroke:#999; stroke-width:3;" />
  <line x1="739" y1="50.0" x2="739" y2="50.0" style="stroke:#999; stroke-width:3;" />
  <line x1="739" y1="50.0" x2="739" y2="50.0" style="stroke:#999; stroke-width:3;" />
  <line x1="739" y1="50.0" x2="759" y2="50.0" style="stroke:#999; stroke-width:3;" />
  <rect class="anc_exon" x="759" y="35.0" width="127" height="30" style="fill:#87bcbc;fill-opacity:1.00" />
  <line x1="886" y1="50.0" x2="906" y2="50.0" style="stroke:#999; stroke-width:3;" />
  <line x1="906" y1="50.0" x2="906" y2="50.0" style="stroke:#999; stroke-width:3;" />
  <line x1="906" y1="50.0" x2="906" y2="50.0" style="stroke:#999; stroke-width:3;" />
  <line x1="906" y1="50.0" x2="926" y2="50.0" style="stroke:#999; stroke-width:3;" />
  <rect class="anc_exon" x="926" y="35.0" width="51" height="30" style="fill:#87bcbc;fill-opacity:1.00" />
  <line x1="977" y1="50.0" x2="997" y2="50.0" style="stroke:#999; stroke-width:3;" />
  <line x1="997" y1="50.0" x2="997" y2="50.0" style="stroke:#999; stroke-width:3;" />
  <line x1="997" y1="50.0" x2="997" y2="50.0" style="stroke:#999; stroke-width:3;" />
  <line x1="997" y1="50.0" x2="1017" y2="50.0" style="stroke:#999; stroke-width:3;" />
  <rect class="anc_exon" x="1017" y="35.0" width="108" height="30" style="fill:#87bcbc;fill-opacity:1.00" />
  <line x1="1125" y1="50.0" x2="1145" y2="50.0" style="stroke:#999; stroke-width:3;" />
  <line x1="1145" y1="50.0" x2="1145" y2="50.0" style="stroke:#999; stroke-width:3;" />
  <line x1="1145" y1="50.0" x2="1145" y2="50.0" style="stroke:#999; stroke-width:3;" />
  <line x1="1145" y1="50.0" x2="1165" y2="50.0" style="stroke:#999; stroke-width:3;" />
  <rect class="anc_exon" x="1165" y="35.0" width="96" height="30" style="fill:#87bcbc;fill-opacity:1.00" />
  <line x1="1261" y1="50.0" x2="1281" y2="50.0" style="stroke:#999; stroke-width:3;" />
  <line x1="1281" y1="50.0" x2="1281" y2="50.0" style="stroke:#999; stroke-width:3;" />
  <line x1="1281" y1="50.0" x2="1281" y2="50.0" style="stroke:#999; stroke-width:3;" />
  <line x1="1281" y1="50.0" x2="1301" y2="50.0" style="stroke:#999; stroke-width:3;" />
  <rect class="anc_exon" x="1301" y="35.0" width="144" height="30" style="fill:#87bcbc;fill-opacity:1.00" />
  <line x1="1445" y1="50.0" x2="1465" y2="50.0" style="stroke:#999; stroke-width:3;" />
  <line x1="1465" y1="50.0" x2="1465" y2="50.0" style="stroke:#999; stroke-width:3;" />
  <line x1="1465" y1="50.0" x2="1465" y2="50.0" style="stroke:#999; stroke-width:3;" />
  <line x1="1465" y1="50.0" x2="1485" y2="50.0" style="stroke:#999; stroke-width:3;" />
  <rect class="anc_exon" x="1485" y="35.0" width="115" height="30" style="fill:#87bcbc;fill-opacity:1.00" />
  <line x1="1600" y1="50.0" x2="1620" y2="50.0" style="stroke:#999; stroke-width:3;" />
  <line x1="1620" y1="50.0" x2="1620" y2="50.0" style="stroke:#999; stroke-width:3;" />
  <line x1="1620" y1="50.0" x2="1620" y2="50.0" style="stroke:#999; stroke-width:3;" />
  <line x1="1620" y1="50.0" x2="1640" y2="50.0" style="stroke:#999; stroke-width:3;" />
  <rect class="anc_exon" x="1640" y="35.0" width="102" height="30" style="fill:#87bcbc;fill-opacity:1.00" />
  <rect class="anc_exon" x="1742" y="35.0" width="0" height="30" style="fill:#87bcbc;fill-opacity:1.00" />
  <text style="" >
<tspan x="0" y="83.0" style="font-size:18px;" >SP XM_012550882_3.1</tspan>  </text>



<script type="text/ecmascript">
<![CDATA[
function draw_bbox(text_id)
{
    var text_elem = document.getElementById(text_id);
    var offset_px = 2;
    var offset_py = 0;
    bbox = text_elem.getBBox();
    var box = document.createElementNS(document.rootElement.namespaceURI,'rect');
    box.setAttribute('x', bbox.x - offset_px);
    box.setAttribute('y', bbox.y - offset_py);
    box.setAttribute('width', bbox.width + offset_px * 2);
    box.setAttribute('height', bbox.height + offset_py * 2);
    box.setAttribute('style','fill: white;'+'stroke: black;'+'stroke-width: 1px;');
    text_elem.insertBefore(box,text_elem.childNodes[0]);

    var svg = text_elem.parentNode;
    svg.appendChild(text_elem);
}

for (var i=1; i < 1; i++)
{
draw_bbox("Mouseover" + i);
}
]]> 
</script>
</svg>
