<svg version="1.1"
xmlns="http://www.w3.org/2000/svg"
xmlns:xlink="http://www.w3.org/1999/xlink"
width="1919" height="100" viewBox = "0 0 1919 100"
onclick="mouseclick(evt)">

<script type="text/ecmascript">

<![CDATA[
    function mouseover(evt, target) { 
    var gv = document.getElementById("globalVariable");
    var previoustarget = gv.firstChild.nodeValue;
    if (previoustarget != "none") 
    {
        	document.getElementById(gv.firstChild.nodeValue).setAttributeNS(null, "visibility", "hidden");
    }
    document.getElementById(target).setAttributeNS(null, "visibility", "visible");
    gv.firstChild.nodeValue = target;
        }

    function mouseclick(evt) { 
    var gv = document.getElementById("globalVariable");
    var previoustarget = gv.firstChild.nodeValue;
    if (previoustarget != "none") {
        	document.getElementById(gv.firstChild.nodeValue).setAttributeNS(null, "visibility", "hidden");
        }
    }
]]>
  </script>
<style type="text/css" >

<![CDATA[
    rect.anc_exon {
              stroke-width:3;
                  }

    rect.non_anc_exon {
              stroke: black; stroke-width:3; stroke-dasharray: 5,5;
                    }

    text {
              font-size: 18px;
              font-family: Courier New;
          }
                    ]]>
</style>

<defs>
    <text x="150" y="40" id="globalVariable">none</text>
</defs>

  <rect class="anc_exon" x="0" y="35.0" width="0" height="30" style="fill:#87bcbc;fill-opacity:1.00" />
  <rect class="anc_exon" x="0" y="35.0" width="59.2" height="30" style="fill:#87bcbc;fill-opacity:1.00" />
  <line x1="59.2" y1="50.0" x2="78.2" y2="50.0" style="stroke:#999; stroke-width:3;" />
  <line x1="78.2" y1="50.0" x2="78.2" y2="50.0" style="stroke:#999; stroke-width:3;" />
  <line x1="78.2" y1="50.0" x2="78.2" y2="50.0" style="stroke:#999; stroke-width:3;" />
  <line x1="78.2" y1="50.0" x2="99.0" y2="50.0" style="stroke:#999; stroke-width:3;" />
  <rect class="anc_exon" x="99" y="35.0" width="40" height="30" style="fill:#87bcbc;fill-opacity:1.00" />
  <line x1="139" y1="50.0" x2="159" y2="50.0" style="stroke:#999; stroke-width:3;" />
  <line x1="159" y1="50.0" x2="159" y2="50.0" style="stroke:#999; stroke-width:3;" />
  <line x1="159" y1="50.0" x2="159" y2="50.0" style="stroke:#999; stroke-width:3;" />
  <line x1="159" y1="50.0" x2="179" y2="50.0" style="stroke:#999; stroke-width:3;" />
  <rect class="anc_exon" x="179" y="35.0" width="157" height="30" style="fill:#87bcbc;fill-opacity:1.00" />
  <line x1="336" y1="50.0" x2="356" y2="50.0" style="stroke:#999; stroke-width:3;" />
  <line x1="356" y1="50.0" x2="356" y2="50.0" style="stroke:#999; stroke-width:3;" />
  <line x1="356" y1="50.0" x2="356" y2="50.0" style="stroke:#999; stroke-width:3;" />
  <line x1="356" y1="50.0" x2="376" y2="50.0" style="stroke:#999; stroke-width:3;" />
  <rect class="anc_exon" x="376" y="35.0" width="66" height="30" style="fill:#87bcbc;fill-opacity:1.00" />
  <line x1="442" y1="50.0" x2="462" y2="50.0" style="stroke:#999; stroke-width:3;" />
  <line x1="462" y1="50.0" x2="462" y2="50.0" style="stroke:#999; stroke-width:3;" />
  <line x1="462" y1="50.0" x2="462" y2="50.0" style="stroke:#999; stroke-width:3;" />
  <line x1="462" y1="50.0" x2="482" y2="50.0" style="stroke:#999; stroke-width:3;" />
  <rect class="anc_exon" x="482" y="35.0" width="39" height="30" style="fill:#87bcbc;fill-opacity:1.00" />
  <line x1="521" y1="50.0" x2="541" y2="50.0" style="stroke:#999; stroke-width:3;" />
  <line x1="541" y1="50.0" x2="541" y2="50.0" style="stroke:#999; stroke-width:3;" />
  <line x1="541" y1="50.0" x2="541" y2="50.0" style="stroke:#999; stroke-width:3;" />
  <line x1="541" y1="50.0" x2="561" y2="50.0" style="stroke:#999; stroke-width:3;" />
  <rect class="anc_exon" x="561" y="35.0" width="108" height="30" style="fill:#87bcbc;fill-opacity:1.00" />
  <line x1="669" y1="50.0" x2="689" y2="50.0" style="stroke:#999; stroke-width:3;" />
  <line x1="689" y1="50.0" x2="689" y2="50.0" style="stroke:#999; stroke-width:3;" />
  <line x1="689" y1="50.0" x2="689" y2="50.0" style="stroke:#999; stroke-width:3;" />
  <line x1="689" y1="50.0" x2="709" y2="50.0" style="stroke:#999; stroke-width:3;" />
  <rect class="anc_exon" x="709" y="35.0" width="64" height="30" style="fill:#87bcbc;fill-opacity:1.00" />
  <line x1="773" y1="50.0" x2="793" y2="50.0" style="stroke:#999; stroke-width:3;" />
  <line x1="793" y1="50.0" x2="793" y2="50.0" style="stroke:#999; stroke-width:3;" />
  <line x1="793" y1="50.0" x2="793" y2="50.0" style="stroke:#999; stroke-width:3;" />
  <line x1="793" y1="50.0" x2="813" y2="50.0" style="stroke:#999; stroke-width:3;" />
  <rect class="anc_exon" x="813" y="35.0" width="127" height="30" style="fill:#87bcbc;fill-opacity:1.00" />
  <line x1="940" y1="50.0" x2="960" y2="50.0" style="stroke:#999; stroke-width:3;" />
  <line x1="960" y1="50.0" x2="960" y2="50.0" style="stroke:#999; stroke-width:3;" />
  <line x1="960" y1="50.0" x2="960" y2="50.0" style="stroke:#999; stroke-width:3;" />
  <line x1="960" y1="50.0" x2="980" y2="50.0" style="stroke:#999; stroke-width:3;" />
  <rect class="anc_exon" x="980" y="35.0" width="51" height="30" style="fill:#87bcbc;fill-opacity:1.00" />
  <line x1="1031" y1="50.0" x2="1051" y2="50.0" style="stroke:#999; stroke-width:3;" />
  <line x1="1051" y1="50.0" x2="1051" y2="50.0" style="stroke:#999; stroke-width:3;" />
  <line x1="1051" y1="50.0" x2="1051" y2="50.0" style="stroke:#999; stroke-width:3;" />
  <line x1="1051" y1="50.0" x2="1071" y2="50.0" style="stroke:#999; stroke-width:3;" />
  <rect class="anc_exon" x="1071" y="35.0" width="108" height="30" style="fill:#87bcbc;fill-opacity:1.00" />
  <line x1="1179" y1="50.0" x2="1199" y2="50.0" style="stroke:#999; stroke-width:3;" />
  <line x1="1199" y1="50.0" x2="1199" y2="50.0" style="stroke:#999; stroke-width:3;" />
  <line x1="1199" y1="50.0" x2="1199" y2="50.0" style="stroke:#999; stroke-width:3;" />
  <line x1="1199" y1="50.0" x2="1219" y2="50.0" style="stroke:#999; stroke-width:3;" />
  <rect class="anc_exon" x="1219" y="35.0" width="105" height="30" style="fill:#87bcbc;fill-opacity:1.00" />
  <line x1="1324" y1="50.0" x2="1344" y2="50.0" style="stroke:#999; stroke-width:3;" />
  <line x1="1344" y1="50.0" x2="1344" y2="50.0" style="stroke:#999; stroke-width:3;" />
  <line x1="1344" y1="50.0" x2="1344" y2="50.0" style="stroke:#999; stroke-width:3;" />
  <line x1="1344" y1="50.0" x2="1364" y2="50.0" style="stroke:#999; stroke-width:3;" />
  <rect class="anc_exon" x="1364" y="35.0" width="24" height="30" style="fill:#87bcbc;fill-opacity:1.00" />
  <line x1="1388" y1="50.0" x2="1408" y2="50.0" style="stroke:#999; stroke-width:3;" />
  <line x1="1408" y1="50.0" x2="1408" y2="50.0" style="stroke:#999; stroke-width:3;" />
  <line x1="1408" y1="50.0" x2="1408" y2="50.0" style="stroke:#999; stroke-width:3;" />
  <line x1="1408" y1="50.0" x2="1428" y2="50.0" style="stroke:#999; stroke-width:3;" />
  <rect class="anc_exon" x="1428" y="35.0" width="158" height="30" style="fill:#87bcbc;fill-opacity:1.00" />
  <line x1="1586" y1="50.0" x2="1606" y2="50.0" style="stroke:#999; stroke-width:3;" />
  <line x1="1606" y1="50.0" x2="1606" y2="50.0" style="stroke:#999; stroke-width:3;" />
  <line x1="1606" y1="50.0" x2="1606" y2="50.0" style="stroke:#999; stroke-width:3;" />
  <line x1="1606" y1="50.0" x2="1626" y2="50.0" style="stroke:#999; stroke-width:3;" />
  <rect class="anc_exon" x="1626" y="35.0" width="115" height="30" style="fill:#87bcbc;fill-opacity:1.00" />
  <line x1="1741" y1="50.0" x2="1761" y2="50.0" style="stroke:#999; stroke-width:3;" />
  <line x1="1761" y1="50.0" x2="1761" y2="50.0" style="stroke:#999; stroke-width:3;" />
  <line x1="1761" y1="50.0" x2="1761" y2="50.0" style="stroke:#999; stroke-width:3;" />
  <line x1="1761" y1="50.0" x2="1781" y2="50.0" style="stroke:#999; stroke-width:3;" />
  <rect class="anc_exon" x="1781" y="35.0" width="102" height="30" style="fill:#87bcbc;fill-opacity:1.00" />
  <rect class="anc_exon" x="1883" y="35.0" width="0" height="30" style="fill:#87bcbc;fill-opacity:1.00" />
  <text style="" >
<tspan x="0" y="83.0" style="font-size:18px;" >SP XM_031940487_1.1</tspan>  </text>



<script type="text/ecmascript">
<![CDATA[
function draw_bbox(text_id)
{
    var text_elem = document.getElementById(text_id);
    var offset_px = 2;
    var offset_py = 0;
    bbox = text_elem.getBBox();
    var box = document.createElementNS(document.rootElement.namespaceURI,'rect');
    box.setAttribute('x', bbox.x - offset_px);
    box.setAttribute('y', bbox.y - offset_py);
    box.setAttribute('width', bbox.width + offset_px * 2);
    box.setAttribute('height', bbox.height + offset_py * 2);
    box.setAttribute('style','fill: white;'+'stroke: black;'+'stroke-width: 1px;');
    text_elem.insertBefore(box,text_elem.childNodes[0]);

    var svg = text_elem.parentNode;
    svg.appendChild(text_elem);
}

for (var i=1; i < 1; i++)
{
draw_bbox("Mouseover" + i);
}
]]> 
</script>
</svg>
