<svg version="1.1"
xmlns="http://www.w3.org/2000/svg"
xmlns:xlink="http://www.w3.org/1999/xlink"
width="1971" height="100" viewBox = "0 0 1971 100"
onclick="mouseclick(evt)">

<script type="text/ecmascript">

<![CDATA[
    function mouseover(evt, target) { 
    var gv = document.getElementById("globalVariable");
    var previoustarget = gv.firstChild.nodeValue;
    if (previoustarget != "none") 
    {
        	document.getElementById(gv.firstChild.nodeValue).setAttributeNS(null, "visibility", "hidden");
    }
    document.getElementById(target).setAttributeNS(null, "visibility", "visible");
    gv.firstChild.nodeValue = target;
        }

    function mouseclick(evt) { 
    var gv = document.getElementById("globalVariable");
    var previoustarget = gv.firstChild.nodeValue;
    if (previoustarget != "none") {
        	document.getElementById(gv.firstChild.nodeValue).setAttributeNS(null, "visibility", "hidden");
        }
    }
]]>
  </script>
<style type="text/css" >

<![CDATA[
    rect.anc_exon {
              stroke-width:3;
                  }

    rect.non_anc_exon {
              stroke: black; stroke-width:3; stroke-dasharray: 5,5;
                    }

    text {
              font-size: 18px;
              font-family: Courier New;
          }
                    ]]>
</style>

<defs>
    <text x="150" y="40" id="globalVariable">none</text>
</defs>

  <rect class="anc_exon" x="0" y="35.0" width="0" height="30" style="fill:#87bcbc;fill-opacity:1.00" />
  <rect class="anc_exon" x="0" y="35.0" width="38.400000000000006" height="30" style="fill:#87bcbc;fill-opacity:1.00" />
  <line x1="38.400000000000006" y1="50.0" x2="57.400000000000006" y2="50.0" style="stroke:#999; stroke-width:3;" />
  <line x1="57.400000000000006" y1="50.0" x2="57.400000000000006" y2="50.0" style="stroke:#999; stroke-width:3;" />
  <line x1="57.400000000000006" y1="50.0" x2="57.400000000000006" y2="50.0" style="stroke:#999; stroke-width:3;" />
  <line x1="57.400000000000006" y1="50.0" x2="78.0" y2="50.0" style="stroke:#999; stroke-width:3;" />
  <rect class="anc_exon" x="78" y="35.0" width="57" height="30" style="fill:#87bcbc;fill-opacity:1.00" />
  <line x1="135" y1="50.0" x2="155" y2="50.0" style="stroke:#999; stroke-width:3;" />
  <line x1="155" y1="50.0" x2="155" y2="50.0" style="stroke:#999; stroke-width:3;" />
  <line x1="155" y1="50.0" x2="155" y2="50.0" style="stroke:#999; stroke-width:3;" />
  <line x1="155" y1="50.0" x2="175" y2="50.0" style="stroke:#999; stroke-width:3;" />
  <rect class="anc_exon" x="175" y="35.0" width="224" height="30" style="fill:#87bcbc;fill-opacity:1.00" />
  <line x1="399" y1="50.0" x2="419" y2="50.0" style="stroke:#999; stroke-width:3;" />
  <line x1="419" y1="50.0" x2="419" y2="50.0" style="stroke:#999; stroke-width:3;" />
  <line x1="419" y1="50.0" x2="419" y2="50.0" style="stroke:#999; stroke-width:3;" />
  <line x1="419" y1="50.0" x2="439" y2="50.0" style="stroke:#999; stroke-width:3;" />
  <rect class="anc_exon" x="439" y="35.0" width="174" height="30" style="fill:#87bcbc;fill-opacity:1.00" />
  <line x1="613" y1="50.0" x2="633" y2="50.0" style="stroke:#999; stroke-width:3;" />
  <line x1="633" y1="50.0" x2="633" y2="50.0" style="stroke:#999; stroke-width:3;" />
  <line x1="633" y1="50.0" x2="633" y2="50.0" style="stroke:#999; stroke-width:3;" />
  <line x1="633" y1="50.0" x2="653" y2="50.0" style="stroke:#999; stroke-width:3;" />
  <rect class="anc_exon" x="653" y="35.0" width="82" height="30" style="fill:#87bcbc;fill-opacity:1.00" />
  <line x1="735" y1="50.0" x2="755" y2="50.0" style="stroke:#999; stroke-width:3;" />
  <line x1="755" y1="50.0" x2="755" y2="50.0" style="stroke:#999; stroke-width:3;" />
  <line x1="755" y1="50.0" x2="755" y2="50.0" style="stroke:#999; stroke-width:3;" />
  <line x1="755" y1="50.0" x2="775" y2="50.0" style="stroke:#999; stroke-width:3;" />
  <rect class="anc_exon" x="775" y="35.0" width="88" height="30" style="fill:#87bcbc;fill-opacity:1.00" />
  <line x1="863" y1="50.0" x2="883" y2="50.0" style="stroke:#999; stroke-width:3;" />
  <line x1="883" y1="50.0" x2="883" y2="50.0" style="stroke:#999; stroke-width:3;" />
  <line x1="883" y1="50.0" x2="883" y2="50.0" style="stroke:#999; stroke-width:3;" />
  <line x1="883" y1="50.0" x2="903" y2="50.0" style="stroke:#999; stroke-width:3;" />
  <rect class="anc_exon" x="903" y="35.0" width="65" height="30" style="fill:#87bcbc;fill-opacity:1.00" />
  <line x1="968" y1="50.0" x2="1008" y2="50.0" style="stroke:#999; stroke-width:3;" />
  <rect class="anc_exon" x="1008" y="35.0" width="47" height="30" style="fill:#87bcbc;fill-opacity:1.00" />
  <line x1="1055" y1="50.0" x2="1075" y2="50.0" style="stroke:#999; stroke-width:3;" />
  <line x1="1075" y1="50.0" x2="1075" y2="50.0" style="stroke:#999; stroke-width:3;" />
  <line x1="1075" y1="50.0" x2="1075" y2="50.0" style="stroke:#999; stroke-width:3;" />
  <line x1="1075" y1="50.0" x2="1095" y2="50.0" style="stroke:#999; stroke-width:3;" />
  <rect class="anc_exon" x="1095" y="35.0" width="36" height="30" style="fill:#87bcbc;fill-opacity:1.00" />
  <line x1="1131" y1="50.0" x2="1151" y2="50.0" style="stroke:#999; stroke-width:3;" />
  <line x1="1151" y1="50.0" x2="1151" y2="50.0" style="stroke:#999; stroke-width:3;" />
  <line x1="1151" y1="50.0" x2="1151" y2="50.0" style="stroke:#999; stroke-width:3;" />
  <line x1="1151" y1="50.0" x2="1171" y2="50.0" style="stroke:#999; stroke-width:3;" />
  <rect class="anc_exon" x="1171" y="35.0" width="44" height="30" style="fill:#87bcbc;fill-opacity:1.00" />
  <line x1="1215" y1="50.0" x2="1255" y2="50.0" style="stroke:#999; stroke-width:3;" />
  <rect class="anc_exon" x="1255" y="35.0" width="101" height="30" style="fill:#87bcbc;fill-opacity:1.00" />
  <line x1="1356" y1="50.0" x2="1376" y2="50.0" style="stroke:#999; stroke-width:3;" />
  <line x1="1376" y1="50.0" x2="1376" y2="50.0" style="stroke:#999; stroke-width:3;" />
  <line x1="1376" y1="50.0" x2="1376" y2="50.0" style="stroke:#999; stroke-width:3;" />
  <line x1="1376" y1="50.0" x2="1396" y2="50.0" style="stroke:#999; stroke-width:3;" />
  <rect class="anc_exon" x="1396" y="35.0" width="132" height="30" style="fill:#87bcbc;fill-opacity:1.00" />
  <line x1="1528" y1="50.0" x2="1568" y2="50.0" style="stroke:#999; stroke-width:3;" />
  <rect class="anc_exon" x="1568" y="35.0" width="30" height="30" style="fill:#87bcbc;fill-opacity:1.00" />
  <line x1="1598" y1="50.0" x2="1638" y2="50.0" style="stroke:#999; stroke-width:3;" />
  <rect class="anc_exon" x="1638" y="35.0" width="117" height="30" style="fill:#87bcbc;fill-opacity:1.00" />
  <line x1="1755" y1="50.0" x2="1775" y2="50.0" style="stroke:#999; stroke-width:3;" />
  <line x1="1775" y1="50.0" x2="1775" y2="50.0" style="stroke:#999; stroke-width:3;" />
  <line x1="1775" y1="50.0" x2="1775" y2="50.0" style="stroke:#999; stroke-width:3;" />
  <line x1="1775" y1="50.0" x2="1795" y2="50.0" style="stroke:#999; stroke-width:3;" />
  <rect class="anc_exon" x="1795" y="35.0" width="75" height="30" style="fill:#87bcbc;fill-opacity:1.00" />
  <line x1="1870" y1="50.0" x2="1910" y2="50.0" style="stroke:#999; stroke-width:3;" />
  <rect class="anc_exon" x="1910" y="35.0" width="25" height="30" style="fill:#87bcbc;fill-opacity:1.00" />
  <rect class="anc_exon" x="1935" y="35.0" width="0" height="30" style="fill:#87bcbc;fill-opacity:1.00" />
  <text style="" >
<tspan x="0" y="83.0" style="font-size:18px;" >SP XM_031939459_1.1</tspan>  </text>



<script type="text/ecmascript">
<![CDATA[
function draw_bbox(text_id)
{
    var text_elem = document.getElementById(text_id);
    var offset_px = 2;
    var offset_py = 0;
    bbox = text_elem.getBBox();
    var box = document.createElementNS(document.rootElement.namespaceURI,'rect');
    box.setAttribute('x', bbox.x - offset_px);
    box.setAttribute('y', bbox.y - offset_py);
    box.setAttribute('width', bbox.width + offset_px * 2);
    box.setAttribute('height', bbox.height + offset_py * 2);
    box.setAttribute('style','fill: white;'+'stroke: black;'+'stroke-width: 1px;');
    text_elem.insertBefore(box,text_elem.childNodes[0]);

    var svg = text_elem.parentNode;
    svg.appendChild(text_elem);
}

for (var i=1; i < 1; i++)
{
draw_bbox("Mouseover" + i);
}
]]> 
</script>
</svg>
