<svg version="1.1"
xmlns="http://www.w3.org/2000/svg"
xmlns:xlink="http://www.w3.org/1999/xlink"
width="3842" height="100" viewBox = "0 0 3842 100"
onclick="mouseclick(evt)">

<script type="text/ecmascript">

<![CDATA[
    function mouseover(evt, target) { 
    var gv = document.getElementById("globalVariable");
    var previoustarget = gv.firstChild.nodeValue;
    if (previoustarget != "none") 
    {
        	document.getElementById(gv.firstChild.nodeValue).setAttributeNS(null, "visibility", "hidden");
    }
    document.getElementById(target).setAttributeNS(null, "visibility", "visible");
    gv.firstChild.nodeValue = target;
        }

    function mouseclick(evt) { 
    var gv = document.getElementById("globalVariable");
    var previoustarget = gv.firstChild.nodeValue;
    if (previoustarget != "none") {
        	document.getElementById(gv.firstChild.nodeValue).setAttributeNS(null, "visibility", "hidden");
        }
    }
]]>
  </script>
<style type="text/css" >

<![CDATA[
    rect.anc_exon {
              stroke-width:3;
                  }

    rect.non_anc_exon {
              stroke: black; stroke-width:3; stroke-dasharray: 5,5;
                    }

    text {
              font-size: 18px;
              font-family: Courier New;
          }
                    ]]>
</style>

<defs>
    <text x="150" y="40" id="globalVariable">none</text>
</defs>

  <rect class="anc_exon" x="0" y="35.0" width="0" height="30" style="fill:#87bcbc;fill-opacity:1.00" />
  <rect class="anc_exon" x="0" y="35.0" width="60.0" height="30" style="fill:#87bcbc;fill-opacity:1.00" />
  <line x1="60.0" y1="50.0" x2="80.0" y2="50.0" style="stroke:#999; stroke-width:3;" />
  <line x1="80.0" y1="50.0" x2="80.0" y2="50.0" style="stroke:#999; stroke-width:3;" />
  <line x1="80.0" y1="50.0" x2="80.0" y2="50.0" style="stroke:#999; stroke-width:3;" />
  <line x1="80.0" y1="50.0" x2="100.0" y2="50.0" style="stroke:#999; stroke-width:3;" />
  <rect class="anc_exon" x="100" y="35.0" width="219" height="30" style="fill:#87bcbc;fill-opacity:1.00" />
  <line x1="319" y1="50.0" x2="339" y2="50.0" style="stroke:#999; stroke-width:3;" />
  <line x1="339" y1="50.0" x2="339" y2="50.0" style="stroke:#999; stroke-width:3;" />
  <line x1="339" y1="50.0" x2="339" y2="50.0" style="stroke:#999; stroke-width:3;" />
  <line x1="339" y1="50.0" x2="359" y2="50.0" style="stroke:#999; stroke-width:3;" />
  <rect class="anc_exon" x="359" y="35.0" width="127" height="30" style="fill:#87bcbc;fill-opacity:1.00" />
  <line x1="486" y1="50.0" x2="506" y2="50.0" style="stroke:#999; stroke-width:3;" />
  <line x1="506" y1="50.0" x2="506" y2="50.0" style="stroke:#999; stroke-width:3;" />
  <line x1="506" y1="50.0" x2="506" y2="50.0" style="stroke:#999; stroke-width:3;" />
  <line x1="506" y1="50.0" x2="526" y2="50.0" style="stroke:#999; stroke-width:3;" />
  <rect class="anc_exon" x="526" y="35.0" width="122" height="30" style="fill:#87bcbc;fill-opacity:1.00" />
  <line x1="648" y1="50.0" x2="668" y2="50.0" style="stroke:#999; stroke-width:3;" />
  <line x1="668" y1="50.0" x2="668" y2="50.0" style="stroke:#999; stroke-width:3;" />
  <line x1="668" y1="50.0" x2="668" y2="50.0" style="stroke:#999; stroke-width:3;" />
  <line x1="668" y1="50.0" x2="688" y2="50.0" style="stroke:#999; stroke-width:3;" />
  <rect class="anc_exon" x="688" y="35.0" width="355" height="30" style="fill:#87bcbc;fill-opacity:1.00" />
  <line x1="1043" y1="50.0" x2="1063" y2="50.0" style="stroke:#999; stroke-width:3;" />
  <line x1="1063" y1="50.0" x2="1063" y2="50.0" style="stroke:#999; stroke-width:3;" />
  <line x1="1063" y1="50.0" x2="1063" y2="50.0" style="stroke:#999; stroke-width:3;" />
  <line x1="1063" y1="50.0" x2="1083" y2="50.0" style="stroke:#999; stroke-width:3;" />
  <rect class="anc_exon" x="1083" y="35.0" width="129" height="30" style="fill:#87bcbc;fill-opacity:1.00" />
  <line x1="1212" y1="50.0" x2="1232" y2="50.0" style="stroke:#999; stroke-width:3;" />
  <line x1="1232" y1="50.0" x2="1232" y2="50.0" style="stroke:#999; stroke-width:3;" />
  <line x1="1232" y1="50.0" x2="1232" y2="50.0" style="stroke:#999; stroke-width:3;" />
  <line x1="1232" y1="50.0" x2="1252" y2="50.0" style="stroke:#999; stroke-width:3;" />
  <rect class="anc_exon" x="1252" y="35.0" width="160" height="30" style="fill:#87bcbc;fill-opacity:1.00" />
  <line x1="1412" y1="50.0" x2="1432" y2="50.0" style="stroke:#999; stroke-width:3;" />
  <line x1="1432" y1="50.0" x2="1432" y2="50.0" style="stroke:#999; stroke-width:3;" />
  <line x1="1432" y1="50.0" x2="1432" y2="50.0" style="stroke:#999; stroke-width:3;" />
  <line x1="1432" y1="50.0" x2="1452" y2="50.0" style="stroke:#999; stroke-width:3;" />
  <rect class="anc_exon" x="1452" y="35.0" width="96" height="30" style="fill:#87bcbc;fill-opacity:1.00" />
  <line x1="1548" y1="50.0" x2="1588" y2="50.0" style="stroke:#999; stroke-width:3;" />
  <rect class="anc_exon" x="1588" y="35.0" width="155" height="30" style="fill:#87bcbc;fill-opacity:1.00" />
  <line x1="1743" y1="50.0" x2="1763" y2="50.0" style="stroke:#999; stroke-width:3;" />
  <line x1="1763" y1="50.0" x2="1763" y2="50.0" style="stroke:#999; stroke-width:3;" />
  <line x1="1763" y1="50.0" x2="1763" y2="50.0" style="stroke:#999; stroke-width:3;" />
  <line x1="1763" y1="50.0" x2="1783" y2="50.0" style="stroke:#999; stroke-width:3;" />
  <rect class="anc_exon" x="1783" y="35.0" width="89" height="30" style="fill:#87bcbc;fill-opacity:1.00" />
  <line x1="1872" y1="50.0" x2="1892" y2="50.0" style="stroke:#999; stroke-width:3;" />
  <line x1="1892" y1="50.0" x2="1892" y2="50.0" style="stroke:#999; stroke-width:3;" />
  <line x1="1892" y1="50.0" x2="1892" y2="50.0" style="stroke:#999; stroke-width:3;" />
  <line x1="1892" y1="50.0" x2="1912" y2="50.0" style="stroke:#999; stroke-width:3;" />
  <rect class="anc_exon" x="1912" y="35.0" width="121" height="30" style="fill:#87bcbc;fill-opacity:1.00" />
  <line x1="2033" y1="50.0" x2="2073" y2="50.0" style="stroke:#999; stroke-width:3;" />
  <rect class="anc_exon" x="2073" y="35.0" width="96" height="30" style="fill:#87bcbc;fill-opacity:1.00" />
  <line x1="2169" y1="50.0" x2="2189" y2="50.0" style="stroke:#999; stroke-width:3;" />
  <line x1="2189" y1="50.0" x2="2189" y2="50.0" style="stroke:#999; stroke-width:3;" />
  <line x1="2189" y1="50.0" x2="2189" y2="50.0" style="stroke:#999; stroke-width:3;" />
  <line x1="2189" y1="50.0" x2="2209" y2="50.0" style="stroke:#999; stroke-width:3;" />
  <rect class="anc_exon" x="2209" y="35.0" width="112" height="30" style="fill:#87bcbc;fill-opacity:1.00" />
  <line x1="2321" y1="50.0" x2="2341" y2="50.0" style="stroke:#999; stroke-width:3;" />
  <line x1="2341" y1="50.0" x2="2341" y2="50.0" style="stroke:#999; stroke-width:3;" />
  <line x1="2341" y1="50.0" x2="2341" y2="50.0" style="stroke:#999; stroke-width:3;" />
  <line x1="2341" y1="50.0" x2="2361" y2="50.0" style="stroke:#999; stroke-width:3;" />
  <rect class="anc_exon" x="2361" y="35.0" width="106" height="30" style="fill:#87bcbc;fill-opacity:1.00" />
  <line x1="2467" y1="50.0" x2="2487" y2="50.0" style="stroke:#999; stroke-width:3;" />
  <line x1="2487" y1="50.0" x2="2487" y2="50.0" style="stroke:#999; stroke-width:3;" />
  <line x1="2487" y1="50.0" x2="2487" y2="50.0" style="stroke:#999; stroke-width:3;" />
  <line x1="2487" y1="50.0" x2="2507" y2="50.0" style="stroke:#999; stroke-width:3;" />
  <rect class="anc_exon" x="2507" y="35.0" width="96" height="30" style="fill:#87bcbc;fill-opacity:1.00" />
  <line x1="2603" y1="50.0" x2="2623" y2="50.0" style="stroke:#999; stroke-width:3;" />
  <line x1="2623" y1="50.0" x2="2623" y2="50.0" style="stroke:#999; stroke-width:3;" />
  <line x1="2623" y1="50.0" x2="2623" y2="50.0" style="stroke:#999; stroke-width:3;" />
  <line x1="2623" y1="50.0" x2="2643" y2="50.0" style="stroke:#999; stroke-width:3;" />
  <rect class="anc_exon" x="2643" y="35.0" width="55" height="30" style="fill:#87bcbc;fill-opacity:1.00" />
  <line x1="2698" y1="50.0" x2="2718" y2="50.0" style="stroke:#999; stroke-width:3;" />
  <line x1="2718" y1="50.0" x2="2718" y2="50.0" style="stroke:#999; stroke-width:3;" />
  <line x1="2718" y1="50.0" x2="2718" y2="50.0" style="stroke:#999; stroke-width:3;" />
  <line x1="2718" y1="50.0" x2="2738" y2="50.0" style="stroke:#999; stroke-width:3;" />
  <rect class="anc_exon" x="2738" y="35.0" width="28" height="30" style="fill:#87bcbc;fill-opacity:1.00" />
  <line x1="2766" y1="50.0" x2="2786" y2="50.0" style="stroke:#999; stroke-width:3;" />
  <line x1="2786" y1="50.0" x2="2786" y2="50.0" style="stroke:#999; stroke-width:3;" />
  <line x1="2786" y1="50.0" x2="2786" y2="50.0" style="stroke:#999; stroke-width:3;" />
  <line x1="2786" y1="50.0" x2="2806" y2="50.0" style="stroke:#999; stroke-width:3;" />
  <rect class="anc_exon" x="2806" y="35.0" width="65" height="30" style="fill:#87bcbc;fill-opacity:1.00" />
  <line x1="2871" y1="50.0" x2="2891" y2="50.0" style="stroke:#999; stroke-width:3;" />
  <line x1="2891" y1="50.0" x2="2891" y2="50.0" style="stroke:#999; stroke-width:3;" />
  <line x1="2891" y1="50.0" x2="2891" y2="50.0" style="stroke:#999; stroke-width:3;" />
  <line x1="2891" y1="50.0" x2="2911" y2="50.0" style="stroke:#999; stroke-width:3;" />
  <rect class="anc_exon" x="2911" y="35.0" width="72" height="30" style="fill:#87bcbc;fill-opacity:1.00" />
  <line x1="2983" y1="50.0" x2="3023" y2="50.0" style="stroke:#999; stroke-width:3;" />
  <rect class="anc_exon" x="3023" y="35.0" width="61" height="30" style="fill:#87bcbc;fill-opacity:1.00" />
  <line x1="3084" y1="50.0" x2="3124" y2="50.0" style="stroke:#999; stroke-width:3;" />
  <rect class="anc_exon" x="3124" y="35.0" width="108" height="30" style="fill:#87bcbc;fill-opacity:1.00" />
  <line x1="3232" y1="50.0" x2="3272" y2="50.0" style="stroke:#999; stroke-width:3;" />
  <rect class="anc_exon" x="3272" y="35.0" width="98" height="30" style="fill:#87bcbc;fill-opacity:1.00" />
  <line x1="3370" y1="50.0" x2="3390" y2="50.0" style="stroke:#999; stroke-width:3;" />
  <line x1="3390" y1="50.0" x2="3390" y2="50.0" style="stroke:#999; stroke-width:3;" />
  <line x1="3390" y1="50.0" x2="3390" y2="50.0" style="stroke:#999; stroke-width:3;" />
  <line x1="3390" y1="50.0" x2="3410" y2="50.0" style="stroke:#999; stroke-width:3;" />
  <rect class="anc_exon" x="3410" y="35.0" width="124" height="30" style="fill:#87bcbc;fill-opacity:1.00" />
  <line x1="3534" y1="50.0" x2="3554" y2="50.0" style="stroke:#999; stroke-width:3;" />
  <line x1="3554" y1="50.0" x2="3554" y2="50.0" style="stroke:#999; stroke-width:3;" />
  <line x1="3554" y1="50.0" x2="3554" y2="50.0" style="stroke:#999; stroke-width:3;" />
  <line x1="3554" y1="50.0" x2="3574" y2="50.0" style="stroke:#999; stroke-width:3;" />
  <rect class="anc_exon" x="3574" y="35.0" width="108" height="30" style="fill:#87bcbc;fill-opacity:1.00" />
  <line x1="3682" y1="50.0" x2="3702" y2="50.0" style="stroke:#999; stroke-width:3;" />
  <line x1="3702" y1="50.0" x2="3702" y2="50.0" style="stroke:#999; stroke-width:3;" />
  <line x1="3702" y1="50.0" x2="3702" y2="50.0" style="stroke:#999; stroke-width:3;" />
  <line x1="3702" y1="50.0" x2="3722" y2="50.0" style="stroke:#999; stroke-width:3;" />
  <rect class="anc_exon" x="3722" y="35.0" width="84" height="30" style="fill:#87bcbc;fill-opacity:1.00" />
  <rect class="anc_exon" x="3806" y="35.0" width="0" height="30" style="fill:#87bcbc;fill-opacity:1.00" />
  <text style="" >
<tspan x="0" y="83.0" style="font-size:18px;" >SP XM_031938343_1.1</tspan>  </text>



<script type="text/ecmascript">
<![CDATA[
function draw_bbox(text_id)
{
    var text_elem = document.getElementById(text_id);
    var offset_px = 2;
    var offset_py = 0;
    bbox = text_elem.getBBox();
    var box = document.createElementNS(document.rootElement.namespaceURI,'rect');
    box.setAttribute('x', bbox.x - offset_px);
    box.setAttribute('y', bbox.y - offset_py);
    box.setAttribute('width', bbox.width + offset_px * 2);
    box.setAttribute('height', bbox.height + offset_py * 2);
    box.setAttribute('style','fill: white;'+'stroke: black;'+'stroke-width: 1px;');
    text_elem.insertBefore(box,text_elem.childNodes[0]);

    var svg = text_elem.parentNode;
    svg.appendChild(text_elem);
}

for (var i=1; i < 1; i++)
{
draw_bbox("Mouseover" + i);
}
]]> 
</script>
</svg>
