<svg version="1.1"
xmlns="http://www.w3.org/2000/svg"
xmlns:xlink="http://www.w3.org/1999/xlink"
width="3326" height="100" viewBox = "0 0 3326 100"
onclick="mouseclick(evt)">

<script type="text/ecmascript">

<![CDATA[
    function mouseover(evt, target) { 
    var gv = document.getElementById("globalVariable");
    var previoustarget = gv.firstChild.nodeValue;
    if (previoustarget != "none") 
    {
        	document.getElementById(gv.firstChild.nodeValue).setAttributeNS(null, "visibility", "hidden");
    }
    document.getElementById(target).setAttributeNS(null, "visibility", "visible");
    gv.firstChild.nodeValue = target;
        }

    function mouseclick(evt) { 
    var gv = document.getElementById("globalVariable");
    var previoustarget = gv.firstChild.nodeValue;
    if (previoustarget != "none") {
        	document.getElementById(gv.firstChild.nodeValue).setAttributeNS(null, "visibility", "hidden");
        }
    }
]]>
  </script>
<style type="text/css" >

<![CDATA[
    rect.anc_exon {
              stroke-width:3;
                  }

    rect.non_anc_exon {
              stroke: black; stroke-width:3; stroke-dasharray: 5,5;
                    }

    text {
              font-size: 18px;
              font-family: Courier New;
          }
                    ]]>
</style>

<defs>
    <text x="150" y="40" id="globalVariable">none</text>
</defs>

  <rect class="anc_exon" x="0" y="35.0" width="0" height="30" style="fill:#87bcbc;fill-opacity:1.00" />
  <rect class="anc_exon" x="0" y="35.0" width="189.60000000000002" height="30" style="fill:#87bcbc;fill-opacity:1.00" />
  <line x1="189.60000000000002" y1="50.0" x2="208.60000000000002" y2="50.0" style="stroke:#999; stroke-width:3;" />
  <line x1="208.60000000000002" y1="50.0" x2="208.60000000000002" y2="50.0" style="stroke:#999; stroke-width:3;" />
  <line x1="208.60000000000002" y1="50.0" x2="208.60000000000002" y2="50.0" style="stroke:#999; stroke-width:3;" />
  <line x1="208.60000000000002" y1="50.0" x2="229.0" y2="50.0" style="stroke:#999; stroke-width:3;" />
  <rect class="anc_exon" x="229" y="35.0" width="104" height="30" style="fill:#87bcbc;fill-opacity:1.00" />
  <line x1="333" y1="50.0" x2="353" y2="50.0" style="stroke:#999; stroke-width:3;" />
  <line x1="353" y1="50.0" x2="353" y2="50.0" style="stroke:#999; stroke-width:3;" />
  <line x1="353" y1="50.0" x2="353" y2="50.0" style="stroke:#999; stroke-width:3;" />
  <line x1="353" y1="50.0" x2="373" y2="50.0" style="stroke:#999; stroke-width:3;" />
  <rect class="anc_exon" x="373" y="35.0" width="95" height="30" style="fill:#87bcbc;fill-opacity:1.00" />
  <line x1="468" y1="50.0" x2="488" y2="50.0" style="stroke:#999; stroke-width:3;" />
  <line x1="488" y1="50.0" x2="488" y2="50.0" style="stroke:#999; stroke-width:3;" />
  <line x1="488" y1="50.0" x2="488" y2="50.0" style="stroke:#999; stroke-width:3;" />
  <line x1="488" y1="50.0" x2="508" y2="50.0" style="stroke:#999; stroke-width:3;" />
  <rect class="anc_exon" x="508" y="35.0" width="128" height="30" style="fill:#87bcbc;fill-opacity:1.00" />
  <line x1="636" y1="50.0" x2="656" y2="50.0" style="stroke:#999; stroke-width:3;" />
  <line x1="656" y1="50.0" x2="656" y2="50.0" style="stroke:#999; stroke-width:3;" />
  <line x1="656" y1="50.0" x2="656" y2="50.0" style="stroke:#999; stroke-width:3;" />
  <line x1="656" y1="50.0" x2="676" y2="50.0" style="stroke:#999; stroke-width:3;" />
  <rect class="anc_exon" x="676" y="35.0" width="116" height="30" style="fill:#87bcbc;fill-opacity:1.00" />
  <line x1="792" y1="50.0" x2="812" y2="50.0" style="stroke:#999; stroke-width:3;" />
  <line x1="812" y1="50.0" x2="812" y2="50.0" style="stroke:#999; stroke-width:3;" />
  <line x1="812" y1="50.0" x2="812" y2="50.0" style="stroke:#999; stroke-width:3;" />
  <line x1="812" y1="50.0" x2="832" y2="50.0" style="stroke:#999; stroke-width:3;" />
  <rect class="anc_exon" x="832" y="35.0" width="60" height="30" style="fill:#87bcbc;fill-opacity:1.00" />
  <line x1="892" y1="50.0" x2="932" y2="50.0" style="stroke:#999; stroke-width:3;" />
  <rect class="anc_exon" x="932" y="35.0" width="71" height="30" style="fill:#87bcbc;fill-opacity:1.00" />
  <line x1="1003" y1="50.0" x2="1043" y2="50.0" style="stroke:#999; stroke-width:3;" />
  <rect class="anc_exon" x="1043" y="35.0" width="126" height="30" style="fill:#87bcbc;fill-opacity:1.00" />
  <line x1="1169" y1="50.0" x2="1189" y2="50.0" style="stroke:#999; stroke-width:3;" />
  <line x1="1189" y1="50.0" x2="1189" y2="50.0" style="stroke:#999; stroke-width:3;" />
  <line x1="1189" y1="50.0" x2="1189" y2="50.0" style="stroke:#999; stroke-width:3;" />
  <line x1="1189" y1="50.0" x2="1209" y2="50.0" style="stroke:#999; stroke-width:3;" />
  <rect class="anc_exon" x="1209" y="35.0" width="100" height="30" style="fill:#87bcbc;fill-opacity:1.00" />
  <line x1="1309" y1="50.0" x2="1329" y2="50.0" style="stroke:#999; stroke-width:3;" />
  <line x1="1329" y1="50.0" x2="1329" y2="50.0" style="stroke:#999; stroke-width:3;" />
  <line x1="1329" y1="50.0" x2="1329" y2="50.0" style="stroke:#999; stroke-width:3;" />
  <line x1="1329" y1="50.0" x2="1349" y2="50.0" style="stroke:#999; stroke-width:3;" />
  <rect class="anc_exon" x="1349" y="35.0" width="170" height="30" style="fill:#87bcbc;fill-opacity:1.00" />
  <line x1="1519" y1="50.0" x2="1539" y2="50.0" style="stroke:#999; stroke-width:3;" />
  <line x1="1539" y1="50.0" x2="1539" y2="50.0" style="stroke:#999; stroke-width:3;" />
  <line x1="1539" y1="50.0" x2="1539" y2="50.0" style="stroke:#999; stroke-width:3;" />
  <line x1="1539" y1="50.0" x2="1559" y2="50.0" style="stroke:#999; stroke-width:3;" />
  <rect class="anc_exon" x="1559" y="35.0" width="76" height="30" style="fill:#87bcbc;fill-opacity:1.00" />
  <line x1="1635" y1="50.0" x2="1675" y2="50.0" style="stroke:#999; stroke-width:3;" />
  <rect class="anc_exon" x="1675" y="35.0" width="96" height="30" style="fill:#87bcbc;fill-opacity:1.00" />
  <line x1="1771" y1="50.0" x2="1811" y2="50.0" style="stroke:#999; stroke-width:3;" />
  <rect class="anc_exon" x="1811" y="35.0" width="134" height="30" style="fill:#87bcbc;fill-opacity:1.00" />
  <line x1="1945" y1="50.0" x2="1965" y2="50.0" style="stroke:#999; stroke-width:3;" />
  <line x1="1965" y1="50.0" x2="1965" y2="50.0" style="stroke:#999; stroke-width:3;" />
  <line x1="1965" y1="50.0" x2="1965" y2="50.0" style="stroke:#999; stroke-width:3;" />
  <line x1="1965" y1="50.0" x2="1985" y2="50.0" style="stroke:#999; stroke-width:3;" />
  <rect class="anc_exon" x="1985" y="35.0" width="72" height="30" style="fill:#87bcbc;fill-opacity:1.00" />
  <line x1="2057" y1="50.0" x2="2077" y2="50.0" style="stroke:#999; stroke-width:3;" />
  <line x1="2077" y1="50.0" x2="2077" y2="50.0" style="stroke:#999; stroke-width:3;" />
  <line x1="2077" y1="50.0" x2="2077" y2="50.0" style="stroke:#999; stroke-width:3;" />
  <line x1="2077" y1="50.0" x2="2097" y2="50.0" style="stroke:#999; stroke-width:3;" />
  <rect class="anc_exon" x="2097" y="35.0" width="160" height="30" style="fill:#87bcbc;fill-opacity:1.00" />
  <line x1="2257" y1="50.0" x2="2297" y2="50.0" style="stroke:#999; stroke-width:3;" />
  <rect class="anc_exon" x="2297" y="35.0" width="137" height="30" style="fill:#87bcbc;fill-opacity:1.00" />
  <line x1="2434" y1="50.0" x2="2454" y2="50.0" style="stroke:#999; stroke-width:3;" />
  <line x1="2454" y1="50.0" x2="2454" y2="50.0" style="stroke:#999; stroke-width:3;" />
  <line x1="2454" y1="50.0" x2="2454" y2="50.0" style="stroke:#999; stroke-width:3;" />
  <line x1="2454" y1="50.0" x2="2474" y2="50.0" style="stroke:#999; stroke-width:3;" />
  <rect class="anc_exon" x="2474" y="35.0" width="95" height="30" style="fill:#87bcbc;fill-opacity:1.00" />
  <line x1="2569" y1="50.0" x2="2609" y2="50.0" style="stroke:#999; stroke-width:3;" />
  <rect class="anc_exon" x="2609" y="35.0" width="50" height="30" style="fill:#87bcbc;fill-opacity:1.00" />
  <line x1="2659" y1="50.0" x2="2679" y2="50.0" style="stroke:#999; stroke-width:3;" />
  <line x1="2679" y1="50.0" x2="2679" y2="50.0" style="stroke:#999; stroke-width:3;" />
  <line x1="2679" y1="50.0" x2="2679" y2="50.0" style="stroke:#999; stroke-width:3;" />
  <line x1="2679" y1="50.0" x2="2699" y2="50.0" style="stroke:#999; stroke-width:3;" />
  <rect class="anc_exon" x="2699" y="35.0" width="13" height="30" style="fill:#87bcbc;fill-opacity:1.00" />
  <line x1="2712" y1="50.0" x2="2732" y2="50.0" style="stroke:#999; stroke-width:3;" />
  <line x1="2732" y1="50.0" x2="2732" y2="50.0" style="stroke:#999; stroke-width:3;" />
  <line x1="2732" y1="50.0" x2="2732" y2="50.0" style="stroke:#999; stroke-width:3;" />
  <line x1="2732" y1="50.0" x2="2752" y2="50.0" style="stroke:#999; stroke-width:3;" />
  <rect class="anc_exon" x="2752" y="35.0" width="108" height="30" style="fill:#87bcbc;fill-opacity:1.00" />
  <line x1="2860" y1="50.0" x2="2900" y2="50.0" style="stroke:#999; stroke-width:3;" />
  <rect class="anc_exon" x="2900" y="35.0" width="84" height="30" style="fill:#87bcbc;fill-opacity:1.00" />
  <line x1="2984" y1="50.0" x2="3024" y2="50.0" style="stroke:#999; stroke-width:3;" />
  <rect class="anc_exon" x="3024" y="35.0" width="38" height="30" style="fill:#87bcbc;fill-opacity:1.00" />
  <line x1="3062" y1="50.0" x2="3082" y2="50.0" style="stroke:#999; stroke-width:3;" />
  <line x1="3082" y1="50.0" x2="3082" y2="50.0" style="stroke:#999; stroke-width:3;" />
  <line x1="3082" y1="50.0" x2="3082" y2="50.0" style="stroke:#999; stroke-width:3;" />
  <line x1="3082" y1="50.0" x2="3102" y2="50.0" style="stroke:#999; stroke-width:3;" />
  <rect class="anc_exon" x="3102" y="35.0" width="40" height="30" style="fill:#87bcbc;fill-opacity:1.00" />
  <line x1="3142" y1="50.0" x2="3182" y2="50.0" style="stroke:#999; stroke-width:3;" />
  <rect class="anc_exon" x="3182" y="35.0" width="108" height="30" style="fill:#87bcbc;fill-opacity:1.00" />
  <rect class="anc_exon" x="3290" y="35.0" width="0" height="30" style="fill:#87bcbc;fill-opacity:1.00" />
  <text style="" >
<tspan x="0" y="83.0" style="font-size:18px;" >SP XM_031938715_1.1</tspan>  </text>



<script type="text/ecmascript">
<![CDATA[
function draw_bbox(text_id)
{
    var text_elem = document.getElementById(text_id);
    var offset_px = 2;
    var offset_py = 0;
    bbox = text_elem.getBBox();
    var box = document.createElementNS(document.rootElement.namespaceURI,'rect');
    box.setAttribute('x', bbox.x - offset_px);
    box.setAttribute('y', bbox.y - offset_py);
    box.setAttribute('width', bbox.width + offset_px * 2);
    box.setAttribute('height', bbox.height + offset_py * 2);
    box.setAttribute('style','fill: white;'+'stroke: black;'+'stroke-width: 1px;');
    text_elem.insertBefore(box,text_elem.childNodes[0]);

    var svg = text_elem.parentNode;
    svg.appendChild(text_elem);
}

for (var i=1; i < 1; i++)
{
draw_bbox("Mouseover" + i);
}
]]> 
</script>
</svg>
