<svg version="1.1"
xmlns="http://www.w3.org/2000/svg"
xmlns:xlink="http://www.w3.org/1999/xlink"
width="2134" height="120.0" viewBox = "0 -20.0 2134 120.0"
onclick="mouseclick(evt)">

<script type="text/ecmascript">

<![CDATA[
    function mouseover(evt, target) { 
    var gv = document.getElementById("globalVariable");
    var previoustarget = gv.firstChild.nodeValue;
    if (previoustarget != "none") 
    {
        	document.getElementById(gv.firstChild.nodeValue).setAttributeNS(null, "visibility", "hidden");
    }
    document.getElementById(target).setAttributeNS(null, "visibility", "visible");
    gv.firstChild.nodeValue = target;
        }

    function mouseclick(evt) { 
    var gv = document.getElementById("globalVariable");
    var previoustarget = gv.firstChild.nodeValue;
    if (previoustarget != "none") {
        	document.getElementById(gv.firstChild.nodeValue).setAttributeNS(null, "visibility", "hidden");
        }
    }
]]>
  </script>
<style type="text/css" >

<![CDATA[
    rect.anc_exon {
              stroke-width:3;
                  }

    rect.non_anc_exon {
              stroke: black; stroke-width:3; stroke-dasharray: 5,5;
                    }

    text {
              font-size: 18px;
              font-family: Courier New;
          }
                    ]]>
</style>

<defs>
    <text x="150" y="40" id="globalVariable">none</text>
</defs>

  <rect class="anc_exon" x="0" y="35.0" width="0" height="30" style="fill:#87bcbc;fill-opacity:1.00" />
  <rect class="anc_exon" x="0" y="35.0" width="19.200000000000003" height="30" style="fill:#87bcbc;fill-opacity:1.00" />
  <line x1="19.200000000000003" y1="50.0" x2="59.0" y2="50.0" style="stroke:#999; stroke-width:3;" />
  <rect class="anc_exon" x="59" y="35.0" width="101" height="30" style="fill:#87bcbc;fill-opacity:1.00" />
  <line x1="160" y1="50.0" x2="200" y2="50.0" style="stroke:#999; stroke-width:3;" />
  <rect class="anc_exon" x="200" y="35.0" width="153" height="30" style="fill:#87bcbc;fill-opacity:1.00" />
  <line x1="353" y1="50.0" x2="393" y2="50.0" style="stroke:#999; stroke-width:3;" />
  <rect class="anc_exon" x="393" y="35.0" width="100" height="30" style="fill:#87bcbc;fill-opacity:1.00" />
  <line x1="493" y1="50.0" x2="533" y2="50.0" style="stroke:#999; stroke-width:3;" />
  <rect class="anc_exon" x="533" y="35.0" width="117" height="30" style="fill:#87bcbc;fill-opacity:1.00" />
  <line x1="650" y1="50.0" x2="690" y2="50.0" style="stroke:#999; stroke-width:3;" />
  <rect class="anc_exon" x="690" y="35.0" width="45" height="30" style="fill:#87bcbc;fill-opacity:1.00" />
  <line x1="735" y1="50.0" x2="775" y2="50.0" style="stroke:#999; stroke-width:3;" />
  <rect class="anc_exon" x="775" y="35.0" width="151" height="30" style="fill:#87bcbc;fill-opacity:1.00" />
  <line x1="926" y1="50.0" x2="966" y2="50.0" style="stroke:#999; stroke-width:3;" />
  <rect class="anc_exon" x="966" y="35.0" width="121" height="30" style="fill:#87bcbc;fill-opacity:1.00" />
  <line x1="1087" y1="50.0" x2="1107" y2="50.0" style="stroke:#999; stroke-width:3;" />
  <line x1="1107" y1="50.0" x2="1107" y2="50.0" style="stroke:#999; stroke-width:3;" />
  <line x1="1107" y1="50.0" x2="1107" y2="50.0" style="stroke:#999; stroke-width:3;" />
  <line x1="1107" y1="50.0" x2="1127" y2="50.0" style="stroke:#999; stroke-width:3;" />
  <rect class="anc_exon" x="1127" y="35.0" width="104" height="30" style="fill:#87bcbc;fill-opacity:1.00" />
  <line x1="1231" y1="50.0" x2="1251" y2="50.0" style="stroke:#999; stroke-width:3;" />
  <line x1="1251" y1="50.0" x2="1251" y2="50.0" style="stroke:#999; stroke-width:3;" />
  <line x1="1251" y1="50.0" x2="1251" y2="50.0" style="stroke:#999; stroke-width:3;" />
  <line x1="1251" y1="50.0" x2="1271" y2="50.0" style="stroke:#999; stroke-width:3;" />
  <rect class="anc_exon" x="1271" y="35.0" width="91" height="30" style="fill:#87bcbc;fill-opacity:1.00" />
  <line x1="1362" y1="50.0" x2="1402" y2="50.0" style="stroke:#999; stroke-width:3;" />
  <rect class="anc_exon" x="1402" y="35.0" width="79" height="30" style="fill:#87bcbc;fill-opacity:1.00" />
  <line x1="1481" y1="50.0" x2="1521" y2="50.0" style="stroke:#999; stroke-width:3;" />
  <rect class="anc_exon" x="1521" y="35.0" width="62" height="30" style="fill:#87bcbc;fill-opacity:1.00" />
  <line x1="1583" y1="50.0" x2="1623" y2="50.0" style="stroke:#999; stroke-width:3;" />
  <rect class="anc_exon" x="1623" y="35.0" width="80" height="30" style="fill:#87bcbc;fill-opacity:1.00" />
  <line x1="1703" y1="50.0" x2="1743" y2="50.0" style="stroke:#999; stroke-width:3;" />
  <rect class="anc_exon" x="1743" y="35.0" width="88" height="30" style="fill:#87bcbc;fill-opacity:1.00" />
  <line x1="1831" y1="50.0" x2="1871" y2="50.0" style="stroke:#999; stroke-width:3;" />
  <rect class="anc_exon" x="1871" y="35.0" width="57" height="30" style="fill:#87bcbc;fill-opacity:1.00" />
  <line x1="1928" y1="50.0" x2="1968" y2="50.0" style="stroke:#999; stroke-width:3;" />
  <rect class="anc_exon" x="1968" y="35.0" width="130" height="30" style="fill:#87bcbc;fill-opacity:1.00" />
  <polygon points="1979.2,35.0 1981.7,25.0 1976.7,25.0" style="fill:#121212; stroke-opacity:1; fill-opacity:1"/>
  <text style="" text-anchor="middle">
<tspan x="1979.2" y="16.0" style="font-size:18px;fill:#121212;" >+1</tspan>  </text>
  <rect class="anc_exon" x="2098" y="35.0" width="0" height="30" style="fill:#87bcbc;fill-opacity:1.00" />
  <text style="" >
<tspan x="0" y="83.0" style="font-size:18px;" >SP XM_031939248_1.1</tspan>  </text>



<script type="text/ecmascript">
<![CDATA[
function draw_bbox(text_id)
{
    var text_elem = document.getElementById(text_id);
    var offset_px = 2;
    var offset_py = 0;
    bbox = text_elem.getBBox();
    var box = document.createElementNS(document.rootElement.namespaceURI,'rect');
    box.setAttribute('x', bbox.x - offset_px);
    box.setAttribute('y', bbox.y - offset_py);
    box.setAttribute('width', bbox.width + offset_px * 2);
    box.setAttribute('height', bbox.height + offset_py * 2);
    box.setAttribute('style','fill: white;'+'stroke: black;'+'stroke-width: 1px;');
    text_elem.insertBefore(box,text_elem.childNodes[0]);

    var svg = text_elem.parentNode;
    svg.appendChild(text_elem);
}

for (var i=1; i < 1; i++)
{
draw_bbox("Mouseover" + i);
}
]]> 
</script>
</svg>
