<svg version="1.1"
xmlns="http://www.w3.org/2000/svg"
xmlns:xlink="http://www.w3.org/1999/xlink"
width="3387" height="100" viewBox = "0 0 3387 100"
onclick="mouseclick(evt)">

<script type="text/ecmascript">

<![CDATA[
    function mouseover(evt, target) { 
    var gv = document.getElementById("globalVariable");
    var previoustarget = gv.firstChild.nodeValue;
    if (previoustarget != "none") 
    {
        	document.getElementById(gv.firstChild.nodeValue).setAttributeNS(null, "visibility", "hidden");
    }
    document.getElementById(target).setAttributeNS(null, "visibility", "visible");
    gv.firstChild.nodeValue = target;
        }

    function mouseclick(evt) { 
    var gv = document.getElementById("globalVariable");
    var previoustarget = gv.firstChild.nodeValue;
    if (previoustarget != "none") {
        	document.getElementById(gv.firstChild.nodeValue).setAttributeNS(null, "visibility", "hidden");
        }
    }
]]>
  </script>
<style type="text/css" >

<![CDATA[
    rect.anc_exon {
              stroke-width:3;
                  }

    rect.non_anc_exon {
              stroke: black; stroke-width:3; stroke-dasharray: 5,5;
                    }

    text {
              font-size: 18px;
              font-family: Courier New;
          }
                    ]]>
</style>

<defs>
    <text x="150" y="40" id="globalVariable">none</text>
</defs>

  <rect class="anc_exon" x="0" y="35.0" width="0" height="30" style="fill:#87bcbc;fill-opacity:1.00" />
  <rect class="anc_exon" x="0" y="35.0" width="15.200000000000001" height="30" style="fill:#878787;fill-opacity:1.00" />
  <line x1="15.200000000000001" y1="50.0" x2="34.2" y2="50.0" style="stroke:#999; stroke-width:3;" />
  <line x1="34.2" y1="50.0" x2="34.2" y2="50.0" style="stroke:#999; stroke-width:3;" />
  <line x1="34.2" y1="50.0" x2="34.2" y2="50.0" style="stroke:#999; stroke-width:3;" />
  <line x1="34.2" y1="50.0" x2="55.0" y2="50.0" style="stroke:#999; stroke-width:3;" />
  <rect class="anc_exon" x="55" y="35.0" width="40" height="30" style="fill:#87bcbc;fill-opacity:1.00" />
  <line x1="95" y1="50.0" x2="115" y2="50.0" style="stroke:#999; stroke-width:3;" />
  <line x1="115" y1="50.0" x2="115" y2="50.0" style="stroke:#999; stroke-width:3;" />
  <line x1="115" y1="50.0" x2="115" y2="50.0" style="stroke:#999; stroke-width:3;" />
  <line x1="115" y1="50.0" x2="135" y2="50.0" style="stroke:#999; stroke-width:3;" />
  <rect class="anc_exon" x="135" y="35.0" width="148" height="30" style="fill:#87bcbc;fill-opacity:1.00" />
  <line x1="283" y1="50.0" x2="323" y2="50.0" style="stroke:#999; stroke-width:3;" />
  <rect class="anc_exon" x="323" y="35.0" width="72" height="30" style="fill:#87bcbc;fill-opacity:1.00" />
  <line x1="395" y1="50.0" x2="435" y2="50.0" style="stroke:#999; stroke-width:3;" />
  <rect class="anc_exon" x="435" y="35.0" width="82" height="30" style="fill:#87bcbc;fill-opacity:1.00" />
  <line x1="517" y1="50.0" x2="557" y2="50.0" style="stroke:#999; stroke-width:3;" />
  <rect class="anc_exon" x="557" y="35.0" width="92" height="30" style="fill:#87bcbc;fill-opacity:1.00" />
  <line x1="649" y1="50.0" x2="689" y2="50.0" style="stroke:#999; stroke-width:3;" />
  <rect class="anc_exon" x="689" y="35.0" width="100" height="30" style="fill:#87bcbc;fill-opacity:1.00" />
  <line x1="789" y1="50.0" x2="829" y2="50.0" style="stroke:#999; stroke-width:3;" />
  <rect class="anc_exon" x="829" y="35.0" width="73" height="30" style="fill:#87bcbc;fill-opacity:1.00" />
  <line x1="902" y1="50.0" x2="942" y2="50.0" style="stroke:#999; stroke-width:3;" />
  <rect class="anc_exon" x="942" y="35.0" width="88" height="30" style="fill:#87bcbc;fill-opacity:1.00" />
  <line x1="1030" y1="50.0" x2="1070" y2="50.0" style="stroke:#999; stroke-width:3;" />
  <rect class="anc_exon" x="1070" y="35.0" width="144" height="30" style="fill:#87bcbc;fill-opacity:1.00" />
  <line x1="1214" y1="50.0" x2="1254" y2="50.0" style="stroke:#999; stroke-width:3;" />
  <rect class="anc_exon" x="1254" y="35.0" width="155" height="30" style="fill:#87bcbc;fill-opacity:1.00" />
  <line x1="1409" y1="50.0" x2="1449" y2="50.0" style="stroke:#999; stroke-width:3;" />
  <rect class="anc_exon" x="1449" y="35.0" width="127" height="30" style="fill:#87bcbc;fill-opacity:1.00" />
  <line x1="1576" y1="50.0" x2="1616" y2="50.0" style="stroke:#999; stroke-width:3;" />
  <rect class="anc_exon" x="1616" y="35.0" width="178" height="30" style="fill:#87bcbc;fill-opacity:1.00" />
  <line x1="1794" y1="50.0" x2="1814" y2="50.0" style="stroke:#999; stroke-width:3;" />
  <line x1="1814" y1="50.0" x2="1814" y2="50.0" style="stroke:#999; stroke-width:3;" />
  <line x1="1814" y1="50.0" x2="1814" y2="50.0" style="stroke:#999; stroke-width:3;" />
  <line x1="1814" y1="50.0" x2="1834" y2="50.0" style="stroke:#999; stroke-width:3;" />
  <rect class="anc_exon" x="1834" y="35.0" width="107" height="30" style="fill:#87bcbc;fill-opacity:1.00" />
  <line x1="1941" y1="50.0" x2="1981" y2="50.0" style="stroke:#999; stroke-width:3;" />
  <rect class="anc_exon" x="1981" y="35.0" width="96" height="30" style="fill:#87bcbc;fill-opacity:1.00" />
  <line x1="2077" y1="50.0" x2="2117" y2="50.0" style="stroke:#999; stroke-width:3;" />
  <rect class="anc_exon" x="2117" y="35.0" width="40" height="30" style="fill:#87bcbc;fill-opacity:1.00" />
  <line x1="2157" y1="50.0" x2="2197" y2="50.0" style="stroke:#999; stroke-width:3;" />
  <rect class="anc_exon" x="2197" y="35.0" width="86" height="30" style="fill:#87bcbc;fill-opacity:1.00" />
  <line x1="2283" y1="50.0" x2="2323" y2="50.0" style="stroke:#999; stroke-width:3;" />
  <rect class="anc_exon" x="2323" y="35.0" width="44" height="30" style="fill:#87bcbc;fill-opacity:1.00" />
  <line x1="2367" y1="50.0" x2="2407" y2="50.0" style="stroke:#999; stroke-width:3;" />
  <rect class="anc_exon" x="2407" y="35.0" width="70" height="30" style="fill:#87bcbc;fill-opacity:1.00" />
  <line x1="2477" y1="50.0" x2="2517" y2="50.0" style="stroke:#999; stroke-width:3;" />
  <rect class="anc_exon" x="2517" y="35.0" width="96" height="30" style="fill:#87bcbc;fill-opacity:1.00" />
  <line x1="2613" y1="50.0" x2="2633" y2="50.0" style="stroke:#999; stroke-width:3;" />
  <line x1="2633" y1="50.0" x2="2633" y2="50.0" style="stroke:#999; stroke-width:3;" />
  <line x1="2633" y1="50.0" x2="2633" y2="50.0" style="stroke:#999; stroke-width:3;" />
  <line x1="2633" y1="50.0" x2="2653" y2="50.0" style="stroke:#999; stroke-width:3;" />
  <rect class="anc_exon" x="2653" y="35.0" width="78" height="30" style="fill:#87bcbc;fill-opacity:1.00" />
  <line x1="2731" y1="50.0" x2="2771" y2="50.0" style="stroke:#999; stroke-width:3;" />
  <rect class="anc_exon" x="2771" y="35.0" width="95" height="30" style="fill:#87bcbc;fill-opacity:1.00" />
  <line x1="2866" y1="50.0" x2="2906" y2="50.0" style="stroke:#999; stroke-width:3;" />
  <rect class="anc_exon" x="2906" y="35.0" width="107" height="30" style="fill:#87bcbc;fill-opacity:1.00" />
  <line x1="3013" y1="50.0" x2="3053" y2="50.0" style="stroke:#999; stroke-width:3;" />
  <rect class="anc_exon" x="3053" y="35.0" width="68" height="30" style="fill:#87bcbc;fill-opacity:1.00" />
  <line x1="3121" y1="50.0" x2="3161" y2="50.0" style="stroke:#999; stroke-width:3;" />
  <rect class="anc_exon" x="3161" y="35.0" width="111" height="30" style="fill:#87bcbc;fill-opacity:1.00" />
  <line x1="3272" y1="50.0" x2="3312" y2="50.0" style="stroke:#999; stroke-width:3;" />
  <rect class="anc_exon" x="3312" y="35.0" width="39" height="30" style="fill:#87bcbc;fill-opacity:1.00" />
  <rect class="anc_exon" x="3351" y="35.0" width="0" height="30" style="fill:#87bcbc;fill-opacity:1.00" />
  <text style="" >
<tspan x="0" y="83.0" style="font-size:18px;" >SP XM_031938049_1.1</tspan>  </text>



<script type="text/ecmascript">
<![CDATA[
function draw_bbox(text_id)
{
    var text_elem = document.getElementById(text_id);
    var offset_px = 2;
    var offset_py = 0;
    bbox = text_elem.getBBox();
    var box = document.createElementNS(document.rootElement.namespaceURI,'rect');
    box.setAttribute('x', bbox.x - offset_px);
    box.setAttribute('y', bbox.y - offset_py);
    box.setAttribute('width', bbox.width + offset_px * 2);
    box.setAttribute('height', bbox.height + offset_py * 2);
    box.setAttribute('style','fill: white;'+'stroke: black;'+'stroke-width: 1px;');
    text_elem.insertBefore(box,text_elem.childNodes[0]);

    var svg = text_elem.parentNode;
    svg.appendChild(text_elem);
}

for (var i=1; i < 1; i++)
{
draw_bbox("Mouseover" + i);
}
]]> 
</script>
</svg>
