<svg version="1.1"
xmlns="http://www.w3.org/2000/svg"
xmlns:xlink="http://www.w3.org/1999/xlink"
width="2254" height="100" viewBox = "0 0 2254 100"
onclick="mouseclick(evt)">

<script type="text/ecmascript">

<![CDATA[
    function mouseover(evt, target) { 
    var gv = document.getElementById("globalVariable");
    var previoustarget = gv.firstChild.nodeValue;
    if (previoustarget != "none") 
    {
        	document.getElementById(gv.firstChild.nodeValue).setAttributeNS(null, "visibility", "hidden");
    }
    document.getElementById(target).setAttributeNS(null, "visibility", "visible");
    gv.firstChild.nodeValue = target;
        }

    function mouseclick(evt) { 
    var gv = document.getElementById("globalVariable");
    var previoustarget = gv.firstChild.nodeValue;
    if (previoustarget != "none") {
        	document.getElementById(gv.firstChild.nodeValue).setAttributeNS(null, "visibility", "hidden");
        }
    }
]]>
  </script>
<style type="text/css" >

<![CDATA[
    rect.anc_exon {
              stroke-width:3;
                  }

    rect.non_anc_exon {
              stroke: black; stroke-width:3; stroke-dasharray: 5,5;
                    }

    text {
              font-size: 18px;
              font-family: Courier New;
          }
                    ]]>
</style>

<defs>
    <text x="150" y="40" id="globalVariable">none</text>
</defs>

  <rect class="anc_exon" x="0" y="35.0" width="0" height="30" style="fill:#87bcbc;fill-opacity:1.00" />
  <rect class="anc_exon" x="0" y="35.0" width="143.20000000000002" height="30" style="fill:#87bcbc;fill-opacity:1.00" />
  <line x1="143.20000000000002" y1="50.0" x2="183.0" y2="50.0" style="stroke:#999; stroke-width:3;" />
  <rect class="anc_exon" x="183" y="35.0" width="69" height="30" style="fill:#87bcbc;fill-opacity:1.00" />
  <line x1="252" y1="50.0" x2="292" y2="50.0" style="stroke:#999; stroke-width:3;" />
  <rect class="anc_exon" x="292" y="35.0" width="101" height="30" style="fill:#87bcbc;fill-opacity:1.00" />
  <line x1="393" y1="50.0" x2="433" y2="50.0" style="stroke:#999; stroke-width:3;" />
  <rect class="anc_exon" x="433" y="35.0" width="68" height="30" style="fill:#87bcbc;fill-opacity:1.00" />
  <line x1="501" y1="50.0" x2="541" y2="50.0" style="stroke:#999; stroke-width:3;" />
  <rect class="anc_exon" x="541" y="35.0" width="75" height="30" style="fill:#87bcbc;fill-opacity:1.00" />
  <line x1="616" y1="50.0" x2="636" y2="50.0" style="stroke:#999; stroke-width:3;" />
  <line x1="636" y1="50.0" x2="636" y2="50.0" style="stroke:#999; stroke-width:3;" />
  <line x1="636" y1="50.0" x2="636" y2="50.0" style="stroke:#999; stroke-width:3;" />
  <line x1="636" y1="50.0" x2="656" y2="50.0" style="stroke:#999; stroke-width:3;" />
  <rect class="anc_exon" x="656" y="35.0" width="117" height="30" style="fill:#87bcbc;fill-opacity:1.00" />
  <line x1="773" y1="50.0" x2="793" y2="50.0" style="stroke:#999; stroke-width:3;" />
  <line x1="793" y1="50.0" x2="793" y2="50.0" style="stroke:#999; stroke-width:3;" />
  <line x1="793" y1="50.0" x2="793" y2="50.0" style="stroke:#999; stroke-width:3;" />
  <line x1="793" y1="50.0" x2="813" y2="50.0" style="stroke:#999; stroke-width:3;" />
  <rect class="anc_exon" x="813" y="35.0" width="85" height="30" style="fill:#87bcbc;fill-opacity:1.00" />
  <line x1="898" y1="50.0" x2="938" y2="50.0" style="stroke:#999; stroke-width:3;" />
  <rect class="anc_exon" x="938" y="35.0" width="96" height="30" style="fill:#87bcbc;fill-opacity:1.00" />
  <line x1="1034" y1="50.0" x2="1054" y2="50.0" style="stroke:#999; stroke-width:3;" />
  <line x1="1054" y1="50.0" x2="1054" y2="50.0" style="stroke:#999; stroke-width:3;" />
  <line x1="1054" y1="50.0" x2="1054" y2="50.0" style="stroke:#999; stroke-width:3;" />
  <line x1="1054" y1="50.0" x2="1074" y2="50.0" style="stroke:#999; stroke-width:3;" />
  <rect class="anc_exon" x="1074" y="35.0" width="116" height="30" style="fill:#87bcbc;fill-opacity:1.00" />
  <line x1="1190" y1="50.0" x2="1230" y2="50.0" style="stroke:#999; stroke-width:3;" />
  <rect class="anc_exon" x="1230" y="35.0" width="80" height="30" style="fill:#87bcbc;fill-opacity:1.00" />
  <line x1="1310" y1="50.0" x2="1330" y2="50.0" style="stroke:#999; stroke-width:3;" />
  <line x1="1330" y1="50.0" x2="1330" y2="50.0" style="stroke:#999; stroke-width:3;" />
  <line x1="1330" y1="50.0" x2="1330" y2="50.0" style="stroke:#999; stroke-width:3;" />
  <line x1="1330" y1="50.0" x2="1350" y2="50.0" style="stroke:#999; stroke-width:3;" />
  <rect class="anc_exon" x="1350" y="35.0" width="108" height="30" style="fill:#87bcbc;fill-opacity:1.00" />
  <line x1="1458" y1="50.0" x2="1498" y2="50.0" style="stroke:#999; stroke-width:3;" />
  <rect class="anc_exon" x="1498" y="35.0" width="60" height="30" style="fill:#87bcbc;fill-opacity:1.00" />
  <line x1="1558" y1="50.0" x2="1578" y2="50.0" style="stroke:#999; stroke-width:3;" />
  <line x1="1578" y1="50.0" x2="1578" y2="50.0" style="stroke:#999; stroke-width:3;" />
  <line x1="1578" y1="50.0" x2="1578" y2="50.0" style="stroke:#999; stroke-width:3;" />
  <line x1="1578" y1="50.0" x2="1598" y2="50.0" style="stroke:#999; stroke-width:3;" />
  <rect class="anc_exon" x="1598" y="35.0" width="116" height="30" style="fill:#87bcbc;fill-opacity:1.00" />
  <line x1="1714" y1="50.0" x2="1754" y2="50.0" style="stroke:#999; stroke-width:3;" />
  <rect class="anc_exon" x="1754" y="35.0" width="50" height="30" style="fill:#87bcbc;fill-opacity:1.00" />
  <line x1="1804" y1="50.0" x2="1844" y2="50.0" style="stroke:#999; stroke-width:3;" />
  <rect class="anc_exon" x="1844" y="35.0" width="104" height="30" style="fill:#87bcbc;fill-opacity:1.00" />
  <line x1="1948" y1="50.0" x2="1988" y2="50.0" style="stroke:#999; stroke-width:3;" />
  <rect class="anc_exon" x="1988" y="35.0" width="74" height="30" style="fill:#87bcbc;fill-opacity:1.00" />
  <line x1="2062" y1="50.0" x2="2102" y2="50.0" style="stroke:#999; stroke-width:3;" />
  <rect class="anc_exon" x="2102" y="35.0" width="116" height="30" style="fill:#87bcbc;fill-opacity:1.00" />
  <rect class="anc_exon" x="2218" y="35.0" width="0" height="30" style="fill:#87bcbc;fill-opacity:1.00" />
  <text style="" >
<tspan x="0" y="83.0" style="font-size:18px;" >SP XM_012551350_3.1</tspan>  </text>



<script type="text/ecmascript">
<![CDATA[
function draw_bbox(text_id)
{
    var text_elem = document.getElementById(text_id);
    var offset_px = 2;
    var offset_py = 0;
    bbox = text_elem.getBBox();
    var box = document.createElementNS(document.rootElement.namespaceURI,'rect');
    box.setAttribute('x', bbox.x - offset_px);
    box.setAttribute('y', bbox.y - offset_py);
    box.setAttribute('width', bbox.width + offset_px * 2);
    box.setAttribute('height', bbox.height + offset_py * 2);
    box.setAttribute('style','fill: white;'+'stroke: black;'+'stroke-width: 1px;');
    text_elem.insertBefore(box,text_elem.childNodes[0]);

    var svg = text_elem.parentNode;
    svg.appendChild(text_elem);
}

for (var i=1; i < 1; i++)
{
draw_bbox("Mouseover" + i);
}
]]> 
</script>
</svg>
