<svg version="1.1"
xmlns="http://www.w3.org/2000/svg"
xmlns:xlink="http://www.w3.org/1999/xlink"
width="3551" height="100" viewBox = "0 0 3551 100"
onclick="mouseclick(evt)">

<script type="text/ecmascript">

<![CDATA[
    function mouseover(evt, target) { 
    var gv = document.getElementById("globalVariable");
    var previoustarget = gv.firstChild.nodeValue;
    if (previoustarget != "none") 
    {
        	document.getElementById(gv.firstChild.nodeValue).setAttributeNS(null, "visibility", "hidden");
    }
    document.getElementById(target).setAttributeNS(null, "visibility", "visible");
    gv.firstChild.nodeValue = target;
        }

    function mouseclick(evt) { 
    var gv = document.getElementById("globalVariable");
    var previoustarget = gv.firstChild.nodeValue;
    if (previoustarget != "none") {
        	document.getElementById(gv.firstChild.nodeValue).setAttributeNS(null, "visibility", "hidden");
        }
    }
]]>
  </script>
<style type="text/css" >

<![CDATA[
    rect.anc_exon {
              stroke-width:3;
                  }

    rect.non_anc_exon {
              stroke: black; stroke-width:3; stroke-dasharray: 5,5;
                    }

    text {
              font-size: 18px;
              font-family: Courier New;
          }
                    ]]>
</style>

<defs>
    <text x="150" y="40" id="globalVariable">none</text>
</defs>

  <rect class="anc_exon" x="0" y="35.0" width="0" height="30" style="fill:#87bcbc;fill-opacity:1.00" />
  <rect class="anc_exon" x="0" y="35.0" width="51.2" height="30" style="fill:#87bcbc;fill-opacity:1.00" />
  <line x1="51.2" y1="50.0" x2="70.2" y2="50.0" style="stroke:#999; stroke-width:3;" />
  <line x1="70.2" y1="50.0" x2="70.2" y2="50.0" style="stroke:#999; stroke-width:3;" />
  <line x1="70.2" y1="50.0" x2="70.2" y2="50.0" style="stroke:#999; stroke-width:3;" />
  <line x1="70.2" y1="50.0" x2="91.0" y2="50.0" style="stroke:#999; stroke-width:3;" />
  <rect class="anc_exon" x="91" y="35.0" width="164" height="30" style="fill:#87bcbc;fill-opacity:1.00" />
  <line x1="255" y1="50.0" x2="275" y2="50.0" style="stroke:#999; stroke-width:3;" />
  <line x1="275" y1="50.0" x2="275" y2="50.0" style="stroke:#999; stroke-width:3;" />
  <line x1="275" y1="50.0" x2="275" y2="50.0" style="stroke:#999; stroke-width:3;" />
  <line x1="275" y1="50.0" x2="295" y2="50.0" style="stroke:#999; stroke-width:3;" />
  <rect class="anc_exon" x="295" y="35.0" width="69" height="30" style="fill:#87bcbc;fill-opacity:1.00" />
  <line x1="364" y1="50.0" x2="404" y2="50.0" style="stroke:#999; stroke-width:3;" />
  <rect class="anc_exon" x="404" y="35.0" width="91" height="30" style="fill:#87bcbc;fill-opacity:1.00" />
  <line x1="495" y1="50.0" x2="535" y2="50.0" style="stroke:#999; stroke-width:3;" />
  <rect class="anc_exon" x="535" y="35.0" width="105" height="30" style="fill:#87bcbc;fill-opacity:1.00" />
  <line x1="640" y1="50.0" x2="660" y2="50.0" style="stroke:#999; stroke-width:3;" />
  <line x1="660" y1="50.0" x2="660" y2="50.0" style="stroke:#999; stroke-width:3;" />
  <line x1="660" y1="50.0" x2="660" y2="50.0" style="stroke:#999; stroke-width:3;" />
  <line x1="660" y1="50.0" x2="680" y2="50.0" style="stroke:#999; stroke-width:3;" />
  <rect class="anc_exon" x="680" y="35.0" width="74" height="30" style="fill:#87bcbc;fill-opacity:1.00" />
  <line x1="754" y1="50.0" x2="794" y2="50.0" style="stroke:#999; stroke-width:3;" />
  <rect class="anc_exon" x="794" y="35.0" width="74" height="30" style="fill:#87bcbc;fill-opacity:1.00" />
  <line x1="868" y1="50.0" x2="908" y2="50.0" style="stroke:#999; stroke-width:3;" />
  <rect class="anc_exon" x="908" y="35.0" width="92" height="30" style="fill:#87bcbc;fill-opacity:1.00" />
  <line x1="1000" y1="50.0" x2="1020" y2="50.0" style="stroke:#999; stroke-width:3;" />
  <line x1="1020" y1="50.0" x2="1020" y2="50.0" style="stroke:#999; stroke-width:3;" />
  <line x1="1020" y1="50.0" x2="1020" y2="50.0" style="stroke:#999; stroke-width:3;" />
  <line x1="1020" y1="50.0" x2="1040" y2="50.0" style="stroke:#999; stroke-width:3;" />
  <rect class="anc_exon" x="1040" y="35.0" width="49" height="30" style="fill:#87bcbc;fill-opacity:1.00" />
  <line x1="1089" y1="50.0" x2="1129" y2="50.0" style="stroke:#999; stroke-width:3;" />
  <rect class="anc_exon" x="1129" y="35.0" width="68" height="30" style="fill:#87bcbc;fill-opacity:1.00" />
  <line x1="1197" y1="50.0" x2="1217" y2="50.0" style="stroke:#999; stroke-width:3;" />
  <line x1="1217" y1="50.0" x2="1217" y2="50.0" style="stroke:#999; stroke-width:3;" />
  <line x1="1217" y1="50.0" x2="1217" y2="50.0" style="stroke:#999; stroke-width:3;" />
  <line x1="1217" y1="50.0" x2="1237" y2="50.0" style="stroke:#999; stroke-width:3;" />
  <rect class="anc_exon" x="1237" y="35.0" width="119" height="30" style="fill:#87bcbc;fill-opacity:1.00" />
  <line x1="1356" y1="50.0" x2="1376" y2="50.0" style="stroke:#999; stroke-width:3;" />
  <line x1="1376" y1="50.0" x2="1376" y2="50.0" style="stroke:#999; stroke-width:3;" />
  <line x1="1376" y1="50.0" x2="1376" y2="50.0" style="stroke:#999; stroke-width:3;" />
  <line x1="1376" y1="50.0" x2="1396" y2="50.0" style="stroke:#999; stroke-width:3;" />
  <rect class="anc_exon" x="1396" y="35.0" width="92" height="30" style="fill:#87bcbc;fill-opacity:1.00" />
  <line x1="1488" y1="50.0" x2="1528" y2="50.0" style="stroke:#999; stroke-width:3;" />
  <rect class="anc_exon" x="1528" y="35.0" width="45" height="30" style="fill:#87bcbc;fill-opacity:1.00" />
  <line x1="1573" y1="50.0" x2="1593" y2="50.0" style="stroke:#999; stroke-width:3;" />
  <line x1="1593" y1="50.0" x2="1593" y2="50.0" style="stroke:#999; stroke-width:3;" />
  <line x1="1593" y1="50.0" x2="1593" y2="50.0" style="stroke:#999; stroke-width:3;" />
  <line x1="1593" y1="50.0" x2="1613" y2="50.0" style="stroke:#999; stroke-width:3;" />
  <rect class="anc_exon" x="1613" y="35.0" width="48" height="30" style="fill:#87bcbc;fill-opacity:1.00" />
  <line x1="1661" y1="50.0" x2="1701" y2="50.0" style="stroke:#999; stroke-width:3;" />
  <rect class="anc_exon" x="1701" y="35.0" width="24" height="30" style="fill:#87bcbc;fill-opacity:1.00" />
  <line x1="1725" y1="50.0" x2="1745" y2="50.0" style="stroke:#999; stroke-width:3;" />
  <line x1="1745" y1="50.0" x2="1745" y2="50.0" style="stroke:#999; stroke-width:3;" />
  <line x1="1745" y1="50.0" x2="1745" y2="50.0" style="stroke:#999; stroke-width:3;" />
  <line x1="1745" y1="50.0" x2="1765" y2="50.0" style="stroke:#999; stroke-width:3;" />
  <rect class="anc_exon" x="1765" y="35.0" width="137" height="30" style="fill:#87bcbc;fill-opacity:1.00" />
  <line x1="1902" y1="50.0" x2="1942" y2="50.0" style="stroke:#999; stroke-width:3;" />
  <rect class="anc_exon" x="1942" y="35.0" width="26" height="30" style="fill:#87bcbc;fill-opacity:1.00" />
  <line x1="1968" y1="50.0" x2="1988" y2="50.0" style="stroke:#999; stroke-width:3;" />
  <line x1="1988" y1="50.0" x2="1988" y2="50.0" style="stroke:#999; stroke-width:3;" />
  <line x1="1988" y1="50.0" x2="1988" y2="50.0" style="stroke:#999; stroke-width:3;" />
  <line x1="1988" y1="50.0" x2="2008" y2="50.0" style="stroke:#999; stroke-width:3;" />
  <rect class="anc_exon" x="2008" y="35.0" width="120" height="30" style="fill:#87bcbc;fill-opacity:1.00" />
  <line x1="2128" y1="50.0" x2="2168" y2="50.0" style="stroke:#999; stroke-width:3;" />
  <rect class="anc_exon" x="2168" y="35.0" width="103" height="30" style="fill:#87bcbc;fill-opacity:1.00" />
  <line x1="2271" y1="50.0" x2="2291" y2="50.0" style="stroke:#999; stroke-width:3;" />
  <line x1="2291" y1="50.0" x2="2291" y2="50.0" style="stroke:#999; stroke-width:3;" />
  <line x1="2291" y1="50.0" x2="2291" y2="50.0" style="stroke:#999; stroke-width:3;" />
  <line x1="2291" y1="50.0" x2="2311" y2="50.0" style="stroke:#999; stroke-width:3;" />
  <rect class="anc_exon" x="2311" y="35.0" width="120" height="30" style="fill:#87bcbc;fill-opacity:1.00" />
  <line x1="2431" y1="50.0" x2="2471" y2="50.0" style="stroke:#999; stroke-width:3;" />
  <rect class="anc_exon" x="2471" y="35.0" width="89" height="30" style="fill:#87bcbc;fill-opacity:1.00" />
  <line x1="2560" y1="50.0" x2="2600" y2="50.0" style="stroke:#999; stroke-width:3;" />
  <rect class="anc_exon" x="2600" y="35.0" width="71" height="30" style="fill:#87bcbc;fill-opacity:1.00" />
  <line x1="2671" y1="50.0" x2="2711" y2="50.0" style="stroke:#999; stroke-width:3;" />
  <rect class="anc_exon" x="2711" y="35.0" width="98" height="30" style="fill:#87bcbc;fill-opacity:1.00" />
  <line x1="2809" y1="50.0" x2="2849" y2="50.0" style="stroke:#999; stroke-width:3;" />
  <rect class="anc_exon" x="2849" y="35.0" width="100" height="30" style="fill:#87bcbc;fill-opacity:1.00" />
  <line x1="2949" y1="50.0" x2="2989" y2="50.0" style="stroke:#999; stroke-width:3;" />
  <rect class="anc_exon" x="2989" y="35.0" width="151" height="30" style="fill:#87bcbc;fill-opacity:1.00" />
  <line x1="3140" y1="50.0" x2="3180" y2="50.0" style="stroke:#999; stroke-width:3;" />
  <rect class="anc_exon" x="3180" y="35.0" width="134" height="30" style="fill:#87bcbc;fill-opacity:1.00" />
  <line x1="3314" y1="50.0" x2="3354" y2="50.0" style="stroke:#999; stroke-width:3;" />
  <rect class="anc_exon" x="3354" y="35.0" width="52" height="30" style="fill:#87bcbc;fill-opacity:1.00" />
  <line x1="3406" y1="50.0" x2="3446" y2="50.0" style="stroke:#999; stroke-width:3;" />
  <rect class="anc_exon" x="3446" y="35.0" width="69" height="30" style="fill:#87bcbc;fill-opacity:1.00" />
  <rect class="anc_exon" x="3515" y="35.0" width="0" height="30" style="fill:#87bcbc;fill-opacity:1.00" />
  <text style="" >
<tspan x="0" y="83.0" style="font-size:18px;" >SP XM_031938062_1.1</tspan>  </text>



<script type="text/ecmascript">
<![CDATA[
function draw_bbox(text_id)
{
    var text_elem = document.getElementById(text_id);
    var offset_px = 2;
    var offset_py = 0;
    bbox = text_elem.getBBox();
    var box = document.createElementNS(document.rootElement.namespaceURI,'rect');
    box.setAttribute('x', bbox.x - offset_px);
    box.setAttribute('y', bbox.y - offset_py);
    box.setAttribute('width', bbox.width + offset_px * 2);
    box.setAttribute('height', bbox.height + offset_py * 2);
    box.setAttribute('style','fill: white;'+'stroke: black;'+'stroke-width: 1px;');
    text_elem.insertBefore(box,text_elem.childNodes[0]);

    var svg = text_elem.parentNode;
    svg.appendChild(text_elem);
}

for (var i=1; i < 1; i++)
{
draw_bbox("Mouseover" + i);
}
]]> 
</script>
</svg>
