<svg version="1.1"
xmlns="http://www.w3.org/2000/svg"
xmlns:xlink="http://www.w3.org/1999/xlink"
width="7159" height="100" viewBox = "0 0 7159 100"
onclick="mouseclick(evt)">

<script type="text/ecmascript">

<![CDATA[
    function mouseover(evt, target) { 
    var gv = document.getElementById("globalVariable");
    var previoustarget = gv.firstChild.nodeValue;
    if (previoustarget != "none") 
    {
        	document.getElementById(gv.firstChild.nodeValue).setAttributeNS(null, "visibility", "hidden");
    }
    document.getElementById(target).setAttributeNS(null, "visibility", "visible");
    gv.firstChild.nodeValue = target;
        }

    function mouseclick(evt) { 
    var gv = document.getElementById("globalVariable");
    var previoustarget = gv.firstChild.nodeValue;
    if (previoustarget != "none") {
        	document.getElementById(gv.firstChild.nodeValue).setAttributeNS(null, "visibility", "hidden");
        }
    }
]]>
  </script>
<style type="text/css" >

<![CDATA[
    rect.anc_exon {
              stroke-width:3;
                  }

    rect.non_anc_exon {
              stroke: black; stroke-width:3; stroke-dasharray: 5,5;
                    }

    text {
              font-size: 18px;
              font-family: Courier New;
          }
                    ]]>
</style>

<defs>
    <text x="150" y="40" id="globalVariable">none</text>
</defs>

  <rect class="anc_exon" x="0" y="35.0" width="0" height="30" style="fill:#87bcbc;fill-opacity:1.00" />
  <rect class="anc_exon" x="0" y="35.0" width="29.6" height="30" style="fill:#87bcbc;fill-opacity:1.00" />
  <line x1="29.6" y1="50.0" x2="48.6" y2="50.0" style="stroke:#999; stroke-width:3;" />
  <line x1="48.6" y1="50.0" x2="48.6" y2="50.0" style="stroke:#999; stroke-width:3;" />
  <line x1="48.6" y1="50.0" x2="48.6" y2="50.0" style="stroke:#999; stroke-width:3;" />
  <line x1="48.6" y1="50.0" x2="69.0" y2="50.0" style="stroke:#999; stroke-width:3;" />
  <rect class="anc_exon" x="69" y="35.0" width="46" height="30" style="fill:#87bcbc;fill-opacity:1.00" />
  <line x1="115" y1="50.0" x2="135" y2="50.0" style="stroke:#999; stroke-width:3;" />
  <line x1="135" y1="50.0" x2="135" y2="50.0" style="stroke:#999; stroke-width:3;" />
  <line x1="135" y1="50.0" x2="135" y2="50.0" style="stroke:#999; stroke-width:3;" />
  <line x1="135" y1="50.0" x2="155" y2="50.0" style="stroke:#999; stroke-width:3;" />
  <rect class="anc_exon" x="155" y="35.0" width="73" height="30" style="fill:#87bcbc;fill-opacity:1.00" />
  <line x1="228" y1="50.0" x2="248" y2="50.0" style="stroke:#999; stroke-width:3;" />
  <line x1="248" y1="50.0" x2="248" y2="50.0" style="stroke:#999; stroke-width:3;" />
  <line x1="248" y1="50.0" x2="248" y2="50.0" style="stroke:#999; stroke-width:3;" />
  <line x1="248" y1="50.0" x2="268" y2="50.0" style="stroke:#999; stroke-width:3;" />
  <rect class="anc_exon" x="268" y="35.0" width="46" height="30" style="fill:#87bcbc;fill-opacity:1.00" />
  <line x1="314" y1="50.0" x2="354" y2="50.0" style="stroke:#999; stroke-width:3;" />
  <rect class="anc_exon" x="354" y="35.0" width="121" height="30" style="fill:#87bcbc;fill-opacity:1.00" />
  <line x1="475" y1="50.0" x2="495" y2="50.0" style="stroke:#999; stroke-width:3;" />
  <line x1="495" y1="50.0" x2="495" y2="50.0" style="stroke:#999; stroke-width:3;" />
  <line x1="495" y1="50.0" x2="495" y2="50.0" style="stroke:#999; stroke-width:3;" />
  <line x1="495" y1="50.0" x2="515" y2="50.0" style="stroke:#999; stroke-width:3;" />
  <rect class="anc_exon" x="515" y="35.0" width="538" height="30" style="fill:#87bcbc;fill-opacity:1.00" />
  <line x1="1053" y1="50.0" x2="1073" y2="50.0" style="stroke:#999; stroke-width:3;" />
  <line x1="1073" y1="50.0" x2="1073" y2="50.0" style="stroke:#999; stroke-width:3;" />
  <line x1="1073" y1="50.0" x2="1073" y2="50.0" style="stroke:#999; stroke-width:3;" />
  <line x1="1073" y1="50.0" x2="1093" y2="50.0" style="stroke:#999; stroke-width:3;" />
  <rect class="anc_exon" x="1093" y="35.0" width="64" height="30" style="fill:#87bcbc;fill-opacity:1.00" />
  <line x1="1157" y1="50.0" x2="1177" y2="50.0" style="stroke:#999; stroke-width:3;" />
  <line x1="1177" y1="50.0" x2="1177" y2="50.0" style="stroke:#999; stroke-width:3;" />
  <line x1="1177" y1="50.0" x2="1177" y2="50.0" style="stroke:#999; stroke-width:3;" />
  <line x1="1177" y1="50.0" x2="1197" y2="50.0" style="stroke:#999; stroke-width:3;" />
  <rect class="anc_exon" x="1197" y="35.0" width="734" height="30" style="fill:#87bcbc;fill-opacity:1.00" />
  <line x1="1931" y1="50.0" x2="1971" y2="50.0" style="stroke:#999; stroke-width:3;" />
  <rect class="anc_exon" x="1971" y="35.0" width="136" height="30" style="fill:#87bcbc;fill-opacity:1.00" />
  <line x1="2107" y1="50.0" x2="2147" y2="50.0" style="stroke:#999; stroke-width:3;" />
  <rect class="anc_exon" x="2147" y="35.0" width="28" height="30" style="fill:#87bcbc;fill-opacity:1.00" />
  <line x1="2175" y1="50.0" x2="2215" y2="50.0" style="stroke:#999; stroke-width:3;" />
  <rect class="anc_exon" x="2215" y="35.0" width="49" height="30" style="fill:#87bcbc;fill-opacity:1.00" />
  <line x1="2264" y1="50.0" x2="2304" y2="50.0" style="stroke:#999; stroke-width:3;" />
  <rect class="anc_exon" x="2304" y="35.0" width="112" height="30" style="fill:#87bcbc;fill-opacity:1.00" />
  <line x1="2416" y1="50.0" x2="2456" y2="50.0" style="stroke:#999; stroke-width:3;" />
  <rect class="anc_exon" x="2456" y="35.0" width="76" height="30" style="fill:#87bcbc;fill-opacity:1.00" />
  <line x1="2532" y1="50.0" x2="2572" y2="50.0" style="stroke:#999; stroke-width:3;" />
  <rect class="anc_exon" x="2572" y="35.0" width="195" height="30" style="fill:#87bcbc;fill-opacity:1.00" />
  <line x1="2767" y1="50.0" x2="2807" y2="50.0" style="stroke:#999; stroke-width:3;" />
  <rect class="anc_exon" x="2807" y="35.0" width="452" height="30" style="fill:#87bcbc;fill-opacity:1.00" />
  <line x1="3259" y1="50.0" x2="3299" y2="50.0" style="stroke:#999; stroke-width:3;" />
  <rect class="anc_exon" x="3299" y="35.0" width="168" height="30" style="fill:#87bcbc;fill-opacity:1.00" />
  <line x1="3467" y1="50.0" x2="3487" y2="50.0" style="stroke:#999; stroke-width:3;" />
  <line x1="3487" y1="50.0" x2="3487" y2="50.0" style="stroke:#999; stroke-width:3;" />
  <line x1="3487" y1="50.0" x2="3487" y2="50.0" style="stroke:#999; stroke-width:3;" />
  <line x1="3487" y1="50.0" x2="3507" y2="50.0" style="stroke:#999; stroke-width:3;" />
  <rect class="anc_exon" x="3507" y="35.0" width="106" height="30" style="fill:#87bcbc;fill-opacity:1.00" />
  <line x1="3613" y1="50.0" x2="3633" y2="50.0" style="stroke:#999; stroke-width:3;" />
  <line x1="3633" y1="50.0" x2="3633" y2="50.0" style="stroke:#999; stroke-width:3;" />
  <line x1="3633" y1="50.0" x2="3633" y2="50.0" style="stroke:#999; stroke-width:3;" />
  <line x1="3633" y1="50.0" x2="3653" y2="50.0" style="stroke:#999; stroke-width:3;" />
  <rect class="anc_exon" x="3653" y="35.0" width="38" height="30" style="fill:#87bcbc;fill-opacity:1.00" />
  <line x1="3691" y1="50.0" x2="3731" y2="50.0" style="stroke:#999; stroke-width:3;" />
  <rect class="anc_exon" x="3731" y="35.0" width="62" height="30" style="fill:#87bcbc;fill-opacity:1.00" />
  <line x1="3793" y1="50.0" x2="3813" y2="50.0" style="stroke:#999; stroke-width:3;" />
  <line x1="3813" y1="50.0" x2="3813" y2="50.0" style="stroke:#999; stroke-width:3;" />
  <line x1="3813" y1="50.0" x2="3813" y2="50.0" style="stroke:#999; stroke-width:3;" />
  <line x1="3813" y1="50.0" x2="3833" y2="50.0" style="stroke:#999; stroke-width:3;" />
  <rect class="anc_exon" x="3833" y="35.0" width="120" height="30" style="fill:#87bcbc;fill-opacity:1.00" />
  <line x1="3953" y1="50.0" x2="3973" y2="50.0" style="stroke:#999; stroke-width:3;" />
  <line x1="3973" y1="50.0" x2="3973" y2="50.0" style="stroke:#999; stroke-width:3;" />
  <line x1="3973" y1="50.0" x2="3973" y2="50.0" style="stroke:#999; stroke-width:3;" />
  <line x1="3973" y1="50.0" x2="3993" y2="50.0" style="stroke:#999; stroke-width:3;" />
  <rect class="anc_exon" x="3993" y="35.0" width="72" height="30" style="fill:#87bcbc;fill-opacity:1.00" />
  <line x1="4065" y1="50.0" x2="4105" y2="50.0" style="stroke:#999; stroke-width:3;" />
  <rect class="anc_exon" x="4105" y="35.0" width="69" height="30" style="fill:#87bcbc;fill-opacity:1.00" />
  <line x1="4174" y1="50.0" x2="4214" y2="50.0" style="stroke:#999; stroke-width:3;" />
  <rect class="anc_exon" x="4214" y="35.0" width="140" height="30" style="fill:#87bcbc;fill-opacity:1.00" />
  <line x1="4354" y1="50.0" x2="4394" y2="50.0" style="stroke:#999; stroke-width:3;" />
  <rect class="anc_exon" x="4394" y="35.0" width="138" height="30" style="fill:#87bcbc;fill-opacity:1.00" />
  <line x1="4532" y1="50.0" x2="4552" y2="50.0" style="stroke:#999; stroke-width:3;" />
  <line x1="4552" y1="50.0" x2="4552" y2="50.0" style="stroke:#999; stroke-width:3;" />
  <line x1="4552" y1="50.0" x2="4552" y2="50.0" style="stroke:#999; stroke-width:3;" />
  <line x1="4552" y1="50.0" x2="4572" y2="50.0" style="stroke:#999; stroke-width:3;" />
  <rect class="anc_exon" x="4572" y="35.0" width="124" height="30" style="fill:#87bcbc;fill-opacity:1.00" />
  <line x1="4696" y1="50.0" x2="4716" y2="50.0" style="stroke:#999; stroke-width:3;" />
  <line x1="4716" y1="50.0" x2="4716" y2="50.0" style="stroke:#999; stroke-width:3;" />
  <line x1="4716" y1="50.0" x2="4716" y2="50.0" style="stroke:#999; stroke-width:3;" />
  <line x1="4716" y1="50.0" x2="4736" y2="50.0" style="stroke:#999; stroke-width:3;" />
  <rect class="anc_exon" x="4736" y="35.0" width="109" height="30" style="fill:#87bcbc;fill-opacity:1.00" />
  <line x1="4845" y1="50.0" x2="4885" y2="50.0" style="stroke:#999; stroke-width:3;" />
  <rect class="anc_exon" x="4885" y="35.0" width="118" height="30" style="fill:#87bcbc;fill-opacity:1.00" />
  <line x1="5003" y1="50.0" x2="5043" y2="50.0" style="stroke:#999; stroke-width:3;" />
  <rect class="anc_exon" x="5043" y="35.0" width="116" height="30" style="fill:#87bcbc;fill-opacity:1.00" />
  <line x1="5159" y1="50.0" x2="5199" y2="50.0" style="stroke:#999; stroke-width:3;" />
  <rect class="anc_exon" x="5199" y="35.0" width="140" height="30" style="fill:#87bcbc;fill-opacity:1.00" />
  <line x1="5339" y1="50.0" x2="5359" y2="50.0" style="stroke:#999; stroke-width:3;" />
  <line x1="5359" y1="50.0" x2="5359" y2="50.0" style="stroke:#999; stroke-width:3;" />
  <line x1="5359" y1="50.0" x2="5359" y2="50.0" style="stroke:#999; stroke-width:3;" />
  <line x1="5359" y1="50.0" x2="5379" y2="50.0" style="stroke:#999; stroke-width:3;" />
  <rect class="anc_exon" x="5379" y="35.0" width="116" height="30" style="fill:#87bcbc;fill-opacity:1.00" />
  <line x1="5495" y1="50.0" x2="5535" y2="50.0" style="stroke:#999; stroke-width:3;" />
  <rect class="anc_exon" x="5535" y="35.0" width="221" height="30" style="fill:#87bcbc;fill-opacity:1.00" />
  <line x1="5756" y1="50.0" x2="5776" y2="50.0" style="stroke:#999; stroke-width:3;" />
  <line x1="5776" y1="50.0" x2="5776" y2="50.0" style="stroke:#999; stroke-width:3;" />
  <line x1="5776" y1="50.0" x2="5776" y2="50.0" style="stroke:#999; stroke-width:3;" />
  <line x1="5776" y1="50.0" x2="5796" y2="50.0" style="stroke:#999; stroke-width:3;" />
  <rect class="anc_exon" x="5796" y="35.0" width="121" height="30" style="fill:#87bcbc;fill-opacity:1.00" />
  <line x1="5917" y1="50.0" x2="5957" y2="50.0" style="stroke:#999; stroke-width:3;" />
  <rect class="anc_exon" x="5957" y="35.0" width="84" height="30" style="fill:#87bcbc;fill-opacity:1.00" />
  <line x1="6041" y1="50.0" x2="6081" y2="50.0" style="stroke:#999; stroke-width:3;" />
  <rect class="anc_exon" x="6081" y="35.0" width="166" height="30" style="fill:#87bcbc;fill-opacity:1.00" />
  <line x1="6247" y1="50.0" x2="6267" y2="50.0" style="stroke:#999; stroke-width:3;" />
  <line x1="6267" y1="50.0" x2="6267" y2="50.0" style="stroke:#999; stroke-width:3;" />
  <line x1="6267" y1="50.0" x2="6267" y2="50.0" style="stroke:#999; stroke-width:3;" />
  <line x1="6267" y1="50.0" x2="6287" y2="50.0" style="stroke:#999; stroke-width:3;" />
  <rect class="anc_exon" x="6287" y="35.0" width="107" height="30" style="fill:#87bcbc;fill-opacity:1.00" />
  <line x1="6394" y1="50.0" x2="6434" y2="50.0" style="stroke:#999; stroke-width:3;" />
  <rect class="anc_exon" x="6434" y="35.0" width="124" height="30" style="fill:#87bcbc;fill-opacity:1.00" />
  <line x1="6558" y1="50.0" x2="6598" y2="50.0" style="stroke:#999; stroke-width:3;" />
  <rect class="anc_exon" x="6598" y="35.0" width="115" height="30" style="fill:#87bcbc;fill-opacity:1.00" />
  <line x1="6713" y1="50.0" x2="6753" y2="50.0" style="stroke:#999; stroke-width:3;" />
  <rect class="anc_exon" x="6753" y="35.0" width="97" height="30" style="fill:#87bcbc;fill-opacity:1.00" />
  <line x1="6850" y1="50.0" x2="6870" y2="50.0" style="stroke:#999; stroke-width:3;" />
  <line x1="6870" y1="50.0" x2="6870" y2="50.0" style="stroke:#999; stroke-width:3;" />
  <line x1="6870" y1="50.0" x2="6870" y2="50.0" style="stroke:#999; stroke-width:3;" />
  <line x1="6870" y1="50.0" x2="6890" y2="50.0" style="stroke:#999; stroke-width:3;" />
  <rect class="anc_exon" x="6890" y="35.0" width="124" height="30" style="fill:#87bcbc;fill-opacity:1.00" />
  <line x1="7014" y1="50.0" x2="7054" y2="50.0" style="stroke:#999; stroke-width:3;" />
  <rect class="anc_exon" x="7054" y="35.0" width="69" height="30" style="fill:#87bcbc;fill-opacity:1.00" />
  <rect class="anc_exon" x="7123" y="35.0" width="0" height="30" style="fill:#87bcbc;fill-opacity:1.00" />
  <text style="" >
<tspan x="0" y="83.0" style="font-size:18px;" >SP XM_031939764_1.1</tspan>  </text>



<script type="text/ecmascript">
<![CDATA[
function draw_bbox(text_id)
{
    var text_elem = document.getElementById(text_id);
    var offset_px = 2;
    var offset_py = 0;
    bbox = text_elem.getBBox();
    var box = document.createElementNS(document.rootElement.namespaceURI,'rect');
    box.setAttribute('x', bbox.x - offset_px);
    box.setAttribute('y', bbox.y - offset_py);
    box.setAttribute('width', bbox.width + offset_px * 2);
    box.setAttribute('height', bbox.height + offset_py * 2);
    box.setAttribute('style','fill: white;'+'stroke: black;'+'stroke-width: 1px;');
    text_elem.insertBefore(box,text_elem.childNodes[0]);

    var svg = text_elem.parentNode;
    svg.appendChild(text_elem);
}

for (var i=1; i < 1; i++)
{
draw_bbox("Mouseover" + i);
}
]]> 
</script>
</svg>
