<svg version="1.1"
xmlns="http://www.w3.org/2000/svg"
xmlns:xlink="http://www.w3.org/1999/xlink"
width="1828" height="100" viewBox = "0 0 1828 100"
onclick="mouseclick(evt)">

<script type="text/ecmascript">

<![CDATA[
    function mouseover(evt, target) { 
    var gv = document.getElementById("globalVariable");
    var previoustarget = gv.firstChild.nodeValue;
    if (previoustarget != "none") 
    {
        	document.getElementById(gv.firstChild.nodeValue).setAttributeNS(null, "visibility", "hidden");
    }
    document.getElementById(target).setAttributeNS(null, "visibility", "visible");
    gv.firstChild.nodeValue = target;
        }

    function mouseclick(evt) { 
    var gv = document.getElementById("globalVariable");
    var previoustarget = gv.firstChild.nodeValue;
    if (previoustarget != "none") {
        	document.getElementById(gv.firstChild.nodeValue).setAttributeNS(null, "visibility", "hidden");
        }
    }
]]>
  </script>
<style type="text/css" >

<![CDATA[
    rect.anc_exon {
              stroke-width:3;
                  }

    rect.non_anc_exon {
              stroke: black; stroke-width:3; stroke-dasharray: 5,5;
                    }

    text {
              font-size: 18px;
              font-family: Courier New;
          }
                    ]]>
</style>

<defs>
    <text x="150" y="40" id="globalVariable">none</text>
</defs>

  <rect class="anc_exon" x="0" y="35.0" width="0" height="30" style="fill:#87bcbc;fill-opacity:1.00" />
  <rect class="anc_exon" x="0" y="35.0" width="92.80000000000001" height="30" style="fill:#87bcbc;fill-opacity:1.00" />
  <line x1="92.80000000000001" y1="50.0" x2="111.80000000000001" y2="50.0" style="stroke:#999; stroke-width:3;" />
  <line x1="111.80000000000001" y1="50.0" x2="111.80000000000001" y2="50.0" style="stroke:#999; stroke-width:3;" />
  <line x1="111.80000000000001" y1="50.0" x2="111.80000000000001" y2="50.0" style="stroke:#999; stroke-width:3;" />
  <line x1="111.80000000000001" y1="50.0" x2="132.0" y2="50.0" style="stroke:#999; stroke-width:3;" />
  <rect class="anc_exon" x="132" y="35.0" width="128" height="30" style="fill:#87bcbc;fill-opacity:1.00" />
  <line x1="260" y1="50.0" x2="280" y2="50.0" style="stroke:#999; stroke-width:3;" />
  <line x1="280" y1="50.0" x2="280" y2="50.0" style="stroke:#999; stroke-width:3;" />
  <line x1="280" y1="50.0" x2="280" y2="50.0" style="stroke:#999; stroke-width:3;" />
  <line x1="280" y1="50.0" x2="300" y2="50.0" style="stroke:#999; stroke-width:3;" />
  <rect class="anc_exon" x="300" y="35.0" width="62" height="30" style="fill:#87bcbc;fill-opacity:1.00" />
  <line x1="362" y1="50.0" x2="402" y2="50.0" style="stroke:#999; stroke-width:3;" />
  <rect class="anc_exon" x="402" y="35.0" width="74" height="30" style="fill:#87bcbc;fill-opacity:1.00" />
  <line x1="476" y1="50.0" x2="496" y2="50.0" style="stroke:#999; stroke-width:3;" />
  <line x1="496" y1="50.0" x2="496" y2="50.0" style="stroke:#999; stroke-width:3;" />
  <line x1="496" y1="50.0" x2="496" y2="50.0" style="stroke:#999; stroke-width:3;" />
  <line x1="496" y1="50.0" x2="516" y2="50.0" style="stroke:#999; stroke-width:3;" />
  <rect class="anc_exon" x="516" y="35.0" width="70" height="30" style="fill:#87bcbc;fill-opacity:1.00" />
  <line x1="586" y1="50.0" x2="626" y2="50.0" style="stroke:#999; stroke-width:3;" />
  <rect class="anc_exon" x="626" y="35.0" width="44" height="30" style="fill:#87bcbc;fill-opacity:1.00" />
  <line x1="670" y1="50.0" x2="690" y2="50.0" style="stroke:#999; stroke-width:3;" />
  <line x1="690" y1="50.0" x2="690" y2="50.0" style="stroke:#999; stroke-width:3;" />
  <line x1="690" y1="50.0" x2="690" y2="50.0" style="stroke:#999; stroke-width:3;" />
  <line x1="690" y1="50.0" x2="710" y2="50.0" style="stroke:#999; stroke-width:3;" />
  <rect class="anc_exon" x="710" y="35.0" width="62" height="30" style="fill:#87bcbc;fill-opacity:1.00" />
  <line x1="772" y1="50.0" x2="812" y2="50.0" style="stroke:#999; stroke-width:3;" />
  <rect class="anc_exon" x="812" y="35.0" width="95" height="30" style="fill:#87bcbc;fill-opacity:1.00" />
  <line x1="907" y1="50.0" x2="927" y2="50.0" style="stroke:#999; stroke-width:3;" />
  <line x1="927" y1="50.0" x2="927" y2="50.0" style="stroke:#999; stroke-width:3;" />
  <line x1="927" y1="50.0" x2="927" y2="50.0" style="stroke:#999; stroke-width:3;" />
  <line x1="927" y1="50.0" x2="947" y2="50.0" style="stroke:#999; stroke-width:3;" />
  <rect class="anc_exon" x="947" y="35.0" width="166" height="30" style="fill:#87bcbc;fill-opacity:1.00" />
  <line x1="1113" y1="50.0" x2="1153" y2="50.0" style="stroke:#999; stroke-width:3;" />
  <rect class="anc_exon" x="1153" y="35.0" width="55" height="30" style="fill:#87bcbc;fill-opacity:1.00" />
  <line x1="1208" y1="50.0" x2="1248" y2="50.0" style="stroke:#999; stroke-width:3;" />
  <rect class="anc_exon" x="1248" y="35.0" width="218" height="30" style="fill:#87bcbc;fill-opacity:1.00" />
  <line x1="1466" y1="50.0" x2="1506" y2="50.0" style="stroke:#999; stroke-width:3;" />
  <rect class="anc_exon" x="1506" y="35.0" width="148" height="30" style="fill:#87bcbc;fill-opacity:1.00" />
  <line x1="1654" y1="50.0" x2="1674" y2="50.0" style="stroke:#999; stroke-width:3;" />
  <line x1="1674" y1="50.0" x2="1674" y2="50.0" style="stroke:#999; stroke-width:3;" />
  <line x1="1674" y1="50.0" x2="1674" y2="50.0" style="stroke:#999; stroke-width:3;" />
  <line x1="1674" y1="50.0" x2="1694" y2="50.0" style="stroke:#999; stroke-width:3;" />
  <rect class="anc_exon" x="1694" y="35.0" width="98" height="30" style="fill:#87bcbc;fill-opacity:1.00" />
  <rect class="anc_exon" x="1792" y="35.0" width="0" height="30" style="fill:#87bcbc;fill-opacity:1.00" />
  <text style="" >
<tspan x="0" y="83.0" style="font-size:18px;" >SP XM_031939599_1.1</tspan>  </text>



<script type="text/ecmascript">
<![CDATA[
function draw_bbox(text_id)
{
    var text_elem = document.getElementById(text_id);
    var offset_px = 2;
    var offset_py = 0;
    bbox = text_elem.getBBox();
    var box = document.createElementNS(document.rootElement.namespaceURI,'rect');
    box.setAttribute('x', bbox.x - offset_px);
    box.setAttribute('y', bbox.y - offset_py);
    box.setAttribute('width', bbox.width + offset_px * 2);
    box.setAttribute('height', bbox.height + offset_py * 2);
    box.setAttribute('style','fill: white;'+'stroke: black;'+'stroke-width: 1px;');
    text_elem.insertBefore(box,text_elem.childNodes[0]);

    var svg = text_elem.parentNode;
    svg.appendChild(text_elem);
}

for (var i=1; i < 1; i++)
{
draw_bbox("Mouseover" + i);
}
]]> 
</script>
</svg>
