<svg version="1.1"
xmlns="http://www.w3.org/2000/svg"
xmlns:xlink="http://www.w3.org/1999/xlink"
width="2025" height="100" viewBox = "0 0 2025 100"
onclick="mouseclick(evt)">

<script type="text/ecmascript">

<![CDATA[
    function mouseover(evt, target) { 
    var gv = document.getElementById("globalVariable");
    var previoustarget = gv.firstChild.nodeValue;
    if (previoustarget != "none") 
    {
        	document.getElementById(gv.firstChild.nodeValue).setAttributeNS(null, "visibility", "hidden");
    }
    document.getElementById(target).setAttributeNS(null, "visibility", "visible");
    gv.firstChild.nodeValue = target;
        }

    function mouseclick(evt) { 
    var gv = document.getElementById("globalVariable");
    var previoustarget = gv.firstChild.nodeValue;
    if (previoustarget != "none") {
        	document.getElementById(gv.firstChild.nodeValue).setAttributeNS(null, "visibility", "hidden");
        }
    }
]]>
  </script>
<style type="text/css" >

<![CDATA[
    rect.anc_exon {
              stroke-width:3;
                  }

    rect.non_anc_exon {
              stroke: black; stroke-width:3; stroke-dasharray: 5,5;
                    }

    text {
              font-size: 18px;
              font-family: Courier New;
          }
                    ]]>
</style>

<defs>
    <text x="150" y="40" id="globalVariable">none</text>
</defs>

  <rect class="anc_exon" x="0" y="35.0" width="0" height="30" style="fill:#87bcbc;fill-opacity:1.00" />
  <rect class="anc_exon" x="0" y="35.0" width="11.200000000000001" height="30" style="fill:#87bcbc;fill-opacity:1.00" />
  <line x1="11.200000000000001" y1="50.0" x2="30.200000000000003" y2="50.0" style="stroke:#999; stroke-width:3;" />
  <line x1="30.200000000000003" y1="50.0" x2="30.200000000000003" y2="50.0" style="stroke:#999; stroke-width:3;" />
  <line x1="30.200000000000003" y1="50.0" x2="30.200000000000003" y2="50.0" style="stroke:#999; stroke-width:3;" />
  <line x1="30.200000000000003" y1="50.0" x2="51.0" y2="50.0" style="stroke:#999; stroke-width:3;" />
  <rect class="anc_exon" x="51" y="35.0" width="98" height="30" style="fill:#87bcbc;fill-opacity:1.00" />
  <line x1="149" y1="50.0" x2="189" y2="50.0" style="stroke:#999; stroke-width:3;" />
  <rect class="anc_exon" x="189" y="35.0" width="156" height="30" style="fill:#87bcbc;fill-opacity:1.00" />
  <line x1="345" y1="50.0" x2="365" y2="50.0" style="stroke:#999; stroke-width:3;" />
  <line x1="365" y1="50.0" x2="365" y2="50.0" style="stroke:#999; stroke-width:3;" />
  <line x1="365" y1="50.0" x2="365" y2="50.0" style="stroke:#999; stroke-width:3;" />
  <line x1="365" y1="50.0" x2="385" y2="50.0" style="stroke:#999; stroke-width:3;" />
  <rect class="anc_exon" x="385" y="35.0" width="152" height="30" style="fill:#87bcbc;fill-opacity:1.00" />
  <line x1="537" y1="50.0" x2="577" y2="50.0" style="stroke:#999; stroke-width:3;" />
  <rect class="anc_exon" x="577" y="35.0" width="93" height="30" style="fill:#87bcbc;fill-opacity:1.00" />
  <line x1="670" y1="50.0" x2="710" y2="50.0" style="stroke:#999; stroke-width:3;" />
  <rect class="anc_exon" x="710" y="35.0" width="91" height="30" style="fill:#87bcbc;fill-opacity:1.00" />
  <line x1="801" y1="50.0" x2="821" y2="50.0" style="stroke:#999; stroke-width:3;" />
  <line x1="821" y1="50.0" x2="821" y2="50.0" style="stroke:#999; stroke-width:3;" />
  <line x1="821" y1="50.0" x2="821" y2="50.0" style="stroke:#999; stroke-width:3;" />
  <line x1="821" y1="50.0" x2="841" y2="50.0" style="stroke:#999; stroke-width:3;" />
  <rect class="anc_exon" x="841" y="35.0" width="77" height="30" style="fill:#87bcbc;fill-opacity:1.00" />
  <line x1="918" y1="50.0" x2="958" y2="50.0" style="stroke:#999; stroke-width:3;" />
  <rect class="anc_exon" x="958" y="35.0" width="64" height="30" style="fill:#87bcbc;fill-opacity:1.00" />
  <line x1="1022" y1="50.0" x2="1062" y2="50.0" style="stroke:#999; stroke-width:3;" />
  <rect class="anc_exon" x="1062" y="35.0" width="120" height="30" style="fill:#87bcbc;fill-opacity:1.00" />
  <line x1="1182" y1="50.0" x2="1222" y2="50.0" style="stroke:#999; stroke-width:3;" />
  <rect class="anc_exon" x="1222" y="35.0" width="105" height="30" style="fill:#87bcbc;fill-opacity:1.00" />
  <line x1="1327" y1="50.0" x2="1367" y2="50.0" style="stroke:#999; stroke-width:3;" />
  <rect class="anc_exon" x="1367" y="35.0" width="124" height="30" style="fill:#87bcbc;fill-opacity:1.00" />
  <line x1="1491" y1="50.0" x2="1511" y2="50.0" style="stroke:#999; stroke-width:3;" />
  <line x1="1511" y1="50.0" x2="1511" y2="50.0" style="stroke:#999; stroke-width:3;" />
  <line x1="1511" y1="50.0" x2="1511" y2="50.0" style="stroke:#999; stroke-width:3;" />
  <line x1="1511" y1="50.0" x2="1531" y2="50.0" style="stroke:#999; stroke-width:3;" />
  <rect class="anc_exon" x="1531" y="35.0" width="54" height="30" style="fill:#87bcbc;fill-opacity:1.00" />
  <line x1="1585" y1="50.0" x2="1625" y2="50.0" style="stroke:#999; stroke-width:3;" />
  <rect class="anc_exon" x="1625" y="35.0" width="121" height="30" style="fill:#87bcbc;fill-opacity:1.00" />
  <line x1="1746" y1="50.0" x2="1786" y2="50.0" style="stroke:#999; stroke-width:3;" />
  <rect class="anc_exon" x="1786" y="35.0" width="71" height="30" style="fill:#87bcbc;fill-opacity:1.00" />
  <line x1="1857" y1="50.0" x2="1897" y2="50.0" style="stroke:#999; stroke-width:3;" />
  <rect class="anc_exon" x="1897" y="35.0" width="92" height="30" style="fill:#87bcbc;fill-opacity:1.00" />
  <rect class="anc_exon" x="1989" y="35.0" width="0" height="30" style="fill:#87bcbc;fill-opacity:1.00" />
  <text style="" >
<tspan x="0" y="83.0" style="font-size:18px;" >SP XM_023504561_2.1</tspan>  </text>



<script type="text/ecmascript">
<![CDATA[
function draw_bbox(text_id)
{
    var text_elem = document.getElementById(text_id);
    var offset_px = 2;
    var offset_py = 0;
    bbox = text_elem.getBBox();
    var box = document.createElementNS(document.rootElement.namespaceURI,'rect');
    box.setAttribute('x', bbox.x - offset_px);
    box.setAttribute('y', bbox.y - offset_py);
    box.setAttribute('width', bbox.width + offset_px * 2);
    box.setAttribute('height', bbox.height + offset_py * 2);
    box.setAttribute('style','fill: white;'+'stroke: black;'+'stroke-width: 1px;');
    text_elem.insertBefore(box,text_elem.childNodes[0]);

    var svg = text_elem.parentNode;
    svg.appendChild(text_elem);
}

for (var i=1; i < 1; i++)
{
draw_bbox("Mouseover" + i);
}
]]> 
</script>
</svg>
