<svg version="1.1"
xmlns="http://www.w3.org/2000/svg"
xmlns:xlink="http://www.w3.org/1999/xlink"
width="2014" height="100" viewBox = "0 0 2014 100"
onclick="mouseclick(evt)">

<script type="text/ecmascript">

<![CDATA[
    function mouseover(evt, target) { 
    var gv = document.getElementById("globalVariable");
    var previoustarget = gv.firstChild.nodeValue;
    if (previoustarget != "none") 
    {
        	document.getElementById(gv.firstChild.nodeValue).setAttributeNS(null, "visibility", "hidden");
    }
    document.getElementById(target).setAttributeNS(null, "visibility", "visible");
    gv.firstChild.nodeValue = target;
        }

    function mouseclick(evt) { 
    var gv = document.getElementById("globalVariable");
    var previoustarget = gv.firstChild.nodeValue;
    if (previoustarget != "none") {
        	document.getElementById(gv.firstChild.nodeValue).setAttributeNS(null, "visibility", "hidden");
        }
    }
]]>
  </script>
<style type="text/css" >

<![CDATA[
    rect.anc_exon {
              stroke-width:3;
                  }

    rect.non_anc_exon {
              stroke: black; stroke-width:3; stroke-dasharray: 5,5;
                    }

    text {
              font-size: 18px;
              font-family: Courier New;
          }
                    ]]>
</style>

<defs>
    <text x="150" y="40" id="globalVariable">none</text>
</defs>

  <rect class="anc_exon" x="0" y="35.0" width="0" height="30" style="fill:#87bcbc;fill-opacity:1.00" />
  <rect class="anc_exon" x="0" y="35.0" width="29.6" height="30" style="fill:#87bcbc;fill-opacity:1.00" />
  <line x1="29.6" y1="50.0" x2="48.6" y2="50.0" style="stroke:#999; stroke-width:3;" />
  <line x1="48.6" y1="50.0" x2="48.6" y2="50.0" style="stroke:#999; stroke-width:3;" />
  <line x1="48.6" y1="50.0" x2="48.6" y2="50.0" style="stroke:#999; stroke-width:3;" />
  <line x1="48.6" y1="50.0" x2="69.0" y2="50.0" style="stroke:#999; stroke-width:3;" />
  <rect class="anc_exon" x="69" y="35.0" width="95" height="30" style="fill:#87bcbc;fill-opacity:1.00" />
  <line x1="164" y1="50.0" x2="184" y2="50.0" style="stroke:#999; stroke-width:3;" />
  <line x1="184" y1="50.0" x2="184" y2="50.0" style="stroke:#999; stroke-width:3;" />
  <line x1="184" y1="50.0" x2="184" y2="50.0" style="stroke:#999; stroke-width:3;" />
  <line x1="184" y1="50.0" x2="204" y2="50.0" style="stroke:#999; stroke-width:3;" />
  <rect class="anc_exon" x="204" y="35.0" width="62" height="30" style="fill:#87bcbc;fill-opacity:1.00" />
  <line x1="266" y1="50.0" x2="286" y2="50.0" style="stroke:#999; stroke-width:3;" />
  <line x1="286" y1="50.0" x2="286" y2="50.0" style="stroke:#999; stroke-width:3;" />
  <line x1="286" y1="50.0" x2="286" y2="50.0" style="stroke:#999; stroke-width:3;" />
  <line x1="286" y1="50.0" x2="306" y2="50.0" style="stroke:#999; stroke-width:3;" />
  <rect class="anc_exon" x="306" y="35.0" width="64" height="30" style="fill:#87bcbc;fill-opacity:1.00" />
  <line x1="370" y1="50.0" x2="390" y2="50.0" style="stroke:#999; stroke-width:3;" />
  <line x1="390" y1="50.0" x2="390" y2="50.0" style="stroke:#999; stroke-width:3;" />
  <line x1="390" y1="50.0" x2="390" y2="50.0" style="stroke:#999; stroke-width:3;" />
  <line x1="390" y1="50.0" x2="410" y2="50.0" style="stroke:#999; stroke-width:3;" />
  <rect class="anc_exon" x="410" y="35.0" width="105" height="30" style="fill:#87bcbc;fill-opacity:1.00" />
  <line x1="515" y1="50.0" x2="535" y2="50.0" style="stroke:#999; stroke-width:3;" />
  <line x1="535" y1="50.0" x2="535" y2="50.0" style="stroke:#999; stroke-width:3;" />
  <line x1="535" y1="50.0" x2="535" y2="50.0" style="stroke:#999; stroke-width:3;" />
  <line x1="535" y1="50.0" x2="555" y2="50.0" style="stroke:#999; stroke-width:3;" />
  <rect class="anc_exon" x="555" y="35.0" width="65" height="30" style="fill:#87bcbc;fill-opacity:1.00" />
  <line x1="620" y1="50.0" x2="660" y2="50.0" style="stroke:#999; stroke-width:3;" />
  <rect class="anc_exon" x="660" y="35.0" width="68" height="30" style="fill:#87bcbc;fill-opacity:1.00" />
  <line x1="728" y1="50.0" x2="768" y2="50.0" style="stroke:#999; stroke-width:3;" />
  <rect class="anc_exon" x="768" y="35.0" width="60" height="30" style="fill:#87bcbc;fill-opacity:1.00" />
  <line x1="828" y1="50.0" x2="868" y2="50.0" style="stroke:#999; stroke-width:3;" />
  <rect class="anc_exon" x="868" y="35.0" width="157" height="30" style="fill:#87bcbc;fill-opacity:1.00" />
  <line x1="1025" y1="50.0" x2="1045" y2="50.0" style="stroke:#999; stroke-width:3;" />
  <line x1="1045" y1="50.0" x2="1045" y2="50.0" style="stroke:#999; stroke-width:3;" />
  <line x1="1045" y1="50.0" x2="1045" y2="50.0" style="stroke:#999; stroke-width:3;" />
  <line x1="1045" y1="50.0" x2="1065" y2="50.0" style="stroke:#999; stroke-width:3;" />
  <rect class="anc_exon" x="1065" y="35.0" width="52" height="30" style="fill:#87bcbc;fill-opacity:1.00" />
  <line x1="1117" y1="50.0" x2="1137" y2="50.0" style="stroke:#999; stroke-width:3;" />
  <line x1="1137" y1="50.0" x2="1137" y2="50.0" style="stroke:#999; stroke-width:3;" />
  <line x1="1137" y1="50.0" x2="1137" y2="50.0" style="stroke:#999; stroke-width:3;" />
  <line x1="1137" y1="50.0" x2="1157" y2="50.0" style="stroke:#999; stroke-width:3;" />
  <rect class="anc_exon" x="1157" y="35.0" width="136" height="30" style="fill:#87bcbc;fill-opacity:1.00" />
  <line x1="1293" y1="50.0" x2="1313" y2="50.0" style="stroke:#999; stroke-width:3;" />
  <line x1="1313" y1="50.0" x2="1313" y2="50.0" style="stroke:#999; stroke-width:3;" />
  <line x1="1313" y1="50.0" x2="1313" y2="50.0" style="stroke:#999; stroke-width:3;" />
  <line x1="1313" y1="50.0" x2="1333" y2="50.0" style="stroke:#999; stroke-width:3;" />
  <rect class="anc_exon" x="1333" y="35.0" width="64" height="30" style="fill:#87bcbc;fill-opacity:1.00" />
  <line x1="1397" y1="50.0" x2="1417" y2="50.0" style="stroke:#999; stroke-width:3;" />
  <line x1="1417" y1="50.0" x2="1417" y2="50.0" style="stroke:#999; stroke-width:3;" />
  <line x1="1417" y1="50.0" x2="1417" y2="50.0" style="stroke:#999; stroke-width:3;" />
  <line x1="1417" y1="50.0" x2="1437" y2="50.0" style="stroke:#999; stroke-width:3;" />
  <rect class="anc_exon" x="1437" y="35.0" width="75" height="30" style="fill:#87bcbc;fill-opacity:1.00" />
  <line x1="1512" y1="50.0" x2="1552" y2="50.0" style="stroke:#999; stroke-width:3;" />
  <rect class="anc_exon" x="1552" y="35.0" width="87" height="30" style="fill:#87bcbc;fill-opacity:1.00" />
  <line x1="1639" y1="50.0" x2="1659" y2="50.0" style="stroke:#999; stroke-width:3;" />
  <line x1="1659" y1="50.0" x2="1659" y2="50.0" style="stroke:#999; stroke-width:3;" />
  <line x1="1659" y1="50.0" x2="1659" y2="50.0" style="stroke:#999; stroke-width:3;" />
  <line x1="1659" y1="50.0" x2="1679" y2="50.0" style="stroke:#999; stroke-width:3;" />
  <rect class="anc_exon" x="1679" y="35.0" width="115" height="30" style="fill:#87bcbc;fill-opacity:1.00" />
  <line x1="1794" y1="50.0" x2="1834" y2="50.0" style="stroke:#999; stroke-width:3;" />
  <rect class="anc_exon" x="1834" y="35.0" width="144" height="30" style="fill:#87bcbc;fill-opacity:1.00" />
  <rect class="anc_exon" x="1978" y="35.0" width="0" height="30" style="fill:#87bcbc;fill-opacity:1.00" />
  <text style="" >
<tspan x="0" y="83.0" style="font-size:18px;" >SP XM_031939799_1.1</tspan>  </text>



<script type="text/ecmascript">
<![CDATA[
function draw_bbox(text_id)
{
    var text_elem = document.getElementById(text_id);
    var offset_px = 2;
    var offset_py = 0;
    bbox = text_elem.getBBox();
    var box = document.createElementNS(document.rootElement.namespaceURI,'rect');
    box.setAttribute('x', bbox.x - offset_px);
    box.setAttribute('y', bbox.y - offset_py);
    box.setAttribute('width', bbox.width + offset_px * 2);
    box.setAttribute('height', bbox.height + offset_py * 2);
    box.setAttribute('style','fill: white;'+'stroke: black;'+'stroke-width: 1px;');
    text_elem.insertBefore(box,text_elem.childNodes[0]);

    var svg = text_elem.parentNode;
    svg.appendChild(text_elem);
}

for (var i=1; i < 1; i++)
{
draw_bbox("Mouseover" + i);
}
]]> 
</script>
</svg>
