<svg version="1.1"
xmlns="http://www.w3.org/2000/svg"
xmlns:xlink="http://www.w3.org/1999/xlink"
width="5613" height="100" viewBox = "0 0 5613 100"
onclick="mouseclick(evt)">

<script type="text/ecmascript">

<![CDATA[
    function mouseover(evt, target) { 
    var gv = document.getElementById("globalVariable");
    var previoustarget = gv.firstChild.nodeValue;
    if (previoustarget != "none") 
    {
        	document.getElementById(gv.firstChild.nodeValue).setAttributeNS(null, "visibility", "hidden");
    }
    document.getElementById(target).setAttributeNS(null, "visibility", "visible");
    gv.firstChild.nodeValue = target;
        }

    function mouseclick(evt) { 
    var gv = document.getElementById("globalVariable");
    var previoustarget = gv.firstChild.nodeValue;
    if (previoustarget != "none") {
        	document.getElementById(gv.firstChild.nodeValue).setAttributeNS(null, "visibility", "hidden");
        }
    }
]]>
  </script>
<style type="text/css" >

<![CDATA[
    rect.anc_exon {
              stroke-width:3;
                  }

    rect.non_anc_exon {
              stroke: black; stroke-width:3; stroke-dasharray: 5,5;
                    }

    text {
              font-size: 18px;
              font-family: Courier New;
          }
                    ]]>
</style>

<defs>
    <text x="150" y="40" id="globalVariable">none</text>
</defs>

  <rect class="anc_exon" x="0" y="35.0" width="0" height="30" style="fill:#87bcbc;fill-opacity:1.00" />
  <rect class="anc_exon" x="0" y="35.0" width="168.8" height="30" style="fill:#87bcbc;fill-opacity:1.00" />
  <line x1="168.8" y1="50.0" x2="187.8" y2="50.0" style="stroke:#999; stroke-width:3;" />
  <line x1="187.8" y1="50.0" x2="187.8" y2="50.0" style="stroke:#999; stroke-width:3;" />
  <line x1="187.8" y1="50.0" x2="187.8" y2="50.0" style="stroke:#999; stroke-width:3;" />
  <line x1="187.8" y1="50.0" x2="208.0" y2="50.0" style="stroke:#999; stroke-width:3;" />
  <rect class="anc_exon" x="208" y="35.0" width="227" height="30" style="fill:#87bcbc;fill-opacity:1.00" />
  <line x1="435" y1="50.0" x2="455" y2="50.0" style="stroke:#999; stroke-width:3;" />
  <line x1="455" y1="50.0" x2="455" y2="50.0" style="stroke:#999; stroke-width:3;" />
  <line x1="455" y1="50.0" x2="455" y2="50.0" style="stroke:#999; stroke-width:3;" />
  <line x1="455" y1="50.0" x2="475" y2="50.0" style="stroke:#999; stroke-width:3;" />
  <rect class="anc_exon" x="475" y="35.0" width="159" height="30" style="fill:#87bcbc;fill-opacity:1.00" />
  <line x1="634" y1="50.0" x2="654" y2="50.0" style="stroke:#999; stroke-width:3;" />
  <line x1="654" y1="50.0" x2="654" y2="50.0" style="stroke:#999; stroke-width:3;" />
  <line x1="654" y1="50.0" x2="654" y2="50.0" style="stroke:#999; stroke-width:3;" />
  <line x1="654" y1="50.0" x2="674" y2="50.0" style="stroke:#999; stroke-width:3;" />
  <rect class="anc_exon" x="674" y="35.0" width="159" height="30" style="fill:#87bcbc;fill-opacity:1.00" />
  <line x1="833" y1="50.0" x2="853" y2="50.0" style="stroke:#999; stroke-width:3;" />
  <line x1="853" y1="50.0" x2="853" y2="50.0" style="stroke:#999; stroke-width:3;" />
  <line x1="853" y1="50.0" x2="853" y2="50.0" style="stroke:#999; stroke-width:3;" />
  <line x1="853" y1="50.0" x2="873" y2="50.0" style="stroke:#999; stroke-width:3;" />
  <rect class="anc_exon" x="873" y="35.0" width="75" height="30" style="fill:#87bcbc;fill-opacity:1.00" />
  <line x1="948" y1="50.0" x2="968" y2="50.0" style="stroke:#999; stroke-width:3;" />
  <line x1="968" y1="50.0" x2="968" y2="50.0" style="stroke:#999; stroke-width:3;" />
  <line x1="968" y1="50.0" x2="968" y2="50.0" style="stroke:#999; stroke-width:3;" />
  <line x1="968" y1="50.0" x2="988" y2="50.0" style="stroke:#999; stroke-width:3;" />
  <rect class="anc_exon" x="988" y="35.0" width="659" height="30" style="fill:#87bcbc;fill-opacity:1.00" />
  <line x1="1647" y1="50.0" x2="1667" y2="50.0" style="stroke:#999; stroke-width:3;" />
  <line x1="1667" y1="50.0" x2="1667" y2="50.0" style="stroke:#999; stroke-width:3;" />
  <line x1="1667" y1="50.0" x2="1667" y2="50.0" style="stroke:#999; stroke-width:3;" />
  <line x1="1667" y1="50.0" x2="1687" y2="50.0" style="stroke:#999; stroke-width:3;" />
  <rect class="anc_exon" x="1687" y="35.0" width="84" height="30" style="fill:#87bcbc;fill-opacity:1.00" />
  <line x1="1771" y1="50.0" x2="1811" y2="50.0" style="stroke:#999; stroke-width:3;" />
  <rect class="anc_exon" x="1811" y="35.0" width="40" height="30" style="fill:#87bcbc;fill-opacity:1.00" />
  <line x1="1851" y1="50.0" x2="1871" y2="50.0" style="stroke:#999; stroke-width:3;" />
  <line x1="1871" y1="50.0" x2="1871" y2="50.0" style="stroke:#999; stroke-width:3;" />
  <line x1="1871" y1="50.0" x2="1871" y2="50.0" style="stroke:#999; stroke-width:3;" />
  <line x1="1871" y1="50.0" x2="1891" y2="50.0" style="stroke:#999; stroke-width:3;" />
  <rect class="anc_exon" x="1891" y="35.0" width="128" height="30" style="fill:#87bcbc;fill-opacity:1.00" />
  <line x1="2019" y1="50.0" x2="2039" y2="50.0" style="stroke:#999; stroke-width:3;" />
  <line x1="2039" y1="50.0" x2="2039" y2="50.0" style="stroke:#999; stroke-width:3;" />
  <line x1="2039" y1="50.0" x2="2039" y2="50.0" style="stroke:#999; stroke-width:3;" />
  <line x1="2039" y1="50.0" x2="2059" y2="50.0" style="stroke:#999; stroke-width:3;" />
  <rect class="anc_exon" x="2059" y="35.0" width="140" height="30" style="fill:#87bcbc;fill-opacity:1.00" />
  <line x1="2199" y1="50.0" x2="2219" y2="50.0" style="stroke:#999; stroke-width:3;" />
  <line x1="2219" y1="50.0" x2="2219" y2="50.0" style="stroke:#999; stroke-width:3;" />
  <line x1="2219" y1="50.0" x2="2219" y2="50.0" style="stroke:#999; stroke-width:3;" />
  <line x1="2219" y1="50.0" x2="2239" y2="50.0" style="stroke:#999; stroke-width:3;" />
  <rect class="anc_exon" x="2239" y="35.0" width="104" height="30" style="fill:#87bcbc;fill-opacity:1.00" />
  <line x1="2343" y1="50.0" x2="2383" y2="50.0" style="stroke:#999; stroke-width:3;" />
  <rect class="anc_exon" x="2383" y="35.0" width="118" height="30" style="fill:#87bcbc;fill-opacity:1.00" />
  <line x1="2501" y1="50.0" x2="2521" y2="50.0" style="stroke:#999; stroke-width:3;" />
  <line x1="2521" y1="50.0" x2="2521" y2="50.0" style="stroke:#999; stroke-width:3;" />
  <line x1="2521" y1="50.0" x2="2521" y2="50.0" style="stroke:#999; stroke-width:3;" />
  <line x1="2521" y1="50.0" x2="2541" y2="50.0" style="stroke:#999; stroke-width:3;" />
  <rect class="anc_exon" x="2541" y="35.0" width="372" height="30" style="fill:#878787;fill-opacity:1.00" />
  <line x1="2913" y1="50.0" x2="2933" y2="50.0" style="stroke:#999; stroke-width:3;" />
  <line x1="2933" y1="50.0" x2="2933" y2="50.0" style="stroke:#999; stroke-width:3;" />
  <line x1="2933" y1="50.0" x2="2933" y2="50.0" style="stroke:#999; stroke-width:3;" />
  <line x1="2933" y1="50.0" x2="2953" y2="50.0" style="stroke:#999; stroke-width:3;" />
  <rect class="anc_exon" x="2953" y="35.0" width="147" height="30" style="fill:#87bcbc;fill-opacity:1.00" />
  <line x1="3100" y1="50.0" x2="3120" y2="50.0" style="stroke:#999; stroke-width:3;" />
  <line x1="3120" y1="50.0" x2="3120" y2="50.0" style="stroke:#999; stroke-width:3;" />
  <line x1="3120" y1="50.0" x2="3120" y2="50.0" style="stroke:#999; stroke-width:3;" />
  <line x1="3120" y1="50.0" x2="3140" y2="50.0" style="stroke:#999; stroke-width:3;" />
  <rect class="anc_exon" x="3140" y="35.0" width="131" height="30" style="fill:#87bcbc;fill-opacity:1.00" />
  <line x1="3271" y1="50.0" x2="3311" y2="50.0" style="stroke:#999; stroke-width:3;" />
  <rect class="anc_exon" x="3311" y="35.0" width="129" height="30" style="fill:#87bcbc;fill-opacity:1.00" />
  <line x1="3440" y1="50.0" x2="3460" y2="50.0" style="stroke:#999; stroke-width:3;" />
  <line x1="3460" y1="50.0" x2="3460" y2="50.0" style="stroke:#999; stroke-width:3;" />
  <line x1="3460" y1="50.0" x2="3460" y2="50.0" style="stroke:#999; stroke-width:3;" />
  <line x1="3460" y1="50.0" x2="3480" y2="50.0" style="stroke:#999; stroke-width:3;" />
  <rect class="anc_exon" x="3480" y="35.0" width="96" height="30" style="fill:#87bcbc;fill-opacity:1.00" />
  <line x1="3576" y1="50.0" x2="3596" y2="50.0" style="stroke:#999; stroke-width:3;" />
  <line x1="3596" y1="50.0" x2="3596" y2="50.0" style="stroke:#999; stroke-width:3;" />
  <line x1="3596" y1="50.0" x2="3596" y2="50.0" style="stroke:#999; stroke-width:3;" />
  <line x1="3596" y1="50.0" x2="3616" y2="50.0" style="stroke:#999; stroke-width:3;" />
  <rect class="anc_exon" x="3616" y="35.0" width="62" height="30" style="fill:#87bcbc;fill-opacity:1.00" />
  <line x1="3678" y1="50.0" x2="3718" y2="50.0" style="stroke:#999; stroke-width:3;" />
  <rect class="anc_exon" x="3718" y="35.0" width="1281" height="30" style="fill:#87bcbc;fill-opacity:1.00" />
  <line x1="4999" y1="50.0" x2="5039" y2="50.0" style="stroke:#999; stroke-width:3;" />
  <rect class="anc_exon" x="5039" y="35.0" width="98" height="30" style="fill:#87bcbc;fill-opacity:1.00" />
  <line x1="5137" y1="50.0" x2="5177" y2="50.0" style="stroke:#999; stroke-width:3;" />
  <rect class="anc_exon" x="5177" y="35.0" width="400" height="30" style="fill:#87bcbc;fill-opacity:1.00" />
  <rect class="anc_exon" x="5577" y="35.0" width="0" height="30" style="fill:#87bcbc;fill-opacity:1.00" />
  <text style="" >
<tspan x="0" y="83.0" style="font-size:18px;" >SP XM_031937971_1.1</tspan>  </text>



<script type="text/ecmascript">
<![CDATA[
function draw_bbox(text_id)
{
    var text_elem = document.getElementById(text_id);
    var offset_px = 2;
    var offset_py = 0;
    bbox = text_elem.getBBox();
    var box = document.createElementNS(document.rootElement.namespaceURI,'rect');
    box.setAttribute('x', bbox.x - offset_px);
    box.setAttribute('y', bbox.y - offset_py);
    box.setAttribute('width', bbox.width + offset_px * 2);
    box.setAttribute('height', bbox.height + offset_py * 2);
    box.setAttribute('style','fill: white;'+'stroke: black;'+'stroke-width: 1px;');
    text_elem.insertBefore(box,text_elem.childNodes[0]);

    var svg = text_elem.parentNode;
    svg.appendChild(text_elem);
}

for (var i=1; i < 1; i++)
{
draw_bbox("Mouseover" + i);
}
]]> 
</script>
</svg>
