<svg version="1.1"
xmlns="http://www.w3.org/2000/svg"
xmlns:xlink="http://www.w3.org/1999/xlink"
width="2173" height="100" viewBox = "0 0 2173 100"
onclick="mouseclick(evt)">

<script type="text/ecmascript">

<![CDATA[
    function mouseover(evt, target) { 
    var gv = document.getElementById("globalVariable");
    var previoustarget = gv.firstChild.nodeValue;
    if (previoustarget != "none") 
    {
        	document.getElementById(gv.firstChild.nodeValue).setAttributeNS(null, "visibility", "hidden");
    }
    document.getElementById(target).setAttributeNS(null, "visibility", "visible");
    gv.firstChild.nodeValue = target;
        }

    function mouseclick(evt) { 
    var gv = document.getElementById("globalVariable");
    var previoustarget = gv.firstChild.nodeValue;
    if (previoustarget != "none") {
        	document.getElementById(gv.firstChild.nodeValue).setAttributeNS(null, "visibility", "hidden");
        }
    }
]]>
  </script>
<style type="text/css" >

<![CDATA[
    rect.anc_exon {
              stroke-width:3;
                  }

    rect.non_anc_exon {
              stroke: black; stroke-width:3; stroke-dasharray: 5,5;
                    }

    text {
              font-size: 18px;
              font-family: Courier New;
          }
                    ]]>
</style>

<defs>
    <text x="150" y="40" id="globalVariable">none</text>
</defs>

  <rect class="anc_exon" x="0" y="35.0" width="0" height="30" style="fill:#87bcbc;fill-opacity:1.00" />
  <rect class="anc_exon" x="0" y="35.0" width="60.800000000000004" height="30" style="fill:#87bcbc;fill-opacity:1.00" />
  <line x1="60.800000000000004" y1="50.0" x2="79.80000000000001" y2="50.0" style="stroke:#999; stroke-width:3;" />
  <line x1="79.80000000000001" y1="50.0" x2="79.80000000000001" y2="50.0" style="stroke:#999; stroke-width:3;" />
  <line x1="79.80000000000001" y1="50.0" x2="79.80000000000001" y2="50.0" style="stroke:#999; stroke-width:3;" />
  <line x1="79.80000000000001" y1="50.0" x2="100.0" y2="50.0" style="stroke:#999; stroke-width:3;" />
  <rect class="anc_exon" x="100" y="35.0" width="72" height="30" style="fill:#87bcbc;fill-opacity:1.00" />
  <line x1="172" y1="50.0" x2="192" y2="50.0" style="stroke:#999; stroke-width:3;" />
  <line x1="192" y1="50.0" x2="192" y2="50.0" style="stroke:#999; stroke-width:3;" />
  <line x1="192" y1="50.0" x2="192" y2="50.0" style="stroke:#999; stroke-width:3;" />
  <line x1="192" y1="50.0" x2="212" y2="50.0" style="stroke:#999; stroke-width:3;" />
  <rect class="anc_exon" x="212" y="35.0" width="197" height="30" style="fill:#87bcbc;fill-opacity:1.00" />
  <line x1="409" y1="50.0" x2="449" y2="50.0" style="stroke:#999; stroke-width:3;" />
  <rect class="anc_exon" x="449" y="35.0" width="132" height="30" style="fill:#87bcbc;fill-opacity:1.00" />
  <line x1="581" y1="50.0" x2="601" y2="50.0" style="stroke:#999; stroke-width:3;" />
  <line x1="601" y1="50.0" x2="601" y2="50.0" style="stroke:#999; stroke-width:3;" />
  <line x1="601" y1="50.0" x2="601" y2="50.0" style="stroke:#999; stroke-width:3;" />
  <line x1="601" y1="50.0" x2="621" y2="50.0" style="stroke:#999; stroke-width:3;" />
  <rect class="anc_exon" x="621" y="35.0" width="127" height="30" style="fill:#87bcbc;fill-opacity:1.00" />
  <line x1="748" y1="50.0" x2="768" y2="50.0" style="stroke:#999; stroke-width:3;" />
  <line x1="768" y1="50.0" x2="768" y2="50.0" style="stroke:#999; stroke-width:3;" />
  <line x1="768" y1="50.0" x2="768" y2="50.0" style="stroke:#999; stroke-width:3;" />
  <line x1="768" y1="50.0" x2="788" y2="50.0" style="stroke:#999; stroke-width:3;" />
  <rect class="anc_exon" x="788" y="35.0" width="76" height="30" style="fill:#87bcbc;fill-opacity:1.00" />
  <line x1="864" y1="50.0" x2="884" y2="50.0" style="stroke:#999; stroke-width:3;" />
  <line x1="884" y1="50.0" x2="884" y2="50.0" style="stroke:#999; stroke-width:3;" />
  <line x1="884" y1="50.0" x2="884" y2="50.0" style="stroke:#999; stroke-width:3;" />
  <line x1="884" y1="50.0" x2="904" y2="50.0" style="stroke:#999; stroke-width:3;" />
  <rect class="anc_exon" x="904" y="35.0" width="72" height="30" style="fill:#87bcbc;fill-opacity:1.00" />
  <line x1="976" y1="50.0" x2="996" y2="50.0" style="stroke:#999; stroke-width:3;" />
  <line x1="996" y1="50.0" x2="996" y2="50.0" style="stroke:#999; stroke-width:3;" />
  <line x1="996" y1="50.0" x2="996" y2="50.0" style="stroke:#999; stroke-width:3;" />
  <line x1="996" y1="50.0" x2="1016" y2="50.0" style="stroke:#999; stroke-width:3;" />
  <rect class="anc_exon" x="1016" y="35.0" width="108" height="30" style="fill:#87bcbc;fill-opacity:1.00" />
  <line x1="1124" y1="50.0" x2="1144" y2="50.0" style="stroke:#999; stroke-width:3;" />
  <line x1="1144" y1="50.0" x2="1144" y2="50.0" style="stroke:#999; stroke-width:3;" />
  <line x1="1144" y1="50.0" x2="1144" y2="50.0" style="stroke:#999; stroke-width:3;" />
  <line x1="1144" y1="50.0" x2="1164" y2="50.0" style="stroke:#999; stroke-width:3;" />
  <rect class="anc_exon" x="1164" y="35.0" width="324" height="30" style="fill:#87bcbc;fill-opacity:1.00" />
  <line x1="1488" y1="50.0" x2="1508" y2="50.0" style="stroke:#999; stroke-width:3;" />
  <line x1="1508" y1="50.0" x2="1508" y2="50.0" style="stroke:#999; stroke-width:3;" />
  <line x1="1508" y1="50.0" x2="1508" y2="50.0" style="stroke:#999; stroke-width:3;" />
  <line x1="1508" y1="50.0" x2="1528" y2="50.0" style="stroke:#999; stroke-width:3;" />
  <rect class="anc_exon" x="1528" y="35.0" width="180" height="30" style="fill:#87bcbc;fill-opacity:1.00" />
  <line x1="1708" y1="50.0" x2="1728" y2="50.0" style="stroke:#999; stroke-width:3;" />
  <line x1="1728" y1="50.0" x2="1728" y2="50.0" style="stroke:#999; stroke-width:3;" />
  <line x1="1728" y1="50.0" x2="1728" y2="50.0" style="stroke:#999; stroke-width:3;" />
  <line x1="1728" y1="50.0" x2="1748" y2="50.0" style="stroke:#999; stroke-width:3;" />
  <rect class="anc_exon" x="1748" y="35.0" width="83" height="30" style="fill:#87bcbc;fill-opacity:1.00" />
  <line x1="1831" y1="50.0" x2="1851" y2="50.0" style="stroke:#999; stroke-width:3;" />
  <line x1="1851" y1="50.0" x2="1851" y2="50.0" style="stroke:#999; stroke-width:3;" />
  <line x1="1851" y1="50.0" x2="1851" y2="50.0" style="stroke:#999; stroke-width:3;" />
  <line x1="1851" y1="50.0" x2="1871" y2="50.0" style="stroke:#999; stroke-width:3;" />
  <rect class="anc_exon" x="1871" y="35.0" width="128" height="30" style="fill:#87bcbc;fill-opacity:1.00" />
  <line x1="1999" y1="50.0" x2="2039" y2="50.0" style="stroke:#999; stroke-width:3;" />
  <rect class="anc_exon" x="2039" y="35.0" width="98" height="30" style="fill:#87bcbc;fill-opacity:1.00" />
  <rect class="anc_exon" x="2137" y="35.0" width="0" height="30" style="fill:#87bcbc;fill-opacity:1.00" />
  <text style="" >
<tspan x="0" y="83.0" style="font-size:18px;" >SP XM_031940655_1.1</tspan>  </text>



<script type="text/ecmascript">
<![CDATA[
function draw_bbox(text_id)
{
    var text_elem = document.getElementById(text_id);
    var offset_px = 2;
    var offset_py = 0;
    bbox = text_elem.getBBox();
    var box = document.createElementNS(document.rootElement.namespaceURI,'rect');
    box.setAttribute('x', bbox.x - offset_px);
    box.setAttribute('y', bbox.y - offset_py);
    box.setAttribute('width', bbox.width + offset_px * 2);
    box.setAttribute('height', bbox.height + offset_py * 2);
    box.setAttribute('style','fill: white;'+'stroke: black;'+'stroke-width: 1px;');
    text_elem.insertBefore(box,text_elem.childNodes[0]);

    var svg = text_elem.parentNode;
    svg.appendChild(text_elem);
}

for (var i=1; i < 1; i++)
{
draw_bbox("Mouseover" + i);
}
]]> 
</script>
</svg>
