<svg version="1.1"
xmlns="http://www.w3.org/2000/svg"
xmlns:xlink="http://www.w3.org/1999/xlink"
width="3357" height="100" viewBox = "0 0 3357 100"
onclick="mouseclick(evt)">

<script type="text/ecmascript">

<![CDATA[
    function mouseover(evt, target) { 
    var gv = document.getElementById("globalVariable");
    var previoustarget = gv.firstChild.nodeValue;
    if (previoustarget != "none") 
    {
        	document.getElementById(gv.firstChild.nodeValue).setAttributeNS(null, "visibility", "hidden");
    }
    document.getElementById(target).setAttributeNS(null, "visibility", "visible");
    gv.firstChild.nodeValue = target;
        }

    function mouseclick(evt) { 
    var gv = document.getElementById("globalVariable");
    var previoustarget = gv.firstChild.nodeValue;
    if (previoustarget != "none") {
        	document.getElementById(gv.firstChild.nodeValue).setAttributeNS(null, "visibility", "hidden");
        }
    }
]]>
  </script>
<style type="text/css" >

<![CDATA[
    rect.anc_exon {
              stroke-width:3;
                  }

    rect.non_anc_exon {
              stroke: black; stroke-width:3; stroke-dasharray: 5,5;
                    }

    text {
              font-size: 18px;
              font-family: Courier New;
          }
                    ]]>
</style>

<defs>
    <text x="150" y="40" id="globalVariable">none</text>
</defs>

  <rect class="anc_exon" x="0" y="35.0" width="0" height="30" style="fill:#87bcbc;fill-opacity:1.00" />
  <rect class="anc_exon" x="0" y="35.0" width="70.4" height="30" style="fill:#87bcbc;fill-opacity:1.00" />
  <line x1="70.4" y1="50.0" x2="110.0" y2="50.0" style="stroke:#999; stroke-width:3;" />
  <rect class="anc_exon" x="110" y="35.0" width="140" height="30" style="fill:#87bcbc;fill-opacity:1.00" />
  <line x1="250" y1="50.0" x2="270" y2="50.0" style="stroke:#999; stroke-width:3;" />
  <line x1="270" y1="50.0" x2="270" y2="50.0" style="stroke:#999; stroke-width:3;" />
  <line x1="270" y1="50.0" x2="270" y2="50.0" style="stroke:#999; stroke-width:3;" />
  <line x1="270" y1="50.0" x2="290" y2="50.0" style="stroke:#999; stroke-width:3;" />
  <rect class="anc_exon" x="290" y="35.0" width="61" height="30" style="fill:#87bcbc;fill-opacity:1.00" />
  <line x1="351" y1="50.0" x2="371" y2="50.0" style="stroke:#999; stroke-width:3;" />
  <line x1="371" y1="50.0" x2="371" y2="50.0" style="stroke:#999; stroke-width:3;" />
  <line x1="371" y1="50.0" x2="371" y2="50.0" style="stroke:#999; stroke-width:3;" />
  <line x1="371" y1="50.0" x2="391" y2="50.0" style="stroke:#999; stroke-width:3;" />
  <rect class="anc_exon" x="391" y="35.0" width="53" height="30" style="fill:#87bcbc;fill-opacity:1.00" />
  <line x1="444" y1="50.0" x2="464" y2="50.0" style="stroke:#999; stroke-width:3;" />
  <line x1="464" y1="50.0" x2="464" y2="50.0" style="stroke:#999; stroke-width:3;" />
  <line x1="464" y1="50.0" x2="464" y2="50.0" style="stroke:#999; stroke-width:3;" />
  <line x1="464" y1="50.0" x2="484" y2="50.0" style="stroke:#999; stroke-width:3;" />
  <rect class="anc_exon" x="484" y="35.0" width="66" height="30" style="fill:#87bcbc;fill-opacity:1.00" />
  <line x1="550" y1="50.0" x2="570" y2="50.0" style="stroke:#999; stroke-width:3;" />
  <line x1="570" y1="50.0" x2="570" y2="50.0" style="stroke:#999; stroke-width:3;" />
  <line x1="570" y1="50.0" x2="570" y2="50.0" style="stroke:#999; stroke-width:3;" />
  <line x1="570" y1="50.0" x2="590" y2="50.0" style="stroke:#999; stroke-width:3;" />
  <rect class="anc_exon" x="590" y="35.0" width="51" height="30" style="fill:#87bcbc;fill-opacity:1.00" />
  <line x1="641" y1="50.0" x2="661" y2="50.0" style="stroke:#999; stroke-width:3;" />
  <line x1="661" y1="50.0" x2="661" y2="50.0" style="stroke:#999; stroke-width:3;" />
  <line x1="661" y1="50.0" x2="661" y2="50.0" style="stroke:#999; stroke-width:3;" />
  <line x1="661" y1="50.0" x2="681" y2="50.0" style="stroke:#999; stroke-width:3;" />
  <rect class="anc_exon" x="681" y="35.0" width="56" height="30" style="fill:#87bcbc;fill-opacity:1.00" />
  <line x1="737" y1="50.0" x2="757" y2="50.0" style="stroke:#999; stroke-width:3;" />
  <line x1="757" y1="50.0" x2="757" y2="50.0" style="stroke:#999; stroke-width:3;" />
  <line x1="757" y1="50.0" x2="757" y2="50.0" style="stroke:#999; stroke-width:3;" />
  <line x1="757" y1="50.0" x2="777" y2="50.0" style="stroke:#999; stroke-width:3;" />
  <rect class="anc_exon" x="777" y="35.0" width="56" height="30" style="fill:#87bcbc;fill-opacity:1.00" />
  <line x1="833" y1="50.0" x2="853" y2="50.0" style="stroke:#999; stroke-width:3;" />
  <line x1="853" y1="50.0" x2="853" y2="50.0" style="stroke:#999; stroke-width:3;" />
  <line x1="853" y1="50.0" x2="853" y2="50.0" style="stroke:#999; stroke-width:3;" />
  <line x1="853" y1="50.0" x2="873" y2="50.0" style="stroke:#999; stroke-width:3;" />
  <rect class="anc_exon" x="873" y="35.0" width="60" height="30" style="fill:#87bcbc;fill-opacity:1.00" />
  <line x1="933" y1="50.0" x2="953" y2="50.0" style="stroke:#999; stroke-width:3;" />
  <line x1="953" y1="50.0" x2="953" y2="50.0" style="stroke:#999; stroke-width:3;" />
  <line x1="953" y1="50.0" x2="953" y2="50.0" style="stroke:#999; stroke-width:3;" />
  <line x1="953" y1="50.0" x2="973" y2="50.0" style="stroke:#999; stroke-width:3;" />
  <rect class="anc_exon" x="973" y="35.0" width="57" height="30" style="fill:#87bcbc;fill-opacity:1.00" />
  <line x1="1030" y1="50.0" x2="1070" y2="50.0" style="stroke:#999; stroke-width:3;" />
  <rect class="anc_exon" x="1070" y="35.0" width="133" height="30" style="fill:#87bcbc;fill-opacity:1.00" />
  <line x1="1203" y1="50.0" x2="1243" y2="50.0" style="stroke:#999; stroke-width:3;" />
  <rect class="anc_exon" x="1243" y="35.0" width="68" height="30" style="fill:#87bcbc;fill-opacity:1.00" />
  <line x1="1311" y1="50.0" x2="1351" y2="50.0" style="stroke:#999; stroke-width:3;" />
  <rect class="anc_exon" x="1351" y="35.0" width="72" height="30" style="fill:#87bcbc;fill-opacity:1.00" />
  <line x1="1423" y1="50.0" x2="1463" y2="50.0" style="stroke:#999; stroke-width:3;" />
  <rect class="anc_exon" x="1463" y="35.0" width="41" height="30" style="fill:#87bcbc;fill-opacity:1.00" />
  <line x1="1504" y1="50.0" x2="1544" y2="50.0" style="stroke:#999; stroke-width:3;" />
  <rect class="anc_exon" x="1544" y="35.0" width="80" height="30" style="fill:#87bcbc;fill-opacity:1.00" />
  <line x1="1624" y1="50.0" x2="1644" y2="50.0" style="stroke:#999; stroke-width:3;" />
  <line x1="1644" y1="50.0" x2="1644" y2="50.0" style="stroke:#999; stroke-width:3;" />
  <line x1="1644" y1="50.0" x2="1644" y2="50.0" style="stroke:#999; stroke-width:3;" />
  <line x1="1644" y1="50.0" x2="1664" y2="50.0" style="stroke:#999; stroke-width:3;" />
  <rect class="anc_exon" x="1664" y="35.0" width="57" height="30" style="fill:#87bcbc;fill-opacity:1.00" />
  <line x1="1721" y1="50.0" x2="1761" y2="50.0" style="stroke:#999; stroke-width:3;" />
  <rect class="anc_exon" x="1761" y="35.0" width="74" height="30" style="fill:#87bcbc;fill-opacity:1.00" />
  <line x1="1835" y1="50.0" x2="1855" y2="50.0" style="stroke:#999; stroke-width:3;" />
  <line x1="1855" y1="50.0" x2="1855" y2="50.0" style="stroke:#999; stroke-width:3;" />
  <line x1="1855" y1="50.0" x2="1855" y2="50.0" style="stroke:#999; stroke-width:3;" />
  <line x1="1855" y1="50.0" x2="1875" y2="50.0" style="stroke:#999; stroke-width:3;" />
  <rect class="anc_exon" x="1875" y="35.0" width="64" height="30" style="fill:#87bcbc;fill-opacity:1.00" />
  <line x1="1939" y1="50.0" x2="1959" y2="50.0" style="stroke:#999; stroke-width:3;" />
  <line x1="1959" y1="50.0" x2="1959" y2="50.0" style="stroke:#999; stroke-width:3;" />
  <line x1="1959" y1="50.0" x2="1959" y2="50.0" style="stroke:#999; stroke-width:3;" />
  <line x1="1959" y1="50.0" x2="1979" y2="50.0" style="stroke:#999; stroke-width:3;" />
  <rect class="anc_exon" x="1979" y="35.0" width="40" height="30" style="fill:#87bcbc;fill-opacity:1.00" />
  <line x1="2019" y1="50.0" x2="2059" y2="50.0" style="stroke:#999; stroke-width:3;" />
  <rect class="anc_exon" x="2059" y="35.0" width="51" height="30" style="fill:#87bcbc;fill-opacity:1.00" />
  <line x1="2110" y1="50.0" x2="2150" y2="50.0" style="stroke:#999; stroke-width:3;" />
  <rect class="anc_exon" x="2150" y="35.0" width="84" height="30" style="fill:#87bcbc;fill-opacity:1.00" />
  <line x1="2234" y1="50.0" x2="2254" y2="50.0" style="stroke:#999; stroke-width:3;" />
  <line x1="2254" y1="50.0" x2="2254" y2="50.0" style="stroke:#999; stroke-width:3;" />
  <line x1="2254" y1="50.0" x2="2254" y2="50.0" style="stroke:#999; stroke-width:3;" />
  <line x1="2254" y1="50.0" x2="2274" y2="50.0" style="stroke:#999; stroke-width:3;" />
  <rect class="anc_exon" x="2274" y="35.0" width="96" height="30" style="fill:#87bcbc;fill-opacity:1.00" />
  <line x1="2370" y1="50.0" x2="2410" y2="50.0" style="stroke:#999; stroke-width:3;" />
  <rect class="anc_exon" x="2410" y="35.0" width="135" height="30" style="fill:#87bcbc;fill-opacity:1.00" />
  <line x1="2545" y1="50.0" x2="2565" y2="50.0" style="stroke:#999; stroke-width:3;" />
  <line x1="2565" y1="50.0" x2="2565" y2="50.0" style="stroke:#999; stroke-width:3;" />
  <line x1="2565" y1="50.0" x2="2565" y2="50.0" style="stroke:#999; stroke-width:3;" />
  <line x1="2565" y1="50.0" x2="2585" y2="50.0" style="stroke:#999; stroke-width:3;" />
  <rect class="anc_exon" x="2585" y="35.0" width="92" height="30" style="fill:#87bcbc;fill-opacity:1.00" />
  <line x1="2677" y1="50.0" x2="2697" y2="50.0" style="stroke:#999; stroke-width:3;" />
  <line x1="2697" y1="50.0" x2="2697" y2="50.0" style="stroke:#999; stroke-width:3;" />
  <line x1="2697" y1="50.0" x2="2697" y2="50.0" style="stroke:#999; stroke-width:3;" />
  <line x1="2697" y1="50.0" x2="2717" y2="50.0" style="stroke:#999; stroke-width:3;" />
  <rect class="anc_exon" x="2717" y="35.0" width="72" height="30" style="fill:#87bcbc;fill-opacity:1.00" />
  <line x1="2789" y1="50.0" x2="2829" y2="50.0" style="stroke:#999; stroke-width:3;" />
  <rect class="anc_exon" x="2829" y="35.0" width="14" height="30" style="fill:#87bcbc;fill-opacity:1.00" />
  <line x1="2843" y1="50.0" x2="2863" y2="50.0" style="stroke:#999; stroke-width:3;" />
  <line x1="2863" y1="50.0" x2="2863" y2="50.0" style="stroke:#999; stroke-width:3;" />
  <line x1="2863" y1="50.0" x2="2863" y2="50.0" style="stroke:#999; stroke-width:3;" />
  <line x1="2863" y1="50.0" x2="2883" y2="50.0" style="stroke:#999; stroke-width:3;" />
  <rect class="anc_exon" x="2883" y="35.0" width="156" height="30" style="fill:#87bcbc;fill-opacity:1.00" />
  <line x1="3039" y1="50.0" x2="3059" y2="50.0" style="stroke:#999; stroke-width:3;" />
  <line x1="3059" y1="50.0" x2="3059" y2="50.0" style="stroke:#999; stroke-width:3;" />
  <line x1="3059" y1="50.0" x2="3059" y2="50.0" style="stroke:#999; stroke-width:3;" />
  <line x1="3059" y1="50.0" x2="3079" y2="50.0" style="stroke:#999; stroke-width:3;" />
  <rect class="anc_exon" x="3079" y="35.0" width="80" height="30" style="fill:#87bcbc;fill-opacity:1.00" />
  <line x1="3159" y1="50.0" x2="3199" y2="50.0" style="stroke:#999; stroke-width:3;" />
  <rect class="anc_exon" x="3199" y="35.0" width="53" height="30" style="fill:#87bcbc;fill-opacity:1.00" />
  <line x1="3252" y1="50.0" x2="3292" y2="50.0" style="stroke:#999; stroke-width:3;" />
  <rect class="anc_exon" x="3292" y="35.0" width="29" height="30" style="fill:#87bcbc;fill-opacity:1.00" />
  <rect class="anc_exon" x="3321" y="35.0" width="0" height="30" style="fill:#87bcbc;fill-opacity:1.00" />
  <text style="" >
<tspan x="0" y="83.0" style="font-size:18px;" >SP XM_031939966_1.1</tspan>  </text>



<script type="text/ecmascript">
<![CDATA[
function draw_bbox(text_id)
{
    var text_elem = document.getElementById(text_id);
    var offset_px = 2;
    var offset_py = 0;
    bbox = text_elem.getBBox();
    var box = document.createElementNS(document.rootElement.namespaceURI,'rect');
    box.setAttribute('x', bbox.x - offset_px);
    box.setAttribute('y', bbox.y - offset_py);
    box.setAttribute('width', bbox.width + offset_px * 2);
    box.setAttribute('height', bbox.height + offset_py * 2);
    box.setAttribute('style','fill: white;'+'stroke: black;'+'stroke-width: 1px;');
    text_elem.insertBefore(box,text_elem.childNodes[0]);

    var svg = text_elem.parentNode;
    svg.appendChild(text_elem);
}

for (var i=1; i < 1; i++)
{
draw_bbox("Mouseover" + i);
}
]]> 
</script>
</svg>
