<svg version="1.1"
xmlns="http://www.w3.org/2000/svg"
xmlns:xlink="http://www.w3.org/1999/xlink"
width="3190" height="100" viewBox = "0 0 3190 100"
onclick="mouseclick(evt)">

<script type="text/ecmascript">

<![CDATA[
    function mouseover(evt, target) { 
    var gv = document.getElementById("globalVariable");
    var previoustarget = gv.firstChild.nodeValue;
    if (previoustarget != "none") 
    {
        	document.getElementById(gv.firstChild.nodeValue).setAttributeNS(null, "visibility", "hidden");
    }
    document.getElementById(target).setAttributeNS(null, "visibility", "visible");
    gv.firstChild.nodeValue = target;
        }

    function mouseclick(evt) { 
    var gv = document.getElementById("globalVariable");
    var previoustarget = gv.firstChild.nodeValue;
    if (previoustarget != "none") {
        	document.getElementById(gv.firstChild.nodeValue).setAttributeNS(null, "visibility", "hidden");
        }
    }
]]>
  </script>
<style type="text/css" >

<![CDATA[
    rect.anc_exon {
              stroke-width:3;
                  }

    rect.non_anc_exon {
              stroke: black; stroke-width:3; stroke-dasharray: 5,5;
                    }

    text {
              font-size: 18px;
              font-family: Courier New;
          }
                    ]]>
</style>

<defs>
    <text x="150" y="40" id="globalVariable">none</text>
</defs>

  <rect class="anc_exon" x="0" y="35.0" width="0" height="30" style="fill:#87bcbc;fill-opacity:1.00" />
  <rect class="anc_exon" x="0" y="35.0" width="831.2" height="30" style="fill:#87bcbc;fill-opacity:1.00" />
  <line x1="831.2" y1="50.0" x2="850.2" y2="50.0" style="stroke:#999; stroke-width:3;" />
  <line x1="850.2" y1="50.0" x2="850.2" y2="50.0" style="stroke:#999; stroke-width:3;" />
  <line x1="850.2" y1="50.0" x2="850.2" y2="50.0" style="stroke:#999; stroke-width:3;" />
  <line x1="850.2" y1="50.0" x2="871.0" y2="50.0" style="stroke:#999; stroke-width:3;" />
  <rect class="anc_exon" x="871" y="35.0" width="64" height="30" style="fill:#87bcbc;fill-opacity:1.00" />
  <line x1="935" y1="50.0" x2="975" y2="50.0" style="stroke:#999; stroke-width:3;" />
  <rect class="anc_exon" x="975" y="35.0" width="119" height="30" style="fill:#87bcbc;fill-opacity:1.00" />
  <line x1="1094" y1="50.0" x2="1114" y2="50.0" style="stroke:#999; stroke-width:3;" />
  <line x1="1114" y1="50.0" x2="1114" y2="50.0" style="stroke:#999; stroke-width:3;" />
  <line x1="1114" y1="50.0" x2="1114" y2="50.0" style="stroke:#999; stroke-width:3;" />
  <line x1="1114" y1="50.0" x2="1134" y2="50.0" style="stroke:#999; stroke-width:3;" />
  <rect class="anc_exon" x="1134" y="35.0" width="110" height="30" style="fill:#87bcbc;fill-opacity:1.00" />
  <line x1="1244" y1="50.0" x2="1264" y2="50.0" style="stroke:#999; stroke-width:3;" />
  <line x1="1264" y1="50.0" x2="1264" y2="50.0" style="stroke:#999; stroke-width:3;" />
  <line x1="1264" y1="50.0" x2="1264" y2="50.0" style="stroke:#999; stroke-width:3;" />
  <line x1="1264" y1="50.0" x2="1284" y2="50.0" style="stroke:#999; stroke-width:3;" />
  <rect class="anc_exon" x="1284" y="35.0" width="52" height="30" style="fill:#87bcbc;fill-opacity:1.00" />
  <line x1="1336" y1="50.0" x2="1356" y2="50.0" style="stroke:#999; stroke-width:3;" />
  <line x1="1356" y1="50.0" x2="1356" y2="50.0" style="stroke:#999; stroke-width:3;" />
  <line x1="1356" y1="50.0" x2="1356" y2="50.0" style="stroke:#999; stroke-width:3;" />
  <line x1="1356" y1="50.0" x2="1376" y2="50.0" style="stroke:#999; stroke-width:3;" />
  <rect class="anc_exon" x="1376" y="35.0" width="68" height="30" style="fill:#87bcbc;fill-opacity:1.00" />
  <line x1="1444" y1="50.0" x2="1484" y2="50.0" style="stroke:#999; stroke-width:3;" />
  <rect class="anc_exon" x="1484" y="35.0" width="68" height="30" style="fill:#87bcbc;fill-opacity:1.00" />
  <line x1="1552" y1="50.0" x2="1592" y2="50.0" style="stroke:#999; stroke-width:3;" />
  <rect class="anc_exon" x="1592" y="35.0" width="506" height="30" style="fill:#87bcbc;fill-opacity:1.00" />
  <line x1="2098" y1="50.0" x2="2118" y2="50.0" style="stroke:#999; stroke-width:3;" />
  <line x1="2118" y1="50.0" x2="2118" y2="50.0" style="stroke:#999; stroke-width:3;" />
  <line x1="2118" y1="50.0" x2="2118" y2="50.0" style="stroke:#999; stroke-width:3;" />
  <line x1="2118" y1="50.0" x2="2138" y2="50.0" style="stroke:#999; stroke-width:3;" />
  <rect class="anc_exon" x="2138" y="35.0" width="52" height="30" style="fill:#87bcbc;fill-opacity:1.00" />
  <line x1="2190" y1="50.0" x2="2210" y2="50.0" style="stroke:#999; stroke-width:3;" />
  <line x1="2210" y1="50.0" x2="2210" y2="50.0" style="stroke:#999; stroke-width:3;" />
  <line x1="2210" y1="50.0" x2="2210" y2="50.0" style="stroke:#999; stroke-width:3;" />
  <line x1="2210" y1="50.0" x2="2230" y2="50.0" style="stroke:#999; stroke-width:3;" />
  <rect class="anc_exon" x="2230" y="35.0" width="63" height="30" style="fill:#87bcbc;fill-opacity:1.00" />
  <line x1="2293" y1="50.0" x2="2313" y2="50.0" style="stroke:#999; stroke-width:3;" />
  <line x1="2313" y1="50.0" x2="2313" y2="50.0" style="stroke:#999; stroke-width:3;" />
  <line x1="2313" y1="50.0" x2="2313" y2="50.0" style="stroke:#999; stroke-width:3;" />
  <line x1="2313" y1="50.0" x2="2333" y2="50.0" style="stroke:#999; stroke-width:3;" />
  <rect class="anc_exon" x="2333" y="35.0" width="127" height="30" style="fill:#87bcbc;fill-opacity:1.00" />
  <line x1="2460" y1="50.0" x2="2480" y2="50.0" style="stroke:#999; stroke-width:3;" />
  <line x1="2480" y1="50.0" x2="2480" y2="50.0" style="stroke:#999; stroke-width:3;" />
  <line x1="2480" y1="50.0" x2="2480" y2="50.0" style="stroke:#999; stroke-width:3;" />
  <line x1="2480" y1="50.0" x2="2500" y2="50.0" style="stroke:#999; stroke-width:3;" />
  <rect class="anc_exon" x="2500" y="35.0" width="151" height="30" style="fill:#87bcbc;fill-opacity:1.00" />
  <line x1="2651" y1="50.0" x2="2671" y2="50.0" style="stroke:#999; stroke-width:3;" />
  <line x1="2671" y1="50.0" x2="2671" y2="50.0" style="stroke:#999; stroke-width:3;" />
  <line x1="2671" y1="50.0" x2="2671" y2="50.0" style="stroke:#999; stroke-width:3;" />
  <line x1="2671" y1="50.0" x2="2691" y2="50.0" style="stroke:#999; stroke-width:3;" />
  <rect class="anc_exon" x="2691" y="35.0" width="90" height="30" style="fill:#87bcbc;fill-opacity:1.00" />
  <line x1="2781" y1="50.0" x2="2801" y2="50.0" style="stroke:#999; stroke-width:3;" />
  <line x1="2801" y1="50.0" x2="2801" y2="50.0" style="stroke:#999; stroke-width:3;" />
  <line x1="2801" y1="50.0" x2="2801" y2="50.0" style="stroke:#999; stroke-width:3;" />
  <line x1="2801" y1="50.0" x2="2821" y2="50.0" style="stroke:#999; stroke-width:3;" />
  <rect class="anc_exon" x="2821" y="35.0" width="333" height="30" style="fill:#87bcbc;fill-opacity:1.00" />
  <rect class="anc_exon" x="3154" y="35.0" width="0" height="30" style="fill:#87bcbc;fill-opacity:1.00" />
  <text style="" >
<tspan x="0" y="83.0" style="font-size:18px;" >SP XM_003771237_4.1</tspan>  </text>



<script type="text/ecmascript">
<![CDATA[
function draw_bbox(text_id)
{
    var text_elem = document.getElementById(text_id);
    var offset_px = 2;
    var offset_py = 0;
    bbox = text_elem.getBBox();
    var box = document.createElementNS(document.rootElement.namespaceURI,'rect');
    box.setAttribute('x', bbox.x - offset_px);
    box.setAttribute('y', bbox.y - offset_py);
    box.setAttribute('width', bbox.width + offset_px * 2);
    box.setAttribute('height', bbox.height + offset_py * 2);
    box.setAttribute('style','fill: white;'+'stroke: black;'+'stroke-width: 1px;');
    text_elem.insertBefore(box,text_elem.childNodes[0]);

    var svg = text_elem.parentNode;
    svg.appendChild(text_elem);
}

for (var i=1; i < 1; i++)
{
draw_bbox("Mouseover" + i);
}
]]> 
</script>
</svg>
