<svg version="1.1"
xmlns="http://www.w3.org/2000/svg"
xmlns:xlink="http://www.w3.org/1999/xlink"
width="2523" height="110.0" viewBox = "0 -10.0 2523 110.0"
onclick="mouseclick(evt)">

<script type="text/ecmascript">

<![CDATA[
    function mouseover(evt, target) { 
    var gv = document.getElementById("globalVariable");
    var previoustarget = gv.firstChild.nodeValue;
    if (previoustarget != "none") 
    {
        	document.getElementById(gv.firstChild.nodeValue).setAttributeNS(null, "visibility", "hidden");
    }
    document.getElementById(target).setAttributeNS(null, "visibility", "visible");
    gv.firstChild.nodeValue = target;
        }

    function mouseclick(evt) { 
    var gv = document.getElementById("globalVariable");
    var previoustarget = gv.firstChild.nodeValue;
    if (previoustarget != "none") {
        	document.getElementById(gv.firstChild.nodeValue).setAttributeNS(null, "visibility", "hidden");
        }
    }
]]>
  </script>
<style type="text/css" >

<![CDATA[
    rect.anc_exon {
              stroke-width:3;
                  }

    rect.non_anc_exon {
              stroke: black; stroke-width:3; stroke-dasharray: 5,5;
                    }

    text {
              font-size: 18px;
              font-family: Courier New;
          }
                    ]]>
</style>

<defs>
    <text x="150" y="40" id="globalVariable">none</text>
</defs>

  <rect class="anc_exon" x="0" y="35.0" width="0" height="30" style="fill:#87bcbc;fill-opacity:1.00" />
  <rect class="anc_exon" x="0" y="35.0" width="56.0" height="30" style="fill:#87bcbc;fill-opacity:1.00" />
  <line x1="56.0" y1="50.0" x2="96.0" y2="50.0" style="stroke:#999; stroke-width:3;" />
  <rect class="anc_exon" x="96" y="35.0" width="73" height="30" style="fill:#87bcbc;fill-opacity:1.00" />
  <line x1="169" y1="50.0" x2="189" y2="50.0" style="stroke:#999; stroke-width:3;" />
  <line x1="189" y1="50.0" x2="189" y2="50.0" style="stroke:#999; stroke-width:3;" />
  <line x1="189" y1="50.0" x2="189" y2="50.0" style="stroke:#999; stroke-width:3;" />
  <line x1="189" y1="50.0" x2="209" y2="50.0" style="stroke:#999; stroke-width:3;" />
  <rect class="anc_exon" x="209" y="35.0" width="104" height="30" style="fill:#87bcbc;fill-opacity:1.00" />
  <line x1="313" y1="50.0" x2="333" y2="50.0" style="stroke:#999; stroke-width:3;" />
  <line x1="333" y1="50.0" x2="333" y2="50.0" style="stroke:#999; stroke-width:3;" />
  <line x1="333" y1="50.0" x2="333" y2="50.0" style="stroke:#999; stroke-width:3;" />
  <line x1="333" y1="50.0" x2="353" y2="50.0" style="stroke:#999; stroke-width:3;" />
  <rect class="anc_exon" x="353" y="35.0" width="59" height="30" style="fill:#87bcbc;fill-opacity:1.00" />
  <line x1="412" y1="50.0" x2="452" y2="50.0" style="stroke:#999; stroke-width:3;" />
  <rect class="anc_exon" x="452" y="35.0" width="103" height="30" style="fill:#87bcbc;fill-opacity:1.00" />
  <line x1="555" y1="50.0" x2="595" y2="50.0" style="stroke:#999; stroke-width:3;" />
  <rect class="anc_exon" x="595" y="35.0" width="92" height="30" style="fill:#87bcbc;fill-opacity:1.00" />
  <line x1="687" y1="50.0" x2="727" y2="50.0" style="stroke:#999; stroke-width:3;" />
  <rect class="anc_exon" x="727" y="35.0" width="98" height="30" style="fill:#87bcbc;fill-opacity:1.00" />
  <line x1="825" y1="50.0" x2="845" y2="50.0" style="stroke:#999; stroke-width:3;" />
  <line x1="845" y1="50.0" x2="845" y2="50.0" style="stroke:#999; stroke-width:3;" />
  <line x1="845" y1="50.0" x2="845" y2="50.0" style="stroke:#999; stroke-width:3;" />
  <line x1="845" y1="50.0" x2="865" y2="50.0" style="stroke:#999; stroke-width:3;" />
  <rect class="anc_exon" x="865" y="35.0" width="152" height="30" style="fill:#87bcbc;fill-opacity:1.00" />
  <line x1="1017" y1="50.0" x2="1037" y2="50.0" style="stroke:#999; stroke-width:3;" />
  <line x1="1037" y1="50.0" x2="1037" y2="50.0" style="stroke:#999; stroke-width:3;" />
  <line x1="1037" y1="50.0" x2="1037" y2="50.0" style="stroke:#999; stroke-width:3;" />
  <line x1="1037" y1="50.0" x2="1057" y2="50.0" style="stroke:#999; stroke-width:3;" />
  <rect class="anc_exon" x="1057" y="35.0" width="119" height="30" style="fill:#87bcbc;fill-opacity:1.00" />
  <line x1="1176" y1="50.0" x2="1196" y2="50.0" style="stroke:#999; stroke-width:3;" />
  <line x1="1196" y1="50.0" x2="1196" y2="50.0" style="stroke:#999; stroke-width:3;" />
  <line x1="1196" y1="50.0" x2="1196" y2="50.0" style="stroke:#999; stroke-width:3;" />
  <line x1="1196" y1="50.0" x2="1216" y2="50.0" style="stroke:#999; stroke-width:3;" />
  <rect class="anc_exon" x="1216" y="35.0" width="195" height="30" style="fill:#87bcbc;fill-opacity:1.00" />
  <line x1="1411" y1="50.0" x2="1431" y2="50.0" style="stroke:#999; stroke-width:3;" />
  <line x1="1431" y1="50.0" x2="1431" y2="50.0" style="stroke:#999; stroke-width:3;" />
  <line x1="1431" y1="50.0" x2="1431" y2="50.0" style="stroke:#999; stroke-width:3;" />
  <line x1="1431" y1="50.0" x2="1451" y2="50.0" style="stroke:#999; stroke-width:3;" />
  <rect class="anc_exon" x="1451" y="35.0" width="348" height="30" style="fill:#87bcbc;fill-opacity:1.00" />
  <line x1="1799" y1="50.0" x2="1839" y2="50.0" style="stroke:#999; stroke-width:3;" />
  <rect class="anc_exon" x="1839" y="35.0" width="392" height="30" style="fill:#87bcbc;fill-opacity:1.00" />
  <line x1="2231" y1="50.0" x2="2251" y2="50.0" style="stroke:#999; stroke-width:3;" />
  <line x1="2251" y1="50.0" x2="2251" y2="50.0" style="stroke:#999; stroke-width:3;" />
  <line x1="2251" y1="50.0" x2="2251" y2="50.0" style="stroke:#999; stroke-width:3;" />
  <line x1="2251" y1="50.0" x2="2271" y2="50.0" style="stroke:#999; stroke-width:3;" />
  <rect class="anc_exon" x="2271" y="35.0" width="104" height="30" style="fill:#87bcbc;fill-opacity:1.00" />
  <line x1="2365.0" y1="35.0" x2="2365.0" y2="65.0" style="stroke:#121212; stroke-width:0.8; stroke-opacity:1"/>
  <text style="" text-anchor="middle">
<tspan x="2364.6" y="26.0" style="font-size:18px;fill:#121212;" >-1</tspan>  </text>
  <line x1="2375" y1="50.0" x2="2415" y2="50.0" style="stroke:#999; stroke-width:3;" />
  <rect class="anc_exon" x="2415" y="35.0" width="72" height="30" style="fill:#87bcbc;fill-opacity:1.00" />
  <line x1="2455.0" y1="35.0" x2="2455.0" y2="65.0" style="stroke:#121212; stroke-width:1.6; stroke-opacity:1"/>
  <text style="" text-anchor="middle">
<tspan x="2454.2" y="26.0" style="font-size:18px;fill:#121212;" >-2</tspan>  </text>
  <rect class="anc_exon" x="2487" y="35.0" width="0" height="30" style="fill:#87bcbc;fill-opacity:1.00" />
  <text style="" >
<tspan x="0" y="83.0" style="font-size:18px;" >SP XM_031939291_1.1</tspan>  </text>
  <text style="fill:#121212;" >
<tspan x="2247.96" y="68.0" style="font-size:18px;fill:#121212;" >aa</tspan>  </text>



<script type="text/ecmascript">
<![CDATA[
function draw_bbox(text_id)
{
    var text_elem = document.getElementById(text_id);
    var offset_px = 2;
    var offset_py = 0;
    bbox = text_elem.getBBox();
    var box = document.createElementNS(document.rootElement.namespaceURI,'rect');
    box.setAttribute('x', bbox.x - offset_px);
    box.setAttribute('y', bbox.y - offset_py);
    box.setAttribute('width', bbox.width + offset_px * 2);
    box.setAttribute('height', bbox.height + offset_py * 2);
    box.setAttribute('style','fill: white;'+'stroke: black;'+'stroke-width: 1px;');
    text_elem.insertBefore(box,text_elem.childNodes[0]);

    var svg = text_elem.parentNode;
    svg.appendChild(text_elem);
}

for (var i=1; i < 1; i++)
{
draw_bbox("Mouseover" + i);
}
]]> 
</script>
</svg>
