<svg version="1.1"
xmlns="http://www.w3.org/2000/svg"
xmlns:xlink="http://www.w3.org/1999/xlink"
width="3485" height="100" viewBox = "0 0 3485 100"
onclick="mouseclick(evt)">

<script type="text/ecmascript">

<![CDATA[
    function mouseover(evt, target) { 
    var gv = document.getElementById("globalVariable");
    var previoustarget = gv.firstChild.nodeValue;
    if (previoustarget != "none") 
    {
        	document.getElementById(gv.firstChild.nodeValue).setAttributeNS(null, "visibility", "hidden");
    }
    document.getElementById(target).setAttributeNS(null, "visibility", "visible");
    gv.firstChild.nodeValue = target;
        }

    function mouseclick(evt) { 
    var gv = document.getElementById("globalVariable");
    var previoustarget = gv.firstChild.nodeValue;
    if (previoustarget != "none") {
        	document.getElementById(gv.firstChild.nodeValue).setAttributeNS(null, "visibility", "hidden");
        }
    }
]]>
  </script>
<style type="text/css" >

<![CDATA[
    rect.anc_exon {
              stroke-width:3;
                  }

    rect.non_anc_exon {
              stroke: black; stroke-width:3; stroke-dasharray: 5,5;
                    }

    text {
              font-size: 18px;
              font-family: Courier New;
          }
                    ]]>
</style>

<defs>
    <text x="150" y="40" id="globalVariable">none</text>
</defs>

  <rect class="anc_exon" x="0" y="35.0" width="0" height="30" style="fill:#87bcbc;fill-opacity:1.00" />
  <rect class="anc_exon" x="0" y="35.0" width="651.2" height="30" style="fill:#87bcbc;fill-opacity:1.00" />
  <line x1="651.2" y1="50.0" x2="691.0" y2="50.0" style="stroke:#999; stroke-width:3;" />
  <rect class="anc_exon" x="691" y="35.0" width="61" height="30" style="fill:#878787;fill-opacity:1.00" />
  <line x1="752" y1="50.0" x2="792" y2="50.0" style="stroke:#999; stroke-width:3;" />
  <rect class="anc_exon" x="792" y="35.0" width="279" height="30" style="fill:#878787;fill-opacity:1.00" />
  <line x1="1071" y1="50.0" x2="1091" y2="50.0" style="stroke:#999; stroke-width:3;" />
  <line x1="1091" y1="50.0" x2="1091" y2="50.0" style="stroke:#999; stroke-width:3;" />
  <line x1="1091" y1="50.0" x2="1091" y2="50.0" style="stroke:#999; stroke-width:3;" />
  <line x1="1091" y1="50.0" x2="1111" y2="50.0" style="stroke:#999; stroke-width:3;" />
  <rect class="anc_exon" x="1111" y="35.0" width="120" height="30" style="fill:#87bcbc;fill-opacity:1.00" />
  <line x1="1231" y1="50.0" x2="1251" y2="50.0" style="stroke:#999; stroke-width:3;" />
  <line x1="1251" y1="50.0" x2="1251" y2="50.0" style="stroke:#999; stroke-width:3;" />
  <line x1="1251" y1="50.0" x2="1251" y2="50.0" style="stroke:#999; stroke-width:3;" />
  <line x1="1251" y1="50.0" x2="1271" y2="50.0" style="stroke:#999; stroke-width:3;" />
  <rect class="anc_exon" x="1271" y="35.0" width="164" height="30" style="fill:#87bcbc;fill-opacity:1.00" />
  <line x1="1435" y1="50.0" x2="1455" y2="50.0" style="stroke:#999; stroke-width:3;" />
  <line x1="1455" y1="50.0" x2="1455" y2="50.0" style="stroke:#999; stroke-width:3;" />
  <line x1="1455" y1="50.0" x2="1455" y2="50.0" style="stroke:#999; stroke-width:3;" />
  <line x1="1455" y1="50.0" x2="1475" y2="50.0" style="stroke:#999; stroke-width:3;" />
  <rect class="anc_exon" x="1475" y="35.0" width="122" height="30" style="fill:#87bcbc;fill-opacity:1.00" />
  <line x1="1597" y1="50.0" x2="1617" y2="50.0" style="stroke:#999; stroke-width:3;" />
  <line x1="1617" y1="50.0" x2="1617" y2="50.0" style="stroke:#999; stroke-width:3;" />
  <line x1="1617" y1="50.0" x2="1617" y2="50.0" style="stroke:#999; stroke-width:3;" />
  <line x1="1617" y1="50.0" x2="1637" y2="50.0" style="stroke:#999; stroke-width:3;" />
  <rect class="anc_exon" x="1637" y="35.0" width="132" height="30" style="fill:#878787;fill-opacity:1.00" />
  <line x1="1769" y1="50.0" x2="1789" y2="50.0" style="stroke:#999; stroke-width:3;" />
  <line x1="1789" y1="50.0" x2="1789" y2="50.0" style="stroke:#999; stroke-width:3;" />
  <line x1="1789" y1="50.0" x2="1789" y2="50.0" style="stroke:#999; stroke-width:3;" />
  <line x1="1789" y1="50.0" x2="1809" y2="50.0" style="stroke:#999; stroke-width:3;" />
  <rect class="anc_exon" x="1809" y="35.0" width="72" height="30" style="fill:#87bcbc;fill-opacity:1.00" />
  <line x1="1881" y1="50.0" x2="1901" y2="50.0" style="stroke:#999; stroke-width:3;" />
  <line x1="1901" y1="50.0" x2="1901" y2="50.0" style="stroke:#999; stroke-width:3;" />
  <line x1="1901" y1="50.0" x2="1901" y2="50.0" style="stroke:#999; stroke-width:3;" />
  <line x1="1901" y1="50.0" x2="1921" y2="50.0" style="stroke:#999; stroke-width:3;" />
  <rect class="anc_exon" x="1921" y="35.0" width="81" height="30" style="fill:#87bcbc;fill-opacity:1.00" />
  <line x1="2002" y1="50.0" x2="2022" y2="50.0" style="stroke:#999; stroke-width:3;" />
  <line x1="2022" y1="50.0" x2="2022" y2="50.0" style="stroke:#999; stroke-width:3;" />
  <line x1="2022" y1="50.0" x2="2022" y2="50.0" style="stroke:#999; stroke-width:3;" />
  <line x1="2022" y1="50.0" x2="2042" y2="50.0" style="stroke:#999; stroke-width:3;" />
  <rect class="anc_exon" x="2042" y="35.0" width="75" height="30" style="fill:#87bcbc;fill-opacity:1.00" />
  <line x1="2117" y1="50.0" x2="2157" y2="50.0" style="stroke:#999; stroke-width:3;" />
  <rect class="anc_exon" x="2157" y="35.0" width="108" height="30" style="fill:#87bcbc;fill-opacity:1.00" />
  <line x1="2265" y1="50.0" x2="2305" y2="50.0" style="stroke:#999; stroke-width:3;" />
  <rect class="anc_exon" x="2305" y="35.0" width="176" height="30" style="fill:#87bcbc;fill-opacity:1.00" />
  <line x1="2481" y1="50.0" x2="2501" y2="50.0" style="stroke:#999; stroke-width:3;" />
  <line x1="2501" y1="50.0" x2="2501" y2="50.0" style="stroke:#999; stroke-width:3;" />
  <line x1="2501" y1="50.0" x2="2501" y2="50.0" style="stroke:#999; stroke-width:3;" />
  <line x1="2501" y1="50.0" x2="2521" y2="50.0" style="stroke:#999; stroke-width:3;" />
  <rect class="anc_exon" x="2521" y="35.0" width="143" height="30" style="fill:#87bcbc;fill-opacity:1.00" />
  <line x1="2664" y1="50.0" x2="2684" y2="50.0" style="stroke:#999; stroke-width:3;" />
  <line x1="2684" y1="50.0" x2="2684" y2="50.0" style="stroke:#999; stroke-width:3;" />
  <line x1="2684" y1="50.0" x2="2684" y2="50.0" style="stroke:#999; stroke-width:3;" />
  <line x1="2684" y1="50.0" x2="2704" y2="50.0" style="stroke:#999; stroke-width:3;" />
  <rect class="anc_exon" x="2704" y="35.0" width="84" height="30" style="fill:#87bcbc;fill-opacity:1.00" />
  <line x1="2788" y1="50.0" x2="2828" y2="50.0" style="stroke:#999; stroke-width:3;" />
  <rect class="anc_exon" x="2828" y="35.0" width="82" height="30" style="fill:#87bcbc;fill-opacity:1.00" />
  <line x1="2910" y1="50.0" x2="2950" y2="50.0" style="stroke:#999; stroke-width:3;" />
  <rect class="anc_exon" x="2950" y="35.0" width="65" height="30" style="fill:#87bcbc;fill-opacity:1.00" />
  <line x1="3015" y1="50.0" x2="3035" y2="50.0" style="stroke:#999; stroke-width:3;" />
  <line x1="3035" y1="50.0" x2="3035" y2="50.0" style="stroke:#999; stroke-width:3;" />
  <line x1="3035" y1="50.0" x2="3035" y2="50.0" style="stroke:#999; stroke-width:3;" />
  <line x1="3035" y1="50.0" x2="3055" y2="50.0" style="stroke:#999; stroke-width:3;" />
  <rect class="anc_exon" x="3055" y="35.0" width="55" height="30" style="fill:#87bcbc;fill-opacity:1.00" />
  <line x1="3110" y1="50.0" x2="3150" y2="50.0" style="stroke:#999; stroke-width:3;" />
  <rect class="anc_exon" x="3150" y="35.0" width="91" height="30" style="fill:#87bcbc;fill-opacity:1.00" />
  <line x1="3241" y1="50.0" x2="3261" y2="50.0" style="stroke:#999; stroke-width:3;" />
  <line x1="3261" y1="50.0" x2="3261" y2="50.0" style="stroke:#999; stroke-width:3;" />
  <line x1="3261" y1="50.0" x2="3261" y2="50.0" style="stroke:#999; stroke-width:3;" />
  <line x1="3261" y1="50.0" x2="3281" y2="50.0" style="stroke:#999; stroke-width:3;" />
  <rect class="anc_exon" x="3281" y="35.0" width="168" height="30" style="fill:#87bcbc;fill-opacity:1.00" />
  <rect class="anc_exon" x="3449" y="35.0" width="0" height="30" style="fill:#87bcbc;fill-opacity:1.00" />
  <text style="" >
<tspan x="0" y="83.0" style="font-size:18px;" >SP XM_031938943_1.1</tspan>  </text>
  <text style="fill:#121212;" >
<tspan x="651.2" y="50.0" style="font-size:18px;fill:#121212;" >cc</tspan>  </text>



<script type="text/ecmascript">
<![CDATA[
function draw_bbox(text_id)
{
    var text_elem = document.getElementById(text_id);
    var offset_px = 2;
    var offset_py = 0;
    bbox = text_elem.getBBox();
    var box = document.createElementNS(document.rootElement.namespaceURI,'rect');
    box.setAttribute('x', bbox.x - offset_px);
    box.setAttribute('y', bbox.y - offset_py);
    box.setAttribute('width', bbox.width + offset_px * 2);
    box.setAttribute('height', bbox.height + offset_py * 2);
    box.setAttribute('style','fill: white;'+'stroke: black;'+'stroke-width: 1px;');
    text_elem.insertBefore(box,text_elem.childNodes[0]);

    var svg = text_elem.parentNode;
    svg.appendChild(text_elem);
}

for (var i=1; i < 1; i++)
{
draw_bbox("Mouseover" + i);
}
]]> 
</script>
</svg>
