<svg version="1.1"
xmlns="http://www.w3.org/2000/svg"
xmlns:xlink="http://www.w3.org/1999/xlink"
width="5000" height="100" viewBox = "0 0 5000 100"
onclick="mouseclick(evt)">

<script type="text/ecmascript">

<![CDATA[
    function mouseover(evt, target) { 
    var gv = document.getElementById("globalVariable");
    var previoustarget = gv.firstChild.nodeValue;
    if (previoustarget != "none") 
    {
        	document.getElementById(gv.firstChild.nodeValue).setAttributeNS(null, "visibility", "hidden");
    }
    document.getElementById(target).setAttributeNS(null, "visibility", "visible");
    gv.firstChild.nodeValue = target;
        }

    function mouseclick(evt) { 
    var gv = document.getElementById("globalVariable");
    var previoustarget = gv.firstChild.nodeValue;
    if (previoustarget != "none") {
        	document.getElementById(gv.firstChild.nodeValue).setAttributeNS(null, "visibility", "hidden");
        }
    }
]]>
  </script>
<style type="text/css" >

<![CDATA[
    rect.anc_exon {
              stroke-width:3;
                  }

    rect.non_anc_exon {
              stroke: black; stroke-width:3; stroke-dasharray: 5,5;
                    }

    text {
              font-size: 18px;
              font-family: Courier New;
          }
                    ]]>
</style>

<defs>
    <text x="150" y="40" id="globalVariable">none</text>
</defs>

  <rect class="anc_exon" x="0" y="35.0" width="0" height="30" style="fill:#87bcbc;fill-opacity:1.00" />
  <rect class="anc_exon" x="0" y="35.0" width="56.800000000000004" height="30" style="fill:#87bcbc;fill-opacity:1.00" />
  <line x1="56.800000000000004" y1="50.0" x2="75.80000000000001" y2="50.0" style="stroke:#999; stroke-width:3;" />
  <line x1="75.80000000000001" y1="50.0" x2="75.80000000000001" y2="50.0" style="stroke:#999; stroke-width:3;" />
  <line x1="75.80000000000001" y1="50.0" x2="75.80000000000001" y2="50.0" style="stroke:#999; stroke-width:3;" />
  <line x1="75.80000000000001" y1="50.0" x2="96.0" y2="50.0" style="stroke:#999; stroke-width:3;" />
  <rect class="anc_exon" x="96" y="35.0" width="47" height="30" style="fill:#87bcbc;fill-opacity:1.00" />
  <line x1="143" y1="50.0" x2="183" y2="50.0" style="stroke:#999; stroke-width:3;" />
  <rect class="anc_exon" x="183" y="35.0" width="138" height="30" style="fill:#87bcbc;fill-opacity:1.00" />
  <line x1="321" y1="50.0" x2="341" y2="50.0" style="stroke:#999; stroke-width:3;" />
  <line x1="341" y1="50.0" x2="341" y2="50.0" style="stroke:#999; stroke-width:3;" />
  <line x1="341" y1="50.0" x2="341" y2="50.0" style="stroke:#999; stroke-width:3;" />
  <line x1="341" y1="50.0" x2="361" y2="50.0" style="stroke:#999; stroke-width:3;" />
  <rect class="anc_exon" x="361" y="35.0" width="31" height="30" style="fill:#87bcbc;fill-opacity:1.00" />
  <line x1="392" y1="50.0" x2="412" y2="50.0" style="stroke:#999; stroke-width:3;" />
  <line x1="412" y1="50.0" x2="412" y2="50.0" style="stroke:#999; stroke-width:3;" />
  <line x1="412" y1="50.0" x2="412" y2="50.0" style="stroke:#999; stroke-width:3;" />
  <line x1="412" y1="50.0" x2="432" y2="50.0" style="stroke:#999; stroke-width:3;" />
  <rect class="anc_exon" x="432" y="35.0" width="184" height="30" style="fill:#87bcbc;fill-opacity:1.00" />
  <line x1="616" y1="50.0" x2="656" y2="50.0" style="stroke:#999; stroke-width:3;" />
  <rect class="anc_exon" x="656" y="35.0" width="104" height="30" style="fill:#87bcbc;fill-opacity:1.00" />
  <line x1="760" y1="50.0" x2="780" y2="50.0" style="stroke:#999; stroke-width:3;" />
  <line x1="780" y1="50.0" x2="780" y2="50.0" style="stroke:#999; stroke-width:3;" />
  <line x1="780" y1="50.0" x2="780" y2="50.0" style="stroke:#999; stroke-width:3;" />
  <line x1="780" y1="50.0" x2="800" y2="50.0" style="stroke:#999; stroke-width:3;" />
  <rect class="anc_exon" x="800" y="35.0" width="94" height="30" style="fill:#87bcbc;fill-opacity:1.00" />
  <line x1="894" y1="50.0" x2="934" y2="50.0" style="stroke:#999; stroke-width:3;" />
  <rect class="anc_exon" x="934" y="35.0" width="88" height="30" style="fill:#87bcbc;fill-opacity:1.00" />
  <line x1="1022" y1="50.0" x2="1042" y2="50.0" style="stroke:#999; stroke-width:3;" />
  <line x1="1042" y1="50.0" x2="1042" y2="50.0" style="stroke:#999; stroke-width:3;" />
  <line x1="1042" y1="50.0" x2="1042" y2="50.0" style="stroke:#999; stroke-width:3;" />
  <line x1="1042" y1="50.0" x2="1062" y2="50.0" style="stroke:#999; stroke-width:3;" />
  <rect class="anc_exon" x="1062" y="35.0" width="212" height="30" style="fill:#87bcbc;fill-opacity:1.00" />
  <line x1="1274" y1="50.0" x2="1314" y2="50.0" style="stroke:#999; stroke-width:3;" />
  <rect class="anc_exon" x="1314" y="35.0" width="79" height="30" style="fill:#87bcbc;fill-opacity:1.00" />
  <line x1="1393" y1="50.0" x2="1413" y2="50.0" style="stroke:#999; stroke-width:3;" />
  <line x1="1413" y1="50.0" x2="1413" y2="50.0" style="stroke:#999; stroke-width:3;" />
  <line x1="1413" y1="50.0" x2="1413" y2="50.0" style="stroke:#999; stroke-width:3;" />
  <line x1="1413" y1="50.0" x2="1433" y2="50.0" style="stroke:#999; stroke-width:3;" />
  <rect class="anc_exon" x="1433" y="35.0" width="132" height="30" style="fill:#87bcbc;fill-opacity:1.00" />
  <line x1="1565" y1="50.0" x2="1605" y2="50.0" style="stroke:#999; stroke-width:3;" />
  <rect class="anc_exon" x="1605" y="35.0" width="247" height="30" style="fill:#87bcbc;fill-opacity:1.00" />
  <line x1="1852" y1="50.0" x2="1892" y2="50.0" style="stroke:#999; stroke-width:3;" />
  <rect class="anc_exon" x="1892" y="35.0" width="204" height="30" style="fill:#87bcbc;fill-opacity:1.00" />
  <line x1="2096" y1="50.0" x2="2136" y2="50.0" style="stroke:#999; stroke-width:3;" />
  <rect class="anc_exon" x="2136" y="35.0" width="116" height="30" style="fill:#87bcbc;fill-opacity:1.00" />
  <line x1="2252" y1="50.0" x2="2292" y2="50.0" style="stroke:#999; stroke-width:3;" />
  <rect class="anc_exon" x="2292" y="35.0" width="203" height="30" style="fill:#87bcbc;fill-opacity:1.00" />
  <line x1="2495" y1="50.0" x2="2535" y2="50.0" style="stroke:#999; stroke-width:3;" />
  <rect class="anc_exon" x="2535" y="35.0" width="45" height="30" style="fill:#87bcbc;fill-opacity:1.00" />
  <line x1="2580" y1="50.0" x2="2620" y2="50.0" style="stroke:#999; stroke-width:3;" />
  <rect class="anc_exon" x="2620" y="35.0" width="456" height="30" style="fill:#87bcbc;fill-opacity:1.00" />
  <line x1="3076" y1="50.0" x2="3116" y2="50.0" style="stroke:#999; stroke-width:3;" />
  <rect class="anc_exon" x="3116" y="35.0" width="239" height="30" style="fill:#87bcbc;fill-opacity:1.00" />
  <line x1="3355" y1="50.0" x2="3375" y2="50.0" style="stroke:#999; stroke-width:3;" />
  <line x1="3375" y1="50.0" x2="3375" y2="50.0" style="stroke:#999; stroke-width:3;" />
  <line x1="3375" y1="50.0" x2="3375" y2="50.0" style="stroke:#999; stroke-width:3;" />
  <line x1="3375" y1="50.0" x2="3395" y2="50.0" style="stroke:#999; stroke-width:3;" />
  <rect class="anc_exon" x="3395" y="35.0" width="71" height="30" style="fill:#87bcbc;fill-opacity:1.00" />
  <line x1="3466" y1="50.0" x2="3506" y2="50.0" style="stroke:#999; stroke-width:3;" />
  <rect class="anc_exon" x="3506" y="35.0" width="100" height="30" style="fill:#87bcbc;fill-opacity:1.00" />
  <line x1="3606" y1="50.0" x2="3646" y2="50.0" style="stroke:#999; stroke-width:3;" />
  <rect class="anc_exon" x="3646" y="35.0" width="78" height="30" style="fill:#87bcbc;fill-opacity:1.00" />
  <line x1="3724" y1="50.0" x2="3764" y2="50.0" style="stroke:#999; stroke-width:3;" />
  <rect class="anc_exon" x="3764" y="35.0" width="1200" height="30" style="fill:#878787;fill-opacity:1.00" />
  <rect class="anc_exon" x="4964" y="35.0" width="0" height="30" style="fill:#87bcbc;fill-opacity:1.00" />
  <text style="" >
<tspan x="0" y="83.0" style="font-size:18px;" >SP XM_031938720_1.1</tspan>  </text>



<script type="text/ecmascript">
<![CDATA[
function draw_bbox(text_id)
{
    var text_elem = document.getElementById(text_id);
    var offset_px = 2;
    var offset_py = 0;
    bbox = text_elem.getBBox();
    var box = document.createElementNS(document.rootElement.namespaceURI,'rect');
    box.setAttribute('x', bbox.x - offset_px);
    box.setAttribute('y', bbox.y - offset_py);
    box.setAttribute('width', bbox.width + offset_px * 2);
    box.setAttribute('height', bbox.height + offset_py * 2);
    box.setAttribute('style','fill: white;'+'stroke: black;'+'stroke-width: 1px;');
    text_elem.insertBefore(box,text_elem.childNodes[0]);

    var svg = text_elem.parentNode;
    svg.appendChild(text_elem);
}

for (var i=1; i < 1; i++)
{
draw_bbox("Mouseover" + i);
}
]]> 
</script>
</svg>
