<svg version="1.1"
xmlns="http://www.w3.org/2000/svg"
xmlns:xlink="http://www.w3.org/1999/xlink"
width="2101" height="100" viewBox = "0 0 2101 100"
onclick="mouseclick(evt)">

<script type="text/ecmascript">

<![CDATA[
    function mouseover(evt, target) { 
    var gv = document.getElementById("globalVariable");
    var previoustarget = gv.firstChild.nodeValue;
    if (previoustarget != "none") 
    {
        	document.getElementById(gv.firstChild.nodeValue).setAttributeNS(null, "visibility", "hidden");
    }
    document.getElementById(target).setAttributeNS(null, "visibility", "visible");
    gv.firstChild.nodeValue = target;
        }

    function mouseclick(evt) { 
    var gv = document.getElementById("globalVariable");
    var previoustarget = gv.firstChild.nodeValue;
    if (previoustarget != "none") {
        	document.getElementById(gv.firstChild.nodeValue).setAttributeNS(null, "visibility", "hidden");
        }
    }
]]>
  </script>
<style type="text/css" >

<![CDATA[
    rect.anc_exon {
              stroke-width:3;
                  }

    rect.non_anc_exon {
              stroke: black; stroke-width:3; stroke-dasharray: 5,5;
                    }

    text {
              font-size: 18px;
              font-family: Courier New;
          }
                    ]]>
</style>

<defs>
    <text x="150" y="40" id="globalVariable">none</text>
</defs>

  <rect class="anc_exon" x="0" y="35.0" width="0" height="30" style="fill:#87bcbc;fill-opacity:1.00" />
  <rect class="anc_exon" x="0" y="35.0" width="90.4" height="30" style="fill:#87bcbc;fill-opacity:1.00" />
  <line x1="90.4" y1="50.0" x2="109.4" y2="50.0" style="stroke:#999; stroke-width:3;" />
  <line x1="109.4" y1="50.0" x2="109.4" y2="50.0" style="stroke:#999; stroke-width:3;" />
  <line x1="109.4" y1="50.0" x2="109.4" y2="50.0" style="stroke:#999; stroke-width:3;" />
  <line x1="109.4" y1="50.0" x2="130.0" y2="50.0" style="stroke:#999; stroke-width:3;" />
  <rect class="anc_exon" x="130" y="35.0" width="80" height="30" style="fill:#87bcbc;fill-opacity:1.00" />
  <line x1="210" y1="50.0" x2="250" y2="50.0" style="stroke:#999; stroke-width:3;" />
  <rect class="anc_exon" x="250" y="35.0" width="97" height="30" style="fill:#87bcbc;fill-opacity:1.00" />
  <line x1="347" y1="50.0" x2="387" y2="50.0" style="stroke:#999; stroke-width:3;" />
  <rect class="anc_exon" x="387" y="35.0" width="104" height="30" style="fill:#87bcbc;fill-opacity:1.00" />
  <line x1="491" y1="50.0" x2="531" y2="50.0" style="stroke:#999; stroke-width:3;" />
  <rect class="anc_exon" x="531" y="35.0" width="64" height="30" style="fill:#87bcbc;fill-opacity:1.00" />
  <line x1="595" y1="50.0" x2="635" y2="50.0" style="stroke:#999; stroke-width:3;" />
  <rect class="anc_exon" x="635" y="35.0" width="131" height="30" style="fill:#87bcbc;fill-opacity:1.00" />
  <line x1="766" y1="50.0" x2="806" y2="50.0" style="stroke:#999; stroke-width:3;" />
  <rect class="anc_exon" x="806" y="35.0" width="47" height="30" style="fill:#87bcbc;fill-opacity:1.00" />
  <line x1="853" y1="50.0" x2="893" y2="50.0" style="stroke:#999; stroke-width:3;" />
  <rect class="anc_exon" x="893" y="35.0" width="26" height="30" style="fill:#87bcbc;fill-opacity:1.00" />
  <line x1="919" y1="50.0" x2="959" y2="50.0" style="stroke:#999; stroke-width:3;" />
  <rect class="anc_exon" x="959" y="35.0" width="47" height="30" style="fill:#87bcbc;fill-opacity:1.00" />
  <line x1="1006" y1="50.0" x2="1046" y2="50.0" style="stroke:#999; stroke-width:3;" />
  <rect class="anc_exon" x="1046" y="35.0" width="53" height="30" style="fill:#87bcbc;fill-opacity:1.00" />
  <line x1="1099" y1="50.0" x2="1119" y2="50.0" style="stroke:#999; stroke-width:3;" />
  <line x1="1119" y1="50.0" x2="1119" y2="50.0" style="stroke:#999; stroke-width:3;" />
  <line x1="1119" y1="50.0" x2="1119" y2="50.0" style="stroke:#999; stroke-width:3;" />
  <line x1="1119" y1="50.0" x2="1139" y2="50.0" style="stroke:#999; stroke-width:3;" />
  <rect class="anc_exon" x="1139" y="35.0" width="40" height="30" style="fill:#87bcbc;fill-opacity:1.00" />
  <line x1="1179" y1="50.0" x2="1219" y2="50.0" style="stroke:#999; stroke-width:3;" />
  <rect class="anc_exon" x="1219" y="35.0" width="141" height="30" style="fill:#87bcbc;fill-opacity:1.00" />
  <line x1="1360" y1="50.0" x2="1400" y2="50.0" style="stroke:#999; stroke-width:3;" />
  <rect class="anc_exon" x="1400" y="35.0" width="105" height="30" style="fill:#87bcbc;fill-opacity:1.00" />
  <line x1="1505" y1="50.0" x2="1545" y2="50.0" style="stroke:#999; stroke-width:3;" />
  <rect class="anc_exon" x="1545" y="35.0" width="74" height="30" style="fill:#87bcbc;fill-opacity:1.00" />
  <line x1="1619" y1="50.0" x2="1659" y2="50.0" style="stroke:#999; stroke-width:3;" />
  <rect class="anc_exon" x="1659" y="35.0" width="49" height="30" style="fill:#87bcbc;fill-opacity:1.00" />
  <line x1="1708" y1="50.0" x2="1748" y2="50.0" style="stroke:#999; stroke-width:3;" />
  <rect class="anc_exon" x="1748" y="35.0" width="61" height="30" style="fill:#87bcbc;fill-opacity:1.00" />
  <line x1="1809" y1="50.0" x2="1849" y2="50.0" style="stroke:#999; stroke-width:3;" />
  <rect class="anc_exon" x="1849" y="35.0" width="51" height="30" style="fill:#87bcbc;fill-opacity:1.00" />
  <line x1="1900" y1="50.0" x2="1940" y2="50.0" style="stroke:#999; stroke-width:3;" />
  <rect class="anc_exon" x="1940" y="35.0" width="125" height="30" style="fill:#87bcbc;fill-opacity:1.00" />
  <rect class="anc_exon" x="2065" y="35.0" width="0" height="30" style="fill:#87bcbc;fill-opacity:1.00" />
  <text style="" >
<tspan x="0" y="83.0" style="font-size:18px;" >SP XM_012550456_3.1</tspan>  </text>



<script type="text/ecmascript">
<![CDATA[
function draw_bbox(text_id)
{
    var text_elem = document.getElementById(text_id);
    var offset_px = 2;
    var offset_py = 0;
    bbox = text_elem.getBBox();
    var box = document.createElementNS(document.rootElement.namespaceURI,'rect');
    box.setAttribute('x', bbox.x - offset_px);
    box.setAttribute('y', bbox.y - offset_py);
    box.setAttribute('width', bbox.width + offset_px * 2);
    box.setAttribute('height', bbox.height + offset_py * 2);
    box.setAttribute('style','fill: white;'+'stroke: black;'+'stroke-width: 1px;');
    text_elem.insertBefore(box,text_elem.childNodes[0]);

    var svg = text_elem.parentNode;
    svg.appendChild(text_elem);
}

for (var i=1; i < 1; i++)
{
draw_bbox("Mouseover" + i);
}
]]> 
</script>
</svg>
