<svg version="1.1"
xmlns="http://www.w3.org/2000/svg"
xmlns:xlink="http://www.w3.org/1999/xlink"
width="2343" height="100" viewBox = "0 0 2343 100"
onclick="mouseclick(evt)">

<script type="text/ecmascript">

<![CDATA[
    function mouseover(evt, target) { 
    var gv = document.getElementById("globalVariable");
    var previoustarget = gv.firstChild.nodeValue;
    if (previoustarget != "none") 
    {
        	document.getElementById(gv.firstChild.nodeValue).setAttributeNS(null, "visibility", "hidden");
    }
    document.getElementById(target).setAttributeNS(null, "visibility", "visible");
    gv.firstChild.nodeValue = target;
        }

    function mouseclick(evt) { 
    var gv = document.getElementById("globalVariable");
    var previoustarget = gv.firstChild.nodeValue;
    if (previoustarget != "none") {
        	document.getElementById(gv.firstChild.nodeValue).setAttributeNS(null, "visibility", "hidden");
        }
    }
]]>
  </script>
<style type="text/css" >

<![CDATA[
    rect.anc_exon {
              stroke-width:3;
                  }

    rect.non_anc_exon {
              stroke: black; stroke-width:3; stroke-dasharray: 5,5;
                    }

    text {
              font-size: 18px;
              font-family: Courier New;
          }
                    ]]>
</style>

<defs>
    <text x="150" y="40" id="globalVariable">none</text>
</defs>

  <rect class="anc_exon" x="0" y="35.0" width="0" height="30" style="fill:#87bcbc;fill-opacity:1.00" />
  <rect class="anc_exon" x="0" y="35.0" width="102.4" height="30" style="fill:#87bcbc;fill-opacity:1.00" />
  <line x1="102.4" y1="50.0" x2="121.4" y2="50.0" style="stroke:#999; stroke-width:3;" />
  <line x1="121.4" y1="50.0" x2="121.4" y2="50.0" style="stroke:#999; stroke-width:3;" />
  <line x1="121.4" y1="50.0" x2="121.4" y2="50.0" style="stroke:#999; stroke-width:3;" />
  <line x1="121.4" y1="50.0" x2="142.0" y2="50.0" style="stroke:#999; stroke-width:3;" />
  <rect class="anc_exon" x="142" y="35.0" width="78" height="30" style="fill:#87bcbc;fill-opacity:1.00" />
  <line x1="220" y1="50.0" x2="260" y2="50.0" style="stroke:#999; stroke-width:3;" />
  <rect class="anc_exon" x="260" y="35.0" width="98" height="30" style="fill:#87bcbc;fill-opacity:1.00" />
  <line x1="358" y1="50.0" x2="398" y2="50.0" style="stroke:#999; stroke-width:3;" />
  <rect class="anc_exon" x="398" y="35.0" width="105" height="30" style="fill:#87bcbc;fill-opacity:1.00" />
  <line x1="503" y1="50.0" x2="543" y2="50.0" style="stroke:#999; stroke-width:3;" />
  <rect class="anc_exon" x="543" y="35.0" width="79" height="30" style="fill:#87bcbc;fill-opacity:1.00" />
  <line x1="622" y1="50.0" x2="662" y2="50.0" style="stroke:#999; stroke-width:3;" />
  <rect class="anc_exon" x="662" y="35.0" width="140" height="30" style="fill:#87bcbc;fill-opacity:1.00" />
  <line x1="802" y1="50.0" x2="842" y2="50.0" style="stroke:#999; stroke-width:3;" />
  <rect class="anc_exon" x="842" y="35.0" width="117" height="30" style="fill:#87bcbc;fill-opacity:1.00" />
  <line x1="959" y1="50.0" x2="979" y2="50.0" style="stroke:#999; stroke-width:3;" />
  <line x1="979" y1="50.0" x2="979" y2="50.0" style="stroke:#999; stroke-width:3;" />
  <line x1="979" y1="50.0" x2="979" y2="50.0" style="stroke:#999; stroke-width:3;" />
  <line x1="979" y1="50.0" x2="999" y2="50.0" style="stroke:#999; stroke-width:3;" />
  <rect class="anc_exon" x="999" y="35.0" width="170" height="30" style="fill:#87bcbc;fill-opacity:1.00" />
  <line x1="1169" y1="50.0" x2="1189" y2="50.0" style="stroke:#999; stroke-width:3;" />
  <line x1="1189" y1="50.0" x2="1189" y2="50.0" style="stroke:#999; stroke-width:3;" />
  <line x1="1189" y1="50.0" x2="1189" y2="50.0" style="stroke:#999; stroke-width:3;" />
  <line x1="1189" y1="50.0" x2="1209" y2="50.0" style="stroke:#999; stroke-width:3;" />
  <rect class="anc_exon" x="1209" y="35.0" width="69" height="30" style="fill:#87bcbc;fill-opacity:1.00" />
  <line x1="1278" y1="50.0" x2="1318" y2="50.0" style="stroke:#999; stroke-width:3;" />
  <rect class="anc_exon" x="1318" y="35.0" width="61" height="30" style="fill:#87bcbc;fill-opacity:1.00" />
  <line x1="1379" y1="50.0" x2="1419" y2="50.0" style="stroke:#999; stroke-width:3;" />
  <rect class="anc_exon" x="1419" y="35.0" width="132" height="30" style="fill:#87bcbc;fill-opacity:1.00" />
  <line x1="1551" y1="50.0" x2="1591" y2="50.0" style="stroke:#999; stroke-width:3;" />
  <rect class="anc_exon" x="1591" y="35.0" width="53" height="30" style="fill:#87bcbc;fill-opacity:1.00" />
  <line x1="1644" y1="50.0" x2="1684" y2="50.0" style="stroke:#999; stroke-width:3;" />
  <rect class="anc_exon" x="1684" y="35.0" width="215" height="30" style="fill:#87bcbc;fill-opacity:1.00" />
  <line x1="1899" y1="50.0" x2="1919" y2="50.0" style="stroke:#999; stroke-width:3;" />
  <line x1="1919" y1="50.0" x2="1919" y2="50.0" style="stroke:#999; stroke-width:3;" />
  <line x1="1919" y1="50.0" x2="1919" y2="50.0" style="stroke:#999; stroke-width:3;" />
  <line x1="1919" y1="50.0" x2="1939" y2="50.0" style="stroke:#999; stroke-width:3;" />
  <rect class="anc_exon" x="1939" y="35.0" width="85" height="30" style="fill:#87bcbc;fill-opacity:1.00" />
  <line x1="2024" y1="50.0" x2="2064" y2="50.0" style="stroke:#999; stroke-width:3;" />
  <rect class="anc_exon" x="2064" y="35.0" width="243" height="30" style="fill:#87bcbc;fill-opacity:1.00" />
  <rect class="anc_exon" x="2307" y="35.0" width="0" height="30" style="fill:#87bcbc;fill-opacity:1.00" />
  <text style="" >
<tspan x="0" y="83.0" style="font-size:18px;" >SP XM_031939244_1.1</tspan>  </text>



<script type="text/ecmascript">
<![CDATA[
function draw_bbox(text_id)
{
    var text_elem = document.getElementById(text_id);
    var offset_px = 2;
    var offset_py = 0;
    bbox = text_elem.getBBox();
    var box = document.createElementNS(document.rootElement.namespaceURI,'rect');
    box.setAttribute('x', bbox.x - offset_px);
    box.setAttribute('y', bbox.y - offset_py);
    box.setAttribute('width', bbox.width + offset_px * 2);
    box.setAttribute('height', bbox.height + offset_py * 2);
    box.setAttribute('style','fill: white;'+'stroke: black;'+'stroke-width: 1px;');
    text_elem.insertBefore(box,text_elem.childNodes[0]);

    var svg = text_elem.parentNode;
    svg.appendChild(text_elem);
}

for (var i=1; i < 1; i++)
{
draw_bbox("Mouseover" + i);
}
]]> 
</script>
</svg>
