<svg version="1.1"
xmlns="http://www.w3.org/2000/svg"
xmlns:xlink="http://www.w3.org/1999/xlink"
width="1953" height="100" viewBox = "0 0 1953 100"
onclick="mouseclick(evt)">

<script type="text/ecmascript">

<![CDATA[
    function mouseover(evt, target) { 
    var gv = document.getElementById("globalVariable");
    var previoustarget = gv.firstChild.nodeValue;
    if (previoustarget != "none") 
    {
        	document.getElementById(gv.firstChild.nodeValue).setAttributeNS(null, "visibility", "hidden");
    }
    document.getElementById(target).setAttributeNS(null, "visibility", "visible");
    gv.firstChild.nodeValue = target;
        }

    function mouseclick(evt) { 
    var gv = document.getElementById("globalVariable");
    var previoustarget = gv.firstChild.nodeValue;
    if (previoustarget != "none") {
        	document.getElementById(gv.firstChild.nodeValue).setAttributeNS(null, "visibility", "hidden");
        }
    }
]]>
  </script>
<style type="text/css" >

<![CDATA[
    rect.anc_exon {
              stroke-width:3;
                  }

    rect.non_anc_exon {
              stroke: black; stroke-width:3; stroke-dasharray: 5,5;
                    }

    text {
              font-size: 18px;
              font-family: Courier New;
          }
                    ]]>
</style>

<defs>
    <text x="150" y="40" id="globalVariable">none</text>
</defs>

  <rect class="anc_exon" x="0" y="35.0" width="0" height="30" style="fill:#87bcbc;fill-opacity:1.00" />
  <rect class="anc_exon" x="0" y="35.0" width="28.8" height="30" style="fill:#87bcbc;fill-opacity:1.00" />
  <line x1="28.8" y1="50.0" x2="47.8" y2="50.0" style="stroke:#999; stroke-width:3;" />
  <line x1="47.8" y1="50.0" x2="47.8" y2="50.0" style="stroke:#999; stroke-width:3;" />
  <line x1="47.8" y1="50.0" x2="47.8" y2="50.0" style="stroke:#999; stroke-width:3;" />
  <line x1="47.8" y1="50.0" x2="68.0" y2="50.0" style="stroke:#999; stroke-width:3;" />
  <rect class="anc_exon" x="68" y="35.0" width="108" height="30" style="fill:#87bcbc;fill-opacity:1.00" />
  <line x1="176" y1="50.0" x2="196" y2="50.0" style="stroke:#999; stroke-width:3;" />
  <line x1="196" y1="50.0" x2="196" y2="50.0" style="stroke:#999; stroke-width:3;" />
  <line x1="196" y1="50.0" x2="196" y2="50.0" style="stroke:#999; stroke-width:3;" />
  <line x1="196" y1="50.0" x2="216" y2="50.0" style="stroke:#999; stroke-width:3;" />
  <rect class="anc_exon" x="216" y="35.0" width="69" height="30" style="fill:#87bcbc;fill-opacity:1.00" />
  <line x1="285" y1="50.0" x2="305" y2="50.0" style="stroke:#999; stroke-width:3;" />
  <line x1="305" y1="50.0" x2="305" y2="50.0" style="stroke:#999; stroke-width:3;" />
  <line x1="305" y1="50.0" x2="305" y2="50.0" style="stroke:#999; stroke-width:3;" />
  <line x1="305" y1="50.0" x2="325" y2="50.0" style="stroke:#999; stroke-width:3;" />
  <rect class="anc_exon" x="325" y="35.0" width="140" height="30" style="fill:#87bcbc;fill-opacity:1.00" />
  <line x1="465" y1="50.0" x2="505" y2="50.0" style="stroke:#999; stroke-width:3;" />
  <rect class="anc_exon" x="505" y="35.0" width="220" height="30" style="fill:#87bcbc;fill-opacity:1.00" />
  <line x1="725" y1="50.0" x2="745" y2="50.0" style="stroke:#999; stroke-width:3;" />
  <line x1="745" y1="50.0" x2="745" y2="50.0" style="stroke:#999; stroke-width:3;" />
  <line x1="745" y1="50.0" x2="745" y2="50.0" style="stroke:#999; stroke-width:3;" />
  <line x1="745" y1="50.0" x2="765" y2="50.0" style="stroke:#999; stroke-width:3;" />
  <rect class="anc_exon" x="765" y="35.0" width="110" height="30" style="fill:#87bcbc;fill-opacity:1.00" />
  <line x1="875" y1="50.0" x2="895" y2="50.0" style="stroke:#999; stroke-width:3;" />
  <line x1="895" y1="50.0" x2="895" y2="50.0" style="stroke:#999; stroke-width:3;" />
  <line x1="895" y1="50.0" x2="895" y2="50.0" style="stroke:#999; stroke-width:3;" />
  <line x1="895" y1="50.0" x2="915" y2="50.0" style="stroke:#999; stroke-width:3;" />
  <rect class="anc_exon" x="915" y="35.0" width="118" height="30" style="fill:#87bcbc;fill-opacity:1.00" />
  <line x1="1033" y1="50.0" x2="1053" y2="50.0" style="stroke:#999; stroke-width:3;" />
  <line x1="1053" y1="50.0" x2="1053" y2="50.0" style="stroke:#999; stroke-width:3;" />
  <line x1="1053" y1="50.0" x2="1053" y2="50.0" style="stroke:#999; stroke-width:3;" />
  <line x1="1053" y1="50.0" x2="1073" y2="50.0" style="stroke:#999; stroke-width:3;" />
  <rect class="anc_exon" x="1073" y="35.0" width="265" height="30" style="fill:#87bcbc;fill-opacity:1.00" />
  <line x1="1338" y1="50.0" x2="1358" y2="50.0" style="stroke:#999; stroke-width:3;" />
  <line x1="1358" y1="50.0" x2="1358" y2="50.0" style="stroke:#999; stroke-width:3;" />
  <line x1="1358" y1="50.0" x2="1358" y2="50.0" style="stroke:#999; stroke-width:3;" />
  <line x1="1358" y1="50.0" x2="1378" y2="50.0" style="stroke:#999; stroke-width:3;" />
  <rect class="anc_exon" x="1378" y="35.0" width="155" height="30" style="fill:#87bcbc;fill-opacity:1.00" />
  <line x1="1533" y1="50.0" x2="1553" y2="50.0" style="stroke:#999; stroke-width:3;" />
  <line x1="1553" y1="50.0" x2="1553" y2="50.0" style="stroke:#999; stroke-width:3;" />
  <line x1="1553" y1="50.0" x2="1553" y2="50.0" style="stroke:#999; stroke-width:3;" />
  <line x1="1553" y1="50.0" x2="1573" y2="50.0" style="stroke:#999; stroke-width:3;" />
  <rect class="anc_exon" x="1573" y="35.0" width="80" height="30" style="fill:#87bcbc;fill-opacity:1.00" />
  <line x1="1653" y1="50.0" x2="1693" y2="50.0" style="stroke:#999; stroke-width:3;" />
  <rect class="anc_exon" x="1693" y="35.0" width="166" height="30" style="fill:#87bcbc;fill-opacity:1.00" />
  <line x1="1859" y1="50.0" x2="1879" y2="50.0" style="stroke:#999; stroke-width:3;" />
  <line x1="1879" y1="50.0" x2="1879" y2="50.0" style="stroke:#999; stroke-width:3;" />
  <line x1="1879" y1="50.0" x2="1879" y2="50.0" style="stroke:#999; stroke-width:3;" />
  <line x1="1879" y1="50.0" x2="1899" y2="50.0" style="stroke:#999; stroke-width:3;" />
  <rect class="anc_exon" x="1899" y="35.0" width="18" height="30" style="fill:#87bcbc;fill-opacity:1.00" />
  <rect class="anc_exon" x="1917" y="35.0" width="0" height="30" style="fill:#87bcbc;fill-opacity:1.00" />
  <text style="" >
<tspan x="0" y="83.0" style="font-size:18px;" >SP XM_031940816_1.1</tspan>  </text>
  <text style="fill:#121212;" >
<tspan x="875" y="50.0" style="font-size:18px;fill:#121212;" >at</tspan>  </text>
  <text style="fill:#121212;" >
<tspan x="891.96" y="68.0" style="font-size:18px;fill:#121212;" >ac</tspan>  </text>



<script type="text/ecmascript">
<![CDATA[
function draw_bbox(text_id)
{
    var text_elem = document.getElementById(text_id);
    var offset_px = 2;
    var offset_py = 0;
    bbox = text_elem.getBBox();
    var box = document.createElementNS(document.rootElement.namespaceURI,'rect');
    box.setAttribute('x', bbox.x - offset_px);
    box.setAttribute('y', bbox.y - offset_py);
    box.setAttribute('width', bbox.width + offset_px * 2);
    box.setAttribute('height', bbox.height + offset_py * 2);
    box.setAttribute('style','fill: white;'+'stroke: black;'+'stroke-width: 1px;');
    text_elem.insertBefore(box,text_elem.childNodes[0]);

    var svg = text_elem.parentNode;
    svg.appendChild(text_elem);
}

for (var i=1; i < 1; i++)
{
draw_bbox("Mouseover" + i);
}
]]> 
</script>
</svg>
