<svg version="1.1"
xmlns="http://www.w3.org/2000/svg"
xmlns:xlink="http://www.w3.org/1999/xlink"
width="6051" height="100" viewBox = "0 0 6051 100"
onclick="mouseclick(evt)">

<script type="text/ecmascript">

<![CDATA[
    function mouseover(evt, target) { 
    var gv = document.getElementById("globalVariable");
    var previoustarget = gv.firstChild.nodeValue;
    if (previoustarget != "none") 
    {
        	document.getElementById(gv.firstChild.nodeValue).setAttributeNS(null, "visibility", "hidden");
    }
    document.getElementById(target).setAttributeNS(null, "visibility", "visible");
    gv.firstChild.nodeValue = target;
        }

    function mouseclick(evt) { 
    var gv = document.getElementById("globalVariable");
    var previoustarget = gv.firstChild.nodeValue;
    if (previoustarget != "none") {
        	document.getElementById(gv.firstChild.nodeValue).setAttributeNS(null, "visibility", "hidden");
        }
    }
]]>
  </script>
<style type="text/css" >

<![CDATA[
    rect.anc_exon {
              stroke-width:3;
                  }

    rect.non_anc_exon {
              stroke: black; stroke-width:3; stroke-dasharray: 5,5;
                    }

    text {
              font-size: 18px;
              font-family: Courier New;
          }
                    ]]>
</style>

<defs>
    <text x="150" y="40" id="globalVariable">none</text>
</defs>

  <rect class="anc_exon" x="0" y="35.0" width="0" height="30" style="fill:#87bcbc;fill-opacity:1.00" />
  <rect class="anc_exon" x="0" y="35.0" width="124.80000000000001" height="30" style="fill:#87bcbc;fill-opacity:1.00" />
  <line x1="124.80000000000001" y1="50.0" x2="143.8" y2="50.0" style="stroke:#999; stroke-width:3;" />
  <line x1="143.8" y1="50.0" x2="143.8" y2="50.0" style="stroke:#999; stroke-width:3;" />
  <line x1="143.8" y1="50.0" x2="143.8" y2="50.0" style="stroke:#999; stroke-width:3;" />
  <line x1="143.8" y1="50.0" x2="164.0" y2="50.0" style="stroke:#999; stroke-width:3;" />
  <rect class="anc_exon" x="164" y="35.0" width="183" height="30" style="fill:#87bcbc;fill-opacity:1.00" />
  <line x1="347" y1="50.0" x2="387" y2="50.0" style="stroke:#999; stroke-width:3;" />
  <rect class="anc_exon" x="387" y="35.0" width="141" height="30" style="fill:#87bcbc;fill-opacity:1.00" />
  <line x1="528" y1="50.0" x2="568" y2="50.0" style="stroke:#999; stroke-width:3;" />
  <rect class="anc_exon" x="568" y="35.0" width="2142" height="30" style="fill:#87bcbc;fill-opacity:1.00" />
  <line x1="2710" y1="50.0" x2="2730" y2="50.0" style="stroke:#999; stroke-width:3;" />
  <line x1="2730" y1="50.0" x2="2730" y2="50.0" style="stroke:#999; stroke-width:3;" />
  <line x1="2730" y1="50.0" x2="2730" y2="50.0" style="stroke:#999; stroke-width:3;" />
  <line x1="2730" y1="50.0" x2="2750" y2="50.0" style="stroke:#999; stroke-width:3;" />
  <rect class="anc_exon" x="2750" y="35.0" width="276" height="30" style="fill:#cf232b;fill-opacity:1.00" />
  <line x1="3026" y1="50.0" x2="3066" y2="50.0" style="stroke:#999; stroke-width:3;" />
  <rect class="anc_exon" x="3066" y="35.0" width="287" height="30" style="fill:#cf232b;fill-opacity:1.00" />
  <line x1="3353" y1="50.0" x2="3393" y2="50.0" style="stroke:#999; stroke-width:3;" />
  <rect class="anc_exon" x="3393" y="35.0" width="2063" height="30" style="fill:#878787;fill-opacity:1.00" />
  <line x1="5456" y1="50.0" x2="5476" y2="50.0" style="stroke:#999; stroke-width:3;" />
  <line x1="5476" y1="50.0" x2="5476" y2="50.0" style="stroke:#999; stroke-width:3;" />
  <line x1="5476" y1="50.0" x2="5476" y2="50.0" style="stroke:#999; stroke-width:3;" />
  <line x1="5476" y1="50.0" x2="5496" y2="50.0" style="stroke:#999; stroke-width:3;" />
  <rect class="anc_exon" x="5496" y="35.0" width="154" height="30" style="fill:#87bcbc;fill-opacity:1.00" />
  <line x1="5650" y1="50.0" x2="5670" y2="50.0" style="stroke:#999; stroke-width:3;" />
  <line x1="5670" y1="50.0" x2="5670" y2="50.0" style="stroke:#999; stroke-width:3;" />
  <line x1="5670" y1="50.0" x2="5670" y2="50.0" style="stroke:#999; stroke-width:3;" />
  <line x1="5670" y1="50.0" x2="5690" y2="50.0" style="stroke:#999; stroke-width:3;" />
  <rect class="anc_exon" x="5690" y="35.0" width="133" height="30" style="fill:#87bcbc;fill-opacity:1.00" />
  <line x1="5823" y1="50.0" x2="5863" y2="50.0" style="stroke:#999; stroke-width:3;" />
  <rect class="anc_exon" x="5863" y="35.0" width="152" height="30" style="fill:#87bcbc;fill-opacity:1.00" />
  <rect class="anc_exon" x="6015" y="35.0" width="0" height="30" style="fill:#87bcbc;fill-opacity:1.00" />
  <text style="" >
<tspan x="0" y="83.0" style="font-size:18px;" >SP XM_031937913_1.1</tspan>  </text>
  <text style="fill:#121212;" >
<tspan x="2710" y="50.0" style="font-size:18px;fill:#121212;" >at</tspan>  </text>



<script type="text/ecmascript">
<![CDATA[
function draw_bbox(text_id)
{
    var text_elem = document.getElementById(text_id);
    var offset_px = 2;
    var offset_py = 0;
    bbox = text_elem.getBBox();
    var box = document.createElementNS(document.rootElement.namespaceURI,'rect');
    box.setAttribute('x', bbox.x - offset_px);
    box.setAttribute('y', bbox.y - offset_py);
    box.setAttribute('width', bbox.width + offset_px * 2);
    box.setAttribute('height', bbox.height + offset_py * 2);
    box.setAttribute('style','fill: white;'+'stroke: black;'+'stroke-width: 1px;');
    text_elem.insertBefore(box,text_elem.childNodes[0]);

    var svg = text_elem.parentNode;
    svg.appendChild(text_elem);
}

for (var i=1; i < 1; i++)
{
draw_bbox("Mouseover" + i);
}
]]> 
</script>
</svg>
