<svg version="1.1"
xmlns="http://www.w3.org/2000/svg"
xmlns:xlink="http://www.w3.org/1999/xlink"
width="5109" height="100" viewBox = "0 0 5109 100"
onclick="mouseclick(evt)">

<script type="text/ecmascript">

<![CDATA[
    function mouseover(evt, target) { 
    var gv = document.getElementById("globalVariable");
    var previoustarget = gv.firstChild.nodeValue;
    if (previoustarget != "none") 
    {
        	document.getElementById(gv.firstChild.nodeValue).setAttributeNS(null, "visibility", "hidden");
    }
    document.getElementById(target).setAttributeNS(null, "visibility", "visible");
    gv.firstChild.nodeValue = target;
        }

    function mouseclick(evt) { 
    var gv = document.getElementById("globalVariable");
    var previoustarget = gv.firstChild.nodeValue;
    if (previoustarget != "none") {
        	document.getElementById(gv.firstChild.nodeValue).setAttributeNS(null, "visibility", "hidden");
        }
    }
]]>
  </script>
<style type="text/css" >

<![CDATA[
    rect.anc_exon {
              stroke-width:3;
                  }

    rect.non_anc_exon {
              stroke: black; stroke-width:3; stroke-dasharray: 5,5;
                    }

    text {
              font-size: 18px;
              font-family: Courier New;
          }
                    ]]>
</style>

<defs>
    <text x="150" y="40" id="globalVariable">none</text>
</defs>

  <rect class="anc_exon" x="0" y="35.0" width="0" height="30" style="fill:#87bcbc;fill-opacity:1.00" />
  <rect class="anc_exon" x="0" y="35.0" width="130.4" height="30" style="fill:#87bcbc;fill-opacity:1.00" />
  <line x1="130.4" y1="50.0" x2="149.4" y2="50.0" style="stroke:#999; stroke-width:3;" />
  <line x1="149.4" y1="50.0" x2="149.4" y2="50.0" style="stroke:#999; stroke-width:3;" />
  <line x1="149.4" y1="50.0" x2="149.4" y2="50.0" style="stroke:#999; stroke-width:3;" />
  <line x1="149.4" y1="50.0" x2="170.0" y2="50.0" style="stroke:#999; stroke-width:3;" />
  <rect class="anc_exon" x="170" y="35.0" width="159" height="30" style="fill:#87bcbc;fill-opacity:1.00" />
  <line x1="329" y1="50.0" x2="349" y2="50.0" style="stroke:#999; stroke-width:3;" />
  <line x1="349" y1="50.0" x2="349" y2="50.0" style="stroke:#999; stroke-width:3;" />
  <line x1="349" y1="50.0" x2="349" y2="50.0" style="stroke:#999; stroke-width:3;" />
  <line x1="349" y1="50.0" x2="369" y2="50.0" style="stroke:#999; stroke-width:3;" />
  <rect class="anc_exon" x="369" y="35.0" width="75" height="30" style="fill:#87bcbc;fill-opacity:1.00" />
  <line x1="444" y1="50.0" x2="464" y2="50.0" style="stroke:#999; stroke-width:3;" />
  <line x1="464" y1="50.0" x2="464" y2="50.0" style="stroke:#999; stroke-width:3;" />
  <line x1="464" y1="50.0" x2="464" y2="50.0" style="stroke:#999; stroke-width:3;" />
  <line x1="464" y1="50.0" x2="484" y2="50.0" style="stroke:#999; stroke-width:3;" />
  <rect class="anc_exon" x="484" y="35.0" width="659" height="30" style="fill:#87bcbc;fill-opacity:1.00" />
  <line x1="1143" y1="50.0" x2="1163" y2="50.0" style="stroke:#999; stroke-width:3;" />
  <line x1="1163" y1="50.0" x2="1163" y2="50.0" style="stroke:#999; stroke-width:3;" />
  <line x1="1163" y1="50.0" x2="1163" y2="50.0" style="stroke:#999; stroke-width:3;" />
  <line x1="1163" y1="50.0" x2="1183" y2="50.0" style="stroke:#999; stroke-width:3;" />
  <rect class="anc_exon" x="1183" y="35.0" width="84" height="30" style="fill:#87bcbc;fill-opacity:1.00" />
  <line x1="1267" y1="50.0" x2="1307" y2="50.0" style="stroke:#999; stroke-width:3;" />
  <rect class="anc_exon" x="1307" y="35.0" width="40" height="30" style="fill:#87bcbc;fill-opacity:1.00" />
  <line x1="1347" y1="50.0" x2="1367" y2="50.0" style="stroke:#999; stroke-width:3;" />
  <line x1="1367" y1="50.0" x2="1367" y2="50.0" style="stroke:#999; stroke-width:3;" />
  <line x1="1367" y1="50.0" x2="1367" y2="50.0" style="stroke:#999; stroke-width:3;" />
  <line x1="1367" y1="50.0" x2="1387" y2="50.0" style="stroke:#999; stroke-width:3;" />
  <rect class="anc_exon" x="1387" y="35.0" width="128" height="30" style="fill:#87bcbc;fill-opacity:1.00" />
  <line x1="1515" y1="50.0" x2="1535" y2="50.0" style="stroke:#999; stroke-width:3;" />
  <line x1="1535" y1="50.0" x2="1535" y2="50.0" style="stroke:#999; stroke-width:3;" />
  <line x1="1535" y1="50.0" x2="1535" y2="50.0" style="stroke:#999; stroke-width:3;" />
  <line x1="1535" y1="50.0" x2="1555" y2="50.0" style="stroke:#999; stroke-width:3;" />
  <rect class="anc_exon" x="1555" y="35.0" width="140" height="30" style="fill:#87bcbc;fill-opacity:1.00" />
  <line x1="1695" y1="50.0" x2="1715" y2="50.0" style="stroke:#999; stroke-width:3;" />
  <line x1="1715" y1="50.0" x2="1715" y2="50.0" style="stroke:#999; stroke-width:3;" />
  <line x1="1715" y1="50.0" x2="1715" y2="50.0" style="stroke:#999; stroke-width:3;" />
  <line x1="1715" y1="50.0" x2="1735" y2="50.0" style="stroke:#999; stroke-width:3;" />
  <rect class="anc_exon" x="1735" y="35.0" width="104" height="30" style="fill:#87bcbc;fill-opacity:1.00" />
  <line x1="1839" y1="50.0" x2="1879" y2="50.0" style="stroke:#999; stroke-width:3;" />
  <rect class="anc_exon" x="1879" y="35.0" width="118" height="30" style="fill:#87bcbc;fill-opacity:1.00" />
  <line x1="1997" y1="50.0" x2="2017" y2="50.0" style="stroke:#999; stroke-width:3;" />
  <line x1="2017" y1="50.0" x2="2017" y2="50.0" style="stroke:#999; stroke-width:3;" />
  <line x1="2017" y1="50.0" x2="2017" y2="50.0" style="stroke:#999; stroke-width:3;" />
  <line x1="2017" y1="50.0" x2="2037" y2="50.0" style="stroke:#999; stroke-width:3;" />
  <rect class="anc_exon" x="2037" y="35.0" width="372" height="30" style="fill:#878787;fill-opacity:1.00" />
  <line x1="2409" y1="50.0" x2="2429" y2="50.0" style="stroke:#999; stroke-width:3;" />
  <line x1="2429" y1="50.0" x2="2429" y2="50.0" style="stroke:#999; stroke-width:3;" />
  <line x1="2429" y1="50.0" x2="2429" y2="50.0" style="stroke:#999; stroke-width:3;" />
  <line x1="2429" y1="50.0" x2="2449" y2="50.0" style="stroke:#999; stroke-width:3;" />
  <rect class="anc_exon" x="2449" y="35.0" width="147" height="30" style="fill:#87bcbc;fill-opacity:1.00" />
  <line x1="2596" y1="50.0" x2="2616" y2="50.0" style="stroke:#999; stroke-width:3;" />
  <line x1="2616" y1="50.0" x2="2616" y2="50.0" style="stroke:#999; stroke-width:3;" />
  <line x1="2616" y1="50.0" x2="2616" y2="50.0" style="stroke:#999; stroke-width:3;" />
  <line x1="2616" y1="50.0" x2="2636" y2="50.0" style="stroke:#999; stroke-width:3;" />
  <rect class="anc_exon" x="2636" y="35.0" width="131" height="30" style="fill:#87bcbc;fill-opacity:1.00" />
  <line x1="2767" y1="50.0" x2="2807" y2="50.0" style="stroke:#999; stroke-width:3;" />
  <rect class="anc_exon" x="2807" y="35.0" width="129" height="30" style="fill:#87bcbc;fill-opacity:1.00" />
  <line x1="2936" y1="50.0" x2="2956" y2="50.0" style="stroke:#999; stroke-width:3;" />
  <line x1="2956" y1="50.0" x2="2956" y2="50.0" style="stroke:#999; stroke-width:3;" />
  <line x1="2956" y1="50.0" x2="2956" y2="50.0" style="stroke:#999; stroke-width:3;" />
  <line x1="2956" y1="50.0" x2="2976" y2="50.0" style="stroke:#999; stroke-width:3;" />
  <rect class="anc_exon" x="2976" y="35.0" width="96" height="30" style="fill:#87bcbc;fill-opacity:1.00" />
  <line x1="3072" y1="50.0" x2="3092" y2="50.0" style="stroke:#999; stroke-width:3;" />
  <line x1="3092" y1="50.0" x2="3092" y2="50.0" style="stroke:#999; stroke-width:3;" />
  <line x1="3092" y1="50.0" x2="3092" y2="50.0" style="stroke:#999; stroke-width:3;" />
  <line x1="3092" y1="50.0" x2="3112" y2="50.0" style="stroke:#999; stroke-width:3;" />
  <rect class="anc_exon" x="3112" y="35.0" width="62" height="30" style="fill:#87bcbc;fill-opacity:1.00" />
  <line x1="3174" y1="50.0" x2="3214" y2="50.0" style="stroke:#999; stroke-width:3;" />
  <rect class="anc_exon" x="3214" y="35.0" width="1281" height="30" style="fill:#87bcbc;fill-opacity:1.00" />
  <line x1="4495" y1="50.0" x2="4535" y2="50.0" style="stroke:#999; stroke-width:3;" />
  <rect class="anc_exon" x="4535" y="35.0" width="98" height="30" style="fill:#87bcbc;fill-opacity:1.00" />
  <line x1="4633" y1="50.0" x2="4673" y2="50.0" style="stroke:#999; stroke-width:3;" />
  <rect class="anc_exon" x="4673" y="35.0" width="400" height="30" style="fill:#87bcbc;fill-opacity:1.00" />
  <rect class="anc_exon" x="5073" y="35.0" width="0" height="30" style="fill:#87bcbc;fill-opacity:1.00" />
  <text style="" >
<tspan x="0" y="83.0" style="font-size:18px;" >SP XM_031937972_1.1</tspan>  </text>



<script type="text/ecmascript">
<![CDATA[
function draw_bbox(text_id)
{
    var text_elem = document.getElementById(text_id);
    var offset_px = 2;
    var offset_py = 0;
    bbox = text_elem.getBBox();
    var box = document.createElementNS(document.rootElement.namespaceURI,'rect');
    box.setAttribute('x', bbox.x - offset_px);
    box.setAttribute('y', bbox.y - offset_py);
    box.setAttribute('width', bbox.width + offset_px * 2);
    box.setAttribute('height', bbox.height + offset_py * 2);
    box.setAttribute('style','fill: white;'+'stroke: black;'+'stroke-width: 1px;');
    text_elem.insertBefore(box,text_elem.childNodes[0]);

    var svg = text_elem.parentNode;
    svg.appendChild(text_elem);
}

for (var i=1; i < 1; i++)
{
draw_bbox("Mouseover" + i);
}
]]> 
</script>
</svg>
