<svg version="1.1"
xmlns="http://www.w3.org/2000/svg"
xmlns:xlink="http://www.w3.org/1999/xlink"
width="3881" height="100" viewBox = "0 0 3881 100"
onclick="mouseclick(evt)">

<script type="text/ecmascript">

<![CDATA[
    function mouseover(evt, target) { 
    var gv = document.getElementById("globalVariable");
    var previoustarget = gv.firstChild.nodeValue;
    if (previoustarget != "none") 
    {
        	document.getElementById(gv.firstChild.nodeValue).setAttributeNS(null, "visibility", "hidden");
    }
    document.getElementById(target).setAttributeNS(null, "visibility", "visible");
    gv.firstChild.nodeValue = target;
        }

    function mouseclick(evt) { 
    var gv = document.getElementById("globalVariable");
    var previoustarget = gv.firstChild.nodeValue;
    if (previoustarget != "none") {
        	document.getElementById(gv.firstChild.nodeValue).setAttributeNS(null, "visibility", "hidden");
        }
    }
]]>
  </script>
<style type="text/css" >

<![CDATA[
    rect.anc_exon {
              stroke-width:3;
                  }

    rect.non_anc_exon {
              stroke: black; stroke-width:3; stroke-dasharray: 5,5;
                    }

    text {
              font-size: 18px;
              font-family: Courier New;
          }
                    ]]>
</style>

<defs>
    <text x="150" y="40" id="globalVariable">none</text>
</defs>

  <rect class="anc_exon" x="0" y="35.0" width="0" height="30" style="fill:#87bcbc;fill-opacity:1.00" />
  <rect class="anc_exon" x="0" y="35.0" width="84.80000000000001" height="30" style="fill:#87bcbc;fill-opacity:1.00" />
  <line x1="84.80000000000001" y1="50.0" x2="103.80000000000001" y2="50.0" style="stroke:#999; stroke-width:3;" />
  <line x1="103.80000000000001" y1="50.0" x2="103.80000000000001" y2="50.0" style="stroke:#999; stroke-width:3;" />
  <line x1="103.80000000000001" y1="50.0" x2="103.80000000000001" y2="50.0" style="stroke:#999; stroke-width:3;" />
  <line x1="103.80000000000001" y1="50.0" x2="124.0" y2="50.0" style="stroke:#999; stroke-width:3;" />
  <rect class="anc_exon" x="124" y="35.0" width="9" height="30" style="fill:#87bcbc;fill-opacity:1.00" />
  <line x1="133" y1="50.0" x2="153" y2="50.0" style="stroke:#999; stroke-width:3;" />
  <line x1="153" y1="50.0" x2="153" y2="50.0" style="stroke:#999; stroke-width:3;" />
  <line x1="153" y1="50.0" x2="153" y2="50.0" style="stroke:#999; stroke-width:3;" />
  <line x1="153" y1="50.0" x2="173" y2="50.0" style="stroke:#999; stroke-width:3;" />
  <rect class="anc_exon" x="173" y="35.0" width="84" height="30" style="fill:#87bcbc;fill-opacity:1.00" />
  <line x1="257" y1="50.0" x2="277" y2="50.0" style="stroke:#999; stroke-width:3;" />
  <line x1="277" y1="50.0" x2="277" y2="50.0" style="stroke:#999; stroke-width:3;" />
  <line x1="277" y1="50.0" x2="277" y2="50.0" style="stroke:#999; stroke-width:3;" />
  <line x1="277" y1="50.0" x2="297" y2="50.0" style="stroke:#999; stroke-width:3;" />
  <rect class="anc_exon" x="297" y="35.0" width="157" height="30" style="fill:#87bcbc;fill-opacity:1.00" />
  <line x1="454" y1="50.0" x2="494" y2="50.0" style="stroke:#999; stroke-width:3;" />
  <rect class="anc_exon" x="494" y="35.0" width="98" height="30" style="fill:#87bcbc;fill-opacity:1.00" />
  <line x1="592" y1="50.0" x2="612" y2="50.0" style="stroke:#999; stroke-width:3;" />
  <line x1="612" y1="50.0" x2="612" y2="50.0" style="stroke:#999; stroke-width:3;" />
  <line x1="612" y1="50.0" x2="612" y2="50.0" style="stroke:#999; stroke-width:3;" />
  <line x1="612" y1="50.0" x2="632" y2="50.0" style="stroke:#999; stroke-width:3;" />
  <rect class="anc_exon" x="632" y="35.0" width="136" height="30" style="fill:#87bcbc;fill-opacity:1.00" />
  <line x1="768" y1="50.0" x2="808" y2="50.0" style="stroke:#999; stroke-width:3;" />
  <rect class="anc_exon" x="808" y="35.0" width="45" height="30" style="fill:#87bcbc;fill-opacity:1.00" />
  <line x1="853" y1="50.0" x2="873" y2="50.0" style="stroke:#999; stroke-width:3;" />
  <line x1="873" y1="50.0" x2="873" y2="50.0" style="stroke:#999; stroke-width:3;" />
  <line x1="873" y1="50.0" x2="873" y2="50.0" style="stroke:#999; stroke-width:3;" />
  <line x1="873" y1="50.0" x2="893" y2="50.0" style="stroke:#999; stroke-width:3;" />
  <rect class="anc_exon" x="893" y="35.0" width="89" height="30" style="fill:#87bcbc;fill-opacity:1.00" />
  <line x1="982" y1="50.0" x2="1002" y2="50.0" style="stroke:#999; stroke-width:3;" />
  <line x1="1002" y1="50.0" x2="1002" y2="50.0" style="stroke:#999; stroke-width:3;" />
  <line x1="1002" y1="50.0" x2="1002" y2="50.0" style="stroke:#999; stroke-width:3;" />
  <line x1="1002" y1="50.0" x2="1022" y2="50.0" style="stroke:#999; stroke-width:3;" />
  <rect class="anc_exon" x="1022" y="35.0" width="148" height="30" style="fill:#87bcbc;fill-opacity:1.00" />
  <line x1="1170" y1="50.0" x2="1210" y2="50.0" style="stroke:#999; stroke-width:3;" />
  <rect class="anc_exon" x="1210" y="35.0" width="105" height="30" style="fill:#87bcbc;fill-opacity:1.00" />
  <line x1="1315" y1="50.0" x2="1335" y2="50.0" style="stroke:#999; stroke-width:3;" />
  <line x1="1335" y1="50.0" x2="1335" y2="50.0" style="stroke:#999; stroke-width:3;" />
  <line x1="1335" y1="50.0" x2="1335" y2="50.0" style="stroke:#999; stroke-width:3;" />
  <line x1="1335" y1="50.0" x2="1355" y2="50.0" style="stroke:#999; stroke-width:3;" />
  <rect class="anc_exon" x="1355" y="35.0" width="115" height="30" style="fill:#87bcbc;fill-opacity:1.00" />
  <line x1="1470" y1="50.0" x2="1510" y2="50.0" style="stroke:#999; stroke-width:3;" />
  <rect class="anc_exon" x="1510" y="35.0" width="89" height="30" style="fill:#87bcbc;fill-opacity:1.00" />
  <line x1="1599" y1="50.0" x2="1619" y2="50.0" style="stroke:#999; stroke-width:3;" />
  <line x1="1619" y1="50.0" x2="1619" y2="50.0" style="stroke:#999; stroke-width:3;" />
  <line x1="1619" y1="50.0" x2="1619" y2="50.0" style="stroke:#999; stroke-width:3;" />
  <line x1="1619" y1="50.0" x2="1639" y2="50.0" style="stroke:#999; stroke-width:3;" />
  <rect class="anc_exon" x="1639" y="35.0" width="133" height="30" style="fill:#87bcbc;fill-opacity:1.00" />
  <line x1="1772" y1="50.0" x2="1812" y2="50.0" style="stroke:#999; stroke-width:3;" />
  <rect class="anc_exon" x="1812" y="35.0" width="118" height="30" style="fill:#87bcbc;fill-opacity:1.00" />
  <line x1="1930" y1="50.0" x2="1950" y2="50.0" style="stroke:#999; stroke-width:3;" />
  <line x1="1950" y1="50.0" x2="1950" y2="50.0" style="stroke:#999; stroke-width:3;" />
  <line x1="1950" y1="50.0" x2="1950" y2="50.0" style="stroke:#999; stroke-width:3;" />
  <line x1="1950" y1="50.0" x2="1970" y2="50.0" style="stroke:#999; stroke-width:3;" />
  <rect class="anc_exon" x="1970" y="35.0" width="100" height="30" style="fill:#87bcbc;fill-opacity:1.00" />
  <line x1="2070" y1="50.0" x2="2110" y2="50.0" style="stroke:#999; stroke-width:3;" />
  <rect class="anc_exon" x="2110" y="35.0" width="81" height="30" style="fill:#87bcbc;fill-opacity:1.00" />
  <line x1="2191" y1="50.0" x2="2211" y2="50.0" style="stroke:#999; stroke-width:3;" />
  <line x1="2211" y1="50.0" x2="2211" y2="50.0" style="stroke:#999; stroke-width:3;" />
  <line x1="2211" y1="50.0" x2="2211" y2="50.0" style="stroke:#999; stroke-width:3;" />
  <line x1="2211" y1="50.0" x2="2231" y2="50.0" style="stroke:#999; stroke-width:3;" />
  <rect class="anc_exon" x="2231" y="35.0" width="158" height="30" style="fill:#87bcbc;fill-opacity:1.00" />
  <line x1="2389" y1="50.0" x2="2429" y2="50.0" style="stroke:#999; stroke-width:3;" />
  <rect class="anc_exon" x="2429" y="35.0" width="56" height="30" style="fill:#87bcbc;fill-opacity:1.00" />
  <line x1="2485" y1="50.0" x2="2525" y2="50.0" style="stroke:#999; stroke-width:3;" />
  <rect class="anc_exon" x="2525" y="35.0" width="180" height="30" style="fill:#87bcbc;fill-opacity:1.00" />
  <line x1="2705" y1="50.0" x2="2745" y2="50.0" style="stroke:#999; stroke-width:3;" />
  <rect class="anc_exon" x="2745" y="35.0" width="92" height="30" style="fill:#87bcbc;fill-opacity:1.00" />
  <line x1="2837" y1="50.0" x2="2857" y2="50.0" style="stroke:#999; stroke-width:3;" />
  <line x1="2857" y1="50.0" x2="2857" y2="50.0" style="stroke:#999; stroke-width:3;" />
  <line x1="2857" y1="50.0" x2="2857" y2="50.0" style="stroke:#999; stroke-width:3;" />
  <line x1="2857" y1="50.0" x2="2877" y2="50.0" style="stroke:#999; stroke-width:3;" />
  <rect class="anc_exon" x="2877" y="35.0" width="164" height="30" style="fill:#87bcbc;fill-opacity:1.00" />
  <line x1="3041" y1="50.0" x2="3081" y2="50.0" style="stroke:#999; stroke-width:3;" />
  <rect class="anc_exon" x="3081" y="35.0" width="98" height="30" style="fill:#87bcbc;fill-opacity:1.00" />
  <line x1="3179" y1="50.0" x2="3219" y2="50.0" style="stroke:#999; stroke-width:3;" />
  <rect class="anc_exon" x="3219" y="35.0" width="148" height="30" style="fill:#87bcbc;fill-opacity:1.00" />
  <line x1="3367" y1="50.0" x2="3387" y2="50.0" style="stroke:#999; stroke-width:3;" />
  <line x1="3387" y1="50.0" x2="3387" y2="50.0" style="stroke:#999; stroke-width:3;" />
  <line x1="3387" y1="50.0" x2="3387" y2="50.0" style="stroke:#999; stroke-width:3;" />
  <line x1="3387" y1="50.0" x2="3407" y2="50.0" style="stroke:#999; stroke-width:3;" />
  <rect class="anc_exon" x="3407" y="35.0" width="105" height="30" style="fill:#87bcbc;fill-opacity:1.00" />
  <line x1="3512" y1="50.0" x2="3532" y2="50.0" style="stroke:#999; stroke-width:3;" />
  <line x1="3532" y1="50.0" x2="3532" y2="50.0" style="stroke:#999; stroke-width:3;" />
  <line x1="3532" y1="50.0" x2="3532" y2="50.0" style="stroke:#999; stroke-width:3;" />
  <line x1="3532" y1="50.0" x2="3552" y2="50.0" style="stroke:#999; stroke-width:3;" />
  <rect class="anc_exon" x="3552" y="35.0" width="63" height="30" style="fill:#87bcbc;fill-opacity:1.00" />
  <line x1="3615" y1="50.0" x2="3635" y2="50.0" style="stroke:#999; stroke-width:3;" />
  <line x1="3635" y1="50.0" x2="3635" y2="50.0" style="stroke:#999; stroke-width:3;" />
  <line x1="3635" y1="50.0" x2="3635" y2="50.0" style="stroke:#999; stroke-width:3;" />
  <line x1="3635" y1="50.0" x2="3655" y2="50.0" style="stroke:#999; stroke-width:3;" />
  <rect class="anc_exon" x="3655" y="35.0" width="190" height="30" style="fill:#87bcbc;fill-opacity:1.00" />
  <rect class="anc_exon" x="3845" y="35.0" width="0" height="30" style="fill:#87bcbc;fill-opacity:1.00" />
  <text style="" >
<tspan x="0" y="83.0" style="font-size:18px;" >SP XM_031938791_1.1</tspan>  </text>



<script type="text/ecmascript">
<![CDATA[
function draw_bbox(text_id)
{
    var text_elem = document.getElementById(text_id);
    var offset_px = 2;
    var offset_py = 0;
    bbox = text_elem.getBBox();
    var box = document.createElementNS(document.rootElement.namespaceURI,'rect');
    box.setAttribute('x', bbox.x - offset_px);
    box.setAttribute('y', bbox.y - offset_py);
    box.setAttribute('width', bbox.width + offset_px * 2);
    box.setAttribute('height', bbox.height + offset_py * 2);
    box.setAttribute('style','fill: white;'+'stroke: black;'+'stroke-width: 1px;');
    text_elem.insertBefore(box,text_elem.childNodes[0]);

    var svg = text_elem.parentNode;
    svg.appendChild(text_elem);
}

for (var i=1; i < 1; i++)
{
draw_bbox("Mouseover" + i);
}
]]> 
</script>
</svg>
