<svg version="1.1"
xmlns="http://www.w3.org/2000/svg"
xmlns:xlink="http://www.w3.org/1999/xlink"
width="4779" height="100" viewBox = "0 0 4779 100"
onclick="mouseclick(evt)">

<script type="text/ecmascript">

<![CDATA[
    function mouseover(evt, target) { 
    var gv = document.getElementById("globalVariable");
    var previoustarget = gv.firstChild.nodeValue;
    if (previoustarget != "none") 
    {
        	document.getElementById(gv.firstChild.nodeValue).setAttributeNS(null, "visibility", "hidden");
    }
    document.getElementById(target).setAttributeNS(null, "visibility", "visible");
    gv.firstChild.nodeValue = target;
        }

    function mouseclick(evt) { 
    var gv = document.getElementById("globalVariable");
    var previoustarget = gv.firstChild.nodeValue;
    if (previoustarget != "none") {
        	document.getElementById(gv.firstChild.nodeValue).setAttributeNS(null, "visibility", "hidden");
        }
    }
]]>
  </script>
<style type="text/css" >

<![CDATA[
    rect.anc_exon {
              stroke-width:3;
                  }

    rect.non_anc_exon {
              stroke: black; stroke-width:3; stroke-dasharray: 5,5;
                    }

    text {
              font-size: 18px;
              font-family: Courier New;
          }
                    ]]>
</style>

<defs>
    <text x="150" y="40" id="globalVariable">none</text>
</defs>

  <rect class="anc_exon" x="0" y="35.0" width="0" height="30" style="fill:#87bcbc;fill-opacity:1.00" />
  <rect class="anc_exon" x="0" y="35.0" width="44.0" height="30" style="fill:#87bcbc;fill-opacity:1.00" />
  <line x1="44.0" y1="50.0" x2="64.0" y2="50.0" style="stroke:#999; stroke-width:3;" />
  <line x1="64.0" y1="50.0" x2="64.0" y2="50.0" style="stroke:#999; stroke-width:3;" />
  <line x1="64.0" y1="50.0" x2="64.0" y2="50.0" style="stroke:#999; stroke-width:3;" />
  <line x1="64.0" y1="50.0" x2="84.0" y2="50.0" style="stroke:#999; stroke-width:3;" />
  <rect class="anc_exon" x="84" y="35.0" width="315" height="30" style="fill:#87bcbc;fill-opacity:1.00" />
  <line x1="399" y1="50.0" x2="419" y2="50.0" style="stroke:#999; stroke-width:3;" />
  <line x1="419" y1="50.0" x2="419" y2="50.0" style="stroke:#999; stroke-width:3;" />
  <line x1="419" y1="50.0" x2="419" y2="50.0" style="stroke:#999; stroke-width:3;" />
  <line x1="419" y1="50.0" x2="439" y2="50.0" style="stroke:#999; stroke-width:3;" />
  <rect class="anc_exon" x="439" y="35.0" width="158" height="30" style="fill:#87bcbc;fill-opacity:1.00" />
  <line x1="597" y1="50.0" x2="617" y2="50.0" style="stroke:#999; stroke-width:3;" />
  <line x1="617" y1="50.0" x2="617" y2="50.0" style="stroke:#999; stroke-width:3;" />
  <line x1="617" y1="50.0" x2="617" y2="50.0" style="stroke:#999; stroke-width:3;" />
  <line x1="617" y1="50.0" x2="637" y2="50.0" style="stroke:#999; stroke-width:3;" />
  <rect class="anc_exon" x="637" y="35.0" width="157" height="30" style="fill:#87bcbc;fill-opacity:1.00" />
  <line x1="794" y1="50.0" x2="814" y2="50.0" style="stroke:#999; stroke-width:3;" />
  <line x1="814" y1="50.0" x2="814" y2="50.0" style="stroke:#999; stroke-width:3;" />
  <line x1="814" y1="50.0" x2="814" y2="50.0" style="stroke:#999; stroke-width:3;" />
  <line x1="814" y1="50.0" x2="834" y2="50.0" style="stroke:#999; stroke-width:3;" />
  <rect class="anc_exon" x="834" y="35.0" width="105" height="30" style="fill:#87bcbc;fill-opacity:1.00" />
  <line x1="939" y1="50.0" x2="959" y2="50.0" style="stroke:#999; stroke-width:3;" />
  <line x1="959" y1="50.0" x2="959" y2="50.0" style="stroke:#999; stroke-width:3;" />
  <line x1="959" y1="50.0" x2="959" y2="50.0" style="stroke:#999; stroke-width:3;" />
  <line x1="959" y1="50.0" x2="979" y2="50.0" style="stroke:#999; stroke-width:3;" />
  <rect class="anc_exon" x="979" y="35.0" width="317" height="30" style="fill:#87bcbc;fill-opacity:1.00" />
  <line x1="1296" y1="50.0" x2="1336" y2="50.0" style="stroke:#999; stroke-width:3;" />
  <rect class="anc_exon" x="1336" y="35.0" width="137" height="30" style="fill:#87bcbc;fill-opacity:1.00" />
  <line x1="1473" y1="50.0" x2="1493" y2="50.0" style="stroke:#999; stroke-width:3;" />
  <line x1="1493" y1="50.0" x2="1493" y2="50.0" style="stroke:#999; stroke-width:3;" />
  <line x1="1493" y1="50.0" x2="1493" y2="50.0" style="stroke:#999; stroke-width:3;" />
  <line x1="1493" y1="50.0" x2="1513" y2="50.0" style="stroke:#999; stroke-width:3;" />
  <rect class="anc_exon" x="1513" y="35.0" width="173" height="30" style="fill:#87bcbc;fill-opacity:1.00" />
  <line x1="1686" y1="50.0" x2="1726" y2="50.0" style="stroke:#999; stroke-width:3;" />
  <rect class="anc_exon" x="1726" y="35.0" width="232" height="30" style="fill:#87bcbc;fill-opacity:1.00" />
  <line x1="1958" y1="50.0" x2="1978" y2="50.0" style="stroke:#999; stroke-width:3;" />
  <line x1="1978" y1="50.0" x2="1978" y2="50.0" style="stroke:#999; stroke-width:3;" />
  <line x1="1978" y1="50.0" x2="1978" y2="50.0" style="stroke:#999; stroke-width:3;" />
  <line x1="1978" y1="50.0" x2="1998" y2="50.0" style="stroke:#999; stroke-width:3;" />
  <rect class="anc_exon" x="1998" y="35.0" width="181" height="30" style="fill:#87bcbc;fill-opacity:1.00" />
  <line x1="2179" y1="50.0" x2="2199" y2="50.0" style="stroke:#999; stroke-width:3;" />
  <line x1="2199" y1="50.0" x2="2199" y2="50.0" style="stroke:#999; stroke-width:3;" />
  <line x1="2199" y1="50.0" x2="2199" y2="50.0" style="stroke:#999; stroke-width:3;" />
  <line x1="2199" y1="50.0" x2="2219" y2="50.0" style="stroke:#999; stroke-width:3;" />
  <rect class="anc_exon" x="2219" y="35.0" width="148" height="30" style="fill:#87bcbc;fill-opacity:1.00" />
  <line x1="2367" y1="50.0" x2="2407" y2="50.0" style="stroke:#999; stroke-width:3;" />
  <rect class="anc_exon" x="2407" y="35.0" width="261" height="30" style="fill:#87bcbc;fill-opacity:1.00" />
  <line x1="2668" y1="50.0" x2="2688" y2="50.0" style="stroke:#999; stroke-width:3;" />
  <line x1="2688" y1="50.0" x2="2688" y2="50.0" style="stroke:#999; stroke-width:3;" />
  <line x1="2688" y1="50.0" x2="2688" y2="50.0" style="stroke:#999; stroke-width:3;" />
  <line x1="2688" y1="50.0" x2="2708" y2="50.0" style="stroke:#999; stroke-width:3;" />
  <rect class="anc_exon" x="2708" y="35.0" width="162" height="30" style="fill:#87bcbc;fill-opacity:1.00" />
  <line x1="2870" y1="50.0" x2="2910" y2="50.0" style="stroke:#999; stroke-width:3;" />
  <rect class="anc_exon" x="2910" y="35.0" width="169" height="30" style="fill:#87bcbc;fill-opacity:1.00" />
  <line x1="3079" y1="50.0" x2="3099" y2="50.0" style="stroke:#999; stroke-width:3;" />
  <line x1="3099" y1="50.0" x2="3099" y2="50.0" style="stroke:#999; stroke-width:3;" />
  <line x1="3099" y1="50.0" x2="3099" y2="50.0" style="stroke:#999; stroke-width:3;" />
  <line x1="3099" y1="50.0" x2="3119" y2="50.0" style="stroke:#999; stroke-width:3;" />
  <rect class="anc_exon" x="3119" y="35.0" width="152" height="30" style="fill:#87bcbc;fill-opacity:1.00" />
  <line x1="3271" y1="50.0" x2="3291" y2="50.0" style="stroke:#999; stroke-width:3;" />
  <line x1="3291" y1="50.0" x2="3291" y2="50.0" style="stroke:#999; stroke-width:3;" />
  <line x1="3291" y1="50.0" x2="3291" y2="50.0" style="stroke:#999; stroke-width:3;" />
  <line x1="3291" y1="50.0" x2="3311" y2="50.0" style="stroke:#999; stroke-width:3;" />
  <rect class="anc_exon" x="3311" y="35.0" width="168" height="30" style="fill:#87bcbc;fill-opacity:1.00" />
  <line x1="3479" y1="50.0" x2="3499" y2="50.0" style="stroke:#999; stroke-width:3;" />
  <line x1="3499" y1="50.0" x2="3499" y2="50.0" style="stroke:#999; stroke-width:3;" />
  <line x1="3499" y1="50.0" x2="3499" y2="50.0" style="stroke:#999; stroke-width:3;" />
  <line x1="3499" y1="50.0" x2="3519" y2="50.0" style="stroke:#999; stroke-width:3;" />
  <rect class="anc_exon" x="3519" y="35.0" width="100" height="30" style="fill:#87bcbc;fill-opacity:1.00" />
  <line x1="3619" y1="50.0" x2="3639" y2="50.0" style="stroke:#999; stroke-width:3;" />
  <line x1="3639" y1="50.0" x2="3639" y2="50.0" style="stroke:#999; stroke-width:3;" />
  <line x1="3639" y1="50.0" x2="3639" y2="50.0" style="stroke:#999; stroke-width:3;" />
  <line x1="3639" y1="50.0" x2="3659" y2="50.0" style="stroke:#999; stroke-width:3;" />
  <rect class="anc_exon" x="3659" y="35.0" width="189" height="30" style="fill:#87bcbc;fill-opacity:1.00" />
  <line x1="3848" y1="50.0" x2="3888" y2="50.0" style="stroke:#999; stroke-width:3;" />
  <rect class="anc_exon" x="3888" y="35.0" width="88" height="30" style="fill:#87bcbc;fill-opacity:1.00" />
  <line x1="3976" y1="50.0" x2="3996" y2="50.0" style="stroke:#999; stroke-width:3;" />
  <line x1="3996" y1="50.0" x2="3996" y2="50.0" style="stroke:#999; stroke-width:3;" />
  <line x1="3996" y1="50.0" x2="3996" y2="50.0" style="stroke:#999; stroke-width:3;" />
  <line x1="3996" y1="50.0" x2="4016" y2="50.0" style="stroke:#999; stroke-width:3;" />
  <rect class="anc_exon" x="4016" y="35.0" width="184" height="30" style="fill:#87bcbc;fill-opacity:1.00" />
  <line x1="4200" y1="50.0" x2="4240" y2="50.0" style="stroke:#999; stroke-width:3;" />
  <rect class="anc_exon" x="4240" y="35.0" width="109" height="30" style="fill:#87bcbc;fill-opacity:1.00" />
  <line x1="4349" y1="50.0" x2="4389" y2="50.0" style="stroke:#999; stroke-width:3;" />
  <rect class="anc_exon" x="4389" y="35.0" width="78" height="30" style="fill:#87bcbc;fill-opacity:1.00" />
  <line x1="4467" y1="50.0" x2="4507" y2="50.0" style="stroke:#999; stroke-width:3;" />
  <rect class="anc_exon" x="4507" y="35.0" width="236" height="30" style="fill:#87bcbc;fill-opacity:1.00" />
  <rect class="anc_exon" x="4743" y="35.0" width="0" height="30" style="fill:#87bcbc;fill-opacity:1.00" />
  <text style="" >
<tspan x="0" y="83.0" style="font-size:18px;" >SP XM_023504584_2.1</tspan>  </text>



<script type="text/ecmascript">
<![CDATA[
function draw_bbox(text_id)
{
    var text_elem = document.getElementById(text_id);
    var offset_px = 2;
    var offset_py = 0;
    bbox = text_elem.getBBox();
    var box = document.createElementNS(document.rootElement.namespaceURI,'rect');
    box.setAttribute('x', bbox.x - offset_px);
    box.setAttribute('y', bbox.y - offset_py);
    box.setAttribute('width', bbox.width + offset_px * 2);
    box.setAttribute('height', bbox.height + offset_py * 2);
    box.setAttribute('style','fill: white;'+'stroke: black;'+'stroke-width: 1px;');
    text_elem.insertBefore(box,text_elem.childNodes[0]);

    var svg = text_elem.parentNode;
    svg.appendChild(text_elem);
}

for (var i=1; i < 1; i++)
{
draw_bbox("Mouseover" + i);
}
]]> 
</script>
</svg>
