<svg version="1.1"
xmlns="http://www.w3.org/2000/svg"
xmlns:xlink="http://www.w3.org/1999/xlink"
width="3590" height="100" viewBox = "0 0 3590 100"
onclick="mouseclick(evt)">

<script type="text/ecmascript">

<![CDATA[
    function mouseover(evt, target) { 
    var gv = document.getElementById("globalVariable");
    var previoustarget = gv.firstChild.nodeValue;
    if (previoustarget != "none") 
    {
        	document.getElementById(gv.firstChild.nodeValue).setAttributeNS(null, "visibility", "hidden");
    }
    document.getElementById(target).setAttributeNS(null, "visibility", "visible");
    gv.firstChild.nodeValue = target;
        }

    function mouseclick(evt) { 
    var gv = document.getElementById("globalVariable");
    var previoustarget = gv.firstChild.nodeValue;
    if (previoustarget != "none") {
        	document.getElementById(gv.firstChild.nodeValue).setAttributeNS(null, "visibility", "hidden");
        }
    }
]]>
  </script>
<style type="text/css" >

<![CDATA[
    rect.anc_exon {
              stroke-width:3;
                  }

    rect.non_anc_exon {
              stroke: black; stroke-width:3; stroke-dasharray: 5,5;
                    }

    text {
              font-size: 18px;
              font-family: Courier New;
          }
                    ]]>
</style>

<defs>
    <text x="150" y="40" id="globalVariable">none</text>
</defs>

  <rect class="anc_exon" x="0" y="35.0" width="0" height="30" style="fill:#87bcbc;fill-opacity:1.00" />
  <rect class="anc_exon" x="0" y="35.0" width="70.4" height="30" style="fill:#87bcbc;fill-opacity:1.00" />
  <line x1="70.4" y1="50.0" x2="110.0" y2="50.0" style="stroke:#999; stroke-width:3;" />
  <rect class="anc_exon" x="110" y="35.0" width="138" height="30" style="fill:#87bcbc;fill-opacity:1.00" />
  <line x1="248" y1="50.0" x2="268" y2="50.0" style="stroke:#999; stroke-width:3;" />
  <line x1="268" y1="50.0" x2="268" y2="50.0" style="stroke:#999; stroke-width:3;" />
  <line x1="268" y1="50.0" x2="268" y2="50.0" style="stroke:#999; stroke-width:3;" />
  <line x1="268" y1="50.0" x2="288" y2="50.0" style="stroke:#999; stroke-width:3;" />
  <rect class="anc_exon" x="288" y="35.0" width="61" height="30" style="fill:#87bcbc;fill-opacity:1.00" />
  <line x1="349" y1="50.0" x2="369" y2="50.0" style="stroke:#999; stroke-width:3;" />
  <line x1="369" y1="50.0" x2="369" y2="50.0" style="stroke:#999; stroke-width:3;" />
  <line x1="369" y1="50.0" x2="369" y2="50.0" style="stroke:#999; stroke-width:3;" />
  <line x1="369" y1="50.0" x2="389" y2="50.0" style="stroke:#999; stroke-width:3;" />
  <rect class="anc_exon" x="389" y="35.0" width="53" height="30" style="fill:#87bcbc;fill-opacity:1.00" />
  <line x1="442" y1="50.0" x2="462" y2="50.0" style="stroke:#999; stroke-width:3;" />
  <line x1="462" y1="50.0" x2="462" y2="50.0" style="stroke:#999; stroke-width:3;" />
  <line x1="462" y1="50.0" x2="462" y2="50.0" style="stroke:#999; stroke-width:3;" />
  <line x1="462" y1="50.0" x2="482" y2="50.0" style="stroke:#999; stroke-width:3;" />
  <rect class="anc_exon" x="482" y="35.0" width="66" height="30" style="fill:#87bcbc;fill-opacity:1.00" />
  <line x1="548" y1="50.0" x2="568" y2="50.0" style="stroke:#999; stroke-width:3;" />
  <line x1="568" y1="50.0" x2="568" y2="50.0" style="stroke:#999; stroke-width:3;" />
  <line x1="568" y1="50.0" x2="568" y2="50.0" style="stroke:#999; stroke-width:3;" />
  <line x1="568" y1="50.0" x2="588" y2="50.0" style="stroke:#999; stroke-width:3;" />
  <rect class="anc_exon" x="588" y="35.0" width="51" height="30" style="fill:#87bcbc;fill-opacity:1.00" />
  <line x1="639" y1="50.0" x2="659" y2="50.0" style="stroke:#999; stroke-width:3;" />
  <line x1="659" y1="50.0" x2="659" y2="50.0" style="stroke:#999; stroke-width:3;" />
  <line x1="659" y1="50.0" x2="659" y2="50.0" style="stroke:#999; stroke-width:3;" />
  <line x1="659" y1="50.0" x2="679" y2="50.0" style="stroke:#999; stroke-width:3;" />
  <rect class="anc_exon" x="679" y="35.0" width="56" height="30" style="fill:#87bcbc;fill-opacity:1.00" />
  <line x1="735" y1="50.0" x2="755" y2="50.0" style="stroke:#999; stroke-width:3;" />
  <line x1="755" y1="50.0" x2="755" y2="50.0" style="stroke:#999; stroke-width:3;" />
  <line x1="755" y1="50.0" x2="755" y2="50.0" style="stroke:#999; stroke-width:3;" />
  <line x1="755" y1="50.0" x2="775" y2="50.0" style="stroke:#999; stroke-width:3;" />
  <rect class="anc_exon" x="775" y="35.0" width="56" height="30" style="fill:#87bcbc;fill-opacity:1.00" />
  <line x1="831" y1="50.0" x2="851" y2="50.0" style="stroke:#999; stroke-width:3;" />
  <line x1="851" y1="50.0" x2="851" y2="50.0" style="stroke:#999; stroke-width:3;" />
  <line x1="851" y1="50.0" x2="851" y2="50.0" style="stroke:#999; stroke-width:3;" />
  <line x1="851" y1="50.0" x2="871" y2="50.0" style="stroke:#999; stroke-width:3;" />
  <rect class="anc_exon" x="871" y="35.0" width="60" height="30" style="fill:#87bcbc;fill-opacity:1.00" />
  <line x1="931" y1="50.0" x2="951" y2="50.0" style="stroke:#999; stroke-width:3;" />
  <line x1="951" y1="50.0" x2="951" y2="50.0" style="stroke:#999; stroke-width:3;" />
  <line x1="951" y1="50.0" x2="951" y2="50.0" style="stroke:#999; stroke-width:3;" />
  <line x1="951" y1="50.0" x2="971" y2="50.0" style="stroke:#999; stroke-width:3;" />
  <rect class="anc_exon" x="971" y="35.0" width="57" height="30" style="fill:#87bcbc;fill-opacity:1.00" />
  <line x1="1028" y1="50.0" x2="1068" y2="50.0" style="stroke:#999; stroke-width:3;" />
  <rect class="anc_exon" x="1068" y="35.0" width="133" height="30" style="fill:#87bcbc;fill-opacity:1.00" />
  <line x1="1201" y1="50.0" x2="1241" y2="50.0" style="stroke:#999; stroke-width:3;" />
  <rect class="anc_exon" x="1241" y="35.0" width="68" height="30" style="fill:#87bcbc;fill-opacity:1.00" />
  <line x1="1309" y1="50.0" x2="1349" y2="50.0" style="stroke:#999; stroke-width:3;" />
  <rect class="anc_exon" x="1349" y="35.0" width="72" height="30" style="fill:#87bcbc;fill-opacity:1.00" />
  <line x1="1421" y1="50.0" x2="1461" y2="50.0" style="stroke:#999; stroke-width:3;" />
  <rect class="anc_exon" x="1461" y="35.0" width="41" height="30" style="fill:#87bcbc;fill-opacity:1.00" />
  <line x1="1502" y1="50.0" x2="1542" y2="50.0" style="stroke:#999; stroke-width:3;" />
  <rect class="anc_exon" x="1542" y="35.0" width="80" height="30" style="fill:#87bcbc;fill-opacity:1.00" />
  <line x1="1622" y1="50.0" x2="1642" y2="50.0" style="stroke:#999; stroke-width:3;" />
  <line x1="1642" y1="50.0" x2="1642" y2="50.0" style="stroke:#999; stroke-width:3;" />
  <line x1="1642" y1="50.0" x2="1642" y2="50.0" style="stroke:#999; stroke-width:3;" />
  <line x1="1642" y1="50.0" x2="1662" y2="50.0" style="stroke:#999; stroke-width:3;" />
  <rect class="anc_exon" x="1662" y="35.0" width="57" height="30" style="fill:#87bcbc;fill-opacity:1.00" />
  <line x1="1719" y1="50.0" x2="1759" y2="50.0" style="stroke:#999; stroke-width:3;" />
  <rect class="anc_exon" x="1759" y="35.0" width="74" height="30" style="fill:#87bcbc;fill-opacity:1.00" />
  <line x1="1833" y1="50.0" x2="1853" y2="50.0" style="stroke:#999; stroke-width:3;" />
  <line x1="1853" y1="50.0" x2="1853" y2="50.0" style="stroke:#999; stroke-width:3;" />
  <line x1="1853" y1="50.0" x2="1853" y2="50.0" style="stroke:#999; stroke-width:3;" />
  <line x1="1853" y1="50.0" x2="1873" y2="50.0" style="stroke:#999; stroke-width:3;" />
  <rect class="anc_exon" x="1873" y="35.0" width="64" height="30" style="fill:#87bcbc;fill-opacity:1.00" />
  <line x1="1937" y1="50.0" x2="1957" y2="50.0" style="stroke:#999; stroke-width:3;" />
  <line x1="1957" y1="50.0" x2="1957" y2="50.0" style="stroke:#999; stroke-width:3;" />
  <line x1="1957" y1="50.0" x2="1957" y2="50.0" style="stroke:#999; stroke-width:3;" />
  <line x1="1957" y1="50.0" x2="1977" y2="50.0" style="stroke:#999; stroke-width:3;" />
  <rect class="anc_exon" x="1977" y="35.0" width="40" height="30" style="fill:#87bcbc;fill-opacity:1.00" />
  <line x1="2017" y1="50.0" x2="2057" y2="50.0" style="stroke:#999; stroke-width:3;" />
  <rect class="anc_exon" x="2057" y="35.0" width="51" height="30" style="fill:#87bcbc;fill-opacity:1.00" />
  <line x1="2108" y1="50.0" x2="2148" y2="50.0" style="stroke:#999; stroke-width:3;" />
  <rect class="anc_exon" x="2148" y="35.0" width="84" height="30" style="fill:#87bcbc;fill-opacity:1.00" />
  <line x1="2232" y1="50.0" x2="2252" y2="50.0" style="stroke:#999; stroke-width:3;" />
  <line x1="2252" y1="50.0" x2="2252" y2="50.0" style="stroke:#999; stroke-width:3;" />
  <line x1="2252" y1="50.0" x2="2252" y2="50.0" style="stroke:#999; stroke-width:3;" />
  <line x1="2252" y1="50.0" x2="2272" y2="50.0" style="stroke:#999; stroke-width:3;" />
  <rect class="anc_exon" x="2272" y="35.0" width="96" height="30" style="fill:#87bcbc;fill-opacity:1.00" />
  <line x1="2368" y1="50.0" x2="2408" y2="50.0" style="stroke:#999; stroke-width:3;" />
  <rect class="anc_exon" x="2408" y="35.0" width="135" height="30" style="fill:#87bcbc;fill-opacity:1.00" />
  <line x1="2543" y1="50.0" x2="2563" y2="50.0" style="stroke:#999; stroke-width:3;" />
  <line x1="2563" y1="50.0" x2="2563" y2="50.0" style="stroke:#999; stroke-width:3;" />
  <line x1="2563" y1="50.0" x2="2563" y2="50.0" style="stroke:#999; stroke-width:3;" />
  <line x1="2563" y1="50.0" x2="2583" y2="50.0" style="stroke:#999; stroke-width:3;" />
  <rect class="anc_exon" x="2583" y="35.0" width="92" height="30" style="fill:#87bcbc;fill-opacity:1.00" />
  <line x1="2675" y1="50.0" x2="2695" y2="50.0" style="stroke:#999; stroke-width:3;" />
  <line x1="2695" y1="50.0" x2="2695" y2="50.0" style="stroke:#999; stroke-width:3;" />
  <line x1="2695" y1="50.0" x2="2695" y2="50.0" style="stroke:#999; stroke-width:3;" />
  <line x1="2695" y1="50.0" x2="2715" y2="50.0" style="stroke:#999; stroke-width:3;" />
  <rect class="anc_exon" x="2715" y="35.0" width="72" height="30" style="fill:#87bcbc;fill-opacity:1.00" />
  <line x1="2787" y1="50.0" x2="2827" y2="50.0" style="stroke:#999; stroke-width:3;" />
  <rect class="anc_exon" x="2827" y="35.0" width="14" height="30" style="fill:#87bcbc;fill-opacity:1.00" />
  <line x1="2841" y1="50.0" x2="2861" y2="50.0" style="stroke:#999; stroke-width:3;" />
  <line x1="2861" y1="50.0" x2="2861" y2="50.0" style="stroke:#999; stroke-width:3;" />
  <line x1="2861" y1="50.0" x2="2861" y2="50.0" style="stroke:#999; stroke-width:3;" />
  <line x1="2861" y1="50.0" x2="2881" y2="50.0" style="stroke:#999; stroke-width:3;" />
  <rect class="anc_exon" x="2881" y="35.0" width="156" height="30" style="fill:#87bcbc;fill-opacity:1.00" />
  <line x1="3037" y1="50.0" x2="3057" y2="50.0" style="stroke:#999; stroke-width:3;" />
  <line x1="3057" y1="50.0" x2="3057" y2="50.0" style="stroke:#999; stroke-width:3;" />
  <line x1="3057" y1="50.0" x2="3057" y2="50.0" style="stroke:#999; stroke-width:3;" />
  <line x1="3057" y1="50.0" x2="3077" y2="50.0" style="stroke:#999; stroke-width:3;" />
  <rect class="anc_exon" x="3077" y="35.0" width="80" height="30" style="fill:#87bcbc;fill-opacity:1.00" />
  <line x1="3157" y1="50.0" x2="3197" y2="50.0" style="stroke:#999; stroke-width:3;" />
  <rect class="anc_exon" x="3197" y="35.0" width="53" height="30" style="fill:#87bcbc;fill-opacity:1.00" />
  <line x1="3250" y1="50.0" x2="3270" y2="50.0" style="stroke:#999; stroke-width:3;" />
  <line x1="3270" y1="50.0" x2="3270" y2="50.0" style="stroke:#999; stroke-width:3;" />
  <line x1="3270" y1="50.0" x2="3270" y2="50.0" style="stroke:#999; stroke-width:3;" />
  <line x1="3270" y1="50.0" x2="3290" y2="50.0" style="stroke:#999; stroke-width:3;" />
  <rect class="anc_exon" x="3290" y="35.0" width="69" height="30" style="fill:#87bcbc;fill-opacity:1.00" />
  <line x1="3359" y1="50.0" x2="3379" y2="50.0" style="stroke:#999; stroke-width:3;" />
  <line x1="3379" y1="50.0" x2="3379" y2="50.0" style="stroke:#999; stroke-width:3;" />
  <line x1="3379" y1="50.0" x2="3379" y2="50.0" style="stroke:#999; stroke-width:3;" />
  <line x1="3379" y1="50.0" x2="3399" y2="50.0" style="stroke:#999; stroke-width:3;" />
  <rect class="anc_exon" x="3399" y="35.0" width="99" height="30" style="fill:#87bcbc;fill-opacity:1.00" />
  <line x1="3498" y1="50.0" x2="3518" y2="50.0" style="stroke:#999; stroke-width:3;" />
  <line x1="3518" y1="50.0" x2="3518" y2="50.0" style="stroke:#999; stroke-width:3;" />
  <line x1="3518" y1="50.0" x2="3518" y2="50.0" style="stroke:#999; stroke-width:3;" />
  <line x1="3518" y1="50.0" x2="3538" y2="50.0" style="stroke:#999; stroke-width:3;" />
  <rect class="anc_exon" x="3538" y="35.0" width="16" height="30" style="fill:#87bcbc;fill-opacity:1.00" />
  <rect class="anc_exon" x="3554" y="35.0" width="0" height="30" style="fill:#87bcbc;fill-opacity:1.00" />
  <text style="" >
<tspan x="0" y="83.0" style="font-size:18px;" >SP XM_031939960_1.1</tspan>  </text>



<script type="text/ecmascript">
<![CDATA[
function draw_bbox(text_id)
{
    var text_elem = document.getElementById(text_id);
    var offset_px = 2;
    var offset_py = 0;
    bbox = text_elem.getBBox();
    var box = document.createElementNS(document.rootElement.namespaceURI,'rect');
    box.setAttribute('x', bbox.x - offset_px);
    box.setAttribute('y', bbox.y - offset_py);
    box.setAttribute('width', bbox.width + offset_px * 2);
    box.setAttribute('height', bbox.height + offset_py * 2);
    box.setAttribute('style','fill: white;'+'stroke: black;'+'stroke-width: 1px;');
    text_elem.insertBefore(box,text_elem.childNodes[0]);

    var svg = text_elem.parentNode;
    svg.appendChild(text_elem);
}

for (var i=1; i < 1; i++)
{
draw_bbox("Mouseover" + i);
}
]]> 
</script>
</svg>
