<svg version="1.1"
xmlns="http://www.w3.org/2000/svg"
xmlns:xlink="http://www.w3.org/1999/xlink"
width="3142" height="100" viewBox = "0 0 3142 100"
onclick="mouseclick(evt)">

<script type="text/ecmascript">

<![CDATA[
    function mouseover(evt, target) { 
    var gv = document.getElementById("globalVariable");
    var previoustarget = gv.firstChild.nodeValue;
    if (previoustarget != "none") 
    {
        	document.getElementById(gv.firstChild.nodeValue).setAttributeNS(null, "visibility", "hidden");
    }
    document.getElementById(target).setAttributeNS(null, "visibility", "visible");
    gv.firstChild.nodeValue = target;
        }

    function mouseclick(evt) { 
    var gv = document.getElementById("globalVariable");
    var previoustarget = gv.firstChild.nodeValue;
    if (previoustarget != "none") {
        	document.getElementById(gv.firstChild.nodeValue).setAttributeNS(null, "visibility", "hidden");
        }
    }
]]>
  </script>
<style type="text/css" >

<![CDATA[
    rect.anc_exon {
              stroke-width:3;
                  }

    rect.non_anc_exon {
              stroke: black; stroke-width:3; stroke-dasharray: 5,5;
                    }

    text {
              font-size: 18px;
              font-family: Courier New;
          }
                    ]]>
</style>

<defs>
    <text x="150" y="40" id="globalVariable">none</text>
</defs>

  <rect class="anc_exon" x="0" y="35.0" width="0" height="30" style="fill:#87bcbc;fill-opacity:1.00" />
  <rect class="anc_exon" x="0" y="35.0" width="2.4000000000000004" height="30" style="fill:#878787;fill-opacity:1.00" />
  <line x1="2.4000000000000004" y1="50.0" x2="21.4" y2="50.0" style="stroke:#999; stroke-width:3;" />
  <line x1="21.4" y1="50.0" x2="21.4" y2="50.0" style="stroke:#999; stroke-width:3;" />
  <line x1="21.4" y1="50.0" x2="21.4" y2="50.0" style="stroke:#999; stroke-width:3;" />
  <line x1="21.4" y1="50.0" x2="42.0" y2="50.0" style="stroke:#999; stroke-width:3;" />
  <rect class="anc_exon" x="42" y="35.0" width="64" height="30" style="fill:#87bcbc;fill-opacity:1.00" />
  <line x1="106" y1="50.0" x2="146" y2="50.0" style="stroke:#999; stroke-width:3;" />
  <rect class="anc_exon" x="146" y="35.0" width="115" height="30" style="fill:#87bcbc;fill-opacity:1.00" />
  <line x1="261" y1="50.0" x2="301" y2="50.0" style="stroke:#999; stroke-width:3;" />
  <rect class="anc_exon" x="301" y="35.0" width="52" height="30" style="fill:#87bcbc;fill-opacity:1.00" />
  <line x1="353" y1="50.0" x2="393" y2="50.0" style="stroke:#999; stroke-width:3;" />
  <rect class="anc_exon" x="393" y="35.0" width="22" height="30" style="fill:#87bcbc;fill-opacity:1.00" />
  <line x1="415" y1="50.0" x2="455" y2="50.0" style="stroke:#999; stroke-width:3;" />
  <rect class="anc_exon" x="455" y="35.0" width="20" height="30" style="fill:#87bcbc;fill-opacity:1.00" />
  <line x1="475" y1="50.0" x2="515" y2="50.0" style="stroke:#999; stroke-width:3;" />
  <rect class="anc_exon" x="515" y="35.0" width="88" height="30" style="fill:#87bcbc;fill-opacity:1.00" />
  <line x1="603" y1="50.0" x2="643" y2="50.0" style="stroke:#999; stroke-width:3;" />
  <rect class="anc_exon" x="643" y="35.0" width="96" height="30" style="fill:#87bcbc;fill-opacity:1.00" />
  <line x1="739" y1="50.0" x2="779" y2="50.0" style="stroke:#999; stroke-width:3;" />
  <rect class="anc_exon" x="779" y="35.0" width="20" height="30" style="fill:#87bcbc;fill-opacity:1.00" />
  <line x1="799" y1="50.0" x2="839" y2="50.0" style="stroke:#999; stroke-width:3;" />
  <rect class="anc_exon" x="839" y="35.0" width="151" height="30" style="fill:#87bcbc;fill-opacity:1.00" />
  <line x1="990" y1="50.0" x2="1030" y2="50.0" style="stroke:#999; stroke-width:3;" />
  <rect class="anc_exon" x="1030" y="35.0" width="92" height="30" style="fill:#87bcbc;fill-opacity:1.00" />
  <line x1="1122" y1="50.0" x2="1162" y2="50.0" style="stroke:#999; stroke-width:3;" />
  <rect class="anc_exon" x="1162" y="35.0" width="52" height="30" style="fill:#87bcbc;fill-opacity:1.00" />
  <line x1="1214" y1="50.0" x2="1254" y2="50.0" style="stroke:#999; stroke-width:3;" />
  <rect class="anc_exon" x="1254" y="35.0" width="132" height="30" style="fill:#87bcbc;fill-opacity:1.00" />
  <line x1="1386" y1="50.0" x2="1426" y2="50.0" style="stroke:#999; stroke-width:3;" />
  <rect class="anc_exon" x="1426" y="35.0" width="87" height="30" style="fill:#87bcbc;fill-opacity:1.00" />
  <line x1="1513" y1="50.0" x2="1553" y2="50.0" style="stroke:#999; stroke-width:3;" />
  <rect class="anc_exon" x="1553" y="35.0" width="120" height="30" style="fill:#87bcbc;fill-opacity:1.00" />
  <line x1="1673" y1="50.0" x2="1713" y2="50.0" style="stroke:#999; stroke-width:3;" />
  <rect class="anc_exon" x="1713" y="35.0" width="107" height="30" style="fill:#87bcbc;fill-opacity:1.00" />
  <line x1="1820" y1="50.0" x2="1860" y2="50.0" style="stroke:#999; stroke-width:3;" />
  <rect class="anc_exon" x="1860" y="35.0" width="92" height="30" style="fill:#87bcbc;fill-opacity:1.00" />
  <line x1="1952" y1="50.0" x2="1992" y2="50.0" style="stroke:#999; stroke-width:3;" />
  <rect class="anc_exon" x="1992" y="35.0" width="73" height="30" style="fill:#87bcbc;fill-opacity:1.00" />
  <line x1="2065" y1="50.0" x2="2105" y2="50.0" style="stroke:#999; stroke-width:3;" />
  <rect class="anc_exon" x="2105" y="35.0" width="93" height="30" style="fill:#87bcbc;fill-opacity:1.00" />
  <line x1="2198" y1="50.0" x2="2238" y2="50.0" style="stroke:#999; stroke-width:3;" />
  <rect class="anc_exon" x="2238" y="35.0" width="110" height="30" style="fill:#87bcbc;fill-opacity:1.00" />
  <line x1="2348" y1="50.0" x2="2388" y2="50.0" style="stroke:#999; stroke-width:3;" />
  <rect class="anc_exon" x="2388" y="35.0" width="69" height="30" style="fill:#87bcbc;fill-opacity:1.00" />
  <line x1="2457" y1="50.0" x2="2497" y2="50.0" style="stroke:#999; stroke-width:3;" />
  <rect class="anc_exon" x="2497" y="35.0" width="69" height="30" style="fill:#87bcbc;fill-opacity:1.00" />
  <line x1="2566" y1="50.0" x2="2606" y2="50.0" style="stroke:#999; stroke-width:3;" />
  <rect class="anc_exon" x="2606" y="35.0" width="140" height="30" style="fill:#87bcbc;fill-opacity:1.00" />
  <line x1="2746" y1="50.0" x2="2786" y2="50.0" style="stroke:#999; stroke-width:3;" />
  <rect class="anc_exon" x="2786" y="35.0" width="49" height="30" style="fill:#87bcbc;fill-opacity:1.00" />
  <line x1="2835" y1="50.0" x2="2875" y2="50.0" style="stroke:#999; stroke-width:3;" />
  <rect class="anc_exon" x="2875" y="35.0" width="117" height="30" style="fill:#87bcbc;fill-opacity:1.00" />
  <line x1="2992" y1="50.0" x2="3032" y2="50.0" style="stroke:#999; stroke-width:3;" />
  <rect class="anc_exon" x="3032" y="35.0" width="74" height="30" style="fill:#87bcbc;fill-opacity:1.00" />
  <rect class="anc_exon" x="3106" y="35.0" width="0" height="30" style="fill:#87bcbc;fill-opacity:1.00" />
  <text style="" >
<tspan x="0" y="83.0" style="font-size:18px;" >SP XM_031937943_1.1</tspan>  </text>



<script type="text/ecmascript">
<![CDATA[
function draw_bbox(text_id)
{
    var text_elem = document.getElementById(text_id);
    var offset_px = 2;
    var offset_py = 0;
    bbox = text_elem.getBBox();
    var box = document.createElementNS(document.rootElement.namespaceURI,'rect');
    box.setAttribute('x', bbox.x - offset_px);
    box.setAttribute('y', bbox.y - offset_py);
    box.setAttribute('width', bbox.width + offset_px * 2);
    box.setAttribute('height', bbox.height + offset_py * 2);
    box.setAttribute('style','fill: white;'+'stroke: black;'+'stroke-width: 1px;');
    text_elem.insertBefore(box,text_elem.childNodes[0]);

    var svg = text_elem.parentNode;
    svg.appendChild(text_elem);
}

for (var i=1; i < 1; i++)
{
draw_bbox("Mouseover" + i);
}
]]> 
</script>
</svg>
