<svg version="1.1"
xmlns="http://www.w3.org/2000/svg"
xmlns:xlink="http://www.w3.org/1999/xlink"
width="5241" height="100" viewBox = "0 0 5241 100"
onclick="mouseclick(evt)">

<script type="text/ecmascript">

<![CDATA[
    function mouseover(evt, target) { 
    var gv = document.getElementById("globalVariable");
    var previoustarget = gv.firstChild.nodeValue;
    if (previoustarget != "none") 
    {
        	document.getElementById(gv.firstChild.nodeValue).setAttributeNS(null, "visibility", "hidden");
    }
    document.getElementById(target).setAttributeNS(null, "visibility", "visible");
    gv.firstChild.nodeValue = target;
        }

    function mouseclick(evt) { 
    var gv = document.getElementById("globalVariable");
    var previoustarget = gv.firstChild.nodeValue;
    if (previoustarget != "none") {
        	document.getElementById(gv.firstChild.nodeValue).setAttributeNS(null, "visibility", "hidden");
        }
    }
]]>
  </script>
<style type="text/css" >

<![CDATA[
    rect.anc_exon {
              stroke-width:3;
                  }

    rect.non_anc_exon {
              stroke: black; stroke-width:3; stroke-dasharray: 5,5;
                    }

    text {
              font-size: 18px;
              font-family: Courier New;
          }
                    ]]>
</style>

<defs>
    <text x="150" y="40" id="globalVariable">none</text>
</defs>

  <rect class="anc_exon" x="0" y="35.0" width="0" height="30" style="fill:#87bcbc;fill-opacity:1.00" />
  <rect class="anc_exon" x="0" y="35.0" width="73.60000000000001" height="30" style="fill:#87bcbc;fill-opacity:1.00" />
  <line x1="73.60000000000001" y1="50.0" x2="113.0" y2="50.0" style="stroke:#999; stroke-width:3;" />
  <rect class="anc_exon" x="113" y="35.0" width="75" height="30" style="fill:#87bcbc;fill-opacity:1.00" />
  <line x1="188" y1="50.0" x2="228" y2="50.0" style="stroke:#999; stroke-width:3;" />
  <rect class="anc_exon" x="228" y="35.0" width="78" height="30" style="fill:#87bcbc;fill-opacity:1.00" />
  <line x1="306" y1="50.0" x2="326" y2="50.0" style="stroke:#999; stroke-width:3;" />
  <line x1="326" y1="50.0" x2="326" y2="50.0" style="stroke:#999; stroke-width:3;" />
  <line x1="326" y1="50.0" x2="326" y2="50.0" style="stroke:#999; stroke-width:3;" />
  <line x1="326" y1="50.0" x2="346" y2="50.0" style="stroke:#999; stroke-width:3;" />
  <rect class="anc_exon" x="346" y="35.0" width="107" height="30" style="fill:#87bcbc;fill-opacity:1.00" />
  <line x1="453" y1="50.0" x2="473" y2="50.0" style="stroke:#999; stroke-width:3;" />
  <line x1="473" y1="50.0" x2="473" y2="50.0" style="stroke:#999; stroke-width:3;" />
  <line x1="473" y1="50.0" x2="473" y2="50.0" style="stroke:#999; stroke-width:3;" />
  <line x1="473" y1="50.0" x2="493" y2="50.0" style="stroke:#999; stroke-width:3;" />
  <rect class="anc_exon" x="493" y="35.0" width="175" height="30" style="fill:#87bcbc;fill-opacity:1.00" />
  <line x1="668" y1="50.0" x2="688" y2="50.0" style="stroke:#999; stroke-width:3;" />
  <line x1="688" y1="50.0" x2="688" y2="50.0" style="stroke:#999; stroke-width:3;" />
  <line x1="688" y1="50.0" x2="688" y2="50.0" style="stroke:#999; stroke-width:3;" />
  <line x1="688" y1="50.0" x2="708" y2="50.0" style="stroke:#999; stroke-width:3;" />
  <rect class="anc_exon" x="708" y="35.0" width="54" height="30" style="fill:#87bcbc;fill-opacity:1.00" />
  <line x1="762" y1="50.0" x2="782" y2="50.0" style="stroke:#999; stroke-width:3;" />
  <line x1="782" y1="50.0" x2="782" y2="50.0" style="stroke:#999; stroke-width:3;" />
  <line x1="782" y1="50.0" x2="782" y2="50.0" style="stroke:#999; stroke-width:3;" />
  <line x1="782" y1="50.0" x2="802" y2="50.0" style="stroke:#999; stroke-width:3;" />
  <rect class="anc_exon" x="802" y="35.0" width="53" height="30" style="fill:#87bcbc;fill-opacity:1.00" />
  <line x1="855" y1="50.0" x2="895" y2="50.0" style="stroke:#999; stroke-width:3;" />
  <rect class="anc_exon" x="895" y="35.0" width="200" height="30" style="fill:#87bcbc;fill-opacity:1.00" />
  <line x1="1095" y1="50.0" x2="1135" y2="50.0" style="stroke:#999; stroke-width:3;" />
  <rect class="anc_exon" x="1135" y="35.0" width="77" height="30" style="fill:#87bcbc;fill-opacity:1.00" />
  <line x1="1212" y1="50.0" x2="1252" y2="50.0" style="stroke:#999; stroke-width:3;" />
  <rect class="anc_exon" x="1252" y="35.0" width="168" height="30" style="fill:#87bcbc;fill-opacity:1.00" />
  <line x1="1420" y1="50.0" x2="1440" y2="50.0" style="stroke:#999; stroke-width:3;" />
  <line x1="1440" y1="50.0" x2="1440" y2="50.0" style="stroke:#999; stroke-width:3;" />
  <line x1="1440" y1="50.0" x2="1440" y2="50.0" style="stroke:#999; stroke-width:3;" />
  <line x1="1440" y1="50.0" x2="1460" y2="50.0" style="stroke:#999; stroke-width:3;" />
  <rect class="anc_exon" x="1460" y="35.0" width="134" height="30" style="fill:#87bcbc;fill-opacity:1.00" />
  <line x1="1594" y1="50.0" x2="1614" y2="50.0" style="stroke:#999; stroke-width:3;" />
  <line x1="1614" y1="50.0" x2="1614" y2="50.0" style="stroke:#999; stroke-width:3;" />
  <line x1="1614" y1="50.0" x2="1614" y2="50.0" style="stroke:#999; stroke-width:3;" />
  <line x1="1614" y1="50.0" x2="1634" y2="50.0" style="stroke:#999; stroke-width:3;" />
  <rect class="anc_exon" x="1634" y="35.0" width="65" height="30" style="fill:#87bcbc;fill-opacity:1.00" />
  <line x1="1699" y1="50.0" x2="1719" y2="50.0" style="stroke:#999; stroke-width:3;" />
  <line x1="1719" y1="50.0" x2="1719" y2="50.0" style="stroke:#999; stroke-width:3;" />
  <line x1="1719" y1="50.0" x2="1719" y2="50.0" style="stroke:#999; stroke-width:3;" />
  <line x1="1719" y1="50.0" x2="1739" y2="50.0" style="stroke:#999; stroke-width:3;" />
  <rect class="anc_exon" x="1739" y="35.0" width="108" height="30" style="fill:#87bcbc;fill-opacity:1.00" />
  <line x1="1847" y1="50.0" x2="1887" y2="50.0" style="stroke:#999; stroke-width:3;" />
  <rect class="anc_exon" x="1887" y="35.0" width="157" height="30" style="fill:#87bcbc;fill-opacity:1.00" />
  <line x1="2044" y1="50.0" x2="2084" y2="50.0" style="stroke:#999; stroke-width:3;" />
  <rect class="anc_exon" x="2084" y="35.0" width="2298" height="30" style="fill:#87bcbc;fill-opacity:1.00" />
  <line x1="4382" y1="50.0" x2="4402" y2="50.0" style="stroke:#999; stroke-width:3;" />
  <line x1="4402" y1="50.0" x2="4402" y2="50.0" style="stroke:#999; stroke-width:3;" />
  <line x1="4402" y1="50.0" x2="4402" y2="50.0" style="stroke:#999; stroke-width:3;" />
  <line x1="4402" y1="50.0" x2="4422" y2="50.0" style="stroke:#999; stroke-width:3;" />
  <rect class="anc_exon" x="4422" y="35.0" width="116" height="30" style="fill:#87bcbc;fill-opacity:1.00" />
  <line x1="4538" y1="50.0" x2="4558" y2="50.0" style="stroke:#999; stroke-width:3;" />
  <line x1="4558" y1="50.0" x2="4558" y2="50.0" style="stroke:#999; stroke-width:3;" />
  <line x1="4558" y1="50.0" x2="4558" y2="50.0" style="stroke:#999; stroke-width:3;" />
  <line x1="4558" y1="50.0" x2="4578" y2="50.0" style="stroke:#999; stroke-width:3;" />
  <rect class="anc_exon" x="4578" y="35.0" width="111" height="30" style="fill:#87bcbc;fill-opacity:1.00" />
  <line x1="4689" y1="50.0" x2="4729" y2="50.0" style="stroke:#999; stroke-width:3;" />
  <rect class="anc_exon" x="4729" y="35.0" width="68" height="30" style="fill:#87bcbc;fill-opacity:1.00" />
  <line x1="4797" y1="50.0" x2="4817" y2="50.0" style="stroke:#999; stroke-width:3;" />
  <line x1="4817" y1="50.0" x2="4817" y2="50.0" style="stroke:#999; stroke-width:3;" />
  <line x1="4817" y1="50.0" x2="4817" y2="50.0" style="stroke:#999; stroke-width:3;" />
  <line x1="4817" y1="50.0" x2="4837" y2="50.0" style="stroke:#999; stroke-width:3;" />
  <rect class="anc_exon" x="4837" y="35.0" width="99" height="30" style="fill:#87bcbc;fill-opacity:1.00" />
  <line x1="4936" y1="50.0" x2="4976" y2="50.0" style="stroke:#999; stroke-width:3;" />
  <rect class="anc_exon" x="4976" y="35.0" width="73" height="30" style="fill:#87bcbc;fill-opacity:1.00" />
  <line x1="5049" y1="50.0" x2="5069" y2="50.0" style="stroke:#999; stroke-width:3;" />
  <line x1="5069" y1="50.0" x2="5069" y2="50.0" style="stroke:#999; stroke-width:3;" />
  <line x1="5069" y1="50.0" x2="5069" y2="50.0" style="stroke:#999; stroke-width:3;" />
  <line x1="5069" y1="50.0" x2="5089" y2="50.0" style="stroke:#999; stroke-width:3;" />
  <rect class="anc_exon" x="5089" y="35.0" width="116" height="30" style="fill:#87bcbc;fill-opacity:1.00" />
  <rect class="anc_exon" x="5205" y="35.0" width="0" height="30" style="fill:#87bcbc;fill-opacity:1.00" />
  <text style="" >
<tspan x="0" y="83.0" style="font-size:18px;" >SP XM_031940371_1.1</tspan>  </text>



<script type="text/ecmascript">
<![CDATA[
function draw_bbox(text_id)
{
    var text_elem = document.getElementById(text_id);
    var offset_px = 2;
    var offset_py = 0;
    bbox = text_elem.getBBox();
    var box = document.createElementNS(document.rootElement.namespaceURI,'rect');
    box.setAttribute('x', bbox.x - offset_px);
    box.setAttribute('y', bbox.y - offset_py);
    box.setAttribute('width', bbox.width + offset_px * 2);
    box.setAttribute('height', bbox.height + offset_py * 2);
    box.setAttribute('style','fill: white;'+'stroke: black;'+'stroke-width: 1px;');
    text_elem.insertBefore(box,text_elem.childNodes[0]);

    var svg = text_elem.parentNode;
    svg.appendChild(text_elem);
}

for (var i=1; i < 1; i++)
{
draw_bbox("Mouseover" + i);
}
]]> 
</script>
</svg>
