<svg version="1.1"
xmlns="http://www.w3.org/2000/svg"
xmlns:xlink="http://www.w3.org/1999/xlink"
width="4625" height="100" viewBox = "0 0 4625 100"
onclick="mouseclick(evt)">

<script type="text/ecmascript">

<![CDATA[
    function mouseover(evt, target) { 
    var gv = document.getElementById("globalVariable");
    var previoustarget = gv.firstChild.nodeValue;
    if (previoustarget != "none") 
    {
        	document.getElementById(gv.firstChild.nodeValue).setAttributeNS(null, "visibility", "hidden");
    }
    document.getElementById(target).setAttributeNS(null, "visibility", "visible");
    gv.firstChild.nodeValue = target;
        }

    function mouseclick(evt) { 
    var gv = document.getElementById("globalVariable");
    var previoustarget = gv.firstChild.nodeValue;
    if (previoustarget != "none") {
        	document.getElementById(gv.firstChild.nodeValue).setAttributeNS(null, "visibility", "hidden");
        }
    }
]]>
  </script>
<style type="text/css" >

<![CDATA[
    rect.anc_exon {
              stroke-width:3;
                  }

    rect.non_anc_exon {
              stroke: black; stroke-width:3; stroke-dasharray: 5,5;
                    }

    text {
              font-size: 18px;
              font-family: Courier New;
          }
                    ]]>
</style>

<defs>
    <text x="150" y="40" id="globalVariable">none</text>
</defs>

  <rect class="anc_exon" x="0" y="35.0" width="0" height="30" style="fill:#87bcbc;fill-opacity:1.00" />
  <rect class="anc_exon" x="0" y="35.0" width="659.2" height="30" style="fill:#87bcbc;fill-opacity:1.00" />
  <line x1="659.2" y1="50.0" x2="678.2" y2="50.0" style="stroke:#999; stroke-width:3;" />
  <line x1="678.2" y1="50.0" x2="678.2" y2="50.0" style="stroke:#999; stroke-width:3;" />
  <line x1="678.2" y1="50.0" x2="678.2" y2="50.0" style="stroke:#999; stroke-width:3;" />
  <line x1="678.2" y1="50.0" x2="699.0" y2="50.0" style="stroke:#999; stroke-width:3;" />
  <rect class="anc_exon" x="699" y="35.0" width="84" height="30" style="fill:#87bcbc;fill-opacity:1.00" />
  <line x1="783" y1="50.0" x2="823" y2="50.0" style="stroke:#999; stroke-width:3;" />
  <rect class="anc_exon" x="823" y="35.0" width="40" height="30" style="fill:#87bcbc;fill-opacity:1.00" />
  <line x1="863" y1="50.0" x2="883" y2="50.0" style="stroke:#999; stroke-width:3;" />
  <line x1="883" y1="50.0" x2="883" y2="50.0" style="stroke:#999; stroke-width:3;" />
  <line x1="883" y1="50.0" x2="883" y2="50.0" style="stroke:#999; stroke-width:3;" />
  <line x1="883" y1="50.0" x2="903" y2="50.0" style="stroke:#999; stroke-width:3;" />
  <rect class="anc_exon" x="903" y="35.0" width="128" height="30" style="fill:#87bcbc;fill-opacity:1.00" />
  <line x1="1031" y1="50.0" x2="1051" y2="50.0" style="stroke:#999; stroke-width:3;" />
  <line x1="1051" y1="50.0" x2="1051" y2="50.0" style="stroke:#999; stroke-width:3;" />
  <line x1="1051" y1="50.0" x2="1051" y2="50.0" style="stroke:#999; stroke-width:3;" />
  <line x1="1051" y1="50.0" x2="1071" y2="50.0" style="stroke:#999; stroke-width:3;" />
  <rect class="anc_exon" x="1071" y="35.0" width="140" height="30" style="fill:#87bcbc;fill-opacity:1.00" />
  <line x1="1211" y1="50.0" x2="1231" y2="50.0" style="stroke:#999; stroke-width:3;" />
  <line x1="1231" y1="50.0" x2="1231" y2="50.0" style="stroke:#999; stroke-width:3;" />
  <line x1="1231" y1="50.0" x2="1231" y2="50.0" style="stroke:#999; stroke-width:3;" />
  <line x1="1231" y1="50.0" x2="1251" y2="50.0" style="stroke:#999; stroke-width:3;" />
  <rect class="anc_exon" x="1251" y="35.0" width="104" height="30" style="fill:#87bcbc;fill-opacity:1.00" />
  <line x1="1355" y1="50.0" x2="1395" y2="50.0" style="stroke:#999; stroke-width:3;" />
  <rect class="anc_exon" x="1395" y="35.0" width="118" height="30" style="fill:#87bcbc;fill-opacity:1.00" />
  <line x1="1513" y1="50.0" x2="1533" y2="50.0" style="stroke:#999; stroke-width:3;" />
  <line x1="1533" y1="50.0" x2="1533" y2="50.0" style="stroke:#999; stroke-width:3;" />
  <line x1="1533" y1="50.0" x2="1533" y2="50.0" style="stroke:#999; stroke-width:3;" />
  <line x1="1533" y1="50.0" x2="1553" y2="50.0" style="stroke:#999; stroke-width:3;" />
  <rect class="anc_exon" x="1553" y="35.0" width="372" height="30" style="fill:#878787;fill-opacity:1.00" />
  <line x1="1925" y1="50.0" x2="1945" y2="50.0" style="stroke:#999; stroke-width:3;" />
  <line x1="1945" y1="50.0" x2="1945" y2="50.0" style="stroke:#999; stroke-width:3;" />
  <line x1="1945" y1="50.0" x2="1945" y2="50.0" style="stroke:#999; stroke-width:3;" />
  <line x1="1945" y1="50.0" x2="1965" y2="50.0" style="stroke:#999; stroke-width:3;" />
  <rect class="anc_exon" x="1965" y="35.0" width="147" height="30" style="fill:#87bcbc;fill-opacity:1.00" />
  <line x1="2112" y1="50.0" x2="2132" y2="50.0" style="stroke:#999; stroke-width:3;" />
  <line x1="2132" y1="50.0" x2="2132" y2="50.0" style="stroke:#999; stroke-width:3;" />
  <line x1="2132" y1="50.0" x2="2132" y2="50.0" style="stroke:#999; stroke-width:3;" />
  <line x1="2132" y1="50.0" x2="2152" y2="50.0" style="stroke:#999; stroke-width:3;" />
  <rect class="anc_exon" x="2152" y="35.0" width="131" height="30" style="fill:#87bcbc;fill-opacity:1.00" />
  <line x1="2283" y1="50.0" x2="2323" y2="50.0" style="stroke:#999; stroke-width:3;" />
  <rect class="anc_exon" x="2323" y="35.0" width="129" height="30" style="fill:#87bcbc;fill-opacity:1.00" />
  <line x1="2452" y1="50.0" x2="2472" y2="50.0" style="stroke:#999; stroke-width:3;" />
  <line x1="2472" y1="50.0" x2="2472" y2="50.0" style="stroke:#999; stroke-width:3;" />
  <line x1="2472" y1="50.0" x2="2472" y2="50.0" style="stroke:#999; stroke-width:3;" />
  <line x1="2472" y1="50.0" x2="2492" y2="50.0" style="stroke:#999; stroke-width:3;" />
  <rect class="anc_exon" x="2492" y="35.0" width="96" height="30" style="fill:#87bcbc;fill-opacity:1.00" />
  <line x1="2588" y1="50.0" x2="2608" y2="50.0" style="stroke:#999; stroke-width:3;" />
  <line x1="2608" y1="50.0" x2="2608" y2="50.0" style="stroke:#999; stroke-width:3;" />
  <line x1="2608" y1="50.0" x2="2608" y2="50.0" style="stroke:#999; stroke-width:3;" />
  <line x1="2608" y1="50.0" x2="2628" y2="50.0" style="stroke:#999; stroke-width:3;" />
  <rect class="anc_exon" x="2628" y="35.0" width="62" height="30" style="fill:#87bcbc;fill-opacity:1.00" />
  <line x1="2690" y1="50.0" x2="2730" y2="50.0" style="stroke:#999; stroke-width:3;" />
  <rect class="anc_exon" x="2730" y="35.0" width="1281" height="30" style="fill:#87bcbc;fill-opacity:1.00" />
  <line x1="4011" y1="50.0" x2="4051" y2="50.0" style="stroke:#999; stroke-width:3;" />
  <rect class="anc_exon" x="4051" y="35.0" width="98" height="30" style="fill:#87bcbc;fill-opacity:1.00" />
  <line x1="4149" y1="50.0" x2="4189" y2="50.0" style="stroke:#999; stroke-width:3;" />
  <rect class="anc_exon" x="4189" y="35.0" width="400" height="30" style="fill:#87bcbc;fill-opacity:1.00" />
  <rect class="anc_exon" x="4589" y="35.0" width="0" height="30" style="fill:#87bcbc;fill-opacity:1.00" />
  <text style="" >
<tspan x="0" y="83.0" style="font-size:18px;" >SP XM_031937976_1.1</tspan>  </text>



<script type="text/ecmascript">
<![CDATA[
function draw_bbox(text_id)
{
    var text_elem = document.getElementById(text_id);
    var offset_px = 2;
    var offset_py = 0;
    bbox = text_elem.getBBox();
    var box = document.createElementNS(document.rootElement.namespaceURI,'rect');
    box.setAttribute('x', bbox.x - offset_px);
    box.setAttribute('y', bbox.y - offset_py);
    box.setAttribute('width', bbox.width + offset_px * 2);
    box.setAttribute('height', bbox.height + offset_py * 2);
    box.setAttribute('style','fill: white;'+'stroke: black;'+'stroke-width: 1px;');
    text_elem.insertBefore(box,text_elem.childNodes[0]);

    var svg = text_elem.parentNode;
    svg.appendChild(text_elem);
}

for (var i=1; i < 1; i++)
{
draw_bbox("Mouseover" + i);
}
]]> 
</script>
</svg>
