<svg version="1.1"
xmlns="http://www.w3.org/2000/svg"
xmlns:xlink="http://www.w3.org/1999/xlink"
width="1612" height="110.0" viewBox = "0 -10.0 1612 110.0"
onclick="mouseclick(evt)">

<script type="text/ecmascript">

<![CDATA[
    function mouseover(evt, target) { 
    var gv = document.getElementById("globalVariable");
    var previoustarget = gv.firstChild.nodeValue;
    if (previoustarget != "none") 
    {
        	document.getElementById(gv.firstChild.nodeValue).setAttributeNS(null, "visibility", "hidden");
    }
    document.getElementById(target).setAttributeNS(null, "visibility", "visible");
    gv.firstChild.nodeValue = target;
        }

    function mouseclick(evt) { 
    var gv = document.getElementById("globalVariable");
    var previoustarget = gv.firstChild.nodeValue;
    if (previoustarget != "none") {
        	document.getElementById(gv.firstChild.nodeValue).setAttributeNS(null, "visibility", "hidden");
        }
    }
]]>
  </script>
<style type="text/css" >

<![CDATA[
    rect.anc_exon {
              stroke-width:3;
                  }

    rect.non_anc_exon {
              stroke: black; stroke-width:3; stroke-dasharray: 5,5;
                    }

    text {
              font-size: 18px;
              font-family: Courier New;
          }
                    ]]>
</style>

<defs>
    <text x="150" y="40" id="globalVariable">none</text>
</defs>

  <rect class="anc_exon" x="0" y="35.0" width="0" height="30" style="fill:#87bcbc;fill-opacity:1.00" />
  <rect class="anc_exon" x="0" y="35.0" width="32.800000000000004" height="30" style="fill:#87bcbc;fill-opacity:1.00" />
  <line x1="25.6" y1="35.0" x2="25.6" y2="65.0" style="stroke:#878787;stroke-width:3;"/>
  <text style="" text-anchor="middle">
<tspan x="24.8" y="26.0" style="font-size:18px;fill:#878787;" >TGA</tspan>  </text>
  <line x1="32.800000000000004" y1="50.0" x2="51.800000000000004" y2="50.0" style="stroke:#999; stroke-width:3;" />
  <line x1="51.800000000000004" y1="50.0" x2="51.800000000000004" y2="50.0" style="stroke:#999; stroke-width:3;" />
  <line x1="51.800000000000004" y1="50.0" x2="51.800000000000004" y2="50.0" style="stroke:#999; stroke-width:3;" />
  <line x1="51.800000000000004" y1="50.0" x2="72.0" y2="50.0" style="stroke:#999; stroke-width:3;" />
  <rect class="anc_exon" x="72" y="35.0" width="108" height="30" style="fill:#87bcbc;fill-opacity:1.00" />
  <line x1="180" y1="50.0" x2="200" y2="50.0" style="stroke:#999; stroke-width:3;" />
  <line x1="200" y1="50.0" x2="200" y2="50.0" style="stroke:#999; stroke-width:3;" />
  <line x1="200" y1="50.0" x2="200" y2="50.0" style="stroke:#999; stroke-width:3;" />
  <line x1="200" y1="50.0" x2="220" y2="50.0" style="stroke:#999; stroke-width:3;" />
  <rect class="anc_exon" x="220" y="35.0" width="116" height="30" style="fill:#87bcbc;fill-opacity:1.00" />
  <line x1="336" y1="50.0" x2="356" y2="50.0" style="stroke:#999; stroke-width:3;" />
  <line x1="356" y1="50.0" x2="356" y2="50.0" style="stroke:#999; stroke-width:3;" />
  <line x1="356" y1="50.0" x2="356" y2="50.0" style="stroke:#999; stroke-width:3;" />
  <line x1="356" y1="50.0" x2="376" y2="50.0" style="stroke:#999; stroke-width:3;" />
  <rect class="anc_exon" x="376" y="35.0" width="95" height="30" style="fill:#87bcbc;fill-opacity:1.00" />
  <line x1="471" y1="50.0" x2="511" y2="50.0" style="stroke:#999; stroke-width:3;" />
  <rect class="anc_exon" x="511" y="35.0" width="73" height="30" style="fill:#87bcbc;fill-opacity:1.00" />
  <line x1="584" y1="50.0" x2="624" y2="50.0" style="stroke:#999; stroke-width:3;" />
  <rect class="anc_exon" x="624" y="35.0" width="93" height="30" style="fill:#87bcbc;fill-opacity:1.00" />
  <line x1="717" y1="50.0" x2="757" y2="50.0" style="stroke:#999; stroke-width:3;" />
  <rect class="anc_exon" x="757" y="35.0" width="136" height="30" style="fill:#87bcbc;fill-opacity:1.00" />
  <line x1="893" y1="50.0" x2="913" y2="50.0" style="stroke:#999; stroke-width:3;" />
  <line x1="913" y1="50.0" x2="913" y2="50.0" style="stroke:#999; stroke-width:3;" />
  <line x1="913" y1="50.0" x2="913" y2="50.0" style="stroke:#999; stroke-width:3;" />
  <line x1="913" y1="50.0" x2="933" y2="50.0" style="stroke:#999; stroke-width:3;" />
  <rect class="anc_exon" x="933" y="35.0" width="87" height="30" style="fill:#87bcbc;fill-opacity:1.00" />
  <line x1="1020" y1="50.0" x2="1040" y2="50.0" style="stroke:#999; stroke-width:3;" />
  <line x1="1040" y1="50.0" x2="1040" y2="50.0" style="stroke:#999; stroke-width:3;" />
  <line x1="1040" y1="50.0" x2="1040" y2="50.0" style="stroke:#999; stroke-width:3;" />
  <line x1="1040" y1="50.0" x2="1060" y2="50.0" style="stroke:#999; stroke-width:3;" />
  <rect class="anc_exon" x="1060" y="35.0" width="136" height="30" style="fill:#87bcbc;fill-opacity:1.00" />
  <line x1="1196" y1="50.0" x2="1216" y2="50.0" style="stroke:#999; stroke-width:3;" />
  <line x1="1216" y1="50.0" x2="1216" y2="50.0" style="stroke:#999; stroke-width:3;" />
  <line x1="1216" y1="50.0" x2="1216" y2="50.0" style="stroke:#999; stroke-width:3;" />
  <line x1="1216" y1="50.0" x2="1236" y2="50.0" style="stroke:#999; stroke-width:3;" />
  <rect class="anc_exon" x="1236" y="35.0" width="134" height="30" style="fill:#87bcbc;fill-opacity:1.00" />
  <line x1="1370" y1="50.0" x2="1410" y2="50.0" style="stroke:#999; stroke-width:3;" />
  <rect class="anc_exon" x="1410" y="35.0" width="110" height="30" style="fill:#87bcbc;fill-opacity:1.00" />
  <line x1="1520" y1="50.0" x2="1560" y2="50.0" style="stroke:#999; stroke-width:3;" />
  <rect class="anc_exon" x="1560" y="35.0" width="16" height="30" style="fill:#87bcbc;fill-opacity:1.00" />
  <rect class="anc_exon" x="1576" y="35.0" width="0" height="30" style="fill:#87bcbc;fill-opacity:1.00" />
  <text style="" >
<tspan x="0" y="83.0" style="font-size:18px;" >SP XM_023505101_2.1</tspan>  </text>



<script type="text/ecmascript">
<![CDATA[
function draw_bbox(text_id)
{
    var text_elem = document.getElementById(text_id);
    var offset_px = 2;
    var offset_py = 0;
    bbox = text_elem.getBBox();
    var box = document.createElementNS(document.rootElement.namespaceURI,'rect');
    box.setAttribute('x', bbox.x - offset_px);
    box.setAttribute('y', bbox.y - offset_py);
    box.setAttribute('width', bbox.width + offset_px * 2);
    box.setAttribute('height', bbox.height + offset_py * 2);
    box.setAttribute('style','fill: white;'+'stroke: black;'+'stroke-width: 1px;');
    text_elem.insertBefore(box,text_elem.childNodes[0]);

    var svg = text_elem.parentNode;
    svg.appendChild(text_elem);
}

for (var i=1; i < 1; i++)
{
draw_bbox("Mouseover" + i);
}
]]> 
</script>
</svg>
