<svg version="1.1"
xmlns="http://www.w3.org/2000/svg"
xmlns:xlink="http://www.w3.org/1999/xlink"
width="3392" height="100" viewBox = "0 0 3392 100"
onclick="mouseclick(evt)">

<script type="text/ecmascript">

<![CDATA[
    function mouseover(evt, target) { 
    var gv = document.getElementById("globalVariable");
    var previoustarget = gv.firstChild.nodeValue;
    if (previoustarget != "none") 
    {
        	document.getElementById(gv.firstChild.nodeValue).setAttributeNS(null, "visibility", "hidden");
    }
    document.getElementById(target).setAttributeNS(null, "visibility", "visible");
    gv.firstChild.nodeValue = target;
        }

    function mouseclick(evt) { 
    var gv = document.getElementById("globalVariable");
    var previoustarget = gv.firstChild.nodeValue;
    if (previoustarget != "none") {
        	document.getElementById(gv.firstChild.nodeValue).setAttributeNS(null, "visibility", "hidden");
        }
    }
]]>
  </script>
<style type="text/css" >

<![CDATA[
    rect.anc_exon {
              stroke-width:3;
                  }

    rect.non_anc_exon {
              stroke: black; stroke-width:3; stroke-dasharray: 5,5;
                    }

    text {
              font-size: 18px;
              font-family: Courier New;
          }
                    ]]>
</style>

<defs>
    <text x="150" y="40" id="globalVariable">none</text>
</defs>

  <rect class="anc_exon" x="0" y="35.0" width="0" height="30" style="fill:#87bcbc;fill-opacity:1.00" />
  <rect class="anc_exon" x="0" y="35.0" width="12.8" height="30" style="fill:#87bcbc;fill-opacity:1.00" />
  <line x1="12.8" y1="50.0" x2="31.8" y2="50.0" style="stroke:#999; stroke-width:3;" />
  <line x1="31.8" y1="50.0" x2="31.8" y2="50.0" style="stroke:#999; stroke-width:3;" />
  <line x1="31.8" y1="50.0" x2="31.8" y2="50.0" style="stroke:#999; stroke-width:3;" />
  <line x1="31.8" y1="50.0" x2="52.0" y2="50.0" style="stroke:#999; stroke-width:3;" />
  <rect class="anc_exon" x="52" y="35.0" width="50" height="30" style="fill:#878787;fill-opacity:1.00" />
  <line x1="102" y1="50.0" x2="122" y2="50.0" style="stroke:#999; stroke-width:3;" />
  <line x1="122" y1="50.0" x2="122" y2="50.0" style="stroke:#999; stroke-width:3;" />
  <line x1="122" y1="50.0" x2="122" y2="50.0" style="stroke:#999; stroke-width:3;" />
  <line x1="122" y1="50.0" x2="142" y2="50.0" style="stroke:#999; stroke-width:3;" />
  <rect class="anc_exon" x="142" y="35.0" width="193" height="30" style="fill:#87bcbc;fill-opacity:1.00" />
  <line x1="335" y1="50.0" x2="355" y2="50.0" style="stroke:#999; stroke-width:3;" />
  <line x1="355" y1="50.0" x2="355" y2="50.0" style="stroke:#999; stroke-width:3;" />
  <line x1="355" y1="50.0" x2="355" y2="50.0" style="stroke:#999; stroke-width:3;" />
  <line x1="355" y1="50.0" x2="375" y2="50.0" style="stroke:#999; stroke-width:3;" />
  <rect class="anc_exon" x="375" y="35.0" width="123" height="30" style="fill:#87bcbc;fill-opacity:1.00" />
  <line x1="498" y1="50.0" x2="538" y2="50.0" style="stroke:#999; stroke-width:3;" />
  <rect class="anc_exon" x="538" y="35.0" width="101" height="30" style="fill:#87bcbc;fill-opacity:1.00" />
  <line x1="639" y1="50.0" x2="659" y2="50.0" style="stroke:#999; stroke-width:3;" />
  <line x1="659" y1="50.0" x2="659" y2="50.0" style="stroke:#999; stroke-width:3;" />
  <line x1="659" y1="50.0" x2="659" y2="50.0" style="stroke:#999; stroke-width:3;" />
  <line x1="659" y1="50.0" x2="679" y2="50.0" style="stroke:#999; stroke-width:3;" />
  <rect class="anc_exon" x="679" y="35.0" width="97" height="30" style="fill:#87bcbc;fill-opacity:1.00" />
  <line x1="776" y1="50.0" x2="796" y2="50.0" style="stroke:#999; stroke-width:3;" />
  <line x1="796" y1="50.0" x2="796" y2="50.0" style="stroke:#999; stroke-width:3;" />
  <line x1="796" y1="50.0" x2="796" y2="50.0" style="stroke:#999; stroke-width:3;" />
  <line x1="796" y1="50.0" x2="816" y2="50.0" style="stroke:#999; stroke-width:3;" />
  <rect class="anc_exon" x="816" y="35.0" width="105" height="30" style="fill:#87bcbc;fill-opacity:1.00" />
  <line x1="921" y1="50.0" x2="941" y2="50.0" style="stroke:#999; stroke-width:3;" />
  <line x1="941" y1="50.0" x2="941" y2="50.0" style="stroke:#999; stroke-width:3;" />
  <line x1="941" y1="50.0" x2="941" y2="50.0" style="stroke:#999; stroke-width:3;" />
  <line x1="941" y1="50.0" x2="961" y2="50.0" style="stroke:#999; stroke-width:3;" />
  <rect class="anc_exon" x="961" y="35.0" width="95" height="30" style="fill:#87bcbc;fill-opacity:1.00" />
  <line x1="1056" y1="50.0" x2="1076" y2="50.0" style="stroke:#999; stroke-width:3;" />
  <line x1="1076" y1="50.0" x2="1076" y2="50.0" style="stroke:#999; stroke-width:3;" />
  <line x1="1076" y1="50.0" x2="1076" y2="50.0" style="stroke:#999; stroke-width:3;" />
  <line x1="1076" y1="50.0" x2="1096" y2="50.0" style="stroke:#999; stroke-width:3;" />
  <rect class="anc_exon" x="1096" y="35.0" width="98" height="30" style="fill:#87bcbc;fill-opacity:1.00" />
  <line x1="1194" y1="50.0" x2="1214" y2="50.0" style="stroke:#999; stroke-width:3;" />
  <line x1="1214" y1="50.0" x2="1214" y2="50.0" style="stroke:#999; stroke-width:3;" />
  <line x1="1214" y1="50.0" x2="1214" y2="50.0" style="stroke:#999; stroke-width:3;" />
  <line x1="1214" y1="50.0" x2="1234" y2="50.0" style="stroke:#999; stroke-width:3;" />
  <rect class="anc_exon" x="1234" y="35.0" width="171" height="30" style="fill:#87bcbc;fill-opacity:1.00" />
  <line x1="1405" y1="50.0" x2="1445" y2="50.0" style="stroke:#999; stroke-width:3;" />
  <rect class="anc_exon" x="1445" y="35.0" width="174" height="30" style="fill:#87bcbc;fill-opacity:1.00" />
  <line x1="1619" y1="50.0" x2="1639" y2="50.0" style="stroke:#999; stroke-width:3;" />
  <line x1="1639" y1="50.0" x2="1639" y2="50.0" style="stroke:#999; stroke-width:3;" />
  <line x1="1639" y1="50.0" x2="1639" y2="50.0" style="stroke:#999; stroke-width:3;" />
  <line x1="1639" y1="50.0" x2="1659" y2="50.0" style="stroke:#999; stroke-width:3;" />
  <rect class="anc_exon" x="1659" y="35.0" width="142" height="30" style="fill:#87bcbc;fill-opacity:1.00" />
  <line x1="1801" y1="50.0" x2="1821" y2="50.0" style="stroke:#999; stroke-width:3;" />
  <line x1="1821" y1="50.0" x2="1821" y2="50.0" style="stroke:#999; stroke-width:3;" />
  <line x1="1821" y1="50.0" x2="1821" y2="50.0" style="stroke:#999; stroke-width:3;" />
  <line x1="1821" y1="50.0" x2="1841" y2="50.0" style="stroke:#999; stroke-width:3;" />
  <rect class="anc_exon" x="1841" y="35.0" width="107" height="30" style="fill:#87bcbc;fill-opacity:1.00" />
  <line x1="1948" y1="50.0" x2="1968" y2="50.0" style="stroke:#999; stroke-width:3;" />
  <line x1="1968" y1="50.0" x2="1968" y2="50.0" style="stroke:#999; stroke-width:3;" />
  <line x1="1968" y1="50.0" x2="1968" y2="50.0" style="stroke:#999; stroke-width:3;" />
  <line x1="1968" y1="50.0" x2="1988" y2="50.0" style="stroke:#999; stroke-width:3;" />
  <rect class="anc_exon" x="1988" y="35.0" width="96" height="30" style="fill:#87bcbc;fill-opacity:1.00" />
  <line x1="2084" y1="50.0" x2="2104" y2="50.0" style="stroke:#999; stroke-width:3;" />
  <line x1="2104" y1="50.0" x2="2104" y2="50.0" style="stroke:#999; stroke-width:3;" />
  <line x1="2104" y1="50.0" x2="2104" y2="50.0" style="stroke:#999; stroke-width:3;" />
  <line x1="2104" y1="50.0" x2="2124" y2="50.0" style="stroke:#999; stroke-width:3;" />
  <rect class="anc_exon" x="2124" y="35.0" width="40" height="30" style="fill:#87bcbc;fill-opacity:1.00" />
  <line x1="2164" y1="50.0" x2="2184" y2="50.0" style="stroke:#999; stroke-width:3;" />
  <line x1="2184" y1="50.0" x2="2184" y2="50.0" style="stroke:#999; stroke-width:3;" />
  <line x1="2184" y1="50.0" x2="2184" y2="50.0" style="stroke:#999; stroke-width:3;" />
  <line x1="2184" y1="50.0" x2="2204" y2="50.0" style="stroke:#999; stroke-width:3;" />
  <rect class="anc_exon" x="2204" y="35.0" width="86" height="30" style="fill:#87bcbc;fill-opacity:1.00" />
  <line x1="2290" y1="50.0" x2="2310" y2="50.0" style="stroke:#999; stroke-width:3;" />
  <line x1="2310" y1="50.0" x2="2310" y2="50.0" style="stroke:#999; stroke-width:3;" />
  <line x1="2310" y1="50.0" x2="2310" y2="50.0" style="stroke:#999; stroke-width:3;" />
  <line x1="2310" y1="50.0" x2="2330" y2="50.0" style="stroke:#999; stroke-width:3;" />
  <rect class="anc_exon" x="2330" y="35.0" width="44" height="30" style="fill:#87bcbc;fill-opacity:1.00" />
  <line x1="2374" y1="50.0" x2="2414" y2="50.0" style="stroke:#999; stroke-width:3;" />
  <rect class="anc_exon" x="2414" y="35.0" width="70" height="30" style="fill:#87bcbc;fill-opacity:1.00" />
  <line x1="2484" y1="50.0" x2="2504" y2="50.0" style="stroke:#999; stroke-width:3;" />
  <line x1="2504" y1="50.0" x2="2504" y2="50.0" style="stroke:#999; stroke-width:3;" />
  <line x1="2504" y1="50.0" x2="2504" y2="50.0" style="stroke:#999; stroke-width:3;" />
  <line x1="2504" y1="50.0" x2="2524" y2="50.0" style="stroke:#999; stroke-width:3;" />
  <rect class="anc_exon" x="2524" y="35.0" width="96" height="30" style="fill:#87bcbc;fill-opacity:1.00" />
  <line x1="2620" y1="50.0" x2="2660" y2="50.0" style="stroke:#999; stroke-width:3;" />
  <rect class="anc_exon" x="2660" y="35.0" width="78" height="30" style="fill:#87bcbc;fill-opacity:1.00" />
  <line x1="2738" y1="50.0" x2="2758" y2="50.0" style="stroke:#999; stroke-width:3;" />
  <line x1="2758" y1="50.0" x2="2758" y2="50.0" style="stroke:#999; stroke-width:3;" />
  <line x1="2758" y1="50.0" x2="2758" y2="50.0" style="stroke:#999; stroke-width:3;" />
  <line x1="2758" y1="50.0" x2="2778" y2="50.0" style="stroke:#999; stroke-width:3;" />
  <rect class="anc_exon" x="2778" y="35.0" width="95" height="30" style="fill:#87bcbc;fill-opacity:1.00" />
  <line x1="2873" y1="50.0" x2="2893" y2="50.0" style="stroke:#999; stroke-width:3;" />
  <line x1="2893" y1="50.0" x2="2893" y2="50.0" style="stroke:#999; stroke-width:3;" />
  <line x1="2893" y1="50.0" x2="2893" y2="50.0" style="stroke:#999; stroke-width:3;" />
  <line x1="2893" y1="50.0" x2="2913" y2="50.0" style="stroke:#999; stroke-width:3;" />
  <rect class="anc_exon" x="2913" y="35.0" width="107" height="30" style="fill:#87bcbc;fill-opacity:1.00" />
  <line x1="3020" y1="50.0" x2="3040" y2="50.0" style="stroke:#999; stroke-width:3;" />
  <line x1="3040" y1="50.0" x2="3040" y2="50.0" style="stroke:#999; stroke-width:3;" />
  <line x1="3040" y1="50.0" x2="3040" y2="50.0" style="stroke:#999; stroke-width:3;" />
  <line x1="3040" y1="50.0" x2="3060" y2="50.0" style="stroke:#999; stroke-width:3;" />
  <rect class="anc_exon" x="3060" y="35.0" width="68" height="30" style="fill:#87bcbc;fill-opacity:1.00" />
  <line x1="3128" y1="50.0" x2="3148" y2="50.0" style="stroke:#999; stroke-width:3;" />
  <line x1="3148" y1="50.0" x2="3148" y2="50.0" style="stroke:#999; stroke-width:3;" />
  <line x1="3148" y1="50.0" x2="3148" y2="50.0" style="stroke:#999; stroke-width:3;" />
  <line x1="3148" y1="50.0" x2="3168" y2="50.0" style="stroke:#999; stroke-width:3;" />
  <rect class="anc_exon" x="3168" y="35.0" width="116" height="30" style="fill:#87bcbc;fill-opacity:1.00" />
  <line x1="3284" y1="50.0" x2="3304" y2="50.0" style="stroke:#999; stroke-width:3;" />
  <line x1="3304" y1="50.0" x2="3304" y2="50.0" style="stroke:#999; stroke-width:3;" />
  <line x1="3304" y1="50.0" x2="3304" y2="50.0" style="stroke:#999; stroke-width:3;" />
  <line x1="3304" y1="50.0" x2="3324" y2="50.0" style="stroke:#999; stroke-width:3;" />
  <rect class="anc_exon" x="3324" y="35.0" width="32" height="30" style="fill:#87bcbc;fill-opacity:1.00" />
  <rect class="anc_exon" x="3356" y="35.0" width="0" height="30" style="fill:#87bcbc;fill-opacity:1.00" />
  <text style="" >
<tspan x="0" y="83.0" style="font-size:18px;" >SP XM_031940668_1.1</tspan>  </text>



<script type="text/ecmascript">
<![CDATA[
function draw_bbox(text_id)
{
    var text_elem = document.getElementById(text_id);
    var offset_px = 2;
    var offset_py = 0;
    bbox = text_elem.getBBox();
    var box = document.createElementNS(document.rootElement.namespaceURI,'rect');
    box.setAttribute('x', bbox.x - offset_px);
    box.setAttribute('y', bbox.y - offset_py);
    box.setAttribute('width', bbox.width + offset_px * 2);
    box.setAttribute('height', bbox.height + offset_py * 2);
    box.setAttribute('style','fill: white;'+'stroke: black;'+'stroke-width: 1px;');
    text_elem.insertBefore(box,text_elem.childNodes[0]);

    var svg = text_elem.parentNode;
    svg.appendChild(text_elem);
}

for (var i=1; i < 1; i++)
{
draw_bbox("Mouseover" + i);
}
]]> 
</script>
</svg>
