<svg version="1.1"
xmlns="http://www.w3.org/2000/svg"
xmlns:xlink="http://www.w3.org/1999/xlink"
width="6217" height="100" viewBox = "0 0 6217 100"
onclick="mouseclick(evt)">

<script type="text/ecmascript">

<![CDATA[
    function mouseover(evt, target) { 
    var gv = document.getElementById("globalVariable");
    var previoustarget = gv.firstChild.nodeValue;
    if (previoustarget != "none") 
    {
        	document.getElementById(gv.firstChild.nodeValue).setAttributeNS(null, "visibility", "hidden");
    }
    document.getElementById(target).setAttributeNS(null, "visibility", "visible");
    gv.firstChild.nodeValue = target;
        }

    function mouseclick(evt) { 
    var gv = document.getElementById("globalVariable");
    var previoustarget = gv.firstChild.nodeValue;
    if (previoustarget != "none") {
        	document.getElementById(gv.firstChild.nodeValue).setAttributeNS(null, "visibility", "hidden");
        }
    }
]]>
  </script>
<style type="text/css" >

<![CDATA[
    rect.anc_exon {
              stroke-width:3;
                  }

    rect.non_anc_exon {
              stroke: black; stroke-width:3; stroke-dasharray: 5,5;
                    }

    text {
              font-size: 18px;
              font-family: Courier New;
          }
                    ]]>
</style>

<defs>
    <text x="150" y="40" id="globalVariable">none</text>
</defs>

  <rect class="anc_exon" x="0" y="35.0" width="0" height="30" style="fill:#87bcbc;fill-opacity:1.00" />
  <rect class="anc_exon" x="0" y="35.0" width="519.2" height="30" style="fill:#87bcbc;fill-opacity:1.00" />
  <line x1="519.2" y1="50.0" x2="538.2" y2="50.0" style="stroke:#999; stroke-width:3;" />
  <line x1="538.2" y1="50.0" x2="538.2" y2="50.0" style="stroke:#999; stroke-width:3;" />
  <line x1="538.2" y1="50.0" x2="538.2" y2="50.0" style="stroke:#999; stroke-width:3;" />
  <line x1="538.2" y1="50.0" x2="559.0" y2="50.0" style="stroke:#999; stroke-width:3;" />
  <rect class="anc_exon" x="559" y="35.0" width="333" height="30" style="fill:#87bcbc;fill-opacity:1.00" />
  <line x1="892" y1="50.0" x2="912" y2="50.0" style="stroke:#999; stroke-width:3;" />
  <line x1="912" y1="50.0" x2="912" y2="50.0" style="stroke:#999; stroke-width:3;" />
  <line x1="912" y1="50.0" x2="912" y2="50.0" style="stroke:#999; stroke-width:3;" />
  <line x1="912" y1="50.0" x2="932" y2="50.0" style="stroke:#999; stroke-width:3;" />
  <rect class="anc_exon" x="932" y="35.0" width="52" height="30" style="fill:#87bcbc;fill-opacity:1.00" />
  <line x1="984" y1="50.0" x2="1004" y2="50.0" style="stroke:#999; stroke-width:3;" />
  <line x1="1004" y1="50.0" x2="1004" y2="50.0" style="stroke:#999; stroke-width:3;" />
  <line x1="1004" y1="50.0" x2="1004" y2="50.0" style="stroke:#999; stroke-width:3;" />
  <line x1="1004" y1="50.0" x2="1024" y2="50.0" style="stroke:#999; stroke-width:3;" />
  <rect class="anc_exon" x="1024" y="35.0" width="159" height="30" style="fill:#87bcbc;fill-opacity:1.00" />
  <line x1="1183" y1="50.0" x2="1223" y2="50.0" style="stroke:#999; stroke-width:3;" />
  <rect class="anc_exon" x="1223" y="35.0" width="179" height="30" style="fill:#87bcbc;fill-opacity:1.00" />
  <line x1="1402" y1="50.0" x2="1442" y2="50.0" style="stroke:#999; stroke-width:3;" />
  <rect class="anc_exon" x="1442" y="35.0" width="99" height="30" style="fill:#87bcbc;fill-opacity:1.00" />
  <line x1="1541" y1="50.0" x2="1561" y2="50.0" style="stroke:#999; stroke-width:3;" />
  <line x1="1561" y1="50.0" x2="1561" y2="50.0" style="stroke:#999; stroke-width:3;" />
  <line x1="1561" y1="50.0" x2="1561" y2="50.0" style="stroke:#999; stroke-width:3;" />
  <line x1="1561" y1="50.0" x2="1581" y2="50.0" style="stroke:#999; stroke-width:3;" />
  <rect class="anc_exon" x="1581" y="35.0" width="90" height="30" style="fill:#87bcbc;fill-opacity:1.00" />
  <line x1="1671" y1="50.0" x2="1691" y2="50.0" style="stroke:#999; stroke-width:3;" />
  <line x1="1691" y1="50.0" x2="1691" y2="50.0" style="stroke:#999; stroke-width:3;" />
  <line x1="1691" y1="50.0" x2="1691" y2="50.0" style="stroke:#999; stroke-width:3;" />
  <line x1="1691" y1="50.0" x2="1711" y2="50.0" style="stroke:#999; stroke-width:3;" />
  <rect class="anc_exon" x="1711" y="35.0" width="170" height="30" style="fill:#87bcbc;fill-opacity:1.00" />
  <line x1="1881" y1="50.0" x2="1921" y2="50.0" style="stroke:#999; stroke-width:3;" />
  <rect class="anc_exon" x="1921" y="35.0" width="132" height="30" style="fill:#87bcbc;fill-opacity:1.00" />
  <line x1="2053" y1="50.0" x2="2093" y2="50.0" style="stroke:#999; stroke-width:3;" />
  <rect class="anc_exon" x="2093" y="35.0" width="110" height="30" style="fill:#87bcbc;fill-opacity:1.00" />
  <line x1="2203" y1="50.0" x2="2243" y2="50.0" style="stroke:#999; stroke-width:3;" />
  <rect class="anc_exon" x="2243" y="35.0" width="95" height="30" style="fill:#87bcbc;fill-opacity:1.00" />
  <line x1="2338" y1="50.0" x2="2378" y2="50.0" style="stroke:#999; stroke-width:3;" />
  <rect class="anc_exon" x="2378" y="35.0" width="120" height="30" style="fill:#87bcbc;fill-opacity:1.00" />
  <line x1="2498" y1="50.0" x2="2518" y2="50.0" style="stroke:#999; stroke-width:3;" />
  <line x1="2518" y1="50.0" x2="2518" y2="50.0" style="stroke:#999; stroke-width:3;" />
  <line x1="2518" y1="50.0" x2="2518" y2="50.0" style="stroke:#999; stroke-width:3;" />
  <line x1="2518" y1="50.0" x2="2538" y2="50.0" style="stroke:#999; stroke-width:3;" />
  <rect class="anc_exon" x="2538" y="35.0" width="140" height="30" style="fill:#87bcbc;fill-opacity:1.00" />
  <line x1="2678" y1="50.0" x2="2718" y2="50.0" style="stroke:#999; stroke-width:3;" />
  <rect class="anc_exon" x="2718" y="35.0" width="105" height="30" style="fill:#87bcbc;fill-opacity:1.00" />
  <line x1="2823" y1="50.0" x2="2863" y2="50.0" style="stroke:#999; stroke-width:3;" />
  <rect class="anc_exon" x="2863" y="35.0" width="434" height="30" style="fill:#87bcbc;fill-opacity:1.00" />
  <line x1="3297" y1="50.0" x2="3337" y2="50.0" style="stroke:#999; stroke-width:3;" />
  <rect class="anc_exon" x="3337" y="35.0" width="88" height="30" style="fill:#87bcbc;fill-opacity:1.00" />
  <line x1="3425" y1="50.0" x2="3465" y2="50.0" style="stroke:#999; stroke-width:3;" />
  <rect class="anc_exon" x="3465" y="35.0" width="105" height="30" style="fill:#87bcbc;fill-opacity:1.00" />
  <line x1="3570" y1="50.0" x2="3610" y2="50.0" style="stroke:#999; stroke-width:3;" />
  <rect class="anc_exon" x="3610" y="35.0" width="97" height="30" style="fill:#87bcbc;fill-opacity:1.00" />
  <line x1="3707" y1="50.0" x2="3747" y2="50.0" style="stroke:#999; stroke-width:3;" />
  <rect class="anc_exon" x="3747" y="35.0" width="81" height="30" style="fill:#87bcbc;fill-opacity:1.00" />
  <line x1="3828" y1="50.0" x2="3868" y2="50.0" style="stroke:#999; stroke-width:3;" />
  <rect class="anc_exon" x="3868" y="35.0" width="100" height="30" style="fill:#87bcbc;fill-opacity:1.00" />
  <line x1="3968" y1="50.0" x2="4008" y2="50.0" style="stroke:#999; stroke-width:3;" />
  <rect class="anc_exon" x="4008" y="35.0" width="147" height="30" style="fill:#87bcbc;fill-opacity:1.00" />
  <line x1="4155" y1="50.0" x2="4175" y2="50.0" style="stroke:#999; stroke-width:3;" />
  <line x1="4175" y1="50.0" x2="4175" y2="50.0" style="stroke:#999; stroke-width:3;" />
  <line x1="4175" y1="50.0" x2="4175" y2="50.0" style="stroke:#999; stroke-width:3;" />
  <line x1="4175" y1="50.0" x2="4195" y2="50.0" style="stroke:#999; stroke-width:3;" />
  <rect class="anc_exon" x="4195" y="35.0" width="149" height="30" style="fill:#87bcbc;fill-opacity:1.00" />
  <line x1="4344" y1="50.0" x2="4384" y2="50.0" style="stroke:#999; stroke-width:3;" />
  <rect class="anc_exon" x="4384" y="35.0" width="151" height="30" style="fill:#87bcbc;fill-opacity:1.00" />
  <line x1="4535" y1="50.0" x2="4575" y2="50.0" style="stroke:#999; stroke-width:3;" />
  <rect class="anc_exon" x="4575" y="35.0" width="190" height="30" style="fill:#87bcbc;fill-opacity:1.00" />
  <line x1="4765" y1="50.0" x2="4785" y2="50.0" style="stroke:#999; stroke-width:3;" />
  <line x1="4785" y1="50.0" x2="4785" y2="50.0" style="stroke:#999; stroke-width:3;" />
  <line x1="4785" y1="50.0" x2="4785" y2="50.0" style="stroke:#999; stroke-width:3;" />
  <line x1="4785" y1="50.0" x2="4805" y2="50.0" style="stroke:#999; stroke-width:3;" />
  <rect class="anc_exon" x="4805" y="35.0" width="84" height="30" style="fill:#87bcbc;fill-opacity:1.00" />
  <line x1="4889" y1="50.0" x2="4929" y2="50.0" style="stroke:#999; stroke-width:3;" />
  <rect class="anc_exon" x="4929" y="35.0" width="159" height="30" style="fill:#87bcbc;fill-opacity:1.00" />
  <line x1="5088" y1="50.0" x2="5128" y2="50.0" style="stroke:#999; stroke-width:3;" />
  <rect class="anc_exon" x="5128" y="35.0" width="76" height="30" style="fill:#87bcbc;fill-opacity:1.00" />
  <line x1="5204" y1="50.0" x2="5224" y2="50.0" style="stroke:#999; stroke-width:3;" />
  <line x1="5224" y1="50.0" x2="5224" y2="50.0" style="stroke:#999; stroke-width:3;" />
  <line x1="5224" y1="50.0" x2="5224" y2="50.0" style="stroke:#999; stroke-width:3;" />
  <line x1="5224" y1="50.0" x2="5244" y2="50.0" style="stroke:#999; stroke-width:3;" />
  <rect class="anc_exon" x="5244" y="35.0" width="88" height="30" style="fill:#87bcbc;fill-opacity:1.00" />
  <line x1="5332" y1="50.0" x2="5372" y2="50.0" style="stroke:#999; stroke-width:3;" />
  <rect class="anc_exon" x="5372" y="35.0" width="84" height="30" style="fill:#87bcbc;fill-opacity:1.00" />
  <line x1="5456" y1="50.0" x2="5496" y2="50.0" style="stroke:#999; stroke-width:3;" />
  <rect class="anc_exon" x="5496" y="35.0" width="132" height="30" style="fill:#87bcbc;fill-opacity:1.00" />
  <line x1="5628" y1="50.0" x2="5668" y2="50.0" style="stroke:#999; stroke-width:3;" />
  <rect class="anc_exon" x="5668" y="35.0" width="80" height="30" style="fill:#87bcbc;fill-opacity:1.00" />
  <line x1="5748" y1="50.0" x2="5788" y2="50.0" style="stroke:#999; stroke-width:3;" />
  <rect class="anc_exon" x="5788" y="35.0" width="81" height="30" style="fill:#87bcbc;fill-opacity:1.00" />
  <line x1="5869" y1="50.0" x2="5909" y2="50.0" style="stroke:#999; stroke-width:3;" />
  <rect class="anc_exon" x="5909" y="35.0" width="32" height="30" style="fill:#87bcbc;fill-opacity:1.00" />
  <line x1="5941" y1="50.0" x2="5981" y2="50.0" style="stroke:#999; stroke-width:3;" />
  <rect class="anc_exon" x="5981" y="35.0" width="50" height="30" style="fill:#87bcbc;fill-opacity:1.00" />
  <line x1="6031" y1="50.0" x2="6071" y2="50.0" style="stroke:#999; stroke-width:3;" />
  <rect class="anc_exon" x="6071" y="35.0" width="110" height="30" style="fill:#87bcbc;fill-opacity:1.00" />
  <rect class="anc_exon" x="6181" y="35.0" width="0" height="30" style="fill:#87bcbc;fill-opacity:1.00" />
  <text style="" >
<tspan x="0" y="83.0" style="font-size:18px;" >SP XM_023504306_2.1</tspan>  </text>



<script type="text/ecmascript">
<![CDATA[
function draw_bbox(text_id)
{
    var text_elem = document.getElementById(text_id);
    var offset_px = 2;
    var offset_py = 0;
    bbox = text_elem.getBBox();
    var box = document.createElementNS(document.rootElement.namespaceURI,'rect');
    box.setAttribute('x', bbox.x - offset_px);
    box.setAttribute('y', bbox.y - offset_py);
    box.setAttribute('width', bbox.width + offset_px * 2);
    box.setAttribute('height', bbox.height + offset_py * 2);
    box.setAttribute('style','fill: white;'+'stroke: black;'+'stroke-width: 1px;');
    text_elem.insertBefore(box,text_elem.childNodes[0]);

    var svg = text_elem.parentNode;
    svg.appendChild(text_elem);
}

for (var i=1; i < 1; i++)
{
draw_bbox("Mouseover" + i);
}
]]> 
</script>
</svg>
