<svg version="1.1"
xmlns="http://www.w3.org/2000/svg"
xmlns:xlink="http://www.w3.org/1999/xlink"
width="2418" height="100" viewBox = "0 0 2418 100"
onclick="mouseclick(evt)">

<script type="text/ecmascript">

<![CDATA[
    function mouseover(evt, target) { 
    var gv = document.getElementById("globalVariable");
    var previoustarget = gv.firstChild.nodeValue;
    if (previoustarget != "none") 
    {
        	document.getElementById(gv.firstChild.nodeValue).setAttributeNS(null, "visibility", "hidden");
    }
    document.getElementById(target).setAttributeNS(null, "visibility", "visible");
    gv.firstChild.nodeValue = target;
        }

    function mouseclick(evt) { 
    var gv = document.getElementById("globalVariable");
    var previoustarget = gv.firstChild.nodeValue;
    if (previoustarget != "none") {
        	document.getElementById(gv.firstChild.nodeValue).setAttributeNS(null, "visibility", "hidden");
        }
    }
]]>
  </script>
<style type="text/css" >

<![CDATA[
    rect.anc_exon {
              stroke-width:3;
                  }

    rect.non_anc_exon {
              stroke: black; stroke-width:3; stroke-dasharray: 5,5;
                    }

    text {
              font-size: 18px;
              font-family: Courier New;
          }
                    ]]>
</style>

<defs>
    <text x="150" y="40" id="globalVariable">none</text>
</defs>

  <rect class="anc_exon" x="0" y="35.0" width="0" height="30" style="fill:#87bcbc;fill-opacity:1.00" />
  <rect class="anc_exon" x="0" y="35.0" width="12.8" height="30" style="fill:#87bcbc;fill-opacity:1.00" />
  <line x1="12.8" y1="50.0" x2="52.0" y2="50.0" style="stroke:#999; stroke-width:3;" />
  <rect class="anc_exon" x="52" y="35.0" width="44" height="30" style="fill:#87bcbc;fill-opacity:1.00" />
  <line x1="96" y1="50.0" x2="116" y2="50.0" style="stroke:#999; stroke-width:3;" />
  <line x1="116" y1="50.0" x2="116" y2="50.0" style="stroke:#999; stroke-width:3;" />
  <line x1="116" y1="50.0" x2="116" y2="50.0" style="stroke:#999; stroke-width:3;" />
  <line x1="116" y1="50.0" x2="136" y2="50.0" style="stroke:#999; stroke-width:3;" />
  <rect class="anc_exon" x="136" y="35.0" width="121" height="30" style="fill:#87bcbc;fill-opacity:1.00" />
  <line x1="257" y1="50.0" x2="277" y2="50.0" style="stroke:#999; stroke-width:3;" />
  <line x1="277" y1="50.0" x2="277" y2="50.0" style="stroke:#999; stroke-width:3;" />
  <line x1="277" y1="50.0" x2="277" y2="50.0" style="stroke:#999; stroke-width:3;" />
  <line x1="277" y1="50.0" x2="297" y2="50.0" style="stroke:#999; stroke-width:3;" />
  <rect class="anc_exon" x="297" y="35.0" width="87" height="30" style="fill:#87bcbc;fill-opacity:1.00" />
  <line x1="384" y1="50.0" x2="424" y2="50.0" style="stroke:#999; stroke-width:3;" />
  <rect class="anc_exon" x="424" y="35.0" width="70" height="30" style="fill:#87bcbc;fill-opacity:1.00" />
  <line x1="494" y1="50.0" x2="534" y2="50.0" style="stroke:#999; stroke-width:3;" />
  <rect class="anc_exon" x="534" y="35.0" width="70" height="30" style="fill:#87bcbc;fill-opacity:1.00" />
  <line x1="604" y1="50.0" x2="624" y2="50.0" style="stroke:#999; stroke-width:3;" />
  <line x1="624" y1="50.0" x2="624" y2="50.0" style="stroke:#999; stroke-width:3;" />
  <line x1="624" y1="50.0" x2="624" y2="50.0" style="stroke:#999; stroke-width:3;" />
  <line x1="624" y1="50.0" x2="644" y2="50.0" style="stroke:#999; stroke-width:3;" />
  <rect class="anc_exon" x="644" y="35.0" width="85" height="30" style="fill:#87bcbc;fill-opacity:1.00" />
  <line x1="729" y1="50.0" x2="749" y2="50.0" style="stroke:#999; stroke-width:3;" />
  <line x1="749" y1="50.0" x2="749" y2="50.0" style="stroke:#999; stroke-width:3;" />
  <line x1="749" y1="50.0" x2="749" y2="50.0" style="stroke:#999; stroke-width:3;" />
  <line x1="749" y1="50.0" x2="769" y2="50.0" style="stroke:#999; stroke-width:3;" />
  <rect class="anc_exon" x="769" y="35.0" width="132" height="30" style="fill:#87bcbc;fill-opacity:1.00" />
  <line x1="901" y1="50.0" x2="941" y2="50.0" style="stroke:#999; stroke-width:3;" />
  <rect class="anc_exon" x="941" y="35.0" width="20" height="30" style="fill:#87bcbc;fill-opacity:1.00" />
  <line x1="961" y1="50.0" x2="1001" y2="50.0" style="stroke:#999; stroke-width:3;" />
  <rect class="anc_exon" x="1001" y="35.0" width="197" height="30" style="fill:#87bcbc;fill-opacity:1.00" />
  <line x1="1198" y1="50.0" x2="1238" y2="50.0" style="stroke:#999; stroke-width:3;" />
  <rect class="anc_exon" x="1238" y="35.0" width="386" height="30" style="fill:#87bcbc;fill-opacity:1.00" />
  <line x1="1624" y1="50.0" x2="1644" y2="50.0" style="stroke:#999; stroke-width:3;" />
  <line x1="1644" y1="50.0" x2="1644" y2="50.0" style="stroke:#999; stroke-width:3;" />
  <line x1="1644" y1="50.0" x2="1644" y2="50.0" style="stroke:#999; stroke-width:3;" />
  <line x1="1644" y1="50.0" x2="1664" y2="50.0" style="stroke:#999; stroke-width:3;" />
  <rect class="anc_exon" x="1664" y="35.0" width="80" height="30" style="fill:#87bcbc;fill-opacity:1.00" />
  <line x1="1744" y1="50.0" x2="1784" y2="50.0" style="stroke:#999; stroke-width:3;" />
  <rect class="anc_exon" x="1784" y="35.0" width="86" height="30" style="fill:#87bcbc;fill-opacity:1.00" />
  <line x1="1870" y1="50.0" x2="1890" y2="50.0" style="stroke:#999; stroke-width:3;" />
  <line x1="1890" y1="50.0" x2="1890" y2="50.0" style="stroke:#999; stroke-width:3;" />
  <line x1="1890" y1="50.0" x2="1890" y2="50.0" style="stroke:#999; stroke-width:3;" />
  <line x1="1890" y1="50.0" x2="1910" y2="50.0" style="stroke:#999; stroke-width:3;" />
  <rect class="anc_exon" x="1910" y="35.0" width="56" height="30" style="fill:#87bcbc;fill-opacity:1.00" />
  <line x1="1966" y1="50.0" x2="2006" y2="50.0" style="stroke:#999; stroke-width:3;" />
  <rect class="anc_exon" x="2006" y="35.0" width="74" height="30" style="fill:#87bcbc;fill-opacity:1.00" />
  <line x1="2080" y1="50.0" x2="2120" y2="50.0" style="stroke:#999; stroke-width:3;" />
  <rect class="anc_exon" x="2120" y="35.0" width="74" height="30" style="fill:#87bcbc;fill-opacity:1.00" />
  <line x1="2194" y1="50.0" x2="2214" y2="50.0" style="stroke:#999; stroke-width:3;" />
  <line x1="2214" y1="50.0" x2="2214" y2="50.0" style="stroke:#999; stroke-width:3;" />
  <line x1="2214" y1="50.0" x2="2214" y2="50.0" style="stroke:#999; stroke-width:3;" />
  <line x1="2214" y1="50.0" x2="2234" y2="50.0" style="stroke:#999; stroke-width:3;" />
  <rect class="anc_exon" x="2234" y="35.0" width="148" height="30" style="fill:#87bcbc;fill-opacity:1.00" />
  <rect class="anc_exon" x="2382" y="35.0" width="0" height="30" style="fill:#87bcbc;fill-opacity:1.00" />
  <text style="" >
<tspan x="0" y="83.0" style="font-size:18px;" >SP XM_031938727_1.1</tspan>  </text>



<script type="text/ecmascript">
<![CDATA[
function draw_bbox(text_id)
{
    var text_elem = document.getElementById(text_id);
    var offset_px = 2;
    var offset_py = 0;
    bbox = text_elem.getBBox();
    var box = document.createElementNS(document.rootElement.namespaceURI,'rect');
    box.setAttribute('x', bbox.x - offset_px);
    box.setAttribute('y', bbox.y - offset_py);
    box.setAttribute('width', bbox.width + offset_px * 2);
    box.setAttribute('height', bbox.height + offset_py * 2);
    box.setAttribute('style','fill: white;'+'stroke: black;'+'stroke-width: 1px;');
    text_elem.insertBefore(box,text_elem.childNodes[0]);

    var svg = text_elem.parentNode;
    svg.appendChild(text_elem);
}

for (var i=1; i < 1; i++)
{
draw_bbox("Mouseover" + i);
}
]]> 
</script>
</svg>
