<svg version="1.1"
xmlns="http://www.w3.org/2000/svg"
xmlns:xlink="http://www.w3.org/1999/xlink"
width="3478" height="100" viewBox = "0 0 3478 100"
onclick="mouseclick(evt)">

<script type="text/ecmascript">

<![CDATA[
    function mouseover(evt, target) { 
    var gv = document.getElementById("globalVariable");
    var previoustarget = gv.firstChild.nodeValue;
    if (previoustarget != "none") 
    {
        	document.getElementById(gv.firstChild.nodeValue).setAttributeNS(null, "visibility", "hidden");
    }
    document.getElementById(target).setAttributeNS(null, "visibility", "visible");
    gv.firstChild.nodeValue = target;
        }

    function mouseclick(evt) { 
    var gv = document.getElementById("globalVariable");
    var previoustarget = gv.firstChild.nodeValue;
    if (previoustarget != "none") {
        	document.getElementById(gv.firstChild.nodeValue).setAttributeNS(null, "visibility", "hidden");
        }
    }
]]>
  </script>
<style type="text/css" >

<![CDATA[
    rect.anc_exon {
              stroke-width:3;
                  }

    rect.non_anc_exon {
              stroke: black; stroke-width:3; stroke-dasharray: 5,5;
                    }

    text {
              font-size: 18px;
              font-family: Courier New;
          }
                    ]]>
</style>

<defs>
    <text x="150" y="40" id="globalVariable">none</text>
</defs>

  <rect class="anc_exon" x="0" y="35.0" width="0" height="30" style="fill:#87bcbc;fill-opacity:1.00" />
  <rect class="anc_exon" x="0" y="35.0" width="53.6" height="30" style="fill:#87bcbc;fill-opacity:1.00" />
  <line x1="53.6" y1="50.0" x2="72.6" y2="50.0" style="stroke:#999; stroke-width:3;" />
  <line x1="72.6" y1="50.0" x2="72.6" y2="50.0" style="stroke:#999; stroke-width:3;" />
  <line x1="72.6" y1="50.0" x2="72.6" y2="50.0" style="stroke:#999; stroke-width:3;" />
  <line x1="72.6" y1="50.0" x2="93.0" y2="50.0" style="stroke:#999; stroke-width:3;" />
  <rect class="anc_exon" x="93" y="35.0" width="156" height="30" style="fill:#87bcbc;fill-opacity:1.00" />
  <line x1="249" y1="50.0" x2="269" y2="50.0" style="stroke:#999; stroke-width:3;" />
  <line x1="269" y1="50.0" x2="269" y2="50.0" style="stroke:#999; stroke-width:3;" />
  <line x1="269" y1="50.0" x2="269" y2="50.0" style="stroke:#999; stroke-width:3;" />
  <line x1="269" y1="50.0" x2="289" y2="50.0" style="stroke:#999; stroke-width:3;" />
  <rect class="anc_exon" x="289" y="35.0" width="130" height="30" style="fill:#87bcbc;fill-opacity:1.00" />
  <line x1="419" y1="50.0" x2="439" y2="50.0" style="stroke:#999; stroke-width:3;" />
  <line x1="439" y1="50.0" x2="439" y2="50.0" style="stroke:#999; stroke-width:3;" />
  <line x1="439" y1="50.0" x2="439" y2="50.0" style="stroke:#999; stroke-width:3;" />
  <line x1="439" y1="50.0" x2="459" y2="50.0" style="stroke:#999; stroke-width:3;" />
  <rect class="anc_exon" x="459" y="35.0" width="50" height="30" style="fill:#87bcbc;fill-opacity:1.00" />
  <line x1="509" y1="50.0" x2="529" y2="50.0" style="stroke:#999; stroke-width:3;" />
  <line x1="529" y1="50.0" x2="529" y2="50.0" style="stroke:#999; stroke-width:3;" />
  <line x1="529" y1="50.0" x2="529" y2="50.0" style="stroke:#999; stroke-width:3;" />
  <line x1="529" y1="50.0" x2="549" y2="50.0" style="stroke:#999; stroke-width:3;" />
  <rect class="anc_exon" x="549" y="35.0" width="146" height="30" style="fill:#87bcbc;fill-opacity:1.00" />
  <line x1="695" y1="50.0" x2="735" y2="50.0" style="stroke:#999; stroke-width:3;" />
  <rect class="anc_exon" x="735" y="35.0" width="103" height="30" style="fill:#87bcbc;fill-opacity:1.00" />
  <line x1="838" y1="50.0" x2="858" y2="50.0" style="stroke:#999; stroke-width:3;" />
  <line x1="858" y1="50.0" x2="858" y2="50.0" style="stroke:#999; stroke-width:3;" />
  <line x1="858" y1="50.0" x2="858" y2="50.0" style="stroke:#999; stroke-width:3;" />
  <line x1="858" y1="50.0" x2="878" y2="50.0" style="stroke:#999; stroke-width:3;" />
  <rect class="anc_exon" x="878" y="35.0" width="177" height="30" style="fill:#87bcbc;fill-opacity:1.00" />
  <line x1="1055" y1="50.0" x2="1095" y2="50.0" style="stroke:#999; stroke-width:3;" />
  <rect class="anc_exon" x="1095" y="35.0" width="81" height="30" style="fill:#87bcbc;fill-opacity:1.00" />
  <line x1="1176" y1="50.0" x2="1196" y2="50.0" style="stroke:#999; stroke-width:3;" />
  <line x1="1196" y1="50.0" x2="1196" y2="50.0" style="stroke:#999; stroke-width:3;" />
  <line x1="1196" y1="50.0" x2="1196" y2="50.0" style="stroke:#999; stroke-width:3;" />
  <line x1="1196" y1="50.0" x2="1216" y2="50.0" style="stroke:#999; stroke-width:3;" />
  <rect class="anc_exon" x="1216" y="35.0" width="158" height="30" style="fill:#87bcbc;fill-opacity:1.00" />
  <line x1="1374" y1="50.0" x2="1414" y2="50.0" style="stroke:#999; stroke-width:3;" />
  <rect class="anc_exon" x="1414" y="35.0" width="68" height="30" style="fill:#87bcbc;fill-opacity:1.00" />
  <line x1="1482" y1="50.0" x2="1502" y2="50.0" style="stroke:#999; stroke-width:3;" />
  <line x1="1502" y1="50.0" x2="1502" y2="50.0" style="stroke:#999; stroke-width:3;" />
  <line x1="1502" y1="50.0" x2="1502" y2="50.0" style="stroke:#999; stroke-width:3;" />
  <line x1="1502" y1="50.0" x2="1522" y2="50.0" style="stroke:#999; stroke-width:3;" />
  <rect class="anc_exon" x="1522" y="35.0" width="22" height="30" style="fill:#87bcbc;fill-opacity:1.00" />
  <line x1="1544" y1="50.0" x2="1564" y2="50.0" style="stroke:#999; stroke-width:3;" />
  <line x1="1564" y1="50.0" x2="1564" y2="50.0" style="stroke:#999; stroke-width:3;" />
  <line x1="1564" y1="50.0" x2="1564" y2="50.0" style="stroke:#999; stroke-width:3;" />
  <line x1="1564" y1="50.0" x2="1584" y2="50.0" style="stroke:#999; stroke-width:3;" />
  <rect class="anc_exon" x="1584" y="35.0" width="82" height="30" style="fill:#87bcbc;fill-opacity:1.00" />
  <line x1="1666" y1="50.0" x2="1686" y2="50.0" style="stroke:#999; stroke-width:3;" />
  <line x1="1686" y1="50.0" x2="1686" y2="50.0" style="stroke:#999; stroke-width:3;" />
  <line x1="1686" y1="50.0" x2="1686" y2="50.0" style="stroke:#999; stroke-width:3;" />
  <line x1="1686" y1="50.0" x2="1706" y2="50.0" style="stroke:#999; stroke-width:3;" />
  <rect class="anc_exon" x="1706" y="35.0" width="48" height="30" style="fill:#87bcbc;fill-opacity:1.00" />
  <line x1="1754" y1="50.0" x2="1794" y2="50.0" style="stroke:#999; stroke-width:3;" />
  <rect class="anc_exon" x="1794" y="35.0" width="62" height="30" style="fill:#87bcbc;fill-opacity:1.00" />
  <line x1="1856" y1="50.0" x2="1876" y2="50.0" style="stroke:#999; stroke-width:3;" />
  <line x1="1876" y1="50.0" x2="1876" y2="50.0" style="stroke:#999; stroke-width:3;" />
  <line x1="1876" y1="50.0" x2="1876" y2="50.0" style="stroke:#999; stroke-width:3;" />
  <line x1="1876" y1="50.0" x2="1896" y2="50.0" style="stroke:#999; stroke-width:3;" />
  <rect class="anc_exon" x="1896" y="35.0" width="108" height="30" style="fill:#87bcbc;fill-opacity:1.00" />
  <line x1="2004" y1="50.0" x2="2024" y2="50.0" style="stroke:#999; stroke-width:3;" />
  <line x1="2024" y1="50.0" x2="2024" y2="50.0" style="stroke:#999; stroke-width:3;" />
  <line x1="2024" y1="50.0" x2="2024" y2="50.0" style="stroke:#999; stroke-width:3;" />
  <line x1="2024" y1="50.0" x2="2044" y2="50.0" style="stroke:#999; stroke-width:3;" />
  <rect class="anc_exon" x="2044" y="35.0" width="84" height="30" style="fill:#87bcbc;fill-opacity:1.00" />
  <line x1="2128" y1="50.0" x2="2148" y2="50.0" style="stroke:#999; stroke-width:3;" />
  <line x1="2148" y1="50.0" x2="2148" y2="50.0" style="stroke:#999; stroke-width:3;" />
  <line x1="2148" y1="50.0" x2="2148" y2="50.0" style="stroke:#999; stroke-width:3;" />
  <line x1="2148" y1="50.0" x2="2168" y2="50.0" style="stroke:#999; stroke-width:3;" />
  <rect class="anc_exon" x="2168" y="35.0" width="180" height="30" style="fill:#87bcbc;fill-opacity:1.00" />
  <line x1="2348" y1="50.0" x2="2368" y2="50.0" style="stroke:#999; stroke-width:3;" />
  <line x1="2368" y1="50.0" x2="2368" y2="50.0" style="stroke:#999; stroke-width:3;" />
  <line x1="2368" y1="50.0" x2="2368" y2="50.0" style="stroke:#999; stroke-width:3;" />
  <line x1="2368" y1="50.0" x2="2388" y2="50.0" style="stroke:#999; stroke-width:3;" />
  <rect class="anc_exon" x="2388" y="35.0" width="64" height="30" style="fill:#87bcbc;fill-opacity:1.00" />
  <line x1="2452" y1="50.0" x2="2472" y2="50.0" style="stroke:#999; stroke-width:3;" />
  <line x1="2472" y1="50.0" x2="2472" y2="50.0" style="stroke:#999; stroke-width:3;" />
  <line x1="2472" y1="50.0" x2="2472" y2="50.0" style="stroke:#999; stroke-width:3;" />
  <line x1="2472" y1="50.0" x2="2492" y2="50.0" style="stroke:#999; stroke-width:3;" />
  <rect class="anc_exon" x="2492" y="35.0" width="144" height="30" style="fill:#87bcbc;fill-opacity:1.00" />
  <line x1="2636" y1="50.0" x2="2676" y2="50.0" style="stroke:#999; stroke-width:3;" />
  <rect class="anc_exon" x="2676" y="35.0" width="108" height="30" style="fill:#87bcbc;fill-opacity:1.00" />
  <line x1="2784" y1="50.0" x2="2824" y2="50.0" style="stroke:#999; stroke-width:3;" />
  <rect class="anc_exon" x="2824" y="35.0" width="276" height="30" style="fill:#87bcbc;fill-opacity:1.00" />
  <line x1="3100" y1="50.0" x2="3120" y2="50.0" style="stroke:#999; stroke-width:3;" />
  <line x1="3120" y1="50.0" x2="3120" y2="50.0" style="stroke:#999; stroke-width:3;" />
  <line x1="3120" y1="50.0" x2="3120" y2="50.0" style="stroke:#999; stroke-width:3;" />
  <line x1="3120" y1="50.0" x2="3140" y2="50.0" style="stroke:#999; stroke-width:3;" />
  <rect class="anc_exon" x="3140" y="35.0" width="302" height="30" style="fill:#87bcbc;fill-opacity:1.00" />
  <rect class="anc_exon" x="3442" y="35.0" width="0" height="30" style="fill:#87bcbc;fill-opacity:1.00" />
  <text style="" >
<tspan x="0" y="83.0" style="font-size:18px;" >SP XM_031940925_1.1</tspan>  </text>



<script type="text/ecmascript">
<![CDATA[
function draw_bbox(text_id)
{
    var text_elem = document.getElementById(text_id);
    var offset_px = 2;
    var offset_py = 0;
    bbox = text_elem.getBBox();
    var box = document.createElementNS(document.rootElement.namespaceURI,'rect');
    box.setAttribute('x', bbox.x - offset_px);
    box.setAttribute('y', bbox.y - offset_py);
    box.setAttribute('width', bbox.width + offset_px * 2);
    box.setAttribute('height', bbox.height + offset_py * 2);
    box.setAttribute('style','fill: white;'+'stroke: black;'+'stroke-width: 1px;');
    text_elem.insertBefore(box,text_elem.childNodes[0]);

    var svg = text_elem.parentNode;
    svg.appendChild(text_elem);
}

for (var i=1; i < 1; i++)
{
draw_bbox("Mouseover" + i);
}
]]> 
</script>
</svg>
