<svg version="1.1"
xmlns="http://www.w3.org/2000/svg"
xmlns:xlink="http://www.w3.org/1999/xlink"
width="2371" height="100" viewBox = "0 0 2371 100"
onclick="mouseclick(evt)">

<script type="text/ecmascript">

<![CDATA[
    function mouseover(evt, target) { 
    var gv = document.getElementById("globalVariable");
    var previoustarget = gv.firstChild.nodeValue;
    if (previoustarget != "none") 
    {
        	document.getElementById(gv.firstChild.nodeValue).setAttributeNS(null, "visibility", "hidden");
    }
    document.getElementById(target).setAttributeNS(null, "visibility", "visible");
    gv.firstChild.nodeValue = target;
        }

    function mouseclick(evt) { 
    var gv = document.getElementById("globalVariable");
    var previoustarget = gv.firstChild.nodeValue;
    if (previoustarget != "none") {
        	document.getElementById(gv.firstChild.nodeValue).setAttributeNS(null, "visibility", "hidden");
        }
    }
]]>
  </script>
<style type="text/css" >

<![CDATA[
    rect.anc_exon {
              stroke-width:3;
                  }

    rect.non_anc_exon {
              stroke: black; stroke-width:3; stroke-dasharray: 5,5;
                    }

    text {
              font-size: 18px;
              font-family: Courier New;
          }
                    ]]>
</style>

<defs>
    <text x="150" y="40" id="globalVariable">none</text>
</defs>

  <rect class="anc_exon" x="0" y="35.0" width="0" height="30" style="fill:#87bcbc;fill-opacity:1.00" />
  <rect class="anc_exon" x="0" y="35.0" width="94.4" height="30" style="fill:#87bcbc;fill-opacity:1.00" />
  <line x1="94.4" y1="50.0" x2="113.4" y2="50.0" style="stroke:#999; stroke-width:3;" />
  <line x1="113.4" y1="50.0" x2="113.4" y2="50.0" style="stroke:#999; stroke-width:3;" />
  <line x1="113.4" y1="50.0" x2="113.4" y2="50.0" style="stroke:#999; stroke-width:3;" />
  <line x1="113.4" y1="50.0" x2="134.0" y2="50.0" style="stroke:#999; stroke-width:3;" />
  <rect class="anc_exon" x="134" y="35.0" width="160" height="30" style="fill:#87bcbc;fill-opacity:1.00" />
  <line x1="294" y1="50.0" x2="314" y2="50.0" style="stroke:#999; stroke-width:3;" />
  <line x1="314" y1="50.0" x2="314" y2="50.0" style="stroke:#999; stroke-width:3;" />
  <line x1="314" y1="50.0" x2="314" y2="50.0" style="stroke:#999; stroke-width:3;" />
  <line x1="314" y1="50.0" x2="334" y2="50.0" style="stroke:#999; stroke-width:3;" />
  <rect class="anc_exon" x="334" y="35.0" width="48" height="30" style="fill:#87bcbc;fill-opacity:1.00" />
  <line x1="382" y1="50.0" x2="402" y2="50.0" style="stroke:#999; stroke-width:3;" />
  <line x1="402" y1="50.0" x2="402" y2="50.0" style="stroke:#999; stroke-width:3;" />
  <line x1="402" y1="50.0" x2="402" y2="50.0" style="stroke:#999; stroke-width:3;" />
  <line x1="402" y1="50.0" x2="422" y2="50.0" style="stroke:#999; stroke-width:3;" />
  <rect class="anc_exon" x="422" y="35.0" width="130" height="30" style="fill:#87bcbc;fill-opacity:1.00" />
  <line x1="552" y1="50.0" x2="572" y2="50.0" style="stroke:#999; stroke-width:3;" />
  <line x1="572" y1="50.0" x2="572" y2="50.0" style="stroke:#999; stroke-width:3;" />
  <line x1="572" y1="50.0" x2="572" y2="50.0" style="stroke:#999; stroke-width:3;" />
  <line x1="572" y1="50.0" x2="592" y2="50.0" style="stroke:#999; stroke-width:3;" />
  <rect class="anc_exon" x="592" y="35.0" width="25" height="30" style="fill:#87bcbc;fill-opacity:1.00" />
  <line x1="617" y1="50.0" x2="657" y2="50.0" style="stroke:#999; stroke-width:3;" />
  <rect class="anc_exon" x="657" y="35.0" width="68" height="30" style="fill:#87bcbc;fill-opacity:1.00" />
  <line x1="725" y1="50.0" x2="765" y2="50.0" style="stroke:#999; stroke-width:3;" />
  <rect class="anc_exon" x="765" y="35.0" width="104" height="30" style="fill:#87bcbc;fill-opacity:1.00" />
  <line x1="869" y1="50.0" x2="889" y2="50.0" style="stroke:#999; stroke-width:3;" />
  <line x1="889" y1="50.0" x2="889" y2="50.0" style="stroke:#999; stroke-width:3;" />
  <line x1="889" y1="50.0" x2="889" y2="50.0" style="stroke:#999; stroke-width:3;" />
  <line x1="889" y1="50.0" x2="909" y2="50.0" style="stroke:#999; stroke-width:3;" />
  <rect class="anc_exon" x="909" y="35.0" width="88" height="30" style="fill:#87bcbc;fill-opacity:1.00" />
  <line x1="997" y1="50.0" x2="1037" y2="50.0" style="stroke:#999; stroke-width:3;" />
  <rect class="anc_exon" x="1037" y="35.0" width="99" height="30" style="fill:#87bcbc;fill-opacity:1.00" />
  <line x1="1136" y1="50.0" x2="1156" y2="50.0" style="stroke:#999; stroke-width:3;" />
  <line x1="1156" y1="50.0" x2="1156" y2="50.0" style="stroke:#999; stroke-width:3;" />
  <line x1="1156" y1="50.0" x2="1156" y2="50.0" style="stroke:#999; stroke-width:3;" />
  <line x1="1156" y1="50.0" x2="1176" y2="50.0" style="stroke:#999; stroke-width:3;" />
  <rect class="anc_exon" x="1176" y="35.0" width="128" height="30" style="fill:#87bcbc;fill-opacity:1.00" />
  <line x1="1304" y1="50.0" x2="1324" y2="50.0" style="stroke:#999; stroke-width:3;" />
  <line x1="1324" y1="50.0" x2="1324" y2="50.0" style="stroke:#999; stroke-width:3;" />
  <line x1="1324" y1="50.0" x2="1324" y2="50.0" style="stroke:#999; stroke-width:3;" />
  <line x1="1324" y1="50.0" x2="1344" y2="50.0" style="stroke:#999; stroke-width:3;" />
  <rect class="anc_exon" x="1344" y="35.0" width="139" height="30" style="fill:#87bcbc;fill-opacity:1.00" />
  <line x1="1483" y1="50.0" x2="1503" y2="50.0" style="stroke:#999; stroke-width:3;" />
  <line x1="1503" y1="50.0" x2="1503" y2="50.0" style="stroke:#999; stroke-width:3;" />
  <line x1="1503" y1="50.0" x2="1503" y2="50.0" style="stroke:#999; stroke-width:3;" />
  <line x1="1503" y1="50.0" x2="1523" y2="50.0" style="stroke:#999; stroke-width:3;" />
  <rect class="anc_exon" x="1523" y="35.0" width="73" height="30" style="fill:#87bcbc;fill-opacity:1.00" />
  <line x1="1596" y1="50.0" x2="1636" y2="50.0" style="stroke:#999; stroke-width:3;" />
  <rect class="anc_exon" x="1636" y="35.0" width="50" height="30" style="fill:#87bcbc;fill-opacity:1.00" />
  <line x1="1686" y1="50.0" x2="1706" y2="50.0" style="stroke:#999; stroke-width:3;" />
  <line x1="1706" y1="50.0" x2="1706" y2="50.0" style="stroke:#999; stroke-width:3;" />
  <line x1="1706" y1="50.0" x2="1706" y2="50.0" style="stroke:#999; stroke-width:3;" />
  <line x1="1706" y1="50.0" x2="1726" y2="50.0" style="stroke:#999; stroke-width:3;" />
  <rect class="anc_exon" x="1726" y="35.0" width="111" height="30" style="fill:#87bcbc;fill-opacity:1.00" />
  <line x1="1837" y1="50.0" x2="1857" y2="50.0" style="stroke:#999; stroke-width:3;" />
  <line x1="1857" y1="50.0" x2="1857" y2="50.0" style="stroke:#999; stroke-width:3;" />
  <line x1="1857" y1="50.0" x2="1857" y2="50.0" style="stroke:#999; stroke-width:3;" />
  <line x1="1857" y1="50.0" x2="1877" y2="50.0" style="stroke:#999; stroke-width:3;" />
  <rect class="anc_exon" x="1877" y="35.0" width="151" height="30" style="fill:#87bcbc;fill-opacity:1.00" />
  <line x1="2028" y1="50.0" x2="2048" y2="50.0" style="stroke:#999; stroke-width:3;" />
  <line x1="2048" y1="50.0" x2="2048" y2="50.0" style="stroke:#999; stroke-width:3;" />
  <line x1="2048" y1="50.0" x2="2048" y2="50.0" style="stroke:#999; stroke-width:3;" />
  <line x1="2048" y1="50.0" x2="2068" y2="50.0" style="stroke:#999; stroke-width:3;" />
  <rect class="anc_exon" x="2068" y="35.0" width="103" height="30" style="fill:#87bcbc;fill-opacity:1.00" />
  <line x1="2171" y1="50.0" x2="2191" y2="50.0" style="stroke:#999; stroke-width:3;" />
  <line x1="2191" y1="50.0" x2="2191" y2="50.0" style="stroke:#999; stroke-width:3;" />
  <line x1="2191" y1="50.0" x2="2191" y2="50.0" style="stroke:#999; stroke-width:3;" />
  <line x1="2191" y1="50.0" x2="2211" y2="50.0" style="stroke:#999; stroke-width:3;" />
  <rect class="anc_exon" x="2211" y="35.0" width="124" height="30" style="fill:#87bcbc;fill-opacity:1.00" />
  <rect class="anc_exon" x="2335" y="35.0" width="0" height="30" style="fill:#87bcbc;fill-opacity:1.00" />
  <text style="" >
<tspan x="0" y="83.0" style="font-size:18px;" >SP XM_031938503_1.1</tspan>  </text>



<script type="text/ecmascript">
<![CDATA[
function draw_bbox(text_id)
{
    var text_elem = document.getElementById(text_id);
    var offset_px = 2;
    var offset_py = 0;
    bbox = text_elem.getBBox();
    var box = document.createElementNS(document.rootElement.namespaceURI,'rect');
    box.setAttribute('x', bbox.x - offset_px);
    box.setAttribute('y', bbox.y - offset_py);
    box.setAttribute('width', bbox.width + offset_px * 2);
    box.setAttribute('height', bbox.height + offset_py * 2);
    box.setAttribute('style','fill: white;'+'stroke: black;'+'stroke-width: 1px;');
    text_elem.insertBefore(box,text_elem.childNodes[0]);

    var svg = text_elem.parentNode;
    svg.appendChild(text_elem);
}

for (var i=1; i < 1; i++)
{
draw_bbox("Mouseover" + i);
}
]]> 
</script>
</svg>
