<svg version="1.1"
xmlns="http://www.w3.org/2000/svg"
xmlns:xlink="http://www.w3.org/1999/xlink"
width="1336" height="100" viewBox = "0 0 1336 100"
onclick="mouseclick(evt)">

<script type="text/ecmascript">

<![CDATA[
    function mouseover(evt, target) { 
    var gv = document.getElementById("globalVariable");
    var previoustarget = gv.firstChild.nodeValue;
    if (previoustarget != "none") 
    {
        	document.getElementById(gv.firstChild.nodeValue).setAttributeNS(null, "visibility", "hidden");
    }
    document.getElementById(target).setAttributeNS(null, "visibility", "visible");
    gv.firstChild.nodeValue = target;
        }

    function mouseclick(evt) { 
    var gv = document.getElementById("globalVariable");
    var previoustarget = gv.firstChild.nodeValue;
    if (previoustarget != "none") {
        	document.getElementById(gv.firstChild.nodeValue).setAttributeNS(null, "visibility", "hidden");
        }
    }
]]>
  </script>
<style type="text/css" >

<![CDATA[
    rect.anc_exon {
              stroke-width:3;
                  }

    rect.non_anc_exon {
              stroke: black; stroke-width:3; stroke-dasharray: 5,5;
                    }

    text {
              font-size: 18px;
              font-family: Courier New;
          }
                    ]]>
</style>

<defs>
    <text x="150" y="40" id="globalVariable">none</text>
</defs>

  <rect class="anc_exon" x="0" y="35.0" width="0" height="30" style="fill:#87bcbc;fill-opacity:1.00" />
  <rect class="anc_exon" x="0" y="35.0" width="353.6" height="30" style="fill:#87bcbc;fill-opacity:1.00" />
  <line x1="353.6" y1="50.0" x2="372.6" y2="50.0" style="stroke:#999; stroke-width:3;" />
  <line x1="372.6" y1="50.0" x2="372.6" y2="50.0" style="stroke:#999; stroke-width:3;" />
  <line x1="372.6" y1="50.0" x2="372.6" y2="50.0" style="stroke:#999; stroke-width:3;" />
  <line x1="372.6" y1="50.0" x2="393.0" y2="50.0" style="stroke:#999; stroke-width:3;" />
  <rect class="anc_exon" x="393" y="35.0" width="88" height="30" style="fill:#87bcbc;fill-opacity:1.00" />
  <line x1="481" y1="50.0" x2="501" y2="50.0" style="stroke:#999; stroke-width:3;" />
  <line x1="501" y1="50.0" x2="501" y2="50.0" style="stroke:#999; stroke-width:3;" />
  <line x1="501" y1="50.0" x2="501" y2="50.0" style="stroke:#999; stroke-width:3;" />
  <line x1="501" y1="50.0" x2="521" y2="50.0" style="stroke:#999; stroke-width:3;" />
  <rect class="anc_exon" x="521" y="35.0" width="74" height="30" style="fill:#87bcbc;fill-opacity:1.00" />
  <line x1="595" y1="50.0" x2="615" y2="50.0" style="stroke:#999; stroke-width:3;" />
  <line x1="615" y1="50.0" x2="615" y2="50.0" style="stroke:#999; stroke-width:3;" />
  <line x1="615" y1="50.0" x2="615" y2="50.0" style="stroke:#999; stroke-width:3;" />
  <line x1="615" y1="50.0" x2="635" y2="50.0" style="stroke:#999; stroke-width:3;" />
  <rect class="anc_exon" x="635" y="35.0" width="111" height="30" style="fill:#87bcbc;fill-opacity:1.00" />
  <line x1="746" y1="50.0" x2="766" y2="50.0" style="stroke:#999; stroke-width:3;" />
  <line x1="766" y1="50.0" x2="766" y2="50.0" style="stroke:#999; stroke-width:3;" />
  <line x1="766" y1="50.0" x2="766" y2="50.0" style="stroke:#999; stroke-width:3;" />
  <line x1="766" y1="50.0" x2="786" y2="50.0" style="stroke:#999; stroke-width:3;" />
  <rect class="anc_exon" x="786" y="35.0" width="33" height="30" style="fill:#87bcbc;fill-opacity:1.00" />
  <line x1="819" y1="50.0" x2="839" y2="50.0" style="stroke:#999; stroke-width:3;" />
  <line x1="839" y1="50.0" x2="839" y2="50.0" style="stroke:#999; stroke-width:3;" />
  <line x1="839" y1="50.0" x2="839" y2="50.0" style="stroke:#999; stroke-width:3;" />
  <line x1="839" y1="50.0" x2="859" y2="50.0" style="stroke:#999; stroke-width:3;" />
  <rect class="anc_exon" x="859" y="35.0" width="45" height="30" style="fill:#87bcbc;fill-opacity:1.00" />
  <line x1="904" y1="50.0" x2="944" y2="50.0" style="stroke:#999; stroke-width:3;" />
  <rect class="anc_exon" x="944" y="35.0" width="76" height="30" style="fill:#87bcbc;fill-opacity:1.00" />
  <line x1="1020" y1="50.0" x2="1040" y2="50.0" style="stroke:#999; stroke-width:3;" />
  <line x1="1040" y1="50.0" x2="1040" y2="50.0" style="stroke:#999; stroke-width:3;" />
  <line x1="1040" y1="50.0" x2="1040" y2="50.0" style="stroke:#999; stroke-width:3;" />
  <line x1="1040" y1="50.0" x2="1060" y2="50.0" style="stroke:#999; stroke-width:3;" />
  <rect class="anc_exon" x="1060" y="35.0" width="108" height="30" style="fill:#87bcbc;fill-opacity:1.00" />
  <line x1="1168" y1="50.0" x2="1188" y2="50.0" style="stroke:#999; stroke-width:3;" />
  <line x1="1188" y1="50.0" x2="1188" y2="50.0" style="stroke:#999; stroke-width:3;" />
  <line x1="1188" y1="50.0" x2="1188" y2="50.0" style="stroke:#999; stroke-width:3;" />
  <line x1="1188" y1="50.0" x2="1208" y2="50.0" style="stroke:#999; stroke-width:3;" />
  <rect class="anc_exon" x="1208" y="35.0" width="92" height="30" style="fill:#87bcbc;fill-opacity:1.00" />
  <rect class="anc_exon" x="1300" y="35.0" width="0" height="30" style="fill:#87bcbc;fill-opacity:1.00" />
  <text style="" >
<tspan x="0" y="83.0" style="font-size:18px;" >SP XM_031938693_1.1</tspan>  </text>



<script type="text/ecmascript">
<![CDATA[
function draw_bbox(text_id)
{
    var text_elem = document.getElementById(text_id);
    var offset_px = 2;
    var offset_py = 0;
    bbox = text_elem.getBBox();
    var box = document.createElementNS(document.rootElement.namespaceURI,'rect');
    box.setAttribute('x', bbox.x - offset_px);
    box.setAttribute('y', bbox.y - offset_py);
    box.setAttribute('width', bbox.width + offset_px * 2);
    box.setAttribute('height', bbox.height + offset_py * 2);
    box.setAttribute('style','fill: white;'+'stroke: black;'+'stroke-width: 1px;');
    text_elem.insertBefore(box,text_elem.childNodes[0]);

    var svg = text_elem.parentNode;
    svg.appendChild(text_elem);
}

for (var i=1; i < 1; i++)
{
draw_bbox("Mouseover" + i);
}
]]> 
</script>
</svg>
