<svg version="1.1"
xmlns="http://www.w3.org/2000/svg"
xmlns:xlink="http://www.w3.org/1999/xlink"
width="2168" height="100" viewBox = "0 0 2168 100"
onclick="mouseclick(evt)">

<script type="text/ecmascript">

<![CDATA[
    function mouseover(evt, target) { 
    var gv = document.getElementById("globalVariable");
    var previoustarget = gv.firstChild.nodeValue;
    if (previoustarget != "none") 
    {
        	document.getElementById(gv.firstChild.nodeValue).setAttributeNS(null, "visibility", "hidden");
    }
    document.getElementById(target).setAttributeNS(null, "visibility", "visible");
    gv.firstChild.nodeValue = target;
        }

    function mouseclick(evt) { 
    var gv = document.getElementById("globalVariable");
    var previoustarget = gv.firstChild.nodeValue;
    if (previoustarget != "none") {
        	document.getElementById(gv.firstChild.nodeValue).setAttributeNS(null, "visibility", "hidden");
        }
    }
]]>
  </script>
<style type="text/css" >

<![CDATA[
    rect.anc_exon {
              stroke-width:3;
                  }

    rect.non_anc_exon {
              stroke: black; stroke-width:3; stroke-dasharray: 5,5;
                    }

    text {
              font-size: 18px;
              font-family: Courier New;
          }
                    ]]>
</style>

<defs>
    <text x="150" y="40" id="globalVariable">none</text>
</defs>

  <rect class="anc_exon" x="0" y="35.0" width="0" height="30" style="fill:#87bcbc;fill-opacity:1.00" />
  <rect class="anc_exon" x="0" y="35.0" width="308.8" height="30" style="fill:#87bcbc;fill-opacity:1.00" />
  <line x1="308.8" y1="50.0" x2="348.0" y2="50.0" style="stroke:#999; stroke-width:3;" />
  <rect class="anc_exon" x="348" y="35.0" width="68" height="30" style="fill:#87bcbc;fill-opacity:1.00" />
  <line x1="416" y1="50.0" x2="456" y2="50.0" style="stroke:#999; stroke-width:3;" />
  <rect class="anc_exon" x="456" y="35.0" width="81" height="30" style="fill:#87bcbc;fill-opacity:1.00" />
  <line x1="537" y1="50.0" x2="557" y2="50.0" style="stroke:#999; stroke-width:3;" />
  <line x1="557" y1="50.0" x2="557" y2="50.0" style="stroke:#999; stroke-width:3;" />
  <line x1="557" y1="50.0" x2="557" y2="50.0" style="stroke:#999; stroke-width:3;" />
  <line x1="557" y1="50.0" x2="577" y2="50.0" style="stroke:#999; stroke-width:3;" />
  <rect class="anc_exon" x="577" y="35.0" width="116" height="30" style="fill:#87bcbc;fill-opacity:1.00" />
  <line x1="693" y1="50.0" x2="713" y2="50.0" style="stroke:#999; stroke-width:3;" />
  <line x1="713" y1="50.0" x2="713" y2="50.0" style="stroke:#999; stroke-width:3;" />
  <line x1="713" y1="50.0" x2="713" y2="50.0" style="stroke:#999; stroke-width:3;" />
  <line x1="713" y1="50.0" x2="733" y2="50.0" style="stroke:#999; stroke-width:3;" />
  <rect class="anc_exon" x="733" y="35.0" width="89" height="30" style="fill:#87bcbc;fill-opacity:1.00" />
  <line x1="822" y1="50.0" x2="862" y2="50.0" style="stroke:#999; stroke-width:3;" />
  <rect class="anc_exon" x="862" y="35.0" width="62" height="30" style="fill:#87bcbc;fill-opacity:1.00" />
  <line x1="924" y1="50.0" x2="944" y2="50.0" style="stroke:#999; stroke-width:3;" />
  <line x1="944" y1="50.0" x2="944" y2="50.0" style="stroke:#999; stroke-width:3;" />
  <line x1="944" y1="50.0" x2="944" y2="50.0" style="stroke:#999; stroke-width:3;" />
  <line x1="944" y1="50.0" x2="964" y2="50.0" style="stroke:#999; stroke-width:3;" />
  <rect class="anc_exon" x="964" y="35.0" width="103" height="30" style="fill:#87bcbc;fill-opacity:1.00" />
  <line x1="1067" y1="50.0" x2="1107" y2="50.0" style="stroke:#999; stroke-width:3;" />
  <rect class="anc_exon" x="1107" y="35.0" width="100" height="30" style="fill:#87bcbc;fill-opacity:1.00" />
  <line x1="1207" y1="50.0" x2="1227" y2="50.0" style="stroke:#999; stroke-width:3;" />
  <line x1="1227" y1="50.0" x2="1227" y2="50.0" style="stroke:#999; stroke-width:3;" />
  <line x1="1227" y1="50.0" x2="1227" y2="50.0" style="stroke:#999; stroke-width:3;" />
  <line x1="1227" y1="50.0" x2="1247" y2="50.0" style="stroke:#999; stroke-width:3;" />
  <rect class="anc_exon" x="1247" y="35.0" width="49" height="30" style="fill:#87bcbc;fill-opacity:1.00" />
  <line x1="1296" y1="50.0" x2="1336" y2="50.0" style="stroke:#999; stroke-width:3;" />
  <rect class="anc_exon" x="1336" y="35.0" width="128" height="30" style="fill:#87bcbc;fill-opacity:1.00" />
  <line x1="1464" y1="50.0" x2="1504" y2="50.0" style="stroke:#999; stroke-width:3;" />
  <rect class="anc_exon" x="1504" y="35.0" width="101" height="30" style="fill:#87bcbc;fill-opacity:1.00" />
  <line x1="1605" y1="50.0" x2="1645" y2="50.0" style="stroke:#999; stroke-width:3;" />
  <rect class="anc_exon" x="1645" y="35.0" width="81" height="30" style="fill:#87bcbc;fill-opacity:1.00" />
  <line x1="1726" y1="50.0" x2="1746" y2="50.0" style="stroke:#999; stroke-width:3;" />
  <line x1="1746" y1="50.0" x2="1746" y2="50.0" style="stroke:#999; stroke-width:3;" />
  <line x1="1746" y1="50.0" x2="1746" y2="50.0" style="stroke:#999; stroke-width:3;" />
  <line x1="1746" y1="50.0" x2="1766" y2="50.0" style="stroke:#999; stroke-width:3;" />
  <rect class="anc_exon" x="1766" y="35.0" width="104" height="30" style="fill:#87bcbc;fill-opacity:1.00" />
  <line x1="1870" y1="50.0" x2="1910" y2="50.0" style="stroke:#999; stroke-width:3;" />
  <rect class="anc_exon" x="1910" y="35.0" width="73" height="30" style="fill:#87bcbc;fill-opacity:1.00" />
  <line x1="1983" y1="50.0" x2="2003" y2="50.0" style="stroke:#999; stroke-width:3;" />
  <line x1="2003" y1="50.0" x2="2003" y2="50.0" style="stroke:#999; stroke-width:3;" />
  <line x1="2003" y1="50.0" x2="2003" y2="50.0" style="stroke:#999; stroke-width:3;" />
  <line x1="2003" y1="50.0" x2="2023" y2="50.0" style="stroke:#999; stroke-width:3;" />
  <rect class="anc_exon" x="2023" y="35.0" width="109" height="30" style="fill:#87bcbc;fill-opacity:1.00" />
  <rect class="anc_exon" x="2132" y="35.0" width="0" height="30" style="fill:#87bcbc;fill-opacity:1.00" />
  <text style="" >
<tspan x="0" y="83.0" style="font-size:18px;" >SP XM_031938747_1.1</tspan>  </text>



<script type="text/ecmascript">
<![CDATA[
function draw_bbox(text_id)
{
    var text_elem = document.getElementById(text_id);
    var offset_px = 2;
    var offset_py = 0;
    bbox = text_elem.getBBox();
    var box = document.createElementNS(document.rootElement.namespaceURI,'rect');
    box.setAttribute('x', bbox.x - offset_px);
    box.setAttribute('y', bbox.y - offset_py);
    box.setAttribute('width', bbox.width + offset_px * 2);
    box.setAttribute('height', bbox.height + offset_py * 2);
    box.setAttribute('style','fill: white;'+'stroke: black;'+'stroke-width: 1px;');
    text_elem.insertBefore(box,text_elem.childNodes[0]);

    var svg = text_elem.parentNode;
    svg.appendChild(text_elem);
}

for (var i=1; i < 1; i++)
{
draw_bbox("Mouseover" + i);
}
]]> 
</script>
</svg>
