<svg version="1.1"
xmlns="http://www.w3.org/2000/svg"
xmlns:xlink="http://www.w3.org/1999/xlink"
width="1662" height="100" viewBox = "0 0 1662 100"
onclick="mouseclick(evt)">

<script type="text/ecmascript">

<![CDATA[
    function mouseover(evt, target) { 
    var gv = document.getElementById("globalVariable");
    var previoustarget = gv.firstChild.nodeValue;
    if (previoustarget != "none") 
    {
        	document.getElementById(gv.firstChild.nodeValue).setAttributeNS(null, "visibility", "hidden");
    }
    document.getElementById(target).setAttributeNS(null, "visibility", "visible");
    gv.firstChild.nodeValue = target;
        }

    function mouseclick(evt) { 
    var gv = document.getElementById("globalVariable");
    var previoustarget = gv.firstChild.nodeValue;
    if (previoustarget != "none") {
        	document.getElementById(gv.firstChild.nodeValue).setAttributeNS(null, "visibility", "hidden");
        }
    }
]]>
  </script>
<style type="text/css" >

<![CDATA[
    rect.anc_exon {
              stroke-width:3;
                  }

    rect.non_anc_exon {
              stroke: black; stroke-width:3; stroke-dasharray: 5,5;
                    }

    text {
              font-size: 18px;
              font-family: Courier New;
          }
                    ]]>
</style>

<defs>
    <text x="150" y="40" id="globalVariable">none</text>
</defs>

  <rect class="anc_exon" x="0" y="35.0" width="0" height="30" style="fill:#87bcbc;fill-opacity:1.00" />
  <rect class="anc_exon" x="0" y="35.0" width="68.8" height="30" style="fill:#87bcbc;fill-opacity:1.00" />
  <line x1="68.8" y1="50.0" x2="87.8" y2="50.0" style="stroke:#999; stroke-width:3;" />
  <line x1="87.8" y1="50.0" x2="87.8" y2="50.0" style="stroke:#999; stroke-width:3;" />
  <line x1="87.8" y1="50.0" x2="87.8" y2="50.0" style="stroke:#999; stroke-width:3;" />
  <line x1="87.8" y1="50.0" x2="108.0" y2="50.0" style="stroke:#999; stroke-width:3;" />
  <rect class="anc_exon" x="108" y="35.0" width="152" height="30" style="fill:#87bcbc;fill-opacity:1.00" />
  <line x1="260" y1="50.0" x2="280" y2="50.0" style="stroke:#999; stroke-width:3;" />
  <line x1="280" y1="50.0" x2="280" y2="50.0" style="stroke:#999; stroke-width:3;" />
  <line x1="280" y1="50.0" x2="280" y2="50.0" style="stroke:#999; stroke-width:3;" />
  <line x1="280" y1="50.0" x2="300" y2="50.0" style="stroke:#999; stroke-width:3;" />
  <rect class="anc_exon" x="300" y="35.0" width="156" height="30" style="fill:#87bcbc;fill-opacity:1.00" />
  <line x1="456" y1="50.0" x2="476" y2="50.0" style="stroke:#999; stroke-width:3;" />
  <line x1="476" y1="50.0" x2="476" y2="50.0" style="stroke:#999; stroke-width:3;" />
  <line x1="476" y1="50.0" x2="476" y2="50.0" style="stroke:#999; stroke-width:3;" />
  <line x1="476" y1="50.0" x2="496" y2="50.0" style="stroke:#999; stroke-width:3;" />
  <rect class="anc_exon" x="496" y="35.0" width="148" height="30" style="fill:#87bcbc;fill-opacity:1.00" />
  <line x1="644" y1="50.0" x2="664" y2="50.0" style="stroke:#999; stroke-width:3;" />
  <line x1="664" y1="50.0" x2="664" y2="50.0" style="stroke:#999; stroke-width:3;" />
  <line x1="664" y1="50.0" x2="664" y2="50.0" style="stroke:#999; stroke-width:3;" />
  <line x1="664" y1="50.0" x2="684" y2="50.0" style="stroke:#999; stroke-width:3;" />
  <rect class="anc_exon" x="684" y="35.0" width="88" height="30" style="fill:#87bcbc;fill-opacity:1.00" />
  <line x1="772" y1="50.0" x2="792" y2="50.0" style="stroke:#999; stroke-width:3;" />
  <line x1="792" y1="50.0" x2="792" y2="50.0" style="stroke:#999; stroke-width:3;" />
  <line x1="792" y1="50.0" x2="792" y2="50.0" style="stroke:#999; stroke-width:3;" />
  <line x1="792" y1="50.0" x2="812" y2="50.0" style="stroke:#999; stroke-width:3;" />
  <rect class="anc_exon" x="812" y="35.0" width="195" height="30" style="fill:#87bcbc;fill-opacity:1.00" />
  <line x1="1007" y1="50.0" x2="1027" y2="50.0" style="stroke:#999; stroke-width:3;" />
  <line x1="1027" y1="50.0" x2="1027" y2="50.0" style="stroke:#999; stroke-width:3;" />
  <line x1="1027" y1="50.0" x2="1027" y2="50.0" style="stroke:#999; stroke-width:3;" />
  <line x1="1027" y1="50.0" x2="1047" y2="50.0" style="stroke:#999; stroke-width:3;" />
  <rect class="anc_exon" x="1047" y="35.0" width="140" height="30" style="fill:#87bcbc;fill-opacity:1.00" />
  <line x1="1187" y1="50.0" x2="1207" y2="50.0" style="stroke:#999; stroke-width:3;" />
  <line x1="1207" y1="50.0" x2="1207" y2="50.0" style="stroke:#999; stroke-width:3;" />
  <line x1="1207" y1="50.0" x2="1207" y2="50.0" style="stroke:#999; stroke-width:3;" />
  <line x1="1207" y1="50.0" x2="1227" y2="50.0" style="stroke:#999; stroke-width:3;" />
  <rect class="anc_exon" x="1227" y="35.0" width="116" height="30" style="fill:#87bcbc;fill-opacity:1.00" />
  <line x1="1343" y1="50.0" x2="1363" y2="50.0" style="stroke:#999; stroke-width:3;" />
  <line x1="1363" y1="50.0" x2="1363" y2="50.0" style="stroke:#999; stroke-width:3;" />
  <line x1="1363" y1="50.0" x2="1363" y2="50.0" style="stroke:#999; stroke-width:3;" />
  <line x1="1363" y1="50.0" x2="1383" y2="50.0" style="stroke:#999; stroke-width:3;" />
  <rect class="anc_exon" x="1383" y="35.0" width="71" height="30" style="fill:#87bcbc;fill-opacity:1.00" />
  <line x1="1454" y1="50.0" x2="1474" y2="50.0" style="stroke:#999; stroke-width:3;" />
  <line x1="1474" y1="50.0" x2="1474" y2="50.0" style="stroke:#999; stroke-width:3;" />
  <line x1="1474" y1="50.0" x2="1474" y2="50.0" style="stroke:#999; stroke-width:3;" />
  <line x1="1474" y1="50.0" x2="1494" y2="50.0" style="stroke:#999; stroke-width:3;" />
  <rect class="anc_exon" x="1494" y="35.0" width="77" height="30" style="fill:#87bcbc;fill-opacity:1.00" />
  <line x1="1571" y1="50.0" x2="1591" y2="50.0" style="stroke:#999; stroke-width:3;" />
  <line x1="1591" y1="50.0" x2="1591" y2="50.0" style="stroke:#999; stroke-width:3;" />
  <line x1="1591" y1="50.0" x2="1591" y2="50.0" style="stroke:#999; stroke-width:3;" />
  <line x1="1591" y1="50.0" x2="1611" y2="50.0" style="stroke:#999; stroke-width:3;" />
  <rect class="anc_exon" x="1611" y="35.0" width="15" height="30" style="fill:#87bcbc;fill-opacity:1.00" />
  <rect class="anc_exon" x="1626" y="35.0" width="0" height="30" style="fill:#87bcbc;fill-opacity:1.00" />
  <text style="" >
<tspan x="0" y="83.0" style="font-size:18px;" >SP XM_031941132_1.1</tspan>  </text>



<script type="text/ecmascript">
<![CDATA[
function draw_bbox(text_id)
{
    var text_elem = document.getElementById(text_id);
    var offset_px = 2;
    var offset_py = 0;
    bbox = text_elem.getBBox();
    var box = document.createElementNS(document.rootElement.namespaceURI,'rect');
    box.setAttribute('x', bbox.x - offset_px);
    box.setAttribute('y', bbox.y - offset_py);
    box.setAttribute('width', bbox.width + offset_px * 2);
    box.setAttribute('height', bbox.height + offset_py * 2);
    box.setAttribute('style','fill: white;'+'stroke: black;'+'stroke-width: 1px;');
    text_elem.insertBefore(box,text_elem.childNodes[0]);

    var svg = text_elem.parentNode;
    svg.appendChild(text_elem);
}

for (var i=1; i < 1; i++)
{
draw_bbox("Mouseover" + i);
}
]]> 
</script>
</svg>
