<svg version="1.1"
xmlns="http://www.w3.org/2000/svg"
xmlns:xlink="http://www.w3.org/1999/xlink"
width="4127" height="100" viewBox = "0 0 4127 100"
onclick="mouseclick(evt)">

<script type="text/ecmascript">

<![CDATA[
    function mouseover(evt, target) { 
    var gv = document.getElementById("globalVariable");
    var previoustarget = gv.firstChild.nodeValue;
    if (previoustarget != "none") 
    {
        	document.getElementById(gv.firstChild.nodeValue).setAttributeNS(null, "visibility", "hidden");
    }
    document.getElementById(target).setAttributeNS(null, "visibility", "visible");
    gv.firstChild.nodeValue = target;
        }

    function mouseclick(evt) { 
    var gv = document.getElementById("globalVariable");
    var previoustarget = gv.firstChild.nodeValue;
    if (previoustarget != "none") {
        	document.getElementById(gv.firstChild.nodeValue).setAttributeNS(null, "visibility", "hidden");
        }
    }
]]>
  </script>
<style type="text/css" >

<![CDATA[
    rect.anc_exon {
              stroke-width:3;
                  }

    rect.non_anc_exon {
              stroke: black; stroke-width:3; stroke-dasharray: 5,5;
                    }

    text {
              font-size: 18px;
              font-family: Courier New;
          }
                    ]]>
</style>

<defs>
    <text x="150" y="40" id="globalVariable">none</text>
</defs>

  <rect class="anc_exon" x="0" y="35.0" width="0" height="30" style="fill:#87bcbc;fill-opacity:1.00" />
  <rect class="anc_exon" x="0" y="35.0" width="77.60000000000001" height="30" style="fill:#87bcbc;fill-opacity:1.00" />
  <line x1="77.60000000000001" y1="50.0" x2="96.60000000000001" y2="50.0" style="stroke:#999; stroke-width:3;" />
  <line x1="96.60000000000001" y1="50.0" x2="96.60000000000001" y2="50.0" style="stroke:#999; stroke-width:3;" />
  <line x1="96.60000000000001" y1="50.0" x2="96.60000000000001" y2="50.0" style="stroke:#999; stroke-width:3;" />
  <line x1="96.60000000000001" y1="50.0" x2="117.0" y2="50.0" style="stroke:#999; stroke-width:3;" />
  <rect class="anc_exon" x="117" y="35.0" width="88" height="30" style="fill:#87bcbc;fill-opacity:1.00" />
  <line x1="205" y1="50.0" x2="225" y2="50.0" style="stroke:#999; stroke-width:3;" />
  <line x1="225" y1="50.0" x2="225" y2="50.0" style="stroke:#999; stroke-width:3;" />
  <line x1="225" y1="50.0" x2="225" y2="50.0" style="stroke:#999; stroke-width:3;" />
  <line x1="225" y1="50.0" x2="245" y2="50.0" style="stroke:#999; stroke-width:3;" />
  <rect class="anc_exon" x="245" y="35.0" width="155" height="30" style="fill:#87bcbc;fill-opacity:1.00" />
  <line x1="400" y1="50.0" x2="420" y2="50.0" style="stroke:#999; stroke-width:3;" />
  <line x1="420" y1="50.0" x2="420" y2="50.0" style="stroke:#999; stroke-width:3;" />
  <line x1="420" y1="50.0" x2="420" y2="50.0" style="stroke:#999; stroke-width:3;" />
  <line x1="420" y1="50.0" x2="440" y2="50.0" style="stroke:#999; stroke-width:3;" />
  <rect class="anc_exon" x="440" y="35.0" width="118" height="30" style="fill:#87bcbc;fill-opacity:1.00" />
  <line x1="558" y1="50.0" x2="578" y2="50.0" style="stroke:#999; stroke-width:3;" />
  <line x1="578" y1="50.0" x2="578" y2="50.0" style="stroke:#999; stroke-width:3;" />
  <line x1="578" y1="50.0" x2="578" y2="50.0" style="stroke:#999; stroke-width:3;" />
  <line x1="578" y1="50.0" x2="598" y2="50.0" style="stroke:#999; stroke-width:3;" />
  <rect class="anc_exon" x="598" y="35.0" width="163" height="30" style="fill:#87bcbc;fill-opacity:1.00" />
  <line x1="761" y1="50.0" x2="781" y2="50.0" style="stroke:#999; stroke-width:3;" />
  <line x1="781" y1="50.0" x2="781" y2="50.0" style="stroke:#999; stroke-width:3;" />
  <line x1="781" y1="50.0" x2="781" y2="50.0" style="stroke:#999; stroke-width:3;" />
  <line x1="781" y1="50.0" x2="801" y2="50.0" style="stroke:#999; stroke-width:3;" />
  <rect class="anc_exon" x="801" y="35.0" width="148" height="30" style="fill:#87bcbc;fill-opacity:1.00" />
  <line x1="949" y1="50.0" x2="969" y2="50.0" style="stroke:#999; stroke-width:3;" />
  <line x1="969" y1="50.0" x2="969" y2="50.0" style="stroke:#999; stroke-width:3;" />
  <line x1="969" y1="50.0" x2="969" y2="50.0" style="stroke:#999; stroke-width:3;" />
  <line x1="969" y1="50.0" x2="989" y2="50.0" style="stroke:#999; stroke-width:3;" />
  <rect class="anc_exon" x="989" y="35.0" width="115" height="30" style="fill:#87bcbc;fill-opacity:1.00" />
  <line x1="1104" y1="50.0" x2="1124" y2="50.0" style="stroke:#999; stroke-width:3;" />
  <line x1="1124" y1="50.0" x2="1124" y2="50.0" style="stroke:#999; stroke-width:3;" />
  <line x1="1124" y1="50.0" x2="1124" y2="50.0" style="stroke:#999; stroke-width:3;" />
  <line x1="1124" y1="50.0" x2="1144" y2="50.0" style="stroke:#999; stroke-width:3;" />
  <rect class="anc_exon" x="1144" y="35.0" width="212" height="30" style="fill:#87bcbc;fill-opacity:1.00" />
  <line x1="1356" y1="50.0" x2="1376" y2="50.0" style="stroke:#999; stroke-width:3;" />
  <line x1="1376" y1="50.0" x2="1376" y2="50.0" style="stroke:#999; stroke-width:3;" />
  <line x1="1376" y1="50.0" x2="1376" y2="50.0" style="stroke:#999; stroke-width:3;" />
  <line x1="1376" y1="50.0" x2="1396" y2="50.0" style="stroke:#999; stroke-width:3;" />
  <rect class="anc_exon" x="1396" y="35.0" width="120" height="30" style="fill:#87bcbc;fill-opacity:1.00" />
  <line x1="1516" y1="50.0" x2="1536" y2="50.0" style="stroke:#999; stroke-width:3;" />
  <line x1="1536" y1="50.0" x2="1536" y2="50.0" style="stroke:#999; stroke-width:3;" />
  <line x1="1536" y1="50.0" x2="1536" y2="50.0" style="stroke:#999; stroke-width:3;" />
  <line x1="1536" y1="50.0" x2="1556" y2="50.0" style="stroke:#999; stroke-width:3;" />
  <rect class="anc_exon" x="1556" y="35.0" width="137" height="30" style="fill:#87bcbc;fill-opacity:1.00" />
  <line x1="1693" y1="50.0" x2="1713" y2="50.0" style="stroke:#999; stroke-width:3;" />
  <line x1="1713" y1="50.0" x2="1713" y2="50.0" style="stroke:#999; stroke-width:3;" />
  <line x1="1713" y1="50.0" x2="1713" y2="50.0" style="stroke:#999; stroke-width:3;" />
  <line x1="1713" y1="50.0" x2="1733" y2="50.0" style="stroke:#999; stroke-width:3;" />
  <rect class="anc_exon" x="1733" y="35.0" width="85" height="30" style="fill:#87bcbc;fill-opacity:1.00" />
  <line x1="1818" y1="50.0" x2="1838" y2="50.0" style="stroke:#999; stroke-width:3;" />
  <line x1="1838" y1="50.0" x2="1838" y2="50.0" style="stroke:#999; stroke-width:3;" />
  <line x1="1838" y1="50.0" x2="1838" y2="50.0" style="stroke:#999; stroke-width:3;" />
  <line x1="1838" y1="50.0" x2="1858" y2="50.0" style="stroke:#999; stroke-width:3;" />
  <rect class="anc_exon" x="1858" y="35.0" width="96" height="30" style="fill:#87bcbc;fill-opacity:1.00" />
  <line x1="1954" y1="50.0" x2="1974" y2="50.0" style="stroke:#999; stroke-width:3;" />
  <line x1="1974" y1="50.0" x2="1974" y2="50.0" style="stroke:#999; stroke-width:3;" />
  <line x1="1974" y1="50.0" x2="1974" y2="50.0" style="stroke:#999; stroke-width:3;" />
  <line x1="1974" y1="50.0" x2="1994" y2="50.0" style="stroke:#999; stroke-width:3;" />
  <rect class="anc_exon" x="1994" y="35.0" width="160" height="30" style="fill:#87bcbc;fill-opacity:1.00" />
  <line x1="2154" y1="50.0" x2="2174" y2="50.0" style="stroke:#999; stroke-width:3;" />
  <line x1="2174" y1="50.0" x2="2174" y2="50.0" style="stroke:#999; stroke-width:3;" />
  <line x1="2174" y1="50.0" x2="2174" y2="50.0" style="stroke:#999; stroke-width:3;" />
  <line x1="2174" y1="50.0" x2="2194" y2="50.0" style="stroke:#999; stroke-width:3;" />
  <rect class="anc_exon" x="2194" y="35.0" width="125" height="30" style="fill:#87bcbc;fill-opacity:1.00" />
  <line x1="2319" y1="50.0" x2="2339" y2="50.0" style="stroke:#999; stroke-width:3;" />
  <line x1="2339" y1="50.0" x2="2339" y2="50.0" style="stroke:#999; stroke-width:3;" />
  <line x1="2339" y1="50.0" x2="2339" y2="50.0" style="stroke:#999; stroke-width:3;" />
  <line x1="2339" y1="50.0" x2="2359" y2="50.0" style="stroke:#999; stroke-width:3;" />
  <rect class="anc_exon" x="2359" y="35.0" width="102" height="30" style="fill:#87bcbc;fill-opacity:1.00" />
  <line x1="2461" y1="50.0" x2="2481" y2="50.0" style="stroke:#999; stroke-width:3;" />
  <line x1="2481" y1="50.0" x2="2481" y2="50.0" style="stroke:#999; stroke-width:3;" />
  <line x1="2481" y1="50.0" x2="2481" y2="50.0" style="stroke:#999; stroke-width:3;" />
  <line x1="2481" y1="50.0" x2="2501" y2="50.0" style="stroke:#999; stroke-width:3;" />
  <rect class="anc_exon" x="2501" y="35.0" width="136" height="30" style="fill:#87bcbc;fill-opacity:1.00" />
  <line x1="2637" y1="50.0" x2="2657" y2="50.0" style="stroke:#999; stroke-width:3;" />
  <line x1="2657" y1="50.0" x2="2657" y2="50.0" style="stroke:#999; stroke-width:3;" />
  <line x1="2657" y1="50.0" x2="2657" y2="50.0" style="stroke:#999; stroke-width:3;" />
  <line x1="2657" y1="50.0" x2="2677" y2="50.0" style="stroke:#999; stroke-width:3;" />
  <rect class="anc_exon" x="2677" y="35.0" width="175" height="30" style="fill:#87bcbc;fill-opacity:1.00" />
  <line x1="2852" y1="50.0" x2="2872" y2="50.0" style="stroke:#999; stroke-width:3;" />
  <line x1="2872" y1="50.0" x2="2872" y2="50.0" style="stroke:#999; stroke-width:3;" />
  <line x1="2872" y1="50.0" x2="2872" y2="50.0" style="stroke:#999; stroke-width:3;" />
  <line x1="2872" y1="50.0" x2="2892" y2="50.0" style="stroke:#999; stroke-width:3;" />
  <rect class="anc_exon" x="2892" y="35.0" width="189" height="30" style="fill:#87bcbc;fill-opacity:1.00" />
  <line x1="3081" y1="50.0" x2="3101" y2="50.0" style="stroke:#999; stroke-width:3;" />
  <line x1="3101" y1="50.0" x2="3101" y2="50.0" style="stroke:#999; stroke-width:3;" />
  <line x1="3101" y1="50.0" x2="3101" y2="50.0" style="stroke:#999; stroke-width:3;" />
  <line x1="3101" y1="50.0" x2="3121" y2="50.0" style="stroke:#999; stroke-width:3;" />
  <rect class="anc_exon" x="3121" y="35.0" width="184" height="30" style="fill:#87bcbc;fill-opacity:1.00" />
  <line x1="3305" y1="50.0" x2="3325" y2="50.0" style="stroke:#999; stroke-width:3;" />
  <line x1="3325" y1="50.0" x2="3325" y2="50.0" style="stroke:#999; stroke-width:3;" />
  <line x1="3325" y1="50.0" x2="3325" y2="50.0" style="stroke:#999; stroke-width:3;" />
  <line x1="3325" y1="50.0" x2="3345" y2="50.0" style="stroke:#999; stroke-width:3;" />
  <rect class="anc_exon" x="3345" y="35.0" width="107" height="30" style="fill:#87bcbc;fill-opacity:1.00" />
  <line x1="3452" y1="50.0" x2="3472" y2="50.0" style="stroke:#999; stroke-width:3;" />
  <line x1="3472" y1="50.0" x2="3472" y2="50.0" style="stroke:#999; stroke-width:3;" />
  <line x1="3472" y1="50.0" x2="3472" y2="50.0" style="stroke:#999; stroke-width:3;" />
  <line x1="3472" y1="50.0" x2="3492" y2="50.0" style="stroke:#999; stroke-width:3;" />
  <rect class="anc_exon" x="3492" y="35.0" width="75" height="30" style="fill:#87bcbc;fill-opacity:1.00" />
  <line x1="3567" y1="50.0" x2="3587" y2="50.0" style="stroke:#999; stroke-width:3;" />
  <line x1="3587" y1="50.0" x2="3587" y2="50.0" style="stroke:#999; stroke-width:3;" />
  <line x1="3587" y1="50.0" x2="3587" y2="50.0" style="stroke:#999; stroke-width:3;" />
  <line x1="3587" y1="50.0" x2="3607" y2="50.0" style="stroke:#999; stroke-width:3;" />
  <rect class="anc_exon" x="3607" y="35.0" width="184" height="30" style="fill:#87bcbc;fill-opacity:1.00" />
  <line x1="3791" y1="50.0" x2="3811" y2="50.0" style="stroke:#999; stroke-width:3;" />
  <line x1="3811" y1="50.0" x2="3811" y2="50.0" style="stroke:#999; stroke-width:3;" />
  <line x1="3811" y1="50.0" x2="3811" y2="50.0" style="stroke:#999; stroke-width:3;" />
  <line x1="3811" y1="50.0" x2="3831" y2="50.0" style="stroke:#999; stroke-width:3;" />
  <rect class="anc_exon" x="3831" y="35.0" width="60" height="30" style="fill:#87bcbc;fill-opacity:1.00" />
  <line x1="3891" y1="50.0" x2="3931" y2="50.0" style="stroke:#999; stroke-width:3;" />
  <rect class="anc_exon" x="3931" y="35.0" width="160" height="30" style="fill:#87bcbc;fill-opacity:1.00" />
  <rect class="anc_exon" x="4091" y="35.0" width="0" height="30" style="fill:#87bcbc;fill-opacity:1.00" />
  <text style="" >
<tspan x="0" y="83.0" style="font-size:18px;" >SP XM_031941247_1.1</tspan>  </text>



<script type="text/ecmascript">
<![CDATA[
function draw_bbox(text_id)
{
    var text_elem = document.getElementById(text_id);
    var offset_px = 2;
    var offset_py = 0;
    bbox = text_elem.getBBox();
    var box = document.createElementNS(document.rootElement.namespaceURI,'rect');
    box.setAttribute('x', bbox.x - offset_px);
    box.setAttribute('y', bbox.y - offset_py);
    box.setAttribute('width', bbox.width + offset_px * 2);
    box.setAttribute('height', bbox.height + offset_py * 2);
    box.setAttribute('style','fill: white;'+'stroke: black;'+'stroke-width: 1px;');
    text_elem.insertBefore(box,text_elem.childNodes[0]);

    var svg = text_elem.parentNode;
    svg.appendChild(text_elem);
}

for (var i=1; i < 1; i++)
{
draw_bbox("Mouseover" + i);
}
]]> 
</script>
</svg>
