<svg version="1.1"
xmlns="http://www.w3.org/2000/svg"
xmlns:xlink="http://www.w3.org/1999/xlink"
width="3365" height="100" viewBox = "0 0 3365 100"
onclick="mouseclick(evt)">

<script type="text/ecmascript">

<![CDATA[
    function mouseover(evt, target) { 
    var gv = document.getElementById("globalVariable");
    var previoustarget = gv.firstChild.nodeValue;
    if (previoustarget != "none") 
    {
        	document.getElementById(gv.firstChild.nodeValue).setAttributeNS(null, "visibility", "hidden");
    }
    document.getElementById(target).setAttributeNS(null, "visibility", "visible");
    gv.firstChild.nodeValue = target;
        }

    function mouseclick(evt) { 
    var gv = document.getElementById("globalVariable");
    var previoustarget = gv.firstChild.nodeValue;
    if (previoustarget != "none") {
        	document.getElementById(gv.firstChild.nodeValue).setAttributeNS(null, "visibility", "hidden");
        }
    }
]]>
  </script>
<style type="text/css" >

<![CDATA[
    rect.anc_exon {
              stroke-width:3;
                  }

    rect.non_anc_exon {
              stroke: black; stroke-width:3; stroke-dasharray: 5,5;
                    }

    text {
              font-size: 18px;
              font-family: Courier New;
          }
                    ]]>
</style>

<defs>
    <text x="150" y="40" id="globalVariable">none</text>
</defs>

  <rect class="anc_exon" x="0" y="35.0" width="0" height="30" style="fill:#87bcbc;fill-opacity:1.00" />
  <rect class="anc_exon" x="0" y="35.0" width="53.6" height="30" style="fill:#87bcbc;fill-opacity:1.00" />
  <line x1="53.6" y1="50.0" x2="72.6" y2="50.0" style="stroke:#999; stroke-width:3;" />
  <line x1="72.6" y1="50.0" x2="72.6" y2="50.0" style="stroke:#999; stroke-width:3;" />
  <line x1="72.6" y1="50.0" x2="72.6" y2="50.0" style="stroke:#999; stroke-width:3;" />
  <line x1="72.6" y1="50.0" x2="93.0" y2="50.0" style="stroke:#999; stroke-width:3;" />
  <rect class="anc_exon" x="93" y="35.0" width="184" height="30" style="fill:#87bcbc;fill-opacity:1.00" />
  <line x1="277" y1="50.0" x2="297" y2="50.0" style="stroke:#999; stroke-width:3;" />
  <line x1="297" y1="50.0" x2="297" y2="50.0" style="stroke:#999; stroke-width:3;" />
  <line x1="297" y1="50.0" x2="297" y2="50.0" style="stroke:#999; stroke-width:3;" />
  <line x1="297" y1="50.0" x2="317" y2="50.0" style="stroke:#999; stroke-width:3;" />
  <rect class="anc_exon" x="317" y="35.0" width="132" height="30" style="fill:#87bcbc;fill-opacity:1.00" />
  <line x1="449" y1="50.0" x2="489" y2="50.0" style="stroke:#999; stroke-width:3;" />
  <rect class="anc_exon" x="489" y="35.0" width="350" height="30" style="fill:#87bcbc;fill-opacity:1.00" />
  <line x1="839" y1="50.0" x2="879" y2="50.0" style="stroke:#999; stroke-width:3;" />
  <rect class="anc_exon" x="879" y="35.0" width="169" height="30" style="fill:#87bcbc;fill-opacity:1.00" />
  <line x1="1048" y1="50.0" x2="1068" y2="50.0" style="stroke:#999; stroke-width:3;" />
  <line x1="1068" y1="50.0" x2="1068" y2="50.0" style="stroke:#999; stroke-width:3;" />
  <line x1="1068" y1="50.0" x2="1068" y2="50.0" style="stroke:#999; stroke-width:3;" />
  <line x1="1068" y1="50.0" x2="1088" y2="50.0" style="stroke:#999; stroke-width:3;" />
  <rect class="anc_exon" x="1088" y="35.0" width="338" height="30" style="fill:#87bcbc;fill-opacity:1.00" />
  <line x1="1426" y1="50.0" x2="1466" y2="50.0" style="stroke:#999; stroke-width:3;" />
  <rect class="anc_exon" x="1466" y="35.0" width="310" height="30" style="fill:#87bcbc;fill-opacity:1.00" />
  <line x1="1776" y1="50.0" x2="1816" y2="50.0" style="stroke:#999; stroke-width:3;" />
  <rect class="anc_exon" x="1816" y="35.0" width="160" height="30" style="fill:#87bcbc;fill-opacity:1.00" />
  <line x1="1976" y1="50.0" x2="1996" y2="50.0" style="stroke:#999; stroke-width:3;" />
  <line x1="1996" y1="50.0" x2="1996" y2="50.0" style="stroke:#999; stroke-width:3;" />
  <line x1="1996" y1="50.0" x2="1996" y2="50.0" style="stroke:#999; stroke-width:3;" />
  <line x1="1996" y1="50.0" x2="2016" y2="50.0" style="stroke:#999; stroke-width:3;" />
  <rect class="anc_exon" x="2016" y="35.0" width="202" height="30" style="fill:#87bcbc;fill-opacity:1.00" />
  <line x1="2218" y1="50.0" x2="2238" y2="50.0" style="stroke:#999; stroke-width:3;" />
  <line x1="2238" y1="50.0" x2="2238" y2="50.0" style="stroke:#999; stroke-width:3;" />
  <line x1="2238" y1="50.0" x2="2238" y2="50.0" style="stroke:#999; stroke-width:3;" />
  <line x1="2238" y1="50.0" x2="2258" y2="50.0" style="stroke:#999; stroke-width:3;" />
  <rect class="anc_exon" x="2258" y="35.0" width="155" height="30" style="fill:#87bcbc;fill-opacity:1.00" />
  <line x1="2413" y1="50.0" x2="2453" y2="50.0" style="stroke:#999; stroke-width:3;" />
  <rect class="anc_exon" x="2453" y="35.0" width="80" height="30" style="fill:#87bcbc;fill-opacity:1.00" />
  <line x1="2533" y1="50.0" x2="2553" y2="50.0" style="stroke:#999; stroke-width:3;" />
  <line x1="2553" y1="50.0" x2="2553" y2="50.0" style="stroke:#999; stroke-width:3;" />
  <line x1="2553" y1="50.0" x2="2553" y2="50.0" style="stroke:#999; stroke-width:3;" />
  <line x1="2553" y1="50.0" x2="2573" y2="50.0" style="stroke:#999; stroke-width:3;" />
  <rect class="anc_exon" x="2573" y="35.0" width="220" height="30" style="fill:#87bcbc;fill-opacity:1.00" />
  <line x1="2793" y1="50.0" x2="2833" y2="50.0" style="stroke:#999; stroke-width:3;" />
  <rect class="anc_exon" x="2833" y="35.0" width="154" height="30" style="fill:#87bcbc;fill-opacity:1.00" />
  <line x1="2987" y1="50.0" x2="3027" y2="50.0" style="stroke:#999; stroke-width:3;" />
  <rect class="anc_exon" x="3027" y="35.0" width="142" height="30" style="fill:#878787;fill-opacity:1.00" />
  <line x1="3169" y1="50.0" x2="3209" y2="50.0" style="stroke:#999; stroke-width:3;" />
  <rect class="anc_exon" x="3209" y="35.0" width="120" height="30" style="fill:#87bcbc;fill-opacity:1.00" />
  <rect class="anc_exon" x="3329" y="35.0" width="0" height="30" style="fill:#87bcbc;fill-opacity:1.00" />
  <text style="" >
<tspan x="0" y="83.0" style="font-size:18px;" >SP XM_031939413_1.1</tspan>  </text>
  <text style="fill:#121212;" >
<tspan x="2793" y="50.0" style="font-size:18px;fill:#121212;" >ga</tspan>  </text>



<script type="text/ecmascript">
<![CDATA[
function draw_bbox(text_id)
{
    var text_elem = document.getElementById(text_id);
    var offset_px = 2;
    var offset_py = 0;
    bbox = text_elem.getBBox();
    var box = document.createElementNS(document.rootElement.namespaceURI,'rect');
    box.setAttribute('x', bbox.x - offset_px);
    box.setAttribute('y', bbox.y - offset_py);
    box.setAttribute('width', bbox.width + offset_px * 2);
    box.setAttribute('height', bbox.height + offset_py * 2);
    box.setAttribute('style','fill: white;'+'stroke: black;'+'stroke-width: 1px;');
    text_elem.insertBefore(box,text_elem.childNodes[0]);

    var svg = text_elem.parentNode;
    svg.appendChild(text_elem);
}

for (var i=1; i < 1; i++)
{
draw_bbox("Mouseover" + i);
}
]]> 
</script>
</svg>
