<svg version="1.1"
xmlns="http://www.w3.org/2000/svg"
xmlns:xlink="http://www.w3.org/1999/xlink"
width="1263" height="100" viewBox = "0 0 1263 100"
onclick="mouseclick(evt)">

<script type="text/ecmascript">

<![CDATA[
    function mouseover(evt, target) { 
    var gv = document.getElementById("globalVariable");
    var previoustarget = gv.firstChild.nodeValue;
    if (previoustarget != "none") 
    {
        	document.getElementById(gv.firstChild.nodeValue).setAttributeNS(null, "visibility", "hidden");
    }
    document.getElementById(target).setAttributeNS(null, "visibility", "visible");
    gv.firstChild.nodeValue = target;
        }

    function mouseclick(evt) { 
    var gv = document.getElementById("globalVariable");
    var previoustarget = gv.firstChild.nodeValue;
    if (previoustarget != "none") {
        	document.getElementById(gv.firstChild.nodeValue).setAttributeNS(null, "visibility", "hidden");
        }
    }
]]>
  </script>
<style type="text/css" >

<![CDATA[
    rect.anc_exon {
              stroke-width:3;
                  }

    rect.non_anc_exon {
              stroke: black; stroke-width:3; stroke-dasharray: 5,5;
                    }

    text {
              font-size: 18px;
              font-family: Courier New;
          }
                    ]]>
</style>

<defs>
    <text x="150" y="40" id="globalVariable">none</text>
</defs>

  <rect class="anc_exon" x="0" y="35.0" width="0" height="30" style="fill:#87bcbc;fill-opacity:1.00" />
  <rect class="anc_exon" x="0" y="35.0" width="11.200000000000001" height="30" style="fill:#87bcbc;fill-opacity:1.00" />
  <line x1="11.200000000000001" y1="50.0" x2="30.200000000000003" y2="50.0" style="stroke:#999; stroke-width:3;" />
  <line x1="30.200000000000003" y1="50.0" x2="30.200000000000003" y2="50.0" style="stroke:#999; stroke-width:3;" />
  <line x1="30.200000000000003" y1="50.0" x2="30.200000000000003" y2="50.0" style="stroke:#999; stroke-width:3;" />
  <line x1="30.200000000000003" y1="50.0" x2="51.0" y2="50.0" style="stroke:#999; stroke-width:3;" />
  <rect class="anc_exon" x="51" y="35.0" width="60" height="30" style="fill:#87bcbc;fill-opacity:1.00" />
  <line x1="111" y1="50.0" x2="131" y2="50.0" style="stroke:#999; stroke-width:3;" />
  <line x1="131" y1="50.0" x2="131" y2="50.0" style="stroke:#999; stroke-width:3;" />
  <line x1="131" y1="50.0" x2="131" y2="50.0" style="stroke:#999; stroke-width:3;" />
  <line x1="131" y1="50.0" x2="151" y2="50.0" style="stroke:#999; stroke-width:3;" />
  <rect class="anc_exon" x="151" y="35.0" width="43" height="30" style="fill:#87bcbc;fill-opacity:1.00" />
  <line x1="194" y1="50.0" x2="214" y2="50.0" style="stroke:#999; stroke-width:3;" />
  <line x1="214" y1="50.0" x2="214" y2="50.0" style="stroke:#999; stroke-width:3;" />
  <line x1="214" y1="50.0" x2="214" y2="50.0" style="stroke:#999; stroke-width:3;" />
  <line x1="214" y1="50.0" x2="234" y2="50.0" style="stroke:#999; stroke-width:3;" />
  <rect class="anc_exon" x="234" y="35.0" width="63" height="30" style="fill:#87bcbc;fill-opacity:1.00" />
  <line x1="297" y1="50.0" x2="317" y2="50.0" style="stroke:#999; stroke-width:3;" />
  <line x1="317" y1="50.0" x2="317" y2="50.0" style="stroke:#999; stroke-width:3;" />
  <line x1="317" y1="50.0" x2="317" y2="50.0" style="stroke:#999; stroke-width:3;" />
  <line x1="317" y1="50.0" x2="337" y2="50.0" style="stroke:#999; stroke-width:3;" />
  <rect class="anc_exon" x="337" y="35.0" width="138" height="30" style="fill:#87bcbc;fill-opacity:1.00" />
  <line x1="475" y1="50.0" x2="495" y2="50.0" style="stroke:#999; stroke-width:3;" />
  <line x1="495" y1="50.0" x2="495" y2="50.0" style="stroke:#999; stroke-width:3;" />
  <line x1="495" y1="50.0" x2="495" y2="50.0" style="stroke:#999; stroke-width:3;" />
  <line x1="495" y1="50.0" x2="515" y2="50.0" style="stroke:#999; stroke-width:3;" />
  <rect class="anc_exon" x="515" y="35.0" width="87" height="30" style="fill:#87bcbc;fill-opacity:1.00" />
  <line x1="602" y1="50.0" x2="622" y2="50.0" style="stroke:#999; stroke-width:3;" />
  <line x1="622" y1="50.0" x2="622" y2="50.0" style="stroke:#999; stroke-width:3;" />
  <line x1="622" y1="50.0" x2="622" y2="50.0" style="stroke:#999; stroke-width:3;" />
  <line x1="622" y1="50.0" x2="642" y2="50.0" style="stroke:#999; stroke-width:3;" />
  <rect class="anc_exon" x="642" y="35.0" width="136" height="30" style="fill:#87bcbc;fill-opacity:1.00" />
  <line x1="778" y1="50.0" x2="798" y2="50.0" style="stroke:#999; stroke-width:3;" />
  <line x1="798" y1="50.0" x2="798" y2="50.0" style="stroke:#999; stroke-width:3;" />
  <line x1="798" y1="50.0" x2="798" y2="50.0" style="stroke:#999; stroke-width:3;" />
  <line x1="798" y1="50.0" x2="818" y2="50.0" style="stroke:#999; stroke-width:3;" />
  <rect class="anc_exon" x="818" y="35.0" width="28" height="30" style="fill:#87bcbc;fill-opacity:1.00" />
  <line x1="846" y1="50.0" x2="866" y2="50.0" style="stroke:#999; stroke-width:3;" />
  <line x1="866" y1="50.0" x2="866" y2="50.0" style="stroke:#999; stroke-width:3;" />
  <line x1="866" y1="50.0" x2="866" y2="50.0" style="stroke:#999; stroke-width:3;" />
  <line x1="866" y1="50.0" x2="886" y2="50.0" style="stroke:#999; stroke-width:3;" />
  <rect class="anc_exon" x="886" y="35.0" width="92" height="30" style="fill:#87bcbc;fill-opacity:1.00" />
  <line x1="978" y1="50.0" x2="998" y2="50.0" style="stroke:#999; stroke-width:3;" />
  <line x1="998" y1="50.0" x2="998" y2="50.0" style="stroke:#999; stroke-width:3;" />
  <line x1="998" y1="50.0" x2="998" y2="50.0" style="stroke:#999; stroke-width:3;" />
  <line x1="998" y1="50.0" x2="1018" y2="50.0" style="stroke:#999; stroke-width:3;" />
  <rect class="anc_exon" x="1018" y="35.0" width="69" height="30" style="fill:#87bcbc;fill-opacity:1.00" />
  <line x1="1087" y1="50.0" x2="1107" y2="50.0" style="stroke:#999; stroke-width:3;" />
  <line x1="1107" y1="50.0" x2="1107" y2="50.0" style="stroke:#999; stroke-width:3;" />
  <line x1="1107" y1="50.0" x2="1107" y2="50.0" style="stroke:#999; stroke-width:3;" />
  <line x1="1107" y1="50.0" x2="1127" y2="50.0" style="stroke:#999; stroke-width:3;" />
  <rect class="anc_exon" x="1127" y="35.0" width="100" height="30" style="fill:#87bcbc;fill-opacity:1.00" />
  <rect class="anc_exon" x="1227" y="35.0" width="0" height="30" style="fill:#87bcbc;fill-opacity:1.00" />
  <text style="" >
<tspan x="0" y="83.0" style="font-size:18px;" >SP XM_031949473_1.1</tspan>  </text>



<script type="text/ecmascript">
<![CDATA[
function draw_bbox(text_id)
{
    var text_elem = document.getElementById(text_id);
    var offset_px = 2;
    var offset_py = 0;
    bbox = text_elem.getBBox();
    var box = document.createElementNS(document.rootElement.namespaceURI,'rect');
    box.setAttribute('x', bbox.x - offset_px);
    box.setAttribute('y', bbox.y - offset_py);
    box.setAttribute('width', bbox.width + offset_px * 2);
    box.setAttribute('height', bbox.height + offset_py * 2);
    box.setAttribute('style','fill: white;'+'stroke: black;'+'stroke-width: 1px;');
    text_elem.insertBefore(box,text_elem.childNodes[0]);

    var svg = text_elem.parentNode;
    svg.appendChild(text_elem);
}

for (var i=1; i < 1; i++)
{
draw_bbox("Mouseover" + i);
}
]]> 
</script>
</svg>
