<svg version="1.1"
xmlns="http://www.w3.org/2000/svg"
xmlns:xlink="http://www.w3.org/1999/xlink"
width="3025" height="100" viewBox = "0 0 3025 100"
onclick="mouseclick(evt)">

<script type="text/ecmascript">

<![CDATA[
    function mouseover(evt, target) { 
    var gv = document.getElementById("globalVariable");
    var previoustarget = gv.firstChild.nodeValue;
    if (previoustarget != "none") 
    {
        	document.getElementById(gv.firstChild.nodeValue).setAttributeNS(null, "visibility", "hidden");
    }
    document.getElementById(target).setAttributeNS(null, "visibility", "visible");
    gv.firstChild.nodeValue = target;
        }

    function mouseclick(evt) { 
    var gv = document.getElementById("globalVariable");
    var previoustarget = gv.firstChild.nodeValue;
    if (previoustarget != "none") {
        	document.getElementById(gv.firstChild.nodeValue).setAttributeNS(null, "visibility", "hidden");
        }
    }
]]>
  </script>
<style type="text/css" >

<![CDATA[
    rect.anc_exon {
              stroke-width:3;
                  }

    rect.non_anc_exon {
              stroke: black; stroke-width:3; stroke-dasharray: 5,5;
                    }

    text {
              font-size: 18px;
              font-family: Courier New;
          }
                    ]]>
</style>

<defs>
    <text x="150" y="40" id="globalVariable">none</text>
</defs>

  <rect class="anc_exon" x="0" y="35.0" width="0" height="30" style="fill:#87bcbc;fill-opacity:1.00" />
  <rect class="anc_exon" x="0" y="35.0" width="102.4" height="30" style="fill:#87bcbc;fill-opacity:1.00" />
  <line x1="102.4" y1="50.0" x2="121.4" y2="50.0" style="stroke:#999; stroke-width:3;" />
  <line x1="121.4" y1="50.0" x2="121.4" y2="50.0" style="stroke:#999; stroke-width:3;" />
  <line x1="121.4" y1="50.0" x2="121.4" y2="50.0" style="stroke:#999; stroke-width:3;" />
  <line x1="121.4" y1="50.0" x2="142.0" y2="50.0" style="stroke:#999; stroke-width:3;" />
  <rect class="anc_exon" x="142" y="35.0" width="35" height="30" style="fill:#87bcbc;fill-opacity:1.00" />
  <line x1="177" y1="50.0" x2="217" y2="50.0" style="stroke:#999; stroke-width:3;" />
  <rect class="anc_exon" x="217" y="35.0" width="436" height="30" style="fill:#87bcbc;fill-opacity:1.00" />
  <line x1="653" y1="50.0" x2="693" y2="50.0" style="stroke:#999; stroke-width:3;" />
  <rect class="anc_exon" x="693" y="35.0" width="44" height="30" style="fill:#87bcbc;fill-opacity:1.00" />
  <line x1="737" y1="50.0" x2="757" y2="50.0" style="stroke:#999; stroke-width:3;" />
  <line x1="757" y1="50.0" x2="757" y2="50.0" style="stroke:#999; stroke-width:3;" />
  <line x1="757" y1="50.0" x2="757" y2="50.0" style="stroke:#999; stroke-width:3;" />
  <line x1="757" y1="50.0" x2="777" y2="50.0" style="stroke:#999; stroke-width:3;" />
  <rect class="anc_exon" x="777" y="35.0" width="402" height="30" style="fill:#87bcbc;fill-opacity:1.00" />
  <line x1="1179" y1="50.0" x2="1219" y2="50.0" style="stroke:#999; stroke-width:3;" />
  <rect class="anc_exon" x="1219" y="35.0" width="56" height="30" style="fill:#87bcbc;fill-opacity:1.00" />
  <line x1="1275" y1="50.0" x2="1315" y2="50.0" style="stroke:#999; stroke-width:3;" />
  <rect class="anc_exon" x="1315" y="35.0" width="98" height="30" style="fill:#87bcbc;fill-opacity:1.00" />
  <line x1="1413" y1="50.0" x2="1453" y2="50.0" style="stroke:#999; stroke-width:3;" />
  <rect class="anc_exon" x="1453" y="35.0" width="134" height="30" style="fill:#87bcbc;fill-opacity:1.00" />
  <line x1="1587" y1="50.0" x2="1627" y2="50.0" style="stroke:#999; stroke-width:3;" />
  <rect class="anc_exon" x="1627" y="35.0" width="82" height="30" style="fill:#87bcbc;fill-opacity:1.00" />
  <line x1="1709" y1="50.0" x2="1729" y2="50.0" style="stroke:#999; stroke-width:3;" />
  <line x1="1729" y1="50.0" x2="1729" y2="50.0" style="stroke:#999; stroke-width:3;" />
  <line x1="1729" y1="50.0" x2="1729" y2="50.0" style="stroke:#999; stroke-width:3;" />
  <line x1="1729" y1="50.0" x2="1749" y2="50.0" style="stroke:#999; stroke-width:3;" />
  <rect class="anc_exon" x="1749" y="35.0" width="60" height="30" style="fill:#87bcbc;fill-opacity:1.00" />
  <line x1="1809" y1="50.0" x2="1849" y2="50.0" style="stroke:#999; stroke-width:3;" />
  <rect class="anc_exon" x="1849" y="35.0" width="111" height="30" style="fill:#87bcbc;fill-opacity:1.00" />
  <line x1="1960" y1="50.0" x2="1980" y2="50.0" style="stroke:#999; stroke-width:3;" />
  <line x1="1980" y1="50.0" x2="1980" y2="50.0" style="stroke:#999; stroke-width:3;" />
  <line x1="1980" y1="50.0" x2="1980" y2="50.0" style="stroke:#999; stroke-width:3;" />
  <line x1="1980" y1="50.0" x2="2000" y2="50.0" style="stroke:#999; stroke-width:3;" />
  <rect class="anc_exon" x="2000" y="35.0" width="84" height="30" style="fill:#87bcbc;fill-opacity:1.00" />
  <line x1="2084" y1="50.0" x2="2124" y2="50.0" style="stroke:#999; stroke-width:3;" />
  <rect class="anc_exon" x="2124" y="35.0" width="141" height="30" style="fill:#87bcbc;fill-opacity:1.00" />
  <line x1="2265" y1="50.0" x2="2305" y2="50.0" style="stroke:#999; stroke-width:3;" />
  <rect class="anc_exon" x="2305" y="35.0" width="78" height="30" style="fill:#87bcbc;fill-opacity:1.00" />
  <line x1="2383" y1="50.0" x2="2423" y2="50.0" style="stroke:#999; stroke-width:3;" />
  <rect class="anc_exon" x="2423" y="35.0" width="70" height="30" style="fill:#87bcbc;fill-opacity:1.00" />
  <line x1="2493" y1="50.0" x2="2533" y2="50.0" style="stroke:#999; stroke-width:3;" />
  <rect class="anc_exon" x="2533" y="35.0" width="105" height="30" style="fill:#87bcbc;fill-opacity:1.00" />
  <line x1="2638" y1="50.0" x2="2658" y2="50.0" style="stroke:#999; stroke-width:3;" />
  <line x1="2658" y1="50.0" x2="2658" y2="50.0" style="stroke:#999; stroke-width:3;" />
  <line x1="2658" y1="50.0" x2="2658" y2="50.0" style="stroke:#999; stroke-width:3;" />
  <line x1="2658" y1="50.0" x2="2678" y2="50.0" style="stroke:#999; stroke-width:3;" />
  <rect class="anc_exon" x="2678" y="35.0" width="60" height="30" style="fill:#87bcbc;fill-opacity:1.00" />
  <line x1="2738" y1="50.0" x2="2778" y2="50.0" style="stroke:#999; stroke-width:3;" />
  <rect class="anc_exon" x="2778" y="35.0" width="69" height="30" style="fill:#87bcbc;fill-opacity:1.00" />
  <line x1="2847" y1="50.0" x2="2887" y2="50.0" style="stroke:#999; stroke-width:3;" />
  <rect class="anc_exon" x="2887" y="35.0" width="55" height="30" style="fill:#87bcbc;fill-opacity:1.00" />
  <line x1="2942" y1="50.0" x2="2962" y2="50.0" style="stroke:#999; stroke-width:3;" />
  <line x1="2962" y1="50.0" x2="2962" y2="50.0" style="stroke:#999; stroke-width:3;" />
  <line x1="2962" y1="50.0" x2="2962" y2="50.0" style="stroke:#999; stroke-width:3;" />
  <line x1="2962" y1="50.0" x2="2982" y2="50.0" style="stroke:#999; stroke-width:3;" />
  <rect class="anc_exon" x="2982" y="35.0" width="7" height="30" style="fill:#87bcbc;fill-opacity:1.00" />
  <rect class="anc_exon" x="2989" y="35.0" width="0" height="30" style="fill:#87bcbc;fill-opacity:1.00" />
  <text style="" >
<tspan x="0" y="83.0" style="font-size:18px;" >SP XM_031955710_1.1</tspan>  </text>



<script type="text/ecmascript">
<![CDATA[
function draw_bbox(text_id)
{
    var text_elem = document.getElementById(text_id);
    var offset_px = 2;
    var offset_py = 0;
    bbox = text_elem.getBBox();
    var box = document.createElementNS(document.rootElement.namespaceURI,'rect');
    box.setAttribute('x', bbox.x - offset_px);
    box.setAttribute('y', bbox.y - offset_py);
    box.setAttribute('width', bbox.width + offset_px * 2);
    box.setAttribute('height', bbox.height + offset_py * 2);
    box.setAttribute('style','fill: white;'+'stroke: black;'+'stroke-width: 1px;');
    text_elem.insertBefore(box,text_elem.childNodes[0]);

    var svg = text_elem.parentNode;
    svg.appendChild(text_elem);
}

for (var i=1; i < 1; i++)
{
draw_bbox("Mouseover" + i);
}
]]> 
</script>
</svg>
