<svg version="1.1"
xmlns="http://www.w3.org/2000/svg"
xmlns:xlink="http://www.w3.org/1999/xlink"
width="4613" height="100" viewBox = "0 0 4613 100"
onclick="mouseclick(evt)">

<script type="text/ecmascript">

<![CDATA[
    function mouseover(evt, target) { 
    var gv = document.getElementById("globalVariable");
    var previoustarget = gv.firstChild.nodeValue;
    if (previoustarget != "none") 
    {
        	document.getElementById(gv.firstChild.nodeValue).setAttributeNS(null, "visibility", "hidden");
    }
    document.getElementById(target).setAttributeNS(null, "visibility", "visible");
    gv.firstChild.nodeValue = target;
        }

    function mouseclick(evt) { 
    var gv = document.getElementById("globalVariable");
    var previoustarget = gv.firstChild.nodeValue;
    if (previoustarget != "none") {
        	document.getElementById(gv.firstChild.nodeValue).setAttributeNS(null, "visibility", "hidden");
        }
    }
]]>
  </script>
<style type="text/css" >

<![CDATA[
    rect.anc_exon {
              stroke-width:3;
                  }

    rect.non_anc_exon {
              stroke: black; stroke-width:3; stroke-dasharray: 5,5;
                    }

    text {
              font-size: 18px;
              font-family: Courier New;
          }
                    ]]>
</style>

<defs>
    <text x="150" y="40" id="globalVariable">none</text>
</defs>

  <rect class="anc_exon" x="0" y="35.0" width="0" height="30" style="fill:#87bcbc;fill-opacity:1.00" />
  <rect class="anc_exon" x="0" y="35.0" width="56.0" height="30" style="fill:#87bcbc;fill-opacity:1.00" />
  <line x1="56.0" y1="50.0" x2="76.0" y2="50.0" style="stroke:#999; stroke-width:3;" />
  <line x1="76.0" y1="50.0" x2="76.0" y2="50.0" style="stroke:#999; stroke-width:3;" />
  <line x1="76.0" y1="50.0" x2="76.0" y2="50.0" style="stroke:#999; stroke-width:3;" />
  <line x1="76.0" y1="50.0" x2="96.0" y2="50.0" style="stroke:#999; stroke-width:3;" />
  <rect class="anc_exon" x="96" y="35.0" width="100" height="30" style="fill:#87bcbc;fill-opacity:1.00" />
  <line x1="196" y1="50.0" x2="216" y2="50.0" style="stroke:#999; stroke-width:3;" />
  <line x1="216" y1="50.0" x2="216" y2="50.0" style="stroke:#999; stroke-width:3;" />
  <line x1="216" y1="50.0" x2="216" y2="50.0" style="stroke:#999; stroke-width:3;" />
  <line x1="216" y1="50.0" x2="236" y2="50.0" style="stroke:#999; stroke-width:3;" />
  <rect class="anc_exon" x="236" y="35.0" width="217" height="30" style="fill:#87bcbc;fill-opacity:1.00" />
  <line x1="453" y1="50.0" x2="473" y2="50.0" style="stroke:#999; stroke-width:3;" />
  <line x1="473" y1="50.0" x2="473" y2="50.0" style="stroke:#999; stroke-width:3;" />
  <line x1="473" y1="50.0" x2="473" y2="50.0" style="stroke:#999; stroke-width:3;" />
  <line x1="473" y1="50.0" x2="493" y2="50.0" style="stroke:#999; stroke-width:3;" />
  <rect class="anc_exon" x="493" y="35.0" width="65" height="30" style="fill:#87bcbc;fill-opacity:1.00" />
  <line x1="558" y1="50.0" x2="578" y2="50.0" style="stroke:#999; stroke-width:3;" />
  <line x1="578" y1="50.0" x2="578" y2="50.0" style="stroke:#999; stroke-width:3;" />
  <line x1="578" y1="50.0" x2="578" y2="50.0" style="stroke:#999; stroke-width:3;" />
  <line x1="578" y1="50.0" x2="598" y2="50.0" style="stroke:#999; stroke-width:3;" />
  <rect class="anc_exon" x="598" y="35.0" width="92" height="30" style="fill:#87bcbc;fill-opacity:1.00" />
  <line x1="690" y1="50.0" x2="710" y2="50.0" style="stroke:#999; stroke-width:3;" />
  <line x1="710" y1="50.0" x2="710" y2="50.0" style="stroke:#999; stroke-width:3;" />
  <line x1="710" y1="50.0" x2="710" y2="50.0" style="stroke:#999; stroke-width:3;" />
  <line x1="710" y1="50.0" x2="730" y2="50.0" style="stroke:#999; stroke-width:3;" />
  <rect class="anc_exon" x="730" y="35.0" width="140" height="30" style="fill:#87bcbc;fill-opacity:1.00" />
  <line x1="870" y1="50.0" x2="890" y2="50.0" style="stroke:#999; stroke-width:3;" />
  <line x1="890" y1="50.0" x2="890" y2="50.0" style="stroke:#999; stroke-width:3;" />
  <line x1="890" y1="50.0" x2="890" y2="50.0" style="stroke:#999; stroke-width:3;" />
  <line x1="890" y1="50.0" x2="910" y2="50.0" style="stroke:#999; stroke-width:3;" />
  <rect class="anc_exon" x="910" y="35.0" width="235" height="30" style="fill:#87bcbc;fill-opacity:1.00" />
  <line x1="1145" y1="50.0" x2="1165" y2="50.0" style="stroke:#999; stroke-width:3;" />
  <line x1="1165" y1="50.0" x2="1165" y2="50.0" style="stroke:#999; stroke-width:3;" />
  <line x1="1165" y1="50.0" x2="1165" y2="50.0" style="stroke:#999; stroke-width:3;" />
  <line x1="1165" y1="50.0" x2="1185" y2="50.0" style="stroke:#999; stroke-width:3;" />
  <rect class="anc_exon" x="1185" y="35.0" width="237" height="30" style="fill:#87bcbc;fill-opacity:1.00" />
  <line x1="1422" y1="50.0" x2="1442" y2="50.0" style="stroke:#999; stroke-width:3;" />
  <line x1="1442" y1="50.0" x2="1442" y2="50.0" style="stroke:#999; stroke-width:3;" />
  <line x1="1442" y1="50.0" x2="1442" y2="50.0" style="stroke:#999; stroke-width:3;" />
  <line x1="1442" y1="50.0" x2="1462" y2="50.0" style="stroke:#999; stroke-width:3;" />
  <rect class="anc_exon" x="1462" y="35.0" width="88" height="30" style="fill:#87bcbc;fill-opacity:1.00" />
  <line x1="1550" y1="50.0" x2="1570" y2="50.0" style="stroke:#999; stroke-width:3;" />
  <line x1="1570" y1="50.0" x2="1570" y2="50.0" style="stroke:#999; stroke-width:3;" />
  <line x1="1570" y1="50.0" x2="1570" y2="50.0" style="stroke:#999; stroke-width:3;" />
  <line x1="1570" y1="50.0" x2="1590" y2="50.0" style="stroke:#999; stroke-width:3;" />
  <rect class="anc_exon" x="1590" y="35.0" width="161" height="30" style="fill:#87bcbc;fill-opacity:1.00" />
  <line x1="1751" y1="50.0" x2="1771" y2="50.0" style="stroke:#999; stroke-width:3;" />
  <line x1="1771" y1="50.0" x2="1771" y2="50.0" style="stroke:#999; stroke-width:3;" />
  <line x1="1771" y1="50.0" x2="1771" y2="50.0" style="stroke:#999; stroke-width:3;" />
  <line x1="1771" y1="50.0" x2="1791" y2="50.0" style="stroke:#999; stroke-width:3;" />
  <rect class="anc_exon" x="1791" y="35.0" width="82" height="30" style="fill:#87bcbc;fill-opacity:1.00" />
  <line x1="1873" y1="50.0" x2="1893" y2="50.0" style="stroke:#999; stroke-width:3;" />
  <line x1="1893" y1="50.0" x2="1893" y2="50.0" style="stroke:#999; stroke-width:3;" />
  <line x1="1893" y1="50.0" x2="1893" y2="50.0" style="stroke:#999; stroke-width:3;" />
  <line x1="1893" y1="50.0" x2="1913" y2="50.0" style="stroke:#999; stroke-width:3;" />
  <rect class="anc_exon" x="1913" y="35.0" width="219" height="30" style="fill:#87bcbc;fill-opacity:1.00" />
  <line x1="2132" y1="50.0" x2="2152" y2="50.0" style="stroke:#999; stroke-width:3;" />
  <line x1="2152" y1="50.0" x2="2152" y2="50.0" style="stroke:#999; stroke-width:3;" />
  <line x1="2152" y1="50.0" x2="2152" y2="50.0" style="stroke:#999; stroke-width:3;" />
  <line x1="2152" y1="50.0" x2="2172" y2="50.0" style="stroke:#999; stroke-width:3;" />
  <rect class="anc_exon" x="2172" y="35.0" width="29" height="30" style="fill:#87bcbc;fill-opacity:1.00" />
  <line x1="2201" y1="50.0" x2="2221" y2="50.0" style="stroke:#999; stroke-width:3;" />
  <line x1="2221" y1="50.0" x2="2221" y2="50.0" style="stroke:#999; stroke-width:3;" />
  <line x1="2221" y1="50.0" x2="2221" y2="50.0" style="stroke:#999; stroke-width:3;" />
  <line x1="2221" y1="50.0" x2="2241" y2="50.0" style="stroke:#999; stroke-width:3;" />
  <rect class="anc_exon" x="2241" y="35.0" width="108" height="30" style="fill:#87bcbc;fill-opacity:1.00" />
  <line x1="2349" y1="50.0" x2="2369" y2="50.0" style="stroke:#999; stroke-width:3;" />
  <line x1="2369" y1="50.0" x2="2369" y2="50.0" style="stroke:#999; stroke-width:3;" />
  <line x1="2369" y1="50.0" x2="2369" y2="50.0" style="stroke:#999; stroke-width:3;" />
  <line x1="2369" y1="50.0" x2="2389" y2="50.0" style="stroke:#999; stroke-width:3;" />
  <rect class="anc_exon" x="2389" y="35.0" width="119" height="30" style="fill:#87bcbc;fill-opacity:1.00" />
  <line x1="2508" y1="50.0" x2="2528" y2="50.0" style="stroke:#999; stroke-width:3;" />
  <line x1="2528" y1="50.0" x2="2528" y2="50.0" style="stroke:#999; stroke-width:3;" />
  <line x1="2528" y1="50.0" x2="2528" y2="50.0" style="stroke:#999; stroke-width:3;" />
  <line x1="2528" y1="50.0" x2="2548" y2="50.0" style="stroke:#999; stroke-width:3;" />
  <rect class="anc_exon" x="2548" y="35.0" width="150" height="30" style="fill:#878787;fill-opacity:1.00" />
  <line x1="2698" y1="50.0" x2="2718" y2="50.0" style="stroke:#999; stroke-width:3;" />
  <line x1="2718" y1="50.0" x2="2718" y2="50.0" style="stroke:#999; stroke-width:3;" />
  <line x1="2718" y1="50.0" x2="2718" y2="50.0" style="stroke:#999; stroke-width:3;" />
  <line x1="2718" y1="50.0" x2="2738" y2="50.0" style="stroke:#999; stroke-width:3;" />
  <rect class="anc_exon" x="2738" y="35.0" width="80" height="30" style="fill:#87bcbc;fill-opacity:1.00" />
  <line x1="2818" y1="50.0" x2="2838" y2="50.0" style="stroke:#999; stroke-width:3;" />
  <line x1="2838" y1="50.0" x2="2838" y2="50.0" style="stroke:#999; stroke-width:3;" />
  <line x1="2838" y1="50.0" x2="2838" y2="50.0" style="stroke:#999; stroke-width:3;" />
  <line x1="2838" y1="50.0" x2="2858" y2="50.0" style="stroke:#999; stroke-width:3;" />
  <rect class="anc_exon" x="2858" y="35.0" width="61" height="30" style="fill:#87bcbc;fill-opacity:1.00" />
  <line x1="2919" y1="50.0" x2="2939" y2="50.0" style="stroke:#999; stroke-width:3;" />
  <line x1="2939" y1="50.0" x2="2939" y2="50.0" style="stroke:#999; stroke-width:3;" />
  <line x1="2939" y1="50.0" x2="2939" y2="50.0" style="stroke:#999; stroke-width:3;" />
  <line x1="2939" y1="50.0" x2="2959" y2="50.0" style="stroke:#999; stroke-width:3;" />
  <rect class="anc_exon" x="2959" y="35.0" width="29" height="30" style="fill:#87bcbc;fill-opacity:1.00" />
  <line x1="2988" y1="50.0" x2="3008" y2="50.0" style="stroke:#999; stroke-width:3;" />
  <line x1="3008" y1="50.0" x2="3008" y2="50.0" style="stroke:#999; stroke-width:3;" />
  <line x1="3008" y1="50.0" x2="3008" y2="50.0" style="stroke:#999; stroke-width:3;" />
  <line x1="3008" y1="50.0" x2="3028" y2="50.0" style="stroke:#999; stroke-width:3;" />
  <rect class="anc_exon" x="3028" y="35.0" width="78" height="30" style="fill:#87bcbc;fill-opacity:1.00" />
  <line x1="3106" y1="50.0" x2="3146" y2="50.0" style="stroke:#999; stroke-width:3;" />
  <rect class="anc_exon" x="3146" y="35.0" width="93" height="30" style="fill:#87bcbc;fill-opacity:1.00" />
  <line x1="3239" y1="50.0" x2="3259" y2="50.0" style="stroke:#999; stroke-width:3;" />
  <line x1="3259" y1="50.0" x2="3259" y2="50.0" style="stroke:#999; stroke-width:3;" />
  <line x1="3259" y1="50.0" x2="3259" y2="50.0" style="stroke:#999; stroke-width:3;" />
  <line x1="3259" y1="50.0" x2="3279" y2="50.0" style="stroke:#999; stroke-width:3;" />
  <rect class="anc_exon" x="3279" y="35.0" width="124" height="30" style="fill:#87bcbc;fill-opacity:1.00" />
  <line x1="3403" y1="50.0" x2="3423" y2="50.0" style="stroke:#999; stroke-width:3;" />
  <line x1="3423" y1="50.0" x2="3423" y2="50.0" style="stroke:#999; stroke-width:3;" />
  <line x1="3423" y1="50.0" x2="3423" y2="50.0" style="stroke:#999; stroke-width:3;" />
  <line x1="3423" y1="50.0" x2="3443" y2="50.0" style="stroke:#999; stroke-width:3;" />
  <rect class="anc_exon" x="3443" y="35.0" width="108" height="30" style="fill:#87bcbc;fill-opacity:1.00" />
  <line x1="3551" y1="50.0" x2="3571" y2="50.0" style="stroke:#999; stroke-width:3;" />
  <line x1="3571" y1="50.0" x2="3571" y2="50.0" style="stroke:#999; stroke-width:3;" />
  <line x1="3571" y1="50.0" x2="3571" y2="50.0" style="stroke:#999; stroke-width:3;" />
  <line x1="3571" y1="50.0" x2="3591" y2="50.0" style="stroke:#999; stroke-width:3;" />
  <rect class="anc_exon" x="3591" y="35.0" width="120" height="30" style="fill:#878787;fill-opacity:1.00" />
  <line x1="3711" y1="50.0" x2="3751" y2="50.0" style="stroke:#999; stroke-width:3;" />
  <rect class="anc_exon" x="3751" y="35.0" width="139" height="30" style="fill:#878787;fill-opacity:1.00" />
  <line x1="3890" y1="50.0" x2="3910" y2="50.0" style="stroke:#999; stroke-width:3;" />
  <line x1="3910" y1="50.0" x2="3910" y2="50.0" style="stroke:#999; stroke-width:3;" />
  <line x1="3910" y1="50.0" x2="3910" y2="50.0" style="stroke:#999; stroke-width:3;" />
  <line x1="3910" y1="50.0" x2="3930" y2="50.0" style="stroke:#999; stroke-width:3;" />
  <rect class="anc_exon" x="3930" y="35.0" width="105" height="30" style="fill:#87bcbc;fill-opacity:1.00" />
  <line x1="4035" y1="50.0" x2="4055" y2="50.0" style="stroke:#999; stroke-width:3;" />
  <line x1="4055" y1="50.0" x2="4055" y2="50.0" style="stroke:#999; stroke-width:3;" />
  <line x1="4055" y1="50.0" x2="4055" y2="50.0" style="stroke:#999; stroke-width:3;" />
  <line x1="4055" y1="50.0" x2="4075" y2="50.0" style="stroke:#999; stroke-width:3;" />
  <rect class="anc_exon" x="4075" y="35.0" width="100" height="30" style="fill:#87bcbc;fill-opacity:1.00" />
  <line x1="4175" y1="50.0" x2="4215" y2="50.0" style="stroke:#999; stroke-width:3;" />
  <rect class="anc_exon" x="4215" y="35.0" width="131" height="30" style="fill:#87bcbc;fill-opacity:1.00" />
  <line x1="4346" y1="50.0" x2="4386" y2="50.0" style="stroke:#999; stroke-width:3;" />
  <rect class="anc_exon" x="4386" y="35.0" width="108" height="30" style="fill:#87bcbc;fill-opacity:1.00" />
  <line x1="4494" y1="50.0" x2="4534" y2="50.0" style="stroke:#999; stroke-width:3;" />
  <rect class="anc_exon" x="4534" y="35.0" width="43" height="30" style="fill:#87bcbc;fill-opacity:1.00" />
  <rect class="anc_exon" x="4577" y="35.0" width="0" height="30" style="fill:#87bcbc;fill-opacity:1.00" />
  <text style="" >
<tspan x="0" y="83.0" style="font-size:18px;" >SP XM_031953988_1.1</tspan>  </text>



<script type="text/ecmascript">
<![CDATA[
function draw_bbox(text_id)
{
    var text_elem = document.getElementById(text_id);
    var offset_px = 2;
    var offset_py = 0;
    bbox = text_elem.getBBox();
    var box = document.createElementNS(document.rootElement.namespaceURI,'rect');
    box.setAttribute('x', bbox.x - offset_px);
    box.setAttribute('y', bbox.y - offset_py);
    box.setAttribute('width', bbox.width + offset_px * 2);
    box.setAttribute('height', bbox.height + offset_py * 2);
    box.setAttribute('style','fill: white;'+'stroke: black;'+'stroke-width: 1px;');
    text_elem.insertBefore(box,text_elem.childNodes[0]);

    var svg = text_elem.parentNode;
    svg.appendChild(text_elem);
}

for (var i=1; i < 1; i++)
{
draw_bbox("Mouseover" + i);
}
]]> 
</script>
</svg>
