<svg version="1.1"
xmlns="http://www.w3.org/2000/svg"
xmlns:xlink="http://www.w3.org/1999/xlink"
width="4205" height="110.0" viewBox = "0 -10.0 4205 110.0"
onclick="mouseclick(evt)">

<script type="text/ecmascript">

<![CDATA[
    function mouseover(evt, target) { 
    var gv = document.getElementById("globalVariable");
    var previoustarget = gv.firstChild.nodeValue;
    if (previoustarget != "none") 
    {
        	document.getElementById(gv.firstChild.nodeValue).setAttributeNS(null, "visibility", "hidden");
    }
    document.getElementById(target).setAttributeNS(null, "visibility", "visible");
    gv.firstChild.nodeValue = target;
        }

    function mouseclick(evt) { 
    var gv = document.getElementById("globalVariable");
    var previoustarget = gv.firstChild.nodeValue;
    if (previoustarget != "none") {
        	document.getElementById(gv.firstChild.nodeValue).setAttributeNS(null, "visibility", "hidden");
        }
    }
]]>
  </script>
<style type="text/css" >

<![CDATA[
    rect.anc_exon {
              stroke-width:3;
                  }

    rect.non_anc_exon {
              stroke: black; stroke-width:3; stroke-dasharray: 5,5;
                    }

    text {
              font-size: 18px;
              font-family: Courier New;
          }
                    ]]>
</style>

<defs>
    <text x="150" y="40" id="globalVariable">none</text>
</defs>

  <rect class="anc_exon" x="0" y="35.0" width="0" height="30" style="fill:#87bcbc;fill-opacity:1.00" />
  <rect class="anc_exon" x="0" y="35.0" width="540.0" height="30" style="fill:#87bcbc;fill-opacity:1.00" />
  <line x1="30.400000000000002" y1="35.0" x2="30.400000000000002" y2="65.0" style="stroke:#878787;stroke-width:3;"/>
  <text style="" text-anchor="middle">
<tspan x="29.6" y="26.0" style="font-size:18px;fill:#878787;" >TGA</tspan>  </text>
  <line x1="540.0" y1="50.0" x2="560.0" y2="50.0" style="stroke:#999; stroke-width:3;" />
  <line x1="560.0" y1="50.0" x2="560.0" y2="50.0" style="stroke:#999; stroke-width:3;" />
  <line x1="560.0" y1="50.0" x2="560.0" y2="50.0" style="stroke:#999; stroke-width:3;" />
  <line x1="560.0" y1="50.0" x2="580.0" y2="50.0" style="stroke:#999; stroke-width:3;" />
  <rect class="anc_exon" x="580" y="35.0" width="60" height="30" style="fill:#87bcbc;fill-opacity:1.00" />
  <line x1="640" y1="50.0" x2="680" y2="50.0" style="stroke:#999; stroke-width:3;" />
  <rect class="anc_exon" x="680" y="35.0" width="128" height="30" style="fill:#87bcbc;fill-opacity:1.00" />
  <line x1="808" y1="50.0" x2="828" y2="50.0" style="stroke:#999; stroke-width:3;" />
  <line x1="828" y1="50.0" x2="828" y2="50.0" style="stroke:#999; stroke-width:3;" />
  <line x1="828" y1="50.0" x2="828" y2="50.0" style="stroke:#999; stroke-width:3;" />
  <line x1="828" y1="50.0" x2="848" y2="50.0" style="stroke:#999; stroke-width:3;" />
  <rect class="anc_exon" x="848" y="35.0" width="124" height="30" style="fill:#87bcbc;fill-opacity:1.00" />
  <line x1="972" y1="50.0" x2="992" y2="50.0" style="stroke:#999; stroke-width:3;" />
  <line x1="992" y1="50.0" x2="992" y2="50.0" style="stroke:#999; stroke-width:3;" />
  <line x1="992" y1="50.0" x2="992" y2="50.0" style="stroke:#999; stroke-width:3;" />
  <line x1="992" y1="50.0" x2="1012" y2="50.0" style="stroke:#999; stroke-width:3;" />
  <rect class="anc_exon" x="1012" y="35.0" width="412" height="30" style="fill:#87bcbc;fill-opacity:1.00" />
  <line x1="1424" y1="50.0" x2="1464" y2="50.0" style="stroke:#999; stroke-width:3;" />
  <rect class="anc_exon" x="1464" y="35.0" width="101" height="30" style="fill:#87bcbc;fill-opacity:1.00" />
  <line x1="1565" y1="50.0" x2="1585" y2="50.0" style="stroke:#999; stroke-width:3;" />
  <line x1="1585" y1="50.0" x2="1585" y2="50.0" style="stroke:#999; stroke-width:3;" />
  <line x1="1585" y1="50.0" x2="1585" y2="50.0" style="stroke:#999; stroke-width:3;" />
  <line x1="1585" y1="50.0" x2="1605" y2="50.0" style="stroke:#999; stroke-width:3;" />
  <rect class="anc_exon" x="1605" y="35.0" width="80" height="30" style="fill:#87bcbc;fill-opacity:1.00" />
  <line x1="1685" y1="50.0" x2="1705" y2="50.0" style="stroke:#999; stroke-width:3;" />
  <line x1="1705" y1="50.0" x2="1705" y2="50.0" style="stroke:#999; stroke-width:3;" />
  <line x1="1705" y1="50.0" x2="1705" y2="50.0" style="stroke:#999; stroke-width:3;" />
  <line x1="1705" y1="50.0" x2="1725" y2="50.0" style="stroke:#999; stroke-width:3;" />
  <rect class="anc_exon" x="1725" y="35.0" width="36" height="30" style="fill:#87bcbc;fill-opacity:1.00" />
  <line x1="1761" y1="50.0" x2="1781" y2="50.0" style="stroke:#999; stroke-width:3;" />
  <line x1="1781" y1="50.0" x2="1781" y2="50.0" style="stroke:#999; stroke-width:3;" />
  <line x1="1781" y1="50.0" x2="1781" y2="50.0" style="stroke:#999; stroke-width:3;" />
  <line x1="1781" y1="50.0" x2="1801" y2="50.0" style="stroke:#999; stroke-width:3;" />
  <rect class="anc_exon" x="1801" y="35.0" width="104" height="30" style="fill:#87bcbc;fill-opacity:1.00" />
  <line x1="1905" y1="50.0" x2="1945" y2="50.0" style="stroke:#999; stroke-width:3;" />
  <rect class="anc_exon" x="1945" y="35.0" width="103" height="30" style="fill:#87bcbc;fill-opacity:1.00" />
  <line x1="2048" y1="50.0" x2="2088" y2="50.0" style="stroke:#999; stroke-width:3;" />
  <rect class="anc_exon" x="2088" y="35.0" width="101" height="30" style="fill:#87bcbc;fill-opacity:1.00" />
  <line x1="2189" y1="50.0" x2="2209" y2="50.0" style="stroke:#999; stroke-width:3;" />
  <line x1="2209" y1="50.0" x2="2209" y2="50.0" style="stroke:#999; stroke-width:3;" />
  <line x1="2209" y1="50.0" x2="2209" y2="50.0" style="stroke:#999; stroke-width:3;" />
  <line x1="2209" y1="50.0" x2="2229" y2="50.0" style="stroke:#999; stroke-width:3;" />
  <rect class="anc_exon" x="2229" y="35.0" width="158" height="30" style="fill:#87bcbc;fill-opacity:1.00" />
  <line x1="2387" y1="50.0" x2="2407" y2="50.0" style="stroke:#999; stroke-width:3;" />
  <line x1="2407" y1="50.0" x2="2407" y2="50.0" style="stroke:#999; stroke-width:3;" />
  <line x1="2407" y1="50.0" x2="2407" y2="50.0" style="stroke:#999; stroke-width:3;" />
  <line x1="2407" y1="50.0" x2="2427" y2="50.0" style="stroke:#999; stroke-width:3;" />
  <rect class="anc_exon" x="2427" y="35.0" width="141" height="30" style="fill:#87bcbc;fill-opacity:1.00" />
  <line x1="2568" y1="50.0" x2="2588" y2="50.0" style="stroke:#999; stroke-width:3;" />
  <line x1="2588" y1="50.0" x2="2588" y2="50.0" style="stroke:#999; stroke-width:3;" />
  <line x1="2588" y1="50.0" x2="2588" y2="50.0" style="stroke:#999; stroke-width:3;" />
  <line x1="2588" y1="50.0" x2="2608" y2="50.0" style="stroke:#999; stroke-width:3;" />
  <rect class="anc_exon" x="2608" y="35.0" width="125" height="30" style="fill:#87bcbc;fill-opacity:1.00" />
  <line x1="2733" y1="50.0" x2="2753" y2="50.0" style="stroke:#999; stroke-width:3;" />
  <line x1="2753" y1="50.0" x2="2753" y2="50.0" style="stroke:#999; stroke-width:3;" />
  <line x1="2753" y1="50.0" x2="2753" y2="50.0" style="stroke:#999; stroke-width:3;" />
  <line x1="2753" y1="50.0" x2="2773" y2="50.0" style="stroke:#999; stroke-width:3;" />
  <rect class="anc_exon" x="2773" y="35.0" width="162" height="30" style="fill:#87bcbc;fill-opacity:1.00" />
  <line x1="2935" y1="50.0" x2="2975" y2="50.0" style="stroke:#999; stroke-width:3;" />
  <rect class="anc_exon" x="2975" y="35.0" width="90" height="30" style="fill:#87bcbc;fill-opacity:1.00" />
  <line x1="3065" y1="50.0" x2="3105" y2="50.0" style="stroke:#999; stroke-width:3;" />
  <rect class="anc_exon" x="3105" y="35.0" width="216" height="30" style="fill:#87bcbc;fill-opacity:1.00" />
  <line x1="3321" y1="50.0" x2="3341" y2="50.0" style="stroke:#999; stroke-width:3;" />
  <line x1="3341" y1="50.0" x2="3341" y2="50.0" style="stroke:#999; stroke-width:3;" />
  <line x1="3341" y1="50.0" x2="3341" y2="50.0" style="stroke:#999; stroke-width:3;" />
  <line x1="3341" y1="50.0" x2="3361" y2="50.0" style="stroke:#999; stroke-width:3;" />
  <rect class="anc_exon" x="3361" y="35.0" width="93" height="30" style="fill:#87bcbc;fill-opacity:1.00" />
  <line x1="3454" y1="50.0" x2="3494" y2="50.0" style="stroke:#999; stroke-width:3;" />
  <rect class="anc_exon" x="3494" y="35.0" width="113" height="30" style="fill:#87bcbc;fill-opacity:1.00" />
  <line x1="3607" y1="50.0" x2="3647" y2="50.0" style="stroke:#999; stroke-width:3;" />
  <rect class="anc_exon" x="3647" y="35.0" width="85" height="30" style="fill:#87bcbc;fill-opacity:1.00" />
  <line x1="3732" y1="50.0" x2="3772" y2="50.0" style="stroke:#999; stroke-width:3;" />
  <rect class="anc_exon" x="3772" y="35.0" width="164" height="30" style="fill:#87bcbc;fill-opacity:1.00" />
  <line x1="3936" y1="50.0" x2="3976" y2="50.0" style="stroke:#999; stroke-width:3;" />
  <rect class="anc_exon" x="3976" y="35.0" width="193" height="30" style="fill:#87bcbc;fill-opacity:1.00" />
  <rect class="anc_exon" x="4169" y="35.0" width="0" height="30" style="fill:#87bcbc;fill-opacity:1.00" />
  <text style="" >
<tspan x="0" y="83.0" style="font-size:18px;" >SP XM_031950695_1.1</tspan>  </text>



<script type="text/ecmascript">
<![CDATA[
function draw_bbox(text_id)
{
    var text_elem = document.getElementById(text_id);
    var offset_px = 2;
    var offset_py = 0;
    bbox = text_elem.getBBox();
    var box = document.createElementNS(document.rootElement.namespaceURI,'rect');
    box.setAttribute('x', bbox.x - offset_px);
    box.setAttribute('y', bbox.y - offset_py);
    box.setAttribute('width', bbox.width + offset_px * 2);
    box.setAttribute('height', bbox.height + offset_py * 2);
    box.setAttribute('style','fill: white;'+'stroke: black;'+'stroke-width: 1px;');
    text_elem.insertBefore(box,text_elem.childNodes[0]);

    var svg = text_elem.parentNode;
    svg.appendChild(text_elem);
}

for (var i=1; i < 1; i++)
{
draw_bbox("Mouseover" + i);
}
]]> 
</script>
</svg>
