<svg version="1.1"
xmlns="http://www.w3.org/2000/svg"
xmlns:xlink="http://www.w3.org/1999/xlink"
width="3563" height="100" viewBox = "0 0 3563 100"
onclick="mouseclick(evt)">

<script type="text/ecmascript">

<![CDATA[
    function mouseover(evt, target) { 
    var gv = document.getElementById("globalVariable");
    var previoustarget = gv.firstChild.nodeValue;
    if (previoustarget != "none") 
    {
        	document.getElementById(gv.firstChild.nodeValue).setAttributeNS(null, "visibility", "hidden");
    }
    document.getElementById(target).setAttributeNS(null, "visibility", "visible");
    gv.firstChild.nodeValue = target;
        }

    function mouseclick(evt) { 
    var gv = document.getElementById("globalVariable");
    var previoustarget = gv.firstChild.nodeValue;
    if (previoustarget != "none") {
        	document.getElementById(gv.firstChild.nodeValue).setAttributeNS(null, "visibility", "hidden");
        }
    }
]]>
  </script>
<style type="text/css" >

<![CDATA[
    rect.anc_exon {
              stroke-width:3;
                  }

    rect.non_anc_exon {
              stroke: black; stroke-width:3; stroke-dasharray: 5,5;
                    }

    text {
              font-size: 18px;
              font-family: Courier New;
          }
                    ]]>
</style>

<defs>
    <text x="150" y="40" id="globalVariable">none</text>
</defs>

  <rect class="anc_exon" x="0" y="35.0" width="0" height="30" style="fill:#87bcbc;fill-opacity:1.00" />
  <rect class="anc_exon" x="0" y="35.0" width="15.200000000000001" height="30" style="fill:#878787;fill-opacity:1.00" />
  <line x1="15.200000000000001" y1="50.0" x2="55.0" y2="50.0" style="stroke:#999; stroke-width:3;" />
  <rect class="anc_exon" x="55" y="35.0" width="101" height="30" style="fill:#87bcbc;fill-opacity:1.00" />
  <line x1="156" y1="50.0" x2="196" y2="50.0" style="stroke:#999; stroke-width:3;" />
  <rect class="anc_exon" x="196" y="35.0" width="122" height="30" style="fill:#87bcbc;fill-opacity:1.00" />
  <line x1="318" y1="50.0" x2="358" y2="50.0" style="stroke:#999; stroke-width:3;" />
  <rect class="anc_exon" x="358" y="35.0" width="63" height="30" style="fill:#87bcbc;fill-opacity:1.00" />
  <line x1="421" y1="50.0" x2="441" y2="50.0" style="stroke:#999; stroke-width:3;" />
  <line x1="441" y1="50.0" x2="441" y2="50.0" style="stroke:#999; stroke-width:3;" />
  <line x1="441" y1="50.0" x2="441" y2="50.0" style="stroke:#999; stroke-width:3;" />
  <line x1="441" y1="50.0" x2="461" y2="50.0" style="stroke:#999; stroke-width:3;" />
  <rect class="anc_exon" x="461" y="35.0" width="19" height="30" style="fill:#87bcbc;fill-opacity:1.00" />
  <line x1="480" y1="50.0" x2="520" y2="50.0" style="stroke:#999; stroke-width:3;" />
  <rect class="anc_exon" x="520" y="35.0" width="43" height="30" style="fill:#87bcbc;fill-opacity:1.00" />
  <line x1="563" y1="50.0" x2="603" y2="50.0" style="stroke:#999; stroke-width:3;" />
  <rect class="anc_exon" x="603" y="35.0" width="122" height="30" style="fill:#87bcbc;fill-opacity:1.00" />
  <line x1="725" y1="50.0" x2="765" y2="50.0" style="stroke:#999; stroke-width:3;" />
  <rect class="anc_exon" x="765" y="35.0" width="51" height="30" style="fill:#87bcbc;fill-opacity:1.00" />
  <line x1="816" y1="50.0" x2="856" y2="50.0" style="stroke:#999; stroke-width:3;" />
  <rect class="anc_exon" x="856" y="35.0" width="35" height="30" style="fill:#87bcbc;fill-opacity:1.00" />
  <line x1="891" y1="50.0" x2="931" y2="50.0" style="stroke:#999; stroke-width:3;" />
  <rect class="anc_exon" x="931" y="35.0" width="100" height="30" style="fill:#87bcbc;fill-opacity:1.00" />
  <line x1="1031" y1="50.0" x2="1071" y2="50.0" style="stroke:#999; stroke-width:3;" />
  <rect class="anc_exon" x="1071" y="35.0" width="119" height="30" style="fill:#87bcbc;fill-opacity:1.00" />
  <line x1="1190" y1="50.0" x2="1230" y2="50.0" style="stroke:#999; stroke-width:3;" />
  <rect class="anc_exon" x="1230" y="35.0" width="104" height="30" style="fill:#87bcbc;fill-opacity:1.00" />
  <line x1="1334" y1="50.0" x2="1374" y2="50.0" style="stroke:#999; stroke-width:3;" />
  <rect class="anc_exon" x="1374" y="35.0" width="835" height="30" style="fill:#87bcbc;fill-opacity:1.00" />
  <line x1="2209" y1="50.0" x2="2249" y2="50.0" style="stroke:#999; stroke-width:3;" />
  <rect class="anc_exon" x="2249" y="35.0" width="95" height="30" style="fill:#87bcbc;fill-opacity:1.00" />
  <line x1="2344" y1="50.0" x2="2384" y2="50.0" style="stroke:#999; stroke-width:3;" />
  <rect class="anc_exon" x="2384" y="35.0" width="125" height="30" style="fill:#87bcbc;fill-opacity:1.00" />
  <line x1="2509" y1="50.0" x2="2549" y2="50.0" style="stroke:#999; stroke-width:3;" />
  <rect class="anc_exon" x="2549" y="35.0" width="108" height="30" style="fill:#87bcbc;fill-opacity:1.00" />
  <line x1="2657" y1="50.0" x2="2697" y2="50.0" style="stroke:#999; stroke-width:3;" />
  <rect class="anc_exon" x="2697" y="35.0" width="129" height="30" style="fill:#87bcbc;fill-opacity:1.00" />
  <line x1="2826" y1="50.0" x2="2866" y2="50.0" style="stroke:#999; stroke-width:3;" />
  <rect class="anc_exon" x="2866" y="35.0" width="127" height="30" style="fill:#87bcbc;fill-opacity:1.00" />
  <line x1="2993" y1="50.0" x2="3033" y2="50.0" style="stroke:#999; stroke-width:3;" />
  <rect class="anc_exon" x="3033" y="35.0" width="157" height="30" style="fill:#87bcbc;fill-opacity:1.00" />
  <line x1="3190" y1="50.0" x2="3230" y2="50.0" style="stroke:#999; stroke-width:3;" />
  <rect class="anc_exon" x="3230" y="35.0" width="67" height="30" style="fill:#87bcbc;fill-opacity:1.00" />
  <line x1="3297" y1="50.0" x2="3337" y2="50.0" style="stroke:#999; stroke-width:3;" />
  <rect class="anc_exon" x="3337" y="35.0" width="72" height="30" style="fill:#87bcbc;fill-opacity:1.00" />
  <line x1="3409" y1="50.0" x2="3449" y2="50.0" style="stroke:#999; stroke-width:3;" />
  <rect class="anc_exon" x="3449" y="35.0" width="78" height="30" style="fill:#87bcbc;fill-opacity:1.00" />
  <rect class="anc_exon" x="3527" y="35.0" width="0" height="30" style="fill:#87bcbc;fill-opacity:1.00" />
  <text style="" >
<tspan x="0" y="83.0" style="font-size:18px;" >SP XM_031950278_1.1</tspan>  </text>



<script type="text/ecmascript">
<![CDATA[
function draw_bbox(text_id)
{
    var text_elem = document.getElementById(text_id);
    var offset_px = 2;
    var offset_py = 0;
    bbox = text_elem.getBBox();
    var box = document.createElementNS(document.rootElement.namespaceURI,'rect');
    box.setAttribute('x', bbox.x - offset_px);
    box.setAttribute('y', bbox.y - offset_py);
    box.setAttribute('width', bbox.width + offset_px * 2);
    box.setAttribute('height', bbox.height + offset_py * 2);
    box.setAttribute('style','fill: white;'+'stroke: black;'+'stroke-width: 1px;');
    text_elem.insertBefore(box,text_elem.childNodes[0]);

    var svg = text_elem.parentNode;
    svg.appendChild(text_elem);
}

for (var i=1; i < 1; i++)
{
draw_bbox("Mouseover" + i);
}
]]> 
</script>
</svg>
