<svg version="1.1"
xmlns="http://www.w3.org/2000/svg"
xmlns:xlink="http://www.w3.org/1999/xlink"
width="1467" height="100" viewBox = "0 0 1467 100"
onclick="mouseclick(evt)">

<script type="text/ecmascript">

<![CDATA[
    function mouseover(evt, target) { 
    var gv = document.getElementById("globalVariable");
    var previoustarget = gv.firstChild.nodeValue;
    if (previoustarget != "none") 
    {
        	document.getElementById(gv.firstChild.nodeValue).setAttributeNS(null, "visibility", "hidden");
    }
    document.getElementById(target).setAttributeNS(null, "visibility", "visible");
    gv.firstChild.nodeValue = target;
        }

    function mouseclick(evt) { 
    var gv = document.getElementById("globalVariable");
    var previoustarget = gv.firstChild.nodeValue;
    if (previoustarget != "none") {
        	document.getElementById(gv.firstChild.nodeValue).setAttributeNS(null, "visibility", "hidden");
        }
    }
]]>
  </script>
<style type="text/css" >

<![CDATA[
    rect.anc_exon {
              stroke-width:3;
                  }

    rect.non_anc_exon {
              stroke: black; stroke-width:3; stroke-dasharray: 5,5;
                    }

    text {
              font-size: 18px;
              font-family: Courier New;
          }
                    ]]>
</style>

<defs>
    <text x="150" y="40" id="globalVariable">none</text>
</defs>

  <rect class="anc_exon" x="0" y="35.0" width="0" height="30" style="fill:#87bcbc;fill-opacity:1.00" />
  <rect class="anc_exon" x="0" y="35.0" width="172.8" height="30" style="fill:#87bcbc;fill-opacity:1.00" />
  <line x1="172.8" y1="50.0" x2="212.0" y2="50.0" style="stroke:#999; stroke-width:3;" />
  <rect class="anc_exon" x="212" y="35.0" width="53" height="30" style="fill:#87bcbc;fill-opacity:1.00" />
  <line x1="265" y1="50.0" x2="305" y2="50.0" style="stroke:#999; stroke-width:3;" />
  <rect class="anc_exon" x="305" y="35.0" width="157" height="30" style="fill:#87bcbc;fill-opacity:1.00" />
  <line x1="462" y1="50.0" x2="482" y2="50.0" style="stroke:#999; stroke-width:3;" />
  <line x1="482" y1="50.0" x2="482" y2="50.0" style="stroke:#999; stroke-width:3;" />
  <line x1="482" y1="50.0" x2="482" y2="50.0" style="stroke:#999; stroke-width:3;" />
  <line x1="482" y1="50.0" x2="502" y2="50.0" style="stroke:#999; stroke-width:3;" />
  <rect class="anc_exon" x="502" y="35.0" width="87" height="30" style="fill:#87bcbc;fill-opacity:1.00" />
  <line x1="589" y1="50.0" x2="609" y2="50.0" style="stroke:#999; stroke-width:3;" />
  <line x1="609" y1="50.0" x2="609" y2="50.0" style="stroke:#999; stroke-width:3;" />
  <line x1="609" y1="50.0" x2="609" y2="50.0" style="stroke:#999; stroke-width:3;" />
  <line x1="609" y1="50.0" x2="629" y2="50.0" style="stroke:#999; stroke-width:3;" />
  <rect class="anc_exon" x="629" y="35.0" width="72" height="30" style="fill:#87bcbc;fill-opacity:1.00" />
  <line x1="701" y1="50.0" x2="721" y2="50.0" style="stroke:#999; stroke-width:3;" />
  <line x1="721" y1="50.0" x2="721" y2="50.0" style="stroke:#999; stroke-width:3;" />
  <line x1="721" y1="50.0" x2="721" y2="50.0" style="stroke:#999; stroke-width:3;" />
  <line x1="721" y1="50.0" x2="741" y2="50.0" style="stroke:#999; stroke-width:3;" />
  <rect class="anc_exon" x="741" y="35.0" width="91" height="30" style="fill:#87bcbc;fill-opacity:1.00" />
  <line x1="832" y1="50.0" x2="872" y2="50.0" style="stroke:#999; stroke-width:3;" />
  <rect class="anc_exon" x="872" y="35.0" width="130" height="30" style="fill:#87bcbc;fill-opacity:1.00" />
  <line x1="1002" y1="50.0" x2="1042" y2="50.0" style="stroke:#999; stroke-width:3;" />
  <rect class="anc_exon" x="1042" y="35.0" width="86" height="30" style="fill:#87bcbc;fill-opacity:1.00" />
  <line x1="1128" y1="50.0" x2="1168" y2="50.0" style="stroke:#999; stroke-width:3;" />
  <rect class="anc_exon" x="1168" y="35.0" width="39" height="30" style="fill:#87bcbc;fill-opacity:1.00" />
  <line x1="1207" y1="50.0" x2="1247" y2="50.0" style="stroke:#999; stroke-width:3;" />
  <rect class="anc_exon" x="1247" y="35.0" width="76" height="30" style="fill:#87bcbc;fill-opacity:1.00" />
  <line x1="1323" y1="50.0" x2="1343" y2="50.0" style="stroke:#999; stroke-width:3;" />
  <line x1="1343" y1="50.0" x2="1343" y2="50.0" style="stroke:#999; stroke-width:3;" />
  <line x1="1343" y1="50.0" x2="1343" y2="50.0" style="stroke:#999; stroke-width:3;" />
  <line x1="1343" y1="50.0" x2="1363" y2="50.0" style="stroke:#999; stroke-width:3;" />
  <rect class="anc_exon" x="1363" y="35.0" width="68" height="30" style="fill:#87bcbc;fill-opacity:1.00" />
  <rect class="anc_exon" x="1431" y="35.0" width="0" height="30" style="fill:#87bcbc;fill-opacity:1.00" />
  <text style="" >
<tspan x="0" y="83.0" style="font-size:18px;" >SP XM_031953057_1.1</tspan>  </text>



<script type="text/ecmascript">
<![CDATA[
function draw_bbox(text_id)
{
    var text_elem = document.getElementById(text_id);
    var offset_px = 2;
    var offset_py = 0;
    bbox = text_elem.getBBox();
    var box = document.createElementNS(document.rootElement.namespaceURI,'rect');
    box.setAttribute('x', bbox.x - offset_px);
    box.setAttribute('y', bbox.y - offset_py);
    box.setAttribute('width', bbox.width + offset_px * 2);
    box.setAttribute('height', bbox.height + offset_py * 2);
    box.setAttribute('style','fill: white;'+'stroke: black;'+'stroke-width: 1px;');
    text_elem.insertBefore(box,text_elem.childNodes[0]);

    var svg = text_elem.parentNode;
    svg.appendChild(text_elem);
}

for (var i=1; i < 1; i++)
{
draw_bbox("Mouseover" + i);
}
]]> 
</script>
</svg>
