<svg version="1.1"
xmlns="http://www.w3.org/2000/svg"
xmlns:xlink="http://www.w3.org/1999/xlink"
width="2980" height="100" viewBox = "0 0 2980 100"
onclick="mouseclick(evt)">

<script type="text/ecmascript">

<![CDATA[
    function mouseover(evt, target) { 
    var gv = document.getElementById("globalVariable");
    var previoustarget = gv.firstChild.nodeValue;
    if (previoustarget != "none") 
    {
        	document.getElementById(gv.firstChild.nodeValue).setAttributeNS(null, "visibility", "hidden");
    }
    document.getElementById(target).setAttributeNS(null, "visibility", "visible");
    gv.firstChild.nodeValue = target;
        }

    function mouseclick(evt) { 
    var gv = document.getElementById("globalVariable");
    var previoustarget = gv.firstChild.nodeValue;
    if (previoustarget != "none") {
        	document.getElementById(gv.firstChild.nodeValue).setAttributeNS(null, "visibility", "hidden");
        }
    }
]]>
  </script>
<style type="text/css" >

<![CDATA[
    rect.anc_exon {
              stroke-width:3;
                  }

    rect.non_anc_exon {
              stroke: black; stroke-width:3; stroke-dasharray: 5,5;
                    }

    text {
              font-size: 18px;
              font-family: Courier New;
          }
                    ]]>
</style>

<defs>
    <text x="150" y="40" id="globalVariable">none</text>
</defs>

  <rect class="anc_exon" x="0" y="35.0" width="0" height="30" style="fill:#87bcbc;fill-opacity:1.00" />
  <rect class="anc_exon" x="0" y="35.0" width="374.40000000000003" height="30" style="fill:#87bcbc;fill-opacity:1.00" />
  <line x1="374.40000000000003" y1="50.0" x2="393.40000000000003" y2="50.0" style="stroke:#999; stroke-width:3;" />
  <line x1="393.40000000000003" y1="50.0" x2="393.40000000000003" y2="50.0" style="stroke:#999; stroke-width:3;" />
  <line x1="393.40000000000003" y1="50.0" x2="393.40000000000003" y2="50.0" style="stroke:#999; stroke-width:3;" />
  <line x1="393.40000000000003" y1="50.0" x2="414.0" y2="50.0" style="stroke:#999; stroke-width:3;" />
  <rect class="anc_exon" x="414" y="35.0" width="50" height="30" style="fill:#87bcbc;fill-opacity:1.00" />
  <line x1="464" y1="50.0" x2="504" y2="50.0" style="stroke:#999; stroke-width:3;" />
  <rect class="anc_exon" x="504" y="35.0" width="87" height="30" style="fill:#87bcbc;fill-opacity:1.00" />
  <line x1="591" y1="50.0" x2="611" y2="50.0" style="stroke:#999; stroke-width:3;" />
  <line x1="611" y1="50.0" x2="611" y2="50.0" style="stroke:#999; stroke-width:3;" />
  <line x1="611" y1="50.0" x2="611" y2="50.0" style="stroke:#999; stroke-width:3;" />
  <line x1="611" y1="50.0" x2="631" y2="50.0" style="stroke:#999; stroke-width:3;" />
  <rect class="anc_exon" x="631" y="35.0" width="114" height="30" style="fill:#87bcbc;fill-opacity:1.00" />
  <line x1="745" y1="50.0" x2="785" y2="50.0" style="stroke:#999; stroke-width:3;" />
  <rect class="anc_exon" x="785" y="35.0" width="61" height="30" style="fill:#87bcbc;fill-opacity:1.00" />
  <line x1="846" y1="50.0" x2="886" y2="50.0" style="stroke:#999; stroke-width:3;" />
  <rect class="anc_exon" x="886" y="35.0" width="89" height="30" style="fill:#87bcbc;fill-opacity:1.00" />
  <line x1="975" y1="50.0" x2="995" y2="50.0" style="stroke:#999; stroke-width:3;" />
  <line x1="995" y1="50.0" x2="995" y2="50.0" style="stroke:#999; stroke-width:3;" />
  <line x1="995" y1="50.0" x2="995" y2="50.0" style="stroke:#999; stroke-width:3;" />
  <line x1="995" y1="50.0" x2="1015" y2="50.0" style="stroke:#999; stroke-width:3;" />
  <rect class="anc_exon" x="1015" y="35.0" width="28" height="30" style="fill:#87bcbc;fill-opacity:1.00" />
  <line x1="1043" y1="50.0" x2="1063" y2="50.0" style="stroke:#999; stroke-width:3;" />
  <line x1="1063" y1="50.0" x2="1063" y2="50.0" style="stroke:#999; stroke-width:3;" />
  <line x1="1063" y1="50.0" x2="1063" y2="50.0" style="stroke:#999; stroke-width:3;" />
  <line x1="1063" y1="50.0" x2="1083" y2="50.0" style="stroke:#999; stroke-width:3;" />
  <rect class="anc_exon" x="1083" y="35.0" width="132" height="30" style="fill:#87bcbc;fill-opacity:1.00" />
  <line x1="1215" y1="50.0" x2="1255" y2="50.0" style="stroke:#999; stroke-width:3;" />
  <rect class="anc_exon" x="1255" y="35.0" width="104" height="30" style="fill:#87bcbc;fill-opacity:1.00" />
  <line x1="1359" y1="50.0" x2="1379" y2="50.0" style="stroke:#999; stroke-width:3;" />
  <line x1="1379" y1="50.0" x2="1379" y2="50.0" style="stroke:#999; stroke-width:3;" />
  <line x1="1379" y1="50.0" x2="1379" y2="50.0" style="stroke:#999; stroke-width:3;" />
  <line x1="1379" y1="50.0" x2="1399" y2="50.0" style="stroke:#999; stroke-width:3;" />
  <rect class="anc_exon" x="1399" y="35.0" width="149" height="30" style="fill:#87bcbc;fill-opacity:1.00" />
  <line x1="1548" y1="50.0" x2="1568" y2="50.0" style="stroke:#999; stroke-width:3;" />
  <line x1="1568" y1="50.0" x2="1568" y2="50.0" style="stroke:#999; stroke-width:3;" />
  <line x1="1568" y1="50.0" x2="1568" y2="50.0" style="stroke:#999; stroke-width:3;" />
  <line x1="1568" y1="50.0" x2="1588" y2="50.0" style="stroke:#999; stroke-width:3;" />
  <rect class="anc_exon" x="1588" y="35.0" width="75" height="30" style="fill:#87bcbc;fill-opacity:1.00" />
  <line x1="1663" y1="50.0" x2="1683" y2="50.0" style="stroke:#999; stroke-width:3;" />
  <line x1="1683" y1="50.0" x2="1683" y2="50.0" style="stroke:#999; stroke-width:3;" />
  <line x1="1683" y1="50.0" x2="1683" y2="50.0" style="stroke:#999; stroke-width:3;" />
  <line x1="1683" y1="50.0" x2="1703" y2="50.0" style="stroke:#999; stroke-width:3;" />
  <rect class="anc_exon" x="1703" y="35.0" width="82" height="30" style="fill:#87bcbc;fill-opacity:1.00" />
  <line x1="1785" y1="50.0" x2="1805" y2="50.0" style="stroke:#999; stroke-width:3;" />
  <line x1="1805" y1="50.0" x2="1805" y2="50.0" style="stroke:#999; stroke-width:3;" />
  <line x1="1805" y1="50.0" x2="1805" y2="50.0" style="stroke:#999; stroke-width:3;" />
  <line x1="1805" y1="50.0" x2="1825" y2="50.0" style="stroke:#999; stroke-width:3;" />
  <rect class="anc_exon" x="1825" y="35.0" width="82" height="30" style="fill:#87bcbc;fill-opacity:1.00" />
  <line x1="1907" y1="50.0" x2="1927" y2="50.0" style="stroke:#999; stroke-width:3;" />
  <line x1="1927" y1="50.0" x2="1927" y2="50.0" style="stroke:#999; stroke-width:3;" />
  <line x1="1927" y1="50.0" x2="1927" y2="50.0" style="stroke:#999; stroke-width:3;" />
  <line x1="1927" y1="50.0" x2="1947" y2="50.0" style="stroke:#999; stroke-width:3;" />
  <rect class="anc_exon" x="1947" y="35.0" width="81" height="30" style="fill:#87bcbc;fill-opacity:1.00" />
  <line x1="2028" y1="50.0" x2="2068" y2="50.0" style="stroke:#999; stroke-width:3;" />
  <rect class="anc_exon" x="2068" y="35.0" width="60" height="30" style="fill:#87bcbc;fill-opacity:1.00" />
  <line x1="2128" y1="50.0" x2="2148" y2="50.0" style="stroke:#999; stroke-width:3;" />
  <line x1="2148" y1="50.0" x2="2148" y2="50.0" style="stroke:#999; stroke-width:3;" />
  <line x1="2148" y1="50.0" x2="2148" y2="50.0" style="stroke:#999; stroke-width:3;" />
  <line x1="2148" y1="50.0" x2="2168" y2="50.0" style="stroke:#999; stroke-width:3;" />
  <rect class="anc_exon" x="2168" y="35.0" width="96" height="30" style="fill:#87bcbc;fill-opacity:1.00" />
  <line x1="2264" y1="50.0" x2="2284" y2="50.0" style="stroke:#999; stroke-width:3;" />
  <line x1="2284" y1="50.0" x2="2284" y2="50.0" style="stroke:#999; stroke-width:3;" />
  <line x1="2284" y1="50.0" x2="2284" y2="50.0" style="stroke:#999; stroke-width:3;" />
  <line x1="2284" y1="50.0" x2="2304" y2="50.0" style="stroke:#999; stroke-width:3;" />
  <rect class="anc_exon" x="2304" y="35.0" width="98" height="30" style="fill:#87bcbc;fill-opacity:1.00" />
  <line x1="2402" y1="50.0" x2="2422" y2="50.0" style="stroke:#999; stroke-width:3;" />
  <line x1="2422" y1="50.0" x2="2422" y2="50.0" style="stroke:#999; stroke-width:3;" />
  <line x1="2422" y1="50.0" x2="2422" y2="50.0" style="stroke:#999; stroke-width:3;" />
  <line x1="2422" y1="50.0" x2="2442" y2="50.0" style="stroke:#999; stroke-width:3;" />
  <rect class="anc_exon" x="2442" y="35.0" width="33" height="30" style="fill:#87bcbc;fill-opacity:1.00" />
  <line x1="2475" y1="50.0" x2="2495" y2="50.0" style="stroke:#999; stroke-width:3;" />
  <line x1="2495" y1="50.0" x2="2495" y2="50.0" style="stroke:#999; stroke-width:3;" />
  <line x1="2495" y1="50.0" x2="2495" y2="50.0" style="stroke:#999; stroke-width:3;" />
  <line x1="2495" y1="50.0" x2="2515" y2="50.0" style="stroke:#999; stroke-width:3;" />
  <rect class="anc_exon" x="2515" y="35.0" width="88" height="30" style="fill:#87bcbc;fill-opacity:1.00" />
  <line x1="2603" y1="50.0" x2="2623" y2="50.0" style="stroke:#999; stroke-width:3;" />
  <line x1="2623" y1="50.0" x2="2623" y2="50.0" style="stroke:#999; stroke-width:3;" />
  <line x1="2623" y1="50.0" x2="2623" y2="50.0" style="stroke:#999; stroke-width:3;" />
  <line x1="2623" y1="50.0" x2="2643" y2="50.0" style="stroke:#999; stroke-width:3;" />
  <rect class="anc_exon" x="2643" y="35.0" width="88" height="30" style="fill:#87bcbc;fill-opacity:1.00" />
  <line x1="2731" y1="50.0" x2="2751" y2="50.0" style="stroke:#999; stroke-width:3;" />
  <line x1="2751" y1="50.0" x2="2751" y2="50.0" style="stroke:#999; stroke-width:3;" />
  <line x1="2751" y1="50.0" x2="2751" y2="50.0" style="stroke:#999; stroke-width:3;" />
  <line x1="2751" y1="50.0" x2="2771" y2="50.0" style="stroke:#999; stroke-width:3;" />
  <rect class="anc_exon" x="2771" y="35.0" width="78" height="30" style="fill:#87bcbc;fill-opacity:1.00" />
  <line x1="2849" y1="50.0" x2="2869" y2="50.0" style="stroke:#999; stroke-width:3;" />
  <line x1="2869" y1="50.0" x2="2869" y2="50.0" style="stroke:#999; stroke-width:3;" />
  <line x1="2869" y1="50.0" x2="2869" y2="50.0" style="stroke:#999; stroke-width:3;" />
  <line x1="2869" y1="50.0" x2="2889" y2="50.0" style="stroke:#999; stroke-width:3;" />
  <rect class="anc_exon" x="2889" y="35.0" width="55" height="30" style="fill:#87bcbc;fill-opacity:1.00" />
  <rect class="anc_exon" x="2944" y="35.0" width="0" height="30" style="fill:#87bcbc;fill-opacity:1.00" />
  <text style="" >
<tspan x="0" y="83.0" style="font-size:18px;" >SP XM_003755565_4.1</tspan>  </text>



<script type="text/ecmascript">
<![CDATA[
function draw_bbox(text_id)
{
    var text_elem = document.getElementById(text_id);
    var offset_px = 2;
    var offset_py = 0;
    bbox = text_elem.getBBox();
    var box = document.createElementNS(document.rootElement.namespaceURI,'rect');
    box.setAttribute('x', bbox.x - offset_px);
    box.setAttribute('y', bbox.y - offset_py);
    box.setAttribute('width', bbox.width + offset_px * 2);
    box.setAttribute('height', bbox.height + offset_py * 2);
    box.setAttribute('style','fill: white;'+'stroke: black;'+'stroke-width: 1px;');
    text_elem.insertBefore(box,text_elem.childNodes[0]);

    var svg = text_elem.parentNode;
    svg.appendChild(text_elem);
}

for (var i=1; i < 1; i++)
{
draw_bbox("Mouseover" + i);
}
]]> 
</script>
</svg>
