<svg version="1.1"
xmlns="http://www.w3.org/2000/svg"
xmlns:xlink="http://www.w3.org/1999/xlink"
width="2387" height="100" viewBox = "0 0 2387 100"
onclick="mouseclick(evt)">

<script type="text/ecmascript">

<![CDATA[
    function mouseover(evt, target) { 
    var gv = document.getElementById("globalVariable");
    var previoustarget = gv.firstChild.nodeValue;
    if (previoustarget != "none") 
    {
        	document.getElementById(gv.firstChild.nodeValue).setAttributeNS(null, "visibility", "hidden");
    }
    document.getElementById(target).setAttributeNS(null, "visibility", "visible");
    gv.firstChild.nodeValue = target;
        }

    function mouseclick(evt) { 
    var gv = document.getElementById("globalVariable");
    var previoustarget = gv.firstChild.nodeValue;
    if (previoustarget != "none") {
        	document.getElementById(gv.firstChild.nodeValue).setAttributeNS(null, "visibility", "hidden");
        }
    }
]]>
  </script>
<style type="text/css" >

<![CDATA[
    rect.anc_exon {
              stroke-width:3;
                  }

    rect.non_anc_exon {
              stroke: black; stroke-width:3; stroke-dasharray: 5,5;
                    }

    text {
              font-size: 18px;
              font-family: Courier New;
          }
                    ]]>
</style>

<defs>
    <text x="150" y="40" id="globalVariable">none</text>
</defs>

  <rect class="anc_exon" x="0" y="35.0" width="0" height="30" style="fill:#87bcbc;fill-opacity:1.00" />
  <rect class="anc_exon" x="0" y="35.0" width="156.8" height="30" style="fill:#87bcbc;fill-opacity:1.00" />
  <line x1="156.8" y1="50.0" x2="196.0" y2="50.0" style="stroke:#999; stroke-width:3;" />
  <rect class="anc_exon" x="196" y="35.0" width="124" height="30" style="fill:#87bcbc;fill-opacity:1.00" />
  <line x1="320" y1="50.0" x2="340" y2="50.0" style="stroke:#999; stroke-width:3;" />
  <line x1="340" y1="50.0" x2="340" y2="50.0" style="stroke:#999; stroke-width:3;" />
  <line x1="340" y1="50.0" x2="340" y2="50.0" style="stroke:#999; stroke-width:3;" />
  <line x1="340" y1="50.0" x2="360" y2="50.0" style="stroke:#999; stroke-width:3;" />
  <rect class="anc_exon" x="360" y="35.0" width="129" height="30" style="fill:#87bcbc;fill-opacity:1.00" />
  <line x1="489" y1="50.0" x2="529" y2="50.0" style="stroke:#999; stroke-width:3;" />
  <rect class="anc_exon" x="529" y="35.0" width="120" height="30" style="fill:#87bcbc;fill-opacity:1.00" />
  <line x1="649" y1="50.0" x2="689" y2="50.0" style="stroke:#999; stroke-width:3;" />
  <rect class="anc_exon" x="689" y="35.0" width="72" height="30" style="fill:#87bcbc;fill-opacity:1.00" />
  <line x1="761" y1="50.0" x2="801" y2="50.0" style="stroke:#999; stroke-width:3;" />
  <rect class="anc_exon" x="801" y="35.0" width="106" height="30" style="fill:#87bcbc;fill-opacity:1.00" />
  <line x1="907" y1="50.0" x2="947" y2="50.0" style="stroke:#999; stroke-width:3;" />
  <rect class="anc_exon" x="947" y="35.0" width="71" height="30" style="fill:#87bcbc;fill-opacity:1.00" />
  <line x1="1018" y1="50.0" x2="1058" y2="50.0" style="stroke:#999; stroke-width:3;" />
  <rect class="anc_exon" x="1058" y="35.0" width="172" height="30" style="fill:#87bcbc;fill-opacity:1.00" />
  <line x1="1230" y1="50.0" x2="1270" y2="50.0" style="stroke:#999; stroke-width:3;" />
  <rect class="anc_exon" x="1270" y="35.0" width="107" height="30" style="fill:#87bcbc;fill-opacity:1.00" />
  <line x1="1377" y1="50.0" x2="1417" y2="50.0" style="stroke:#999; stroke-width:3;" />
  <rect class="anc_exon" x="1417" y="35.0" width="72" height="30" style="fill:#87bcbc;fill-opacity:1.00" />
  <line x1="1489" y1="50.0" x2="1529" y2="50.0" style="stroke:#999; stroke-width:3;" />
  <rect class="anc_exon" x="1529" y="35.0" width="136" height="30" style="fill:#878787;fill-opacity:1.00" />
  <line x1="1665" y1="50.0" x2="1705" y2="50.0" style="stroke:#999; stroke-width:3;" />
  <rect class="anc_exon" x="1705" y="35.0" width="140" height="30" style="fill:#87bcbc;fill-opacity:1.00" />
  <line x1="1845" y1="50.0" x2="1865" y2="50.0" style="stroke:#999; stroke-width:3;" />
  <line x1="1865" y1="50.0" x2="1865" y2="50.0" style="stroke:#999; stroke-width:3;" />
  <line x1="1865" y1="50.0" x2="1865" y2="50.0" style="stroke:#999; stroke-width:3;" />
  <line x1="1865" y1="50.0" x2="1885" y2="50.0" style="stroke:#999; stroke-width:3;" />
  <rect class="anc_exon" x="1885" y="35.0" width="100" height="30" style="fill:#87bcbc;fill-opacity:1.00" />
  <line x1="1985" y1="50.0" x2="2025" y2="50.0" style="stroke:#999; stroke-width:3;" />
  <rect class="anc_exon" x="2025" y="35.0" width="62" height="30" style="fill:#87bcbc;fill-opacity:1.00" />
  <line x1="2087" y1="50.0" x2="2127" y2="50.0" style="stroke:#999; stroke-width:3;" />
  <rect class="anc_exon" x="2127" y="35.0" width="48" height="30" style="fill:#87bcbc;fill-opacity:1.00" />
  <line x1="2175" y1="50.0" x2="2195" y2="50.0" style="stroke:#999; stroke-width:3;" />
  <line x1="2195" y1="50.0" x2="2195" y2="50.0" style="stroke:#999; stroke-width:3;" />
  <line x1="2195" y1="50.0" x2="2195" y2="50.0" style="stroke:#999; stroke-width:3;" />
  <line x1="2195" y1="50.0" x2="2215" y2="50.0" style="stroke:#999; stroke-width:3;" />
  <rect class="anc_exon" x="2215" y="35.0" width="136" height="30" style="fill:#87bcbc;fill-opacity:1.00" />
  <rect class="anc_exon" x="2351" y="35.0" width="0" height="30" style="fill:#87bcbc;fill-opacity:1.00" />
  <text style="" >
<tspan x="0" y="83.0" style="font-size:18px;" >SP XM_031954218_1.1</tspan>  </text>



<script type="text/ecmascript">
<![CDATA[
function draw_bbox(text_id)
{
    var text_elem = document.getElementById(text_id);
    var offset_px = 2;
    var offset_py = 0;
    bbox = text_elem.getBBox();
    var box = document.createElementNS(document.rootElement.namespaceURI,'rect');
    box.setAttribute('x', bbox.x - offset_px);
    box.setAttribute('y', bbox.y - offset_py);
    box.setAttribute('width', bbox.width + offset_px * 2);
    box.setAttribute('height', bbox.height + offset_py * 2);
    box.setAttribute('style','fill: white;'+'stroke: black;'+'stroke-width: 1px;');
    text_elem.insertBefore(box,text_elem.childNodes[0]);

    var svg = text_elem.parentNode;
    svg.appendChild(text_elem);
}

for (var i=1; i < 1; i++)
{
draw_bbox("Mouseover" + i);
}
]]> 
</script>
</svg>
