<svg version="1.1"
xmlns="http://www.w3.org/2000/svg"
xmlns:xlink="http://www.w3.org/1999/xlink"
width="1278" height="120.0" viewBox = "0 -20.0 1278 120.0"
onclick="mouseclick(evt)">

<script type="text/ecmascript">

<![CDATA[
    function mouseover(evt, target) { 
    var gv = document.getElementById("globalVariable");
    var previoustarget = gv.firstChild.nodeValue;
    if (previoustarget != "none") 
    {
        	document.getElementById(gv.firstChild.nodeValue).setAttributeNS(null, "visibility", "hidden");
    }
    document.getElementById(target).setAttributeNS(null, "visibility", "visible");
    gv.firstChild.nodeValue = target;
        }

    function mouseclick(evt) { 
    var gv = document.getElementById("globalVariable");
    var previoustarget = gv.firstChild.nodeValue;
    if (previoustarget != "none") {
        	document.getElementById(gv.firstChild.nodeValue).setAttributeNS(null, "visibility", "hidden");
        }
    }
]]>
  </script>
<style type="text/css" >

<![CDATA[
    rect.anc_exon {
              stroke-width:3;
                  }

    rect.non_anc_exon {
              stroke: black; stroke-width:3; stroke-dasharray: 5,5;
                    }

    text {
              font-size: 18px;
              font-family: Courier New;
          }
                    ]]>
</style>

<defs>
    <text x="150" y="40" id="globalVariable">none</text>
</defs>

  <rect class="anc_exon" x="0" y="35.0" width="0" height="30" style="fill:#87bcbc;fill-opacity:1.00" />
  <rect class="anc_exon" x="0" y="35.0" width="134.4" height="30" style="fill:#87bcbc;fill-opacity:1.00" />
  <line x1="134.4" y1="50.0" x2="153.4" y2="50.0" style="stroke:#999; stroke-width:3;" />
  <line x1="153.4" y1="50.0" x2="153.4" y2="50.0" style="stroke:#999; stroke-width:3;" />
  <line x1="153.4" y1="50.0" x2="153.4" y2="50.0" style="stroke:#999; stroke-width:3;" />
  <line x1="153.4" y1="50.0" x2="174.0" y2="50.0" style="stroke:#999; stroke-width:3;" />
  <rect class="anc_exon" x="174" y="35.0" width="32" height="30" style="fill:#87bcbc;fill-opacity:1.00" />
  <line x1="206" y1="50.0" x2="226" y2="50.0" style="stroke:#999; stroke-width:3;" />
  <line x1="226" y1="50.0" x2="226" y2="50.0" style="stroke:#999; stroke-width:3;" />
  <line x1="226" y1="50.0" x2="226" y2="50.0" style="stroke:#999; stroke-width:3;" />
  <line x1="226" y1="50.0" x2="246" y2="50.0" style="stroke:#999; stroke-width:3;" />
  <rect class="anc_exon" x="246" y="35.0" width="30" height="30" style="fill:#87bcbc;fill-opacity:1.00" />
  <line x1="276" y1="50.0" x2="316" y2="50.0" style="stroke:#999; stroke-width:3;" />
  <rect class="anc_exon" x="316" y="35.0" width="110" height="30" style="fill:#87bcbc;fill-opacity:1.00" />
  <line x1="426" y1="50.0" x2="446" y2="50.0" style="stroke:#999; stroke-width:3;" />
  <line x1="446" y1="50.0" x2="446" y2="50.0" style="stroke:#999; stroke-width:3;" />
  <line x1="446" y1="50.0" x2="446" y2="50.0" style="stroke:#999; stroke-width:3;" />
  <line x1="446" y1="50.0" x2="466" y2="50.0" style="stroke:#999; stroke-width:3;" />
  <rect class="anc_exon" x="466" y="35.0" width="165" height="30" style="fill:#87bcbc;fill-opacity:1.00" />
  <line x1="631" y1="50.0" x2="651" y2="50.0" style="stroke:#999; stroke-width:3;" />
  <line x1="651" y1="50.0" x2="651" y2="50.0" style="stroke:#999; stroke-width:3;" />
  <line x1="651" y1="50.0" x2="651" y2="50.0" style="stroke:#999; stroke-width:3;" />
  <line x1="651" y1="50.0" x2="671" y2="50.0" style="stroke:#999; stroke-width:3;" />
  <rect class="anc_exon" x="671" y="35.0" width="82" height="30" style="fill:#87bcbc;fill-opacity:1.00" />
  <line x1="753" y1="50.0" x2="773" y2="50.0" style="stroke:#999; stroke-width:3;" />
  <line x1="773" y1="50.0" x2="773" y2="50.0" style="stroke:#999; stroke-width:3;" />
  <line x1="773" y1="50.0" x2="773" y2="50.0" style="stroke:#999; stroke-width:3;" />
  <line x1="773" y1="50.0" x2="793" y2="50.0" style="stroke:#999; stroke-width:3;" />
  <rect class="anc_exon" x="793" y="35.0" width="140" height="30" style="fill:#87bcbc;fill-opacity:1.00" />
  <line x1="933" y1="50.0" x2="973" y2="50.0" style="stroke:#999; stroke-width:3;" />
  <rect class="anc_exon" x="973" y="35.0" width="128" height="30" style="fill:#87bcbc;fill-opacity:1.00" />
  <line x1="1101" y1="50.0" x2="1121" y2="50.0" style="stroke:#999; stroke-width:3;" />
  <line x1="1121" y1="50.0" x2="1121" y2="50.0" style="stroke:#999; stroke-width:3;" />
  <line x1="1121" y1="50.0" x2="1121" y2="50.0" style="stroke:#999; stroke-width:3;" />
  <line x1="1121" y1="50.0" x2="1141" y2="50.0" style="stroke:#999; stroke-width:3;" />
  <rect class="anc_exon" x="1141" y="35.0" width="101" height="30" style="fill:#87bcbc;fill-opacity:1.00" />
  <line x1="1188.6" y1="35.0" x2="1188.6" y2="65.0" style="stroke:#121212; stroke-width:0.8; stroke-opacity:1"/>
  <polygon points="1217.0,35.0 1219.5,25.0 1214.5,25.0" style="fill:#121212; stroke-opacity:1; fill-opacity:1"/>
  <text style="" text-anchor="middle">
<tspan x="1188.2" y="26.0" style="font-size:18px;fill:#121212;" >-1</tspan>  </text>
  <text style="" text-anchor="middle">
<tspan x="1217.0" y="16.0" style="font-size:18px;fill:#121212;" >+1</tspan>  </text>
  <rect class="anc_exon" x="1242" y="35.0" width="0" height="30" style="fill:#87bcbc;fill-opacity:1.00" />
  <text style="" >
<tspan x="0" y="83.0" style="font-size:18px;" >SP XM_031955517_1.1</tspan>  </text>



<script type="text/ecmascript">
<![CDATA[
function draw_bbox(text_id)
{
    var text_elem = document.getElementById(text_id);
    var offset_px = 2;
    var offset_py = 0;
    bbox = text_elem.getBBox();
    var box = document.createElementNS(document.rootElement.namespaceURI,'rect');
    box.setAttribute('x', bbox.x - offset_px);
    box.setAttribute('y', bbox.y - offset_py);
    box.setAttribute('width', bbox.width + offset_px * 2);
    box.setAttribute('height', bbox.height + offset_py * 2);
    box.setAttribute('style','fill: white;'+'stroke: black;'+'stroke-width: 1px;');
    text_elem.insertBefore(box,text_elem.childNodes[0]);

    var svg = text_elem.parentNode;
    svg.appendChild(text_elem);
}

for (var i=1; i < 1; i++)
{
draw_bbox("Mouseover" + i);
}
]]> 
</script>
</svg>
