<svg version="1.1"
xmlns="http://www.w3.org/2000/svg"
xmlns:xlink="http://www.w3.org/1999/xlink"
width="5499" height="100" viewBox = "0 0 5499 100"
onclick="mouseclick(evt)">

<script type="text/ecmascript">

<![CDATA[
    function mouseover(evt, target) { 
    var gv = document.getElementById("globalVariable");
    var previoustarget = gv.firstChild.nodeValue;
    if (previoustarget != "none") 
    {
        	document.getElementById(gv.firstChild.nodeValue).setAttributeNS(null, "visibility", "hidden");
    }
    document.getElementById(target).setAttributeNS(null, "visibility", "visible");
    gv.firstChild.nodeValue = target;
        }

    function mouseclick(evt) { 
    var gv = document.getElementById("globalVariable");
    var previoustarget = gv.firstChild.nodeValue;
    if (previoustarget != "none") {
        	document.getElementById(gv.firstChild.nodeValue).setAttributeNS(null, "visibility", "hidden");
        }
    }
]]>
  </script>
<style type="text/css" >

<![CDATA[
    rect.anc_exon {
              stroke-width:3;
                  }

    rect.non_anc_exon {
              stroke: black; stroke-width:3; stroke-dasharray: 5,5;
                    }

    text {
              font-size: 18px;
              font-family: Courier New;
          }
                    ]]>
</style>

<defs>
    <text x="150" y="40" id="globalVariable">none</text>
</defs>

  <rect class="anc_exon" x="0" y="35.0" width="0" height="30" style="fill:#87bcbc;fill-opacity:1.00" />
  <rect class="anc_exon" x="0" y="35.0" width="433.6" height="30" style="fill:#87bcbc;fill-opacity:1.00" />
  <line x1="433.6" y1="50.0" x2="473.0" y2="50.0" style="stroke:#999; stroke-width:3;" />
  <rect class="anc_exon" x="473" y="35.0" width="56" height="30" style="fill:#87bcbc;fill-opacity:1.00" />
  <line x1="529" y1="50.0" x2="549" y2="50.0" style="stroke:#999; stroke-width:3;" />
  <line x1="549" y1="50.0" x2="549" y2="50.0" style="stroke:#999; stroke-width:3;" />
  <line x1="549" y1="50.0" x2="549" y2="50.0" style="stroke:#999; stroke-width:3;" />
  <line x1="549" y1="50.0" x2="569" y2="50.0" style="stroke:#999; stroke-width:3;" />
  <rect class="anc_exon" x="569" y="35.0" width="238" height="30" style="fill:#87bcbc;fill-opacity:1.00" />
  <line x1="807" y1="50.0" x2="827" y2="50.0" style="stroke:#999; stroke-width:3;" />
  <line x1="827" y1="50.0" x2="827" y2="50.0" style="stroke:#999; stroke-width:3;" />
  <line x1="827" y1="50.0" x2="827" y2="50.0" style="stroke:#999; stroke-width:3;" />
  <line x1="827" y1="50.0" x2="847" y2="50.0" style="stroke:#999; stroke-width:3;" />
  <rect class="anc_exon" x="847" y="35.0" width="136" height="30" style="fill:#87bcbc;fill-opacity:1.00" />
  <line x1="983" y1="50.0" x2="1003" y2="50.0" style="stroke:#999; stroke-width:3;" />
  <line x1="1003" y1="50.0" x2="1003" y2="50.0" style="stroke:#999; stroke-width:3;" />
  <line x1="1003" y1="50.0" x2="1003" y2="50.0" style="stroke:#999; stroke-width:3;" />
  <line x1="1003" y1="50.0" x2="1023" y2="50.0" style="stroke:#999; stroke-width:3;" />
  <rect class="anc_exon" x="1023" y="35.0" width="134" height="30" style="fill:#87bcbc;fill-opacity:1.00" />
  <line x1="1157" y1="50.0" x2="1177" y2="50.0" style="stroke:#999; stroke-width:3;" />
  <line x1="1177" y1="50.0" x2="1177" y2="50.0" style="stroke:#999; stroke-width:3;" />
  <line x1="1177" y1="50.0" x2="1177" y2="50.0" style="stroke:#999; stroke-width:3;" />
  <line x1="1177" y1="50.0" x2="1197" y2="50.0" style="stroke:#999; stroke-width:3;" />
  <rect class="anc_exon" x="1197" y="35.0" width="180" height="30" style="fill:#87bcbc;fill-opacity:1.00" />
  <line x1="1377" y1="50.0" x2="1417" y2="50.0" style="stroke:#999; stroke-width:3;" />
  <rect class="anc_exon" x="1417" y="35.0" width="220" height="30" style="fill:#87bcbc;fill-opacity:1.00" />
  <line x1="1637" y1="50.0" x2="1657" y2="50.0" style="stroke:#999; stroke-width:3;" />
  <line x1="1657" y1="50.0" x2="1657" y2="50.0" style="stroke:#999; stroke-width:3;" />
  <line x1="1657" y1="50.0" x2="1657" y2="50.0" style="stroke:#999; stroke-width:3;" />
  <line x1="1657" y1="50.0" x2="1677" y2="50.0" style="stroke:#999; stroke-width:3;" />
  <rect class="anc_exon" x="1677" y="35.0" width="82" height="30" style="fill:#87bcbc;fill-opacity:1.00" />
  <line x1="1759" y1="50.0" x2="1779" y2="50.0" style="stroke:#999; stroke-width:3;" />
  <line x1="1779" y1="50.0" x2="1779" y2="50.0" style="stroke:#999; stroke-width:3;" />
  <line x1="1779" y1="50.0" x2="1779" y2="50.0" style="stroke:#999; stroke-width:3;" />
  <line x1="1779" y1="50.0" x2="1799" y2="50.0" style="stroke:#999; stroke-width:3;" />
  <rect class="anc_exon" x="1799" y="35.0" width="57" height="30" style="fill:#87bcbc;fill-opacity:1.00" />
  <line x1="1856" y1="50.0" x2="1876" y2="50.0" style="stroke:#999; stroke-width:3;" />
  <line x1="1876" y1="50.0" x2="1876" y2="50.0" style="stroke:#999; stroke-width:3;" />
  <line x1="1876" y1="50.0" x2="1876" y2="50.0" style="stroke:#999; stroke-width:3;" />
  <line x1="1876" y1="50.0" x2="1896" y2="50.0" style="stroke:#999; stroke-width:3;" />
  <rect class="anc_exon" x="1896" y="35.0" width="98" height="30" style="fill:#87bcbc;fill-opacity:1.00" />
  <line x1="1994" y1="50.0" x2="2014" y2="50.0" style="stroke:#999; stroke-width:3;" />
  <line x1="2014" y1="50.0" x2="2014" y2="50.0" style="stroke:#999; stroke-width:3;" />
  <line x1="2014" y1="50.0" x2="2014" y2="50.0" style="stroke:#999; stroke-width:3;" />
  <line x1="2014" y1="50.0" x2="2034" y2="50.0" style="stroke:#999; stroke-width:3;" />
  <rect class="anc_exon" x="2034" y="35.0" width="134" height="30" style="fill:#87bcbc;fill-opacity:1.00" />
  <line x1="2168" y1="50.0" x2="2188" y2="50.0" style="stroke:#999; stroke-width:3;" />
  <line x1="2188" y1="50.0" x2="2188" y2="50.0" style="stroke:#999; stroke-width:3;" />
  <line x1="2188" y1="50.0" x2="2188" y2="50.0" style="stroke:#999; stroke-width:3;" />
  <line x1="2188" y1="50.0" x2="2208" y2="50.0" style="stroke:#999; stroke-width:3;" />
  <rect class="anc_exon" x="2208" y="35.0" width="180" height="30" style="fill:#87bcbc;fill-opacity:1.00" />
  <line x1="2388" y1="50.0" x2="2408" y2="50.0" style="stroke:#999; stroke-width:3;" />
  <line x1="2408" y1="50.0" x2="2408" y2="50.0" style="stroke:#999; stroke-width:3;" />
  <line x1="2408" y1="50.0" x2="2408" y2="50.0" style="stroke:#999; stroke-width:3;" />
  <line x1="2408" y1="50.0" x2="2428" y2="50.0" style="stroke:#999; stroke-width:3;" />
  <rect class="anc_exon" x="2428" y="35.0" width="18" height="30" style="fill:#87bcbc;fill-opacity:1.00" />
  <line x1="2446" y1="50.0" x2="2466" y2="50.0" style="stroke:#999; stroke-width:3;" />
  <line x1="2466" y1="50.0" x2="2466" y2="50.0" style="stroke:#999; stroke-width:3;" />
  <line x1="2466" y1="50.0" x2="2466" y2="50.0" style="stroke:#999; stroke-width:3;" />
  <line x1="2466" y1="50.0" x2="2486" y2="50.0" style="stroke:#999; stroke-width:3;" />
  <rect class="anc_exon" x="2486" y="35.0" width="75" height="30" style="fill:#87bcbc;fill-opacity:1.00" />
  <line x1="2561" y1="50.0" x2="2601" y2="50.0" style="stroke:#999; stroke-width:3;" />
  <rect class="anc_exon" x="2601" y="35.0" width="79" height="30" style="fill:#87bcbc;fill-opacity:1.00" />
  <line x1="2680" y1="50.0" x2="2700" y2="50.0" style="stroke:#999; stroke-width:3;" />
  <line x1="2700" y1="50.0" x2="2700" y2="50.0" style="stroke:#999; stroke-width:3;" />
  <line x1="2700" y1="50.0" x2="2700" y2="50.0" style="stroke:#999; stroke-width:3;" />
  <line x1="2700" y1="50.0" x2="2720" y2="50.0" style="stroke:#999; stroke-width:3;" />
  <rect class="anc_exon" x="2720" y="35.0" width="100" height="30" style="fill:#87bcbc;fill-opacity:1.00" />
  <line x1="2820" y1="50.0" x2="2860" y2="50.0" style="stroke:#999; stroke-width:3;" />
  <rect class="anc_exon" x="2860" y="35.0" width="100" height="30" style="fill:#87bcbc;fill-opacity:1.00" />
  <line x1="2960" y1="50.0" x2="2980" y2="50.0" style="stroke:#999; stroke-width:3;" />
  <line x1="2980" y1="50.0" x2="2980" y2="50.0" style="stroke:#999; stroke-width:3;" />
  <line x1="2980" y1="50.0" x2="2980" y2="50.0" style="stroke:#999; stroke-width:3;" />
  <line x1="2980" y1="50.0" x2="3000" y2="50.0" style="stroke:#999; stroke-width:3;" />
  <rect class="anc_exon" x="3000" y="35.0" width="98" height="30" style="fill:#87bcbc;fill-opacity:1.00" />
  <line x1="3098" y1="50.0" x2="3118" y2="50.0" style="stroke:#999; stroke-width:3;" />
  <line x1="3118" y1="50.0" x2="3118" y2="50.0" style="stroke:#999; stroke-width:3;" />
  <line x1="3118" y1="50.0" x2="3118" y2="50.0" style="stroke:#999; stroke-width:3;" />
  <line x1="3118" y1="50.0" x2="3138" y2="50.0" style="stroke:#999; stroke-width:3;" />
  <rect class="anc_exon" x="3138" y="35.0" width="96" height="30" style="fill:#87bcbc;fill-opacity:1.00" />
  <line x1="3234" y1="50.0" x2="3254" y2="50.0" style="stroke:#999; stroke-width:3;" />
  <line x1="3254" y1="50.0" x2="3254" y2="50.0" style="stroke:#999; stroke-width:3;" />
  <line x1="3254" y1="50.0" x2="3254" y2="50.0" style="stroke:#999; stroke-width:3;" />
  <line x1="3254" y1="50.0" x2="3274" y2="50.0" style="stroke:#999; stroke-width:3;" />
  <rect class="anc_exon" x="3274" y="35.0" width="98" height="30" style="fill:#87bcbc;fill-opacity:1.00" />
  <line x1="3372" y1="50.0" x2="3392" y2="50.0" style="stroke:#999; stroke-width:3;" />
  <line x1="3392" y1="50.0" x2="3392" y2="50.0" style="stroke:#999; stroke-width:3;" />
  <line x1="3392" y1="50.0" x2="3392" y2="50.0" style="stroke:#999; stroke-width:3;" />
  <line x1="3392" y1="50.0" x2="3412" y2="50.0" style="stroke:#999; stroke-width:3;" />
  <rect class="anc_exon" x="3412" y="35.0" width="98" height="30" style="fill:#87bcbc;fill-opacity:1.00" />
  <line x1="3510" y1="50.0" x2="3550" y2="50.0" style="stroke:#999; stroke-width:3;" />
  <rect class="anc_exon" x="3550" y="35.0" width="98" height="30" style="fill:#87bcbc;fill-opacity:1.00" />
  <line x1="3648" y1="50.0" x2="3668" y2="50.0" style="stroke:#999; stroke-width:3;" />
  <line x1="3668" y1="50.0" x2="3668" y2="50.0" style="stroke:#999; stroke-width:3;" />
  <line x1="3668" y1="50.0" x2="3668" y2="50.0" style="stroke:#999; stroke-width:3;" />
  <line x1="3668" y1="50.0" x2="3688" y2="50.0" style="stroke:#999; stroke-width:3;" />
  <rect class="anc_exon" x="3688" y="35.0" width="98" height="30" style="fill:#87bcbc;fill-opacity:1.00" />
  <line x1="3786" y1="50.0" x2="3806" y2="50.0" style="stroke:#999; stroke-width:3;" />
  <line x1="3806" y1="50.0" x2="3806" y2="50.0" style="stroke:#999; stroke-width:3;" />
  <line x1="3806" y1="50.0" x2="3806" y2="50.0" style="stroke:#999; stroke-width:3;" />
  <line x1="3806" y1="50.0" x2="3826" y2="50.0" style="stroke:#999; stroke-width:3;" />
  <rect class="anc_exon" x="3826" y="35.0" width="100" height="30" style="fill:#87bcbc;fill-opacity:1.00" />
  <line x1="3926" y1="50.0" x2="3946" y2="50.0" style="stroke:#999; stroke-width:3;" />
  <line x1="3946" y1="50.0" x2="3946" y2="50.0" style="stroke:#999; stroke-width:3;" />
  <line x1="3946" y1="50.0" x2="3946" y2="50.0" style="stroke:#999; stroke-width:3;" />
  <line x1="3946" y1="50.0" x2="3966" y2="50.0" style="stroke:#999; stroke-width:3;" />
  <rect class="anc_exon" x="3966" y="35.0" width="100" height="30" style="fill:#87bcbc;fill-opacity:1.00" />
  <line x1="4066" y1="50.0" x2="4086" y2="50.0" style="stroke:#999; stroke-width:3;" />
  <line x1="4086" y1="50.0" x2="4086" y2="50.0" style="stroke:#999; stroke-width:3;" />
  <line x1="4086" y1="50.0" x2="4086" y2="50.0" style="stroke:#999; stroke-width:3;" />
  <line x1="4086" y1="50.0" x2="4106" y2="50.0" style="stroke:#999; stroke-width:3;" />
  <rect class="anc_exon" x="4106" y="35.0" width="115" height="30" style="fill:#87bcbc;fill-opacity:1.00" />
  <line x1="4221" y1="50.0" x2="4241" y2="50.0" style="stroke:#999; stroke-width:3;" />
  <line x1="4241" y1="50.0" x2="4241" y2="50.0" style="stroke:#999; stroke-width:3;" />
  <line x1="4241" y1="50.0" x2="4241" y2="50.0" style="stroke:#999; stroke-width:3;" />
  <line x1="4241" y1="50.0" x2="4261" y2="50.0" style="stroke:#999; stroke-width:3;" />
  <rect class="anc_exon" x="4261" y="35.0" width="148" height="30" style="fill:#87bcbc;fill-opacity:1.00" />
  <line x1="4409" y1="50.0" x2="4449" y2="50.0" style="stroke:#999; stroke-width:3;" />
  <rect class="anc_exon" x="4449" y="35.0" width="69" height="30" style="fill:#87bcbc;fill-opacity:1.00" />
  <line x1="4518" y1="50.0" x2="4558" y2="50.0" style="stroke:#999; stroke-width:3;" />
  <rect class="anc_exon" x="4558" y="35.0" width="103" height="30" style="fill:#87bcbc;fill-opacity:1.00" />
  <line x1="4661" y1="50.0" x2="4701" y2="50.0" style="stroke:#999; stroke-width:3;" />
  <rect class="anc_exon" x="4701" y="35.0" width="112" height="30" style="fill:#87bcbc;fill-opacity:1.00" />
  <line x1="4813" y1="50.0" x2="4853" y2="50.0" style="stroke:#999; stroke-width:3;" />
  <rect class="anc_exon" x="4853" y="35.0" width="136" height="30" style="fill:#87bcbc;fill-opacity:1.00" />
  <line x1="4989" y1="50.0" x2="5009" y2="50.0" style="stroke:#999; stroke-width:3;" />
  <line x1="5009" y1="50.0" x2="5009" y2="50.0" style="stroke:#999; stroke-width:3;" />
  <line x1="5009" y1="50.0" x2="5009" y2="50.0" style="stroke:#999; stroke-width:3;" />
  <line x1="5009" y1="50.0" x2="5029" y2="50.0" style="stroke:#999; stroke-width:3;" />
  <rect class="anc_exon" x="5029" y="35.0" width="98" height="30" style="fill:#87bcbc;fill-opacity:1.00" />
  <line x1="5127" y1="50.0" x2="5147" y2="50.0" style="stroke:#999; stroke-width:3;" />
  <line x1="5147" y1="50.0" x2="5147" y2="50.0" style="stroke:#999; stroke-width:3;" />
  <line x1="5147" y1="50.0" x2="5147" y2="50.0" style="stroke:#999; stroke-width:3;" />
  <line x1="5147" y1="50.0" x2="5167" y2="50.0" style="stroke:#999; stroke-width:3;" />
  <rect class="anc_exon" x="5167" y="35.0" width="120" height="30" style="fill:#87bcbc;fill-opacity:1.00" />
  <line x1="5287" y1="50.0" x2="5307" y2="50.0" style="stroke:#999; stroke-width:3;" />
  <line x1="5307" y1="50.0" x2="5307" y2="50.0" style="stroke:#999; stroke-width:3;" />
  <line x1="5307" y1="50.0" x2="5307" y2="50.0" style="stroke:#999; stroke-width:3;" />
  <line x1="5307" y1="50.0" x2="5327" y2="50.0" style="stroke:#999; stroke-width:3;" />
  <rect class="anc_exon" x="5327" y="35.0" width="136" height="30" style="fill:#87bcbc;fill-opacity:1.00" />
  <rect class="anc_exon" x="5463" y="35.0" width="0" height="30" style="fill:#87bcbc;fill-opacity:1.00" />
  <text style="" >
<tspan x="0" y="83.0" style="font-size:18px;" >SP XM_031951253_1.1</tspan>  </text>



<script type="text/ecmascript">
<![CDATA[
function draw_bbox(text_id)
{
    var text_elem = document.getElementById(text_id);
    var offset_px = 2;
    var offset_py = 0;
    bbox = text_elem.getBBox();
    var box = document.createElementNS(document.rootElement.namespaceURI,'rect');
    box.setAttribute('x', bbox.x - offset_px);
    box.setAttribute('y', bbox.y - offset_py);
    box.setAttribute('width', bbox.width + offset_px * 2);
    box.setAttribute('height', bbox.height + offset_py * 2);
    box.setAttribute('style','fill: white;'+'stroke: black;'+'stroke-width: 1px;');
    text_elem.insertBefore(box,text_elem.childNodes[0]);

    var svg = text_elem.parentNode;
    svg.appendChild(text_elem);
}

for (var i=1; i < 1; i++)
{
draw_bbox("Mouseover" + i);
}
]]> 
</script>
</svg>
