<svg version="1.1"
xmlns="http://www.w3.org/2000/svg"
xmlns:xlink="http://www.w3.org/1999/xlink"
width="4793" height="100" viewBox = "0 0 4793 100"
onclick="mouseclick(evt)">

<script type="text/ecmascript">

<![CDATA[
    function mouseover(evt, target) { 
    var gv = document.getElementById("globalVariable");
    var previoustarget = gv.firstChild.nodeValue;
    if (previoustarget != "none") 
    {
        	document.getElementById(gv.firstChild.nodeValue).setAttributeNS(null, "visibility", "hidden");
    }
    document.getElementById(target).setAttributeNS(null, "visibility", "visible");
    gv.firstChild.nodeValue = target;
        }

    function mouseclick(evt) { 
    var gv = document.getElementById("globalVariable");
    var previoustarget = gv.firstChild.nodeValue;
    if (previoustarget != "none") {
        	document.getElementById(gv.firstChild.nodeValue).setAttributeNS(null, "visibility", "hidden");
        }
    }
]]>
  </script>
<style type="text/css" >

<![CDATA[
    rect.anc_exon {
              stroke-width:3;
                  }

    rect.non_anc_exon {
              stroke: black; stroke-width:3; stroke-dasharray: 5,5;
                    }

    text {
              font-size: 18px;
              font-family: Courier New;
          }
                    ]]>
</style>

<defs>
    <text x="150" y="40" id="globalVariable">none</text>
</defs>

  <rect class="anc_exon" x="0" y="35.0" width="0" height="30" style="fill:#87bcbc;fill-opacity:1.00" />
  <rect class="anc_exon" x="0" y="35.0" width="117.60000000000001" height="30" style="fill:#87bcbc;fill-opacity:1.00" />
  <line x1="117.60000000000001" y1="50.0" x2="136.60000000000002" y2="50.0" style="stroke:#999; stroke-width:3;" />
  <line x1="136.60000000000002" y1="50.0" x2="136.60000000000002" y2="50.0" style="stroke:#999; stroke-width:3;" />
  <line x1="136.60000000000002" y1="50.0" x2="136.60000000000002" y2="50.0" style="stroke:#999; stroke-width:3;" />
  <line x1="136.60000000000002" y1="50.0" x2="157.0" y2="50.0" style="stroke:#999; stroke-width:3;" />
  <rect class="anc_exon" x="157" y="35.0" width="74" height="30" style="fill:#87bcbc;fill-opacity:1.00" />
  <line x1="231" y1="50.0" x2="251" y2="50.0" style="stroke:#999; stroke-width:3;" />
  <line x1="251" y1="50.0" x2="251" y2="50.0" style="stroke:#999; stroke-width:3;" />
  <line x1="251" y1="50.0" x2="251" y2="50.0" style="stroke:#999; stroke-width:3;" />
  <line x1="251" y1="50.0" x2="271" y2="50.0" style="stroke:#999; stroke-width:3;" />
  <rect class="anc_exon" x="271" y="35.0" width="108" height="30" style="fill:#87bcbc;fill-opacity:1.00" />
  <line x1="379" y1="50.0" x2="419" y2="50.0" style="stroke:#999; stroke-width:3;" />
  <rect class="anc_exon" x="419" y="35.0" width="91" height="30" style="fill:#87bcbc;fill-opacity:1.00" />
  <line x1="510" y1="50.0" x2="550" y2="50.0" style="stroke:#999; stroke-width:3;" />
  <rect class="anc_exon" x="550" y="35.0" width="66" height="30" style="fill:#87bcbc;fill-opacity:1.00" />
  <line x1="616" y1="50.0" x2="656" y2="50.0" style="stroke:#999; stroke-width:3;" />
  <rect class="anc_exon" x="656" y="35.0" width="84" height="30" style="fill:#87bcbc;fill-opacity:1.00" />
  <line x1="740" y1="50.0" x2="780" y2="50.0" style="stroke:#999; stroke-width:3;" />
  <rect class="anc_exon" x="780" y="35.0" width="117" height="30" style="fill:#87bcbc;fill-opacity:1.00" />
  <line x1="897" y1="50.0" x2="937" y2="50.0" style="stroke:#999; stroke-width:3;" />
  <rect class="anc_exon" x="937" y="35.0" width="120" height="30" style="fill:#87bcbc;fill-opacity:1.00" />
  <line x1="1057" y1="50.0" x2="1077" y2="50.0" style="stroke:#999; stroke-width:3;" />
  <line x1="1077" y1="50.0" x2="1077" y2="50.0" style="stroke:#999; stroke-width:3;" />
  <line x1="1077" y1="50.0" x2="1077" y2="50.0" style="stroke:#999; stroke-width:3;" />
  <line x1="1077" y1="50.0" x2="1097" y2="50.0" style="stroke:#999; stroke-width:3;" />
  <rect class="anc_exon" x="1097" y="35.0" width="135" height="30" style="fill:#87bcbc;fill-opacity:1.00" />
  <line x1="1232" y1="50.0" x2="1252" y2="50.0" style="stroke:#999; stroke-width:3;" />
  <line x1="1252" y1="50.0" x2="1252" y2="50.0" style="stroke:#999; stroke-width:3;" />
  <line x1="1252" y1="50.0" x2="1252" y2="50.0" style="stroke:#999; stroke-width:3;" />
  <line x1="1252" y1="50.0" x2="1272" y2="50.0" style="stroke:#999; stroke-width:3;" />
  <rect class="anc_exon" x="1272" y="35.0" width="105" height="30" style="fill:#87bcbc;fill-opacity:1.00" />
  <line x1="1377" y1="50.0" x2="1417" y2="50.0" style="stroke:#999; stroke-width:3;" />
  <rect class="anc_exon" x="1417" y="35.0" width="302" height="30" style="fill:#87bcbc;fill-opacity:1.00" />
  <line x1="1719" y1="50.0" x2="1759" y2="50.0" style="stroke:#999; stroke-width:3;" />
  <rect class="anc_exon" x="1759" y="35.0" width="185" height="30" style="fill:#87bcbc;fill-opacity:1.00" />
  <line x1="1944" y1="50.0" x2="1964" y2="50.0" style="stroke:#999; stroke-width:3;" />
  <line x1="1964" y1="50.0" x2="1964" y2="50.0" style="stroke:#999; stroke-width:3;" />
  <line x1="1964" y1="50.0" x2="1964" y2="50.0" style="stroke:#999; stroke-width:3;" />
  <line x1="1964" y1="50.0" x2="1984" y2="50.0" style="stroke:#999; stroke-width:3;" />
  <rect class="anc_exon" x="1984" y="35.0" width="124" height="30" style="fill:#87bcbc;fill-opacity:1.00" />
  <line x1="2108" y1="50.0" x2="2128" y2="50.0" style="stroke:#999; stroke-width:3;" />
  <line x1="2128" y1="50.0" x2="2128" y2="50.0" style="stroke:#999; stroke-width:3;" />
  <line x1="2128" y1="50.0" x2="2128" y2="50.0" style="stroke:#999; stroke-width:3;" />
  <line x1="2128" y1="50.0" x2="2148" y2="50.0" style="stroke:#999; stroke-width:3;" />
  <rect class="anc_exon" x="2148" y="35.0" width="139" height="30" style="fill:#87bcbc;fill-opacity:1.00" />
  <line x1="2287" y1="50.0" x2="2307" y2="50.0" style="stroke:#999; stroke-width:3;" />
  <line x1="2307" y1="50.0" x2="2307" y2="50.0" style="stroke:#999; stroke-width:3;" />
  <line x1="2307" y1="50.0" x2="2307" y2="50.0" style="stroke:#999; stroke-width:3;" />
  <line x1="2307" y1="50.0" x2="2327" y2="50.0" style="stroke:#999; stroke-width:3;" />
  <rect class="anc_exon" x="2327" y="35.0" width="96" height="30" style="fill:#87bcbc;fill-opacity:1.00" />
  <line x1="2423" y1="50.0" x2="2463" y2="50.0" style="stroke:#999; stroke-width:3;" />
  <rect class="anc_exon" x="2463" y="35.0" width="142" height="30" style="fill:#878787;fill-opacity:1.00" />
  <line x1="2605" y1="50.0" x2="2625" y2="50.0" style="stroke:#999; stroke-width:3;" />
  <line x1="2625" y1="50.0" x2="2625" y2="50.0" style="stroke:#999; stroke-width:3;" />
  <line x1="2625" y1="50.0" x2="2625" y2="50.0" style="stroke:#999; stroke-width:3;" />
  <line x1="2625" y1="50.0" x2="2645" y2="50.0" style="stroke:#999; stroke-width:3;" />
  <rect class="anc_exon" x="2645" y="35.0" width="1153" height="30" style="fill:#87bcbc;fill-opacity:1.00" />
  <line x1="3798" y1="50.0" x2="3818" y2="50.0" style="stroke:#999; stroke-width:3;" />
  <line x1="3818" y1="50.0" x2="3818" y2="50.0" style="stroke:#999; stroke-width:3;" />
  <line x1="3818" y1="50.0" x2="3818" y2="50.0" style="stroke:#999; stroke-width:3;" />
  <line x1="3818" y1="50.0" x2="3838" y2="50.0" style="stroke:#999; stroke-width:3;" />
  <rect class="anc_exon" x="3838" y="35.0" width="95" height="30" style="fill:#87bcbc;fill-opacity:1.00" />
  <line x1="3933" y1="50.0" x2="3973" y2="50.0" style="stroke:#999; stroke-width:3;" />
  <rect class="anc_exon" x="3973" y="35.0" width="110" height="30" style="fill:#87bcbc;fill-opacity:1.00" />
  <line x1="4083" y1="50.0" x2="4103" y2="50.0" style="stroke:#999; stroke-width:3;" />
  <line x1="4103" y1="50.0" x2="4103" y2="50.0" style="stroke:#999; stroke-width:3;" />
  <line x1="4103" y1="50.0" x2="4103" y2="50.0" style="stroke:#999; stroke-width:3;" />
  <line x1="4103" y1="50.0" x2="4123" y2="50.0" style="stroke:#999; stroke-width:3;" />
  <rect class="anc_exon" x="4123" y="35.0" width="149" height="30" style="fill:#87bcbc;fill-opacity:1.00" />
  <line x1="4272" y1="50.0" x2="4312" y2="50.0" style="stroke:#999; stroke-width:3;" />
  <rect class="anc_exon" x="4312" y="35.0" width="445" height="30" style="fill:#87bcbc;fill-opacity:1.00" />
  <rect class="anc_exon" x="4757" y="35.0" width="0" height="30" style="fill:#87bcbc;fill-opacity:1.00" />
  <text style="" >
<tspan x="0" y="83.0" style="font-size:18px;" >SP XM_031956498_1.1</tspan>  </text>



<script type="text/ecmascript">
<![CDATA[
function draw_bbox(text_id)
{
    var text_elem = document.getElementById(text_id);
    var offset_px = 2;
    var offset_py = 0;
    bbox = text_elem.getBBox();
    var box = document.createElementNS(document.rootElement.namespaceURI,'rect');
    box.setAttribute('x', bbox.x - offset_px);
    box.setAttribute('y', bbox.y - offset_py);
    box.setAttribute('width', bbox.width + offset_px * 2);
    box.setAttribute('height', bbox.height + offset_py * 2);
    box.setAttribute('style','fill: white;'+'stroke: black;'+'stroke-width: 1px;');
    text_elem.insertBefore(box,text_elem.childNodes[0]);

    var svg = text_elem.parentNode;
    svg.appendChild(text_elem);
}

for (var i=1; i < 1; i++)
{
draw_bbox("Mouseover" + i);
}
]]> 
</script>
</svg>
