<svg version="1.1"
xmlns="http://www.w3.org/2000/svg"
xmlns:xlink="http://www.w3.org/1999/xlink"
width="2936" height="100" viewBox = "0 0 2936 100"
onclick="mouseclick(evt)">

<script type="text/ecmascript">

<![CDATA[
    function mouseover(evt, target) { 
    var gv = document.getElementById("globalVariable");
    var previoustarget = gv.firstChild.nodeValue;
    if (previoustarget != "none") 
    {
        	document.getElementById(gv.firstChild.nodeValue).setAttributeNS(null, "visibility", "hidden");
    }
    document.getElementById(target).setAttributeNS(null, "visibility", "visible");
    gv.firstChild.nodeValue = target;
        }

    function mouseclick(evt) { 
    var gv = document.getElementById("globalVariable");
    var previoustarget = gv.firstChild.nodeValue;
    if (previoustarget != "none") {
        	document.getElementById(gv.firstChild.nodeValue).setAttributeNS(null, "visibility", "hidden");
        }
    }
]]>
  </script>
<style type="text/css" >

<![CDATA[
    rect.anc_exon {
              stroke-width:3;
                  }

    rect.non_anc_exon {
              stroke: black; stroke-width:3; stroke-dasharray: 5,5;
                    }

    text {
              font-size: 18px;
              font-family: Courier New;
          }
                    ]]>
</style>

<defs>
    <text x="150" y="40" id="globalVariable">none</text>
</defs>

  <rect class="anc_exon" x="0" y="35.0" width="0" height="30" style="fill:#87bcbc;fill-opacity:1.00" />
  <rect class="anc_exon" x="0" y="35.0" width="108.0" height="30" style="fill:#87bcbc;fill-opacity:1.00" />
  <line x1="108.0" y1="50.0" x2="148.0" y2="50.0" style="stroke:#999; stroke-width:3;" />
  <rect class="anc_exon" x="148" y="35.0" width="72" height="30" style="fill:#87bcbc;fill-opacity:1.00" />
  <line x1="220" y1="50.0" x2="240" y2="50.0" style="stroke:#999; stroke-width:3;" />
  <line x1="240" y1="50.0" x2="240" y2="50.0" style="stroke:#999; stroke-width:3;" />
  <line x1="240" y1="50.0" x2="240" y2="50.0" style="stroke:#999; stroke-width:3;" />
  <line x1="240" y1="50.0" x2="260" y2="50.0" style="stroke:#999; stroke-width:3;" />
  <rect class="anc_exon" x="260" y="35.0" width="60" height="30" style="fill:#87bcbc;fill-opacity:1.00" />
  <line x1="320" y1="50.0" x2="360" y2="50.0" style="stroke:#999; stroke-width:3;" />
  <rect class="anc_exon" x="360" y="35.0" width="78" height="30" style="fill:#87bcbc;fill-opacity:1.00" />
  <line x1="438" y1="50.0" x2="458" y2="50.0" style="stroke:#999; stroke-width:3;" />
  <line x1="458" y1="50.0" x2="458" y2="50.0" style="stroke:#999; stroke-width:3;" />
  <line x1="458" y1="50.0" x2="458" y2="50.0" style="stroke:#999; stroke-width:3;" />
  <line x1="458" y1="50.0" x2="478" y2="50.0" style="stroke:#999; stroke-width:3;" />
  <rect class="anc_exon" x="478" y="35.0" width="26" height="30" style="fill:#87bcbc;fill-opacity:1.00" />
  <line x1="504" y1="50.0" x2="544" y2="50.0" style="stroke:#999; stroke-width:3;" />
  <rect class="anc_exon" x="544" y="35.0" width="103" height="30" style="fill:#87bcbc;fill-opacity:1.00" />
  <line x1="647" y1="50.0" x2="687" y2="50.0" style="stroke:#999; stroke-width:3;" />
  <rect class="anc_exon" x="687" y="35.0" width="136" height="30" style="fill:#87bcbc;fill-opacity:1.00" />
  <line x1="823" y1="50.0" x2="863" y2="50.0" style="stroke:#999; stroke-width:3;" />
  <rect class="anc_exon" x="863" y="35.0" width="89" height="30" style="fill:#87bcbc;fill-opacity:1.00" />
  <line x1="952" y1="50.0" x2="972" y2="50.0" style="stroke:#999; stroke-width:3;" />
  <line x1="972" y1="50.0" x2="972" y2="50.0" style="stroke:#999; stroke-width:3;" />
  <line x1="972" y1="50.0" x2="972" y2="50.0" style="stroke:#999; stroke-width:3;" />
  <line x1="972" y1="50.0" x2="992" y2="50.0" style="stroke:#999; stroke-width:3;" />
  <rect class="anc_exon" x="992" y="35.0" width="76" height="30" style="fill:#87bcbc;fill-opacity:1.00" />
  <line x1="1068" y1="50.0" x2="1088" y2="50.0" style="stroke:#999; stroke-width:3;" />
  <line x1="1088" y1="50.0" x2="1088" y2="50.0" style="stroke:#999; stroke-width:3;" />
  <line x1="1088" y1="50.0" x2="1088" y2="50.0" style="stroke:#999; stroke-width:3;" />
  <line x1="1088" y1="50.0" x2="1108" y2="50.0" style="stroke:#999; stroke-width:3;" />
  <rect class="anc_exon" x="1108" y="35.0" width="100" height="30" style="fill:#87bcbc;fill-opacity:1.00" />
  <line x1="1208" y1="50.0" x2="1248" y2="50.0" style="stroke:#999; stroke-width:3;" />
  <rect class="anc_exon" x="1248" y="35.0" width="76" height="30" style="fill:#87bcbc;fill-opacity:1.00" />
  <line x1="1324" y1="50.0" x2="1364" y2="50.0" style="stroke:#999; stroke-width:3;" />
  <rect class="anc_exon" x="1364" y="35.0" width="76" height="30" style="fill:#87bcbc;fill-opacity:1.00" />
  <line x1="1440" y1="50.0" x2="1480" y2="50.0" style="stroke:#999; stroke-width:3;" />
  <rect class="anc_exon" x="1480" y="35.0" width="76" height="30" style="fill:#87bcbc;fill-opacity:1.00" />
  <line x1="1556" y1="50.0" x2="1596" y2="50.0" style="stroke:#999; stroke-width:3;" />
  <rect class="anc_exon" x="1596" y="35.0" width="120" height="30" style="fill:#87bcbc;fill-opacity:1.00" />
  <line x1="1716" y1="50.0" x2="1756" y2="50.0" style="stroke:#999; stroke-width:3;" />
  <rect class="anc_exon" x="1756" y="35.0" width="76" height="30" style="fill:#87bcbc;fill-opacity:1.00" />
  <line x1="1832" y1="50.0" x2="1852" y2="50.0" style="stroke:#999; stroke-width:3;" />
  <line x1="1852" y1="50.0" x2="1852" y2="50.0" style="stroke:#999; stroke-width:3;" />
  <line x1="1852" y1="50.0" x2="1852" y2="50.0" style="stroke:#999; stroke-width:3;" />
  <line x1="1852" y1="50.0" x2="1872" y2="50.0" style="stroke:#999; stroke-width:3;" />
  <rect class="anc_exon" x="1872" y="35.0" width="72" height="30" style="fill:#87bcbc;fill-opacity:1.00" />
  <line x1="1944" y1="50.0" x2="1984" y2="50.0" style="stroke:#999; stroke-width:3;" />
  <rect class="anc_exon" x="1984" y="35.0" width="82" height="30" style="fill:#87bcbc;fill-opacity:1.00" />
  <line x1="2066" y1="50.0" x2="2106" y2="50.0" style="stroke:#999; stroke-width:3;" />
  <rect class="anc_exon" x="2106" y="35.0" width="150" height="30" style="fill:#87bcbc;fill-opacity:1.00" />
  <line x1="2256" y1="50.0" x2="2276" y2="50.0" style="stroke:#999; stroke-width:3;" />
  <line x1="2276" y1="50.0" x2="2276" y2="50.0" style="stroke:#999; stroke-width:3;" />
  <line x1="2276" y1="50.0" x2="2276" y2="50.0" style="stroke:#999; stroke-width:3;" />
  <line x1="2276" y1="50.0" x2="2296" y2="50.0" style="stroke:#999; stroke-width:3;" />
  <rect class="anc_exon" x="2296" y="35.0" width="127" height="30" style="fill:#87bcbc;fill-opacity:1.00" />
  <line x1="2423" y1="50.0" x2="2463" y2="50.0" style="stroke:#999; stroke-width:3;" />
  <rect class="anc_exon" x="2463" y="35.0" width="48" height="30" style="fill:#87bcbc;fill-opacity:1.00" />
  <line x1="2511" y1="50.0" x2="2551" y2="50.0" style="stroke:#999; stroke-width:3;" />
  <rect class="anc_exon" x="2551" y="35.0" width="136" height="30" style="fill:#87bcbc;fill-opacity:1.00" />
  <line x1="2687" y1="50.0" x2="2707" y2="50.0" style="stroke:#999; stroke-width:3;" />
  <line x1="2707" y1="50.0" x2="2707" y2="50.0" style="stroke:#999; stroke-width:3;" />
  <line x1="2707" y1="50.0" x2="2707" y2="50.0" style="stroke:#999; stroke-width:3;" />
  <line x1="2707" y1="50.0" x2="2727" y2="50.0" style="stroke:#999; stroke-width:3;" />
  <rect class="anc_exon" x="2727" y="35.0" width="69" height="30" style="fill:#87bcbc;fill-opacity:1.00" />
  <line x1="2796" y1="50.0" x2="2836" y2="50.0" style="stroke:#999; stroke-width:3;" />
  <rect class="anc_exon" x="2836" y="35.0" width="64" height="30" style="fill:#87bcbc;fill-opacity:1.00" />
  <rect class="anc_exon" x="2900" y="35.0" width="0" height="30" style="fill:#87bcbc;fill-opacity:1.00" />
  <text style="" >
<tspan x="0" y="83.0" style="font-size:18px;" >SP XM_031954290_1.1</tspan>  </text>



<script type="text/ecmascript">
<![CDATA[
function draw_bbox(text_id)
{
    var text_elem = document.getElementById(text_id);
    var offset_px = 2;
    var offset_py = 0;
    bbox = text_elem.getBBox();
    var box = document.createElementNS(document.rootElement.namespaceURI,'rect');
    box.setAttribute('x', bbox.x - offset_px);
    box.setAttribute('y', bbox.y - offset_py);
    box.setAttribute('width', bbox.width + offset_px * 2);
    box.setAttribute('height', bbox.height + offset_py * 2);
    box.setAttribute('style','fill: white;'+'stroke: black;'+'stroke-width: 1px;');
    text_elem.insertBefore(box,text_elem.childNodes[0]);

    var svg = text_elem.parentNode;
    svg.appendChild(text_elem);
}

for (var i=1; i < 1; i++)
{
draw_bbox("Mouseover" + i);
}
]]> 
</script>
</svg>
