<svg version="1.1"
xmlns="http://www.w3.org/2000/svg"
xmlns:xlink="http://www.w3.org/1999/xlink"
width="1627" height="100" viewBox = "0 0 1627 100"
onclick="mouseclick(evt)">

<script type="text/ecmascript">

<![CDATA[
    function mouseover(evt, target) { 
    var gv = document.getElementById("globalVariable");
    var previoustarget = gv.firstChild.nodeValue;
    if (previoustarget != "none") 
    {
        	document.getElementById(gv.firstChild.nodeValue).setAttributeNS(null, "visibility", "hidden");
    }
    document.getElementById(target).setAttributeNS(null, "visibility", "visible");
    gv.firstChild.nodeValue = target;
        }

    function mouseclick(evt) { 
    var gv = document.getElementById("globalVariable");
    var previoustarget = gv.firstChild.nodeValue;
    if (previoustarget != "none") {
        	document.getElementById(gv.firstChild.nodeValue).setAttributeNS(null, "visibility", "hidden");
        }
    }
]]>
  </script>
<style type="text/css" >

<![CDATA[
    rect.anc_exon {
              stroke-width:3;
                  }

    rect.non_anc_exon {
              stroke: black; stroke-width:3; stroke-dasharray: 5,5;
                    }

    text {
              font-size: 18px;
              font-family: Courier New;
          }
                    ]]>
</style>

<defs>
    <text x="150" y="40" id="globalVariable">none</text>
</defs>

  <rect class="anc_exon" x="0" y="35.0" width="0" height="30" style="fill:#87bcbc;fill-opacity:1.00" />
  <rect class="anc_exon" x="0" y="35.0" width="79.2" height="30" style="fill:#87bcbc;fill-opacity:1.00" />
  <line x1="79.2" y1="50.0" x2="98.2" y2="50.0" style="stroke:#999; stroke-width:3;" />
  <line x1="98.2" y1="50.0" x2="98.2" y2="50.0" style="stroke:#999; stroke-width:3;" />
  <line x1="98.2" y1="50.0" x2="98.2" y2="50.0" style="stroke:#999; stroke-width:3;" />
  <line x1="98.2" y1="50.0" x2="119.0" y2="50.0" style="stroke:#999; stroke-width:3;" />
  <rect class="anc_exon" x="119" y="35.0" width="132" height="30" style="fill:#87bcbc;fill-opacity:1.00" />
  <line x1="251" y1="50.0" x2="271" y2="50.0" style="stroke:#999; stroke-width:3;" />
  <line x1="271" y1="50.0" x2="271" y2="50.0" style="stroke:#999; stroke-width:3;" />
  <line x1="271" y1="50.0" x2="271" y2="50.0" style="stroke:#999; stroke-width:3;" />
  <line x1="271" y1="50.0" x2="291" y2="50.0" style="stroke:#999; stroke-width:3;" />
  <rect class="anc_exon" x="291" y="35.0" width="90" height="30" style="fill:#87bcbc;fill-opacity:1.00" />
  <line x1="381" y1="50.0" x2="401" y2="50.0" style="stroke:#999; stroke-width:3;" />
  <line x1="401" y1="50.0" x2="401" y2="50.0" style="stroke:#999; stroke-width:3;" />
  <line x1="401" y1="50.0" x2="401" y2="50.0" style="stroke:#999; stroke-width:3;" />
  <line x1="401" y1="50.0" x2="421" y2="50.0" style="stroke:#999; stroke-width:3;" />
  <rect class="anc_exon" x="421" y="35.0" width="80" height="30" style="fill:#87bcbc;fill-opacity:1.00" />
  <line x1="501" y1="50.0" x2="541" y2="50.0" style="stroke:#999; stroke-width:3;" />
  <rect class="anc_exon" x="541" y="35.0" width="38" height="30" style="fill:#87bcbc;fill-opacity:1.00" />
  <line x1="579" y1="50.0" x2="599" y2="50.0" style="stroke:#999; stroke-width:3;" />
  <line x1="599" y1="50.0" x2="599" y2="50.0" style="stroke:#999; stroke-width:3;" />
  <line x1="599" y1="50.0" x2="599" y2="50.0" style="stroke:#999; stroke-width:3;" />
  <line x1="599" y1="50.0" x2="619" y2="50.0" style="stroke:#999; stroke-width:3;" />
  <rect class="anc_exon" x="619" y="35.0" width="72" height="30" style="fill:#87bcbc;fill-opacity:1.00" />
  <line x1="691" y1="50.0" x2="711" y2="50.0" style="stroke:#999; stroke-width:3;" />
  <line x1="711" y1="50.0" x2="711" y2="50.0" style="stroke:#999; stroke-width:3;" />
  <line x1="711" y1="50.0" x2="711" y2="50.0" style="stroke:#999; stroke-width:3;" />
  <line x1="711" y1="50.0" x2="731" y2="50.0" style="stroke:#999; stroke-width:3;" />
  <rect class="anc_exon" x="731" y="35.0" width="64" height="30" style="fill:#87bcbc;fill-opacity:1.00" />
  <line x1="795" y1="50.0" x2="815" y2="50.0" style="stroke:#999; stroke-width:3;" />
  <line x1="815" y1="50.0" x2="815" y2="50.0" style="stroke:#999; stroke-width:3;" />
  <line x1="815" y1="50.0" x2="815" y2="50.0" style="stroke:#999; stroke-width:3;" />
  <line x1="815" y1="50.0" x2="835" y2="50.0" style="stroke:#999; stroke-width:3;" />
  <rect class="anc_exon" x="835" y="35.0" width="154" height="30" style="fill:#87bcbc;fill-opacity:1.00" />
  <line x1="989" y1="50.0" x2="1029" y2="50.0" style="stroke:#999; stroke-width:3;" />
  <rect class="anc_exon" x="1029" y="35.0" width="66" height="30" style="fill:#87bcbc;fill-opacity:1.00" />
  <line x1="1095" y1="50.0" x2="1115" y2="50.0" style="stroke:#999; stroke-width:3;" />
  <line x1="1115" y1="50.0" x2="1115" y2="50.0" style="stroke:#999; stroke-width:3;" />
  <line x1="1115" y1="50.0" x2="1115" y2="50.0" style="stroke:#999; stroke-width:3;" />
  <line x1="1115" y1="50.0" x2="1135" y2="50.0" style="stroke:#999; stroke-width:3;" />
  <rect class="anc_exon" x="1135" y="35.0" width="84" height="30" style="fill:#87bcbc;fill-opacity:1.00" />
  <line x1="1219" y1="50.0" x2="1239" y2="50.0" style="stroke:#999; stroke-width:3;" />
  <line x1="1239" y1="50.0" x2="1239" y2="50.0" style="stroke:#999; stroke-width:3;" />
  <line x1="1239" y1="50.0" x2="1239" y2="50.0" style="stroke:#999; stroke-width:3;" />
  <line x1="1239" y1="50.0" x2="1259" y2="50.0" style="stroke:#999; stroke-width:3;" />
  <rect class="anc_exon" x="1259" y="35.0" width="198" height="30" style="fill:#87bcbc;fill-opacity:1.00" />
  <line x1="1457" y1="50.0" x2="1497" y2="50.0" style="stroke:#999; stroke-width:3;" />
  <rect class="anc_exon" x="1497" y="35.0" width="43" height="30" style="fill:#87bcbc;fill-opacity:1.00" />
  <line x1="1540" y1="50.0" x2="1580" y2="50.0" style="stroke:#999; stroke-width:3;" />
  <rect class="anc_exon" x="1580" y="35.0" width="11" height="30" style="fill:#87bcbc;fill-opacity:1.00" />
  <rect class="anc_exon" x="1591" y="35.0" width="0" height="30" style="fill:#87bcbc;fill-opacity:1.00" />
  <text style="" >
<tspan x="0" y="83.0" style="font-size:18px;" >SP XM_023502436_2.1</tspan>  </text>



<script type="text/ecmascript">
<![CDATA[
function draw_bbox(text_id)
{
    var text_elem = document.getElementById(text_id);
    var offset_px = 2;
    var offset_py = 0;
    bbox = text_elem.getBBox();
    var box = document.createElementNS(document.rootElement.namespaceURI,'rect');
    box.setAttribute('x', bbox.x - offset_px);
    box.setAttribute('y', bbox.y - offset_py);
    box.setAttribute('width', bbox.width + offset_px * 2);
    box.setAttribute('height', bbox.height + offset_py * 2);
    box.setAttribute('style','fill: white;'+'stroke: black;'+'stroke-width: 1px;');
    text_elem.insertBefore(box,text_elem.childNodes[0]);

    var svg = text_elem.parentNode;
    svg.appendChild(text_elem);
}

for (var i=1; i < 1; i++)
{
draw_bbox("Mouseover" + i);
}
]]> 
</script>
</svg>
