<svg version="1.1"
xmlns="http://www.w3.org/2000/svg"
xmlns:xlink="http://www.w3.org/1999/xlink"
width="3890" height="100" viewBox = "0 0 3890 100"
onclick="mouseclick(evt)">

<script type="text/ecmascript">

<![CDATA[
    function mouseover(evt, target) { 
    var gv = document.getElementById("globalVariable");
    var previoustarget = gv.firstChild.nodeValue;
    if (previoustarget != "none") 
    {
        	document.getElementById(gv.firstChild.nodeValue).setAttributeNS(null, "visibility", "hidden");
    }
    document.getElementById(target).setAttributeNS(null, "visibility", "visible");
    gv.firstChild.nodeValue = target;
        }

    function mouseclick(evt) { 
    var gv = document.getElementById("globalVariable");
    var previoustarget = gv.firstChild.nodeValue;
    if (previoustarget != "none") {
        	document.getElementById(gv.firstChild.nodeValue).setAttributeNS(null, "visibility", "hidden");
        }
    }
]]>
  </script>
<style type="text/css" >

<![CDATA[
    rect.anc_exon {
              stroke-width:3;
                  }

    rect.non_anc_exon {
              stroke: black; stroke-width:3; stroke-dasharray: 5,5;
                    }

    text {
              font-size: 18px;
              font-family: Courier New;
          }
                    ]]>
</style>

<defs>
    <text x="150" y="40" id="globalVariable">none</text>
</defs>

  <rect class="anc_exon" x="0" y="35.0" width="0" height="30" style="fill:#87bcbc;fill-opacity:1.00" />
  <rect class="anc_exon" x="0" y="35.0" width="63.2" height="30" style="fill:#87bcbc;fill-opacity:1.00" />
  <line x1="63.2" y1="50.0" x2="103.0" y2="50.0" style="stroke:#999; stroke-width:3;" />
  <rect class="anc_exon" x="103" y="35.0" width="99" height="30" style="fill:#87bcbc;fill-opacity:1.00" />
  <line x1="202" y1="50.0" x2="222" y2="50.0" style="stroke:#999; stroke-width:3;" />
  <line x1="222" y1="50.0" x2="222" y2="50.0" style="stroke:#999; stroke-width:3;" />
  <line x1="222" y1="50.0" x2="222" y2="50.0" style="stroke:#999; stroke-width:3;" />
  <line x1="222" y1="50.0" x2="242" y2="50.0" style="stroke:#999; stroke-width:3;" />
  <rect class="anc_exon" x="242" y="35.0" width="156" height="30" style="fill:#87bcbc;fill-opacity:1.00" />
  <line x1="398" y1="50.0" x2="438" y2="50.0" style="stroke:#999; stroke-width:3;" />
  <rect class="anc_exon" x="438" y="35.0" width="76" height="30" style="fill:#87bcbc;fill-opacity:1.00" />
  <line x1="514" y1="50.0" x2="554" y2="50.0" style="stroke:#999; stroke-width:3;" />
  <rect class="anc_exon" x="554" y="35.0" width="7" height="30" style="fill:#87bcbc;fill-opacity:1.00" />
  <line x1="561" y1="50.0" x2="601" y2="50.0" style="stroke:#999; stroke-width:3;" />
  <rect class="anc_exon" x="601" y="35.0" width="112" height="30" style="fill:#87bcbc;fill-opacity:1.00" />
  <line x1="713" y1="50.0" x2="753" y2="50.0" style="stroke:#999; stroke-width:3;" />
  <rect class="anc_exon" x="753" y="35.0" width="114" height="30" style="fill:#87bcbc;fill-opacity:1.00" />
  <line x1="867" y1="50.0" x2="907" y2="50.0" style="stroke:#999; stroke-width:3;" />
  <rect class="anc_exon" x="907" y="35.0" width="80" height="30" style="fill:#87bcbc;fill-opacity:1.00" />
  <line x1="987" y1="50.0" x2="1027" y2="50.0" style="stroke:#999; stroke-width:3;" />
  <rect class="anc_exon" x="1027" y="35.0" width="129" height="30" style="fill:#87bcbc;fill-opacity:1.00" />
  <line x1="1156" y1="50.0" x2="1196" y2="50.0" style="stroke:#999; stroke-width:3;" />
  <rect class="anc_exon" x="1196" y="35.0" width="122" height="30" style="fill:#87bcbc;fill-opacity:1.00" />
  <line x1="1318" y1="50.0" x2="1358" y2="50.0" style="stroke:#999; stroke-width:3;" />
  <rect class="anc_exon" x="1358" y="35.0" width="184" height="30" style="fill:#87bcbc;fill-opacity:1.00" />
  <line x1="1542" y1="50.0" x2="1582" y2="50.0" style="stroke:#999; stroke-width:3;" />
  <rect class="anc_exon" x="1582" y="35.0" width="60" height="30" style="fill:#87bcbc;fill-opacity:1.00" />
  <line x1="1642" y1="50.0" x2="1682" y2="50.0" style="stroke:#999; stroke-width:3;" />
  <rect class="anc_exon" x="1682" y="35.0" width="76" height="30" style="fill:#87bcbc;fill-opacity:1.00" />
  <line x1="1758" y1="50.0" x2="1798" y2="50.0" style="stroke:#999; stroke-width:3;" />
  <rect class="anc_exon" x="1798" y="35.0" width="80" height="30" style="fill:#87bcbc;fill-opacity:1.00" />
  <line x1="1878" y1="50.0" x2="1918" y2="50.0" style="stroke:#999; stroke-width:3;" />
  <rect class="anc_exon" x="1918" y="35.0" width="143" height="30" style="fill:#87bcbc;fill-opacity:1.00" />
  <line x1="2061" y1="50.0" x2="2101" y2="50.0" style="stroke:#999; stroke-width:3;" />
  <rect class="anc_exon" x="2101" y="35.0" width="101" height="30" style="fill:#87bcbc;fill-opacity:1.00" />
  <line x1="2202" y1="50.0" x2="2242" y2="50.0" style="stroke:#999; stroke-width:3;" />
  <rect class="anc_exon" x="2242" y="35.0" width="116" height="30" style="fill:#87bcbc;fill-opacity:1.00" />
  <line x1="2358" y1="50.0" x2="2398" y2="50.0" style="stroke:#999; stroke-width:3;" />
  <rect class="anc_exon" x="2398" y="35.0" width="139" height="30" style="fill:#87bcbc;fill-opacity:1.00" />
  <line x1="2537" y1="50.0" x2="2577" y2="50.0" style="stroke:#999; stroke-width:3;" />
  <rect class="anc_exon" x="2577" y="35.0" width="134" height="30" style="fill:#87bcbc;fill-opacity:1.00" />
  <line x1="2711" y1="50.0" x2="2751" y2="50.0" style="stroke:#999; stroke-width:3;" />
  <rect class="anc_exon" x="2751" y="35.0" width="137" height="30" style="fill:#87bcbc;fill-opacity:1.00" />
  <line x1="2888" y1="50.0" x2="2928" y2="50.0" style="stroke:#999; stroke-width:3;" />
  <rect class="anc_exon" x="2928" y="35.0" width="261" height="30" style="fill:#87bcbc;fill-opacity:1.00" />
  <line x1="3189" y1="50.0" x2="3229" y2="50.0" style="stroke:#999; stroke-width:3;" />
  <rect class="anc_exon" x="3229" y="35.0" width="47" height="30" style="fill:#87bcbc;fill-opacity:1.00" />
  <line x1="3276" y1="50.0" x2="3316" y2="50.0" style="stroke:#999; stroke-width:3;" />
  <rect class="anc_exon" x="3316" y="35.0" width="117" height="30" style="fill:#87bcbc;fill-opacity:1.00" />
  <line x1="3433" y1="50.0" x2="3473" y2="50.0" style="stroke:#999; stroke-width:3;" />
  <rect class="anc_exon" x="3473" y="35.0" width="96" height="30" style="fill:#87bcbc;fill-opacity:1.00" />
  <line x1="3569" y1="50.0" x2="3609" y2="50.0" style="stroke:#999; stroke-width:3;" />
  <rect class="anc_exon" x="3609" y="35.0" width="57" height="30" style="fill:#87bcbc;fill-opacity:1.00" />
  <line x1="3666" y1="50.0" x2="3706" y2="50.0" style="stroke:#999; stroke-width:3;" />
  <rect class="anc_exon" x="3706" y="35.0" width="148" height="30" style="fill:#87bcbc;fill-opacity:1.00" />
  <rect class="anc_exon" x="3854" y="35.0" width="0" height="30" style="fill:#87bcbc;fill-opacity:1.00" />
  <text style="" >
<tspan x="0" y="83.0" style="font-size:18px;" >SP XM_031955704_1.1</tspan>  </text>



<script type="text/ecmascript">
<![CDATA[
function draw_bbox(text_id)
{
    var text_elem = document.getElementById(text_id);
    var offset_px = 2;
    var offset_py = 0;
    bbox = text_elem.getBBox();
    var box = document.createElementNS(document.rootElement.namespaceURI,'rect');
    box.setAttribute('x', bbox.x - offset_px);
    box.setAttribute('y', bbox.y - offset_py);
    box.setAttribute('width', bbox.width + offset_px * 2);
    box.setAttribute('height', bbox.height + offset_py * 2);
    box.setAttribute('style','fill: white;'+'stroke: black;'+'stroke-width: 1px;');
    text_elem.insertBefore(box,text_elem.childNodes[0]);

    var svg = text_elem.parentNode;
    svg.appendChild(text_elem);
}

for (var i=1; i < 1; i++)
{
draw_bbox("Mouseover" + i);
}
]]> 
</script>
</svg>
