<svg version="1.1"
xmlns="http://www.w3.org/2000/svg"
xmlns:xlink="http://www.w3.org/1999/xlink"
width="1870" height="100" viewBox = "0 0 1870 100"
onclick="mouseclick(evt)">

<script type="text/ecmascript">

<![CDATA[
    function mouseover(evt, target) { 
    var gv = document.getElementById("globalVariable");
    var previoustarget = gv.firstChild.nodeValue;
    if (previoustarget != "none") 
    {
        	document.getElementById(gv.firstChild.nodeValue).setAttributeNS(null, "visibility", "hidden");
    }
    document.getElementById(target).setAttributeNS(null, "visibility", "visible");
    gv.firstChild.nodeValue = target;
        }

    function mouseclick(evt) { 
    var gv = document.getElementById("globalVariable");
    var previoustarget = gv.firstChild.nodeValue;
    if (previoustarget != "none") {
        	document.getElementById(gv.firstChild.nodeValue).setAttributeNS(null, "visibility", "hidden");
        }
    }
]]>
  </script>
<style type="text/css" >

<![CDATA[
    rect.anc_exon {
              stroke-width:3;
                  }

    rect.non_anc_exon {
              stroke: black; stroke-width:3; stroke-dasharray: 5,5;
                    }

    text {
              font-size: 18px;
              font-family: Courier New;
          }
                    ]]>
</style>

<defs>
    <text x="150" y="40" id="globalVariable">none</text>
</defs>

  <rect class="anc_exon" x="0" y="35.0" width="0" height="30" style="fill:#87bcbc;fill-opacity:1.00" />
  <rect class="anc_exon" x="0" y="35.0" width="208.0" height="30" style="fill:#878787;fill-opacity:1.00" />
  <line x1="208.0" y1="50.0" x2="228.0" y2="50.0" style="stroke:#999; stroke-width:3;" />
  <line x1="228.0" y1="50.0" x2="228.0" y2="50.0" style="stroke:#999; stroke-width:3;" />
  <line x1="228.0" y1="50.0" x2="228.0" y2="50.0" style="stroke:#999; stroke-width:3;" />
  <line x1="228.0" y1="50.0" x2="248.0" y2="50.0" style="stroke:#999; stroke-width:3;" />
  <rect class="anc_exon" x="248" y="35.0" width="126" height="30" style="fill:#87bcbc;fill-opacity:1.00" />
  <line x1="374" y1="50.0" x2="394" y2="50.0" style="stroke:#999; stroke-width:3;" />
  <line x1="394" y1="50.0" x2="394" y2="50.0" style="stroke:#999; stroke-width:3;" />
  <line x1="394" y1="50.0" x2="394" y2="50.0" style="stroke:#999; stroke-width:3;" />
  <line x1="394" y1="50.0" x2="414" y2="50.0" style="stroke:#999; stroke-width:3;" />
  <rect class="anc_exon" x="414" y="35.0" width="129" height="30" style="fill:#87bcbc;fill-opacity:1.00" />
  <line x1="543" y1="50.0" x2="563" y2="50.0" style="stroke:#999; stroke-width:3;" />
  <line x1="563" y1="50.0" x2="563" y2="50.0" style="stroke:#999; stroke-width:3;" />
  <line x1="563" y1="50.0" x2="563" y2="50.0" style="stroke:#999; stroke-width:3;" />
  <line x1="563" y1="50.0" x2="583" y2="50.0" style="stroke:#999; stroke-width:3;" />
  <rect class="anc_exon" x="583" y="35.0" width="139" height="30" style="fill:#87bcbc;fill-opacity:1.00" />
  <line x1="722" y1="50.0" x2="742" y2="50.0" style="stroke:#999; stroke-width:3;" />
  <line x1="742" y1="50.0" x2="742" y2="50.0" style="stroke:#999; stroke-width:3;" />
  <line x1="742" y1="50.0" x2="742" y2="50.0" style="stroke:#999; stroke-width:3;" />
  <line x1="742" y1="50.0" x2="762" y2="50.0" style="stroke:#999; stroke-width:3;" />
  <rect class="anc_exon" x="762" y="35.0" width="137" height="30" style="fill:#87bcbc;fill-opacity:1.00" />
  <line x1="899" y1="50.0" x2="919" y2="50.0" style="stroke:#999; stroke-width:3;" />
  <line x1="919" y1="50.0" x2="919" y2="50.0" style="stroke:#999; stroke-width:3;" />
  <line x1="919" y1="50.0" x2="919" y2="50.0" style="stroke:#999; stroke-width:3;" />
  <line x1="919" y1="50.0" x2="939" y2="50.0" style="stroke:#999; stroke-width:3;" />
  <rect class="anc_exon" x="939" y="35.0" width="38" height="30" style="fill:#87bcbc;fill-opacity:1.00" />
  <line x1="977" y1="50.0" x2="997" y2="50.0" style="stroke:#999; stroke-width:3;" />
  <line x1="997" y1="50.0" x2="997" y2="50.0" style="stroke:#999; stroke-width:3;" />
  <line x1="997" y1="50.0" x2="997" y2="50.0" style="stroke:#999; stroke-width:3;" />
  <line x1="997" y1="50.0" x2="1017" y2="50.0" style="stroke:#999; stroke-width:3;" />
  <rect class="anc_exon" x="1017" y="35.0" width="75" height="30" style="fill:#87bcbc;fill-opacity:1.00" />
  <line x1="1092" y1="50.0" x2="1112" y2="50.0" style="stroke:#999; stroke-width:3;" />
  <line x1="1112" y1="50.0" x2="1112" y2="50.0" style="stroke:#999; stroke-width:3;" />
  <line x1="1112" y1="50.0" x2="1112" y2="50.0" style="stroke:#999; stroke-width:3;" />
  <line x1="1112" y1="50.0" x2="1132" y2="50.0" style="stroke:#999; stroke-width:3;" />
  <rect class="anc_exon" x="1132" y="35.0" width="85" height="30" style="fill:#878787;fill-opacity:1.00" />
  <line x1="1217" y1="50.0" x2="1237" y2="50.0" style="stroke:#999; stroke-width:3;" />
  <line x1="1237" y1="50.0" x2="1237" y2="50.0" style="stroke:#999; stroke-width:3;" />
  <line x1="1237" y1="50.0" x2="1237" y2="50.0" style="stroke:#999; stroke-width:3;" />
  <line x1="1237" y1="50.0" x2="1257" y2="50.0" style="stroke:#999; stroke-width:3;" />
  <rect class="anc_exon" x="1257" y="35.0" width="92" height="30" style="fill:#87bcbc;fill-opacity:1.00" />
  <line x1="1349" y1="50.0" x2="1369" y2="50.0" style="stroke:#999; stroke-width:3;" />
  <line x1="1369" y1="50.0" x2="1369" y2="50.0" style="stroke:#999; stroke-width:3;" />
  <line x1="1369" y1="50.0" x2="1369" y2="50.0" style="stroke:#999; stroke-width:3;" />
  <line x1="1369" y1="50.0" x2="1389" y2="50.0" style="stroke:#999; stroke-width:3;" />
  <rect class="anc_exon" x="1389" y="35.0" width="116" height="30" style="fill:#87bcbc;fill-opacity:1.00" />
  <line x1="1505" y1="50.0" x2="1525" y2="50.0" style="stroke:#999; stroke-width:3;" />
  <line x1="1525" y1="50.0" x2="1525" y2="50.0" style="stroke:#999; stroke-width:3;" />
  <line x1="1525" y1="50.0" x2="1525" y2="50.0" style="stroke:#999; stroke-width:3;" />
  <line x1="1525" y1="50.0" x2="1545" y2="50.0" style="stroke:#999; stroke-width:3;" />
  <rect class="anc_exon" x="1545" y="35.0" width="117" height="30" style="fill:#87bcbc;fill-opacity:1.00" />
  <line x1="1662" y1="50.0" x2="1682" y2="50.0" style="stroke:#999; stroke-width:3;" />
  <line x1="1682" y1="50.0" x2="1682" y2="50.0" style="stroke:#999; stroke-width:3;" />
  <line x1="1682" y1="50.0" x2="1682" y2="50.0" style="stroke:#999; stroke-width:3;" />
  <line x1="1682" y1="50.0" x2="1702" y2="50.0" style="stroke:#999; stroke-width:3;" />
  <rect class="anc_exon" x="1702" y="35.0" width="132" height="30" style="fill:#87bcbc;fill-opacity:1.00" />
  <rect class="anc_exon" x="1834" y="35.0" width="0" height="30" style="fill:#87bcbc;fill-opacity:1.00" />
  <text style="" >
<tspan x="0" y="83.0" style="font-size:18px;" >SP XM_031956226_1.1</tspan>  </text>



<script type="text/ecmascript">
<![CDATA[
function draw_bbox(text_id)
{
    var text_elem = document.getElementById(text_id);
    var offset_px = 2;
    var offset_py = 0;
    bbox = text_elem.getBBox();
    var box = document.createElementNS(document.rootElement.namespaceURI,'rect');
    box.setAttribute('x', bbox.x - offset_px);
    box.setAttribute('y', bbox.y - offset_py);
    box.setAttribute('width', bbox.width + offset_px * 2);
    box.setAttribute('height', bbox.height + offset_py * 2);
    box.setAttribute('style','fill: white;'+'stroke: black;'+'stroke-width: 1px;');
    text_elem.insertBefore(box,text_elem.childNodes[0]);

    var svg = text_elem.parentNode;
    svg.appendChild(text_elem);
}

for (var i=1; i < 1; i++)
{
draw_bbox("Mouseover" + i);
}
]]> 
</script>
</svg>
