<svg version="1.1"
xmlns="http://www.w3.org/2000/svg"
xmlns:xlink="http://www.w3.org/1999/xlink"
width="3829" height="100" viewBox = "0 0 3829 100"
onclick="mouseclick(evt)">

<script type="text/ecmascript">

<![CDATA[
    function mouseover(evt, target) { 
    var gv = document.getElementById("globalVariable");
    var previoustarget = gv.firstChild.nodeValue;
    if (previoustarget != "none") 
    {
        	document.getElementById(gv.firstChild.nodeValue).setAttributeNS(null, "visibility", "hidden");
    }
    document.getElementById(target).setAttributeNS(null, "visibility", "visible");
    gv.firstChild.nodeValue = target;
        }

    function mouseclick(evt) { 
    var gv = document.getElementById("globalVariable");
    var previoustarget = gv.firstChild.nodeValue;
    if (previoustarget != "none") {
        	document.getElementById(gv.firstChild.nodeValue).setAttributeNS(null, "visibility", "hidden");
        }
    }
]]>
  </script>
<style type="text/css" >

<![CDATA[
    rect.anc_exon {
              stroke-width:3;
                  }

    rect.non_anc_exon {
              stroke: black; stroke-width:3; stroke-dasharray: 5,5;
                    }

    text {
              font-size: 18px;
              font-family: Courier New;
          }
                    ]]>
</style>

<defs>
    <text x="150" y="40" id="globalVariable">none</text>
</defs>

  <rect class="anc_exon" x="0" y="35.0" width="0" height="30" style="fill:#87bcbc;fill-opacity:1.00" />
  <rect class="anc_exon" x="0" y="35.0" width="64.8" height="30" style="fill:#87bcbc;fill-opacity:1.00" />
  <line x1="64.8" y1="50.0" x2="83.8" y2="50.0" style="stroke:#999; stroke-width:3;" />
  <line x1="83.8" y1="50.0" x2="83.8" y2="50.0" style="stroke:#999; stroke-width:3;" />
  <line x1="83.8" y1="50.0" x2="83.8" y2="50.0" style="stroke:#999; stroke-width:3;" />
  <line x1="83.8" y1="50.0" x2="104.0" y2="50.0" style="stroke:#999; stroke-width:3;" />
  <rect class="anc_exon" x="104" y="35.0" width="64" height="30" style="fill:#87bcbc;fill-opacity:1.00" />
  <line x1="168" y1="50.0" x2="188" y2="50.0" style="stroke:#999; stroke-width:3;" />
  <line x1="188" y1="50.0" x2="188" y2="50.0" style="stroke:#999; stroke-width:3;" />
  <line x1="188" y1="50.0" x2="188" y2="50.0" style="stroke:#999; stroke-width:3;" />
  <line x1="188" y1="50.0" x2="208" y2="50.0" style="stroke:#999; stroke-width:3;" />
  <rect class="anc_exon" x="208" y="35.0" width="43" height="30" style="fill:#87bcbc;fill-opacity:1.00" />
  <line x1="251" y1="50.0" x2="271" y2="50.0" style="stroke:#999; stroke-width:3;" />
  <line x1="271" y1="50.0" x2="271" y2="50.0" style="stroke:#999; stroke-width:3;" />
  <line x1="271" y1="50.0" x2="271" y2="50.0" style="stroke:#999; stroke-width:3;" />
  <line x1="271" y1="50.0" x2="291" y2="50.0" style="stroke:#999; stroke-width:3;" />
  <rect class="anc_exon" x="291" y="35.0" width="60" height="30" style="fill:#87bcbc;fill-opacity:1.00" />
  <line x1="351" y1="50.0" x2="371" y2="50.0" style="stroke:#999; stroke-width:3;" />
  <line x1="371" y1="50.0" x2="371" y2="50.0" style="stroke:#999; stroke-width:3;" />
  <line x1="371" y1="50.0" x2="371" y2="50.0" style="stroke:#999; stroke-width:3;" />
  <line x1="371" y1="50.0" x2="391" y2="50.0" style="stroke:#999; stroke-width:3;" />
  <rect class="anc_exon" x="391" y="35.0" width="80" height="30" style="fill:#87bcbc;fill-opacity:1.00" />
  <line x1="471" y1="50.0" x2="511" y2="50.0" style="stroke:#999; stroke-width:3;" />
  <rect class="anc_exon" x="511" y="35.0" width="133" height="30" style="fill:#87bcbc;fill-opacity:1.00" />
  <line x1="644" y1="50.0" x2="664" y2="50.0" style="stroke:#999; stroke-width:3;" />
  <line x1="664" y1="50.0" x2="664" y2="50.0" style="stroke:#999; stroke-width:3;" />
  <line x1="664" y1="50.0" x2="664" y2="50.0" style="stroke:#999; stroke-width:3;" />
  <line x1="664" y1="50.0" x2="684" y2="50.0" style="stroke:#999; stroke-width:3;" />
  <rect class="anc_exon" x="684" y="35.0" width="117" height="30" style="fill:#87bcbc;fill-opacity:1.00" />
  <line x1="801" y1="50.0" x2="821" y2="50.0" style="stroke:#999; stroke-width:3;" />
  <line x1="821" y1="50.0" x2="821" y2="50.0" style="stroke:#999; stroke-width:3;" />
  <line x1="821" y1="50.0" x2="821" y2="50.0" style="stroke:#999; stroke-width:3;" />
  <line x1="821" y1="50.0" x2="841" y2="50.0" style="stroke:#999; stroke-width:3;" />
  <rect class="anc_exon" x="841" y="35.0" width="126" height="30" style="fill:#87bcbc;fill-opacity:1.00" />
  <line x1="967" y1="50.0" x2="987" y2="50.0" style="stroke:#999; stroke-width:3;" />
  <line x1="987" y1="50.0" x2="987" y2="50.0" style="stroke:#999; stroke-width:3;" />
  <line x1="987" y1="50.0" x2="987" y2="50.0" style="stroke:#999; stroke-width:3;" />
  <line x1="987" y1="50.0" x2="1007" y2="50.0" style="stroke:#999; stroke-width:3;" />
  <rect class="anc_exon" x="1007" y="35.0" width="66" height="30" style="fill:#87bcbc;fill-opacity:1.00" />
  <line x1="1073" y1="50.0" x2="1093" y2="50.0" style="stroke:#999; stroke-width:3;" />
  <line x1="1093" y1="50.0" x2="1093" y2="50.0" style="stroke:#999; stroke-width:3;" />
  <line x1="1093" y1="50.0" x2="1093" y2="50.0" style="stroke:#999; stroke-width:3;" />
  <line x1="1093" y1="50.0" x2="1113" y2="50.0" style="stroke:#999; stroke-width:3;" />
  <rect class="anc_exon" x="1113" y="35.0" width="68" height="30" style="fill:#87bcbc;fill-opacity:1.00" />
  <line x1="1181" y1="50.0" x2="1221" y2="50.0" style="stroke:#999; stroke-width:3;" />
  <rect class="anc_exon" x="1221" y="35.0" width="142" height="30" style="fill:#878787;fill-opacity:1.00" />
  <line x1="1363" y1="50.0" x2="1383" y2="50.0" style="stroke:#999; stroke-width:3;" />
  <line x1="1383" y1="50.0" x2="1383" y2="50.0" style="stroke:#999; stroke-width:3;" />
  <line x1="1383" y1="50.0" x2="1383" y2="50.0" style="stroke:#999; stroke-width:3;" />
  <line x1="1383" y1="50.0" x2="1403" y2="50.0" style="stroke:#999; stroke-width:3;" />
  <rect class="anc_exon" x="1403" y="35.0" width="56" height="30" style="fill:#87bcbc;fill-opacity:1.00" />
  <line x1="1459" y1="50.0" x2="1499" y2="50.0" style="stroke:#999; stroke-width:3;" />
  <rect class="anc_exon" x="1499" y="35.0" width="77" height="30" style="fill:#87bcbc;fill-opacity:1.00" />
  <line x1="1576" y1="50.0" x2="1596" y2="50.0" style="stroke:#999; stroke-width:3;" />
  <line x1="1596" y1="50.0" x2="1596" y2="50.0" style="stroke:#999; stroke-width:3;" />
  <line x1="1596" y1="50.0" x2="1596" y2="50.0" style="stroke:#999; stroke-width:3;" />
  <line x1="1596" y1="50.0" x2="1616" y2="50.0" style="stroke:#999; stroke-width:3;" />
  <rect class="anc_exon" x="1616" y="35.0" width="68" height="30" style="fill:#87bcbc;fill-opacity:1.00" />
  <line x1="1684" y1="50.0" x2="1724" y2="50.0" style="stroke:#999; stroke-width:3;" />
  <rect class="anc_exon" x="1724" y="35.0" width="100" height="30" style="fill:#87bcbc;fill-opacity:1.00" />
  <line x1="1824" y1="50.0" x2="1864" y2="50.0" style="stroke:#999; stroke-width:3;" />
  <rect class="anc_exon" x="1864" y="35.0" width="124" height="30" style="fill:#87bcbc;fill-opacity:1.00" />
  <line x1="1988" y1="50.0" x2="2008" y2="50.0" style="stroke:#999; stroke-width:3;" />
  <line x1="2008" y1="50.0" x2="2008" y2="50.0" style="stroke:#999; stroke-width:3;" />
  <line x1="2008" y1="50.0" x2="2008" y2="50.0" style="stroke:#999; stroke-width:3;" />
  <line x1="2008" y1="50.0" x2="2028" y2="50.0" style="stroke:#999; stroke-width:3;" />
  <rect class="anc_exon" x="2028" y="35.0" width="132" height="30" style="fill:#87bcbc;fill-opacity:1.00" />
  <line x1="2160" y1="50.0" x2="2200" y2="50.0" style="stroke:#999; stroke-width:3;" />
  <rect class="anc_exon" x="2200" y="35.0" width="80" height="30" style="fill:#87bcbc;fill-opacity:1.00" />
  <line x1="2280" y1="50.0" x2="2320" y2="50.0" style="stroke:#999; stroke-width:3;" />
  <rect class="anc_exon" x="2320" y="35.0" width="84" height="30" style="fill:#87bcbc;fill-opacity:1.00" />
  <line x1="2404" y1="50.0" x2="2424" y2="50.0" style="stroke:#999; stroke-width:3;" />
  <line x1="2424" y1="50.0" x2="2424" y2="50.0" style="stroke:#999; stroke-width:3;" />
  <line x1="2424" y1="50.0" x2="2424" y2="50.0" style="stroke:#999; stroke-width:3;" />
  <line x1="2424" y1="50.0" x2="2444" y2="50.0" style="stroke:#999; stroke-width:3;" />
  <rect class="anc_exon" x="2444" y="35.0" width="88" height="30" style="fill:#87bcbc;fill-opacity:1.00" />
  <line x1="2532" y1="50.0" x2="2552" y2="50.0" style="stroke:#999; stroke-width:3;" />
  <line x1="2552" y1="50.0" x2="2552" y2="50.0" style="stroke:#999; stroke-width:3;" />
  <line x1="2552" y1="50.0" x2="2552" y2="50.0" style="stroke:#999; stroke-width:3;" />
  <line x1="2552" y1="50.0" x2="2572" y2="50.0" style="stroke:#999; stroke-width:3;" />
  <rect class="anc_exon" x="2572" y="35.0" width="106" height="30" style="fill:#87bcbc;fill-opacity:1.00" />
  <line x1="2678" y1="50.0" x2="2698" y2="50.0" style="stroke:#999; stroke-width:3;" />
  <line x1="2698" y1="50.0" x2="2698" y2="50.0" style="stroke:#999; stroke-width:3;" />
  <line x1="2698" y1="50.0" x2="2698" y2="50.0" style="stroke:#999; stroke-width:3;" />
  <line x1="2698" y1="50.0" x2="2718" y2="50.0" style="stroke:#999; stroke-width:3;" />
  <rect class="anc_exon" x="2718" y="35.0" width="43" height="30" style="fill:#87bcbc;fill-opacity:1.00" />
  <line x1="2761" y1="50.0" x2="2781" y2="50.0" style="stroke:#999; stroke-width:3;" />
  <line x1="2781" y1="50.0" x2="2781" y2="50.0" style="stroke:#999; stroke-width:3;" />
  <line x1="2781" y1="50.0" x2="2781" y2="50.0" style="stroke:#999; stroke-width:3;" />
  <line x1="2781" y1="50.0" x2="2801" y2="50.0" style="stroke:#999; stroke-width:3;" />
  <rect class="anc_exon" x="2801" y="35.0" width="176" height="30" style="fill:#87bcbc;fill-opacity:1.00" />
  <line x1="2977" y1="50.0" x2="2997" y2="50.0" style="stroke:#999; stroke-width:3;" />
  <line x1="2997" y1="50.0" x2="2997" y2="50.0" style="stroke:#999; stroke-width:3;" />
  <line x1="2997" y1="50.0" x2="2997" y2="50.0" style="stroke:#999; stroke-width:3;" />
  <line x1="2997" y1="50.0" x2="3017" y2="50.0" style="stroke:#999; stroke-width:3;" />
  <rect class="anc_exon" x="3017" y="35.0" width="144" height="30" style="fill:#87bcbc;fill-opacity:1.00" />
  <line x1="3161" y1="50.0" x2="3181" y2="50.0" style="stroke:#999; stroke-width:3;" />
  <line x1="3181" y1="50.0" x2="3181" y2="50.0" style="stroke:#999; stroke-width:3;" />
  <line x1="3181" y1="50.0" x2="3181" y2="50.0" style="stroke:#999; stroke-width:3;" />
  <line x1="3181" y1="50.0" x2="3201" y2="50.0" style="stroke:#999; stroke-width:3;" />
  <rect class="anc_exon" x="3201" y="35.0" width="61" height="30" style="fill:#87bcbc;fill-opacity:1.00" />
  <line x1="3262" y1="50.0" x2="3302" y2="50.0" style="stroke:#999; stroke-width:3;" />
  <rect class="anc_exon" x="3302" y="35.0" width="72" height="30" style="fill:#87bcbc;fill-opacity:1.00" />
  <line x1="3374" y1="50.0" x2="3414" y2="50.0" style="stroke:#999; stroke-width:3;" />
  <rect class="anc_exon" x="3414" y="35.0" width="46" height="30" style="fill:#87bcbc;fill-opacity:1.00" />
  <line x1="3460" y1="50.0" x2="3500" y2="50.0" style="stroke:#999; stroke-width:3;" />
  <rect class="anc_exon" x="3500" y="35.0" width="69" height="30" style="fill:#87bcbc;fill-opacity:1.00" />
  <line x1="3569" y1="50.0" x2="3589" y2="50.0" style="stroke:#999; stroke-width:3;" />
  <line x1="3589" y1="50.0" x2="3589" y2="50.0" style="stroke:#999; stroke-width:3;" />
  <line x1="3589" y1="50.0" x2="3589" y2="50.0" style="stroke:#999; stroke-width:3;" />
  <line x1="3589" y1="50.0" x2="3609" y2="50.0" style="stroke:#999; stroke-width:3;" />
  <rect class="anc_exon" x="3609" y="35.0" width="184" height="30" style="fill:#87bcbc;fill-opacity:1.00" />
  <rect class="anc_exon" x="3793" y="35.0" width="0" height="30" style="fill:#87bcbc;fill-opacity:1.00" />
  <text style="" >
<tspan x="0" y="83.0" style="font-size:18px;" >SP XM_031951120_1.1</tspan>  </text>



<script type="text/ecmascript">
<![CDATA[
function draw_bbox(text_id)
{
    var text_elem = document.getElementById(text_id);
    var offset_px = 2;
    var offset_py = 0;
    bbox = text_elem.getBBox();
    var box = document.createElementNS(document.rootElement.namespaceURI,'rect');
    box.setAttribute('x', bbox.x - offset_px);
    box.setAttribute('y', bbox.y - offset_py);
    box.setAttribute('width', bbox.width + offset_px * 2);
    box.setAttribute('height', bbox.height + offset_py * 2);
    box.setAttribute('style','fill: white;'+'stroke: black;'+'stroke-width: 1px;');
    text_elem.insertBefore(box,text_elem.childNodes[0]);

    var svg = text_elem.parentNode;
    svg.appendChild(text_elem);
}

for (var i=1; i < 1; i++)
{
draw_bbox("Mouseover" + i);
}
]]> 
</script>
</svg>
