<svg version="1.1"
xmlns="http://www.w3.org/2000/svg"
xmlns:xlink="http://www.w3.org/1999/xlink"
width="3587" height="100" viewBox = "0 0 3587 100"
onclick="mouseclick(evt)">

<script type="text/ecmascript">

<![CDATA[
    function mouseover(evt, target) { 
    var gv = document.getElementById("globalVariable");
    var previoustarget = gv.firstChild.nodeValue;
    if (previoustarget != "none") 
    {
        	document.getElementById(gv.firstChild.nodeValue).setAttributeNS(null, "visibility", "hidden");
    }
    document.getElementById(target).setAttributeNS(null, "visibility", "visible");
    gv.firstChild.nodeValue = target;
        }

    function mouseclick(evt) { 
    var gv = document.getElementById("globalVariable");
    var previoustarget = gv.firstChild.nodeValue;
    if (previoustarget != "none") {
        	document.getElementById(gv.firstChild.nodeValue).setAttributeNS(null, "visibility", "hidden");
        }
    }
]]>
  </script>
<style type="text/css" >

<![CDATA[
    rect.anc_exon {
              stroke-width:3;
                  }

    rect.non_anc_exon {
              stroke: black; stroke-width:3; stroke-dasharray: 5,5;
                    }

    text {
              font-size: 18px;
              font-family: Courier New;
          }
                    ]]>
</style>

<defs>
    <text x="150" y="40" id="globalVariable">none</text>
</defs>

  <rect class="anc_exon" x="0" y="35.0" width="0" height="30" style="fill:#87bcbc;fill-opacity:1.00" />
  <rect class="anc_exon" x="0" y="35.0" width="135.20000000000002" height="30" style="fill:#87bcbc;fill-opacity:1.00" />
  <line x1="135.20000000000002" y1="50.0" x2="154.20000000000002" y2="50.0" style="stroke:#999; stroke-width:3;" />
  <line x1="154.20000000000002" y1="50.0" x2="154.20000000000002" y2="50.0" style="stroke:#999; stroke-width:3;" />
  <line x1="154.20000000000002" y1="50.0" x2="154.20000000000002" y2="50.0" style="stroke:#999; stroke-width:3;" />
  <line x1="154.20000000000002" y1="50.0" x2="175.0" y2="50.0" style="stroke:#999; stroke-width:3;" />
  <rect class="anc_exon" x="175" y="35.0" width="111" height="30" style="fill:#87bcbc;fill-opacity:1.00" />
  <line x1="286" y1="50.0" x2="306" y2="50.0" style="stroke:#999; stroke-width:3;" />
  <line x1="306" y1="50.0" x2="306" y2="50.0" style="stroke:#999; stroke-width:3;" />
  <line x1="306" y1="50.0" x2="306" y2="50.0" style="stroke:#999; stroke-width:3;" />
  <line x1="306" y1="50.0" x2="326" y2="50.0" style="stroke:#999; stroke-width:3;" />
  <rect class="anc_exon" x="326" y="35.0" width="138" height="30" style="fill:#87bcbc;fill-opacity:1.00" />
  <line x1="464" y1="50.0" x2="504" y2="50.0" style="stroke:#999; stroke-width:3;" />
  <rect class="anc_exon" x="504" y="35.0" width="292" height="30" style="fill:#87bcbc;fill-opacity:1.00" />
  <line x1="796" y1="50.0" x2="836" y2="50.0" style="stroke:#999; stroke-width:3;" />
  <rect class="anc_exon" x="836" y="35.0" width="109" height="30" style="fill:#87bcbc;fill-opacity:1.00" />
  <line x1="945" y1="50.0" x2="985" y2="50.0" style="stroke:#999; stroke-width:3;" />
  <rect class="anc_exon" x="985" y="35.0" width="55" height="30" style="fill:#87bcbc;fill-opacity:1.00" />
  <line x1="1040" y1="50.0" x2="1080" y2="50.0" style="stroke:#999; stroke-width:3;" />
  <rect class="anc_exon" x="1080" y="35.0" width="89" height="30" style="fill:#87bcbc;fill-opacity:1.00" />
  <line x1="1169" y1="50.0" x2="1209" y2="50.0" style="stroke:#999; stroke-width:3;" />
  <rect class="anc_exon" x="1209" y="35.0" width="102" height="30" style="fill:#87bcbc;fill-opacity:1.00" />
  <line x1="1311" y1="50.0" x2="1351" y2="50.0" style="stroke:#999; stroke-width:3;" />
  <rect class="anc_exon" x="1351" y="35.0" width="111" height="30" style="fill:#87bcbc;fill-opacity:1.00" />
  <line x1="1462" y1="50.0" x2="1502" y2="50.0" style="stroke:#999; stroke-width:3;" />
  <rect class="anc_exon" x="1502" y="35.0" width="92" height="30" style="fill:#87bcbc;fill-opacity:1.00" />
  <line x1="1594" y1="50.0" x2="1634" y2="50.0" style="stroke:#999; stroke-width:3;" />
  <rect class="anc_exon" x="1634" y="35.0" width="100" height="30" style="fill:#87bcbc;fill-opacity:1.00" />
  <line x1="1734" y1="50.0" x2="1774" y2="50.0" style="stroke:#999; stroke-width:3;" />
  <rect class="anc_exon" x="1774" y="35.0" width="153" height="30" style="fill:#87bcbc;fill-opacity:1.00" />
  <line x1="1927" y1="50.0" x2="1967" y2="50.0" style="stroke:#999; stroke-width:3;" />
  <rect class="anc_exon" x="1967" y="35.0" width="75" height="30" style="fill:#87bcbc;fill-opacity:1.00" />
  <line x1="2042" y1="50.0" x2="2082" y2="50.0" style="stroke:#999; stroke-width:3;" />
  <rect class="anc_exon" x="2082" y="35.0" width="93" height="30" style="fill:#87bcbc;fill-opacity:1.00" />
  <line x1="2175" y1="50.0" x2="2215" y2="50.0" style="stroke:#999; stroke-width:3;" />
  <rect class="anc_exon" x="2215" y="35.0" width="136" height="30" style="fill:#87bcbc;fill-opacity:1.00" />
  <line x1="2351" y1="50.0" x2="2391" y2="50.0" style="stroke:#999; stroke-width:3;" />
  <rect class="anc_exon" x="2391" y="35.0" width="77" height="30" style="fill:#87bcbc;fill-opacity:1.00" />
  <line x1="2468" y1="50.0" x2="2508" y2="50.0" style="stroke:#999; stroke-width:3;" />
  <rect class="anc_exon" x="2508" y="35.0" width="116" height="30" style="fill:#87bcbc;fill-opacity:1.00" />
  <line x1="2624" y1="50.0" x2="2664" y2="50.0" style="stroke:#999; stroke-width:3;" />
  <rect class="anc_exon" x="2664" y="35.0" width="111" height="30" style="fill:#87bcbc;fill-opacity:1.00" />
  <line x1="2775" y1="50.0" x2="2815" y2="50.0" style="stroke:#999; stroke-width:3;" />
  <rect class="anc_exon" x="2815" y="35.0" width="95" height="30" style="fill:#87bcbc;fill-opacity:1.00" />
  <line x1="2910" y1="50.0" x2="2950" y2="50.0" style="stroke:#999; stroke-width:3;" />
  <rect class="anc_exon" x="2950" y="35.0" width="144" height="30" style="fill:#87bcbc;fill-opacity:1.00" />
  <line x1="3094" y1="50.0" x2="3134" y2="50.0" style="stroke:#999; stroke-width:3;" />
  <rect class="anc_exon" x="3134" y="35.0" width="153" height="30" style="fill:#87bcbc;fill-opacity:1.00" />
  <line x1="3287" y1="50.0" x2="3327" y2="50.0" style="stroke:#999; stroke-width:3;" />
  <rect class="anc_exon" x="3327" y="35.0" width="72" height="30" style="fill:#87bcbc;fill-opacity:1.00" />
  <line x1="3399" y1="50.0" x2="3439" y2="50.0" style="stroke:#999; stroke-width:3;" />
  <rect class="anc_exon" x="3439" y="35.0" width="112" height="30" style="fill:#87bcbc;fill-opacity:1.00" />
  <rect class="anc_exon" x="3551" y="35.0" width="0" height="30" style="fill:#87bcbc;fill-opacity:1.00" />
  <text style="" >
<tspan x="0" y="83.0" style="font-size:18px;" >SP XM_031956490_1.1</tspan>  </text>



<script type="text/ecmascript">
<![CDATA[
function draw_bbox(text_id)
{
    var text_elem = document.getElementById(text_id);
    var offset_px = 2;
    var offset_py = 0;
    bbox = text_elem.getBBox();
    var box = document.createElementNS(document.rootElement.namespaceURI,'rect');
    box.setAttribute('x', bbox.x - offset_px);
    box.setAttribute('y', bbox.y - offset_py);
    box.setAttribute('width', bbox.width + offset_px * 2);
    box.setAttribute('height', bbox.height + offset_py * 2);
    box.setAttribute('style','fill: white;'+'stroke: black;'+'stroke-width: 1px;');
    text_elem.insertBefore(box,text_elem.childNodes[0]);

    var svg = text_elem.parentNode;
    svg.appendChild(text_elem);
}

for (var i=1; i < 1; i++)
{
draw_bbox("Mouseover" + i);
}
]]> 
</script>
</svg>
