<svg version="1.1"
xmlns="http://www.w3.org/2000/svg"
xmlns:xlink="http://www.w3.org/1999/xlink"
width="4684" height="100" viewBox = "0 0 4684 100"
onclick="mouseclick(evt)">

<script type="text/ecmascript">

<![CDATA[
    function mouseover(evt, target) { 
    var gv = document.getElementById("globalVariable");
    var previoustarget = gv.firstChild.nodeValue;
    if (previoustarget != "none") 
    {
        	document.getElementById(gv.firstChild.nodeValue).setAttributeNS(null, "visibility", "hidden");
    }
    document.getElementById(target).setAttributeNS(null, "visibility", "visible");
    gv.firstChild.nodeValue = target;
        }

    function mouseclick(evt) { 
    var gv = document.getElementById("globalVariable");
    var previoustarget = gv.firstChild.nodeValue;
    if (previoustarget != "none") {
        	document.getElementById(gv.firstChild.nodeValue).setAttributeNS(null, "visibility", "hidden");
        }
    }
]]>
  </script>
<style type="text/css" >

<![CDATA[
    rect.anc_exon {
              stroke-width:3;
                  }

    rect.non_anc_exon {
              stroke: black; stroke-width:3; stroke-dasharray: 5,5;
                    }

    text {
              font-size: 18px;
              font-family: Courier New;
          }
                    ]]>
</style>

<defs>
    <text x="150" y="40" id="globalVariable">none</text>
</defs>

  <rect class="anc_exon" x="0" y="35.0" width="0" height="30" style="fill:#87bcbc;fill-opacity:1.00" />
  <rect class="anc_exon" x="0" y="35.0" width="13.600000000000001" height="30" style="fill:#878787;fill-opacity:1.00" />
  <line x1="13.600000000000001" y1="50.0" x2="32.6" y2="50.0" style="stroke:#999; stroke-width:3;" />
  <line x1="32.6" y1="50.0" x2="32.6" y2="50.0" style="stroke:#999; stroke-width:3;" />
  <line x1="32.6" y1="50.0" x2="32.6" y2="50.0" style="stroke:#999; stroke-width:3;" />
  <line x1="32.6" y1="50.0" x2="53.0" y2="50.0" style="stroke:#999; stroke-width:3;" />
  <rect class="anc_exon" x="53" y="35.0" width="96" height="30" style="fill:#87bcbc;fill-opacity:1.00" />
  <line x1="149" y1="50.0" x2="189" y2="50.0" style="stroke:#999; stroke-width:3;" />
  <rect class="anc_exon" x="189" y="35.0" width="112" height="30" style="fill:#87bcbc;fill-opacity:1.00" />
  <line x1="301" y1="50.0" x2="341" y2="50.0" style="stroke:#999; stroke-width:3;" />
  <rect class="anc_exon" x="341" y="35.0" width="55" height="30" style="fill:#87bcbc;fill-opacity:1.00" />
  <line x1="396" y1="50.0" x2="436" y2="50.0" style="stroke:#999; stroke-width:3;" />
  <rect class="anc_exon" x="436" y="35.0" width="80" height="30" style="fill:#87bcbc;fill-opacity:1.00" />
  <line x1="516" y1="50.0" x2="536" y2="50.0" style="stroke:#999; stroke-width:3;" />
  <line x1="536" y1="50.0" x2="536" y2="50.0" style="stroke:#999; stroke-width:3;" />
  <line x1="536" y1="50.0" x2="536" y2="50.0" style="stroke:#999; stroke-width:3;" />
  <line x1="536" y1="50.0" x2="556" y2="50.0" style="stroke:#999; stroke-width:3;" />
  <rect class="anc_exon" x="556" y="35.0" width="61" height="30" style="fill:#87bcbc;fill-opacity:1.00" />
  <line x1="617" y1="50.0" x2="657" y2="50.0" style="stroke:#999; stroke-width:3;" />
  <rect class="anc_exon" x="657" y="35.0" width="52" height="30" style="fill:#87bcbc;fill-opacity:1.00" />
  <line x1="709" y1="50.0" x2="749" y2="50.0" style="stroke:#999; stroke-width:3;" />
  <rect class="anc_exon" x="749" y="35.0" width="93" height="30" style="fill:#87bcbc;fill-opacity:1.00" />
  <line x1="842" y1="50.0" x2="862" y2="50.0" style="stroke:#999; stroke-width:3;" />
  <line x1="862" y1="50.0" x2="862" y2="50.0" style="stroke:#999; stroke-width:3;" />
  <line x1="862" y1="50.0" x2="862" y2="50.0" style="stroke:#999; stroke-width:3;" />
  <line x1="862" y1="50.0" x2="882" y2="50.0" style="stroke:#999; stroke-width:3;" />
  <rect class="anc_exon" x="882" y="35.0" width="91" height="30" style="fill:#87bcbc;fill-opacity:1.00" />
  <line x1="973" y1="50.0" x2="1013" y2="50.0" style="stroke:#999; stroke-width:3;" />
  <rect class="anc_exon" x="1013" y="35.0" width="83" height="30" style="fill:#87bcbc;fill-opacity:1.00" />
  <line x1="1096" y1="50.0" x2="1116" y2="50.0" style="stroke:#999; stroke-width:3;" />
  <line x1="1116" y1="50.0" x2="1116" y2="50.0" style="stroke:#999; stroke-width:3;" />
  <line x1="1116" y1="50.0" x2="1116" y2="50.0" style="stroke:#999; stroke-width:3;" />
  <line x1="1116" y1="50.0" x2="1136" y2="50.0" style="stroke:#999; stroke-width:3;" />
  <rect class="anc_exon" x="1136" y="35.0" width="82" height="30" style="fill:#87bcbc;fill-opacity:1.00" />
  <line x1="1218" y1="50.0" x2="1238" y2="50.0" style="stroke:#999; stroke-width:3;" />
  <line x1="1238" y1="50.0" x2="1238" y2="50.0" style="stroke:#999; stroke-width:3;" />
  <line x1="1238" y1="50.0" x2="1238" y2="50.0" style="stroke:#999; stroke-width:3;" />
  <line x1="1238" y1="50.0" x2="1258" y2="50.0" style="stroke:#999; stroke-width:3;" />
  <rect class="anc_exon" x="1258" y="35.0" width="96" height="30" style="fill:#87bcbc;fill-opacity:1.00" />
  <line x1="1354" y1="50.0" x2="1374" y2="50.0" style="stroke:#999; stroke-width:3;" />
  <line x1="1374" y1="50.0" x2="1374" y2="50.0" style="stroke:#999; stroke-width:3;" />
  <line x1="1374" y1="50.0" x2="1374" y2="50.0" style="stroke:#999; stroke-width:3;" />
  <line x1="1374" y1="50.0" x2="1394" y2="50.0" style="stroke:#999; stroke-width:3;" />
  <rect class="anc_exon" x="1394" y="35.0" width="113" height="30" style="fill:#87bcbc;fill-opacity:1.00" />
  <line x1="1507" y1="50.0" x2="1527" y2="50.0" style="stroke:#999; stroke-width:3;" />
  <line x1="1527" y1="50.0" x2="1527" y2="50.0" style="stroke:#999; stroke-width:3;" />
  <line x1="1527" y1="50.0" x2="1527" y2="50.0" style="stroke:#999; stroke-width:3;" />
  <line x1="1527" y1="50.0" x2="1547" y2="50.0" style="stroke:#999; stroke-width:3;" />
  <rect class="anc_exon" x="1547" y="35.0" width="143" height="30" style="fill:#87bcbc;fill-opacity:1.00" />
  <line x1="1690" y1="50.0" x2="1710" y2="50.0" style="stroke:#999; stroke-width:3;" />
  <line x1="1710" y1="50.0" x2="1710" y2="50.0" style="stroke:#999; stroke-width:3;" />
  <line x1="1710" y1="50.0" x2="1710" y2="50.0" style="stroke:#999; stroke-width:3;" />
  <line x1="1710" y1="50.0" x2="1730" y2="50.0" style="stroke:#999; stroke-width:3;" />
  <rect class="anc_exon" x="1730" y="35.0" width="134" height="30" style="fill:#87bcbc;fill-opacity:1.00" />
  <line x1="1864" y1="50.0" x2="1884" y2="50.0" style="stroke:#999; stroke-width:3;" />
  <line x1="1884" y1="50.0" x2="1884" y2="50.0" style="stroke:#999; stroke-width:3;" />
  <line x1="1884" y1="50.0" x2="1884" y2="50.0" style="stroke:#999; stroke-width:3;" />
  <line x1="1884" y1="50.0" x2="1904" y2="50.0" style="stroke:#999; stroke-width:3;" />
  <rect class="anc_exon" x="1904" y="35.0" width="136" height="30" style="fill:#87bcbc;fill-opacity:1.00" />
  <line x1="2040" y1="50.0" x2="2060" y2="50.0" style="stroke:#999; stroke-width:3;" />
  <line x1="2060" y1="50.0" x2="2060" y2="50.0" style="stroke:#999; stroke-width:3;" />
  <line x1="2060" y1="50.0" x2="2060" y2="50.0" style="stroke:#999; stroke-width:3;" />
  <line x1="2060" y1="50.0" x2="2080" y2="50.0" style="stroke:#999; stroke-width:3;" />
  <rect class="anc_exon" x="2080" y="35.0" width="193" height="30" style="fill:#87bcbc;fill-opacity:1.00" />
  <line x1="2273" y1="50.0" x2="2313" y2="50.0" style="stroke:#999; stroke-width:3;" />
  <rect class="anc_exon" x="2313" y="35.0" width="117" height="30" style="fill:#87bcbc;fill-opacity:1.00" />
  <line x1="2430" y1="50.0" x2="2470" y2="50.0" style="stroke:#999; stroke-width:3;" />
  <rect class="anc_exon" x="2470" y="35.0" width="56" height="30" style="fill:#87bcbc;fill-opacity:1.00" />
  <line x1="2526" y1="50.0" x2="2546" y2="50.0" style="stroke:#999; stroke-width:3;" />
  <line x1="2546" y1="50.0" x2="2546" y2="50.0" style="stroke:#999; stroke-width:3;" />
  <line x1="2546" y1="50.0" x2="2546" y2="50.0" style="stroke:#999; stroke-width:3;" />
  <line x1="2546" y1="50.0" x2="2566" y2="50.0" style="stroke:#999; stroke-width:3;" />
  <rect class="anc_exon" x="2566" y="35.0" width="88" height="30" style="fill:#87bcbc;fill-opacity:1.00" />
  <line x1="2654" y1="50.0" x2="2694" y2="50.0" style="stroke:#999; stroke-width:3;" />
  <rect class="anc_exon" x="2694" y="35.0" width="88" height="30" style="fill:#87bcbc;fill-opacity:1.00" />
  <line x1="2782" y1="50.0" x2="2802" y2="50.0" style="stroke:#999; stroke-width:3;" />
  <line x1="2802" y1="50.0" x2="2802" y2="50.0" style="stroke:#999; stroke-width:3;" />
  <line x1="2802" y1="50.0" x2="2802" y2="50.0" style="stroke:#999; stroke-width:3;" />
  <line x1="2802" y1="50.0" x2="2822" y2="50.0" style="stroke:#999; stroke-width:3;" />
  <rect class="anc_exon" x="2822" y="35.0" width="108" height="30" style="fill:#87bcbc;fill-opacity:1.00" />
  <line x1="2930" y1="50.0" x2="2950" y2="50.0" style="stroke:#999; stroke-width:3;" />
  <line x1="2950" y1="50.0" x2="2950" y2="50.0" style="stroke:#999; stroke-width:3;" />
  <line x1="2950" y1="50.0" x2="2950" y2="50.0" style="stroke:#999; stroke-width:3;" />
  <line x1="2950" y1="50.0" x2="2970" y2="50.0" style="stroke:#999; stroke-width:3;" />
  <rect class="anc_exon" x="2970" y="35.0" width="168" height="30" style="fill:#87bcbc;fill-opacity:1.00" />
  <line x1="3138" y1="50.0" x2="3178" y2="50.0" style="stroke:#999; stroke-width:3;" />
  <rect class="anc_exon" x="3178" y="35.0" width="110" height="30" style="fill:#87bcbc;fill-opacity:1.00" />
  <line x1="3288" y1="50.0" x2="3308" y2="50.0" style="stroke:#999; stroke-width:3;" />
  <line x1="3308" y1="50.0" x2="3308" y2="50.0" style="stroke:#999; stroke-width:3;" />
  <line x1="3308" y1="50.0" x2="3308" y2="50.0" style="stroke:#999; stroke-width:3;" />
  <line x1="3308" y1="50.0" x2="3328" y2="50.0" style="stroke:#999; stroke-width:3;" />
  <rect class="anc_exon" x="3328" y="35.0" width="57" height="30" style="fill:#87bcbc;fill-opacity:1.00" />
  <line x1="3385" y1="50.0" x2="3425" y2="50.0" style="stroke:#999; stroke-width:3;" />
  <rect class="anc_exon" x="3425" y="35.0" width="150" height="30" style="fill:#87bcbc;fill-opacity:1.00" />
  <line x1="3575" y1="50.0" x2="3615" y2="50.0" style="stroke:#999; stroke-width:3;" />
  <rect class="anc_exon" x="3615" y="35.0" width="137" height="30" style="fill:#87bcbc;fill-opacity:1.00" />
  <line x1="3752" y1="50.0" x2="3772" y2="50.0" style="stroke:#999; stroke-width:3;" />
  <line x1="3772" y1="50.0" x2="3772" y2="50.0" style="stroke:#999; stroke-width:3;" />
  <line x1="3772" y1="50.0" x2="3772" y2="50.0" style="stroke:#999; stroke-width:3;" />
  <line x1="3772" y1="50.0" x2="3792" y2="50.0" style="stroke:#999; stroke-width:3;" />
  <rect class="anc_exon" x="3792" y="35.0" width="136" height="30" style="fill:#87bcbc;fill-opacity:1.00" />
  <line x1="3928" y1="50.0" x2="3948" y2="50.0" style="stroke:#999; stroke-width:3;" />
  <line x1="3948" y1="50.0" x2="3948" y2="50.0" style="stroke:#999; stroke-width:3;" />
  <line x1="3948" y1="50.0" x2="3948" y2="50.0" style="stroke:#999; stroke-width:3;" />
  <line x1="3948" y1="50.0" x2="3968" y2="50.0" style="stroke:#999; stroke-width:3;" />
  <rect class="anc_exon" x="3968" y="35.0" width="68" height="30" style="fill:#87bcbc;fill-opacity:1.00" />
  <line x1="4036" y1="50.0" x2="4056" y2="50.0" style="stroke:#999; stroke-width:3;" />
  <line x1="4056" y1="50.0" x2="4056" y2="50.0" style="stroke:#999; stroke-width:3;" />
  <line x1="4056" y1="50.0" x2="4056" y2="50.0" style="stroke:#999; stroke-width:3;" />
  <line x1="4056" y1="50.0" x2="4076" y2="50.0" style="stroke:#999; stroke-width:3;" />
  <rect class="anc_exon" x="4076" y="35.0" width="140" height="30" style="fill:#87bcbc;fill-opacity:1.00" />
  <line x1="4216" y1="50.0" x2="4256" y2="50.0" style="stroke:#999; stroke-width:3;" />
  <rect class="anc_exon" x="4256" y="35.0" width="91" height="30" style="fill:#87bcbc;fill-opacity:1.00" />
  <line x1="4347" y1="50.0" x2="4367" y2="50.0" style="stroke:#999; stroke-width:3;" />
  <line x1="4367" y1="50.0" x2="4367" y2="50.0" style="stroke:#999; stroke-width:3;" />
  <line x1="4367" y1="50.0" x2="4367" y2="50.0" style="stroke:#999; stroke-width:3;" />
  <line x1="4367" y1="50.0" x2="4387" y2="50.0" style="stroke:#999; stroke-width:3;" />
  <rect class="anc_exon" x="4387" y="35.0" width="261" height="30" style="fill:#87bcbc;fill-opacity:1.00" />
  <rect class="anc_exon" x="4648" y="35.0" width="0" height="30" style="fill:#87bcbc;fill-opacity:1.00" />
  <text style="" >
<tspan x="0" y="83.0" style="font-size:18px;" >SP XM_031952036_1.1</tspan>  </text>



<script type="text/ecmascript">
<![CDATA[
function draw_bbox(text_id)
{
    var text_elem = document.getElementById(text_id);
    var offset_px = 2;
    var offset_py = 0;
    bbox = text_elem.getBBox();
    var box = document.createElementNS(document.rootElement.namespaceURI,'rect');
    box.setAttribute('x', bbox.x - offset_px);
    box.setAttribute('y', bbox.y - offset_py);
    box.setAttribute('width', bbox.width + offset_px * 2);
    box.setAttribute('height', bbox.height + offset_py * 2);
    box.setAttribute('style','fill: white;'+'stroke: black;'+'stroke-width: 1px;');
    text_elem.insertBefore(box,text_elem.childNodes[0]);

    var svg = text_elem.parentNode;
    svg.appendChild(text_elem);
}

for (var i=1; i < 1; i++)
{
draw_bbox("Mouseover" + i);
}
]]> 
</script>
</svg>
