<svg version="1.1"
xmlns="http://www.w3.org/2000/svg"
xmlns:xlink="http://www.w3.org/1999/xlink"
width="4131" height="100" viewBox = "0 0 4131 100"
onclick="mouseclick(evt)">

<script type="text/ecmascript">

<![CDATA[
    function mouseover(evt, target) { 
    var gv = document.getElementById("globalVariable");
    var previoustarget = gv.firstChild.nodeValue;
    if (previoustarget != "none") 
    {
        	document.getElementById(gv.firstChild.nodeValue).setAttributeNS(null, "visibility", "hidden");
    }
    document.getElementById(target).setAttributeNS(null, "visibility", "visible");
    gv.firstChild.nodeValue = target;
        }

    function mouseclick(evt) { 
    var gv = document.getElementById("globalVariable");
    var previoustarget = gv.firstChild.nodeValue;
    if (previoustarget != "none") {
        	document.getElementById(gv.firstChild.nodeValue).setAttributeNS(null, "visibility", "hidden");
        }
    }
]]>
  </script>
<style type="text/css" >

<![CDATA[
    rect.anc_exon {
              stroke-width:3;
                  }

    rect.non_anc_exon {
              stroke: black; stroke-width:3; stroke-dasharray: 5,5;
                    }

    text {
              font-size: 18px;
              font-family: Courier New;
          }
                    ]]>
</style>

<defs>
    <text x="150" y="40" id="globalVariable">none</text>
</defs>

  <rect class="anc_exon" x="0" y="35.0" width="0" height="30" style="fill:#87bcbc;fill-opacity:1.00" />
  <rect class="anc_exon" x="0" y="35.0" width="1214.4" height="30" style="fill:#87bcbc;fill-opacity:1.00" />
  <line x1="1214.4" y1="50.0" x2="1233.4" y2="50.0" style="stroke:#999; stroke-width:3;" />
  <line x1="1233.4" y1="50.0" x2="1233.4" y2="50.0" style="stroke:#999; stroke-width:3;" />
  <line x1="1233.4" y1="50.0" x2="1233.4" y2="50.0" style="stroke:#999; stroke-width:3;" />
  <line x1="1233.4" y1="50.0" x2="1254.0" y2="50.0" style="stroke:#999; stroke-width:3;" />
  <rect class="anc_exon" x="1254" y="35.0" width="40" height="30" style="fill:#87bcbc;fill-opacity:1.00" />
  <line x1="1294" y1="50.0" x2="1314" y2="50.0" style="stroke:#999; stroke-width:3;" />
  <line x1="1314" y1="50.0" x2="1314" y2="50.0" style="stroke:#999; stroke-width:3;" />
  <line x1="1314" y1="50.0" x2="1314" y2="50.0" style="stroke:#999; stroke-width:3;" />
  <line x1="1314" y1="50.0" x2="1334" y2="50.0" style="stroke:#999; stroke-width:3;" />
  <rect class="anc_exon" x="1334" y="35.0" width="49" height="30" style="fill:#87bcbc;fill-opacity:1.00" />
  <line x1="1383" y1="50.0" x2="1423" y2="50.0" style="stroke:#999; stroke-width:3;" />
  <rect class="anc_exon" x="1423" y="35.0" width="82" height="30" style="fill:#87bcbc;fill-opacity:1.00" />
  <line x1="1505" y1="50.0" x2="1525" y2="50.0" style="stroke:#999; stroke-width:3;" />
  <line x1="1525" y1="50.0" x2="1525" y2="50.0" style="stroke:#999; stroke-width:3;" />
  <line x1="1525" y1="50.0" x2="1525" y2="50.0" style="stroke:#999; stroke-width:3;" />
  <line x1="1525" y1="50.0" x2="1545" y2="50.0" style="stroke:#999; stroke-width:3;" />
  <rect class="anc_exon" x="1545" y="35.0" width="133" height="30" style="fill:#87bcbc;fill-opacity:1.00" />
  <line x1="1678" y1="50.0" x2="1698" y2="50.0" style="stroke:#999; stroke-width:3;" />
  <line x1="1698" y1="50.0" x2="1698" y2="50.0" style="stroke:#999; stroke-width:3;" />
  <line x1="1698" y1="50.0" x2="1698" y2="50.0" style="stroke:#999; stroke-width:3;" />
  <line x1="1698" y1="50.0" x2="1718" y2="50.0" style="stroke:#999; stroke-width:3;" />
  <rect class="anc_exon" x="1718" y="35.0" width="94" height="30" style="fill:#87bcbc;fill-opacity:1.00" />
  <line x1="1812" y1="50.0" x2="1852" y2="50.0" style="stroke:#999; stroke-width:3;" />
  <rect class="anc_exon" x="1852" y="35.0" width="134" height="30" style="fill:#87bcbc;fill-opacity:1.00" />
  <line x1="1986" y1="50.0" x2="2006" y2="50.0" style="stroke:#999; stroke-width:3;" />
  <line x1="2006" y1="50.0" x2="2006" y2="50.0" style="stroke:#999; stroke-width:3;" />
  <line x1="2006" y1="50.0" x2="2006" y2="50.0" style="stroke:#999; stroke-width:3;" />
  <line x1="2006" y1="50.0" x2="2026" y2="50.0" style="stroke:#999; stroke-width:3;" />
  <rect class="anc_exon" x="2026" y="35.0" width="52" height="30" style="fill:#87bcbc;fill-opacity:1.00" />
  <line x1="2078" y1="50.0" x2="2118" y2="50.0" style="stroke:#999; stroke-width:3;" />
  <rect class="anc_exon" x="2118" y="35.0" width="96" height="30" style="fill:#87bcbc;fill-opacity:1.00" />
  <line x1="2214" y1="50.0" x2="2234" y2="50.0" style="stroke:#999; stroke-width:3;" />
  <line x1="2234" y1="50.0" x2="2234" y2="50.0" style="stroke:#999; stroke-width:3;" />
  <line x1="2234" y1="50.0" x2="2234" y2="50.0" style="stroke:#999; stroke-width:3;" />
  <line x1="2234" y1="50.0" x2="2254" y2="50.0" style="stroke:#999; stroke-width:3;" />
  <rect class="anc_exon" x="2254" y="35.0" width="165" height="30" style="fill:#87bcbc;fill-opacity:1.00" />
  <line x1="2419" y1="50.0" x2="2439" y2="50.0" style="stroke:#999; stroke-width:3;" />
  <line x1="2439" y1="50.0" x2="2439" y2="50.0" style="stroke:#999; stroke-width:3;" />
  <line x1="2439" y1="50.0" x2="2439" y2="50.0" style="stroke:#999; stroke-width:3;" />
  <line x1="2439" y1="50.0" x2="2459" y2="50.0" style="stroke:#999; stroke-width:3;" />
  <rect class="anc_exon" x="2459" y="35.0" width="62" height="30" style="fill:#87bcbc;fill-opacity:1.00" />
  <line x1="2521" y1="50.0" x2="2561" y2="50.0" style="stroke:#999; stroke-width:3;" />
  <rect class="anc_exon" x="2561" y="35.0" width="44" height="30" style="fill:#87bcbc;fill-opacity:1.00" />
  <line x1="2605" y1="50.0" x2="2645" y2="50.0" style="stroke:#999; stroke-width:3;" />
  <rect class="anc_exon" x="2645" y="35.0" width="47" height="30" style="fill:#87bcbc;fill-opacity:1.00" />
  <line x1="2692" y1="50.0" x2="2732" y2="50.0" style="stroke:#999; stroke-width:3;" />
  <rect class="anc_exon" x="2732" y="35.0" width="52" height="30" style="fill:#87bcbc;fill-opacity:1.00" />
  <line x1="2784" y1="50.0" x2="2804" y2="50.0" style="stroke:#999; stroke-width:3;" />
  <line x1="2804" y1="50.0" x2="2804" y2="50.0" style="stroke:#999; stroke-width:3;" />
  <line x1="2804" y1="50.0" x2="2804" y2="50.0" style="stroke:#999; stroke-width:3;" />
  <line x1="2804" y1="50.0" x2="2824" y2="50.0" style="stroke:#999; stroke-width:3;" />
  <rect class="anc_exon" x="2824" y="35.0" width="184" height="30" style="fill:#87bcbc;fill-opacity:1.00" />
  <line x1="3008" y1="50.0" x2="3048" y2="50.0" style="stroke:#999; stroke-width:3;" />
  <rect class="anc_exon" x="3048" y="35.0" width="97" height="30" style="fill:#87bcbc;fill-opacity:1.00" />
  <line x1="3145" y1="50.0" x2="3185" y2="50.0" style="stroke:#999; stroke-width:3;" />
  <rect class="anc_exon" x="3185" y="35.0" width="56" height="30" style="fill:#87bcbc;fill-opacity:1.00" />
  <line x1="3241" y1="50.0" x2="3281" y2="50.0" style="stroke:#999; stroke-width:3;" />
  <rect class="anc_exon" x="3281" y="35.0" width="76" height="30" style="fill:#87bcbc;fill-opacity:1.00" />
  <line x1="3357" y1="50.0" x2="3397" y2="50.0" style="stroke:#999; stroke-width:3;" />
  <rect class="anc_exon" x="3397" y="35.0" width="59" height="30" style="fill:#87bcbc;fill-opacity:1.00" />
  <line x1="3456" y1="50.0" x2="3496" y2="50.0" style="stroke:#999; stroke-width:3;" />
  <rect class="anc_exon" x="3496" y="35.0" width="48" height="30" style="fill:#87bcbc;fill-opacity:1.00" />
  <line x1="3544" y1="50.0" x2="3584" y2="50.0" style="stroke:#999; stroke-width:3;" />
  <rect class="anc_exon" x="3584" y="35.0" width="48" height="30" style="fill:#87bcbc;fill-opacity:1.00" />
  <line x1="3632" y1="50.0" x2="3672" y2="50.0" style="stroke:#999; stroke-width:3;" />
  <rect class="anc_exon" x="3672" y="35.0" width="86" height="30" style="fill:#87bcbc;fill-opacity:1.00" />
  <line x1="3758" y1="50.0" x2="3778" y2="50.0" style="stroke:#999; stroke-width:3;" />
  <line x1="3778" y1="50.0" x2="3778" y2="50.0" style="stroke:#999; stroke-width:3;" />
  <line x1="3778" y1="50.0" x2="3778" y2="50.0" style="stroke:#999; stroke-width:3;" />
  <line x1="3778" y1="50.0" x2="3798" y2="50.0" style="stroke:#999; stroke-width:3;" />
  <rect class="anc_exon" x="3798" y="35.0" width="77" height="30" style="fill:#87bcbc;fill-opacity:1.00" />
  <line x1="3875" y1="50.0" x2="3895" y2="50.0" style="stroke:#999; stroke-width:3;" />
  <line x1="3895" y1="50.0" x2="3895" y2="50.0" style="stroke:#999; stroke-width:3;" />
  <line x1="3895" y1="50.0" x2="3895" y2="50.0" style="stroke:#999; stroke-width:3;" />
  <line x1="3895" y1="50.0" x2="3915" y2="50.0" style="stroke:#999; stroke-width:3;" />
  <rect class="anc_exon" x="3915" y="35.0" width="58" height="30" style="fill:#87bcbc;fill-opacity:1.00" />
  <line x1="3973" y1="50.0" x2="4013" y2="50.0" style="stroke:#999; stroke-width:3;" />
  <rect class="anc_exon" x="4013" y="35.0" width="82" height="30" style="fill:#87bcbc;fill-opacity:1.00" />
  <rect class="anc_exon" x="4095" y="35.0" width="0" height="30" style="fill:#87bcbc;fill-opacity:1.00" />
  <text style="" >
<tspan x="0" y="83.0" style="font-size:18px;" >SP XM_031955250_1.1</tspan>  </text>



<script type="text/ecmascript">
<![CDATA[
function draw_bbox(text_id)
{
    var text_elem = document.getElementById(text_id);
    var offset_px = 2;
    var offset_py = 0;
    bbox = text_elem.getBBox();
    var box = document.createElementNS(document.rootElement.namespaceURI,'rect');
    box.setAttribute('x', bbox.x - offset_px);
    box.setAttribute('y', bbox.y - offset_py);
    box.setAttribute('width', bbox.width + offset_px * 2);
    box.setAttribute('height', bbox.height + offset_py * 2);
    box.setAttribute('style','fill: white;'+'stroke: black;'+'stroke-width: 1px;');
    text_elem.insertBefore(box,text_elem.childNodes[0]);

    var svg = text_elem.parentNode;
    svg.appendChild(text_elem);
}

for (var i=1; i < 1; i++)
{
draw_bbox("Mouseover" + i);
}
]]> 
</script>
</svg>
