<svg version="1.1"
xmlns="http://www.w3.org/2000/svg"
xmlns:xlink="http://www.w3.org/1999/xlink"
width="2469" height="100" viewBox = "0 0 2469 100"
onclick="mouseclick(evt)">

<script type="text/ecmascript">

<![CDATA[
    function mouseover(evt, target) { 
    var gv = document.getElementById("globalVariable");
    var previoustarget = gv.firstChild.nodeValue;
    if (previoustarget != "none") 
    {
        	document.getElementById(gv.firstChild.nodeValue).setAttributeNS(null, "visibility", "hidden");
    }
    document.getElementById(target).setAttributeNS(null, "visibility", "visible");
    gv.firstChild.nodeValue = target;
        }

    function mouseclick(evt) { 
    var gv = document.getElementById("globalVariable");
    var previoustarget = gv.firstChild.nodeValue;
    if (previoustarget != "none") {
        	document.getElementById(gv.firstChild.nodeValue).setAttributeNS(null, "visibility", "hidden");
        }
    }
]]>
  </script>
<style type="text/css" >

<![CDATA[
    rect.anc_exon {
              stroke-width:3;
                  }

    rect.non_anc_exon {
              stroke: black; stroke-width:3; stroke-dasharray: 5,5;
                    }

    text {
              font-size: 18px;
              font-family: Courier New;
          }
                    ]]>
</style>

<defs>
    <text x="150" y="40" id="globalVariable">none</text>
</defs>

  <rect class="anc_exon" x="0" y="35.0" width="0" height="30" style="fill:#87bcbc;fill-opacity:1.00" />
  <rect class="anc_exon" x="0" y="35.0" width="24.8" height="30" style="fill:#878787;fill-opacity:1.00" />
  <line x1="24.8" y1="50.0" x2="43.8" y2="50.0" style="stroke:#999; stroke-width:3;" />
  <line x1="43.8" y1="50.0" x2="43.8" y2="50.0" style="stroke:#999; stroke-width:3;" />
  <line x1="43.8" y1="50.0" x2="43.8" y2="50.0" style="stroke:#999; stroke-width:3;" />
  <line x1="43.8" y1="50.0" x2="64.0" y2="50.0" style="stroke:#999; stroke-width:3;" />
  <rect class="anc_exon" x="64" y="35.0" width="89" height="30" style="fill:#87bcbc;fill-opacity:1.00" />
  <line x1="153" y1="50.0" x2="173" y2="50.0" style="stroke:#999; stroke-width:3;" />
  <line x1="173" y1="50.0" x2="173" y2="50.0" style="stroke:#999; stroke-width:3;" />
  <line x1="173" y1="50.0" x2="173" y2="50.0" style="stroke:#999; stroke-width:3;" />
  <line x1="173" y1="50.0" x2="193" y2="50.0" style="stroke:#999; stroke-width:3;" />
  <rect class="anc_exon" x="193" y="35.0" width="38" height="30" style="fill:#87bcbc;fill-opacity:1.00" />
  <line x1="231" y1="50.0" x2="251" y2="50.0" style="stroke:#999; stroke-width:3;" />
  <line x1="251" y1="50.0" x2="251" y2="50.0" style="stroke:#999; stroke-width:3;" />
  <line x1="251" y1="50.0" x2="251" y2="50.0" style="stroke:#999; stroke-width:3;" />
  <line x1="251" y1="50.0" x2="271" y2="50.0" style="stroke:#999; stroke-width:3;" />
  <rect class="anc_exon" x="271" y="35.0" width="171" height="30" style="fill:#87bcbc;fill-opacity:1.00" />
  <line x1="442" y1="50.0" x2="462" y2="50.0" style="stroke:#999; stroke-width:3;" />
  <line x1="462" y1="50.0" x2="462" y2="50.0" style="stroke:#999; stroke-width:3;" />
  <line x1="462" y1="50.0" x2="462" y2="50.0" style="stroke:#999; stroke-width:3;" />
  <line x1="462" y1="50.0" x2="482" y2="50.0" style="stroke:#999; stroke-width:3;" />
  <rect class="anc_exon" x="482" y="35.0" width="171" height="30" style="fill:#87bcbc;fill-opacity:1.00" />
  <line x1="653" y1="50.0" x2="673" y2="50.0" style="stroke:#999; stroke-width:3;" />
  <line x1="673" y1="50.0" x2="673" y2="50.0" style="stroke:#999; stroke-width:3;" />
  <line x1="673" y1="50.0" x2="673" y2="50.0" style="stroke:#999; stroke-width:3;" />
  <line x1="673" y1="50.0" x2="693" y2="50.0" style="stroke:#999; stroke-width:3;" />
  <rect class="anc_exon" x="693" y="35.0" width="82" height="30" style="fill:#87bcbc;fill-opacity:1.00" />
  <line x1="775" y1="50.0" x2="795" y2="50.0" style="stroke:#999; stroke-width:3;" />
  <line x1="795" y1="50.0" x2="795" y2="50.0" style="stroke:#999; stroke-width:3;" />
  <line x1="795" y1="50.0" x2="795" y2="50.0" style="stroke:#999; stroke-width:3;" />
  <line x1="795" y1="50.0" x2="815" y2="50.0" style="stroke:#999; stroke-width:3;" />
  <rect class="anc_exon" x="815" y="35.0" width="52" height="30" style="fill:#87bcbc;fill-opacity:1.00" />
  <line x1="867" y1="50.0" x2="907" y2="50.0" style="stroke:#999; stroke-width:3;" />
  <rect class="anc_exon" x="907" y="35.0" width="68" height="30" style="fill:#87bcbc;fill-opacity:1.00" />
  <line x1="975" y1="50.0" x2="995" y2="50.0" style="stroke:#999; stroke-width:3;" />
  <line x1="995" y1="50.0" x2="995" y2="50.0" style="stroke:#999; stroke-width:3;" />
  <line x1="995" y1="50.0" x2="995" y2="50.0" style="stroke:#999; stroke-width:3;" />
  <line x1="995" y1="50.0" x2="1015" y2="50.0" style="stroke:#999; stroke-width:3;" />
  <rect class="anc_exon" x="1015" y="35.0" width="61" height="30" style="fill:#87bcbc;fill-opacity:1.00" />
  <line x1="1076" y1="50.0" x2="1096" y2="50.0" style="stroke:#999; stroke-width:3;" />
  <line x1="1096" y1="50.0" x2="1096" y2="50.0" style="stroke:#999; stroke-width:3;" />
  <line x1="1096" y1="50.0" x2="1096" y2="50.0" style="stroke:#999; stroke-width:3;" />
  <line x1="1096" y1="50.0" x2="1116" y2="50.0" style="stroke:#999; stroke-width:3;" />
  <rect class="anc_exon" x="1116" y="35.0" width="108" height="30" style="fill:#87bcbc;fill-opacity:1.00" />
  <line x1="1224" y1="50.0" x2="1264" y2="50.0" style="stroke:#999; stroke-width:3;" />
  <rect class="anc_exon" x="1264" y="35.0" width="60" height="30" style="fill:#87bcbc;fill-opacity:1.00" />
  <line x1="1324" y1="50.0" x2="1344" y2="50.0" style="stroke:#999; stroke-width:3;" />
  <line x1="1344" y1="50.0" x2="1344" y2="50.0" style="stroke:#999; stroke-width:3;" />
  <line x1="1344" y1="50.0" x2="1344" y2="50.0" style="stroke:#999; stroke-width:3;" />
  <line x1="1344" y1="50.0" x2="1364" y2="50.0" style="stroke:#999; stroke-width:3;" />
  <rect class="anc_exon" x="1364" y="35.0" width="121" height="30" style="fill:#87bcbc;fill-opacity:1.00" />
  <line x1="1485" y1="50.0" x2="1505" y2="50.0" style="stroke:#999; stroke-width:3;" />
  <line x1="1505" y1="50.0" x2="1505" y2="50.0" style="stroke:#999; stroke-width:3;" />
  <line x1="1505" y1="50.0" x2="1505" y2="50.0" style="stroke:#999; stroke-width:3;" />
  <line x1="1505" y1="50.0" x2="1525" y2="50.0" style="stroke:#999; stroke-width:3;" />
  <rect class="anc_exon" x="1525" y="35.0" width="58" height="30" style="fill:#87bcbc;fill-opacity:1.00" />
  <line x1="1583" y1="50.0" x2="1623" y2="50.0" style="stroke:#999; stroke-width:3;" />
  <rect class="anc_exon" x="1623" y="35.0" width="99" height="30" style="fill:#87bcbc;fill-opacity:1.00" />
  <line x1="1722" y1="50.0" x2="1742" y2="50.0" style="stroke:#999; stroke-width:3;" />
  <line x1="1742" y1="50.0" x2="1742" y2="50.0" style="stroke:#999; stroke-width:3;" />
  <line x1="1742" y1="50.0" x2="1742" y2="50.0" style="stroke:#999; stroke-width:3;" />
  <line x1="1742" y1="50.0" x2="1762" y2="50.0" style="stroke:#999; stroke-width:3;" />
  <rect class="anc_exon" x="1762" y="35.0" width="80" height="30" style="fill:#87bcbc;fill-opacity:1.00" />
  <line x1="1842" y1="50.0" x2="1862" y2="50.0" style="stroke:#999; stroke-width:3;" />
  <line x1="1862" y1="50.0" x2="1862" y2="50.0" style="stroke:#999; stroke-width:3;" />
  <line x1="1862" y1="50.0" x2="1862" y2="50.0" style="stroke:#999; stroke-width:3;" />
  <line x1="1862" y1="50.0" x2="1882" y2="50.0" style="stroke:#999; stroke-width:3;" />
  <rect class="anc_exon" x="1882" y="35.0" width="111" height="30" style="fill:#87bcbc;fill-opacity:1.00" />
  <line x1="1993" y1="50.0" x2="2033" y2="50.0" style="stroke:#999; stroke-width:3;" />
  <rect class="anc_exon" x="2033" y="35.0" width="132" height="30" style="fill:#87bcbc;fill-opacity:1.00" />
  <line x1="2165" y1="50.0" x2="2185" y2="50.0" style="stroke:#999; stroke-width:3;" />
  <line x1="2185" y1="50.0" x2="2185" y2="50.0" style="stroke:#999; stroke-width:3;" />
  <line x1="2185" y1="50.0" x2="2185" y2="50.0" style="stroke:#999; stroke-width:3;" />
  <line x1="2185" y1="50.0" x2="2205" y2="50.0" style="stroke:#999; stroke-width:3;" />
  <rect class="anc_exon" x="2205" y="35.0" width="109" height="30" style="fill:#87bcbc;fill-opacity:1.00" />
  <line x1="2314" y1="50.0" x2="2354" y2="50.0" style="stroke:#999; stroke-width:3;" />
  <rect class="anc_exon" x="2354" y="35.0" width="79" height="30" style="fill:#87bcbc;fill-opacity:1.00" />
  <rect class="anc_exon" x="2433" y="35.0" width="0" height="30" style="fill:#87bcbc;fill-opacity:1.00" />
  <text style="" >
<tspan x="0" y="83.0" style="font-size:18px;" >SP XM_003755494_4.1</tspan>  </text>



<script type="text/ecmascript">
<![CDATA[
function draw_bbox(text_id)
{
    var text_elem = document.getElementById(text_id);
    var offset_px = 2;
    var offset_py = 0;
    bbox = text_elem.getBBox();
    var box = document.createElementNS(document.rootElement.namespaceURI,'rect');
    box.setAttribute('x', bbox.x - offset_px);
    box.setAttribute('y', bbox.y - offset_py);
    box.setAttribute('width', bbox.width + offset_px * 2);
    box.setAttribute('height', bbox.height + offset_py * 2);
    box.setAttribute('style','fill: white;'+'stroke: black;'+'stroke-width: 1px;');
    text_elem.insertBefore(box,text_elem.childNodes[0]);

    var svg = text_elem.parentNode;
    svg.appendChild(text_elem);
}

for (var i=1; i < 1; i++)
{
draw_bbox("Mouseover" + i);
}
]]> 
</script>
</svg>
