<svg version="1.1"
xmlns="http://www.w3.org/2000/svg"
xmlns:xlink="http://www.w3.org/1999/xlink"
width="8402" height="100" viewBox = "0 0 8402 100"
onclick="mouseclick(evt)">

<script type="text/ecmascript">

<![CDATA[
    function mouseover(evt, target) { 
    var gv = document.getElementById("globalVariable");
    var previoustarget = gv.firstChild.nodeValue;
    if (previoustarget != "none") 
    {
        	document.getElementById(gv.firstChild.nodeValue).setAttributeNS(null, "visibility", "hidden");
    }
    document.getElementById(target).setAttributeNS(null, "visibility", "visible");
    gv.firstChild.nodeValue = target;
        }

    function mouseclick(evt) { 
    var gv = document.getElementById("globalVariable");
    var previoustarget = gv.firstChild.nodeValue;
    if (previoustarget != "none") {
        	document.getElementById(gv.firstChild.nodeValue).setAttributeNS(null, "visibility", "hidden");
        }
    }
]]>
  </script>
<style type="text/css" >

<![CDATA[
    rect.anc_exon {
              stroke-width:3;
                  }

    rect.non_anc_exon {
              stroke: black; stroke-width:3; stroke-dasharray: 5,5;
                    }

    text {
              font-size: 18px;
              font-family: Courier New;
          }
                    ]]>
</style>

<defs>
    <text x="150" y="40" id="globalVariable">none</text>
</defs>

  <rect class="anc_exon" x="0" y="35.0" width="0" height="30" style="fill:#87bcbc;fill-opacity:1.00" />
  <rect class="anc_exon" x="0" y="35.0" width="17.6" height="30" style="fill:#87bcbc;fill-opacity:1.00" />
  <line x1="17.6" y1="50.0" x2="36.6" y2="50.0" style="stroke:#999; stroke-width:3;" />
  <line x1="36.6" y1="50.0" x2="36.6" y2="50.0" style="stroke:#999; stroke-width:3;" />
  <line x1="36.6" y1="50.0" x2="36.6" y2="50.0" style="stroke:#999; stroke-width:3;" />
  <line x1="36.6" y1="50.0" x2="57.0" y2="50.0" style="stroke:#999; stroke-width:3;" />
  <rect class="anc_exon" x="57" y="35.0" width="96" height="30" style="fill:#87bcbc;fill-opacity:1.00" />
  <line x1="153" y1="50.0" x2="173" y2="50.0" style="stroke:#999; stroke-width:3;" />
  <line x1="173" y1="50.0" x2="173" y2="50.0" style="stroke:#999; stroke-width:3;" />
  <line x1="173" y1="50.0" x2="173" y2="50.0" style="stroke:#999; stroke-width:3;" />
  <line x1="173" y1="50.0" x2="193" y2="50.0" style="stroke:#999; stroke-width:3;" />
  <rect class="anc_exon" x="193" y="35.0" width="244" height="30" style="fill:#87bcbc;fill-opacity:1.00" />
  <line x1="437" y1="50.0" x2="457" y2="50.0" style="stroke:#999; stroke-width:3;" />
  <line x1="457" y1="50.0" x2="457" y2="50.0" style="stroke:#999; stroke-width:3;" />
  <line x1="457" y1="50.0" x2="457" y2="50.0" style="stroke:#999; stroke-width:3;" />
  <line x1="457" y1="50.0" x2="477" y2="50.0" style="stroke:#999; stroke-width:3;" />
  <rect class="anc_exon" x="477" y="35.0" width="136" height="30" style="fill:#87bcbc;fill-opacity:1.00" />
  <line x1="613" y1="50.0" x2="633" y2="50.0" style="stroke:#999; stroke-width:3;" />
  <line x1="633" y1="50.0" x2="633" y2="50.0" style="stroke:#999; stroke-width:3;" />
  <line x1="633" y1="50.0" x2="633" y2="50.0" style="stroke:#999; stroke-width:3;" />
  <line x1="633" y1="50.0" x2="653" y2="50.0" style="stroke:#999; stroke-width:3;" />
  <rect class="anc_exon" x="653" y="35.0" width="74" height="30" style="fill:#87bcbc;fill-opacity:1.00" />
  <line x1="727" y1="50.0" x2="767" y2="50.0" style="stroke:#999; stroke-width:3;" />
  <rect class="anc_exon" x="767" y="35.0" width="44" height="30" style="fill:#87bcbc;fill-opacity:1.00" />
  <line x1="811" y1="50.0" x2="851" y2="50.0" style="stroke:#999; stroke-width:3;" />
  <rect class="anc_exon" x="851" y="35.0" width="104" height="30" style="fill:#87bcbc;fill-opacity:1.00" />
  <line x1="955" y1="50.0" x2="975" y2="50.0" style="stroke:#999; stroke-width:3;" />
  <line x1="975" y1="50.0" x2="975" y2="50.0" style="stroke:#999; stroke-width:3;" />
  <line x1="975" y1="50.0" x2="975" y2="50.0" style="stroke:#999; stroke-width:3;" />
  <line x1="975" y1="50.0" x2="995" y2="50.0" style="stroke:#999; stroke-width:3;" />
  <rect class="anc_exon" x="995" y="35.0" width="52" height="30" style="fill:#87bcbc;fill-opacity:1.00" />
  <line x1="1047" y1="50.0" x2="1067" y2="50.0" style="stroke:#999; stroke-width:3;" />
  <line x1="1067" y1="50.0" x2="1067" y2="50.0" style="stroke:#999; stroke-width:3;" />
  <line x1="1067" y1="50.0" x2="1067" y2="50.0" style="stroke:#999; stroke-width:3;" />
  <line x1="1067" y1="50.0" x2="1087" y2="50.0" style="stroke:#999; stroke-width:3;" />
  <rect class="anc_exon" x="1087" y="35.0" width="71" height="30" style="fill:#87bcbc;fill-opacity:1.00" />
  <line x1="1158" y1="50.0" x2="1198" y2="50.0" style="stroke:#999; stroke-width:3;" />
  <rect class="anc_exon" x="1198" y="35.0" width="32" height="30" style="fill:#87bcbc;fill-opacity:1.00" />
  <line x1="1230" y1="50.0" x2="1250" y2="50.0" style="stroke:#999; stroke-width:3;" />
  <line x1="1250" y1="50.0" x2="1250" y2="50.0" style="stroke:#999; stroke-width:3;" />
  <line x1="1250" y1="50.0" x2="1250" y2="50.0" style="stroke:#999; stroke-width:3;" />
  <line x1="1250" y1="50.0" x2="1270" y2="50.0" style="stroke:#999; stroke-width:3;" />
  <rect class="anc_exon" x="1270" y="35.0" width="23" height="30" style="fill:#87bcbc;fill-opacity:1.00" />
  <line x1="1293" y1="50.0" x2="1313" y2="50.0" style="stroke:#999; stroke-width:3;" />
  <line x1="1313" y1="50.0" x2="1313" y2="50.0" style="stroke:#999; stroke-width:3;" />
  <line x1="1313" y1="50.0" x2="1313" y2="50.0" style="stroke:#999; stroke-width:3;" />
  <line x1="1313" y1="50.0" x2="1333" y2="50.0" style="stroke:#999; stroke-width:3;" />
  <rect class="anc_exon" x="1333" y="35.0" width="191" height="30" style="fill:#87bcbc;fill-opacity:1.00" />
  <line x1="1524" y1="50.0" x2="1564" y2="50.0" style="stroke:#999; stroke-width:3;" />
  <rect class="anc_exon" x="1564" y="35.0" width="137" height="30" style="fill:#87bcbc;fill-opacity:1.00" />
  <line x1="1701" y1="50.0" x2="1721" y2="50.0" style="stroke:#999; stroke-width:3;" />
  <line x1="1721" y1="50.0" x2="1721" y2="50.0" style="stroke:#999; stroke-width:3;" />
  <line x1="1721" y1="50.0" x2="1721" y2="50.0" style="stroke:#999; stroke-width:3;" />
  <line x1="1721" y1="50.0" x2="1741" y2="50.0" style="stroke:#999; stroke-width:3;" />
  <rect class="anc_exon" x="1741" y="35.0" width="184" height="30" style="fill:#87bcbc;fill-opacity:1.00" />
  <line x1="1925" y1="50.0" x2="1945" y2="50.0" style="stroke:#999; stroke-width:3;" />
  <line x1="1945" y1="50.0" x2="1945" y2="50.0" style="stroke:#999; stroke-width:3;" />
  <line x1="1945" y1="50.0" x2="1945" y2="50.0" style="stroke:#999; stroke-width:3;" />
  <line x1="1945" y1="50.0" x2="1965" y2="50.0" style="stroke:#999; stroke-width:3;" />
  <rect class="anc_exon" x="1965" y="35.0" width="152" height="30" style="fill:#87bcbc;fill-opacity:1.00" />
  <line x1="2117" y1="50.0" x2="2157" y2="50.0" style="stroke:#999; stroke-width:3;" />
  <rect class="anc_exon" x="2157" y="35.0" width="99" height="30" style="fill:#87bcbc;fill-opacity:1.00" />
  <line x1="2256" y1="50.0" x2="2276" y2="50.0" style="stroke:#999; stroke-width:3;" />
  <line x1="2276" y1="50.0" x2="2276" y2="50.0" style="stroke:#999; stroke-width:3;" />
  <line x1="2276" y1="50.0" x2="2276" y2="50.0" style="stroke:#999; stroke-width:3;" />
  <line x1="2276" y1="50.0" x2="2296" y2="50.0" style="stroke:#999; stroke-width:3;" />
  <rect class="anc_exon" x="2296" y="35.0" width="112" height="30" style="fill:#87bcbc;fill-opacity:1.00" />
  <line x1="2408" y1="50.0" x2="2428" y2="50.0" style="stroke:#999; stroke-width:3;" />
  <line x1="2428" y1="50.0" x2="2428" y2="50.0" style="stroke:#999; stroke-width:3;" />
  <line x1="2428" y1="50.0" x2="2428" y2="50.0" style="stroke:#999; stroke-width:3;" />
  <line x1="2428" y1="50.0" x2="2448" y2="50.0" style="stroke:#999; stroke-width:3;" />
  <rect class="anc_exon" x="2448" y="35.0" width="177" height="30" style="fill:#87bcbc;fill-opacity:1.00" />
  <line x1="2625" y1="50.0" x2="2665" y2="50.0" style="stroke:#999; stroke-width:3;" />
  <rect class="anc_exon" x="2665" y="35.0" width="182" height="30" style="fill:#87bcbc;fill-opacity:1.00" />
  <line x1="2847" y1="50.0" x2="2867" y2="50.0" style="stroke:#999; stroke-width:3;" />
  <line x1="2867" y1="50.0" x2="2867" y2="50.0" style="stroke:#999; stroke-width:3;" />
  <line x1="2867" y1="50.0" x2="2867" y2="50.0" style="stroke:#999; stroke-width:3;" />
  <line x1="2867" y1="50.0" x2="2887" y2="50.0" style="stroke:#999; stroke-width:3;" />
  <rect class="anc_exon" x="2887" y="35.0" width="113" height="30" style="fill:#87bcbc;fill-opacity:1.00" />
  <line x1="3000" y1="50.0" x2="3020" y2="50.0" style="stroke:#999; stroke-width:3;" />
  <line x1="3020" y1="50.0" x2="3020" y2="50.0" style="stroke:#999; stroke-width:3;" />
  <line x1="3020" y1="50.0" x2="3020" y2="50.0" style="stroke:#999; stroke-width:3;" />
  <line x1="3020" y1="50.0" x2="3040" y2="50.0" style="stroke:#999; stroke-width:3;" />
  <rect class="anc_exon" x="3040" y="35.0" width="64" height="30" style="fill:#87bcbc;fill-opacity:1.00" />
  <line x1="3104" y1="50.0" x2="3144" y2="50.0" style="stroke:#999; stroke-width:3;" />
  <rect class="anc_exon" x="3144" y="35.0" width="119" height="30" style="fill:#87bcbc;fill-opacity:1.00" />
  <line x1="3263" y1="50.0" x2="3283" y2="50.0" style="stroke:#999; stroke-width:3;" />
  <line x1="3283" y1="50.0" x2="3283" y2="50.0" style="stroke:#999; stroke-width:3;" />
  <line x1="3283" y1="50.0" x2="3283" y2="50.0" style="stroke:#999; stroke-width:3;" />
  <line x1="3283" y1="50.0" x2="3303" y2="50.0" style="stroke:#999; stroke-width:3;" />
  <rect class="anc_exon" x="3303" y="35.0" width="126" height="30" style="fill:#87bcbc;fill-opacity:1.00" />
  <line x1="3429" y1="50.0" x2="3449" y2="50.0" style="stroke:#999; stroke-width:3;" />
  <line x1="3449" y1="50.0" x2="3449" y2="50.0" style="stroke:#999; stroke-width:3;" />
  <line x1="3449" y1="50.0" x2="3449" y2="50.0" style="stroke:#999; stroke-width:3;" />
  <line x1="3449" y1="50.0" x2="3469" y2="50.0" style="stroke:#999; stroke-width:3;" />
  <rect class="anc_exon" x="3469" y="35.0" width="145" height="30" style="fill:#87bcbc;fill-opacity:1.00" />
  <line x1="3614" y1="50.0" x2="3634" y2="50.0" style="stroke:#999; stroke-width:3;" />
  <line x1="3634" y1="50.0" x2="3634" y2="50.0" style="stroke:#999; stroke-width:3;" />
  <line x1="3634" y1="50.0" x2="3634" y2="50.0" style="stroke:#999; stroke-width:3;" />
  <line x1="3634" y1="50.0" x2="3654" y2="50.0" style="stroke:#999; stroke-width:3;" />
  <rect class="anc_exon" x="3654" y="35.0" width="161" height="30" style="fill:#87bcbc;fill-opacity:1.00" />
  <line x1="3815" y1="50.0" x2="3855" y2="50.0" style="stroke:#999; stroke-width:3;" />
  <rect class="anc_exon" x="3855" y="35.0" width="144" height="30" style="fill:#87bcbc;fill-opacity:1.00" />
  <line x1="3999" y1="50.0" x2="4039" y2="50.0" style="stroke:#999; stroke-width:3;" />
  <rect class="anc_exon" x="4039" y="35.0" width="52" height="30" style="fill:#87bcbc;fill-opacity:1.00" />
  <line x1="4091" y1="50.0" x2="4111" y2="50.0" style="stroke:#999; stroke-width:3;" />
  <line x1="4111" y1="50.0" x2="4111" y2="50.0" style="stroke:#999; stroke-width:3;" />
  <line x1="4111" y1="50.0" x2="4111" y2="50.0" style="stroke:#999; stroke-width:3;" />
  <line x1="4111" y1="50.0" x2="4131" y2="50.0" style="stroke:#999; stroke-width:3;" />
  <rect class="anc_exon" x="4131" y="35.0" width="229" height="30" style="fill:#87bcbc;fill-opacity:1.00" />
  <line x1="4360" y1="50.0" x2="4380" y2="50.0" style="stroke:#999; stroke-width:3;" />
  <line x1="4380" y1="50.0" x2="4380" y2="50.0" style="stroke:#999; stroke-width:3;" />
  <line x1="4380" y1="50.0" x2="4380" y2="50.0" style="stroke:#999; stroke-width:3;" />
  <line x1="4380" y1="50.0" x2="4400" y2="50.0" style="stroke:#999; stroke-width:3;" />
  <rect class="anc_exon" x="4400" y="35.0" width="146" height="30" style="fill:#87bcbc;fill-opacity:1.00" />
  <line x1="4546" y1="50.0" x2="4566" y2="50.0" style="stroke:#999; stroke-width:3;" />
  <line x1="4566" y1="50.0" x2="4566" y2="50.0" style="stroke:#999; stroke-width:3;" />
  <line x1="4566" y1="50.0" x2="4566" y2="50.0" style="stroke:#999; stroke-width:3;" />
  <line x1="4566" y1="50.0" x2="4586" y2="50.0" style="stroke:#999; stroke-width:3;" />
  <rect class="anc_exon" x="4586" y="35.0" width="130" height="30" style="fill:#87bcbc;fill-opacity:1.00" />
  <line x1="4716" y1="50.0" x2="4736" y2="50.0" style="stroke:#999; stroke-width:3;" />
  <line x1="4736" y1="50.0" x2="4736" y2="50.0" style="stroke:#999; stroke-width:3;" />
  <line x1="4736" y1="50.0" x2="4736" y2="50.0" style="stroke:#999; stroke-width:3;" />
  <line x1="4736" y1="50.0" x2="4756" y2="50.0" style="stroke:#999; stroke-width:3;" />
  <rect class="anc_exon" x="4756" y="35.0" width="979" height="30" style="fill:#87bcbc;fill-opacity:1.00" />
  <line x1="5735" y1="50.0" x2="5755" y2="50.0" style="stroke:#999; stroke-width:3;" />
  <line x1="5755" y1="50.0" x2="5755" y2="50.0" style="stroke:#999; stroke-width:3;" />
  <line x1="5755" y1="50.0" x2="5755" y2="50.0" style="stroke:#999; stroke-width:3;" />
  <line x1="5755" y1="50.0" x2="5775" y2="50.0" style="stroke:#999; stroke-width:3;" />
  <rect class="anc_exon" x="5775" y="35.0" width="86" height="30" style="fill:#87bcbc;fill-opacity:1.00" />
  <line x1="5861" y1="50.0" x2="5881" y2="50.0" style="stroke:#999; stroke-width:3;" />
  <line x1="5881" y1="50.0" x2="5881" y2="50.0" style="stroke:#999; stroke-width:3;" />
  <line x1="5881" y1="50.0" x2="5881" y2="50.0" style="stroke:#999; stroke-width:3;" />
  <line x1="5881" y1="50.0" x2="5901" y2="50.0" style="stroke:#999; stroke-width:3;" />
  <rect class="anc_exon" x="5901" y="35.0" width="93" height="30" style="fill:#87bcbc;fill-opacity:1.00" />
  <line x1="5994" y1="50.0" x2="6014" y2="50.0" style="stroke:#999; stroke-width:3;" />
  <line x1="6014" y1="50.0" x2="6014" y2="50.0" style="stroke:#999; stroke-width:3;" />
  <line x1="6014" y1="50.0" x2="6014" y2="50.0" style="stroke:#999; stroke-width:3;" />
  <line x1="6014" y1="50.0" x2="6034" y2="50.0" style="stroke:#999; stroke-width:3;" />
  <rect class="anc_exon" x="6034" y="35.0" width="67" height="30" style="fill:#87bcbc;fill-opacity:1.00" />
  <line x1="6101" y1="50.0" x2="6121" y2="50.0" style="stroke:#999; stroke-width:3;" />
  <line x1="6121" y1="50.0" x2="6121" y2="50.0" style="stroke:#999; stroke-width:3;" />
  <line x1="6121" y1="50.0" x2="6121" y2="50.0" style="stroke:#999; stroke-width:3;" />
  <line x1="6121" y1="50.0" x2="6141" y2="50.0" style="stroke:#999; stroke-width:3;" />
  <rect class="anc_exon" x="6141" y="35.0" width="82" height="30" style="fill:#87bcbc;fill-opacity:1.00" />
  <line x1="6223" y1="50.0" x2="6243" y2="50.0" style="stroke:#999; stroke-width:3;" />
  <line x1="6243" y1="50.0" x2="6243" y2="50.0" style="stroke:#999; stroke-width:3;" />
  <line x1="6243" y1="50.0" x2="6243" y2="50.0" style="stroke:#999; stroke-width:3;" />
  <line x1="6243" y1="50.0" x2="6263" y2="50.0" style="stroke:#999; stroke-width:3;" />
  <rect class="anc_exon" x="6263" y="35.0" width="112" height="30" style="fill:#87bcbc;fill-opacity:1.00" />
  <line x1="6375" y1="50.0" x2="6395" y2="50.0" style="stroke:#999; stroke-width:3;" />
  <line x1="6395" y1="50.0" x2="6395" y2="50.0" style="stroke:#999; stroke-width:3;" />
  <line x1="6395" y1="50.0" x2="6395" y2="50.0" style="stroke:#999; stroke-width:3;" />
  <line x1="6395" y1="50.0" x2="6415" y2="50.0" style="stroke:#999; stroke-width:3;" />
  <rect class="anc_exon" x="6415" y="35.0" width="31" height="30" style="fill:#87bcbc;fill-opacity:1.00" />
  <line x1="6446" y1="50.0" x2="6466" y2="50.0" style="stroke:#999; stroke-width:3;" />
  <line x1="6466" y1="50.0" x2="6466" y2="50.0" style="stroke:#999; stroke-width:3;" />
  <line x1="6466" y1="50.0" x2="6466" y2="50.0" style="stroke:#999; stroke-width:3;" />
  <line x1="6466" y1="50.0" x2="6486" y2="50.0" style="stroke:#999; stroke-width:3;" />
  <rect class="anc_exon" x="6486" y="35.0" width="90" height="30" style="fill:#87bcbc;fill-opacity:1.00" />
  <line x1="6576" y1="50.0" x2="6616" y2="50.0" style="stroke:#999; stroke-width:3;" />
  <rect class="anc_exon" x="6616" y="35.0" width="68" height="30" style="fill:#87bcbc;fill-opacity:1.00" />
  <line x1="6684" y1="50.0" x2="6704" y2="50.0" style="stroke:#999; stroke-width:3;" />
  <line x1="6704" y1="50.0" x2="6704" y2="50.0" style="stroke:#999; stroke-width:3;" />
  <line x1="6704" y1="50.0" x2="6704" y2="50.0" style="stroke:#999; stroke-width:3;" />
  <line x1="6704" y1="50.0" x2="6724" y2="50.0" style="stroke:#999; stroke-width:3;" />
  <rect class="anc_exon" x="6724" y="35.0" width="139" height="30" style="fill:#87bcbc;fill-opacity:1.00" />
  <line x1="6863" y1="50.0" x2="6883" y2="50.0" style="stroke:#999; stroke-width:3;" />
  <line x1="6883" y1="50.0" x2="6883" y2="50.0" style="stroke:#999; stroke-width:3;" />
  <line x1="6883" y1="50.0" x2="6883" y2="50.0" style="stroke:#999; stroke-width:3;" />
  <line x1="6883" y1="50.0" x2="6903" y2="50.0" style="stroke:#999; stroke-width:3;" />
  <rect class="anc_exon" x="6903" y="35.0" width="55" height="30" style="fill:#87bcbc;fill-opacity:1.00" />
  <line x1="6958" y1="50.0" x2="6978" y2="50.0" style="stroke:#999; stroke-width:3;" />
  <line x1="6978" y1="50.0" x2="6978" y2="50.0" style="stroke:#999; stroke-width:3;" />
  <line x1="6978" y1="50.0" x2="6978" y2="50.0" style="stroke:#999; stroke-width:3;" />
  <line x1="6978" y1="50.0" x2="6998" y2="50.0" style="stroke:#999; stroke-width:3;" />
  <rect class="anc_exon" x="6998" y="35.0" width="88" height="30" style="fill:#87bcbc;fill-opacity:1.00" />
  <line x1="7086" y1="50.0" x2="7106" y2="50.0" style="stroke:#999; stroke-width:3;" />
  <line x1="7106" y1="50.0" x2="7106" y2="50.0" style="stroke:#999; stroke-width:3;" />
  <line x1="7106" y1="50.0" x2="7106" y2="50.0" style="stroke:#999; stroke-width:3;" />
  <line x1="7106" y1="50.0" x2="7126" y2="50.0" style="stroke:#999; stroke-width:3;" />
  <rect class="anc_exon" x="7126" y="35.0" width="84" height="30" style="fill:#87bcbc;fill-opacity:1.00" />
  <line x1="7210" y1="50.0" x2="7230" y2="50.0" style="stroke:#999; stroke-width:3;" />
  <line x1="7230" y1="50.0" x2="7230" y2="50.0" style="stroke:#999; stroke-width:3;" />
  <line x1="7230" y1="50.0" x2="7230" y2="50.0" style="stroke:#999; stroke-width:3;" />
  <line x1="7230" y1="50.0" x2="7250" y2="50.0" style="stroke:#999; stroke-width:3;" />
  <rect class="anc_exon" x="7250" y="35.0" width="62" height="30" style="fill:#87bcbc;fill-opacity:1.00" />
  <line x1="7312" y1="50.0" x2="7332" y2="50.0" style="stroke:#999; stroke-width:3;" />
  <line x1="7332" y1="50.0" x2="7332" y2="50.0" style="stroke:#999; stroke-width:3;" />
  <line x1="7332" y1="50.0" x2="7332" y2="50.0" style="stroke:#999; stroke-width:3;" />
  <line x1="7332" y1="50.0" x2="7352" y2="50.0" style="stroke:#999; stroke-width:3;" />
  <rect class="anc_exon" x="7352" y="35.0" width="72" height="30" style="fill:#87bcbc;fill-opacity:1.00" />
  <line x1="7424" y1="50.0" x2="7444" y2="50.0" style="stroke:#999; stroke-width:3;" />
  <line x1="7444" y1="50.0" x2="7444" y2="50.0" style="stroke:#999; stroke-width:3;" />
  <line x1="7444" y1="50.0" x2="7444" y2="50.0" style="stroke:#999; stroke-width:3;" />
  <line x1="7444" y1="50.0" x2="7464" y2="50.0" style="stroke:#999; stroke-width:3;" />
  <rect class="anc_exon" x="7464" y="35.0" width="140" height="30" style="fill:#87bcbc;fill-opacity:1.00" />
  <line x1="7604" y1="50.0" x2="7644" y2="50.0" style="stroke:#999; stroke-width:3;" />
  <rect class="anc_exon" x="7644" y="35.0" width="149" height="30" style="fill:#87bcbc;fill-opacity:1.00" />
  <line x1="7793" y1="50.0" x2="7813" y2="50.0" style="stroke:#999; stroke-width:3;" />
  <line x1="7813" y1="50.0" x2="7813" y2="50.0" style="stroke:#999; stroke-width:3;" />
  <line x1="7813" y1="50.0" x2="7813" y2="50.0" style="stroke:#999; stroke-width:3;" />
  <line x1="7813" y1="50.0" x2="7833" y2="50.0" style="stroke:#999; stroke-width:3;" />
  <rect class="anc_exon" x="7833" y="35.0" width="158" height="30" style="fill:#87bcbc;fill-opacity:1.00" />
  <line x1="7991" y1="50.0" x2="8011" y2="50.0" style="stroke:#999; stroke-width:3;" />
  <line x1="8011" y1="50.0" x2="8011" y2="50.0" style="stroke:#999; stroke-width:3;" />
  <line x1="8011" y1="50.0" x2="8011" y2="50.0" style="stroke:#999; stroke-width:3;" />
  <line x1="8011" y1="50.0" x2="8031" y2="50.0" style="stroke:#999; stroke-width:3;" />
  <rect class="anc_exon" x="8031" y="35.0" width="62" height="30" style="fill:#87bcbc;fill-opacity:1.00" />
  <line x1="8093" y1="50.0" x2="8113" y2="50.0" style="stroke:#999; stroke-width:3;" />
  <line x1="8113" y1="50.0" x2="8113" y2="50.0" style="stroke:#999; stroke-width:3;" />
  <line x1="8113" y1="50.0" x2="8113" y2="50.0" style="stroke:#999; stroke-width:3;" />
  <line x1="8113" y1="50.0" x2="8133" y2="50.0" style="stroke:#999; stroke-width:3;" />
  <rect class="anc_exon" x="8133" y="35.0" width="33" height="30" style="fill:#87bcbc;fill-opacity:1.00" />
  <line x1="8166" y1="50.0" x2="8186" y2="50.0" style="stroke:#999; stroke-width:3;" />
  <line x1="8186" y1="50.0" x2="8186" y2="50.0" style="stroke:#999; stroke-width:3;" />
  <line x1="8186" y1="50.0" x2="8186" y2="50.0" style="stroke:#999; stroke-width:3;" />
  <line x1="8186" y1="50.0" x2="8206" y2="50.0" style="stroke:#999; stroke-width:3;" />
  <rect class="anc_exon" x="8206" y="35.0" width="160" height="30" style="fill:#87bcbc;fill-opacity:1.00" />
  <rect class="anc_exon" x="8366" y="35.0" width="0" height="30" style="fill:#87bcbc;fill-opacity:1.00" />
  <text style="" >
<tspan x="0" y="83.0" style="font-size:18px;" >SP XM_031952323_1.1</tspan>  </text>



<script type="text/ecmascript">
<![CDATA[
function draw_bbox(text_id)
{
    var text_elem = document.getElementById(text_id);
    var offset_px = 2;
    var offset_py = 0;
    bbox = text_elem.getBBox();
    var box = document.createElementNS(document.rootElement.namespaceURI,'rect');
    box.setAttribute('x', bbox.x - offset_px);
    box.setAttribute('y', bbox.y - offset_py);
    box.setAttribute('width', bbox.width + offset_px * 2);
    box.setAttribute('height', bbox.height + offset_py * 2);
    box.setAttribute('style','fill: white;'+'stroke: black;'+'stroke-width: 1px;');
    text_elem.insertBefore(box,text_elem.childNodes[0]);

    var svg = text_elem.parentNode;
    svg.appendChild(text_elem);
}

for (var i=1; i < 1; i++)
{
draw_bbox("Mouseover" + i);
}
]]> 
</script>
</svg>
