<svg version="1.1"
xmlns="http://www.w3.org/2000/svg"
xmlns:xlink="http://www.w3.org/1999/xlink"
width="2054" height="100" viewBox = "0 0 2054 100"
onclick="mouseclick(evt)">

<script type="text/ecmascript">

<![CDATA[
    function mouseover(evt, target) { 
    var gv = document.getElementById("globalVariable");
    var previoustarget = gv.firstChild.nodeValue;
    if (previoustarget != "none") 
    {
        	document.getElementById(gv.firstChild.nodeValue).setAttributeNS(null, "visibility", "hidden");
    }
    document.getElementById(target).setAttributeNS(null, "visibility", "visible");
    gv.firstChild.nodeValue = target;
        }

    function mouseclick(evt) { 
    var gv = document.getElementById("globalVariable");
    var previoustarget = gv.firstChild.nodeValue;
    if (previoustarget != "none") {
        	document.getElementById(gv.firstChild.nodeValue).setAttributeNS(null, "visibility", "hidden");
        }
    }
]]>
  </script>
<style type="text/css" >

<![CDATA[
    rect.anc_exon {
              stroke-width:3;
                  }

    rect.non_anc_exon {
              stroke: black; stroke-width:3; stroke-dasharray: 5,5;
                    }

    text {
              font-size: 18px;
              font-family: Courier New;
          }
                    ]]>
</style>

<defs>
    <text x="150" y="40" id="globalVariable">none</text>
</defs>

  <rect class="anc_exon" x="0" y="35.0" width="0" height="30" style="fill:#87bcbc;fill-opacity:1.00" />
  <rect class="anc_exon" x="0" y="35.0" width="32.800000000000004" height="30" style="fill:#cf232b;fill-opacity:1.00" />
  <line x1="32.800000000000004" y1="50.0" x2="72.0" y2="50.0" style="stroke:#999; stroke-width:3;" />
  <rect class="anc_exon" x="72" y="35.0" width="105" height="30" style="fill:#87bcbc;fill-opacity:1.00" />
  <line x1="177" y1="50.0" x2="197" y2="50.0" style="stroke:#999; stroke-width:3;" />
  <line x1="197" y1="50.0" x2="197" y2="50.0" style="stroke:#999; stroke-width:3;" />
  <line x1="197" y1="50.0" x2="197" y2="50.0" style="stroke:#999; stroke-width:3;" />
  <line x1="197" y1="50.0" x2="217" y2="50.0" style="stroke:#999; stroke-width:3;" />
  <rect class="anc_exon" x="217" y="35.0" width="118" height="30" style="fill:#87bcbc;fill-opacity:1.00" />
  <line x1="335" y1="50.0" x2="375" y2="50.0" style="stroke:#999; stroke-width:3;" />
  <rect class="anc_exon" x="375" y="35.0" width="139" height="30" style="fill:#87bcbc;fill-opacity:1.00" />
  <line x1="514" y1="50.0" x2="554" y2="50.0" style="stroke:#999; stroke-width:3;" />
  <rect class="anc_exon" x="554" y="35.0" width="93" height="30" style="fill:#87bcbc;fill-opacity:1.00" />
  <line x1="647" y1="50.0" x2="667" y2="50.0" style="stroke:#999; stroke-width:3;" />
  <line x1="667" y1="50.0" x2="667" y2="50.0" style="stroke:#999; stroke-width:3;" />
  <line x1="667" y1="50.0" x2="667" y2="50.0" style="stroke:#999; stroke-width:3;" />
  <line x1="667" y1="50.0" x2="687" y2="50.0" style="stroke:#999; stroke-width:3;" />
  <rect class="anc_exon" x="687" y="35.0" width="220" height="30" style="fill:#87bcbc;fill-opacity:1.00" />
  <line x1="907" y1="50.0" x2="927" y2="50.0" style="stroke:#999; stroke-width:3;" />
  <line x1="927" y1="50.0" x2="927" y2="50.0" style="stroke:#999; stroke-width:3;" />
  <line x1="927" y1="50.0" x2="927" y2="50.0" style="stroke:#999; stroke-width:3;" />
  <line x1="927" y1="50.0" x2="947" y2="50.0" style="stroke:#999; stroke-width:3;" />
  <rect class="anc_exon" x="947" y="35.0" width="62" height="30" style="fill:#87bcbc;fill-opacity:1.00" />
  <line x1="1009" y1="50.0" x2="1029" y2="50.0" style="stroke:#999; stroke-width:3;" />
  <line x1="1029" y1="50.0" x2="1029" y2="50.0" style="stroke:#999; stroke-width:3;" />
  <line x1="1029" y1="50.0" x2="1029" y2="50.0" style="stroke:#999; stroke-width:3;" />
  <line x1="1029" y1="50.0" x2="1049" y2="50.0" style="stroke:#999; stroke-width:3;" />
  <rect class="anc_exon" x="1049" y="35.0" width="91" height="30" style="fill:#87bcbc;fill-opacity:1.00" />
  <line x1="1140" y1="50.0" x2="1180" y2="50.0" style="stroke:#999; stroke-width:3;" />
  <rect class="anc_exon" x="1180" y="35.0" width="92" height="30" style="fill:#87bcbc;fill-opacity:1.00" />
  <line x1="1272" y1="50.0" x2="1292" y2="50.0" style="stroke:#999; stroke-width:3;" />
  <line x1="1292" y1="50.0" x2="1292" y2="50.0" style="stroke:#999; stroke-width:3;" />
  <line x1="1292" y1="50.0" x2="1292" y2="50.0" style="stroke:#999; stroke-width:3;" />
  <line x1="1292" y1="50.0" x2="1312" y2="50.0" style="stroke:#999; stroke-width:3;" />
  <rect class="anc_exon" x="1312" y="35.0" width="118" height="30" style="fill:#87bcbc;fill-opacity:1.00" />
  <line x1="1430" y1="50.0" x2="1450" y2="50.0" style="stroke:#999; stroke-width:3;" />
  <line x1="1450" y1="50.0" x2="1450" y2="50.0" style="stroke:#999; stroke-width:3;" />
  <line x1="1450" y1="50.0" x2="1450" y2="50.0" style="stroke:#999; stroke-width:3;" />
  <line x1="1450" y1="50.0" x2="1470" y2="50.0" style="stroke:#999; stroke-width:3;" />
  <rect class="anc_exon" x="1470" y="35.0" width="29" height="30" style="fill:#87bcbc;fill-opacity:1.00" />
  <line x1="1499" y1="50.0" x2="1519" y2="50.0" style="stroke:#999; stroke-width:3;" />
  <line x1="1519" y1="50.0" x2="1519" y2="50.0" style="stroke:#999; stroke-width:3;" />
  <line x1="1519" y1="50.0" x2="1519" y2="50.0" style="stroke:#999; stroke-width:3;" />
  <line x1="1519" y1="50.0" x2="1539" y2="50.0" style="stroke:#999; stroke-width:3;" />
  <rect class="anc_exon" x="1539" y="35.0" width="100" height="30" style="fill:#878787;fill-opacity:1.00" />
  <line x1="1639" y1="50.0" x2="1679" y2="50.0" style="stroke:#999; stroke-width:3;" />
  <rect class="anc_exon" x="1679" y="35.0" width="292" height="30" style="fill:#87bcbc;fill-opacity:1.00" />
  <line x1="1971" y1="50.0" x2="1991" y2="50.0" style="stroke:#999; stroke-width:3;" />
  <line x1="1991" y1="50.0" x2="1991" y2="50.0" style="stroke:#999; stroke-width:3;" />
  <line x1="1991" y1="50.0" x2="1991" y2="50.0" style="stroke:#999; stroke-width:3;" />
  <line x1="1991" y1="50.0" x2="2011" y2="50.0" style="stroke:#999; stroke-width:3;" />
  <rect class="anc_exon" x="2011" y="35.0" width="7" height="30" style="fill:#87bcbc;fill-opacity:1.00" />
  <rect class="anc_exon" x="2018" y="35.0" width="0" height="30" style="fill:#87bcbc;fill-opacity:1.00" />
  <text style="" >
<tspan x="0" y="83.0" style="font-size:18px;" >SP XM_031951260_1.1</tspan>  </text>



<script type="text/ecmascript">
<![CDATA[
function draw_bbox(text_id)
{
    var text_elem = document.getElementById(text_id);
    var offset_px = 2;
    var offset_py = 0;
    bbox = text_elem.getBBox();
    var box = document.createElementNS(document.rootElement.namespaceURI,'rect');
    box.setAttribute('x', bbox.x - offset_px);
    box.setAttribute('y', bbox.y - offset_py);
    box.setAttribute('width', bbox.width + offset_px * 2);
    box.setAttribute('height', bbox.height + offset_py * 2);
    box.setAttribute('style','fill: white;'+'stroke: black;'+'stroke-width: 1px;');
    text_elem.insertBefore(box,text_elem.childNodes[0]);

    var svg = text_elem.parentNode;
    svg.appendChild(text_elem);
}

for (var i=1; i < 1; i++)
{
draw_bbox("Mouseover" + i);
}
]]> 
</script>
</svg>
