<svg version="1.1"
xmlns="http://www.w3.org/2000/svg"
xmlns:xlink="http://www.w3.org/1999/xlink"
width="1585" height="100" viewBox = "0 0 1585 100"
onclick="mouseclick(evt)">

<script type="text/ecmascript">

<![CDATA[
    function mouseover(evt, target) { 
    var gv = document.getElementById("globalVariable");
    var previoustarget = gv.firstChild.nodeValue;
    if (previoustarget != "none") 
    {
        	document.getElementById(gv.firstChild.nodeValue).setAttributeNS(null, "visibility", "hidden");
    }
    document.getElementById(target).setAttributeNS(null, "visibility", "visible");
    gv.firstChild.nodeValue = target;
        }

    function mouseclick(evt) { 
    var gv = document.getElementById("globalVariable");
    var previoustarget = gv.firstChild.nodeValue;
    if (previoustarget != "none") {
        	document.getElementById(gv.firstChild.nodeValue).setAttributeNS(null, "visibility", "hidden");
        }
    }
]]>
  </script>
<style type="text/css" >

<![CDATA[
    rect.anc_exon {
              stroke-width:3;
                  }

    rect.non_anc_exon {
              stroke: black; stroke-width:3; stroke-dasharray: 5,5;
                    }

    text {
              font-size: 18px;
              font-family: Courier New;
          }
                    ]]>
</style>

<defs>
    <text x="150" y="40" id="globalVariable">none</text>
</defs>

  <rect class="anc_exon" x="0" y="35.0" width="0" height="30" style="fill:#87bcbc;fill-opacity:1.00" />
  <rect class="anc_exon" x="0" y="35.0" width="11.200000000000001" height="30" style="fill:#87bcbc;fill-opacity:1.00" />
  <line x1="11.200000000000001" y1="50.0" x2="30.200000000000003" y2="50.0" style="stroke:#999; stroke-width:3;" />
  <line x1="30.200000000000003" y1="50.0" x2="30.200000000000003" y2="50.0" style="stroke:#999; stroke-width:3;" />
  <line x1="30.200000000000003" y1="50.0" x2="30.200000000000003" y2="50.0" style="stroke:#999; stroke-width:3;" />
  <line x1="30.200000000000003" y1="50.0" x2="51.0" y2="50.0" style="stroke:#999; stroke-width:3;" />
  <rect class="anc_exon" x="51" y="35.0" width="151" height="30" style="fill:#87bcbc;fill-opacity:1.00" />
  <line x1="202" y1="50.0" x2="222" y2="50.0" style="stroke:#999; stroke-width:3;" />
  <line x1="222" y1="50.0" x2="222" y2="50.0" style="stroke:#999; stroke-width:3;" />
  <line x1="222" y1="50.0" x2="222" y2="50.0" style="stroke:#999; stroke-width:3;" />
  <line x1="222" y1="50.0" x2="242" y2="50.0" style="stroke:#999; stroke-width:3;" />
  <rect class="anc_exon" x="242" y="35.0" width="124" height="30" style="fill:#87bcbc;fill-opacity:1.00" />
  <line x1="366" y1="50.0" x2="386" y2="50.0" style="stroke:#999; stroke-width:3;" />
  <line x1="386" y1="50.0" x2="386" y2="50.0" style="stroke:#999; stroke-width:3;" />
  <line x1="386" y1="50.0" x2="386" y2="50.0" style="stroke:#999; stroke-width:3;" />
  <line x1="386" y1="50.0" x2="406" y2="50.0" style="stroke:#999; stroke-width:3;" />
  <rect class="anc_exon" x="406" y="35.0" width="59" height="30" style="fill:#87bcbc;fill-opacity:1.00" />
  <line x1="465" y1="50.0" x2="485" y2="50.0" style="stroke:#999; stroke-width:3;" />
  <line x1="485" y1="50.0" x2="485" y2="50.0" style="stroke:#999; stroke-width:3;" />
  <line x1="485" y1="50.0" x2="485" y2="50.0" style="stroke:#999; stroke-width:3;" />
  <line x1="485" y1="50.0" x2="505" y2="50.0" style="stroke:#999; stroke-width:3;" />
  <rect class="anc_exon" x="505" y="35.0" width="45" height="30" style="fill:#87bcbc;fill-opacity:1.00" />
  <line x1="550" y1="50.0" x2="570" y2="50.0" style="stroke:#999; stroke-width:3;" />
  <line x1="570" y1="50.0" x2="570" y2="50.0" style="stroke:#999; stroke-width:3;" />
  <line x1="570" y1="50.0" x2="570" y2="50.0" style="stroke:#999; stroke-width:3;" />
  <line x1="570" y1="50.0" x2="590" y2="50.0" style="stroke:#999; stroke-width:3;" />
  <rect class="anc_exon" x="590" y="35.0" width="111" height="30" style="fill:#87bcbc;fill-opacity:1.00" />
  <line x1="701" y1="50.0" x2="721" y2="50.0" style="stroke:#999; stroke-width:3;" />
  <line x1="721" y1="50.0" x2="721" y2="50.0" style="stroke:#999; stroke-width:3;" />
  <line x1="721" y1="50.0" x2="721" y2="50.0" style="stroke:#999; stroke-width:3;" />
  <line x1="721" y1="50.0" x2="741" y2="50.0" style="stroke:#999; stroke-width:3;" />
  <rect class="anc_exon" x="741" y="35.0" width="92" height="30" style="fill:#87bcbc;fill-opacity:1.00" />
  <line x1="833" y1="50.0" x2="853" y2="50.0" style="stroke:#999; stroke-width:3;" />
  <line x1="853" y1="50.0" x2="853" y2="50.0" style="stroke:#999; stroke-width:3;" />
  <line x1="853" y1="50.0" x2="853" y2="50.0" style="stroke:#999; stroke-width:3;" />
  <line x1="853" y1="50.0" x2="873" y2="50.0" style="stroke:#999; stroke-width:3;" />
  <rect class="anc_exon" x="873" y="35.0" width="152" height="30" style="fill:#87bcbc;fill-opacity:1.00" />
  <line x1="1025" y1="50.0" x2="1045" y2="50.0" style="stroke:#999; stroke-width:3;" />
  <line x1="1045" y1="50.0" x2="1045" y2="50.0" style="stroke:#999; stroke-width:3;" />
  <line x1="1045" y1="50.0" x2="1045" y2="50.0" style="stroke:#999; stroke-width:3;" />
  <line x1="1045" y1="50.0" x2="1065" y2="50.0" style="stroke:#999; stroke-width:3;" />
  <rect class="anc_exon" x="1065" y="35.0" width="484" height="30" style="fill:#87bcbc;fill-opacity:1.00" />
  <rect class="anc_exon" x="1549" y="35.0" width="0" height="30" style="fill:#87bcbc;fill-opacity:1.00" />
  <text style="" >
<tspan x="0" y="83.0" style="font-size:18px;" >SP XM_031956795_1.1</tspan>  </text>



<script type="text/ecmascript">
<![CDATA[
function draw_bbox(text_id)
{
    var text_elem = document.getElementById(text_id);
    var offset_px = 2;
    var offset_py = 0;
    bbox = text_elem.getBBox();
    var box = document.createElementNS(document.rootElement.namespaceURI,'rect');
    box.setAttribute('x', bbox.x - offset_px);
    box.setAttribute('y', bbox.y - offset_py);
    box.setAttribute('width', bbox.width + offset_px * 2);
    box.setAttribute('height', bbox.height + offset_py * 2);
    box.setAttribute('style','fill: white;'+'stroke: black;'+'stroke-width: 1px;');
    text_elem.insertBefore(box,text_elem.childNodes[0]);

    var svg = text_elem.parentNode;
    svg.appendChild(text_elem);
}

for (var i=1; i < 1; i++)
{
draw_bbox("Mouseover" + i);
}
]]> 
</script>
</svg>
