<svg version="1.1"
xmlns="http://www.w3.org/2000/svg"
xmlns:xlink="http://www.w3.org/1999/xlink"
width="7938" height="100" viewBox = "0 0 7938 100"
onclick="mouseclick(evt)">

<script type="text/ecmascript">

<![CDATA[
    function mouseover(evt, target) { 
    var gv = document.getElementById("globalVariable");
    var previoustarget = gv.firstChild.nodeValue;
    if (previoustarget != "none") 
    {
        	document.getElementById(gv.firstChild.nodeValue).setAttributeNS(null, "visibility", "hidden");
    }
    document.getElementById(target).setAttributeNS(null, "visibility", "visible");
    gv.firstChild.nodeValue = target;
        }

    function mouseclick(evt) { 
    var gv = document.getElementById("globalVariable");
    var previoustarget = gv.firstChild.nodeValue;
    if (previoustarget != "none") {
        	document.getElementById(gv.firstChild.nodeValue).setAttributeNS(null, "visibility", "hidden");
        }
    }
]]>
  </script>
<style type="text/css" >

<![CDATA[
    rect.anc_exon {
              stroke-width:3;
                  }

    rect.non_anc_exon {
              stroke: black; stroke-width:3; stroke-dasharray: 5,5;
                    }

    text {
              font-size: 18px;
              font-family: Courier New;
          }
                    ]]>
</style>

<defs>
    <text x="150" y="40" id="globalVariable">none</text>
</defs>

  <rect class="anc_exon" x="0" y="35.0" width="0" height="30" style="fill:#87bcbc;fill-opacity:1.00" />
  <rect class="anc_exon" x="0" y="35.0" width="674.4000000000001" height="30" style="fill:#87bcbc;fill-opacity:1.00" />
  <line x1="674.4000000000001" y1="50.0" x2="693.4000000000001" y2="50.0" style="stroke:#999; stroke-width:3;" />
  <line x1="693.4000000000001" y1="50.0" x2="693.4000000000001" y2="50.0" style="stroke:#999; stroke-width:3;" />
  <line x1="693.4000000000001" y1="50.0" x2="693.4000000000001" y2="50.0" style="stroke:#999; stroke-width:3;" />
  <line x1="693.4000000000001" y1="50.0" x2="714.0" y2="50.0" style="stroke:#999; stroke-width:3;" />
  <rect class="anc_exon" x="714" y="35.0" width="76" height="30" style="fill:#87bcbc;fill-opacity:1.00" />
  <line x1="790" y1="50.0" x2="810" y2="50.0" style="stroke:#999; stroke-width:3;" />
  <line x1="810" y1="50.0" x2="810" y2="50.0" style="stroke:#999; stroke-width:3;" />
  <line x1="810" y1="50.0" x2="810" y2="50.0" style="stroke:#999; stroke-width:3;" />
  <line x1="810" y1="50.0" x2="830" y2="50.0" style="stroke:#999; stroke-width:3;" />
  <rect class="anc_exon" x="830" y="35.0" width="50" height="30" style="fill:#87bcbc;fill-opacity:1.00" />
  <line x1="880" y1="50.0" x2="900" y2="50.0" style="stroke:#999; stroke-width:3;" />
  <line x1="900" y1="50.0" x2="900" y2="50.0" style="stroke:#999; stroke-width:3;" />
  <line x1="900" y1="50.0" x2="900" y2="50.0" style="stroke:#999; stroke-width:3;" />
  <line x1="900" y1="50.0" x2="920" y2="50.0" style="stroke:#999; stroke-width:3;" />
  <rect class="anc_exon" x="920" y="35.0" width="80" height="30" style="fill:#87bcbc;fill-opacity:1.00" />
  <line x1="1000" y1="50.0" x2="1020" y2="50.0" style="stroke:#999; stroke-width:3;" />
  <line x1="1020" y1="50.0" x2="1020" y2="50.0" style="stroke:#999; stroke-width:3;" />
  <line x1="1020" y1="50.0" x2="1020" y2="50.0" style="stroke:#999; stroke-width:3;" />
  <line x1="1020" y1="50.0" x2="1040" y2="50.0" style="stroke:#999; stroke-width:3;" />
  <rect class="anc_exon" x="1040" y="35.0" width="78" height="30" style="fill:#87bcbc;fill-opacity:1.00" />
  <line x1="1118" y1="50.0" x2="1158" y2="50.0" style="stroke:#999; stroke-width:3;" />
  <rect class="anc_exon" x="1158" y="35.0" width="101" height="30" style="fill:#87bcbc;fill-opacity:1.00" />
  <line x1="1259" y1="50.0" x2="1279" y2="50.0" style="stroke:#999; stroke-width:3;" />
  <line x1="1279" y1="50.0" x2="1279" y2="50.0" style="stroke:#999; stroke-width:3;" />
  <line x1="1279" y1="50.0" x2="1279" y2="50.0" style="stroke:#999; stroke-width:3;" />
  <line x1="1279" y1="50.0" x2="1299" y2="50.0" style="stroke:#999; stroke-width:3;" />
  <rect class="anc_exon" x="1299" y="35.0" width="72" height="30" style="fill:#87bcbc;fill-opacity:1.00" />
  <line x1="1371" y1="50.0" x2="1391" y2="50.0" style="stroke:#999; stroke-width:3;" />
  <line x1="1391" y1="50.0" x2="1391" y2="50.0" style="stroke:#999; stroke-width:3;" />
  <line x1="1391" y1="50.0" x2="1391" y2="50.0" style="stroke:#999; stroke-width:3;" />
  <line x1="1391" y1="50.0" x2="1411" y2="50.0" style="stroke:#999; stroke-width:3;" />
  <rect class="anc_exon" x="1411" y="35.0" width="93" height="30" style="fill:#87bcbc;fill-opacity:1.00" />
  <line x1="1504" y1="50.0" x2="1524" y2="50.0" style="stroke:#999; stroke-width:3;" />
  <line x1="1524" y1="50.0" x2="1524" y2="50.0" style="stroke:#999; stroke-width:3;" />
  <line x1="1524" y1="50.0" x2="1524" y2="50.0" style="stroke:#999; stroke-width:3;" />
  <line x1="1524" y1="50.0" x2="1544" y2="50.0" style="stroke:#999; stroke-width:3;" />
  <rect class="anc_exon" x="1544" y="35.0" width="108" height="30" style="fill:#87bcbc;fill-opacity:1.00" />
  <line x1="1652" y1="50.0" x2="1672" y2="50.0" style="stroke:#999; stroke-width:3;" />
  <line x1="1672" y1="50.0" x2="1672" y2="50.0" style="stroke:#999; stroke-width:3;" />
  <line x1="1672" y1="50.0" x2="1672" y2="50.0" style="stroke:#999; stroke-width:3;" />
  <line x1="1672" y1="50.0" x2="1692" y2="50.0" style="stroke:#999; stroke-width:3;" />
  <rect class="anc_exon" x="1692" y="35.0" width="97" height="30" style="fill:#87bcbc;fill-opacity:1.00" />
  <line x1="1789" y1="50.0" x2="1809" y2="50.0" style="stroke:#999; stroke-width:3;" />
  <line x1="1809" y1="50.0" x2="1809" y2="50.0" style="stroke:#999; stroke-width:3;" />
  <line x1="1809" y1="50.0" x2="1809" y2="50.0" style="stroke:#999; stroke-width:3;" />
  <line x1="1809" y1="50.0" x2="1829" y2="50.0" style="stroke:#999; stroke-width:3;" />
  <rect class="anc_exon" x="1829" y="35.0" width="113" height="30" style="fill:#87bcbc;fill-opacity:1.00" />
  <line x1="1942" y1="50.0" x2="1962" y2="50.0" style="stroke:#999; stroke-width:3;" />
  <line x1="1962" y1="50.0" x2="1962" y2="50.0" style="stroke:#999; stroke-width:3;" />
  <line x1="1962" y1="50.0" x2="1962" y2="50.0" style="stroke:#999; stroke-width:3;" />
  <line x1="1962" y1="50.0" x2="1982" y2="50.0" style="stroke:#999; stroke-width:3;" />
  <rect class="anc_exon" x="1982" y="35.0" width="156" height="30" style="fill:#87bcbc;fill-opacity:1.00" />
  <line x1="2138" y1="50.0" x2="2158" y2="50.0" style="stroke:#999; stroke-width:3;" />
  <line x1="2158" y1="50.0" x2="2158" y2="50.0" style="stroke:#999; stroke-width:3;" />
  <line x1="2158" y1="50.0" x2="2158" y2="50.0" style="stroke:#999; stroke-width:3;" />
  <line x1="2158" y1="50.0" x2="2178" y2="50.0" style="stroke:#999; stroke-width:3;" />
  <rect class="anc_exon" x="2178" y="35.0" width="96" height="30" style="fill:#87bcbc;fill-opacity:1.00" />
  <line x1="2274" y1="50.0" x2="2294" y2="50.0" style="stroke:#999; stroke-width:3;" />
  <line x1="2294" y1="50.0" x2="2294" y2="50.0" style="stroke:#999; stroke-width:3;" />
  <line x1="2294" y1="50.0" x2="2294" y2="50.0" style="stroke:#999; stroke-width:3;" />
  <line x1="2294" y1="50.0" x2="2314" y2="50.0" style="stroke:#999; stroke-width:3;" />
  <rect class="anc_exon" x="2314" y="35.0" width="60" height="30" style="fill:#87bcbc;fill-opacity:1.00" />
  <line x1="2374" y1="50.0" x2="2394" y2="50.0" style="stroke:#999; stroke-width:3;" />
  <line x1="2394" y1="50.0" x2="2394" y2="50.0" style="stroke:#999; stroke-width:3;" />
  <line x1="2394" y1="50.0" x2="2394" y2="50.0" style="stroke:#999; stroke-width:3;" />
  <line x1="2394" y1="50.0" x2="2414" y2="50.0" style="stroke:#999; stroke-width:3;" />
  <rect class="anc_exon" x="2414" y="35.0" width="115" height="30" style="fill:#87bcbc;fill-opacity:1.00" />
  <line x1="2529" y1="50.0" x2="2569" y2="50.0" style="stroke:#999; stroke-width:3;" />
  <rect class="anc_exon" x="2569" y="35.0" width="32" height="30" style="fill:#87bcbc;fill-opacity:1.00" />
  <line x1="2601" y1="50.0" x2="2621" y2="50.0" style="stroke:#999; stroke-width:3;" />
  <line x1="2621" y1="50.0" x2="2621" y2="50.0" style="stroke:#999; stroke-width:3;" />
  <line x1="2621" y1="50.0" x2="2621" y2="50.0" style="stroke:#999; stroke-width:3;" />
  <line x1="2621" y1="50.0" x2="2641" y2="50.0" style="stroke:#999; stroke-width:3;" />
  <rect class="anc_exon" x="2641" y="35.0" width="98" height="30" style="fill:#87bcbc;fill-opacity:1.00" />
  <line x1="2739" y1="50.0" x2="2759" y2="50.0" style="stroke:#999; stroke-width:3;" />
  <line x1="2759" y1="50.0" x2="2759" y2="50.0" style="stroke:#999; stroke-width:3;" />
  <line x1="2759" y1="50.0" x2="2759" y2="50.0" style="stroke:#999; stroke-width:3;" />
  <line x1="2759" y1="50.0" x2="2779" y2="50.0" style="stroke:#999; stroke-width:3;" />
  <rect class="anc_exon" x="2779" y="35.0" width="64" height="30" style="fill:#87bcbc;fill-opacity:1.00" />
  <line x1="2843" y1="50.0" x2="2883" y2="50.0" style="stroke:#999; stroke-width:3;" />
  <rect class="anc_exon" x="2883" y="35.0" width="88" height="30" style="fill:#87bcbc;fill-opacity:1.00" />
  <line x1="2971" y1="50.0" x2="3011" y2="50.0" style="stroke:#999; stroke-width:3;" />
  <rect class="anc_exon" x="3011" y="35.0" width="98" height="30" style="fill:#87bcbc;fill-opacity:1.00" />
  <line x1="3109" y1="50.0" x2="3129" y2="50.0" style="stroke:#999; stroke-width:3;" />
  <line x1="3129" y1="50.0" x2="3129" y2="50.0" style="stroke:#999; stroke-width:3;" />
  <line x1="3129" y1="50.0" x2="3129" y2="50.0" style="stroke:#999; stroke-width:3;" />
  <line x1="3129" y1="50.0" x2="3149" y2="50.0" style="stroke:#999; stroke-width:3;" />
  <rect class="anc_exon" x="3149" y="35.0" width="120" height="30" style="fill:#87bcbc;fill-opacity:1.00" />
  <line x1="3269" y1="50.0" x2="3289" y2="50.0" style="stroke:#999; stroke-width:3;" />
  <line x1="3289" y1="50.0" x2="3289" y2="50.0" style="stroke:#999; stroke-width:3;" />
  <line x1="3289" y1="50.0" x2="3289" y2="50.0" style="stroke:#999; stroke-width:3;" />
  <line x1="3289" y1="50.0" x2="3309" y2="50.0" style="stroke:#999; stroke-width:3;" />
  <rect class="anc_exon" x="3309" y="35.0" width="256" height="30" style="fill:#87bcbc;fill-opacity:1.00" />
  <line x1="3565" y1="50.0" x2="3585" y2="50.0" style="stroke:#999; stroke-width:3;" />
  <line x1="3585" y1="50.0" x2="3585" y2="50.0" style="stroke:#999; stroke-width:3;" />
  <line x1="3585" y1="50.0" x2="3585" y2="50.0" style="stroke:#999; stroke-width:3;" />
  <line x1="3585" y1="50.0" x2="3605" y2="50.0" style="stroke:#999; stroke-width:3;" />
  <rect class="anc_exon" x="3605" y="35.0" width="1233" height="30" style="fill:#87bcbc;fill-opacity:1.00" />
  <line x1="4838" y1="50.0" x2="4858" y2="50.0" style="stroke:#999; stroke-width:3;" />
  <line x1="4858" y1="50.0" x2="4858" y2="50.0" style="stroke:#999; stroke-width:3;" />
  <line x1="4858" y1="50.0" x2="4858" y2="50.0" style="stroke:#999; stroke-width:3;" />
  <line x1="4858" y1="50.0" x2="4878" y2="50.0" style="stroke:#999; stroke-width:3;" />
  <rect class="anc_exon" x="4878" y="35.0" width="75" height="30" style="fill:#87bcbc;fill-opacity:1.00" />
  <line x1="4953" y1="50.0" x2="4993" y2="50.0" style="stroke:#999; stroke-width:3;" />
  <rect class="anc_exon" x="4993" y="35.0" width="172" height="30" style="fill:#87bcbc;fill-opacity:1.00" />
  <line x1="5165" y1="50.0" x2="5185" y2="50.0" style="stroke:#999; stroke-width:3;" />
  <line x1="5185" y1="50.0" x2="5185" y2="50.0" style="stroke:#999; stroke-width:3;" />
  <line x1="5185" y1="50.0" x2="5185" y2="50.0" style="stroke:#999; stroke-width:3;" />
  <line x1="5185" y1="50.0" x2="5205" y2="50.0" style="stroke:#999; stroke-width:3;" />
  <rect class="anc_exon" x="5205" y="35.0" width="90" height="30" style="fill:#87bcbc;fill-opacity:1.00" />
  <line x1="5295" y1="50.0" x2="5335" y2="50.0" style="stroke:#999; stroke-width:3;" />
  <rect class="anc_exon" x="5335" y="35.0" width="126" height="30" style="fill:#87bcbc;fill-opacity:1.00" />
  <line x1="5461" y1="50.0" x2="5481" y2="50.0" style="stroke:#999; stroke-width:3;" />
  <line x1="5481" y1="50.0" x2="5481" y2="50.0" style="stroke:#999; stroke-width:3;" />
  <line x1="5481" y1="50.0" x2="5481" y2="50.0" style="stroke:#999; stroke-width:3;" />
  <line x1="5481" y1="50.0" x2="5501" y2="50.0" style="stroke:#999; stroke-width:3;" />
  <rect class="anc_exon" x="5501" y="35.0" width="179" height="30" style="fill:#87bcbc;fill-opacity:1.00" />
  <line x1="5680" y1="50.0" x2="5720" y2="50.0" style="stroke:#999; stroke-width:3;" />
  <rect class="anc_exon" x="5720" y="35.0" width="93" height="30" style="fill:#87bcbc;fill-opacity:1.00" />
  <line x1="5813" y1="50.0" x2="5833" y2="50.0" style="stroke:#999; stroke-width:3;" />
  <line x1="5833" y1="50.0" x2="5833" y2="50.0" style="stroke:#999; stroke-width:3;" />
  <line x1="5833" y1="50.0" x2="5833" y2="50.0" style="stroke:#999; stroke-width:3;" />
  <line x1="5833" y1="50.0" x2="5853" y2="50.0" style="stroke:#999; stroke-width:3;" />
  <rect class="anc_exon" x="5853" y="35.0" width="151" height="30" style="fill:#87bcbc;fill-opacity:1.00" />
  <line x1="6004" y1="50.0" x2="6044" y2="50.0" style="stroke:#999; stroke-width:3;" />
  <rect class="anc_exon" x="6044" y="35.0" width="38" height="30" style="fill:#87bcbc;fill-opacity:1.00" />
  <line x1="6082" y1="50.0" x2="6102" y2="50.0" style="stroke:#999; stroke-width:3;" />
  <line x1="6102" y1="50.0" x2="6102" y2="50.0" style="stroke:#999; stroke-width:3;" />
  <line x1="6102" y1="50.0" x2="6102" y2="50.0" style="stroke:#999; stroke-width:3;" />
  <line x1="6102" y1="50.0" x2="6122" y2="50.0" style="stroke:#999; stroke-width:3;" />
  <rect class="anc_exon" x="6122" y="35.0" width="89" height="30" style="fill:#87bcbc;fill-opacity:1.00" />
  <line x1="6211" y1="50.0" x2="6251" y2="50.0" style="stroke:#999; stroke-width:3;" />
  <rect class="anc_exon" x="6251" y="35.0" width="49" height="30" style="fill:#87bcbc;fill-opacity:1.00" />
  <line x1="6300" y1="50.0" x2="6320" y2="50.0" style="stroke:#999; stroke-width:3;" />
  <line x1="6320" y1="50.0" x2="6320" y2="50.0" style="stroke:#999; stroke-width:3;" />
  <line x1="6320" y1="50.0" x2="6320" y2="50.0" style="stroke:#999; stroke-width:3;" />
  <line x1="6320" y1="50.0" x2="6340" y2="50.0" style="stroke:#999; stroke-width:3;" />
  <rect class="anc_exon" x="6340" y="35.0" width="154" height="30" style="fill:#87bcbc;fill-opacity:1.00" />
  <line x1="6494" y1="50.0" x2="6534" y2="50.0" style="stroke:#999; stroke-width:3;" />
  <rect class="anc_exon" x="6534" y="35.0" width="103" height="30" style="fill:#87bcbc;fill-opacity:1.00" />
  <line x1="6637" y1="50.0" x2="6677" y2="50.0" style="stroke:#999; stroke-width:3;" />
  <rect class="anc_exon" x="6677" y="35.0" width="84" height="30" style="fill:#87bcbc;fill-opacity:1.00" />
  <line x1="6761" y1="50.0" x2="6781" y2="50.0" style="stroke:#999; stroke-width:3;" />
  <line x1="6781" y1="50.0" x2="6781" y2="50.0" style="stroke:#999; stroke-width:3;" />
  <line x1="6781" y1="50.0" x2="6781" y2="50.0" style="stroke:#999; stroke-width:3;" />
  <line x1="6781" y1="50.0" x2="6801" y2="50.0" style="stroke:#999; stroke-width:3;" />
  <rect class="anc_exon" x="6801" y="35.0" width="105" height="30" style="fill:#87bcbc;fill-opacity:1.00" />
  <line x1="6906" y1="50.0" x2="6946" y2="50.0" style="stroke:#999; stroke-width:3;" />
  <rect class="anc_exon" x="6946" y="35.0" width="99" height="30" style="fill:#87bcbc;fill-opacity:1.00" />
  <line x1="7045" y1="50.0" x2="7085" y2="50.0" style="stroke:#999; stroke-width:3;" />
  <rect class="anc_exon" x="7085" y="35.0" width="43" height="30" style="fill:#87bcbc;fill-opacity:1.00" />
  <line x1="7128" y1="50.0" x2="7148" y2="50.0" style="stroke:#999; stroke-width:3;" />
  <line x1="7148" y1="50.0" x2="7148" y2="50.0" style="stroke:#999; stroke-width:3;" />
  <line x1="7148" y1="50.0" x2="7148" y2="50.0" style="stroke:#999; stroke-width:3;" />
  <line x1="7148" y1="50.0" x2="7168" y2="50.0" style="stroke:#999; stroke-width:3;" />
  <rect class="anc_exon" x="7168" y="35.0" width="162" height="30" style="fill:#87bcbc;fill-opacity:1.00" />
  <line x1="7330" y1="50.0" x2="7370" y2="50.0" style="stroke:#999; stroke-width:3;" />
  <rect class="anc_exon" x="7370" y="35.0" width="114" height="30" style="fill:#87bcbc;fill-opacity:1.00" />
  <line x1="7484" y1="50.0" x2="7524" y2="50.0" style="stroke:#999; stroke-width:3;" />
  <rect class="anc_exon" x="7524" y="35.0" width="378" height="30" style="fill:#87bcbc;fill-opacity:1.00" />
  <rect class="anc_exon" x="7902" y="35.0" width="0" height="30" style="fill:#87bcbc;fill-opacity:1.00" />
  <text style="" >
<tspan x="0" y="83.0" style="font-size:18px;" >SP XM_031956317_1.1</tspan>  </text>



<script type="text/ecmascript">
<![CDATA[
function draw_bbox(text_id)
{
    var text_elem = document.getElementById(text_id);
    var offset_px = 2;
    var offset_py = 0;
    bbox = text_elem.getBBox();
    var box = document.createElementNS(document.rootElement.namespaceURI,'rect');
    box.setAttribute('x', bbox.x - offset_px);
    box.setAttribute('y', bbox.y - offset_py);
    box.setAttribute('width', bbox.width + offset_px * 2);
    box.setAttribute('height', bbox.height + offset_py * 2);
    box.setAttribute('style','fill: white;'+'stroke: black;'+'stroke-width: 1px;');
    text_elem.insertBefore(box,text_elem.childNodes[0]);

    var svg = text_elem.parentNode;
    svg.appendChild(text_elem);
}

for (var i=1; i < 1; i++)
{
draw_bbox("Mouseover" + i);
}
]]> 
</script>
</svg>
