<svg version="1.1"
xmlns="http://www.w3.org/2000/svg"
xmlns:xlink="http://www.w3.org/1999/xlink"
width="2684" height="100" viewBox = "0 0 2684 100"
onclick="mouseclick(evt)">

<script type="text/ecmascript">

<![CDATA[
    function mouseover(evt, target) { 
    var gv = document.getElementById("globalVariable");
    var previoustarget = gv.firstChild.nodeValue;
    if (previoustarget != "none") 
    {
        	document.getElementById(gv.firstChild.nodeValue).setAttributeNS(null, "visibility", "hidden");
    }
    document.getElementById(target).setAttributeNS(null, "visibility", "visible");
    gv.firstChild.nodeValue = target;
        }

    function mouseclick(evt) { 
    var gv = document.getElementById("globalVariable");
    var previoustarget = gv.firstChild.nodeValue;
    if (previoustarget != "none") {
        	document.getElementById(gv.firstChild.nodeValue).setAttributeNS(null, "visibility", "hidden");
        }
    }
]]>
  </script>
<style type="text/css" >

<![CDATA[
    rect.anc_exon {
              stroke-width:3;
                  }

    rect.non_anc_exon {
              stroke: black; stroke-width:3; stroke-dasharray: 5,5;
                    }

    text {
              font-size: 18px;
              font-family: Courier New;
          }
                    ]]>
</style>

<defs>
    <text x="150" y="40" id="globalVariable">none</text>
</defs>

  <rect class="anc_exon" x="0" y="35.0" width="0" height="30" style="fill:#87bcbc;fill-opacity:1.00" />
  <rect class="anc_exon" x="0" y="35.0" width="132.8" height="30" style="fill:#87bcbc;fill-opacity:1.00" />
  <line x1="132.8" y1="50.0" x2="151.8" y2="50.0" style="stroke:#999; stroke-width:3;" />
  <line x1="151.8" y1="50.0" x2="151.8" y2="50.0" style="stroke:#999; stroke-width:3;" />
  <line x1="151.8" y1="50.0" x2="151.8" y2="50.0" style="stroke:#999; stroke-width:3;" />
  <line x1="151.8" y1="50.0" x2="172.0" y2="50.0" style="stroke:#999; stroke-width:3;" />
  <rect class="anc_exon" x="172" y="35.0" width="213" height="30" style="fill:#87bcbc;fill-opacity:1.00" />
  <line x1="385" y1="50.0" x2="425" y2="50.0" style="stroke:#999; stroke-width:3;" />
  <rect class="anc_exon" x="425" y="35.0" width="60" height="30" style="fill:#87bcbc;fill-opacity:1.00" />
  <line x1="485" y1="50.0" x2="505" y2="50.0" style="stroke:#999; stroke-width:3;" />
  <line x1="505" y1="50.0" x2="505" y2="50.0" style="stroke:#999; stroke-width:3;" />
  <line x1="505" y1="50.0" x2="505" y2="50.0" style="stroke:#999; stroke-width:3;" />
  <line x1="505" y1="50.0" x2="525" y2="50.0" style="stroke:#999; stroke-width:3;" />
  <rect class="anc_exon" x="525" y="35.0" width="136" height="30" style="fill:#87bcbc;fill-opacity:1.00" />
  <line x1="661" y1="50.0" x2="681" y2="50.0" style="stroke:#999; stroke-width:3;" />
  <line x1="681" y1="50.0" x2="681" y2="50.0" style="stroke:#999; stroke-width:3;" />
  <line x1="681" y1="50.0" x2="681" y2="50.0" style="stroke:#999; stroke-width:3;" />
  <line x1="681" y1="50.0" x2="701" y2="50.0" style="stroke:#999; stroke-width:3;" />
  <rect class="anc_exon" x="701" y="35.0" width="99" height="30" style="fill:#87bcbc;fill-opacity:1.00" />
  <line x1="800" y1="50.0" x2="820" y2="50.0" style="stroke:#999; stroke-width:3;" />
  <line x1="820" y1="50.0" x2="820" y2="50.0" style="stroke:#999; stroke-width:3;" />
  <line x1="820" y1="50.0" x2="820" y2="50.0" style="stroke:#999; stroke-width:3;" />
  <line x1="820" y1="50.0" x2="840" y2="50.0" style="stroke:#999; stroke-width:3;" />
  <rect class="anc_exon" x="840" y="35.0" width="152" height="30" style="fill:#87bcbc;fill-opacity:1.00" />
  <line x1="992" y1="50.0" x2="1012" y2="50.0" style="stroke:#999; stroke-width:3;" />
  <line x1="1012" y1="50.0" x2="1012" y2="50.0" style="stroke:#999; stroke-width:3;" />
  <line x1="1012" y1="50.0" x2="1012" y2="50.0" style="stroke:#999; stroke-width:3;" />
  <line x1="1012" y1="50.0" x2="1032" y2="50.0" style="stroke:#999; stroke-width:3;" />
  <rect class="anc_exon" x="1032" y="35.0" width="116" height="30" style="fill:#87bcbc;fill-opacity:1.00" />
  <line x1="1148" y1="50.0" x2="1168" y2="50.0" style="stroke:#999; stroke-width:3;" />
  <line x1="1168" y1="50.0" x2="1168" y2="50.0" style="stroke:#999; stroke-width:3;" />
  <line x1="1168" y1="50.0" x2="1168" y2="50.0" style="stroke:#999; stroke-width:3;" />
  <line x1="1168" y1="50.0" x2="1188" y2="50.0" style="stroke:#999; stroke-width:3;" />
  <rect class="anc_exon" x="1188" y="35.0" width="162" height="30" style="fill:#87bcbc;fill-opacity:1.00" />
  <line x1="1350" y1="50.0" x2="1370" y2="50.0" style="stroke:#999; stroke-width:3;" />
  <line x1="1370" y1="50.0" x2="1370" y2="50.0" style="stroke:#999; stroke-width:3;" />
  <line x1="1370" y1="50.0" x2="1370" y2="50.0" style="stroke:#999; stroke-width:3;" />
  <line x1="1370" y1="50.0" x2="1390" y2="50.0" style="stroke:#999; stroke-width:3;" />
  <rect class="anc_exon" x="1390" y="35.0" width="121" height="30" style="fill:#87bcbc;fill-opacity:1.00" />
  <line x1="1511" y1="50.0" x2="1531" y2="50.0" style="stroke:#999; stroke-width:3;" />
  <line x1="1531" y1="50.0" x2="1531" y2="50.0" style="stroke:#999; stroke-width:3;" />
  <line x1="1531" y1="50.0" x2="1531" y2="50.0" style="stroke:#999; stroke-width:3;" />
  <line x1="1531" y1="50.0" x2="1551" y2="50.0" style="stroke:#999; stroke-width:3;" />
  <rect class="anc_exon" x="1551" y="35.0" width="97" height="30" style="fill:#87bcbc;fill-opacity:1.00" />
  <line x1="1648" y1="50.0" x2="1668" y2="50.0" style="stroke:#999; stroke-width:3;" />
  <line x1="1668" y1="50.0" x2="1668" y2="50.0" style="stroke:#999; stroke-width:3;" />
  <line x1="1668" y1="50.0" x2="1668" y2="50.0" style="stroke:#999; stroke-width:3;" />
  <line x1="1668" y1="50.0" x2="1688" y2="50.0" style="stroke:#999; stroke-width:3;" />
  <rect class="anc_exon" x="1688" y="35.0" width="88" height="30" style="fill:#87bcbc;fill-opacity:1.00" />
  <line x1="1776" y1="50.0" x2="1816" y2="50.0" style="stroke:#999; stroke-width:3;" />
  <rect class="anc_exon" x="1816" y="35.0" width="152" height="30" style="fill:#87bcbc;fill-opacity:1.00" />
  <line x1="1968" y1="50.0" x2="1988" y2="50.0" style="stroke:#999; stroke-width:3;" />
  <line x1="1988" y1="50.0" x2="1988" y2="50.0" style="stroke:#999; stroke-width:3;" />
  <line x1="1988" y1="50.0" x2="1988" y2="50.0" style="stroke:#999; stroke-width:3;" />
  <line x1="1988" y1="50.0" x2="2008" y2="50.0" style="stroke:#999; stroke-width:3;" />
  <rect class="anc_exon" x="2008" y="35.0" width="98" height="30" style="fill:#87bcbc;fill-opacity:1.00" />
  <line x1="2106" y1="50.0" x2="2126" y2="50.0" style="stroke:#999; stroke-width:3;" />
  <line x1="2126" y1="50.0" x2="2126" y2="50.0" style="stroke:#999; stroke-width:3;" />
  <line x1="2126" y1="50.0" x2="2126" y2="50.0" style="stroke:#999; stroke-width:3;" />
  <line x1="2126" y1="50.0" x2="2146" y2="50.0" style="stroke:#999; stroke-width:3;" />
  <rect class="anc_exon" x="2146" y="35.0" width="56" height="30" style="fill:#87bcbc;fill-opacity:1.00" />
  <line x1="2202" y1="50.0" x2="2222" y2="50.0" style="stroke:#999; stroke-width:3;" />
  <line x1="2222" y1="50.0" x2="2222" y2="50.0" style="stroke:#999; stroke-width:3;" />
  <line x1="2222" y1="50.0" x2="2222" y2="50.0" style="stroke:#999; stroke-width:3;" />
  <line x1="2222" y1="50.0" x2="2242" y2="50.0" style="stroke:#999; stroke-width:3;" />
  <rect class="anc_exon" x="2242" y="35.0" width="110" height="30" style="fill:#87bcbc;fill-opacity:1.00" />
  <line x1="2352" y1="50.0" x2="2392" y2="50.0" style="stroke:#999; stroke-width:3;" />
  <rect class="anc_exon" x="2392" y="35.0" width="84" height="30" style="fill:#87bcbc;fill-opacity:1.00" />
  <line x1="2476" y1="50.0" x2="2496" y2="50.0" style="stroke:#999; stroke-width:3;" />
  <line x1="2496" y1="50.0" x2="2496" y2="50.0" style="stroke:#999; stroke-width:3;" />
  <line x1="2496" y1="50.0" x2="2496" y2="50.0" style="stroke:#999; stroke-width:3;" />
  <line x1="2496" y1="50.0" x2="2516" y2="50.0" style="stroke:#999; stroke-width:3;" />
  <rect class="anc_exon" x="2516" y="35.0" width="132" height="30" style="fill:#87bcbc;fill-opacity:1.00" />
  <rect class="anc_exon" x="2648" y="35.0" width="0" height="30" style="fill:#87bcbc;fill-opacity:1.00" />
  <text style="" >
<tspan x="0" y="83.0" style="font-size:18px;" >SP XM_023495522_2.1</tspan>  </text>
  <text style="fill:#121212;" >
<tspan x="1350" y="50.0" style="font-size:18px;fill:#121212;" >ga</tspan>  </text>
  <text style="fill:#121212;" >
<tspan x="1366.96" y="68.0" style="font-size:18px;fill:#121212;" >aa</tspan>  </text>



<script type="text/ecmascript">
<![CDATA[
function draw_bbox(text_id)
{
    var text_elem = document.getElementById(text_id);
    var offset_px = 2;
    var offset_py = 0;
    bbox = text_elem.getBBox();
    var box = document.createElementNS(document.rootElement.namespaceURI,'rect');
    box.setAttribute('x', bbox.x - offset_px);
    box.setAttribute('y', bbox.y - offset_py);
    box.setAttribute('width', bbox.width + offset_px * 2);
    box.setAttribute('height', bbox.height + offset_py * 2);
    box.setAttribute('style','fill: white;'+'stroke: black;'+'stroke-width: 1px;');
    text_elem.insertBefore(box,text_elem.childNodes[0]);

    var svg = text_elem.parentNode;
    svg.appendChild(text_elem);
}

for (var i=1; i < 1; i++)
{
draw_bbox("Mouseover" + i);
}
]]> 
</script>
</svg>
