<svg version="1.1"
xmlns="http://www.w3.org/2000/svg"
xmlns:xlink="http://www.w3.org/1999/xlink"
width="4956" height="100" viewBox = "0 0 4956 100"
onclick="mouseclick(evt)">

<script type="text/ecmascript">

<![CDATA[
    function mouseover(evt, target) { 
    var gv = document.getElementById("globalVariable");
    var previoustarget = gv.firstChild.nodeValue;
    if (previoustarget != "none") 
    {
        	document.getElementById(gv.firstChild.nodeValue).setAttributeNS(null, "visibility", "hidden");
    }
    document.getElementById(target).setAttributeNS(null, "visibility", "visible");
    gv.firstChild.nodeValue = target;
        }

    function mouseclick(evt) { 
    var gv = document.getElementById("globalVariable");
    var previoustarget = gv.firstChild.nodeValue;
    if (previoustarget != "none") {
        	document.getElementById(gv.firstChild.nodeValue).setAttributeNS(null, "visibility", "hidden");
        }
    }
]]>
  </script>
<style type="text/css" >

<![CDATA[
    rect.anc_exon {
              stroke-width:3;
                  }

    rect.non_anc_exon {
              stroke: black; stroke-width:3; stroke-dasharray: 5,5;
                    }

    text {
              font-size: 18px;
              font-family: Courier New;
          }
                    ]]>
</style>

<defs>
    <text x="150" y="40" id="globalVariable">none</text>
</defs>

  <rect class="anc_exon" x="0" y="35.0" width="0" height="30" style="fill:#87bcbc;fill-opacity:1.00" />
  <rect class="anc_exon" x="0" y="35.0" width="60.0" height="30" style="fill:#87bcbc;fill-opacity:1.00" />
  <line x1="60.0" y1="50.0" x2="80.0" y2="50.0" style="stroke:#999; stroke-width:3;" />
  <line x1="80.0" y1="50.0" x2="80.0" y2="50.0" style="stroke:#999; stroke-width:3;" />
  <line x1="80.0" y1="50.0" x2="80.0" y2="50.0" style="stroke:#999; stroke-width:3;" />
  <line x1="80.0" y1="50.0" x2="100.0" y2="50.0" style="stroke:#999; stroke-width:3;" />
  <rect class="anc_exon" x="100" y="35.0" width="45" height="30" style="fill:#87bcbc;fill-opacity:1.00" />
  <line x1="145" y1="50.0" x2="185" y2="50.0" style="stroke:#999; stroke-width:3;" />
  <rect class="anc_exon" x="185" y="35.0" width="32" height="30" style="fill:#87bcbc;fill-opacity:1.00" />
  <line x1="217" y1="50.0" x2="237" y2="50.0" style="stroke:#999; stroke-width:3;" />
  <line x1="237" y1="50.0" x2="237" y2="50.0" style="stroke:#999; stroke-width:3;" />
  <line x1="237" y1="50.0" x2="237" y2="50.0" style="stroke:#999; stroke-width:3;" />
  <line x1="237" y1="50.0" x2="257" y2="50.0" style="stroke:#999; stroke-width:3;" />
  <rect class="anc_exon" x="257" y="35.0" width="28" height="30" style="fill:#878787;fill-opacity:1.00" />
  <line x1="285" y1="50.0" x2="305" y2="50.0" style="stroke:#999; stroke-width:3;" />
  <line x1="305" y1="50.0" x2="305" y2="50.0" style="stroke:#999; stroke-width:3;" />
  <line x1="305" y1="50.0" x2="305" y2="50.0" style="stroke:#999; stroke-width:3;" />
  <line x1="305" y1="50.0" x2="325" y2="50.0" style="stroke:#999; stroke-width:3;" />
  <rect class="anc_exon" x="325" y="35.0" width="96" height="30" style="fill:#87bcbc;fill-opacity:1.00" />
  <line x1="421" y1="50.0" x2="461" y2="50.0" style="stroke:#999; stroke-width:3;" />
  <rect class="anc_exon" x="461" y="35.0" width="112" height="30" style="fill:#87bcbc;fill-opacity:1.00" />
  <line x1="573" y1="50.0" x2="613" y2="50.0" style="stroke:#999; stroke-width:3;" />
  <rect class="anc_exon" x="613" y="35.0" width="55" height="30" style="fill:#87bcbc;fill-opacity:1.00" />
  <line x1="668" y1="50.0" x2="708" y2="50.0" style="stroke:#999; stroke-width:3;" />
  <rect class="anc_exon" x="708" y="35.0" width="80" height="30" style="fill:#87bcbc;fill-opacity:1.00" />
  <line x1="788" y1="50.0" x2="808" y2="50.0" style="stroke:#999; stroke-width:3;" />
  <line x1="808" y1="50.0" x2="808" y2="50.0" style="stroke:#999; stroke-width:3;" />
  <line x1="808" y1="50.0" x2="808" y2="50.0" style="stroke:#999; stroke-width:3;" />
  <line x1="808" y1="50.0" x2="828" y2="50.0" style="stroke:#999; stroke-width:3;" />
  <rect class="anc_exon" x="828" y="35.0" width="61" height="30" style="fill:#87bcbc;fill-opacity:1.00" />
  <line x1="889" y1="50.0" x2="929" y2="50.0" style="stroke:#999; stroke-width:3;" />
  <rect class="anc_exon" x="929" y="35.0" width="52" height="30" style="fill:#87bcbc;fill-opacity:1.00" />
  <line x1="981" y1="50.0" x2="1021" y2="50.0" style="stroke:#999; stroke-width:3;" />
  <rect class="anc_exon" x="1021" y="35.0" width="93" height="30" style="fill:#87bcbc;fill-opacity:1.00" />
  <line x1="1114" y1="50.0" x2="1134" y2="50.0" style="stroke:#999; stroke-width:3;" />
  <line x1="1134" y1="50.0" x2="1134" y2="50.0" style="stroke:#999; stroke-width:3;" />
  <line x1="1134" y1="50.0" x2="1134" y2="50.0" style="stroke:#999; stroke-width:3;" />
  <line x1="1134" y1="50.0" x2="1154" y2="50.0" style="stroke:#999; stroke-width:3;" />
  <rect class="anc_exon" x="1154" y="35.0" width="91" height="30" style="fill:#87bcbc;fill-opacity:1.00" />
  <line x1="1245" y1="50.0" x2="1285" y2="50.0" style="stroke:#999; stroke-width:3;" />
  <rect class="anc_exon" x="1285" y="35.0" width="83" height="30" style="fill:#87bcbc;fill-opacity:1.00" />
  <line x1="1368" y1="50.0" x2="1388" y2="50.0" style="stroke:#999; stroke-width:3;" />
  <line x1="1388" y1="50.0" x2="1388" y2="50.0" style="stroke:#999; stroke-width:3;" />
  <line x1="1388" y1="50.0" x2="1388" y2="50.0" style="stroke:#999; stroke-width:3;" />
  <line x1="1388" y1="50.0" x2="1408" y2="50.0" style="stroke:#999; stroke-width:3;" />
  <rect class="anc_exon" x="1408" y="35.0" width="82" height="30" style="fill:#87bcbc;fill-opacity:1.00" />
  <line x1="1490" y1="50.0" x2="1510" y2="50.0" style="stroke:#999; stroke-width:3;" />
  <line x1="1510" y1="50.0" x2="1510" y2="50.0" style="stroke:#999; stroke-width:3;" />
  <line x1="1510" y1="50.0" x2="1510" y2="50.0" style="stroke:#999; stroke-width:3;" />
  <line x1="1510" y1="50.0" x2="1530" y2="50.0" style="stroke:#999; stroke-width:3;" />
  <rect class="anc_exon" x="1530" y="35.0" width="96" height="30" style="fill:#87bcbc;fill-opacity:1.00" />
  <line x1="1626" y1="50.0" x2="1646" y2="50.0" style="stroke:#999; stroke-width:3;" />
  <line x1="1646" y1="50.0" x2="1646" y2="50.0" style="stroke:#999; stroke-width:3;" />
  <line x1="1646" y1="50.0" x2="1646" y2="50.0" style="stroke:#999; stroke-width:3;" />
  <line x1="1646" y1="50.0" x2="1666" y2="50.0" style="stroke:#999; stroke-width:3;" />
  <rect class="anc_exon" x="1666" y="35.0" width="113" height="30" style="fill:#87bcbc;fill-opacity:1.00" />
  <line x1="1779" y1="50.0" x2="1799" y2="50.0" style="stroke:#999; stroke-width:3;" />
  <line x1="1799" y1="50.0" x2="1799" y2="50.0" style="stroke:#999; stroke-width:3;" />
  <line x1="1799" y1="50.0" x2="1799" y2="50.0" style="stroke:#999; stroke-width:3;" />
  <line x1="1799" y1="50.0" x2="1819" y2="50.0" style="stroke:#999; stroke-width:3;" />
  <rect class="anc_exon" x="1819" y="35.0" width="143" height="30" style="fill:#87bcbc;fill-opacity:1.00" />
  <line x1="1962" y1="50.0" x2="1982" y2="50.0" style="stroke:#999; stroke-width:3;" />
  <line x1="1982" y1="50.0" x2="1982" y2="50.0" style="stroke:#999; stroke-width:3;" />
  <line x1="1982" y1="50.0" x2="1982" y2="50.0" style="stroke:#999; stroke-width:3;" />
  <line x1="1982" y1="50.0" x2="2002" y2="50.0" style="stroke:#999; stroke-width:3;" />
  <rect class="anc_exon" x="2002" y="35.0" width="134" height="30" style="fill:#87bcbc;fill-opacity:1.00" />
  <line x1="2136" y1="50.0" x2="2156" y2="50.0" style="stroke:#999; stroke-width:3;" />
  <line x1="2156" y1="50.0" x2="2156" y2="50.0" style="stroke:#999; stroke-width:3;" />
  <line x1="2156" y1="50.0" x2="2156" y2="50.0" style="stroke:#999; stroke-width:3;" />
  <line x1="2156" y1="50.0" x2="2176" y2="50.0" style="stroke:#999; stroke-width:3;" />
  <rect class="anc_exon" x="2176" y="35.0" width="136" height="30" style="fill:#87bcbc;fill-opacity:1.00" />
  <line x1="2312" y1="50.0" x2="2332" y2="50.0" style="stroke:#999; stroke-width:3;" />
  <line x1="2332" y1="50.0" x2="2332" y2="50.0" style="stroke:#999; stroke-width:3;" />
  <line x1="2332" y1="50.0" x2="2332" y2="50.0" style="stroke:#999; stroke-width:3;" />
  <line x1="2332" y1="50.0" x2="2352" y2="50.0" style="stroke:#999; stroke-width:3;" />
  <rect class="anc_exon" x="2352" y="35.0" width="193" height="30" style="fill:#87bcbc;fill-opacity:1.00" />
  <line x1="2545" y1="50.0" x2="2585" y2="50.0" style="stroke:#999; stroke-width:3;" />
  <rect class="anc_exon" x="2585" y="35.0" width="117" height="30" style="fill:#87bcbc;fill-opacity:1.00" />
  <line x1="2702" y1="50.0" x2="2742" y2="50.0" style="stroke:#999; stroke-width:3;" />
  <rect class="anc_exon" x="2742" y="35.0" width="56" height="30" style="fill:#87bcbc;fill-opacity:1.00" />
  <line x1="2798" y1="50.0" x2="2818" y2="50.0" style="stroke:#999; stroke-width:3;" />
  <line x1="2818" y1="50.0" x2="2818" y2="50.0" style="stroke:#999; stroke-width:3;" />
  <line x1="2818" y1="50.0" x2="2818" y2="50.0" style="stroke:#999; stroke-width:3;" />
  <line x1="2818" y1="50.0" x2="2838" y2="50.0" style="stroke:#999; stroke-width:3;" />
  <rect class="anc_exon" x="2838" y="35.0" width="88" height="30" style="fill:#87bcbc;fill-opacity:1.00" />
  <line x1="2926" y1="50.0" x2="2966" y2="50.0" style="stroke:#999; stroke-width:3;" />
  <rect class="anc_exon" x="2966" y="35.0" width="88" height="30" style="fill:#87bcbc;fill-opacity:1.00" />
  <line x1="3054" y1="50.0" x2="3074" y2="50.0" style="stroke:#999; stroke-width:3;" />
  <line x1="3074" y1="50.0" x2="3074" y2="50.0" style="stroke:#999; stroke-width:3;" />
  <line x1="3074" y1="50.0" x2="3074" y2="50.0" style="stroke:#999; stroke-width:3;" />
  <line x1="3074" y1="50.0" x2="3094" y2="50.0" style="stroke:#999; stroke-width:3;" />
  <rect class="anc_exon" x="3094" y="35.0" width="108" height="30" style="fill:#87bcbc;fill-opacity:1.00" />
  <line x1="3202" y1="50.0" x2="3222" y2="50.0" style="stroke:#999; stroke-width:3;" />
  <line x1="3222" y1="50.0" x2="3222" y2="50.0" style="stroke:#999; stroke-width:3;" />
  <line x1="3222" y1="50.0" x2="3222" y2="50.0" style="stroke:#999; stroke-width:3;" />
  <line x1="3222" y1="50.0" x2="3242" y2="50.0" style="stroke:#999; stroke-width:3;" />
  <rect class="anc_exon" x="3242" y="35.0" width="168" height="30" style="fill:#87bcbc;fill-opacity:1.00" />
  <line x1="3410" y1="50.0" x2="3450" y2="50.0" style="stroke:#999; stroke-width:3;" />
  <rect class="anc_exon" x="3450" y="35.0" width="110" height="30" style="fill:#87bcbc;fill-opacity:1.00" />
  <line x1="3560" y1="50.0" x2="3580" y2="50.0" style="stroke:#999; stroke-width:3;" />
  <line x1="3580" y1="50.0" x2="3580" y2="50.0" style="stroke:#999; stroke-width:3;" />
  <line x1="3580" y1="50.0" x2="3580" y2="50.0" style="stroke:#999; stroke-width:3;" />
  <line x1="3580" y1="50.0" x2="3600" y2="50.0" style="stroke:#999; stroke-width:3;" />
  <rect class="anc_exon" x="3600" y="35.0" width="57" height="30" style="fill:#87bcbc;fill-opacity:1.00" />
  <line x1="3657" y1="50.0" x2="3697" y2="50.0" style="stroke:#999; stroke-width:3;" />
  <rect class="anc_exon" x="3697" y="35.0" width="150" height="30" style="fill:#87bcbc;fill-opacity:1.00" />
  <line x1="3847" y1="50.0" x2="3887" y2="50.0" style="stroke:#999; stroke-width:3;" />
  <rect class="anc_exon" x="3887" y="35.0" width="137" height="30" style="fill:#87bcbc;fill-opacity:1.00" />
  <line x1="4024" y1="50.0" x2="4044" y2="50.0" style="stroke:#999; stroke-width:3;" />
  <line x1="4044" y1="50.0" x2="4044" y2="50.0" style="stroke:#999; stroke-width:3;" />
  <line x1="4044" y1="50.0" x2="4044" y2="50.0" style="stroke:#999; stroke-width:3;" />
  <line x1="4044" y1="50.0" x2="4064" y2="50.0" style="stroke:#999; stroke-width:3;" />
  <rect class="anc_exon" x="4064" y="35.0" width="136" height="30" style="fill:#87bcbc;fill-opacity:1.00" />
  <line x1="4200" y1="50.0" x2="4220" y2="50.0" style="stroke:#999; stroke-width:3;" />
  <line x1="4220" y1="50.0" x2="4220" y2="50.0" style="stroke:#999; stroke-width:3;" />
  <line x1="4220" y1="50.0" x2="4220" y2="50.0" style="stroke:#999; stroke-width:3;" />
  <line x1="4220" y1="50.0" x2="4240" y2="50.0" style="stroke:#999; stroke-width:3;" />
  <rect class="anc_exon" x="4240" y="35.0" width="68" height="30" style="fill:#87bcbc;fill-opacity:1.00" />
  <line x1="4308" y1="50.0" x2="4328" y2="50.0" style="stroke:#999; stroke-width:3;" />
  <line x1="4328" y1="50.0" x2="4328" y2="50.0" style="stroke:#999; stroke-width:3;" />
  <line x1="4328" y1="50.0" x2="4328" y2="50.0" style="stroke:#999; stroke-width:3;" />
  <line x1="4328" y1="50.0" x2="4348" y2="50.0" style="stroke:#999; stroke-width:3;" />
  <rect class="anc_exon" x="4348" y="35.0" width="140" height="30" style="fill:#87bcbc;fill-opacity:1.00" />
  <line x1="4488" y1="50.0" x2="4528" y2="50.0" style="stroke:#999; stroke-width:3;" />
  <rect class="anc_exon" x="4528" y="35.0" width="91" height="30" style="fill:#87bcbc;fill-opacity:1.00" />
  <line x1="4619" y1="50.0" x2="4639" y2="50.0" style="stroke:#999; stroke-width:3;" />
  <line x1="4639" y1="50.0" x2="4639" y2="50.0" style="stroke:#999; stroke-width:3;" />
  <line x1="4639" y1="50.0" x2="4639" y2="50.0" style="stroke:#999; stroke-width:3;" />
  <line x1="4639" y1="50.0" x2="4659" y2="50.0" style="stroke:#999; stroke-width:3;" />
  <rect class="anc_exon" x="4659" y="35.0" width="261" height="30" style="fill:#87bcbc;fill-opacity:1.00" />
  <rect class="anc_exon" x="4920" y="35.0" width="0" height="30" style="fill:#87bcbc;fill-opacity:1.00" />
  <text style="" >
<tspan x="0" y="83.0" style="font-size:18px;" >SP XM_031952035_1.1</tspan>  </text>



<script type="text/ecmascript">
<![CDATA[
function draw_bbox(text_id)
{
    var text_elem = document.getElementById(text_id);
    var offset_px = 2;
    var offset_py = 0;
    bbox = text_elem.getBBox();
    var box = document.createElementNS(document.rootElement.namespaceURI,'rect');
    box.setAttribute('x', bbox.x - offset_px);
    box.setAttribute('y', bbox.y - offset_py);
    box.setAttribute('width', bbox.width + offset_px * 2);
    box.setAttribute('height', bbox.height + offset_py * 2);
    box.setAttribute('style','fill: white;'+'stroke: black;'+'stroke-width: 1px;');
    text_elem.insertBefore(box,text_elem.childNodes[0]);

    var svg = text_elem.parentNode;
    svg.appendChild(text_elem);
}

for (var i=1; i < 1; i++)
{
draw_bbox("Mouseover" + i);
}
]]> 
</script>
</svg>
