<svg version="1.1"
xmlns="http://www.w3.org/2000/svg"
xmlns:xlink="http://www.w3.org/1999/xlink"
width="5898" height="100" viewBox = "0 0 5898 100"
onclick="mouseclick(evt)">

<script type="text/ecmascript">

<![CDATA[
    function mouseover(evt, target) { 
    var gv = document.getElementById("globalVariable");
    var previoustarget = gv.firstChild.nodeValue;
    if (previoustarget != "none") 
    {
        	document.getElementById(gv.firstChild.nodeValue).setAttributeNS(null, "visibility", "hidden");
    }
    document.getElementById(target).setAttributeNS(null, "visibility", "visible");
    gv.firstChild.nodeValue = target;
        }

    function mouseclick(evt) { 
    var gv = document.getElementById("globalVariable");
    var previoustarget = gv.firstChild.nodeValue;
    if (previoustarget != "none") {
        	document.getElementById(gv.firstChild.nodeValue).setAttributeNS(null, "visibility", "hidden");
        }
    }
]]>
  </script>
<style type="text/css" >

<![CDATA[
    rect.anc_exon {
              stroke-width:3;
                  }

    rect.non_anc_exon {
              stroke: black; stroke-width:3; stroke-dasharray: 5,5;
                    }

    text {
              font-size: 18px;
              font-family: Courier New;
          }
                    ]]>
</style>

<defs>
    <text x="150" y="40" id="globalVariable">none</text>
</defs>

  <rect class="anc_exon" x="0" y="35.0" width="0" height="30" style="fill:#87bcbc;fill-opacity:1.00" />
  <rect class="anc_exon" x="0" y="35.0" width="57.6" height="30" style="fill:#87bcbc;fill-opacity:1.00" />
  <line x1="57.6" y1="50.0" x2="97.0" y2="50.0" style="stroke:#999; stroke-width:3;" />
  <rect class="anc_exon" x="97" y="35.0" width="76" height="30" style="fill:#87bcbc;fill-opacity:1.00" />
  <line x1="173" y1="50.0" x2="213" y2="50.0" style="stroke:#999; stroke-width:3;" />
  <rect class="anc_exon" x="213" y="35.0" width="70" height="30" style="fill:#87bcbc;fill-opacity:1.00" />
  <line x1="283" y1="50.0" x2="303" y2="50.0" style="stroke:#999; stroke-width:3;" />
  <line x1="303" y1="50.0" x2="303" y2="50.0" style="stroke:#999; stroke-width:3;" />
  <line x1="303" y1="50.0" x2="303" y2="50.0" style="stroke:#999; stroke-width:3;" />
  <line x1="303" y1="50.0" x2="323" y2="50.0" style="stroke:#999; stroke-width:3;" />
  <rect class="anc_exon" x="323" y="35.0" width="84" height="30" style="fill:#87bcbc;fill-opacity:1.00" />
  <line x1="407" y1="50.0" x2="427" y2="50.0" style="stroke:#999; stroke-width:3;" />
  <line x1="427" y1="50.0" x2="427" y2="50.0" style="stroke:#999; stroke-width:3;" />
  <line x1="427" y1="50.0" x2="427" y2="50.0" style="stroke:#999; stroke-width:3;" />
  <line x1="427" y1="50.0" x2="447" y2="50.0" style="stroke:#999; stroke-width:3;" />
  <rect class="anc_exon" x="447" y="35.0" width="84" height="30" style="fill:#87bcbc;fill-opacity:1.00" />
  <line x1="531" y1="50.0" x2="571" y2="50.0" style="stroke:#999; stroke-width:3;" />
  <rect class="anc_exon" x="571" y="35.0" width="81" height="30" style="fill:#87bcbc;fill-opacity:1.00" />
  <line x1="652" y1="50.0" x2="692" y2="50.0" style="stroke:#999; stroke-width:3;" />
  <rect class="anc_exon" x="692" y="35.0" width="81" height="30" style="fill:#87bcbc;fill-opacity:1.00" />
  <line x1="773" y1="50.0" x2="813" y2="50.0" style="stroke:#999; stroke-width:3;" />
  <rect class="anc_exon" x="813" y="35.0" width="86" height="30" style="fill:#87bcbc;fill-opacity:1.00" />
  <line x1="899" y1="50.0" x2="939" y2="50.0" style="stroke:#999; stroke-width:3;" />
  <rect class="anc_exon" x="939" y="35.0" width="86" height="30" style="fill:#87bcbc;fill-opacity:1.00" />
  <line x1="1025" y1="50.0" x2="1045" y2="50.0" style="stroke:#999; stroke-width:3;" />
  <line x1="1045" y1="50.0" x2="1045" y2="50.0" style="stroke:#999; stroke-width:3;" />
  <line x1="1045" y1="50.0" x2="1045" y2="50.0" style="stroke:#999; stroke-width:3;" />
  <line x1="1045" y1="50.0" x2="1065" y2="50.0" style="stroke:#999; stroke-width:3;" />
  <rect class="anc_exon" x="1065" y="35.0" width="86" height="30" style="fill:#87bcbc;fill-opacity:1.00" />
  <line x1="1151" y1="50.0" x2="1191" y2="50.0" style="stroke:#999; stroke-width:3;" />
  <rect class="anc_exon" x="1191" y="35.0" width="93" height="30" style="fill:#87bcbc;fill-opacity:1.00" />
  <line x1="1284" y1="50.0" x2="1324" y2="50.0" style="stroke:#999; stroke-width:3;" />
  <rect class="anc_exon" x="1324" y="35.0" width="84" height="30" style="fill:#87bcbc;fill-opacity:1.00" />
  <line x1="1408" y1="50.0" x2="1428" y2="50.0" style="stroke:#999; stroke-width:3;" />
  <line x1="1428" y1="50.0" x2="1428" y2="50.0" style="stroke:#999; stroke-width:3;" />
  <line x1="1428" y1="50.0" x2="1428" y2="50.0" style="stroke:#999; stroke-width:3;" />
  <line x1="1428" y1="50.0" x2="1448" y2="50.0" style="stroke:#999; stroke-width:3;" />
  <rect class="anc_exon" x="1448" y="35.0" width="86" height="30" style="fill:#87bcbc;fill-opacity:1.00" />
  <line x1="1534" y1="50.0" x2="1574" y2="50.0" style="stroke:#999; stroke-width:3;" />
  <rect class="anc_exon" x="1574" y="35.0" width="84" height="30" style="fill:#87bcbc;fill-opacity:1.00" />
  <line x1="1658" y1="50.0" x2="1678" y2="50.0" style="stroke:#999; stroke-width:3;" />
  <line x1="1678" y1="50.0" x2="1678" y2="50.0" style="stroke:#999; stroke-width:3;" />
  <line x1="1678" y1="50.0" x2="1678" y2="50.0" style="stroke:#999; stroke-width:3;" />
  <line x1="1678" y1="50.0" x2="1698" y2="50.0" style="stroke:#999; stroke-width:3;" />
  <rect class="anc_exon" x="1698" y="35.0" width="79" height="30" style="fill:#87bcbc;fill-opacity:1.00" />
  <line x1="1777" y1="50.0" x2="1797" y2="50.0" style="stroke:#999; stroke-width:3;" />
  <line x1="1797" y1="50.0" x2="1797" y2="50.0" style="stroke:#999; stroke-width:3;" />
  <line x1="1797" y1="50.0" x2="1797" y2="50.0" style="stroke:#999; stroke-width:3;" />
  <line x1="1797" y1="50.0" x2="1817" y2="50.0" style="stroke:#999; stroke-width:3;" />
  <rect class="anc_exon" x="1817" y="35.0" width="84" height="30" style="fill:#87bcbc;fill-opacity:1.00" />
  <line x1="1901" y1="50.0" x2="1921" y2="50.0" style="stroke:#999; stroke-width:3;" />
  <line x1="1921" y1="50.0" x2="1921" y2="50.0" style="stroke:#999; stroke-width:3;" />
  <line x1="1921" y1="50.0" x2="1921" y2="50.0" style="stroke:#999; stroke-width:3;" />
  <line x1="1921" y1="50.0" x2="1941" y2="50.0" style="stroke:#999; stroke-width:3;" />
  <rect class="anc_exon" x="1941" y="35.0" width="86" height="30" style="fill:#87bcbc;fill-opacity:1.00" />
  <line x1="2027" y1="50.0" x2="2067" y2="50.0" style="stroke:#999; stroke-width:3;" />
  <rect class="anc_exon" x="2067" y="35.0" width="81" height="30" style="fill:#87bcbc;fill-opacity:1.00" />
  <line x1="2148" y1="50.0" x2="2168" y2="50.0" style="stroke:#999; stroke-width:3;" />
  <line x1="2168" y1="50.0" x2="2168" y2="50.0" style="stroke:#999; stroke-width:3;" />
  <line x1="2168" y1="50.0" x2="2168" y2="50.0" style="stroke:#999; stroke-width:3;" />
  <line x1="2168" y1="50.0" x2="2188" y2="50.0" style="stroke:#999; stroke-width:3;" />
  <rect class="anc_exon" x="2188" y="35.0" width="158" height="30" style="fill:#87bcbc;fill-opacity:1.00" />
  <line x1="2346" y1="50.0" x2="2386" y2="50.0" style="stroke:#999; stroke-width:3;" />
  <rect class="anc_exon" x="2386" y="35.0" width="84" height="30" style="fill:#87bcbc;fill-opacity:1.00" />
  <line x1="2470" y1="50.0" x2="2510" y2="50.0" style="stroke:#999; stroke-width:3;" />
  <rect class="anc_exon" x="2510" y="35.0" width="79" height="30" style="fill:#87bcbc;fill-opacity:1.00" />
  <line x1="2589" y1="50.0" x2="2629" y2="50.0" style="stroke:#999; stroke-width:3;" />
  <rect class="anc_exon" x="2629" y="35.0" width="84" height="30" style="fill:#87bcbc;fill-opacity:1.00" />
  <line x1="2713" y1="50.0" x2="2753" y2="50.0" style="stroke:#999; stroke-width:3;" />
  <rect class="anc_exon" x="2753" y="35.0" width="86" height="30" style="fill:#87bcbc;fill-opacity:1.00" />
  <line x1="2839" y1="50.0" x2="2879" y2="50.0" style="stroke:#999; stroke-width:3;" />
  <rect class="anc_exon" x="2879" y="35.0" width="249" height="30" style="fill:#87bcbc;fill-opacity:1.00" />
  <line x1="3128" y1="50.0" x2="3168" y2="50.0" style="stroke:#999; stroke-width:3;" />
  <rect class="anc_exon" x="3168" y="35.0" width="84" height="30" style="fill:#87bcbc;fill-opacity:1.00" />
  <line x1="3252" y1="50.0" x2="3272" y2="50.0" style="stroke:#999; stroke-width:3;" />
  <line x1="3272" y1="50.0" x2="3272" y2="50.0" style="stroke:#999; stroke-width:3;" />
  <line x1="3272" y1="50.0" x2="3272" y2="50.0" style="stroke:#999; stroke-width:3;" />
  <line x1="3272" y1="50.0" x2="3292" y2="50.0" style="stroke:#999; stroke-width:3;" />
  <rect class="anc_exon" x="3292" y="35.0" width="79" height="30" style="fill:#87bcbc;fill-opacity:1.00" />
  <line x1="3371" y1="50.0" x2="3411" y2="50.0" style="stroke:#999; stroke-width:3;" />
  <rect class="anc_exon" x="3411" y="35.0" width="84" height="30" style="fill:#87bcbc;fill-opacity:1.00" />
  <line x1="3495" y1="50.0" x2="3535" y2="50.0" style="stroke:#999; stroke-width:3;" />
  <rect class="anc_exon" x="3535" y="35.0" width="86" height="30" style="fill:#87bcbc;fill-opacity:1.00" />
  <line x1="3621" y1="50.0" x2="3661" y2="50.0" style="stroke:#999; stroke-width:3;" />
  <rect class="anc_exon" x="3661" y="35.0" width="91" height="30" style="fill:#87bcbc;fill-opacity:1.00" />
  <line x1="3752" y1="50.0" x2="3772" y2="50.0" style="stroke:#999; stroke-width:3;" />
  <line x1="3772" y1="50.0" x2="3772" y2="50.0" style="stroke:#999; stroke-width:3;" />
  <line x1="3772" y1="50.0" x2="3772" y2="50.0" style="stroke:#999; stroke-width:3;" />
  <line x1="3772" y1="50.0" x2="3792" y2="50.0" style="stroke:#999; stroke-width:3;" />
  <rect class="anc_exon" x="3792" y="35.0" width="158" height="30" style="fill:#87bcbc;fill-opacity:1.00" />
  <line x1="3950" y1="50.0" x2="3990" y2="50.0" style="stroke:#999; stroke-width:3;" />
  <rect class="anc_exon" x="3990" y="35.0" width="84" height="30" style="fill:#87bcbc;fill-opacity:1.00" />
  <line x1="4074" y1="50.0" x2="4114" y2="50.0" style="stroke:#999; stroke-width:3;" />
  <rect class="anc_exon" x="4114" y="35.0" width="79" height="30" style="fill:#87bcbc;fill-opacity:1.00" />
  <line x1="4193" y1="50.0" x2="4213" y2="50.0" style="stroke:#999; stroke-width:3;" />
  <line x1="4213" y1="50.0" x2="4213" y2="50.0" style="stroke:#999; stroke-width:3;" />
  <line x1="4213" y1="50.0" x2="4213" y2="50.0" style="stroke:#999; stroke-width:3;" />
  <line x1="4213" y1="50.0" x2="4233" y2="50.0" style="stroke:#999; stroke-width:3;" />
  <rect class="anc_exon" x="4233" y="35.0" width="84" height="30" style="fill:#87bcbc;fill-opacity:1.00" />
  <line x1="4317" y1="50.0" x2="4357" y2="50.0" style="stroke:#999; stroke-width:3;" />
  <rect class="anc_exon" x="4357" y="35.0" width="86" height="30" style="fill:#87bcbc;fill-opacity:1.00" />
  <line x1="4443" y1="50.0" x2="4483" y2="50.0" style="stroke:#999; stroke-width:3;" />
  <rect class="anc_exon" x="4483" y="35.0" width="249" height="30" style="fill:#87bcbc;fill-opacity:1.00" />
  <line x1="4732" y1="50.0" x2="4752" y2="50.0" style="stroke:#999; stroke-width:3;" />
  <line x1="4752" y1="50.0" x2="4752" y2="50.0" style="stroke:#999; stroke-width:3;" />
  <line x1="4752" y1="50.0" x2="4752" y2="50.0" style="stroke:#999; stroke-width:3;" />
  <line x1="4752" y1="50.0" x2="4772" y2="50.0" style="stroke:#999; stroke-width:3;" />
  <rect class="anc_exon" x="4772" y="35.0" width="84" height="30" style="fill:#87bcbc;fill-opacity:1.00" />
  <line x1="4856" y1="50.0" x2="4896" y2="50.0" style="stroke:#999; stroke-width:3;" />
  <rect class="anc_exon" x="4896" y="35.0" width="79" height="30" style="fill:#87bcbc;fill-opacity:1.00" />
  <line x1="4975" y1="50.0" x2="5015" y2="50.0" style="stroke:#999; stroke-width:3;" />
  <rect class="anc_exon" x="5015" y="35.0" width="84" height="30" style="fill:#87bcbc;fill-opacity:1.00" />
  <line x1="5099" y1="50.0" x2="5119" y2="50.0" style="stroke:#999; stroke-width:3;" />
  <line x1="5119" y1="50.0" x2="5119" y2="50.0" style="stroke:#999; stroke-width:3;" />
  <line x1="5119" y1="50.0" x2="5119" y2="50.0" style="stroke:#999; stroke-width:3;" />
  <line x1="5119" y1="50.0" x2="5139" y2="50.0" style="stroke:#999; stroke-width:3;" />
  <rect class="anc_exon" x="5139" y="35.0" width="86" height="30" style="fill:#87bcbc;fill-opacity:1.00" />
  <line x1="5225" y1="50.0" x2="5265" y2="50.0" style="stroke:#999; stroke-width:3;" />
  <rect class="anc_exon" x="5265" y="35.0" width="249" height="30" style="fill:#87bcbc;fill-opacity:1.00" />
  <line x1="5514" y1="50.0" x2="5554" y2="50.0" style="stroke:#999; stroke-width:3;" />
  <rect class="anc_exon" x="5554" y="35.0" width="105" height="30" style="fill:#87bcbc;fill-opacity:1.00" />
  <line x1="5659" y1="50.0" x2="5699" y2="50.0" style="stroke:#999; stroke-width:3;" />
  <rect class="anc_exon" x="5699" y="35.0" width="163" height="30" style="fill:#87bcbc;fill-opacity:1.00" />
  <rect class="anc_exon" x="5862" y="35.0" width="0" height="30" style="fill:#87bcbc;fill-opacity:1.00" />
  <text style="" >
<tspan x="0" y="83.0" style="font-size:18px;" >SP XM_012540998_3.1</tspan>  </text>
  <text style="fill:#121212;" >
<tspan x="299.96" y="68.0" style="font-size:18px;fill:#121212;" >aa</tspan>  </text>



<script type="text/ecmascript">
<![CDATA[
function draw_bbox(text_id)
{
    var text_elem = document.getElementById(text_id);
    var offset_px = 2;
    var offset_py = 0;
    bbox = text_elem.getBBox();
    var box = document.createElementNS(document.rootElement.namespaceURI,'rect');
    box.setAttribute('x', bbox.x - offset_px);
    box.setAttribute('y', bbox.y - offset_py);
    box.setAttribute('width', bbox.width + offset_px * 2);
    box.setAttribute('height', bbox.height + offset_py * 2);
    box.setAttribute('style','fill: white;'+'stroke: black;'+'stroke-width: 1px;');
    text_elem.insertBefore(box,text_elem.childNodes[0]);

    var svg = text_elem.parentNode;
    svg.appendChild(text_elem);
}

for (var i=1; i < 1; i++)
{
draw_bbox("Mouseover" + i);
}
]]> 
</script>
</svg>
