<svg version="1.1"
xmlns="http://www.w3.org/2000/svg"
xmlns:xlink="http://www.w3.org/1999/xlink"
width="2767" height="100" viewBox = "0 0 2767 100"
onclick="mouseclick(evt)">

<script type="text/ecmascript">

<![CDATA[
    function mouseover(evt, target) { 
    var gv = document.getElementById("globalVariable");
    var previoustarget = gv.firstChild.nodeValue;
    if (previoustarget != "none") 
    {
        	document.getElementById(gv.firstChild.nodeValue).setAttributeNS(null, "visibility", "hidden");
    }
    document.getElementById(target).setAttributeNS(null, "visibility", "visible");
    gv.firstChild.nodeValue = target;
        }

    function mouseclick(evt) { 
    var gv = document.getElementById("globalVariable");
    var previoustarget = gv.firstChild.nodeValue;
    if (previoustarget != "none") {
        	document.getElementById(gv.firstChild.nodeValue).setAttributeNS(null, "visibility", "hidden");
        }
    }
]]>
  </script>
<style type="text/css" >

<![CDATA[
    rect.anc_exon {
              stroke-width:3;
                  }

    rect.non_anc_exon {
              stroke: black; stroke-width:3; stroke-dasharray: 5,5;
                    }

    text {
              font-size: 18px;
              font-family: Courier New;
          }
                    ]]>
</style>

<defs>
    <text x="150" y="40" id="globalVariable">none</text>
</defs>

  <rect class="anc_exon" x="0" y="35.0" width="0" height="30" style="fill:#87bcbc;fill-opacity:1.00" />
  <rect class="anc_exon" x="0" y="35.0" width="524.8000000000001" height="30" style="fill:#87bcbc;fill-opacity:1.00" />
  <line x1="524.8000000000001" y1="50.0" x2="543.8000000000001" y2="50.0" style="stroke:#999; stroke-width:3;" />
  <line x1="543.8000000000001" y1="50.0" x2="543.8000000000001" y2="50.0" style="stroke:#999; stroke-width:3;" />
  <line x1="543.8000000000001" y1="50.0" x2="543.8000000000001" y2="50.0" style="stroke:#999; stroke-width:3;" />
  <line x1="543.8000000000001" y1="50.0" x2="564.0" y2="50.0" style="stroke:#999; stroke-width:3;" />
  <rect class="anc_exon" x="564" y="35.0" width="101" height="30" style="fill:#87bcbc;fill-opacity:1.00" />
  <line x1="665" y1="50.0" x2="705" y2="50.0" style="stroke:#999; stroke-width:3;" />
  <rect class="anc_exon" x="705" y="35.0" width="103" height="30" style="fill:#87bcbc;fill-opacity:1.00" />
  <line x1="808" y1="50.0" x2="828" y2="50.0" style="stroke:#999; stroke-width:3;" />
  <line x1="828" y1="50.0" x2="828" y2="50.0" style="stroke:#999; stroke-width:3;" />
  <line x1="828" y1="50.0" x2="828" y2="50.0" style="stroke:#999; stroke-width:3;" />
  <line x1="828" y1="50.0" x2="848" y2="50.0" style="stroke:#999; stroke-width:3;" />
  <rect class="anc_exon" x="848" y="35.0" width="170" height="30" style="fill:#87bcbc;fill-opacity:1.00" />
  <line x1="1018" y1="50.0" x2="1058" y2="50.0" style="stroke:#999; stroke-width:3;" />
  <rect class="anc_exon" x="1058" y="35.0" width="96" height="30" style="fill:#87bcbc;fill-opacity:1.00" />
  <line x1="1154" y1="50.0" x2="1194" y2="50.0" style="stroke:#999; stroke-width:3;" />
  <rect class="anc_exon" x="1194" y="35.0" width="84" height="30" style="fill:#87bcbc;fill-opacity:1.00" />
  <line x1="1278" y1="50.0" x2="1318" y2="50.0" style="stroke:#999; stroke-width:3;" />
  <rect class="anc_exon" x="1318" y="35.0" width="79" height="30" style="fill:#87bcbc;fill-opacity:1.00" />
  <line x1="1397" y1="50.0" x2="1437" y2="50.0" style="stroke:#999; stroke-width:3;" />
  <rect class="anc_exon" x="1437" y="35.0" width="69" height="30" style="fill:#87bcbc;fill-opacity:1.00" />
  <line x1="1506" y1="50.0" x2="1546" y2="50.0" style="stroke:#999; stroke-width:3;" />
  <rect class="anc_exon" x="1546" y="35.0" width="114" height="30" style="fill:#87bcbc;fill-opacity:1.00" />
  <line x1="1660" y1="50.0" x2="1700" y2="50.0" style="stroke:#999; stroke-width:3;" />
  <rect class="anc_exon" x="1700" y="35.0" width="204" height="30" style="fill:#87bcbc;fill-opacity:1.00" />
  <line x1="1904" y1="50.0" x2="1944" y2="50.0" style="stroke:#999; stroke-width:3;" />
  <rect class="anc_exon" x="1944" y="35.0" width="152" height="30" style="fill:#87bcbc;fill-opacity:1.00" />
  <line x1="2096" y1="50.0" x2="2116" y2="50.0" style="stroke:#999; stroke-width:3;" />
  <line x1="2116" y1="50.0" x2="2116" y2="50.0" style="stroke:#999; stroke-width:3;" />
  <line x1="2116" y1="50.0" x2="2116" y2="50.0" style="stroke:#999; stroke-width:3;" />
  <line x1="2116" y1="50.0" x2="2136" y2="50.0" style="stroke:#999; stroke-width:3;" />
  <rect class="anc_exon" x="2136" y="35.0" width="64" height="30" style="fill:#87bcbc;fill-opacity:1.00" />
  <line x1="2200" y1="50.0" x2="2220" y2="50.0" style="stroke:#999; stroke-width:3;" />
  <line x1="2220" y1="50.0" x2="2220" y2="50.0" style="stroke:#999; stroke-width:3;" />
  <line x1="2220" y1="50.0" x2="2220" y2="50.0" style="stroke:#999; stroke-width:3;" />
  <line x1="2220" y1="50.0" x2="2240" y2="50.0" style="stroke:#999; stroke-width:3;" />
  <rect class="anc_exon" x="2240" y="35.0" width="168" height="30" style="fill:#87bcbc;fill-opacity:1.00" />
  <line x1="2408" y1="50.0" x2="2448" y2="50.0" style="stroke:#999; stroke-width:3;" />
  <rect class="anc_exon" x="2448" y="35.0" width="176" height="30" style="fill:#87bcbc;fill-opacity:1.00" />
  <line x1="2624" y1="50.0" x2="2664" y2="50.0" style="stroke:#999; stroke-width:3;" />
  <rect class="anc_exon" x="2664" y="35.0" width="67" height="30" style="fill:#87bcbc;fill-opacity:1.00" />
  <rect class="anc_exon" x="2731" y="35.0" width="0" height="30" style="fill:#87bcbc;fill-opacity:1.00" />
  <text style="" >
<tspan x="0" y="83.0" style="font-size:18px;" >SP XM_003755374_4.1</tspan>  </text>



<script type="text/ecmascript">
<![CDATA[
function draw_bbox(text_id)
{
    var text_elem = document.getElementById(text_id);
    var offset_px = 2;
    var offset_py = 0;
    bbox = text_elem.getBBox();
    var box = document.createElementNS(document.rootElement.namespaceURI,'rect');
    box.setAttribute('x', bbox.x - offset_px);
    box.setAttribute('y', bbox.y - offset_py);
    box.setAttribute('width', bbox.width + offset_px * 2);
    box.setAttribute('height', bbox.height + offset_py * 2);
    box.setAttribute('style','fill: white;'+'stroke: black;'+'stroke-width: 1px;');
    text_elem.insertBefore(box,text_elem.childNodes[0]);

    var svg = text_elem.parentNode;
    svg.appendChild(text_elem);
}

for (var i=1; i < 1; i++)
{
draw_bbox("Mouseover" + i);
}
]]> 
</script>
</svg>
