<svg version="1.1"
xmlns="http://www.w3.org/2000/svg"
xmlns:xlink="http://www.w3.org/1999/xlink"
width="2820" height="100" viewBox = "0 0 2820 100"
onclick="mouseclick(evt)">

<script type="text/ecmascript">

<![CDATA[
    function mouseover(evt, target) { 
    var gv = document.getElementById("globalVariable");
    var previoustarget = gv.firstChild.nodeValue;
    if (previoustarget != "none") 
    {
        	document.getElementById(gv.firstChild.nodeValue).setAttributeNS(null, "visibility", "hidden");
    }
    document.getElementById(target).setAttributeNS(null, "visibility", "visible");
    gv.firstChild.nodeValue = target;
        }

    function mouseclick(evt) { 
    var gv = document.getElementById("globalVariable");
    var previoustarget = gv.firstChild.nodeValue;
    if (previoustarget != "none") {
        	document.getElementById(gv.firstChild.nodeValue).setAttributeNS(null, "visibility", "hidden");
        }
    }
]]>
  </script>
<style type="text/css" >

<![CDATA[
    rect.anc_exon {
              stroke-width:3;
                  }

    rect.non_anc_exon {
              stroke: black; stroke-width:3; stroke-dasharray: 5,5;
                    }

    text {
              font-size: 18px;
              font-family: Courier New;
          }
                    ]]>
</style>

<defs>
    <text x="150" y="40" id="globalVariable">none</text>
</defs>

  <rect class="anc_exon" x="0" y="35.0" width="0" height="30" style="fill:#87bcbc;fill-opacity:1.00" />
  <rect class="anc_exon" x="0" y="35.0" width="51.2" height="30" style="fill:#87bcbc;fill-opacity:1.00" />
  <line x1="51.2" y1="50.0" x2="70.2" y2="50.0" style="stroke:#999; stroke-width:3;" />
  <line x1="70.2" y1="50.0" x2="70.2" y2="50.0" style="stroke:#999; stroke-width:3;" />
  <line x1="70.2" y1="50.0" x2="70.2" y2="50.0" style="stroke:#999; stroke-width:3;" />
  <line x1="70.2" y1="50.0" x2="91.0" y2="50.0" style="stroke:#999; stroke-width:3;" />
  <rect class="anc_exon" x="91" y="35.0" width="63" height="30" style="fill:#87bcbc;fill-opacity:1.00" />
  <line x1="154" y1="50.0" x2="174" y2="50.0" style="stroke:#999; stroke-width:3;" />
  <line x1="174" y1="50.0" x2="174" y2="50.0" style="stroke:#999; stroke-width:3;" />
  <line x1="174" y1="50.0" x2="174" y2="50.0" style="stroke:#999; stroke-width:3;" />
  <line x1="174" y1="50.0" x2="194" y2="50.0" style="stroke:#999; stroke-width:3;" />
  <rect class="anc_exon" x="194" y="35.0" width="46" height="30" style="fill:#87bcbc;fill-opacity:1.00" />
  <line x1="240" y1="50.0" x2="260" y2="50.0" style="stroke:#999; stroke-width:3;" />
  <line x1="260" y1="50.0" x2="260" y2="50.0" style="stroke:#999; stroke-width:3;" />
  <line x1="260" y1="50.0" x2="260" y2="50.0" style="stroke:#999; stroke-width:3;" />
  <line x1="260" y1="50.0" x2="280" y2="50.0" style="stroke:#999; stroke-width:3;" />
  <rect class="anc_exon" x="280" y="35.0" width="74" height="30" style="fill:#87bcbc;fill-opacity:1.00" />
  <line x1="354" y1="50.0" x2="374" y2="50.0" style="stroke:#999; stroke-width:3;" />
  <line x1="374" y1="50.0" x2="374" y2="50.0" style="stroke:#999; stroke-width:3;" />
  <line x1="374" y1="50.0" x2="374" y2="50.0" style="stroke:#999; stroke-width:3;" />
  <line x1="374" y1="50.0" x2="394" y2="50.0" style="stroke:#999; stroke-width:3;" />
  <rect class="anc_exon" x="394" y="35.0" width="76" height="30" style="fill:#87bcbc;fill-opacity:1.00" />
  <line x1="470" y1="50.0" x2="490" y2="50.0" style="stroke:#999; stroke-width:3;" />
  <line x1="490" y1="50.0" x2="490" y2="50.0" style="stroke:#999; stroke-width:3;" />
  <line x1="490" y1="50.0" x2="490" y2="50.0" style="stroke:#999; stroke-width:3;" />
  <line x1="490" y1="50.0" x2="510" y2="50.0" style="stroke:#999; stroke-width:3;" />
  <rect class="anc_exon" x="510" y="35.0" width="53" height="30" style="fill:#87bcbc;fill-opacity:1.00" />
  <line x1="563" y1="50.0" x2="583" y2="50.0" style="stroke:#999; stroke-width:3;" />
  <line x1="583" y1="50.0" x2="583" y2="50.0" style="stroke:#999; stroke-width:3;" />
  <line x1="583" y1="50.0" x2="583" y2="50.0" style="stroke:#999; stroke-width:3;" />
  <line x1="583" y1="50.0" x2="603" y2="50.0" style="stroke:#999; stroke-width:3;" />
  <rect class="anc_exon" x="603" y="35.0" width="218" height="30" style="fill:#87bcbc;fill-opacity:1.00" />
  <line x1="821" y1="50.0" x2="841" y2="50.0" style="stroke:#999; stroke-width:3;" />
  <line x1="841" y1="50.0" x2="841" y2="50.0" style="stroke:#999; stroke-width:3;" />
  <line x1="841" y1="50.0" x2="841" y2="50.0" style="stroke:#999; stroke-width:3;" />
  <line x1="841" y1="50.0" x2="861" y2="50.0" style="stroke:#999; stroke-width:3;" />
  <rect class="anc_exon" x="861" y="35.0" width="108" height="30" style="fill:#87bcbc;fill-opacity:1.00" />
  <line x1="969" y1="50.0" x2="989" y2="50.0" style="stroke:#999; stroke-width:3;" />
  <line x1="989" y1="50.0" x2="989" y2="50.0" style="stroke:#999; stroke-width:3;" />
  <line x1="989" y1="50.0" x2="989" y2="50.0" style="stroke:#999; stroke-width:3;" />
  <line x1="989" y1="50.0" x2="1009" y2="50.0" style="stroke:#999; stroke-width:3;" />
  <rect class="anc_exon" x="1009" y="35.0" width="45" height="30" style="fill:#87bcbc;fill-opacity:1.00" />
  <line x1="1054" y1="50.0" x2="1074" y2="50.0" style="stroke:#999; stroke-width:3;" />
  <line x1="1074" y1="50.0" x2="1074" y2="50.0" style="stroke:#999; stroke-width:3;" />
  <line x1="1074" y1="50.0" x2="1074" y2="50.0" style="stroke:#999; stroke-width:3;" />
  <line x1="1074" y1="50.0" x2="1094" y2="50.0" style="stroke:#999; stroke-width:3;" />
  <rect class="anc_exon" x="1094" y="35.0" width="57" height="30" style="fill:#87bcbc;fill-opacity:1.00" />
  <line x1="1151" y1="50.0" x2="1171" y2="50.0" style="stroke:#999; stroke-width:3;" />
  <line x1="1171" y1="50.0" x2="1171" y2="50.0" style="stroke:#999; stroke-width:3;" />
  <line x1="1171" y1="50.0" x2="1171" y2="50.0" style="stroke:#999; stroke-width:3;" />
  <line x1="1171" y1="50.0" x2="1191" y2="50.0" style="stroke:#999; stroke-width:3;" />
  <rect class="anc_exon" x="1191" y="35.0" width="34" height="30" style="fill:#87bcbc;fill-opacity:1.00" />
  <line x1="1225" y1="50.0" x2="1245" y2="50.0" style="stroke:#999; stroke-width:3;" />
  <line x1="1245" y1="50.0" x2="1245" y2="50.0" style="stroke:#999; stroke-width:3;" />
  <line x1="1245" y1="50.0" x2="1245" y2="50.0" style="stroke:#999; stroke-width:3;" />
  <line x1="1245" y1="50.0" x2="1265" y2="50.0" style="stroke:#999; stroke-width:3;" />
  <rect class="anc_exon" x="1265" y="35.0" width="110" height="30" style="fill:#87bcbc;fill-opacity:1.00" />
  <line x1="1375" y1="50.0" x2="1395" y2="50.0" style="stroke:#999; stroke-width:3;" />
  <line x1="1395" y1="50.0" x2="1395" y2="50.0" style="stroke:#999; stroke-width:3;" />
  <line x1="1395" y1="50.0" x2="1395" y2="50.0" style="stroke:#999; stroke-width:3;" />
  <line x1="1395" y1="50.0" x2="1415" y2="50.0" style="stroke:#999; stroke-width:3;" />
  <rect class="anc_exon" x="1415" y="35.0" width="74" height="30" style="fill:#87bcbc;fill-opacity:1.00" />
  <line x1="1489" y1="50.0" x2="1509" y2="50.0" style="stroke:#999; stroke-width:3;" />
  <line x1="1509" y1="50.0" x2="1509" y2="50.0" style="stroke:#999; stroke-width:3;" />
  <line x1="1509" y1="50.0" x2="1509" y2="50.0" style="stroke:#999; stroke-width:3;" />
  <line x1="1509" y1="50.0" x2="1529" y2="50.0" style="stroke:#999; stroke-width:3;" />
  <rect class="anc_exon" x="1529" y="35.0" width="44" height="30" style="fill:#87bcbc;fill-opacity:1.00" />
  <line x1="1573" y1="50.0" x2="1593" y2="50.0" style="stroke:#999; stroke-width:3;" />
  <line x1="1593" y1="50.0" x2="1593" y2="50.0" style="stroke:#999; stroke-width:3;" />
  <line x1="1593" y1="50.0" x2="1593" y2="50.0" style="stroke:#999; stroke-width:3;" />
  <line x1="1593" y1="50.0" x2="1613" y2="50.0" style="stroke:#999; stroke-width:3;" />
  <rect class="anc_exon" x="1613" y="35.0" width="96" height="30" style="fill:#87bcbc;fill-opacity:1.00" />
  <line x1="1709" y1="50.0" x2="1749" y2="50.0" style="stroke:#999; stroke-width:3;" />
  <rect class="anc_exon" x="1749" y="35.0" width="47" height="30" style="fill:#87bcbc;fill-opacity:1.00" />
  <line x1="1796" y1="50.0" x2="1836" y2="50.0" style="stroke:#999; stroke-width:3;" />
  <rect class="anc_exon" x="1836" y="35.0" width="123" height="30" style="fill:#87bcbc;fill-opacity:1.00" />
  <line x1="1959" y1="50.0" x2="1979" y2="50.0" style="stroke:#999; stroke-width:3;" />
  <line x1="1979" y1="50.0" x2="1979" y2="50.0" style="stroke:#999; stroke-width:3;" />
  <line x1="1979" y1="50.0" x2="1979" y2="50.0" style="stroke:#999; stroke-width:3;" />
  <line x1="1979" y1="50.0" x2="1999" y2="50.0" style="stroke:#999; stroke-width:3;" />
  <rect class="anc_exon" x="1999" y="35.0" width="97" height="30" style="fill:#87bcbc;fill-opacity:1.00" />
  <line x1="2096" y1="50.0" x2="2116" y2="50.0" style="stroke:#999; stroke-width:3;" />
  <line x1="2116" y1="50.0" x2="2116" y2="50.0" style="stroke:#999; stroke-width:3;" />
  <line x1="2116" y1="50.0" x2="2116" y2="50.0" style="stroke:#999; stroke-width:3;" />
  <line x1="2116" y1="50.0" x2="2136" y2="50.0" style="stroke:#999; stroke-width:3;" />
  <rect class="anc_exon" x="2136" y="35.0" width="70" height="30" style="fill:#87bcbc;fill-opacity:1.00" />
  <line x1="2206" y1="50.0" x2="2226" y2="50.0" style="stroke:#999; stroke-width:3;" />
  <line x1="2226" y1="50.0" x2="2226" y2="50.0" style="stroke:#999; stroke-width:3;" />
  <line x1="2226" y1="50.0" x2="2226" y2="50.0" style="stroke:#999; stroke-width:3;" />
  <line x1="2226" y1="50.0" x2="2246" y2="50.0" style="stroke:#999; stroke-width:3;" />
  <rect class="anc_exon" x="2246" y="35.0" width="59" height="30" style="fill:#87bcbc;fill-opacity:1.00" />
  <line x1="2305" y1="50.0" x2="2325" y2="50.0" style="stroke:#999; stroke-width:3;" />
  <line x1="2325" y1="50.0" x2="2325" y2="50.0" style="stroke:#999; stroke-width:3;" />
  <line x1="2325" y1="50.0" x2="2325" y2="50.0" style="stroke:#999; stroke-width:3;" />
  <line x1="2325" y1="50.0" x2="2345" y2="50.0" style="stroke:#999; stroke-width:3;" />
  <rect class="anc_exon" x="2345" y="35.0" width="52" height="30" style="fill:#87bcbc;fill-opacity:1.00" />
  <line x1="2397" y1="50.0" x2="2417" y2="50.0" style="stroke:#999; stroke-width:3;" />
  <line x1="2417" y1="50.0" x2="2417" y2="50.0" style="stroke:#999; stroke-width:3;" />
  <line x1="2417" y1="50.0" x2="2417" y2="50.0" style="stroke:#999; stroke-width:3;" />
  <line x1="2417" y1="50.0" x2="2437" y2="50.0" style="stroke:#999; stroke-width:3;" />
  <rect class="anc_exon" x="2437" y="35.0" width="83" height="30" style="fill:#87bcbc;fill-opacity:1.00" />
  <line x1="2520" y1="50.0" x2="2540" y2="50.0" style="stroke:#999; stroke-width:3;" />
  <line x1="2540" y1="50.0" x2="2540" y2="50.0" style="stroke:#999; stroke-width:3;" />
  <line x1="2540" y1="50.0" x2="2540" y2="50.0" style="stroke:#999; stroke-width:3;" />
  <line x1="2540" y1="50.0" x2="2560" y2="50.0" style="stroke:#999; stroke-width:3;" />
  <rect class="anc_exon" x="2560" y="35.0" width="77" height="30" style="fill:#87bcbc;fill-opacity:1.00" />
  <line x1="2637" y1="50.0" x2="2657" y2="50.0" style="stroke:#999; stroke-width:3;" />
  <line x1="2657" y1="50.0" x2="2657" y2="50.0" style="stroke:#999; stroke-width:3;" />
  <line x1="2657" y1="50.0" x2="2657" y2="50.0" style="stroke:#999; stroke-width:3;" />
  <line x1="2657" y1="50.0" x2="2677" y2="50.0" style="stroke:#999; stroke-width:3;" />
  <rect class="anc_exon" x="2677" y="35.0" width="107" height="30" style="fill:#87bcbc;fill-opacity:1.00" />
  <rect class="anc_exon" x="2784" y="35.0" width="0" height="30" style="fill:#87bcbc;fill-opacity:1.00" />
  <text style="" >
<tspan x="0" y="83.0" style="font-size:18px;" >SP XM_031952747_1.1</tspan>  </text>



<script type="text/ecmascript">
<![CDATA[
function draw_bbox(text_id)
{
    var text_elem = document.getElementById(text_id);
    var offset_px = 2;
    var offset_py = 0;
    bbox = text_elem.getBBox();
    var box = document.createElementNS(document.rootElement.namespaceURI,'rect');
    box.setAttribute('x', bbox.x - offset_px);
    box.setAttribute('y', bbox.y - offset_py);
    box.setAttribute('width', bbox.width + offset_px * 2);
    box.setAttribute('height', bbox.height + offset_py * 2);
    box.setAttribute('style','fill: white;'+'stroke: black;'+'stroke-width: 1px;');
    text_elem.insertBefore(box,text_elem.childNodes[0]);

    var svg = text_elem.parentNode;
    svg.appendChild(text_elem);
}

for (var i=1; i < 1; i++)
{
draw_bbox("Mouseover" + i);
}
]]> 
</script>
</svg>
