<svg version="1.1"
xmlns="http://www.w3.org/2000/svg"
xmlns:xlink="http://www.w3.org/1999/xlink"
width="2960" height="100" viewBox = "0 0 2960 100"
onclick="mouseclick(evt)">

<script type="text/ecmascript">

<![CDATA[
    function mouseover(evt, target) { 
    var gv = document.getElementById("globalVariable");
    var previoustarget = gv.firstChild.nodeValue;
    if (previoustarget != "none") 
    {
        	document.getElementById(gv.firstChild.nodeValue).setAttributeNS(null, "visibility", "hidden");
    }
    document.getElementById(target).setAttributeNS(null, "visibility", "visible");
    gv.firstChild.nodeValue = target;
        }

    function mouseclick(evt) { 
    var gv = document.getElementById("globalVariable");
    var previoustarget = gv.firstChild.nodeValue;
    if (previoustarget != "none") {
        	document.getElementById(gv.firstChild.nodeValue).setAttributeNS(null, "visibility", "hidden");
        }
    }
]]>
  </script>
<style type="text/css" >

<![CDATA[
    rect.anc_exon {
              stroke-width:3;
                  }

    rect.non_anc_exon {
              stroke: black; stroke-width:3; stroke-dasharray: 5,5;
                    }

    text {
              font-size: 18px;
              font-family: Courier New;
          }
                    ]]>
</style>

<defs>
    <text x="150" y="40" id="globalVariable">none</text>
</defs>

  <rect class="anc_exon" x="0" y="35.0" width="0" height="30" style="fill:#87bcbc;fill-opacity:1.00" />
  <rect class="anc_exon" x="0" y="35.0" width="84.80000000000001" height="30" style="fill:#87bcbc;fill-opacity:1.00" />
  <line x1="84.80000000000001" y1="50.0" x2="103.80000000000001" y2="50.0" style="stroke:#999; stroke-width:3;" />
  <line x1="103.80000000000001" y1="50.0" x2="103.80000000000001" y2="50.0" style="stroke:#999; stroke-width:3;" />
  <line x1="103.80000000000001" y1="50.0" x2="103.80000000000001" y2="50.0" style="stroke:#999; stroke-width:3;" />
  <line x1="103.80000000000001" y1="50.0" x2="124.0" y2="50.0" style="stroke:#999; stroke-width:3;" />
  <rect class="anc_exon" x="124" y="35.0" width="177" height="30" style="fill:#87bcbc;fill-opacity:1.00" />
  <line x1="301" y1="50.0" x2="321" y2="50.0" style="stroke:#999; stroke-width:3;" />
  <line x1="321" y1="50.0" x2="321" y2="50.0" style="stroke:#999; stroke-width:3;" />
  <line x1="321" y1="50.0" x2="321" y2="50.0" style="stroke:#999; stroke-width:3;" />
  <line x1="321" y1="50.0" x2="341" y2="50.0" style="stroke:#999; stroke-width:3;" />
  <rect class="anc_exon" x="341" y="35.0" width="115" height="30" style="fill:#87bcbc;fill-opacity:1.00" />
  <line x1="456" y1="50.0" x2="496" y2="50.0" style="stroke:#999; stroke-width:3;" />
  <rect class="anc_exon" x="496" y="35.0" width="83" height="30" style="fill:#87bcbc;fill-opacity:1.00" />
  <line x1="579" y1="50.0" x2="599" y2="50.0" style="stroke:#999; stroke-width:3;" />
  <line x1="599" y1="50.0" x2="599" y2="50.0" style="stroke:#999; stroke-width:3;" />
  <line x1="599" y1="50.0" x2="599" y2="50.0" style="stroke:#999; stroke-width:3;" />
  <line x1="599" y1="50.0" x2="619" y2="50.0" style="stroke:#999; stroke-width:3;" />
  <rect class="anc_exon" x="619" y="35.0" width="144" height="30" style="fill:#87bcbc;fill-opacity:1.00" />
  <line x1="763" y1="50.0" x2="803" y2="50.0" style="stroke:#999; stroke-width:3;" />
  <rect class="anc_exon" x="803" y="35.0" width="134" height="30" style="fill:#87bcbc;fill-opacity:1.00" />
  <line x1="937" y1="50.0" x2="977" y2="50.0" style="stroke:#999; stroke-width:3;" />
  <rect class="anc_exon" x="977" y="35.0" width="132" height="30" style="fill:#878787;fill-opacity:1.00" />
  <line x1="1109" y1="50.0" x2="1149" y2="50.0" style="stroke:#999; stroke-width:3;" />
  <rect class="anc_exon" x="1149" y="35.0" width="26" height="30" style="fill:#87bcbc;fill-opacity:1.00" />
  <line x1="1175" y1="50.0" x2="1195" y2="50.0" style="stroke:#999; stroke-width:3;" />
  <line x1="1195" y1="50.0" x2="1195" y2="50.0" style="stroke:#999; stroke-width:3;" />
  <line x1="1195" y1="50.0" x2="1195" y2="50.0" style="stroke:#999; stroke-width:3;" />
  <line x1="1195" y1="50.0" x2="1215" y2="50.0" style="stroke:#999; stroke-width:3;" />
  <rect class="anc_exon" x="1215" y="35.0" width="156" height="30" style="fill:#87bcbc;fill-opacity:1.00" />
  <line x1="1371" y1="50.0" x2="1391" y2="50.0" style="stroke:#999; stroke-width:3;" />
  <line x1="1391" y1="50.0" x2="1391" y2="50.0" style="stroke:#999; stroke-width:3;" />
  <line x1="1391" y1="50.0" x2="1391" y2="50.0" style="stroke:#999; stroke-width:3;" />
  <line x1="1391" y1="50.0" x2="1411" y2="50.0" style="stroke:#999; stroke-width:3;" />
  <rect class="anc_exon" x="1411" y="35.0" width="312" height="30" style="fill:#878787;fill-opacity:1.00" />
  <line x1="1723" y1="50.0" x2="1763" y2="50.0" style="stroke:#999; stroke-width:3;" />
  <rect class="anc_exon" x="1763" y="35.0" width="70" height="30" style="fill:#87bcbc;fill-opacity:1.00" />
  <line x1="1833" y1="50.0" x2="1873" y2="50.0" style="stroke:#999; stroke-width:3;" />
  <rect class="anc_exon" x="1873" y="35.0" width="135" height="30" style="fill:#87bcbc;fill-opacity:1.00" />
  <line x1="2008" y1="50.0" x2="2048" y2="50.0" style="stroke:#999; stroke-width:3;" />
  <rect class="anc_exon" x="2048" y="35.0" width="187" height="30" style="fill:#87bcbc;fill-opacity:1.00" />
  <line x1="2235" y1="50.0" x2="2275" y2="50.0" style="stroke:#999; stroke-width:3;" />
  <rect class="anc_exon" x="2275" y="35.0" width="120" height="30" style="fill:#87bcbc;fill-opacity:1.00" />
  <line x1="2395" y1="50.0" x2="2435" y2="50.0" style="stroke:#999; stroke-width:3;" />
  <rect class="anc_exon" x="2435" y="35.0" width="132" height="30" style="fill:#87bcbc;fill-opacity:1.00" />
  <line x1="2567" y1="50.0" x2="2607" y2="50.0" style="stroke:#999; stroke-width:3;" />
  <rect class="anc_exon" x="2607" y="35.0" width="145" height="30" style="fill:#87bcbc;fill-opacity:1.00" />
  <line x1="2752" y1="50.0" x2="2792" y2="50.0" style="stroke:#999; stroke-width:3;" />
  <rect class="anc_exon" x="2792" y="35.0" width="132" height="30" style="fill:#87bcbc;fill-opacity:1.00" />
  <rect class="anc_exon" x="2924" y="35.0" width="0" height="30" style="fill:#87bcbc;fill-opacity:1.00" />
  <text style="" >
<tspan x="0" y="83.0" style="font-size:18px;" >SP XM_031956555_1.1</tspan>  </text>



<script type="text/ecmascript">
<![CDATA[
function draw_bbox(text_id)
{
    var text_elem = document.getElementById(text_id);
    var offset_px = 2;
    var offset_py = 0;
    bbox = text_elem.getBBox();
    var box = document.createElementNS(document.rootElement.namespaceURI,'rect');
    box.setAttribute('x', bbox.x - offset_px);
    box.setAttribute('y', bbox.y - offset_py);
    box.setAttribute('width', bbox.width + offset_px * 2);
    box.setAttribute('height', bbox.height + offset_py * 2);
    box.setAttribute('style','fill: white;'+'stroke: black;'+'stroke-width: 1px;');
    text_elem.insertBefore(box,text_elem.childNodes[0]);

    var svg = text_elem.parentNode;
    svg.appendChild(text_elem);
}

for (var i=1; i < 1; i++)
{
draw_bbox("Mouseover" + i);
}
]]> 
</script>
</svg>
