<svg version="1.1"
xmlns="http://www.w3.org/2000/svg"
xmlns:xlink="http://www.w3.org/1999/xlink"
width="4760" height="100" viewBox = "0 0 4760 100"
onclick="mouseclick(evt)">

<script type="text/ecmascript">

<![CDATA[
    function mouseover(evt, target) { 
    var gv = document.getElementById("globalVariable");
    var previoustarget = gv.firstChild.nodeValue;
    if (previoustarget != "none") 
    {
        	document.getElementById(gv.firstChild.nodeValue).setAttributeNS(null, "visibility", "hidden");
    }
    document.getElementById(target).setAttributeNS(null, "visibility", "visible");
    gv.firstChild.nodeValue = target;
        }

    function mouseclick(evt) { 
    var gv = document.getElementById("globalVariable");
    var previoustarget = gv.firstChild.nodeValue;
    if (previoustarget != "none") {
        	document.getElementById(gv.firstChild.nodeValue).setAttributeNS(null, "visibility", "hidden");
        }
    }
]]>
  </script>
<style type="text/css" >

<![CDATA[
    rect.anc_exon {
              stroke-width:3;
                  }

    rect.non_anc_exon {
              stroke: black; stroke-width:3; stroke-dasharray: 5,5;
                    }

    text {
              font-size: 18px;
              font-family: Courier New;
          }
                    ]]>
</style>

<defs>
    <text x="150" y="40" id="globalVariable">none</text>
</defs>

  <rect class="anc_exon" x="0" y="35.0" width="0" height="30" style="fill:#87bcbc;fill-opacity:1.00" />
  <rect class="anc_exon" x="0" y="35.0" width="56.0" height="30" style="fill:#87bcbc;fill-opacity:1.00" />
  <line x1="56.0" y1="50.0" x2="76.0" y2="50.0" style="stroke:#999; stroke-width:3;" />
  <line x1="76.0" y1="50.0" x2="76.0" y2="50.0" style="stroke:#999; stroke-width:3;" />
  <line x1="76.0" y1="50.0" x2="76.0" y2="50.0" style="stroke:#999; stroke-width:3;" />
  <line x1="76.0" y1="50.0" x2="96.0" y2="50.0" style="stroke:#999; stroke-width:3;" />
  <rect class="anc_exon" x="96" y="35.0" width="100" height="30" style="fill:#87bcbc;fill-opacity:1.00" />
  <line x1="196" y1="50.0" x2="216" y2="50.0" style="stroke:#999; stroke-width:3;" />
  <line x1="216" y1="50.0" x2="216" y2="50.0" style="stroke:#999; stroke-width:3;" />
  <line x1="216" y1="50.0" x2="216" y2="50.0" style="stroke:#999; stroke-width:3;" />
  <line x1="216" y1="50.0" x2="236" y2="50.0" style="stroke:#999; stroke-width:3;" />
  <rect class="anc_exon" x="236" y="35.0" width="217" height="30" style="fill:#87bcbc;fill-opacity:1.00" />
  <line x1="453" y1="50.0" x2="473" y2="50.0" style="stroke:#999; stroke-width:3;" />
  <line x1="473" y1="50.0" x2="473" y2="50.0" style="stroke:#999; stroke-width:3;" />
  <line x1="473" y1="50.0" x2="473" y2="50.0" style="stroke:#999; stroke-width:3;" />
  <line x1="473" y1="50.0" x2="493" y2="50.0" style="stroke:#999; stroke-width:3;" />
  <rect class="anc_exon" x="493" y="35.0" width="65" height="30" style="fill:#87bcbc;fill-opacity:1.00" />
  <line x1="558" y1="50.0" x2="578" y2="50.0" style="stroke:#999; stroke-width:3;" />
  <line x1="578" y1="50.0" x2="578" y2="50.0" style="stroke:#999; stroke-width:3;" />
  <line x1="578" y1="50.0" x2="578" y2="50.0" style="stroke:#999; stroke-width:3;" />
  <line x1="578" y1="50.0" x2="598" y2="50.0" style="stroke:#999; stroke-width:3;" />
  <rect class="anc_exon" x="598" y="35.0" width="92" height="30" style="fill:#87bcbc;fill-opacity:1.00" />
  <line x1="690" y1="50.0" x2="710" y2="50.0" style="stroke:#999; stroke-width:3;" />
  <line x1="710" y1="50.0" x2="710" y2="50.0" style="stroke:#999; stroke-width:3;" />
  <line x1="710" y1="50.0" x2="710" y2="50.0" style="stroke:#999; stroke-width:3;" />
  <line x1="710" y1="50.0" x2="730" y2="50.0" style="stroke:#999; stroke-width:3;" />
  <rect class="anc_exon" x="730" y="35.0" width="140" height="30" style="fill:#87bcbc;fill-opacity:1.00" />
  <line x1="870" y1="50.0" x2="890" y2="50.0" style="stroke:#999; stroke-width:3;" />
  <line x1="890" y1="50.0" x2="890" y2="50.0" style="stroke:#999; stroke-width:3;" />
  <line x1="890" y1="50.0" x2="890" y2="50.0" style="stroke:#999; stroke-width:3;" />
  <line x1="890" y1="50.0" x2="910" y2="50.0" style="stroke:#999; stroke-width:3;" />
  <rect class="anc_exon" x="910" y="35.0" width="235" height="30" style="fill:#87bcbc;fill-opacity:1.00" />
  <line x1="1145" y1="50.0" x2="1165" y2="50.0" style="stroke:#999; stroke-width:3;" />
  <line x1="1165" y1="50.0" x2="1165" y2="50.0" style="stroke:#999; stroke-width:3;" />
  <line x1="1165" y1="50.0" x2="1165" y2="50.0" style="stroke:#999; stroke-width:3;" />
  <line x1="1165" y1="50.0" x2="1185" y2="50.0" style="stroke:#999; stroke-width:3;" />
  <rect class="anc_exon" x="1185" y="35.0" width="237" height="30" style="fill:#87bcbc;fill-opacity:1.00" />
  <line x1="1422" y1="50.0" x2="1442" y2="50.0" style="stroke:#999; stroke-width:3;" />
  <line x1="1442" y1="50.0" x2="1442" y2="50.0" style="stroke:#999; stroke-width:3;" />
  <line x1="1442" y1="50.0" x2="1442" y2="50.0" style="stroke:#999; stroke-width:3;" />
  <line x1="1442" y1="50.0" x2="1462" y2="50.0" style="stroke:#999; stroke-width:3;" />
  <rect class="anc_exon" x="1462" y="35.0" width="88" height="30" style="fill:#87bcbc;fill-opacity:1.00" />
  <line x1="1550" y1="50.0" x2="1570" y2="50.0" style="stroke:#999; stroke-width:3;" />
  <line x1="1570" y1="50.0" x2="1570" y2="50.0" style="stroke:#999; stroke-width:3;" />
  <line x1="1570" y1="50.0" x2="1570" y2="50.0" style="stroke:#999; stroke-width:3;" />
  <line x1="1570" y1="50.0" x2="1590" y2="50.0" style="stroke:#999; stroke-width:3;" />
  <rect class="anc_exon" x="1590" y="35.0" width="161" height="30" style="fill:#87bcbc;fill-opacity:1.00" />
  <line x1="1751" y1="50.0" x2="1771" y2="50.0" style="stroke:#999; stroke-width:3;" />
  <line x1="1771" y1="50.0" x2="1771" y2="50.0" style="stroke:#999; stroke-width:3;" />
  <line x1="1771" y1="50.0" x2="1771" y2="50.0" style="stroke:#999; stroke-width:3;" />
  <line x1="1771" y1="50.0" x2="1791" y2="50.0" style="stroke:#999; stroke-width:3;" />
  <rect class="anc_exon" x="1791" y="35.0" width="82" height="30" style="fill:#87bcbc;fill-opacity:1.00" />
  <line x1="1873" y1="50.0" x2="1893" y2="50.0" style="stroke:#999; stroke-width:3;" />
  <line x1="1893" y1="50.0" x2="1893" y2="50.0" style="stroke:#999; stroke-width:3;" />
  <line x1="1893" y1="50.0" x2="1893" y2="50.0" style="stroke:#999; stroke-width:3;" />
  <line x1="1893" y1="50.0" x2="1913" y2="50.0" style="stroke:#999; stroke-width:3;" />
  <rect class="anc_exon" x="1913" y="35.0" width="219" height="30" style="fill:#87bcbc;fill-opacity:1.00" />
  <line x1="2132" y1="50.0" x2="2152" y2="50.0" style="stroke:#999; stroke-width:3;" />
  <line x1="2152" y1="50.0" x2="2152" y2="50.0" style="stroke:#999; stroke-width:3;" />
  <line x1="2152" y1="50.0" x2="2152" y2="50.0" style="stroke:#999; stroke-width:3;" />
  <line x1="2152" y1="50.0" x2="2172" y2="50.0" style="stroke:#999; stroke-width:3;" />
  <rect class="anc_exon" x="2172" y="35.0" width="29" height="30" style="fill:#87bcbc;fill-opacity:1.00" />
  <line x1="2201" y1="50.0" x2="2221" y2="50.0" style="stroke:#999; stroke-width:3;" />
  <line x1="2221" y1="50.0" x2="2221" y2="50.0" style="stroke:#999; stroke-width:3;" />
  <line x1="2221" y1="50.0" x2="2221" y2="50.0" style="stroke:#999; stroke-width:3;" />
  <line x1="2221" y1="50.0" x2="2241" y2="50.0" style="stroke:#999; stroke-width:3;" />
  <rect class="anc_exon" x="2241" y="35.0" width="43" height="30" style="fill:#87bcbc;fill-opacity:1.00" />
  <line x1="2284" y1="50.0" x2="2304" y2="50.0" style="stroke:#999; stroke-width:3;" />
  <line x1="2304" y1="50.0" x2="2304" y2="50.0" style="stroke:#999; stroke-width:3;" />
  <line x1="2304" y1="50.0" x2="2304" y2="50.0" style="stroke:#999; stroke-width:3;" />
  <line x1="2304" y1="50.0" x2="2324" y2="50.0" style="stroke:#999; stroke-width:3;" />
  <rect class="anc_exon" x="2324" y="35.0" width="108" height="30" style="fill:#87bcbc;fill-opacity:1.00" />
  <line x1="2432" y1="50.0" x2="2452" y2="50.0" style="stroke:#999; stroke-width:3;" />
  <line x1="2452" y1="50.0" x2="2452" y2="50.0" style="stroke:#999; stroke-width:3;" />
  <line x1="2452" y1="50.0" x2="2452" y2="50.0" style="stroke:#999; stroke-width:3;" />
  <line x1="2452" y1="50.0" x2="2472" y2="50.0" style="stroke:#999; stroke-width:3;" />
  <rect class="anc_exon" x="2472" y="35.0" width="24" height="30" style="fill:#87bcbc;fill-opacity:1.00" />
  <line x1="2496" y1="50.0" x2="2516" y2="50.0" style="stroke:#999; stroke-width:3;" />
  <line x1="2516" y1="50.0" x2="2516" y2="50.0" style="stroke:#999; stroke-width:3;" />
  <line x1="2516" y1="50.0" x2="2516" y2="50.0" style="stroke:#999; stroke-width:3;" />
  <line x1="2516" y1="50.0" x2="2536" y2="50.0" style="stroke:#999; stroke-width:3;" />
  <rect class="anc_exon" x="2536" y="35.0" width="119" height="30" style="fill:#87bcbc;fill-opacity:1.00" />
  <line x1="2655" y1="50.0" x2="2675" y2="50.0" style="stroke:#999; stroke-width:3;" />
  <line x1="2675" y1="50.0" x2="2675" y2="50.0" style="stroke:#999; stroke-width:3;" />
  <line x1="2675" y1="50.0" x2="2675" y2="50.0" style="stroke:#999; stroke-width:3;" />
  <line x1="2675" y1="50.0" x2="2695" y2="50.0" style="stroke:#999; stroke-width:3;" />
  <rect class="anc_exon" x="2695" y="35.0" width="150" height="30" style="fill:#878787;fill-opacity:1.00" />
  <line x1="2845" y1="50.0" x2="2865" y2="50.0" style="stroke:#999; stroke-width:3;" />
  <line x1="2865" y1="50.0" x2="2865" y2="50.0" style="stroke:#999; stroke-width:3;" />
  <line x1="2865" y1="50.0" x2="2865" y2="50.0" style="stroke:#999; stroke-width:3;" />
  <line x1="2865" y1="50.0" x2="2885" y2="50.0" style="stroke:#999; stroke-width:3;" />
  <rect class="anc_exon" x="2885" y="35.0" width="80" height="30" style="fill:#87bcbc;fill-opacity:1.00" />
  <line x1="2965" y1="50.0" x2="2985" y2="50.0" style="stroke:#999; stroke-width:3;" />
  <line x1="2985" y1="50.0" x2="2985" y2="50.0" style="stroke:#999; stroke-width:3;" />
  <line x1="2985" y1="50.0" x2="2985" y2="50.0" style="stroke:#999; stroke-width:3;" />
  <line x1="2985" y1="50.0" x2="3005" y2="50.0" style="stroke:#999; stroke-width:3;" />
  <rect class="anc_exon" x="3005" y="35.0" width="61" height="30" style="fill:#87bcbc;fill-opacity:1.00" />
  <line x1="3066" y1="50.0" x2="3086" y2="50.0" style="stroke:#999; stroke-width:3;" />
  <line x1="3086" y1="50.0" x2="3086" y2="50.0" style="stroke:#999; stroke-width:3;" />
  <line x1="3086" y1="50.0" x2="3086" y2="50.0" style="stroke:#999; stroke-width:3;" />
  <line x1="3086" y1="50.0" x2="3106" y2="50.0" style="stroke:#999; stroke-width:3;" />
  <rect class="anc_exon" x="3106" y="35.0" width="29" height="30" style="fill:#87bcbc;fill-opacity:1.00" />
  <line x1="3135" y1="50.0" x2="3155" y2="50.0" style="stroke:#999; stroke-width:3;" />
  <line x1="3155" y1="50.0" x2="3155" y2="50.0" style="stroke:#999; stroke-width:3;" />
  <line x1="3155" y1="50.0" x2="3155" y2="50.0" style="stroke:#999; stroke-width:3;" />
  <line x1="3155" y1="50.0" x2="3175" y2="50.0" style="stroke:#999; stroke-width:3;" />
  <rect class="anc_exon" x="3175" y="35.0" width="78" height="30" style="fill:#87bcbc;fill-opacity:1.00" />
  <line x1="3253" y1="50.0" x2="3293" y2="50.0" style="stroke:#999; stroke-width:3;" />
  <rect class="anc_exon" x="3293" y="35.0" width="93" height="30" style="fill:#87bcbc;fill-opacity:1.00" />
  <line x1="3386" y1="50.0" x2="3406" y2="50.0" style="stroke:#999; stroke-width:3;" />
  <line x1="3406" y1="50.0" x2="3406" y2="50.0" style="stroke:#999; stroke-width:3;" />
  <line x1="3406" y1="50.0" x2="3406" y2="50.0" style="stroke:#999; stroke-width:3;" />
  <line x1="3406" y1="50.0" x2="3426" y2="50.0" style="stroke:#999; stroke-width:3;" />
  <rect class="anc_exon" x="3426" y="35.0" width="124" height="30" style="fill:#87bcbc;fill-opacity:1.00" />
  <line x1="3550" y1="50.0" x2="3570" y2="50.0" style="stroke:#999; stroke-width:3;" />
  <line x1="3570" y1="50.0" x2="3570" y2="50.0" style="stroke:#999; stroke-width:3;" />
  <line x1="3570" y1="50.0" x2="3570" y2="50.0" style="stroke:#999; stroke-width:3;" />
  <line x1="3570" y1="50.0" x2="3590" y2="50.0" style="stroke:#999; stroke-width:3;" />
  <rect class="anc_exon" x="3590" y="35.0" width="108" height="30" style="fill:#87bcbc;fill-opacity:1.00" />
  <line x1="3698" y1="50.0" x2="3718" y2="50.0" style="stroke:#999; stroke-width:3;" />
  <line x1="3718" y1="50.0" x2="3718" y2="50.0" style="stroke:#999; stroke-width:3;" />
  <line x1="3718" y1="50.0" x2="3718" y2="50.0" style="stroke:#999; stroke-width:3;" />
  <line x1="3718" y1="50.0" x2="3738" y2="50.0" style="stroke:#999; stroke-width:3;" />
  <rect class="anc_exon" x="3738" y="35.0" width="120" height="30" style="fill:#878787;fill-opacity:1.00" />
  <line x1="3858" y1="50.0" x2="3898" y2="50.0" style="stroke:#999; stroke-width:3;" />
  <rect class="anc_exon" x="3898" y="35.0" width="139" height="30" style="fill:#878787;fill-opacity:1.00" />
  <line x1="4037" y1="50.0" x2="4057" y2="50.0" style="stroke:#999; stroke-width:3;" />
  <line x1="4057" y1="50.0" x2="4057" y2="50.0" style="stroke:#999; stroke-width:3;" />
  <line x1="4057" y1="50.0" x2="4057" y2="50.0" style="stroke:#999; stroke-width:3;" />
  <line x1="4057" y1="50.0" x2="4077" y2="50.0" style="stroke:#999; stroke-width:3;" />
  <rect class="anc_exon" x="4077" y="35.0" width="105" height="30" style="fill:#87bcbc;fill-opacity:1.00" />
  <line x1="4182" y1="50.0" x2="4202" y2="50.0" style="stroke:#999; stroke-width:3;" />
  <line x1="4202" y1="50.0" x2="4202" y2="50.0" style="stroke:#999; stroke-width:3;" />
  <line x1="4202" y1="50.0" x2="4202" y2="50.0" style="stroke:#999; stroke-width:3;" />
  <line x1="4202" y1="50.0" x2="4222" y2="50.0" style="stroke:#999; stroke-width:3;" />
  <rect class="anc_exon" x="4222" y="35.0" width="100" height="30" style="fill:#87bcbc;fill-opacity:1.00" />
  <line x1="4322" y1="50.0" x2="4362" y2="50.0" style="stroke:#999; stroke-width:3;" />
  <rect class="anc_exon" x="4362" y="35.0" width="131" height="30" style="fill:#87bcbc;fill-opacity:1.00" />
  <line x1="4493" y1="50.0" x2="4533" y2="50.0" style="stroke:#999; stroke-width:3;" />
  <rect class="anc_exon" x="4533" y="35.0" width="108" height="30" style="fill:#87bcbc;fill-opacity:1.00" />
  <line x1="4641" y1="50.0" x2="4681" y2="50.0" style="stroke:#999; stroke-width:3;" />
  <rect class="anc_exon" x="4681" y="35.0" width="43" height="30" style="fill:#87bcbc;fill-opacity:1.00" />
  <rect class="anc_exon" x="4724" y="35.0" width="0" height="30" style="fill:#87bcbc;fill-opacity:1.00" />
  <text style="" >
<tspan x="0" y="83.0" style="font-size:18px;" >SP XM_031953983_1.1</tspan>  </text>



<script type="text/ecmascript">
<![CDATA[
function draw_bbox(text_id)
{
    var text_elem = document.getElementById(text_id);
    var offset_px = 2;
    var offset_py = 0;
    bbox = text_elem.getBBox();
    var box = document.createElementNS(document.rootElement.namespaceURI,'rect');
    box.setAttribute('x', bbox.x - offset_px);
    box.setAttribute('y', bbox.y - offset_py);
    box.setAttribute('width', bbox.width + offset_px * 2);
    box.setAttribute('height', bbox.height + offset_py * 2);
    box.setAttribute('style','fill: white;'+'stroke: black;'+'stroke-width: 1px;');
    text_elem.insertBefore(box,text_elem.childNodes[0]);

    var svg = text_elem.parentNode;
    svg.appendChild(text_elem);
}

for (var i=1; i < 1; i++)
{
draw_bbox("Mouseover" + i);
}
]]> 
</script>
</svg>
