<svg version="1.1"
xmlns="http://www.w3.org/2000/svg"
xmlns:xlink="http://www.w3.org/1999/xlink"
width="2462" height="120.0" viewBox = "0 -20.0 2462 120.0"
onclick="mouseclick(evt)">

<script type="text/ecmascript">

<![CDATA[
    function mouseover(evt, target) { 
    var gv = document.getElementById("globalVariable");
    var previoustarget = gv.firstChild.nodeValue;
    if (previoustarget != "none") 
    {
        	document.getElementById(gv.firstChild.nodeValue).setAttributeNS(null, "visibility", "hidden");
    }
    document.getElementById(target).setAttributeNS(null, "visibility", "visible");
    gv.firstChild.nodeValue = target;
        }

    function mouseclick(evt) { 
    var gv = document.getElementById("globalVariable");
    var previoustarget = gv.firstChild.nodeValue;
    if (previoustarget != "none") {
        	document.getElementById(gv.firstChild.nodeValue).setAttributeNS(null, "visibility", "hidden");
        }
    }
]]>
  </script>
<style type="text/css" >

<![CDATA[
    rect.anc_exon {
              stroke-width:3;
                  }

    rect.non_anc_exon {
              stroke: black; stroke-width:3; stroke-dasharray: 5,5;
                    }

    text {
              font-size: 18px;
              font-family: Courier New;
          }
                    ]]>
</style>

<defs>
    <text x="150" y="40" id="globalVariable">none</text>
</defs>

  <rect class="anc_exon" x="0" y="35.0" width="0" height="30" style="fill:#87bcbc;fill-opacity:1.00" />
  <rect class="anc_exon" x="0" y="35.0" width="9.600000000000001" height="30" style="fill:#87bcbc;fill-opacity:1.00" />
  <polygon points="5.6000000000000005,35.0 8.100000000000001,25.0 3.1000000000000005,25.0" style="fill:#121212; stroke-opacity:1; fill-opacity:1"/>
  <text style="" text-anchor="middle">
<tspan x="5.6000000000000005" y="16.0" style="font-size:18px;fill:#121212;" >+1</tspan>  </text>
  <line x1="9.600000000000001" y1="50.0" x2="28.6" y2="50.0" style="stroke:#999; stroke-width:3;" />
  <line x1="28.6" y1="50.0" x2="28.6" y2="50.0" style="stroke:#999; stroke-width:3;" />
  <line x1="28.6" y1="50.0" x2="28.6" y2="50.0" style="stroke:#999; stroke-width:3;" />
  <line x1="28.6" y1="50.0" x2="49.0" y2="50.0" style="stroke:#999; stroke-width:3;" />
  <rect class="anc_exon" x="49" y="35.0" width="70" height="30" style="fill:#87bcbc;fill-opacity:1.00" />
  <line x1="119" y1="50.0" x2="159" y2="50.0" style="stroke:#999; stroke-width:3;" />
  <rect class="anc_exon" x="159" y="35.0" width="55" height="30" style="fill:#87bcbc;fill-opacity:1.00" />
  <line x1="214" y1="50.0" x2="234" y2="50.0" style="stroke:#999; stroke-width:3;" />
  <line x1="234" y1="50.0" x2="234" y2="50.0" style="stroke:#999; stroke-width:3;" />
  <line x1="234" y1="50.0" x2="234" y2="50.0" style="stroke:#999; stroke-width:3;" />
  <line x1="234" y1="50.0" x2="254" y2="50.0" style="stroke:#999; stroke-width:3;" />
  <rect class="anc_exon" x="254" y="35.0" width="71" height="30" style="fill:#87bcbc;fill-opacity:1.00" />
  <line x1="325" y1="50.0" x2="365" y2="50.0" style="stroke:#999; stroke-width:3;" />
  <rect class="anc_exon" x="365" y="35.0" width="120" height="30" style="fill:#87bcbc;fill-opacity:1.00" />
  <line x1="485" y1="50.0" x2="505" y2="50.0" style="stroke:#999; stroke-width:3;" />
  <line x1="505" y1="50.0" x2="505" y2="50.0" style="stroke:#999; stroke-width:3;" />
  <line x1="505" y1="50.0" x2="505" y2="50.0" style="stroke:#999; stroke-width:3;" />
  <line x1="505" y1="50.0" x2="525" y2="50.0" style="stroke:#999; stroke-width:3;" />
  <rect class="anc_exon" x="525" y="35.0" width="55" height="30" style="fill:#87bcbc;fill-opacity:1.00" />
  <line x1="580" y1="50.0" x2="620" y2="50.0" style="stroke:#999; stroke-width:3;" />
  <rect class="anc_exon" x="620" y="35.0" width="100" height="30" style="fill:#87bcbc;fill-opacity:1.00" />
  <line x1="720" y1="50.0" x2="760" y2="50.0" style="stroke:#999; stroke-width:3;" />
  <rect class="anc_exon" x="760" y="35.0" width="216" height="30" style="fill:#87bcbc;fill-opacity:1.00" />
  <line x1="976" y1="50.0" x2="1016" y2="50.0" style="stroke:#999; stroke-width:3;" />
  <rect class="anc_exon" x="1016" y="35.0" width="110" height="30" style="fill:#87bcbc;fill-opacity:1.00" />
  <line x1="1126" y1="50.0" x2="1166" y2="50.0" style="stroke:#999; stroke-width:3;" />
  <rect class="anc_exon" x="1166" y="35.0" width="123" height="30" style="fill:#87bcbc;fill-opacity:1.00" />
  <line x1="1289" y1="50.0" x2="1329" y2="50.0" style="stroke:#999; stroke-width:3;" />
  <rect class="anc_exon" x="1329" y="35.0" width="86" height="30" style="fill:#87bcbc;fill-opacity:1.00" />
  <line x1="1415" y1="50.0" x2="1435" y2="50.0" style="stroke:#999; stroke-width:3;" />
  <line x1="1435" y1="50.0" x2="1435" y2="50.0" style="stroke:#999; stroke-width:3;" />
  <line x1="1435" y1="50.0" x2="1435" y2="50.0" style="stroke:#999; stroke-width:3;" />
  <line x1="1435" y1="50.0" x2="1455" y2="50.0" style="stroke:#999; stroke-width:3;" />
  <rect class="anc_exon" x="1455" y="35.0" width="100" height="30" style="fill:#87bcbc;fill-opacity:1.00" />
  <line x1="1555" y1="50.0" x2="1595" y2="50.0" style="stroke:#999; stroke-width:3;" />
  <rect class="anc_exon" x="1595" y="35.0" width="88" height="30" style="fill:#87bcbc;fill-opacity:1.00" />
  <line x1="1683" y1="50.0" x2="1723" y2="50.0" style="stroke:#999; stroke-width:3;" />
  <rect class="anc_exon" x="1723" y="35.0" width="92" height="30" style="fill:#87bcbc;fill-opacity:1.00" />
  <line x1="1815" y1="50.0" x2="1855" y2="50.0" style="stroke:#999; stroke-width:3;" />
  <rect class="anc_exon" x="1855" y="35.0" width="160" height="30" style="fill:#878787;fill-opacity:1.00" />
  <line x1="2015" y1="50.0" x2="2055" y2="50.0" style="stroke:#999; stroke-width:3;" />
  <rect class="anc_exon" x="2055" y="35.0" width="156" height="30" style="fill:#87bcbc;fill-opacity:1.00" />
  <line x1="2211" y1="50.0" x2="2251" y2="50.0" style="stroke:#999; stroke-width:3;" />
  <rect class="anc_exon" x="2251" y="35.0" width="175" height="30" style="fill:#87bcbc;fill-opacity:1.00" />
  <rect class="anc_exon" x="2426" y="35.0" width="0" height="30" style="fill:#87bcbc;fill-opacity:1.00" />
  <text style="" >
<tspan x="0" y="83.0" style="font-size:18px;" >SP XM_031950099_1.1</tspan>  </text>



<script type="text/ecmascript">
<![CDATA[
function draw_bbox(text_id)
{
    var text_elem = document.getElementById(text_id);
    var offset_px = 2;
    var offset_py = 0;
    bbox = text_elem.getBBox();
    var box = document.createElementNS(document.rootElement.namespaceURI,'rect');
    box.setAttribute('x', bbox.x - offset_px);
    box.setAttribute('y', bbox.y - offset_py);
    box.setAttribute('width', bbox.width + offset_px * 2);
    box.setAttribute('height', bbox.height + offset_py * 2);
    box.setAttribute('style','fill: white;'+'stroke: black;'+'stroke-width: 1px;');
    text_elem.insertBefore(box,text_elem.childNodes[0]);

    var svg = text_elem.parentNode;
    svg.appendChild(text_elem);
}

for (var i=1; i < 1; i++)
{
draw_bbox("Mouseover" + i);
}
]]> 
</script>
</svg>
