<svg version="1.1"
xmlns="http://www.w3.org/2000/svg"
xmlns:xlink="http://www.w3.org/1999/xlink"
width="1432" height="100" viewBox = "0 0 1432 100"
onclick="mouseclick(evt)">

<script type="text/ecmascript">

<![CDATA[
    function mouseover(evt, target) { 
    var gv = document.getElementById("globalVariable");
    var previoustarget = gv.firstChild.nodeValue;
    if (previoustarget != "none") 
    {
        	document.getElementById(gv.firstChild.nodeValue).setAttributeNS(null, "visibility", "hidden");
    }
    document.getElementById(target).setAttributeNS(null, "visibility", "visible");
    gv.firstChild.nodeValue = target;
        }

    function mouseclick(evt) { 
    var gv = document.getElementById("globalVariable");
    var previoustarget = gv.firstChild.nodeValue;
    if (previoustarget != "none") {
        	document.getElementById(gv.firstChild.nodeValue).setAttributeNS(null, "visibility", "hidden");
        }
    }
]]>
  </script>
<style type="text/css" >

<![CDATA[
    rect.anc_exon {
              stroke-width:3;
                  }

    rect.non_anc_exon {
              stroke: black; stroke-width:3; stroke-dasharray: 5,5;
                    }

    text {
              font-size: 18px;
              font-family: Courier New;
          }
                    ]]>
</style>

<defs>
    <text x="150" y="40" id="globalVariable">none</text>
</defs>

  <rect class="anc_exon" x="0" y="35.0" width="0" height="30" style="fill:#87bcbc;fill-opacity:1.00" />
  <rect class="anc_exon" x="0" y="35.0" width="36.0" height="30" style="fill:#87bcbc;fill-opacity:1.00" />
  <line x1="36.0" y1="50.0" x2="56.0" y2="50.0" style="stroke:#999; stroke-width:3;" />
  <line x1="56.0" y1="50.0" x2="56.0" y2="50.0" style="stroke:#999; stroke-width:3;" />
  <line x1="56.0" y1="50.0" x2="56.0" y2="50.0" style="stroke:#999; stroke-width:3;" />
  <line x1="56.0" y1="50.0" x2="76.0" y2="50.0" style="stroke:#999; stroke-width:3;" />
  <rect class="anc_exon" x="76" y="35.0" width="62" height="30" style="fill:#87bcbc;fill-opacity:1.00" />
  <line x1="138" y1="50.0" x2="158" y2="50.0" style="stroke:#999; stroke-width:3;" />
  <line x1="158" y1="50.0" x2="158" y2="50.0" style="stroke:#999; stroke-width:3;" />
  <line x1="158" y1="50.0" x2="158" y2="50.0" style="stroke:#999; stroke-width:3;" />
  <line x1="158" y1="50.0" x2="178" y2="50.0" style="stroke:#999; stroke-width:3;" />
  <rect class="anc_exon" x="178" y="35.0" width="495" height="30" style="fill:#87bcbc;fill-opacity:1.00" />
  <line x1="673" y1="50.0" x2="693" y2="50.0" style="stroke:#999; stroke-width:3;" />
  <line x1="693" y1="50.0" x2="693" y2="50.0" style="stroke:#999; stroke-width:3;" />
  <line x1="693" y1="50.0" x2="693" y2="50.0" style="stroke:#999; stroke-width:3;" />
  <line x1="693" y1="50.0" x2="713" y2="50.0" style="stroke:#999; stroke-width:3;" />
  <rect class="anc_exon" x="713" y="35.0" width="115" height="30" style="fill:#87bcbc;fill-opacity:1.00" />
  <line x1="828" y1="50.0" x2="848" y2="50.0" style="stroke:#999; stroke-width:3;" />
  <line x1="848" y1="50.0" x2="848" y2="50.0" style="stroke:#999; stroke-width:3;" />
  <line x1="848" y1="50.0" x2="848" y2="50.0" style="stroke:#999; stroke-width:3;" />
  <line x1="848" y1="50.0" x2="868" y2="50.0" style="stroke:#999; stroke-width:3;" />
  <rect class="anc_exon" x="868" y="35.0" width="64" height="30" style="fill:#87bcbc;fill-opacity:1.00" />
  <line x1="932" y1="50.0" x2="952" y2="50.0" style="stroke:#999; stroke-width:3;" />
  <line x1="952" y1="50.0" x2="952" y2="50.0" style="stroke:#999; stroke-width:3;" />
  <line x1="952" y1="50.0" x2="952" y2="50.0" style="stroke:#999; stroke-width:3;" />
  <line x1="952" y1="50.0" x2="972" y2="50.0" style="stroke:#999; stroke-width:3;" />
  <rect class="anc_exon" x="972" y="35.0" width="115" height="30" style="fill:#87bcbc;fill-opacity:1.00" />
  <line x1="1087" y1="50.0" x2="1107" y2="50.0" style="stroke:#999; stroke-width:3;" />
  <line x1="1107" y1="50.0" x2="1107" y2="50.0" style="stroke:#999; stroke-width:3;" />
  <line x1="1107" y1="50.0" x2="1107" y2="50.0" style="stroke:#999; stroke-width:3;" />
  <line x1="1107" y1="50.0" x2="1127" y2="50.0" style="stroke:#999; stroke-width:3;" />
  <rect class="anc_exon" x="1127" y="35.0" width="96" height="30" style="fill:#87bcbc;fill-opacity:1.00" />
  <line x1="1223" y1="50.0" x2="1243" y2="50.0" style="stroke:#999; stroke-width:3;" />
  <line x1="1243" y1="50.0" x2="1243" y2="50.0" style="stroke:#999; stroke-width:3;" />
  <line x1="1243" y1="50.0" x2="1243" y2="50.0" style="stroke:#999; stroke-width:3;" />
  <line x1="1243" y1="50.0" x2="1263" y2="50.0" style="stroke:#999; stroke-width:3;" />
  <rect class="anc_exon" x="1263" y="35.0" width="77" height="30" style="fill:#87bcbc;fill-opacity:1.00" />
  <line x1="1340" y1="50.0" x2="1360" y2="50.0" style="stroke:#999; stroke-width:3;" />
  <line x1="1360" y1="50.0" x2="1360" y2="50.0" style="stroke:#999; stroke-width:3;" />
  <line x1="1360" y1="50.0" x2="1360" y2="50.0" style="stroke:#999; stroke-width:3;" />
  <line x1="1360" y1="50.0" x2="1380" y2="50.0" style="stroke:#999; stroke-width:3;" />
  <rect class="anc_exon" x="1380" y="35.0" width="16" height="30" style="fill:#87bcbc;fill-opacity:1.00" />
  <rect class="anc_exon" x="1396" y="35.0" width="0" height="30" style="fill:#87bcbc;fill-opacity:1.00" />
  <text style="" >
<tspan x="0" y="83.0" style="font-size:18px;" >SP XM_031954519_1.1</tspan>  </text>



<script type="text/ecmascript">
<![CDATA[
function draw_bbox(text_id)
{
    var text_elem = document.getElementById(text_id);
    var offset_px = 2;
    var offset_py = 0;
    bbox = text_elem.getBBox();
    var box = document.createElementNS(document.rootElement.namespaceURI,'rect');
    box.setAttribute('x', bbox.x - offset_px);
    box.setAttribute('y', bbox.y - offset_py);
    box.setAttribute('width', bbox.width + offset_px * 2);
    box.setAttribute('height', bbox.height + offset_py * 2);
    box.setAttribute('style','fill: white;'+'stroke: black;'+'stroke-width: 1px;');
    text_elem.insertBefore(box,text_elem.childNodes[0]);

    var svg = text_elem.parentNode;
    svg.appendChild(text_elem);
}

for (var i=1; i < 1; i++)
{
draw_bbox("Mouseover" + i);
}
]]> 
</script>
</svg>
