<svg version="1.1"
xmlns="http://www.w3.org/2000/svg"
xmlns:xlink="http://www.w3.org/1999/xlink"
width="3143" height="100" viewBox = "0 0 3143 100"
onclick="mouseclick(evt)">

<script type="text/ecmascript">

<![CDATA[
    function mouseover(evt, target) { 
    var gv = document.getElementById("globalVariable");
    var previoustarget = gv.firstChild.nodeValue;
    if (previoustarget != "none") 
    {
        	document.getElementById(gv.firstChild.nodeValue).setAttributeNS(null, "visibility", "hidden");
    }
    document.getElementById(target).setAttributeNS(null, "visibility", "visible");
    gv.firstChild.nodeValue = target;
        }

    function mouseclick(evt) { 
    var gv = document.getElementById("globalVariable");
    var previoustarget = gv.firstChild.nodeValue;
    if (previoustarget != "none") {
        	document.getElementById(gv.firstChild.nodeValue).setAttributeNS(null, "visibility", "hidden");
        }
    }
]]>
  </script>
<style type="text/css" >

<![CDATA[
    rect.anc_exon {
              stroke-width:3;
                  }

    rect.non_anc_exon {
              stroke: black; stroke-width:3; stroke-dasharray: 5,5;
                    }

    text {
              font-size: 18px;
              font-family: Courier New;
          }
                    ]]>
</style>

<defs>
    <text x="150" y="40" id="globalVariable">none</text>
</defs>

  <rect class="anc_exon" x="0" y="35.0" width="0" height="30" style="fill:#87bcbc;fill-opacity:1.00" />
  <rect class="anc_exon" x="0" y="35.0" width="101.60000000000001" height="30" style="fill:#878787;fill-opacity:1.00" />
  <line x1="101.60000000000001" y1="50.0" x2="120.60000000000001" y2="50.0" style="stroke:#999; stroke-width:3;" />
  <line x1="120.60000000000001" y1="50.0" x2="120.60000000000001" y2="50.0" style="stroke:#999; stroke-width:3;" />
  <line x1="120.60000000000001" y1="50.0" x2="120.60000000000001" y2="50.0" style="stroke:#999; stroke-width:3;" />
  <line x1="120.60000000000001" y1="50.0" x2="141.0" y2="50.0" style="stroke:#999; stroke-width:3;" />
  <rect class="anc_exon" x="141" y="35.0" width="109" height="30" style="fill:#87bcbc;fill-opacity:1.00" />
  <line x1="250" y1="50.0" x2="270" y2="50.0" style="stroke:#999; stroke-width:3;" />
  <line x1="270" y1="50.0" x2="270" y2="50.0" style="stroke:#999; stroke-width:3;" />
  <line x1="270" y1="50.0" x2="270" y2="50.0" style="stroke:#999; stroke-width:3;" />
  <line x1="270" y1="50.0" x2="290" y2="50.0" style="stroke:#999; stroke-width:3;" />
  <rect class="anc_exon" x="290" y="35.0" width="59" height="30" style="fill:#87bcbc;fill-opacity:1.00" />
  <line x1="349" y1="50.0" x2="369" y2="50.0" style="stroke:#999; stroke-width:3;" />
  <line x1="369" y1="50.0" x2="369" y2="50.0" style="stroke:#999; stroke-width:3;" />
  <line x1="369" y1="50.0" x2="369" y2="50.0" style="stroke:#999; stroke-width:3;" />
  <line x1="369" y1="50.0" x2="389" y2="50.0" style="stroke:#999; stroke-width:3;" />
  <rect class="anc_exon" x="389" y="35.0" width="63" height="30" style="fill:#87bcbc;fill-opacity:1.00" />
  <line x1="452" y1="50.0" x2="472" y2="50.0" style="stroke:#999; stroke-width:3;" />
  <line x1="472" y1="50.0" x2="472" y2="50.0" style="stroke:#999; stroke-width:3;" />
  <line x1="472" y1="50.0" x2="472" y2="50.0" style="stroke:#999; stroke-width:3;" />
  <line x1="472" y1="50.0" x2="492" y2="50.0" style="stroke:#999; stroke-width:3;" />
  <rect class="anc_exon" x="492" y="35.0" width="61" height="30" style="fill:#878787;fill-opacity:1.00" />
  <line x1="553" y1="50.0" x2="573" y2="50.0" style="stroke:#999; stroke-width:3;" />
  <line x1="573" y1="50.0" x2="573" y2="50.0" style="stroke:#999; stroke-width:3;" />
  <line x1="573" y1="50.0" x2="573" y2="50.0" style="stroke:#999; stroke-width:3;" />
  <line x1="573" y1="50.0" x2="593" y2="50.0" style="stroke:#999; stroke-width:3;" />
  <rect class="anc_exon" x="593" y="35.0" width="149" height="30" style="fill:#87bcbc;fill-opacity:1.00" />
  <line x1="742" y1="50.0" x2="762" y2="50.0" style="stroke:#999; stroke-width:3;" />
  <line x1="762" y1="50.0" x2="762" y2="50.0" style="stroke:#999; stroke-width:3;" />
  <line x1="762" y1="50.0" x2="762" y2="50.0" style="stroke:#999; stroke-width:3;" />
  <line x1="762" y1="50.0" x2="782" y2="50.0" style="stroke:#999; stroke-width:3;" />
  <rect class="anc_exon" x="782" y="35.0" width="52" height="30" style="fill:#87bcbc;fill-opacity:1.00" />
  <line x1="834" y1="50.0" x2="874" y2="50.0" style="stroke:#999; stroke-width:3;" />
  <rect class="anc_exon" x="874" y="35.0" width="57" height="30" style="fill:#87bcbc;fill-opacity:1.00" />
  <line x1="931" y1="50.0" x2="951" y2="50.0" style="stroke:#999; stroke-width:3;" />
  <line x1="951" y1="50.0" x2="951" y2="50.0" style="stroke:#999; stroke-width:3;" />
  <line x1="951" y1="50.0" x2="951" y2="50.0" style="stroke:#999; stroke-width:3;" />
  <line x1="951" y1="50.0" x2="971" y2="50.0" style="stroke:#999; stroke-width:3;" />
  <rect class="anc_exon" x="971" y="35.0" width="136" height="30" style="fill:#87bcbc;fill-opacity:1.00" />
  <line x1="1107" y1="50.0" x2="1127" y2="50.0" style="stroke:#999; stroke-width:3;" />
  <line x1="1127" y1="50.0" x2="1127" y2="50.0" style="stroke:#999; stroke-width:3;" />
  <line x1="1127" y1="50.0" x2="1127" y2="50.0" style="stroke:#999; stroke-width:3;" />
  <line x1="1127" y1="50.0" x2="1147" y2="50.0" style="stroke:#999; stroke-width:3;" />
  <rect class="anc_exon" x="1147" y="35.0" width="68" height="30" style="fill:#87bcbc;fill-opacity:1.00" />
  <line x1="1215" y1="50.0" x2="1235" y2="50.0" style="stroke:#999; stroke-width:3;" />
  <line x1="1235" y1="50.0" x2="1235" y2="50.0" style="stroke:#999; stroke-width:3;" />
  <line x1="1235" y1="50.0" x2="1235" y2="50.0" style="stroke:#999; stroke-width:3;" />
  <line x1="1235" y1="50.0" x2="1255" y2="50.0" style="stroke:#999; stroke-width:3;" />
  <rect class="anc_exon" x="1255" y="35.0" width="119" height="30" style="fill:#87bcbc;fill-opacity:1.00" />
  <line x1="1374" y1="50.0" x2="1394" y2="50.0" style="stroke:#999; stroke-width:3;" />
  <line x1="1394" y1="50.0" x2="1394" y2="50.0" style="stroke:#999; stroke-width:3;" />
  <line x1="1394" y1="50.0" x2="1394" y2="50.0" style="stroke:#999; stroke-width:3;" />
  <line x1="1394" y1="50.0" x2="1414" y2="50.0" style="stroke:#999; stroke-width:3;" />
  <rect class="anc_exon" x="1414" y="35.0" width="142" height="30" style="fill:#878787;fill-opacity:1.00" />
  <line x1="1556" y1="50.0" x2="1576" y2="50.0" style="stroke:#999; stroke-width:3;" />
  <line x1="1576" y1="50.0" x2="1576" y2="50.0" style="stroke:#999; stroke-width:3;" />
  <line x1="1576" y1="50.0" x2="1576" y2="50.0" style="stroke:#999; stroke-width:3;" />
  <line x1="1576" y1="50.0" x2="1596" y2="50.0" style="stroke:#999; stroke-width:3;" />
  <rect class="anc_exon" x="1596" y="35.0" width="72" height="30" style="fill:#87bcbc;fill-opacity:1.00" />
  <line x1="1668" y1="50.0" x2="1688" y2="50.0" style="stroke:#999; stroke-width:3;" />
  <line x1="1688" y1="50.0" x2="1688" y2="50.0" style="stroke:#999; stroke-width:3;" />
  <line x1="1688" y1="50.0" x2="1688" y2="50.0" style="stroke:#999; stroke-width:3;" />
  <line x1="1688" y1="50.0" x2="1708" y2="50.0" style="stroke:#999; stroke-width:3;" />
  <rect class="anc_exon" x="1708" y="35.0" width="156" height="30" style="fill:#87bcbc;fill-opacity:1.00" />
  <line x1="1864" y1="50.0" x2="1884" y2="50.0" style="stroke:#999; stroke-width:3;" />
  <line x1="1884" y1="50.0" x2="1884" y2="50.0" style="stroke:#999; stroke-width:3;" />
  <line x1="1884" y1="50.0" x2="1884" y2="50.0" style="stroke:#999; stroke-width:3;" />
  <line x1="1884" y1="50.0" x2="1904" y2="50.0" style="stroke:#999; stroke-width:3;" />
  <rect class="anc_exon" x="1904" y="35.0" width="87" height="30" style="fill:#878787;fill-opacity:1.00" />
  <line x1="1991" y1="50.0" x2="2031" y2="50.0" style="stroke:#999; stroke-width:3;" />
  <rect class="anc_exon" x="2031" y="35.0" width="159" height="30" style="fill:#878787;fill-opacity:1.00" />
  <line x1="2190" y1="50.0" x2="2210" y2="50.0" style="stroke:#999; stroke-width:3;" />
  <line x1="2210" y1="50.0" x2="2210" y2="50.0" style="stroke:#999; stroke-width:3;" />
  <line x1="2210" y1="50.0" x2="2210" y2="50.0" style="stroke:#999; stroke-width:3;" />
  <line x1="2210" y1="50.0" x2="2230" y2="50.0" style="stroke:#999; stroke-width:3;" />
  <rect class="anc_exon" x="2230" y="35.0" width="62" height="30" style="fill:#87bcbc;fill-opacity:1.00" />
  <line x1="2292" y1="50.0" x2="2312" y2="50.0" style="stroke:#999; stroke-width:3;" />
  <line x1="2312" y1="50.0" x2="2312" y2="50.0" style="stroke:#999; stroke-width:3;" />
  <line x1="2312" y1="50.0" x2="2312" y2="50.0" style="stroke:#999; stroke-width:3;" />
  <line x1="2312" y1="50.0" x2="2332" y2="50.0" style="stroke:#999; stroke-width:3;" />
  <rect class="anc_exon" x="2332" y="35.0" width="87" height="30" style="fill:#87bcbc;fill-opacity:1.00" />
  <line x1="2419" y1="50.0" x2="2459" y2="50.0" style="stroke:#999; stroke-width:3;" />
  <rect class="anc_exon" x="2459" y="35.0" width="113" height="30" style="fill:#878787;fill-opacity:1.00" />
  <line x1="2572" y1="50.0" x2="2612" y2="50.0" style="stroke:#999; stroke-width:3;" />
  <rect class="anc_exon" x="2612" y="35.0" width="87" height="30" style="fill:#878787;fill-opacity:1.00" />
  <line x1="2699" y1="50.0" x2="2719" y2="50.0" style="stroke:#999; stroke-width:3;" />
  <line x1="2719" y1="50.0" x2="2719" y2="50.0" style="stroke:#999; stroke-width:3;" />
  <line x1="2719" y1="50.0" x2="2719" y2="50.0" style="stroke:#999; stroke-width:3;" />
  <line x1="2719" y1="50.0" x2="2739" y2="50.0" style="stroke:#999; stroke-width:3;" />
  <rect class="anc_exon" x="2739" y="35.0" width="136" height="30" style="fill:#878787;fill-opacity:1.00" />
  <line x1="2875" y1="50.0" x2="2895" y2="50.0" style="stroke:#999; stroke-width:3;" />
  <line x1="2895" y1="50.0" x2="2895" y2="50.0" style="stroke:#999; stroke-width:3;" />
  <line x1="2895" y1="50.0" x2="2895" y2="50.0" style="stroke:#999; stroke-width:3;" />
  <line x1="2895" y1="50.0" x2="2915" y2="50.0" style="stroke:#999; stroke-width:3;" />
  <rect class="anc_exon" x="2915" y="35.0" width="104" height="30" style="fill:#878787;fill-opacity:1.00" />
  <line x1="3019" y1="50.0" x2="3039" y2="50.0" style="stroke:#999; stroke-width:3;" />
  <line x1="3039" y1="50.0" x2="3039" y2="50.0" style="stroke:#999; stroke-width:3;" />
  <line x1="3039" y1="50.0" x2="3039" y2="50.0" style="stroke:#999; stroke-width:3;" />
  <line x1="3039" y1="50.0" x2="3059" y2="50.0" style="stroke:#999; stroke-width:3;" />
  <rect class="anc_exon" x="3059" y="35.0" width="48" height="30" style="fill:#878787;fill-opacity:1.00" />
  <rect class="anc_exon" x="3107" y="35.0" width="0" height="30" style="fill:#87bcbc;fill-opacity:1.00" />
  <text style="" >
<tspan x="0" y="83.0" style="font-size:18px;" >SP XM_031957016_1.1</tspan>  </text>



<script type="text/ecmascript">
<![CDATA[
function draw_bbox(text_id)
{
    var text_elem = document.getElementById(text_id);
    var offset_px = 2;
    var offset_py = 0;
    bbox = text_elem.getBBox();
    var box = document.createElementNS(document.rootElement.namespaceURI,'rect');
    box.setAttribute('x', bbox.x - offset_px);
    box.setAttribute('y', bbox.y - offset_py);
    box.setAttribute('width', bbox.width + offset_px * 2);
    box.setAttribute('height', bbox.height + offset_py * 2);
    box.setAttribute('style','fill: white;'+'stroke: black;'+'stroke-width: 1px;');
    text_elem.insertBefore(box,text_elem.childNodes[0]);

    var svg = text_elem.parentNode;
    svg.appendChild(text_elem);
}

for (var i=1; i < 1; i++)
{
draw_bbox("Mouseover" + i);
}
]]> 
</script>
</svg>
