<svg version="1.1"
xmlns="http://www.w3.org/2000/svg"
xmlns:xlink="http://www.w3.org/1999/xlink"
width="2632" height="100" viewBox = "0 0 2632 100"
onclick="mouseclick(evt)">

<script type="text/ecmascript">

<![CDATA[
    function mouseover(evt, target) { 
    var gv = document.getElementById("globalVariable");
    var previoustarget = gv.firstChild.nodeValue;
    if (previoustarget != "none") 
    {
        	document.getElementById(gv.firstChild.nodeValue).setAttributeNS(null, "visibility", "hidden");
    }
    document.getElementById(target).setAttributeNS(null, "visibility", "visible");
    gv.firstChild.nodeValue = target;
        }

    function mouseclick(evt) { 
    var gv = document.getElementById("globalVariable");
    var previoustarget = gv.firstChild.nodeValue;
    if (previoustarget != "none") {
        	document.getElementById(gv.firstChild.nodeValue).setAttributeNS(null, "visibility", "hidden");
        }
    }
]]>
  </script>
<style type="text/css" >

<![CDATA[
    rect.anc_exon {
              stroke-width:3;
                  }

    rect.non_anc_exon {
              stroke: black; stroke-width:3; stroke-dasharray: 5,5;
                    }

    text {
              font-size: 18px;
              font-family: Courier New;
          }
                    ]]>
</style>

<defs>
    <text x="150" y="40" id="globalVariable">none</text>
</defs>

  <rect class="anc_exon" x="0" y="35.0" width="0" height="30" style="fill:#87bcbc;fill-opacity:1.00" />
  <rect class="anc_exon" x="0" y="35.0" width="72.8" height="30" style="fill:#87bcbc;fill-opacity:1.00" />
  <line x1="72.8" y1="50.0" x2="91.8" y2="50.0" style="stroke:#999; stroke-width:3;" />
  <line x1="91.8" y1="50.0" x2="91.8" y2="50.0" style="stroke:#999; stroke-width:3;" />
  <line x1="91.8" y1="50.0" x2="91.8" y2="50.0" style="stroke:#999; stroke-width:3;" />
  <line x1="91.8" y1="50.0" x2="112.0" y2="50.0" style="stroke:#999; stroke-width:3;" />
  <rect class="anc_exon" x="112" y="35.0" width="213" height="30" style="fill:#87bcbc;fill-opacity:1.00" />
  <line x1="325" y1="50.0" x2="365" y2="50.0" style="stroke:#999; stroke-width:3;" />
  <rect class="anc_exon" x="365" y="35.0" width="67" height="30" style="fill:#87bcbc;fill-opacity:1.00" />
  <line x1="432" y1="50.0" x2="472" y2="50.0" style="stroke:#999; stroke-width:3;" />
  <rect class="anc_exon" x="472" y="35.0" width="138" height="30" style="fill:#87bcbc;fill-opacity:1.00" />
  <line x1="610" y1="50.0" x2="630" y2="50.0" style="stroke:#999; stroke-width:3;" />
  <line x1="630" y1="50.0" x2="630" y2="50.0" style="stroke:#999; stroke-width:3;" />
  <line x1="630" y1="50.0" x2="630" y2="50.0" style="stroke:#999; stroke-width:3;" />
  <line x1="630" y1="50.0" x2="650" y2="50.0" style="stroke:#999; stroke-width:3;" />
  <rect class="anc_exon" x="650" y="35.0" width="99" height="30" style="fill:#87bcbc;fill-opacity:1.00" />
  <line x1="749" y1="50.0" x2="789" y2="50.0" style="stroke:#999; stroke-width:3;" />
  <rect class="anc_exon" x="789" y="35.0" width="152" height="30" style="fill:#87bcbc;fill-opacity:1.00" />
  <line x1="941" y1="50.0" x2="961" y2="50.0" style="stroke:#999; stroke-width:3;" />
  <line x1="961" y1="50.0" x2="961" y2="50.0" style="stroke:#999; stroke-width:3;" />
  <line x1="961" y1="50.0" x2="961" y2="50.0" style="stroke:#999; stroke-width:3;" />
  <line x1="961" y1="50.0" x2="981" y2="50.0" style="stroke:#999; stroke-width:3;" />
  <rect class="anc_exon" x="981" y="35.0" width="116" height="30" style="fill:#87bcbc;fill-opacity:1.00" />
  <line x1="1097" y1="50.0" x2="1137" y2="50.0" style="stroke:#999; stroke-width:3;" />
  <rect class="anc_exon" x="1137" y="35.0" width="157" height="30" style="fill:#87bcbc;fill-opacity:1.00" />
  <line x1="1294" y1="50.0" x2="1334" y2="50.0" style="stroke:#999; stroke-width:3;" />
  <rect class="anc_exon" x="1334" y="35.0" width="116" height="30" style="fill:#87bcbc;fill-opacity:1.00" />
  <line x1="1450" y1="50.0" x2="1490" y2="50.0" style="stroke:#999; stroke-width:3;" />
  <rect class="anc_exon" x="1490" y="35.0" width="97" height="30" style="fill:#87bcbc;fill-opacity:1.00" />
  <line x1="1587" y1="50.0" x2="1627" y2="50.0" style="stroke:#999; stroke-width:3;" />
  <rect class="anc_exon" x="1627" y="35.0" width="88" height="30" style="fill:#87bcbc;fill-opacity:1.00" />
  <line x1="1715" y1="50.0" x2="1755" y2="50.0" style="stroke:#999; stroke-width:3;" />
  <rect class="anc_exon" x="1755" y="35.0" width="152" height="30" style="fill:#87bcbc;fill-opacity:1.00" />
  <line x1="1907" y1="50.0" x2="1927" y2="50.0" style="stroke:#999; stroke-width:3;" />
  <line x1="1927" y1="50.0" x2="1927" y2="50.0" style="stroke:#999; stroke-width:3;" />
  <line x1="1927" y1="50.0" x2="1927" y2="50.0" style="stroke:#999; stroke-width:3;" />
  <line x1="1927" y1="50.0" x2="1947" y2="50.0" style="stroke:#999; stroke-width:3;" />
  <rect class="anc_exon" x="1947" y="35.0" width="98" height="30" style="fill:#87bcbc;fill-opacity:1.00" />
  <line x1="2045" y1="50.0" x2="2085" y2="50.0" style="stroke:#999; stroke-width:3;" />
  <rect class="anc_exon" x="2085" y="35.0" width="56" height="30" style="fill:#87bcbc;fill-opacity:1.00" />
  <line x1="2141" y1="50.0" x2="2181" y2="50.0" style="stroke:#999; stroke-width:3;" />
  <rect class="anc_exon" x="2181" y="35.0" width="110" height="30" style="fill:#87bcbc;fill-opacity:1.00" />
  <line x1="2291" y1="50.0" x2="2331" y2="50.0" style="stroke:#999; stroke-width:3;" />
  <rect class="anc_exon" x="2331" y="35.0" width="84" height="30" style="fill:#87bcbc;fill-opacity:1.00" />
  <line x1="2415" y1="50.0" x2="2455" y2="50.0" style="stroke:#999; stroke-width:3;" />
  <rect class="anc_exon" x="2455" y="35.0" width="141" height="30" style="fill:#87bcbc;fill-opacity:1.00" />
  <rect class="anc_exon" x="2596" y="35.0" width="0" height="30" style="fill:#87bcbc;fill-opacity:1.00" />
  <text style="" >
<tspan x="0" y="83.0" style="font-size:18px;" >SP XM_031950709_1.1</tspan>  </text>



<script type="text/ecmascript">
<![CDATA[
function draw_bbox(text_id)
{
    var text_elem = document.getElementById(text_id);
    var offset_px = 2;
    var offset_py = 0;
    bbox = text_elem.getBBox();
    var box = document.createElementNS(document.rootElement.namespaceURI,'rect');
    box.setAttribute('x', bbox.x - offset_px);
    box.setAttribute('y', bbox.y - offset_py);
    box.setAttribute('width', bbox.width + offset_px * 2);
    box.setAttribute('height', bbox.height + offset_py * 2);
    box.setAttribute('style','fill: white;'+'stroke: black;'+'stroke-width: 1px;');
    text_elem.insertBefore(box,text_elem.childNodes[0]);

    var svg = text_elem.parentNode;
    svg.appendChild(text_elem);
}

for (var i=1; i < 1; i++)
{
draw_bbox("Mouseover" + i);
}
]]> 
</script>
</svg>
