<svg version="1.1"
xmlns="http://www.w3.org/2000/svg"
xmlns:xlink="http://www.w3.org/1999/xlink"
width="4380" height="110.0" viewBox = "0 -10.0 4380 110.0"
onclick="mouseclick(evt)">

<script type="text/ecmascript">

<![CDATA[
    function mouseover(evt, target) { 
    var gv = document.getElementById("globalVariable");
    var previoustarget = gv.firstChild.nodeValue;
    if (previoustarget != "none") 
    {
        	document.getElementById(gv.firstChild.nodeValue).setAttributeNS(null, "visibility", "hidden");
    }
    document.getElementById(target).setAttributeNS(null, "visibility", "visible");
    gv.firstChild.nodeValue = target;
        }

    function mouseclick(evt) { 
    var gv = document.getElementById("globalVariable");
    var previoustarget = gv.firstChild.nodeValue;
    if (previoustarget != "none") {
        	document.getElementById(gv.firstChild.nodeValue).setAttributeNS(null, "visibility", "hidden");
        }
    }
]]>
  </script>
<style type="text/css" >

<![CDATA[
    rect.anc_exon {
              stroke-width:3;
                  }

    rect.non_anc_exon {
              stroke: black; stroke-width:3; stroke-dasharray: 5,5;
                    }

    text {
              font-size: 18px;
              font-family: Courier New;
          }
                    ]]>
</style>

<defs>
    <text x="150" y="40" id="globalVariable">none</text>
</defs>

  <rect class="anc_exon" x="0" y="35.0" width="0" height="30" style="fill:#87bcbc;fill-opacity:1.00" />
  <rect class="anc_exon" x="0" y="35.0" width="176.0" height="30" style="fill:#87bcbc;fill-opacity:1.00" />
  <line x1="176.0" y1="50.0" x2="196.0" y2="50.0" style="stroke:#999; stroke-width:3;" />
  <line x1="196.0" y1="50.0" x2="196.0" y2="50.0" style="stroke:#999; stroke-width:3;" />
  <line x1="196.0" y1="50.0" x2="196.0" y2="50.0" style="stroke:#999; stroke-width:3;" />
  <line x1="196.0" y1="50.0" x2="216.0" y2="50.0" style="stroke:#999; stroke-width:3;" />
  <rect class="anc_exon" x="216" y="35.0" width="122" height="30" style="fill:#87bcbc;fill-opacity:1.00" />
  <line x1="338" y1="50.0" x2="378" y2="50.0" style="stroke:#999; stroke-width:3;" />
  <rect class="anc_exon" x="378" y="35.0" width="75" height="30" style="fill:#87bcbc;fill-opacity:1.00" />
  <line x1="453" y1="50.0" x2="493" y2="50.0" style="stroke:#999; stroke-width:3;" />
  <rect class="anc_exon" x="493" y="35.0" width="38" height="30" style="fill:#87bcbc;fill-opacity:1.00" />
  <line x1="531" y1="50.0" x2="571" y2="50.0" style="stroke:#999; stroke-width:3;" />
  <rect class="anc_exon" x="571" y="35.0" width="68" height="30" style="fill:#87bcbc;fill-opacity:1.00" />
  <line x1="639" y1="50.0" x2="679" y2="50.0" style="stroke:#999; stroke-width:3;" />
  <rect class="anc_exon" x="679" y="35.0" width="67" height="30" style="fill:#87bcbc;fill-opacity:1.00" />
  <line x1="746" y1="50.0" x2="786" y2="50.0" style="stroke:#999; stroke-width:3;" />
  <rect class="anc_exon" x="786" y="35.0" width="28" height="30" style="fill:#87bcbc;fill-opacity:1.00" />
  <line x1="814" y1="50.0" x2="854" y2="50.0" style="stroke:#999; stroke-width:3;" />
  <rect class="anc_exon" x="854" y="35.0" width="58" height="30" style="fill:#87bcbc;fill-opacity:1.00" />
  <line x1="912" y1="50.0" x2="952" y2="50.0" style="stroke:#999; stroke-width:3;" />
  <rect class="anc_exon" x="952" y="35.0" width="81" height="30" style="fill:#87bcbc;fill-opacity:1.00" />
  <line x1="1033" y1="50.0" x2="1073" y2="50.0" style="stroke:#999; stroke-width:3;" />
  <rect class="anc_exon" x="1073" y="35.0" width="95" height="30" style="fill:#87bcbc;fill-opacity:1.00" />
  <line x1="1168" y1="50.0" x2="1208" y2="50.0" style="stroke:#999; stroke-width:3;" />
  <rect class="anc_exon" x="1208" y="35.0" width="68" height="30" style="fill:#878787;fill-opacity:1.00" />
  <line x1="1276" y1="50.0" x2="1316" y2="50.0" style="stroke:#999; stroke-width:3;" />
  <rect class="anc_exon" x="1316" y="35.0" width="96" height="30" style="fill:#87bcbc;fill-opacity:1.00" />
  <line x1="1412" y1="50.0" x2="1432" y2="50.0" style="stroke:#999; stroke-width:3;" />
  <line x1="1432" y1="50.0" x2="1432" y2="50.0" style="stroke:#999; stroke-width:3;" />
  <line x1="1432" y1="50.0" x2="1432" y2="50.0" style="stroke:#999; stroke-width:3;" />
  <line x1="1432" y1="50.0" x2="1452" y2="50.0" style="stroke:#999; stroke-width:3;" />
  <rect class="anc_exon" x="1452" y="35.0" width="135" height="30" style="fill:#87bcbc;fill-opacity:1.00" />
  <line x1="1587" y1="50.0" x2="1627" y2="50.0" style="stroke:#999; stroke-width:3;" />
  <rect class="anc_exon" x="1627" y="35.0" width="98" height="30" style="fill:#87bcbc;fill-opacity:1.00" />
  <line x1="1725" y1="50.0" x2="1765" y2="50.0" style="stroke:#999; stroke-width:3;" />
  <rect class="anc_exon" x="1765" y="35.0" width="81" height="30" style="fill:#87bcbc;fill-opacity:1.00" />
  <line x1="1846" y1="50.0" x2="1886" y2="50.0" style="stroke:#999; stroke-width:3;" />
  <rect class="anc_exon" x="1886" y="35.0" width="150" height="30" style="fill:#87bcbc;fill-opacity:1.00" />
  <line x1="2036" y1="50.0" x2="2076" y2="50.0" style="stroke:#999; stroke-width:3;" />
  <rect class="anc_exon" x="2076" y="35.0" width="160" height="30" style="fill:#87bcbc;fill-opacity:1.00" />
  <line x1="2236" y1="50.0" x2="2276" y2="50.0" style="stroke:#999; stroke-width:3;" />
  <rect class="anc_exon" x="2276" y="35.0" width="96" height="30" style="fill:#87bcbc;fill-opacity:1.00" />
  <line x1="2372" y1="50.0" x2="2412" y2="50.0" style="stroke:#999; stroke-width:3;" />
  <rect class="anc_exon" x="2412" y="35.0" width="144" height="30" style="fill:#87bcbc;fill-opacity:1.00" />
  <line x1="2524.8" y1="35.0" x2="2524.8" y2="65.0" style="stroke:#121212;stroke-width:3;"/>
  <text style="" text-anchor="middle">
<tspan x="2524.0" y="26.0" style="font-size:18px;fill:#121212;" >TAA</tspan>  </text>
  <line x1="2556" y1="50.0" x2="2596" y2="50.0" style="stroke:#999; stroke-width:3;" />
  <rect class="anc_exon" x="2596" y="35.0" width="62" height="30" style="fill:#87bcbc;fill-opacity:1.00" />
  <line x1="2658" y1="50.0" x2="2678" y2="50.0" style="stroke:#999; stroke-width:3;" />
  <line x1="2678" y1="50.0" x2="2678" y2="50.0" style="stroke:#999; stroke-width:3;" />
  <line x1="2678" y1="50.0" x2="2678" y2="50.0" style="stroke:#999; stroke-width:3;" />
  <line x1="2678" y1="50.0" x2="2698" y2="50.0" style="stroke:#999; stroke-width:3;" />
  <rect class="anc_exon" x="2698" y="35.0" width="83" height="30" style="fill:#87bcbc;fill-opacity:1.00" />
  <line x1="2781" y1="50.0" x2="2821" y2="50.0" style="stroke:#999; stroke-width:3;" />
  <rect class="anc_exon" x="2821" y="35.0" width="77" height="30" style="fill:#87bcbc;fill-opacity:1.00" />
  <line x1="2898" y1="50.0" x2="2938" y2="50.0" style="stroke:#999; stroke-width:3;" />
  <rect class="anc_exon" x="2938" y="35.0" width="68" height="30" style="fill:#87bcbc;fill-opacity:1.00" />
  <line x1="3006" y1="50.0" x2="3046" y2="50.0" style="stroke:#999; stroke-width:3;" />
  <rect class="anc_exon" x="3046" y="35.0" width="126" height="30" style="fill:#87bcbc;fill-opacity:1.00" />
  <line x1="3172" y1="50.0" x2="3212" y2="50.0" style="stroke:#999; stroke-width:3;" />
  <rect class="anc_exon" x="3212" y="35.0" width="77" height="30" style="fill:#87bcbc;fill-opacity:1.00" />
  <line x1="3289" y1="50.0" x2="3329" y2="50.0" style="stroke:#999; stroke-width:3;" />
  <rect class="anc_exon" x="3329" y="35.0" width="180" height="30" style="fill:#87bcbc;fill-opacity:1.00" />
  <line x1="3509" y1="50.0" x2="3549" y2="50.0" style="stroke:#999; stroke-width:3;" />
  <rect class="anc_exon" x="3549" y="35.0" width="119" height="30" style="fill:#87bcbc;fill-opacity:1.00" />
  <line x1="3668" y1="50.0" x2="3708" y2="50.0" style="stroke:#999; stroke-width:3;" />
  <rect class="anc_exon" x="3708" y="35.0" width="92" height="30" style="fill:#878787;fill-opacity:1.00" />
  <line x1="3800" y1="50.0" x2="3840" y2="50.0" style="stroke:#999; stroke-width:3;" />
  <rect class="anc_exon" x="3840" y="35.0" width="129" height="30" style="fill:#87bcbc;fill-opacity:1.00" />
  <line x1="3969" y1="50.0" x2="4009" y2="50.0" style="stroke:#999; stroke-width:3;" />
  <rect class="anc_exon" x="4009" y="35.0" width="71" height="30" style="fill:#87bcbc;fill-opacity:1.00" />
  <line x1="4080" y1="50.0" x2="4120" y2="50.0" style="stroke:#999; stroke-width:3;" />
  <rect class="anc_exon" x="4120" y="35.0" width="150" height="30" style="fill:#87bcbc;fill-opacity:1.00" />
  <line x1="4270" y1="50.0" x2="4310" y2="50.0" style="stroke:#999; stroke-width:3;" />
  <rect class="anc_exon" x="4310" y="35.0" width="34" height="30" style="fill:#87bcbc;fill-opacity:1.00" />
  <rect class="anc_exon" x="4344" y="35.0" width="0" height="30" style="fill:#87bcbc;fill-opacity:1.00" />
  <text style="" >
<tspan x="0" y="83.0" style="font-size:18px;" >SP XM_031954005_1.1</tspan>  </text>



<script type="text/ecmascript">
<![CDATA[
function draw_bbox(text_id)
{
    var text_elem = document.getElementById(text_id);
    var offset_px = 2;
    var offset_py = 0;
    bbox = text_elem.getBBox();
    var box = document.createElementNS(document.rootElement.namespaceURI,'rect');
    box.setAttribute('x', bbox.x - offset_px);
    box.setAttribute('y', bbox.y - offset_py);
    box.setAttribute('width', bbox.width + offset_px * 2);
    box.setAttribute('height', bbox.height + offset_py * 2);
    box.setAttribute('style','fill: white;'+'stroke: black;'+'stroke-width: 1px;');
    text_elem.insertBefore(box,text_elem.childNodes[0]);

    var svg = text_elem.parentNode;
    svg.appendChild(text_elem);
}

for (var i=1; i < 1; i++)
{
draw_bbox("Mouseover" + i);
}
]]> 
</script>
</svg>
