<svg version="1.1"
xmlns="http://www.w3.org/2000/svg"
xmlns:xlink="http://www.w3.org/1999/xlink"
width="3723" height="100" viewBox = "0 0 3723 100"
onclick="mouseclick(evt)">

<script type="text/ecmascript">

<![CDATA[
    function mouseover(evt, target) { 
    var gv = document.getElementById("globalVariable");
    var previoustarget = gv.firstChild.nodeValue;
    if (previoustarget != "none") 
    {
        	document.getElementById(gv.firstChild.nodeValue).setAttributeNS(null, "visibility", "hidden");
    }
    document.getElementById(target).setAttributeNS(null, "visibility", "visible");
    gv.firstChild.nodeValue = target;
        }

    function mouseclick(evt) { 
    var gv = document.getElementById("globalVariable");
    var previoustarget = gv.firstChild.nodeValue;
    if (previoustarget != "none") {
        	document.getElementById(gv.firstChild.nodeValue).setAttributeNS(null, "visibility", "hidden");
        }
    }
]]>
  </script>
<style type="text/css" >

<![CDATA[
    rect.anc_exon {
              stroke-width:3;
                  }

    rect.non_anc_exon {
              stroke: black; stroke-width:3; stroke-dasharray: 5,5;
                    }

    text {
              font-size: 18px;
              font-family: Courier New;
          }
                    ]]>
</style>

<defs>
    <text x="150" y="40" id="globalVariable">none</text>
</defs>

  <rect class="anc_exon" x="0" y="35.0" width="0" height="30" style="fill:#87bcbc;fill-opacity:1.00" />
  <rect class="anc_exon" x="0" y="35.0" width="150.4" height="30" style="fill:#87bcbc;fill-opacity:1.00" />
  <line x1="150.4" y1="50.0" x2="169.4" y2="50.0" style="stroke:#999; stroke-width:3;" />
  <line x1="169.4" y1="50.0" x2="169.4" y2="50.0" style="stroke:#999; stroke-width:3;" />
  <line x1="169.4" y1="50.0" x2="169.4" y2="50.0" style="stroke:#999; stroke-width:3;" />
  <line x1="169.4" y1="50.0" x2="190.0" y2="50.0" style="stroke:#999; stroke-width:3;" />
  <rect class="anc_exon" x="190" y="35.0" width="39" height="30" style="fill:#87bcbc;fill-opacity:1.00" />
  <line x1="229" y1="50.0" x2="269" y2="50.0" style="stroke:#999; stroke-width:3;" />
  <rect class="anc_exon" x="269" y="35.0" width="48" height="30" style="fill:#87bcbc;fill-opacity:1.00" />
  <line x1="317" y1="50.0" x2="357" y2="50.0" style="stroke:#999; stroke-width:3;" />
  <rect class="anc_exon" x="357" y="35.0" width="68" height="30" style="fill:#87bcbc;fill-opacity:1.00" />
  <line x1="425" y1="50.0" x2="465" y2="50.0" style="stroke:#999; stroke-width:3;" />
  <rect class="anc_exon" x="465" y="35.0" width="60" height="30" style="fill:#87bcbc;fill-opacity:1.00" />
  <line x1="525" y1="50.0" x2="565" y2="50.0" style="stroke:#999; stroke-width:3;" />
  <rect class="anc_exon" x="565" y="35.0" width="56" height="30" style="fill:#87bcbc;fill-opacity:1.00" />
  <line x1="621" y1="50.0" x2="661" y2="50.0" style="stroke:#999; stroke-width:3;" />
  <rect class="anc_exon" x="661" y="35.0" width="103" height="30" style="fill:#87bcbc;fill-opacity:1.00" />
  <line x1="764" y1="50.0" x2="804" y2="50.0" style="stroke:#999; stroke-width:3;" />
  <rect class="anc_exon" x="804" y="35.0" width="49" height="30" style="fill:#87bcbc;fill-opacity:1.00" />
  <line x1="853" y1="50.0" x2="893" y2="50.0" style="stroke:#999; stroke-width:3;" />
  <rect class="anc_exon" x="893" y="35.0" width="69" height="30" style="fill:#87bcbc;fill-opacity:1.00" />
  <line x1="962" y1="50.0" x2="1002" y2="50.0" style="stroke:#999; stroke-width:3;" />
  <rect class="anc_exon" x="1002" y="35.0" width="60" height="30" style="fill:#87bcbc;fill-opacity:1.00" />
  <line x1="1062" y1="50.0" x2="1102" y2="50.0" style="stroke:#999; stroke-width:3;" />
  <rect class="anc_exon" x="1102" y="35.0" width="62" height="30" style="fill:#87bcbc;fill-opacity:1.00" />
  <line x1="1164" y1="50.0" x2="1204" y2="50.0" style="stroke:#999; stroke-width:3;" />
  <rect class="anc_exon" x="1204" y="35.0" width="111" height="30" style="fill:#87bcbc;fill-opacity:1.00" />
  <line x1="1315" y1="50.0" x2="1355" y2="50.0" style="stroke:#999; stroke-width:3;" />
  <rect class="anc_exon" x="1355" y="35.0" width="124" height="30" style="fill:#87bcbc;fill-opacity:1.00" />
  <line x1="1479" y1="50.0" x2="1519" y2="50.0" style="stroke:#999; stroke-width:3;" />
  <rect class="anc_exon" x="1519" y="35.0" width="63" height="30" style="fill:#87bcbc;fill-opacity:1.00" />
  <line x1="1582" y1="50.0" x2="1622" y2="50.0" style="stroke:#999; stroke-width:3;" />
  <rect class="anc_exon" x="1622" y="35.0" width="100" height="30" style="fill:#87bcbc;fill-opacity:1.00" />
  <line x1="1722" y1="50.0" x2="1762" y2="50.0" style="stroke:#999; stroke-width:3;" />
  <rect class="anc_exon" x="1762" y="35.0" width="65" height="30" style="fill:#87bcbc;fill-opacity:1.00" />
  <line x1="1827" y1="50.0" x2="1867" y2="50.0" style="stroke:#999; stroke-width:3;" />
  <rect class="anc_exon" x="1867" y="35.0" width="78" height="30" style="fill:#87bcbc;fill-opacity:1.00" />
  <line x1="1945" y1="50.0" x2="1985" y2="50.0" style="stroke:#999; stroke-width:3;" />
  <rect class="anc_exon" x="1985" y="35.0" width="120" height="30" style="fill:#87bcbc;fill-opacity:1.00" />
  <line x1="2105" y1="50.0" x2="2145" y2="50.0" style="stroke:#999; stroke-width:3;" />
  <rect class="anc_exon" x="2145" y="35.0" width="122" height="30" style="fill:#87bcbc;fill-opacity:1.00" />
  <line x1="2267" y1="50.0" x2="2307" y2="50.0" style="stroke:#999; stroke-width:3;" />
  <rect class="anc_exon" x="2307" y="35.0" width="80" height="30" style="fill:#87bcbc;fill-opacity:1.00" />
  <line x1="2387" y1="50.0" x2="2427" y2="50.0" style="stroke:#999; stroke-width:3;" />
  <rect class="anc_exon" x="2427" y="35.0" width="82" height="30" style="fill:#87bcbc;fill-opacity:1.00" />
  <line x1="2509" y1="50.0" x2="2549" y2="50.0" style="stroke:#999; stroke-width:3;" />
  <rect class="anc_exon" x="2549" y="35.0" width="55" height="30" style="fill:#87bcbc;fill-opacity:1.00" />
  <line x1="2604" y1="50.0" x2="2644" y2="50.0" style="stroke:#999; stroke-width:3;" />
  <rect class="anc_exon" x="2644" y="35.0" width="101" height="30" style="fill:#87bcbc;fill-opacity:1.00" />
  <line x1="2745" y1="50.0" x2="2785" y2="50.0" style="stroke:#999; stroke-width:3;" />
  <rect class="anc_exon" x="2785" y="35.0" width="80" height="30" style="fill:#87bcbc;fill-opacity:1.00" />
  <line x1="2865" y1="50.0" x2="2905" y2="50.0" style="stroke:#999; stroke-width:3;" />
  <rect class="anc_exon" x="2905" y="35.0" width="45" height="30" style="fill:#87bcbc;fill-opacity:1.00" />
  <line x1="2950" y1="50.0" x2="2990" y2="50.0" style="stroke:#999; stroke-width:3;" />
  <rect class="anc_exon" x="2990" y="35.0" width="149" height="30" style="fill:#87bcbc;fill-opacity:1.00" />
  <line x1="3139" y1="50.0" x2="3179" y2="50.0" style="stroke:#999; stroke-width:3;" />
  <rect class="anc_exon" x="3179" y="35.0" width="66" height="30" style="fill:#87bcbc;fill-opacity:1.00" />
  <line x1="3245" y1="50.0" x2="3285" y2="50.0" style="stroke:#999; stroke-width:3;" />
  <rect class="anc_exon" x="3285" y="35.0" width="132" height="30" style="fill:#87bcbc;fill-opacity:1.00" />
  <line x1="3417" y1="50.0" x2="3457" y2="50.0" style="stroke:#999; stroke-width:3;" />
  <rect class="anc_exon" x="3457" y="35.0" width="48" height="30" style="fill:#87bcbc;fill-opacity:1.00" />
  <line x1="3505" y1="50.0" x2="3545" y2="50.0" style="stroke:#999; stroke-width:3;" />
  <rect class="anc_exon" x="3545" y="35.0" width="80" height="30" style="fill:#87bcbc;fill-opacity:1.00" />
  <line x1="3625" y1="50.0" x2="3665" y2="50.0" style="stroke:#999; stroke-width:3;" />
  <rect class="anc_exon" x="3665" y="35.0" width="22" height="30" style="fill:#87bcbc;fill-opacity:1.00" />
  <rect class="anc_exon" x="3687" y="35.0" width="0" height="30" style="fill:#87bcbc;fill-opacity:1.00" />
  <text style="" >
<tspan x="0" y="83.0" style="font-size:18px;" >SP XM_023494790_2.1</tspan>  </text>



<script type="text/ecmascript">
<![CDATA[
function draw_bbox(text_id)
{
    var text_elem = document.getElementById(text_id);
    var offset_px = 2;
    var offset_py = 0;
    bbox = text_elem.getBBox();
    var box = document.createElementNS(document.rootElement.namespaceURI,'rect');
    box.setAttribute('x', bbox.x - offset_px);
    box.setAttribute('y', bbox.y - offset_py);
    box.setAttribute('width', bbox.width + offset_px * 2);
    box.setAttribute('height', bbox.height + offset_py * 2);
    box.setAttribute('style','fill: white;'+'stroke: black;'+'stroke-width: 1px;');
    text_elem.insertBefore(box,text_elem.childNodes[0]);

    var svg = text_elem.parentNode;
    svg.appendChild(text_elem);
}

for (var i=1; i < 1; i++)
{
draw_bbox("Mouseover" + i);
}
]]> 
</script>
</svg>
