<svg version="1.1"
xmlns="http://www.w3.org/2000/svg"
xmlns:xlink="http://www.w3.org/1999/xlink"
width="11702" height="100" viewBox = "0 0 11702 100"
onclick="mouseclick(evt)">

<script type="text/ecmascript">

<![CDATA[
    function mouseover(evt, target) { 
    var gv = document.getElementById("globalVariable");
    var previoustarget = gv.firstChild.nodeValue;
    if (previoustarget != "none") 
    {
        	document.getElementById(gv.firstChild.nodeValue).setAttributeNS(null, "visibility", "hidden");
    }
    document.getElementById(target).setAttributeNS(null, "visibility", "visible");
    gv.firstChild.nodeValue = target;
        }

    function mouseclick(evt) { 
    var gv = document.getElementById("globalVariable");
    var previoustarget = gv.firstChild.nodeValue;
    if (previoustarget != "none") {
        	document.getElementById(gv.firstChild.nodeValue).setAttributeNS(null, "visibility", "hidden");
        }
    }
]]>
  </script>
<style type="text/css" >

<![CDATA[
    rect.anc_exon {
              stroke-width:3;
                  }

    rect.non_anc_exon {
              stroke: black; stroke-width:3; stroke-dasharray: 5,5;
                    }

    text {
              font-size: 18px;
              font-family: Courier New;
          }
                    ]]>
</style>

<defs>
    <text x="150" y="40" id="globalVariable">none</text>
</defs>

  <rect class="anc_exon" x="0" y="35.0" width="0" height="30" style="fill:#87bcbc;fill-opacity:1.00" />
  <rect class="anc_exon" x="0" y="35.0" width="34.4" height="30" style="fill:#878787;fill-opacity:1.00" />
  <line x1="34.4" y1="50.0" x2="53.4" y2="50.0" style="stroke:#999; stroke-width:3;" />
  <line x1="53.4" y1="50.0" x2="53.4" y2="50.0" style="stroke:#999; stroke-width:3;" />
  <line x1="53.4" y1="50.0" x2="53.4" y2="50.0" style="stroke:#999; stroke-width:3;" />
  <line x1="53.4" y1="50.0" x2="74.0" y2="50.0" style="stroke:#999; stroke-width:3;" />
  <rect class="anc_exon" x="74" y="35.0" width="70" height="30" style="fill:#87bcbc;fill-opacity:1.00" />
  <line x1="144" y1="50.0" x2="164" y2="50.0" style="stroke:#999; stroke-width:3;" />
  <line x1="164" y1="50.0" x2="164" y2="50.0" style="stroke:#999; stroke-width:3;" />
  <line x1="164" y1="50.0" x2="164" y2="50.0" style="stroke:#999; stroke-width:3;" />
  <line x1="164" y1="50.0" x2="184" y2="50.0" style="stroke:#999; stroke-width:3;" />
  <rect class="anc_exon" x="184" y="35.0" width="334" height="30" style="fill:#87bcbc;fill-opacity:1.00" />
  <line x1="518" y1="50.0" x2="538" y2="50.0" style="stroke:#999; stroke-width:3;" />
  <line x1="538" y1="50.0" x2="538" y2="50.0" style="stroke:#999; stroke-width:3;" />
  <line x1="538" y1="50.0" x2="538" y2="50.0" style="stroke:#999; stroke-width:3;" />
  <line x1="538" y1="50.0" x2="558" y2="50.0" style="stroke:#999; stroke-width:3;" />
  <rect class="anc_exon" x="558" y="35.0" width="40" height="30" style="fill:#87bcbc;fill-opacity:1.00" />
  <line x1="598" y1="50.0" x2="638" y2="50.0" style="stroke:#999; stroke-width:3;" />
  <rect class="anc_exon" x="638" y="35.0" width="120" height="30" style="fill:#87bcbc;fill-opacity:1.00" />
  <line x1="758" y1="50.0" x2="778" y2="50.0" style="stroke:#999; stroke-width:3;" />
  <line x1="778" y1="50.0" x2="778" y2="50.0" style="stroke:#999; stroke-width:3;" />
  <line x1="778" y1="50.0" x2="778" y2="50.0" style="stroke:#999; stroke-width:3;" />
  <line x1="778" y1="50.0" x2="798" y2="50.0" style="stroke:#999; stroke-width:3;" />
  <rect class="anc_exon" x="798" y="35.0" width="54" height="30" style="fill:#87bcbc;fill-opacity:1.00" />
  <line x1="852" y1="50.0" x2="872" y2="50.0" style="stroke:#999; stroke-width:3;" />
  <line x1="872" y1="50.0" x2="872" y2="50.0" style="stroke:#999; stroke-width:3;" />
  <line x1="872" y1="50.0" x2="872" y2="50.0" style="stroke:#999; stroke-width:3;" />
  <line x1="872" y1="50.0" x2="892" y2="50.0" style="stroke:#999; stroke-width:3;" />
  <rect class="anc_exon" x="892" y="35.0" width="154" height="30" style="fill:#87bcbc;fill-opacity:1.00" />
  <line x1="1046" y1="50.0" x2="1086" y2="50.0" style="stroke:#999; stroke-width:3;" />
  <rect class="anc_exon" x="1086" y="35.0" width="49" height="30" style="fill:#87bcbc;fill-opacity:1.00" />
  <line x1="1135" y1="50.0" x2="1155" y2="50.0" style="stroke:#999; stroke-width:3;" />
  <line x1="1155" y1="50.0" x2="1155" y2="50.0" style="stroke:#999; stroke-width:3;" />
  <line x1="1155" y1="50.0" x2="1155" y2="50.0" style="stroke:#999; stroke-width:3;" />
  <line x1="1155" y1="50.0" x2="1175" y2="50.0" style="stroke:#999; stroke-width:3;" />
  <rect class="anc_exon" x="1175" y="35.0" width="65" height="30" style="fill:#87bcbc;fill-opacity:1.00" />
  <line x1="1240" y1="50.0" x2="1280" y2="50.0" style="stroke:#999; stroke-width:3;" />
  <rect class="anc_exon" x="1280" y="35.0" width="74" height="30" style="fill:#87bcbc;fill-opacity:1.00" />
  <line x1="1354" y1="50.0" x2="1374" y2="50.0" style="stroke:#999; stroke-width:3;" />
  <line x1="1374" y1="50.0" x2="1374" y2="50.0" style="stroke:#999; stroke-width:3;" />
  <line x1="1374" y1="50.0" x2="1374" y2="50.0" style="stroke:#999; stroke-width:3;" />
  <line x1="1374" y1="50.0" x2="1394" y2="50.0" style="stroke:#999; stroke-width:3;" />
  <rect class="anc_exon" x="1394" y="35.0" width="100" height="30" style="fill:#87bcbc;fill-opacity:1.00" />
  <line x1="1494" y1="50.0" x2="1534" y2="50.0" style="stroke:#999; stroke-width:3;" />
  <rect class="anc_exon" x="1534" y="35.0" width="104" height="30" style="fill:#87bcbc;fill-opacity:1.00" />
  <line x1="1638" y1="50.0" x2="1678" y2="50.0" style="stroke:#999; stroke-width:3;" />
  <rect class="anc_exon" x="1678" y="35.0" width="28" height="30" style="fill:#87bcbc;fill-opacity:1.00" />
  <line x1="1706" y1="50.0" x2="1746" y2="50.0" style="stroke:#999; stroke-width:3;" />
  <rect class="anc_exon" x="1746" y="35.0" width="104" height="30" style="fill:#87bcbc;fill-opacity:1.00" />
  <line x1="1850" y1="50.0" x2="1890" y2="50.0" style="stroke:#999; stroke-width:3;" />
  <rect class="anc_exon" x="1890" y="35.0" width="510" height="30" style="fill:#878787;fill-opacity:1.00" />
  <line x1="2400" y1="50.0" x2="2420" y2="50.0" style="stroke:#999; stroke-width:3;" />
  <line x1="2420" y1="50.0" x2="2420" y2="50.0" style="stroke:#999; stroke-width:3;" />
  <line x1="2420" y1="50.0" x2="2420" y2="50.0" style="stroke:#999; stroke-width:3;" />
  <line x1="2420" y1="50.0" x2="2440" y2="50.0" style="stroke:#999; stroke-width:3;" />
  <rect class="anc_exon" x="2440" y="35.0" width="172" height="30" style="fill:#87bcbc;fill-opacity:1.00" />
  <line x1="2612" y1="50.0" x2="2632" y2="50.0" style="stroke:#999; stroke-width:3;" />
  <line x1="2632" y1="50.0" x2="2632" y2="50.0" style="stroke:#999; stroke-width:3;" />
  <line x1="2632" y1="50.0" x2="2632" y2="50.0" style="stroke:#999; stroke-width:3;" />
  <line x1="2632" y1="50.0" x2="2652" y2="50.0" style="stroke:#999; stroke-width:3;" />
  <rect class="anc_exon" x="2652" y="35.0" width="92" height="30" style="fill:#87bcbc;fill-opacity:1.00" />
  <line x1="2744" y1="50.0" x2="2784" y2="50.0" style="stroke:#999; stroke-width:3;" />
  <rect class="anc_exon" x="2784" y="35.0" width="102" height="30" style="fill:#87bcbc;fill-opacity:1.00" />
  <line x1="2886" y1="50.0" x2="2906" y2="50.0" style="stroke:#999; stroke-width:3;" />
  <line x1="2906" y1="50.0" x2="2906" y2="50.0" style="stroke:#999; stroke-width:3;" />
  <line x1="2906" y1="50.0" x2="2906" y2="50.0" style="stroke:#999; stroke-width:3;" />
  <line x1="2906" y1="50.0" x2="2926" y2="50.0" style="stroke:#999; stroke-width:3;" />
  <rect class="anc_exon" x="2926" y="35.0" width="72" height="30" style="fill:#87bcbc;fill-opacity:1.00" />
  <line x1="2998" y1="50.0" x2="3018" y2="50.0" style="stroke:#999; stroke-width:3;" />
  <line x1="3018" y1="50.0" x2="3018" y2="50.0" style="stroke:#999; stroke-width:3;" />
  <line x1="3018" y1="50.0" x2="3018" y2="50.0" style="stroke:#999; stroke-width:3;" />
  <line x1="3018" y1="50.0" x2="3038" y2="50.0" style="stroke:#999; stroke-width:3;" />
  <rect class="anc_exon" x="3038" y="35.0" width="76" height="30" style="fill:#87bcbc;fill-opacity:1.00" />
  <line x1="3114" y1="50.0" x2="3134" y2="50.0" style="stroke:#999; stroke-width:3;" />
  <line x1="3134" y1="50.0" x2="3134" y2="50.0" style="stroke:#999; stroke-width:3;" />
  <line x1="3134" y1="50.0" x2="3134" y2="50.0" style="stroke:#999; stroke-width:3;" />
  <line x1="3134" y1="50.0" x2="3154" y2="50.0" style="stroke:#999; stroke-width:3;" />
  <rect class="anc_exon" x="3154" y="35.0" width="66" height="30" style="fill:#87bcbc;fill-opacity:1.00" />
  <line x1="3220" y1="50.0" x2="3240" y2="50.0" style="stroke:#999; stroke-width:3;" />
  <line x1="3240" y1="50.0" x2="3240" y2="50.0" style="stroke:#999; stroke-width:3;" />
  <line x1="3240" y1="50.0" x2="3240" y2="50.0" style="stroke:#999; stroke-width:3;" />
  <line x1="3240" y1="50.0" x2="3260" y2="50.0" style="stroke:#999; stroke-width:3;" />
  <rect class="anc_exon" x="3260" y="35.0" width="124" height="30" style="fill:#87bcbc;fill-opacity:1.00" />
  <line x1="3384" y1="50.0" x2="3404" y2="50.0" style="stroke:#999; stroke-width:3;" />
  <line x1="3404" y1="50.0" x2="3404" y2="50.0" style="stroke:#999; stroke-width:3;" />
  <line x1="3404" y1="50.0" x2="3404" y2="50.0" style="stroke:#999; stroke-width:3;" />
  <line x1="3404" y1="50.0" x2="3424" y2="50.0" style="stroke:#999; stroke-width:3;" />
  <rect class="anc_exon" x="3424" y="35.0" width="91" height="30" style="fill:#87bcbc;fill-opacity:1.00" />
  <line x1="3515" y1="50.0" x2="3555" y2="50.0" style="stroke:#999; stroke-width:3;" />
  <rect class="anc_exon" x="3555" y="35.0" width="80" height="30" style="fill:#87bcbc;fill-opacity:1.00" />
  <line x1="3635" y1="50.0" x2="3675" y2="50.0" style="stroke:#999; stroke-width:3;" />
  <rect class="anc_exon" x="3675" y="35.0" width="128" height="30" style="fill:#87bcbc;fill-opacity:1.00" />
  <line x1="3803" y1="50.0" x2="3823" y2="50.0" style="stroke:#999; stroke-width:3;" />
  <line x1="3823" y1="50.0" x2="3823" y2="50.0" style="stroke:#999; stroke-width:3;" />
  <line x1="3823" y1="50.0" x2="3823" y2="50.0" style="stroke:#999; stroke-width:3;" />
  <line x1="3823" y1="50.0" x2="3843" y2="50.0" style="stroke:#999; stroke-width:3;" />
  <rect class="anc_exon" x="3843" y="35.0" width="101" height="30" style="fill:#87bcbc;fill-opacity:1.00" />
  <line x1="3944" y1="50.0" x2="3984" y2="50.0" style="stroke:#999; stroke-width:3;" />
  <rect class="anc_exon" x="3984" y="35.0" width="118" height="30" style="fill:#87bcbc;fill-opacity:1.00" />
  <line x1="4102" y1="50.0" x2="4122" y2="50.0" style="stroke:#999; stroke-width:3;" />
  <line x1="4122" y1="50.0" x2="4122" y2="50.0" style="stroke:#999; stroke-width:3;" />
  <line x1="4122" y1="50.0" x2="4122" y2="50.0" style="stroke:#999; stroke-width:3;" />
  <line x1="4122" y1="50.0" x2="4142" y2="50.0" style="stroke:#999; stroke-width:3;" />
  <rect class="anc_exon" x="4142" y="35.0" width="80" height="30" style="fill:#87bcbc;fill-opacity:1.00" />
  <line x1="4222" y1="50.0" x2="4262" y2="50.0" style="stroke:#999; stroke-width:3;" />
  <rect class="anc_exon" x="4262" y="35.0" width="168" height="30" style="fill:#87bcbc;fill-opacity:1.00" />
  <line x1="4430" y1="50.0" x2="4450" y2="50.0" style="stroke:#999; stroke-width:3;" />
  <line x1="4450" y1="50.0" x2="4450" y2="50.0" style="stroke:#999; stroke-width:3;" />
  <line x1="4450" y1="50.0" x2="4450" y2="50.0" style="stroke:#999; stroke-width:3;" />
  <line x1="4450" y1="50.0" x2="4470" y2="50.0" style="stroke:#999; stroke-width:3;" />
  <rect class="anc_exon" x="4470" y="35.0" width="100" height="30" style="fill:#87bcbc;fill-opacity:1.00" />
  <line x1="4570" y1="50.0" x2="4610" y2="50.0" style="stroke:#999; stroke-width:3;" />
  <rect class="anc_exon" x="4610" y="35.0" width="98" height="30" style="fill:#87bcbc;fill-opacity:1.00" />
  <line x1="4708" y1="50.0" x2="4748" y2="50.0" style="stroke:#999; stroke-width:3;" />
  <rect class="anc_exon" x="4748" y="35.0" width="67" height="30" style="fill:#87bcbc;fill-opacity:1.00" />
  <line x1="4815" y1="50.0" x2="4855" y2="50.0" style="stroke:#999; stroke-width:3;" />
  <rect class="anc_exon" x="4855" y="35.0" width="69" height="30" style="fill:#87bcbc;fill-opacity:1.00" />
  <line x1="4924" y1="50.0" x2="4944" y2="50.0" style="stroke:#999; stroke-width:3;" />
  <line x1="4944" y1="50.0" x2="4944" y2="50.0" style="stroke:#999; stroke-width:3;" />
  <line x1="4944" y1="50.0" x2="4944" y2="50.0" style="stroke:#999; stroke-width:3;" />
  <line x1="4944" y1="50.0" x2="4964" y2="50.0" style="stroke:#999; stroke-width:3;" />
  <rect class="anc_exon" x="4964" y="35.0" width="160" height="30" style="fill:#87bcbc;fill-opacity:1.00" />
  <line x1="5124" y1="50.0" x2="5144" y2="50.0" style="stroke:#999; stroke-width:3;" />
  <line x1="5144" y1="50.0" x2="5144" y2="50.0" style="stroke:#999; stroke-width:3;" />
  <line x1="5144" y1="50.0" x2="5144" y2="50.0" style="stroke:#999; stroke-width:3;" />
  <line x1="5144" y1="50.0" x2="5164" y2="50.0" style="stroke:#999; stroke-width:3;" />
  <rect class="anc_exon" x="5164" y="35.0" width="66" height="30" style="fill:#87bcbc;fill-opacity:1.00" />
  <line x1="5230" y1="50.0" x2="5270" y2="50.0" style="stroke:#999; stroke-width:3;" />
  <rect class="anc_exon" x="5270" y="35.0" width="32" height="30" style="fill:#87bcbc;fill-opacity:1.00" />
  <line x1="5302" y1="50.0" x2="5342" y2="50.0" style="stroke:#999; stroke-width:3;" />
  <rect class="anc_exon" x="5342" y="35.0" width="100" height="30" style="fill:#87bcbc;fill-opacity:1.00" />
  <line x1="5442" y1="50.0" x2="5482" y2="50.0" style="stroke:#999; stroke-width:3;" />
  <rect class="anc_exon" x="5482" y="35.0" width="122" height="30" style="fill:#87bcbc;fill-opacity:1.00" />
  <line x1="5604" y1="50.0" x2="5624" y2="50.0" style="stroke:#999; stroke-width:3;" />
  <line x1="5624" y1="50.0" x2="5624" y2="50.0" style="stroke:#999; stroke-width:3;" />
  <line x1="5624" y1="50.0" x2="5624" y2="50.0" style="stroke:#999; stroke-width:3;" />
  <line x1="5624" y1="50.0" x2="5644" y2="50.0" style="stroke:#999; stroke-width:3;" />
  <rect class="anc_exon" x="5644" y="35.0" width="84" height="30" style="fill:#87bcbc;fill-opacity:1.00" />
  <line x1="5728" y1="50.0" x2="5768" y2="50.0" style="stroke:#999; stroke-width:3;" />
  <rect class="anc_exon" x="5768" y="35.0" width="44" height="30" style="fill:#87bcbc;fill-opacity:1.00" />
  <line x1="5812" y1="50.0" x2="5852" y2="50.0" style="stroke:#999; stroke-width:3;" />
  <rect class="anc_exon" x="5852" y="35.0" width="96" height="30" style="fill:#87bcbc;fill-opacity:1.00" />
  <line x1="5948" y1="50.0" x2="5968" y2="50.0" style="stroke:#999; stroke-width:3;" />
  <line x1="5968" y1="50.0" x2="5968" y2="50.0" style="stroke:#999; stroke-width:3;" />
  <line x1="5968" y1="50.0" x2="5968" y2="50.0" style="stroke:#999; stroke-width:3;" />
  <line x1="5968" y1="50.0" x2="5988" y2="50.0" style="stroke:#999; stroke-width:3;" />
  <rect class="anc_exon" x="5988" y="35.0" width="147" height="30" style="fill:#87bcbc;fill-opacity:1.00" />
  <line x1="6135" y1="50.0" x2="6175" y2="50.0" style="stroke:#999; stroke-width:3;" />
  <rect class="anc_exon" x="6175" y="35.0" width="131" height="30" style="fill:#87bcbc;fill-opacity:1.00" />
  <line x1="6306" y1="50.0" x2="6346" y2="50.0" style="stroke:#999; stroke-width:3;" />
  <rect class="anc_exon" x="6346" y="35.0" width="52" height="30" style="fill:#87bcbc;fill-opacity:1.00" />
  <line x1="6398" y1="50.0" x2="6438" y2="50.0" style="stroke:#999; stroke-width:3;" />
  <rect class="anc_exon" x="6438" y="35.0" width="117" height="30" style="fill:#87bcbc;fill-opacity:1.00" />
  <line x1="6555" y1="50.0" x2="6595" y2="50.0" style="stroke:#999; stroke-width:3;" />
  <rect class="anc_exon" x="6595" y="35.0" width="45" height="30" style="fill:#87bcbc;fill-opacity:1.00" />
  <line x1="6640" y1="50.0" x2="6680" y2="50.0" style="stroke:#999; stroke-width:3;" />
  <rect class="anc_exon" x="6680" y="35.0" width="62" height="30" style="fill:#87bcbc;fill-opacity:1.00" />
  <line x1="6742" y1="50.0" x2="6782" y2="50.0" style="stroke:#999; stroke-width:3;" />
  <rect class="anc_exon" x="6782" y="35.0" width="76" height="30" style="fill:#87bcbc;fill-opacity:1.00" />
  <line x1="6858" y1="50.0" x2="6878" y2="50.0" style="stroke:#999; stroke-width:3;" />
  <line x1="6878" y1="50.0" x2="6878" y2="50.0" style="stroke:#999; stroke-width:3;" />
  <line x1="6878" y1="50.0" x2="6878" y2="50.0" style="stroke:#999; stroke-width:3;" />
  <line x1="6878" y1="50.0" x2="6898" y2="50.0" style="stroke:#999; stroke-width:3;" />
  <rect class="anc_exon" x="6898" y="35.0" width="138" height="30" style="fill:#87bcbc;fill-opacity:1.00" />
  <line x1="7036" y1="50.0" x2="7056" y2="50.0" style="stroke:#999; stroke-width:3;" />
  <line x1="7056" y1="50.0" x2="7056" y2="50.0" style="stroke:#999; stroke-width:3;" />
  <line x1="7056" y1="50.0" x2="7056" y2="50.0" style="stroke:#999; stroke-width:3;" />
  <line x1="7056" y1="50.0" x2="7076" y2="50.0" style="stroke:#999; stroke-width:3;" />
  <rect class="anc_exon" x="7076" y="35.0" width="123" height="30" style="fill:#87bcbc;fill-opacity:1.00" />
  <line x1="7199" y1="50.0" x2="7239" y2="50.0" style="stroke:#999; stroke-width:3;" />
  <rect class="anc_exon" x="7239" y="35.0" width="63" height="30" style="fill:#87bcbc;fill-opacity:1.00" />
  <line x1="7302" y1="50.0" x2="7322" y2="50.0" style="stroke:#999; stroke-width:3;" />
  <line x1="7322" y1="50.0" x2="7322" y2="50.0" style="stroke:#999; stroke-width:3;" />
  <line x1="7322" y1="50.0" x2="7322" y2="50.0" style="stroke:#999; stroke-width:3;" />
  <line x1="7322" y1="50.0" x2="7342" y2="50.0" style="stroke:#999; stroke-width:3;" />
  <rect class="anc_exon" x="7342" y="35.0" width="43" height="30" style="fill:#87bcbc;fill-opacity:1.00" />
  <line x1="7385" y1="50.0" x2="7425" y2="50.0" style="stroke:#999; stroke-width:3;" />
  <rect class="anc_exon" x="7425" y="35.0" width="76" height="30" style="fill:#87bcbc;fill-opacity:1.00" />
  <line x1="7501" y1="50.0" x2="7521" y2="50.0" style="stroke:#999; stroke-width:3;" />
  <line x1="7521" y1="50.0" x2="7521" y2="50.0" style="stroke:#999; stroke-width:3;" />
  <line x1="7521" y1="50.0" x2="7521" y2="50.0" style="stroke:#999; stroke-width:3;" />
  <line x1="7521" y1="50.0" x2="7541" y2="50.0" style="stroke:#999; stroke-width:3;" />
  <rect class="anc_exon" x="7541" y="35.0" width="52" height="30" style="fill:#87bcbc;fill-opacity:1.00" />
  <line x1="7593" y1="50.0" x2="7633" y2="50.0" style="stroke:#999; stroke-width:3;" />
  <rect class="anc_exon" x="7633" y="35.0" width="60" height="30" style="fill:#87bcbc;fill-opacity:1.00" />
  <line x1="7693" y1="50.0" x2="7733" y2="50.0" style="stroke:#999; stroke-width:3;" />
  <rect class="anc_exon" x="7733" y="35.0" width="38" height="30" style="fill:#87bcbc;fill-opacity:1.00" />
  <line x1="7771" y1="50.0" x2="7811" y2="50.0" style="stroke:#999; stroke-width:3;" />
  <rect class="anc_exon" x="7811" y="35.0" width="52" height="30" style="fill:#87bcbc;fill-opacity:1.00" />
  <line x1="7863" y1="50.0" x2="7883" y2="50.0" style="stroke:#999; stroke-width:3;" />
  <line x1="7883" y1="50.0" x2="7883" y2="50.0" style="stroke:#999; stroke-width:3;" />
  <line x1="7883" y1="50.0" x2="7883" y2="50.0" style="stroke:#999; stroke-width:3;" />
  <line x1="7883" y1="50.0" x2="7903" y2="50.0" style="stroke:#999; stroke-width:3;" />
  <rect class="anc_exon" x="7903" y="35.0" width="64" height="30" style="fill:#87bcbc;fill-opacity:1.00" />
  <line x1="7967" y1="50.0" x2="8007" y2="50.0" style="stroke:#999; stroke-width:3;" />
  <rect class="anc_exon" x="8007" y="35.0" width="68" height="30" style="fill:#87bcbc;fill-opacity:1.00" />
  <line x1="8075" y1="50.0" x2="8095" y2="50.0" style="stroke:#999; stroke-width:3;" />
  <line x1="8095" y1="50.0" x2="8095" y2="50.0" style="stroke:#999; stroke-width:3;" />
  <line x1="8095" y1="50.0" x2="8095" y2="50.0" style="stroke:#999; stroke-width:3;" />
  <line x1="8095" y1="50.0" x2="8115" y2="50.0" style="stroke:#999; stroke-width:3;" />
  <rect class="anc_exon" x="8115" y="35.0" width="135" height="30" style="fill:#87bcbc;fill-opacity:1.00" />
  <line x1="8250" y1="50.0" x2="8290" y2="50.0" style="stroke:#999; stroke-width:3;" />
  <rect class="anc_exon" x="8290" y="35.0" width="60" height="30" style="fill:#87bcbc;fill-opacity:1.00" />
  <line x1="8350" y1="50.0" x2="8370" y2="50.0" style="stroke:#999; stroke-width:3;" />
  <line x1="8370" y1="50.0" x2="8370" y2="50.0" style="stroke:#999; stroke-width:3;" />
  <line x1="8370" y1="50.0" x2="8370" y2="50.0" style="stroke:#999; stroke-width:3;" />
  <line x1="8370" y1="50.0" x2="8390" y2="50.0" style="stroke:#999; stroke-width:3;" />
  <rect class="anc_exon" x="8390" y="35.0" width="121" height="30" style="fill:#87bcbc;fill-opacity:1.00" />
  <line x1="8511" y1="50.0" x2="8551" y2="50.0" style="stroke:#999; stroke-width:3;" />
  <rect class="anc_exon" x="8551" y="35.0" width="39" height="30" style="fill:#87bcbc;fill-opacity:1.00" />
  <line x1="8590" y1="50.0" x2="8630" y2="50.0" style="stroke:#999; stroke-width:3;" />
  <rect class="anc_exon" x="8630" y="35.0" width="84" height="30" style="fill:#87bcbc;fill-opacity:1.00" />
  <line x1="8714" y1="50.0" x2="8754" y2="50.0" style="stroke:#999; stroke-width:3;" />
  <rect class="anc_exon" x="8754" y="35.0" width="36" height="30" style="fill:#87bcbc;fill-opacity:1.00" />
  <line x1="8790" y1="50.0" x2="8810" y2="50.0" style="stroke:#999; stroke-width:3;" />
  <line x1="8810" y1="50.0" x2="8810" y2="50.0" style="stroke:#999; stroke-width:3;" />
  <line x1="8810" y1="50.0" x2="8810" y2="50.0" style="stroke:#999; stroke-width:3;" />
  <line x1="8810" y1="50.0" x2="8830" y2="50.0" style="stroke:#999; stroke-width:3;" />
  <rect class="anc_exon" x="8830" y="35.0" width="84" height="30" style="fill:#87bcbc;fill-opacity:1.00" />
  <line x1="8914" y1="50.0" x2="8954" y2="50.0" style="stroke:#999; stroke-width:3;" />
  <rect class="anc_exon" x="8954" y="35.0" width="118" height="30" style="fill:#87bcbc;fill-opacity:1.00" />
  <line x1="9072" y1="50.0" x2="9112" y2="50.0" style="stroke:#999; stroke-width:3;" />
  <rect class="anc_exon" x="9112" y="35.0" width="508" height="30" style="fill:#87bcbc;fill-opacity:1.00" />
  <line x1="9620" y1="50.0" x2="9640" y2="50.0" style="stroke:#999; stroke-width:3;" />
  <line x1="9640" y1="50.0" x2="9640" y2="50.0" style="stroke:#999; stroke-width:3;" />
  <line x1="9640" y1="50.0" x2="9640" y2="50.0" style="stroke:#999; stroke-width:3;" />
  <line x1="9640" y1="50.0" x2="9660" y2="50.0" style="stroke:#999; stroke-width:3;" />
  <rect class="anc_exon" x="9660" y="35.0" width="126" height="30" style="fill:#87bcbc;fill-opacity:1.00" />
  <line x1="9786" y1="50.0" x2="9806" y2="50.0" style="stroke:#999; stroke-width:3;" />
  <line x1="9806" y1="50.0" x2="9806" y2="50.0" style="stroke:#999; stroke-width:3;" />
  <line x1="9806" y1="50.0" x2="9806" y2="50.0" style="stroke:#999; stroke-width:3;" />
  <line x1="9806" y1="50.0" x2="9826" y2="50.0" style="stroke:#999; stroke-width:3;" />
  <rect class="anc_exon" x="9826" y="35.0" width="63" height="30" style="fill:#87bcbc;fill-opacity:1.00" />
  <line x1="9889" y1="50.0" x2="9929" y2="50.0" style="stroke:#999; stroke-width:3;" />
  <rect class="anc_exon" x="9929" y="35.0" width="101" height="30" style="fill:#87bcbc;fill-opacity:1.00" />
  <line x1="10030" y1="50.0" x2="10070" y2="50.0" style="stroke:#999; stroke-width:3;" />
  <rect class="anc_exon" x="10070" y="35.0" width="86" height="30" style="fill:#87bcbc;fill-opacity:1.00" />
  <line x1="10156" y1="50.0" x2="10196" y2="50.0" style="stroke:#999; stroke-width:3;" />
  <rect class="anc_exon" x="10196" y="35.0" width="84" height="30" style="fill:#87bcbc;fill-opacity:1.00" />
  <line x1="10280" y1="50.0" x2="10320" y2="50.0" style="stroke:#999; stroke-width:3;" />
  <rect class="anc_exon" x="10320" y="35.0" width="100" height="30" style="fill:#87bcbc;fill-opacity:1.00" />
  <line x1="10420" y1="50.0" x2="10460" y2="50.0" style="stroke:#999; stroke-width:3;" />
  <rect class="anc_exon" x="10460" y="35.0" width="99" height="30" style="fill:#87bcbc;fill-opacity:1.00" />
  <line x1="10559" y1="50.0" x2="10579" y2="50.0" style="stroke:#999; stroke-width:3;" />
  <line x1="10579" y1="50.0" x2="10579" y2="50.0" style="stroke:#999; stroke-width:3;" />
  <line x1="10579" y1="50.0" x2="10579" y2="50.0" style="stroke:#999; stroke-width:3;" />
  <line x1="10579" y1="50.0" x2="10599" y2="50.0" style="stroke:#999; stroke-width:3;" />
  <rect class="anc_exon" x="10599" y="35.0" width="64" height="30" style="fill:#87bcbc;fill-opacity:1.00" />
  <line x1="10663" y1="50.0" x2="10683" y2="50.0" style="stroke:#999; stroke-width:3;" />
  <line x1="10683" y1="50.0" x2="10683" y2="50.0" style="stroke:#999; stroke-width:3;" />
  <line x1="10683" y1="50.0" x2="10683" y2="50.0" style="stroke:#999; stroke-width:3;" />
  <line x1="10683" y1="50.0" x2="10703" y2="50.0" style="stroke:#999; stroke-width:3;" />
  <rect class="anc_exon" x="10703" y="35.0" width="112" height="30" style="fill:#87bcbc;fill-opacity:1.00" />
  <line x1="10815" y1="50.0" x2="10855" y2="50.0" style="stroke:#999; stroke-width:3;" />
  <rect class="anc_exon" x="10855" y="35.0" width="115" height="30" style="fill:#87bcbc;fill-opacity:1.00" />
  <line x1="10970" y1="50.0" x2="11010" y2="50.0" style="stroke:#999; stroke-width:3;" />
  <rect class="anc_exon" x="11010" y="35.0" width="128" height="30" style="fill:#87bcbc;fill-opacity:1.00" />
  <line x1="11138" y1="50.0" x2="11178" y2="50.0" style="stroke:#999; stroke-width:3;" />
  <rect class="anc_exon" x="11178" y="35.0" width="488" height="30" style="fill:#87bcbc;fill-opacity:1.00" />
  <rect class="anc_exon" x="11666" y="35.0" width="0" height="30" style="fill:#87bcbc;fill-opacity:1.00" />
  <text style="" >
<tspan x="0" y="83.0" style="font-size:18px;" >SP XM_031950527_1.1</tspan>  </text>



<script type="text/ecmascript">
<![CDATA[
function draw_bbox(text_id)
{
    var text_elem = document.getElementById(text_id);
    var offset_px = 2;
    var offset_py = 0;
    bbox = text_elem.getBBox();
    var box = document.createElementNS(document.rootElement.namespaceURI,'rect');
    box.setAttribute('x', bbox.x - offset_px);
    box.setAttribute('y', bbox.y - offset_py);
    box.setAttribute('width', bbox.width + offset_px * 2);
    box.setAttribute('height', bbox.height + offset_py * 2);
    box.setAttribute('style','fill: white;'+'stroke: black;'+'stroke-width: 1px;');
    text_elem.insertBefore(box,text_elem.childNodes[0]);

    var svg = text_elem.parentNode;
    svg.appendChild(text_elem);
}

for (var i=1; i < 1; i++)
{
draw_bbox("Mouseover" + i);
}
]]> 
</script>
</svg>
