<svg version="1.1"
xmlns="http://www.w3.org/2000/svg"
xmlns:xlink="http://www.w3.org/1999/xlink"
width="3508" height="100" viewBox = "0 0 3508 100"
onclick="mouseclick(evt)">

<script type="text/ecmascript">

<![CDATA[
    function mouseover(evt, target) { 
    var gv = document.getElementById("globalVariable");
    var previoustarget = gv.firstChild.nodeValue;
    if (previoustarget != "none") 
    {
        	document.getElementById(gv.firstChild.nodeValue).setAttributeNS(null, "visibility", "hidden");
    }
    document.getElementById(target).setAttributeNS(null, "visibility", "visible");
    gv.firstChild.nodeValue = target;
        }

    function mouseclick(evt) { 
    var gv = document.getElementById("globalVariable");
    var previoustarget = gv.firstChild.nodeValue;
    if (previoustarget != "none") {
        	document.getElementById(gv.firstChild.nodeValue).setAttributeNS(null, "visibility", "hidden");
        }
    }
]]>
  </script>
<style type="text/css" >

<![CDATA[
    rect.anc_exon {
              stroke-width:3;
                  }

    rect.non_anc_exon {
              stroke: black; stroke-width:3; stroke-dasharray: 5,5;
                    }

    text {
              font-size: 18px;
              font-family: Courier New;
          }
                    ]]>
</style>

<defs>
    <text x="150" y="40" id="globalVariable">none</text>
</defs>

  <rect class="anc_exon" x="0" y="35.0" width="0" height="30" style="fill:#87bcbc;fill-opacity:1.00" />
  <rect class="anc_exon" x="0" y="35.0" width="44.0" height="30" style="fill:#87bcbc;fill-opacity:1.00" />
  <line x1="44.0" y1="50.0" x2="84.0" y2="50.0" style="stroke:#999; stroke-width:3;" />
  <rect class="anc_exon" x="84" y="35.0" width="24" height="30" style="fill:#87bcbc;fill-opacity:1.00" />
  <line x1="108" y1="50.0" x2="128" y2="50.0" style="stroke:#999; stroke-width:3;" />
  <line x1="128" y1="50.0" x2="128" y2="50.0" style="stroke:#999; stroke-width:3;" />
  <line x1="128" y1="50.0" x2="128" y2="50.0" style="stroke:#999; stroke-width:3;" />
  <line x1="128" y1="50.0" x2="148" y2="50.0" style="stroke:#999; stroke-width:3;" />
  <rect class="anc_exon" x="148" y="35.0" width="50" height="30" style="fill:#87bcbc;fill-opacity:1.00" />
  <line x1="198" y1="50.0" x2="218" y2="50.0" style="stroke:#999; stroke-width:3;" />
  <line x1="218" y1="50.0" x2="218" y2="50.0" style="stroke:#999; stroke-width:3;" />
  <line x1="218" y1="50.0" x2="218" y2="50.0" style="stroke:#999; stroke-width:3;" />
  <line x1="218" y1="50.0" x2="238" y2="50.0" style="stroke:#999; stroke-width:3;" />
  <rect class="anc_exon" x="238" y="35.0" width="198" height="30" style="fill:#87bcbc;fill-opacity:1.00" />
  <line x1="436" y1="50.0" x2="476" y2="50.0" style="stroke:#999; stroke-width:3;" />
  <rect class="anc_exon" x="476" y="35.0" width="691" height="30" style="fill:#87bcbc;fill-opacity:1.00" />
  <line x1="1167" y1="50.0" x2="1187" y2="50.0" style="stroke:#999; stroke-width:3;" />
  <line x1="1187" y1="50.0" x2="1187" y2="50.0" style="stroke:#999; stroke-width:3;" />
  <line x1="1187" y1="50.0" x2="1187" y2="50.0" style="stroke:#999; stroke-width:3;" />
  <line x1="1187" y1="50.0" x2="1207" y2="50.0" style="stroke:#999; stroke-width:3;" />
  <rect class="anc_exon" x="1207" y="35.0" width="108" height="30" style="fill:#87bcbc;fill-opacity:1.00" />
  <line x1="1315" y1="50.0" x2="1355" y2="50.0" style="stroke:#999; stroke-width:3;" />
  <rect class="anc_exon" x="1355" y="35.0" width="72" height="30" style="fill:#87bcbc;fill-opacity:1.00" />
  <line x1="1427" y1="50.0" x2="1447" y2="50.0" style="stroke:#999; stroke-width:3;" />
  <line x1="1447" y1="50.0" x2="1447" y2="50.0" style="stroke:#999; stroke-width:3;" />
  <line x1="1447" y1="50.0" x2="1447" y2="50.0" style="stroke:#999; stroke-width:3;" />
  <line x1="1447" y1="50.0" x2="1467" y2="50.0" style="stroke:#999; stroke-width:3;" />
  <rect class="anc_exon" x="1467" y="35.0" width="91" height="30" style="fill:#87bcbc;fill-opacity:1.00" />
  <line x1="1558" y1="50.0" x2="1578" y2="50.0" style="stroke:#999; stroke-width:3;" />
  <line x1="1578" y1="50.0" x2="1578" y2="50.0" style="stroke:#999; stroke-width:3;" />
  <line x1="1578" y1="50.0" x2="1578" y2="50.0" style="stroke:#999; stroke-width:3;" />
  <line x1="1578" y1="50.0" x2="1598" y2="50.0" style="stroke:#999; stroke-width:3;" />
  <rect class="anc_exon" x="1598" y="35.0" width="172" height="30" style="fill:#87bcbc;fill-opacity:1.00" />
  <line x1="1770" y1="50.0" x2="1790" y2="50.0" style="stroke:#999; stroke-width:3;" />
  <line x1="1790" y1="50.0" x2="1790" y2="50.0" style="stroke:#999; stroke-width:3;" />
  <line x1="1790" y1="50.0" x2="1790" y2="50.0" style="stroke:#999; stroke-width:3;" />
  <line x1="1790" y1="50.0" x2="1810" y2="50.0" style="stroke:#999; stroke-width:3;" />
  <rect class="anc_exon" x="1810" y="35.0" width="100" height="30" style="fill:#87bcbc;fill-opacity:1.00" />
  <line x1="1910" y1="50.0" x2="1950" y2="50.0" style="stroke:#999; stroke-width:3;" />
  <rect class="anc_exon" x="1950" y="35.0" width="216" height="30" style="fill:#87bcbc;fill-opacity:1.00" />
  <line x1="2166" y1="50.0" x2="2186" y2="50.0" style="stroke:#999; stroke-width:3;" />
  <line x1="2186" y1="50.0" x2="2186" y2="50.0" style="stroke:#999; stroke-width:3;" />
  <line x1="2186" y1="50.0" x2="2186" y2="50.0" style="stroke:#999; stroke-width:3;" />
  <line x1="2186" y1="50.0" x2="2206" y2="50.0" style="stroke:#999; stroke-width:3;" />
  <rect class="anc_exon" x="2206" y="35.0" width="124" height="30" style="fill:#87bcbc;fill-opacity:1.00" />
  <line x1="2330" y1="50.0" x2="2370" y2="50.0" style="stroke:#999; stroke-width:3;" />
  <rect class="anc_exon" x="2370" y="35.0" width="50" height="30" style="fill:#87bcbc;fill-opacity:1.00" />
  <line x1="2420" y1="50.0" x2="2460" y2="50.0" style="stroke:#999; stroke-width:3;" />
  <rect class="anc_exon" x="2460" y="35.0" width="55" height="30" style="fill:#87bcbc;fill-opacity:1.00" />
  <line x1="2515" y1="50.0" x2="2535" y2="50.0" style="stroke:#999; stroke-width:3;" />
  <line x1="2535" y1="50.0" x2="2535" y2="50.0" style="stroke:#999; stroke-width:3;" />
  <line x1="2535" y1="50.0" x2="2535" y2="50.0" style="stroke:#999; stroke-width:3;" />
  <line x1="2535" y1="50.0" x2="2555" y2="50.0" style="stroke:#999; stroke-width:3;" />
  <rect class="anc_exon" x="2555" y="35.0" width="50" height="30" style="fill:#87bcbc;fill-opacity:1.00" />
  <line x1="2605" y1="50.0" x2="2645" y2="50.0" style="stroke:#999; stroke-width:3;" />
  <rect class="anc_exon" x="2645" y="35.0" width="67" height="30" style="fill:#87bcbc;fill-opacity:1.00" />
  <line x1="2712" y1="50.0" x2="2732" y2="50.0" style="stroke:#999; stroke-width:3;" />
  <line x1="2732" y1="50.0" x2="2732" y2="50.0" style="stroke:#999; stroke-width:3;" />
  <line x1="2732" y1="50.0" x2="2732" y2="50.0" style="stroke:#999; stroke-width:3;" />
  <line x1="2732" y1="50.0" x2="2752" y2="50.0" style="stroke:#999; stroke-width:3;" />
  <rect class="anc_exon" x="2752" y="35.0" width="177" height="30" style="fill:#87bcbc;fill-opacity:1.00" />
  <line x1="2929" y1="50.0" x2="2949" y2="50.0" style="stroke:#999; stroke-width:3;" />
  <line x1="2949" y1="50.0" x2="2949" y2="50.0" style="stroke:#999; stroke-width:3;" />
  <line x1="2949" y1="50.0" x2="2949" y2="50.0" style="stroke:#999; stroke-width:3;" />
  <line x1="2949" y1="50.0" x2="2969" y2="50.0" style="stroke:#999; stroke-width:3;" />
  <rect class="anc_exon" x="2969" y="35.0" width="73" height="30" style="fill:#87bcbc;fill-opacity:1.00" />
  <line x1="3042" y1="50.0" x2="3062" y2="50.0" style="stroke:#999; stroke-width:3;" />
  <line x1="3062" y1="50.0" x2="3062" y2="50.0" style="stroke:#999; stroke-width:3;" />
  <line x1="3062" y1="50.0" x2="3062" y2="50.0" style="stroke:#999; stroke-width:3;" />
  <line x1="3062" y1="50.0" x2="3082" y2="50.0" style="stroke:#999; stroke-width:3;" />
  <rect class="anc_exon" x="3082" y="35.0" width="83" height="30" style="fill:#87bcbc;fill-opacity:1.00" />
  <line x1="3165" y1="50.0" x2="3185" y2="50.0" style="stroke:#999; stroke-width:3;" />
  <line x1="3185" y1="50.0" x2="3185" y2="50.0" style="stroke:#999; stroke-width:3;" />
  <line x1="3185" y1="50.0" x2="3185" y2="50.0" style="stroke:#999; stroke-width:3;" />
  <line x1="3185" y1="50.0" x2="3205" y2="50.0" style="stroke:#999; stroke-width:3;" />
  <rect class="anc_exon" x="3205" y="35.0" width="115" height="30" style="fill:#87bcbc;fill-opacity:1.00" />
  <line x1="3320" y1="50.0" x2="3360" y2="50.0" style="stroke:#999; stroke-width:3;" />
  <rect class="anc_exon" x="3360" y="35.0" width="112" height="30" style="fill:#87bcbc;fill-opacity:1.00" />
  <rect class="anc_exon" x="3472" y="35.0" width="0" height="30" style="fill:#87bcbc;fill-opacity:1.00" />
  <text style="" >
<tspan x="0" y="83.0" style="font-size:18px;" >SP XM_031951845_1.1</tspan>  </text>



<script type="text/ecmascript">
<![CDATA[
function draw_bbox(text_id)
{
    var text_elem = document.getElementById(text_id);
    var offset_px = 2;
    var offset_py = 0;
    bbox = text_elem.getBBox();
    var box = document.createElementNS(document.rootElement.namespaceURI,'rect');
    box.setAttribute('x', bbox.x - offset_px);
    box.setAttribute('y', bbox.y - offset_py);
    box.setAttribute('width', bbox.width + offset_px * 2);
    box.setAttribute('height', bbox.height + offset_py * 2);
    box.setAttribute('style','fill: white;'+'stroke: black;'+'stroke-width: 1px;');
    text_elem.insertBefore(box,text_elem.childNodes[0]);

    var svg = text_elem.parentNode;
    svg.appendChild(text_elem);
}

for (var i=1; i < 1; i++)
{
draw_bbox("Mouseover" + i);
}
]]> 
</script>
</svg>
