<svg version="1.1"
xmlns="http://www.w3.org/2000/svg"
xmlns:xlink="http://www.w3.org/1999/xlink"
width="2507" height="100" viewBox = "0 0 2507 100"
onclick="mouseclick(evt)">

<script type="text/ecmascript">

<![CDATA[
    function mouseover(evt, target) { 
    var gv = document.getElementById("globalVariable");
    var previoustarget = gv.firstChild.nodeValue;
    if (previoustarget != "none") 
    {
        	document.getElementById(gv.firstChild.nodeValue).setAttributeNS(null, "visibility", "hidden");
    }
    document.getElementById(target).setAttributeNS(null, "visibility", "visible");
    gv.firstChild.nodeValue = target;
        }

    function mouseclick(evt) { 
    var gv = document.getElementById("globalVariable");
    var previoustarget = gv.firstChild.nodeValue;
    if (previoustarget != "none") {
        	document.getElementById(gv.firstChild.nodeValue).setAttributeNS(null, "visibility", "hidden");
        }
    }
]]>
  </script>
<style type="text/css" >

<![CDATA[
    rect.anc_exon {
              stroke-width:3;
                  }

    rect.non_anc_exon {
              stroke: black; stroke-width:3; stroke-dasharray: 5,5;
                    }

    text {
              font-size: 18px;
              font-family: Courier New;
          }
                    ]]>
</style>

<defs>
    <text x="150" y="40" id="globalVariable">none</text>
</defs>

  <rect class="anc_exon" x="0" y="35.0" width="0" height="30" style="fill:#87bcbc;fill-opacity:1.00" />
  <rect class="anc_exon" x="0" y="35.0" width="170.4" height="30" style="fill:#87bcbc;fill-opacity:1.00" />
  <line x1="170.4" y1="50.0" x2="189.4" y2="50.0" style="stroke:#999; stroke-width:3;" />
  <line x1="189.4" y1="50.0" x2="189.4" y2="50.0" style="stroke:#999; stroke-width:3;" />
  <line x1="189.4" y1="50.0" x2="189.4" y2="50.0" style="stroke:#999; stroke-width:3;" />
  <line x1="189.4" y1="50.0" x2="210.0" y2="50.0" style="stroke:#999; stroke-width:3;" />
  <rect class="anc_exon" x="210" y="35.0" width="77" height="30" style="fill:#87bcbc;fill-opacity:1.00" />
  <line x1="287" y1="50.0" x2="327" y2="50.0" style="stroke:#999; stroke-width:3;" />
  <rect class="anc_exon" x="327" y="35.0" width="147" height="30" style="fill:#87bcbc;fill-opacity:1.00" />
  <line x1="474" y1="50.0" x2="514" y2="50.0" style="stroke:#999; stroke-width:3;" />
  <rect class="anc_exon" x="514" y="35.0" width="110" height="30" style="fill:#87bcbc;fill-opacity:1.00" />
  <line x1="624" y1="50.0" x2="664" y2="50.0" style="stroke:#999; stroke-width:3;" />
  <rect class="anc_exon" x="664" y="35.0" width="96" height="30" style="fill:#87bcbc;fill-opacity:1.00" />
  <line x1="760" y1="50.0" x2="800" y2="50.0" style="stroke:#999; stroke-width:3;" />
  <rect class="anc_exon" x="800" y="35.0" width="98" height="30" style="fill:#87bcbc;fill-opacity:1.00" />
  <line x1="898" y1="50.0" x2="938" y2="50.0" style="stroke:#999; stroke-width:3;" />
  <rect class="anc_exon" x="938" y="35.0" width="149" height="30" style="fill:#87bcbc;fill-opacity:1.00" />
  <line x1="1087" y1="50.0" x2="1127" y2="50.0" style="stroke:#999; stroke-width:3;" />
  <rect class="anc_exon" x="1127" y="35.0" width="67" height="30" style="fill:#87bcbc;fill-opacity:1.00" />
  <line x1="1194" y1="50.0" x2="1234" y2="50.0" style="stroke:#999; stroke-width:3;" />
  <rect class="anc_exon" x="1234" y="35.0" width="168" height="30" style="fill:#87bcbc;fill-opacity:1.00" />
  <line x1="1402" y1="50.0" x2="1442" y2="50.0" style="stroke:#999; stroke-width:3;" />
  <rect class="anc_exon" x="1442" y="35.0" width="98" height="30" style="fill:#87bcbc;fill-opacity:1.00" />
  <line x1="1540" y1="50.0" x2="1580" y2="50.0" style="stroke:#999; stroke-width:3;" />
  <rect class="anc_exon" x="1580" y="35.0" width="43" height="30" style="fill:#87bcbc;fill-opacity:1.00" />
  <line x1="1623" y1="50.0" x2="1663" y2="50.0" style="stroke:#999; stroke-width:3;" />
  <rect class="anc_exon" x="1663" y="35.0" width="95" height="30" style="fill:#87bcbc;fill-opacity:1.00" />
  <line x1="1758" y1="50.0" x2="1798" y2="50.0" style="stroke:#999; stroke-width:3;" />
  <rect class="anc_exon" x="1798" y="35.0" width="76" height="30" style="fill:#87bcbc;fill-opacity:1.00" />
  <line x1="1874" y1="50.0" x2="1914" y2="50.0" style="stroke:#999; stroke-width:3;" />
  <rect class="anc_exon" x="1914" y="35.0" width="99" height="30" style="fill:#87bcbc;fill-opacity:1.00" />
  <line x1="2013" y1="50.0" x2="2053" y2="50.0" style="stroke:#999; stroke-width:3;" />
  <rect class="anc_exon" x="2053" y="35.0" width="126" height="30" style="fill:#87bcbc;fill-opacity:1.00" />
  <line x1="2179" y1="50.0" x2="2219" y2="50.0" style="stroke:#999; stroke-width:3;" />
  <rect class="anc_exon" x="2219" y="35.0" width="98" height="30" style="fill:#87bcbc;fill-opacity:1.00" />
  <line x1="2317" y1="50.0" x2="2357" y2="50.0" style="stroke:#999; stroke-width:3;" />
  <rect class="anc_exon" x="2357" y="35.0" width="114" height="30" style="fill:#87bcbc;fill-opacity:1.00" />
  <rect class="anc_exon" x="2471" y="35.0" width="0" height="30" style="fill:#87bcbc;fill-opacity:1.00" />
  <text style="" >
<tspan x="0" y="83.0" style="font-size:18px;" >SP XM_031955629_1.1</tspan>  </text>



<script type="text/ecmascript">
<![CDATA[
function draw_bbox(text_id)
{
    var text_elem = document.getElementById(text_id);
    var offset_px = 2;
    var offset_py = 0;
    bbox = text_elem.getBBox();
    var box = document.createElementNS(document.rootElement.namespaceURI,'rect');
    box.setAttribute('x', bbox.x - offset_px);
    box.setAttribute('y', bbox.y - offset_py);
    box.setAttribute('width', bbox.width + offset_px * 2);
    box.setAttribute('height', bbox.height + offset_py * 2);
    box.setAttribute('style','fill: white;'+'stroke: black;'+'stroke-width: 1px;');
    text_elem.insertBefore(box,text_elem.childNodes[0]);

    var svg = text_elem.parentNode;
    svg.appendChild(text_elem);
}

for (var i=1; i < 1; i++)
{
draw_bbox("Mouseover" + i);
}
]]> 
</script>
</svg>
