<svg version="1.1"
xmlns="http://www.w3.org/2000/svg"
xmlns:xlink="http://www.w3.org/1999/xlink"
width="6118" height="110.0" viewBox = "0 -10.0 6118 110.0"
onclick="mouseclick(evt)">

<script type="text/ecmascript">

<![CDATA[
    function mouseover(evt, target) { 
    var gv = document.getElementById("globalVariable");
    var previoustarget = gv.firstChild.nodeValue;
    if (previoustarget != "none") 
    {
        	document.getElementById(gv.firstChild.nodeValue).setAttributeNS(null, "visibility", "hidden");
    }
    document.getElementById(target).setAttributeNS(null, "visibility", "visible");
    gv.firstChild.nodeValue = target;
        }

    function mouseclick(evt) { 
    var gv = document.getElementById("globalVariable");
    var previoustarget = gv.firstChild.nodeValue;
    if (previoustarget != "none") {
        	document.getElementById(gv.firstChild.nodeValue).setAttributeNS(null, "visibility", "hidden");
        }
    }
]]>
  </script>
<style type="text/css" >

<![CDATA[
    rect.anc_exon {
              stroke-width:3;
                  }

    rect.non_anc_exon {
              stroke: black; stroke-width:3; stroke-dasharray: 5,5;
                    }

    text {
              font-size: 18px;
              font-family: Courier New;
          }
                    ]]>
</style>

<defs>
    <text x="150" y="40" id="globalVariable">none</text>
</defs>

  <rect class="anc_exon" x="0" y="35.0" width="0" height="30" style="fill:#87bcbc;fill-opacity:1.00" />
  <rect class="anc_exon" x="0" y="35.0" width="76.80000000000001" height="30" style="fill:#87bcbc;fill-opacity:1.00" />
  <line x1="76.80000000000001" y1="50.0" x2="95.80000000000001" y2="50.0" style="stroke:#999; stroke-width:3;" />
  <line x1="95.80000000000001" y1="50.0" x2="95.80000000000001" y2="50.0" style="stroke:#999; stroke-width:3;" />
  <line x1="95.80000000000001" y1="50.0" x2="95.80000000000001" y2="50.0" style="stroke:#999; stroke-width:3;" />
  <line x1="95.80000000000001" y1="50.0" x2="116.0" y2="50.0" style="stroke:#999; stroke-width:3;" />
  <rect class="anc_exon" x="116" y="35.0" width="53" height="30" style="fill:#87bcbc;fill-opacity:1.00" />
  <line x1="169" y1="50.0" x2="189" y2="50.0" style="stroke:#999; stroke-width:3;" />
  <line x1="189" y1="50.0" x2="189" y2="50.0" style="stroke:#999; stroke-width:3;" />
  <line x1="189" y1="50.0" x2="189" y2="50.0" style="stroke:#999; stroke-width:3;" />
  <line x1="189" y1="50.0" x2="209" y2="50.0" style="stroke:#999; stroke-width:3;" />
  <rect class="anc_exon" x="209" y="35.0" width="105" height="30" style="fill:#87bcbc;fill-opacity:1.00" />
  <line x1="314" y1="50.0" x2="334" y2="50.0" style="stroke:#999; stroke-width:3;" />
  <line x1="334" y1="50.0" x2="334" y2="50.0" style="stroke:#999; stroke-width:3;" />
  <line x1="334" y1="50.0" x2="334" y2="50.0" style="stroke:#999; stroke-width:3;" />
  <line x1="334" y1="50.0" x2="354" y2="50.0" style="stroke:#999; stroke-width:3;" />
  <rect class="anc_exon" x="354" y="35.0" width="95" height="30" style="fill:#87bcbc;fill-opacity:1.00" />
  <line x1="449" y1="50.0" x2="489" y2="50.0" style="stroke:#999; stroke-width:3;" />
  <rect class="anc_exon" x="489" y="35.0" width="87" height="30" style="fill:#87bcbc;fill-opacity:1.00" />
  <line x1="576" y1="50.0" x2="616" y2="50.0" style="stroke:#999; stroke-width:3;" />
  <rect class="anc_exon" x="616" y="35.0" width="48" height="30" style="fill:#87bcbc;fill-opacity:1.00" />
  <line x1="664" y1="50.0" x2="704" y2="50.0" style="stroke:#999; stroke-width:3;" />
  <rect class="anc_exon" x="704" y="35.0" width="44" height="30" style="fill:#87bcbc;fill-opacity:1.00" />
  <line x1="748" y1="50.0" x2="788" y2="50.0" style="stroke:#999; stroke-width:3;" />
  <rect class="anc_exon" x="788" y="35.0" width="79" height="30" style="fill:#87bcbc;fill-opacity:1.00" />
  <line x1="867" y1="50.0" x2="887" y2="50.0" style="stroke:#999; stroke-width:3;" />
  <line x1="887" y1="50.0" x2="887" y2="50.0" style="stroke:#999; stroke-width:3;" />
  <line x1="887" y1="50.0" x2="887" y2="50.0" style="stroke:#999; stroke-width:3;" />
  <line x1="887" y1="50.0" x2="907" y2="50.0" style="stroke:#999; stroke-width:3;" />
  <rect class="anc_exon" x="907" y="35.0" width="111" height="30" style="fill:#87bcbc;fill-opacity:1.00" />
  <line x1="1018" y1="50.0" x2="1058" y2="50.0" style="stroke:#999; stroke-width:3;" />
  <rect class="anc_exon" x="1058" y="35.0" width="179" height="30" style="fill:#87bcbc;fill-opacity:1.00" />
  <line x1="1237" y1="50.0" x2="1277" y2="50.0" style="stroke:#999; stroke-width:3;" />
  <rect class="anc_exon" x="1277" y="35.0" width="135" height="30" style="fill:#87bcbc;fill-opacity:1.00" />
  <line x1="1412" y1="50.0" x2="1452" y2="50.0" style="stroke:#999; stroke-width:3;" />
  <rect class="anc_exon" x="1452" y="35.0" width="169" height="30" style="fill:#87bcbc;fill-opacity:1.00" />
  <line x1="1621" y1="50.0" x2="1661" y2="50.0" style="stroke:#999; stroke-width:3;" />
  <rect class="anc_exon" x="1661" y="35.0" width="79" height="30" style="fill:#87bcbc;fill-opacity:1.00" />
  <line x1="1740" y1="50.0" x2="1780" y2="50.0" style="stroke:#999; stroke-width:3;" />
  <rect class="anc_exon" x="1780" y="35.0" width="156" height="30" style="fill:#87bcbc;fill-opacity:1.00" />
  <line x1="1936" y1="50.0" x2="1976" y2="50.0" style="stroke:#999; stroke-width:3;" />
  <rect class="anc_exon" x="1976" y="35.0" width="152" height="30" style="fill:#87bcbc;fill-opacity:1.00" />
  <line x1="2128" y1="50.0" x2="2168" y2="50.0" style="stroke:#999; stroke-width:3;" />
  <rect class="anc_exon" x="2168" y="35.0" width="103" height="30" style="fill:#87bcbc;fill-opacity:1.00" />
  <line x1="2271" y1="50.0" x2="2311" y2="50.0" style="stroke:#999; stroke-width:3;" />
  <rect class="anc_exon" x="2311" y="35.0" width="71" height="30" style="fill:#87bcbc;fill-opacity:1.00" />
  <line x1="2382" y1="50.0" x2="2422" y2="50.0" style="stroke:#999; stroke-width:3;" />
  <rect class="anc_exon" x="2422" y="35.0" width="162" height="30" style="fill:#87bcbc;fill-opacity:1.00" />
  <line x1="2584" y1="50.0" x2="2624" y2="50.0" style="stroke:#999; stroke-width:3;" />
  <rect class="anc_exon" x="2624" y="35.0" width="99" height="30" style="fill:#87bcbc;fill-opacity:1.00" />
  <line x1="2723" y1="50.0" x2="2763" y2="50.0" style="stroke:#999; stroke-width:3;" />
  <rect class="anc_exon" x="2763" y="35.0" width="100" height="30" style="fill:#87bcbc;fill-opacity:1.00" />
  <line x1="2863" y1="50.0" x2="2883" y2="50.0" style="stroke:#999; stroke-width:3;" />
  <line x1="2883" y1="50.0" x2="2883" y2="50.0" style="stroke:#999; stroke-width:3;" />
  <line x1="2883" y1="50.0" x2="2883" y2="50.0" style="stroke:#999; stroke-width:3;" />
  <line x1="2883" y1="50.0" x2="2903" y2="50.0" style="stroke:#999; stroke-width:3;" />
  <rect class="anc_exon" x="2903" y="35.0" width="66" height="30" style="fill:#87bcbc;fill-opacity:1.00" />
  <line x1="2969" y1="50.0" x2="3009" y2="50.0" style="stroke:#999; stroke-width:3;" />
  <rect class="anc_exon" x="3009" y="35.0" width="189" height="30" style="fill:#87bcbc;fill-opacity:1.00" />
  <line x1="3198" y1="50.0" x2="3238" y2="50.0" style="stroke:#999; stroke-width:3;" />
  <rect class="anc_exon" x="3238" y="35.0" width="75" height="30" style="fill:#87bcbc;fill-opacity:1.00" />
  <line x1="3313" y1="50.0" x2="3353" y2="50.0" style="stroke:#999; stroke-width:3;" />
  <rect class="anc_exon" x="3353" y="35.0" width="141" height="30" style="fill:#87bcbc;fill-opacity:1.00" />
  <line x1="3494" y1="50.0" x2="3534" y2="50.0" style="stroke:#999; stroke-width:3;" />
  <rect class="anc_exon" x="3534" y="35.0" width="52" height="30" style="fill:#87bcbc;fill-opacity:1.00" />
  <line x1="3586" y1="50.0" x2="3626" y2="50.0" style="stroke:#999; stroke-width:3;" />
  <rect class="anc_exon" x="3626" y="35.0" width="99" height="30" style="fill:#87bcbc;fill-opacity:1.00" />
  <line x1="3725" y1="50.0" x2="3765" y2="50.0" style="stroke:#999; stroke-width:3;" />
  <rect class="anc_exon" x="3765" y="35.0" width="57" height="30" style="fill:#87bcbc;fill-opacity:1.00" />
  <line x1="3822" y1="50.0" x2="3862" y2="50.0" style="stroke:#999; stroke-width:3;" />
  <rect class="anc_exon" x="3862" y="35.0" width="76" height="30" style="fill:#87bcbc;fill-opacity:1.00" />
  <line x1="3938" y1="50.0" x2="3978" y2="50.0" style="stroke:#999; stroke-width:3;" />
  <rect class="anc_exon" x="3978" y="35.0" width="123" height="30" style="fill:#87bcbc;fill-opacity:1.00" />
  <line x1="3982.4" y1="35.0" x2="3982.4" y2="65.0" style="stroke:#121212; stroke-width:0.8; stroke-opacity:1"/>
  <text style="" text-anchor="middle">
<tspan x="3982.0" y="26.0" style="font-size:18px;fill:#121212;" >-1</tspan>  </text>
  <line x1="4101" y1="50.0" x2="4141" y2="50.0" style="stroke:#999; stroke-width:3;" />
  <rect class="anc_exon" x="4141" y="35.0" width="180" height="30" style="fill:#87bcbc;fill-opacity:1.00" />
  <line x1="4321" y1="50.0" x2="4361" y2="50.0" style="stroke:#999; stroke-width:3;" />
  <rect class="anc_exon" x="4361" y="35.0" width="128" height="30" style="fill:#87bcbc;fill-opacity:1.00" />
  <line x1="4489" y1="50.0" x2="4529" y2="50.0" style="stroke:#999; stroke-width:3;" />
  <rect class="anc_exon" x="4529" y="35.0" width="197" height="30" style="fill:#87bcbc;fill-opacity:1.00" />
  <line x1="4726" y1="50.0" x2="4766" y2="50.0" style="stroke:#999; stroke-width:3;" />
  <rect class="anc_exon" x="4766" y="35.0" width="164" height="30" style="fill:#87bcbc;fill-opacity:1.00" />
  <line x1="4930" y1="50.0" x2="4970" y2="50.0" style="stroke:#999; stroke-width:3;" />
  <rect class="anc_exon" x="4970" y="35.0" width="120" height="30" style="fill:#87bcbc;fill-opacity:1.00" />
  <line x1="5090" y1="50.0" x2="5130" y2="50.0" style="stroke:#999; stroke-width:3;" />
  <rect class="anc_exon" x="5130" y="35.0" width="104" height="30" style="fill:#87bcbc;fill-opacity:1.00" />
  <line x1="5234" y1="50.0" x2="5274" y2="50.0" style="stroke:#999; stroke-width:3;" />
  <rect class="anc_exon" x="5274" y="35.0" width="81" height="30" style="fill:#878787;fill-opacity:1.00" />
  <line x1="5355" y1="50.0" x2="5395" y2="50.0" style="stroke:#999; stroke-width:3;" />
  <rect class="anc_exon" x="5395" y="35.0" width="91" height="30" style="fill:#87bcbc;fill-opacity:1.00" />
  <line x1="5486" y1="50.0" x2="5526" y2="50.0" style="stroke:#999; stroke-width:3;" />
  <rect class="anc_exon" x="5526" y="35.0" width="144" height="30" style="fill:#87bcbc;fill-opacity:1.00" />
  <line x1="5670" y1="50.0" x2="5710" y2="50.0" style="stroke:#999; stroke-width:3;" />
  <rect class="anc_exon" x="5710" y="35.0" width="110" height="30" style="fill:#87bcbc;fill-opacity:1.00" />
  <line x1="5820" y1="50.0" x2="5860" y2="50.0" style="stroke:#999; stroke-width:3;" />
  <rect class="anc_exon" x="5860" y="35.0" width="222" height="30" style="fill:#87bcbc;fill-opacity:1.00" />
  <rect class="anc_exon" x="6082" y="35.0" width="0" height="30" style="fill:#87bcbc;fill-opacity:1.00" />
  <text style="" >
<tspan x="0" y="83.0" style="font-size:18px;" >SP XM_031955749_1.1</tspan>  </text>



<script type="text/ecmascript">
<![CDATA[
function draw_bbox(text_id)
{
    var text_elem = document.getElementById(text_id);
    var offset_px = 2;
    var offset_py = 0;
    bbox = text_elem.getBBox();
    var box = document.createElementNS(document.rootElement.namespaceURI,'rect');
    box.setAttribute('x', bbox.x - offset_px);
    box.setAttribute('y', bbox.y - offset_py);
    box.setAttribute('width', bbox.width + offset_px * 2);
    box.setAttribute('height', bbox.height + offset_py * 2);
    box.setAttribute('style','fill: white;'+'stroke: black;'+'stroke-width: 1px;');
    text_elem.insertBefore(box,text_elem.childNodes[0]);

    var svg = text_elem.parentNode;
    svg.appendChild(text_elem);
}

for (var i=1; i < 1; i++)
{
draw_bbox("Mouseover" + i);
}
]]> 
</script>
</svg>
