<svg version="1.1"
xmlns="http://www.w3.org/2000/svg"
xmlns:xlink="http://www.w3.org/1999/xlink"
width="3109" height="100" viewBox = "0 0 3109 100"
onclick="mouseclick(evt)">

<script type="text/ecmascript">

<![CDATA[
    function mouseover(evt, target) { 
    var gv = document.getElementById("globalVariable");
    var previoustarget = gv.firstChild.nodeValue;
    if (previoustarget != "none") 
    {
        	document.getElementById(gv.firstChild.nodeValue).setAttributeNS(null, "visibility", "hidden");
    }
    document.getElementById(target).setAttributeNS(null, "visibility", "visible");
    gv.firstChild.nodeValue = target;
        }

    function mouseclick(evt) { 
    var gv = document.getElementById("globalVariable");
    var previoustarget = gv.firstChild.nodeValue;
    if (previoustarget != "none") {
        	document.getElementById(gv.firstChild.nodeValue).setAttributeNS(null, "visibility", "hidden");
        }
    }
]]>
  </script>
<style type="text/css" >

<![CDATA[
    rect.anc_exon {
              stroke-width:3;
                  }

    rect.non_anc_exon {
              stroke: black; stroke-width:3; stroke-dasharray: 5,5;
                    }

    text {
              font-size: 18px;
              font-family: Courier New;
          }
                    ]]>
</style>

<defs>
    <text x="150" y="40" id="globalVariable">none</text>
</defs>

  <rect class="anc_exon" x="0" y="35.0" width="0" height="30" style="fill:#87bcbc;fill-opacity:1.00" />
  <rect class="anc_exon" x="0" y="35.0" width="22.400000000000002" height="30" style="fill:#87bcbc;fill-opacity:1.00" />
  <line x1="22.400000000000002" y1="50.0" x2="62.0" y2="50.0" style="stroke:#999; stroke-width:3;" />
  <rect class="anc_exon" x="62" y="35.0" width="132" height="30" style="fill:#87bcbc;fill-opacity:1.00" />
  <line x1="194" y1="50.0" x2="214" y2="50.0" style="stroke:#999; stroke-width:3;" />
  <line x1="214" y1="50.0" x2="214" y2="50.0" style="stroke:#999; stroke-width:3;" />
  <line x1="214" y1="50.0" x2="214" y2="50.0" style="stroke:#999; stroke-width:3;" />
  <line x1="214" y1="50.0" x2="234" y2="50.0" style="stroke:#999; stroke-width:3;" />
  <rect class="anc_exon" x="234" y="35.0" width="52" height="30" style="fill:#87bcbc;fill-opacity:1.00" />
  <line x1="286" y1="50.0" x2="326" y2="50.0" style="stroke:#999; stroke-width:3;" />
  <rect class="anc_exon" x="326" y="35.0" width="107" height="30" style="fill:#87bcbc;fill-opacity:1.00" />
  <line x1="433" y1="50.0" x2="453" y2="50.0" style="stroke:#999; stroke-width:3;" />
  <line x1="453" y1="50.0" x2="453" y2="50.0" style="stroke:#999; stroke-width:3;" />
  <line x1="453" y1="50.0" x2="453" y2="50.0" style="stroke:#999; stroke-width:3;" />
  <line x1="453" y1="50.0" x2="473" y2="50.0" style="stroke:#999; stroke-width:3;" />
  <rect class="anc_exon" x="473" y="35.0" width="94" height="30" style="fill:#87bcbc;fill-opacity:1.00" />
  <line x1="567" y1="50.0" x2="587" y2="50.0" style="stroke:#999; stroke-width:3;" />
  <line x1="587" y1="50.0" x2="587" y2="50.0" style="stroke:#999; stroke-width:3;" />
  <line x1="587" y1="50.0" x2="587" y2="50.0" style="stroke:#999; stroke-width:3;" />
  <line x1="587" y1="50.0" x2="607" y2="50.0" style="stroke:#999; stroke-width:3;" />
  <rect class="anc_exon" x="607" y="35.0" width="127" height="30" style="fill:#87bcbc;fill-opacity:1.00" />
  <line x1="734" y1="50.0" x2="774" y2="50.0" style="stroke:#999; stroke-width:3;" />
  <rect class="anc_exon" x="774" y="35.0" width="80" height="30" style="fill:#87bcbc;fill-opacity:1.00" />
  <line x1="854" y1="50.0" x2="894" y2="50.0" style="stroke:#999; stroke-width:3;" />
  <rect class="anc_exon" x="894" y="35.0" width="181" height="30" style="fill:#87bcbc;fill-opacity:1.00" />
  <line x1="1075" y1="50.0" x2="1095" y2="50.0" style="stroke:#999; stroke-width:3;" />
  <line x1="1095" y1="50.0" x2="1095" y2="50.0" style="stroke:#999; stroke-width:3;" />
  <line x1="1095" y1="50.0" x2="1095" y2="50.0" style="stroke:#999; stroke-width:3;" />
  <line x1="1095" y1="50.0" x2="1115" y2="50.0" style="stroke:#999; stroke-width:3;" />
  <rect class="anc_exon" x="1115" y="35.0" width="126" height="30" style="fill:#87bcbc;fill-opacity:1.00" />
  <line x1="1241" y1="50.0" x2="1281" y2="50.0" style="stroke:#999; stroke-width:3;" />
  <rect class="anc_exon" x="1281" y="35.0" width="80" height="30" style="fill:#87bcbc;fill-opacity:1.00" />
  <line x1="1361" y1="50.0" x2="1401" y2="50.0" style="stroke:#999; stroke-width:3;" />
  <rect class="anc_exon" x="1401" y="35.0" width="117" height="30" style="fill:#87bcbc;fill-opacity:1.00" />
  <line x1="1518" y1="50.0" x2="1538" y2="50.0" style="stroke:#999; stroke-width:3;" />
  <line x1="1538" y1="50.0" x2="1538" y2="50.0" style="stroke:#999; stroke-width:3;" />
  <line x1="1538" y1="50.0" x2="1538" y2="50.0" style="stroke:#999; stroke-width:3;" />
  <line x1="1538" y1="50.0" x2="1558" y2="50.0" style="stroke:#999; stroke-width:3;" />
  <rect class="anc_exon" x="1558" y="35.0" width="105" height="30" style="fill:#87bcbc;fill-opacity:1.00" />
  <line x1="1663" y1="50.0" x2="1703" y2="50.0" style="stroke:#999; stroke-width:3;" />
  <rect class="anc_exon" x="1703" y="35.0" width="229" height="30" style="fill:#87bcbc;fill-opacity:1.00" />
  <line x1="1932" y1="50.0" x2="1972" y2="50.0" style="stroke:#999; stroke-width:3;" />
  <rect class="anc_exon" x="1972" y="35.0" width="112" height="30" style="fill:#87bcbc;fill-opacity:1.00" />
  <line x1="2084" y1="50.0" x2="2104" y2="50.0" style="stroke:#999; stroke-width:3;" />
  <line x1="2104" y1="50.0" x2="2104" y2="50.0" style="stroke:#999; stroke-width:3;" />
  <line x1="2104" y1="50.0" x2="2104" y2="50.0" style="stroke:#999; stroke-width:3;" />
  <line x1="2104" y1="50.0" x2="2124" y2="50.0" style="stroke:#999; stroke-width:3;" />
  <rect class="anc_exon" x="2124" y="35.0" width="50" height="30" style="fill:#87bcbc;fill-opacity:1.00" />
  <line x1="2174" y1="50.0" x2="2194" y2="50.0" style="stroke:#999; stroke-width:3;" />
  <line x1="2194" y1="50.0" x2="2194" y2="50.0" style="stroke:#999; stroke-width:3;" />
  <line x1="2194" y1="50.0" x2="2194" y2="50.0" style="stroke:#999; stroke-width:3;" />
  <line x1="2194" y1="50.0" x2="2214" y2="50.0" style="stroke:#999; stroke-width:3;" />
  <rect class="anc_exon" x="2214" y="35.0" width="95" height="30" style="fill:#87bcbc;fill-opacity:1.00" />
  <line x1="2309" y1="50.0" x2="2349" y2="50.0" style="stroke:#999; stroke-width:3;" />
  <rect class="anc_exon" x="2349" y="35.0" width="29" height="30" style="fill:#87bcbc;fill-opacity:1.00" />
  <line x1="2378" y1="50.0" x2="2398" y2="50.0" style="stroke:#999; stroke-width:3;" />
  <line x1="2398" y1="50.0" x2="2398" y2="50.0" style="stroke:#999; stroke-width:3;" />
  <line x1="2398" y1="50.0" x2="2398" y2="50.0" style="stroke:#999; stroke-width:3;" />
  <line x1="2398" y1="50.0" x2="2418" y2="50.0" style="stroke:#999; stroke-width:3;" />
  <rect class="anc_exon" x="2418" y="35.0" width="36" height="30" style="fill:#87bcbc;fill-opacity:1.00" />
  <line x1="2454" y1="50.0" x2="2474" y2="50.0" style="stroke:#999; stroke-width:3;" />
  <line x1="2474" y1="50.0" x2="2474" y2="50.0" style="stroke:#999; stroke-width:3;" />
  <line x1="2474" y1="50.0" x2="2474" y2="50.0" style="stroke:#999; stroke-width:3;" />
  <line x1="2474" y1="50.0" x2="2494" y2="50.0" style="stroke:#999; stroke-width:3;" />
  <rect class="anc_exon" x="2494" y="35.0" width="44" height="30" style="fill:#87bcbc;fill-opacity:1.00" />
  <line x1="2538" y1="50.0" x2="2558" y2="50.0" style="stroke:#999; stroke-width:3;" />
  <line x1="2558" y1="50.0" x2="2558" y2="50.0" style="stroke:#999; stroke-width:3;" />
  <line x1="2558" y1="50.0" x2="2558" y2="50.0" style="stroke:#999; stroke-width:3;" />
  <line x1="2558" y1="50.0" x2="2578" y2="50.0" style="stroke:#999; stroke-width:3;" />
  <rect class="anc_exon" x="2578" y="35.0" width="495" height="30" style="fill:#87bcbc;fill-opacity:1.00" />
  <rect class="anc_exon" x="3073" y="35.0" width="0" height="30" style="fill:#87bcbc;fill-opacity:1.00" />
  <text style="" >
<tspan x="0" y="83.0" style="font-size:18px;" >SP XM_031955260_1.1</tspan>  </text>



<script type="text/ecmascript">
<![CDATA[
function draw_bbox(text_id)
{
    var text_elem = document.getElementById(text_id);
    var offset_px = 2;
    var offset_py = 0;
    bbox = text_elem.getBBox();
    var box = document.createElementNS(document.rootElement.namespaceURI,'rect');
    box.setAttribute('x', bbox.x - offset_px);
    box.setAttribute('y', bbox.y - offset_py);
    box.setAttribute('width', bbox.width + offset_px * 2);
    box.setAttribute('height', bbox.height + offset_py * 2);
    box.setAttribute('style','fill: white;'+'stroke: black;'+'stroke-width: 1px;');
    text_elem.insertBefore(box,text_elem.childNodes[0]);

    var svg = text_elem.parentNode;
    svg.appendChild(text_elem);
}

for (var i=1; i < 1; i++)
{
draw_bbox("Mouseover" + i);
}
]]> 
</script>
</svg>
