<svg version="1.1"
xmlns="http://www.w3.org/2000/svg"
xmlns:xlink="http://www.w3.org/1999/xlink"
width="2140" height="100" viewBox = "0 0 2140 100"
onclick="mouseclick(evt)">

<script type="text/ecmascript">

<![CDATA[
    function mouseover(evt, target) { 
    var gv = document.getElementById("globalVariable");
    var previoustarget = gv.firstChild.nodeValue;
    if (previoustarget != "none") 
    {
        	document.getElementById(gv.firstChild.nodeValue).setAttributeNS(null, "visibility", "hidden");
    }
    document.getElementById(target).setAttributeNS(null, "visibility", "visible");
    gv.firstChild.nodeValue = target;
        }

    function mouseclick(evt) { 
    var gv = document.getElementById("globalVariable");
    var previoustarget = gv.firstChild.nodeValue;
    if (previoustarget != "none") {
        	document.getElementById(gv.firstChild.nodeValue).setAttributeNS(null, "visibility", "hidden");
        }
    }
]]>
  </script>
<style type="text/css" >

<![CDATA[
    rect.anc_exon {
              stroke-width:3;
                  }

    rect.non_anc_exon {
              stroke: black; stroke-width:3; stroke-dasharray: 5,5;
                    }

    text {
              font-size: 18px;
              font-family: Courier New;
          }
                    ]]>
</style>

<defs>
    <text x="150" y="40" id="globalVariable">none</text>
</defs>

  <rect class="anc_exon" x="0" y="35.0" width="0" height="30" style="fill:#87bcbc;fill-opacity:1.00" />
  <rect class="anc_exon" x="0" y="35.0" width="124.80000000000001" height="30" style="fill:#87bcbc;fill-opacity:1.00" />
  <line x1="124.80000000000001" y1="50.0" x2="143.8" y2="50.0" style="stroke:#999; stroke-width:3;" />
  <line x1="143.8" y1="50.0" x2="143.8" y2="50.0" style="stroke:#999; stroke-width:3;" />
  <line x1="143.8" y1="50.0" x2="143.8" y2="50.0" style="stroke:#999; stroke-width:3;" />
  <line x1="143.8" y1="50.0" x2="164.0" y2="50.0" style="stroke:#999; stroke-width:3;" />
  <rect class="anc_exon" x="164" y="35.0" width="51" height="30" style="fill:#87bcbc;fill-opacity:1.00" />
  <line x1="215" y1="50.0" x2="235" y2="50.0" style="stroke:#999; stroke-width:3;" />
  <line x1="235" y1="50.0" x2="235" y2="50.0" style="stroke:#999; stroke-width:3;" />
  <line x1="235" y1="50.0" x2="235" y2="50.0" style="stroke:#999; stroke-width:3;" />
  <line x1="235" y1="50.0" x2="255" y2="50.0" style="stroke:#999; stroke-width:3;" />
  <rect class="anc_exon" x="255" y="35.0" width="73" height="30" style="fill:#87bcbc;fill-opacity:1.00" />
  <line x1="328" y1="50.0" x2="368" y2="50.0" style="stroke:#999; stroke-width:3;" />
  <rect class="anc_exon" x="368" y="35.0" width="93" height="30" style="fill:#87bcbc;fill-opacity:1.00" />
  <line x1="461" y1="50.0" x2="501" y2="50.0" style="stroke:#999; stroke-width:3;" />
  <rect class="anc_exon" x="501" y="35.0" width="43" height="30" style="fill:#87bcbc;fill-opacity:1.00" />
  <line x1="544" y1="50.0" x2="584" y2="50.0" style="stroke:#999; stroke-width:3;" />
  <rect class="anc_exon" x="584" y="35.0" width="36" height="30" style="fill:#87bcbc;fill-opacity:1.00" />
  <line x1="620" y1="50.0" x2="640" y2="50.0" style="stroke:#999; stroke-width:3;" />
  <line x1="640" y1="50.0" x2="640" y2="50.0" style="stroke:#999; stroke-width:3;" />
  <line x1="640" y1="50.0" x2="640" y2="50.0" style="stroke:#999; stroke-width:3;" />
  <line x1="640" y1="50.0" x2="660" y2="50.0" style="stroke:#999; stroke-width:3;" />
  <rect class="anc_exon" x="660" y="35.0" width="92" height="30" style="fill:#87bcbc;fill-opacity:1.00" />
  <line x1="752" y1="50.0" x2="792" y2="50.0" style="stroke:#999; stroke-width:3;" />
  <rect class="anc_exon" x="792" y="35.0" width="49" height="30" style="fill:#87bcbc;fill-opacity:1.00" />
  <line x1="841" y1="50.0" x2="861" y2="50.0" style="stroke:#999; stroke-width:3;" />
  <line x1="861" y1="50.0" x2="861" y2="50.0" style="stroke:#999; stroke-width:3;" />
  <line x1="861" y1="50.0" x2="861" y2="50.0" style="stroke:#999; stroke-width:3;" />
  <line x1="861" y1="50.0" x2="881" y2="50.0" style="stroke:#999; stroke-width:3;" />
  <rect class="anc_exon" x="881" y="35.0" width="147" height="30" style="fill:#87bcbc;fill-opacity:1.00" />
  <line x1="1028" y1="50.0" x2="1068" y2="50.0" style="stroke:#999; stroke-width:3;" />
  <rect class="anc_exon" x="1068" y="35.0" width="80" height="30" style="fill:#87bcbc;fill-opacity:1.00" />
  <line x1="1148" y1="50.0" x2="1188" y2="50.0" style="stroke:#999; stroke-width:3;" />
  <rect class="anc_exon" x="1188" y="35.0" width="75" height="30" style="fill:#87bcbc;fill-opacity:1.00" />
  <line x1="1263" y1="50.0" x2="1303" y2="50.0" style="stroke:#999; stroke-width:3;" />
  <rect class="anc_exon" x="1303" y="35.0" width="55" height="30" style="fill:#87bcbc;fill-opacity:1.00" />
  <line x1="1358" y1="50.0" x2="1378" y2="50.0" style="stroke:#999; stroke-width:3;" />
  <line x1="1378" y1="50.0" x2="1378" y2="50.0" style="stroke:#999; stroke-width:3;" />
  <line x1="1378" y1="50.0" x2="1378" y2="50.0" style="stroke:#999; stroke-width:3;" />
  <line x1="1378" y1="50.0" x2="1398" y2="50.0" style="stroke:#999; stroke-width:3;" />
  <rect class="anc_exon" x="1398" y="35.0" width="87" height="30" style="fill:#87bcbc;fill-opacity:1.00" />
  <line x1="1485" y1="50.0" x2="1505" y2="50.0" style="stroke:#999; stroke-width:3;" />
  <line x1="1505" y1="50.0" x2="1505" y2="50.0" style="stroke:#999; stroke-width:3;" />
  <line x1="1505" y1="50.0" x2="1505" y2="50.0" style="stroke:#999; stroke-width:3;" />
  <line x1="1505" y1="50.0" x2="1525" y2="50.0" style="stroke:#999; stroke-width:3;" />
  <rect class="anc_exon" x="1525" y="35.0" width="47" height="30" style="fill:#87bcbc;fill-opacity:1.00" />
  <line x1="1572" y1="50.0" x2="1612" y2="50.0" style="stroke:#999; stroke-width:3;" />
  <rect class="anc_exon" x="1612" y="35.0" width="83" height="30" style="fill:#87bcbc;fill-opacity:1.00" />
  <line x1="1695" y1="50.0" x2="1735" y2="50.0" style="stroke:#999; stroke-width:3;" />
  <rect class="anc_exon" x="1735" y="35.0" width="59" height="30" style="fill:#87bcbc;fill-opacity:1.00" />
  <line x1="1794" y1="50.0" x2="1834" y2="50.0" style="stroke:#999; stroke-width:3;" />
  <rect class="anc_exon" x="1834" y="35.0" width="49" height="30" style="fill:#87bcbc;fill-opacity:1.00" />
  <line x1="1883" y1="50.0" x2="1923" y2="50.0" style="stroke:#999; stroke-width:3;" />
  <rect class="anc_exon" x="1923" y="35.0" width="44" height="30" style="fill:#87bcbc;fill-opacity:1.00" />
  <line x1="1967" y1="50.0" x2="2007" y2="50.0" style="stroke:#999; stroke-width:3;" />
  <rect class="anc_exon" x="2007" y="35.0" width="24" height="30" style="fill:#87bcbc;fill-opacity:1.00" />
  <line x1="2031" y1="50.0" x2="2071" y2="50.0" style="stroke:#999; stroke-width:3;" />
  <rect class="anc_exon" x="2071" y="35.0" width="33" height="30" style="fill:#87bcbc;fill-opacity:1.00" />
  <rect class="anc_exon" x="2104" y="35.0" width="0" height="30" style="fill:#87bcbc;fill-opacity:1.00" />
  <text style="" >
<tspan x="0" y="83.0" style="font-size:18px;" >SP XM_012546340_3.1</tspan>  </text>
  <text style="fill:#121212;" >
<tspan x="1358" y="50.0" style="font-size:18px;fill:#121212;" >at</tspan>  </text>
  <text style="fill:#121212;" >
<tspan x="1374.96" y="68.0" style="font-size:18px;fill:#121212;" >ac</tspan>  </text>



<script type="text/ecmascript">
<![CDATA[
function draw_bbox(text_id)
{
    var text_elem = document.getElementById(text_id);
    var offset_px = 2;
    var offset_py = 0;
    bbox = text_elem.getBBox();
    var box = document.createElementNS(document.rootElement.namespaceURI,'rect');
    box.setAttribute('x', bbox.x - offset_px);
    box.setAttribute('y', bbox.y - offset_py);
    box.setAttribute('width', bbox.width + offset_px * 2);
    box.setAttribute('height', bbox.height + offset_py * 2);
    box.setAttribute('style','fill: white;'+'stroke: black;'+'stroke-width: 1px;');
    text_elem.insertBefore(box,text_elem.childNodes[0]);

    var svg = text_elem.parentNode;
    svg.appendChild(text_elem);
}

for (var i=1; i < 1; i++)
{
draw_bbox("Mouseover" + i);
}
]]> 
</script>
</svg>
