<svg version="1.1"
xmlns="http://www.w3.org/2000/svg"
xmlns:xlink="http://www.w3.org/1999/xlink"
width="3143" height="100" viewBox = "0 0 3143 100"
onclick="mouseclick(evt)">

<script type="text/ecmascript">

<![CDATA[
    function mouseover(evt, target) { 
    var gv = document.getElementById("globalVariable");
    var previoustarget = gv.firstChild.nodeValue;
    if (previoustarget != "none") 
    {
        	document.getElementById(gv.firstChild.nodeValue).setAttributeNS(null, "visibility", "hidden");
    }
    document.getElementById(target).setAttributeNS(null, "visibility", "visible");
    gv.firstChild.nodeValue = target;
        }

    function mouseclick(evt) { 
    var gv = document.getElementById("globalVariable");
    var previoustarget = gv.firstChild.nodeValue;
    if (previoustarget != "none") {
        	document.getElementById(gv.firstChild.nodeValue).setAttributeNS(null, "visibility", "hidden");
        }
    }
]]>
  </script>
<style type="text/css" >

<![CDATA[
    rect.anc_exon {
              stroke-width:3;
                  }

    rect.non_anc_exon {
              stroke: black; stroke-width:3; stroke-dasharray: 5,5;
                    }

    text {
              font-size: 18px;
              font-family: Courier New;
          }
                    ]]>
</style>

<defs>
    <text x="150" y="40" id="globalVariable">none</text>
</defs>

  <rect class="anc_exon" x="0" y="35.0" width="0" height="30" style="fill:#87bcbc;fill-opacity:1.00" />
  <rect class="anc_exon" x="0" y="35.0" width="32.800000000000004" height="30" style="fill:#87bcbc;fill-opacity:1.00" />
  <line x1="32.800000000000004" y1="50.0" x2="51.800000000000004" y2="50.0" style="stroke:#999; stroke-width:3;" />
  <line x1="51.800000000000004" y1="50.0" x2="51.800000000000004" y2="50.0" style="stroke:#999; stroke-width:3;" />
  <line x1="51.800000000000004" y1="50.0" x2="51.800000000000004" y2="50.0" style="stroke:#999; stroke-width:3;" />
  <line x1="51.800000000000004" y1="50.0" x2="72.0" y2="50.0" style="stroke:#999; stroke-width:3;" />
  <rect class="anc_exon" x="72" y="35.0" width="123" height="30" style="fill:#87bcbc;fill-opacity:1.00" />
  <line x1="195" y1="50.0" x2="215" y2="50.0" style="stroke:#999; stroke-width:3;" />
  <line x1="215" y1="50.0" x2="215" y2="50.0" style="stroke:#999; stroke-width:3;" />
  <line x1="215" y1="50.0" x2="215" y2="50.0" style="stroke:#999; stroke-width:3;" />
  <line x1="215" y1="50.0" x2="235" y2="50.0" style="stroke:#999; stroke-width:3;" />
  <rect class="anc_exon" x="235" y="35.0" width="79" height="30" style="fill:#87bcbc;fill-opacity:1.00" />
  <line x1="314" y1="50.0" x2="354" y2="50.0" style="stroke:#999; stroke-width:3;" />
  <rect class="anc_exon" x="354" y="35.0" width="441" height="30" style="fill:#87bcbc;fill-opacity:1.00" />
  <line x1="795" y1="50.0" x2="815" y2="50.0" style="stroke:#999; stroke-width:3;" />
  <line x1="815" y1="50.0" x2="815" y2="50.0" style="stroke:#999; stroke-width:3;" />
  <line x1="815" y1="50.0" x2="815" y2="50.0" style="stroke:#999; stroke-width:3;" />
  <line x1="815" y1="50.0" x2="835" y2="50.0" style="stroke:#999; stroke-width:3;" />
  <rect class="anc_exon" x="835" y="35.0" width="116" height="30" style="fill:#87bcbc;fill-opacity:1.00" />
  <line x1="951" y1="50.0" x2="991" y2="50.0" style="stroke:#999; stroke-width:3;" />
  <rect class="anc_exon" x="991" y="35.0" width="116" height="30" style="fill:#87bcbc;fill-opacity:1.00" />
  <line x1="1107" y1="50.0" x2="1127" y2="50.0" style="stroke:#999; stroke-width:3;" />
  <line x1="1127" y1="50.0" x2="1127" y2="50.0" style="stroke:#999; stroke-width:3;" />
  <line x1="1127" y1="50.0" x2="1127" y2="50.0" style="stroke:#999; stroke-width:3;" />
  <line x1="1127" y1="50.0" x2="1147" y2="50.0" style="stroke:#999; stroke-width:3;" />
  <rect class="anc_exon" x="1147" y="35.0" width="189" height="30" style="fill:#87bcbc;fill-opacity:1.00" />
  <line x1="1336" y1="50.0" x2="1356" y2="50.0" style="stroke:#999; stroke-width:3;" />
  <line x1="1356" y1="50.0" x2="1356" y2="50.0" style="stroke:#999; stroke-width:3;" />
  <line x1="1356" y1="50.0" x2="1356" y2="50.0" style="stroke:#999; stroke-width:3;" />
  <line x1="1356" y1="50.0" x2="1376" y2="50.0" style="stroke:#999; stroke-width:3;" />
  <rect class="anc_exon" x="1376" y="35.0" width="161" height="30" style="fill:#87bcbc;fill-opacity:1.00" />
  <line x1="1537" y1="50.0" x2="1577" y2="50.0" style="stroke:#999; stroke-width:3;" />
  <rect class="anc_exon" x="1577" y="35.0" width="143" height="30" style="fill:#87bcbc;fill-opacity:1.00" />
  <line x1="1720" y1="50.0" x2="1760" y2="50.0" style="stroke:#999; stroke-width:3;" />
  <rect class="anc_exon" x="1760" y="35.0" width="706" height="30" style="fill:#878787;fill-opacity:1.00" />
  <line x1="2466" y1="50.0" x2="2486" y2="50.0" style="stroke:#999; stroke-width:3;" />
  <line x1="2486" y1="50.0" x2="2486" y2="50.0" style="stroke:#999; stroke-width:3;" />
  <line x1="2486" y1="50.0" x2="2486" y2="50.0" style="stroke:#999; stroke-width:3;" />
  <line x1="2486" y1="50.0" x2="2506" y2="50.0" style="stroke:#999; stroke-width:3;" />
  <rect class="anc_exon" x="2506" y="35.0" width="122" height="30" style="fill:#87bcbc;fill-opacity:1.00" />
  <line x1="2628" y1="50.0" x2="2648" y2="50.0" style="stroke:#999; stroke-width:3;" />
  <line x1="2648" y1="50.0" x2="2648" y2="50.0" style="stroke:#999; stroke-width:3;" />
  <line x1="2648" y1="50.0" x2="2648" y2="50.0" style="stroke:#999; stroke-width:3;" />
  <line x1="2648" y1="50.0" x2="2668" y2="50.0" style="stroke:#999; stroke-width:3;" />
  <rect class="anc_exon" x="2668" y="35.0" width="155" height="30" style="fill:#87bcbc;fill-opacity:1.00" />
  <line x1="2823" y1="50.0" x2="2863" y2="50.0" style="stroke:#999; stroke-width:3;" />
  <rect class="anc_exon" x="2863" y="35.0" width="70" height="30" style="fill:#87bcbc;fill-opacity:1.00" />
  <line x1="2933" y1="50.0" x2="2953" y2="50.0" style="stroke:#999; stroke-width:3;" />
  <line x1="2953" y1="50.0" x2="2953" y2="50.0" style="stroke:#999; stroke-width:3;" />
  <line x1="2953" y1="50.0" x2="2953" y2="50.0" style="stroke:#999; stroke-width:3;" />
  <line x1="2953" y1="50.0" x2="2973" y2="50.0" style="stroke:#999; stroke-width:3;" />
  <rect class="anc_exon" x="2973" y="35.0" width="134" height="30" style="fill:#87bcbc;fill-opacity:1.00" />
  <rect class="anc_exon" x="3107" y="35.0" width="0" height="30" style="fill:#87bcbc;fill-opacity:1.00" />
  <text style="" >
<tspan x="0" y="83.0" style="font-size:18px;" >SP XM_031954232_1.1</tspan>  </text>



<script type="text/ecmascript">
<![CDATA[
function draw_bbox(text_id)
{
    var text_elem = document.getElementById(text_id);
    var offset_px = 2;
    var offset_py = 0;
    bbox = text_elem.getBBox();
    var box = document.createElementNS(document.rootElement.namespaceURI,'rect');
    box.setAttribute('x', bbox.x - offset_px);
    box.setAttribute('y', bbox.y - offset_py);
    box.setAttribute('width', bbox.width + offset_px * 2);
    box.setAttribute('height', bbox.height + offset_py * 2);
    box.setAttribute('style','fill: white;'+'stroke: black;'+'stroke-width: 1px;');
    text_elem.insertBefore(box,text_elem.childNodes[0]);

    var svg = text_elem.parentNode;
    svg.appendChild(text_elem);
}

for (var i=1; i < 1; i++)
{
draw_bbox("Mouseover" + i);
}
]]> 
</script>
</svg>
