<svg version="1.1"
xmlns="http://www.w3.org/2000/svg"
xmlns:xlink="http://www.w3.org/1999/xlink"
width="3546" height="100" viewBox = "0 0 3546 100"
onclick="mouseclick(evt)">

<script type="text/ecmascript">

<![CDATA[
    function mouseover(evt, target) { 
    var gv = document.getElementById("globalVariable");
    var previoustarget = gv.firstChild.nodeValue;
    if (previoustarget != "none") 
    {
        	document.getElementById(gv.firstChild.nodeValue).setAttributeNS(null, "visibility", "hidden");
    }
    document.getElementById(target).setAttributeNS(null, "visibility", "visible");
    gv.firstChild.nodeValue = target;
        }

    function mouseclick(evt) { 
    var gv = document.getElementById("globalVariable");
    var previoustarget = gv.firstChild.nodeValue;
    if (previoustarget != "none") {
        	document.getElementById(gv.firstChild.nodeValue).setAttributeNS(null, "visibility", "hidden");
        }
    }
]]>
  </script>
<style type="text/css" >

<![CDATA[
    rect.anc_exon {
              stroke-width:3;
                  }

    rect.non_anc_exon {
              stroke: black; stroke-width:3; stroke-dasharray: 5,5;
                    }

    text {
              font-size: 18px;
              font-family: Courier New;
          }
                    ]]>
</style>

<defs>
    <text x="150" y="40" id="globalVariable">none</text>
</defs>

  <rect class="anc_exon" x="0" y="35.0" width="0" height="30" style="fill:#87bcbc;fill-opacity:1.00" />
  <rect class="anc_exon" x="0" y="35.0" width="288.0" height="30" style="fill:#87bcbc;fill-opacity:1.00" />
  <line x1="288.0" y1="50.0" x2="308.0" y2="50.0" style="stroke:#999; stroke-width:3;" />
  <line x1="308.0" y1="50.0" x2="308.0" y2="50.0" style="stroke:#999; stroke-width:3;" />
  <line x1="308.0" y1="50.0" x2="308.0" y2="50.0" style="stroke:#999; stroke-width:3;" />
  <line x1="308.0" y1="50.0" x2="328.0" y2="50.0" style="stroke:#999; stroke-width:3;" />
  <rect class="anc_exon" x="328" y="35.0" width="88" height="30" style="fill:#87bcbc;fill-opacity:1.00" />
  <line x1="416" y1="50.0" x2="456" y2="50.0" style="stroke:#999; stroke-width:3;" />
  <rect class="anc_exon" x="456" y="35.0" width="93" height="30" style="fill:#87bcbc;fill-opacity:1.00" />
  <line x1="549" y1="50.0" x2="569" y2="50.0" style="stroke:#999; stroke-width:3;" />
  <line x1="569" y1="50.0" x2="569" y2="50.0" style="stroke:#999; stroke-width:3;" />
  <line x1="569" y1="50.0" x2="569" y2="50.0" style="stroke:#999; stroke-width:3;" />
  <line x1="569" y1="50.0" x2="589" y2="50.0" style="stroke:#999; stroke-width:3;" />
  <rect class="anc_exon" x="589" y="35.0" width="72" height="30" style="fill:#87bcbc;fill-opacity:1.00" />
  <line x1="661" y1="50.0" x2="701" y2="50.0" style="stroke:#999; stroke-width:3;" />
  <rect class="anc_exon" x="701" y="35.0" width="28" height="30" style="fill:#87bcbc;fill-opacity:1.00" />
  <line x1="729" y1="50.0" x2="769" y2="50.0" style="stroke:#999; stroke-width:3;" />
  <rect class="anc_exon" x="769" y="35.0" width="49" height="30" style="fill:#87bcbc;fill-opacity:1.00" />
  <line x1="818" y1="50.0" x2="838" y2="50.0" style="stroke:#999; stroke-width:3;" />
  <line x1="838" y1="50.0" x2="838" y2="50.0" style="stroke:#999; stroke-width:3;" />
  <line x1="838" y1="50.0" x2="838" y2="50.0" style="stroke:#999; stroke-width:3;" />
  <line x1="838" y1="50.0" x2="858" y2="50.0" style="stroke:#999; stroke-width:3;" />
  <rect class="anc_exon" x="858" y="35.0" width="87" height="30" style="fill:#87bcbc;fill-opacity:1.00" />
  <line x1="945" y1="50.0" x2="965" y2="50.0" style="stroke:#999; stroke-width:3;" />
  <line x1="965" y1="50.0" x2="965" y2="50.0" style="stroke:#999; stroke-width:3;" />
  <line x1="965" y1="50.0" x2="965" y2="50.0" style="stroke:#999; stroke-width:3;" />
  <line x1="965" y1="50.0" x2="985" y2="50.0" style="stroke:#999; stroke-width:3;" />
  <rect class="anc_exon" x="985" y="35.0" width="120" height="30" style="fill:#87bcbc;fill-opacity:1.00" />
  <line x1="1105" y1="50.0" x2="1145" y2="50.0" style="stroke:#999; stroke-width:3;" />
  <rect class="anc_exon" x="1145" y="35.0" width="55" height="30" style="fill:#87bcbc;fill-opacity:1.00" />
  <line x1="1200" y1="50.0" x2="1240" y2="50.0" style="stroke:#999; stroke-width:3;" />
  <rect class="anc_exon" x="1240" y="35.0" width="60" height="30" style="fill:#87bcbc;fill-opacity:1.00" />
  <line x1="1300" y1="50.0" x2="1320" y2="50.0" style="stroke:#999; stroke-width:3;" />
  <line x1="1320" y1="50.0" x2="1320" y2="50.0" style="stroke:#999; stroke-width:3;" />
  <line x1="1320" y1="50.0" x2="1320" y2="50.0" style="stroke:#999; stroke-width:3;" />
  <line x1="1320" y1="50.0" x2="1340" y2="50.0" style="stroke:#999; stroke-width:3;" />
  <rect class="anc_exon" x="1340" y="35.0" width="53" height="30" style="fill:#87bcbc;fill-opacity:1.00" />
  <line x1="1393" y1="50.0" x2="1413" y2="50.0" style="stroke:#999; stroke-width:3;" />
  <line x1="1413" y1="50.0" x2="1413" y2="50.0" style="stroke:#999; stroke-width:3;" />
  <line x1="1413" y1="50.0" x2="1413" y2="50.0" style="stroke:#999; stroke-width:3;" />
  <line x1="1413" y1="50.0" x2="1433" y2="50.0" style="stroke:#999; stroke-width:3;" />
  <rect class="anc_exon" x="1433" y="35.0" width="100" height="30" style="fill:#87bcbc;fill-opacity:1.00" />
  <line x1="1533" y1="50.0" x2="1573" y2="50.0" style="stroke:#999; stroke-width:3;" />
  <rect class="anc_exon" x="1573" y="35.0" width="78" height="30" style="fill:#87bcbc;fill-opacity:1.00" />
  <line x1="1651" y1="50.0" x2="1691" y2="50.0" style="stroke:#999; stroke-width:3;" />
  <rect class="anc_exon" x="1691" y="35.0" width="81" height="30" style="fill:#87bcbc;fill-opacity:1.00" />
  <line x1="1772" y1="50.0" x2="1792" y2="50.0" style="stroke:#999; stroke-width:3;" />
  <line x1="1792" y1="50.0" x2="1792" y2="50.0" style="stroke:#999; stroke-width:3;" />
  <line x1="1792" y1="50.0" x2="1792" y2="50.0" style="stroke:#999; stroke-width:3;" />
  <line x1="1792" y1="50.0" x2="1812" y2="50.0" style="stroke:#999; stroke-width:3;" />
  <rect class="anc_exon" x="1812" y="35.0" width="72" height="30" style="fill:#87bcbc;fill-opacity:1.00" />
  <line x1="1884" y1="50.0" x2="1904" y2="50.0" style="stroke:#999; stroke-width:3;" />
  <line x1="1904" y1="50.0" x2="1904" y2="50.0" style="stroke:#999; stroke-width:3;" />
  <line x1="1904" y1="50.0" x2="1904" y2="50.0" style="stroke:#999; stroke-width:3;" />
  <line x1="1904" y1="50.0" x2="1924" y2="50.0" style="stroke:#999; stroke-width:3;" />
  <rect class="anc_exon" x="1924" y="35.0" width="81" height="30" style="fill:#87bcbc;fill-opacity:1.00" />
  <line x1="2005" y1="50.0" x2="2025" y2="50.0" style="stroke:#999; stroke-width:3;" />
  <line x1="2025" y1="50.0" x2="2025" y2="50.0" style="stroke:#999; stroke-width:3;" />
  <line x1="2025" y1="50.0" x2="2025" y2="50.0" style="stroke:#999; stroke-width:3;" />
  <line x1="2025" y1="50.0" x2="2045" y2="50.0" style="stroke:#999; stroke-width:3;" />
  <rect class="anc_exon" x="2045" y="35.0" width="125" height="30" style="fill:#87bcbc;fill-opacity:1.00" />
  <line x1="2170" y1="50.0" x2="2190" y2="50.0" style="stroke:#999; stroke-width:3;" />
  <line x1="2190" y1="50.0" x2="2190" y2="50.0" style="stroke:#999; stroke-width:3;" />
  <line x1="2190" y1="50.0" x2="2190" y2="50.0" style="stroke:#999; stroke-width:3;" />
  <line x1="2190" y1="50.0" x2="2210" y2="50.0" style="stroke:#999; stroke-width:3;" />
  <rect class="anc_exon" x="2210" y="35.0" width="136" height="30" style="fill:#87bcbc;fill-opacity:1.00" />
  <line x1="2346" y1="50.0" x2="2386" y2="50.0" style="stroke:#999; stroke-width:3;" />
  <rect class="anc_exon" x="2386" y="35.0" width="78" height="30" style="fill:#87bcbc;fill-opacity:1.00" />
  <line x1="2464" y1="50.0" x2="2504" y2="50.0" style="stroke:#999; stroke-width:3;" />
  <rect class="anc_exon" x="2504" y="35.0" width="40" height="30" style="fill:#87bcbc;fill-opacity:1.00" />
  <line x1="2544" y1="50.0" x2="2584" y2="50.0" style="stroke:#999; stroke-width:3;" />
  <rect class="anc_exon" x="2584" y="35.0" width="133" height="30" style="fill:#87bcbc;fill-opacity:1.00" />
  <line x1="2717" y1="50.0" x2="2757" y2="50.0" style="stroke:#999; stroke-width:3;" />
  <rect class="anc_exon" x="2757" y="35.0" width="55" height="30" style="fill:#87bcbc;fill-opacity:1.00" />
  <line x1="2812" y1="50.0" x2="2852" y2="50.0" style="stroke:#999; stroke-width:3;" />
  <rect class="anc_exon" x="2852" y="35.0" width="93" height="30" style="fill:#87bcbc;fill-opacity:1.00" />
  <line x1="2945" y1="50.0" x2="2985" y2="50.0" style="stroke:#999; stroke-width:3;" />
  <rect class="anc_exon" x="2985" y="35.0" width="118" height="30" style="fill:#87bcbc;fill-opacity:1.00" />
  <line x1="3103" y1="50.0" x2="3123" y2="50.0" style="stroke:#999; stroke-width:3;" />
  <line x1="3123" y1="50.0" x2="3123" y2="50.0" style="stroke:#999; stroke-width:3;" />
  <line x1="3123" y1="50.0" x2="3123" y2="50.0" style="stroke:#999; stroke-width:3;" />
  <line x1="3123" y1="50.0" x2="3143" y2="50.0" style="stroke:#999; stroke-width:3;" />
  <rect class="anc_exon" x="3143" y="35.0" width="79" height="30" style="fill:#87bcbc;fill-opacity:1.00" />
  <line x1="3222" y1="50.0" x2="3262" y2="50.0" style="stroke:#999; stroke-width:3;" />
  <rect class="anc_exon" x="3262" y="35.0" width="113" height="30" style="fill:#87bcbc;fill-opacity:1.00" />
  <line x1="3375" y1="50.0" x2="3395" y2="50.0" style="stroke:#999; stroke-width:3;" />
  <line x1="3395" y1="50.0" x2="3395" y2="50.0" style="stroke:#999; stroke-width:3;" />
  <line x1="3395" y1="50.0" x2="3395" y2="50.0" style="stroke:#999; stroke-width:3;" />
  <line x1="3395" y1="50.0" x2="3415" y2="50.0" style="stroke:#999; stroke-width:3;" />
  <rect class="anc_exon" x="3415" y="35.0" width="95" height="30" style="fill:#87bcbc;fill-opacity:1.00" />
  <rect class="anc_exon" x="3510" y="35.0" width="0" height="30" style="fill:#87bcbc;fill-opacity:1.00" />
  <text style="" >
<tspan x="0" y="83.0" style="font-size:18px;" >SP XM_031950194_1.1</tspan>  </text>



<script type="text/ecmascript">
<![CDATA[
function draw_bbox(text_id)
{
    var text_elem = document.getElementById(text_id);
    var offset_px = 2;
    var offset_py = 0;
    bbox = text_elem.getBBox();
    var box = document.createElementNS(document.rootElement.namespaceURI,'rect');
    box.setAttribute('x', bbox.x - offset_px);
    box.setAttribute('y', bbox.y - offset_py);
    box.setAttribute('width', bbox.width + offset_px * 2);
    box.setAttribute('height', bbox.height + offset_py * 2);
    box.setAttribute('style','fill: white;'+'stroke: black;'+'stroke-width: 1px;');
    text_elem.insertBefore(box,text_elem.childNodes[0]);

    var svg = text_elem.parentNode;
    svg.appendChild(text_elem);
}

for (var i=1; i < 1; i++)
{
draw_bbox("Mouseover" + i);
}
]]> 
</script>
</svg>
