<svg version="1.1"
xmlns="http://www.w3.org/2000/svg"
xmlns:xlink="http://www.w3.org/1999/xlink"
width="6357" height="100" viewBox = "0 0 6357 100"
onclick="mouseclick(evt)">

<script type="text/ecmascript">

<![CDATA[
    function mouseover(evt, target) { 
    var gv = document.getElementById("globalVariable");
    var previoustarget = gv.firstChild.nodeValue;
    if (previoustarget != "none") 
    {
        	document.getElementById(gv.firstChild.nodeValue).setAttributeNS(null, "visibility", "hidden");
    }
    document.getElementById(target).setAttributeNS(null, "visibility", "visible");
    gv.firstChild.nodeValue = target;
        }

    function mouseclick(evt) { 
    var gv = document.getElementById("globalVariable");
    var previoustarget = gv.firstChild.nodeValue;
    if (previoustarget != "none") {
        	document.getElementById(gv.firstChild.nodeValue).setAttributeNS(null, "visibility", "hidden");
        }
    }
]]>
  </script>
<style type="text/css" >

<![CDATA[
    rect.anc_exon {
              stroke-width:3;
                  }

    rect.non_anc_exon {
              stroke: black; stroke-width:3; stroke-dasharray: 5,5;
                    }

    text {
              font-size: 18px;
              font-family: Courier New;
          }
                    ]]>
</style>

<defs>
    <text x="150" y="40" id="globalVariable">none</text>
</defs>

  <rect class="anc_exon" x="0" y="35.0" width="0" height="30" style="fill:#87bcbc;fill-opacity:1.00" />
  <rect class="anc_exon" x="0" y="35.0" width="100.80000000000001" height="30" style="fill:#87bcbc;fill-opacity:1.00" />
  <line x1="100.80000000000001" y1="50.0" x2="119.80000000000001" y2="50.0" style="stroke:#999; stroke-width:3;" />
  <line x1="119.80000000000001" y1="50.0" x2="119.80000000000001" y2="50.0" style="stroke:#999; stroke-width:3;" />
  <line x1="119.80000000000001" y1="50.0" x2="119.80000000000001" y2="50.0" style="stroke:#999; stroke-width:3;" />
  <line x1="119.80000000000001" y1="50.0" x2="140.0" y2="50.0" style="stroke:#999; stroke-width:3;" />
  <rect class="anc_exon" x="140" y="35.0" width="169" height="30" style="fill:#87bcbc;fill-opacity:1.00" />
  <line x1="309" y1="50.0" x2="349" y2="50.0" style="stroke:#999; stroke-width:3;" />
  <rect class="anc_exon" x="349" y="35.0" width="87" height="30" style="fill:#87bcbc;fill-opacity:1.00" />
  <line x1="436" y1="50.0" x2="476" y2="50.0" style="stroke:#999; stroke-width:3;" />
  <rect class="anc_exon" x="476" y="35.0" width="120" height="30" style="fill:#87bcbc;fill-opacity:1.00" />
  <line x1="596" y1="50.0" x2="636" y2="50.0" style="stroke:#999; stroke-width:3;" />
  <rect class="anc_exon" x="636" y="35.0" width="137" height="30" style="fill:#87bcbc;fill-opacity:1.00" />
  <line x1="773" y1="50.0" x2="793" y2="50.0" style="stroke:#999; stroke-width:3;" />
  <line x1="793" y1="50.0" x2="793" y2="50.0" style="stroke:#999; stroke-width:3;" />
  <line x1="793" y1="50.0" x2="793" y2="50.0" style="stroke:#999; stroke-width:3;" />
  <line x1="793" y1="50.0" x2="813" y2="50.0" style="stroke:#999; stroke-width:3;" />
  <rect class="anc_exon" x="813" y="35.0" width="128" height="30" style="fill:#87bcbc;fill-opacity:1.00" />
  <line x1="941" y1="50.0" x2="981" y2="50.0" style="stroke:#999; stroke-width:3;" />
  <rect class="anc_exon" x="981" y="35.0" width="204" height="30" style="fill:#87bcbc;fill-opacity:1.00" />
  <line x1="1185" y1="50.0" x2="1225" y2="50.0" style="stroke:#999; stroke-width:3;" />
  <rect class="anc_exon" x="1225" y="35.0" width="124" height="30" style="fill:#87bcbc;fill-opacity:1.00" />
  <line x1="1349" y1="50.0" x2="1369" y2="50.0" style="stroke:#999; stroke-width:3;" />
  <line x1="1369" y1="50.0" x2="1369" y2="50.0" style="stroke:#999; stroke-width:3;" />
  <line x1="1369" y1="50.0" x2="1369" y2="50.0" style="stroke:#999; stroke-width:3;" />
  <line x1="1369" y1="50.0" x2="1389" y2="50.0" style="stroke:#999; stroke-width:3;" />
  <rect class="anc_exon" x="1389" y="35.0" width="200" height="30" style="fill:#87bcbc;fill-opacity:1.00" />
  <line x1="1589" y1="50.0" x2="1609" y2="50.0" style="stroke:#999; stroke-width:3;" />
  <line x1="1609" y1="50.0" x2="1609" y2="50.0" style="stroke:#999; stroke-width:3;" />
  <line x1="1609" y1="50.0" x2="1609" y2="50.0" style="stroke:#999; stroke-width:3;" />
  <line x1="1609" y1="50.0" x2="1629" y2="50.0" style="stroke:#999; stroke-width:3;" />
  <rect class="anc_exon" x="1629" y="35.0" width="89" height="30" style="fill:#87bcbc;fill-opacity:1.00" />
  <line x1="1718" y1="50.0" x2="1738" y2="50.0" style="stroke:#999; stroke-width:3;" />
  <line x1="1738" y1="50.0" x2="1738" y2="50.0" style="stroke:#999; stroke-width:3;" />
  <line x1="1738" y1="50.0" x2="1738" y2="50.0" style="stroke:#999; stroke-width:3;" />
  <line x1="1738" y1="50.0" x2="1758" y2="50.0" style="stroke:#999; stroke-width:3;" />
  <rect class="anc_exon" x="1758" y="35.0" width="122" height="30" style="fill:#87bcbc;fill-opacity:1.00" />
  <line x1="1880" y1="50.0" x2="1920" y2="50.0" style="stroke:#999; stroke-width:3;" />
  <rect class="anc_exon" x="1920" y="35.0" width="80" height="30" style="fill:#87bcbc;fill-opacity:1.00" />
  <line x1="2000" y1="50.0" x2="2020" y2="50.0" style="stroke:#999; stroke-width:3;" />
  <line x1="2020" y1="50.0" x2="2020" y2="50.0" style="stroke:#999; stroke-width:3;" />
  <line x1="2020" y1="50.0" x2="2020" y2="50.0" style="stroke:#999; stroke-width:3;" />
  <line x1="2020" y1="50.0" x2="2040" y2="50.0" style="stroke:#999; stroke-width:3;" />
  <rect class="anc_exon" x="2040" y="35.0" width="88" height="30" style="fill:#87bcbc;fill-opacity:1.00" />
  <line x1="2128" y1="50.0" x2="2148" y2="50.0" style="stroke:#999; stroke-width:3;" />
  <line x1="2148" y1="50.0" x2="2148" y2="50.0" style="stroke:#999; stroke-width:3;" />
  <line x1="2148" y1="50.0" x2="2148" y2="50.0" style="stroke:#999; stroke-width:3;" />
  <line x1="2148" y1="50.0" x2="2168" y2="50.0" style="stroke:#999; stroke-width:3;" />
  <rect class="anc_exon" x="2168" y="35.0" width="131" height="30" style="fill:#87bcbc;fill-opacity:1.00" />
  <line x1="2299" y1="50.0" x2="2339" y2="50.0" style="stroke:#999; stroke-width:3;" />
  <rect class="anc_exon" x="2339" y="35.0" width="140" height="30" style="fill:#87bcbc;fill-opacity:1.00" />
  <line x1="2479" y1="50.0" x2="2499" y2="50.0" style="stroke:#999; stroke-width:3;" />
  <line x1="2499" y1="50.0" x2="2499" y2="50.0" style="stroke:#999; stroke-width:3;" />
  <line x1="2499" y1="50.0" x2="2499" y2="50.0" style="stroke:#999; stroke-width:3;" />
  <line x1="2499" y1="50.0" x2="2519" y2="50.0" style="stroke:#999; stroke-width:3;" />
  <rect class="anc_exon" x="2519" y="35.0" width="84" height="30" style="fill:#87bcbc;fill-opacity:1.00" />
  <line x1="2603" y1="50.0" x2="2623" y2="50.0" style="stroke:#999; stroke-width:3;" />
  <line x1="2623" y1="50.0" x2="2623" y2="50.0" style="stroke:#999; stroke-width:3;" />
  <line x1="2623" y1="50.0" x2="2623" y2="50.0" style="stroke:#999; stroke-width:3;" />
  <line x1="2623" y1="50.0" x2="2643" y2="50.0" style="stroke:#999; stroke-width:3;" />
  <rect class="anc_exon" x="2643" y="35.0" width="152" height="30" style="fill:#87bcbc;fill-opacity:1.00" />
  <line x1="2795" y1="50.0" x2="2815" y2="50.0" style="stroke:#999; stroke-width:3;" />
  <line x1="2815" y1="50.0" x2="2815" y2="50.0" style="stroke:#999; stroke-width:3;" />
  <line x1="2815" y1="50.0" x2="2815" y2="50.0" style="stroke:#999; stroke-width:3;" />
  <line x1="2815" y1="50.0" x2="2835" y2="50.0" style="stroke:#999; stroke-width:3;" />
  <rect class="anc_exon" x="2835" y="35.0" width="128" height="30" style="fill:#87bcbc;fill-opacity:1.00" />
  <line x1="2963" y1="50.0" x2="2983" y2="50.0" style="stroke:#999; stroke-width:3;" />
  <line x1="2983" y1="50.0" x2="2983" y2="50.0" style="stroke:#999; stroke-width:3;" />
  <line x1="2983" y1="50.0" x2="2983" y2="50.0" style="stroke:#999; stroke-width:3;" />
  <line x1="2983" y1="50.0" x2="3003" y2="50.0" style="stroke:#999; stroke-width:3;" />
  <rect class="anc_exon" x="3003" y="35.0" width="152" height="30" style="fill:#87bcbc;fill-opacity:1.00" />
  <line x1="3155" y1="50.0" x2="3195" y2="50.0" style="stroke:#999; stroke-width:3;" />
  <rect class="anc_exon" x="3195" y="35.0" width="136" height="30" style="fill:#87bcbc;fill-opacity:1.00" />
  <line x1="3331" y1="50.0" x2="3351" y2="50.0" style="stroke:#999; stroke-width:3;" />
  <line x1="3351" y1="50.0" x2="3351" y2="50.0" style="stroke:#999; stroke-width:3;" />
  <line x1="3351" y1="50.0" x2="3351" y2="50.0" style="stroke:#999; stroke-width:3;" />
  <line x1="3351" y1="50.0" x2="3371" y2="50.0" style="stroke:#999; stroke-width:3;" />
  <rect class="anc_exon" x="3371" y="35.0" width="21" height="30" style="fill:#87bcbc;fill-opacity:1.00" />
  <line x1="3392" y1="50.0" x2="3412" y2="50.0" style="stroke:#999; stroke-width:3;" />
  <line x1="3412" y1="50.0" x2="3412" y2="50.0" style="stroke:#999; stroke-width:3;" />
  <line x1="3412" y1="50.0" x2="3412" y2="50.0" style="stroke:#999; stroke-width:3;" />
  <line x1="3412" y1="50.0" x2="3432" y2="50.0" style="stroke:#999; stroke-width:3;" />
  <rect class="anc_exon" x="3432" y="35.0" width="111" height="30" style="fill:#87bcbc;fill-opacity:1.00" />
  <line x1="3543" y1="50.0" x2="3563" y2="50.0" style="stroke:#999; stroke-width:3;" />
  <line x1="3563" y1="50.0" x2="3563" y2="50.0" style="stroke:#999; stroke-width:3;" />
  <line x1="3563" y1="50.0" x2="3563" y2="50.0" style="stroke:#999; stroke-width:3;" />
  <line x1="3563" y1="50.0" x2="3583" y2="50.0" style="stroke:#999; stroke-width:3;" />
  <rect class="anc_exon" x="3583" y="35.0" width="144" height="30" style="fill:#87bcbc;fill-opacity:1.00" />
  <line x1="3727" y1="50.0" x2="3747" y2="50.0" style="stroke:#999; stroke-width:3;" />
  <line x1="3747" y1="50.0" x2="3747" y2="50.0" style="stroke:#999; stroke-width:3;" />
  <line x1="3747" y1="50.0" x2="3747" y2="50.0" style="stroke:#999; stroke-width:3;" />
  <line x1="3747" y1="50.0" x2="3767" y2="50.0" style="stroke:#999; stroke-width:3;" />
  <rect class="anc_exon" x="3767" y="35.0" width="192" height="30" style="fill:#87bcbc;fill-opacity:1.00" />
  <line x1="3959" y1="50.0" x2="3979" y2="50.0" style="stroke:#999; stroke-width:3;" />
  <line x1="3979" y1="50.0" x2="3979" y2="50.0" style="stroke:#999; stroke-width:3;" />
  <line x1="3979" y1="50.0" x2="3979" y2="50.0" style="stroke:#999; stroke-width:3;" />
  <line x1="3979" y1="50.0" x2="3999" y2="50.0" style="stroke:#999; stroke-width:3;" />
  <rect class="anc_exon" x="3999" y="35.0" width="145" height="30" style="fill:#87bcbc;fill-opacity:1.00" />
  <line x1="4144" y1="50.0" x2="4184" y2="50.0" style="stroke:#999; stroke-width:3;" />
  <rect class="anc_exon" x="4184" y="35.0" width="55" height="30" style="fill:#87bcbc;fill-opacity:1.00" />
  <line x1="4239" y1="50.0" x2="4279" y2="50.0" style="stroke:#999; stroke-width:3;" />
  <rect class="anc_exon" x="4279" y="35.0" width="144" height="30" style="fill:#87bcbc;fill-opacity:1.00" />
  <line x1="4423" y1="50.0" x2="4443" y2="50.0" style="stroke:#999; stroke-width:3;" />
  <line x1="4443" y1="50.0" x2="4443" y2="50.0" style="stroke:#999; stroke-width:3;" />
  <line x1="4443" y1="50.0" x2="4443" y2="50.0" style="stroke:#999; stroke-width:3;" />
  <line x1="4443" y1="50.0" x2="4463" y2="50.0" style="stroke:#999; stroke-width:3;" />
  <rect class="anc_exon" x="4463" y="35.0" width="188" height="30" style="fill:#87bcbc;fill-opacity:1.00" />
  <line x1="4651" y1="50.0" x2="4671" y2="50.0" style="stroke:#999; stroke-width:3;" />
  <line x1="4671" y1="50.0" x2="4671" y2="50.0" style="stroke:#999; stroke-width:3;" />
  <line x1="4671" y1="50.0" x2="4671" y2="50.0" style="stroke:#999; stroke-width:3;" />
  <line x1="4671" y1="50.0" x2="4691" y2="50.0" style="stroke:#999; stroke-width:3;" />
  <rect class="anc_exon" x="4691" y="35.0" width="196" height="30" style="fill:#87bcbc;fill-opacity:1.00" />
  <line x1="4887" y1="50.0" x2="4927" y2="50.0" style="stroke:#999; stroke-width:3;" />
  <rect class="anc_exon" x="4927" y="35.0" width="102" height="30" style="fill:#87bcbc;fill-opacity:1.00" />
  <line x1="5029" y1="50.0" x2="5069" y2="50.0" style="stroke:#999; stroke-width:3;" />
  <rect class="anc_exon" x="5069" y="35.0" width="118" height="30" style="fill:#87bcbc;fill-opacity:1.00" />
  <line x1="5187" y1="50.0" x2="5207" y2="50.0" style="stroke:#999; stroke-width:3;" />
  <line x1="5207" y1="50.0" x2="5207" y2="50.0" style="stroke:#999; stroke-width:3;" />
  <line x1="5207" y1="50.0" x2="5207" y2="50.0" style="stroke:#999; stroke-width:3;" />
  <line x1="5207" y1="50.0" x2="5227" y2="50.0" style="stroke:#999; stroke-width:3;" />
  <rect class="anc_exon" x="5227" y="35.0" width="218" height="30" style="fill:#87bcbc;fill-opacity:1.00" />
  <line x1="5445" y1="50.0" x2="5465" y2="50.0" style="stroke:#999; stroke-width:3;" />
  <line x1="5465" y1="50.0" x2="5465" y2="50.0" style="stroke:#999; stroke-width:3;" />
  <line x1="5465" y1="50.0" x2="5465" y2="50.0" style="stroke:#999; stroke-width:3;" />
  <line x1="5465" y1="50.0" x2="5485" y2="50.0" style="stroke:#999; stroke-width:3;" />
  <rect class="anc_exon" x="5485" y="35.0" width="180" height="30" style="fill:#87bcbc;fill-opacity:1.00" />
  <line x1="5665" y1="50.0" x2="5685" y2="50.0" style="stroke:#999; stroke-width:3;" />
  <line x1="5685" y1="50.0" x2="5685" y2="50.0" style="stroke:#999; stroke-width:3;" />
  <line x1="5685" y1="50.0" x2="5685" y2="50.0" style="stroke:#999; stroke-width:3;" />
  <line x1="5685" y1="50.0" x2="5705" y2="50.0" style="stroke:#999; stroke-width:3;" />
  <rect class="anc_exon" x="5705" y="35.0" width="121" height="30" style="fill:#87bcbc;fill-opacity:1.00" />
  <line x1="5826" y1="50.0" x2="5846" y2="50.0" style="stroke:#999; stroke-width:3;" />
  <line x1="5846" y1="50.0" x2="5846" y2="50.0" style="stroke:#999; stroke-width:3;" />
  <line x1="5846" y1="50.0" x2="5846" y2="50.0" style="stroke:#999; stroke-width:3;" />
  <line x1="5846" y1="50.0" x2="5866" y2="50.0" style="stroke:#999; stroke-width:3;" />
  <rect class="anc_exon" x="5866" y="35.0" width="171" height="30" style="fill:#87bcbc;fill-opacity:1.00" />
  <line x1="6037" y1="50.0" x2="6077" y2="50.0" style="stroke:#999; stroke-width:3;" />
  <rect class="anc_exon" x="6077" y="35.0" width="244" height="30" style="fill:#87bcbc;fill-opacity:1.00" />
  <rect class="anc_exon" x="6321" y="35.0" width="0" height="30" style="fill:#87bcbc;fill-opacity:1.00" />
  <text style="" >
<tspan x="0" y="83.0" style="font-size:18px;" >SP XM_031952260_1.1</tspan>  </text>



<script type="text/ecmascript">
<![CDATA[
function draw_bbox(text_id)
{
    var text_elem = document.getElementById(text_id);
    var offset_px = 2;
    var offset_py = 0;
    bbox = text_elem.getBBox();
    var box = document.createElementNS(document.rootElement.namespaceURI,'rect');
    box.setAttribute('x', bbox.x - offset_px);
    box.setAttribute('y', bbox.y - offset_py);
    box.setAttribute('width', bbox.width + offset_px * 2);
    box.setAttribute('height', bbox.height + offset_py * 2);
    box.setAttribute('style','fill: white;'+'stroke: black;'+'stroke-width: 1px;');
    text_elem.insertBefore(box,text_elem.childNodes[0]);

    var svg = text_elem.parentNode;
    svg.appendChild(text_elem);
}

for (var i=1; i < 1; i++)
{
draw_bbox("Mouseover" + i);
}
]]> 
</script>
</svg>
