<svg version="1.1"
xmlns="http://www.w3.org/2000/svg"
xmlns:xlink="http://www.w3.org/1999/xlink"
width="2149" height="100" viewBox = "0 0 2149 100"
onclick="mouseclick(evt)">

<script type="text/ecmascript">

<![CDATA[
    function mouseover(evt, target) { 
    var gv = document.getElementById("globalVariable");
    var previoustarget = gv.firstChild.nodeValue;
    if (previoustarget != "none") 
    {
        	document.getElementById(gv.firstChild.nodeValue).setAttributeNS(null, "visibility", "hidden");
    }
    document.getElementById(target).setAttributeNS(null, "visibility", "visible");
    gv.firstChild.nodeValue = target;
        }

    function mouseclick(evt) { 
    var gv = document.getElementById("globalVariable");
    var previoustarget = gv.firstChild.nodeValue;
    if (previoustarget != "none") {
        	document.getElementById(gv.firstChild.nodeValue).setAttributeNS(null, "visibility", "hidden");
        }
    }
]]>
  </script>
<style type="text/css" >

<![CDATA[
    rect.anc_exon {
              stroke-width:3;
                  }

    rect.non_anc_exon {
              stroke: black; stroke-width:3; stroke-dasharray: 5,5;
                    }

    text {
              font-size: 18px;
              font-family: Courier New;
          }
                    ]]>
</style>

<defs>
    <text x="150" y="40" id="globalVariable">none</text>
</defs>

  <rect class="anc_exon" x="0" y="35.0" width="0" height="30" style="fill:#87bcbc;fill-opacity:1.00" />
  <rect class="anc_exon" x="0" y="35.0" width="41.6" height="30" style="fill:#87bcbc;fill-opacity:1.00" />
  <line x1="41.6" y1="50.0" x2="60.6" y2="50.0" style="stroke:#999; stroke-width:3;" />
  <line x1="60.6" y1="50.0" x2="60.6" y2="50.0" style="stroke:#999; stroke-width:3;" />
  <line x1="60.6" y1="50.0" x2="60.6" y2="50.0" style="stroke:#999; stroke-width:3;" />
  <line x1="60.6" y1="50.0" x2="81.0" y2="50.0" style="stroke:#999; stroke-width:3;" />
  <rect class="anc_exon" x="81" y="35.0" width="160" height="30" style="fill:#87bcbc;fill-opacity:1.00" />
  <line x1="241" y1="50.0" x2="261" y2="50.0" style="stroke:#999; stroke-width:3;" />
  <line x1="261" y1="50.0" x2="261" y2="50.0" style="stroke:#999; stroke-width:3;" />
  <line x1="261" y1="50.0" x2="261" y2="50.0" style="stroke:#999; stroke-width:3;" />
  <line x1="261" y1="50.0" x2="281" y2="50.0" style="stroke:#999; stroke-width:3;" />
  <rect class="anc_exon" x="281" y="35.0" width="70" height="30" style="fill:#87bcbc;fill-opacity:1.00" />
  <line x1="351" y1="50.0" x2="371" y2="50.0" style="stroke:#999; stroke-width:3;" />
  <line x1="371" y1="50.0" x2="371" y2="50.0" style="stroke:#999; stroke-width:3;" />
  <line x1="371" y1="50.0" x2="371" y2="50.0" style="stroke:#999; stroke-width:3;" />
  <line x1="371" y1="50.0" x2="391" y2="50.0" style="stroke:#999; stroke-width:3;" />
  <rect class="anc_exon" x="391" y="35.0" width="103" height="30" style="fill:#87bcbc;fill-opacity:1.00" />
  <line x1="494" y1="50.0" x2="514" y2="50.0" style="stroke:#999; stroke-width:3;" />
  <line x1="514" y1="50.0" x2="514" y2="50.0" style="stroke:#999; stroke-width:3;" />
  <line x1="514" y1="50.0" x2="514" y2="50.0" style="stroke:#999; stroke-width:3;" />
  <line x1="514" y1="50.0" x2="534" y2="50.0" style="stroke:#999; stroke-width:3;" />
  <rect class="anc_exon" x="534" y="35.0" width="166" height="30" style="fill:#87bcbc;fill-opacity:1.00" />
  <line x1="700" y1="50.0" x2="720" y2="50.0" style="stroke:#999; stroke-width:3;" />
  <line x1="720" y1="50.0" x2="720" y2="50.0" style="stroke:#999; stroke-width:3;" />
  <line x1="720" y1="50.0" x2="720" y2="50.0" style="stroke:#999; stroke-width:3;" />
  <line x1="720" y1="50.0" x2="740" y2="50.0" style="stroke:#999; stroke-width:3;" />
  <rect class="anc_exon" x="740" y="35.0" width="106" height="30" style="fill:#87bcbc;fill-opacity:1.00" />
  <line x1="846" y1="50.0" x2="866" y2="50.0" style="stroke:#999; stroke-width:3;" />
  <line x1="866" y1="50.0" x2="866" y2="50.0" style="stroke:#999; stroke-width:3;" />
  <line x1="866" y1="50.0" x2="866" y2="50.0" style="stroke:#999; stroke-width:3;" />
  <line x1="866" y1="50.0" x2="886" y2="50.0" style="stroke:#999; stroke-width:3;" />
  <rect class="anc_exon" x="886" y="35.0" width="59" height="30" style="fill:#87bcbc;fill-opacity:1.00" />
  <line x1="945" y1="50.0" x2="985" y2="50.0" style="stroke:#999; stroke-width:3;" />
  <rect class="anc_exon" x="985" y="35.0" width="97" height="30" style="fill:#87bcbc;fill-opacity:1.00" />
  <line x1="1082" y1="50.0" x2="1102" y2="50.0" style="stroke:#999; stroke-width:3;" />
  <line x1="1102" y1="50.0" x2="1102" y2="50.0" style="stroke:#999; stroke-width:3;" />
  <line x1="1102" y1="50.0" x2="1102" y2="50.0" style="stroke:#999; stroke-width:3;" />
  <line x1="1102" y1="50.0" x2="1122" y2="50.0" style="stroke:#999; stroke-width:3;" />
  <rect class="anc_exon" x="1122" y="35.0" width="768" height="30" style="fill:#87bcbc;fill-opacity:1.00" />
  <line x1="1890" y1="50.0" x2="1910" y2="50.0" style="stroke:#999; stroke-width:3;" />
  <line x1="1910" y1="50.0" x2="1910" y2="50.0" style="stroke:#999; stroke-width:3;" />
  <line x1="1910" y1="50.0" x2="1910" y2="50.0" style="stroke:#999; stroke-width:3;" />
  <line x1="1910" y1="50.0" x2="1930" y2="50.0" style="stroke:#999; stroke-width:3;" />
  <rect class="anc_exon" x="1930" y="35.0" width="183" height="30" style="fill:#87bcbc;fill-opacity:1.00" />
  <rect class="anc_exon" x="2113" y="35.0" width="0" height="30" style="fill:#87bcbc;fill-opacity:1.00" />
  <text style="" >
<tspan x="0" y="83.0" style="font-size:18px;" >SP XM_031956287_1.1</tspan>  </text>



<script type="text/ecmascript">
<![CDATA[
function draw_bbox(text_id)
{
    var text_elem = document.getElementById(text_id);
    var offset_px = 2;
    var offset_py = 0;
    bbox = text_elem.getBBox();
    var box = document.createElementNS(document.rootElement.namespaceURI,'rect');
    box.setAttribute('x', bbox.x - offset_px);
    box.setAttribute('y', bbox.y - offset_py);
    box.setAttribute('width', bbox.width + offset_px * 2);
    box.setAttribute('height', bbox.height + offset_py * 2);
    box.setAttribute('style','fill: white;'+'stroke: black;'+'stroke-width: 1px;');
    text_elem.insertBefore(box,text_elem.childNodes[0]);

    var svg = text_elem.parentNode;
    svg.appendChild(text_elem);
}

for (var i=1; i < 1; i++)
{
draw_bbox("Mouseover" + i);
}
]]> 
</script>
</svg>
