<svg version="1.1"
xmlns="http://www.w3.org/2000/svg"
xmlns:xlink="http://www.w3.org/1999/xlink"
width="2638" height="100" viewBox = "0 0 2638 100"
onclick="mouseclick(evt)">

<script type="text/ecmascript">

<![CDATA[
    function mouseover(evt, target) { 
    var gv = document.getElementById("globalVariable");
    var previoustarget = gv.firstChild.nodeValue;
    if (previoustarget != "none") 
    {
        	document.getElementById(gv.firstChild.nodeValue).setAttributeNS(null, "visibility", "hidden");
    }
    document.getElementById(target).setAttributeNS(null, "visibility", "visible");
    gv.firstChild.nodeValue = target;
        }

    function mouseclick(evt) { 
    var gv = document.getElementById("globalVariable");
    var previoustarget = gv.firstChild.nodeValue;
    if (previoustarget != "none") {
        	document.getElementById(gv.firstChild.nodeValue).setAttributeNS(null, "visibility", "hidden");
        }
    }
]]>
  </script>
<style type="text/css" >

<![CDATA[
    rect.anc_exon {
              stroke-width:3;
                  }

    rect.non_anc_exon {
              stroke: black; stroke-width:3; stroke-dasharray: 5,5;
                    }

    text {
              font-size: 18px;
              font-family: Courier New;
          }
                    ]]>
</style>

<defs>
    <text x="150" y="40" id="globalVariable">none</text>
</defs>

  <rect class="anc_exon" x="0" y="35.0" width="0" height="30" style="fill:#87bcbc;fill-opacity:1.00" />
  <rect class="anc_exon" x="0" y="35.0" width="51.2" height="30" style="fill:#87bcbc;fill-opacity:1.00" />
  <line x1="51.2" y1="50.0" x2="70.2" y2="50.0" style="stroke:#999; stroke-width:3;" />
  <line x1="70.2" y1="50.0" x2="70.2" y2="50.0" style="stroke:#999; stroke-width:3;" />
  <line x1="70.2" y1="50.0" x2="70.2" y2="50.0" style="stroke:#999; stroke-width:3;" />
  <line x1="70.2" y1="50.0" x2="91.0" y2="50.0" style="stroke:#999; stroke-width:3;" />
  <rect class="anc_exon" x="91" y="35.0" width="63" height="30" style="fill:#87bcbc;fill-opacity:1.00" />
  <line x1="154" y1="50.0" x2="174" y2="50.0" style="stroke:#999; stroke-width:3;" />
  <line x1="174" y1="50.0" x2="174" y2="50.0" style="stroke:#999; stroke-width:3;" />
  <line x1="174" y1="50.0" x2="174" y2="50.0" style="stroke:#999; stroke-width:3;" />
  <line x1="174" y1="50.0" x2="194" y2="50.0" style="stroke:#999; stroke-width:3;" />
  <rect class="anc_exon" x="194" y="35.0" width="46" height="30" style="fill:#87bcbc;fill-opacity:1.00" />
  <line x1="240" y1="50.0" x2="260" y2="50.0" style="stroke:#999; stroke-width:3;" />
  <line x1="260" y1="50.0" x2="260" y2="50.0" style="stroke:#999; stroke-width:3;" />
  <line x1="260" y1="50.0" x2="260" y2="50.0" style="stroke:#999; stroke-width:3;" />
  <line x1="260" y1="50.0" x2="280" y2="50.0" style="stroke:#999; stroke-width:3;" />
  <rect class="anc_exon" x="280" y="35.0" width="74" height="30" style="fill:#87bcbc;fill-opacity:1.00" />
  <line x1="354" y1="50.0" x2="374" y2="50.0" style="stroke:#999; stroke-width:3;" />
  <line x1="374" y1="50.0" x2="374" y2="50.0" style="stroke:#999; stroke-width:3;" />
  <line x1="374" y1="50.0" x2="374" y2="50.0" style="stroke:#999; stroke-width:3;" />
  <line x1="374" y1="50.0" x2="394" y2="50.0" style="stroke:#999; stroke-width:3;" />
  <rect class="anc_exon" x="394" y="35.0" width="76" height="30" style="fill:#87bcbc;fill-opacity:1.00" />
  <line x1="470" y1="50.0" x2="490" y2="50.0" style="stroke:#999; stroke-width:3;" />
  <line x1="490" y1="50.0" x2="490" y2="50.0" style="stroke:#999; stroke-width:3;" />
  <line x1="490" y1="50.0" x2="490" y2="50.0" style="stroke:#999; stroke-width:3;" />
  <line x1="490" y1="50.0" x2="510" y2="50.0" style="stroke:#999; stroke-width:3;" />
  <rect class="anc_exon" x="510" y="35.0" width="53" height="30" style="fill:#87bcbc;fill-opacity:1.00" />
  <line x1="563" y1="50.0" x2="583" y2="50.0" style="stroke:#999; stroke-width:3;" />
  <line x1="583" y1="50.0" x2="583" y2="50.0" style="stroke:#999; stroke-width:3;" />
  <line x1="583" y1="50.0" x2="583" y2="50.0" style="stroke:#999; stroke-width:3;" />
  <line x1="583" y1="50.0" x2="603" y2="50.0" style="stroke:#999; stroke-width:3;" />
  <rect class="anc_exon" x="603" y="35.0" width="218" height="30" style="fill:#87bcbc;fill-opacity:1.00" />
  <line x1="821" y1="50.0" x2="841" y2="50.0" style="stroke:#999; stroke-width:3;" />
  <line x1="841" y1="50.0" x2="841" y2="50.0" style="stroke:#999; stroke-width:3;" />
  <line x1="841" y1="50.0" x2="841" y2="50.0" style="stroke:#999; stroke-width:3;" />
  <line x1="841" y1="50.0" x2="861" y2="50.0" style="stroke:#999; stroke-width:3;" />
  <rect class="anc_exon" x="861" y="35.0" width="108" height="30" style="fill:#87bcbc;fill-opacity:1.00" />
  <line x1="969" y1="50.0" x2="989" y2="50.0" style="stroke:#999; stroke-width:3;" />
  <line x1="989" y1="50.0" x2="989" y2="50.0" style="stroke:#999; stroke-width:3;" />
  <line x1="989" y1="50.0" x2="989" y2="50.0" style="stroke:#999; stroke-width:3;" />
  <line x1="989" y1="50.0" x2="1009" y2="50.0" style="stroke:#999; stroke-width:3;" />
  <rect class="anc_exon" x="1009" y="35.0" width="34" height="30" style="fill:#87bcbc;fill-opacity:1.00" />
  <line x1="1043" y1="50.0" x2="1063" y2="50.0" style="stroke:#999; stroke-width:3;" />
  <line x1="1063" y1="50.0" x2="1063" y2="50.0" style="stroke:#999; stroke-width:3;" />
  <line x1="1063" y1="50.0" x2="1063" y2="50.0" style="stroke:#999; stroke-width:3;" />
  <line x1="1063" y1="50.0" x2="1083" y2="50.0" style="stroke:#999; stroke-width:3;" />
  <rect class="anc_exon" x="1083" y="35.0" width="110" height="30" style="fill:#87bcbc;fill-opacity:1.00" />
  <line x1="1193" y1="50.0" x2="1213" y2="50.0" style="stroke:#999; stroke-width:3;" />
  <line x1="1213" y1="50.0" x2="1213" y2="50.0" style="stroke:#999; stroke-width:3;" />
  <line x1="1213" y1="50.0" x2="1213" y2="50.0" style="stroke:#999; stroke-width:3;" />
  <line x1="1213" y1="50.0" x2="1233" y2="50.0" style="stroke:#999; stroke-width:3;" />
  <rect class="anc_exon" x="1233" y="35.0" width="74" height="30" style="fill:#87bcbc;fill-opacity:1.00" />
  <line x1="1307" y1="50.0" x2="1327" y2="50.0" style="stroke:#999; stroke-width:3;" />
  <line x1="1327" y1="50.0" x2="1327" y2="50.0" style="stroke:#999; stroke-width:3;" />
  <line x1="1327" y1="50.0" x2="1327" y2="50.0" style="stroke:#999; stroke-width:3;" />
  <line x1="1327" y1="50.0" x2="1347" y2="50.0" style="stroke:#999; stroke-width:3;" />
  <rect class="anc_exon" x="1347" y="35.0" width="44" height="30" style="fill:#87bcbc;fill-opacity:1.00" />
  <line x1="1391" y1="50.0" x2="1411" y2="50.0" style="stroke:#999; stroke-width:3;" />
  <line x1="1411" y1="50.0" x2="1411" y2="50.0" style="stroke:#999; stroke-width:3;" />
  <line x1="1411" y1="50.0" x2="1411" y2="50.0" style="stroke:#999; stroke-width:3;" />
  <line x1="1411" y1="50.0" x2="1431" y2="50.0" style="stroke:#999; stroke-width:3;" />
  <rect class="anc_exon" x="1431" y="35.0" width="96" height="30" style="fill:#87bcbc;fill-opacity:1.00" />
  <line x1="1527" y1="50.0" x2="1567" y2="50.0" style="stroke:#999; stroke-width:3;" />
  <rect class="anc_exon" x="1567" y="35.0" width="47" height="30" style="fill:#87bcbc;fill-opacity:1.00" />
  <line x1="1614" y1="50.0" x2="1654" y2="50.0" style="stroke:#999; stroke-width:3;" />
  <rect class="anc_exon" x="1654" y="35.0" width="123" height="30" style="fill:#87bcbc;fill-opacity:1.00" />
  <line x1="1777" y1="50.0" x2="1797" y2="50.0" style="stroke:#999; stroke-width:3;" />
  <line x1="1797" y1="50.0" x2="1797" y2="50.0" style="stroke:#999; stroke-width:3;" />
  <line x1="1797" y1="50.0" x2="1797" y2="50.0" style="stroke:#999; stroke-width:3;" />
  <line x1="1797" y1="50.0" x2="1817" y2="50.0" style="stroke:#999; stroke-width:3;" />
  <rect class="anc_exon" x="1817" y="35.0" width="97" height="30" style="fill:#87bcbc;fill-opacity:1.00" />
  <line x1="1914" y1="50.0" x2="1934" y2="50.0" style="stroke:#999; stroke-width:3;" />
  <line x1="1934" y1="50.0" x2="1934" y2="50.0" style="stroke:#999; stroke-width:3;" />
  <line x1="1934" y1="50.0" x2="1934" y2="50.0" style="stroke:#999; stroke-width:3;" />
  <line x1="1934" y1="50.0" x2="1954" y2="50.0" style="stroke:#999; stroke-width:3;" />
  <rect class="anc_exon" x="1954" y="35.0" width="70" height="30" style="fill:#87bcbc;fill-opacity:1.00" />
  <line x1="2024" y1="50.0" x2="2044" y2="50.0" style="stroke:#999; stroke-width:3;" />
  <line x1="2044" y1="50.0" x2="2044" y2="50.0" style="stroke:#999; stroke-width:3;" />
  <line x1="2044" y1="50.0" x2="2044" y2="50.0" style="stroke:#999; stroke-width:3;" />
  <line x1="2044" y1="50.0" x2="2064" y2="50.0" style="stroke:#999; stroke-width:3;" />
  <rect class="anc_exon" x="2064" y="35.0" width="59" height="30" style="fill:#87bcbc;fill-opacity:1.00" />
  <line x1="2123" y1="50.0" x2="2143" y2="50.0" style="stroke:#999; stroke-width:3;" />
  <line x1="2143" y1="50.0" x2="2143" y2="50.0" style="stroke:#999; stroke-width:3;" />
  <line x1="2143" y1="50.0" x2="2143" y2="50.0" style="stroke:#999; stroke-width:3;" />
  <line x1="2143" y1="50.0" x2="2163" y2="50.0" style="stroke:#999; stroke-width:3;" />
  <rect class="anc_exon" x="2163" y="35.0" width="52" height="30" style="fill:#87bcbc;fill-opacity:1.00" />
  <line x1="2215" y1="50.0" x2="2235" y2="50.0" style="stroke:#999; stroke-width:3;" />
  <line x1="2235" y1="50.0" x2="2235" y2="50.0" style="stroke:#999; stroke-width:3;" />
  <line x1="2235" y1="50.0" x2="2235" y2="50.0" style="stroke:#999; stroke-width:3;" />
  <line x1="2235" y1="50.0" x2="2255" y2="50.0" style="stroke:#999; stroke-width:3;" />
  <rect class="anc_exon" x="2255" y="35.0" width="83" height="30" style="fill:#87bcbc;fill-opacity:1.00" />
  <line x1="2338" y1="50.0" x2="2358" y2="50.0" style="stroke:#999; stroke-width:3;" />
  <line x1="2358" y1="50.0" x2="2358" y2="50.0" style="stroke:#999; stroke-width:3;" />
  <line x1="2358" y1="50.0" x2="2358" y2="50.0" style="stroke:#999; stroke-width:3;" />
  <line x1="2358" y1="50.0" x2="2378" y2="50.0" style="stroke:#999; stroke-width:3;" />
  <rect class="anc_exon" x="2378" y="35.0" width="77" height="30" style="fill:#87bcbc;fill-opacity:1.00" />
  <line x1="2455" y1="50.0" x2="2475" y2="50.0" style="stroke:#999; stroke-width:3;" />
  <line x1="2475" y1="50.0" x2="2475" y2="50.0" style="stroke:#999; stroke-width:3;" />
  <line x1="2475" y1="50.0" x2="2475" y2="50.0" style="stroke:#999; stroke-width:3;" />
  <line x1="2475" y1="50.0" x2="2495" y2="50.0" style="stroke:#999; stroke-width:3;" />
  <rect class="anc_exon" x="2495" y="35.0" width="107" height="30" style="fill:#87bcbc;fill-opacity:1.00" />
  <rect class="anc_exon" x="2602" y="35.0" width="0" height="30" style="fill:#87bcbc;fill-opacity:1.00" />
  <text style="" >
<tspan x="0" y="83.0" style="font-size:18px;" >SP XM_031952751_1.1</tspan>  </text>



<script type="text/ecmascript">
<![CDATA[
function draw_bbox(text_id)
{
    var text_elem = document.getElementById(text_id);
    var offset_px = 2;
    var offset_py = 0;
    bbox = text_elem.getBBox();
    var box = document.createElementNS(document.rootElement.namespaceURI,'rect');
    box.setAttribute('x', bbox.x - offset_px);
    box.setAttribute('y', bbox.y - offset_py);
    box.setAttribute('width', bbox.width + offset_px * 2);
    box.setAttribute('height', bbox.height + offset_py * 2);
    box.setAttribute('style','fill: white;'+'stroke: black;'+'stroke-width: 1px;');
    text_elem.insertBefore(box,text_elem.childNodes[0]);

    var svg = text_elem.parentNode;
    svg.appendChild(text_elem);
}

for (var i=1; i < 1; i++)
{
draw_bbox("Mouseover" + i);
}
]]> 
</script>
</svg>
