<svg version="1.1"
xmlns="http://www.w3.org/2000/svg"
xmlns:xlink="http://www.w3.org/1999/xlink"
width="2523" height="100" viewBox = "0 0 2523 100"
onclick="mouseclick(evt)">

<script type="text/ecmascript">

<![CDATA[
    function mouseover(evt, target) { 
    var gv = document.getElementById("globalVariable");
    var previoustarget = gv.firstChild.nodeValue;
    if (previoustarget != "none") 
    {
        	document.getElementById(gv.firstChild.nodeValue).setAttributeNS(null, "visibility", "hidden");
    }
    document.getElementById(target).setAttributeNS(null, "visibility", "visible");
    gv.firstChild.nodeValue = target;
        }

    function mouseclick(evt) { 
    var gv = document.getElementById("globalVariable");
    var previoustarget = gv.firstChild.nodeValue;
    if (previoustarget != "none") {
        	document.getElementById(gv.firstChild.nodeValue).setAttributeNS(null, "visibility", "hidden");
        }
    }
]]>
  </script>
<style type="text/css" >

<![CDATA[
    rect.anc_exon {
              stroke-width:3;
                  }

    rect.non_anc_exon {
              stroke: black; stroke-width:3; stroke-dasharray: 5,5;
                    }

    text {
              font-size: 18px;
              font-family: Courier New;
          }
                    ]]>
</style>

<defs>
    <text x="150" y="40" id="globalVariable">none</text>
</defs>

  <rect class="anc_exon" x="0" y="35.0" width="0" height="30" style="fill:#87bcbc;fill-opacity:1.00" />
  <rect class="anc_exon" x="0" y="35.0" width="67.2" height="30" style="fill:#87bcbc;fill-opacity:1.00" />
  <line x1="67.2" y1="50.0" x2="107.0" y2="50.0" style="stroke:#999; stroke-width:3;" />
  <rect class="anc_exon" x="107" y="35.0" width="32" height="30" style="fill:#87bcbc;fill-opacity:1.00" />
  <line x1="139" y1="50.0" x2="159" y2="50.0" style="stroke:#999; stroke-width:3;" />
  <line x1="159" y1="50.0" x2="159" y2="50.0" style="stroke:#999; stroke-width:3;" />
  <line x1="159" y1="50.0" x2="159" y2="50.0" style="stroke:#999; stroke-width:3;" />
  <line x1="159" y1="50.0" x2="179" y2="50.0" style="stroke:#999; stroke-width:3;" />
  <rect class="anc_exon" x="179" y="35.0" width="58" height="30" style="fill:#87bcbc;fill-opacity:1.00" />
  <line x1="237" y1="50.0" x2="277" y2="50.0" style="stroke:#999; stroke-width:3;" />
  <rect class="anc_exon" x="277" y="35.0" width="40" height="30" style="fill:#87bcbc;fill-opacity:1.00" />
  <line x1="317" y1="50.0" x2="337" y2="50.0" style="stroke:#999; stroke-width:3;" />
  <line x1="337" y1="50.0" x2="337" y2="50.0" style="stroke:#999; stroke-width:3;" />
  <line x1="337" y1="50.0" x2="337" y2="50.0" style="stroke:#999; stroke-width:3;" />
  <line x1="337" y1="50.0" x2="357" y2="50.0" style="stroke:#999; stroke-width:3;" />
  <rect class="anc_exon" x="357" y="35.0" width="145" height="30" style="fill:#87bcbc;fill-opacity:1.00" />
  <line x1="502" y1="50.0" x2="522" y2="50.0" style="stroke:#999; stroke-width:3;" />
  <line x1="522" y1="50.0" x2="522" y2="50.0" style="stroke:#999; stroke-width:3;" />
  <line x1="522" y1="50.0" x2="522" y2="50.0" style="stroke:#999; stroke-width:3;" />
  <line x1="522" y1="50.0" x2="542" y2="50.0" style="stroke:#999; stroke-width:3;" />
  <rect class="anc_exon" x="542" y="35.0" width="80" height="30" style="fill:#87bcbc;fill-opacity:1.00" />
  <line x1="622" y1="50.0" x2="662" y2="50.0" style="stroke:#999; stroke-width:3;" />
  <rect class="anc_exon" x="662" y="35.0" width="121" height="30" style="fill:#87bcbc;fill-opacity:1.00" />
  <line x1="783" y1="50.0" x2="803" y2="50.0" style="stroke:#999; stroke-width:3;" />
  <line x1="803" y1="50.0" x2="803" y2="50.0" style="stroke:#999; stroke-width:3;" />
  <line x1="803" y1="50.0" x2="803" y2="50.0" style="stroke:#999; stroke-width:3;" />
  <line x1="803" y1="50.0" x2="823" y2="50.0" style="stroke:#999; stroke-width:3;" />
  <rect class="anc_exon" x="823" y="35.0" width="63" height="30" style="fill:#87bcbc;fill-opacity:1.00" />
  <line x1="886" y1="50.0" x2="906" y2="50.0" style="stroke:#999; stroke-width:3;" />
  <line x1="906" y1="50.0" x2="906" y2="50.0" style="stroke:#999; stroke-width:3;" />
  <line x1="906" y1="50.0" x2="906" y2="50.0" style="stroke:#999; stroke-width:3;" />
  <line x1="906" y1="50.0" x2="926" y2="50.0" style="stroke:#999; stroke-width:3;" />
  <rect class="anc_exon" x="926" y="35.0" width="40" height="30" style="fill:#87bcbc;fill-opacity:1.00" />
  <line x1="966" y1="50.0" x2="986" y2="50.0" style="stroke:#999; stroke-width:3;" />
  <line x1="986" y1="50.0" x2="986" y2="50.0" style="stroke:#999; stroke-width:3;" />
  <line x1="986" y1="50.0" x2="986" y2="50.0" style="stroke:#999; stroke-width:3;" />
  <line x1="986" y1="50.0" x2="1006" y2="50.0" style="stroke:#999; stroke-width:3;" />
  <rect class="anc_exon" x="1006" y="35.0" width="98" height="30" style="fill:#87bcbc;fill-opacity:1.00" />
  <line x1="1104" y1="50.0" x2="1144" y2="50.0" style="stroke:#999; stroke-width:3;" />
  <rect class="anc_exon" x="1144" y="35.0" width="108" height="30" style="fill:#87bcbc;fill-opacity:1.00" />
  <line x1="1252" y1="50.0" x2="1292" y2="50.0" style="stroke:#999; stroke-width:3;" />
  <rect class="anc_exon" x="1292" y="35.0" width="84" height="30" style="fill:#87bcbc;fill-opacity:1.00" />
  <line x1="1376" y1="50.0" x2="1416" y2="50.0" style="stroke:#999; stroke-width:3;" />
  <rect class="anc_exon" x="1416" y="35.0" width="87" height="30" style="fill:#87bcbc;fill-opacity:1.00" />
  <line x1="1503" y1="50.0" x2="1543" y2="50.0" style="stroke:#999; stroke-width:3;" />
  <rect class="anc_exon" x="1543" y="35.0" width="109" height="30" style="fill:#87bcbc;fill-opacity:1.00" />
  <line x1="1652" y1="50.0" x2="1692" y2="50.0" style="stroke:#999; stroke-width:3;" />
  <rect class="anc_exon" x="1692" y="35.0" width="131" height="30" style="fill:#87bcbc;fill-opacity:1.00" />
  <line x1="1823" y1="50.0" x2="1863" y2="50.0" style="stroke:#999; stroke-width:3;" />
  <rect class="anc_exon" x="1863" y="35.0" width="90" height="30" style="fill:#87bcbc;fill-opacity:1.00" />
  <line x1="1953" y1="50.0" x2="1993" y2="50.0" style="stroke:#999; stroke-width:3;" />
  <rect class="anc_exon" x="1993" y="35.0" width="86" height="30" style="fill:#87bcbc;fill-opacity:1.00" />
  <line x1="2079" y1="50.0" x2="2119" y2="50.0" style="stroke:#999; stroke-width:3;" />
  <rect class="anc_exon" x="2119" y="35.0" width="66" height="30" style="fill:#87bcbc;fill-opacity:1.00" />
  <line x1="2185" y1="50.0" x2="2225" y2="50.0" style="stroke:#999; stroke-width:3;" />
  <rect class="anc_exon" x="2225" y="35.0" width="62" height="30" style="fill:#87bcbc;fill-opacity:1.00" />
  <line x1="2287" y1="50.0" x2="2307" y2="50.0" style="stroke:#999; stroke-width:3;" />
  <line x1="2307" y1="50.0" x2="2307" y2="50.0" style="stroke:#999; stroke-width:3;" />
  <line x1="2307" y1="50.0" x2="2307" y2="50.0" style="stroke:#999; stroke-width:3;" />
  <line x1="2307" y1="50.0" x2="2327" y2="50.0" style="stroke:#999; stroke-width:3;" />
  <rect class="anc_exon" x="2327" y="35.0" width="160" height="30" style="fill:#87bcbc;fill-opacity:1.00" />
  <rect class="anc_exon" x="2487" y="35.0" width="0" height="30" style="fill:#87bcbc;fill-opacity:1.00" />
  <text style="" >
<tspan x="0" y="83.0" style="font-size:18px;" >SP XM_031954599_1.1</tspan>  </text>



<script type="text/ecmascript">
<![CDATA[
function draw_bbox(text_id)
{
    var text_elem = document.getElementById(text_id);
    var offset_px = 2;
    var offset_py = 0;
    bbox = text_elem.getBBox();
    var box = document.createElementNS(document.rootElement.namespaceURI,'rect');
    box.setAttribute('x', bbox.x - offset_px);
    box.setAttribute('y', bbox.y - offset_py);
    box.setAttribute('width', bbox.width + offset_px * 2);
    box.setAttribute('height', bbox.height + offset_py * 2);
    box.setAttribute('style','fill: white;'+'stroke: black;'+'stroke-width: 1px;');
    text_elem.insertBefore(box,text_elem.childNodes[0]);

    var svg = text_elem.parentNode;
    svg.appendChild(text_elem);
}

for (var i=1; i < 1; i++)
{
draw_bbox("Mouseover" + i);
}
]]> 
</script>
</svg>
