<svg version="1.1"
xmlns="http://www.w3.org/2000/svg"
xmlns:xlink="http://www.w3.org/1999/xlink"
width="2352" height="100" viewBox = "0 0 2352 100"
onclick="mouseclick(evt)">

<script type="text/ecmascript">

<![CDATA[
    function mouseover(evt, target) { 
    var gv = document.getElementById("globalVariable");
    var previoustarget = gv.firstChild.nodeValue;
    if (previoustarget != "none") 
    {
        	document.getElementById(gv.firstChild.nodeValue).setAttributeNS(null, "visibility", "hidden");
    }
    document.getElementById(target).setAttributeNS(null, "visibility", "visible");
    gv.firstChild.nodeValue = target;
        }

    function mouseclick(evt) { 
    var gv = document.getElementById("globalVariable");
    var previoustarget = gv.firstChild.nodeValue;
    if (previoustarget != "none") {
        	document.getElementById(gv.firstChild.nodeValue).setAttributeNS(null, "visibility", "hidden");
        }
    }
]]>
  </script>
<style type="text/css" >

<![CDATA[
    rect.anc_exon {
              stroke-width:3;
                  }

    rect.non_anc_exon {
              stroke: black; stroke-width:3; stroke-dasharray: 5,5;
                    }

    text {
              font-size: 18px;
              font-family: Courier New;
          }
                    ]]>
</style>

<defs>
    <text x="150" y="40" id="globalVariable">none</text>
</defs>

  <rect class="anc_exon" x="0" y="35.0" width="0" height="30" style="fill:#87bcbc;fill-opacity:1.00" />
  <rect class="anc_exon" x="0" y="35.0" width="201.60000000000002" height="30" style="fill:#87bcbc;fill-opacity:1.00" />
  <line x1="201.60000000000002" y1="50.0" x2="220.60000000000002" y2="50.0" style="stroke:#999; stroke-width:3;" />
  <line x1="220.60000000000002" y1="50.0" x2="220.60000000000002" y2="50.0" style="stroke:#999; stroke-width:3;" />
  <line x1="220.60000000000002" y1="50.0" x2="220.60000000000002" y2="50.0" style="stroke:#999; stroke-width:3;" />
  <line x1="220.60000000000002" y1="50.0" x2="241.0" y2="50.0" style="stroke:#999; stroke-width:3;" />
  <rect class="anc_exon" x="241" y="35.0" width="236" height="30" style="fill:#87bcbc;fill-opacity:1.00" />
  <line x1="477" y1="50.0" x2="497" y2="50.0" style="stroke:#999; stroke-width:3;" />
  <line x1="497" y1="50.0" x2="497" y2="50.0" style="stroke:#999; stroke-width:3;" />
  <line x1="497" y1="50.0" x2="497" y2="50.0" style="stroke:#999; stroke-width:3;" />
  <line x1="497" y1="50.0" x2="517" y2="50.0" style="stroke:#999; stroke-width:3;" />
  <rect class="anc_exon" x="517" y="35.0" width="96" height="30" style="fill:#87bcbc;fill-opacity:1.00" />
  <line x1="613" y1="50.0" x2="633" y2="50.0" style="stroke:#999; stroke-width:3;" />
  <line x1="633" y1="50.0" x2="633" y2="50.0" style="stroke:#999; stroke-width:3;" />
  <line x1="633" y1="50.0" x2="633" y2="50.0" style="stroke:#999; stroke-width:3;" />
  <line x1="633" y1="50.0" x2="653" y2="50.0" style="stroke:#999; stroke-width:3;" />
  <rect class="anc_exon" x="653" y="35.0" width="134" height="30" style="fill:#87bcbc;fill-opacity:1.00" />
  <line x1="787" y1="50.0" x2="807" y2="50.0" style="stroke:#999; stroke-width:3;" />
  <line x1="807" y1="50.0" x2="807" y2="50.0" style="stroke:#999; stroke-width:3;" />
  <line x1="807" y1="50.0" x2="807" y2="50.0" style="stroke:#999; stroke-width:3;" />
  <line x1="807" y1="50.0" x2="827" y2="50.0" style="stroke:#999; stroke-width:3;" />
  <rect class="anc_exon" x="827" y="35.0" width="150" height="30" style="fill:#87bcbc;fill-opacity:1.00" />
  <line x1="977" y1="50.0" x2="997" y2="50.0" style="stroke:#999; stroke-width:3;" />
  <line x1="997" y1="50.0" x2="997" y2="50.0" style="stroke:#999; stroke-width:3;" />
  <line x1="997" y1="50.0" x2="997" y2="50.0" style="stroke:#999; stroke-width:3;" />
  <line x1="997" y1="50.0" x2="1017" y2="50.0" style="stroke:#999; stroke-width:3;" />
  <rect class="anc_exon" x="1017" y="35.0" width="203" height="30" style="fill:#87bcbc;fill-opacity:1.00" />
  <line x1="1220" y1="50.0" x2="1240" y2="50.0" style="stroke:#999; stroke-width:3;" />
  <line x1="1240" y1="50.0" x2="1240" y2="50.0" style="stroke:#999; stroke-width:3;" />
  <line x1="1240" y1="50.0" x2="1240" y2="50.0" style="stroke:#999; stroke-width:3;" />
  <line x1="1240" y1="50.0" x2="1260" y2="50.0" style="stroke:#999; stroke-width:3;" />
  <rect class="anc_exon" x="1260" y="35.0" width="109" height="30" style="fill:#87bcbc;fill-opacity:1.00" />
  <line x1="1369" y1="50.0" x2="1389" y2="50.0" style="stroke:#999; stroke-width:3;" />
  <line x1="1389" y1="50.0" x2="1389" y2="50.0" style="stroke:#999; stroke-width:3;" />
  <line x1="1389" y1="50.0" x2="1389" y2="50.0" style="stroke:#999; stroke-width:3;" />
  <line x1="1389" y1="50.0" x2="1409" y2="50.0" style="stroke:#999; stroke-width:3;" />
  <rect class="anc_exon" x="1409" y="35.0" width="97" height="30" style="fill:#87bcbc;fill-opacity:1.00" />
  <line x1="1506" y1="50.0" x2="1526" y2="50.0" style="stroke:#999; stroke-width:3;" />
  <line x1="1526" y1="50.0" x2="1526" y2="50.0" style="stroke:#999; stroke-width:3;" />
  <line x1="1526" y1="50.0" x2="1526" y2="50.0" style="stroke:#999; stroke-width:3;" />
  <line x1="1526" y1="50.0" x2="1546" y2="50.0" style="stroke:#999; stroke-width:3;" />
  <rect class="anc_exon" x="1546" y="35.0" width="94" height="30" style="fill:#87bcbc;fill-opacity:1.00" />
  <line x1="1640" y1="50.0" x2="1660" y2="50.0" style="stroke:#999; stroke-width:3;" />
  <line x1="1660" y1="50.0" x2="1660" y2="50.0" style="stroke:#999; stroke-width:3;" />
  <line x1="1660" y1="50.0" x2="1660" y2="50.0" style="stroke:#999; stroke-width:3;" />
  <line x1="1660" y1="50.0" x2="1680" y2="50.0" style="stroke:#999; stroke-width:3;" />
  <rect class="anc_exon" x="1680" y="35.0" width="201" height="30" style="fill:#87bcbc;fill-opacity:1.00" />
  <line x1="1881" y1="50.0" x2="1921" y2="50.0" style="stroke:#999; stroke-width:3;" />
  <rect class="anc_exon" x="1921" y="35.0" width="395" height="30" style="fill:#87bcbc;fill-opacity:1.00" />
  <rect class="anc_exon" x="2316" y="35.0" width="0" height="30" style="fill:#87bcbc;fill-opacity:1.00" />
  <text style="" >
<tspan x="0" y="83.0" style="font-size:18px;" >SP XM_031950338_1.1</tspan>  </text>



<script type="text/ecmascript">
<![CDATA[
function draw_bbox(text_id)
{
    var text_elem = document.getElementById(text_id);
    var offset_px = 2;
    var offset_py = 0;
    bbox = text_elem.getBBox();
    var box = document.createElementNS(document.rootElement.namespaceURI,'rect');
    box.setAttribute('x', bbox.x - offset_px);
    box.setAttribute('y', bbox.y - offset_py);
    box.setAttribute('width', bbox.width + offset_px * 2);
    box.setAttribute('height', bbox.height + offset_py * 2);
    box.setAttribute('style','fill: white;'+'stroke: black;'+'stroke-width: 1px;');
    text_elem.insertBefore(box,text_elem.childNodes[0]);

    var svg = text_elem.parentNode;
    svg.appendChild(text_elem);
}

for (var i=1; i < 1; i++)
{
draw_bbox("Mouseover" + i);
}
]]> 
</script>
</svg>
