<svg version="1.1"
xmlns="http://www.w3.org/2000/svg"
xmlns:xlink="http://www.w3.org/1999/xlink"
width="4196" height="100" viewBox = "0 0 4196 100"
onclick="mouseclick(evt)">

<script type="text/ecmascript">

<![CDATA[
    function mouseover(evt, target) { 
    var gv = document.getElementById("globalVariable");
    var previoustarget = gv.firstChild.nodeValue;
    if (previoustarget != "none") 
    {
        	document.getElementById(gv.firstChild.nodeValue).setAttributeNS(null, "visibility", "hidden");
    }
    document.getElementById(target).setAttributeNS(null, "visibility", "visible");
    gv.firstChild.nodeValue = target;
        }

    function mouseclick(evt) { 
    var gv = document.getElementById("globalVariable");
    var previoustarget = gv.firstChild.nodeValue;
    if (previoustarget != "none") {
        	document.getElementById(gv.firstChild.nodeValue).setAttributeNS(null, "visibility", "hidden");
        }
    }
]]>
  </script>
<style type="text/css" >

<![CDATA[
    rect.anc_exon {
              stroke-width:3;
                  }

    rect.non_anc_exon {
              stroke: black; stroke-width:3; stroke-dasharray: 5,5;
                    }

    text {
              font-size: 18px;
              font-family: Courier New;
          }
                    ]]>
</style>

<defs>
    <text x="150" y="40" id="globalVariable">none</text>
</defs>

  <rect class="anc_exon" x="0" y="35.0" width="0" height="30" style="fill:#87bcbc;fill-opacity:1.00" />
  <rect class="anc_exon" x="0" y="35.0" width="148.8" height="30" style="fill:#87bcbc;fill-opacity:1.00" />
  <line x1="148.8" y1="50.0" x2="167.8" y2="50.0" style="stroke:#999; stroke-width:3;" />
  <line x1="167.8" y1="50.0" x2="167.8" y2="50.0" style="stroke:#999; stroke-width:3;" />
  <line x1="167.8" y1="50.0" x2="167.8" y2="50.0" style="stroke:#999; stroke-width:3;" />
  <line x1="167.8" y1="50.0" x2="188.0" y2="50.0" style="stroke:#999; stroke-width:3;" />
  <rect class="anc_exon" x="188" y="35.0" width="115" height="30" style="fill:#87bcbc;fill-opacity:1.00" />
  <line x1="303" y1="50.0" x2="323" y2="50.0" style="stroke:#999; stroke-width:3;" />
  <line x1="323" y1="50.0" x2="323" y2="50.0" style="stroke:#999; stroke-width:3;" />
  <line x1="323" y1="50.0" x2="323" y2="50.0" style="stroke:#999; stroke-width:3;" />
  <line x1="323" y1="50.0" x2="343" y2="50.0" style="stroke:#999; stroke-width:3;" />
  <rect class="anc_exon" x="343" y="35.0" width="88" height="30" style="fill:#87bcbc;fill-opacity:1.00" />
  <line x1="431" y1="50.0" x2="471" y2="50.0" style="stroke:#999; stroke-width:3;" />
  <rect class="anc_exon" x="471" y="35.0" width="82" height="30" style="fill:#87bcbc;fill-opacity:1.00" />
  <line x1="553" y1="50.0" x2="593" y2="50.0" style="stroke:#999; stroke-width:3;" />
  <rect class="anc_exon" x="593" y="35.0" width="100" height="30" style="fill:#87bcbc;fill-opacity:1.00" />
  <line x1="693" y1="50.0" x2="733" y2="50.0" style="stroke:#999; stroke-width:3;" />
  <rect class="anc_exon" x="733" y="35.0" width="58" height="30" style="fill:#87bcbc;fill-opacity:1.00" />
  <line x1="791" y1="50.0" x2="831" y2="50.0" style="stroke:#999; stroke-width:3;" />
  <rect class="anc_exon" x="831" y="35.0" width="71" height="30" style="fill:#87bcbc;fill-opacity:1.00" />
  <line x1="902" y1="50.0" x2="922" y2="50.0" style="stroke:#999; stroke-width:3;" />
  <line x1="922" y1="50.0" x2="922" y2="50.0" style="stroke:#999; stroke-width:3;" />
  <line x1="922" y1="50.0" x2="922" y2="50.0" style="stroke:#999; stroke-width:3;" />
  <line x1="922" y1="50.0" x2="942" y2="50.0" style="stroke:#999; stroke-width:3;" />
  <rect class="anc_exon" x="942" y="35.0" width="128" height="30" style="fill:#87bcbc;fill-opacity:1.00" />
  <line x1="1070" y1="50.0" x2="1110" y2="50.0" style="stroke:#999; stroke-width:3;" />
  <rect class="anc_exon" x="1110" y="35.0" width="469" height="30" style="fill:#87bcbc;fill-opacity:1.00" />
  <line x1="1579" y1="50.0" x2="1599" y2="50.0" style="stroke:#999; stroke-width:3;" />
  <line x1="1599" y1="50.0" x2="1599" y2="50.0" style="stroke:#999; stroke-width:3;" />
  <line x1="1599" y1="50.0" x2="1599" y2="50.0" style="stroke:#999; stroke-width:3;" />
  <line x1="1599" y1="50.0" x2="1619" y2="50.0" style="stroke:#999; stroke-width:3;" />
  <rect class="anc_exon" x="1619" y="35.0" width="154" height="30" style="fill:#87bcbc;fill-opacity:1.00" />
  <line x1="1773" y1="50.0" x2="1793" y2="50.0" style="stroke:#999; stroke-width:3;" />
  <line x1="1793" y1="50.0" x2="1793" y2="50.0" style="stroke:#999; stroke-width:3;" />
  <line x1="1793" y1="50.0" x2="1793" y2="50.0" style="stroke:#999; stroke-width:3;" />
  <line x1="1793" y1="50.0" x2="1813" y2="50.0" style="stroke:#999; stroke-width:3;" />
  <rect class="anc_exon" x="1813" y="35.0" width="172" height="30" style="fill:#87bcbc;fill-opacity:1.00" />
  <line x1="1985" y1="50.0" x2="2025" y2="50.0" style="stroke:#999; stroke-width:3;" />
  <rect class="anc_exon" x="2025" y="35.0" width="122" height="30" style="fill:#87bcbc;fill-opacity:1.00" />
  <line x1="2147" y1="50.0" x2="2187" y2="50.0" style="stroke:#999; stroke-width:3;" />
  <rect class="anc_exon" x="2187" y="35.0" width="76" height="30" style="fill:#87bcbc;fill-opacity:1.00" />
  <line x1="2263" y1="50.0" x2="2303" y2="50.0" style="stroke:#999; stroke-width:3;" />
  <rect class="anc_exon" x="2303" y="35.0" width="102" height="30" style="fill:#87bcbc;fill-opacity:1.00" />
  <line x1="2405" y1="50.0" x2="2425" y2="50.0" style="stroke:#999; stroke-width:3;" />
  <line x1="2425" y1="50.0" x2="2425" y2="50.0" style="stroke:#999; stroke-width:3;" />
  <line x1="2425" y1="50.0" x2="2425" y2="50.0" style="stroke:#999; stroke-width:3;" />
  <line x1="2425" y1="50.0" x2="2445" y2="50.0" style="stroke:#999; stroke-width:3;" />
  <rect class="anc_exon" x="2445" y="35.0" width="156" height="30" style="fill:#87bcbc;fill-opacity:1.00" />
  <line x1="2601" y1="50.0" x2="2641" y2="50.0" style="stroke:#999; stroke-width:3;" />
  <rect class="anc_exon" x="2641" y="35.0" width="138" height="30" style="fill:#87bcbc;fill-opacity:1.00" />
  <line x1="2779" y1="50.0" x2="2819" y2="50.0" style="stroke:#999; stroke-width:3;" />
  <rect class="anc_exon" x="2819" y="35.0" width="189" height="30" style="fill:#87bcbc;fill-opacity:1.00" />
  <line x1="3008" y1="50.0" x2="3048" y2="50.0" style="stroke:#999; stroke-width:3;" />
  <rect class="anc_exon" x="3048" y="35.0" width="137" height="30" style="fill:#87bcbc;fill-opacity:1.00" />
  <line x1="3185" y1="50.0" x2="3225" y2="50.0" style="stroke:#999; stroke-width:3;" />
  <rect class="anc_exon" x="3225" y="35.0" width="70" height="30" style="fill:#87bcbc;fill-opacity:1.00" />
  <line x1="3295" y1="50.0" x2="3335" y2="50.0" style="stroke:#999; stroke-width:3;" />
  <rect class="anc_exon" x="3335" y="35.0" width="104" height="30" style="fill:#87bcbc;fill-opacity:1.00" />
  <line x1="3439" y1="50.0" x2="3479" y2="50.0" style="stroke:#999; stroke-width:3;" />
  <rect class="anc_exon" x="3479" y="35.0" width="96" height="30" style="fill:#87bcbc;fill-opacity:1.00" />
  <line x1="3575" y1="50.0" x2="3615" y2="50.0" style="stroke:#999; stroke-width:3;" />
  <rect class="anc_exon" x="3615" y="35.0" width="112" height="30" style="fill:#87bcbc;fill-opacity:1.00" />
  <line x1="3727" y1="50.0" x2="3767" y2="50.0" style="stroke:#999; stroke-width:3;" />
  <rect class="anc_exon" x="3767" y="35.0" width="141" height="30" style="fill:#87bcbc;fill-opacity:1.00" />
  <line x1="3908" y1="50.0" x2="3948" y2="50.0" style="stroke:#999; stroke-width:3;" />
  <rect class="anc_exon" x="3948" y="35.0" width="108" height="30" style="fill:#87bcbc;fill-opacity:1.00" />
  <line x1="4056" y1="50.0" x2="4096" y2="50.0" style="stroke:#999; stroke-width:3;" />
  <rect class="anc_exon" x="4096" y="35.0" width="64" height="30" style="fill:#87bcbc;fill-opacity:1.00" />
  <rect class="anc_exon" x="4160" y="35.0" width="0" height="30" style="fill:#87bcbc;fill-opacity:1.00" />
  <text style="" >
<tspan x="0" y="83.0" style="font-size:18px;" >SP XM_031949800_1.1</tspan>  </text>



<script type="text/ecmascript">
<![CDATA[
function draw_bbox(text_id)
{
    var text_elem = document.getElementById(text_id);
    var offset_px = 2;
    var offset_py = 0;
    bbox = text_elem.getBBox();
    var box = document.createElementNS(document.rootElement.namespaceURI,'rect');
    box.setAttribute('x', bbox.x - offset_px);
    box.setAttribute('y', bbox.y - offset_py);
    box.setAttribute('width', bbox.width + offset_px * 2);
    box.setAttribute('height', bbox.height + offset_py * 2);
    box.setAttribute('style','fill: white;'+'stroke: black;'+'stroke-width: 1px;');
    text_elem.insertBefore(box,text_elem.childNodes[0]);

    var svg = text_elem.parentNode;
    svg.appendChild(text_elem);
}

for (var i=1; i < 1; i++)
{
draw_bbox("Mouseover" + i);
}
]]> 
</script>
</svg>
