<svg version="1.1"
xmlns="http://www.w3.org/2000/svg"
xmlns:xlink="http://www.w3.org/1999/xlink"
width="3574" height="110.0" viewBox = "0 -10.0 3574 110.0"
onclick="mouseclick(evt)">

<script type="text/ecmascript">

<![CDATA[
    function mouseover(evt, target) { 
    var gv = document.getElementById("globalVariable");
    var previoustarget = gv.firstChild.nodeValue;
    if (previoustarget != "none") 
    {
        	document.getElementById(gv.firstChild.nodeValue).setAttributeNS(null, "visibility", "hidden");
    }
    document.getElementById(target).setAttributeNS(null, "visibility", "visible");
    gv.firstChild.nodeValue = target;
        }

    function mouseclick(evt) { 
    var gv = document.getElementById("globalVariable");
    var previoustarget = gv.firstChild.nodeValue;
    if (previoustarget != "none") {
        	document.getElementById(gv.firstChild.nodeValue).setAttributeNS(null, "visibility", "hidden");
        }
    }
]]>
  </script>
<style type="text/css" >

<![CDATA[
    rect.anc_exon {
              stroke-width:3;
                  }

    rect.non_anc_exon {
              stroke: black; stroke-width:3; stroke-dasharray: 5,5;
                    }

    text {
              font-size: 18px;
              font-family: Courier New;
          }
                    ]]>
</style>

<defs>
    <text x="150" y="40" id="globalVariable">none</text>
</defs>

  <rect class="anc_exon" x="0" y="35.0" width="0" height="30" style="fill:#87bcbc;fill-opacity:1.00" />
  <rect class="anc_exon" x="0" y="35.0" width="96.0" height="30" style="fill:#87bcbc;fill-opacity:1.00" />
  <line x1="39.6" y1="35.0" x2="39.6" y2="65.0" style="stroke:#121212; stroke-width:0.8; stroke-opacity:1"/>
  <text style="" text-anchor="middle">
<tspan x="39.2" y="26.0" style="font-size:18px;fill:#121212;" >-1</tspan>  </text>
  <line x1="96.0" y1="50.0" x2="136.0" y2="50.0" style="stroke:#999; stroke-width:3;" />
  <rect class="anc_exon" x="136" y="35.0" width="98" height="30" style="fill:#87bcbc;fill-opacity:1.00" />
  <line x1="234" y1="50.0" x2="274" y2="50.0" style="stroke:#999; stroke-width:3;" />
  <rect class="anc_exon" x="274" y="35.0" width="64" height="30" style="fill:#87bcbc;fill-opacity:1.00" />
  <line x1="338" y1="50.0" x2="358" y2="50.0" style="stroke:#999; stroke-width:3;" />
  <line x1="358" y1="50.0" x2="358" y2="50.0" style="stroke:#999; stroke-width:3;" />
  <line x1="358" y1="50.0" x2="358" y2="50.0" style="stroke:#999; stroke-width:3;" />
  <line x1="358" y1="50.0" x2="378" y2="50.0" style="stroke:#999; stroke-width:3;" />
  <rect class="anc_exon" x="378" y="35.0" width="93" height="30" style="fill:#87bcbc;fill-opacity:1.00" />
  <line x1="471" y1="50.0" x2="511" y2="50.0" style="stroke:#999; stroke-width:3;" />
  <rect class="anc_exon" x="511" y="35.0" width="35" height="30" style="fill:#87bcbc;fill-opacity:1.00" />
  <line x1="546" y1="50.0" x2="586" y2="50.0" style="stroke:#999; stroke-width:3;" />
  <rect class="anc_exon" x="586" y="35.0" width="51" height="30" style="fill:#87bcbc;fill-opacity:1.00" />
  <line x1="637" y1="50.0" x2="677" y2="50.0" style="stroke:#999; stroke-width:3;" />
  <rect class="anc_exon" x="677" y="35.0" width="48" height="30" style="fill:#87bcbc;fill-opacity:1.00" />
  <line x1="725" y1="50.0" x2="765" y2="50.0" style="stroke:#999; stroke-width:3;" />
  <rect class="anc_exon" x="765" y="35.0" width="64" height="30" style="fill:#87bcbc;fill-opacity:1.00" />
  <line x1="829" y1="50.0" x2="869" y2="50.0" style="stroke:#999; stroke-width:3;" />
  <rect class="anc_exon" x="869" y="35.0" width="31" height="30" style="fill:#87bcbc;fill-opacity:1.00" />
  <line x1="900" y1="50.0" x2="940" y2="50.0" style="stroke:#999; stroke-width:3;" />
  <rect class="anc_exon" x="940" y="35.0" width="50" height="30" style="fill:#87bcbc;fill-opacity:1.00" />
  <line x1="990" y1="50.0" x2="1030" y2="50.0" style="stroke:#999; stroke-width:3;" />
  <rect class="anc_exon" x="1030" y="35.0" width="75" height="30" style="fill:#87bcbc;fill-opacity:1.00" />
  <line x1="1105" y1="50.0" x2="1145" y2="50.0" style="stroke:#999; stroke-width:3;" />
  <rect class="anc_exon" x="1145" y="35.0" width="85" height="30" style="fill:#87bcbc;fill-opacity:1.00" />
  <line x1="1230" y1="50.0" x2="1270" y2="50.0" style="stroke:#999; stroke-width:3;" />
  <rect class="anc_exon" x="1270" y="35.0" width="47" height="30" style="fill:#87bcbc;fill-opacity:1.00" />
  <line x1="1317" y1="50.0" x2="1357" y2="50.0" style="stroke:#999; stroke-width:3;" />
  <rect class="anc_exon" x="1357" y="35.0" width="113" height="30" style="fill:#87bcbc;fill-opacity:1.00" />
  <line x1="1470" y1="50.0" x2="1510" y2="50.0" style="stroke:#999; stroke-width:3;" />
  <rect class="anc_exon" x="1510" y="35.0" width="72" height="30" style="fill:#87bcbc;fill-opacity:1.00" />
  <line x1="1582" y1="50.0" x2="1622" y2="50.0" style="stroke:#999; stroke-width:3;" />
  <rect class="anc_exon" x="1622" y="35.0" width="86" height="30" style="fill:#87bcbc;fill-opacity:1.00" />
  <line x1="1708" y1="50.0" x2="1748" y2="50.0" style="stroke:#999; stroke-width:3;" />
  <rect class="anc_exon" x="1748" y="35.0" width="70" height="30" style="fill:#87bcbc;fill-opacity:1.00" />
  <line x1="1818" y1="50.0" x2="1858" y2="50.0" style="stroke:#999; stroke-width:3;" />
  <rect class="anc_exon" x="1858" y="35.0" width="270" height="30" style="fill:#87bcbc;fill-opacity:1.00" />
  <line x1="2128" y1="50.0" x2="2168" y2="50.0" style="stroke:#999; stroke-width:3;" />
  <rect class="anc_exon" x="2168" y="35.0" width="91" height="30" style="fill:#87bcbc;fill-opacity:1.00" />
  <line x1="2259" y1="50.0" x2="2299" y2="50.0" style="stroke:#999; stroke-width:3;" />
  <rect class="anc_exon" x="2299" y="35.0" width="180" height="30" style="fill:#87bcbc;fill-opacity:1.00" />
  <line x1="2479" y1="50.0" x2="2519" y2="50.0" style="stroke:#999; stroke-width:3;" />
  <rect class="anc_exon" x="2519" y="35.0" width="60" height="30" style="fill:#87bcbc;fill-opacity:1.00" />
  <line x1="2579" y1="50.0" x2="2619" y2="50.0" style="stroke:#999; stroke-width:3;" />
  <rect class="anc_exon" x="2619" y="35.0" width="71" height="30" style="fill:#87bcbc;fill-opacity:1.00" />
  <line x1="2690" y1="50.0" x2="2730" y2="50.0" style="stroke:#999; stroke-width:3;" />
  <rect class="anc_exon" x="2730" y="35.0" width="165" height="30" style="fill:#87bcbc;fill-opacity:1.00" />
  <line x1="2895" y1="50.0" x2="2935" y2="50.0" style="stroke:#999; stroke-width:3;" />
  <rect class="anc_exon" x="2935" y="35.0" width="82" height="30" style="fill:#87bcbc;fill-opacity:1.00" />
  <line x1="3017" y1="50.0" x2="3057" y2="50.0" style="stroke:#999; stroke-width:3;" />
  <rect class="anc_exon" x="3057" y="35.0" width="85" height="30" style="fill:#87bcbc;fill-opacity:1.00" />
  <line x1="3142" y1="50.0" x2="3182" y2="50.0" style="stroke:#999; stroke-width:3;" />
  <rect class="anc_exon" x="3182" y="35.0" width="135" height="30" style="fill:#87bcbc;fill-opacity:1.00" />
  <line x1="3317" y1="50.0" x2="3357" y2="50.0" style="stroke:#999; stroke-width:3;" />
  <rect class="anc_exon" x="3357" y="35.0" width="181" height="30" style="fill:#87bcbc;fill-opacity:1.00" />
  <rect class="anc_exon" x="3538" y="35.0" width="0" height="30" style="fill:#87bcbc;fill-opacity:1.00" />
  <text style="" >
<tspan x="0" y="83.0" style="font-size:18px;" >SP XM_031954723_1.1</tspan>  </text>



<script type="text/ecmascript">
<![CDATA[
function draw_bbox(text_id)
{
    var text_elem = document.getElementById(text_id);
    var offset_px = 2;
    var offset_py = 0;
    bbox = text_elem.getBBox();
    var box = document.createElementNS(document.rootElement.namespaceURI,'rect');
    box.setAttribute('x', bbox.x - offset_px);
    box.setAttribute('y', bbox.y - offset_py);
    box.setAttribute('width', bbox.width + offset_px * 2);
    box.setAttribute('height', bbox.height + offset_py * 2);
    box.setAttribute('style','fill: white;'+'stroke: black;'+'stroke-width: 1px;');
    text_elem.insertBefore(box,text_elem.childNodes[0]);

    var svg = text_elem.parentNode;
    svg.appendChild(text_elem);
}

for (var i=1; i < 1; i++)
{
draw_bbox("Mouseover" + i);
}
]]> 
</script>
</svg>
