<svg version="1.1"
xmlns="http://www.w3.org/2000/svg"
xmlns:xlink="http://www.w3.org/1999/xlink"
width="2420" height="100" viewBox = "0 0 2420 100"
onclick="mouseclick(evt)">

<script type="text/ecmascript">

<![CDATA[
    function mouseover(evt, target) { 
    var gv = document.getElementById("globalVariable");
    var previoustarget = gv.firstChild.nodeValue;
    if (previoustarget != "none") 
    {
        	document.getElementById(gv.firstChild.nodeValue).setAttributeNS(null, "visibility", "hidden");
    }
    document.getElementById(target).setAttributeNS(null, "visibility", "visible");
    gv.firstChild.nodeValue = target;
        }

    function mouseclick(evt) { 
    var gv = document.getElementById("globalVariable");
    var previoustarget = gv.firstChild.nodeValue;
    if (previoustarget != "none") {
        	document.getElementById(gv.firstChild.nodeValue).setAttributeNS(null, "visibility", "hidden");
        }
    }
]]>
  </script>
<style type="text/css" >

<![CDATA[
    rect.anc_exon {
              stroke-width:3;
                  }

    rect.non_anc_exon {
              stroke: black; stroke-width:3; stroke-dasharray: 5,5;
                    }

    text {
              font-size: 18px;
              font-family: Courier New;
          }
                    ]]>
</style>

<defs>
    <text x="150" y="40" id="globalVariable">none</text>
</defs>

  <rect class="anc_exon" x="0" y="35.0" width="0" height="30" style="fill:#87bcbc;fill-opacity:1.00" />
  <rect class="anc_exon" x="0" y="35.0" width="152.0" height="30" style="fill:#878787;fill-opacity:1.00" />
  <line x1="152.0" y1="50.0" x2="172.0" y2="50.0" style="stroke:#999; stroke-width:3;" />
  <line x1="172.0" y1="50.0" x2="172.0" y2="50.0" style="stroke:#999; stroke-width:3;" />
  <line x1="172.0" y1="50.0" x2="172.0" y2="50.0" style="stroke:#999; stroke-width:3;" />
  <line x1="172.0" y1="50.0" x2="192.0" y2="50.0" style="stroke:#999; stroke-width:3;" />
  <rect class="anc_exon" x="192" y="35.0" width="91" height="30" style="fill:#87bcbc;fill-opacity:1.00" />
  <line x1="283" y1="50.0" x2="323" y2="50.0" style="stroke:#999; stroke-width:3;" />
  <rect class="anc_exon" x="323" y="35.0" width="141" height="30" style="fill:#87bcbc;fill-opacity:1.00" />
  <line x1="464" y1="50.0" x2="504" y2="50.0" style="stroke:#999; stroke-width:3;" />
  <rect class="anc_exon" x="504" y="35.0" width="94" height="30" style="fill:#87bcbc;fill-opacity:1.00" />
  <line x1="598" y1="50.0" x2="638" y2="50.0" style="stroke:#999; stroke-width:3;" />
  <rect class="anc_exon" x="638" y="35.0" width="143" height="30" style="fill:#87bcbc;fill-opacity:1.00" />
  <line x1="781" y1="50.0" x2="821" y2="50.0" style="stroke:#999; stroke-width:3;" />
  <rect class="anc_exon" x="821" y="35.0" width="84" height="30" style="fill:#87bcbc;fill-opacity:1.00" />
  <line x1="905" y1="50.0" x2="945" y2="50.0" style="stroke:#999; stroke-width:3;" />
  <rect class="anc_exon" x="945" y="35.0" width="100" height="30" style="fill:#87bcbc;fill-opacity:1.00" />
  <line x1="1045" y1="50.0" x2="1085" y2="50.0" style="stroke:#999; stroke-width:3;" />
  <rect class="anc_exon" x="1085" y="35.0" width="92" height="30" style="fill:#87bcbc;fill-opacity:1.00" />
  <line x1="1177" y1="50.0" x2="1197" y2="50.0" style="stroke:#999; stroke-width:3;" />
  <line x1="1197" y1="50.0" x2="1197" y2="50.0" style="stroke:#999; stroke-width:3;" />
  <line x1="1197" y1="50.0" x2="1197" y2="50.0" style="stroke:#999; stroke-width:3;" />
  <line x1="1197" y1="50.0" x2="1217" y2="50.0" style="stroke:#999; stroke-width:3;" />
  <rect class="anc_exon" x="1217" y="35.0" width="82" height="30" style="fill:#87bcbc;fill-opacity:1.00" />
  <line x1="1299" y1="50.0" x2="1339" y2="50.0" style="stroke:#999; stroke-width:3;" />
  <rect class="anc_exon" x="1339" y="35.0" width="93" height="30" style="fill:#87bcbc;fill-opacity:1.00" />
  <line x1="1432" y1="50.0" x2="1472" y2="50.0" style="stroke:#999; stroke-width:3;" />
  <rect class="anc_exon" x="1472" y="35.0" width="116" height="30" style="fill:#87bcbc;fill-opacity:1.00" />
  <line x1="1588" y1="50.0" x2="1628" y2="50.0" style="stroke:#999; stroke-width:3;" />
  <rect class="anc_exon" x="1628" y="35.0" width="156" height="30" style="fill:#87bcbc;fill-opacity:1.00" />
  <line x1="1784" y1="50.0" x2="1824" y2="50.0" style="stroke:#999; stroke-width:3;" />
  <rect class="anc_exon" x="1824" y="35.0" width="100" height="30" style="fill:#87bcbc;fill-opacity:1.00" />
  <line x1="1924" y1="50.0" x2="1964" y2="50.0" style="stroke:#999; stroke-width:3;" />
  <rect class="anc_exon" x="1964" y="35.0" width="128" height="30" style="fill:#87bcbc;fill-opacity:1.00" />
  <line x1="2092" y1="50.0" x2="2112" y2="50.0" style="stroke:#999; stroke-width:3;" />
  <line x1="2112" y1="50.0" x2="2112" y2="50.0" style="stroke:#999; stroke-width:3;" />
  <line x1="2112" y1="50.0" x2="2112" y2="50.0" style="stroke:#999; stroke-width:3;" />
  <line x1="2112" y1="50.0" x2="2132" y2="50.0" style="stroke:#999; stroke-width:3;" />
  <rect class="anc_exon" x="2132" y="35.0" width="144" height="30" style="fill:#87bcbc;fill-opacity:1.00" />
  <line x1="2276" y1="50.0" x2="2296" y2="50.0" style="stroke:#999; stroke-width:3;" />
  <line x1="2296" y1="50.0" x2="2296" y2="50.0" style="stroke:#999; stroke-width:3;" />
  <line x1="2296" y1="50.0" x2="2296" y2="50.0" style="stroke:#999; stroke-width:3;" />
  <line x1="2296" y1="50.0" x2="2316" y2="50.0" style="stroke:#999; stroke-width:3;" />
  <rect class="anc_exon" x="2316" y="35.0" width="68" height="30" style="fill:#878787;fill-opacity:1.00" />
  <rect class="anc_exon" x="2384" y="35.0" width="0" height="30" style="fill:#87bcbc;fill-opacity:1.00" />
  <text style="" >
<tspan x="0" y="83.0" style="font-size:18px;" >SP XM_031950868_1.1</tspan>  </text>



<script type="text/ecmascript">
<![CDATA[
function draw_bbox(text_id)
{
    var text_elem = document.getElementById(text_id);
    var offset_px = 2;
    var offset_py = 0;
    bbox = text_elem.getBBox();
    var box = document.createElementNS(document.rootElement.namespaceURI,'rect');
    box.setAttribute('x', bbox.x - offset_px);
    box.setAttribute('y', bbox.y - offset_py);
    box.setAttribute('width', bbox.width + offset_px * 2);
    box.setAttribute('height', bbox.height + offset_py * 2);
    box.setAttribute('style','fill: white;'+'stroke: black;'+'stroke-width: 1px;');
    text_elem.insertBefore(box,text_elem.childNodes[0]);

    var svg = text_elem.parentNode;
    svg.appendChild(text_elem);
}

for (var i=1; i < 1; i++)
{
draw_bbox("Mouseover" + i);
}
]]> 
</script>
</svg>
