<svg version="1.1"
xmlns="http://www.w3.org/2000/svg"
xmlns:xlink="http://www.w3.org/1999/xlink"
width="3745" height="100" viewBox = "0 0 3745 100"
onclick="mouseclick(evt)">

<script type="text/ecmascript">

<![CDATA[
    function mouseover(evt, target) { 
    var gv = document.getElementById("globalVariable");
    var previoustarget = gv.firstChild.nodeValue;
    if (previoustarget != "none") 
    {
        	document.getElementById(gv.firstChild.nodeValue).setAttributeNS(null, "visibility", "hidden");
    }
    document.getElementById(target).setAttributeNS(null, "visibility", "visible");
    gv.firstChild.nodeValue = target;
        }

    function mouseclick(evt) { 
    var gv = document.getElementById("globalVariable");
    var previoustarget = gv.firstChild.nodeValue;
    if (previoustarget != "none") {
        	document.getElementById(gv.firstChild.nodeValue).setAttributeNS(null, "visibility", "hidden");
        }
    }
]]>
  </script>
<style type="text/css" >

<![CDATA[
    rect.anc_exon {
              stroke-width:3;
                  }

    rect.non_anc_exon {
              stroke: black; stroke-width:3; stroke-dasharray: 5,5;
                    }

    text {
              font-size: 18px;
              font-family: Courier New;
          }
                    ]]>
</style>

<defs>
    <text x="150" y="40" id="globalVariable">none</text>
</defs>

  <rect class="anc_exon" x="0" y="35.0" width="0" height="30" style="fill:#87bcbc;fill-opacity:1.00" />
  <rect class="anc_exon" x="0" y="35.0" width="476.8" height="30" style="fill:#87bcbc;fill-opacity:1.00" />
  <line x1="476.8" y1="50.0" x2="516.0" y2="50.0" style="stroke:#999; stroke-width:3;" />
  <rect class="anc_exon" x="516" y="35.0" width="156" height="30" style="fill:#87bcbc;fill-opacity:1.00" />
  <line x1="672" y1="50.0" x2="712" y2="50.0" style="stroke:#999; stroke-width:3;" />
  <rect class="anc_exon" x="712" y="35.0" width="134" height="30" style="fill:#87bcbc;fill-opacity:1.00" />
  <line x1="846" y1="50.0" x2="886" y2="50.0" style="stroke:#999; stroke-width:3;" />
  <rect class="anc_exon" x="886" y="35.0" width="117" height="30" style="fill:#87bcbc;fill-opacity:1.00" />
  <line x1="1003" y1="50.0" x2="1043" y2="50.0" style="stroke:#999; stroke-width:3;" />
  <rect class="anc_exon" x="1043" y="35.0" width="64" height="30" style="fill:#87bcbc;fill-opacity:1.00" />
  <line x1="1107" y1="50.0" x2="1147" y2="50.0" style="stroke:#999; stroke-width:3;" />
  <rect class="anc_exon" x="1147" y="35.0" width="146" height="30" style="fill:#87bcbc;fill-opacity:1.00" />
  <line x1="1293" y1="50.0" x2="1333" y2="50.0" style="stroke:#999; stroke-width:3;" />
  <rect class="anc_exon" x="1333" y="35.0" width="119" height="30" style="fill:#87bcbc;fill-opacity:1.00" />
  <line x1="1452" y1="50.0" x2="1492" y2="50.0" style="stroke:#999; stroke-width:3;" />
  <rect class="anc_exon" x="1492" y="35.0" width="101" height="30" style="fill:#87bcbc;fill-opacity:1.00" />
  <line x1="1593" y1="50.0" x2="1633" y2="50.0" style="stroke:#999; stroke-width:3;" />
  <rect class="anc_exon" x="1633" y="35.0" width="180" height="30" style="fill:#87bcbc;fill-opacity:1.00" />
  <line x1="1813" y1="50.0" x2="1833" y2="50.0" style="stroke:#999; stroke-width:3;" />
  <line x1="1833" y1="50.0" x2="1833" y2="50.0" style="stroke:#999; stroke-width:3;" />
  <line x1="1833" y1="50.0" x2="1833" y2="50.0" style="stroke:#999; stroke-width:3;" />
  <line x1="1833" y1="50.0" x2="1853" y2="50.0" style="stroke:#999; stroke-width:3;" />
  <rect class="anc_exon" x="1853" y="35.0" width="94" height="30" style="fill:#87bcbc;fill-opacity:1.00" />
  <line x1="1947" y1="50.0" x2="1987" y2="50.0" style="stroke:#999; stroke-width:3;" />
  <rect class="anc_exon" x="1987" y="35.0" width="48" height="30" style="fill:#87bcbc;fill-opacity:1.00" />
  <line x1="2035" y1="50.0" x2="2075" y2="50.0" style="stroke:#999; stroke-width:3;" />
  <rect class="anc_exon" x="2075" y="35.0" width="86" height="30" style="fill:#87bcbc;fill-opacity:1.00" />
  <line x1="2161" y1="50.0" x2="2201" y2="50.0" style="stroke:#999; stroke-width:3;" />
  <rect class="anc_exon" x="2201" y="35.0" width="128" height="30" style="fill:#87bcbc;fill-opacity:1.00" />
  <line x1="2329" y1="50.0" x2="2369" y2="50.0" style="stroke:#999; stroke-width:3;" />
  <rect class="anc_exon" x="2369" y="35.0" width="43" height="30" style="fill:#87bcbc;fill-opacity:1.00" />
  <line x1="2412" y1="50.0" x2="2452" y2="50.0" style="stroke:#999; stroke-width:3;" />
  <rect class="anc_exon" x="2452" y="35.0" width="94" height="30" style="fill:#87bcbc;fill-opacity:1.00" />
  <line x1="2546" y1="50.0" x2="2586" y2="50.0" style="stroke:#999; stroke-width:3;" />
  <rect class="anc_exon" x="2586" y="35.0" width="108" height="30" style="fill:#87bcbc;fill-opacity:1.00" />
  <line x1="2694" y1="50.0" x2="2734" y2="50.0" style="stroke:#999; stroke-width:3;" />
  <rect class="anc_exon" x="2734" y="35.0" width="197" height="30" style="fill:#87bcbc;fill-opacity:1.00" />
  <line x1="2931" y1="50.0" x2="2951" y2="50.0" style="stroke:#999; stroke-width:3;" />
  <line x1="2951" y1="50.0" x2="2951" y2="50.0" style="stroke:#999; stroke-width:3;" />
  <line x1="2951" y1="50.0" x2="2951" y2="50.0" style="stroke:#999; stroke-width:3;" />
  <line x1="2951" y1="50.0" x2="2971" y2="50.0" style="stroke:#999; stroke-width:3;" />
  <rect class="anc_exon" x="2971" y="35.0" width="96" height="30" style="fill:#87bcbc;fill-opacity:1.00" />
  <line x1="3067" y1="50.0" x2="3107" y2="50.0" style="stroke:#999; stroke-width:3;" />
  <rect class="anc_exon" x="3107" y="35.0" width="135" height="30" style="fill:#87bcbc;fill-opacity:1.00" />
  <line x1="3242" y1="50.0" x2="3282" y2="50.0" style="stroke:#999; stroke-width:3;" />
  <rect class="anc_exon" x="3282" y="35.0" width="167" height="30" style="fill:#87bcbc;fill-opacity:1.00" />
  <line x1="3449" y1="50.0" x2="3469" y2="50.0" style="stroke:#999; stroke-width:3;" />
  <line x1="3469" y1="50.0" x2="3469" y2="50.0" style="stroke:#999; stroke-width:3;" />
  <line x1="3469" y1="50.0" x2="3469" y2="50.0" style="stroke:#999; stroke-width:3;" />
  <line x1="3469" y1="50.0" x2="3489" y2="50.0" style="stroke:#999; stroke-width:3;" />
  <rect class="anc_exon" x="3489" y="35.0" width="128" height="30" style="fill:#87bcbc;fill-opacity:1.00" />
  <line x1="3617" y1="50.0" x2="3657" y2="50.0" style="stroke:#999; stroke-width:3;" />
  <rect class="anc_exon" x="3657" y="35.0" width="52" height="30" style="fill:#87bcbc;fill-opacity:1.00" />
  <rect class="anc_exon" x="3709" y="35.0" width="0" height="30" style="fill:#87bcbc;fill-opacity:1.00" />
  <text style="" >
<tspan x="0" y="83.0" style="font-size:18px;" >SP XM_031955579_1.1</tspan>  </text>



<script type="text/ecmascript">
<![CDATA[
function draw_bbox(text_id)
{
    var text_elem = document.getElementById(text_id);
    var offset_px = 2;
    var offset_py = 0;
    bbox = text_elem.getBBox();
    var box = document.createElementNS(document.rootElement.namespaceURI,'rect');
    box.setAttribute('x', bbox.x - offset_px);
    box.setAttribute('y', bbox.y - offset_py);
    box.setAttribute('width', bbox.width + offset_px * 2);
    box.setAttribute('height', bbox.height + offset_py * 2);
    box.setAttribute('style','fill: white;'+'stroke: black;'+'stroke-width: 1px;');
    text_elem.insertBefore(box,text_elem.childNodes[0]);

    var svg = text_elem.parentNode;
    svg.appendChild(text_elem);
}

for (var i=1; i < 1; i++)
{
draw_bbox("Mouseover" + i);
}
]]> 
</script>
</svg>
