<svg version="1.1"
xmlns="http://www.w3.org/2000/svg"
xmlns:xlink="http://www.w3.org/1999/xlink"
width="3252" height="100" viewBox = "0 0 3252 100"
onclick="mouseclick(evt)">

<script type="text/ecmascript">

<![CDATA[
    function mouseover(evt, target) { 
    var gv = document.getElementById("globalVariable");
    var previoustarget = gv.firstChild.nodeValue;
    if (previoustarget != "none") 
    {
        	document.getElementById(gv.firstChild.nodeValue).setAttributeNS(null, "visibility", "hidden");
    }
    document.getElementById(target).setAttributeNS(null, "visibility", "visible");
    gv.firstChild.nodeValue = target;
        }

    function mouseclick(evt) { 
    var gv = document.getElementById("globalVariable");
    var previoustarget = gv.firstChild.nodeValue;
    if (previoustarget != "none") {
        	document.getElementById(gv.firstChild.nodeValue).setAttributeNS(null, "visibility", "hidden");
        }
    }
]]>
  </script>
<style type="text/css" >

<![CDATA[
    rect.anc_exon {
              stroke-width:3;
                  }

    rect.non_anc_exon {
              stroke: black; stroke-width:3; stroke-dasharray: 5,5;
                    }

    text {
              font-size: 18px;
              font-family: Courier New;
          }
                    ]]>
</style>

<defs>
    <text x="150" y="40" id="globalVariable">none</text>
</defs>

  <rect class="anc_exon" x="0" y="35.0" width="0" height="30" style="fill:#87bcbc;fill-opacity:1.00" />
  <rect class="anc_exon" x="0" y="35.0" width="20.0" height="30" style="fill:#87bcbc;fill-opacity:1.00" />
  <line x1="20.0" y1="50.0" x2="40.0" y2="50.0" style="stroke:#999; stroke-width:3;" />
  <line x1="40.0" y1="50.0" x2="40.0" y2="50.0" style="stroke:#999; stroke-width:3;" />
  <line x1="40.0" y1="50.0" x2="40.0" y2="50.0" style="stroke:#999; stroke-width:3;" />
  <line x1="40.0" y1="50.0" x2="60.0" y2="50.0" style="stroke:#999; stroke-width:3;" />
  <rect class="anc_exon" x="60" y="35.0" width="146" height="30" style="fill:#87bcbc;fill-opacity:1.00" />
  <line x1="206" y1="50.0" x2="226" y2="50.0" style="stroke:#999; stroke-width:3;" />
  <line x1="226" y1="50.0" x2="226" y2="50.0" style="stroke:#999; stroke-width:3;" />
  <line x1="226" y1="50.0" x2="226" y2="50.0" style="stroke:#999; stroke-width:3;" />
  <line x1="226" y1="50.0" x2="246" y2="50.0" style="stroke:#999; stroke-width:3;" />
  <rect class="anc_exon" x="246" y="35.0" width="104" height="30" style="fill:#87bcbc;fill-opacity:1.00" />
  <line x1="350" y1="50.0" x2="370" y2="50.0" style="stroke:#999; stroke-width:3;" />
  <line x1="370" y1="50.0" x2="370" y2="50.0" style="stroke:#999; stroke-width:3;" />
  <line x1="370" y1="50.0" x2="370" y2="50.0" style="stroke:#999; stroke-width:3;" />
  <line x1="370" y1="50.0" x2="390" y2="50.0" style="stroke:#999; stroke-width:3;" />
  <rect class="anc_exon" x="390" y="35.0" width="139" height="30" style="fill:#87bcbc;fill-opacity:1.00" />
  <line x1="529" y1="50.0" x2="549" y2="50.0" style="stroke:#999; stroke-width:3;" />
  <line x1="549" y1="50.0" x2="549" y2="50.0" style="stroke:#999; stroke-width:3;" />
  <line x1="549" y1="50.0" x2="549" y2="50.0" style="stroke:#999; stroke-width:3;" />
  <line x1="549" y1="50.0" x2="569" y2="50.0" style="stroke:#999; stroke-width:3;" />
  <rect class="anc_exon" x="569" y="35.0" width="103" height="30" style="fill:#87bcbc;fill-opacity:1.00" />
  <line x1="672" y1="50.0" x2="712" y2="50.0" style="stroke:#999; stroke-width:3;" />
  <rect class="anc_exon" x="712" y="35.0" width="20" height="30" style="fill:#87bcbc;fill-opacity:1.00" />
  <line x1="732" y1="50.0" x2="752" y2="50.0" style="stroke:#999; stroke-width:3;" />
  <line x1="752" y1="50.0" x2="752" y2="50.0" style="stroke:#999; stroke-width:3;" />
  <line x1="752" y1="50.0" x2="752" y2="50.0" style="stroke:#999; stroke-width:3;" />
  <line x1="752" y1="50.0" x2="772" y2="50.0" style="stroke:#999; stroke-width:3;" />
  <rect class="anc_exon" x="772" y="35.0" width="99" height="30" style="fill:#87bcbc;fill-opacity:1.00" />
  <line x1="871" y1="50.0" x2="911" y2="50.0" style="stroke:#999; stroke-width:3;" />
  <rect class="anc_exon" x="911" y="35.0" width="120" height="30" style="fill:#87bcbc;fill-opacity:1.00" />
  <line x1="1031" y1="50.0" x2="1071" y2="50.0" style="stroke:#999; stroke-width:3;" />
  <rect class="anc_exon" x="1071" y="35.0" width="56" height="30" style="fill:#87bcbc;fill-opacity:1.00" />
  <line x1="1127" y1="50.0" x2="1167" y2="50.0" style="stroke:#999; stroke-width:3;" />
  <rect class="anc_exon" x="1167" y="35.0" width="88" height="30" style="fill:#87bcbc;fill-opacity:1.00" />
  <line x1="1255" y1="50.0" x2="1275" y2="50.0" style="stroke:#999; stroke-width:3;" />
  <line x1="1275" y1="50.0" x2="1275" y2="50.0" style="stroke:#999; stroke-width:3;" />
  <line x1="1275" y1="50.0" x2="1275" y2="50.0" style="stroke:#999; stroke-width:3;" />
  <line x1="1275" y1="50.0" x2="1295" y2="50.0" style="stroke:#999; stroke-width:3;" />
  <rect class="anc_exon" x="1295" y="35.0" width="76" height="30" style="fill:#87bcbc;fill-opacity:1.00" />
  <line x1="1371" y1="50.0" x2="1391" y2="50.0" style="stroke:#999; stroke-width:3;" />
  <line x1="1391" y1="50.0" x2="1391" y2="50.0" style="stroke:#999; stroke-width:3;" />
  <line x1="1391" y1="50.0" x2="1391" y2="50.0" style="stroke:#999; stroke-width:3;" />
  <line x1="1391" y1="50.0" x2="1411" y2="50.0" style="stroke:#999; stroke-width:3;" />
  <rect class="anc_exon" x="1411" y="35.0" width="108" height="30" style="fill:#87bcbc;fill-opacity:1.00" />
  <line x1="1519" y1="50.0" x2="1559" y2="50.0" style="stroke:#999; stroke-width:3;" />
  <rect class="anc_exon" x="1559" y="35.0" width="108" height="30" style="fill:#87bcbc;fill-opacity:1.00" />
  <line x1="1667" y1="50.0" x2="1687" y2="50.0" style="stroke:#999; stroke-width:3;" />
  <line x1="1687" y1="50.0" x2="1687" y2="50.0" style="stroke:#999; stroke-width:3;" />
  <line x1="1687" y1="50.0" x2="1687" y2="50.0" style="stroke:#999; stroke-width:3;" />
  <line x1="1687" y1="50.0" x2="1707" y2="50.0" style="stroke:#999; stroke-width:3;" />
  <rect class="anc_exon" x="1707" y="35.0" width="121" height="30" style="fill:#87bcbc;fill-opacity:1.00" />
  <line x1="1828" y1="50.0" x2="1848" y2="50.0" style="stroke:#999; stroke-width:3;" />
  <line x1="1848" y1="50.0" x2="1848" y2="50.0" style="stroke:#999; stroke-width:3;" />
  <line x1="1848" y1="50.0" x2="1848" y2="50.0" style="stroke:#999; stroke-width:3;" />
  <line x1="1848" y1="50.0" x2="1868" y2="50.0" style="stroke:#999; stroke-width:3;" />
  <rect class="anc_exon" x="1868" y="35.0" width="100" height="30" style="fill:#87bcbc;fill-opacity:1.00" />
  <line x1="1968" y1="50.0" x2="1988" y2="50.0" style="stroke:#999; stroke-width:3;" />
  <line x1="1988" y1="50.0" x2="1988" y2="50.0" style="stroke:#999; stroke-width:3;" />
  <line x1="1988" y1="50.0" x2="1988" y2="50.0" style="stroke:#999; stroke-width:3;" />
  <line x1="1988" y1="50.0" x2="2008" y2="50.0" style="stroke:#999; stroke-width:3;" />
  <rect class="anc_exon" x="2008" y="35.0" width="105" height="30" style="fill:#87bcbc;fill-opacity:1.00" />
  <line x1="2113" y1="50.0" x2="2153" y2="50.0" style="stroke:#999; stroke-width:3;" />
  <rect class="anc_exon" x="2153" y="35.0" width="54" height="30" style="fill:#87bcbc;fill-opacity:1.00" />
  <line x1="2207" y1="50.0" x2="2227" y2="50.0" style="stroke:#999; stroke-width:3;" />
  <line x1="2227" y1="50.0" x2="2227" y2="50.0" style="stroke:#999; stroke-width:3;" />
  <line x1="2227" y1="50.0" x2="2227" y2="50.0" style="stroke:#999; stroke-width:3;" />
  <line x1="2227" y1="50.0" x2="2247" y2="50.0" style="stroke:#999; stroke-width:3;" />
  <rect class="anc_exon" x="2247" y="35.0" width="71" height="30" style="fill:#87bcbc;fill-opacity:1.00" />
  <line x1="2318" y1="50.0" x2="2338" y2="50.0" style="stroke:#999; stroke-width:3;" />
  <line x1="2338" y1="50.0" x2="2338" y2="50.0" style="stroke:#999; stroke-width:3;" />
  <line x1="2338" y1="50.0" x2="2338" y2="50.0" style="stroke:#999; stroke-width:3;" />
  <line x1="2338" y1="50.0" x2="2358" y2="50.0" style="stroke:#999; stroke-width:3;" />
  <rect class="anc_exon" x="2358" y="35.0" width="78" height="30" style="fill:#87bcbc;fill-opacity:1.00" />
  <line x1="2436" y1="50.0" x2="2456" y2="50.0" style="stroke:#999; stroke-width:3;" />
  <line x1="2456" y1="50.0" x2="2456" y2="50.0" style="stroke:#999; stroke-width:3;" />
  <line x1="2456" y1="50.0" x2="2456" y2="50.0" style="stroke:#999; stroke-width:3;" />
  <line x1="2456" y1="50.0" x2="2476" y2="50.0" style="stroke:#999; stroke-width:3;" />
  <rect class="anc_exon" x="2476" y="35.0" width="70" height="30" style="fill:#87bcbc;fill-opacity:1.00" />
  <line x1="2546" y1="50.0" x2="2586" y2="50.0" style="stroke:#999; stroke-width:3;" />
  <rect class="anc_exon" x="2586" y="35.0" width="79" height="30" style="fill:#87bcbc;fill-opacity:1.00" />
  <line x1="2665" y1="50.0" x2="2685" y2="50.0" style="stroke:#999; stroke-width:3;" />
  <line x1="2685" y1="50.0" x2="2685" y2="50.0" style="stroke:#999; stroke-width:3;" />
  <line x1="2685" y1="50.0" x2="2685" y2="50.0" style="stroke:#999; stroke-width:3;" />
  <line x1="2685" y1="50.0" x2="2705" y2="50.0" style="stroke:#999; stroke-width:3;" />
  <rect class="anc_exon" x="2705" y="35.0" width="104" height="30" style="fill:#87bcbc;fill-opacity:1.00" />
  <line x1="2809" y1="50.0" x2="2849" y2="50.0" style="stroke:#999; stroke-width:3;" />
  <rect class="anc_exon" x="2849" y="35.0" width="367" height="30" style="fill:#87bcbc;fill-opacity:1.00" />
  <rect class="anc_exon" x="3216" y="35.0" width="0" height="30" style="fill:#87bcbc;fill-opacity:1.00" />
  <text style="" >
<tspan x="0" y="83.0" style="font-size:18px;" >SP XM_012540247_3.1</tspan>  </text>



<script type="text/ecmascript">
<![CDATA[
function draw_bbox(text_id)
{
    var text_elem = document.getElementById(text_id);
    var offset_px = 2;
    var offset_py = 0;
    bbox = text_elem.getBBox();
    var box = document.createElementNS(document.rootElement.namespaceURI,'rect');
    box.setAttribute('x', bbox.x - offset_px);
    box.setAttribute('y', bbox.y - offset_py);
    box.setAttribute('width', bbox.width + offset_px * 2);
    box.setAttribute('height', bbox.height + offset_py * 2);
    box.setAttribute('style','fill: white;'+'stroke: black;'+'stroke-width: 1px;');
    text_elem.insertBefore(box,text_elem.childNodes[0]);

    var svg = text_elem.parentNode;
    svg.appendChild(text_elem);
}

for (var i=1; i < 1; i++)
{
draw_bbox("Mouseover" + i);
}
]]> 
</script>
</svg>
