<svg version="1.1"
xmlns="http://www.w3.org/2000/svg"
xmlns:xlink="http://www.w3.org/1999/xlink"
width="3692" height="100" viewBox = "0 0 3692 100"
onclick="mouseclick(evt)">

<script type="text/ecmascript">

<![CDATA[
    function mouseover(evt, target) { 
    var gv = document.getElementById("globalVariable");
    var previoustarget = gv.firstChild.nodeValue;
    if (previoustarget != "none") 
    {
        	document.getElementById(gv.firstChild.nodeValue).setAttributeNS(null, "visibility", "hidden");
    }
    document.getElementById(target).setAttributeNS(null, "visibility", "visible");
    gv.firstChild.nodeValue = target;
        }

    function mouseclick(evt) { 
    var gv = document.getElementById("globalVariable");
    var previoustarget = gv.firstChild.nodeValue;
    if (previoustarget != "none") {
        	document.getElementById(gv.firstChild.nodeValue).setAttributeNS(null, "visibility", "hidden");
        }
    }
]]>
  </script>
<style type="text/css" >

<![CDATA[
    rect.anc_exon {
              stroke-width:3;
                  }

    rect.non_anc_exon {
              stroke: black; stroke-width:3; stroke-dasharray: 5,5;
                    }

    text {
              font-size: 18px;
              font-family: Courier New;
          }
                    ]]>
</style>

<defs>
    <text x="150" y="40" id="globalVariable">none</text>
</defs>

  <rect class="anc_exon" x="0" y="35.0" width="0" height="30" style="fill:#87bcbc;fill-opacity:1.00" />
  <rect class="anc_exon" x="0" y="35.0" width="87.2" height="30" style="fill:#87bcbc;fill-opacity:1.00" />
  <line x1="87.2" y1="50.0" x2="106.2" y2="50.0" style="stroke:#999; stroke-width:3;" />
  <line x1="106.2" y1="50.0" x2="106.2" y2="50.0" style="stroke:#999; stroke-width:3;" />
  <line x1="106.2" y1="50.0" x2="106.2" y2="50.0" style="stroke:#999; stroke-width:3;" />
  <line x1="106.2" y1="50.0" x2="127.0" y2="50.0" style="stroke:#999; stroke-width:3;" />
  <rect class="anc_exon" x="127" y="35.0" width="39" height="30" style="fill:#87bcbc;fill-opacity:1.00" />
  <line x1="166" y1="50.0" x2="206" y2="50.0" style="stroke:#999; stroke-width:3;" />
  <rect class="anc_exon" x="206" y="35.0" width="80" height="30" style="fill:#87bcbc;fill-opacity:1.00" />
  <line x1="286" y1="50.0" x2="326" y2="50.0" style="stroke:#999; stroke-width:3;" />
  <rect class="anc_exon" x="326" y="35.0" width="68" height="30" style="fill:#87bcbc;fill-opacity:1.00" />
  <line x1="394" y1="50.0" x2="434" y2="50.0" style="stroke:#999; stroke-width:3;" />
  <rect class="anc_exon" x="434" y="35.0" width="60" height="30" style="fill:#87bcbc;fill-opacity:1.00" />
  <line x1="494" y1="50.0" x2="534" y2="50.0" style="stroke:#999; stroke-width:3;" />
  <rect class="anc_exon" x="534" y="35.0" width="56" height="30" style="fill:#87bcbc;fill-opacity:1.00" />
  <line x1="590" y1="50.0" x2="630" y2="50.0" style="stroke:#999; stroke-width:3;" />
  <rect class="anc_exon" x="630" y="35.0" width="103" height="30" style="fill:#87bcbc;fill-opacity:1.00" />
  <line x1="733" y1="50.0" x2="773" y2="50.0" style="stroke:#999; stroke-width:3;" />
  <rect class="anc_exon" x="773" y="35.0" width="49" height="30" style="fill:#87bcbc;fill-opacity:1.00" />
  <line x1="822" y1="50.0" x2="862" y2="50.0" style="stroke:#999; stroke-width:3;" />
  <rect class="anc_exon" x="862" y="35.0" width="69" height="30" style="fill:#87bcbc;fill-opacity:1.00" />
  <line x1="931" y1="50.0" x2="971" y2="50.0" style="stroke:#999; stroke-width:3;" />
  <rect class="anc_exon" x="971" y="35.0" width="60" height="30" style="fill:#87bcbc;fill-opacity:1.00" />
  <line x1="1031" y1="50.0" x2="1071" y2="50.0" style="stroke:#999; stroke-width:3;" />
  <rect class="anc_exon" x="1071" y="35.0" width="62" height="30" style="fill:#87bcbc;fill-opacity:1.00" />
  <line x1="1133" y1="50.0" x2="1173" y2="50.0" style="stroke:#999; stroke-width:3;" />
  <rect class="anc_exon" x="1173" y="35.0" width="111" height="30" style="fill:#87bcbc;fill-opacity:1.00" />
  <line x1="1284" y1="50.0" x2="1324" y2="50.0" style="stroke:#999; stroke-width:3;" />
  <rect class="anc_exon" x="1324" y="35.0" width="124" height="30" style="fill:#87bcbc;fill-opacity:1.00" />
  <line x1="1448" y1="50.0" x2="1488" y2="50.0" style="stroke:#999; stroke-width:3;" />
  <rect class="anc_exon" x="1488" y="35.0" width="63" height="30" style="fill:#87bcbc;fill-opacity:1.00" />
  <line x1="1551" y1="50.0" x2="1591" y2="50.0" style="stroke:#999; stroke-width:3;" />
  <rect class="anc_exon" x="1591" y="35.0" width="100" height="30" style="fill:#87bcbc;fill-opacity:1.00" />
  <line x1="1691" y1="50.0" x2="1731" y2="50.0" style="stroke:#999; stroke-width:3;" />
  <rect class="anc_exon" x="1731" y="35.0" width="65" height="30" style="fill:#87bcbc;fill-opacity:1.00" />
  <line x1="1796" y1="50.0" x2="1836" y2="50.0" style="stroke:#999; stroke-width:3;" />
  <rect class="anc_exon" x="1836" y="35.0" width="78" height="30" style="fill:#87bcbc;fill-opacity:1.00" />
  <line x1="1914" y1="50.0" x2="1954" y2="50.0" style="stroke:#999; stroke-width:3;" />
  <rect class="anc_exon" x="1954" y="35.0" width="120" height="30" style="fill:#87bcbc;fill-opacity:1.00" />
  <line x1="2074" y1="50.0" x2="2114" y2="50.0" style="stroke:#999; stroke-width:3;" />
  <rect class="anc_exon" x="2114" y="35.0" width="122" height="30" style="fill:#87bcbc;fill-opacity:1.00" />
  <line x1="2236" y1="50.0" x2="2276" y2="50.0" style="stroke:#999; stroke-width:3;" />
  <rect class="anc_exon" x="2276" y="35.0" width="80" height="30" style="fill:#87bcbc;fill-opacity:1.00" />
  <line x1="2356" y1="50.0" x2="2396" y2="50.0" style="stroke:#999; stroke-width:3;" />
  <rect class="anc_exon" x="2396" y="35.0" width="82" height="30" style="fill:#87bcbc;fill-opacity:1.00" />
  <line x1="2478" y1="50.0" x2="2518" y2="50.0" style="stroke:#999; stroke-width:3;" />
  <rect class="anc_exon" x="2518" y="35.0" width="55" height="30" style="fill:#87bcbc;fill-opacity:1.00" />
  <line x1="2573" y1="50.0" x2="2613" y2="50.0" style="stroke:#999; stroke-width:3;" />
  <rect class="anc_exon" x="2613" y="35.0" width="101" height="30" style="fill:#87bcbc;fill-opacity:1.00" />
  <line x1="2714" y1="50.0" x2="2754" y2="50.0" style="stroke:#999; stroke-width:3;" />
  <rect class="anc_exon" x="2754" y="35.0" width="80" height="30" style="fill:#87bcbc;fill-opacity:1.00" />
  <line x1="2834" y1="50.0" x2="2874" y2="50.0" style="stroke:#999; stroke-width:3;" />
  <rect class="anc_exon" x="2874" y="35.0" width="45" height="30" style="fill:#87bcbc;fill-opacity:1.00" />
  <line x1="2919" y1="50.0" x2="2959" y2="50.0" style="stroke:#999; stroke-width:3;" />
  <rect class="anc_exon" x="2959" y="35.0" width="149" height="30" style="fill:#87bcbc;fill-opacity:1.00" />
  <line x1="3108" y1="50.0" x2="3148" y2="50.0" style="stroke:#999; stroke-width:3;" />
  <rect class="anc_exon" x="3148" y="35.0" width="66" height="30" style="fill:#87bcbc;fill-opacity:1.00" />
  <line x1="3214" y1="50.0" x2="3254" y2="50.0" style="stroke:#999; stroke-width:3;" />
  <rect class="anc_exon" x="3254" y="35.0" width="132" height="30" style="fill:#87bcbc;fill-opacity:1.00" />
  <line x1="3386" y1="50.0" x2="3426" y2="50.0" style="stroke:#999; stroke-width:3;" />
  <rect class="anc_exon" x="3426" y="35.0" width="48" height="30" style="fill:#87bcbc;fill-opacity:1.00" />
  <line x1="3474" y1="50.0" x2="3514" y2="50.0" style="stroke:#999; stroke-width:3;" />
  <rect class="anc_exon" x="3514" y="35.0" width="80" height="30" style="fill:#87bcbc;fill-opacity:1.00" />
  <line x1="3594" y1="50.0" x2="3634" y2="50.0" style="stroke:#999; stroke-width:3;" />
  <rect class="anc_exon" x="3634" y="35.0" width="22" height="30" style="fill:#87bcbc;fill-opacity:1.00" />
  <rect class="anc_exon" x="3656" y="35.0" width="0" height="30" style="fill:#87bcbc;fill-opacity:1.00" />
  <text style="" >
<tspan x="0" y="83.0" style="font-size:18px;" >SP XM_003755228_4.1</tspan>  </text>



<script type="text/ecmascript">
<![CDATA[
function draw_bbox(text_id)
{
    var text_elem = document.getElementById(text_id);
    var offset_px = 2;
    var offset_py = 0;
    bbox = text_elem.getBBox();
    var box = document.createElementNS(document.rootElement.namespaceURI,'rect');
    box.setAttribute('x', bbox.x - offset_px);
    box.setAttribute('y', bbox.y - offset_py);
    box.setAttribute('width', bbox.width + offset_px * 2);
    box.setAttribute('height', bbox.height + offset_py * 2);
    box.setAttribute('style','fill: white;'+'stroke: black;'+'stroke-width: 1px;');
    text_elem.insertBefore(box,text_elem.childNodes[0]);

    var svg = text_elem.parentNode;
    svg.appendChild(text_elem);
}

for (var i=1; i < 1; i++)
{
draw_bbox("Mouseover" + i);
}
]]> 
</script>
</svg>
