<svg version="1.1"
xmlns="http://www.w3.org/2000/svg"
xmlns:xlink="http://www.w3.org/1999/xlink"
width="3551" height="100" viewBox = "0 0 3551 100"
onclick="mouseclick(evt)">

<script type="text/ecmascript">

<![CDATA[
    function mouseover(evt, target) { 
    var gv = document.getElementById("globalVariable");
    var previoustarget = gv.firstChild.nodeValue;
    if (previoustarget != "none") 
    {
        	document.getElementById(gv.firstChild.nodeValue).setAttributeNS(null, "visibility", "hidden");
    }
    document.getElementById(target).setAttributeNS(null, "visibility", "visible");
    gv.firstChild.nodeValue = target;
        }

    function mouseclick(evt) { 
    var gv = document.getElementById("globalVariable");
    var previoustarget = gv.firstChild.nodeValue;
    if (previoustarget != "none") {
        	document.getElementById(gv.firstChild.nodeValue).setAttributeNS(null, "visibility", "hidden");
        }
    }
]]>
  </script>
<style type="text/css" >

<![CDATA[
    rect.anc_exon {
              stroke-width:3;
                  }

    rect.non_anc_exon {
              stroke: black; stroke-width:3; stroke-dasharray: 5,5;
                    }

    text {
              font-size: 18px;
              font-family: Courier New;
          }
                    ]]>
</style>

<defs>
    <text x="150" y="40" id="globalVariable">none</text>
</defs>

  <rect class="anc_exon" x="0" y="35.0" width="0" height="30" style="fill:#87bcbc;fill-opacity:1.00" />
  <rect class="anc_exon" x="0" y="35.0" width="307.20000000000005" height="30" style="fill:#87bcbc;fill-opacity:1.00" />
  <line x1="307.20000000000005" y1="50.0" x2="326.20000000000005" y2="50.0" style="stroke:#999; stroke-width:3;" />
  <line x1="326.20000000000005" y1="50.0" x2="326.20000000000005" y2="50.0" style="stroke:#999; stroke-width:3;" />
  <line x1="326.20000000000005" y1="50.0" x2="326.20000000000005" y2="50.0" style="stroke:#999; stroke-width:3;" />
  <line x1="326.20000000000005" y1="50.0" x2="347.0" y2="50.0" style="stroke:#999; stroke-width:3;" />
  <rect class="anc_exon" x="347" y="35.0" width="279" height="30" style="fill:#87bcbc;fill-opacity:1.00" />
  <line x1="626" y1="50.0" x2="646" y2="50.0" style="stroke:#999; stroke-width:3;" />
  <line x1="646" y1="50.0" x2="646" y2="50.0" style="stroke:#999; stroke-width:3;" />
  <line x1="646" y1="50.0" x2="646" y2="50.0" style="stroke:#999; stroke-width:3;" />
  <line x1="646" y1="50.0" x2="666" y2="50.0" style="stroke:#999; stroke-width:3;" />
  <rect class="anc_exon" x="666" y="35.0" width="88" height="30" style="fill:#87bcbc;fill-opacity:1.00" />
  <line x1="754" y1="50.0" x2="774" y2="50.0" style="stroke:#999; stroke-width:3;" />
  <line x1="774" y1="50.0" x2="774" y2="50.0" style="stroke:#999; stroke-width:3;" />
  <line x1="774" y1="50.0" x2="774" y2="50.0" style="stroke:#999; stroke-width:3;" />
  <line x1="774" y1="50.0" x2="794" y2="50.0" style="stroke:#999; stroke-width:3;" />
  <rect class="anc_exon" x="794" y="35.0" width="148" height="30" style="fill:#87bcbc;fill-opacity:1.00" />
  <line x1="942" y1="50.0" x2="982" y2="50.0" style="stroke:#999; stroke-width:3;" />
  <rect class="anc_exon" x="982" y="35.0" width="116" height="30" style="fill:#87bcbc;fill-opacity:1.00" />
  <line x1="1098" y1="50.0" x2="1118" y2="50.0" style="stroke:#999; stroke-width:3;" />
  <line x1="1118" y1="50.0" x2="1118" y2="50.0" style="stroke:#999; stroke-width:3;" />
  <line x1="1118" y1="50.0" x2="1118" y2="50.0" style="stroke:#999; stroke-width:3;" />
  <line x1="1118" y1="50.0" x2="1138" y2="50.0" style="stroke:#999; stroke-width:3;" />
  <rect class="anc_exon" x="1138" y="35.0" width="108" height="30" style="fill:#87bcbc;fill-opacity:1.00" />
  <line x1="1246" y1="50.0" x2="1266" y2="50.0" style="stroke:#999; stroke-width:3;" />
  <line x1="1266" y1="50.0" x2="1266" y2="50.0" style="stroke:#999; stroke-width:3;" />
  <line x1="1266" y1="50.0" x2="1266" y2="50.0" style="stroke:#999; stroke-width:3;" />
  <line x1="1266" y1="50.0" x2="1286" y2="50.0" style="stroke:#999; stroke-width:3;" />
  <rect class="anc_exon" x="1286" y="35.0" width="83" height="30" style="fill:#87bcbc;fill-opacity:1.00" />
  <line x1="1369" y1="50.0" x2="1409" y2="50.0" style="stroke:#999; stroke-width:3;" />
  <rect class="anc_exon" x="1409" y="35.0" width="148" height="30" style="fill:#87bcbc;fill-opacity:1.00" />
  <line x1="1557" y1="50.0" x2="1597" y2="50.0" style="stroke:#999; stroke-width:3;" />
  <rect class="anc_exon" x="1597" y="35.0" width="110" height="30" style="fill:#87bcbc;fill-opacity:1.00" />
  <line x1="1707" y1="50.0" x2="1747" y2="50.0" style="stroke:#999; stroke-width:3;" />
  <rect class="anc_exon" x="1747" y="35.0" width="67" height="30" style="fill:#87bcbc;fill-opacity:1.00" />
  <line x1="1814" y1="50.0" x2="1834" y2="50.0" style="stroke:#999; stroke-width:3;" />
  <line x1="1834" y1="50.0" x2="1834" y2="50.0" style="stroke:#999; stroke-width:3;" />
  <line x1="1834" y1="50.0" x2="1834" y2="50.0" style="stroke:#999; stroke-width:3;" />
  <line x1="1834" y1="50.0" x2="1854" y2="50.0" style="stroke:#999; stroke-width:3;" />
  <rect class="anc_exon" x="1854" y="35.0" width="84" height="30" style="fill:#87bcbc;fill-opacity:1.00" />
  <line x1="1938" y1="50.0" x2="1978" y2="50.0" style="stroke:#999; stroke-width:3;" />
  <rect class="anc_exon" x="1978" y="35.0" width="57" height="30" style="fill:#87bcbc;fill-opacity:1.00" />
  <line x1="2035" y1="50.0" x2="2055" y2="50.0" style="stroke:#999; stroke-width:3;" />
  <line x1="2055" y1="50.0" x2="2055" y2="50.0" style="stroke:#999; stroke-width:3;" />
  <line x1="2055" y1="50.0" x2="2055" y2="50.0" style="stroke:#999; stroke-width:3;" />
  <line x1="2055" y1="50.0" x2="2075" y2="50.0" style="stroke:#999; stroke-width:3;" />
  <rect class="anc_exon" x="2075" y="35.0" width="135" height="30" style="fill:#87bcbc;fill-opacity:1.00" />
  <line x1="2210" y1="50.0" x2="2250" y2="50.0" style="stroke:#999; stroke-width:3;" />
  <rect class="anc_exon" x="2250" y="35.0" width="124" height="30" style="fill:#87bcbc;fill-opacity:1.00" />
  <line x1="2374" y1="50.0" x2="2394" y2="50.0" style="stroke:#999; stroke-width:3;" />
  <line x1="2394" y1="50.0" x2="2394" y2="50.0" style="stroke:#999; stroke-width:3;" />
  <line x1="2394" y1="50.0" x2="2394" y2="50.0" style="stroke:#999; stroke-width:3;" />
  <line x1="2394" y1="50.0" x2="2414" y2="50.0" style="stroke:#999; stroke-width:3;" />
  <rect class="anc_exon" x="2414" y="35.0" width="142" height="30" style="fill:#87bcbc;fill-opacity:1.00" />
  <line x1="2556" y1="50.0" x2="2596" y2="50.0" style="stroke:#999; stroke-width:3;" />
  <rect class="anc_exon" x="2596" y="35.0" width="112" height="30" style="fill:#87bcbc;fill-opacity:1.00" />
  <line x1="2708" y1="50.0" x2="2748" y2="50.0" style="stroke:#999; stroke-width:3;" />
  <rect class="anc_exon" x="2748" y="35.0" width="154" height="30" style="fill:#87bcbc;fill-opacity:1.00" />
  <line x1="2902" y1="50.0" x2="2922" y2="50.0" style="stroke:#999; stroke-width:3;" />
  <line x1="2922" y1="50.0" x2="2922" y2="50.0" style="stroke:#999; stroke-width:3;" />
  <line x1="2922" y1="50.0" x2="2922" y2="50.0" style="stroke:#999; stroke-width:3;" />
  <line x1="2922" y1="50.0" x2="2942" y2="50.0" style="stroke:#999; stroke-width:3;" />
  <rect class="anc_exon" x="2942" y="35.0" width="140" height="30" style="fill:#87bcbc;fill-opacity:1.00" />
  <line x1="3082" y1="50.0" x2="3102" y2="50.0" style="stroke:#999; stroke-width:3;" />
  <line x1="3102" y1="50.0" x2="3102" y2="50.0" style="stroke:#999; stroke-width:3;" />
  <line x1="3102" y1="50.0" x2="3102" y2="50.0" style="stroke:#999; stroke-width:3;" />
  <line x1="3102" y1="50.0" x2="3122" y2="50.0" style="stroke:#999; stroke-width:3;" />
  <rect class="anc_exon" x="3122" y="35.0" width="79" height="30" style="fill:#87bcbc;fill-opacity:1.00" />
  <line x1="3201" y1="50.0" x2="3241" y2="50.0" style="stroke:#999; stroke-width:3;" />
  <rect class="anc_exon" x="3241" y="35.0" width="73" height="30" style="fill:#87bcbc;fill-opacity:1.00" />
  <line x1="3314" y1="50.0" x2="3354" y2="50.0" style="stroke:#999; stroke-width:3;" />
  <rect class="anc_exon" x="3354" y="35.0" width="81" height="30" style="fill:#87bcbc;fill-opacity:1.00" />
  <line x1="3435" y1="50.0" x2="3455" y2="50.0" style="stroke:#999; stroke-width:3;" />
  <line x1="3455" y1="50.0" x2="3455" y2="50.0" style="stroke:#999; stroke-width:3;" />
  <line x1="3455" y1="50.0" x2="3455" y2="50.0" style="stroke:#999; stroke-width:3;" />
  <line x1="3455" y1="50.0" x2="3475" y2="50.0" style="stroke:#999; stroke-width:3;" />
  <rect class="anc_exon" x="3475" y="35.0" width="40" height="30" style="fill:#87bcbc;fill-opacity:1.00" />
  <rect class="anc_exon" x="3515" y="35.0" width="0" height="30" style="fill:#87bcbc;fill-opacity:1.00" />
  <text style="" >
<tspan x="0" y="83.0" style="font-size:18px;" >SP XM_031949358_1.1</tspan>  </text>



<script type="text/ecmascript">
<![CDATA[
function draw_bbox(text_id)
{
    var text_elem = document.getElementById(text_id);
    var offset_px = 2;
    var offset_py = 0;
    bbox = text_elem.getBBox();
    var box = document.createElementNS(document.rootElement.namespaceURI,'rect');
    box.setAttribute('x', bbox.x - offset_px);
    box.setAttribute('y', bbox.y - offset_py);
    box.setAttribute('width', bbox.width + offset_px * 2);
    box.setAttribute('height', bbox.height + offset_py * 2);
    box.setAttribute('style','fill: white;'+'stroke: black;'+'stroke-width: 1px;');
    text_elem.insertBefore(box,text_elem.childNodes[0]);

    var svg = text_elem.parentNode;
    svg.appendChild(text_elem);
}

for (var i=1; i < 1; i++)
{
draw_bbox("Mouseover" + i);
}
]]> 
</script>
</svg>
