<svg version="1.1"
xmlns="http://www.w3.org/2000/svg"
xmlns:xlink="http://www.w3.org/1999/xlink"
width="1736" height="100" viewBox = "0 0 1736 100"
onclick="mouseclick(evt)">

<script type="text/ecmascript">

<![CDATA[
    function mouseover(evt, target) { 
    var gv = document.getElementById("globalVariable");
    var previoustarget = gv.firstChild.nodeValue;
    if (previoustarget != "none") 
    {
        	document.getElementById(gv.firstChild.nodeValue).setAttributeNS(null, "visibility", "hidden");
    }
    document.getElementById(target).setAttributeNS(null, "visibility", "visible");
    gv.firstChild.nodeValue = target;
        }

    function mouseclick(evt) { 
    var gv = document.getElementById("globalVariable");
    var previoustarget = gv.firstChild.nodeValue;
    if (previoustarget != "none") {
        	document.getElementById(gv.firstChild.nodeValue).setAttributeNS(null, "visibility", "hidden");
        }
    }
]]>
  </script>
<style type="text/css" >

<![CDATA[
    rect.anc_exon {
              stroke-width:3;
                  }

    rect.non_anc_exon {
              stroke: black; stroke-width:3; stroke-dasharray: 5,5;
                    }

    text {
              font-size: 18px;
              font-family: Courier New;
          }
                    ]]>
</style>

<defs>
    <text x="150" y="40" id="globalVariable">none</text>
</defs>

  <rect class="anc_exon" x="0" y="35.0" width="0" height="30" style="fill:#87bcbc;fill-opacity:1.00" />
  <rect class="anc_exon" x="0" y="35.0" width="162.4" height="30" style="fill:#87bcbc;fill-opacity:1.00" />
  <line x1="162.4" y1="50.0" x2="181.4" y2="50.0" style="stroke:#999; stroke-width:3;" />
  <line x1="181.4" y1="50.0" x2="181.4" y2="50.0" style="stroke:#999; stroke-width:3;" />
  <line x1="181.4" y1="50.0" x2="181.4" y2="50.0" style="stroke:#999; stroke-width:3;" />
  <line x1="181.4" y1="50.0" x2="202.0" y2="50.0" style="stroke:#999; stroke-width:3;" />
  <rect class="anc_exon" x="202" y="35.0" width="92" height="30" style="fill:#87bcbc;fill-opacity:1.00" />
  <line x1="294" y1="50.0" x2="334" y2="50.0" style="stroke:#999; stroke-width:3;" />
  <rect class="anc_exon" x="334" y="35.0" width="132" height="30" style="fill:#87bcbc;fill-opacity:1.00" />
  <line x1="466" y1="50.0" x2="486" y2="50.0" style="stroke:#999; stroke-width:3;" />
  <line x1="486" y1="50.0" x2="486" y2="50.0" style="stroke:#999; stroke-width:3;" />
  <line x1="486" y1="50.0" x2="486" y2="50.0" style="stroke:#999; stroke-width:3;" />
  <line x1="486" y1="50.0" x2="506" y2="50.0" style="stroke:#999; stroke-width:3;" />
  <rect class="anc_exon" x="506" y="35.0" width="92" height="30" style="fill:#87bcbc;fill-opacity:1.00" />
  <line x1="598" y1="50.0" x2="618" y2="50.0" style="stroke:#999; stroke-width:3;" />
  <line x1="618" y1="50.0" x2="618" y2="50.0" style="stroke:#999; stroke-width:3;" />
  <line x1="618" y1="50.0" x2="618" y2="50.0" style="stroke:#999; stroke-width:3;" />
  <line x1="618" y1="50.0" x2="638" y2="50.0" style="stroke:#999; stroke-width:3;" />
  <rect class="anc_exon" x="638" y="35.0" width="190" height="30" style="fill:#87bcbc;fill-opacity:1.00" />
  <line x1="828" y1="50.0" x2="848" y2="50.0" style="stroke:#999; stroke-width:3;" />
  <line x1="848" y1="50.0" x2="848" y2="50.0" style="stroke:#999; stroke-width:3;" />
  <line x1="848" y1="50.0" x2="848" y2="50.0" style="stroke:#999; stroke-width:3;" />
  <line x1="848" y1="50.0" x2="868" y2="50.0" style="stroke:#999; stroke-width:3;" />
  <rect class="anc_exon" x="868" y="35.0" width="197" height="30" style="fill:#87bcbc;fill-opacity:1.00" />
  <line x1="1065" y1="50.0" x2="1085" y2="50.0" style="stroke:#999; stroke-width:3;" />
  <line x1="1085" y1="50.0" x2="1085" y2="50.0" style="stroke:#999; stroke-width:3;" />
  <line x1="1085" y1="50.0" x2="1085" y2="50.0" style="stroke:#999; stroke-width:3;" />
  <line x1="1085" y1="50.0" x2="1105" y2="50.0" style="stroke:#999; stroke-width:3;" />
  <rect class="anc_exon" x="1105" y="35.0" width="141" height="30" style="fill:#87bcbc;fill-opacity:1.00" />
  <line x1="1246" y1="50.0" x2="1266" y2="50.0" style="stroke:#999; stroke-width:3;" />
  <line x1="1266" y1="50.0" x2="1266" y2="50.0" style="stroke:#999; stroke-width:3;" />
  <line x1="1266" y1="50.0" x2="1266" y2="50.0" style="stroke:#999; stroke-width:3;" />
  <line x1="1266" y1="50.0" x2="1286" y2="50.0" style="stroke:#999; stroke-width:3;" />
  <rect class="anc_exon" x="1286" y="35.0" width="120" height="30" style="fill:#87bcbc;fill-opacity:1.00" />
  <line x1="1406" y1="50.0" x2="1426" y2="50.0" style="stroke:#999; stroke-width:3;" />
  <line x1="1426" y1="50.0" x2="1426" y2="50.0" style="stroke:#999; stroke-width:3;" />
  <line x1="1426" y1="50.0" x2="1426" y2="50.0" style="stroke:#999; stroke-width:3;" />
  <line x1="1426" y1="50.0" x2="1446" y2="50.0" style="stroke:#999; stroke-width:3;" />
  <rect class="anc_exon" x="1446" y="35.0" width="254" height="30" style="fill:#87bcbc;fill-opacity:1.00" />
  <rect class="anc_exon" x="1700" y="35.0" width="0" height="30" style="fill:#87bcbc;fill-opacity:1.00" />
  <text style="" >
<tspan x="0" y="83.0" style="font-size:18px;" >SP XM_031952731_1.1</tspan>  </text>



<script type="text/ecmascript">
<![CDATA[
function draw_bbox(text_id)
{
    var text_elem = document.getElementById(text_id);
    var offset_px = 2;
    var offset_py = 0;
    bbox = text_elem.getBBox();
    var box = document.createElementNS(document.rootElement.namespaceURI,'rect');
    box.setAttribute('x', bbox.x - offset_px);
    box.setAttribute('y', bbox.y - offset_py);
    box.setAttribute('width', bbox.width + offset_px * 2);
    box.setAttribute('height', bbox.height + offset_py * 2);
    box.setAttribute('style','fill: white;'+'stroke: black;'+'stroke-width: 1px;');
    text_elem.insertBefore(box,text_elem.childNodes[0]);

    var svg = text_elem.parentNode;
    svg.appendChild(text_elem);
}

for (var i=1; i < 1; i++)
{
draw_bbox("Mouseover" + i);
}
]]> 
</script>
</svg>
