<svg version="1.1"
xmlns="http://www.w3.org/2000/svg"
xmlns:xlink="http://www.w3.org/1999/xlink"
width="3849" height="100" viewBox = "0 0 3849 100"
onclick="mouseclick(evt)">

<script type="text/ecmascript">

<![CDATA[
    function mouseover(evt, target) { 
    var gv = document.getElementById("globalVariable");
    var previoustarget = gv.firstChild.nodeValue;
    if (previoustarget != "none") 
    {
        	document.getElementById(gv.firstChild.nodeValue).setAttributeNS(null, "visibility", "hidden");
    }
    document.getElementById(target).setAttributeNS(null, "visibility", "visible");
    gv.firstChild.nodeValue = target;
        }

    function mouseclick(evt) { 
    var gv = document.getElementById("globalVariable");
    var previoustarget = gv.firstChild.nodeValue;
    if (previoustarget != "none") {
        	document.getElementById(gv.firstChild.nodeValue).setAttributeNS(null, "visibility", "hidden");
        }
    }
]]>
  </script>
<style type="text/css" >

<![CDATA[
    rect.anc_exon {
              stroke-width:3;
                  }

    rect.non_anc_exon {
              stroke: black; stroke-width:3; stroke-dasharray: 5,5;
                    }

    text {
              font-size: 18px;
              font-family: Courier New;
          }
                    ]]>
</style>

<defs>
    <text x="150" y="40" id="globalVariable">none</text>
</defs>

  <rect class="anc_exon" x="0" y="35.0" width="0" height="30" style="fill:#87bcbc;fill-opacity:1.00" />
  <rect class="anc_exon" x="0" y="35.0" width="151.20000000000002" height="30" style="fill:#87bcbc;fill-opacity:1.00" />
  <line x1="151.20000000000002" y1="50.0" x2="170.20000000000002" y2="50.0" style="stroke:#999; stroke-width:3;" />
  <line x1="170.20000000000002" y1="50.0" x2="170.20000000000002" y2="50.0" style="stroke:#999; stroke-width:3;" />
  <line x1="170.20000000000002" y1="50.0" x2="170.20000000000002" y2="50.0" style="stroke:#999; stroke-width:3;" />
  <line x1="170.20000000000002" y1="50.0" x2="191.0" y2="50.0" style="stroke:#999; stroke-width:3;" />
  <rect class="anc_exon" x="191" y="35.0" width="141" height="30" style="fill:#87bcbc;fill-opacity:1.00" />
  <line x1="332" y1="50.0" x2="352" y2="50.0" style="stroke:#999; stroke-width:3;" />
  <line x1="352" y1="50.0" x2="352" y2="50.0" style="stroke:#999; stroke-width:3;" />
  <line x1="352" y1="50.0" x2="352" y2="50.0" style="stroke:#999; stroke-width:3;" />
  <line x1="352" y1="50.0" x2="372" y2="50.0" style="stroke:#999; stroke-width:3;" />
  <rect class="anc_exon" x="372" y="35.0" width="85" height="30" style="fill:#87bcbc;fill-opacity:1.00" />
  <line x1="457" y1="50.0" x2="497" y2="50.0" style="stroke:#999; stroke-width:3;" />
  <rect class="anc_exon" x="497" y="35.0" width="226" height="30" style="fill:#87bcbc;fill-opacity:1.00" />
  <line x1="723" y1="50.0" x2="763" y2="50.0" style="stroke:#999; stroke-width:3;" />
  <rect class="anc_exon" x="763" y="35.0" width="201" height="30" style="fill:#87bcbc;fill-opacity:1.00" />
  <line x1="964" y1="50.0" x2="1004" y2="50.0" style="stroke:#999; stroke-width:3;" />
  <rect class="anc_exon" x="1004" y="35.0" width="122" height="30" style="fill:#87bcbc;fill-opacity:1.00" />
  <line x1="1126" y1="50.0" x2="1166" y2="50.0" style="stroke:#999; stroke-width:3;" />
  <rect class="anc_exon" x="1166" y="35.0" width="127" height="30" style="fill:#87bcbc;fill-opacity:1.00" />
  <line x1="1293" y1="50.0" x2="1333" y2="50.0" style="stroke:#999; stroke-width:3;" />
  <rect class="anc_exon" x="1333" y="35.0" width="72" height="30" style="fill:#87bcbc;fill-opacity:1.00" />
  <line x1="1405" y1="50.0" x2="1445" y2="50.0" style="stroke:#999; stroke-width:3;" />
  <rect class="anc_exon" x="1445" y="35.0" width="95" height="30" style="fill:#87bcbc;fill-opacity:1.00" />
  <line x1="1540" y1="50.0" x2="1580" y2="50.0" style="stroke:#999; stroke-width:3;" />
  <rect class="anc_exon" x="1580" y="35.0" width="168" height="30" style="fill:#87bcbc;fill-opacity:1.00" />
  <line x1="1748" y1="50.0" x2="1788" y2="50.0" style="stroke:#999; stroke-width:3;" />
  <rect class="anc_exon" x="1788" y="35.0" width="93" height="30" style="fill:#87bcbc;fill-opacity:1.00" />
  <line x1="1881" y1="50.0" x2="1901" y2="50.0" style="stroke:#999; stroke-width:3;" />
  <line x1="1901" y1="50.0" x2="1901" y2="50.0" style="stroke:#999; stroke-width:3;" />
  <line x1="1901" y1="50.0" x2="1901" y2="50.0" style="stroke:#999; stroke-width:3;" />
  <line x1="1901" y1="50.0" x2="1921" y2="50.0" style="stroke:#999; stroke-width:3;" />
  <rect class="anc_exon" x="1921" y="35.0" width="191" height="30" style="fill:#87bcbc;fill-opacity:1.00" />
  <line x1="2112" y1="50.0" x2="2152" y2="50.0" style="stroke:#999; stroke-width:3;" />
  <rect class="anc_exon" x="2152" y="35.0" width="147" height="30" style="fill:#87bcbc;fill-opacity:1.00" />
  <line x1="2299" y1="50.0" x2="2339" y2="50.0" style="stroke:#999; stroke-width:3;" />
  <rect class="anc_exon" x="2339" y="35.0" width="459" height="30" style="fill:#87bcbc;fill-opacity:1.00" />
  <line x1="2798" y1="50.0" x2="2818" y2="50.0" style="stroke:#999; stroke-width:3;" />
  <line x1="2818" y1="50.0" x2="2818" y2="50.0" style="stroke:#999; stroke-width:3;" />
  <line x1="2818" y1="50.0" x2="2818" y2="50.0" style="stroke:#999; stroke-width:3;" />
  <line x1="2818" y1="50.0" x2="2838" y2="50.0" style="stroke:#999; stroke-width:3;" />
  <rect class="anc_exon" x="2838" y="35.0" width="136" height="30" style="fill:#87bcbc;fill-opacity:1.00" />
  <line x1="2974" y1="50.0" x2="2994" y2="50.0" style="stroke:#999; stroke-width:3;" />
  <line x1="2994" y1="50.0" x2="2994" y2="50.0" style="stroke:#999; stroke-width:3;" />
  <line x1="2994" y1="50.0" x2="2994" y2="50.0" style="stroke:#999; stroke-width:3;" />
  <line x1="2994" y1="50.0" x2="3014" y2="50.0" style="stroke:#999; stroke-width:3;" />
  <rect class="anc_exon" x="3014" y="35.0" width="139" height="30" style="fill:#87bcbc;fill-opacity:1.00" />
  <line x1="3153" y1="50.0" x2="3193" y2="50.0" style="stroke:#999; stroke-width:3;" />
  <rect class="anc_exon" x="3193" y="35.0" width="74" height="30" style="fill:#87bcbc;fill-opacity:1.00" />
  <line x1="3267" y1="50.0" x2="3307" y2="50.0" style="stroke:#999; stroke-width:3;" />
  <rect class="anc_exon" x="3307" y="35.0" width="76" height="30" style="fill:#87bcbc;fill-opacity:1.00" />
  <line x1="3383" y1="50.0" x2="3423" y2="50.0" style="stroke:#999; stroke-width:3;" />
  <rect class="anc_exon" x="3423" y="35.0" width="166" height="30" style="fill:#87bcbc;fill-opacity:1.00" />
  <line x1="3589" y1="50.0" x2="3629" y2="50.0" style="stroke:#999; stroke-width:3;" />
  <rect class="anc_exon" x="3629" y="35.0" width="184" height="30" style="fill:#87bcbc;fill-opacity:1.00" />
  <rect class="anc_exon" x="3813" y="35.0" width="0" height="30" style="fill:#87bcbc;fill-opacity:1.00" />
  <text style="" >
<tspan x="0" y="83.0" style="font-size:18px;" >SP XM_031956574_1.1</tspan>  </text>



<script type="text/ecmascript">
<![CDATA[
function draw_bbox(text_id)
{
    var text_elem = document.getElementById(text_id);
    var offset_px = 2;
    var offset_py = 0;
    bbox = text_elem.getBBox();
    var box = document.createElementNS(document.rootElement.namespaceURI,'rect');
    box.setAttribute('x', bbox.x - offset_px);
    box.setAttribute('y', bbox.y - offset_py);
    box.setAttribute('width', bbox.width + offset_px * 2);
    box.setAttribute('height', bbox.height + offset_py * 2);
    box.setAttribute('style','fill: white;'+'stroke: black;'+'stroke-width: 1px;');
    text_elem.insertBefore(box,text_elem.childNodes[0]);

    var svg = text_elem.parentNode;
    svg.appendChild(text_elem);
}

for (var i=1; i < 1; i++)
{
draw_bbox("Mouseover" + i);
}
]]> 
</script>
</svg>
