<svg version="1.1"
xmlns="http://www.w3.org/2000/svg"
xmlns:xlink="http://www.w3.org/1999/xlink"
width="1597" height="100" viewBox = "0 0 1597 100"
onclick="mouseclick(evt)">

<script type="text/ecmascript">

<![CDATA[
    function mouseover(evt, target) { 
    var gv = document.getElementById("globalVariable");
    var previoustarget = gv.firstChild.nodeValue;
    if (previoustarget != "none") 
    {
        	document.getElementById(gv.firstChild.nodeValue).setAttributeNS(null, "visibility", "hidden");
    }
    document.getElementById(target).setAttributeNS(null, "visibility", "visible");
    gv.firstChild.nodeValue = target;
        }

    function mouseclick(evt) { 
    var gv = document.getElementById("globalVariable");
    var previoustarget = gv.firstChild.nodeValue;
    if (previoustarget != "none") {
        	document.getElementById(gv.firstChild.nodeValue).setAttributeNS(null, "visibility", "hidden");
        }
    }
]]>
  </script>
<style type="text/css" >

<![CDATA[
    rect.anc_exon {
              stroke-width:3;
                  }

    rect.non_anc_exon {
              stroke: black; stroke-width:3; stroke-dasharray: 5,5;
                    }

    text {
              font-size: 18px;
              font-family: Courier New;
          }
                    ]]>
</style>

<defs>
    <text x="150" y="40" id="globalVariable">none</text>
</defs>

  <rect class="anc_exon" x="0" y="35.0" width="0" height="30" style="fill:#87bcbc;fill-opacity:1.00" />
  <rect class="anc_exon" x="0" y="35.0" width="128.8" height="30" style="fill:#87bcbc;fill-opacity:1.00" />
  <line x1="128.8" y1="50.0" x2="147.8" y2="50.0" style="stroke:#999; stroke-width:3;" />
  <line x1="147.8" y1="50.0" x2="147.8" y2="50.0" style="stroke:#999; stroke-width:3;" />
  <line x1="147.8" y1="50.0" x2="147.8" y2="50.0" style="stroke:#999; stroke-width:3;" />
  <line x1="147.8" y1="50.0" x2="168.0" y2="50.0" style="stroke:#999; stroke-width:3;" />
  <rect class="anc_exon" x="168" y="35.0" width="108" height="30" style="fill:#87bcbc;fill-opacity:1.00" />
  <line x1="276" y1="50.0" x2="296" y2="50.0" style="stroke:#999; stroke-width:3;" />
  <line x1="296" y1="50.0" x2="296" y2="50.0" style="stroke:#999; stroke-width:3;" />
  <line x1="296" y1="50.0" x2="296" y2="50.0" style="stroke:#999; stroke-width:3;" />
  <line x1="296" y1="50.0" x2="316" y2="50.0" style="stroke:#999; stroke-width:3;" />
  <rect class="anc_exon" x="316" y="35.0" width="130" height="30" style="fill:#87bcbc;fill-opacity:1.00" />
  <line x1="446" y1="50.0" x2="466" y2="50.0" style="stroke:#999; stroke-width:3;" />
  <line x1="466" y1="50.0" x2="466" y2="50.0" style="stroke:#999; stroke-width:3;" />
  <line x1="466" y1="50.0" x2="466" y2="50.0" style="stroke:#999; stroke-width:3;" />
  <line x1="466" y1="50.0" x2="486" y2="50.0" style="stroke:#999; stroke-width:3;" />
  <rect class="anc_exon" x="486" y="35.0" width="35" height="30" style="fill:#87bcbc;fill-opacity:1.00" />
  <line x1="521" y1="50.0" x2="541" y2="50.0" style="stroke:#999; stroke-width:3;" />
  <line x1="541" y1="50.0" x2="541" y2="50.0" style="stroke:#999; stroke-width:3;" />
  <line x1="541" y1="50.0" x2="541" y2="50.0" style="stroke:#999; stroke-width:3;" />
  <line x1="541" y1="50.0" x2="561" y2="50.0" style="stroke:#999; stroke-width:3;" />
  <rect class="anc_exon" x="561" y="35.0" width="9" height="30" style="fill:#87bcbc;fill-opacity:1.00" />
  <line x1="570" y1="50.0" x2="590" y2="50.0" style="stroke:#999; stroke-width:3;" />
  <line x1="590" y1="50.0" x2="590" y2="50.0" style="stroke:#999; stroke-width:3;" />
  <line x1="590" y1="50.0" x2="590" y2="50.0" style="stroke:#999; stroke-width:3;" />
  <line x1="590" y1="50.0" x2="610" y2="50.0" style="stroke:#999; stroke-width:3;" />
  <rect class="anc_exon" x="610" y="35.0" width="92" height="30" style="fill:#87bcbc;fill-opacity:1.00" />
  <line x1="702" y1="50.0" x2="722" y2="50.0" style="stroke:#999; stroke-width:3;" />
  <line x1="722" y1="50.0" x2="722" y2="50.0" style="stroke:#999; stroke-width:3;" />
  <line x1="722" y1="50.0" x2="722" y2="50.0" style="stroke:#999; stroke-width:3;" />
  <line x1="722" y1="50.0" x2="742" y2="50.0" style="stroke:#999; stroke-width:3;" />
  <rect class="anc_exon" x="742" y="35.0" width="66" height="30" style="fill:#87bcbc;fill-opacity:1.00" />
  <line x1="808" y1="50.0" x2="828" y2="50.0" style="stroke:#999; stroke-width:3;" />
  <line x1="828" y1="50.0" x2="828" y2="50.0" style="stroke:#999; stroke-width:3;" />
  <line x1="828" y1="50.0" x2="828" y2="50.0" style="stroke:#999; stroke-width:3;" />
  <line x1="828" y1="50.0" x2="848" y2="50.0" style="stroke:#999; stroke-width:3;" />
  <rect class="anc_exon" x="848" y="35.0" width="158" height="30" style="fill:#87bcbc;fill-opacity:1.00" />
  <line x1="1006" y1="50.0" x2="1026" y2="50.0" style="stroke:#999; stroke-width:3;" />
  <line x1="1026" y1="50.0" x2="1026" y2="50.0" style="stroke:#999; stroke-width:3;" />
  <line x1="1026" y1="50.0" x2="1026" y2="50.0" style="stroke:#999; stroke-width:3;" />
  <line x1="1026" y1="50.0" x2="1046" y2="50.0" style="stroke:#999; stroke-width:3;" />
  <rect class="anc_exon" x="1046" y="35.0" width="110" height="30" style="fill:#87bcbc;fill-opacity:1.00" />
  <line x1="1156" y1="50.0" x2="1176" y2="50.0" style="stroke:#999; stroke-width:3;" />
  <line x1="1176" y1="50.0" x2="1176" y2="50.0" style="stroke:#999; stroke-width:3;" />
  <line x1="1176" y1="50.0" x2="1176" y2="50.0" style="stroke:#999; stroke-width:3;" />
  <line x1="1176" y1="50.0" x2="1196" y2="50.0" style="stroke:#999; stroke-width:3;" />
  <rect class="anc_exon" x="1196" y="35.0" width="87" height="30" style="fill:#87bcbc;fill-opacity:1.00" />
  <line x1="1283" y1="50.0" x2="1303" y2="50.0" style="stroke:#999; stroke-width:3;" />
  <line x1="1303" y1="50.0" x2="1303" y2="50.0" style="stroke:#999; stroke-width:3;" />
  <line x1="1303" y1="50.0" x2="1303" y2="50.0" style="stroke:#999; stroke-width:3;" />
  <line x1="1303" y1="50.0" x2="1323" y2="50.0" style="stroke:#999; stroke-width:3;" />
  <rect class="anc_exon" x="1323" y="35.0" width="72" height="30" style="fill:#87bcbc;fill-opacity:1.00" />
  <line x1="1395" y1="50.0" x2="1415" y2="50.0" style="stroke:#999; stroke-width:3;" />
  <line x1="1415" y1="50.0" x2="1415" y2="50.0" style="stroke:#999; stroke-width:3;" />
  <line x1="1415" y1="50.0" x2="1415" y2="50.0" style="stroke:#999; stroke-width:3;" />
  <line x1="1415" y1="50.0" x2="1435" y2="50.0" style="stroke:#999; stroke-width:3;" />
  <rect class="anc_exon" x="1435" y="35.0" width="126" height="30" style="fill:#87bcbc;fill-opacity:1.00" />
  <rect class="anc_exon" x="1561" y="35.0" width="0" height="30" style="fill:#87bcbc;fill-opacity:1.00" />
  <text style="" >
<tspan x="0" y="83.0" style="font-size:18px;" >SP XM_031956529_1.1</tspan>  </text>



<script type="text/ecmascript">
<![CDATA[
function draw_bbox(text_id)
{
    var text_elem = document.getElementById(text_id);
    var offset_px = 2;
    var offset_py = 0;
    bbox = text_elem.getBBox();
    var box = document.createElementNS(document.rootElement.namespaceURI,'rect');
    box.setAttribute('x', bbox.x - offset_px);
    box.setAttribute('y', bbox.y - offset_py);
    box.setAttribute('width', bbox.width + offset_px * 2);
    box.setAttribute('height', bbox.height + offset_py * 2);
    box.setAttribute('style','fill: white;'+'stroke: black;'+'stroke-width: 1px;');
    text_elem.insertBefore(box,text_elem.childNodes[0]);

    var svg = text_elem.parentNode;
    svg.appendChild(text_elem);
}

for (var i=1; i < 1; i++)
{
draw_bbox("Mouseover" + i);
}
]]> 
</script>
</svg>
