<svg version="1.1"
xmlns="http://www.w3.org/2000/svg"
xmlns:xlink="http://www.w3.org/1999/xlink"
width="2226" height="100" viewBox = "0 0 2226 100"
onclick="mouseclick(evt)">

<script type="text/ecmascript">

<![CDATA[
    function mouseover(evt, target) { 
    var gv = document.getElementById("globalVariable");
    var previoustarget = gv.firstChild.nodeValue;
    if (previoustarget != "none") 
    {
        	document.getElementById(gv.firstChild.nodeValue).setAttributeNS(null, "visibility", "hidden");
    }
    document.getElementById(target).setAttributeNS(null, "visibility", "visible");
    gv.firstChild.nodeValue = target;
        }

    function mouseclick(evt) { 
    var gv = document.getElementById("globalVariable");
    var previoustarget = gv.firstChild.nodeValue;
    if (previoustarget != "none") {
        	document.getElementById(gv.firstChild.nodeValue).setAttributeNS(null, "visibility", "hidden");
        }
    }
]]>
  </script>
<style type="text/css" >

<![CDATA[
    rect.anc_exon {
              stroke-width:3;
                  }

    rect.non_anc_exon {
              stroke: black; stroke-width:3; stroke-dasharray: 5,5;
                    }

    text {
              font-size: 18px;
              font-family: Courier New;
          }
                    ]]>
</style>

<defs>
    <text x="150" y="40" id="globalVariable">none</text>
</defs>

  <rect class="anc_exon" x="0" y="35.0" width="0" height="30" style="fill:#87bcbc;fill-opacity:1.00" />
  <rect class="anc_exon" x="0" y="35.0" width="90.4" height="30" style="fill:#87bcbc;fill-opacity:1.00" />
  <line x1="90.4" y1="50.0" x2="109.4" y2="50.0" style="stroke:#999; stroke-width:3;" />
  <line x1="109.4" y1="50.0" x2="109.4" y2="50.0" style="stroke:#999; stroke-width:3;" />
  <line x1="109.4" y1="50.0" x2="109.4" y2="50.0" style="stroke:#999; stroke-width:3;" />
  <line x1="109.4" y1="50.0" x2="130.0" y2="50.0" style="stroke:#999; stroke-width:3;" />
  <rect class="anc_exon" x="130" y="35.0" width="53" height="30" style="fill:#87bcbc;fill-opacity:1.00" />
  <line x1="183" y1="50.0" x2="223" y2="50.0" style="stroke:#999; stroke-width:3;" />
  <rect class="anc_exon" x="223" y="35.0" width="68" height="30" style="fill:#87bcbc;fill-opacity:1.00" />
  <line x1="291" y1="50.0" x2="331" y2="50.0" style="stroke:#999; stroke-width:3;" />
  <rect class="anc_exon" x="331" y="35.0" width="88" height="30" style="fill:#87bcbc;fill-opacity:1.00" />
  <line x1="419" y1="50.0" x2="439" y2="50.0" style="stroke:#999; stroke-width:3;" />
  <line x1="439" y1="50.0" x2="439" y2="50.0" style="stroke:#999; stroke-width:3;" />
  <line x1="439" y1="50.0" x2="439" y2="50.0" style="stroke:#999; stroke-width:3;" />
  <line x1="439" y1="50.0" x2="459" y2="50.0" style="stroke:#999; stroke-width:3;" />
  <rect class="anc_exon" x="459" y="35.0" width="133" height="30" style="fill:#87bcbc;fill-opacity:1.00" />
  <line x1="592" y1="50.0" x2="612" y2="50.0" style="stroke:#999; stroke-width:3;" />
  <line x1="612" y1="50.0" x2="612" y2="50.0" style="stroke:#999; stroke-width:3;" />
  <line x1="612" y1="50.0" x2="612" y2="50.0" style="stroke:#999; stroke-width:3;" />
  <line x1="612" y1="50.0" x2="632" y2="50.0" style="stroke:#999; stroke-width:3;" />
  <rect class="anc_exon" x="632" y="35.0" width="98" height="30" style="fill:#87bcbc;fill-opacity:1.00" />
  <line x1="730" y1="50.0" x2="750" y2="50.0" style="stroke:#999; stroke-width:3;" />
  <line x1="750" y1="50.0" x2="750" y2="50.0" style="stroke:#999; stroke-width:3;" />
  <line x1="750" y1="50.0" x2="750" y2="50.0" style="stroke:#999; stroke-width:3;" />
  <line x1="750" y1="50.0" x2="770" y2="50.0" style="stroke:#999; stroke-width:3;" />
  <rect class="anc_exon" x="770" y="35.0" width="54" height="30" style="fill:#87bcbc;fill-opacity:1.00" />
  <line x1="824" y1="50.0" x2="864" y2="50.0" style="stroke:#999; stroke-width:3;" />
  <rect class="anc_exon" x="864" y="35.0" width="61" height="30" style="fill:#87bcbc;fill-opacity:1.00" />
  <line x1="925" y1="50.0" x2="965" y2="50.0" style="stroke:#999; stroke-width:3;" />
  <rect class="anc_exon" x="965" y="35.0" width="49" height="30" style="fill:#87bcbc;fill-opacity:1.00" />
  <line x1="1014" y1="50.0" x2="1054" y2="50.0" style="stroke:#999; stroke-width:3;" />
  <rect class="anc_exon" x="1054" y="35.0" width="130" height="30" style="fill:#87bcbc;fill-opacity:1.00" />
  <line x1="1184" y1="50.0" x2="1204" y2="50.0" style="stroke:#999; stroke-width:3;" />
  <line x1="1204" y1="50.0" x2="1204" y2="50.0" style="stroke:#999; stroke-width:3;" />
  <line x1="1204" y1="50.0" x2="1204" y2="50.0" style="stroke:#999; stroke-width:3;" />
  <line x1="1204" y1="50.0" x2="1224" y2="50.0" style="stroke:#999; stroke-width:3;" />
  <rect class="anc_exon" x="1224" y="35.0" width="60" height="30" style="fill:#87bcbc;fill-opacity:1.00" />
  <line x1="1284" y1="50.0" x2="1324" y2="50.0" style="stroke:#999; stroke-width:3;" />
  <rect class="anc_exon" x="1324" y="35.0" width="107" height="30" style="fill:#87bcbc;fill-opacity:1.00" />
  <line x1="1431" y1="50.0" x2="1471" y2="50.0" style="stroke:#999; stroke-width:3;" />
  <rect class="anc_exon" x="1471" y="35.0" width="94" height="30" style="fill:#87bcbc;fill-opacity:1.00" />
  <line x1="1565" y1="50.0" x2="1605" y2="50.0" style="stroke:#999; stroke-width:3;" />
  <rect class="anc_exon" x="1605" y="35.0" width="81" height="30" style="fill:#87bcbc;fill-opacity:1.00" />
  <line x1="1686" y1="50.0" x2="1726" y2="50.0" style="stroke:#999; stroke-width:3;" />
  <rect class="anc_exon" x="1726" y="35.0" width="131" height="30" style="fill:#87bcbc;fill-opacity:1.00" />
  <line x1="1857" y1="50.0" x2="1897" y2="50.0" style="stroke:#999; stroke-width:3;" />
  <rect class="anc_exon" x="1897" y="35.0" width="117" height="30" style="fill:#87bcbc;fill-opacity:1.00" />
  <line x1="2014" y1="50.0" x2="2054" y2="50.0" style="stroke:#999; stroke-width:3;" />
  <rect class="anc_exon" x="2054" y="35.0" width="136" height="30" style="fill:#87bcbc;fill-opacity:1.00" />
  <rect class="anc_exon" x="2190" y="35.0" width="0" height="30" style="fill:#87bcbc;fill-opacity:1.00" />
  <text style="" >
<tspan x="0" y="83.0" style="font-size:18px;" >SP XM_031956623_1.1</tspan>  </text>



<script type="text/ecmascript">
<![CDATA[
function draw_bbox(text_id)
{
    var text_elem = document.getElementById(text_id);
    var offset_px = 2;
    var offset_py = 0;
    bbox = text_elem.getBBox();
    var box = document.createElementNS(document.rootElement.namespaceURI,'rect');
    box.setAttribute('x', bbox.x - offset_px);
    box.setAttribute('y', bbox.y - offset_py);
    box.setAttribute('width', bbox.width + offset_px * 2);
    box.setAttribute('height', bbox.height + offset_py * 2);
    box.setAttribute('style','fill: white;'+'stroke: black;'+'stroke-width: 1px;');
    text_elem.insertBefore(box,text_elem.childNodes[0]);

    var svg = text_elem.parentNode;
    svg.appendChild(text_elem);
}

for (var i=1; i < 1; i++)
{
draw_bbox("Mouseover" + i);
}
]]> 
</script>
</svg>
