<svg version="1.1"
xmlns="http://www.w3.org/2000/svg"
xmlns:xlink="http://www.w3.org/1999/xlink"
width="4487" height="110.0" viewBox = "0 -10.0 4487 110.0"
onclick="mouseclick(evt)">

<script type="text/ecmascript">

<![CDATA[
    function mouseover(evt, target) { 
    var gv = document.getElementById("globalVariable");
    var previoustarget = gv.firstChild.nodeValue;
    if (previoustarget != "none") 
    {
        	document.getElementById(gv.firstChild.nodeValue).setAttributeNS(null, "visibility", "hidden");
    }
    document.getElementById(target).setAttributeNS(null, "visibility", "visible");
    gv.firstChild.nodeValue = target;
        }

    function mouseclick(evt) { 
    var gv = document.getElementById("globalVariable");
    var previoustarget = gv.firstChild.nodeValue;
    if (previoustarget != "none") {
        	document.getElementById(gv.firstChild.nodeValue).setAttributeNS(null, "visibility", "hidden");
        }
    }
]]>
  </script>
<style type="text/css" >

<![CDATA[
    rect.anc_exon {
              stroke-width:3;
                  }

    rect.non_anc_exon {
              stroke: black; stroke-width:3; stroke-dasharray: 5,5;
                    }

    text {
              font-size: 18px;
              font-family: Courier New;
          }
                    ]]>
</style>

<defs>
    <text x="150" y="40" id="globalVariable">none</text>
</defs>

  <rect class="anc_exon" x="0" y="35.0" width="0" height="30" style="fill:#87bcbc;fill-opacity:1.00" />
  <rect class="anc_exon" x="0" y="35.0" width="617.6" height="30" style="fill:#87bcbc;fill-opacity:1.00" />
  <line x1="617.6" y1="50.0" x2="636.6" y2="50.0" style="stroke:#999; stroke-width:3;" />
  <line x1="636.6" y1="50.0" x2="636.6" y2="50.0" style="stroke:#999; stroke-width:3;" />
  <line x1="636.6" y1="50.0" x2="636.6" y2="50.0" style="stroke:#999; stroke-width:3;" />
  <line x1="636.6" y1="50.0" x2="657.0" y2="50.0" style="stroke:#999; stroke-width:3;" />
  <rect class="anc_exon" x="657" y="35.0" width="14" height="30" style="fill:#87bcbc;fill-opacity:1.00" />
  <line x1="671" y1="50.0" x2="691" y2="50.0" style="stroke:#999; stroke-width:3;" />
  <line x1="691" y1="50.0" x2="691" y2="50.0" style="stroke:#999; stroke-width:3;" />
  <line x1="691" y1="50.0" x2="691" y2="50.0" style="stroke:#999; stroke-width:3;" />
  <line x1="691" y1="50.0" x2="711" y2="50.0" style="stroke:#999; stroke-width:3;" />
  <rect class="anc_exon" x="711" y="35.0" width="24" height="30" style="fill:#87bcbc;fill-opacity:1.00" />
  <line x1="735" y1="50.0" x2="775" y2="50.0" style="stroke:#999; stroke-width:3;" />
  <rect class="anc_exon" x="775" y="35.0" width="9" height="30" style="fill:#cf232b;fill-opacity:1.00" />
  <line x1="784" y1="50.0" x2="804" y2="50.0" style="stroke:#999; stroke-width:3;" />
  <line x1="804" y1="50.0" x2="804" y2="50.0" style="stroke:#999; stroke-width:3;" />
  <line x1="804" y1="50.0" x2="804" y2="50.0" style="stroke:#999; stroke-width:3;" />
  <line x1="804" y1="50.0" x2="824" y2="50.0" style="stroke:#999; stroke-width:3;" />
  <rect class="anc_exon" x="824" y="35.0" width="241" height="30" style="fill:#87bcbc;fill-opacity:1.00" />
  <line x1="824.8" y1="35.0" x2="824.8" y2="65.0" style="stroke:#121212;stroke-width:3;"/>
  <text style="" text-anchor="middle">
<tspan x="824.0" y="26.0" style="font-size:18px;fill:#121212;" >TGA</tspan>  </text>
  <line x1="1065" y1="50.0" x2="1085" y2="50.0" style="stroke:#999; stroke-width:3;" />
  <line x1="1085" y1="50.0" x2="1085" y2="50.0" style="stroke:#999; stroke-width:3;" />
  <line x1="1085" y1="50.0" x2="1085" y2="50.0" style="stroke:#999; stroke-width:3;" />
  <line x1="1085" y1="50.0" x2="1105" y2="50.0" style="stroke:#999; stroke-width:3;" />
  <rect class="anc_exon" x="1105" y="35.0" width="129" height="30" style="fill:#87bcbc;fill-opacity:1.00" />
  <line x1="1234" y1="50.0" x2="1254" y2="50.0" style="stroke:#999; stroke-width:3;" />
  <line x1="1254" y1="50.0" x2="1254" y2="50.0" style="stroke:#999; stroke-width:3;" />
  <line x1="1254" y1="50.0" x2="1254" y2="50.0" style="stroke:#999; stroke-width:3;" />
  <line x1="1254" y1="50.0" x2="1274" y2="50.0" style="stroke:#999; stroke-width:3;" />
  <rect class="anc_exon" x="1274" y="35.0" width="351" height="30" style="fill:#87bcbc;fill-opacity:1.00" />
  <line x1="1625" y1="50.0" x2="1645" y2="50.0" style="stroke:#999; stroke-width:3;" />
  <line x1="1645" y1="50.0" x2="1645" y2="50.0" style="stroke:#999; stroke-width:3;" />
  <line x1="1645" y1="50.0" x2="1645" y2="50.0" style="stroke:#999; stroke-width:3;" />
  <line x1="1645" y1="50.0" x2="1665" y2="50.0" style="stroke:#999; stroke-width:3;" />
  <rect class="anc_exon" x="1665" y="35.0" width="307" height="30" style="fill:#87bcbc;fill-opacity:1.00" />
  <line x1="1972" y1="50.0" x2="1992" y2="50.0" style="stroke:#999; stroke-width:3;" />
  <line x1="1992" y1="50.0" x2="1992" y2="50.0" style="stroke:#999; stroke-width:3;" />
  <line x1="1992" y1="50.0" x2="1992" y2="50.0" style="stroke:#999; stroke-width:3;" />
  <line x1="1992" y1="50.0" x2="2012" y2="50.0" style="stroke:#999; stroke-width:3;" />
  <rect class="anc_exon" x="2012" y="35.0" width="163" height="30" style="fill:#87bcbc;fill-opacity:1.00" />
  <line x1="2175" y1="50.0" x2="2195" y2="50.0" style="stroke:#999; stroke-width:3;" />
  <line x1="2195" y1="50.0" x2="2195" y2="50.0" style="stroke:#999; stroke-width:3;" />
  <line x1="2195" y1="50.0" x2="2195" y2="50.0" style="stroke:#999; stroke-width:3;" />
  <line x1="2195" y1="50.0" x2="2215" y2="50.0" style="stroke:#999; stroke-width:3;" />
  <rect class="anc_exon" x="2215" y="35.0" width="21" height="30" style="fill:#87bcbc;fill-opacity:1.00" />
  <line x1="2236" y1="50.0" x2="2256" y2="50.0" style="stroke:#999; stroke-width:3;" />
  <line x1="2256" y1="50.0" x2="2256" y2="50.0" style="stroke:#999; stroke-width:3;" />
  <line x1="2256" y1="50.0" x2="2256" y2="50.0" style="stroke:#999; stroke-width:3;" />
  <line x1="2256" y1="50.0" x2="2276" y2="50.0" style="stroke:#999; stroke-width:3;" />
  <rect class="anc_exon" x="2276" y="35.0" width="98" height="30" style="fill:#87bcbc;fill-opacity:1.00" />
  <line x1="2374" y1="50.0" x2="2394" y2="50.0" style="stroke:#999; stroke-width:3;" />
  <line x1="2394" y1="50.0" x2="2394" y2="50.0" style="stroke:#999; stroke-width:3;" />
  <line x1="2394" y1="50.0" x2="2394" y2="50.0" style="stroke:#999; stroke-width:3;" />
  <line x1="2394" y1="50.0" x2="2414" y2="50.0" style="stroke:#999; stroke-width:3;" />
  <rect class="anc_exon" x="2414" y="35.0" width="305" height="30" style="fill:#87bcbc;fill-opacity:1.00" />
  <line x1="2719" y1="50.0" x2="2759" y2="50.0" style="stroke:#999; stroke-width:3;" />
  <rect class="anc_exon" x="2759" y="35.0" width="152" height="30" style="fill:#87bcbc;fill-opacity:1.00" />
  <line x1="2911" y1="50.0" x2="2931" y2="50.0" style="stroke:#999; stroke-width:3;" />
  <line x1="2931" y1="50.0" x2="2931" y2="50.0" style="stroke:#999; stroke-width:3;" />
  <line x1="2931" y1="50.0" x2="2931" y2="50.0" style="stroke:#999; stroke-width:3;" />
  <line x1="2931" y1="50.0" x2="2951" y2="50.0" style="stroke:#999; stroke-width:3;" />
  <rect class="anc_exon" x="2951" y="35.0" width="139" height="30" style="fill:#87bcbc;fill-opacity:1.00" />
  <line x1="3090" y1="50.0" x2="3110" y2="50.0" style="stroke:#999; stroke-width:3;" />
  <line x1="3110" y1="50.0" x2="3110" y2="50.0" style="stroke:#999; stroke-width:3;" />
  <line x1="3110" y1="50.0" x2="3110" y2="50.0" style="stroke:#999; stroke-width:3;" />
  <line x1="3110" y1="50.0" x2="3130" y2="50.0" style="stroke:#999; stroke-width:3;" />
  <rect class="anc_exon" x="3130" y="35.0" width="21" height="30" style="fill:#87bcbc;fill-opacity:1.00" />
  <line x1="3151" y1="50.0" x2="3191" y2="50.0" style="stroke:#999; stroke-width:3;" />
  <rect class="anc_exon" x="3191" y="35.0" width="96" height="30" style="fill:#87bcbc;fill-opacity:1.00" />
  <line x1="3287" y1="50.0" x2="3307" y2="50.0" style="stroke:#999; stroke-width:3;" />
  <line x1="3307" y1="50.0" x2="3307" y2="50.0" style="stroke:#999; stroke-width:3;" />
  <line x1="3307" y1="50.0" x2="3307" y2="50.0" style="stroke:#999; stroke-width:3;" />
  <line x1="3307" y1="50.0" x2="3327" y2="50.0" style="stroke:#999; stroke-width:3;" />
  <rect class="anc_exon" x="3327" y="35.0" width="145" height="30" style="fill:#87bcbc;fill-opacity:1.00" />
  <line x1="3472" y1="50.0" x2="3492" y2="50.0" style="stroke:#999; stroke-width:3;" />
  <line x1="3492" y1="50.0" x2="3492" y2="50.0" style="stroke:#999; stroke-width:3;" />
  <line x1="3492" y1="50.0" x2="3492" y2="50.0" style="stroke:#999; stroke-width:3;" />
  <line x1="3492" y1="50.0" x2="3512" y2="50.0" style="stroke:#999; stroke-width:3;" />
  <rect class="anc_exon" x="3512" y="35.0" width="137" height="30" style="fill:#87bcbc;fill-opacity:1.00" />
  <line x1="3649" y1="50.0" x2="3669" y2="50.0" style="stroke:#999; stroke-width:3;" />
  <line x1="3669" y1="50.0" x2="3669" y2="50.0" style="stroke:#999; stroke-width:3;" />
  <line x1="3669" y1="50.0" x2="3669" y2="50.0" style="stroke:#999; stroke-width:3;" />
  <line x1="3669" y1="50.0" x2="3689" y2="50.0" style="stroke:#999; stroke-width:3;" />
  <rect class="anc_exon" x="3689" y="35.0" width="72" height="30" style="fill:#87bcbc;fill-opacity:1.00" />
  <line x1="3761" y1="50.0" x2="3801" y2="50.0" style="stroke:#999; stroke-width:3;" />
  <rect class="anc_exon" x="3801" y="35.0" width="256" height="30" style="fill:#87bcbc;fill-opacity:1.00" />
  <line x1="4057" y1="50.0" x2="4077" y2="50.0" style="stroke:#999; stroke-width:3;" />
  <line x1="4077" y1="50.0" x2="4077" y2="50.0" style="stroke:#999; stroke-width:3;" />
  <line x1="4077" y1="50.0" x2="4077" y2="50.0" style="stroke:#999; stroke-width:3;" />
  <line x1="4077" y1="50.0" x2="4097" y2="50.0" style="stroke:#999; stroke-width:3;" />
  <rect class="anc_exon" x="4097" y="35.0" width="70" height="30" style="fill:#87bcbc;fill-opacity:1.00" />
  <line x1="4167" y1="50.0" x2="4187" y2="50.0" style="stroke:#999; stroke-width:3;" />
  <line x1="4187" y1="50.0" x2="4187" y2="50.0" style="stroke:#999; stroke-width:3;" />
  <line x1="4187" y1="50.0" x2="4187" y2="50.0" style="stroke:#999; stroke-width:3;" />
  <line x1="4187" y1="50.0" x2="4207" y2="50.0" style="stroke:#999; stroke-width:3;" />
  <rect class="anc_exon" x="4207" y="35.0" width="244" height="30" style="fill:#87bcbc;fill-opacity:1.00" />
  <rect class="anc_exon" x="4451" y="35.0" width="0" height="30" style="fill:#87bcbc;fill-opacity:1.00" />
  <text style="" >
<tspan x="0" y="83.0" style="font-size:18px;" >SP XM_031957179_1.1</tspan>  </text>



<script type="text/ecmascript">
<![CDATA[
function draw_bbox(text_id)
{
    var text_elem = document.getElementById(text_id);
    var offset_px = 2;
    var offset_py = 0;
    bbox = text_elem.getBBox();
    var box = document.createElementNS(document.rootElement.namespaceURI,'rect');
    box.setAttribute('x', bbox.x - offset_px);
    box.setAttribute('y', bbox.y - offset_py);
    box.setAttribute('width', bbox.width + offset_px * 2);
    box.setAttribute('height', bbox.height + offset_py * 2);
    box.setAttribute('style','fill: white;'+'stroke: black;'+'stroke-width: 1px;');
    text_elem.insertBefore(box,text_elem.childNodes[0]);

    var svg = text_elem.parentNode;
    svg.appendChild(text_elem);
}

for (var i=1; i < 1; i++)
{
draw_bbox("Mouseover" + i);
}
]]> 
</script>
</svg>
