<svg version="1.1"
xmlns="http://www.w3.org/2000/svg"
xmlns:xlink="http://www.w3.org/1999/xlink"
width="5406" height="100" viewBox = "0 0 5406 100"
onclick="mouseclick(evt)">

<script type="text/ecmascript">

<![CDATA[
    function mouseover(evt, target) { 
    var gv = document.getElementById("globalVariable");
    var previoustarget = gv.firstChild.nodeValue;
    if (previoustarget != "none") 
    {
        	document.getElementById(gv.firstChild.nodeValue).setAttributeNS(null, "visibility", "hidden");
    }
    document.getElementById(target).setAttributeNS(null, "visibility", "visible");
    gv.firstChild.nodeValue = target;
        }

    function mouseclick(evt) { 
    var gv = document.getElementById("globalVariable");
    var previoustarget = gv.firstChild.nodeValue;
    if (previoustarget != "none") {
        	document.getElementById(gv.firstChild.nodeValue).setAttributeNS(null, "visibility", "hidden");
        }
    }
]]>
  </script>
<style type="text/css" >

<![CDATA[
    rect.anc_exon {
              stroke-width:3;
                  }

    rect.non_anc_exon {
              stroke: black; stroke-width:3; stroke-dasharray: 5,5;
                    }

    text {
              font-size: 18px;
              font-family: Courier New;
          }
                    ]]>
</style>

<defs>
    <text x="150" y="40" id="globalVariable">none</text>
</defs>

  <rect class="anc_exon" x="0" y="35.0" width="0" height="30" style="fill:#87bcbc;fill-opacity:1.00" />
  <rect class="anc_exon" x="0" y="35.0" width="109.60000000000001" height="30" style="fill:#87bcbc;fill-opacity:1.00" />
  <line x1="109.60000000000001" y1="50.0" x2="149.0" y2="50.0" style="stroke:#999; stroke-width:3;" />
  <rect class="anc_exon" x="149" y="35.0" width="80" height="30" style="fill:#87bcbc;fill-opacity:1.00" />
  <line x1="229" y1="50.0" x2="249" y2="50.0" style="stroke:#999; stroke-width:3;" />
  <line x1="249" y1="50.0" x2="249" y2="50.0" style="stroke:#999; stroke-width:3;" />
  <line x1="249" y1="50.0" x2="249" y2="50.0" style="stroke:#999; stroke-width:3;" />
  <line x1="249" y1="50.0" x2="269" y2="50.0" style="stroke:#999; stroke-width:3;" />
  <rect class="anc_exon" x="269" y="35.0" width="96" height="30" style="fill:#87bcbc;fill-opacity:1.00" />
  <line x1="365" y1="50.0" x2="385" y2="50.0" style="stroke:#999; stroke-width:3;" />
  <line x1="385" y1="50.0" x2="385" y2="50.0" style="stroke:#999; stroke-width:3;" />
  <line x1="385" y1="50.0" x2="385" y2="50.0" style="stroke:#999; stroke-width:3;" />
  <line x1="385" y1="50.0" x2="405" y2="50.0" style="stroke:#999; stroke-width:3;" />
  <rect class="anc_exon" x="405" y="35.0" width="102" height="30" style="fill:#87bcbc;fill-opacity:1.00" />
  <line x1="507" y1="50.0" x2="527" y2="50.0" style="stroke:#999; stroke-width:3;" />
  <line x1="527" y1="50.0" x2="527" y2="50.0" style="stroke:#999; stroke-width:3;" />
  <line x1="527" y1="50.0" x2="527" y2="50.0" style="stroke:#999; stroke-width:3;" />
  <line x1="527" y1="50.0" x2="547" y2="50.0" style="stroke:#999; stroke-width:3;" />
  <rect class="anc_exon" x="547" y="35.0" width="36" height="30" style="fill:#87bcbc;fill-opacity:1.00" />
  <line x1="583" y1="50.0" x2="603" y2="50.0" style="stroke:#999; stroke-width:3;" />
  <line x1="603" y1="50.0" x2="603" y2="50.0" style="stroke:#999; stroke-width:3;" />
  <line x1="603" y1="50.0" x2="603" y2="50.0" style="stroke:#999; stroke-width:3;" />
  <line x1="603" y1="50.0" x2="623" y2="50.0" style="stroke:#999; stroke-width:3;" />
  <rect class="anc_exon" x="623" y="35.0" width="189" height="30" style="fill:#87bcbc;fill-opacity:1.00" />
  <line x1="812" y1="50.0" x2="832" y2="50.0" style="stroke:#999; stroke-width:3;" />
  <line x1="832" y1="50.0" x2="832" y2="50.0" style="stroke:#999; stroke-width:3;" />
  <line x1="832" y1="50.0" x2="832" y2="50.0" style="stroke:#999; stroke-width:3;" />
  <line x1="832" y1="50.0" x2="852" y2="50.0" style="stroke:#999; stroke-width:3;" />
  <rect class="anc_exon" x="852" y="35.0" width="101" height="30" style="fill:#87bcbc;fill-opacity:1.00" />
  <line x1="953" y1="50.0" x2="973" y2="50.0" style="stroke:#999; stroke-width:3;" />
  <line x1="973" y1="50.0" x2="973" y2="50.0" style="stroke:#999; stroke-width:3;" />
  <line x1="973" y1="50.0" x2="973" y2="50.0" style="stroke:#999; stroke-width:3;" />
  <line x1="973" y1="50.0" x2="993" y2="50.0" style="stroke:#999; stroke-width:3;" />
  <rect class="anc_exon" x="993" y="35.0" width="60" height="30" style="fill:#87bcbc;fill-opacity:1.00" />
  <line x1="1053" y1="50.0" x2="1073" y2="50.0" style="stroke:#999; stroke-width:3;" />
  <line x1="1073" y1="50.0" x2="1073" y2="50.0" style="stroke:#999; stroke-width:3;" />
  <line x1="1073" y1="50.0" x2="1073" y2="50.0" style="stroke:#999; stroke-width:3;" />
  <line x1="1073" y1="50.0" x2="1093" y2="50.0" style="stroke:#999; stroke-width:3;" />
  <rect class="anc_exon" x="1093" y="35.0" width="126" height="30" style="fill:#87bcbc;fill-opacity:1.00" />
  <line x1="1219" y1="50.0" x2="1239" y2="50.0" style="stroke:#999; stroke-width:3;" />
  <line x1="1239" y1="50.0" x2="1239" y2="50.0" style="stroke:#999; stroke-width:3;" />
  <line x1="1239" y1="50.0" x2="1239" y2="50.0" style="stroke:#999; stroke-width:3;" />
  <line x1="1239" y1="50.0" x2="1259" y2="50.0" style="stroke:#999; stroke-width:3;" />
  <rect class="anc_exon" x="1259" y="35.0" width="89" height="30" style="fill:#87bcbc;fill-opacity:1.00" />
  <line x1="1348" y1="50.0" x2="1368" y2="50.0" style="stroke:#999; stroke-width:3;" />
  <line x1="1368" y1="50.0" x2="1368" y2="50.0" style="stroke:#999; stroke-width:3;" />
  <line x1="1368" y1="50.0" x2="1368" y2="50.0" style="stroke:#999; stroke-width:3;" />
  <line x1="1368" y1="50.0" x2="1388" y2="50.0" style="stroke:#999; stroke-width:3;" />
  <rect class="anc_exon" x="1388" y="35.0" width="111" height="30" style="fill:#87bcbc;fill-opacity:1.00" />
  <line x1="1499" y1="50.0" x2="1539" y2="50.0" style="stroke:#999; stroke-width:3;" />
  <rect class="anc_exon" x="1539" y="35.0" width="40" height="30" style="fill:#87bcbc;fill-opacity:1.00" />
  <line x1="1579" y1="50.0" x2="1599" y2="50.0" style="stroke:#999; stroke-width:3;" />
  <line x1="1599" y1="50.0" x2="1599" y2="50.0" style="stroke:#999; stroke-width:3;" />
  <line x1="1599" y1="50.0" x2="1599" y2="50.0" style="stroke:#999; stroke-width:3;" />
  <line x1="1599" y1="50.0" x2="1619" y2="50.0" style="stroke:#999; stroke-width:3;" />
  <rect class="anc_exon" x="1619" y="35.0" width="164" height="30" style="fill:#87bcbc;fill-opacity:1.00" />
  <line x1="1783" y1="50.0" x2="1803" y2="50.0" style="stroke:#999; stroke-width:3;" />
  <line x1="1803" y1="50.0" x2="1803" y2="50.0" style="stroke:#999; stroke-width:3;" />
  <line x1="1803" y1="50.0" x2="1803" y2="50.0" style="stroke:#999; stroke-width:3;" />
  <line x1="1803" y1="50.0" x2="1823" y2="50.0" style="stroke:#999; stroke-width:3;" />
  <rect class="anc_exon" x="1823" y="35.0" width="118" height="30" style="fill:#87bcbc;fill-opacity:1.00" />
  <line x1="1941" y1="50.0" x2="1961" y2="50.0" style="stroke:#999; stroke-width:3;" />
  <line x1="1961" y1="50.0" x2="1961" y2="50.0" style="stroke:#999; stroke-width:3;" />
  <line x1="1961" y1="50.0" x2="1961" y2="50.0" style="stroke:#999; stroke-width:3;" />
  <line x1="1961" y1="50.0" x2="1981" y2="50.0" style="stroke:#999; stroke-width:3;" />
  <rect class="anc_exon" x="1981" y="35.0" width="70" height="30" style="fill:#87bcbc;fill-opacity:1.00" />
  <line x1="2051" y1="50.0" x2="2071" y2="50.0" style="stroke:#999; stroke-width:3;" />
  <line x1="2071" y1="50.0" x2="2071" y2="50.0" style="stroke:#999; stroke-width:3;" />
  <line x1="2071" y1="50.0" x2="2071" y2="50.0" style="stroke:#999; stroke-width:3;" />
  <line x1="2071" y1="50.0" x2="2091" y2="50.0" style="stroke:#999; stroke-width:3;" />
  <rect class="anc_exon" x="2091" y="35.0" width="232" height="30" style="fill:#87bcbc;fill-opacity:1.00" />
  <line x1="2323" y1="50.0" x2="2343" y2="50.0" style="stroke:#999; stroke-width:3;" />
  <line x1="2343" y1="50.0" x2="2343" y2="50.0" style="stroke:#999; stroke-width:3;" />
  <line x1="2343" y1="50.0" x2="2343" y2="50.0" style="stroke:#999; stroke-width:3;" />
  <line x1="2343" y1="50.0" x2="2363" y2="50.0" style="stroke:#999; stroke-width:3;" />
  <rect class="anc_exon" x="2363" y="35.0" width="104" height="30" style="fill:#87bcbc;fill-opacity:1.00" />
  <line x1="2467" y1="50.0" x2="2487" y2="50.0" style="stroke:#999; stroke-width:3;" />
  <line x1="2487" y1="50.0" x2="2487" y2="50.0" style="stroke:#999; stroke-width:3;" />
  <line x1="2487" y1="50.0" x2="2487" y2="50.0" style="stroke:#999; stroke-width:3;" />
  <line x1="2487" y1="50.0" x2="2507" y2="50.0" style="stroke:#999; stroke-width:3;" />
  <rect class="anc_exon" x="2507" y="35.0" width="154" height="30" style="fill:#87bcbc;fill-opacity:1.00" />
  <line x1="2661" y1="50.0" x2="2701" y2="50.0" style="stroke:#999; stroke-width:3;" />
  <rect class="anc_exon" x="2701" y="35.0" width="144" height="30" style="fill:#87bcbc;fill-opacity:1.00" />
  <line x1="2845" y1="50.0" x2="2865" y2="50.0" style="stroke:#999; stroke-width:3;" />
  <line x1="2865" y1="50.0" x2="2865" y2="50.0" style="stroke:#999; stroke-width:3;" />
  <line x1="2865" y1="50.0" x2="2865" y2="50.0" style="stroke:#999; stroke-width:3;" />
  <line x1="2865" y1="50.0" x2="2885" y2="50.0" style="stroke:#999; stroke-width:3;" />
  <rect class="anc_exon" x="2885" y="35.0" width="123" height="30" style="fill:#87bcbc;fill-opacity:1.00" />
  <line x1="3008" y1="50.0" x2="3028" y2="50.0" style="stroke:#999; stroke-width:3;" />
  <line x1="3028" y1="50.0" x2="3028" y2="50.0" style="stroke:#999; stroke-width:3;" />
  <line x1="3028" y1="50.0" x2="3028" y2="50.0" style="stroke:#999; stroke-width:3;" />
  <line x1="3028" y1="50.0" x2="3048" y2="50.0" style="stroke:#999; stroke-width:3;" />
  <rect class="anc_exon" x="3048" y="35.0" width="855" height="30" style="fill:#87bcbc;fill-opacity:1.00" />
  <line x1="3903" y1="50.0" x2="3923" y2="50.0" style="stroke:#999; stroke-width:3;" />
  <line x1="3923" y1="50.0" x2="3923" y2="50.0" style="stroke:#999; stroke-width:3;" />
  <line x1="3923" y1="50.0" x2="3923" y2="50.0" style="stroke:#999; stroke-width:3;" />
  <line x1="3923" y1="50.0" x2="3943" y2="50.0" style="stroke:#999; stroke-width:3;" />
  <rect class="anc_exon" x="3943" y="35.0" width="102" height="30" style="fill:#87bcbc;fill-opacity:1.00" />
  <line x1="4045" y1="50.0" x2="4065" y2="50.0" style="stroke:#999; stroke-width:3;" />
  <line x1="4065" y1="50.0" x2="4065" y2="50.0" style="stroke:#999; stroke-width:3;" />
  <line x1="4065" y1="50.0" x2="4065" y2="50.0" style="stroke:#999; stroke-width:3;" />
  <line x1="4065" y1="50.0" x2="4085" y2="50.0" style="stroke:#999; stroke-width:3;" />
  <rect class="anc_exon" x="4085" y="35.0" width="103" height="30" style="fill:#87bcbc;fill-opacity:1.00" />
  <line x1="4188" y1="50.0" x2="4208" y2="50.0" style="stroke:#999; stroke-width:3;" />
  <line x1="4208" y1="50.0" x2="4208" y2="50.0" style="stroke:#999; stroke-width:3;" />
  <line x1="4208" y1="50.0" x2="4208" y2="50.0" style="stroke:#999; stroke-width:3;" />
  <line x1="4208" y1="50.0" x2="4228" y2="50.0" style="stroke:#999; stroke-width:3;" />
  <rect class="anc_exon" x="4228" y="35.0" width="146" height="30" style="fill:#87bcbc;fill-opacity:1.00" />
  <line x1="4374" y1="50.0" x2="4394" y2="50.0" style="stroke:#999; stroke-width:3;" />
  <line x1="4394" y1="50.0" x2="4394" y2="50.0" style="stroke:#999; stroke-width:3;" />
  <line x1="4394" y1="50.0" x2="4394" y2="50.0" style="stroke:#999; stroke-width:3;" />
  <line x1="4394" y1="50.0" x2="4414" y2="50.0" style="stroke:#999; stroke-width:3;" />
  <rect class="anc_exon" x="4414" y="35.0" width="93" height="30" style="fill:#87bcbc;fill-opacity:1.00" />
  <line x1="4507" y1="50.0" x2="4527" y2="50.0" style="stroke:#999; stroke-width:3;" />
  <line x1="4527" y1="50.0" x2="4527" y2="50.0" style="stroke:#999; stroke-width:3;" />
  <line x1="4527" y1="50.0" x2="4527" y2="50.0" style="stroke:#999; stroke-width:3;" />
  <line x1="4527" y1="50.0" x2="4547" y2="50.0" style="stroke:#999; stroke-width:3;" />
  <rect class="anc_exon" x="4547" y="35.0" width="149" height="30" style="fill:#87bcbc;fill-opacity:1.00" />
  <line x1="4696" y1="50.0" x2="4736" y2="50.0" style="stroke:#999; stroke-width:3;" />
  <rect class="anc_exon" x="4736" y="35.0" width="164" height="30" style="fill:#87bcbc;fill-opacity:1.00" />
  <line x1="4900" y1="50.0" x2="4940" y2="50.0" style="stroke:#999; stroke-width:3;" />
  <rect class="anc_exon" x="4940" y="35.0" width="90" height="30" style="fill:#87bcbc;fill-opacity:1.00" />
  <line x1="5030" y1="50.0" x2="5050" y2="50.0" style="stroke:#999; stroke-width:3;" />
  <line x1="5050" y1="50.0" x2="5050" y2="50.0" style="stroke:#999; stroke-width:3;" />
  <line x1="5050" y1="50.0" x2="5050" y2="50.0" style="stroke:#999; stroke-width:3;" />
  <line x1="5050" y1="50.0" x2="5070" y2="50.0" style="stroke:#999; stroke-width:3;" />
  <rect class="anc_exon" x="5070" y="35.0" width="172" height="30" style="fill:#87bcbc;fill-opacity:1.00" />
  <line x1="5242" y1="50.0" x2="5282" y2="50.0" style="stroke:#999; stroke-width:3;" />
  <rect class="anc_exon" x="5282" y="35.0" width="88" height="30" style="fill:#87bcbc;fill-opacity:1.00" />
  <rect class="anc_exon" x="5370" y="35.0" width="0" height="30" style="fill:#87bcbc;fill-opacity:1.00" />
  <text style="" >
<tspan x="0" y="83.0" style="font-size:18px;" >SP XM_023496553_2.1</tspan>  </text>



<script type="text/ecmascript">
<![CDATA[
function draw_bbox(text_id)
{
    var text_elem = document.getElementById(text_id);
    var offset_px = 2;
    var offset_py = 0;
    bbox = text_elem.getBBox();
    var box = document.createElementNS(document.rootElement.namespaceURI,'rect');
    box.setAttribute('x', bbox.x - offset_px);
    box.setAttribute('y', bbox.y - offset_py);
    box.setAttribute('width', bbox.width + offset_px * 2);
    box.setAttribute('height', bbox.height + offset_py * 2);
    box.setAttribute('style','fill: white;'+'stroke: black;'+'stroke-width: 1px;');
    text_elem.insertBefore(box,text_elem.childNodes[0]);

    var svg = text_elem.parentNode;
    svg.appendChild(text_elem);
}

for (var i=1; i < 1; i++)
{
draw_bbox("Mouseover" + i);
}
]]> 
</script>
</svg>
