<svg version="1.1"
xmlns="http://www.w3.org/2000/svg"
xmlns:xlink="http://www.w3.org/1999/xlink"
width="7690" height="100" viewBox = "0 0 7690 100"
onclick="mouseclick(evt)">

<script type="text/ecmascript">

<![CDATA[
    function mouseover(evt, target) { 
    var gv = document.getElementById("globalVariable");
    var previoustarget = gv.firstChild.nodeValue;
    if (previoustarget != "none") 
    {
        	document.getElementById(gv.firstChild.nodeValue).setAttributeNS(null, "visibility", "hidden");
    }
    document.getElementById(target).setAttributeNS(null, "visibility", "visible");
    gv.firstChild.nodeValue = target;
        }

    function mouseclick(evt) { 
    var gv = document.getElementById("globalVariable");
    var previoustarget = gv.firstChild.nodeValue;
    if (previoustarget != "none") {
        	document.getElementById(gv.firstChild.nodeValue).setAttributeNS(null, "visibility", "hidden");
        }
    }
]]>
  </script>
<style type="text/css" >

<![CDATA[
    rect.anc_exon {
              stroke-width:3;
                  }

    rect.non_anc_exon {
              stroke: black; stroke-width:3; stroke-dasharray: 5,5;
                    }

    text {
              font-size: 18px;
              font-family: Courier New;
          }
                    ]]>
</style>

<defs>
    <text x="150" y="40" id="globalVariable">none</text>
</defs>

  <rect class="anc_exon" x="0" y="35.0" width="0" height="30" style="fill:#87bcbc;fill-opacity:1.00" />
  <rect class="anc_exon" x="0" y="35.0" width="674.4000000000001" height="30" style="fill:#87bcbc;fill-opacity:1.00" />
  <line x1="674.4000000000001" y1="50.0" x2="714.0" y2="50.0" style="stroke:#999; stroke-width:3;" />
  <rect class="anc_exon" x="714" y="35.0" width="302" height="30" style="fill:#87bcbc;fill-opacity:1.00" />
  <line x1="1016" y1="50.0" x2="1056" y2="50.0" style="stroke:#999; stroke-width:3;" />
  <rect class="anc_exon" x="1056" y="35.0" width="308" height="30" style="fill:#87bcbc;fill-opacity:1.00" />
  <line x1="1364" y1="50.0" x2="1404" y2="50.0" style="stroke:#999; stroke-width:3;" />
  <rect class="anc_exon" x="1404" y="35.0" width="92" height="30" style="fill:#87bcbc;fill-opacity:1.00" />
  <line x1="1496" y1="50.0" x2="1536" y2="50.0" style="stroke:#999; stroke-width:3;" />
  <rect class="anc_exon" x="1536" y="35.0" width="146" height="30" style="fill:#87bcbc;fill-opacity:1.00" />
  <line x1="1682" y1="50.0" x2="1722" y2="50.0" style="stroke:#999; stroke-width:3;" />
  <rect class="anc_exon" x="1722" y="35.0" width="55" height="30" style="fill:#87bcbc;fill-opacity:1.00" />
  <line x1="1777" y1="50.0" x2="1817" y2="50.0" style="stroke:#999; stroke-width:3;" />
  <rect class="anc_exon" x="1817" y="35.0" width="44" height="30" style="fill:#87bcbc;fill-opacity:1.00" />
  <line x1="1861" y1="50.0" x2="1901" y2="50.0" style="stroke:#999; stroke-width:3;" />
  <rect class="anc_exon" x="1901" y="35.0" width="94" height="30" style="fill:#87bcbc;fill-opacity:1.00" />
  <line x1="1995" y1="50.0" x2="2035" y2="50.0" style="stroke:#999; stroke-width:3;" />
  <rect class="anc_exon" x="2035" y="35.0" width="67" height="30" style="fill:#87bcbc;fill-opacity:1.00" />
  <line x1="2102" y1="50.0" x2="2122" y2="50.0" style="stroke:#999; stroke-width:3;" />
  <line x1="2122" y1="50.0" x2="2122" y2="50.0" style="stroke:#999; stroke-width:3;" />
  <line x1="2122" y1="50.0" x2="2122" y2="50.0" style="stroke:#999; stroke-width:3;" />
  <line x1="2122" y1="50.0" x2="2142" y2="50.0" style="stroke:#999; stroke-width:3;" />
  <rect class="anc_exon" x="2142" y="35.0" width="110" height="30" style="fill:#87bcbc;fill-opacity:1.00" />
  <line x1="2252" y1="50.0" x2="2292" y2="50.0" style="stroke:#999; stroke-width:3;" />
  <rect class="anc_exon" x="2292" y="35.0" width="97" height="30" style="fill:#87bcbc;fill-opacity:1.00" />
  <line x1="2389" y1="50.0" x2="2429" y2="50.0" style="stroke:#999; stroke-width:3;" />
  <rect class="anc_exon" x="2429" y="35.0" width="195" height="30" style="fill:#87bcbc;fill-opacity:1.00" />
  <line x1="2624" y1="50.0" x2="2664" y2="50.0" style="stroke:#999; stroke-width:3;" />
  <rect class="anc_exon" x="2664" y="35.0" width="141" height="30" style="fill:#87bcbc;fill-opacity:1.00" />
  <line x1="2805" y1="50.0" x2="2845" y2="50.0" style="stroke:#999; stroke-width:3;" />
  <rect class="anc_exon" x="2845" y="35.0" width="115" height="30" style="fill:#87bcbc;fill-opacity:1.00" />
  <line x1="2960" y1="50.0" x2="3000" y2="50.0" style="stroke:#999; stroke-width:3;" />
  <rect class="anc_exon" x="3000" y="35.0" width="204" height="30" style="fill:#87bcbc;fill-opacity:1.00" />
  <line x1="3204" y1="50.0" x2="3244" y2="50.0" style="stroke:#999; stroke-width:3;" />
  <rect class="anc_exon" x="3244" y="35.0" width="168" height="30" style="fill:#87bcbc;fill-opacity:1.00" />
  <line x1="3412" y1="50.0" x2="3452" y2="50.0" style="stroke:#999; stroke-width:3;" />
  <rect class="anc_exon" x="3452" y="35.0" width="156" height="30" style="fill:#87bcbc;fill-opacity:1.00" />
  <line x1="3608" y1="50.0" x2="3648" y2="50.0" style="stroke:#999; stroke-width:3;" />
  <rect class="anc_exon" x="3648" y="35.0" width="134" height="30" style="fill:#87bcbc;fill-opacity:1.00" />
  <line x1="3782" y1="50.0" x2="3822" y2="50.0" style="stroke:#999; stroke-width:3;" />
  <rect class="anc_exon" x="3822" y="35.0" width="144" height="30" style="fill:#87bcbc;fill-opacity:1.00" />
  <line x1="3966" y1="50.0" x2="4006" y2="50.0" style="stroke:#999; stroke-width:3;" />
  <rect class="anc_exon" x="4006" y="35.0" width="88" height="30" style="fill:#87bcbc;fill-opacity:1.00" />
  <line x1="4094" y1="50.0" x2="4134" y2="50.0" style="stroke:#999; stroke-width:3;" />
  <rect class="anc_exon" x="4134" y="35.0" width="157" height="30" style="fill:#87bcbc;fill-opacity:1.00" />
  <line x1="4291" y1="50.0" x2="4331" y2="50.0" style="stroke:#999; stroke-width:3;" />
  <rect class="anc_exon" x="4331" y="35.0" width="160" height="30" style="fill:#87bcbc;fill-opacity:1.00" />
  <line x1="4491" y1="50.0" x2="4531" y2="50.0" style="stroke:#999; stroke-width:3;" />
  <rect class="anc_exon" x="4531" y="35.0" width="125" height="30" style="fill:#87bcbc;fill-opacity:1.00" />
  <line x1="4656" y1="50.0" x2="4696" y2="50.0" style="stroke:#999; stroke-width:3;" />
  <rect class="anc_exon" x="4696" y="35.0" width="72" height="30" style="fill:#87bcbc;fill-opacity:1.00" />
  <line x1="4768" y1="50.0" x2="4808" y2="50.0" style="stroke:#999; stroke-width:3;" />
  <rect class="anc_exon" x="4808" y="35.0" width="83" height="30" style="fill:#87bcbc;fill-opacity:1.00" />
  <line x1="4891" y1="50.0" x2="4931" y2="50.0" style="stroke:#999; stroke-width:3;" />
  <rect class="anc_exon" x="4931" y="35.0" width="104" height="30" style="fill:#87bcbc;fill-opacity:1.00" />
  <line x1="5035" y1="50.0" x2="5055" y2="50.0" style="stroke:#999; stroke-width:3;" />
  <line x1="5055" y1="50.0" x2="5055" y2="50.0" style="stroke:#999; stroke-width:3;" />
  <line x1="5055" y1="50.0" x2="5055" y2="50.0" style="stroke:#999; stroke-width:3;" />
  <line x1="5055" y1="50.0" x2="5075" y2="50.0" style="stroke:#999; stroke-width:3;" />
  <rect class="anc_exon" x="5075" y="35.0" width="60" height="30" style="fill:#87bcbc;fill-opacity:1.00" />
  <line x1="5135" y1="50.0" x2="5175" y2="50.0" style="stroke:#999; stroke-width:3;" />
  <rect class="anc_exon" x="5175" y="35.0" width="44" height="30" style="fill:#87bcbc;fill-opacity:1.00" />
  <line x1="5219" y1="50.0" x2="5259" y2="50.0" style="stroke:#999; stroke-width:3;" />
  <rect class="anc_exon" x="5259" y="35.0" width="166" height="30" style="fill:#87bcbc;fill-opacity:1.00" />
  <line x1="5425" y1="50.0" x2="5465" y2="50.0" style="stroke:#999; stroke-width:3;" />
  <rect class="anc_exon" x="5465" y="35.0" width="167" height="30" style="fill:#87bcbc;fill-opacity:1.00" />
  <line x1="5632" y1="50.0" x2="5672" y2="50.0" style="stroke:#999; stroke-width:3;" />
  <rect class="anc_exon" x="5672" y="35.0" width="576" height="30" style="fill:#87bcbc;fill-opacity:1.00" />
  <line x1="6248" y1="50.0" x2="6288" y2="50.0" style="stroke:#999; stroke-width:3;" />
  <rect class="anc_exon" x="6288" y="35.0" width="121" height="30" style="fill:#87bcbc;fill-opacity:1.00" />
  <line x1="6409" y1="50.0" x2="6449" y2="50.0" style="stroke:#999; stroke-width:3;" />
  <rect class="anc_exon" x="6449" y="35.0" width="242" height="30" style="fill:#87bcbc;fill-opacity:1.00" />
  <line x1="6691" y1="50.0" x2="6731" y2="50.0" style="stroke:#999; stroke-width:3;" />
  <rect class="anc_exon" x="6731" y="35.0" width="91" height="30" style="fill:#87bcbc;fill-opacity:1.00" />
  <line x1="6822" y1="50.0" x2="6862" y2="50.0" style="stroke:#999; stroke-width:3;" />
  <rect class="anc_exon" x="6862" y="35.0" width="144" height="30" style="fill:#87bcbc;fill-opacity:1.00" />
  <line x1="7006" y1="50.0" x2="7046" y2="50.0" style="stroke:#999; stroke-width:3;" />
  <rect class="anc_exon" x="7046" y="35.0" width="93" height="30" style="fill:#87bcbc;fill-opacity:1.00" />
  <line x1="7139" y1="50.0" x2="7159" y2="50.0" style="stroke:#999; stroke-width:3;" />
  <line x1="7159" y1="50.0" x2="7159" y2="50.0" style="stroke:#999; stroke-width:3;" />
  <line x1="7159" y1="50.0" x2="7159" y2="50.0" style="stroke:#999; stroke-width:3;" />
  <line x1="7159" y1="50.0" x2="7179" y2="50.0" style="stroke:#999; stroke-width:3;" />
  <rect class="anc_exon" x="7179" y="35.0" width="475" height="30" style="fill:#878787;fill-opacity:1.00" />
  <rect class="anc_exon" x="7654" y="35.0" width="0" height="30" style="fill:#87bcbc;fill-opacity:1.00" />
  <text style="" >
<tspan x="0" y="83.0" style="font-size:18px;" >SP XM_003755809_4.1</tspan>  </text>



<script type="text/ecmascript">
<![CDATA[
function draw_bbox(text_id)
{
    var text_elem = document.getElementById(text_id);
    var offset_px = 2;
    var offset_py = 0;
    bbox = text_elem.getBBox();
    var box = document.createElementNS(document.rootElement.namespaceURI,'rect');
    box.setAttribute('x', bbox.x - offset_px);
    box.setAttribute('y', bbox.y - offset_py);
    box.setAttribute('width', bbox.width + offset_px * 2);
    box.setAttribute('height', bbox.height + offset_py * 2);
    box.setAttribute('style','fill: white;'+'stroke: black;'+'stroke-width: 1px;');
    text_elem.insertBefore(box,text_elem.childNodes[0]);

    var svg = text_elem.parentNode;
    svg.appendChild(text_elem);
}

for (var i=1; i < 1; i++)
{
draw_bbox("Mouseover" + i);
}
]]> 
</script>
</svg>
