<svg version="1.1"
xmlns="http://www.w3.org/2000/svg"
xmlns:xlink="http://www.w3.org/1999/xlink"
width="2540" height="100" viewBox = "0 0 2540 100"
onclick="mouseclick(evt)">

<script type="text/ecmascript">

<![CDATA[
    function mouseover(evt, target) { 
    var gv = document.getElementById("globalVariable");
    var previoustarget = gv.firstChild.nodeValue;
    if (previoustarget != "none") 
    {
        	document.getElementById(gv.firstChild.nodeValue).setAttributeNS(null, "visibility", "hidden");
    }
    document.getElementById(target).setAttributeNS(null, "visibility", "visible");
    gv.firstChild.nodeValue = target;
        }

    function mouseclick(evt) { 
    var gv = document.getElementById("globalVariable");
    var previoustarget = gv.firstChild.nodeValue;
    if (previoustarget != "none") {
        	document.getElementById(gv.firstChild.nodeValue).setAttributeNS(null, "visibility", "hidden");
        }
    }
]]>
  </script>
<style type="text/css" >

<![CDATA[
    rect.anc_exon {
              stroke-width:3;
                  }

    rect.non_anc_exon {
              stroke: black; stroke-width:3; stroke-dasharray: 5,5;
                    }

    text {
              font-size: 18px;
              font-family: Courier New;
          }
                    ]]>
</style>

<defs>
    <text x="150" y="40" id="globalVariable">none</text>
</defs>

  <rect class="anc_exon" x="0" y="35.0" width="0" height="30" style="fill:#87bcbc;fill-opacity:1.00" />
  <rect class="anc_exon" x="0" y="35.0" width="390.40000000000003" height="30" style="fill:#87bcbc;fill-opacity:1.00" />
  <line x1="390.40000000000003" y1="50.0" x2="409.40000000000003" y2="50.0" style="stroke:#999; stroke-width:3;" />
  <line x1="409.40000000000003" y1="50.0" x2="409.40000000000003" y2="50.0" style="stroke:#999; stroke-width:3;" />
  <line x1="409.40000000000003" y1="50.0" x2="409.40000000000003" y2="50.0" style="stroke:#999; stroke-width:3;" />
  <line x1="409.40000000000003" y1="50.0" x2="430.0" y2="50.0" style="stroke:#999; stroke-width:3;" />
  <rect class="anc_exon" x="430" y="35.0" width="408" height="30" style="fill:#87bcbc;fill-opacity:1.00" />
  <line x1="838" y1="50.0" x2="878" y2="50.0" style="stroke:#999; stroke-width:3;" />
  <rect class="anc_exon" x="878" y="35.0" width="156" height="30" style="fill:#87bcbc;fill-opacity:1.00" />
  <line x1="1034" y1="50.0" x2="1054" y2="50.0" style="stroke:#999; stroke-width:3;" />
  <line x1="1054" y1="50.0" x2="1054" y2="50.0" style="stroke:#999; stroke-width:3;" />
  <line x1="1054" y1="50.0" x2="1054" y2="50.0" style="stroke:#999; stroke-width:3;" />
  <line x1="1054" y1="50.0" x2="1074" y2="50.0" style="stroke:#999; stroke-width:3;" />
  <rect class="anc_exon" x="1074" y="35.0" width="64" height="30" style="fill:#87bcbc;fill-opacity:1.00" />
  <line x1="1138" y1="50.0" x2="1158" y2="50.0" style="stroke:#999; stroke-width:3;" />
  <line x1="1158" y1="50.0" x2="1158" y2="50.0" style="stroke:#999; stroke-width:3;" />
  <line x1="1158" y1="50.0" x2="1158" y2="50.0" style="stroke:#999; stroke-width:3;" />
  <line x1="1158" y1="50.0" x2="1178" y2="50.0" style="stroke:#999; stroke-width:3;" />
  <rect class="anc_exon" x="1178" y="35.0" width="90" height="30" style="fill:#87bcbc;fill-opacity:1.00" />
  <line x1="1268" y1="50.0" x2="1288" y2="50.0" style="stroke:#999; stroke-width:3;" />
  <line x1="1288" y1="50.0" x2="1288" y2="50.0" style="stroke:#999; stroke-width:3;" />
  <line x1="1288" y1="50.0" x2="1288" y2="50.0" style="stroke:#999; stroke-width:3;" />
  <line x1="1288" y1="50.0" x2="1308" y2="50.0" style="stroke:#999; stroke-width:3;" />
  <rect class="anc_exon" x="1308" y="35.0" width="48" height="30" style="fill:#87bcbc;fill-opacity:1.00" />
  <line x1="1356" y1="50.0" x2="1376" y2="50.0" style="stroke:#999; stroke-width:3;" />
  <line x1="1376" y1="50.0" x2="1376" y2="50.0" style="stroke:#999; stroke-width:3;" />
  <line x1="1376" y1="50.0" x2="1376" y2="50.0" style="stroke:#999; stroke-width:3;" />
  <line x1="1376" y1="50.0" x2="1396" y2="50.0" style="stroke:#999; stroke-width:3;" />
  <rect class="anc_exon" x="1396" y="35.0" width="72" height="30" style="fill:#87bcbc;fill-opacity:1.00" />
  <line x1="1468" y1="50.0" x2="1488" y2="50.0" style="stroke:#999; stroke-width:3;" />
  <line x1="1488" y1="50.0" x2="1488" y2="50.0" style="stroke:#999; stroke-width:3;" />
  <line x1="1488" y1="50.0" x2="1488" y2="50.0" style="stroke:#999; stroke-width:3;" />
  <line x1="1488" y1="50.0" x2="1508" y2="50.0" style="stroke:#999; stroke-width:3;" />
  <rect class="anc_exon" x="1508" y="35.0" width="35" height="30" style="fill:#87bcbc;fill-opacity:1.00" />
  <line x1="1543" y1="50.0" x2="1583" y2="50.0" style="stroke:#999; stroke-width:3;" />
  <rect class="anc_exon" x="1583" y="35.0" width="152" height="30" style="fill:#878787;fill-opacity:1.00" />
  <line x1="1735" y1="50.0" x2="1775" y2="50.0" style="stroke:#999; stroke-width:3;" />
  <rect class="anc_exon" x="1775" y="35.0" width="56" height="30" style="fill:#87bcbc;fill-opacity:1.00" />
  <line x1="1831" y1="50.0" x2="1871" y2="50.0" style="stroke:#999; stroke-width:3;" />
  <rect class="anc_exon" x="1871" y="35.0" width="126" height="30" style="fill:#87bcbc;fill-opacity:1.00" />
  <line x1="1997" y1="50.0" x2="2017" y2="50.0" style="stroke:#999; stroke-width:3;" />
  <line x1="2017" y1="50.0" x2="2017" y2="50.0" style="stroke:#999; stroke-width:3;" />
  <line x1="2017" y1="50.0" x2="2017" y2="50.0" style="stroke:#999; stroke-width:3;" />
  <line x1="2017" y1="50.0" x2="2037" y2="50.0" style="stroke:#999; stroke-width:3;" />
  <rect class="anc_exon" x="2037" y="35.0" width="116" height="30" style="fill:#87bcbc;fill-opacity:1.00" />
  <line x1="2153" y1="50.0" x2="2193" y2="50.0" style="stroke:#999; stroke-width:3;" />
  <rect class="anc_exon" x="2193" y="35.0" width="115" height="30" style="fill:#87bcbc;fill-opacity:1.00" />
  <line x1="2308" y1="50.0" x2="2348" y2="50.0" style="stroke:#999; stroke-width:3;" />
  <rect class="anc_exon" x="2348" y="35.0" width="156" height="30" style="fill:#87bcbc;fill-opacity:1.00" />
  <rect class="anc_exon" x="2504" y="35.0" width="0" height="30" style="fill:#87bcbc;fill-opacity:1.00" />
  <text style="" >
<tspan x="0" y="83.0" style="font-size:18px;" >SP XM_031953384_1.1</tspan>  </text>
  <text style="fill:#121212;" >
<tspan x="1356" y="50.0" style="font-size:18px;fill:#121212;" >aa</tspan>  </text>
  <text style="fill:#121212;" >
<tspan x="1372.96" y="68.0" style="font-size:18px;fill:#121212;" >ct</tspan>  </text>



<script type="text/ecmascript">
<![CDATA[
function draw_bbox(text_id)
{
    var text_elem = document.getElementById(text_id);
    var offset_px = 2;
    var offset_py = 0;
    bbox = text_elem.getBBox();
    var box = document.createElementNS(document.rootElement.namespaceURI,'rect');
    box.setAttribute('x', bbox.x - offset_px);
    box.setAttribute('y', bbox.y - offset_py);
    box.setAttribute('width', bbox.width + offset_px * 2);
    box.setAttribute('height', bbox.height + offset_py * 2);
    box.setAttribute('style','fill: white;'+'stroke: black;'+'stroke-width: 1px;');
    text_elem.insertBefore(box,text_elem.childNodes[0]);

    var svg = text_elem.parentNode;
    svg.appendChild(text_elem);
}

for (var i=1; i < 1; i++)
{
draw_bbox("Mouseover" + i);
}
]]> 
</script>
</svg>
