<svg version="1.1"
xmlns="http://www.w3.org/2000/svg"
xmlns:xlink="http://www.w3.org/1999/xlink"
width="8021" height="100" viewBox = "0 0 8021 100"
onclick="mouseclick(evt)">

<script type="text/ecmascript">

<![CDATA[
    function mouseover(evt, target) { 
    var gv = document.getElementById("globalVariable");
    var previoustarget = gv.firstChild.nodeValue;
    if (previoustarget != "none") 
    {
        	document.getElementById(gv.firstChild.nodeValue).setAttributeNS(null, "visibility", "hidden");
    }
    document.getElementById(target).setAttributeNS(null, "visibility", "visible");
    gv.firstChild.nodeValue = target;
        }

    function mouseclick(evt) { 
    var gv = document.getElementById("globalVariable");
    var previoustarget = gv.firstChild.nodeValue;
    if (previoustarget != "none") {
        	document.getElementById(gv.firstChild.nodeValue).setAttributeNS(null, "visibility", "hidden");
        }
    }
]]>
  </script>
<style type="text/css" >

<![CDATA[
    rect.anc_exon {
              stroke-width:3;
                  }

    rect.non_anc_exon {
              stroke: black; stroke-width:3; stroke-dasharray: 5,5;
                    }

    text {
              font-size: 18px;
              font-family: Courier New;
          }
                    ]]>
</style>

<defs>
    <text x="150" y="40" id="globalVariable">none</text>
</defs>

  <rect class="anc_exon" x="0" y="35.0" width="0" height="30" style="fill:#87bcbc;fill-opacity:1.00" />
  <rect class="anc_exon" x="0" y="35.0" width="674.4000000000001" height="30" style="fill:#87bcbc;fill-opacity:1.00" />
  <line x1="674.4000000000001" y1="50.0" x2="693.4000000000001" y2="50.0" style="stroke:#999; stroke-width:3;" />
  <line x1="693.4000000000001" y1="50.0" x2="693.4000000000001" y2="50.0" style="stroke:#999; stroke-width:3;" />
  <line x1="693.4000000000001" y1="50.0" x2="693.4000000000001" y2="50.0" style="stroke:#999; stroke-width:3;" />
  <line x1="693.4000000000001" y1="50.0" x2="714.0" y2="50.0" style="stroke:#999; stroke-width:3;" />
  <rect class="anc_exon" x="714" y="35.0" width="76" height="30" style="fill:#87bcbc;fill-opacity:1.00" />
  <line x1="790" y1="50.0" x2="810" y2="50.0" style="stroke:#999; stroke-width:3;" />
  <line x1="810" y1="50.0" x2="810" y2="50.0" style="stroke:#999; stroke-width:3;" />
  <line x1="810" y1="50.0" x2="810" y2="50.0" style="stroke:#999; stroke-width:3;" />
  <line x1="810" y1="50.0" x2="830" y2="50.0" style="stroke:#999; stroke-width:3;" />
  <rect class="anc_exon" x="830" y="35.0" width="50" height="30" style="fill:#87bcbc;fill-opacity:1.00" />
  <line x1="880" y1="50.0" x2="900" y2="50.0" style="stroke:#999; stroke-width:3;" />
  <line x1="900" y1="50.0" x2="900" y2="50.0" style="stroke:#999; stroke-width:3;" />
  <line x1="900" y1="50.0" x2="900" y2="50.0" style="stroke:#999; stroke-width:3;" />
  <line x1="900" y1="50.0" x2="920" y2="50.0" style="stroke:#999; stroke-width:3;" />
  <rect class="anc_exon" x="920" y="35.0" width="80" height="30" style="fill:#87bcbc;fill-opacity:1.00" />
  <line x1="1000" y1="50.0" x2="1040" y2="50.0" style="stroke:#999; stroke-width:3;" />
  <rect class="anc_exon" x="1040" y="35.0" width="45" height="30" style="fill:#87bcbc;fill-opacity:1.00" />
  <line x1="1085" y1="50.0" x2="1105" y2="50.0" style="stroke:#999; stroke-width:3;" />
  <line x1="1105" y1="50.0" x2="1105" y2="50.0" style="stroke:#999; stroke-width:3;" />
  <line x1="1105" y1="50.0" x2="1105" y2="50.0" style="stroke:#999; stroke-width:3;" />
  <line x1="1105" y1="50.0" x2="1125" y2="50.0" style="stroke:#999; stroke-width:3;" />
  <rect class="anc_exon" x="1125" y="35.0" width="78" height="30" style="fill:#87bcbc;fill-opacity:1.00" />
  <line x1="1203" y1="50.0" x2="1243" y2="50.0" style="stroke:#999; stroke-width:3;" />
  <rect class="anc_exon" x="1243" y="35.0" width="101" height="30" style="fill:#87bcbc;fill-opacity:1.00" />
  <line x1="1344" y1="50.0" x2="1364" y2="50.0" style="stroke:#999; stroke-width:3;" />
  <line x1="1364" y1="50.0" x2="1364" y2="50.0" style="stroke:#999; stroke-width:3;" />
  <line x1="1364" y1="50.0" x2="1364" y2="50.0" style="stroke:#999; stroke-width:3;" />
  <line x1="1364" y1="50.0" x2="1384" y2="50.0" style="stroke:#999; stroke-width:3;" />
  <rect class="anc_exon" x="1384" y="35.0" width="72" height="30" style="fill:#87bcbc;fill-opacity:1.00" />
  <line x1="1456" y1="50.0" x2="1476" y2="50.0" style="stroke:#999; stroke-width:3;" />
  <line x1="1476" y1="50.0" x2="1476" y2="50.0" style="stroke:#999; stroke-width:3;" />
  <line x1="1476" y1="50.0" x2="1476" y2="50.0" style="stroke:#999; stroke-width:3;" />
  <line x1="1476" y1="50.0" x2="1496" y2="50.0" style="stroke:#999; stroke-width:3;" />
  <rect class="anc_exon" x="1496" y="35.0" width="93" height="30" style="fill:#87bcbc;fill-opacity:1.00" />
  <line x1="1589" y1="50.0" x2="1609" y2="50.0" style="stroke:#999; stroke-width:3;" />
  <line x1="1609" y1="50.0" x2="1609" y2="50.0" style="stroke:#999; stroke-width:3;" />
  <line x1="1609" y1="50.0" x2="1609" y2="50.0" style="stroke:#999; stroke-width:3;" />
  <line x1="1609" y1="50.0" x2="1629" y2="50.0" style="stroke:#999; stroke-width:3;" />
  <rect class="anc_exon" x="1629" y="35.0" width="108" height="30" style="fill:#87bcbc;fill-opacity:1.00" />
  <line x1="1737" y1="50.0" x2="1757" y2="50.0" style="stroke:#999; stroke-width:3;" />
  <line x1="1757" y1="50.0" x2="1757" y2="50.0" style="stroke:#999; stroke-width:3;" />
  <line x1="1757" y1="50.0" x2="1757" y2="50.0" style="stroke:#999; stroke-width:3;" />
  <line x1="1757" y1="50.0" x2="1777" y2="50.0" style="stroke:#999; stroke-width:3;" />
  <rect class="anc_exon" x="1777" y="35.0" width="97" height="30" style="fill:#87bcbc;fill-opacity:1.00" />
  <line x1="1874" y1="50.0" x2="1894" y2="50.0" style="stroke:#999; stroke-width:3;" />
  <line x1="1894" y1="50.0" x2="1894" y2="50.0" style="stroke:#999; stroke-width:3;" />
  <line x1="1894" y1="50.0" x2="1894" y2="50.0" style="stroke:#999; stroke-width:3;" />
  <line x1="1894" y1="50.0" x2="1914" y2="50.0" style="stroke:#999; stroke-width:3;" />
  <rect class="anc_exon" x="1914" y="35.0" width="113" height="30" style="fill:#87bcbc;fill-opacity:1.00" />
  <line x1="2027" y1="50.0" x2="2047" y2="50.0" style="stroke:#999; stroke-width:3;" />
  <line x1="2047" y1="50.0" x2="2047" y2="50.0" style="stroke:#999; stroke-width:3;" />
  <line x1="2047" y1="50.0" x2="2047" y2="50.0" style="stroke:#999; stroke-width:3;" />
  <line x1="2047" y1="50.0" x2="2067" y2="50.0" style="stroke:#999; stroke-width:3;" />
  <rect class="anc_exon" x="2067" y="35.0" width="156" height="30" style="fill:#87bcbc;fill-opacity:1.00" />
  <line x1="2223" y1="50.0" x2="2243" y2="50.0" style="stroke:#999; stroke-width:3;" />
  <line x1="2243" y1="50.0" x2="2243" y2="50.0" style="stroke:#999; stroke-width:3;" />
  <line x1="2243" y1="50.0" x2="2243" y2="50.0" style="stroke:#999; stroke-width:3;" />
  <line x1="2243" y1="50.0" x2="2263" y2="50.0" style="stroke:#999; stroke-width:3;" />
  <rect class="anc_exon" x="2263" y="35.0" width="96" height="30" style="fill:#87bcbc;fill-opacity:1.00" />
  <line x1="2359" y1="50.0" x2="2379" y2="50.0" style="stroke:#999; stroke-width:3;" />
  <line x1="2379" y1="50.0" x2="2379" y2="50.0" style="stroke:#999; stroke-width:3;" />
  <line x1="2379" y1="50.0" x2="2379" y2="50.0" style="stroke:#999; stroke-width:3;" />
  <line x1="2379" y1="50.0" x2="2399" y2="50.0" style="stroke:#999; stroke-width:3;" />
  <rect class="anc_exon" x="2399" y="35.0" width="60" height="30" style="fill:#87bcbc;fill-opacity:1.00" />
  <line x1="2459" y1="50.0" x2="2479" y2="50.0" style="stroke:#999; stroke-width:3;" />
  <line x1="2479" y1="50.0" x2="2479" y2="50.0" style="stroke:#999; stroke-width:3;" />
  <line x1="2479" y1="50.0" x2="2479" y2="50.0" style="stroke:#999; stroke-width:3;" />
  <line x1="2479" y1="50.0" x2="2499" y2="50.0" style="stroke:#999; stroke-width:3;" />
  <rect class="anc_exon" x="2499" y="35.0" width="115" height="30" style="fill:#87bcbc;fill-opacity:1.00" />
  <line x1="2614" y1="50.0" x2="2654" y2="50.0" style="stroke:#999; stroke-width:3;" />
  <rect class="anc_exon" x="2654" y="35.0" width="32" height="30" style="fill:#87bcbc;fill-opacity:1.00" />
  <line x1="2686" y1="50.0" x2="2706" y2="50.0" style="stroke:#999; stroke-width:3;" />
  <line x1="2706" y1="50.0" x2="2706" y2="50.0" style="stroke:#999; stroke-width:3;" />
  <line x1="2706" y1="50.0" x2="2706" y2="50.0" style="stroke:#999; stroke-width:3;" />
  <line x1="2706" y1="50.0" x2="2726" y2="50.0" style="stroke:#999; stroke-width:3;" />
  <rect class="anc_exon" x="2726" y="35.0" width="98" height="30" style="fill:#87bcbc;fill-opacity:1.00" />
  <line x1="2824" y1="50.0" x2="2844" y2="50.0" style="stroke:#999; stroke-width:3;" />
  <line x1="2844" y1="50.0" x2="2844" y2="50.0" style="stroke:#999; stroke-width:3;" />
  <line x1="2844" y1="50.0" x2="2844" y2="50.0" style="stroke:#999; stroke-width:3;" />
  <line x1="2844" y1="50.0" x2="2864" y2="50.0" style="stroke:#999; stroke-width:3;" />
  <rect class="anc_exon" x="2864" y="35.0" width="64" height="30" style="fill:#87bcbc;fill-opacity:1.00" />
  <line x1="2928" y1="50.0" x2="2968" y2="50.0" style="stroke:#999; stroke-width:3;" />
  <rect class="anc_exon" x="2968" y="35.0" width="88" height="30" style="fill:#87bcbc;fill-opacity:1.00" />
  <line x1="3056" y1="50.0" x2="3096" y2="50.0" style="stroke:#999; stroke-width:3;" />
  <rect class="anc_exon" x="3096" y="35.0" width="98" height="30" style="fill:#87bcbc;fill-opacity:1.00" />
  <line x1="3194" y1="50.0" x2="3214" y2="50.0" style="stroke:#999; stroke-width:3;" />
  <line x1="3214" y1="50.0" x2="3214" y2="50.0" style="stroke:#999; stroke-width:3;" />
  <line x1="3214" y1="50.0" x2="3214" y2="50.0" style="stroke:#999; stroke-width:3;" />
  <line x1="3214" y1="50.0" x2="3234" y2="50.0" style="stroke:#999; stroke-width:3;" />
  <rect class="anc_exon" x="3234" y="35.0" width="120" height="30" style="fill:#87bcbc;fill-opacity:1.00" />
  <line x1="3354" y1="50.0" x2="3374" y2="50.0" style="stroke:#999; stroke-width:3;" />
  <line x1="3374" y1="50.0" x2="3374" y2="50.0" style="stroke:#999; stroke-width:3;" />
  <line x1="3374" y1="50.0" x2="3374" y2="50.0" style="stroke:#999; stroke-width:3;" />
  <line x1="3374" y1="50.0" x2="3394" y2="50.0" style="stroke:#999; stroke-width:3;" />
  <rect class="anc_exon" x="3394" y="35.0" width="256" height="30" style="fill:#87bcbc;fill-opacity:1.00" />
  <line x1="3650" y1="50.0" x2="3670" y2="50.0" style="stroke:#999; stroke-width:3;" />
  <line x1="3670" y1="50.0" x2="3670" y2="50.0" style="stroke:#999; stroke-width:3;" />
  <line x1="3670" y1="50.0" x2="3670" y2="50.0" style="stroke:#999; stroke-width:3;" />
  <line x1="3670" y1="50.0" x2="3690" y2="50.0" style="stroke:#999; stroke-width:3;" />
  <rect class="anc_exon" x="3690" y="35.0" width="1233" height="30" style="fill:#87bcbc;fill-opacity:1.00" />
  <line x1="4923" y1="50.0" x2="4943" y2="50.0" style="stroke:#999; stroke-width:3;" />
  <line x1="4943" y1="50.0" x2="4943" y2="50.0" style="stroke:#999; stroke-width:3;" />
  <line x1="4943" y1="50.0" x2="4943" y2="50.0" style="stroke:#999; stroke-width:3;" />
  <line x1="4943" y1="50.0" x2="4963" y2="50.0" style="stroke:#999; stroke-width:3;" />
  <rect class="anc_exon" x="4963" y="35.0" width="75" height="30" style="fill:#87bcbc;fill-opacity:1.00" />
  <line x1="5038" y1="50.0" x2="5078" y2="50.0" style="stroke:#999; stroke-width:3;" />
  <rect class="anc_exon" x="5078" y="35.0" width="170" height="30" style="fill:#87bcbc;fill-opacity:1.00" />
  <line x1="5248" y1="50.0" x2="5268" y2="50.0" style="stroke:#999; stroke-width:3;" />
  <line x1="5268" y1="50.0" x2="5268" y2="50.0" style="stroke:#999; stroke-width:3;" />
  <line x1="5268" y1="50.0" x2="5268" y2="50.0" style="stroke:#999; stroke-width:3;" />
  <line x1="5268" y1="50.0" x2="5288" y2="50.0" style="stroke:#999; stroke-width:3;" />
  <rect class="anc_exon" x="5288" y="35.0" width="90" height="30" style="fill:#87bcbc;fill-opacity:1.00" />
  <line x1="5378" y1="50.0" x2="5418" y2="50.0" style="stroke:#999; stroke-width:3;" />
  <rect class="anc_exon" x="5418" y="35.0" width="126" height="30" style="fill:#87bcbc;fill-opacity:1.00" />
  <line x1="5544" y1="50.0" x2="5564" y2="50.0" style="stroke:#999; stroke-width:3;" />
  <line x1="5564" y1="50.0" x2="5564" y2="50.0" style="stroke:#999; stroke-width:3;" />
  <line x1="5564" y1="50.0" x2="5564" y2="50.0" style="stroke:#999; stroke-width:3;" />
  <line x1="5564" y1="50.0" x2="5584" y2="50.0" style="stroke:#999; stroke-width:3;" />
  <rect class="anc_exon" x="5584" y="35.0" width="179" height="30" style="fill:#87bcbc;fill-opacity:1.00" />
  <line x1="5763" y1="50.0" x2="5803" y2="50.0" style="stroke:#999; stroke-width:3;" />
  <rect class="anc_exon" x="5803" y="35.0" width="93" height="30" style="fill:#87bcbc;fill-opacity:1.00" />
  <line x1="5896" y1="50.0" x2="5916" y2="50.0" style="stroke:#999; stroke-width:3;" />
  <line x1="5916" y1="50.0" x2="5916" y2="50.0" style="stroke:#999; stroke-width:3;" />
  <line x1="5916" y1="50.0" x2="5916" y2="50.0" style="stroke:#999; stroke-width:3;" />
  <line x1="5916" y1="50.0" x2="5936" y2="50.0" style="stroke:#999; stroke-width:3;" />
  <rect class="anc_exon" x="5936" y="35.0" width="151" height="30" style="fill:#87bcbc;fill-opacity:1.00" />
  <line x1="6087" y1="50.0" x2="6127" y2="50.0" style="stroke:#999; stroke-width:3;" />
  <rect class="anc_exon" x="6127" y="35.0" width="38" height="30" style="fill:#87bcbc;fill-opacity:1.00" />
  <line x1="6165" y1="50.0" x2="6185" y2="50.0" style="stroke:#999; stroke-width:3;" />
  <line x1="6185" y1="50.0" x2="6185" y2="50.0" style="stroke:#999; stroke-width:3;" />
  <line x1="6185" y1="50.0" x2="6185" y2="50.0" style="stroke:#999; stroke-width:3;" />
  <line x1="6185" y1="50.0" x2="6205" y2="50.0" style="stroke:#999; stroke-width:3;" />
  <rect class="anc_exon" x="6205" y="35.0" width="89" height="30" style="fill:#87bcbc;fill-opacity:1.00" />
  <line x1="6294" y1="50.0" x2="6334" y2="50.0" style="stroke:#999; stroke-width:3;" />
  <rect class="anc_exon" x="6334" y="35.0" width="49" height="30" style="fill:#87bcbc;fill-opacity:1.00" />
  <line x1="6383" y1="50.0" x2="6403" y2="50.0" style="stroke:#999; stroke-width:3;" />
  <line x1="6403" y1="50.0" x2="6403" y2="50.0" style="stroke:#999; stroke-width:3;" />
  <line x1="6403" y1="50.0" x2="6403" y2="50.0" style="stroke:#999; stroke-width:3;" />
  <line x1="6403" y1="50.0" x2="6423" y2="50.0" style="stroke:#999; stroke-width:3;" />
  <rect class="anc_exon" x="6423" y="35.0" width="154" height="30" style="fill:#87bcbc;fill-opacity:1.00" />
  <line x1="6577" y1="50.0" x2="6617" y2="50.0" style="stroke:#999; stroke-width:3;" />
  <rect class="anc_exon" x="6617" y="35.0" width="103" height="30" style="fill:#87bcbc;fill-opacity:1.00" />
  <line x1="6720" y1="50.0" x2="6760" y2="50.0" style="stroke:#999; stroke-width:3;" />
  <rect class="anc_exon" x="6760" y="35.0" width="84" height="30" style="fill:#87bcbc;fill-opacity:1.00" />
  <line x1="6844" y1="50.0" x2="6864" y2="50.0" style="stroke:#999; stroke-width:3;" />
  <line x1="6864" y1="50.0" x2="6864" y2="50.0" style="stroke:#999; stroke-width:3;" />
  <line x1="6864" y1="50.0" x2="6864" y2="50.0" style="stroke:#999; stroke-width:3;" />
  <line x1="6864" y1="50.0" x2="6884" y2="50.0" style="stroke:#999; stroke-width:3;" />
  <rect class="anc_exon" x="6884" y="35.0" width="105" height="30" style="fill:#87bcbc;fill-opacity:1.00" />
  <line x1="6989" y1="50.0" x2="7029" y2="50.0" style="stroke:#999; stroke-width:3;" />
  <rect class="anc_exon" x="7029" y="35.0" width="99" height="30" style="fill:#87bcbc;fill-opacity:1.00" />
  <line x1="7128" y1="50.0" x2="7168" y2="50.0" style="stroke:#999; stroke-width:3;" />
  <rect class="anc_exon" x="7168" y="35.0" width="43" height="30" style="fill:#87bcbc;fill-opacity:1.00" />
  <line x1="7211" y1="50.0" x2="7231" y2="50.0" style="stroke:#999; stroke-width:3;" />
  <line x1="7231" y1="50.0" x2="7231" y2="50.0" style="stroke:#999; stroke-width:3;" />
  <line x1="7231" y1="50.0" x2="7231" y2="50.0" style="stroke:#999; stroke-width:3;" />
  <line x1="7231" y1="50.0" x2="7251" y2="50.0" style="stroke:#999; stroke-width:3;" />
  <rect class="anc_exon" x="7251" y="35.0" width="162" height="30" style="fill:#87bcbc;fill-opacity:1.00" />
  <line x1="7413" y1="50.0" x2="7453" y2="50.0" style="stroke:#999; stroke-width:3;" />
  <rect class="anc_exon" x="7453" y="35.0" width="114" height="30" style="fill:#87bcbc;fill-opacity:1.00" />
  <line x1="7567" y1="50.0" x2="7607" y2="50.0" style="stroke:#999; stroke-width:3;" />
  <rect class="anc_exon" x="7607" y="35.0" width="378" height="30" style="fill:#87bcbc;fill-opacity:1.00" />
  <rect class="anc_exon" x="7985" y="35.0" width="0" height="30" style="fill:#87bcbc;fill-opacity:1.00" />
  <text style="" >
<tspan x="0" y="83.0" style="font-size:18px;" >SP XM_031956321_1.1</tspan>  </text>



<script type="text/ecmascript">
<![CDATA[
function draw_bbox(text_id)
{
    var text_elem = document.getElementById(text_id);
    var offset_px = 2;
    var offset_py = 0;
    bbox = text_elem.getBBox();
    var box = document.createElementNS(document.rootElement.namespaceURI,'rect');
    box.setAttribute('x', bbox.x - offset_px);
    box.setAttribute('y', bbox.y - offset_py);
    box.setAttribute('width', bbox.width + offset_px * 2);
    box.setAttribute('height', bbox.height + offset_py * 2);
    box.setAttribute('style','fill: white;'+'stroke: black;'+'stroke-width: 1px;');
    text_elem.insertBefore(box,text_elem.childNodes[0]);

    var svg = text_elem.parentNode;
    svg.appendChild(text_elem);
}

for (var i=1; i < 1; i++)
{
draw_bbox("Mouseover" + i);
}
]]> 
</script>
</svg>
