<svg version="1.1"
xmlns="http://www.w3.org/2000/svg"
xmlns:xlink="http://www.w3.org/1999/xlink"
width="2614" height="100" viewBox = "0 0 2614 100"
onclick="mouseclick(evt)">

<script type="text/ecmascript">

<![CDATA[
    function mouseover(evt, target) { 
    var gv = document.getElementById("globalVariable");
    var previoustarget = gv.firstChild.nodeValue;
    if (previoustarget != "none") 
    {
        	document.getElementById(gv.firstChild.nodeValue).setAttributeNS(null, "visibility", "hidden");
    }
    document.getElementById(target).setAttributeNS(null, "visibility", "visible");
    gv.firstChild.nodeValue = target;
        }

    function mouseclick(evt) { 
    var gv = document.getElementById("globalVariable");
    var previoustarget = gv.firstChild.nodeValue;
    if (previoustarget != "none") {
        	document.getElementById(gv.firstChild.nodeValue).setAttributeNS(null, "visibility", "hidden");
        }
    }
]]>
  </script>
<style type="text/css" >

<![CDATA[
    rect.anc_exon {
              stroke-width:3;
                  }

    rect.non_anc_exon {
              stroke: black; stroke-width:3; stroke-dasharray: 5,5;
                    }

    text {
              font-size: 18px;
              font-family: Courier New;
          }
                    ]]>
</style>

<defs>
    <text x="150" y="40" id="globalVariable">none</text>
</defs>

  <rect class="anc_exon" x="0" y="35.0" width="0" height="30" style="fill:#87bcbc;fill-opacity:1.00" />
  <rect class="anc_exon" x="0" y="35.0" width="268.8" height="30" style="fill:#87bcbc;fill-opacity:1.00" />
  <line x1="268.8" y1="50.0" x2="287.8" y2="50.0" style="stroke:#999; stroke-width:3;" />
  <line x1="287.8" y1="50.0" x2="287.8" y2="50.0" style="stroke:#999; stroke-width:3;" />
  <line x1="287.8" y1="50.0" x2="287.8" y2="50.0" style="stroke:#999; stroke-width:3;" />
  <line x1="287.8" y1="50.0" x2="308.0" y2="50.0" style="stroke:#999; stroke-width:3;" />
  <rect class="anc_exon" x="308" y="35.0" width="219" height="30" style="fill:#87bcbc;fill-opacity:1.00" />
  <line x1="527" y1="50.0" x2="547" y2="50.0" style="stroke:#999; stroke-width:3;" />
  <line x1="547" y1="50.0" x2="547" y2="50.0" style="stroke:#999; stroke-width:3;" />
  <line x1="547" y1="50.0" x2="547" y2="50.0" style="stroke:#999; stroke-width:3;" />
  <line x1="547" y1="50.0" x2="567" y2="50.0" style="stroke:#999; stroke-width:3;" />
  <rect class="anc_exon" x="567" y="35.0" width="116" height="30" style="fill:#87bcbc;fill-opacity:1.00" />
  <line x1="683" y1="50.0" x2="703" y2="50.0" style="stroke:#999; stroke-width:3;" />
  <line x1="703" y1="50.0" x2="703" y2="50.0" style="stroke:#999; stroke-width:3;" />
  <line x1="703" y1="50.0" x2="703" y2="50.0" style="stroke:#999; stroke-width:3;" />
  <line x1="703" y1="50.0" x2="723" y2="50.0" style="stroke:#999; stroke-width:3;" />
  <rect class="anc_exon" x="723" y="35.0" width="68" height="30" style="fill:#87bcbc;fill-opacity:1.00" />
  <line x1="791" y1="50.0" x2="831" y2="50.0" style="stroke:#999; stroke-width:3;" />
  <rect class="anc_exon" x="831" y="35.0" width="84" height="30" style="fill:#87bcbc;fill-opacity:1.00" />
  <line x1="915" y1="50.0" x2="955" y2="50.0" style="stroke:#999; stroke-width:3;" />
  <rect class="anc_exon" x="955" y="35.0" width="112" height="30" style="fill:#87bcbc;fill-opacity:1.00" />
  <line x1="1067" y1="50.0" x2="1107" y2="50.0" style="stroke:#999; stroke-width:3;" />
  <rect class="anc_exon" x="1107" y="35.0" width="158" height="30" style="fill:#87bcbc;fill-opacity:1.00" />
  <line x1="1265" y1="50.0" x2="1285" y2="50.0" style="stroke:#999; stroke-width:3;" />
  <line x1="1285" y1="50.0" x2="1285" y2="50.0" style="stroke:#999; stroke-width:3;" />
  <line x1="1285" y1="50.0" x2="1285" y2="50.0" style="stroke:#999; stroke-width:3;" />
  <line x1="1285" y1="50.0" x2="1305" y2="50.0" style="stroke:#999; stroke-width:3;" />
  <rect class="anc_exon" x="1305" y="35.0" width="140" height="30" style="fill:#87bcbc;fill-opacity:1.00" />
  <line x1="1445" y1="50.0" x2="1465" y2="50.0" style="stroke:#999; stroke-width:3;" />
  <line x1="1465" y1="50.0" x2="1465" y2="50.0" style="stroke:#999; stroke-width:3;" />
  <line x1="1465" y1="50.0" x2="1465" y2="50.0" style="stroke:#999; stroke-width:3;" />
  <line x1="1465" y1="50.0" x2="1485" y2="50.0" style="stroke:#999; stroke-width:3;" />
  <rect class="anc_exon" x="1485" y="35.0" width="79" height="30" style="fill:#87bcbc;fill-opacity:1.00" />
  <line x1="1564" y1="50.0" x2="1584" y2="50.0" style="stroke:#999; stroke-width:3;" />
  <line x1="1584" y1="50.0" x2="1584" y2="50.0" style="stroke:#999; stroke-width:3;" />
  <line x1="1584" y1="50.0" x2="1584" y2="50.0" style="stroke:#999; stroke-width:3;" />
  <line x1="1584" y1="50.0" x2="1604" y2="50.0" style="stroke:#999; stroke-width:3;" />
  <rect class="anc_exon" x="1604" y="35.0" width="125" height="30" style="fill:#87bcbc;fill-opacity:1.00" />
  <line x1="1729" y1="50.0" x2="1749" y2="50.0" style="stroke:#999; stroke-width:3;" />
  <line x1="1749" y1="50.0" x2="1749" y2="50.0" style="stroke:#999; stroke-width:3;" />
  <line x1="1749" y1="50.0" x2="1749" y2="50.0" style="stroke:#999; stroke-width:3;" />
  <line x1="1749" y1="50.0" x2="1769" y2="50.0" style="stroke:#999; stroke-width:3;" />
  <rect class="anc_exon" x="1769" y="35.0" width="144" height="30" style="fill:#87bcbc;fill-opacity:1.00" />
  <line x1="1913" y1="50.0" x2="1953" y2="50.0" style="stroke:#999; stroke-width:3;" />
  <rect class="anc_exon" x="1953" y="35.0" width="88" height="30" style="fill:#87bcbc;fill-opacity:1.00" />
  <line x1="2041" y1="50.0" x2="2081" y2="50.0" style="stroke:#999; stroke-width:3;" />
  <rect class="anc_exon" x="2081" y="35.0" width="100" height="30" style="fill:#87bcbc;fill-opacity:1.00" />
  <line x1="2181" y1="50.0" x2="2201" y2="50.0" style="stroke:#999; stroke-width:3;" />
  <line x1="2201" y1="50.0" x2="2201" y2="50.0" style="stroke:#999; stroke-width:3;" />
  <line x1="2201" y1="50.0" x2="2201" y2="50.0" style="stroke:#999; stroke-width:3;" />
  <line x1="2201" y1="50.0" x2="2221" y2="50.0" style="stroke:#999; stroke-width:3;" />
  <rect class="anc_exon" x="2221" y="35.0" width="43" height="30" style="fill:#87bcbc;fill-opacity:1.00" />
  <line x1="2264" y1="50.0" x2="2304" y2="50.0" style="stroke:#999; stroke-width:3;" />
  <rect class="anc_exon" x="2304" y="35.0" width="55" height="30" style="fill:#87bcbc;fill-opacity:1.00" />
  <line x1="2359" y1="50.0" x2="2399" y2="50.0" style="stroke:#999; stroke-width:3;" />
  <rect class="anc_exon" x="2399" y="35.0" width="100" height="30" style="fill:#87bcbc;fill-opacity:1.00" />
  <line x1="2499" y1="50.0" x2="2539" y2="50.0" style="stroke:#999; stroke-width:3;" />
  <rect class="anc_exon" x="2539" y="35.0" width="39" height="30" style="fill:#87bcbc;fill-opacity:1.00" />
  <rect class="anc_exon" x="2578" y="35.0" width="0" height="30" style="fill:#87bcbc;fill-opacity:1.00" />
  <text style="" >
<tspan x="0" y="83.0" style="font-size:18px;" >SP XM_031953106_1.1</tspan>  </text>



<script type="text/ecmascript">
<![CDATA[
function draw_bbox(text_id)
{
    var text_elem = document.getElementById(text_id);
    var offset_px = 2;
    var offset_py = 0;
    bbox = text_elem.getBBox();
    var box = document.createElementNS(document.rootElement.namespaceURI,'rect');
    box.setAttribute('x', bbox.x - offset_px);
    box.setAttribute('y', bbox.y - offset_py);
    box.setAttribute('width', bbox.width + offset_px * 2);
    box.setAttribute('height', bbox.height + offset_py * 2);
    box.setAttribute('style','fill: white;'+'stroke: black;'+'stroke-width: 1px;');
    text_elem.insertBefore(box,text_elem.childNodes[0]);

    var svg = text_elem.parentNode;
    svg.appendChild(text_elem);
}

for (var i=1; i < 1; i++)
{
draw_bbox("Mouseover" + i);
}
]]> 
</script>
</svg>
