<svg version="1.1"
xmlns="http://www.w3.org/2000/svg"
xmlns:xlink="http://www.w3.org/1999/xlink"
width="2288" height="100" viewBox = "0 0 2288 100"
onclick="mouseclick(evt)">

<script type="text/ecmascript">

<![CDATA[
    function mouseover(evt, target) { 
    var gv = document.getElementById("globalVariable");
    var previoustarget = gv.firstChild.nodeValue;
    if (previoustarget != "none") 
    {
        	document.getElementById(gv.firstChild.nodeValue).setAttributeNS(null, "visibility", "hidden");
    }
    document.getElementById(target).setAttributeNS(null, "visibility", "visible");
    gv.firstChild.nodeValue = target;
        }

    function mouseclick(evt) { 
    var gv = document.getElementById("globalVariable");
    var previoustarget = gv.firstChild.nodeValue;
    if (previoustarget != "none") {
        	document.getElementById(gv.firstChild.nodeValue).setAttributeNS(null, "visibility", "hidden");
        }
    }
]]>
  </script>
<style type="text/css" >

<![CDATA[
    rect.anc_exon {
              stroke-width:3;
                  }

    rect.non_anc_exon {
              stroke: black; stroke-width:3; stroke-dasharray: 5,5;
                    }

    text {
              font-size: 18px;
              font-family: Courier New;
          }
                    ]]>
</style>

<defs>
    <text x="150" y="40" id="globalVariable">none</text>
</defs>

  <rect class="anc_exon" x="0" y="35.0" width="0" height="30" style="fill:#87bcbc;fill-opacity:1.00" />
  <rect class="anc_exon" x="0" y="35.0" width="245.60000000000002" height="30" style="fill:#87bcbc;fill-opacity:1.00" />
  <line x1="245.60000000000002" y1="50.0" x2="264.6" y2="50.0" style="stroke:#999; stroke-width:3;" />
  <line x1="264.6" y1="50.0" x2="264.6" y2="50.0" style="stroke:#999; stroke-width:3;" />
  <line x1="264.6" y1="50.0" x2="264.6" y2="50.0" style="stroke:#999; stroke-width:3;" />
  <line x1="264.6" y1="50.0" x2="285.0" y2="50.0" style="stroke:#999; stroke-width:3;" />
  <rect class="anc_exon" x="285" y="35.0" width="139" height="30" style="fill:#87bcbc;fill-opacity:1.00" />
  <line x1="424" y1="50.0" x2="464" y2="50.0" style="stroke:#999; stroke-width:3;" />
  <rect class="anc_exon" x="464" y="35.0" width="94" height="30" style="fill:#87bcbc;fill-opacity:1.00" />
  <line x1="558" y1="50.0" x2="578" y2="50.0" style="stroke:#999; stroke-width:3;" />
  <line x1="578" y1="50.0" x2="578" y2="50.0" style="stroke:#999; stroke-width:3;" />
  <line x1="578" y1="50.0" x2="578" y2="50.0" style="stroke:#999; stroke-width:3;" />
  <line x1="578" y1="50.0" x2="598" y2="50.0" style="stroke:#999; stroke-width:3;" />
  <rect class="anc_exon" x="598" y="35.0" width="99" height="30" style="fill:#87bcbc;fill-opacity:1.00" />
  <line x1="697" y1="50.0" x2="737" y2="50.0" style="stroke:#999; stroke-width:3;" />
  <rect class="anc_exon" x="737" y="35.0" width="49" height="30" style="fill:#87bcbc;fill-opacity:1.00" />
  <line x1="786" y1="50.0" x2="826" y2="50.0" style="stroke:#999; stroke-width:3;" />
  <rect class="anc_exon" x="826" y="35.0" width="52" height="30" style="fill:#87bcbc;fill-opacity:1.00" />
  <line x1="878" y1="50.0" x2="918" y2="50.0" style="stroke:#999; stroke-width:3;" />
  <rect class="anc_exon" x="918" y="35.0" width="56" height="30" style="fill:#87bcbc;fill-opacity:1.00" />
  <line x1="974" y1="50.0" x2="994" y2="50.0" style="stroke:#999; stroke-width:3;" />
  <line x1="994" y1="50.0" x2="994" y2="50.0" style="stroke:#999; stroke-width:3;" />
  <line x1="994" y1="50.0" x2="994" y2="50.0" style="stroke:#999; stroke-width:3;" />
  <line x1="994" y1="50.0" x2="1014" y2="50.0" style="stroke:#999; stroke-width:3;" />
  <rect class="anc_exon" x="1014" y="35.0" width="81" height="30" style="fill:#87bcbc;fill-opacity:1.00" />
  <line x1="1095" y1="50.0" x2="1135" y2="50.0" style="stroke:#999; stroke-width:3;" />
  <rect class="anc_exon" x="1135" y="35.0" width="93" height="30" style="fill:#87bcbc;fill-opacity:1.00" />
  <line x1="1228" y1="50.0" x2="1268" y2="50.0" style="stroke:#999; stroke-width:3;" />
  <rect class="anc_exon" x="1268" y="35.0" width="134" height="30" style="fill:#87bcbc;fill-opacity:1.00" />
  <line x1="1402" y1="50.0" x2="1442" y2="50.0" style="stroke:#999; stroke-width:3;" />
  <rect class="anc_exon" x="1442" y="35.0" width="78" height="30" style="fill:#87bcbc;fill-opacity:1.00" />
  <line x1="1520" y1="50.0" x2="1560" y2="50.0" style="stroke:#999; stroke-width:3;" />
  <rect class="anc_exon" x="1560" y="35.0" width="96" height="30" style="fill:#87bcbc;fill-opacity:1.00" />
  <line x1="1656" y1="50.0" x2="1696" y2="50.0" style="stroke:#999; stroke-width:3;" />
  <rect class="anc_exon" x="1696" y="35.0" width="104" height="30" style="fill:#87bcbc;fill-opacity:1.00" />
  <line x1="1800" y1="50.0" x2="1840" y2="50.0" style="stroke:#999; stroke-width:3;" />
  <rect class="anc_exon" x="1840" y="35.0" width="76" height="30" style="fill:#87bcbc;fill-opacity:1.00" />
  <line x1="1916" y1="50.0" x2="1936" y2="50.0" style="stroke:#999; stroke-width:3;" />
  <line x1="1936" y1="50.0" x2="1936" y2="50.0" style="stroke:#999; stroke-width:3;" />
  <line x1="1936" y1="50.0" x2="1936" y2="50.0" style="stroke:#999; stroke-width:3;" />
  <line x1="1936" y1="50.0" x2="1956" y2="50.0" style="stroke:#999; stroke-width:3;" />
  <rect class="anc_exon" x="1956" y="35.0" width="39" height="30" style="fill:#87bcbc;fill-opacity:1.00" />
  <line x1="1995" y1="50.0" x2="2035" y2="50.0" style="stroke:#999; stroke-width:3;" />
  <rect class="anc_exon" x="2035" y="35.0" width="62" height="30" style="fill:#87bcbc;fill-opacity:1.00" />
  <line x1="2097" y1="50.0" x2="2137" y2="50.0" style="stroke:#999; stroke-width:3;" />
  <rect class="anc_exon" x="2137" y="35.0" width="115" height="30" style="fill:#87bcbc;fill-opacity:1.00" />
  <rect class="anc_exon" x="2252" y="35.0" width="0" height="30" style="fill:#87bcbc;fill-opacity:1.00" />
  <text style="" >
<tspan x="0" y="83.0" style="font-size:18px;" >SP XM_031953533_1.1</tspan>  </text>



<script type="text/ecmascript">
<![CDATA[
function draw_bbox(text_id)
{
    var text_elem = document.getElementById(text_id);
    var offset_px = 2;
    var offset_py = 0;
    bbox = text_elem.getBBox();
    var box = document.createElementNS(document.rootElement.namespaceURI,'rect');
    box.setAttribute('x', bbox.x - offset_px);
    box.setAttribute('y', bbox.y - offset_py);
    box.setAttribute('width', bbox.width + offset_px * 2);
    box.setAttribute('height', bbox.height + offset_py * 2);
    box.setAttribute('style','fill: white;'+'stroke: black;'+'stroke-width: 1px;');
    text_elem.insertBefore(box,text_elem.childNodes[0]);

    var svg = text_elem.parentNode;
    svg.appendChild(text_elem);
}

for (var i=1; i < 1; i++)
{
draw_bbox("Mouseover" + i);
}
]]> 
</script>
</svg>
