<svg version="1.1"
xmlns="http://www.w3.org/2000/svg"
xmlns:xlink="http://www.w3.org/1999/xlink"
width="1375" height="100" viewBox = "0 0 1375 100"
onclick="mouseclick(evt)">

<script type="text/ecmascript">

<![CDATA[
    function mouseover(evt, target) { 
    var gv = document.getElementById("globalVariable");
    var previoustarget = gv.firstChild.nodeValue;
    if (previoustarget != "none") 
    {
        	document.getElementById(gv.firstChild.nodeValue).setAttributeNS(null, "visibility", "hidden");
    }
    document.getElementById(target).setAttributeNS(null, "visibility", "visible");
    gv.firstChild.nodeValue = target;
        }

    function mouseclick(evt) { 
    var gv = document.getElementById("globalVariable");
    var previoustarget = gv.firstChild.nodeValue;
    if (previoustarget != "none") {
        	document.getElementById(gv.firstChild.nodeValue).setAttributeNS(null, "visibility", "hidden");
        }
    }
]]>
  </script>
<style type="text/css" >

<![CDATA[
    rect.anc_exon {
              stroke-width:3;
                  }

    rect.non_anc_exon {
              stroke: black; stroke-width:3; stroke-dasharray: 5,5;
                    }

    text {
              font-size: 18px;
              font-family: Courier New;
          }
                    ]]>
</style>

<defs>
    <text x="150" y="40" id="globalVariable">none</text>
</defs>

  <rect class="anc_exon" x="0" y="35.0" width="0" height="30" style="fill:#87bcbc;fill-opacity:1.00" />
  <rect class="anc_exon" x="0" y="35.0" width="120.80000000000001" height="30" style="fill:#87bcbc;fill-opacity:1.00" />
  <line x1="120.80000000000001" y1="50.0" x2="160.0" y2="50.0" style="stroke:#999; stroke-width:3;" />
  <rect class="anc_exon" x="160" y="35.0" width="142" height="30" style="fill:#87bcbc;fill-opacity:1.00" />
  <line x1="302" y1="50.0" x2="322" y2="50.0" style="stroke:#999; stroke-width:3;" />
  <line x1="322" y1="50.0" x2="322" y2="50.0" style="stroke:#999; stroke-width:3;" />
  <line x1="322" y1="50.0" x2="322" y2="50.0" style="stroke:#999; stroke-width:3;" />
  <line x1="322" y1="50.0" x2="342" y2="50.0" style="stroke:#999; stroke-width:3;" />
  <rect class="anc_exon" x="342" y="35.0" width="100" height="30" style="fill:#87bcbc;fill-opacity:1.00" />
  <line x1="442" y1="50.0" x2="462" y2="50.0" style="stroke:#999; stroke-width:3;" />
  <line x1="462" y1="50.0" x2="462" y2="50.0" style="stroke:#999; stroke-width:3;" />
  <line x1="462" y1="50.0" x2="462" y2="50.0" style="stroke:#999; stroke-width:3;" />
  <line x1="462" y1="50.0" x2="482" y2="50.0" style="stroke:#999; stroke-width:3;" />
  <rect class="anc_exon" x="482" y="35.0" width="65" height="30" style="fill:#87bcbc;fill-opacity:1.00" />
  <line x1="547" y1="50.0" x2="587" y2="50.0" style="stroke:#999; stroke-width:3;" />
  <rect class="anc_exon" x="587" y="35.0" width="60" height="30" style="fill:#87bcbc;fill-opacity:1.00" />
  <line x1="647" y1="50.0" x2="687" y2="50.0" style="stroke:#999; stroke-width:3;" />
  <rect class="anc_exon" x="687" y="35.0" width="52" height="30" style="fill:#87bcbc;fill-opacity:1.00" />
  <line x1="739" y1="50.0" x2="759" y2="50.0" style="stroke:#999; stroke-width:3;" />
  <line x1="759" y1="50.0" x2="759" y2="50.0" style="stroke:#999; stroke-width:3;" />
  <line x1="759" y1="50.0" x2="759" y2="50.0" style="stroke:#999; stroke-width:3;" />
  <line x1="759" y1="50.0" x2="779" y2="50.0" style="stroke:#999; stroke-width:3;" />
  <rect class="anc_exon" x="779" y="35.0" width="132" height="30" style="fill:#87bcbc;fill-opacity:1.00" />
  <line x1="911" y1="50.0" x2="931" y2="50.0" style="stroke:#999; stroke-width:3;" />
  <line x1="931" y1="50.0" x2="931" y2="50.0" style="stroke:#999; stroke-width:3;" />
  <line x1="931" y1="50.0" x2="931" y2="50.0" style="stroke:#999; stroke-width:3;" />
  <line x1="931" y1="50.0" x2="951" y2="50.0" style="stroke:#999; stroke-width:3;" />
  <rect class="anc_exon" x="951" y="35.0" width="115" height="30" style="fill:#87bcbc;fill-opacity:1.00" />
  <line x1="1066" y1="50.0" x2="1106" y2="50.0" style="stroke:#999; stroke-width:3;" />
  <rect class="anc_exon" x="1106" y="35.0" width="62" height="30" style="fill:#87bcbc;fill-opacity:1.00" />
  <line x1="1168" y1="50.0" x2="1208" y2="50.0" style="stroke:#999; stroke-width:3;" />
  <rect class="anc_exon" x="1208" y="35.0" width="36" height="30" style="fill:#87bcbc;fill-opacity:1.00" />
  <line x1="1244" y1="50.0" x2="1284" y2="50.0" style="stroke:#999; stroke-width:3;" />
  <rect class="anc_exon" x="1284" y="35.0" width="55" height="30" style="fill:#87bcbc;fill-opacity:1.00" />
  <rect class="anc_exon" x="1339" y="35.0" width="0" height="30" style="fill:#87bcbc;fill-opacity:1.00" />
  <text style="" >
<tspan x="0" y="83.0" style="font-size:18px;" >SP XM_012548750_3.1</tspan>  </text>



<script type="text/ecmascript">
<![CDATA[
function draw_bbox(text_id)
{
    var text_elem = document.getElementById(text_id);
    var offset_px = 2;
    var offset_py = 0;
    bbox = text_elem.getBBox();
    var box = document.createElementNS(document.rootElement.namespaceURI,'rect');
    box.setAttribute('x', bbox.x - offset_px);
    box.setAttribute('y', bbox.y - offset_py);
    box.setAttribute('width', bbox.width + offset_px * 2);
    box.setAttribute('height', bbox.height + offset_py * 2);
    box.setAttribute('style','fill: white;'+'stroke: black;'+'stroke-width: 1px;');
    text_elem.insertBefore(box,text_elem.childNodes[0]);

    var svg = text_elem.parentNode;
    svg.appendChild(text_elem);
}

for (var i=1; i < 1; i++)
{
draw_bbox("Mouseover" + i);
}
]]> 
</script>
</svg>
