<svg version="1.1"
xmlns="http://www.w3.org/2000/svg"
xmlns:xlink="http://www.w3.org/1999/xlink"
width="2826" height="100" viewBox = "0 0 2826 100"
onclick="mouseclick(evt)">

<script type="text/ecmascript">

<![CDATA[
    function mouseover(evt, target) { 
    var gv = document.getElementById("globalVariable");
    var previoustarget = gv.firstChild.nodeValue;
    if (previoustarget != "none") 
    {
        	document.getElementById(gv.firstChild.nodeValue).setAttributeNS(null, "visibility", "hidden");
    }
    document.getElementById(target).setAttributeNS(null, "visibility", "visible");
    gv.firstChild.nodeValue = target;
        }

    function mouseclick(evt) { 
    var gv = document.getElementById("globalVariable");
    var previoustarget = gv.firstChild.nodeValue;
    if (previoustarget != "none") {
        	document.getElementById(gv.firstChild.nodeValue).setAttributeNS(null, "visibility", "hidden");
        }
    }
]]>
  </script>
<style type="text/css" >

<![CDATA[
    rect.anc_exon {
              stroke-width:3;
                  }

    rect.non_anc_exon {
              stroke: black; stroke-width:3; stroke-dasharray: 5,5;
                    }

    text {
              font-size: 18px;
              font-family: Courier New;
          }
                    ]]>
</style>

<defs>
    <text x="150" y="40" id="globalVariable">none</text>
</defs>

  <rect class="anc_exon" x="0" y="35.0" width="0" height="30" style="fill:#87bcbc;fill-opacity:1.00" />
  <rect class="anc_exon" x="0" y="35.0" width="297.6" height="30" style="fill:#87bcbc;fill-opacity:1.00" />
  <line x1="297.6" y1="50.0" x2="316.6" y2="50.0" style="stroke:#999; stroke-width:3;" />
  <line x1="316.6" y1="50.0" x2="316.6" y2="50.0" style="stroke:#999; stroke-width:3;" />
  <line x1="316.6" y1="50.0" x2="316.6" y2="50.0" style="stroke:#999; stroke-width:3;" />
  <line x1="316.6" y1="50.0" x2="337.0" y2="50.0" style="stroke:#999; stroke-width:3;" />
  <rect class="anc_exon" x="337" y="35.0" width="123" height="30" style="fill:#87bcbc;fill-opacity:1.00" />
  <line x1="460" y1="50.0" x2="480" y2="50.0" style="stroke:#999; stroke-width:3;" />
  <line x1="480" y1="50.0" x2="480" y2="50.0" style="stroke:#999; stroke-width:3;" />
  <line x1="480" y1="50.0" x2="480" y2="50.0" style="stroke:#999; stroke-width:3;" />
  <line x1="480" y1="50.0" x2="500" y2="50.0" style="stroke:#999; stroke-width:3;" />
  <rect class="anc_exon" x="500" y="35.0" width="132" height="30" style="fill:#87bcbc;fill-opacity:1.00" />
  <line x1="632" y1="50.0" x2="652" y2="50.0" style="stroke:#999; stroke-width:3;" />
  <line x1="652" y1="50.0" x2="652" y2="50.0" style="stroke:#999; stroke-width:3;" />
  <line x1="652" y1="50.0" x2="652" y2="50.0" style="stroke:#999; stroke-width:3;" />
  <line x1="652" y1="50.0" x2="672" y2="50.0" style="stroke:#999; stroke-width:3;" />
  <rect class="anc_exon" x="672" y="35.0" width="131" height="30" style="fill:#87bcbc;fill-opacity:1.00" />
  <line x1="803" y1="50.0" x2="843" y2="50.0" style="stroke:#999; stroke-width:3;" />
  <rect class="anc_exon" x="843" y="35.0" width="181" height="30" style="fill:#87bcbc;fill-opacity:1.00" />
  <line x1="1024" y1="50.0" x2="1064" y2="50.0" style="stroke:#999; stroke-width:3;" />
  <rect class="anc_exon" x="1064" y="35.0" width="312" height="30" style="fill:#87bcbc;fill-opacity:1.00" />
  <line x1="1376" y1="50.0" x2="1396" y2="50.0" style="stroke:#999; stroke-width:3;" />
  <line x1="1396" y1="50.0" x2="1396" y2="50.0" style="stroke:#999; stroke-width:3;" />
  <line x1="1396" y1="50.0" x2="1396" y2="50.0" style="stroke:#999; stroke-width:3;" />
  <line x1="1396" y1="50.0" x2="1416" y2="50.0" style="stroke:#999; stroke-width:3;" />
  <rect class="anc_exon" x="1416" y="35.0" width="88" height="30" style="fill:#87bcbc;fill-opacity:1.00" />
  <line x1="1504" y1="50.0" x2="1544" y2="50.0" style="stroke:#999; stroke-width:3;" />
  <rect class="anc_exon" x="1544" y="35.0" width="155" height="30" style="fill:#87bcbc;fill-opacity:1.00" />
  <line x1="1699" y1="50.0" x2="1739" y2="50.0" style="stroke:#999; stroke-width:3;" />
  <rect class="anc_exon" x="1739" y="35.0" width="396" height="30" style="fill:#87bcbc;fill-opacity:1.00" />
  <line x1="2135" y1="50.0" x2="2175" y2="50.0" style="stroke:#999; stroke-width:3;" />
  <rect class="anc_exon" x="2175" y="35.0" width="94" height="30" style="fill:#87bcbc;fill-opacity:1.00" />
  <line x1="2269" y1="50.0" x2="2289" y2="50.0" style="stroke:#999; stroke-width:3;" />
  <line x1="2289" y1="50.0" x2="2289" y2="50.0" style="stroke:#999; stroke-width:3;" />
  <line x1="2289" y1="50.0" x2="2289" y2="50.0" style="stroke:#999; stroke-width:3;" />
  <line x1="2289" y1="50.0" x2="2309" y2="50.0" style="stroke:#999; stroke-width:3;" />
  <rect class="anc_exon" x="2309" y="35.0" width="148" height="30" style="fill:#87bcbc;fill-opacity:1.00" />
  <line x1="2457" y1="50.0" x2="2497" y2="50.0" style="stroke:#999; stroke-width:3;" />
  <rect class="anc_exon" x="2497" y="35.0" width="97" height="30" style="fill:#87bcbc;fill-opacity:1.00" />
  <line x1="2594" y1="50.0" x2="2614" y2="50.0" style="stroke:#999; stroke-width:3;" />
  <line x1="2614" y1="50.0" x2="2614" y2="50.0" style="stroke:#999; stroke-width:3;" />
  <line x1="2614" y1="50.0" x2="2614" y2="50.0" style="stroke:#999; stroke-width:3;" />
  <line x1="2614" y1="50.0" x2="2634" y2="50.0" style="stroke:#999; stroke-width:3;" />
  <rect class="anc_exon" x="2634" y="35.0" width="156" height="30" style="fill:#87bcbc;fill-opacity:1.00" />
  <rect class="anc_exon" x="2790" y="35.0" width="0" height="30" style="fill:#87bcbc;fill-opacity:1.00" />
  <text style="" >
<tspan x="0" y="83.0" style="font-size:18px;" >SP XM_031956765_1.1</tspan>  </text>



<script type="text/ecmascript">
<![CDATA[
function draw_bbox(text_id)
{
    var text_elem = document.getElementById(text_id);
    var offset_px = 2;
    var offset_py = 0;
    bbox = text_elem.getBBox();
    var box = document.createElementNS(document.rootElement.namespaceURI,'rect');
    box.setAttribute('x', bbox.x - offset_px);
    box.setAttribute('y', bbox.y - offset_py);
    box.setAttribute('width', bbox.width + offset_px * 2);
    box.setAttribute('height', bbox.height + offset_py * 2);
    box.setAttribute('style','fill: white;'+'stroke: black;'+'stroke-width: 1px;');
    text_elem.insertBefore(box,text_elem.childNodes[0]);

    var svg = text_elem.parentNode;
    svg.appendChild(text_elem);
}

for (var i=1; i < 1; i++)
{
draw_bbox("Mouseover" + i);
}
]]> 
</script>
</svg>
