<svg version="1.1"
xmlns="http://www.w3.org/2000/svg"
xmlns:xlink="http://www.w3.org/1999/xlink"
width="2661" height="100" viewBox = "0 0 2661 100"
onclick="mouseclick(evt)">

<script type="text/ecmascript">

<![CDATA[
    function mouseover(evt, target) { 
    var gv = document.getElementById("globalVariable");
    var previoustarget = gv.firstChild.nodeValue;
    if (previoustarget != "none") 
    {
        	document.getElementById(gv.firstChild.nodeValue).setAttributeNS(null, "visibility", "hidden");
    }
    document.getElementById(target).setAttributeNS(null, "visibility", "visible");
    gv.firstChild.nodeValue = target;
        }

    function mouseclick(evt) { 
    var gv = document.getElementById("globalVariable");
    var previoustarget = gv.firstChild.nodeValue;
    if (previoustarget != "none") {
        	document.getElementById(gv.firstChild.nodeValue).setAttributeNS(null, "visibility", "hidden");
        }
    }
]]>
  </script>
<style type="text/css" >

<![CDATA[
    rect.anc_exon {
              stroke-width:3;
                  }

    rect.non_anc_exon {
              stroke: black; stroke-width:3; stroke-dasharray: 5,5;
                    }

    text {
              font-size: 18px;
              font-family: Courier New;
          }
                    ]]>
</style>

<defs>
    <text x="150" y="40" id="globalVariable">none</text>
</defs>

  <rect class="anc_exon" x="0" y="35.0" width="0" height="30" style="fill:#87bcbc;fill-opacity:1.00" />
  <rect class="anc_exon" x="0" y="35.0" width="410.40000000000003" height="30" style="fill:#87bcbc;fill-opacity:1.00" />
  <line x1="410.40000000000003" y1="50.0" x2="429.40000000000003" y2="50.0" style="stroke:#999; stroke-width:3;" />
  <line x1="429.40000000000003" y1="50.0" x2="429.40000000000003" y2="50.0" style="stroke:#999; stroke-width:3;" />
  <line x1="429.40000000000003" y1="50.0" x2="429.40000000000003" y2="50.0" style="stroke:#999; stroke-width:3;" />
  <line x1="429.40000000000003" y1="50.0" x2="450.0" y2="50.0" style="stroke:#999; stroke-width:3;" />
  <rect class="anc_exon" x="450" y="35.0" width="386" height="30" style="fill:#87bcbc;fill-opacity:1.00" />
  <line x1="836" y1="50.0" x2="876" y2="50.0" style="stroke:#999; stroke-width:3;" />
  <rect class="anc_exon" x="876" y="35.0" width="70" height="30" style="fill:#87bcbc;fill-opacity:1.00" />
  <line x1="946" y1="50.0" x2="966" y2="50.0" style="stroke:#999; stroke-width:3;" />
  <line x1="966" y1="50.0" x2="966" y2="50.0" style="stroke:#999; stroke-width:3;" />
  <line x1="966" y1="50.0" x2="966" y2="50.0" style="stroke:#999; stroke-width:3;" />
  <line x1="966" y1="50.0" x2="986" y2="50.0" style="stroke:#999; stroke-width:3;" />
  <rect class="anc_exon" x="986" y="35.0" width="124" height="30" style="fill:#87bcbc;fill-opacity:1.00" />
  <line x1="1110" y1="50.0" x2="1150" y2="50.0" style="stroke:#999; stroke-width:3;" />
  <rect class="anc_exon" x="1150" y="35.0" width="148" height="30" style="fill:#87bcbc;fill-opacity:1.00" />
  <line x1="1298" y1="50.0" x2="1338" y2="50.0" style="stroke:#999; stroke-width:3;" />
  <rect class="anc_exon" x="1338" y="35.0" width="103" height="30" style="fill:#87bcbc;fill-opacity:1.00" />
  <line x1="1441" y1="50.0" x2="1481" y2="50.0" style="stroke:#999; stroke-width:3;" />
  <rect class="anc_exon" x="1481" y="35.0" width="146" height="30" style="fill:#87bcbc;fill-opacity:1.00" />
  <line x1="1627" y1="50.0" x2="1667" y2="50.0" style="stroke:#999; stroke-width:3;" />
  <rect class="anc_exon" x="1667" y="35.0" width="77" height="30" style="fill:#87bcbc;fill-opacity:1.00" />
  <line x1="1744" y1="50.0" x2="1784" y2="50.0" style="stroke:#999; stroke-width:3;" />
  <rect class="anc_exon" x="1784" y="35.0" width="99" height="30" style="fill:#87bcbc;fill-opacity:1.00" />
  <line x1="1883" y1="50.0" x2="1923" y2="50.0" style="stroke:#999; stroke-width:3;" />
  <rect class="anc_exon" x="1923" y="35.0" width="140" height="30" style="fill:#87bcbc;fill-opacity:1.00" />
  <line x1="2063" y1="50.0" x2="2103" y2="50.0" style="stroke:#999; stroke-width:3;" />
  <rect class="anc_exon" x="2103" y="35.0" width="136" height="30" style="fill:#87bcbc;fill-opacity:1.00" />
  <line x1="2239" y1="50.0" x2="2259" y2="50.0" style="stroke:#999; stroke-width:3;" />
  <line x1="2259" y1="50.0" x2="2259" y2="50.0" style="stroke:#999; stroke-width:3;" />
  <line x1="2259" y1="50.0" x2="2259" y2="50.0" style="stroke:#999; stroke-width:3;" />
  <line x1="2259" y1="50.0" x2="2279" y2="50.0" style="stroke:#999; stroke-width:3;" />
  <rect class="anc_exon" x="2279" y="35.0" width="88" height="30" style="fill:#87bcbc;fill-opacity:1.00" />
  <line x1="2367" y1="50.0" x2="2407" y2="50.0" style="stroke:#999; stroke-width:3;" />
  <rect class="anc_exon" x="2407" y="35.0" width="82" height="30" style="fill:#87bcbc;fill-opacity:1.00" />
  <line x1="2489" y1="50.0" x2="2509" y2="50.0" style="stroke:#999; stroke-width:3;" />
  <line x1="2509" y1="50.0" x2="2509" y2="50.0" style="stroke:#999; stroke-width:3;" />
  <line x1="2509" y1="50.0" x2="2509" y2="50.0" style="stroke:#999; stroke-width:3;" />
  <line x1="2509" y1="50.0" x2="2529" y2="50.0" style="stroke:#999; stroke-width:3;" />
  <rect class="anc_exon" x="2529" y="35.0" width="96" height="30" style="fill:#87bcbc;fill-opacity:1.00" />
  <rect class="anc_exon" x="2625" y="35.0" width="0" height="30" style="fill:#87bcbc;fill-opacity:1.00" />
  <text style="" >
<tspan x="0" y="83.0" style="font-size:18px;" >SP XM_031953531_1.1</tspan>  </text>



<script type="text/ecmascript">
<![CDATA[
function draw_bbox(text_id)
{
    var text_elem = document.getElementById(text_id);
    var offset_px = 2;
    var offset_py = 0;
    bbox = text_elem.getBBox();
    var box = document.createElementNS(document.rootElement.namespaceURI,'rect');
    box.setAttribute('x', bbox.x - offset_px);
    box.setAttribute('y', bbox.y - offset_py);
    box.setAttribute('width', bbox.width + offset_px * 2);
    box.setAttribute('height', bbox.height + offset_py * 2);
    box.setAttribute('style','fill: white;'+'stroke: black;'+'stroke-width: 1px;');
    text_elem.insertBefore(box,text_elem.childNodes[0]);

    var svg = text_elem.parentNode;
    svg.appendChild(text_elem);
}

for (var i=1; i < 1; i++)
{
draw_bbox("Mouseover" + i);
}
]]> 
</script>
</svg>
