<svg version="1.1"
xmlns="http://www.w3.org/2000/svg"
xmlns:xlink="http://www.w3.org/1999/xlink"
width="1603" height="100" viewBox = "0 0 1603 100"
onclick="mouseclick(evt)">

<script type="text/ecmascript">

<![CDATA[
    function mouseover(evt, target) { 
    var gv = document.getElementById("globalVariable");
    var previoustarget = gv.firstChild.nodeValue;
    if (previoustarget != "none") 
    {
        	document.getElementById(gv.firstChild.nodeValue).setAttributeNS(null, "visibility", "hidden");
    }
    document.getElementById(target).setAttributeNS(null, "visibility", "visible");
    gv.firstChild.nodeValue = target;
        }

    function mouseclick(evt) { 
    var gv = document.getElementById("globalVariable");
    var previoustarget = gv.firstChild.nodeValue;
    if (previoustarget != "none") {
        	document.getElementById(gv.firstChild.nodeValue).setAttributeNS(null, "visibility", "hidden");
        }
    }
]]>
  </script>
<style type="text/css" >

<![CDATA[
    rect.anc_exon {
              stroke-width:3;
                  }

    rect.non_anc_exon {
              stroke: black; stroke-width:3; stroke-dasharray: 5,5;
                    }

    text {
              font-size: 18px;
              font-family: Courier New;
          }
                    ]]>
</style>

<defs>
    <text x="150" y="40" id="globalVariable">none</text>
</defs>

  <rect class="anc_exon" x="0" y="35.0" width="0" height="30" style="fill:#87bcbc;fill-opacity:1.00" />
  <rect class="anc_exon" x="0" y="35.0" width="67.2" height="30" style="fill:#87bcbc;fill-opacity:1.00" />
  <line x1="67.2" y1="50.0" x2="86.2" y2="50.0" style="stroke:#999; stroke-width:3;" />
  <line x1="86.2" y1="50.0" x2="86.2" y2="50.0" style="stroke:#999; stroke-width:3;" />
  <line x1="86.2" y1="50.0" x2="86.2" y2="50.0" style="stroke:#999; stroke-width:3;" />
  <line x1="86.2" y1="50.0" x2="107.0" y2="50.0" style="stroke:#999; stroke-width:3;" />
  <rect class="anc_exon" x="107" y="35.0" width="47" height="30" style="fill:#87bcbc;fill-opacity:1.00" />
  <line x1="154" y1="50.0" x2="174" y2="50.0" style="stroke:#999; stroke-width:3;" />
  <line x1="174" y1="50.0" x2="174" y2="50.0" style="stroke:#999; stroke-width:3;" />
  <line x1="174" y1="50.0" x2="174" y2="50.0" style="stroke:#999; stroke-width:3;" />
  <line x1="174" y1="50.0" x2="194" y2="50.0" style="stroke:#999; stroke-width:3;" />
  <rect class="anc_exon" x="194" y="35.0" width="118" height="30" style="fill:#87bcbc;fill-opacity:1.00" />
  <line x1="312" y1="50.0" x2="352" y2="50.0" style="stroke:#999; stroke-width:3;" />
  <rect class="anc_exon" x="352" y="35.0" width="120" height="30" style="fill:#87bcbc;fill-opacity:1.00" />
  <line x1="472" y1="50.0" x2="512" y2="50.0" style="stroke:#999; stroke-width:3;" />
  <rect class="anc_exon" x="512" y="35.0" width="69" height="30" style="fill:#87bcbc;fill-opacity:1.00" />
  <line x1="581" y1="50.0" x2="621" y2="50.0" style="stroke:#999; stroke-width:3;" />
  <rect class="anc_exon" x="621" y="35.0" width="103" height="30" style="fill:#87bcbc;fill-opacity:1.00" />
  <line x1="724" y1="50.0" x2="764" y2="50.0" style="stroke:#999; stroke-width:3;" />
  <rect class="anc_exon" x="764" y="35.0" width="96" height="30" style="fill:#87bcbc;fill-opacity:1.00" />
  <line x1="860" y1="50.0" x2="880" y2="50.0" style="stroke:#999; stroke-width:3;" />
  <line x1="880" y1="50.0" x2="880" y2="50.0" style="stroke:#999; stroke-width:3;" />
  <line x1="880" y1="50.0" x2="880" y2="50.0" style="stroke:#999; stroke-width:3;" />
  <line x1="880" y1="50.0" x2="900" y2="50.0" style="stroke:#999; stroke-width:3;" />
  <rect class="anc_exon" x="900" y="35.0" width="61" height="30" style="fill:#87bcbc;fill-opacity:1.00" />
  <line x1="961" y1="50.0" x2="1001" y2="50.0" style="stroke:#999; stroke-width:3;" />
  <rect class="anc_exon" x="1001" y="35.0" width="72" height="30" style="fill:#87bcbc;fill-opacity:1.00" />
  <line x1="1073" y1="50.0" x2="1113" y2="50.0" style="stroke:#999; stroke-width:3;" />
  <rect class="anc_exon" x="1113" y="35.0" width="149" height="30" style="fill:#87bcbc;fill-opacity:1.00" />
  <line x1="1262" y1="50.0" x2="1302" y2="50.0" style="stroke:#999; stroke-width:3;" />
  <rect class="anc_exon" x="1302" y="35.0" width="64" height="30" style="fill:#87bcbc;fill-opacity:1.00" />
  <line x1="1366" y1="50.0" x2="1406" y2="50.0" style="stroke:#999; stroke-width:3;" />
  <rect class="anc_exon" x="1406" y="35.0" width="69" height="30" style="fill:#87bcbc;fill-opacity:1.00" />
  <line x1="1475" y1="50.0" x2="1515" y2="50.0" style="stroke:#999; stroke-width:3;" />
  <rect class="anc_exon" x="1515" y="35.0" width="52" height="30" style="fill:#87bcbc;fill-opacity:1.00" />
  <rect class="anc_exon" x="1567" y="35.0" width="0" height="30" style="fill:#87bcbc;fill-opacity:1.00" />
  <text style="" >
<tspan x="0" y="83.0" style="font-size:18px;" >SP XM_031954765_1.1</tspan>  </text>



<script type="text/ecmascript">
<![CDATA[
function draw_bbox(text_id)
{
    var text_elem = document.getElementById(text_id);
    var offset_px = 2;
    var offset_py = 0;
    bbox = text_elem.getBBox();
    var box = document.createElementNS(document.rootElement.namespaceURI,'rect');
    box.setAttribute('x', bbox.x - offset_px);
    box.setAttribute('y', bbox.y - offset_py);
    box.setAttribute('width', bbox.width + offset_px * 2);
    box.setAttribute('height', bbox.height + offset_py * 2);
    box.setAttribute('style','fill: white;'+'stroke: black;'+'stroke-width: 1px;');
    text_elem.insertBefore(box,text_elem.childNodes[0]);

    var svg = text_elem.parentNode;
    svg.appendChild(text_elem);
}

for (var i=1; i < 1; i++)
{
draw_bbox("Mouseover" + i);
}
]]> 
</script>
</svg>
