<svg version="1.1"
xmlns="http://www.w3.org/2000/svg"
xmlns:xlink="http://www.w3.org/1999/xlink"
width="1777" height="100" viewBox = "0 0 1777 100"
onclick="mouseclick(evt)">

<script type="text/ecmascript">

<![CDATA[
    function mouseover(evt, target) { 
    var gv = document.getElementById("globalVariable");
    var previoustarget = gv.firstChild.nodeValue;
    if (previoustarget != "none") 
    {
        	document.getElementById(gv.firstChild.nodeValue).setAttributeNS(null, "visibility", "hidden");
    }
    document.getElementById(target).setAttributeNS(null, "visibility", "visible");
    gv.firstChild.nodeValue = target;
        }

    function mouseclick(evt) { 
    var gv = document.getElementById("globalVariable");
    var previoustarget = gv.firstChild.nodeValue;
    if (previoustarget != "none") {
        	document.getElementById(gv.firstChild.nodeValue).setAttributeNS(null, "visibility", "hidden");
        }
    }
]]>
  </script>
<style type="text/css" >

<![CDATA[
    rect.anc_exon {
              stroke-width:3;
                  }

    rect.non_anc_exon {
              stroke: black; stroke-width:3; stroke-dasharray: 5,5;
                    }

    text {
              font-size: 18px;
              font-family: Courier New;
          }
                    ]]>
</style>

<defs>
    <text x="150" y="40" id="globalVariable">none</text>
</defs>

  <rect class="anc_exon" x="0" y="35.0" width="0" height="30" style="fill:#87bcbc;fill-opacity:1.00" />
  <rect class="anc_exon" x="0" y="35.0" width="22.400000000000002" height="30" style="fill:#878787;fill-opacity:1.00" />
  <line x1="22.400000000000002" y1="50.0" x2="41.400000000000006" y2="50.0" style="stroke:#999; stroke-width:3;" />
  <line x1="41.400000000000006" y1="50.0" x2="41.400000000000006" y2="50.0" style="stroke:#999; stroke-width:3;" />
  <line x1="41.400000000000006" y1="50.0" x2="41.400000000000006" y2="50.0" style="stroke:#999; stroke-width:3;" />
  <line x1="41.400000000000006" y1="50.0" x2="62.0" y2="50.0" style="stroke:#999; stroke-width:3;" />
  <rect class="anc_exon" x="62" y="35.0" width="54" height="30" style="fill:#87bcbc;fill-opacity:1.00" />
  <line x1="116" y1="50.0" x2="136" y2="50.0" style="stroke:#999; stroke-width:3;" />
  <line x1="136" y1="50.0" x2="136" y2="50.0" style="stroke:#999; stroke-width:3;" />
  <line x1="136" y1="50.0" x2="136" y2="50.0" style="stroke:#999; stroke-width:3;" />
  <line x1="136" y1="50.0" x2="156" y2="50.0" style="stroke:#999; stroke-width:3;" />
  <rect class="anc_exon" x="156" y="35.0" width="75" height="30" style="fill:#87bcbc;fill-opacity:1.00" />
  <line x1="231" y1="50.0" x2="251" y2="50.0" style="stroke:#999; stroke-width:3;" />
  <line x1="251" y1="50.0" x2="251" y2="50.0" style="stroke:#999; stroke-width:3;" />
  <line x1="251" y1="50.0" x2="251" y2="50.0" style="stroke:#999; stroke-width:3;" />
  <line x1="251" y1="50.0" x2="271" y2="50.0" style="stroke:#999; stroke-width:3;" />
  <rect class="anc_exon" x="271" y="35.0" width="101" height="30" style="fill:#87bcbc;fill-opacity:1.00" />
  <line x1="372" y1="50.0" x2="392" y2="50.0" style="stroke:#999; stroke-width:3;" />
  <line x1="392" y1="50.0" x2="392" y2="50.0" style="stroke:#999; stroke-width:3;" />
  <line x1="392" y1="50.0" x2="392" y2="50.0" style="stroke:#999; stroke-width:3;" />
  <line x1="392" y1="50.0" x2="412" y2="50.0" style="stroke:#999; stroke-width:3;" />
  <rect class="anc_exon" x="412" y="35.0" width="51" height="30" style="fill:#87bcbc;fill-opacity:1.00" />
  <line x1="463" y1="50.0" x2="483" y2="50.0" style="stroke:#999; stroke-width:3;" />
  <line x1="483" y1="50.0" x2="483" y2="50.0" style="stroke:#999; stroke-width:3;" />
  <line x1="483" y1="50.0" x2="483" y2="50.0" style="stroke:#999; stroke-width:3;" />
  <line x1="483" y1="50.0" x2="503" y2="50.0" style="stroke:#999; stroke-width:3;" />
  <rect class="anc_exon" x="503" y="35.0" width="94" height="30" style="fill:#87bcbc;fill-opacity:1.00" />
  <line x1="597" y1="50.0" x2="617" y2="50.0" style="stroke:#999; stroke-width:3;" />
  <line x1="617" y1="50.0" x2="617" y2="50.0" style="stroke:#999; stroke-width:3;" />
  <line x1="617" y1="50.0" x2="617" y2="50.0" style="stroke:#999; stroke-width:3;" />
  <line x1="617" y1="50.0" x2="637" y2="50.0" style="stroke:#999; stroke-width:3;" />
  <rect class="anc_exon" x="637" y="35.0" width="82" height="30" style="fill:#87bcbc;fill-opacity:1.00" />
  <line x1="719" y1="50.0" x2="739" y2="50.0" style="stroke:#999; stroke-width:3;" />
  <line x1="739" y1="50.0" x2="739" y2="50.0" style="stroke:#999; stroke-width:3;" />
  <line x1="739" y1="50.0" x2="739" y2="50.0" style="stroke:#999; stroke-width:3;" />
  <line x1="739" y1="50.0" x2="759" y2="50.0" style="stroke:#999; stroke-width:3;" />
  <rect class="anc_exon" x="759" y="35.0" width="80" height="30" style="fill:#87bcbc;fill-opacity:1.00" />
  <line x1="839" y1="50.0" x2="859" y2="50.0" style="stroke:#999; stroke-width:3;" />
  <line x1="859" y1="50.0" x2="859" y2="50.0" style="stroke:#999; stroke-width:3;" />
  <line x1="859" y1="50.0" x2="859" y2="50.0" style="stroke:#999; stroke-width:3;" />
  <line x1="859" y1="50.0" x2="879" y2="50.0" style="stroke:#999; stroke-width:3;" />
  <rect class="anc_exon" x="879" y="35.0" width="151" height="30" style="fill:#87bcbc;fill-opacity:1.00" />
  <line x1="1030" y1="50.0" x2="1050" y2="50.0" style="stroke:#999; stroke-width:3;" />
  <line x1="1050" y1="50.0" x2="1050" y2="50.0" style="stroke:#999; stroke-width:3;" />
  <line x1="1050" y1="50.0" x2="1050" y2="50.0" style="stroke:#999; stroke-width:3;" />
  <line x1="1050" y1="50.0" x2="1070" y2="50.0" style="stroke:#999; stroke-width:3;" />
  <rect class="anc_exon" x="1070" y="35.0" width="60" height="30" style="fill:#87bcbc;fill-opacity:1.00" />
  <line x1="1130" y1="50.0" x2="1170" y2="50.0" style="stroke:#999; stroke-width:3;" />
  <rect class="anc_exon" x="1170" y="35.0" width="47" height="30" style="fill:#87bcbc;fill-opacity:1.00" />
  <line x1="1217" y1="50.0" x2="1237" y2="50.0" style="stroke:#999; stroke-width:3;" />
  <line x1="1237" y1="50.0" x2="1237" y2="50.0" style="stroke:#999; stroke-width:3;" />
  <line x1="1237" y1="50.0" x2="1237" y2="50.0" style="stroke:#999; stroke-width:3;" />
  <line x1="1237" y1="50.0" x2="1257" y2="50.0" style="stroke:#999; stroke-width:3;" />
  <rect class="anc_exon" x="1257" y="35.0" width="100" height="30" style="fill:#87bcbc;fill-opacity:1.00" />
  <line x1="1357" y1="50.0" x2="1397" y2="50.0" style="stroke:#999; stroke-width:3;" />
  <rect class="anc_exon" x="1397" y="35.0" width="121" height="30" style="fill:#87bcbc;fill-opacity:1.00" />
  <line x1="1518" y1="50.0" x2="1558" y2="50.0" style="stroke:#999; stroke-width:3;" />
  <rect class="anc_exon" x="1558" y="35.0" width="112" height="30" style="fill:#87bcbc;fill-opacity:1.00" />
  <line x1="1670" y1="50.0" x2="1690" y2="50.0" style="stroke:#999; stroke-width:3;" />
  <line x1="1690" y1="50.0" x2="1690" y2="50.0" style="stroke:#999; stroke-width:3;" />
  <line x1="1690" y1="50.0" x2="1690" y2="50.0" style="stroke:#999; stroke-width:3;" />
  <line x1="1690" y1="50.0" x2="1710" y2="50.0" style="stroke:#999; stroke-width:3;" />
  <rect class="anc_exon" x="1710" y="35.0" width="31" height="30" style="fill:#87bcbc;fill-opacity:1.00" />
  <rect class="anc_exon" x="1741" y="35.0" width="0" height="30" style="fill:#87bcbc;fill-opacity:1.00" />
  <text style="" >
<tspan x="0" y="83.0" style="font-size:18px;" >SP XM_031950411_1.1</tspan>  </text>



<script type="text/ecmascript">
<![CDATA[
function draw_bbox(text_id)
{
    var text_elem = document.getElementById(text_id);
    var offset_px = 2;
    var offset_py = 0;
    bbox = text_elem.getBBox();
    var box = document.createElementNS(document.rootElement.namespaceURI,'rect');
    box.setAttribute('x', bbox.x - offset_px);
    box.setAttribute('y', bbox.y - offset_py);
    box.setAttribute('width', bbox.width + offset_px * 2);
    box.setAttribute('height', bbox.height + offset_py * 2);
    box.setAttribute('style','fill: white;'+'stroke: black;'+'stroke-width: 1px;');
    text_elem.insertBefore(box,text_elem.childNodes[0]);

    var svg = text_elem.parentNode;
    svg.appendChild(text_elem);
}

for (var i=1; i < 1; i++)
{
draw_bbox("Mouseover" + i);
}
]]> 
</script>
</svg>
