<svg version="1.1"
xmlns="http://www.w3.org/2000/svg"
xmlns:xlink="http://www.w3.org/1999/xlink"
width="3780" height="100" viewBox = "0 0 3780 100"
onclick="mouseclick(evt)">

<script type="text/ecmascript">

<![CDATA[
    function mouseover(evt, target) { 
    var gv = document.getElementById("globalVariable");
    var previoustarget = gv.firstChild.nodeValue;
    if (previoustarget != "none") 
    {
        	document.getElementById(gv.firstChild.nodeValue).setAttributeNS(null, "visibility", "hidden");
    }
    document.getElementById(target).setAttributeNS(null, "visibility", "visible");
    gv.firstChild.nodeValue = target;
        }

    function mouseclick(evt) { 
    var gv = document.getElementById("globalVariable");
    var previoustarget = gv.firstChild.nodeValue;
    if (previoustarget != "none") {
        	document.getElementById(gv.firstChild.nodeValue).setAttributeNS(null, "visibility", "hidden");
        }
    }
]]>
  </script>
<style type="text/css" >

<![CDATA[
    rect.anc_exon {
              stroke-width:3;
                  }

    rect.non_anc_exon {
              stroke: black; stroke-width:3; stroke-dasharray: 5,5;
                    }

    text {
              font-size: 18px;
              font-family: Courier New;
          }
                    ]]>
</style>

<defs>
    <text x="150" y="40" id="globalVariable">none</text>
</defs>

  <rect class="anc_exon" x="0" y="35.0" width="0" height="30" style="fill:#87bcbc;fill-opacity:1.00" />
  <rect class="anc_exon" x="0" y="35.0" width="184.0" height="30" style="fill:#87bcbc;fill-opacity:1.00" />
  <line x1="184.0" y1="50.0" x2="204.0" y2="50.0" style="stroke:#999; stroke-width:3;" />
  <line x1="204.0" y1="50.0" x2="204.0" y2="50.0" style="stroke:#999; stroke-width:3;" />
  <line x1="204.0" y1="50.0" x2="204.0" y2="50.0" style="stroke:#999; stroke-width:3;" />
  <line x1="204.0" y1="50.0" x2="224.0" y2="50.0" style="stroke:#999; stroke-width:3;" />
  <rect class="anc_exon" x="224" y="35.0" width="57" height="30" style="fill:#878787;fill-opacity:1.00" />
  <line x1="281" y1="50.0" x2="301" y2="50.0" style="stroke:#999; stroke-width:3;" />
  <line x1="301" y1="50.0" x2="301" y2="50.0" style="stroke:#999; stroke-width:3;" />
  <line x1="301" y1="50.0" x2="301" y2="50.0" style="stroke:#999; stroke-width:3;" />
  <line x1="301" y1="50.0" x2="321" y2="50.0" style="stroke:#999; stroke-width:3;" />
  <rect class="anc_exon" x="321" y="35.0" width="57" height="30" style="fill:#878787;fill-opacity:1.00" />
  <line x1="378" y1="50.0" x2="398" y2="50.0" style="stroke:#999; stroke-width:3;" />
  <line x1="398" y1="50.0" x2="398" y2="50.0" style="stroke:#999; stroke-width:3;" />
  <line x1="398" y1="50.0" x2="398" y2="50.0" style="stroke:#999; stroke-width:3;" />
  <line x1="398" y1="50.0" x2="418" y2="50.0" style="stroke:#999; stroke-width:3;" />
  <rect class="anc_exon" x="418" y="35.0" width="57" height="30" style="fill:#878787;fill-opacity:1.00" />
  <line x1="475" y1="50.0" x2="515" y2="50.0" style="stroke:#999; stroke-width:3;" />
  <rect class="anc_exon" x="515" y="35.0" width="131" height="30" style="fill:#878787;fill-opacity:1.00" />
  <line x1="646" y1="50.0" x2="666" y2="50.0" style="stroke:#999; stroke-width:3;" />
  <line x1="666" y1="50.0" x2="666" y2="50.0" style="stroke:#999; stroke-width:3;" />
  <line x1="666" y1="50.0" x2="666" y2="50.0" style="stroke:#999; stroke-width:3;" />
  <line x1="666" y1="50.0" x2="686" y2="50.0" style="stroke:#999; stroke-width:3;" />
  <rect class="anc_exon" x="686" y="35.0" width="171" height="30" style="fill:#878787;fill-opacity:1.00" />
  <line x1="857" y1="50.0" x2="877" y2="50.0" style="stroke:#999; stroke-width:3;" />
  <line x1="877" y1="50.0" x2="877" y2="50.0" style="stroke:#999; stroke-width:3;" />
  <line x1="877" y1="50.0" x2="877" y2="50.0" style="stroke:#999; stroke-width:3;" />
  <line x1="877" y1="50.0" x2="897" y2="50.0" style="stroke:#999; stroke-width:3;" />
  <rect class="anc_exon" x="897" y="35.0" width="132" height="30" style="fill:#878787;fill-opacity:1.00" />
  <line x1="1029" y1="50.0" x2="1049" y2="50.0" style="stroke:#999; stroke-width:3;" />
  <line x1="1049" y1="50.0" x2="1049" y2="50.0" style="stroke:#999; stroke-width:3;" />
  <line x1="1049" y1="50.0" x2="1049" y2="50.0" style="stroke:#999; stroke-width:3;" />
  <line x1="1049" y1="50.0" x2="1069" y2="50.0" style="stroke:#999; stroke-width:3;" />
  <rect class="anc_exon" x="1069" y="35.0" width="159" height="30" style="fill:#878787;fill-opacity:1.00" />
  <line x1="1228" y1="50.0" x2="1268" y2="50.0" style="stroke:#999; stroke-width:3;" />
  <rect class="anc_exon" x="1268" y="35.0" width="120" height="30" style="fill:#878787;fill-opacity:1.00" />
  <line x1="1388" y1="50.0" x2="1428" y2="50.0" style="stroke:#999; stroke-width:3;" />
  <rect class="anc_exon" x="1428" y="35.0" width="129" height="30" style="fill:#878787;fill-opacity:1.00" />
  <line x1="1557" y1="50.0" x2="1577" y2="50.0" style="stroke:#999; stroke-width:3;" />
  <line x1="1577" y1="50.0" x2="1577" y2="50.0" style="stroke:#999; stroke-width:3;" />
  <line x1="1577" y1="50.0" x2="1577" y2="50.0" style="stroke:#999; stroke-width:3;" />
  <line x1="1577" y1="50.0" x2="1597" y2="50.0" style="stroke:#999; stroke-width:3;" />
  <rect class="anc_exon" x="1597" y="35.0" width="144" height="30" style="fill:#878787;fill-opacity:1.00" />
  <line x1="1741" y1="50.0" x2="1761" y2="50.0" style="stroke:#999; stroke-width:3;" />
  <line x1="1761" y1="50.0" x2="1761" y2="50.0" style="stroke:#999; stroke-width:3;" />
  <line x1="1761" y1="50.0" x2="1761" y2="50.0" style="stroke:#999; stroke-width:3;" />
  <line x1="1761" y1="50.0" x2="1781" y2="50.0" style="stroke:#999; stroke-width:3;" />
  <rect class="anc_exon" x="1781" y="35.0" width="188" height="30" style="fill:#87bcbc;fill-opacity:1.00" />
  <line x1="1969" y1="50.0" x2="2009" y2="50.0" style="stroke:#999; stroke-width:3;" />
  <rect class="anc_exon" x="2009" y="35.0" width="167" height="30" style="fill:#878787;fill-opacity:1.00" />
  <line x1="2176" y1="50.0" x2="2196" y2="50.0" style="stroke:#999; stroke-width:3;" />
  <line x1="2196" y1="50.0" x2="2196" y2="50.0" style="stroke:#999; stroke-width:3;" />
  <line x1="2196" y1="50.0" x2="2196" y2="50.0" style="stroke:#999; stroke-width:3;" />
  <line x1="2196" y1="50.0" x2="2216" y2="50.0" style="stroke:#999; stroke-width:3;" />
  <rect class="anc_exon" x="2216" y="35.0" width="102" height="30" style="fill:#878787;fill-opacity:1.00" />
  <line x1="2318" y1="50.0" x2="2358" y2="50.0" style="stroke:#999; stroke-width:3;" />
  <rect class="anc_exon" x="2358" y="35.0" width="99" height="30" style="fill:#878787;fill-opacity:1.00" />
  <line x1="2457" y1="50.0" x2="2477" y2="50.0" style="stroke:#999; stroke-width:3;" />
  <line x1="2477" y1="50.0" x2="2477" y2="50.0" style="stroke:#999; stroke-width:3;" />
  <line x1="2477" y1="50.0" x2="2477" y2="50.0" style="stroke:#999; stroke-width:3;" />
  <line x1="2477" y1="50.0" x2="2497" y2="50.0" style="stroke:#999; stroke-width:3;" />
  <rect class="anc_exon" x="2497" y="35.0" width="116" height="30" style="fill:#878787;fill-opacity:1.00" />
  <line x1="2613" y1="50.0" x2="2633" y2="50.0" style="stroke:#999; stroke-width:3;" />
  <line x1="2633" y1="50.0" x2="2633" y2="50.0" style="stroke:#999; stroke-width:3;" />
  <line x1="2633" y1="50.0" x2="2633" y2="50.0" style="stroke:#999; stroke-width:3;" />
  <line x1="2633" y1="50.0" x2="2653" y2="50.0" style="stroke:#999; stroke-width:3;" />
  <rect class="anc_exon" x="2653" y="35.0" width="79" height="30" style="fill:#878787;fill-opacity:1.00" />
  <line x1="2732" y1="50.0" x2="2752" y2="50.0" style="stroke:#999; stroke-width:3;" />
  <line x1="2752" y1="50.0" x2="2752" y2="50.0" style="stroke:#999; stroke-width:3;" />
  <line x1="2752" y1="50.0" x2="2752" y2="50.0" style="stroke:#999; stroke-width:3;" />
  <line x1="2752" y1="50.0" x2="2772" y2="50.0" style="stroke:#999; stroke-width:3;" />
  <rect class="anc_exon" x="2772" y="35.0" width="972" height="30" style="fill:#87bcbc;fill-opacity:1.00" />
  <rect class="anc_exon" x="3744" y="35.0" width="0" height="30" style="fill:#87bcbc;fill-opacity:1.00" />
  <text style="" >
<tspan x="0" y="83.0" style="font-size:18px;" >SP XM_031957075_1.1</tspan>  </text>



<script type="text/ecmascript">
<![CDATA[
function draw_bbox(text_id)
{
    var text_elem = document.getElementById(text_id);
    var offset_px = 2;
    var offset_py = 0;
    bbox = text_elem.getBBox();
    var box = document.createElementNS(document.rootElement.namespaceURI,'rect');
    box.setAttribute('x', bbox.x - offset_px);
    box.setAttribute('y', bbox.y - offset_py);
    box.setAttribute('width', bbox.width + offset_px * 2);
    box.setAttribute('height', bbox.height + offset_py * 2);
    box.setAttribute('style','fill: white;'+'stroke: black;'+'stroke-width: 1px;');
    text_elem.insertBefore(box,text_elem.childNodes[0]);

    var svg = text_elem.parentNode;
    svg.appendChild(text_elem);
}

for (var i=1; i < 1; i++)
{
draw_bbox("Mouseover" + i);
}
]]> 
</script>
</svg>
