<svg version="1.1"
xmlns="http://www.w3.org/2000/svg"
xmlns:xlink="http://www.w3.org/1999/xlink"
width="2146" height="100" viewBox = "0 0 2146 100"
onclick="mouseclick(evt)">

<script type="text/ecmascript">

<![CDATA[
    function mouseover(evt, target) { 
    var gv = document.getElementById("globalVariable");
    var previoustarget = gv.firstChild.nodeValue;
    if (previoustarget != "none") 
    {
        	document.getElementById(gv.firstChild.nodeValue).setAttributeNS(null, "visibility", "hidden");
    }
    document.getElementById(target).setAttributeNS(null, "visibility", "visible");
    gv.firstChild.nodeValue = target;
        }

    function mouseclick(evt) { 
    var gv = document.getElementById("globalVariable");
    var previoustarget = gv.firstChild.nodeValue;
    if (previoustarget != "none") {
        	document.getElementById(gv.firstChild.nodeValue).setAttributeNS(null, "visibility", "hidden");
        }
    }
]]>
  </script>
<style type="text/css" >

<![CDATA[
    rect.anc_exon {
              stroke-width:3;
                  }

    rect.non_anc_exon {
              stroke: black; stroke-width:3; stroke-dasharray: 5,5;
                    }

    text {
              font-size: 18px;
              font-family: Courier New;
          }
                    ]]>
</style>

<defs>
    <text x="150" y="40" id="globalVariable">none</text>
</defs>

  <rect class="anc_exon" x="0" y="35.0" width="0" height="30" style="fill:#87bcbc;fill-opacity:1.00" />
  <rect class="anc_exon" x="0" y="35.0" width="60.0" height="30" style="fill:#87bcbc;fill-opacity:1.00" />
  <line x1="60.0" y1="50.0" x2="80.0" y2="50.0" style="stroke:#999; stroke-width:3;" />
  <line x1="80.0" y1="50.0" x2="80.0" y2="50.0" style="stroke:#999; stroke-width:3;" />
  <line x1="80.0" y1="50.0" x2="80.0" y2="50.0" style="stroke:#999; stroke-width:3;" />
  <line x1="80.0" y1="50.0" x2="100.0" y2="50.0" style="stroke:#999; stroke-width:3;" />
  <rect class="anc_exon" x="100" y="35.0" width="92" height="30" style="fill:#87bcbc;fill-opacity:1.00" />
  <line x1="192" y1="50.0" x2="212" y2="50.0" style="stroke:#999; stroke-width:3;" />
  <line x1="212" y1="50.0" x2="212" y2="50.0" style="stroke:#999; stroke-width:3;" />
  <line x1="212" y1="50.0" x2="212" y2="50.0" style="stroke:#999; stroke-width:3;" />
  <line x1="212" y1="50.0" x2="232" y2="50.0" style="stroke:#999; stroke-width:3;" />
  <rect class="anc_exon" x="232" y="35.0" width="470" height="30" style="fill:#87bcbc;fill-opacity:1.00" />
  <line x1="702" y1="50.0" x2="742" y2="50.0" style="stroke:#999; stroke-width:3;" />
  <rect class="anc_exon" x="742" y="35.0" width="181" height="30" style="fill:#87bcbc;fill-opacity:1.00" />
  <line x1="923" y1="50.0" x2="963" y2="50.0" style="stroke:#999; stroke-width:3;" />
  <rect class="anc_exon" x="963" y="35.0" width="56" height="30" style="fill:#87bcbc;fill-opacity:1.00" />
  <line x1="1019" y1="50.0" x2="1059" y2="50.0" style="stroke:#999; stroke-width:3;" />
  <rect class="anc_exon" x="1059" y="35.0" width="347" height="30" style="fill:#87bcbc;fill-opacity:1.00" />
  <line x1="1406" y1="50.0" x2="1426" y2="50.0" style="stroke:#999; stroke-width:3;" />
  <line x1="1426" y1="50.0" x2="1426" y2="50.0" style="stroke:#999; stroke-width:3;" />
  <line x1="1426" y1="50.0" x2="1426" y2="50.0" style="stroke:#999; stroke-width:3;" />
  <line x1="1426" y1="50.0" x2="1446" y2="50.0" style="stroke:#999; stroke-width:3;" />
  <rect class="anc_exon" x="1446" y="35.0" width="101" height="30" style="fill:#87bcbc;fill-opacity:1.00" />
  <line x1="1547" y1="50.0" x2="1587" y2="50.0" style="stroke:#999; stroke-width:3;" />
  <rect class="anc_exon" x="1587" y="35.0" width="88" height="30" style="fill:#87bcbc;fill-opacity:1.00" />
  <line x1="1675" y1="50.0" x2="1715" y2="50.0" style="stroke:#999; stroke-width:3;" />
  <rect class="anc_exon" x="1715" y="35.0" width="56" height="30" style="fill:#87bcbc;fill-opacity:1.00" />
  <line x1="1771" y1="50.0" x2="1811" y2="50.0" style="stroke:#999; stroke-width:3;" />
  <rect class="anc_exon" x="1811" y="35.0" width="131" height="30" style="fill:#87bcbc;fill-opacity:1.00" />
  <line x1="1942" y1="50.0" x2="1982" y2="50.0" style="stroke:#999; stroke-width:3;" />
  <rect class="anc_exon" x="1982" y="35.0" width="128" height="30" style="fill:#87bcbc;fill-opacity:1.00" />
  <rect class="anc_exon" x="2110" y="35.0" width="0" height="30" style="fill:#87bcbc;fill-opacity:1.00" />
  <text style="" >
<tspan x="0" y="83.0" style="font-size:18px;" >SP XM_031952462_1.1</tspan>  </text>



<script type="text/ecmascript">
<![CDATA[
function draw_bbox(text_id)
{
    var text_elem = document.getElementById(text_id);
    var offset_px = 2;
    var offset_py = 0;
    bbox = text_elem.getBBox();
    var box = document.createElementNS(document.rootElement.namespaceURI,'rect');
    box.setAttribute('x', bbox.x - offset_px);
    box.setAttribute('y', bbox.y - offset_py);
    box.setAttribute('width', bbox.width + offset_px * 2);
    box.setAttribute('height', bbox.height + offset_py * 2);
    box.setAttribute('style','fill: white;'+'stroke: black;'+'stroke-width: 1px;');
    text_elem.insertBefore(box,text_elem.childNodes[0]);

    var svg = text_elem.parentNode;
    svg.appendChild(text_elem);
}

for (var i=1; i < 1; i++)
{
draw_bbox("Mouseover" + i);
}
]]> 
</script>
</svg>
