<svg version="1.1"
xmlns="http://www.w3.org/2000/svg"
xmlns:xlink="http://www.w3.org/1999/xlink"
width="1407" height="100" viewBox = "0 0 1407 100"
onclick="mouseclick(evt)">

<script type="text/ecmascript">

<![CDATA[
    function mouseover(evt, target) { 
    var gv = document.getElementById("globalVariable");
    var previoustarget = gv.firstChild.nodeValue;
    if (previoustarget != "none") 
    {
        	document.getElementById(gv.firstChild.nodeValue).setAttributeNS(null, "visibility", "hidden");
    }
    document.getElementById(target).setAttributeNS(null, "visibility", "visible");
    gv.firstChild.nodeValue = target;
        }

    function mouseclick(evt) { 
    var gv = document.getElementById("globalVariable");
    var previoustarget = gv.firstChild.nodeValue;
    if (previoustarget != "none") {
        	document.getElementById(gv.firstChild.nodeValue).setAttributeNS(null, "visibility", "hidden");
        }
    }
]]>
  </script>
<style type="text/css" >

<![CDATA[
    rect.anc_exon {
              stroke-width:3;
                  }

    rect.non_anc_exon {
              stroke: black; stroke-width:3; stroke-dasharray: 5,5;
                    }

    text {
              font-size: 18px;
              font-family: Courier New;
          }
                    ]]>
</style>

<defs>
    <text x="150" y="40" id="globalVariable">none</text>
</defs>

  <rect class="anc_exon" x="0" y="35.0" width="0" height="30" style="fill:#87bcbc;fill-opacity:1.00" />
  <rect class="anc_exon" x="0" y="35.0" width="38.400000000000006" height="30" style="fill:#878787;fill-opacity:1.00" />
  <line x1="38.400000000000006" y1="50.0" x2="57.400000000000006" y2="50.0" style="stroke:#999; stroke-width:3;" />
  <line x1="57.400000000000006" y1="50.0" x2="57.400000000000006" y2="50.0" style="stroke:#999; stroke-width:3;" />
  <line x1="57.400000000000006" y1="50.0" x2="57.400000000000006" y2="50.0" style="stroke:#999; stroke-width:3;" />
  <line x1="57.400000000000006" y1="50.0" x2="78.0" y2="50.0" style="stroke:#999; stroke-width:3;" />
  <rect class="anc_exon" x="78" y="35.0" width="97" height="30" style="fill:#87bcbc;fill-opacity:1.00" />
  <line x1="175" y1="50.0" x2="195" y2="50.0" style="stroke:#999; stroke-width:3;" />
  <line x1="195" y1="50.0" x2="195" y2="50.0" style="stroke:#999; stroke-width:3;" />
  <line x1="195" y1="50.0" x2="195" y2="50.0" style="stroke:#999; stroke-width:3;" />
  <line x1="195" y1="50.0" x2="215" y2="50.0" style="stroke:#999; stroke-width:3;" />
  <rect class="anc_exon" x="215" y="35.0" width="35" height="30" style="fill:#87bcbc;fill-opacity:1.00" />
  <line x1="250" y1="50.0" x2="290" y2="50.0" style="stroke:#999; stroke-width:3;" />
  <rect class="anc_exon" x="290" y="35.0" width="77" height="30" style="fill:#87bcbc;fill-opacity:1.00" />
  <line x1="367" y1="50.0" x2="407" y2="50.0" style="stroke:#999; stroke-width:3;" />
  <rect class="anc_exon" x="407" y="35.0" width="47" height="30" style="fill:#87bcbc;fill-opacity:1.00" />
  <line x1="454" y1="50.0" x2="494" y2="50.0" style="stroke:#999; stroke-width:3;" />
  <rect class="anc_exon" x="494" y="35.0" width="103" height="30" style="fill:#87bcbc;fill-opacity:1.00" />
  <line x1="597" y1="50.0" x2="617" y2="50.0" style="stroke:#999; stroke-width:3;" />
  <line x1="617" y1="50.0" x2="617" y2="50.0" style="stroke:#999; stroke-width:3;" />
  <line x1="617" y1="50.0" x2="617" y2="50.0" style="stroke:#999; stroke-width:3;" />
  <line x1="617" y1="50.0" x2="637" y2="50.0" style="stroke:#999; stroke-width:3;" />
  <rect class="anc_exon" x="637" y="35.0" width="54" height="30" style="fill:#87bcbc;fill-opacity:1.00" />
  <line x1="691" y1="50.0" x2="731" y2="50.0" style="stroke:#999; stroke-width:3;" />
  <rect class="anc_exon" x="731" y="35.0" width="76" height="30" style="fill:#87bcbc;fill-opacity:1.00" />
  <line x1="807" y1="50.0" x2="847" y2="50.0" style="stroke:#999; stroke-width:3;" />
  <rect class="anc_exon" x="847" y="35.0" width="120" height="30" style="fill:#87bcbc;fill-opacity:1.00" />
  <line x1="967" y1="50.0" x2="1007" y2="50.0" style="stroke:#999; stroke-width:3;" />
  <rect class="anc_exon" x="1007" y="35.0" width="84" height="30" style="fill:#87bcbc;fill-opacity:1.00" />
  <line x1="1091" y1="50.0" x2="1131" y2="50.0" style="stroke:#999; stroke-width:3;" />
  <rect class="anc_exon" x="1131" y="35.0" width="107" height="30" style="fill:#87bcbc;fill-opacity:1.00" />
  <line x1="1238" y1="50.0" x2="1278" y2="50.0" style="stroke:#999; stroke-width:3;" />
  <rect class="anc_exon" x="1278" y="35.0" width="93" height="30" style="fill:#87bcbc;fill-opacity:1.00" />
  <rect class="anc_exon" x="1371" y="35.0" width="0" height="30" style="fill:#87bcbc;fill-opacity:1.00" />
  <text style="" >
<tspan x="0" y="83.0" style="font-size:18px;" >SP XM_031949648_1.1</tspan>  </text>



<script type="text/ecmascript">
<![CDATA[
function draw_bbox(text_id)
{
    var text_elem = document.getElementById(text_id);
    var offset_px = 2;
    var offset_py = 0;
    bbox = text_elem.getBBox();
    var box = document.createElementNS(document.rootElement.namespaceURI,'rect');
    box.setAttribute('x', bbox.x - offset_px);
    box.setAttribute('y', bbox.y - offset_py);
    box.setAttribute('width', bbox.width + offset_px * 2);
    box.setAttribute('height', bbox.height + offset_py * 2);
    box.setAttribute('style','fill: white;'+'stroke: black;'+'stroke-width: 1px;');
    text_elem.insertBefore(box,text_elem.childNodes[0]);

    var svg = text_elem.parentNode;
    svg.appendChild(text_elem);
}

for (var i=1; i < 1; i++)
{
draw_bbox("Mouseover" + i);
}
]]> 
</script>
</svg>
