<svg version="1.1"
xmlns="http://www.w3.org/2000/svg"
xmlns:xlink="http://www.w3.org/1999/xlink"
width="9430" height="100" viewBox = "0 0 9430 100"
onclick="mouseclick(evt)">

<script type="text/ecmascript">

<![CDATA[
    function mouseover(evt, target) { 
    var gv = document.getElementById("globalVariable");
    var previoustarget = gv.firstChild.nodeValue;
    if (previoustarget != "none") 
    {
        	document.getElementById(gv.firstChild.nodeValue).setAttributeNS(null, "visibility", "hidden");
    }
    document.getElementById(target).setAttributeNS(null, "visibility", "visible");
    gv.firstChild.nodeValue = target;
        }

    function mouseclick(evt) { 
    var gv = document.getElementById("globalVariable");
    var previoustarget = gv.firstChild.nodeValue;
    if (previoustarget != "none") {
        	document.getElementById(gv.firstChild.nodeValue).setAttributeNS(null, "visibility", "hidden");
        }
    }
]]>
  </script>
<style type="text/css" >

<![CDATA[
    rect.anc_exon {
              stroke-width:3;
                  }

    rect.non_anc_exon {
              stroke: black; stroke-width:3; stroke-dasharray: 5,5;
                    }

    text {
              font-size: 18px;
              font-family: Courier New;
          }
                    ]]>
</style>

<defs>
    <text x="150" y="40" id="globalVariable">none</text>
</defs>

  <rect class="anc_exon" x="0" y="35.0" width="0" height="30" style="fill:#87bcbc;fill-opacity:1.00" />
  <rect class="anc_exon" x="0" y="35.0" width="12.8" height="30" style="fill:#87bcbc;fill-opacity:1.00" />
  <line x1="12.8" y1="50.0" x2="52.0" y2="50.0" style="stroke:#999; stroke-width:3;" />
  <rect class="anc_exon" x="52" y="35.0" width="99" height="30" style="fill:#87bcbc;fill-opacity:1.00" />
  <line x1="151" y1="50.0" x2="191" y2="50.0" style="stroke:#999; stroke-width:3;" />
  <rect class="anc_exon" x="191" y="35.0" width="9" height="30" style="fill:#87bcbc;fill-opacity:1.00" />
  <line x1="200" y1="50.0" x2="220" y2="50.0" style="stroke:#999; stroke-width:3;" />
  <line x1="220" y1="50.0" x2="220" y2="50.0" style="stroke:#999; stroke-width:3;" />
  <line x1="220" y1="50.0" x2="220" y2="50.0" style="stroke:#999; stroke-width:3;" />
  <line x1="220" y1="50.0" x2="240" y2="50.0" style="stroke:#999; stroke-width:3;" />
  <rect class="anc_exon" x="240" y="35.0" width="82" height="30" style="fill:#87bcbc;fill-opacity:1.00" />
  <line x1="322" y1="50.0" x2="342" y2="50.0" style="stroke:#999; stroke-width:3;" />
  <line x1="342" y1="50.0" x2="342" y2="50.0" style="stroke:#999; stroke-width:3;" />
  <line x1="342" y1="50.0" x2="342" y2="50.0" style="stroke:#999; stroke-width:3;" />
  <line x1="342" y1="50.0" x2="362" y2="50.0" style="stroke:#999; stroke-width:3;" />
  <rect class="anc_exon" x="362" y="35.0" width="85" height="30" style="fill:#87bcbc;fill-opacity:1.00" />
  <line x1="447" y1="50.0" x2="467" y2="50.0" style="stroke:#999; stroke-width:3;" />
  <line x1="467" y1="50.0" x2="467" y2="50.0" style="stroke:#999; stroke-width:3;" />
  <line x1="467" y1="50.0" x2="467" y2="50.0" style="stroke:#999; stroke-width:3;" />
  <line x1="467" y1="50.0" x2="487" y2="50.0" style="stroke:#999; stroke-width:3;" />
  <rect class="anc_exon" x="487" y="35.0" width="26" height="30" style="fill:#87bcbc;fill-opacity:1.00" />
  <line x1="513" y1="50.0" x2="533" y2="50.0" style="stroke:#999; stroke-width:3;" />
  <line x1="533" y1="50.0" x2="533" y2="50.0" style="stroke:#999; stroke-width:3;" />
  <line x1="533" y1="50.0" x2="533" y2="50.0" style="stroke:#999; stroke-width:3;" />
  <line x1="533" y1="50.0" x2="553" y2="50.0" style="stroke:#999; stroke-width:3;" />
  <rect class="anc_exon" x="553" y="35.0" width="180" height="30" style="fill:#87bcbc;fill-opacity:1.00" />
  <line x1="733" y1="50.0" x2="773" y2="50.0" style="stroke:#999; stroke-width:3;" />
  <rect class="anc_exon" x="773" y="35.0" width="79" height="30" style="fill:#87bcbc;fill-opacity:1.00" />
  <line x1="852" y1="50.0" x2="872" y2="50.0" style="stroke:#999; stroke-width:3;" />
  <line x1="872" y1="50.0" x2="872" y2="50.0" style="stroke:#999; stroke-width:3;" />
  <line x1="872" y1="50.0" x2="872" y2="50.0" style="stroke:#999; stroke-width:3;" />
  <line x1="872" y1="50.0" x2="892" y2="50.0" style="stroke:#999; stroke-width:3;" />
  <rect class="anc_exon" x="892" y="35.0" width="124" height="30" style="fill:#87bcbc;fill-opacity:1.00" />
  <line x1="1016" y1="50.0" x2="1036" y2="50.0" style="stroke:#999; stroke-width:3;" />
  <line x1="1036" y1="50.0" x2="1036" y2="50.0" style="stroke:#999; stroke-width:3;" />
  <line x1="1036" y1="50.0" x2="1036" y2="50.0" style="stroke:#999; stroke-width:3;" />
  <line x1="1036" y1="50.0" x2="1056" y2="50.0" style="stroke:#999; stroke-width:3;" />
  <rect class="anc_exon" x="1056" y="35.0" width="169" height="30" style="fill:#87bcbc;fill-opacity:1.00" />
  <line x1="1225" y1="50.0" x2="1265" y2="50.0" style="stroke:#999; stroke-width:3;" />
  <rect class="anc_exon" x="1265" y="35.0" width="166" height="30" style="fill:#87bcbc;fill-opacity:1.00" />
  <line x1="1431" y1="50.0" x2="1471" y2="50.0" style="stroke:#999; stroke-width:3;" />
  <rect class="anc_exon" x="1471" y="35.0" width="77" height="30" style="fill:#87bcbc;fill-opacity:1.00" />
  <line x1="1548" y1="50.0" x2="1588" y2="50.0" style="stroke:#999; stroke-width:3;" />
  <rect class="anc_exon" x="1588" y="35.0" width="183" height="30" style="fill:#87bcbc;fill-opacity:1.00" />
  <line x1="1771" y1="50.0" x2="1811" y2="50.0" style="stroke:#999; stroke-width:3;" />
  <rect class="anc_exon" x="1811" y="35.0" width="100" height="30" style="fill:#87bcbc;fill-opacity:1.00" />
  <line x1="1911" y1="50.0" x2="1951" y2="50.0" style="stroke:#999; stroke-width:3;" />
  <rect class="anc_exon" x="1951" y="35.0" width="98" height="30" style="fill:#87bcbc;fill-opacity:1.00" />
  <line x1="2049" y1="50.0" x2="2089" y2="50.0" style="stroke:#999; stroke-width:3;" />
  <rect class="anc_exon" x="2089" y="35.0" width="21" height="30" style="fill:#87bcbc;fill-opacity:1.00" />
  <line x1="2110" y1="50.0" x2="2150" y2="50.0" style="stroke:#999; stroke-width:3;" />
  <rect class="anc_exon" x="2150" y="35.0" width="65" height="30" style="fill:#87bcbc;fill-opacity:1.00" />
  <line x1="2215" y1="50.0" x2="2235" y2="50.0" style="stroke:#999; stroke-width:3;" />
  <line x1="2235" y1="50.0" x2="2235" y2="50.0" style="stroke:#999; stroke-width:3;" />
  <line x1="2235" y1="50.0" x2="2235" y2="50.0" style="stroke:#999; stroke-width:3;" />
  <line x1="2235" y1="50.0" x2="2255" y2="50.0" style="stroke:#999; stroke-width:3;" />
  <rect class="anc_exon" x="2255" y="35.0" width="6199" height="30" style="fill:#87bcbc;fill-opacity:1.00" />
  <line x1="8454" y1="50.0" x2="8494" y2="50.0" style="stroke:#999; stroke-width:3;" />
  <rect class="anc_exon" x="8494" y="35.0" width="60" height="30" style="fill:#87bcbc;fill-opacity:1.00" />
  <line x1="8554" y1="50.0" x2="8594" y2="50.0" style="stroke:#999; stroke-width:3;" />
  <rect class="anc_exon" x="8594" y="35.0" width="105" height="30" style="fill:#87bcbc;fill-opacity:1.00" />
  <line x1="8699" y1="50.0" x2="8739" y2="50.0" style="stroke:#999; stroke-width:3;" />
  <rect class="anc_exon" x="8739" y="35.0" width="115" height="30" style="fill:#87bcbc;fill-opacity:1.00" />
  <line x1="8854" y1="50.0" x2="8874" y2="50.0" style="stroke:#999; stroke-width:3;" />
  <line x1="8874" y1="50.0" x2="8874" y2="50.0" style="stroke:#999; stroke-width:3;" />
  <line x1="8874" y1="50.0" x2="8874" y2="50.0" style="stroke:#999; stroke-width:3;" />
  <line x1="8874" y1="50.0" x2="8894" y2="50.0" style="stroke:#999; stroke-width:3;" />
  <rect class="anc_exon" x="8894" y="35.0" width="72" height="30" style="fill:#87bcbc;fill-opacity:1.00" />
  <line x1="8966" y1="50.0" x2="9006" y2="50.0" style="stroke:#999; stroke-width:3;" />
  <rect class="anc_exon" x="9006" y="35.0" width="293" height="30" style="fill:#87bcbc;fill-opacity:1.00" />
  <line x1="9299" y1="50.0" x2="9319" y2="50.0" style="stroke:#999; stroke-width:3;" />
  <line x1="9319" y1="50.0" x2="9319" y2="50.0" style="stroke:#999; stroke-width:3;" />
  <line x1="9319" y1="50.0" x2="9319" y2="50.0" style="stroke:#999; stroke-width:3;" />
  <line x1="9319" y1="50.0" x2="9339" y2="50.0" style="stroke:#999; stroke-width:3;" />
  <rect class="anc_exon" x="9339" y="35.0" width="55" height="30" style="fill:#87bcbc;fill-opacity:1.00" />
  <rect class="anc_exon" x="9394" y="35.0" width="0" height="30" style="fill:#87bcbc;fill-opacity:1.00" />
  <text style="" >
<tspan x="0" y="83.0" style="font-size:18px;" >SP XM_031956942_1.1</tspan>  </text>



<script type="text/ecmascript">
<![CDATA[
function draw_bbox(text_id)
{
    var text_elem = document.getElementById(text_id);
    var offset_px = 2;
    var offset_py = 0;
    bbox = text_elem.getBBox();
    var box = document.createElementNS(document.rootElement.namespaceURI,'rect');
    box.setAttribute('x', bbox.x - offset_px);
    box.setAttribute('y', bbox.y - offset_py);
    box.setAttribute('width', bbox.width + offset_px * 2);
    box.setAttribute('height', bbox.height + offset_py * 2);
    box.setAttribute('style','fill: white;'+'stroke: black;'+'stroke-width: 1px;');
    text_elem.insertBefore(box,text_elem.childNodes[0]);

    var svg = text_elem.parentNode;
    svg.appendChild(text_elem);
}

for (var i=1; i < 1; i++)
{
draw_bbox("Mouseover" + i);
}
]]> 
</script>
</svg>
