<svg version="1.1"
xmlns="http://www.w3.org/2000/svg"
xmlns:xlink="http://www.w3.org/1999/xlink"
width="1691" height="100" viewBox = "0 0 1691 100"
onclick="mouseclick(evt)">

<script type="text/ecmascript">

<![CDATA[
    function mouseover(evt, target) { 
    var gv = document.getElementById("globalVariable");
    var previoustarget = gv.firstChild.nodeValue;
    if (previoustarget != "none") 
    {
        	document.getElementById(gv.firstChild.nodeValue).setAttributeNS(null, "visibility", "hidden");
    }
    document.getElementById(target).setAttributeNS(null, "visibility", "visible");
    gv.firstChild.nodeValue = target;
        }

    function mouseclick(evt) { 
    var gv = document.getElementById("globalVariable");
    var previoustarget = gv.firstChild.nodeValue;
    if (previoustarget != "none") {
        	document.getElementById(gv.firstChild.nodeValue).setAttributeNS(null, "visibility", "hidden");
        }
    }
]]>
  </script>
<style type="text/css" >

<![CDATA[
    rect.anc_exon {
              stroke-width:3;
                  }

    rect.non_anc_exon {
              stroke: black; stroke-width:3; stroke-dasharray: 5,5;
                    }

    text {
              font-size: 18px;
              font-family: Courier New;
          }
                    ]]>
</style>

<defs>
    <text x="150" y="40" id="globalVariable">none</text>
</defs>

  <rect class="anc_exon" x="0" y="35.0" width="0" height="30" style="fill:#87bcbc;fill-opacity:1.00" />
  <rect class="anc_exon" x="0" y="35.0" width="93.60000000000001" height="30" style="fill:#87bcbc;fill-opacity:1.00" />
  <line x1="93.60000000000001" y1="50.0" x2="133.0" y2="50.0" style="stroke:#999; stroke-width:3;" />
  <rect class="anc_exon" x="133" y="35.0" width="34" height="30" style="fill:#87bcbc;fill-opacity:1.00" />
  <line x1="167" y1="50.0" x2="207" y2="50.0" style="stroke:#999; stroke-width:3;" />
  <rect class="anc_exon" x="207" y="35.0" width="87" height="30" style="fill:#87bcbc;fill-opacity:1.00" />
  <line x1="294" y1="50.0" x2="334" y2="50.0" style="stroke:#999; stroke-width:3;" />
  <rect class="anc_exon" x="334" y="35.0" width="79" height="30" style="fill:#87bcbc;fill-opacity:1.00" />
  <line x1="413" y1="50.0" x2="453" y2="50.0" style="stroke:#999; stroke-width:3;" />
  <rect class="anc_exon" x="453" y="35.0" width="83" height="30" style="fill:#87bcbc;fill-opacity:1.00" />
  <line x1="536" y1="50.0" x2="556" y2="50.0" style="stroke:#999; stroke-width:3;" />
  <line x1="556" y1="50.0" x2="556" y2="50.0" style="stroke:#999; stroke-width:3;" />
  <line x1="556" y1="50.0" x2="556" y2="50.0" style="stroke:#999; stroke-width:3;" />
  <line x1="556" y1="50.0" x2="576" y2="50.0" style="stroke:#999; stroke-width:3;" />
  <rect class="anc_exon" x="576" y="35.0" width="120" height="30" style="fill:#87bcbc;fill-opacity:1.00" />
  <line x1="696" y1="50.0" x2="736" y2="50.0" style="stroke:#999; stroke-width:3;" />
  <rect class="anc_exon" x="736" y="35.0" width="122" height="30" style="fill:#87bcbc;fill-opacity:1.00" />
  <line x1="858" y1="50.0" x2="898" y2="50.0" style="stroke:#999; stroke-width:3;" />
  <rect class="anc_exon" x="898" y="35.0" width="146" height="30" style="fill:#87bcbc;fill-opacity:1.00" />
  <line x1="1044" y1="50.0" x2="1084" y2="50.0" style="stroke:#999; stroke-width:3;" />
  <rect class="anc_exon" x="1084" y="35.0" width="61" height="30" style="fill:#87bcbc;fill-opacity:1.00" />
  <line x1="1145" y1="50.0" x2="1165" y2="50.0" style="stroke:#999; stroke-width:3;" />
  <line x1="1165" y1="50.0" x2="1165" y2="50.0" style="stroke:#999; stroke-width:3;" />
  <line x1="1165" y1="50.0" x2="1165" y2="50.0" style="stroke:#999; stroke-width:3;" />
  <line x1="1165" y1="50.0" x2="1185" y2="50.0" style="stroke:#999; stroke-width:3;" />
  <rect class="anc_exon" x="1185" y="35.0" width="123" height="30" style="fill:#87bcbc;fill-opacity:1.00" />
  <line x1="1308" y1="50.0" x2="1348" y2="50.0" style="stroke:#999; stroke-width:3;" />
  <rect class="anc_exon" x="1348" y="35.0" width="105" height="30" style="fill:#87bcbc;fill-opacity:1.00" />
  <line x1="1453" y1="50.0" x2="1473" y2="50.0" style="stroke:#999; stroke-width:3;" />
  <line x1="1473" y1="50.0" x2="1473" y2="50.0" style="stroke:#999; stroke-width:3;" />
  <line x1="1473" y1="50.0" x2="1473" y2="50.0" style="stroke:#999; stroke-width:3;" />
  <line x1="1473" y1="50.0" x2="1493" y2="50.0" style="stroke:#999; stroke-width:3;" />
  <rect class="anc_exon" x="1493" y="35.0" width="162" height="30" style="fill:#87bcbc;fill-opacity:1.00" />
  <rect class="anc_exon" x="1655" y="35.0" width="0" height="30" style="fill:#87bcbc;fill-opacity:1.00" />
  <text style="" >
<tspan x="0" y="83.0" style="font-size:18px;" >SP XM_023507342_2.1</tspan>  </text>



<script type="text/ecmascript">
<![CDATA[
function draw_bbox(text_id)
{
    var text_elem = document.getElementById(text_id);
    var offset_px = 2;
    var offset_py = 0;
    bbox = text_elem.getBBox();
    var box = document.createElementNS(document.rootElement.namespaceURI,'rect');
    box.setAttribute('x', bbox.x - offset_px);
    box.setAttribute('y', bbox.y - offset_py);
    box.setAttribute('width', bbox.width + offset_px * 2);
    box.setAttribute('height', bbox.height + offset_py * 2);
    box.setAttribute('style','fill: white;'+'stroke: black;'+'stroke-width: 1px;');
    text_elem.insertBefore(box,text_elem.childNodes[0]);

    var svg = text_elem.parentNode;
    svg.appendChild(text_elem);
}

for (var i=1; i < 1; i++)
{
draw_bbox("Mouseover" + i);
}
]]> 
</script>
</svg>
