<svg version="1.1"
xmlns="http://www.w3.org/2000/svg"
xmlns:xlink="http://www.w3.org/1999/xlink"
width="4315" height="100" viewBox = "0 0 4315 100"
onclick="mouseclick(evt)">

<script type="text/ecmascript">

<![CDATA[
    function mouseover(evt, target) { 
    var gv = document.getElementById("globalVariable");
    var previoustarget = gv.firstChild.nodeValue;
    if (previoustarget != "none") 
    {
        	document.getElementById(gv.firstChild.nodeValue).setAttributeNS(null, "visibility", "hidden");
    }
    document.getElementById(target).setAttributeNS(null, "visibility", "visible");
    gv.firstChild.nodeValue = target;
        }

    function mouseclick(evt) { 
    var gv = document.getElementById("globalVariable");
    var previoustarget = gv.firstChild.nodeValue;
    if (previoustarget != "none") {
        	document.getElementById(gv.firstChild.nodeValue).setAttributeNS(null, "visibility", "hidden");
        }
    }
]]>
  </script>
<style type="text/css" >

<![CDATA[
    rect.anc_exon {
              stroke-width:3;
                  }

    rect.non_anc_exon {
              stroke: black; stroke-width:3; stroke-dasharray: 5,5;
                    }

    text {
              font-size: 18px;
              font-family: Courier New;
          }
                    ]]>
</style>

<defs>
    <text x="150" y="40" id="globalVariable">none</text>
</defs>

  <rect class="anc_exon" x="0" y="35.0" width="0" height="30" style="fill:#87bcbc;fill-opacity:1.00" />
  <rect class="anc_exon" x="0" y="35.0" width="112.0" height="30" style="fill:#87bcbc;fill-opacity:1.00" />
  <line x1="112.0" y1="50.0" x2="132.0" y2="50.0" style="stroke:#999; stroke-width:3;" />
  <line x1="132.0" y1="50.0" x2="132.0" y2="50.0" style="stroke:#999; stroke-width:3;" />
  <line x1="132.0" y1="50.0" x2="132.0" y2="50.0" style="stroke:#999; stroke-width:3;" />
  <line x1="132.0" y1="50.0" x2="152.0" y2="50.0" style="stroke:#999; stroke-width:3;" />
  <rect class="anc_exon" x="152" y="35.0" width="139" height="30" style="fill:#87bcbc;fill-opacity:1.00" />
  <line x1="291" y1="50.0" x2="311" y2="50.0" style="stroke:#999; stroke-width:3;" />
  <line x1="311" y1="50.0" x2="311" y2="50.0" style="stroke:#999; stroke-width:3;" />
  <line x1="311" y1="50.0" x2="311" y2="50.0" style="stroke:#999; stroke-width:3;" />
  <line x1="311" y1="50.0" x2="331" y2="50.0" style="stroke:#999; stroke-width:3;" />
  <rect class="anc_exon" x="331" y="35.0" width="64" height="30" style="fill:#87bcbc;fill-opacity:1.00" />
  <line x1="395" y1="50.0" x2="415" y2="50.0" style="stroke:#999; stroke-width:3;" />
  <line x1="415" y1="50.0" x2="415" y2="50.0" style="stroke:#999; stroke-width:3;" />
  <line x1="415" y1="50.0" x2="415" y2="50.0" style="stroke:#999; stroke-width:3;" />
  <line x1="415" y1="50.0" x2="435" y2="50.0" style="stroke:#999; stroke-width:3;" />
  <rect class="anc_exon" x="435" y="35.0" width="80" height="30" style="fill:#87bcbc;fill-opacity:1.00" />
  <line x1="515" y1="50.0" x2="535" y2="50.0" style="stroke:#999; stroke-width:3;" />
  <line x1="535" y1="50.0" x2="535" y2="50.0" style="stroke:#999; stroke-width:3;" />
  <line x1="535" y1="50.0" x2="535" y2="50.0" style="stroke:#999; stroke-width:3;" />
  <line x1="535" y1="50.0" x2="555" y2="50.0" style="stroke:#999; stroke-width:3;" />
  <rect class="anc_exon" x="555" y="35.0" width="48" height="30" style="fill:#87bcbc;fill-opacity:1.00" />
  <line x1="603" y1="50.0" x2="623" y2="50.0" style="stroke:#999; stroke-width:3;" />
  <line x1="623" y1="50.0" x2="623" y2="50.0" style="stroke:#999; stroke-width:3;" />
  <line x1="623" y1="50.0" x2="623" y2="50.0" style="stroke:#999; stroke-width:3;" />
  <line x1="623" y1="50.0" x2="643" y2="50.0" style="stroke:#999; stroke-width:3;" />
  <rect class="anc_exon" x="643" y="35.0" width="39" height="30" style="fill:#87bcbc;fill-opacity:1.00" />
  <line x1="682" y1="50.0" x2="722" y2="50.0" style="stroke:#999; stroke-width:3;" />
  <rect class="anc_exon" x="722" y="35.0" width="48" height="30" style="fill:#87bcbc;fill-opacity:1.00" />
  <line x1="770" y1="50.0" x2="790" y2="50.0" style="stroke:#999; stroke-width:3;" />
  <line x1="790" y1="50.0" x2="790" y2="50.0" style="stroke:#999; stroke-width:3;" />
  <line x1="790" y1="50.0" x2="790" y2="50.0" style="stroke:#999; stroke-width:3;" />
  <line x1="790" y1="50.0" x2="810" y2="50.0" style="stroke:#999; stroke-width:3;" />
  <rect class="anc_exon" x="810" y="35.0" width="60" height="30" style="fill:#87bcbc;fill-opacity:1.00" />
  <line x1="870" y1="50.0" x2="910" y2="50.0" style="stroke:#999; stroke-width:3;" />
  <rect class="anc_exon" x="910" y="35.0" width="67" height="30" style="fill:#87bcbc;fill-opacity:1.00" />
  <line x1="977" y1="50.0" x2="997" y2="50.0" style="stroke:#999; stroke-width:3;" />
  <line x1="997" y1="50.0" x2="997" y2="50.0" style="stroke:#999; stroke-width:3;" />
  <line x1="997" y1="50.0" x2="997" y2="50.0" style="stroke:#999; stroke-width:3;" />
  <line x1="997" y1="50.0" x2="1017" y2="50.0" style="stroke:#999; stroke-width:3;" />
  <rect class="anc_exon" x="1017" y="35.0" width="76" height="30" style="fill:#87bcbc;fill-opacity:1.00" />
  <line x1="1093" y1="50.0" x2="1133" y2="50.0" style="stroke:#999; stroke-width:3;" />
  <rect class="anc_exon" x="1133" y="35.0" width="144" height="30" style="fill:#87bcbc;fill-opacity:1.00" />
  <line x1="1277" y1="50.0" x2="1297" y2="50.0" style="stroke:#999; stroke-width:3;" />
  <line x1="1297" y1="50.0" x2="1297" y2="50.0" style="stroke:#999; stroke-width:3;" />
  <line x1="1297" y1="50.0" x2="1297" y2="50.0" style="stroke:#999; stroke-width:3;" />
  <line x1="1297" y1="50.0" x2="1317" y2="50.0" style="stroke:#999; stroke-width:3;" />
  <rect class="anc_exon" x="1317" y="35.0" width="132" height="30" style="fill:#87bcbc;fill-opacity:1.00" />
  <line x1="1449" y1="50.0" x2="1489" y2="50.0" style="stroke:#999; stroke-width:3;" />
  <rect class="anc_exon" x="1489" y="35.0" width="109" height="30" style="fill:#87bcbc;fill-opacity:1.00" />
  <line x1="1598" y1="50.0" x2="1618" y2="50.0" style="stroke:#999; stroke-width:3;" />
  <line x1="1618" y1="50.0" x2="1618" y2="50.0" style="stroke:#999; stroke-width:3;" />
  <line x1="1618" y1="50.0" x2="1618" y2="50.0" style="stroke:#999; stroke-width:3;" />
  <line x1="1618" y1="50.0" x2="1638" y2="50.0" style="stroke:#999; stroke-width:3;" />
  <rect class="anc_exon" x="1638" y="35.0" width="51" height="30" style="fill:#87bcbc;fill-opacity:1.00" />
  <line x1="1689" y1="50.0" x2="1729" y2="50.0" style="stroke:#999; stroke-width:3;" />
  <rect class="anc_exon" x="1729" y="35.0" width="87" height="30" style="fill:#87bcbc;fill-opacity:1.00" />
  <line x1="1816" y1="50.0" x2="1856" y2="50.0" style="stroke:#999; stroke-width:3;" />
  <rect class="anc_exon" x="1856" y="35.0" width="87" height="30" style="fill:#87bcbc;fill-opacity:1.00" />
  <line x1="1943" y1="50.0" x2="1983" y2="50.0" style="stroke:#999; stroke-width:3;" />
  <rect class="anc_exon" x="1983" y="35.0" width="120" height="30" style="fill:#87bcbc;fill-opacity:1.00" />
  <line x1="2103" y1="50.0" x2="2143" y2="50.0" style="stroke:#999; stroke-width:3;" />
  <rect class="anc_exon" x="2143" y="35.0" width="191" height="30" style="fill:#87bcbc;fill-opacity:1.00" />
  <line x1="2334" y1="50.0" x2="2354" y2="50.0" style="stroke:#999; stroke-width:3;" />
  <line x1="2354" y1="50.0" x2="2354" y2="50.0" style="stroke:#999; stroke-width:3;" />
  <line x1="2354" y1="50.0" x2="2354" y2="50.0" style="stroke:#999; stroke-width:3;" />
  <line x1="2354" y1="50.0" x2="2374" y2="50.0" style="stroke:#999; stroke-width:3;" />
  <rect class="anc_exon" x="2374" y="35.0" width="168" height="30" style="fill:#87bcbc;fill-opacity:1.00" />
  <line x1="2542" y1="50.0" x2="2562" y2="50.0" style="stroke:#999; stroke-width:3;" />
  <line x1="2562" y1="50.0" x2="2562" y2="50.0" style="stroke:#999; stroke-width:3;" />
  <line x1="2562" y1="50.0" x2="2562" y2="50.0" style="stroke:#999; stroke-width:3;" />
  <line x1="2562" y1="50.0" x2="2582" y2="50.0" style="stroke:#999; stroke-width:3;" />
  <rect class="anc_exon" x="2582" y="35.0" width="84" height="30" style="fill:#87bcbc;fill-opacity:1.00" />
  <line x1="2666" y1="50.0" x2="2706" y2="50.0" style="stroke:#999; stroke-width:3;" />
  <rect class="anc_exon" x="2706" y="35.0" width="138" height="30" style="fill:#87bcbc;fill-opacity:1.00" />
  <line x1="2844" y1="50.0" x2="2864" y2="50.0" style="stroke:#999; stroke-width:3;" />
  <line x1="2864" y1="50.0" x2="2864" y2="50.0" style="stroke:#999; stroke-width:3;" />
  <line x1="2864" y1="50.0" x2="2864" y2="50.0" style="stroke:#999; stroke-width:3;" />
  <line x1="2864" y1="50.0" x2="2884" y2="50.0" style="stroke:#999; stroke-width:3;" />
  <rect class="anc_exon" x="2884" y="35.0" width="57" height="30" style="fill:#87bcbc;fill-opacity:1.00" />
  <line x1="2941" y1="50.0" x2="2981" y2="50.0" style="stroke:#999; stroke-width:3;" />
  <rect class="anc_exon" x="2981" y="35.0" width="108" height="30" style="fill:#87bcbc;fill-opacity:1.00" />
  <line x1="3089" y1="50.0" x2="3129" y2="50.0" style="stroke:#999; stroke-width:3;" />
  <rect class="anc_exon" x="3129" y="35.0" width="89" height="30" style="fill:#87bcbc;fill-opacity:1.00" />
  <line x1="3218" y1="50.0" x2="3258" y2="50.0" style="stroke:#999; stroke-width:3;" />
  <rect class="anc_exon" x="3258" y="35.0" width="81" height="30" style="fill:#87bcbc;fill-opacity:1.00" />
  <line x1="3339" y1="50.0" x2="3379" y2="50.0" style="stroke:#999; stroke-width:3;" />
  <rect class="anc_exon" x="3379" y="35.0" width="67" height="30" style="fill:#87bcbc;fill-opacity:1.00" />
  <line x1="3446" y1="50.0" x2="3466" y2="50.0" style="stroke:#999; stroke-width:3;" />
  <line x1="3466" y1="50.0" x2="3466" y2="50.0" style="stroke:#999; stroke-width:3;" />
  <line x1="3466" y1="50.0" x2="3466" y2="50.0" style="stroke:#999; stroke-width:3;" />
  <line x1="3466" y1="50.0" x2="3486" y2="50.0" style="stroke:#999; stroke-width:3;" />
  <rect class="anc_exon" x="3486" y="35.0" width="103" height="30" style="fill:#87bcbc;fill-opacity:1.00" />
  <line x1="3589" y1="50.0" x2="3629" y2="50.0" style="stroke:#999; stroke-width:3;" />
  <rect class="anc_exon" x="3629" y="35.0" width="16" height="30" style="fill:#87bcbc;fill-opacity:1.00" />
  <line x1="3645" y1="50.0" x2="3685" y2="50.0" style="stroke:#999; stroke-width:3;" />
  <rect class="anc_exon" x="3685" y="35.0" width="260" height="30" style="fill:#87bcbc;fill-opacity:1.00" />
  <line x1="3945" y1="50.0" x2="3965" y2="50.0" style="stroke:#999; stroke-width:3;" />
  <line x1="3965" y1="50.0" x2="3965" y2="50.0" style="stroke:#999; stroke-width:3;" />
  <line x1="3965" y1="50.0" x2="3965" y2="50.0" style="stroke:#999; stroke-width:3;" />
  <line x1="3965" y1="50.0" x2="3985" y2="50.0" style="stroke:#999; stroke-width:3;" />
  <rect class="anc_exon" x="3985" y="35.0" width="50" height="30" style="fill:#87bcbc;fill-opacity:1.00" />
  <line x1="4035" y1="50.0" x2="4055" y2="50.0" style="stroke:#999; stroke-width:3;" />
  <line x1="4055" y1="50.0" x2="4055" y2="50.0" style="stroke:#999; stroke-width:3;" />
  <line x1="4055" y1="50.0" x2="4055" y2="50.0" style="stroke:#999; stroke-width:3;" />
  <line x1="4055" y1="50.0" x2="4075" y2="50.0" style="stroke:#999; stroke-width:3;" />
  <rect class="anc_exon" x="4075" y="35.0" width="68" height="30" style="fill:#87bcbc;fill-opacity:1.00" />
  <line x1="4143" y1="50.0" x2="4163" y2="50.0" style="stroke:#999; stroke-width:3;" />
  <line x1="4163" y1="50.0" x2="4163" y2="50.0" style="stroke:#999; stroke-width:3;" />
  <line x1="4163" y1="50.0" x2="4163" y2="50.0" style="stroke:#999; stroke-width:3;" />
  <line x1="4163" y1="50.0" x2="4183" y2="50.0" style="stroke:#999; stroke-width:3;" />
  <rect class="anc_exon" x="4183" y="35.0" width="96" height="30" style="fill:#87bcbc;fill-opacity:1.00" />
  <rect class="anc_exon" x="4279" y="35.0" width="0" height="30" style="fill:#87bcbc;fill-opacity:1.00" />
  <text style="" >
<tspan x="0" y="83.0" style="font-size:18px;" >SP XM_031954966_1.1</tspan>  </text>



<script type="text/ecmascript">
<![CDATA[
function draw_bbox(text_id)
{
    var text_elem = document.getElementById(text_id);
    var offset_px = 2;
    var offset_py = 0;
    bbox = text_elem.getBBox();
    var box = document.createElementNS(document.rootElement.namespaceURI,'rect');
    box.setAttribute('x', bbox.x - offset_px);
    box.setAttribute('y', bbox.y - offset_py);
    box.setAttribute('width', bbox.width + offset_px * 2);
    box.setAttribute('height', bbox.height + offset_py * 2);
    box.setAttribute('style','fill: white;'+'stroke: black;'+'stroke-width: 1px;');
    text_elem.insertBefore(box,text_elem.childNodes[0]);

    var svg = text_elem.parentNode;
    svg.appendChild(text_elem);
}

for (var i=1; i < 1; i++)
{
draw_bbox("Mouseover" + i);
}
]]> 
</script>
</svg>
