<svg version="1.1"
xmlns="http://www.w3.org/2000/svg"
xmlns:xlink="http://www.w3.org/1999/xlink"
width="4717" height="138.0" viewBox = "0 -38.0 4717 138.0"
onclick="mouseclick(evt)">

<script type="text/ecmascript">

<![CDATA[
    function mouseover(evt, target) { 
    var gv = document.getElementById("globalVariable");
    var previoustarget = gv.firstChild.nodeValue;
    if (previoustarget != "none") 
    {
        	document.getElementById(gv.firstChild.nodeValue).setAttributeNS(null, "visibility", "hidden");
    }
    document.getElementById(target).setAttributeNS(null, "visibility", "visible");
    gv.firstChild.nodeValue = target;
        }

    function mouseclick(evt) { 
    var gv = document.getElementById("globalVariable");
    var previoustarget = gv.firstChild.nodeValue;
    if (previoustarget != "none") {
        	document.getElementById(gv.firstChild.nodeValue).setAttributeNS(null, "visibility", "hidden");
        }
    }
]]>
  </script>
<style type="text/css" >

<![CDATA[
    rect.anc_exon {
              stroke-width:3;
                  }

    rect.non_anc_exon {
              stroke: black; stroke-width:3; stroke-dasharray: 5,5;
                    }

    text {
              font-size: 18px;
              font-family: Courier New;
          }
                    ]]>
</style>

<defs>
    <text x="150" y="40" id="globalVariable">none</text>
</defs>

  <rect class="anc_exon" x="0" y="35.0" width="0" height="30" style="fill:#87bcbc;fill-opacity:1.00" />
  <rect class="anc_exon" x="0" y="35.0" width="246.4" height="30" style="fill:#87bcbc;fill-opacity:1.00" />
  <polygon points="72.8,35.0 75.3,25.0 70.3,25.0" style="fill:#121212; stroke-opacity:1; fill-opacity:1"/>
  <line x1="92.4" y1="35.0" x2="92.4" y2="65.0" style="stroke:#121212; stroke-width:0.8; stroke-opacity:1"/>
  <line x1="118.80000000000001" y1="35.0" x2="118.80000000000001" y2="65.0" style="stroke:#121212; stroke-width:0.8; stroke-opacity:1"/>
  <text style="" text-anchor="middle">
<tspan x="82.4" y="16.0" style="font-size:18px;fill:#121212;" >+2</tspan><tspan x="82.4" y="-2.0" style="font-size:18px;fill:#121212;" >-1</tspan>  </text>
  <text style="" text-anchor="middle">
<tspan x="118.4" y="26.0" style="font-size:18px;fill:#121212;" >-1</tspan>  </text>
  <line x1="246.4" y1="50.0" x2="265.4" y2="50.0" style="stroke:#999; stroke-width:3;" />
  <line x1="265.4" y1="50.0" x2="265.4" y2="50.0" style="stroke:#999; stroke-width:3;" />
  <line x1="265.4" y1="50.0" x2="265.4" y2="50.0" style="stroke:#999; stroke-width:3;" />
  <line x1="265.4" y1="50.0" x2="286.0" y2="50.0" style="stroke:#999; stroke-width:3;" />
  <rect class="anc_exon" x="286" y="35.0" width="87" height="30" style="fill:#87bcbc;fill-opacity:1.00" />
  <line x1="373" y1="50.0" x2="393" y2="50.0" style="stroke:#999; stroke-width:3;" />
  <line x1="393" y1="50.0" x2="393" y2="50.0" style="stroke:#999; stroke-width:3;" />
  <line x1="393" y1="50.0" x2="393" y2="50.0" style="stroke:#999; stroke-width:3;" />
  <line x1="393" y1="50.0" x2="413" y2="50.0" style="stroke:#999; stroke-width:3;" />
  <rect class="anc_exon" x="413" y="35.0" width="65" height="30" style="fill:#87bcbc;fill-opacity:1.00" />
  <line x1="478" y1="50.0" x2="518" y2="50.0" style="stroke:#999; stroke-width:3;" />
  <rect class="anc_exon" x="518" y="35.0" width="106" height="30" style="fill:#87bcbc;fill-opacity:1.00" />
  <line x1="624" y1="50.0" x2="644" y2="50.0" style="stroke:#999; stroke-width:3;" />
  <line x1="644" y1="50.0" x2="644" y2="50.0" style="stroke:#999; stroke-width:3;" />
  <line x1="644" y1="50.0" x2="644" y2="50.0" style="stroke:#999; stroke-width:3;" />
  <line x1="644" y1="50.0" x2="664" y2="50.0" style="stroke:#999; stroke-width:3;" />
  <rect class="anc_exon" x="664" y="35.0" width="306" height="30" style="fill:#87bcbc;fill-opacity:1.00" />
  <line x1="970" y1="50.0" x2="1010" y2="50.0" style="stroke:#999; stroke-width:3;" />
  <rect class="anc_exon" x="1010" y="35.0" width="97" height="30" style="fill:#87bcbc;fill-opacity:1.00" />
  <line x1="1107" y1="50.0" x2="1127" y2="50.0" style="stroke:#999; stroke-width:3;" />
  <line x1="1127" y1="50.0" x2="1127" y2="50.0" style="stroke:#999; stroke-width:3;" />
  <line x1="1127" y1="50.0" x2="1127" y2="50.0" style="stroke:#999; stroke-width:3;" />
  <line x1="1127" y1="50.0" x2="1147" y2="50.0" style="stroke:#999; stroke-width:3;" />
  <rect class="anc_exon" x="1147" y="35.0" width="92" height="30" style="fill:#87bcbc;fill-opacity:1.00" />
  <line x1="1239" y1="50.0" x2="1279" y2="50.0" style="stroke:#999; stroke-width:3;" />
  <rect class="anc_exon" x="1279" y="35.0" width="113" height="30" style="fill:#87bcbc;fill-opacity:1.00" />
  <line x1="1392" y1="50.0" x2="1412" y2="50.0" style="stroke:#999; stroke-width:3;" />
  <line x1="1412" y1="50.0" x2="1412" y2="50.0" style="stroke:#999; stroke-width:3;" />
  <line x1="1412" y1="50.0" x2="1412" y2="50.0" style="stroke:#999; stroke-width:3;" />
  <line x1="1412" y1="50.0" x2="1432" y2="50.0" style="stroke:#999; stroke-width:3;" />
  <rect class="anc_exon" x="1432" y="35.0" width="129" height="30" style="fill:#87bcbc;fill-opacity:1.00" />
  <line x1="1561" y1="50.0" x2="1581" y2="50.0" style="stroke:#999; stroke-width:3;" />
  <line x1="1581" y1="50.0" x2="1581" y2="50.0" style="stroke:#999; stroke-width:3;" />
  <line x1="1581" y1="50.0" x2="1581" y2="50.0" style="stroke:#999; stroke-width:3;" />
  <line x1="1581" y1="50.0" x2="1601" y2="50.0" style="stroke:#999; stroke-width:3;" />
  <rect class="anc_exon" x="1601" y="35.0" width="75" height="30" style="fill:#87bcbc;fill-opacity:1.00" />
  <line x1="1676" y1="50.0" x2="1696" y2="50.0" style="stroke:#999; stroke-width:3;" />
  <line x1="1696" y1="50.0" x2="1696" y2="50.0" style="stroke:#999; stroke-width:3;" />
  <line x1="1696" y1="50.0" x2="1696" y2="50.0" style="stroke:#999; stroke-width:3;" />
  <line x1="1696" y1="50.0" x2="1716" y2="50.0" style="stroke:#999; stroke-width:3;" />
  <rect class="anc_exon" x="1716" y="35.0" width="185" height="30" style="fill:#87bcbc;fill-opacity:1.00" />
  <line x1="1901" y1="50.0" x2="1941" y2="50.0" style="stroke:#999; stroke-width:3;" />
  <rect class="anc_exon" x="1941" y="35.0" width="128" height="30" style="fill:#87bcbc;fill-opacity:1.00" />
  <line x1="2069" y1="50.0" x2="2109" y2="50.0" style="stroke:#999; stroke-width:3;" />
  <rect class="anc_exon" x="2109" y="35.0" width="249" height="30" style="fill:#87bcbc;fill-opacity:1.00" />
  <line x1="2358" y1="50.0" x2="2378" y2="50.0" style="stroke:#999; stroke-width:3;" />
  <line x1="2378" y1="50.0" x2="2378" y2="50.0" style="stroke:#999; stroke-width:3;" />
  <line x1="2378" y1="50.0" x2="2378" y2="50.0" style="stroke:#999; stroke-width:3;" />
  <line x1="2378" y1="50.0" x2="2398" y2="50.0" style="stroke:#999; stroke-width:3;" />
  <rect class="anc_exon" x="2398" y="35.0" width="231" height="30" style="fill:#87bcbc;fill-opacity:1.00" />
  <line x1="2629" y1="50.0" x2="2649" y2="50.0" style="stroke:#999; stroke-width:3;" />
  <line x1="2649" y1="50.0" x2="2649" y2="50.0" style="stroke:#999; stroke-width:3;" />
  <line x1="2649" y1="50.0" x2="2649" y2="50.0" style="stroke:#999; stroke-width:3;" />
  <line x1="2649" y1="50.0" x2="2669" y2="50.0" style="stroke:#999; stroke-width:3;" />
  <rect class="anc_exon" x="2669" y="35.0" width="2012" height="30" style="fill:#878787;fill-opacity:1.00" />
  <rect class="anc_exon" x="4681" y="35.0" width="0" height="30" style="fill:#87bcbc;fill-opacity:1.00" />
  <text style="" >
<tspan x="0" y="83.0" style="font-size:18px;" >SP XM_031956430_1.1</tspan>  </text>



<script type="text/ecmascript">
<![CDATA[
function draw_bbox(text_id)
{
    var text_elem = document.getElementById(text_id);
    var offset_px = 2;
    var offset_py = 0;
    bbox = text_elem.getBBox();
    var box = document.createElementNS(document.rootElement.namespaceURI,'rect');
    box.setAttribute('x', bbox.x - offset_px);
    box.setAttribute('y', bbox.y - offset_py);
    box.setAttribute('width', bbox.width + offset_px * 2);
    box.setAttribute('height', bbox.height + offset_py * 2);
    box.setAttribute('style','fill: white;'+'stroke: black;'+'stroke-width: 1px;');
    text_elem.insertBefore(box,text_elem.childNodes[0]);

    var svg = text_elem.parentNode;
    svg.appendChild(text_elem);
}

for (var i=1; i < 1; i++)
{
draw_bbox("Mouseover" + i);
}
]]> 
</script>
</svg>
