<svg version="1.1"
xmlns="http://www.w3.org/2000/svg"
xmlns:xlink="http://www.w3.org/1999/xlink"
width="4130" height="100" viewBox = "0 0 4130 100"
onclick="mouseclick(evt)">

<script type="text/ecmascript">

<![CDATA[
    function mouseover(evt, target) { 
    var gv = document.getElementById("globalVariable");
    var previoustarget = gv.firstChild.nodeValue;
    if (previoustarget != "none") 
    {
        	document.getElementById(gv.firstChild.nodeValue).setAttributeNS(null, "visibility", "hidden");
    }
    document.getElementById(target).setAttributeNS(null, "visibility", "visible");
    gv.firstChild.nodeValue = target;
        }

    function mouseclick(evt) { 
    var gv = document.getElementById("globalVariable");
    var previoustarget = gv.firstChild.nodeValue;
    if (previoustarget != "none") {
        	document.getElementById(gv.firstChild.nodeValue).setAttributeNS(null, "visibility", "hidden");
        }
    }
]]>
  </script>
<style type="text/css" >

<![CDATA[
    rect.anc_exon {
              stroke-width:3;
                  }

    rect.non_anc_exon {
              stroke: black; stroke-width:3; stroke-dasharray: 5,5;
                    }

    text {
              font-size: 18px;
              font-family: Courier New;
          }
                    ]]>
</style>

<defs>
    <text x="150" y="40" id="globalVariable">none</text>
</defs>

  <rect class="anc_exon" x="0" y="35.0" width="0" height="30" style="fill:#87bcbc;fill-opacity:1.00" />
  <rect class="anc_exon" x="0" y="35.0" width="88.80000000000001" height="30" style="fill:#87bcbc;fill-opacity:1.00" />
  <line x1="88.80000000000001" y1="50.0" x2="128.0" y2="50.0" style="stroke:#999; stroke-width:3;" />
  <rect class="anc_exon" x="128" y="35.0" width="132" height="30" style="fill:#87bcbc;fill-opacity:1.00" />
  <line x1="260" y1="50.0" x2="280" y2="50.0" style="stroke:#999; stroke-width:3;" />
  <line x1="280" y1="50.0" x2="280" y2="50.0" style="stroke:#999; stroke-width:3;" />
  <line x1="280" y1="50.0" x2="280" y2="50.0" style="stroke:#999; stroke-width:3;" />
  <line x1="280" y1="50.0" x2="300" y2="50.0" style="stroke:#999; stroke-width:3;" />
  <rect class="anc_exon" x="300" y="35.0" width="50" height="30" style="fill:#87bcbc;fill-opacity:1.00" />
  <line x1="350" y1="50.0" x2="370" y2="50.0" style="stroke:#999; stroke-width:3;" />
  <line x1="370" y1="50.0" x2="370" y2="50.0" style="stroke:#999; stroke-width:3;" />
  <line x1="370" y1="50.0" x2="370" y2="50.0" style="stroke:#999; stroke-width:3;" />
  <line x1="370" y1="50.0" x2="390" y2="50.0" style="stroke:#999; stroke-width:3;" />
  <rect class="anc_exon" x="390" y="35.0" width="139" height="30" style="fill:#87bcbc;fill-opacity:1.00" />
  <line x1="529" y1="50.0" x2="569" y2="50.0" style="stroke:#999; stroke-width:3;" />
  <rect class="anc_exon" x="569" y="35.0" width="75" height="30" style="fill:#87bcbc;fill-opacity:1.00" />
  <line x1="644" y1="50.0" x2="684" y2="50.0" style="stroke:#999; stroke-width:3;" />
  <rect class="anc_exon" x="684" y="35.0" width="49" height="30" style="fill:#87bcbc;fill-opacity:1.00" />
  <line x1="733" y1="50.0" x2="753" y2="50.0" style="stroke:#999; stroke-width:3;" />
  <line x1="753" y1="50.0" x2="753" y2="50.0" style="stroke:#999; stroke-width:3;" />
  <line x1="753" y1="50.0" x2="753" y2="50.0" style="stroke:#999; stroke-width:3;" />
  <line x1="753" y1="50.0" x2="773" y2="50.0" style="stroke:#999; stroke-width:3;" />
  <rect class="anc_exon" x="773" y="35.0" width="91" height="30" style="fill:#87bcbc;fill-opacity:1.00" />
  <line x1="864" y1="50.0" x2="904" y2="50.0" style="stroke:#999; stroke-width:3;" />
  <rect class="anc_exon" x="904" y="35.0" width="70" height="30" style="fill:#87bcbc;fill-opacity:1.00" />
  <line x1="974" y1="50.0" x2="1014" y2="50.0" style="stroke:#999; stroke-width:3;" />
  <rect class="anc_exon" x="1014" y="35.0" width="60" height="30" style="fill:#87bcbc;fill-opacity:1.00" />
  <line x1="1074" y1="50.0" x2="1114" y2="50.0" style="stroke:#999; stroke-width:3;" />
  <rect class="anc_exon" x="1114" y="35.0" width="92" height="30" style="fill:#87bcbc;fill-opacity:1.00" />
  <line x1="1206" y1="50.0" x2="1246" y2="50.0" style="stroke:#999; stroke-width:3;" />
  <rect class="anc_exon" x="1246" y="35.0" width="46" height="30" style="fill:#87bcbc;fill-opacity:1.00" />
  <line x1="1292" y1="50.0" x2="1332" y2="50.0" style="stroke:#999; stroke-width:3;" />
  <rect class="anc_exon" x="1332" y="35.0" width="48" height="30" style="fill:#87bcbc;fill-opacity:1.00" />
  <line x1="1380" y1="50.0" x2="1420" y2="50.0" style="stroke:#999; stroke-width:3;" />
  <rect class="anc_exon" x="1420" y="35.0" width="134" height="30" style="fill:#87bcbc;fill-opacity:1.00" />
  <line x1="1554" y1="50.0" x2="1594" y2="50.0" style="stroke:#999; stroke-width:3;" />
  <rect class="anc_exon" x="1594" y="35.0" width="97" height="30" style="fill:#87bcbc;fill-opacity:1.00" />
  <line x1="1691" y1="50.0" x2="1731" y2="50.0" style="stroke:#999; stroke-width:3;" />
  <rect class="anc_exon" x="1731" y="35.0" width="74" height="30" style="fill:#87bcbc;fill-opacity:1.00" />
  <line x1="1805" y1="50.0" x2="1825" y2="50.0" style="stroke:#999; stroke-width:3;" />
  <line x1="1825" y1="50.0" x2="1825" y2="50.0" style="stroke:#999; stroke-width:3;" />
  <line x1="1825" y1="50.0" x2="1825" y2="50.0" style="stroke:#999; stroke-width:3;" />
  <line x1="1825" y1="50.0" x2="1845" y2="50.0" style="stroke:#999; stroke-width:3;" />
  <rect class="anc_exon" x="1845" y="35.0" width="93" height="30" style="fill:#87bcbc;fill-opacity:1.00" />
  <line x1="1938" y1="50.0" x2="1978" y2="50.0" style="stroke:#999; stroke-width:3;" />
  <rect class="anc_exon" x="1978" y="35.0" width="105" height="30" style="fill:#87bcbc;fill-opacity:1.00" />
  <line x1="2083" y1="50.0" x2="2123" y2="50.0" style="stroke:#999; stroke-width:3;" />
  <rect class="anc_exon" x="2123" y="35.0" width="133" height="30" style="fill:#87bcbc;fill-opacity:1.00" />
  <line x1="2256" y1="50.0" x2="2276" y2="50.0" style="stroke:#999; stroke-width:3;" />
  <line x1="2276" y1="50.0" x2="2276" y2="50.0" style="stroke:#999; stroke-width:3;" />
  <line x1="2276" y1="50.0" x2="2276" y2="50.0" style="stroke:#999; stroke-width:3;" />
  <line x1="2276" y1="50.0" x2="2296" y2="50.0" style="stroke:#999; stroke-width:3;" />
  <rect class="anc_exon" x="2296" y="35.0" width="82" height="30" style="fill:#87bcbc;fill-opacity:1.00" />
  <line x1="2378" y1="50.0" x2="2418" y2="50.0" style="stroke:#999; stroke-width:3;" />
  <rect class="anc_exon" x="2418" y="35.0" width="117" height="30" style="fill:#87bcbc;fill-opacity:1.00" />
  <line x1="2535" y1="50.0" x2="2555" y2="50.0" style="stroke:#999; stroke-width:3;" />
  <line x1="2555" y1="50.0" x2="2555" y2="50.0" style="stroke:#999; stroke-width:3;" />
  <line x1="2555" y1="50.0" x2="2555" y2="50.0" style="stroke:#999; stroke-width:3;" />
  <line x1="2555" y1="50.0" x2="2575" y2="50.0" style="stroke:#999; stroke-width:3;" />
  <rect class="anc_exon" x="2575" y="35.0" width="93" height="30" style="fill:#87bcbc;fill-opacity:1.00" />
  <line x1="2668" y1="50.0" x2="2708" y2="50.0" style="stroke:#999; stroke-width:3;" />
  <rect class="anc_exon" x="2708" y="35.0" width="76" height="30" style="fill:#87bcbc;fill-opacity:1.00" />
  <line x1="2784" y1="50.0" x2="2824" y2="50.0" style="stroke:#999; stroke-width:3;" />
  <rect class="anc_exon" x="2824" y="35.0" width="96" height="30" style="fill:#87bcbc;fill-opacity:1.00" />
  <line x1="2920" y1="50.0" x2="2960" y2="50.0" style="stroke:#999; stroke-width:3;" />
  <rect class="anc_exon" x="2960" y="35.0" width="62" height="30" style="fill:#87bcbc;fill-opacity:1.00" />
  <line x1="3022" y1="50.0" x2="3062" y2="50.0" style="stroke:#999; stroke-width:3;" />
  <rect class="anc_exon" x="3062" y="35.0" width="160" height="30" style="fill:#87bcbc;fill-opacity:1.00" />
  <line x1="3222" y1="50.0" x2="3262" y2="50.0" style="stroke:#999; stroke-width:3;" />
  <rect class="anc_exon" x="3262" y="35.0" width="496" height="30" style="fill:#87bcbc;fill-opacity:1.00" />
  <line x1="3758" y1="50.0" x2="3798" y2="50.0" style="stroke:#999; stroke-width:3;" />
  <rect class="anc_exon" x="3798" y="35.0" width="144" height="30" style="fill:#87bcbc;fill-opacity:1.00" />
  <line x1="3942" y1="50.0" x2="3982" y2="50.0" style="stroke:#999; stroke-width:3;" />
  <rect class="anc_exon" x="3982" y="35.0" width="112" height="30" style="fill:#87bcbc;fill-opacity:1.00" />
  <rect class="anc_exon" x="4094" y="35.0" width="0" height="30" style="fill:#87bcbc;fill-opacity:1.00" />
  <text style="" >
<tspan x="0" y="83.0" style="font-size:18px;" >SP XM_031956720_1.1</tspan>  </text>



<script type="text/ecmascript">
<![CDATA[
function draw_bbox(text_id)
{
    var text_elem = document.getElementById(text_id);
    var offset_px = 2;
    var offset_py = 0;
    bbox = text_elem.getBBox();
    var box = document.createElementNS(document.rootElement.namespaceURI,'rect');
    box.setAttribute('x', bbox.x - offset_px);
    box.setAttribute('y', bbox.y - offset_py);
    box.setAttribute('width', bbox.width + offset_px * 2);
    box.setAttribute('height', bbox.height + offset_py * 2);
    box.setAttribute('style','fill: white;'+'stroke: black;'+'stroke-width: 1px;');
    text_elem.insertBefore(box,text_elem.childNodes[0]);

    var svg = text_elem.parentNode;
    svg.appendChild(text_elem);
}

for (var i=1; i < 1; i++)
{
draw_bbox("Mouseover" + i);
}
]]> 
</script>
</svg>
