<svg version="1.1"
xmlns="http://www.w3.org/2000/svg"
xmlns:xlink="http://www.w3.org/1999/xlink"
width="6524" height="100" viewBox = "0 0 6524 100"
onclick="mouseclick(evt)">

<script type="text/ecmascript">

<![CDATA[
    function mouseover(evt, target) { 
    var gv = document.getElementById("globalVariable");
    var previoustarget = gv.firstChild.nodeValue;
    if (previoustarget != "none") 
    {
        	document.getElementById(gv.firstChild.nodeValue).setAttributeNS(null, "visibility", "hidden");
    }
    document.getElementById(target).setAttributeNS(null, "visibility", "visible");
    gv.firstChild.nodeValue = target;
        }

    function mouseclick(evt) { 
    var gv = document.getElementById("globalVariable");
    var previoustarget = gv.firstChild.nodeValue;
    if (previoustarget != "none") {
        	document.getElementById(gv.firstChild.nodeValue).setAttributeNS(null, "visibility", "hidden");
        }
    }
]]>
  </script>
<style type="text/css" >

<![CDATA[
    rect.anc_exon {
              stroke-width:3;
                  }

    rect.non_anc_exon {
              stroke: black; stroke-width:3; stroke-dasharray: 5,5;
                    }

    text {
              font-size: 18px;
              font-family: Courier New;
          }
                    ]]>
</style>

<defs>
    <text x="150" y="40" id="globalVariable">none</text>
</defs>

  <rect class="anc_exon" x="0" y="35.0" width="0" height="30" style="fill:#87bcbc;fill-opacity:1.00" />
  <rect class="anc_exon" x="0" y="35.0" width="484.0" height="30" style="fill:#878787;fill-opacity:1.00" />
  <line x1="484.0" y1="50.0" x2="504.0" y2="50.0" style="stroke:#999; stroke-width:3;" />
  <line x1="504.0" y1="50.0" x2="504.0" y2="50.0" style="stroke:#999; stroke-width:3;" />
  <line x1="504.0" y1="50.0" x2="504.0" y2="50.0" style="stroke:#999; stroke-width:3;" />
  <line x1="504.0" y1="50.0" x2="524.0" y2="50.0" style="stroke:#999; stroke-width:3;" />
  <rect class="anc_exon" x="524" y="35.0" width="1217" height="30" style="fill:#87bcbc;fill-opacity:1.00" />
  <line x1="1741" y1="50.0" x2="1761" y2="50.0" style="stroke:#999; stroke-width:3;" />
  <line x1="1761" y1="50.0" x2="1761" y2="50.0" style="stroke:#999; stroke-width:3;" />
  <line x1="1761" y1="50.0" x2="1761" y2="50.0" style="stroke:#999; stroke-width:3;" />
  <line x1="1761" y1="50.0" x2="1781" y2="50.0" style="stroke:#999; stroke-width:3;" />
  <rect class="anc_exon" x="1781" y="35.0" width="49" height="30" style="fill:#87bcbc;fill-opacity:1.00" />
  <line x1="1830" y1="50.0" x2="1870" y2="50.0" style="stroke:#999; stroke-width:3;" />
  <rect class="anc_exon" x="1870" y="35.0" width="31" height="30" style="fill:#87bcbc;fill-opacity:1.00" />
  <line x1="1901" y1="50.0" x2="1921" y2="50.0" style="stroke:#999; stroke-width:3;" />
  <line x1="1921" y1="50.0" x2="1921" y2="50.0" style="stroke:#999; stroke-width:3;" />
  <line x1="1921" y1="50.0" x2="1921" y2="50.0" style="stroke:#999; stroke-width:3;" />
  <line x1="1921" y1="50.0" x2="1941" y2="50.0" style="stroke:#999; stroke-width:3;" />
  <rect class="anc_exon" x="1941" y="35.0" width="241" height="30" style="fill:#87bcbc;fill-opacity:1.00" />
  <line x1="2182" y1="50.0" x2="2222" y2="50.0" style="stroke:#999; stroke-width:3;" />
  <rect class="anc_exon" x="2222" y="35.0" width="215" height="30" style="fill:#87bcbc;fill-opacity:1.00" />
  <line x1="2437" y1="50.0" x2="2457" y2="50.0" style="stroke:#999; stroke-width:3;" />
  <line x1="2457" y1="50.0" x2="2457" y2="50.0" style="stroke:#999; stroke-width:3;" />
  <line x1="2457" y1="50.0" x2="2457" y2="50.0" style="stroke:#999; stroke-width:3;" />
  <line x1="2457" y1="50.0" x2="2477" y2="50.0" style="stroke:#999; stroke-width:3;" />
  <rect class="anc_exon" x="2477" y="35.0" width="117" height="30" style="fill:#87bcbc;fill-opacity:1.00" />
  <line x1="2594" y1="50.0" x2="2614" y2="50.0" style="stroke:#999; stroke-width:3;" />
  <line x1="2614" y1="50.0" x2="2614" y2="50.0" style="stroke:#999; stroke-width:3;" />
  <line x1="2614" y1="50.0" x2="2614" y2="50.0" style="stroke:#999; stroke-width:3;" />
  <line x1="2614" y1="50.0" x2="2634" y2="50.0" style="stroke:#999; stroke-width:3;" />
  <rect class="anc_exon" x="2634" y="35.0" width="108" height="30" style="fill:#87bcbc;fill-opacity:1.00" />
  <line x1="2742" y1="50.0" x2="2762" y2="50.0" style="stroke:#999; stroke-width:3;" />
  <line x1="2762" y1="50.0" x2="2762" y2="50.0" style="stroke:#999; stroke-width:3;" />
  <line x1="2762" y1="50.0" x2="2762" y2="50.0" style="stroke:#999; stroke-width:3;" />
  <line x1="2762" y1="50.0" x2="2782" y2="50.0" style="stroke:#999; stroke-width:3;" />
  <rect class="anc_exon" x="2782" y="35.0" width="42" height="30" style="fill:#87bcbc;fill-opacity:1.00" />
  <line x1="2824" y1="50.0" x2="2864" y2="50.0" style="stroke:#999; stroke-width:3;" />
  <rect class="anc_exon" x="2864" y="35.0" width="40" height="30" style="fill:#87bcbc;fill-opacity:1.00" />
  <line x1="2904" y1="50.0" x2="2924" y2="50.0" style="stroke:#999; stroke-width:3;" />
  <line x1="2924" y1="50.0" x2="2924" y2="50.0" style="stroke:#999; stroke-width:3;" />
  <line x1="2924" y1="50.0" x2="2924" y2="50.0" style="stroke:#999; stroke-width:3;" />
  <line x1="2924" y1="50.0" x2="2944" y2="50.0" style="stroke:#999; stroke-width:3;" />
  <rect class="anc_exon" x="2944" y="35.0" width="55" height="30" style="fill:#87bcbc;fill-opacity:1.00" />
  <line x1="2999" y1="50.0" x2="3039" y2="50.0" style="stroke:#999; stroke-width:3;" />
  <rect class="anc_exon" x="3039" y="35.0" width="69" height="30" style="fill:#87bcbc;fill-opacity:1.00" />
  <line x1="3108" y1="50.0" x2="3148" y2="50.0" style="stroke:#999; stroke-width:3;" />
  <rect class="anc_exon" x="3148" y="35.0" width="48" height="30" style="fill:#87bcbc;fill-opacity:1.00" />
  <line x1="3196" y1="50.0" x2="3236" y2="50.0" style="stroke:#999; stroke-width:3;" />
  <rect class="anc_exon" x="3236" y="35.0" width="69" height="30" style="fill:#87bcbc;fill-opacity:1.00" />
  <line x1="3305" y1="50.0" x2="3345" y2="50.0" style="stroke:#999; stroke-width:3;" />
  <rect class="anc_exon" x="3345" y="35.0" width="25" height="30" style="fill:#87bcbc;fill-opacity:1.00" />
  <line x1="3370" y1="50.0" x2="3410" y2="50.0" style="stroke:#999; stroke-width:3;" />
  <rect class="anc_exon" x="3410" y="35.0" width="105" height="30" style="fill:#87bcbc;fill-opacity:1.00" />
  <line x1="3515" y1="50.0" x2="3535" y2="50.0" style="stroke:#999; stroke-width:3;" />
  <line x1="3535" y1="50.0" x2="3535" y2="50.0" style="stroke:#999; stroke-width:3;" />
  <line x1="3535" y1="50.0" x2="3535" y2="50.0" style="stroke:#999; stroke-width:3;" />
  <line x1="3535" y1="50.0" x2="3555" y2="50.0" style="stroke:#999; stroke-width:3;" />
  <rect class="anc_exon" x="3555" y="35.0" width="103" height="30" style="fill:#87bcbc;fill-opacity:1.00" />
  <line x1="3658" y1="50.0" x2="3698" y2="50.0" style="stroke:#999; stroke-width:3;" />
  <rect class="anc_exon" x="3698" y="35.0" width="33" height="30" style="fill:#87bcbc;fill-opacity:1.00" />
  <line x1="3731" y1="50.0" x2="3771" y2="50.0" style="stroke:#999; stroke-width:3;" />
  <rect class="anc_exon" x="3771" y="35.0" width="112" height="30" style="fill:#87bcbc;fill-opacity:1.00" />
  <line x1="3883" y1="50.0" x2="3903" y2="50.0" style="stroke:#999; stroke-width:3;" />
  <line x1="3903" y1="50.0" x2="3903" y2="50.0" style="stroke:#999; stroke-width:3;" />
  <line x1="3903" y1="50.0" x2="3903" y2="50.0" style="stroke:#999; stroke-width:3;" />
  <line x1="3903" y1="50.0" x2="3923" y2="50.0" style="stroke:#999; stroke-width:3;" />
  <rect class="anc_exon" x="3923" y="35.0" width="100" height="30" style="fill:#878787;fill-opacity:1.00" />
  <line x1="4023" y1="50.0" x2="4043" y2="50.0" style="stroke:#999; stroke-width:3;" />
  <line x1="4043" y1="50.0" x2="4043" y2="50.0" style="stroke:#999; stroke-width:3;" />
  <line x1="4043" y1="50.0" x2="4043" y2="50.0" style="stroke:#999; stroke-width:3;" />
  <line x1="4043" y1="50.0" x2="4063" y2="50.0" style="stroke:#999; stroke-width:3;" />
  <rect class="anc_exon" x="4063" y="35.0" width="30" height="30" style="fill:#87bcbc;fill-opacity:1.00" />
  <line x1="4093" y1="50.0" x2="4113" y2="50.0" style="stroke:#999; stroke-width:3;" />
  <line x1="4113" y1="50.0" x2="4113" y2="50.0" style="stroke:#999; stroke-width:3;" />
  <line x1="4113" y1="50.0" x2="4113" y2="50.0" style="stroke:#999; stroke-width:3;" />
  <line x1="4113" y1="50.0" x2="4133" y2="50.0" style="stroke:#999; stroke-width:3;" />
  <rect class="anc_exon" x="4133" y="35.0" width="1004" height="30" style="fill:#87bcbc;fill-opacity:1.00" />
  <line x1="5137" y1="50.0" x2="5177" y2="50.0" style="stroke:#999; stroke-width:3;" />
  <rect class="anc_exon" x="5177" y="35.0" width="52" height="30" style="fill:#87bcbc;fill-opacity:1.00" />
  <line x1="5229" y1="50.0" x2="5249" y2="50.0" style="stroke:#999; stroke-width:3;" />
  <line x1="5249" y1="50.0" x2="5249" y2="50.0" style="stroke:#999; stroke-width:3;" />
  <line x1="5249" y1="50.0" x2="5249" y2="50.0" style="stroke:#999; stroke-width:3;" />
  <line x1="5249" y1="50.0" x2="5269" y2="50.0" style="stroke:#999; stroke-width:3;" />
  <rect class="anc_exon" x="5269" y="35.0" width="778" height="30" style="fill:#87bcbc;fill-opacity:1.00" />
  <line x1="6047" y1="50.0" x2="6087" y2="50.0" style="stroke:#999; stroke-width:3;" />
  <rect class="anc_exon" x="6087" y="35.0" width="57" height="30" style="fill:#87bcbc;fill-opacity:1.00" />
  <line x1="6144" y1="50.0" x2="6184" y2="50.0" style="stroke:#999; stroke-width:3;" />
  <rect class="anc_exon" x="6184" y="35.0" width="79" height="30" style="fill:#87bcbc;fill-opacity:1.00" />
  <line x1="6263" y1="50.0" x2="6283" y2="50.0" style="stroke:#999; stroke-width:3;" />
  <line x1="6283" y1="50.0" x2="6283" y2="50.0" style="stroke:#999; stroke-width:3;" />
  <line x1="6283" y1="50.0" x2="6283" y2="50.0" style="stroke:#999; stroke-width:3;" />
  <line x1="6283" y1="50.0" x2="6303" y2="50.0" style="stroke:#999; stroke-width:3;" />
  <rect class="anc_exon" x="6303" y="35.0" width="95" height="30" style="fill:#87bcbc;fill-opacity:1.00" />
  <line x1="6398" y1="50.0" x2="6418" y2="50.0" style="stroke:#999; stroke-width:3;" />
  <line x1="6418" y1="50.0" x2="6418" y2="50.0" style="stroke:#999; stroke-width:3;" />
  <line x1="6418" y1="50.0" x2="6418" y2="50.0" style="stroke:#999; stroke-width:3;" />
  <line x1="6418" y1="50.0" x2="6438" y2="50.0" style="stroke:#999; stroke-width:3;" />
  <rect class="anc_exon" x="6438" y="35.0" width="50" height="30" style="fill:#87bcbc;fill-opacity:1.00" />
  <rect class="anc_exon" x="6488" y="35.0" width="0" height="30" style="fill:#87bcbc;fill-opacity:1.00" />
  <text style="" >
<tspan x="0" y="83.0" style="font-size:18px;" >SP XM_031949723_1.1</tspan>  </text>



<script type="text/ecmascript">
<![CDATA[
function draw_bbox(text_id)
{
    var text_elem = document.getElementById(text_id);
    var offset_px = 2;
    var offset_py = 0;
    bbox = text_elem.getBBox();
    var box = document.createElementNS(document.rootElement.namespaceURI,'rect');
    box.setAttribute('x', bbox.x - offset_px);
    box.setAttribute('y', bbox.y - offset_py);
    box.setAttribute('width', bbox.width + offset_px * 2);
    box.setAttribute('height', bbox.height + offset_py * 2);
    box.setAttribute('style','fill: white;'+'stroke: black;'+'stroke-width: 1px;');
    text_elem.insertBefore(box,text_elem.childNodes[0]);

    var svg = text_elem.parentNode;
    svg.appendChild(text_elem);
}

for (var i=1; i < 1; i++)
{
draw_bbox("Mouseover" + i);
}
]]> 
</script>
</svg>
