<svg version="1.1"
xmlns="http://www.w3.org/2000/svg"
xmlns:xlink="http://www.w3.org/1999/xlink"
width="2885" height="100" viewBox = "0 0 2885 100"
onclick="mouseclick(evt)">

<script type="text/ecmascript">

<![CDATA[
    function mouseover(evt, target) { 
    var gv = document.getElementById("globalVariable");
    var previoustarget = gv.firstChild.nodeValue;
    if (previoustarget != "none") 
    {
        	document.getElementById(gv.firstChild.nodeValue).setAttributeNS(null, "visibility", "hidden");
    }
    document.getElementById(target).setAttributeNS(null, "visibility", "visible");
    gv.firstChild.nodeValue = target;
        }

    function mouseclick(evt) { 
    var gv = document.getElementById("globalVariable");
    var previoustarget = gv.firstChild.nodeValue;
    if (previoustarget != "none") {
        	document.getElementById(gv.firstChild.nodeValue).setAttributeNS(null, "visibility", "hidden");
        }
    }
]]>
  </script>
<style type="text/css" >

<![CDATA[
    rect.anc_exon {
              stroke-width:3;
                  }

    rect.non_anc_exon {
              stroke: black; stroke-width:3; stroke-dasharray: 5,5;
                    }

    text {
              font-size: 18px;
              font-family: Courier New;
          }
                    ]]>
</style>

<defs>
    <text x="150" y="40" id="globalVariable">none</text>
</defs>

  <rect class="anc_exon" x="0" y="35.0" width="0" height="30" style="fill:#87bcbc;fill-opacity:1.00" />
  <rect class="anc_exon" x="0" y="35.0" width="236.8" height="30" style="fill:#87bcbc;fill-opacity:1.00" />
  <line x1="236.8" y1="50.0" x2="255.8" y2="50.0" style="stroke:#999; stroke-width:3;" />
  <line x1="255.8" y1="50.0" x2="255.8" y2="50.0" style="stroke:#999; stroke-width:3;" />
  <line x1="255.8" y1="50.0" x2="255.8" y2="50.0" style="stroke:#999; stroke-width:3;" />
  <line x1="255.8" y1="50.0" x2="276.0" y2="50.0" style="stroke:#999; stroke-width:3;" />
  <rect class="anc_exon" x="276" y="35.0" width="72" height="30" style="fill:#87bcbc;fill-opacity:1.00" />
  <line x1="348" y1="50.0" x2="368" y2="50.0" style="stroke:#999; stroke-width:3;" />
  <line x1="368" y1="50.0" x2="368" y2="50.0" style="stroke:#999; stroke-width:3;" />
  <line x1="368" y1="50.0" x2="368" y2="50.0" style="stroke:#999; stroke-width:3;" />
  <line x1="368" y1="50.0" x2="388" y2="50.0" style="stroke:#999; stroke-width:3;" />
  <rect class="anc_exon" x="388" y="35.0" width="101" height="30" style="fill:#87bcbc;fill-opacity:1.00" />
  <line x1="489" y1="50.0" x2="509" y2="50.0" style="stroke:#999; stroke-width:3;" />
  <line x1="509" y1="50.0" x2="509" y2="50.0" style="stroke:#999; stroke-width:3;" />
  <line x1="509" y1="50.0" x2="509" y2="50.0" style="stroke:#999; stroke-width:3;" />
  <line x1="509" y1="50.0" x2="529" y2="50.0" style="stroke:#999; stroke-width:3;" />
  <rect class="anc_exon" x="529" y="35.0" width="140" height="30" style="fill:#87bcbc;fill-opacity:1.00" />
  <line x1="669" y1="50.0" x2="689" y2="50.0" style="stroke:#999; stroke-width:3;" />
  <line x1="689" y1="50.0" x2="689" y2="50.0" style="stroke:#999; stroke-width:3;" />
  <line x1="689" y1="50.0" x2="689" y2="50.0" style="stroke:#999; stroke-width:3;" />
  <line x1="689" y1="50.0" x2="709" y2="50.0" style="stroke:#999; stroke-width:3;" />
  <rect class="anc_exon" x="709" y="35.0" width="100" height="30" style="fill:#87bcbc;fill-opacity:1.00" />
  <line x1="809" y1="50.0" x2="829" y2="50.0" style="stroke:#999; stroke-width:3;" />
  <line x1="829" y1="50.0" x2="829" y2="50.0" style="stroke:#999; stroke-width:3;" />
  <line x1="829" y1="50.0" x2="829" y2="50.0" style="stroke:#999; stroke-width:3;" />
  <line x1="829" y1="50.0" x2="849" y2="50.0" style="stroke:#999; stroke-width:3;" />
  <rect class="anc_exon" x="849" y="35.0" width="88" height="30" style="fill:#87bcbc;fill-opacity:1.00" />
  <line x1="937" y1="50.0" x2="977" y2="50.0" style="stroke:#999; stroke-width:3;" />
  <rect class="anc_exon" x="977" y="35.0" width="76" height="30" style="fill:#87bcbc;fill-opacity:1.00" />
  <line x1="1053" y1="50.0" x2="1073" y2="50.0" style="stroke:#999; stroke-width:3;" />
  <line x1="1073" y1="50.0" x2="1073" y2="50.0" style="stroke:#999; stroke-width:3;" />
  <line x1="1073" y1="50.0" x2="1073" y2="50.0" style="stroke:#999; stroke-width:3;" />
  <line x1="1073" y1="50.0" x2="1093" y2="50.0" style="stroke:#999; stroke-width:3;" />
  <rect class="anc_exon" x="1093" y="35.0" width="76" height="30" style="fill:#87bcbc;fill-opacity:1.00" />
  <line x1="1169" y1="50.0" x2="1189" y2="50.0" style="stroke:#999; stroke-width:3;" />
  <line x1="1189" y1="50.0" x2="1189" y2="50.0" style="stroke:#999; stroke-width:3;" />
  <line x1="1189" y1="50.0" x2="1189" y2="50.0" style="stroke:#999; stroke-width:3;" />
  <line x1="1189" y1="50.0" x2="1209" y2="50.0" style="stroke:#999; stroke-width:3;" />
  <rect class="anc_exon" x="1209" y="35.0" width="24" height="30" style="fill:#87bcbc;fill-opacity:1.00" />
  <line x1="1233" y1="50.0" x2="1253" y2="50.0" style="stroke:#999; stroke-width:3;" />
  <line x1="1253" y1="50.0" x2="1253" y2="50.0" style="stroke:#999; stroke-width:3;" />
  <line x1="1253" y1="50.0" x2="1253" y2="50.0" style="stroke:#999; stroke-width:3;" />
  <line x1="1253" y1="50.0" x2="1273" y2="50.0" style="stroke:#999; stroke-width:3;" />
  <rect class="anc_exon" x="1273" y="35.0" width="55" height="30" style="fill:#87bcbc;fill-opacity:1.00" />
  <line x1="1328" y1="50.0" x2="1368" y2="50.0" style="stroke:#999; stroke-width:3;" />
  <rect class="anc_exon" x="1368" y="35.0" width="24" height="30" style="fill:#87bcbc;fill-opacity:1.00" />
  <line x1="1392" y1="50.0" x2="1412" y2="50.0" style="stroke:#999; stroke-width:3;" />
  <line x1="1412" y1="50.0" x2="1412" y2="50.0" style="stroke:#999; stroke-width:3;" />
  <line x1="1412" y1="50.0" x2="1412" y2="50.0" style="stroke:#999; stroke-width:3;" />
  <line x1="1412" y1="50.0" x2="1432" y2="50.0" style="stroke:#999; stroke-width:3;" />
  <rect class="anc_exon" x="1432" y="35.0" width="43" height="30" style="fill:#87bcbc;fill-opacity:1.00" />
  <line x1="1475" y1="50.0" x2="1495" y2="50.0" style="stroke:#999; stroke-width:3;" />
  <line x1="1495" y1="50.0" x2="1495" y2="50.0" style="stroke:#999; stroke-width:3;" />
  <line x1="1495" y1="50.0" x2="1495" y2="50.0" style="stroke:#999; stroke-width:3;" />
  <line x1="1495" y1="50.0" x2="1515" y2="50.0" style="stroke:#999; stroke-width:3;" />
  <rect class="anc_exon" x="1515" y="35.0" width="179" height="30" style="fill:#87bcbc;fill-opacity:1.00" />
  <line x1="1694" y1="50.0" x2="1714" y2="50.0" style="stroke:#999; stroke-width:3;" />
  <line x1="1714" y1="50.0" x2="1714" y2="50.0" style="stroke:#999; stroke-width:3;" />
  <line x1="1714" y1="50.0" x2="1714" y2="50.0" style="stroke:#999; stroke-width:3;" />
  <line x1="1714" y1="50.0" x2="1734" y2="50.0" style="stroke:#999; stroke-width:3;" />
  <rect class="anc_exon" x="1734" y="35.0" width="87" height="30" style="fill:#87bcbc;fill-opacity:1.00" />
  <line x1="1821" y1="50.0" x2="1861" y2="50.0" style="stroke:#999; stroke-width:3;" />
  <rect class="anc_exon" x="1861" y="35.0" width="105" height="30" style="fill:#87bcbc;fill-opacity:1.00" />
  <line x1="1966" y1="50.0" x2="1986" y2="50.0" style="stroke:#999; stroke-width:3;" />
  <line x1="1986" y1="50.0" x2="1986" y2="50.0" style="stroke:#999; stroke-width:3;" />
  <line x1="1986" y1="50.0" x2="1986" y2="50.0" style="stroke:#999; stroke-width:3;" />
  <line x1="1986" y1="50.0" x2="2006" y2="50.0" style="stroke:#999; stroke-width:3;" />
  <rect class="anc_exon" x="2006" y="35.0" width="76" height="30" style="fill:#87bcbc;fill-opacity:1.00" />
  <line x1="2082" y1="50.0" x2="2102" y2="50.0" style="stroke:#999; stroke-width:3;" />
  <line x1="2102" y1="50.0" x2="2102" y2="50.0" style="stroke:#999; stroke-width:3;" />
  <line x1="2102" y1="50.0" x2="2102" y2="50.0" style="stroke:#999; stroke-width:3;" />
  <line x1="2102" y1="50.0" x2="2122" y2="50.0" style="stroke:#999; stroke-width:3;" />
  <rect class="anc_exon" x="2122" y="35.0" width="99" height="30" style="fill:#87bcbc;fill-opacity:1.00" />
  <line x1="2221" y1="50.0" x2="2261" y2="50.0" style="stroke:#999; stroke-width:3;" />
  <rect class="anc_exon" x="2261" y="35.0" width="588" height="30" style="fill:#878787;fill-opacity:1.00" />
  <rect class="anc_exon" x="2849" y="35.0" width="0" height="30" style="fill:#87bcbc;fill-opacity:1.00" />
  <text style="" >
<tspan x="0" y="83.0" style="font-size:18px;" >SP XM_031951770_1.1</tspan>  </text>



<script type="text/ecmascript">
<![CDATA[
function draw_bbox(text_id)
{
    var text_elem = document.getElementById(text_id);
    var offset_px = 2;
    var offset_py = 0;
    bbox = text_elem.getBBox();
    var box = document.createElementNS(document.rootElement.namespaceURI,'rect');
    box.setAttribute('x', bbox.x - offset_px);
    box.setAttribute('y', bbox.y - offset_py);
    box.setAttribute('width', bbox.width + offset_px * 2);
    box.setAttribute('height', bbox.height + offset_py * 2);
    box.setAttribute('style','fill: white;'+'stroke: black;'+'stroke-width: 1px;');
    text_elem.insertBefore(box,text_elem.childNodes[0]);

    var svg = text_elem.parentNode;
    svg.appendChild(text_elem);
}

for (var i=1; i < 1; i++)
{
draw_bbox("Mouseover" + i);
}
]]> 
</script>
</svg>
