<svg version="1.1"
xmlns="http://www.w3.org/2000/svg"
xmlns:xlink="http://www.w3.org/1999/xlink"
width="4019" height="100" viewBox = "0 0 4019 100"
onclick="mouseclick(evt)">

<script type="text/ecmascript">

<![CDATA[
    function mouseover(evt, target) { 
    var gv = document.getElementById("globalVariable");
    var previoustarget = gv.firstChild.nodeValue;
    if (previoustarget != "none") 
    {
        	document.getElementById(gv.firstChild.nodeValue).setAttributeNS(null, "visibility", "hidden");
    }
    document.getElementById(target).setAttributeNS(null, "visibility", "visible");
    gv.firstChild.nodeValue = target;
        }

    function mouseclick(evt) { 
    var gv = document.getElementById("globalVariable");
    var previoustarget = gv.firstChild.nodeValue;
    if (previoustarget != "none") {
        	document.getElementById(gv.firstChild.nodeValue).setAttributeNS(null, "visibility", "hidden");
        }
    }
]]>
  </script>
<style type="text/css" >

<![CDATA[
    rect.anc_exon {
              stroke-width:3;
                  }

    rect.non_anc_exon {
              stroke: black; stroke-width:3; stroke-dasharray: 5,5;
                    }

    text {
              font-size: 18px;
              font-family: Courier New;
          }
                    ]]>
</style>

<defs>
    <text x="150" y="40" id="globalVariable">none</text>
</defs>

  <rect class="anc_exon" x="0" y="35.0" width="0" height="30" style="fill:#87bcbc;fill-opacity:1.00" />
  <rect class="anc_exon" x="0" y="35.0" width="518.4" height="30" style="fill:#87bcbc;fill-opacity:1.00" />
  <line x1="518.4" y1="50.0" x2="537.4" y2="50.0" style="stroke:#999; stroke-width:3;" />
  <line x1="537.4" y1="50.0" x2="537.4" y2="50.0" style="stroke:#999; stroke-width:3;" />
  <line x1="537.4" y1="50.0" x2="537.4" y2="50.0" style="stroke:#999; stroke-width:3;" />
  <line x1="537.4" y1="50.0" x2="558.0" y2="50.0" style="stroke:#999; stroke-width:3;" />
  <rect class="anc_exon" x="558" y="35.0" width="54" height="30" style="fill:#87bcbc;fill-opacity:1.00" />
  <line x1="612" y1="50.0" x2="632" y2="50.0" style="stroke:#999; stroke-width:3;" />
  <line x1="632" y1="50.0" x2="632" y2="50.0" style="stroke:#999; stroke-width:3;" />
  <line x1="632" y1="50.0" x2="632" y2="50.0" style="stroke:#999; stroke-width:3;" />
  <line x1="632" y1="50.0" x2="652" y2="50.0" style="stroke:#999; stroke-width:3;" />
  <rect class="anc_exon" x="652" y="35.0" width="80" height="30" style="fill:#87bcbc;fill-opacity:1.00" />
  <line x1="732" y1="50.0" x2="752" y2="50.0" style="stroke:#999; stroke-width:3;" />
  <line x1="752" y1="50.0" x2="752" y2="50.0" style="stroke:#999; stroke-width:3;" />
  <line x1="752" y1="50.0" x2="752" y2="50.0" style="stroke:#999; stroke-width:3;" />
  <line x1="752" y1="50.0" x2="772" y2="50.0" style="stroke:#999; stroke-width:3;" />
  <rect class="anc_exon" x="772" y="35.0" width="127" height="30" style="fill:#87bcbc;fill-opacity:1.00" />
  <line x1="899" y1="50.0" x2="919" y2="50.0" style="stroke:#999; stroke-width:3;" />
  <line x1="919" y1="50.0" x2="919" y2="50.0" style="stroke:#999; stroke-width:3;" />
  <line x1="919" y1="50.0" x2="919" y2="50.0" style="stroke:#999; stroke-width:3;" />
  <line x1="919" y1="50.0" x2="939" y2="50.0" style="stroke:#999; stroke-width:3;" />
  <rect class="anc_exon" x="939" y="35.0" width="59" height="30" style="fill:#878787;fill-opacity:1.00" />
  <line x1="998" y1="50.0" x2="1018" y2="50.0" style="stroke:#999; stroke-width:3;" />
  <line x1="1018" y1="50.0" x2="1018" y2="50.0" style="stroke:#999; stroke-width:3;" />
  <line x1="1018" y1="50.0" x2="1018" y2="50.0" style="stroke:#999; stroke-width:3;" />
  <line x1="1018" y1="50.0" x2="1038" y2="50.0" style="stroke:#999; stroke-width:3;" />
  <rect class="anc_exon" x="1038" y="35.0" width="52" height="30" style="fill:#87bcbc;fill-opacity:1.00" />
  <line x1="1090" y1="50.0" x2="1110" y2="50.0" style="stroke:#999; stroke-width:3;" />
  <line x1="1110" y1="50.0" x2="1110" y2="50.0" style="stroke:#999; stroke-width:3;" />
  <line x1="1110" y1="50.0" x2="1110" y2="50.0" style="stroke:#999; stroke-width:3;" />
  <line x1="1110" y1="50.0" x2="1130" y2="50.0" style="stroke:#999; stroke-width:3;" />
  <rect class="anc_exon" x="1130" y="35.0" width="95" height="30" style="fill:#87bcbc;fill-opacity:1.00" />
  <line x1="1225" y1="50.0" x2="1245" y2="50.0" style="stroke:#999; stroke-width:3;" />
  <line x1="1245" y1="50.0" x2="1245" y2="50.0" style="stroke:#999; stroke-width:3;" />
  <line x1="1245" y1="50.0" x2="1245" y2="50.0" style="stroke:#999; stroke-width:3;" />
  <line x1="1245" y1="50.0" x2="1265" y2="50.0" style="stroke:#999; stroke-width:3;" />
  <rect class="anc_exon" x="1265" y="35.0" width="72" height="30" style="fill:#87bcbc;fill-opacity:1.00" />
  <line x1="1337" y1="50.0" x2="1357" y2="50.0" style="stroke:#999; stroke-width:3;" />
  <line x1="1357" y1="50.0" x2="1357" y2="50.0" style="stroke:#999; stroke-width:3;" />
  <line x1="1357" y1="50.0" x2="1357" y2="50.0" style="stroke:#999; stroke-width:3;" />
  <line x1="1357" y1="50.0" x2="1377" y2="50.0" style="stroke:#999; stroke-width:3;" />
  <rect class="anc_exon" x="1377" y="35.0" width="144" height="30" style="fill:#87bcbc;fill-opacity:1.00" />
  <line x1="1521" y1="50.0" x2="1541" y2="50.0" style="stroke:#999; stroke-width:3;" />
  <line x1="1541" y1="50.0" x2="1541" y2="50.0" style="stroke:#999; stroke-width:3;" />
  <line x1="1541" y1="50.0" x2="1541" y2="50.0" style="stroke:#999; stroke-width:3;" />
  <line x1="1541" y1="50.0" x2="1561" y2="50.0" style="stroke:#999; stroke-width:3;" />
  <rect class="anc_exon" x="1561" y="35.0" width="117" height="30" style="fill:#87bcbc;fill-opacity:1.00" />
  <line x1="1678" y1="50.0" x2="1718" y2="50.0" style="stroke:#999; stroke-width:3;" />
  <rect class="anc_exon" x="1718" y="35.0" width="82" height="30" style="fill:#87bcbc;fill-opacity:1.00" />
  <line x1="1800" y1="50.0" x2="1820" y2="50.0" style="stroke:#999; stroke-width:3;" />
  <line x1="1820" y1="50.0" x2="1820" y2="50.0" style="stroke:#999; stroke-width:3;" />
  <line x1="1820" y1="50.0" x2="1820" y2="50.0" style="stroke:#999; stroke-width:3;" />
  <line x1="1820" y1="50.0" x2="1840" y2="50.0" style="stroke:#999; stroke-width:3;" />
  <rect class="anc_exon" x="1840" y="35.0" width="61" height="30" style="fill:#87bcbc;fill-opacity:1.00" />
  <line x1="1901" y1="50.0" x2="1941" y2="50.0" style="stroke:#999; stroke-width:3;" />
  <rect class="anc_exon" x="1941" y="35.0" width="73" height="30" style="fill:#87bcbc;fill-opacity:1.00" />
  <line x1="2014" y1="50.0" x2="2034" y2="50.0" style="stroke:#999; stroke-width:3;" />
  <line x1="2034" y1="50.0" x2="2034" y2="50.0" style="stroke:#999; stroke-width:3;" />
  <line x1="2034" y1="50.0" x2="2034" y2="50.0" style="stroke:#999; stroke-width:3;" />
  <line x1="2034" y1="50.0" x2="2054" y2="50.0" style="stroke:#999; stroke-width:3;" />
  <rect class="anc_exon" x="2054" y="35.0" width="86" height="30" style="fill:#87bcbc;fill-opacity:1.00" />
  <line x1="2140" y1="50.0" x2="2160" y2="50.0" style="stroke:#999; stroke-width:3;" />
  <line x1="2160" y1="50.0" x2="2160" y2="50.0" style="stroke:#999; stroke-width:3;" />
  <line x1="2160" y1="50.0" x2="2160" y2="50.0" style="stroke:#999; stroke-width:3;" />
  <line x1="2160" y1="50.0" x2="2180" y2="50.0" style="stroke:#999; stroke-width:3;" />
  <rect class="anc_exon" x="2180" y="35.0" width="94" height="30" style="fill:#87bcbc;fill-opacity:1.00" />
  <line x1="2274" y1="50.0" x2="2314" y2="50.0" style="stroke:#999; stroke-width:3;" />
  <rect class="anc_exon" x="2314" y="35.0" width="107" height="30" style="fill:#87bcbc;fill-opacity:1.00" />
  <line x1="2421" y1="50.0" x2="2441" y2="50.0" style="stroke:#999; stroke-width:3;" />
  <line x1="2441" y1="50.0" x2="2441" y2="50.0" style="stroke:#999; stroke-width:3;" />
  <line x1="2441" y1="50.0" x2="2441" y2="50.0" style="stroke:#999; stroke-width:3;" />
  <line x1="2441" y1="50.0" x2="2461" y2="50.0" style="stroke:#999; stroke-width:3;" />
  <rect class="anc_exon" x="2461" y="35.0" width="91" height="30" style="fill:#87bcbc;fill-opacity:1.00" />
  <line x1="2552" y1="50.0" x2="2572" y2="50.0" style="stroke:#999; stroke-width:3;" />
  <line x1="2572" y1="50.0" x2="2572" y2="50.0" style="stroke:#999; stroke-width:3;" />
  <line x1="2572" y1="50.0" x2="2572" y2="50.0" style="stroke:#999; stroke-width:3;" />
  <line x1="2572" y1="50.0" x2="2592" y2="50.0" style="stroke:#999; stroke-width:3;" />
  <rect class="anc_exon" x="2592" y="35.0" width="137" height="30" style="fill:#87bcbc;fill-opacity:1.00" />
  <line x1="2729" y1="50.0" x2="2749" y2="50.0" style="stroke:#999; stroke-width:3;" />
  <line x1="2749" y1="50.0" x2="2749" y2="50.0" style="stroke:#999; stroke-width:3;" />
  <line x1="2749" y1="50.0" x2="2749" y2="50.0" style="stroke:#999; stroke-width:3;" />
  <line x1="2749" y1="50.0" x2="2769" y2="50.0" style="stroke:#999; stroke-width:3;" />
  <rect class="anc_exon" x="2769" y="35.0" width="149" height="30" style="fill:#87bcbc;fill-opacity:1.00" />
  <line x1="2918" y1="50.0" x2="2938" y2="50.0" style="stroke:#999; stroke-width:3;" />
  <line x1="2938" y1="50.0" x2="2938" y2="50.0" style="stroke:#999; stroke-width:3;" />
  <line x1="2938" y1="50.0" x2="2938" y2="50.0" style="stroke:#999; stroke-width:3;" />
  <line x1="2938" y1="50.0" x2="2958" y2="50.0" style="stroke:#999; stroke-width:3;" />
  <rect class="anc_exon" x="2958" y="35.0" width="107" height="30" style="fill:#87bcbc;fill-opacity:1.00" />
  <line x1="3065" y1="50.0" x2="3085" y2="50.0" style="stroke:#999; stroke-width:3;" />
  <line x1="3085" y1="50.0" x2="3085" y2="50.0" style="stroke:#999; stroke-width:3;" />
  <line x1="3085" y1="50.0" x2="3085" y2="50.0" style="stroke:#999; stroke-width:3;" />
  <line x1="3085" y1="50.0" x2="3105" y2="50.0" style="stroke:#999; stroke-width:3;" />
  <rect class="anc_exon" x="3105" y="35.0" width="99" height="30" style="fill:#87bcbc;fill-opacity:1.00" />
  <line x1="3204" y1="50.0" x2="3224" y2="50.0" style="stroke:#999; stroke-width:3;" />
  <line x1="3224" y1="50.0" x2="3224" y2="50.0" style="stroke:#999; stroke-width:3;" />
  <line x1="3224" y1="50.0" x2="3224" y2="50.0" style="stroke:#999; stroke-width:3;" />
  <line x1="3224" y1="50.0" x2="3244" y2="50.0" style="stroke:#999; stroke-width:3;" />
  <rect class="anc_exon" x="3244" y="35.0" width="90" height="30" style="fill:#87bcbc;fill-opacity:1.00" />
  <line x1="3334" y1="50.0" x2="3374" y2="50.0" style="stroke:#999; stroke-width:3;" />
  <rect class="anc_exon" x="3374" y="35.0" width="105" height="30" style="fill:#87bcbc;fill-opacity:1.00" />
  <line x1="3479" y1="50.0" x2="3499" y2="50.0" style="stroke:#999; stroke-width:3;" />
  <line x1="3499" y1="50.0" x2="3499" y2="50.0" style="stroke:#999; stroke-width:3;" />
  <line x1="3499" y1="50.0" x2="3499" y2="50.0" style="stroke:#999; stroke-width:3;" />
  <line x1="3499" y1="50.0" x2="3519" y2="50.0" style="stroke:#999; stroke-width:3;" />
  <rect class="anc_exon" x="3519" y="35.0" width="80" height="30" style="fill:#87bcbc;fill-opacity:1.00" />
  <line x1="3599" y1="50.0" x2="3639" y2="50.0" style="stroke:#999; stroke-width:3;" />
  <rect class="anc_exon" x="3639" y="35.0" width="84" height="30" style="fill:#87bcbc;fill-opacity:1.00" />
  <line x1="3723" y1="50.0" x2="3743" y2="50.0" style="stroke:#999; stroke-width:3;" />
  <line x1="3743" y1="50.0" x2="3743" y2="50.0" style="stroke:#999; stroke-width:3;" />
  <line x1="3743" y1="50.0" x2="3743" y2="50.0" style="stroke:#999; stroke-width:3;" />
  <line x1="3743" y1="50.0" x2="3763" y2="50.0" style="stroke:#999; stroke-width:3;" />
  <rect class="anc_exon" x="3763" y="35.0" width="128" height="30" style="fill:#87bcbc;fill-opacity:1.00" />
  <line x1="3891" y1="50.0" x2="3931" y2="50.0" style="stroke:#999; stroke-width:3;" />
  <rect class="anc_exon" x="3931" y="35.0" width="52" height="30" style="fill:#87bcbc;fill-opacity:1.00" />
  <rect class="anc_exon" x="3983" y="35.0" width="0" height="30" style="fill:#87bcbc;fill-opacity:1.00" />
  <text style="" >
<tspan x="0" y="83.0" style="font-size:18px;" >SP XM_031955808_1.1</tspan>  </text>



<script type="text/ecmascript">
<![CDATA[
function draw_bbox(text_id)
{
    var text_elem = document.getElementById(text_id);
    var offset_px = 2;
    var offset_py = 0;
    bbox = text_elem.getBBox();
    var box = document.createElementNS(document.rootElement.namespaceURI,'rect');
    box.setAttribute('x', bbox.x - offset_px);
    box.setAttribute('y', bbox.y - offset_py);
    box.setAttribute('width', bbox.width + offset_px * 2);
    box.setAttribute('height', bbox.height + offset_py * 2);
    box.setAttribute('style','fill: white;'+'stroke: black;'+'stroke-width: 1px;');
    text_elem.insertBefore(box,text_elem.childNodes[0]);

    var svg = text_elem.parentNode;
    svg.appendChild(text_elem);
}

for (var i=1; i < 1; i++)
{
draw_bbox("Mouseover" + i);
}
]]> 
</script>
</svg>
