<svg version="1.1"
xmlns="http://www.w3.org/2000/svg"
xmlns:xlink="http://www.w3.org/1999/xlink"
width="2193" height="100" viewBox = "0 0 2193 100"
onclick="mouseclick(evt)">

<script type="text/ecmascript">

<![CDATA[
    function mouseover(evt, target) { 
    var gv = document.getElementById("globalVariable");
    var previoustarget = gv.firstChild.nodeValue;
    if (previoustarget != "none") 
    {
        	document.getElementById(gv.firstChild.nodeValue).setAttributeNS(null, "visibility", "hidden");
    }
    document.getElementById(target).setAttributeNS(null, "visibility", "visible");
    gv.firstChild.nodeValue = target;
        }

    function mouseclick(evt) { 
    var gv = document.getElementById("globalVariable");
    var previoustarget = gv.firstChild.nodeValue;
    if (previoustarget != "none") {
        	document.getElementById(gv.firstChild.nodeValue).setAttributeNS(null, "visibility", "hidden");
        }
    }
]]>
  </script>
<style type="text/css" >

<![CDATA[
    rect.anc_exon {
              stroke-width:3;
                  }

    rect.non_anc_exon {
              stroke: black; stroke-width:3; stroke-dasharray: 5,5;
                    }

    text {
              font-size: 18px;
              font-family: Courier New;
          }
                    ]]>
</style>

<defs>
    <text x="150" y="40" id="globalVariable">none</text>
</defs>

  <rect class="anc_exon" x="0" y="35.0" width="0" height="30" style="fill:#87bcbc;fill-opacity:1.00" />
  <rect class="anc_exon" x="0" y="35.0" width="14.4" height="30" style="fill:#87bcbc;fill-opacity:1.00" />
  <line x1="14.4" y1="50.0" x2="54.0" y2="50.0" style="stroke:#999; stroke-width:3;" />
  <rect class="anc_exon" x="54" y="35.0" width="105" height="30" style="fill:#87bcbc;fill-opacity:1.00" />
  <line x1="159" y1="50.0" x2="179" y2="50.0" style="stroke:#999; stroke-width:3;" />
  <line x1="179" y1="50.0" x2="179" y2="50.0" style="stroke:#999; stroke-width:3;" />
  <line x1="179" y1="50.0" x2="179" y2="50.0" style="stroke:#999; stroke-width:3;" />
  <line x1="179" y1="50.0" x2="199" y2="50.0" style="stroke:#999; stroke-width:3;" />
  <rect class="anc_exon" x="199" y="35.0" width="211" height="30" style="fill:#87bcbc;fill-opacity:1.00" />
  <line x1="410" y1="50.0" x2="450" y2="50.0" style="stroke:#999; stroke-width:3;" />
  <rect class="anc_exon" x="450" y="35.0" width="95" height="30" style="fill:#87bcbc;fill-opacity:1.00" />
  <line x1="545" y1="50.0" x2="585" y2="50.0" style="stroke:#999; stroke-width:3;" />
  <rect class="anc_exon" x="585" y="35.0" width="43" height="30" style="fill:#87bcbc;fill-opacity:1.00" />
  <line x1="628" y1="50.0" x2="668" y2="50.0" style="stroke:#999; stroke-width:3;" />
  <rect class="anc_exon" x="668" y="35.0" width="132" height="30" style="fill:#87bcbc;fill-opacity:1.00" />
  <line x1="800" y1="50.0" x2="840" y2="50.0" style="stroke:#999; stroke-width:3;" />
  <rect class="anc_exon" x="840" y="35.0" width="140" height="30" style="fill:#87bcbc;fill-opacity:1.00" />
  <line x1="980" y1="50.0" x2="1020" y2="50.0" style="stroke:#999; stroke-width:3;" />
  <rect class="anc_exon" x="1020" y="35.0" width="143" height="30" style="fill:#87bcbc;fill-opacity:1.00" />
  <line x1="1163" y1="50.0" x2="1203" y2="50.0" style="stroke:#999; stroke-width:3;" />
  <rect class="anc_exon" x="1203" y="35.0" width="80" height="30" style="fill:#87bcbc;fill-opacity:1.00" />
  <line x1="1283" y1="50.0" x2="1323" y2="50.0" style="stroke:#999; stroke-width:3;" />
  <rect class="anc_exon" x="1323" y="35.0" width="96" height="30" style="fill:#87bcbc;fill-opacity:1.00" />
  <line x1="1419" y1="50.0" x2="1459" y2="50.0" style="stroke:#999; stroke-width:3;" />
  <rect class="anc_exon" x="1459" y="35.0" width="98" height="30" style="fill:#87bcbc;fill-opacity:1.00" />
  <line x1="1557" y1="50.0" x2="1597" y2="50.0" style="stroke:#999; stroke-width:3;" />
  <rect class="anc_exon" x="1597" y="35.0" width="108" height="30" style="fill:#87bcbc;fill-opacity:1.00" />
  <line x1="1705" y1="50.0" x2="1745" y2="50.0" style="stroke:#999; stroke-width:3;" />
  <rect class="anc_exon" x="1745" y="35.0" width="50" height="30" style="fill:#87bcbc;fill-opacity:1.00" />
  <line x1="1795" y1="50.0" x2="1835" y2="50.0" style="stroke:#999; stroke-width:3;" />
  <rect class="anc_exon" x="1835" y="35.0" width="110" height="30" style="fill:#87bcbc;fill-opacity:1.00" />
  <line x1="1945" y1="50.0" x2="1985" y2="50.0" style="stroke:#999; stroke-width:3;" />
  <rect class="anc_exon" x="1985" y="35.0" width="172" height="30" style="fill:#87bcbc;fill-opacity:1.00" />
  <rect class="anc_exon" x="2157" y="35.0" width="0" height="30" style="fill:#87bcbc;fill-opacity:1.00" />
  <text style="" >
<tspan x="0" y="83.0" style="font-size:18px;" >SP XM_031954786_1.1</tspan>  </text>



<script type="text/ecmascript">
<![CDATA[
function draw_bbox(text_id)
{
    var text_elem = document.getElementById(text_id);
    var offset_px = 2;
    var offset_py = 0;
    bbox = text_elem.getBBox();
    var box = document.createElementNS(document.rootElement.namespaceURI,'rect');
    box.setAttribute('x', bbox.x - offset_px);
    box.setAttribute('y', bbox.y - offset_py);
    box.setAttribute('width', bbox.width + offset_px * 2);
    box.setAttribute('height', bbox.height + offset_py * 2);
    box.setAttribute('style','fill: white;'+'stroke: black;'+'stroke-width: 1px;');
    text_elem.insertBefore(box,text_elem.childNodes[0]);

    var svg = text_elem.parentNode;
    svg.appendChild(text_elem);
}

for (var i=1; i < 1; i++)
{
draw_bbox("Mouseover" + i);
}
]]> 
</script>
</svg>
