<svg version="1.1"
xmlns="http://www.w3.org/2000/svg"
xmlns:xlink="http://www.w3.org/1999/xlink"
width="3381" height="100" viewBox = "0 0 3381 100"
onclick="mouseclick(evt)">

<script type="text/ecmascript">

<![CDATA[
    function mouseover(evt, target) { 
    var gv = document.getElementById("globalVariable");
    var previoustarget = gv.firstChild.nodeValue;
    if (previoustarget != "none") 
    {
        	document.getElementById(gv.firstChild.nodeValue).setAttributeNS(null, "visibility", "hidden");
    }
    document.getElementById(target).setAttributeNS(null, "visibility", "visible");
    gv.firstChild.nodeValue = target;
        }

    function mouseclick(evt) { 
    var gv = document.getElementById("globalVariable");
    var previoustarget = gv.firstChild.nodeValue;
    if (previoustarget != "none") {
        	document.getElementById(gv.firstChild.nodeValue).setAttributeNS(null, "visibility", "hidden");
        }
    }
]]>
  </script>
<style type="text/css" >

<![CDATA[
    rect.anc_exon {
              stroke-width:3;
                  }

    rect.non_anc_exon {
              stroke: black; stroke-width:3; stroke-dasharray: 5,5;
                    }

    text {
              font-size: 18px;
              font-family: Courier New;
          }
                    ]]>
</style>

<defs>
    <text x="150" y="40" id="globalVariable">none</text>
</defs>

  <rect class="anc_exon" x="0" y="35.0" width="0" height="30" style="fill:#87bcbc;fill-opacity:1.00" />
  <rect class="anc_exon" x="0" y="35.0" width="122.4" height="30" style="fill:#87bcbc;fill-opacity:1.00" />
  <line x1="122.4" y1="50.0" x2="141.4" y2="50.0" style="stroke:#999; stroke-width:3;" />
  <line x1="141.4" y1="50.0" x2="141.4" y2="50.0" style="stroke:#999; stroke-width:3;" />
  <line x1="141.4" y1="50.0" x2="141.4" y2="50.0" style="stroke:#999; stroke-width:3;" />
  <line x1="141.4" y1="50.0" x2="162.0" y2="50.0" style="stroke:#999; stroke-width:3;" />
  <rect class="anc_exon" x="162" y="35.0" width="85" height="30" style="fill:#87bcbc;fill-opacity:1.00" />
  <line x1="247" y1="50.0" x2="267" y2="50.0" style="stroke:#999; stroke-width:3;" />
  <line x1="267" y1="50.0" x2="267" y2="50.0" style="stroke:#999; stroke-width:3;" />
  <line x1="267" y1="50.0" x2="267" y2="50.0" style="stroke:#999; stroke-width:3;" />
  <line x1="267" y1="50.0" x2="287" y2="50.0" style="stroke:#999; stroke-width:3;" />
  <rect class="anc_exon" x="287" y="35.0" width="63" height="30" style="fill:#87bcbc;fill-opacity:1.00" />
  <line x1="350" y1="50.0" x2="390" y2="50.0" style="stroke:#999; stroke-width:3;" />
  <rect class="anc_exon" x="390" y="35.0" width="140" height="30" style="fill:#87bcbc;fill-opacity:1.00" />
  <line x1="530" y1="50.0" x2="570" y2="50.0" style="stroke:#999; stroke-width:3;" />
  <rect class="anc_exon" x="570" y="35.0" width="61" height="30" style="fill:#87bcbc;fill-opacity:1.00" />
  <line x1="631" y1="50.0" x2="671" y2="50.0" style="stroke:#999; stroke-width:3;" />
  <rect class="anc_exon" x="671" y="35.0" width="96" height="30" style="fill:#87bcbc;fill-opacity:1.00" />
  <line x1="767" y1="50.0" x2="807" y2="50.0" style="stroke:#999; stroke-width:3;" />
  <rect class="anc_exon" x="807" y="35.0" width="116" height="30" style="fill:#87bcbc;fill-opacity:1.00" />
  <line x1="923" y1="50.0" x2="963" y2="50.0" style="stroke:#999; stroke-width:3;" />
  <rect class="anc_exon" x="963" y="35.0" width="77" height="30" style="fill:#87bcbc;fill-opacity:1.00" />
  <line x1="1040" y1="50.0" x2="1060" y2="50.0" style="stroke:#999; stroke-width:3;" />
  <line x1="1060" y1="50.0" x2="1060" y2="50.0" style="stroke:#999; stroke-width:3;" />
  <line x1="1060" y1="50.0" x2="1060" y2="50.0" style="stroke:#999; stroke-width:3;" />
  <line x1="1060" y1="50.0" x2="1080" y2="50.0" style="stroke:#999; stroke-width:3;" />
  <rect class="anc_exon" x="1080" y="35.0" width="113" height="30" style="fill:#87bcbc;fill-opacity:1.00" />
  <line x1="1193" y1="50.0" x2="1233" y2="50.0" style="stroke:#999; stroke-width:3;" />
  <rect class="anc_exon" x="1233" y="35.0" width="199" height="30" style="fill:#87bcbc;fill-opacity:1.00" />
  <line x1="1432" y1="50.0" x2="1452" y2="50.0" style="stroke:#999; stroke-width:3;" />
  <line x1="1452" y1="50.0" x2="1452" y2="50.0" style="stroke:#999; stroke-width:3;" />
  <line x1="1452" y1="50.0" x2="1452" y2="50.0" style="stroke:#999; stroke-width:3;" />
  <line x1="1452" y1="50.0" x2="1472" y2="50.0" style="stroke:#999; stroke-width:3;" />
  <rect class="anc_exon" x="1472" y="35.0" width="176" height="30" style="fill:#87bcbc;fill-opacity:1.00" />
  <line x1="1648" y1="50.0" x2="1668" y2="50.0" style="stroke:#999; stroke-width:3;" />
  <line x1="1668" y1="50.0" x2="1668" y2="50.0" style="stroke:#999; stroke-width:3;" />
  <line x1="1668" y1="50.0" x2="1668" y2="50.0" style="stroke:#999; stroke-width:3;" />
  <line x1="1668" y1="50.0" x2="1688" y2="50.0" style="stroke:#999; stroke-width:3;" />
  <rect class="anc_exon" x="1688" y="35.0" width="156" height="30" style="fill:#87bcbc;fill-opacity:1.00" />
  <line x1="1844" y1="50.0" x2="1864" y2="50.0" style="stroke:#999; stroke-width:3;" />
  <line x1="1864" y1="50.0" x2="1864" y2="50.0" style="stroke:#999; stroke-width:3;" />
  <line x1="1864" y1="50.0" x2="1864" y2="50.0" style="stroke:#999; stroke-width:3;" />
  <line x1="1864" y1="50.0" x2="1884" y2="50.0" style="stroke:#999; stroke-width:3;" />
  <rect class="anc_exon" x="1884" y="35.0" width="162" height="30" style="fill:#87bcbc;fill-opacity:1.00" />
  <line x1="2046" y1="50.0" x2="2066" y2="50.0" style="stroke:#999; stroke-width:3;" />
  <line x1="2066" y1="50.0" x2="2066" y2="50.0" style="stroke:#999; stroke-width:3;" />
  <line x1="2066" y1="50.0" x2="2066" y2="50.0" style="stroke:#999; stroke-width:3;" />
  <line x1="2066" y1="50.0" x2="2086" y2="50.0" style="stroke:#999; stroke-width:3;" />
  <rect class="anc_exon" x="2086" y="35.0" width="649" height="30" style="fill:#87bcbc;fill-opacity:1.00" />
  <line x1="2735" y1="50.0" x2="2755" y2="50.0" style="stroke:#999; stroke-width:3;" />
  <line x1="2755" y1="50.0" x2="2755" y2="50.0" style="stroke:#999; stroke-width:3;" />
  <line x1="2755" y1="50.0" x2="2755" y2="50.0" style="stroke:#999; stroke-width:3;" />
  <line x1="2755" y1="50.0" x2="2775" y2="50.0" style="stroke:#999; stroke-width:3;" />
  <rect class="anc_exon" x="2775" y="35.0" width="66" height="30" style="fill:#87bcbc;fill-opacity:1.00" />
  <line x1="2841" y1="50.0" x2="2861" y2="50.0" style="stroke:#999; stroke-width:3;" />
  <line x1="2861" y1="50.0" x2="2861" y2="50.0" style="stroke:#999; stroke-width:3;" />
  <line x1="2861" y1="50.0" x2="2861" y2="50.0" style="stroke:#999; stroke-width:3;" />
  <line x1="2861" y1="50.0" x2="2881" y2="50.0" style="stroke:#999; stroke-width:3;" />
  <rect class="anc_exon" x="2881" y="35.0" width="64" height="30" style="fill:#87bcbc;fill-opacity:1.00" />
  <line x1="2945" y1="50.0" x2="2965" y2="50.0" style="stroke:#999; stroke-width:3;" />
  <line x1="2965" y1="50.0" x2="2965" y2="50.0" style="stroke:#999; stroke-width:3;" />
  <line x1="2965" y1="50.0" x2="2965" y2="50.0" style="stroke:#999; stroke-width:3;" />
  <line x1="2965" y1="50.0" x2="2985" y2="50.0" style="stroke:#999; stroke-width:3;" />
  <rect class="anc_exon" x="2985" y="35.0" width="152" height="30" style="fill:#87bcbc;fill-opacity:1.00" />
  <line x1="3137" y1="50.0" x2="3157" y2="50.0" style="stroke:#999; stroke-width:3;" />
  <line x1="3157" y1="50.0" x2="3157" y2="50.0" style="stroke:#999; stroke-width:3;" />
  <line x1="3157" y1="50.0" x2="3157" y2="50.0" style="stroke:#999; stroke-width:3;" />
  <line x1="3157" y1="50.0" x2="3177" y2="50.0" style="stroke:#999; stroke-width:3;" />
  <rect class="anc_exon" x="3177" y="35.0" width="84" height="30" style="fill:#87bcbc;fill-opacity:1.00" />
  <line x1="3261" y1="50.0" x2="3281" y2="50.0" style="stroke:#999; stroke-width:3;" />
  <line x1="3281" y1="50.0" x2="3281" y2="50.0" style="stroke:#999; stroke-width:3;" />
  <line x1="3281" y1="50.0" x2="3281" y2="50.0" style="stroke:#999; stroke-width:3;" />
  <line x1="3281" y1="50.0" x2="3301" y2="50.0" style="stroke:#999; stroke-width:3;" />
  <rect class="anc_exon" x="3301" y="35.0" width="44" height="30" style="fill:#87bcbc;fill-opacity:1.00" />
  <rect class="anc_exon" x="3345" y="35.0" width="0" height="30" style="fill:#87bcbc;fill-opacity:1.00" />
  <text style="" >
<tspan x="0" y="83.0" style="font-size:18px;" >SP XM_031955230_1.1</tspan>  </text>



<script type="text/ecmascript">
<![CDATA[
function draw_bbox(text_id)
{
    var text_elem = document.getElementById(text_id);
    var offset_px = 2;
    var offset_py = 0;
    bbox = text_elem.getBBox();
    var box = document.createElementNS(document.rootElement.namespaceURI,'rect');
    box.setAttribute('x', bbox.x - offset_px);
    box.setAttribute('y', bbox.y - offset_py);
    box.setAttribute('width', bbox.width + offset_px * 2);
    box.setAttribute('height', bbox.height + offset_py * 2);
    box.setAttribute('style','fill: white;'+'stroke: black;'+'stroke-width: 1px;');
    text_elem.insertBefore(box,text_elem.childNodes[0]);

    var svg = text_elem.parentNode;
    svg.appendChild(text_elem);
}

for (var i=1; i < 1; i++)
{
draw_bbox("Mouseover" + i);
}
]]> 
</script>
</svg>
