<svg version="1.1"
xmlns="http://www.w3.org/2000/svg"
xmlns:xlink="http://www.w3.org/1999/xlink"
width="2454" height="100" viewBox = "0 0 2454 100"
onclick="mouseclick(evt)">

<script type="text/ecmascript">

<![CDATA[
    function mouseover(evt, target) { 
    var gv = document.getElementById("globalVariable");
    var previoustarget = gv.firstChild.nodeValue;
    if (previoustarget != "none") 
    {
        	document.getElementById(gv.firstChild.nodeValue).setAttributeNS(null, "visibility", "hidden");
    }
    document.getElementById(target).setAttributeNS(null, "visibility", "visible");
    gv.firstChild.nodeValue = target;
        }

    function mouseclick(evt) { 
    var gv = document.getElementById("globalVariable");
    var previoustarget = gv.firstChild.nodeValue;
    if (previoustarget != "none") {
        	document.getElementById(gv.firstChild.nodeValue).setAttributeNS(null, "visibility", "hidden");
        }
    }
]]>
  </script>
<style type="text/css" >

<![CDATA[
    rect.anc_exon {
              stroke-width:3;
                  }

    rect.non_anc_exon {
              stroke: black; stroke-width:3; stroke-dasharray: 5,5;
                    }

    text {
              font-size: 18px;
              font-family: Courier New;
          }
                    ]]>
</style>

<defs>
    <text x="150" y="40" id="globalVariable">none</text>
</defs>

  <rect class="anc_exon" x="0" y="35.0" width="0" height="30" style="fill:#87bcbc;fill-opacity:1.00" />
  <rect class="anc_exon" x="0" y="35.0" width="19.200000000000003" height="30" style="fill:#87bcbc;fill-opacity:1.00" />
  <line x1="19.200000000000003" y1="50.0" x2="59.0" y2="50.0" style="stroke:#999; stroke-width:3;" />
  <rect class="anc_exon" x="59" y="35.0" width="164" height="30" style="fill:#87bcbc;fill-opacity:1.00" />
  <line x1="223" y1="50.0" x2="263" y2="50.0" style="stroke:#999; stroke-width:3;" />
  <rect class="anc_exon" x="263" y="35.0" width="124" height="30" style="fill:#87bcbc;fill-opacity:1.00" />
  <line x1="387" y1="50.0" x2="407" y2="50.0" style="stroke:#999; stroke-width:3;" />
  <line x1="407" y1="50.0" x2="407" y2="50.0" style="stroke:#999; stroke-width:3;" />
  <line x1="407" y1="50.0" x2="407" y2="50.0" style="stroke:#999; stroke-width:3;" />
  <line x1="407" y1="50.0" x2="427" y2="50.0" style="stroke:#999; stroke-width:3;" />
  <rect class="anc_exon" x="427" y="35.0" width="129" height="30" style="fill:#87bcbc;fill-opacity:1.00" />
  <line x1="556" y1="50.0" x2="596" y2="50.0" style="stroke:#999; stroke-width:3;" />
  <rect class="anc_exon" x="596" y="35.0" width="120" height="30" style="fill:#87bcbc;fill-opacity:1.00" />
  <line x1="716" y1="50.0" x2="756" y2="50.0" style="stroke:#999; stroke-width:3;" />
  <rect class="anc_exon" x="756" y="35.0" width="72" height="30" style="fill:#87bcbc;fill-opacity:1.00" />
  <line x1="828" y1="50.0" x2="868" y2="50.0" style="stroke:#999; stroke-width:3;" />
  <rect class="anc_exon" x="868" y="35.0" width="106" height="30" style="fill:#87bcbc;fill-opacity:1.00" />
  <line x1="974" y1="50.0" x2="1014" y2="50.0" style="stroke:#999; stroke-width:3;" />
  <rect class="anc_exon" x="1014" y="35.0" width="71" height="30" style="fill:#87bcbc;fill-opacity:1.00" />
  <line x1="1085" y1="50.0" x2="1125" y2="50.0" style="stroke:#999; stroke-width:3;" />
  <rect class="anc_exon" x="1125" y="35.0" width="172" height="30" style="fill:#87bcbc;fill-opacity:1.00" />
  <line x1="1297" y1="50.0" x2="1337" y2="50.0" style="stroke:#999; stroke-width:3;" />
  <rect class="anc_exon" x="1337" y="35.0" width="107" height="30" style="fill:#87bcbc;fill-opacity:1.00" />
  <line x1="1444" y1="50.0" x2="1484" y2="50.0" style="stroke:#999; stroke-width:3;" />
  <rect class="anc_exon" x="1484" y="35.0" width="72" height="30" style="fill:#87bcbc;fill-opacity:1.00" />
  <line x1="1556" y1="50.0" x2="1596" y2="50.0" style="stroke:#999; stroke-width:3;" />
  <rect class="anc_exon" x="1596" y="35.0" width="136" height="30" style="fill:#878787;fill-opacity:1.00" />
  <line x1="1732" y1="50.0" x2="1772" y2="50.0" style="stroke:#999; stroke-width:3;" />
  <rect class="anc_exon" x="1772" y="35.0" width="140" height="30" style="fill:#87bcbc;fill-opacity:1.00" />
  <line x1="1912" y1="50.0" x2="1932" y2="50.0" style="stroke:#999; stroke-width:3;" />
  <line x1="1932" y1="50.0" x2="1932" y2="50.0" style="stroke:#999; stroke-width:3;" />
  <line x1="1932" y1="50.0" x2="1932" y2="50.0" style="stroke:#999; stroke-width:3;" />
  <line x1="1932" y1="50.0" x2="1952" y2="50.0" style="stroke:#999; stroke-width:3;" />
  <rect class="anc_exon" x="1952" y="35.0" width="100" height="30" style="fill:#87bcbc;fill-opacity:1.00" />
  <line x1="2052" y1="50.0" x2="2092" y2="50.0" style="stroke:#999; stroke-width:3;" />
  <rect class="anc_exon" x="2092" y="35.0" width="62" height="30" style="fill:#87bcbc;fill-opacity:1.00" />
  <line x1="2154" y1="50.0" x2="2194" y2="50.0" style="stroke:#999; stroke-width:3;" />
  <rect class="anc_exon" x="2194" y="35.0" width="48" height="30" style="fill:#87bcbc;fill-opacity:1.00" />
  <line x1="2242" y1="50.0" x2="2262" y2="50.0" style="stroke:#999; stroke-width:3;" />
  <line x1="2262" y1="50.0" x2="2262" y2="50.0" style="stroke:#999; stroke-width:3;" />
  <line x1="2262" y1="50.0" x2="2262" y2="50.0" style="stroke:#999; stroke-width:3;" />
  <line x1="2262" y1="50.0" x2="2282" y2="50.0" style="stroke:#999; stroke-width:3;" />
  <rect class="anc_exon" x="2282" y="35.0" width="136" height="30" style="fill:#87bcbc;fill-opacity:1.00" />
  <rect class="anc_exon" x="2418" y="35.0" width="0" height="30" style="fill:#87bcbc;fill-opacity:1.00" />
  <text style="" >
<tspan x="0" y="83.0" style="font-size:18px;" >SP XM_031954217_1.1</tspan>  </text>



<script type="text/ecmascript">
<![CDATA[
function draw_bbox(text_id)
{
    var text_elem = document.getElementById(text_id);
    var offset_px = 2;
    var offset_py = 0;
    bbox = text_elem.getBBox();
    var box = document.createElementNS(document.rootElement.namespaceURI,'rect');
    box.setAttribute('x', bbox.x - offset_px);
    box.setAttribute('y', bbox.y - offset_py);
    box.setAttribute('width', bbox.width + offset_px * 2);
    box.setAttribute('height', bbox.height + offset_py * 2);
    box.setAttribute('style','fill: white;'+'stroke: black;'+'stroke-width: 1px;');
    text_elem.insertBefore(box,text_elem.childNodes[0]);

    var svg = text_elem.parentNode;
    svg.appendChild(text_elem);
}

for (var i=1; i < 1; i++)
{
draw_bbox("Mouseover" + i);
}
]]> 
</script>
</svg>
