<svg version="1.1"
xmlns="http://www.w3.org/2000/svg"
xmlns:xlink="http://www.w3.org/1999/xlink"
width="2343" height="100" viewBox = "0 0 2343 100"
onclick="mouseclick(evt)">

<script type="text/ecmascript">

<![CDATA[
    function mouseover(evt, target) { 
    var gv = document.getElementById("globalVariable");
    var previoustarget = gv.firstChild.nodeValue;
    if (previoustarget != "none") 
    {
        	document.getElementById(gv.firstChild.nodeValue).setAttributeNS(null, "visibility", "hidden");
    }
    document.getElementById(target).setAttributeNS(null, "visibility", "visible");
    gv.firstChild.nodeValue = target;
        }

    function mouseclick(evt) { 
    var gv = document.getElementById("globalVariable");
    var previoustarget = gv.firstChild.nodeValue;
    if (previoustarget != "none") {
        	document.getElementById(gv.firstChild.nodeValue).setAttributeNS(null, "visibility", "hidden");
        }
    }
]]>
  </script>
<style type="text/css" >

<![CDATA[
    rect.anc_exon {
              stroke-width:3;
                  }

    rect.non_anc_exon {
              stroke: black; stroke-width:3; stroke-dasharray: 5,5;
                    }

    text {
              font-size: 18px;
              font-family: Courier New;
          }
                    ]]>
</style>

<defs>
    <text x="150" y="40" id="globalVariable">none</text>
</defs>

  <rect class="anc_exon" x="0" y="35.0" width="0" height="30" style="fill:#87bcbc;fill-opacity:1.00" />
  <rect class="anc_exon" x="0" y="35.0" width="180.0" height="30" style="fill:#87bcbc;fill-opacity:1.00" />
  <line x1="180.0" y1="50.0" x2="200.0" y2="50.0" style="stroke:#999; stroke-width:3;" />
  <line x1="200.0" y1="50.0" x2="200.0" y2="50.0" style="stroke:#999; stroke-width:3;" />
  <line x1="200.0" y1="50.0" x2="200.0" y2="50.0" style="stroke:#999; stroke-width:3;" />
  <line x1="200.0" y1="50.0" x2="220.0" y2="50.0" style="stroke:#999; stroke-width:3;" />
  <rect class="anc_exon" x="220" y="35.0" width="236" height="30" style="fill:#87bcbc;fill-opacity:1.00" />
  <line x1="456" y1="50.0" x2="496" y2="50.0" style="stroke:#999; stroke-width:3;" />
  <rect class="anc_exon" x="496" y="35.0" width="96" height="30" style="fill:#87bcbc;fill-opacity:1.00" />
  <line x1="592" y1="50.0" x2="612" y2="50.0" style="stroke:#999; stroke-width:3;" />
  <line x1="612" y1="50.0" x2="612" y2="50.0" style="stroke:#999; stroke-width:3;" />
  <line x1="612" y1="50.0" x2="612" y2="50.0" style="stroke:#999; stroke-width:3;" />
  <line x1="612" y1="50.0" x2="632" y2="50.0" style="stroke:#999; stroke-width:3;" />
  <rect class="anc_exon" x="632" y="35.0" width="134" height="30" style="fill:#87bcbc;fill-opacity:1.00" />
  <line x1="766" y1="50.0" x2="786" y2="50.0" style="stroke:#999; stroke-width:3;" />
  <line x1="786" y1="50.0" x2="786" y2="50.0" style="stroke:#999; stroke-width:3;" />
  <line x1="786" y1="50.0" x2="786" y2="50.0" style="stroke:#999; stroke-width:3;" />
  <line x1="786" y1="50.0" x2="806" y2="50.0" style="stroke:#999; stroke-width:3;" />
  <rect class="anc_exon" x="806" y="35.0" width="150" height="30" style="fill:#87bcbc;fill-opacity:1.00" />
  <line x1="956" y1="50.0" x2="976" y2="50.0" style="stroke:#999; stroke-width:3;" />
  <line x1="976" y1="50.0" x2="976" y2="50.0" style="stroke:#999; stroke-width:3;" />
  <line x1="976" y1="50.0" x2="976" y2="50.0" style="stroke:#999; stroke-width:3;" />
  <line x1="976" y1="50.0" x2="996" y2="50.0" style="stroke:#999; stroke-width:3;" />
  <rect class="anc_exon" x="996" y="35.0" width="203" height="30" style="fill:#87bcbc;fill-opacity:1.00" />
  <line x1="1199" y1="50.0" x2="1219" y2="50.0" style="stroke:#999; stroke-width:3;" />
  <line x1="1219" y1="50.0" x2="1219" y2="50.0" style="stroke:#999; stroke-width:3;" />
  <line x1="1219" y1="50.0" x2="1219" y2="50.0" style="stroke:#999; stroke-width:3;" />
  <line x1="1219" y1="50.0" x2="1239" y2="50.0" style="stroke:#999; stroke-width:3;" />
  <rect class="anc_exon" x="1239" y="35.0" width="109" height="30" style="fill:#87bcbc;fill-opacity:1.00" />
  <line x1="1348" y1="50.0" x2="1388" y2="50.0" style="stroke:#999; stroke-width:3;" />
  <rect class="anc_exon" x="1388" y="35.0" width="107" height="30" style="fill:#87bcbc;fill-opacity:1.00" />
  <line x1="1495" y1="50.0" x2="1535" y2="50.0" style="stroke:#999; stroke-width:3;" />
  <rect class="anc_exon" x="1535" y="35.0" width="94" height="30" style="fill:#87bcbc;fill-opacity:1.00" />
  <line x1="1629" y1="50.0" x2="1649" y2="50.0" style="stroke:#999; stroke-width:3;" />
  <line x1="1649" y1="50.0" x2="1649" y2="50.0" style="stroke:#999; stroke-width:3;" />
  <line x1="1649" y1="50.0" x2="1649" y2="50.0" style="stroke:#999; stroke-width:3;" />
  <line x1="1649" y1="50.0" x2="1669" y2="50.0" style="stroke:#999; stroke-width:3;" />
  <rect class="anc_exon" x="1669" y="35.0" width="201" height="30" style="fill:#87bcbc;fill-opacity:1.00" />
  <line x1="1870" y1="50.0" x2="1910" y2="50.0" style="stroke:#999; stroke-width:3;" />
  <rect class="anc_exon" x="1910" y="35.0" width="397" height="30" style="fill:#87bcbc;fill-opacity:1.00" />
  <rect class="anc_exon" x="2307" y="35.0" width="0" height="30" style="fill:#87bcbc;fill-opacity:1.00" />
  <text style="" >
<tspan x="0" y="83.0" style="font-size:18px;" >SP XM_031950335_1.1</tspan>  </text>



<script type="text/ecmascript">
<![CDATA[
function draw_bbox(text_id)
{
    var text_elem = document.getElementById(text_id);
    var offset_px = 2;
    var offset_py = 0;
    bbox = text_elem.getBBox();
    var box = document.createElementNS(document.rootElement.namespaceURI,'rect');
    box.setAttribute('x', bbox.x - offset_px);
    box.setAttribute('y', bbox.y - offset_py);
    box.setAttribute('width', bbox.width + offset_px * 2);
    box.setAttribute('height', bbox.height + offset_py * 2);
    box.setAttribute('style','fill: white;'+'stroke: black;'+'stroke-width: 1px;');
    text_elem.insertBefore(box,text_elem.childNodes[0]);

    var svg = text_elem.parentNode;
    svg.appendChild(text_elem);
}

for (var i=1; i < 1; i++)
{
draw_bbox("Mouseover" + i);
}
]]> 
</script>
</svg>
