<svg version="1.1"
xmlns="http://www.w3.org/2000/svg"
xmlns:xlink="http://www.w3.org/1999/xlink"
width="1804" height="100" viewBox = "0 0 1804 100"
onclick="mouseclick(evt)">

<script type="text/ecmascript">

<![CDATA[
    function mouseover(evt, target) { 
    var gv = document.getElementById("globalVariable");
    var previoustarget = gv.firstChild.nodeValue;
    if (previoustarget != "none") 
    {
        	document.getElementById(gv.firstChild.nodeValue).setAttributeNS(null, "visibility", "hidden");
    }
    document.getElementById(target).setAttributeNS(null, "visibility", "visible");
    gv.firstChild.nodeValue = target;
        }

    function mouseclick(evt) { 
    var gv = document.getElementById("globalVariable");
    var previoustarget = gv.firstChild.nodeValue;
    if (previoustarget != "none") {
        	document.getElementById(gv.firstChild.nodeValue).setAttributeNS(null, "visibility", "hidden");
        }
    }
]]>
  </script>
<style type="text/css" >

<![CDATA[
    rect.anc_exon {
              stroke-width:3;
                  }

    rect.non_anc_exon {
              stroke: black; stroke-width:3; stroke-dasharray: 5,5;
                    }

    text {
              font-size: 18px;
              font-family: Courier New;
          }
                    ]]>
</style>

<defs>
    <text x="150" y="40" id="globalVariable">none</text>
</defs>

  <rect class="anc_exon" x="0" y="35.0" width="0" height="30" style="fill:#87bcbc;fill-opacity:1.00" />
  <rect class="anc_exon" x="0" y="35.0" width="21.6" height="30" style="fill:#87bcbc;fill-opacity:1.00" />
  <line x1="21.6" y1="50.0" x2="61.0" y2="50.0" style="stroke:#999; stroke-width:3;" />
  <rect class="anc_exon" x="61" y="35.0" width="52" height="30" style="fill:#87bcbc;fill-opacity:1.00" />
  <line x1="113" y1="50.0" x2="133" y2="50.0" style="stroke:#999; stroke-width:3;" />
  <line x1="133" y1="50.0" x2="133" y2="50.0" style="stroke:#999; stroke-width:3;" />
  <line x1="133" y1="50.0" x2="133" y2="50.0" style="stroke:#999; stroke-width:3;" />
  <line x1="133" y1="50.0" x2="153" y2="50.0" style="stroke:#999; stroke-width:3;" />
  <rect class="anc_exon" x="153" y="35.0" width="128" height="30" style="fill:#87bcbc;fill-opacity:1.00" />
  <line x1="281" y1="50.0" x2="301" y2="50.0" style="stroke:#999; stroke-width:3;" />
  <line x1="301" y1="50.0" x2="301" y2="50.0" style="stroke:#999; stroke-width:3;" />
  <line x1="301" y1="50.0" x2="301" y2="50.0" style="stroke:#999; stroke-width:3;" />
  <line x1="301" y1="50.0" x2="321" y2="50.0" style="stroke:#999; stroke-width:3;" />
  <rect class="anc_exon" x="321" y="35.0" width="160" height="30" style="fill:#87bcbc;fill-opacity:1.00" />
  <line x1="481" y1="50.0" x2="501" y2="50.0" style="stroke:#999; stroke-width:3;" />
  <line x1="501" y1="50.0" x2="501" y2="50.0" style="stroke:#999; stroke-width:3;" />
  <line x1="501" y1="50.0" x2="501" y2="50.0" style="stroke:#999; stroke-width:3;" />
  <line x1="501" y1="50.0" x2="521" y2="50.0" style="stroke:#999; stroke-width:3;" />
  <rect class="anc_exon" x="521" y="35.0" width="88" height="30" style="fill:#87bcbc;fill-opacity:1.00" />
  <line x1="609" y1="50.0" x2="649" y2="50.0" style="stroke:#999; stroke-width:3;" />
  <rect class="anc_exon" x="649" y="35.0" width="74" height="30" style="fill:#87bcbc;fill-opacity:1.00" />
  <line x1="723" y1="50.0" x2="763" y2="50.0" style="stroke:#999; stroke-width:3;" />
  <rect class="anc_exon" x="763" y="35.0" width="104" height="30" style="fill:#87bcbc;fill-opacity:1.00" />
  <line x1="867" y1="50.0" x2="887" y2="50.0" style="stroke:#999; stroke-width:3;" />
  <line x1="887" y1="50.0" x2="887" y2="50.0" style="stroke:#999; stroke-width:3;" />
  <line x1="887" y1="50.0" x2="887" y2="50.0" style="stroke:#999; stroke-width:3;" />
  <line x1="887" y1="50.0" x2="907" y2="50.0" style="stroke:#999; stroke-width:3;" />
  <rect class="anc_exon" x="907" y="35.0" width="48" height="30" style="fill:#87bcbc;fill-opacity:1.00" />
  <line x1="955" y1="50.0" x2="975" y2="50.0" style="stroke:#999; stroke-width:3;" />
  <line x1="975" y1="50.0" x2="975" y2="50.0" style="stroke:#999; stroke-width:3;" />
  <line x1="975" y1="50.0" x2="975" y2="50.0" style="stroke:#999; stroke-width:3;" />
  <line x1="975" y1="50.0" x2="995" y2="50.0" style="stroke:#999; stroke-width:3;" />
  <rect class="anc_exon" x="995" y="35.0" width="87" height="30" style="fill:#87bcbc;fill-opacity:1.00" />
  <line x1="1082" y1="50.0" x2="1102" y2="50.0" style="stroke:#999; stroke-width:3;" />
  <line x1="1102" y1="50.0" x2="1102" y2="50.0" style="stroke:#999; stroke-width:3;" />
  <line x1="1102" y1="50.0" x2="1102" y2="50.0" style="stroke:#999; stroke-width:3;" />
  <line x1="1102" y1="50.0" x2="1122" y2="50.0" style="stroke:#999; stroke-width:3;" />
  <rect class="anc_exon" x="1122" y="35.0" width="43" height="30" style="fill:#87bcbc;fill-opacity:1.00" />
  <line x1="1165" y1="50.0" x2="1185" y2="50.0" style="stroke:#999; stroke-width:3;" />
  <line x1="1185" y1="50.0" x2="1185" y2="50.0" style="stroke:#999; stroke-width:3;" />
  <line x1="1185" y1="50.0" x2="1185" y2="50.0" style="stroke:#999; stroke-width:3;" />
  <line x1="1185" y1="50.0" x2="1205" y2="50.0" style="stroke:#999; stroke-width:3;" />
  <rect class="anc_exon" x="1205" y="35.0" width="136" height="30" style="fill:#87bcbc;fill-opacity:1.00" />
  <line x1="1341" y1="50.0" x2="1361" y2="50.0" style="stroke:#999; stroke-width:3;" />
  <line x1="1361" y1="50.0" x2="1361" y2="50.0" style="stroke:#999; stroke-width:3;" />
  <line x1="1361" y1="50.0" x2="1361" y2="50.0" style="stroke:#999; stroke-width:3;" />
  <line x1="1361" y1="50.0" x2="1381" y2="50.0" style="stroke:#999; stroke-width:3;" />
  <rect class="anc_exon" x="1381" y="35.0" width="102" height="30" style="fill:#87bcbc;fill-opacity:1.00" />
  <line x1="1483" y1="50.0" x2="1503" y2="50.0" style="stroke:#999; stroke-width:3;" />
  <line x1="1503" y1="50.0" x2="1503" y2="50.0" style="stroke:#999; stroke-width:3;" />
  <line x1="1503" y1="50.0" x2="1503" y2="50.0" style="stroke:#999; stroke-width:3;" />
  <line x1="1503" y1="50.0" x2="1523" y2="50.0" style="stroke:#999; stroke-width:3;" />
  <rect class="anc_exon" x="1523" y="35.0" width="81" height="30" style="fill:#87bcbc;fill-opacity:1.00" />
  <line x1="1604" y1="50.0" x2="1624" y2="50.0" style="stroke:#999; stroke-width:3;" />
  <line x1="1624" y1="50.0" x2="1624" y2="50.0" style="stroke:#999; stroke-width:3;" />
  <line x1="1624" y1="50.0" x2="1624" y2="50.0" style="stroke:#999; stroke-width:3;" />
  <line x1="1624" y1="50.0" x2="1644" y2="50.0" style="stroke:#999; stroke-width:3;" />
  <rect class="anc_exon" x="1644" y="35.0" width="58" height="30" style="fill:#87bcbc;fill-opacity:1.00" />
  <line x1="1702" y1="50.0" x2="1742" y2="50.0" style="stroke:#999; stroke-width:3;" />
  <rect class="anc_exon" x="1742" y="35.0" width="26" height="30" style="fill:#87bcbc;fill-opacity:1.00" />
  <rect class="anc_exon" x="1768" y="35.0" width="0" height="30" style="fill:#87bcbc;fill-opacity:1.00" />
  <text style="" >
<tspan x="0" y="83.0" style="font-size:18px;" >SP XM_031953239_1.1</tspan>  </text>



<script type="text/ecmascript">
<![CDATA[
function draw_bbox(text_id)
{
    var text_elem = document.getElementById(text_id);
    var offset_px = 2;
    var offset_py = 0;
    bbox = text_elem.getBBox();
    var box = document.createElementNS(document.rootElement.namespaceURI,'rect');
    box.setAttribute('x', bbox.x - offset_px);
    box.setAttribute('y', bbox.y - offset_py);
    box.setAttribute('width', bbox.width + offset_px * 2);
    box.setAttribute('height', bbox.height + offset_py * 2);
    box.setAttribute('style','fill: white;'+'stroke: black;'+'stroke-width: 1px;');
    text_elem.insertBefore(box,text_elem.childNodes[0]);

    var svg = text_elem.parentNode;
    svg.appendChild(text_elem);
}

for (var i=1; i < 1; i++)
{
draw_bbox("Mouseover" + i);
}
]]> 
</script>
</svg>
