<svg version="1.1"
xmlns="http://www.w3.org/2000/svg"
xmlns:xlink="http://www.w3.org/1999/xlink"
width="5442" height="100" viewBox = "0 0 5442 100"
onclick="mouseclick(evt)">

<script type="text/ecmascript">

<![CDATA[
    function mouseover(evt, target) { 
    var gv = document.getElementById("globalVariable");
    var previoustarget = gv.firstChild.nodeValue;
    if (previoustarget != "none") 
    {
        	document.getElementById(gv.firstChild.nodeValue).setAttributeNS(null, "visibility", "hidden");
    }
    document.getElementById(target).setAttributeNS(null, "visibility", "visible");
    gv.firstChild.nodeValue = target;
        }

    function mouseclick(evt) { 
    var gv = document.getElementById("globalVariable");
    var previoustarget = gv.firstChild.nodeValue;
    if (previoustarget != "none") {
        	document.getElementById(gv.firstChild.nodeValue).setAttributeNS(null, "visibility", "hidden");
        }
    }
]]>
  </script>
<style type="text/css" >

<![CDATA[
    rect.anc_exon {
              stroke-width:3;
                  }

    rect.non_anc_exon {
              stroke: black; stroke-width:3; stroke-dasharray: 5,5;
                    }

    text {
              font-size: 18px;
              font-family: Courier New;
          }
                    ]]>
</style>

<defs>
    <text x="150" y="40" id="globalVariable">none</text>
</defs>

  <rect class="anc_exon" x="0" y="35.0" width="0" height="30" style="fill:#87bcbc;fill-opacity:1.00" />
  <rect class="anc_exon" x="0" y="35.0" width="98.4" height="30" style="fill:#87bcbc;fill-opacity:1.00" />
  <line x1="98.4" y1="50.0" x2="117.4" y2="50.0" style="stroke:#999; stroke-width:3;" />
  <line x1="117.4" y1="50.0" x2="117.4" y2="50.0" style="stroke:#999; stroke-width:3;" />
  <line x1="117.4" y1="50.0" x2="117.4" y2="50.0" style="stroke:#999; stroke-width:3;" />
  <line x1="117.4" y1="50.0" x2="138.0" y2="50.0" style="stroke:#999; stroke-width:3;" />
  <rect class="anc_exon" x="138" y="35.0" width="45" height="30" style="fill:#87bcbc;fill-opacity:1.00" />
  <line x1="183" y1="50.0" x2="203" y2="50.0" style="stroke:#999; stroke-width:3;" />
  <line x1="203" y1="50.0" x2="203" y2="50.0" style="stroke:#999; stroke-width:3;" />
  <line x1="203" y1="50.0" x2="203" y2="50.0" style="stroke:#999; stroke-width:3;" />
  <line x1="203" y1="50.0" x2="223" y2="50.0" style="stroke:#999; stroke-width:3;" />
  <rect class="anc_exon" x="223" y="35.0" width="100" height="30" style="fill:#87bcbc;fill-opacity:1.00" />
  <line x1="323" y1="50.0" x2="363" y2="50.0" style="stroke:#999; stroke-width:3;" />
  <rect class="anc_exon" x="363" y="35.0" width="82" height="30" style="fill:#87bcbc;fill-opacity:1.00" />
  <line x1="445" y1="50.0" x2="465" y2="50.0" style="stroke:#999; stroke-width:3;" />
  <line x1="465" y1="50.0" x2="465" y2="50.0" style="stroke:#999; stroke-width:3;" />
  <line x1="465" y1="50.0" x2="465" y2="50.0" style="stroke:#999; stroke-width:3;" />
  <line x1="465" y1="50.0" x2="485" y2="50.0" style="stroke:#999; stroke-width:3;" />
  <rect class="anc_exon" x="485" y="35.0" width="224" height="30" style="fill:#87bcbc;fill-opacity:1.00" />
  <line x1="709" y1="50.0" x2="749" y2="50.0" style="stroke:#999; stroke-width:3;" />
  <rect class="anc_exon" x="749" y="35.0" width="83" height="30" style="fill:#87bcbc;fill-opacity:1.00" />
  <line x1="832" y1="50.0" x2="872" y2="50.0" style="stroke:#999; stroke-width:3;" />
  <rect class="anc_exon" x="872" y="35.0" width="135" height="30" style="fill:#87bcbc;fill-opacity:1.00" />
  <line x1="1007" y1="50.0" x2="1047" y2="50.0" style="stroke:#999; stroke-width:3;" />
  <rect class="anc_exon" x="1047" y="35.0" width="116" height="30" style="fill:#87bcbc;fill-opacity:1.00" />
  <line x1="1163" y1="50.0" x2="1183" y2="50.0" style="stroke:#999; stroke-width:3;" />
  <line x1="1183" y1="50.0" x2="1183" y2="50.0" style="stroke:#999; stroke-width:3;" />
  <line x1="1183" y1="50.0" x2="1183" y2="50.0" style="stroke:#999; stroke-width:3;" />
  <line x1="1183" y1="50.0" x2="1203" y2="50.0" style="stroke:#999; stroke-width:3;" />
  <rect class="anc_exon" x="1203" y="35.0" width="114" height="30" style="fill:#87bcbc;fill-opacity:1.00" />
  <line x1="1317" y1="50.0" x2="1357" y2="50.0" style="stroke:#999; stroke-width:3;" />
  <rect class="anc_exon" x="1357" y="35.0" width="84" height="30" style="fill:#87bcbc;fill-opacity:1.00" />
  <line x1="1441" y1="50.0" x2="1461" y2="50.0" style="stroke:#999; stroke-width:3;" />
  <line x1="1461" y1="50.0" x2="1461" y2="50.0" style="stroke:#999; stroke-width:3;" />
  <line x1="1461" y1="50.0" x2="1461" y2="50.0" style="stroke:#999; stroke-width:3;" />
  <line x1="1461" y1="50.0" x2="1481" y2="50.0" style="stroke:#999; stroke-width:3;" />
  <rect class="anc_exon" x="1481" y="35.0" width="120" height="30" style="fill:#87bcbc;fill-opacity:1.00" />
  <line x1="1601" y1="50.0" x2="1621" y2="50.0" style="stroke:#999; stroke-width:3;" />
  <line x1="1621" y1="50.0" x2="1621" y2="50.0" style="stroke:#999; stroke-width:3;" />
  <line x1="1621" y1="50.0" x2="1621" y2="50.0" style="stroke:#999; stroke-width:3;" />
  <line x1="1621" y1="50.0" x2="1641" y2="50.0" style="stroke:#999; stroke-width:3;" />
  <rect class="anc_exon" x="1641" y="35.0" width="87" height="30" style="fill:#87bcbc;fill-opacity:1.00" />
  <line x1="1728" y1="50.0" x2="1768" y2="50.0" style="stroke:#999; stroke-width:3;" />
  <rect class="anc_exon" x="1768" y="35.0" width="176" height="30" style="fill:#87bcbc;fill-opacity:1.00" />
  <line x1="1944" y1="50.0" x2="1984" y2="50.0" style="stroke:#999; stroke-width:3;" />
  <rect class="anc_exon" x="1984" y="35.0" width="148" height="30" style="fill:#87bcbc;fill-opacity:1.00" />
  <line x1="2132" y1="50.0" x2="2172" y2="50.0" style="stroke:#999; stroke-width:3;" />
  <rect class="anc_exon" x="2172" y="35.0" width="76" height="30" style="fill:#87bcbc;fill-opacity:1.00" />
  <line x1="2248" y1="50.0" x2="2268" y2="50.0" style="stroke:#999; stroke-width:3;" />
  <line x1="2268" y1="50.0" x2="2268" y2="50.0" style="stroke:#999; stroke-width:3;" />
  <line x1="2268" y1="50.0" x2="2268" y2="50.0" style="stroke:#999; stroke-width:3;" />
  <line x1="2268" y1="50.0" x2="2288" y2="50.0" style="stroke:#999; stroke-width:3;" />
  <rect class="anc_exon" x="2288" y="35.0" width="66" height="30" style="fill:#87bcbc;fill-opacity:1.00" />
  <line x1="2354" y1="50.0" x2="2394" y2="50.0" style="stroke:#999; stroke-width:3;" />
  <rect class="anc_exon" x="2394" y="35.0" width="168" height="30" style="fill:#87bcbc;fill-opacity:1.00" />
  <line x1="2562" y1="50.0" x2="2602" y2="50.0" style="stroke:#999; stroke-width:3;" />
  <rect class="anc_exon" x="2602" y="35.0" width="80" height="30" style="fill:#87bcbc;fill-opacity:1.00" />
  <line x1="2682" y1="50.0" x2="2702" y2="50.0" style="stroke:#999; stroke-width:3;" />
  <line x1="2702" y1="50.0" x2="2702" y2="50.0" style="stroke:#999; stroke-width:3;" />
  <line x1="2702" y1="50.0" x2="2702" y2="50.0" style="stroke:#999; stroke-width:3;" />
  <line x1="2702" y1="50.0" x2="2722" y2="50.0" style="stroke:#999; stroke-width:3;" />
  <rect class="anc_exon" x="2722" y="35.0" width="280" height="30" style="fill:#87bcbc;fill-opacity:1.00" />
  <line x1="3002" y1="50.0" x2="3042" y2="50.0" style="stroke:#999; stroke-width:3;" />
  <rect class="anc_exon" x="3042" y="35.0" width="189" height="30" style="fill:#87bcbc;fill-opacity:1.00" />
  <line x1="3231" y1="50.0" x2="3271" y2="50.0" style="stroke:#999; stroke-width:3;" />
  <rect class="anc_exon" x="3271" y="35.0" width="710" height="30" style="fill:#87bcbc;fill-opacity:1.00" />
  <line x1="3981" y1="50.0" x2="4021" y2="50.0" style="stroke:#999; stroke-width:3;" />
  <rect class="anc_exon" x="4021" y="35.0" width="78" height="30" style="fill:#87bcbc;fill-opacity:1.00" />
  <line x1="4099" y1="50.0" x2="4139" y2="50.0" style="stroke:#999; stroke-width:3;" />
  <rect class="anc_exon" x="4139" y="35.0" width="180" height="30" style="fill:#87bcbc;fill-opacity:1.00" />
  <line x1="4319" y1="50.0" x2="4339" y2="50.0" style="stroke:#999; stroke-width:3;" />
  <line x1="4339" y1="50.0" x2="4339" y2="50.0" style="stroke:#999; stroke-width:3;" />
  <line x1="4339" y1="50.0" x2="4339" y2="50.0" style="stroke:#999; stroke-width:3;" />
  <line x1="4339" y1="50.0" x2="4359" y2="50.0" style="stroke:#999; stroke-width:3;" />
  <rect class="anc_exon" x="4359" y="35.0" width="140" height="30" style="fill:#87bcbc;fill-opacity:1.00" />
  <line x1="4499" y1="50.0" x2="4539" y2="50.0" style="stroke:#999; stroke-width:3;" />
  <rect class="anc_exon" x="4539" y="35.0" width="382" height="30" style="fill:#87bcbc;fill-opacity:1.00" />
  <line x1="4921" y1="50.0" x2="4961" y2="50.0" style="stroke:#999; stroke-width:3;" />
  <rect class="anc_exon" x="4961" y="35.0" width="174" height="30" style="fill:#87bcbc;fill-opacity:1.00" />
  <line x1="5135" y1="50.0" x2="5175" y2="50.0" style="stroke:#999; stroke-width:3;" />
  <rect class="anc_exon" x="5175" y="35.0" width="115" height="30" style="fill:#87bcbc;fill-opacity:1.00" />
  <line x1="5290" y1="50.0" x2="5310" y2="50.0" style="stroke:#999; stroke-width:3;" />
  <line x1="5310" y1="50.0" x2="5310" y2="50.0" style="stroke:#999; stroke-width:3;" />
  <line x1="5310" y1="50.0" x2="5310" y2="50.0" style="stroke:#999; stroke-width:3;" />
  <line x1="5310" y1="50.0" x2="5330" y2="50.0" style="stroke:#999; stroke-width:3;" />
  <rect class="anc_exon" x="5330" y="35.0" width="76" height="30" style="fill:#87bcbc;fill-opacity:1.00" />
  <rect class="anc_exon" x="5406" y="35.0" width="0" height="30" style="fill:#87bcbc;fill-opacity:1.00" />
  <text style="" >
<tspan x="0" y="83.0" style="font-size:18px;" >SP XM_031955483_1.1</tspan>  </text>



<script type="text/ecmascript">
<![CDATA[
function draw_bbox(text_id)
{
    var text_elem = document.getElementById(text_id);
    var offset_px = 2;
    var offset_py = 0;
    bbox = text_elem.getBBox();
    var box = document.createElementNS(document.rootElement.namespaceURI,'rect');
    box.setAttribute('x', bbox.x - offset_px);
    box.setAttribute('y', bbox.y - offset_py);
    box.setAttribute('width', bbox.width + offset_px * 2);
    box.setAttribute('height', bbox.height + offset_py * 2);
    box.setAttribute('style','fill: white;'+'stroke: black;'+'stroke-width: 1px;');
    text_elem.insertBefore(box,text_elem.childNodes[0]);

    var svg = text_elem.parentNode;
    svg.appendChild(text_elem);
}

for (var i=1; i < 1; i++)
{
draw_bbox("Mouseover" + i);
}
]]> 
</script>
</svg>
