<svg version="1.1"
xmlns="http://www.w3.org/2000/svg"
xmlns:xlink="http://www.w3.org/1999/xlink"
width="3180" height="100" viewBox = "0 0 3180 100"
onclick="mouseclick(evt)">

<script type="text/ecmascript">

<![CDATA[
    function mouseover(evt, target) { 
    var gv = document.getElementById("globalVariable");
    var previoustarget = gv.firstChild.nodeValue;
    if (previoustarget != "none") 
    {
        	document.getElementById(gv.firstChild.nodeValue).setAttributeNS(null, "visibility", "hidden");
    }
    document.getElementById(target).setAttributeNS(null, "visibility", "visible");
    gv.firstChild.nodeValue = target;
        }

    function mouseclick(evt) { 
    var gv = document.getElementById("globalVariable");
    var previoustarget = gv.firstChild.nodeValue;
    if (previoustarget != "none") {
        	document.getElementById(gv.firstChild.nodeValue).setAttributeNS(null, "visibility", "hidden");
        }
    }
]]>
  </script>
<style type="text/css" >

<![CDATA[
    rect.anc_exon {
              stroke-width:3;
                  }

    rect.non_anc_exon {
              stroke: black; stroke-width:3; stroke-dasharray: 5,5;
                    }

    text {
              font-size: 18px;
              font-family: Courier New;
          }
                    ]]>
</style>

<defs>
    <text x="150" y="40" id="globalVariable">none</text>
</defs>

  <rect class="anc_exon" x="0" y="35.0" width="0" height="30" style="fill:#87bcbc;fill-opacity:1.00" />
  <rect class="anc_exon" x="0" y="35.0" width="111.2" height="30" style="fill:#87bcbc;fill-opacity:1.00" />
  <line x1="111.2" y1="50.0" x2="130.2" y2="50.0" style="stroke:#999; stroke-width:3;" />
  <line x1="130.2" y1="50.0" x2="130.2" y2="50.0" style="stroke:#999; stroke-width:3;" />
  <line x1="130.2" y1="50.0" x2="130.2" y2="50.0" style="stroke:#999; stroke-width:3;" />
  <line x1="130.2" y1="50.0" x2="151.0" y2="50.0" style="stroke:#999; stroke-width:3;" />
  <rect class="anc_exon" x="151" y="35.0" width="141" height="30" style="fill:#87bcbc;fill-opacity:1.00" />
  <line x1="292" y1="50.0" x2="332" y2="50.0" style="stroke:#999; stroke-width:3;" />
  <rect class="anc_exon" x="332" y="35.0" width="236" height="30" style="fill:#87bcbc;fill-opacity:1.00" />
  <line x1="568" y1="50.0" x2="588" y2="50.0" style="stroke:#999; stroke-width:3;" />
  <line x1="588" y1="50.0" x2="588" y2="50.0" style="stroke:#999; stroke-width:3;" />
  <line x1="588" y1="50.0" x2="588" y2="50.0" style="stroke:#999; stroke-width:3;" />
  <line x1="588" y1="50.0" x2="608" y2="50.0" style="stroke:#999; stroke-width:3;" />
  <rect class="anc_exon" x="608" y="35.0" width="218" height="30" style="fill:#87bcbc;fill-opacity:1.00" />
  <line x1="826" y1="50.0" x2="846" y2="50.0" style="stroke:#999; stroke-width:3;" />
  <line x1="846" y1="50.0" x2="846" y2="50.0" style="stroke:#999; stroke-width:3;" />
  <line x1="846" y1="50.0" x2="846" y2="50.0" style="stroke:#999; stroke-width:3;" />
  <line x1="846" y1="50.0" x2="866" y2="50.0" style="stroke:#999; stroke-width:3;" />
  <rect class="anc_exon" x="866" y="35.0" width="68" height="30" style="fill:#87bcbc;fill-opacity:1.00" />
  <line x1="934" y1="50.0" x2="974" y2="50.0" style="stroke:#999; stroke-width:3;" />
  <rect class="anc_exon" x="974" y="35.0" width="142" height="30" style="fill:#87bcbc;fill-opacity:1.00" />
  <line x1="1116" y1="50.0" x2="1156" y2="50.0" style="stroke:#999; stroke-width:3;" />
  <rect class="anc_exon" x="1156" y="35.0" width="148" height="30" style="fill:#87bcbc;fill-opacity:1.00" />
  <line x1="1304" y1="50.0" x2="1344" y2="50.0" style="stroke:#999; stroke-width:3;" />
  <rect class="anc_exon" x="1344" y="35.0" width="122" height="30" style="fill:#878787;fill-opacity:1.00" />
  <line x1="1466" y1="50.0" x2="1506" y2="50.0" style="stroke:#999; stroke-width:3;" />
  <rect class="anc_exon" x="1506" y="35.0" width="72" height="30" style="fill:#87bcbc;fill-opacity:1.00" />
  <line x1="1578" y1="50.0" x2="1618" y2="50.0" style="stroke:#999; stroke-width:3;" />
  <rect class="anc_exon" x="1618" y="35.0" width="129" height="30" style="fill:#87bcbc;fill-opacity:1.00" />
  <line x1="1747" y1="50.0" x2="1767" y2="50.0" style="stroke:#999; stroke-width:3;" />
  <line x1="1767" y1="50.0" x2="1767" y2="50.0" style="stroke:#999; stroke-width:3;" />
  <line x1="1767" y1="50.0" x2="1767" y2="50.0" style="stroke:#999; stroke-width:3;" />
  <line x1="1767" y1="50.0" x2="1787" y2="50.0" style="stroke:#999; stroke-width:3;" />
  <rect class="anc_exon" x="1787" y="35.0" width="1357" height="30" style="fill:#87bcbc;fill-opacity:1.00" />
  <rect class="anc_exon" x="3144" y="35.0" width="0" height="30" style="fill:#87bcbc;fill-opacity:1.00" />
  <text style="" >
<tspan x="0" y="83.0" style="font-size:18px;" >SP XM_031954848_1.1</tspan>  </text>



<script type="text/ecmascript">
<![CDATA[
function draw_bbox(text_id)
{
    var text_elem = document.getElementById(text_id);
    var offset_px = 2;
    var offset_py = 0;
    bbox = text_elem.getBBox();
    var box = document.createElementNS(document.rootElement.namespaceURI,'rect');
    box.setAttribute('x', bbox.x - offset_px);
    box.setAttribute('y', bbox.y - offset_py);
    box.setAttribute('width', bbox.width + offset_px * 2);
    box.setAttribute('height', bbox.height + offset_py * 2);
    box.setAttribute('style','fill: white;'+'stroke: black;'+'stroke-width: 1px;');
    text_elem.insertBefore(box,text_elem.childNodes[0]);

    var svg = text_elem.parentNode;
    svg.appendChild(text_elem);
}

for (var i=1; i < 1; i++)
{
draw_bbox("Mouseover" + i);
}
]]> 
</script>
</svg>
