<svg version="1.1"
xmlns="http://www.w3.org/2000/svg"
xmlns:xlink="http://www.w3.org/1999/xlink"
width="3116" height="100" viewBox = "0 0 3116 100"
onclick="mouseclick(evt)">

<script type="text/ecmascript">

<![CDATA[
    function mouseover(evt, target) { 
    var gv = document.getElementById("globalVariable");
    var previoustarget = gv.firstChild.nodeValue;
    if (previoustarget != "none") 
    {
        	document.getElementById(gv.firstChild.nodeValue).setAttributeNS(null, "visibility", "hidden");
    }
    document.getElementById(target).setAttributeNS(null, "visibility", "visible");
    gv.firstChild.nodeValue = target;
        }

    function mouseclick(evt) { 
    var gv = document.getElementById("globalVariable");
    var previoustarget = gv.firstChild.nodeValue;
    if (previoustarget != "none") {
        	document.getElementById(gv.firstChild.nodeValue).setAttributeNS(null, "visibility", "hidden");
        }
    }
]]>
  </script>
<style type="text/css" >

<![CDATA[
    rect.anc_exon {
              stroke-width:3;
                  }

    rect.non_anc_exon {
              stroke: black; stroke-width:3; stroke-dasharray: 5,5;
                    }

    text {
              font-size: 18px;
              font-family: Courier New;
          }
                    ]]>
</style>

<defs>
    <text x="150" y="40" id="globalVariable">none</text>
</defs>

  <rect class="anc_exon" x="0" y="35.0" width="0" height="30" style="fill:#87bcbc;fill-opacity:1.00" />
  <rect class="anc_exon" x="0" y="35.0" width="228.0" height="30" style="fill:#87bcbc;fill-opacity:1.00" />
  <line x1="228.0" y1="50.0" x2="248.0" y2="50.0" style="stroke:#999; stroke-width:3;" />
  <line x1="248.0" y1="50.0" x2="248.0" y2="50.0" style="stroke:#999; stroke-width:3;" />
  <line x1="248.0" y1="50.0" x2="248.0" y2="50.0" style="stroke:#999; stroke-width:3;" />
  <line x1="248.0" y1="50.0" x2="268.0" y2="50.0" style="stroke:#999; stroke-width:3;" />
  <rect class="anc_exon" x="268" y="35.0" width="84" height="30" style="fill:#87bcbc;fill-opacity:1.00" />
  <line x1="352" y1="50.0" x2="372" y2="50.0" style="stroke:#999; stroke-width:3;" />
  <line x1="372" y1="50.0" x2="372" y2="50.0" style="stroke:#999; stroke-width:3;" />
  <line x1="372" y1="50.0" x2="372" y2="50.0" style="stroke:#999; stroke-width:3;" />
  <line x1="372" y1="50.0" x2="392" y2="50.0" style="stroke:#999; stroke-width:3;" />
  <rect class="anc_exon" x="392" y="35.0" width="88" height="30" style="fill:#87bcbc;fill-opacity:1.00" />
  <line x1="480" y1="50.0" x2="520" y2="50.0" style="stroke:#999; stroke-width:3;" />
  <rect class="anc_exon" x="520" y="35.0" width="115" height="30" style="fill:#87bcbc;fill-opacity:1.00" />
  <line x1="635" y1="50.0" x2="655" y2="50.0" style="stroke:#999; stroke-width:3;" />
  <line x1="655" y1="50.0" x2="655" y2="50.0" style="stroke:#999; stroke-width:3;" />
  <line x1="655" y1="50.0" x2="655" y2="50.0" style="stroke:#999; stroke-width:3;" />
  <line x1="655" y1="50.0" x2="675" y2="50.0" style="stroke:#999; stroke-width:3;" />
  <rect class="anc_exon" x="675" y="35.0" width="61" height="30" style="fill:#87bcbc;fill-opacity:1.00" />
  <line x1="736" y1="50.0" x2="756" y2="50.0" style="stroke:#999; stroke-width:3;" />
  <line x1="756" y1="50.0" x2="756" y2="50.0" style="stroke:#999; stroke-width:3;" />
  <line x1="756" y1="50.0" x2="756" y2="50.0" style="stroke:#999; stroke-width:3;" />
  <line x1="756" y1="50.0" x2="776" y2="50.0" style="stroke:#999; stroke-width:3;" />
  <rect class="anc_exon" x="776" y="35.0" width="71" height="30" style="fill:#87bcbc;fill-opacity:1.00" />
  <line x1="847" y1="50.0" x2="867" y2="50.0" style="stroke:#999; stroke-width:3;" />
  <line x1="867" y1="50.0" x2="867" y2="50.0" style="stroke:#999; stroke-width:3;" />
  <line x1="867" y1="50.0" x2="867" y2="50.0" style="stroke:#999; stroke-width:3;" />
  <line x1="867" y1="50.0" x2="887" y2="50.0" style="stroke:#999; stroke-width:3;" />
  <rect class="anc_exon" x="887" y="35.0" width="138" height="30" style="fill:#87bcbc;fill-opacity:1.00" />
  <line x1="1025" y1="50.0" x2="1045" y2="50.0" style="stroke:#999; stroke-width:3;" />
  <line x1="1045" y1="50.0" x2="1045" y2="50.0" style="stroke:#999; stroke-width:3;" />
  <line x1="1045" y1="50.0" x2="1045" y2="50.0" style="stroke:#999; stroke-width:3;" />
  <line x1="1045" y1="50.0" x2="1065" y2="50.0" style="stroke:#999; stroke-width:3;" />
  <rect class="anc_exon" x="1065" y="35.0" width="170" height="30" style="fill:#87bcbc;fill-opacity:1.00" />
  <line x1="1235" y1="50.0" x2="1255" y2="50.0" style="stroke:#999; stroke-width:3;" />
  <line x1="1255" y1="50.0" x2="1255" y2="50.0" style="stroke:#999; stroke-width:3;" />
  <line x1="1255" y1="50.0" x2="1255" y2="50.0" style="stroke:#999; stroke-width:3;" />
  <line x1="1255" y1="50.0" x2="1275" y2="50.0" style="stroke:#999; stroke-width:3;" />
  <rect class="anc_exon" x="1275" y="35.0" width="80" height="30" style="fill:#87bcbc;fill-opacity:1.00" />
  <line x1="1355" y1="50.0" x2="1375" y2="50.0" style="stroke:#999; stroke-width:3;" />
  <line x1="1375" y1="50.0" x2="1375" y2="50.0" style="stroke:#999; stroke-width:3;" />
  <line x1="1375" y1="50.0" x2="1375" y2="50.0" style="stroke:#999; stroke-width:3;" />
  <line x1="1375" y1="50.0" x2="1395" y2="50.0" style="stroke:#999; stroke-width:3;" />
  <rect class="anc_exon" x="1395" y="35.0" width="83" height="30" style="fill:#87bcbc;fill-opacity:1.00" />
  <line x1="1478" y1="50.0" x2="1498" y2="50.0" style="stroke:#999; stroke-width:3;" />
  <line x1="1498" y1="50.0" x2="1498" y2="50.0" style="stroke:#999; stroke-width:3;" />
  <line x1="1498" y1="50.0" x2="1498" y2="50.0" style="stroke:#999; stroke-width:3;" />
  <line x1="1498" y1="50.0" x2="1518" y2="50.0" style="stroke:#999; stroke-width:3;" />
  <rect class="anc_exon" x="1518" y="35.0" width="94" height="30" style="fill:#87bcbc;fill-opacity:1.00" />
  <line x1="1612" y1="50.0" x2="1632" y2="50.0" style="stroke:#999; stroke-width:3;" />
  <line x1="1632" y1="50.0" x2="1632" y2="50.0" style="stroke:#999; stroke-width:3;" />
  <line x1="1632" y1="50.0" x2="1632" y2="50.0" style="stroke:#999; stroke-width:3;" />
  <line x1="1632" y1="50.0" x2="1652" y2="50.0" style="stroke:#999; stroke-width:3;" />
  <rect class="anc_exon" x="1652" y="35.0" width="151" height="30" style="fill:#87bcbc;fill-opacity:1.00" />
  <line x1="1803" y1="50.0" x2="1823" y2="50.0" style="stroke:#999; stroke-width:3;" />
  <line x1="1823" y1="50.0" x2="1823" y2="50.0" style="stroke:#999; stroke-width:3;" />
  <line x1="1823" y1="50.0" x2="1823" y2="50.0" style="stroke:#999; stroke-width:3;" />
  <line x1="1823" y1="50.0" x2="1843" y2="50.0" style="stroke:#999; stroke-width:3;" />
  <rect class="anc_exon" x="1843" y="35.0" width="109" height="30" style="fill:#87bcbc;fill-opacity:1.00" />
  <line x1="1952" y1="50.0" x2="1972" y2="50.0" style="stroke:#999; stroke-width:3;" />
  <line x1="1972" y1="50.0" x2="1972" y2="50.0" style="stroke:#999; stroke-width:3;" />
  <line x1="1972" y1="50.0" x2="1972" y2="50.0" style="stroke:#999; stroke-width:3;" />
  <line x1="1972" y1="50.0" x2="1992" y2="50.0" style="stroke:#999; stroke-width:3;" />
  <rect class="anc_exon" x="1992" y="35.0" width="144" height="30" style="fill:#87bcbc;fill-opacity:1.00" />
  <line x1="2136" y1="50.0" x2="2156" y2="50.0" style="stroke:#999; stroke-width:3;" />
  <line x1="2156" y1="50.0" x2="2156" y2="50.0" style="stroke:#999; stroke-width:3;" />
  <line x1="2156" y1="50.0" x2="2156" y2="50.0" style="stroke:#999; stroke-width:3;" />
  <line x1="2156" y1="50.0" x2="2176" y2="50.0" style="stroke:#999; stroke-width:3;" />
  <rect class="anc_exon" x="2176" y="35.0" width="82" height="30" style="fill:#87bcbc;fill-opacity:1.00" />
  <line x1="2258" y1="50.0" x2="2278" y2="50.0" style="stroke:#999; stroke-width:3;" />
  <line x1="2278" y1="50.0" x2="2278" y2="50.0" style="stroke:#999; stroke-width:3;" />
  <line x1="2278" y1="50.0" x2="2278" y2="50.0" style="stroke:#999; stroke-width:3;" />
  <line x1="2278" y1="50.0" x2="2298" y2="50.0" style="stroke:#999; stroke-width:3;" />
  <rect class="anc_exon" x="2298" y="35.0" width="157" height="30" style="fill:#87bcbc;fill-opacity:1.00" />
  <line x1="2455" y1="50.0" x2="2495" y2="50.0" style="stroke:#999; stroke-width:3;" />
  <rect class="anc_exon" x="2495" y="35.0" width="70" height="30" style="fill:#87bcbc;fill-opacity:1.00" />
  <line x1="2565" y1="50.0" x2="2585" y2="50.0" style="stroke:#999; stroke-width:3;" />
  <line x1="2585" y1="50.0" x2="2585" y2="50.0" style="stroke:#999; stroke-width:3;" />
  <line x1="2585" y1="50.0" x2="2585" y2="50.0" style="stroke:#999; stroke-width:3;" />
  <line x1="2585" y1="50.0" x2="2605" y2="50.0" style="stroke:#999; stroke-width:3;" />
  <rect class="anc_exon" x="2605" y="35.0" width="83" height="30" style="fill:#87bcbc;fill-opacity:1.00" />
  <line x1="2688" y1="50.0" x2="2708" y2="50.0" style="stroke:#999; stroke-width:3;" />
  <line x1="2708" y1="50.0" x2="2708" y2="50.0" style="stroke:#999; stroke-width:3;" />
  <line x1="2708" y1="50.0" x2="2708" y2="50.0" style="stroke:#999; stroke-width:3;" />
  <line x1="2708" y1="50.0" x2="2728" y2="50.0" style="stroke:#999; stroke-width:3;" />
  <rect class="anc_exon" x="2728" y="35.0" width="104" height="30" style="fill:#87bcbc;fill-opacity:1.00" />
  <line x1="2832" y1="50.0" x2="2852" y2="50.0" style="stroke:#999; stroke-width:3;" />
  <line x1="2852" y1="50.0" x2="2852" y2="50.0" style="stroke:#999; stroke-width:3;" />
  <line x1="2852" y1="50.0" x2="2852" y2="50.0" style="stroke:#999; stroke-width:3;" />
  <line x1="2852" y1="50.0" x2="2872" y2="50.0" style="stroke:#999; stroke-width:3;" />
  <rect class="anc_exon" x="2872" y="35.0" width="90" height="30" style="fill:#87bcbc;fill-opacity:1.00" />
  <line x1="2962" y1="50.0" x2="3002" y2="50.0" style="stroke:#999; stroke-width:3;" />
  <rect class="anc_exon" x="3002" y="35.0" width="78" height="30" style="fill:#87bcbc;fill-opacity:1.00" />
  <rect class="anc_exon" x="3080" y="35.0" width="0" height="30" style="fill:#87bcbc;fill-opacity:1.00" />
  <text style="" >
<tspan x="0" y="83.0" style="font-size:18px;" >SP XM_023497530_2.1</tspan>  </text>



<script type="text/ecmascript">
<![CDATA[
function draw_bbox(text_id)
{
    var text_elem = document.getElementById(text_id);
    var offset_px = 2;
    var offset_py = 0;
    bbox = text_elem.getBBox();
    var box = document.createElementNS(document.rootElement.namespaceURI,'rect');
    box.setAttribute('x', bbox.x - offset_px);
    box.setAttribute('y', bbox.y - offset_py);
    box.setAttribute('width', bbox.width + offset_px * 2);
    box.setAttribute('height', bbox.height + offset_py * 2);
    box.setAttribute('style','fill: white;'+'stroke: black;'+'stroke-width: 1px;');
    text_elem.insertBefore(box,text_elem.childNodes[0]);

    var svg = text_elem.parentNode;
    svg.appendChild(text_elem);
}

for (var i=1; i < 1; i++)
{
draw_bbox("Mouseover" + i);
}
]]> 
</script>
</svg>
