<svg version="1.1"
xmlns="http://www.w3.org/2000/svg"
xmlns:xlink="http://www.w3.org/1999/xlink"
width="4745" height="120.0" viewBox = "0 -20.0 4745 120.0"
onclick="mouseclick(evt)">

<script type="text/ecmascript">

<![CDATA[
    function mouseover(evt, target) { 
    var gv = document.getElementById("globalVariable");
    var previoustarget = gv.firstChild.nodeValue;
    if (previoustarget != "none") 
    {
        	document.getElementById(gv.firstChild.nodeValue).setAttributeNS(null, "visibility", "hidden");
    }
    document.getElementById(target).setAttributeNS(null, "visibility", "visible");
    gv.firstChild.nodeValue = target;
        }

    function mouseclick(evt) { 
    var gv = document.getElementById("globalVariable");
    var previoustarget = gv.firstChild.nodeValue;
    if (previoustarget != "none") {
        	document.getElementById(gv.firstChild.nodeValue).setAttributeNS(null, "visibility", "hidden");
        }
    }
]]>
  </script>
<style type="text/css" >

<![CDATA[
    rect.anc_exon {
              stroke-width:3;
                  }

    rect.non_anc_exon {
              stroke: black; stroke-width:3; stroke-dasharray: 5,5;
                    }

    text {
              font-size: 18px;
              font-family: Courier New;
          }
                    ]]>
</style>

<defs>
    <text x="150" y="40" id="globalVariable">none</text>
</defs>

  <rect class="anc_exon" x="0" y="35.0" width="0" height="30" style="fill:#87bcbc;fill-opacity:1.00" />
  <rect class="anc_exon" x="0" y="35.0" width="16.8" height="30" style="fill:#87bcbc;fill-opacity:1.00" />
  <line x1="16.8" y1="50.0" x2="35.8" y2="50.0" style="stroke:#999; stroke-width:3;" />
  <line x1="35.8" y1="50.0" x2="35.8" y2="50.0" style="stroke:#999; stroke-width:3;" />
  <line x1="35.8" y1="50.0" x2="35.8" y2="50.0" style="stroke:#999; stroke-width:3;" />
  <line x1="35.8" y1="50.0" x2="56.0" y2="50.0" style="stroke:#999; stroke-width:3;" />
  <rect class="anc_exon" x="56" y="35.0" width="132" height="30" style="fill:#87bcbc;fill-opacity:1.00" />
  <line x1="188" y1="50.0" x2="228" y2="50.0" style="stroke:#999; stroke-width:3;" />
  <rect class="anc_exon" x="228" y="35.0" width="84" height="30" style="fill:#87bcbc;fill-opacity:1.00" />
  <polygon points="250.4,35.0 252.9,25.0 247.9,25.0" style="fill:#121212; stroke-opacity:1; fill-opacity:1"/>
  <text style="" text-anchor="middle">
<tspan x="250.4" y="16.0" style="font-size:18px;fill:#121212;" >+1</tspan>  </text>
  <line x1="312" y1="50.0" x2="332" y2="50.0" style="stroke:#999; stroke-width:3;" />
  <line x1="332" y1="50.0" x2="332" y2="50.0" style="stroke:#999; stroke-width:3;" />
  <line x1="332" y1="50.0" x2="332" y2="50.0" style="stroke:#999; stroke-width:3;" />
  <line x1="332" y1="50.0" x2="352" y2="50.0" style="stroke:#999; stroke-width:3;" />
  <rect class="anc_exon" x="352" y="35.0" width="34" height="30" style="fill:#87bcbc;fill-opacity:1.00" />
  <line x1="386" y1="50.0" x2="406" y2="50.0" style="stroke:#999; stroke-width:3;" />
  <line x1="406" y1="50.0" x2="406" y2="50.0" style="stroke:#999; stroke-width:3;" />
  <line x1="406" y1="50.0" x2="406" y2="50.0" style="stroke:#999; stroke-width:3;" />
  <line x1="406" y1="50.0" x2="426" y2="50.0" style="stroke:#999; stroke-width:3;" />
  <rect class="anc_exon" x="426" y="35.0" width="60" height="30" style="fill:#87bcbc;fill-opacity:1.00" />
  <line x1="486" y1="50.0" x2="506" y2="50.0" style="stroke:#999; stroke-width:3;" />
  <line x1="506" y1="50.0" x2="506" y2="50.0" style="stroke:#999; stroke-width:3;" />
  <line x1="506" y1="50.0" x2="506" y2="50.0" style="stroke:#999; stroke-width:3;" />
  <line x1="506" y1="50.0" x2="526" y2="50.0" style="stroke:#999; stroke-width:3;" />
  <rect class="anc_exon" x="526" y="35.0" width="175" height="30" style="fill:#87bcbc;fill-opacity:1.00" />
  <line x1="701" y1="50.0" x2="721" y2="50.0" style="stroke:#999; stroke-width:3;" />
  <line x1="721" y1="50.0" x2="721" y2="50.0" style="stroke:#999; stroke-width:3;" />
  <line x1="721" y1="50.0" x2="721" y2="50.0" style="stroke:#999; stroke-width:3;" />
  <line x1="721" y1="50.0" x2="741" y2="50.0" style="stroke:#999; stroke-width:3;" />
  <rect class="anc_exon" x="741" y="35.0" width="70" height="30" style="fill:#87bcbc;fill-opacity:1.00" />
  <line x1="811" y1="50.0" x2="851" y2="50.0" style="stroke:#999; stroke-width:3;" />
  <rect class="anc_exon" x="851" y="35.0" width="122" height="30" style="fill:#87bcbc;fill-opacity:1.00" />
  <line x1="973" y1="50.0" x2="1013" y2="50.0" style="stroke:#999; stroke-width:3;" />
  <rect class="anc_exon" x="1013" y="35.0" width="78" height="30" style="fill:#87bcbc;fill-opacity:1.00" />
  <line x1="1091" y1="50.0" x2="1131" y2="50.0" style="stroke:#999; stroke-width:3;" />
  <rect class="anc_exon" x="1131" y="35.0" width="140" height="30" style="fill:#87bcbc;fill-opacity:1.00" />
  <line x1="1271" y1="50.0" x2="1311" y2="50.0" style="stroke:#999; stroke-width:3;" />
  <rect class="anc_exon" x="1311" y="35.0" width="121" height="30" style="fill:#87bcbc;fill-opacity:1.00" />
  <line x1="1432" y1="50.0" x2="1472" y2="50.0" style="stroke:#999; stroke-width:3;" />
  <rect class="anc_exon" x="1472" y="35.0" width="28" height="30" style="fill:#87bcbc;fill-opacity:1.00" />
  <line x1="1500" y1="50.0" x2="1540" y2="50.0" style="stroke:#999; stroke-width:3;" />
  <rect class="anc_exon" x="1540" y="35.0" width="163" height="30" style="fill:#87bcbc;fill-opacity:1.00" />
  <line x1="1703" y1="50.0" x2="1723" y2="50.0" style="stroke:#999; stroke-width:3;" />
  <line x1="1723" y1="50.0" x2="1723" y2="50.0" style="stroke:#999; stroke-width:3;" />
  <line x1="1723" y1="50.0" x2="1723" y2="50.0" style="stroke:#999; stroke-width:3;" />
  <line x1="1723" y1="50.0" x2="1743" y2="50.0" style="stroke:#999; stroke-width:3;" />
  <rect class="anc_exon" x="1743" y="35.0" width="74" height="30" style="fill:#87bcbc;fill-opacity:1.00" />
  <line x1="1817" y1="50.0" x2="1837" y2="50.0" style="stroke:#999; stroke-width:3;" />
  <line x1="1837" y1="50.0" x2="1837" y2="50.0" style="stroke:#999; stroke-width:3;" />
  <line x1="1837" y1="50.0" x2="1837" y2="50.0" style="stroke:#999; stroke-width:3;" />
  <line x1="1837" y1="50.0" x2="1857" y2="50.0" style="stroke:#999; stroke-width:3;" />
  <rect class="anc_exon" x="1857" y="35.0" width="1636" height="30" style="fill:#87bcbc;fill-opacity:1.00" />
  <line x1="3493" y1="50.0" x2="3533" y2="50.0" style="stroke:#999; stroke-width:3;" />
  <rect class="anc_exon" x="3533" y="35.0" width="84" height="30" style="fill:#87bcbc;fill-opacity:1.00" />
  <line x1="3617" y1="50.0" x2="3657" y2="50.0" style="stroke:#999; stroke-width:3;" />
  <rect class="anc_exon" x="3657" y="35.0" width="328" height="30" style="fill:#87bcbc;fill-opacity:1.00" />
  <line x1="3985" y1="50.0" x2="4005" y2="50.0" style="stroke:#999; stroke-width:3;" />
  <line x1="4005" y1="50.0" x2="4005" y2="50.0" style="stroke:#999; stroke-width:3;" />
  <line x1="4005" y1="50.0" x2="4005" y2="50.0" style="stroke:#999; stroke-width:3;" />
  <line x1="4005" y1="50.0" x2="4025" y2="50.0" style="stroke:#999; stroke-width:3;" />
  <rect class="anc_exon" x="4025" y="35.0" width="84" height="30" style="fill:#87bcbc;fill-opacity:1.00" />
  <line x1="4109" y1="50.0" x2="4149" y2="50.0" style="stroke:#999; stroke-width:3;" />
  <rect class="anc_exon" x="4149" y="35.0" width="62" height="30" style="fill:#87bcbc;fill-opacity:1.00" />
  <line x1="4211" y1="50.0" x2="4251" y2="50.0" style="stroke:#999; stroke-width:3;" />
  <rect class="anc_exon" x="4251" y="35.0" width="67" height="30" style="fill:#87bcbc;fill-opacity:1.00" />
  <line x1="4318" y1="50.0" x2="4358" y2="50.0" style="stroke:#999; stroke-width:3;" />
  <rect class="anc_exon" x="4358" y="35.0" width="67" height="30" style="fill:#87bcbc;fill-opacity:1.00" />
  <line x1="4425" y1="50.0" x2="4445" y2="50.0" style="stroke:#999; stroke-width:3;" />
  <line x1="4445" y1="50.0" x2="4445" y2="50.0" style="stroke:#999; stroke-width:3;" />
  <line x1="4445" y1="50.0" x2="4445" y2="50.0" style="stroke:#999; stroke-width:3;" />
  <line x1="4445" y1="50.0" x2="4465" y2="50.0" style="stroke:#999; stroke-width:3;" />
  <rect class="anc_exon" x="4465" y="35.0" width="64" height="30" style="fill:#87bcbc;fill-opacity:1.00" />
  <line x1="4529" y1="50.0" x2="4569" y2="50.0" style="stroke:#999; stroke-width:3;" />
  <rect class="anc_exon" x="4569" y="35.0" width="93" height="30" style="fill:#87bcbc;fill-opacity:1.00" />
  <line x1="4662" y1="50.0" x2="4682" y2="50.0" style="stroke:#999; stroke-width:3;" />
  <line x1="4682" y1="50.0" x2="4682" y2="50.0" style="stroke:#999; stroke-width:3;" />
  <line x1="4682" y1="50.0" x2="4682" y2="50.0" style="stroke:#999; stroke-width:3;" />
  <line x1="4682" y1="50.0" x2="4702" y2="50.0" style="stroke:#999; stroke-width:3;" />
  <rect class="anc_exon" x="4702" y="35.0" width="7" height="30" style="fill:#87bcbc;fill-opacity:1.00" />
  <rect class="anc_exon" x="4709" y="35.0" width="0" height="30" style="fill:#87bcbc;fill-opacity:1.00" />
  <text style="" >
<tspan x="0" y="83.0" style="font-size:18px;" >SP XM_031953943_1.1</tspan>  </text>



<script type="text/ecmascript">
<![CDATA[
function draw_bbox(text_id)
{
    var text_elem = document.getElementById(text_id);
    var offset_px = 2;
    var offset_py = 0;
    bbox = text_elem.getBBox();
    var box = document.createElementNS(document.rootElement.namespaceURI,'rect');
    box.setAttribute('x', bbox.x - offset_px);
    box.setAttribute('y', bbox.y - offset_py);
    box.setAttribute('width', bbox.width + offset_px * 2);
    box.setAttribute('height', bbox.height + offset_py * 2);
    box.setAttribute('style','fill: white;'+'stroke: black;'+'stroke-width: 1px;');
    text_elem.insertBefore(box,text_elem.childNodes[0]);

    var svg = text_elem.parentNode;
    svg.appendChild(text_elem);
}

for (var i=1; i < 1; i++)
{
draw_bbox("Mouseover" + i);
}
]]> 
</script>
</svg>
