<svg version="1.1"
xmlns="http://www.w3.org/2000/svg"
xmlns:xlink="http://www.w3.org/1999/xlink"
width="1715" height="100" viewBox = "0 0 1715 100"
onclick="mouseclick(evt)">

<script type="text/ecmascript">

<![CDATA[
    function mouseover(evt, target) { 
    var gv = document.getElementById("globalVariable");
    var previoustarget = gv.firstChild.nodeValue;
    if (previoustarget != "none") 
    {
        	document.getElementById(gv.firstChild.nodeValue).setAttributeNS(null, "visibility", "hidden");
    }
    document.getElementById(target).setAttributeNS(null, "visibility", "visible");
    gv.firstChild.nodeValue = target;
        }

    function mouseclick(evt) { 
    var gv = document.getElementById("globalVariable");
    var previoustarget = gv.firstChild.nodeValue;
    if (previoustarget != "none") {
        	document.getElementById(gv.firstChild.nodeValue).setAttributeNS(null, "visibility", "hidden");
        }
    }
]]>
  </script>
<style type="text/css" >

<![CDATA[
    rect.anc_exon {
              stroke-width:3;
                  }

    rect.non_anc_exon {
              stroke: black; stroke-width:3; stroke-dasharray: 5,5;
                    }

    text {
              font-size: 18px;
              font-family: Courier New;
          }
                    ]]>
</style>

<defs>
    <text x="150" y="40" id="globalVariable">none</text>
</defs>

  <rect class="anc_exon" x="0" y="35.0" width="0" height="30" style="fill:#87bcbc;fill-opacity:1.00" />
  <rect class="anc_exon" x="0" y="35.0" width="49.6" height="30" style="fill:#87bcbc;fill-opacity:1.00" />
  <line x1="49.6" y1="50.0" x2="89.0" y2="50.0" style="stroke:#999; stroke-width:3;" />
  <rect class="anc_exon" x="89" y="35.0" width="50" height="30" style="fill:#87bcbc;fill-opacity:1.00" />
  <line x1="139" y1="50.0" x2="159" y2="50.0" style="stroke:#999; stroke-width:3;" />
  <line x1="159" y1="50.0" x2="159" y2="50.0" style="stroke:#999; stroke-width:3;" />
  <line x1="159" y1="50.0" x2="159" y2="50.0" style="stroke:#999; stroke-width:3;" />
  <line x1="159" y1="50.0" x2="179" y2="50.0" style="stroke:#999; stroke-width:3;" />
  <rect class="anc_exon" x="179" y="35.0" width="83" height="30" style="fill:#87bcbc;fill-opacity:1.00" />
  <line x1="262" y1="50.0" x2="302" y2="50.0" style="stroke:#999; stroke-width:3;" />
  <rect class="anc_exon" x="302" y="35.0" width="204" height="30" style="fill:#87bcbc;fill-opacity:1.00" />
  <line x1="506" y1="50.0" x2="526" y2="50.0" style="stroke:#999; stroke-width:3;" />
  <line x1="526" y1="50.0" x2="526" y2="50.0" style="stroke:#999; stroke-width:3;" />
  <line x1="526" y1="50.0" x2="526" y2="50.0" style="stroke:#999; stroke-width:3;" />
  <line x1="526" y1="50.0" x2="546" y2="50.0" style="stroke:#999; stroke-width:3;" />
  <rect class="anc_exon" x="546" y="35.0" width="157" height="30" style="fill:#87bcbc;fill-opacity:1.00" />
  <line x1="703" y1="50.0" x2="723" y2="50.0" style="stroke:#999; stroke-width:3;" />
  <line x1="723" y1="50.0" x2="723" y2="50.0" style="stroke:#999; stroke-width:3;" />
  <line x1="723" y1="50.0" x2="723" y2="50.0" style="stroke:#999; stroke-width:3;" />
  <line x1="723" y1="50.0" x2="743" y2="50.0" style="stroke:#999; stroke-width:3;" />
  <rect class="anc_exon" x="743" y="35.0" width="103" height="30" style="fill:#87bcbc;fill-opacity:1.00" />
  <line x1="846" y1="50.0" x2="886" y2="50.0" style="stroke:#999; stroke-width:3;" />
  <rect class="anc_exon" x="886" y="35.0" width="103" height="30" style="fill:#87bcbc;fill-opacity:1.00" />
  <line x1="989" y1="50.0" x2="1009" y2="50.0" style="stroke:#999; stroke-width:3;" />
  <line x1="1009" y1="50.0" x2="1009" y2="50.0" style="stroke:#999; stroke-width:3;" />
  <line x1="1009" y1="50.0" x2="1009" y2="50.0" style="stroke:#999; stroke-width:3;" />
  <line x1="1009" y1="50.0" x2="1029" y2="50.0" style="stroke:#999; stroke-width:3;" />
  <rect class="anc_exon" x="1029" y="35.0" width="26" height="30" style="fill:#87bcbc;fill-opacity:1.00" />
  <line x1="1055" y1="50.0" x2="1075" y2="50.0" style="stroke:#999; stroke-width:3;" />
  <line x1="1075" y1="50.0" x2="1075" y2="50.0" style="stroke:#999; stroke-width:3;" />
  <line x1="1075" y1="50.0" x2="1075" y2="50.0" style="stroke:#999; stroke-width:3;" />
  <line x1="1075" y1="50.0" x2="1095" y2="50.0" style="stroke:#999; stroke-width:3;" />
  <rect class="anc_exon" x="1095" y="35.0" width="145" height="30" style="fill:#87bcbc;fill-opacity:1.00" />
  <line x1="1240" y1="50.0" x2="1260" y2="50.0" style="stroke:#999; stroke-width:3;" />
  <line x1="1260" y1="50.0" x2="1260" y2="50.0" style="stroke:#999; stroke-width:3;" />
  <line x1="1260" y1="50.0" x2="1260" y2="50.0" style="stroke:#999; stroke-width:3;" />
  <line x1="1260" y1="50.0" x2="1280" y2="50.0" style="stroke:#999; stroke-width:3;" />
  <rect class="anc_exon" x="1280" y="35.0" width="80" height="30" style="fill:#87bcbc;fill-opacity:1.00" />
  <line x1="1360" y1="50.0" x2="1380" y2="50.0" style="stroke:#999; stroke-width:3;" />
  <line x1="1380" y1="50.0" x2="1380" y2="50.0" style="stroke:#999; stroke-width:3;" />
  <line x1="1380" y1="50.0" x2="1380" y2="50.0" style="stroke:#999; stroke-width:3;" />
  <line x1="1380" y1="50.0" x2="1400" y2="50.0" style="stroke:#999; stroke-width:3;" />
  <rect class="anc_exon" x="1400" y="35.0" width="96" height="30" style="fill:#87bcbc;fill-opacity:1.00" />
  <line x1="1496" y1="50.0" x2="1516" y2="50.0" style="stroke:#999; stroke-width:3;" />
  <line x1="1516" y1="50.0" x2="1516" y2="50.0" style="stroke:#999; stroke-width:3;" />
  <line x1="1516" y1="50.0" x2="1516" y2="50.0" style="stroke:#999; stroke-width:3;" />
  <line x1="1516" y1="50.0" x2="1536" y2="50.0" style="stroke:#999; stroke-width:3;" />
  <rect class="anc_exon" x="1536" y="35.0" width="143" height="30" style="fill:#87bcbc;fill-opacity:1.00" />
  <rect class="anc_exon" x="1679" y="35.0" width="0" height="30" style="fill:#87bcbc;fill-opacity:1.00" />
  <text style="" >
<tspan x="0" y="83.0" style="font-size:18px;" >SP XM_031955964_1.1</tspan>  </text>



<script type="text/ecmascript">
<![CDATA[
function draw_bbox(text_id)
{
    var text_elem = document.getElementById(text_id);
    var offset_px = 2;
    var offset_py = 0;
    bbox = text_elem.getBBox();
    var box = document.createElementNS(document.rootElement.namespaceURI,'rect');
    box.setAttribute('x', bbox.x - offset_px);
    box.setAttribute('y', bbox.y - offset_py);
    box.setAttribute('width', bbox.width + offset_px * 2);
    box.setAttribute('height', bbox.height + offset_py * 2);
    box.setAttribute('style','fill: white;'+'stroke: black;'+'stroke-width: 1px;');
    text_elem.insertBefore(box,text_elem.childNodes[0]);

    var svg = text_elem.parentNode;
    svg.appendChild(text_elem);
}

for (var i=1; i < 1; i++)
{
draw_bbox("Mouseover" + i);
}
]]> 
</script>
</svg>
