<svg version="1.1"
xmlns="http://www.w3.org/2000/svg"
xmlns:xlink="http://www.w3.org/1999/xlink"
width="2144" height="100" viewBox = "0 0 2144 100"
onclick="mouseclick(evt)">

<script type="text/ecmascript">

<![CDATA[
    function mouseover(evt, target) { 
    var gv = document.getElementById("globalVariable");
    var previoustarget = gv.firstChild.nodeValue;
    if (previoustarget != "none") 
    {
        	document.getElementById(gv.firstChild.nodeValue).setAttributeNS(null, "visibility", "hidden");
    }
    document.getElementById(target).setAttributeNS(null, "visibility", "visible");
    gv.firstChild.nodeValue = target;
        }

    function mouseclick(evt) { 
    var gv = document.getElementById("globalVariable");
    var previoustarget = gv.firstChild.nodeValue;
    if (previoustarget != "none") {
        	document.getElementById(gv.firstChild.nodeValue).setAttributeNS(null, "visibility", "hidden");
        }
    }
]]>
  </script>
<style type="text/css" >

<![CDATA[
    rect.anc_exon {
              stroke-width:3;
                  }

    rect.non_anc_exon {
              stroke: black; stroke-width:3; stroke-dasharray: 5,5;
                    }

    text {
              font-size: 18px;
              font-family: Courier New;
          }
                    ]]>
</style>

<defs>
    <text x="150" y="40" id="globalVariable">none</text>
</defs>

  <rect class="anc_exon" x="0" y="35.0" width="0" height="30" style="fill:#87bcbc;fill-opacity:1.00" />
  <rect class="anc_exon" x="0" y="35.0" width="19.200000000000003" height="30" style="fill:#87bcbc;fill-opacity:1.00" />
  <line x1="19.200000000000003" y1="50.0" x2="38.2" y2="50.0" style="stroke:#999; stroke-width:3;" />
  <line x1="38.2" y1="50.0" x2="38.2" y2="50.0" style="stroke:#999; stroke-width:3;" />
  <line x1="38.2" y1="50.0" x2="38.2" y2="50.0" style="stroke:#999; stroke-width:3;" />
  <line x1="38.2" y1="50.0" x2="59.0" y2="50.0" style="stroke:#999; stroke-width:3;" />
  <rect class="anc_exon" x="59" y="35.0" width="164" height="30" style="fill:#87bcbc;fill-opacity:1.00" />
  <line x1="223" y1="50.0" x2="243" y2="50.0" style="stroke:#999; stroke-width:3;" />
  <line x1="243" y1="50.0" x2="243" y2="50.0" style="stroke:#999; stroke-width:3;" />
  <line x1="243" y1="50.0" x2="243" y2="50.0" style="stroke:#999; stroke-width:3;" />
  <line x1="243" y1="50.0" x2="263" y2="50.0" style="stroke:#999; stroke-width:3;" />
  <rect class="anc_exon" x="263" y="35.0" width="157" height="30" style="fill:#87bcbc;fill-opacity:1.00" />
  <line x1="420" y1="50.0" x2="440" y2="50.0" style="stroke:#999; stroke-width:3;" />
  <line x1="440" y1="50.0" x2="440" y2="50.0" style="stroke:#999; stroke-width:3;" />
  <line x1="440" y1="50.0" x2="440" y2="50.0" style="stroke:#999; stroke-width:3;" />
  <line x1="440" y1="50.0" x2="460" y2="50.0" style="stroke:#999; stroke-width:3;" />
  <rect class="anc_exon" x="460" y="35.0" width="109" height="30" style="fill:#87bcbc;fill-opacity:1.00" />
  <line x1="569" y1="50.0" x2="589" y2="50.0" style="stroke:#999; stroke-width:3;" />
  <line x1="589" y1="50.0" x2="589" y2="50.0" style="stroke:#999; stroke-width:3;" />
  <line x1="589" y1="50.0" x2="589" y2="50.0" style="stroke:#999; stroke-width:3;" />
  <line x1="589" y1="50.0" x2="609" y2="50.0" style="stroke:#999; stroke-width:3;" />
  <rect class="anc_exon" x="609" y="35.0" width="125" height="30" style="fill:#87bcbc;fill-opacity:1.00" />
  <line x1="734" y1="50.0" x2="754" y2="50.0" style="stroke:#999; stroke-width:3;" />
  <line x1="754" y1="50.0" x2="754" y2="50.0" style="stroke:#999; stroke-width:3;" />
  <line x1="754" y1="50.0" x2="754" y2="50.0" style="stroke:#999; stroke-width:3;" />
  <line x1="754" y1="50.0" x2="774" y2="50.0" style="stroke:#999; stroke-width:3;" />
  <rect class="anc_exon" x="774" y="35.0" width="108" height="30" style="fill:#87bcbc;fill-opacity:1.00" />
  <line x1="882" y1="50.0" x2="902" y2="50.0" style="stroke:#999; stroke-width:3;" />
  <line x1="902" y1="50.0" x2="902" y2="50.0" style="stroke:#999; stroke-width:3;" />
  <line x1="902" y1="50.0" x2="902" y2="50.0" style="stroke:#999; stroke-width:3;" />
  <line x1="902" y1="50.0" x2="922" y2="50.0" style="stroke:#999; stroke-width:3;" />
  <rect class="anc_exon" x="922" y="35.0" width="116" height="30" style="fill:#878787;fill-opacity:1.00" />
  <line x1="1038" y1="50.0" x2="1058" y2="50.0" style="stroke:#999; stroke-width:3;" />
  <line x1="1058" y1="50.0" x2="1058" y2="50.0" style="stroke:#999; stroke-width:3;" />
  <line x1="1058" y1="50.0" x2="1058" y2="50.0" style="stroke:#999; stroke-width:3;" />
  <line x1="1058" y1="50.0" x2="1078" y2="50.0" style="stroke:#999; stroke-width:3;" />
  <rect class="anc_exon" x="1078" y="35.0" width="109" height="30" style="fill:#87bcbc;fill-opacity:1.00" />
  <line x1="1187" y1="50.0" x2="1207" y2="50.0" style="stroke:#999; stroke-width:3;" />
  <line x1="1207" y1="50.0" x2="1207" y2="50.0" style="stroke:#999; stroke-width:3;" />
  <line x1="1207" y1="50.0" x2="1207" y2="50.0" style="stroke:#999; stroke-width:3;" />
  <line x1="1207" y1="50.0" x2="1227" y2="50.0" style="stroke:#999; stroke-width:3;" />
  <rect class="anc_exon" x="1227" y="35.0" width="66" height="30" style="fill:#87bcbc;fill-opacity:1.00" />
  <line x1="1293" y1="50.0" x2="1313" y2="50.0" style="stroke:#999; stroke-width:3;" />
  <line x1="1313" y1="50.0" x2="1313" y2="50.0" style="stroke:#999; stroke-width:3;" />
  <line x1="1313" y1="50.0" x2="1313" y2="50.0" style="stroke:#999; stroke-width:3;" />
  <line x1="1313" y1="50.0" x2="1333" y2="50.0" style="stroke:#999; stroke-width:3;" />
  <rect class="anc_exon" x="1333" y="35.0" width="80" height="30" style="fill:#87bcbc;fill-opacity:1.00" />
  <line x1="1413" y1="50.0" x2="1453" y2="50.0" style="stroke:#999; stroke-width:3;" />
  <rect class="anc_exon" x="1453" y="35.0" width="135" height="30" style="fill:#87bcbc;fill-opacity:1.00" />
  <line x1="1588" y1="50.0" x2="1608" y2="50.0" style="stroke:#999; stroke-width:3;" />
  <line x1="1608" y1="50.0" x2="1608" y2="50.0" style="stroke:#999; stroke-width:3;" />
  <line x1="1608" y1="50.0" x2="1608" y2="50.0" style="stroke:#999; stroke-width:3;" />
  <line x1="1608" y1="50.0" x2="1628" y2="50.0" style="stroke:#999; stroke-width:3;" />
  <rect class="anc_exon" x="1628" y="35.0" width="116" height="30" style="fill:#87bcbc;fill-opacity:1.00" />
  <line x1="1744" y1="50.0" x2="1784" y2="50.0" style="stroke:#999; stroke-width:3;" />
  <rect class="anc_exon" x="1784" y="35.0" width="34" height="30" style="fill:#87bcbc;fill-opacity:1.00" />
  <line x1="1818" y1="50.0" x2="1858" y2="50.0" style="stroke:#999; stroke-width:3;" />
  <rect class="anc_exon" x="1858" y="35.0" width="115" height="30" style="fill:#87bcbc;fill-opacity:1.00" />
  <line x1="1973" y1="50.0" x2="2013" y2="50.0" style="stroke:#999; stroke-width:3;" />
  <rect class="anc_exon" x="2013" y="35.0" width="95" height="30" style="fill:#87bcbc;fill-opacity:1.00" />
  <rect class="anc_exon" x="2108" y="35.0" width="0" height="30" style="fill:#87bcbc;fill-opacity:1.00" />
  <text style="" >
<tspan x="0" y="83.0" style="font-size:18px;" >SP XM_031956216_1.1</tspan>  </text>



<script type="text/ecmascript">
<![CDATA[
function draw_bbox(text_id)
{
    var text_elem = document.getElementById(text_id);
    var offset_px = 2;
    var offset_py = 0;
    bbox = text_elem.getBBox();
    var box = document.createElementNS(document.rootElement.namespaceURI,'rect');
    box.setAttribute('x', bbox.x - offset_px);
    box.setAttribute('y', bbox.y - offset_py);
    box.setAttribute('width', bbox.width + offset_px * 2);
    box.setAttribute('height', bbox.height + offset_py * 2);
    box.setAttribute('style','fill: white;'+'stroke: black;'+'stroke-width: 1px;');
    text_elem.insertBefore(box,text_elem.childNodes[0]);

    var svg = text_elem.parentNode;
    svg.appendChild(text_elem);
}

for (var i=1; i < 1; i++)
{
draw_bbox("Mouseover" + i);
}
]]> 
</script>
</svg>
