<svg version="1.1"
xmlns="http://www.w3.org/2000/svg"
xmlns:xlink="http://www.w3.org/1999/xlink"
width="4502" height="110.0" viewBox = "0 -10.0 4502 110.0"
onclick="mouseclick(evt)">

<script type="text/ecmascript">

<![CDATA[
    function mouseover(evt, target) { 
    var gv = document.getElementById("globalVariable");
    var previoustarget = gv.firstChild.nodeValue;
    if (previoustarget != "none") 
    {
        	document.getElementById(gv.firstChild.nodeValue).setAttributeNS(null, "visibility", "hidden");
    }
    document.getElementById(target).setAttributeNS(null, "visibility", "visible");
    gv.firstChild.nodeValue = target;
        }

    function mouseclick(evt) { 
    var gv = document.getElementById("globalVariable");
    var previoustarget = gv.firstChild.nodeValue;
    if (previoustarget != "none") {
        	document.getElementById(gv.firstChild.nodeValue).setAttributeNS(null, "visibility", "hidden");
        }
    }
]]>
  </script>
<style type="text/css" >

<![CDATA[
    rect.anc_exon {
              stroke-width:3;
                  }

    rect.non_anc_exon {
              stroke: black; stroke-width:3; stroke-dasharray: 5,5;
                    }

    text {
              font-size: 18px;
              font-family: Courier New;
          }
                    ]]>
</style>

<defs>
    <text x="150" y="40" id="globalVariable">none</text>
</defs>

  <rect class="anc_exon" x="0" y="35.0" width="0" height="30" style="fill:#87bcbc;fill-opacity:1.00" />
  <rect class="anc_exon" x="0" y="35.0" width="617.6" height="30" style="fill:#87bcbc;fill-opacity:1.00" />
  <line x1="617.6" y1="50.0" x2="636.6" y2="50.0" style="stroke:#999; stroke-width:3;" />
  <line x1="636.6" y1="50.0" x2="636.6" y2="50.0" style="stroke:#999; stroke-width:3;" />
  <line x1="636.6" y1="50.0" x2="636.6" y2="50.0" style="stroke:#999; stroke-width:3;" />
  <line x1="636.6" y1="50.0" x2="657.0" y2="50.0" style="stroke:#999; stroke-width:3;" />
  <rect class="anc_exon" x="657" y="35.0" width="14" height="30" style="fill:#87bcbc;fill-opacity:1.00" />
  <line x1="671" y1="50.0" x2="691" y2="50.0" style="stroke:#999; stroke-width:3;" />
  <line x1="691" y1="50.0" x2="691" y2="50.0" style="stroke:#999; stroke-width:3;" />
  <line x1="691" y1="50.0" x2="691" y2="50.0" style="stroke:#999; stroke-width:3;" />
  <line x1="691" y1="50.0" x2="711" y2="50.0" style="stroke:#999; stroke-width:3;" />
  <rect class="anc_exon" x="711" y="35.0" width="24" height="30" style="fill:#87bcbc;fill-opacity:1.00" />
  <line x1="735" y1="50.0" x2="775" y2="50.0" style="stroke:#999; stroke-width:3;" />
  <rect class="anc_exon" x="775" y="35.0" width="9" height="30" style="fill:#cf232b;fill-opacity:1.00" />
  <line x1="784" y1="50.0" x2="804" y2="50.0" style="stroke:#999; stroke-width:3;" />
  <line x1="804" y1="50.0" x2="804" y2="50.0" style="stroke:#999; stroke-width:3;" />
  <line x1="804" y1="50.0" x2="804" y2="50.0" style="stroke:#999; stroke-width:3;" />
  <line x1="804" y1="50.0" x2="824" y2="50.0" style="stroke:#999; stroke-width:3;" />
  <rect class="anc_exon" x="824" y="35.0" width="241" height="30" style="fill:#87bcbc;fill-opacity:1.00" />
  <line x1="824.8" y1="35.0" x2="824.8" y2="65.0" style="stroke:#121212;stroke-width:3;"/>
  <text style="" text-anchor="middle">
<tspan x="824.0" y="26.0" style="font-size:18px;fill:#121212;" >TGA</tspan>  </text>
  <line x1="1065" y1="50.0" x2="1085" y2="50.0" style="stroke:#999; stroke-width:3;" />
  <line x1="1085" y1="50.0" x2="1085" y2="50.0" style="stroke:#999; stroke-width:3;" />
  <line x1="1085" y1="50.0" x2="1085" y2="50.0" style="stroke:#999; stroke-width:3;" />
  <line x1="1085" y1="50.0" x2="1105" y2="50.0" style="stroke:#999; stroke-width:3;" />
  <rect class="anc_exon" x="1105" y="35.0" width="36" height="30" style="fill:#87bcbc;fill-opacity:1.00" />
  <line x1="1141" y1="50.0" x2="1181" y2="50.0" style="stroke:#999; stroke-width:3;" />
  <rect class="anc_exon" x="1181" y="35.0" width="129" height="30" style="fill:#87bcbc;fill-opacity:1.00" />
  <line x1="1310" y1="50.0" x2="1330" y2="50.0" style="stroke:#999; stroke-width:3;" />
  <line x1="1330" y1="50.0" x2="1330" y2="50.0" style="stroke:#999; stroke-width:3;" />
  <line x1="1330" y1="50.0" x2="1330" y2="50.0" style="stroke:#999; stroke-width:3;" />
  <line x1="1330" y1="50.0" x2="1350" y2="50.0" style="stroke:#999; stroke-width:3;" />
  <rect class="anc_exon" x="1350" y="35.0" width="351" height="30" style="fill:#87bcbc;fill-opacity:1.00" />
  <line x1="1701" y1="50.0" x2="1721" y2="50.0" style="stroke:#999; stroke-width:3;" />
  <line x1="1721" y1="50.0" x2="1721" y2="50.0" style="stroke:#999; stroke-width:3;" />
  <line x1="1721" y1="50.0" x2="1721" y2="50.0" style="stroke:#999; stroke-width:3;" />
  <line x1="1721" y1="50.0" x2="1741" y2="50.0" style="stroke:#999; stroke-width:3;" />
  <rect class="anc_exon" x="1741" y="35.0" width="307" height="30" style="fill:#87bcbc;fill-opacity:1.00" />
  <line x1="2048" y1="50.0" x2="2068" y2="50.0" style="stroke:#999; stroke-width:3;" />
  <line x1="2068" y1="50.0" x2="2068" y2="50.0" style="stroke:#999; stroke-width:3;" />
  <line x1="2068" y1="50.0" x2="2068" y2="50.0" style="stroke:#999; stroke-width:3;" />
  <line x1="2068" y1="50.0" x2="2088" y2="50.0" style="stroke:#999; stroke-width:3;" />
  <rect class="anc_exon" x="2088" y="35.0" width="163" height="30" style="fill:#87bcbc;fill-opacity:1.00" />
  <line x1="2251" y1="50.0" x2="2271" y2="50.0" style="stroke:#999; stroke-width:3;" />
  <line x1="2271" y1="50.0" x2="2271" y2="50.0" style="stroke:#999; stroke-width:3;" />
  <line x1="2271" y1="50.0" x2="2271" y2="50.0" style="stroke:#999; stroke-width:3;" />
  <line x1="2271" y1="50.0" x2="2291" y2="50.0" style="stroke:#999; stroke-width:3;" />
  <rect class="anc_exon" x="2291" y="35.0" width="21" height="30" style="fill:#87bcbc;fill-opacity:1.00" />
  <line x1="2312" y1="50.0" x2="2332" y2="50.0" style="stroke:#999; stroke-width:3;" />
  <line x1="2332" y1="50.0" x2="2332" y2="50.0" style="stroke:#999; stroke-width:3;" />
  <line x1="2332" y1="50.0" x2="2332" y2="50.0" style="stroke:#999; stroke-width:3;" />
  <line x1="2332" y1="50.0" x2="2352" y2="50.0" style="stroke:#999; stroke-width:3;" />
  <rect class="anc_exon" x="2352" y="35.0" width="98" height="30" style="fill:#87bcbc;fill-opacity:1.00" />
  <line x1="2450" y1="50.0" x2="2470" y2="50.0" style="stroke:#999; stroke-width:3;" />
  <line x1="2470" y1="50.0" x2="2470" y2="50.0" style="stroke:#999; stroke-width:3;" />
  <line x1="2470" y1="50.0" x2="2470" y2="50.0" style="stroke:#999; stroke-width:3;" />
  <line x1="2470" y1="50.0" x2="2490" y2="50.0" style="stroke:#999; stroke-width:3;" />
  <rect class="anc_exon" x="2490" y="35.0" width="305" height="30" style="fill:#87bcbc;fill-opacity:1.00" />
  <line x1="2795" y1="50.0" x2="2835" y2="50.0" style="stroke:#999; stroke-width:3;" />
  <rect class="anc_exon" x="2835" y="35.0" width="152" height="30" style="fill:#87bcbc;fill-opacity:1.00" />
  <line x1="2987" y1="50.0" x2="3007" y2="50.0" style="stroke:#999; stroke-width:3;" />
  <line x1="3007" y1="50.0" x2="3007" y2="50.0" style="stroke:#999; stroke-width:3;" />
  <line x1="3007" y1="50.0" x2="3007" y2="50.0" style="stroke:#999; stroke-width:3;" />
  <line x1="3007" y1="50.0" x2="3027" y2="50.0" style="stroke:#999; stroke-width:3;" />
  <rect class="anc_exon" x="3027" y="35.0" width="139" height="30" style="fill:#87bcbc;fill-opacity:1.00" />
  <line x1="3166" y1="50.0" x2="3186" y2="50.0" style="stroke:#999; stroke-width:3;" />
  <line x1="3186" y1="50.0" x2="3186" y2="50.0" style="stroke:#999; stroke-width:3;" />
  <line x1="3186" y1="50.0" x2="3186" y2="50.0" style="stroke:#999; stroke-width:3;" />
  <line x1="3186" y1="50.0" x2="3206" y2="50.0" style="stroke:#999; stroke-width:3;" />
  <rect class="anc_exon" x="3206" y="35.0" width="96" height="30" style="fill:#87bcbc;fill-opacity:1.00" />
  <line x1="3302" y1="50.0" x2="3322" y2="50.0" style="stroke:#999; stroke-width:3;" />
  <line x1="3322" y1="50.0" x2="3322" y2="50.0" style="stroke:#999; stroke-width:3;" />
  <line x1="3322" y1="50.0" x2="3322" y2="50.0" style="stroke:#999; stroke-width:3;" />
  <line x1="3322" y1="50.0" x2="3342" y2="50.0" style="stroke:#999; stroke-width:3;" />
  <rect class="anc_exon" x="3342" y="35.0" width="145" height="30" style="fill:#87bcbc;fill-opacity:1.00" />
  <line x1="3487" y1="50.0" x2="3507" y2="50.0" style="stroke:#999; stroke-width:3;" />
  <line x1="3507" y1="50.0" x2="3507" y2="50.0" style="stroke:#999; stroke-width:3;" />
  <line x1="3507" y1="50.0" x2="3507" y2="50.0" style="stroke:#999; stroke-width:3;" />
  <line x1="3507" y1="50.0" x2="3527" y2="50.0" style="stroke:#999; stroke-width:3;" />
  <rect class="anc_exon" x="3527" y="35.0" width="137" height="30" style="fill:#87bcbc;fill-opacity:1.00" />
  <line x1="3664" y1="50.0" x2="3684" y2="50.0" style="stroke:#999; stroke-width:3;" />
  <line x1="3684" y1="50.0" x2="3684" y2="50.0" style="stroke:#999; stroke-width:3;" />
  <line x1="3684" y1="50.0" x2="3684" y2="50.0" style="stroke:#999; stroke-width:3;" />
  <line x1="3684" y1="50.0" x2="3704" y2="50.0" style="stroke:#999; stroke-width:3;" />
  <rect class="anc_exon" x="3704" y="35.0" width="72" height="30" style="fill:#87bcbc;fill-opacity:1.00" />
  <line x1="3776" y1="50.0" x2="3816" y2="50.0" style="stroke:#999; stroke-width:3;" />
  <rect class="anc_exon" x="3816" y="35.0" width="256" height="30" style="fill:#87bcbc;fill-opacity:1.00" />
  <line x1="4072" y1="50.0" x2="4092" y2="50.0" style="stroke:#999; stroke-width:3;" />
  <line x1="4092" y1="50.0" x2="4092" y2="50.0" style="stroke:#999; stroke-width:3;" />
  <line x1="4092" y1="50.0" x2="4092" y2="50.0" style="stroke:#999; stroke-width:3;" />
  <line x1="4092" y1="50.0" x2="4112" y2="50.0" style="stroke:#999; stroke-width:3;" />
  <rect class="anc_exon" x="4112" y="35.0" width="70" height="30" style="fill:#87bcbc;fill-opacity:1.00" />
  <line x1="4182" y1="50.0" x2="4202" y2="50.0" style="stroke:#999; stroke-width:3;" />
  <line x1="4202" y1="50.0" x2="4202" y2="50.0" style="stroke:#999; stroke-width:3;" />
  <line x1="4202" y1="50.0" x2="4202" y2="50.0" style="stroke:#999; stroke-width:3;" />
  <line x1="4202" y1="50.0" x2="4222" y2="50.0" style="stroke:#999; stroke-width:3;" />
  <rect class="anc_exon" x="4222" y="35.0" width="244" height="30" style="fill:#87bcbc;fill-opacity:1.00" />
  <rect class="anc_exon" x="4466" y="35.0" width="0" height="30" style="fill:#87bcbc;fill-opacity:1.00" />
  <text style="" >
<tspan x="0" y="83.0" style="font-size:18px;" >SP XM_031957176_1.1</tspan>  </text>



<script type="text/ecmascript">
<![CDATA[
function draw_bbox(text_id)
{
    var text_elem = document.getElementById(text_id);
    var offset_px = 2;
    var offset_py = 0;
    bbox = text_elem.getBBox();
    var box = document.createElementNS(document.rootElement.namespaceURI,'rect');
    box.setAttribute('x', bbox.x - offset_px);
    box.setAttribute('y', bbox.y - offset_py);
    box.setAttribute('width', bbox.width + offset_px * 2);
    box.setAttribute('height', bbox.height + offset_py * 2);
    box.setAttribute('style','fill: white;'+'stroke: black;'+'stroke-width: 1px;');
    text_elem.insertBefore(box,text_elem.childNodes[0]);

    var svg = text_elem.parentNode;
    svg.appendChild(text_elem);
}

for (var i=1; i < 1; i++)
{
draw_bbox("Mouseover" + i);
}
]]> 
</script>
</svg>
